solid C:\Temp\NOELParts\NUT_244_LINK_SHORT_LINK_43_INNER.STL created by CtrlView V2.70
facet normal 0 1 0
outer loop
vertex 245.379 187 4255.2
vertex 227.179 187 4253.87
vertex 181.753 187 4375.58
endloop
endfacet
facet normal 0 1 0
outer loop
vertex 181.753 187 4375.58
vertex 227.179 187 4253.87
vertex 209.367 187 4249.9
endloop
endfacet
facet normal 0 1 0
outer loop
vertex 181.753 187 4375.58
vertex 209.367 187 4249.9
vertex 192.322 187 4243.38
endloop
endfacet
facet normal 0 1 0
outer loop
vertex 192.322 187 4243.38
vertex 176.408 187 4234.45
vertex 181.753 187 4375.58
endloop
endfacet
facet normal 0 1 0
outer loop
vertex 181.753 187 4375.58
vertex 176.408 187 4234.45
vertex 161.964 187 4223.3
endloop
endfacet
facet normal 0 1 0
outer loop
vertex 181.753 187 4375.58
vertex 161.964 187 4223.3
vertex 0 187 4193.83
endloop
endfacet
facet normal 0 1 0
outer loop
vertex 0 187 4193.83
vertex 161.964 187 4223.3
vertex 149.298 187 4210.16
endloop
endfacet
facet normal 0 1 0
outer loop
vertex 0 187 4193.83
vertex 149.298 187 4210.16
vertex 138.68 187 4195.32
endloop
endfacet
facet normal 0 1 0
outer loop
vertex 138.68 187 4195.32
vertex 130.336 187 4179.09
vertex 0 187 4193.83
endloop
endfacet
facet normal 0 1 0
outer loop
vertex 0 187 4193.83
vertex 130.336 187 4179.09
vertex 124.444 187 4161.82
endloop
endfacet
facet normal 0 1 0
outer loop
vertex 0 187 4193.83
vertex 124.444 187 4161.82
vertex 121.129 187 4143.87
endloop
endfacet
facet normal 0 1 0
outer loop
vertex 352.078 187 4195.32
vertex 341.46 187 4210.16
vertex 422.156 187 4306.98
endloop
endfacet
facet normal 0 1 0
outer loop
vertex 422.156 187 4306.98
vertex 341.46 187 4210.16
vertex 328.794 187 4223.3
endloop
endfacet
facet normal 0 1 0
outer loop
vertex 422.156 187 4306.98
vertex 328.794 187 4223.3
vertex 314.35 187 4234.45
endloop
endfacet
facet normal 0 1 0
outer loop
vertex 121.129 187 4143.87
vertex 120.462 187 4125.63
vertex 0 187 4193.83
endloop
endfacet
facet normal 0 1 0
outer loop
vertex 0 187 4193.83
vertex 120.462 187 4125.63
vertex 122.458 187 4107.5
endloop
endfacet
facet normal 0 1 0
outer loop
vertex 0 187 4193.83
vertex 122.458 187 4107.5
vertex 68.6023 187 3953.42
endloop
endfacet
facet normal 0 1 0
outer loop
vertex 68.6023 187 3953.42
vertex 122.458 187 4107.5
vertex 127.074 187 4089.84
endloop
endfacet
facet normal 0 1 0
outer loop
vertex 68.6023 187 3953.42
vertex 127.074 187 4089.84
vertex 134.211 187 4073.04
endloop
endfacet
facet normal 0 1 0
outer loop
vertex 134.211 187 4073.04
vertex 143.718 187 4057.47
vertex 68.6023 187 3953.42
endloop
endfacet
facet normal 0 1 0
outer loop
vertex 68.6023 187 3953.42
vertex 143.718 187 4057.47
vertex 155.391 187 4043.44
endloop
endfacet
facet normal 0 1 0
outer loop
vertex 68.6023 187 3953.42
vertex 155.391 187 4043.44
vertex 168.983 187 4031.26
endloop
endfacet
facet normal 0 1 0
outer loop
vertex 370.296 187 4125.63
vertex 490.758 187 4066.57
vertex 368.3 187 4107.5
endloop
endfacet
facet normal 0 1 0
outer loop
vertex 368.3 187 4107.5
vertex 490.758 187 4066.57
vertex 363.684 187 4089.84
endloop
endfacet
facet normal 0 1 0
outer loop
vertex 314.35 187 4234.45
vertex 298.436 187 4243.38
vertex 422.156 187 4306.98
endloop
endfacet
facet normal 0 1 0
outer loop
vertex 422.156 187 4306.98
vertex 298.436 187 4243.38
vertex 281.392 187 4249.9
endloop
endfacet
facet normal 0 1 0
outer loop
vertex 422.156 187 4306.98
vertex 281.392 187 4249.9
vertex 181.753 187 4375.58
endloop
endfacet
facet normal 0 1 0
outer loop
vertex 181.753 187 4375.58
vertex 281.392 187 4249.9
vertex 263.579 187 4253.87
endloop
endfacet
facet normal 0 1 0
outer loop
vertex 181.753 187 4375.58
vertex 263.579 187 4253.87
vertex 245.379 187 4255.2
endloop
endfacet
facet normal 0 1 0
outer loop
vertex 335.367 187 4043.44
vertex 347.04 187 4057.47
vertex 490.758 187 4066.57
endloop
endfacet
facet normal 0 1 0
outer loop
vertex 490.758 187 4066.57
vertex 347.04 187 4057.47
vertex 356.547 187 4073.04
endloop
endfacet
facet normal 0 1 0
outer loop
vertex 490.758 187 4066.57
vertex 356.547 187 4073.04
vertex 363.684 187 4089.84
endloop
endfacet
facet normal 0 1 0
outer loop
vertex 335.367 187 4043.44
vertex 490.758 187 4066.57
vertex 321.776 187 4031.26
endloop
endfacet
facet normal 0 1 0
outer loop
vertex 321.776 187 4031.26
vertex 490.758 187 4066.57
vertex 309.006 187 3884.82
endloop
endfacet
facet normal 0 1 0
outer loop
vertex 321.776 187 4031.26
vertex 309.006 187 3884.82
vertex 306.556 187 4021.19
endloop
endfacet
facet normal 0 1 0
outer loop
vertex 370.296 187 4125.63
vertex 369.629 187 4143.87
vertex 490.758 187 4066.57
endloop
endfacet
facet normal 0 1 0
outer loop
vertex 490.758 187 4066.57
vertex 369.629 187 4143.87
vertex 366.315 187 4161.82
endloop
endfacet
facet normal 0 1 0
outer loop
vertex 490.758 187 4066.57
vertex 366.315 187 4161.82
vertex 422.156 187 4306.98
endloop
endfacet
facet normal 0 1 0
outer loop
vertex 422.156 187 4306.98
vertex 366.315 187 4161.82
vertex 360.422 187 4179.09
endloop
endfacet
facet normal 0 1 0
outer loop
vertex 422.156 187 4306.98
vertex 360.422 187 4179.09
vertex 352.078 187 4195.32
endloop
endfacet
facet normal 0 1 0
outer loop
vertex 168.983 187 4031.26
vertex 184.202 187 4021.19
vertex 68.6023 187 3953.42
endloop
endfacet
facet normal 0 1 0
outer loop
vertex 68.6023 187 3953.42
vertex 184.202 187 4021.19
vertex 200.725 187 4013.45
endloop
endfacet
facet normal 0 1 0
outer loop
vertex 68.6023 187 3953.42
vertex 200.725 187 4013.45
vertex 309.006 187 3884.82
endloop
endfacet
facet normal 0 1 0
outer loop
vertex 200.725 187 4013.45
vertex 218.2 187 4008.19
vertex 309.006 187 3884.82
endloop
endfacet
facet normal 0 1 0
outer loop
vertex 309.006 187 3884.82
vertex 218.2 187 4008.19
vertex 236.255 187 4005.53
endloop
endfacet
facet normal 0 1 0
outer loop
vertex 309.006 187 3884.82
vertex 236.255 187 4005.53
vertex 254.503 187 4005.53
endloop
endfacet
facet normal 0 1 0
outer loop
vertex 254.503 187 4005.53
vertex 272.558 187 4008.19
vertex 309.006 187 3884.82
endloop
endfacet
facet normal 0 1 0
outer loop
vertex 309.006 187 3884.82
vertex 272.558 187 4008.19
vertex 290.033 187 4013.45
endloop
endfacet
facet normal 0 1 0
outer loop
vertex 309.006 187 3884.82
vertex 290.033 187 4013.45
vertex 306.556 187 4021.19
endloop
endfacet
facet normal -0.961613 0 -0.274409
outer loop
vertex 0 187 4193.83
vertex 68.6023 187 3953.42
vertex 0 0 4193.83
endloop
endfacet
facet normal -0.961613 0 -0.274409
outer loop
vertex 0 0 4193.83
vertex 68.6023 187 3953.42
vertex 68.6023 0 3953.42
endloop
endfacet
facet normal -0.274409 0 -0.961613
outer loop
vertex 68.6023 187 3953.42
vertex 309.006 187 3884.82
vertex 68.6023 0 3953.42
endloop
endfacet
facet normal -0.274409 0 -0.961613
outer loop
vertex 68.6023 0 3953.42
vertex 309.006 187 3884.82
vertex 309.006 0 3884.82
endloop
endfacet
facet normal 0.707107 0 -0.707106
outer loop
vertex 309.006 187 3884.82
vertex 490.758 187 4066.57
vertex 309.006 0 3884.82
endloop
endfacet
facet normal 0.707107 0 -0.707106
outer loop
vertex 309.006 0 3884.82
vertex 490.758 187 4066.57
vertex 490.758 0 4066.57
endloop
endfacet
facet normal 0.961613 0 0.27441
outer loop
vertex 490.758 187 4066.57
vertex 422.156 187 4306.98
vertex 490.758 0 4066.57
endloop
endfacet
facet normal 0.961613 0 0.27441
outer loop
vertex 490.758 0 4066.57
vertex 422.156 187 4306.98
vertex 422.156 0 4306.98
endloop
endfacet
facet normal 0.274412 0 0.961612
outer loop
vertex 422.156 187 4306.98
vertex 181.753 187 4375.58
vertex 422.156 0 4306.98
endloop
endfacet
facet normal 0.274412 0 0.961612
outer loop
vertex 422.156 0 4306.98
vertex 181.753 187 4375.58
vertex 181.753 0 4375.58
endloop
endfacet
facet normal -0.707107 0 0.707106
outer loop
vertex 181.753 187 4375.58
vertex 0 187 4193.83
vertex 181.753 0 4375.58
endloop
endfacet
facet normal -0.707107 0 0.707106
outer loop
vertex 181.753 0 4375.58
vertex 0 187 4193.83
vertex 0 0 4193.83
endloop
endfacet
facet normal -0.217452 0 -0.976071
outer loop
vertex 263.579 0 4253.87
vertex 263.579 187 4253.87
vertex 281.392 0 4249.9
endloop
endfacet
facet normal -0.217452 0 -0.976071
outer loop
vertex 281.392 0 4249.9
vertex 263.579 187 4253.87
vertex 281.392 187 4249.9
endloop
endfacet
facet normal -0.357234 0 -0.934015
outer loop
vertex 281.392 0 4249.9
vertex 281.392 187 4249.9
vertex 298.436 0 4243.38
endloop
endfacet
facet normal -0.357234 0 -0.934015
outer loop
vertex 298.436 0 4243.38
vertex 281.392 187 4249.9
vertex 298.436 187 4243.38
endloop
endfacet
facet normal -0.489409 0 -0.872054
outer loop
vertex 298.436 0 4243.38
vertex 298.436 187 4243.38
vertex 314.35 0 4234.45
endloop
endfacet
facet normal -0.489409 0 -0.872054
outer loop
vertex 314.35 0 4234.45
vertex 298.436 187 4243.38
vertex 314.35 187 4234.45
endloop
endfacet
facet normal -0.611161 0 -0.791506
outer loop
vertex 314.35 0 4234.45
vertex 314.35 187 4234.45
vertex 328.794 0 4223.3
endloop
endfacet
facet normal -0.611161 0 -0.791506
outer loop
vertex 328.794 0 4223.3
vertex 314.35 187 4234.45
vertex 328.794 187 4223.3
endloop
endfacet
facet normal -0.719913 0 -0.694064
outer loop
vertex 328.794 0 4223.3
vertex 328.794 187 4223.3
vertex 341.46 0 4210.16
endloop
endfacet
facet normal -0.719913 0 -0.694064
outer loop
vertex 341.46 0 4210.16
vertex 328.794 187 4223.3
vertex 341.46 187 4210.16
endloop
endfacet
facet normal -0.813286 0 -0.581864
outer loop
vertex 341.46 0 4210.16
vertex 341.46 187 4210.16
vertex 352.078 0 4195.32
endloop
endfacet
facet normal -0.813286 0 -0.581864
outer loop
vertex 352.078 0 4195.32
vertex 341.46 187 4210.16
vertex 352.078 187 4195.32
endloop
endfacet
facet normal -0.889347 0 -0.457232
outer loop
vertex 352.078 0 4195.32
vertex 352.078 187 4195.32
vertex 360.422 0 4179.09
endloop
endfacet
facet normal -0.889347 0 -0.457232
outer loop
vertex 360.422 0 4179.09
vertex 352.078 187 4195.32
vertex 360.422 187 4179.09
endloop
endfacet
facet normal -0.946439 0 -0.322883
outer loop
vertex 360.422 0 4179.09
vertex 360.422 187 4179.09
vertex 366.315 0 4161.82
endloop
endfacet
facet normal -0.946439 0 -0.322883
outer loop
vertex 366.315 0 4161.82
vertex 360.422 187 4179.09
vertex 366.315 187 4161.82
endloop
endfacet
facet normal -0.983367 0 -0.181629
outer loop
vertex 366.315 0 4161.82
vertex 366.315 187 4161.82
vertex 369.629 0 4143.87
endloop
endfacet
facet normal -0.983367 0 -0.181629
outer loop
vertex 369.629 0 4143.87
vertex 366.315 187 4161.82
vertex 369.629 187 4143.87
endloop
endfacet
facet normal -0.999333 0 -0.0365304
outer loop
vertex 369.629 0 4143.87
vertex 369.629 187 4143.87
vertex 370.296 0 4125.63
endloop
endfacet
facet normal -0.999333 0 -0.0365304
outer loop
vertex 370.296 0 4125.63
vertex 369.629 187 4143.87
vertex 370.296 187 4125.63
endloop
endfacet
facet normal -0.994 0 0.109378
outer loop
vertex 370.296 0 4125.63
vertex 370.296 187 4125.63
vertex 368.3 0 4107.5
endloop
endfacet
facet normal -0.994 0 0.109378
outer loop
vertex 368.3 0 4107.5
vertex 370.296 187 4125.63
vertex 368.3 187 4107.5
endloop
endfacet
facet normal -0.967486 0 0.252925
outer loop
vertex 368.3 0 4107.5
vertex 368.3 187 4107.5
vertex 363.684 0 4089.84
endloop
endfacet
facet normal -0.967486 0 0.252925
outer loop
vertex 363.684 0 4089.84
vertex 368.3 187 4107.5
vertex 363.684 187 4089.84
endloop
endfacet
facet normal -0.920344 0 0.391111
outer loop
vertex 363.684 0 4089.84
vertex 363.684 187 4089.84
vertex 356.547 0 4073.04
endloop
endfacet
facet normal -0.920344 0 0.391111
outer loop
vertex 356.547 0 4073.04
vertex 363.684 187 4089.84
vertex 356.547 187 4073.04
endloop
endfacet
facet normal -0.853596 0 0.520935
outer loop
vertex 356.547 0 4073.04
vertex 356.547 187 4073.04
vertex 347.04 0 4057.47
endloop
endfacet
facet normal -0.853596 0 0.520935
outer loop
vertex 347.04 0 4057.47
vertex 356.547 187 4073.04
vertex 347.04 187 4057.47
endloop
endfacet
facet normal -0.768636 0 0.639686
outer loop
vertex 347.04 0 4057.47
vertex 347.04 187 4057.47
vertex 335.367 0 4043.44
endloop
endfacet
facet normal -0.768636 0 0.639686
outer loop
vertex 335.367 0 4043.44
vertex 347.04 187 4057.47
vertex 335.367 187 4043.44
endloop
endfacet
facet normal -0.667329 0 0.744763
outer loop
vertex 335.367 0 4043.44
vertex 335.367 187 4043.44
vertex 321.776 0 4031.26
endloop
endfacet
facet normal -0.667329 0 0.744763
outer loop
vertex 321.776 0 4031.26
vertex 335.367 187 4043.44
vertex 321.776 187 4031.26
endloop
endfacet
facet normal -0.551758 0 0.834004
outer loop
vertex 321.776 0 4031.26
vertex 321.776 187 4031.26
vertex 306.556 0 4021.19
endloop
endfacet
facet normal -0.551758 0 0.834004
outer loop
vertex 306.556 0 4021.19
vertex 321.776 187 4031.26
vertex 306.556 187 4021.19
endloop
endfacet
facet normal -0.424475 0 0.90544
outer loop
vertex 306.556 0 4021.19
vertex 306.556 187 4021.19
vertex 290.033 0 4013.45
endloop
endfacet
facet normal -0.424475 0 0.90544
outer loop
vertex 290.033 0 4013.45
vertex 306.556 187 4021.19
vertex 290.033 187 4013.45
endloop
endfacet
facet normal -0.288083 0 0.957606
outer loop
vertex 290.033 0 4013.45
vertex 290.033 187 4013.45
vertex 272.558 0 4008.19
endloop
endfacet
facet normal -0.288083 0 0.957606
outer loop
vertex 272.558 0 4008.19
vertex 290.033 187 4013.45
vertex 272.558 187 4008.19
endloop
endfacet
facet normal -0.145596 0 0.989344
outer loop
vertex 272.558 0 4008.19
vertex 272.558 187 4008.19
vertex 254.503 0 4005.53
endloop
endfacet
facet normal -0.145596 0 0.989344
outer loop
vertex 254.503 0 4005.53
vertex 272.558 187 4008.19
vertex 254.503 187 4005.53
endloop
endfacet
facet normal 0 0 1
outer loop
vertex 254.503 0 4005.53
vertex 254.503 187 4005.53
vertex 236.255 0 4005.53
endloop
endfacet
facet normal 0 0 1
outer loop
vertex 236.255 0 4005.53
vertex 254.503 187 4005.53
vertex 236.255 187 4005.53
endloop
endfacet
facet normal 0.145598 0 0.989344
outer loop
vertex 236.255 0 4005.53
vertex 236.255 187 4005.53
vertex 218.2 0 4008.19
endloop
endfacet
facet normal 0.145598 0 0.989344
outer loop
vertex 218.2 0 4008.19
vertex 236.255 187 4005.53
vertex 218.2 187 4008.19
endloop
endfacet
facet normal 0.288079 0 0.957607
outer loop
vertex 218.2 0 4008.19
vertex 218.2 187 4008.19
vertex 200.725 0 4013.45
endloop
endfacet
facet normal 0.288079 0 0.957607
outer loop
vertex 200.725 0 4013.45
vertex 218.2 187 4008.19
vertex 200.725 187 4013.45
endloop
endfacet
facet normal 0.424479 0 0.905438
outer loop
vertex 200.725 0 4013.45
vertex 200.725 187 4013.45
vertex 184.202 0 4021.19
endloop
endfacet
facet normal 0.424479 0 0.905438
outer loop
vertex 184.202 0 4021.19
vertex 200.725 187 4013.45
vertex 184.202 187 4021.19
endloop
endfacet
facet normal 0.551759 0 0.834004
outer loop
vertex 184.202 0 4021.19
vertex 184.202 187 4021.19
vertex 168.983 0 4031.26
endloop
endfacet
facet normal 0.551759 0 0.834004
outer loop
vertex 168.983 0 4031.26
vertex 184.202 187 4021.19
vertex 168.983 187 4031.26
endloop
endfacet
facet normal 0.667323 0 0.744769
outer loop
vertex 168.983 0 4031.26
vertex 168.983 187 4031.26
vertex 155.391 0 4043.44
endloop
endfacet
facet normal 0.667323 0 0.744769
outer loop
vertex 155.391 0 4043.44
vertex 168.983 187 4031.26
vertex 155.391 187 4043.44
endloop
endfacet
facet normal 0.768642 0 0.639679
outer loop
vertex 155.391 0 4043.44
vertex 155.391 187 4043.44
vertex 143.718 0 4057.47
endloop
endfacet
facet normal 0.768642 0 0.639679
outer loop
vertex 143.718 0 4057.47
vertex 155.391 187 4043.44
vertex 143.718 187 4057.47
endloop
endfacet
facet normal 0.853591 0 0.520944
outer loop
vertex 143.718 0 4057.47
vertex 143.718 187 4057.47
vertex 134.211 0 4073.04
endloop
endfacet
facet normal 0.853591 0 0.520944
outer loop
vertex 134.211 0 4073.04
vertex 143.718 187 4057.47
vertex 134.211 187 4073.04
endloop
endfacet
facet normal 0.920348 0 0.3911
outer loop
vertex 134.211 0 4073.04
vertex 134.211 187 4073.04
vertex 127.074 0 4089.84
endloop
endfacet
facet normal 0.920348 0 0.3911
outer loop
vertex 127.074 0 4089.84
vertex 134.211 187 4073.04
vertex 127.074 187 4089.84
endloop
endfacet
facet normal 0.967482 0 0.252938
outer loop
vertex 127.074 0 4089.84
vertex 127.074 187 4089.84
vertex 122.458 0 4107.5
endloop
endfacet
facet normal 0.967482 0 0.252938
outer loop
vertex 122.458 0 4107.5
vertex 127.074 187 4089.84
vertex 122.458 187 4107.5
endloop
endfacet
facet normal 0.994 0 0.109377
outer loop
vertex 122.458 0 4107.5
vertex 122.458 187 4107.5
vertex 120.462 0 4125.63
endloop
endfacet
facet normal 0.994 0 0.109377
outer loop
vertex 120.462 0 4125.63
vertex 122.458 187 4107.5
vertex 120.462 187 4125.63
endloop
endfacet
facet normal 0.999333 0 -0.03653
outer loop
vertex 120.462 0 4125.63
vertex 120.462 187 4125.63
vertex 121.129 0 4143.87
endloop
endfacet
facet normal 0.999333 0 -0.03653
outer loop
vertex 121.129 0 4143.87
vertex 120.462 187 4125.63
vertex 121.129 187 4143.87
endloop
endfacet
facet normal 0.983365 0 -0.18164
outer loop
vertex 121.129 0 4143.87
vertex 121.129 187 4143.87
vertex 124.444 0 4161.82
endloop
endfacet
facet normal 0.983365 0 -0.18164
outer loop
vertex 124.444 0 4161.82
vertex 121.129 187 4143.87
vertex 124.444 187 4161.82
endloop
endfacet
facet normal 0.946443 0 -0.322872
outer loop
vertex 124.444 0 4161.82
vertex 124.444 187 4161.82
vertex 130.336 0 4179.09
endloop
endfacet
facet normal 0.946443 0 -0.322872
outer loop
vertex 130.336 0 4179.09
vertex 124.444 187 4161.82
vertex 130.336 187 4179.09
endloop
endfacet
facet normal 0.889348 0 -0.457232
outer loop
vertex 130.336 0 4179.09
vertex 130.336 187 4179.09
vertex 138.68 0 4195.32
endloop
endfacet
facet normal 0.889348 0 -0.457232
outer loop
vertex 138.68 0 4195.32
vertex 130.336 187 4179.09
vertex 138.68 187 4195.32
endloop
endfacet
facet normal 0.813285 0 -0.581865
outer loop
vertex 138.68 0 4195.32
vertex 138.68 187 4195.32
vertex 149.298 0 4210.16
endloop
endfacet
facet normal 0.813285 0 -0.581865
outer loop
vertex 149.298 0 4210.16
vertex 138.68 187 4195.32
vertex 149.298 187 4210.16
endloop
endfacet
facet normal 0.719913 0 -0.694064
outer loop
vertex 149.298 0 4210.16
vertex 149.298 187 4210.16
vertex 161.964 0 4223.3
endloop
endfacet
facet normal 0.719913 0 -0.694064
outer loop
vertex 161.964 0 4223.3
vertex 149.298 187 4210.16
vertex 161.964 187 4223.3
endloop
endfacet
facet normal 0.611161 0 -0.791506
outer loop
vertex 161.964 0 4223.3
vertex 161.964 187 4223.3
vertex 176.408 0 4234.45
endloop
endfacet
facet normal 0.611161 0 -0.791506
outer loop
vertex 176.408 0 4234.45
vertex 161.964 187 4223.3
vertex 176.408 187 4234.45
endloop
endfacet
facet normal 0.489409 0 -0.872054
outer loop
vertex 176.408 0 4234.45
vertex 176.408 187 4234.45
vertex 192.322 0 4243.38
endloop
endfacet
facet normal 0.489409 0 -0.872054
outer loop
vertex 192.322 0 4243.38
vertex 176.408 187 4234.45
vertex 192.322 187 4243.38
endloop
endfacet
facet normal 0.35723 0 -0.934017
outer loop
vertex 192.322 0 4243.38
vertex 192.322 187 4243.38
vertex 209.367 0 4249.9
endloop
endfacet
facet normal 0.35723 0 -0.934017
outer loop
vertex 209.367 0 4249.9
vertex 192.322 187 4243.38
vertex 209.367 187 4249.9
endloop
endfacet
facet normal 0.217452 0 -0.976071
outer loop
vertex 209.367 0 4249.9
vertex 209.367 187 4249.9
vertex 227.179 0 4253.87
endloop
endfacet
facet normal 0.217452 0 -0.976071
outer loop
vertex 227.179 0 4253.87
vertex 209.367 187 4249.9
vertex 227.179 187 4253.87
endloop
endfacet
facet normal 0.072966 0 -0.997334
outer loop
vertex 227.179 0 4253.87
vertex 227.179 187 4253.87
vertex 245.379 0 4255.2
endloop
endfacet
facet normal 0.072966 0 -0.997334
outer loop
vertex 245.379 0 4255.2
vertex 227.179 187 4253.87
vertex 245.379 187 4255.2
endloop
endfacet
facet normal -0.072966 0 -0.997334
outer loop
vertex 245.379 0 4255.2
vertex 245.379 187 4255.2
vertex 263.579 0 4253.87
endloop
endfacet
facet normal -0.072966 0 -0.997334
outer loop
vertex 263.579 0 4253.87
vertex 245.379 187 4255.2
vertex 263.579 187 4253.87
endloop
endfacet
facet normal 0 -1 0
outer loop
vertex 200.725 0 4013.45
vertex 184.202 0 4021.19
vertex 68.6023 0 3953.42
endloop
endfacet
facet normal 0 -1 0
outer loop
vertex 176.408 0 4234.45
vertex 192.322 0 4243.38
vertex 181.753 0 4375.58
endloop
endfacet
facet normal 0 -1 0
outer loop
vertex 181.753 0 4375.58
vertex 192.322 0 4243.38
vertex 209.367 0 4249.9
endloop
endfacet
facet normal 0 -1 0
outer loop
vertex 181.753 0 4375.58
vertex 209.367 0 4249.9
vertex 227.179 0 4253.87
endloop
endfacet
facet normal 0 -1 0
outer loop
vertex 369.629 0 4143.87
vertex 370.296 0 4125.63
vertex 490.758 0 4066.57
endloop
endfacet
facet normal 0 -1 0
outer loop
vertex 184.202 0 4021.19
vertex 168.983 0 4031.26
vertex 68.6023 0 3953.42
endloop
endfacet
facet normal 0 -1 0
outer loop
vertex 68.6023 0 3953.42
vertex 168.983 0 4031.26
vertex 155.391 0 4043.44
endloop
endfacet
facet normal 0 -1 0
outer loop
vertex 68.6023 0 3953.42
vertex 155.391 0 4043.44
vertex 143.718 0 4057.47
endloop
endfacet
facet normal 0 -1 0
outer loop
vertex 0 0 4193.83
vertex 149.298 0 4210.16
vertex 181.753 0 4375.58
endloop
endfacet
facet normal 0 -1 0
outer loop
vertex 181.753 0 4375.58
vertex 149.298 0 4210.16
vertex 161.964 0 4223.3
endloop
endfacet
facet normal 0 -1 0
outer loop
vertex 181.753 0 4375.58
vertex 161.964 0 4223.3
vertex 176.408 0 4234.45
endloop
endfacet
facet normal 0 -1 0
outer loop
vertex 143.718 0 4057.47
vertex 134.211 0 4073.04
vertex 68.6023 0 3953.42
endloop
endfacet
facet normal 0 -1 0
outer loop
vertex 68.6023 0 3953.42
vertex 134.211 0 4073.04
vertex 127.074 0 4089.84
endloop
endfacet
facet normal 0 -1 0
outer loop
vertex 68.6023 0 3953.42
vertex 127.074 0 4089.84
vertex 0 0 4193.83
endloop
endfacet
facet normal 0 -1 0
outer loop
vertex 0 0 4193.83
vertex 127.074 0 4089.84
vertex 122.458 0 4107.5
endloop
endfacet
facet normal 0 -1 0
outer loop
vertex 122.458 0 4107.5
vertex 120.462 0 4125.63
vertex 0 0 4193.83
endloop
endfacet
facet normal 0 -1 0
outer loop
vertex 0 0 4193.83
vertex 120.462 0 4125.63
vertex 121.129 0 4143.87
endloop
endfacet
facet normal 0 -1 0
outer loop
vertex 0 0 4193.83
vertex 121.129 0 4143.87
vertex 124.444 0 4161.82
endloop
endfacet
facet normal 0 -1 0
outer loop
vertex 124.444 0 4161.82
vertex 130.336 0 4179.09
vertex 0 0 4193.83
endloop
endfacet
facet normal 0 -1 0
outer loop
vertex 0 0 4193.83
vertex 130.336 0 4179.09
vertex 138.68 0 4195.32
endloop
endfacet
facet normal 0 -1 0
outer loop
vertex 0 0 4193.83
vertex 138.68 0 4195.32
vertex 149.298 0 4210.16
endloop
endfacet
facet normal 0 -1 0
outer loop
vertex 298.436 0 4243.38
vertex 314.35 0 4234.45
vertex 422.156 0 4306.98
endloop
endfacet
facet normal 0 -1 0
outer loop
vertex 422.156 0 4306.98
vertex 314.35 0 4234.45
vertex 328.794 0 4223.3
endloop
endfacet
facet normal 0 -1 0
outer loop
vertex 422.156 0 4306.98
vertex 328.794 0 4223.3
vertex 341.46 0 4210.16
endloop
endfacet
facet normal 0 -1 0
outer loop
vertex 370.296 0 4125.63
vertex 368.3 0 4107.5
vertex 490.758 0 4066.57
endloop
endfacet
facet normal 0 -1 0
outer loop
vertex 490.758 0 4066.57
vertex 368.3 0 4107.5
vertex 363.684 0 4089.84
endloop
endfacet
facet normal 0 -1 0
outer loop
vertex 490.758 0 4066.57
vertex 363.684 0 4089.84
vertex 356.547 0 4073.04
endloop
endfacet
facet normal 0 -1 0
outer loop
vertex 309.006 0 3884.82
vertex 306.556 0 4021.19
vertex 290.033 0 4013.45
endloop
endfacet
facet normal 0 -1 0
outer loop
vertex 200.725 0 4013.45
vertex 68.6023 0 3953.42
vertex 218.2 0 4008.19
endloop
endfacet
facet normal 0 -1 0
outer loop
vertex 218.2 0 4008.19
vertex 68.6023 0 3953.42
vertex 309.006 0 3884.82
endloop
endfacet
facet normal 0 -1 0
outer loop
vertex 218.2 0 4008.19
vertex 309.006 0 3884.82
vertex 236.255 0 4005.53
endloop
endfacet
facet normal 0 -1 0
outer loop
vertex 227.179 0 4253.87
vertex 245.379 0 4255.2
vertex 181.753 0 4375.58
endloop
endfacet
facet normal 0 -1 0
outer loop
vertex 181.753 0 4375.58
vertex 245.379 0 4255.2
vertex 263.579 0 4253.87
endloop
endfacet
facet normal 0 -1 0
outer loop
vertex 181.753 0 4375.58
vertex 263.579 0 4253.87
vertex 422.156 0 4306.98
endloop
endfacet
facet normal 0 -1 0
outer loop
vertex 422.156 0 4306.98
vertex 263.579 0 4253.87
vertex 281.392 0 4249.9
endloop
endfacet
facet normal 0 -1 0
outer loop
vertex 422.156 0 4306.98
vertex 281.392 0 4249.9
vertex 298.436 0 4243.38
endloop
endfacet
facet normal 0 -1 0
outer loop
vertex 356.547 0 4073.04
vertex 347.04 0 4057.47
vertex 490.758 0 4066.57
endloop
endfacet
facet normal 0 -1 0
outer loop
vertex 490.758 0 4066.57
vertex 347.04 0 4057.47
vertex 335.367 0 4043.44
endloop
endfacet
facet normal 0 -1 0
outer loop
vertex 490.758 0 4066.57
vertex 335.367 0 4043.44
vertex 309.006 0 3884.82
endloop
endfacet
facet normal 0 -1 0
outer loop
vertex 309.006 0 3884.82
vertex 335.367 0 4043.44
vertex 321.776 0 4031.26
endloop
endfacet
facet normal 0 -1 0
outer loop
vertex 309.006 0 3884.82
vertex 321.776 0 4031.26
vertex 306.556 0 4021.19
endloop
endfacet
facet normal 0 -1 0
outer loop
vertex 290.033 0 4013.45
vertex 272.558 0 4008.19
vertex 309.006 0 3884.82
endloop
endfacet
facet normal 0 -1 0
outer loop
vertex 309.006 0 3884.82
vertex 272.558 0 4008.19
vertex 254.503 0 4005.53
endloop
endfacet
facet normal 0 -1 0
outer loop
vertex 309.006 0 3884.82
vertex 254.503 0 4005.53
vertex 236.255 0 4005.53
endloop
endfacet
facet normal 0 -1 0
outer loop
vertex 341.46 0 4210.16
vertex 352.078 0 4195.32
vertex 422.156 0 4306.98
endloop
endfacet
facet normal 0 -1 0
outer loop
vertex 422.156 0 4306.98
vertex 352.078 0 4195.32
vertex 360.422 0 4179.09
endloop
endfacet
facet normal 0 -1 0
outer loop
vertex 422.156 0 4306.98
vertex 360.422 0 4179.09
vertex 490.758 0 4066.57
endloop
endfacet
facet normal 0 -1 0
outer loop
vertex 490.758 0 4066.57
vertex 360.422 0 4179.09
vertex 366.315 0 4161.82
endloop
endfacet
facet normal 0 -1 0
outer loop
vertex 490.758 0 4066.57
vertex 366.315 0 4161.82
vertex 369.629 0 4143.87
endloop
endfacet
endsolid
