solid
 facet normal  1.736482e-001 -6.457357e-016  9.848078e-001
   outer loop
     vertex  1.047590e+002  3.084464e+000 -5.201619e+001
     vertex  1.058669e+002  5.033021e+000 -5.221155e+001
     vertex  1.036511e+002  5.033021e+000 -5.182084e+001
   endloop
 endfacet
 facet normal  1.736482e-001  6.520664e-016  9.848078e-001
   outer loop
     vertex  1.058669e+002  5.033021e+000 -5.221155e+001
     vertex  1.047590e+002  6.981578e+000 -5.201619e+001
     vertex  1.036511e+002  5.033021e+000 -5.182084e+001
   endloop
 endfacet
 facet normal  1.736482e-001  4.625240e-014  9.848078e-001
   outer loop
     vertex  1.047590e+002  6.981578e+000 -5.201619e+001
     vertex  1.025432e+002  6.981578e+000 -5.162549e+001
     vertex  1.036511e+002  5.033021e+000 -5.182084e+001
   endloop
 endfacet
 facet normal  1.736482e-001  2.047362e-014  9.848078e-001
   outer loop
     vertex  1.025432e+002  6.981578e+000 -5.162549e+001
     vertex  1.014353e+002  5.033021e+000 -5.143013e+001
     vertex  1.036511e+002  5.033021e+000 -5.182084e+001
   endloop
 endfacet
 facet normal  1.736482e-001 -2.046729e-014  9.848078e-001
   outer loop
     vertex  1.014353e+002  5.033021e+000 -5.143013e+001
     vertex  1.025432e+002  3.084464e+000 -5.162549e+001
     vertex  1.036511e+002  5.033021e+000 -5.182084e+001
   endloop
 endfacet
 facet normal  1.736482e-001 -4.626506e-014  9.848078e-001
   outer loop
     vertex  1.025432e+002  3.084464e+000 -5.162549e+001
     vertex  1.047590e+002  3.084464e+000 -5.201619e+001
     vertex  1.036511e+002  5.033021e+000 -5.182084e+001
   endloop
 endfacet
 facet normal  8.528685e-001  5.000000e-001 -1.503837e-001
   outer loop
     vertex  1.042902e+002  6.981578e+000 -5.467518e+001
     vertex  1.047590e+002  6.981578e+000 -5.201619e+001
     vertex  1.050786e+002  6.007299e+000 -5.344336e+001
   endloop
 endfacet
 facet normal  8.528685e-001  5.000000e-001 -1.503837e-001
   outer loop
     vertex  1.047590e+002  6.981578e+000 -5.201619e+001
     vertex  1.058669e+002  5.033021e+000 -5.221155e+001
     vertex  1.050786e+002  6.007299e+000 -5.344336e+001
   endloop
 endfacet
 facet normal  8.528685e-001  5.000000e-001 -1.503837e-001
   outer loop
     vertex  1.058669e+002  5.033021e+000 -5.221155e+001
     vertex  1.053981e+002  5.033021e+000 -5.487053e+001
     vertex  1.050786e+002  6.007299e+000 -5.344336e+001
   endloop
 endfacet
 facet normal  8.528685e-001  5.000000e-001 -1.503837e-001
   outer loop
     vertex  1.053981e+002  5.033021e+000 -5.487053e+001
     vertex  1.042902e+002  6.981578e+000 -5.467518e+001
     vertex  1.050786e+002  6.007299e+000 -5.344336e+001
   endloop
 endfacet
 facet normal  1.025504e-014  1.000000e+000  5.874441e-015
   outer loop
     vertex  1.020744e+002  6.981578e+000 -5.428447e+001
     vertex  1.025432e+002  6.981578e+000 -5.162549e+001
     vertex  1.034167e+002  6.981578e+000 -5.315033e+001
   endloop
 endfacet
 facet normal  9.809169e-015  1.000000e+000  5.619031e-015
   outer loop
     vertex  1.025432e+002  6.981578e+000 -5.162549e+001
     vertex  1.047590e+002  6.981578e+000 -5.201619e+001
     vertex  1.034167e+002  6.981578e+000 -5.315033e+001
   endloop
 endfacet
 facet normal  9.809169e-015  1.000000e+000  5.619031e-015
   outer loop
     vertex  1.047590e+002  6.981578e+000 -5.201619e+001
     vertex  1.042902e+002  6.981578e+000 -5.467518e+001
     vertex  1.034167e+002  6.981578e+000 -5.315033e+001
   endloop
 endfacet
 facet normal  1.025504e-014  1.000000e+000  5.874441e-015
   outer loop
     vertex  1.042902e+002  6.981578e+000 -5.467518e+001
     vertex  1.020744e+002  6.981578e+000 -5.428447e+001
     vertex  1.034167e+002  6.981578e+000 -5.315033e+001
   endloop
 endfacet
 facet normal -8.528685e-001  5.000000e-001  1.503837e-001
   outer loop
     vertex  1.009665e+002  5.033021e+000 -5.408911e+001
     vertex  1.014353e+002  5.033021e+000 -5.143013e+001
     vertex  1.017548e+002  6.007299e+000 -5.285730e+001
   endloop
 endfacet
 facet normal -8.528685e-001  5.000000e-001  1.503837e-001
   outer loop
     vertex  1.014353e+002  5.033021e+000 -5.143013e+001
     vertex  1.025432e+002  6.981578e+000 -5.162549e+001
     vertex  1.017548e+002  6.007299e+000 -5.285730e+001
   endloop
 endfacet
 facet normal -8.528685e-001  5.000000e-001  1.503837e-001
   outer loop
     vertex  1.025432e+002  6.981578e+000 -5.162549e+001
     vertex  1.020744e+002  6.981578e+000 -5.428447e+001
     vertex  1.017548e+002  6.007299e+000 -5.285730e+001
   endloop
 endfacet
 facet normal -8.528685e-001  5.000000e-001  1.503837e-001
   outer loop
     vertex  1.020744e+002  6.981578e+000 -5.428447e+001
     vertex  1.009665e+002  5.033021e+000 -5.408911e+001
     vertex  1.017548e+002  6.007299e+000 -5.285730e+001
   endloop
 endfacet
 facet normal -8.528685e-001 -5.000000e-001  1.503837e-001
   outer loop
     vertex  1.020744e+002  3.084464e+000 -5.428447e+001
     vertex  1.025432e+002  3.084464e+000 -5.162549e+001
     vertex  1.017548e+002  4.058742e+000 -5.285730e+001
   endloop
 endfacet
 facet normal -8.528685e-001 -5.000000e-001  1.503837e-001
   outer loop
     vertex  1.025432e+002  3.084464e+000 -5.162549e+001
     vertex  1.014353e+002  5.033021e+000 -5.143013e+001
     vertex  1.017548e+002  4.058742e+000 -5.285730e+001
   endloop
 endfacet
 facet normal -8.528685e-001 -5.000000e-001  1.503837e-001
   outer loop
     vertex  1.014353e+002  5.033021e+000 -5.143013e+001
     vertex  1.009665e+002  5.033021e+000 -5.408911e+001
     vertex  1.017548e+002  4.058742e+000 -5.285730e+001
   endloop
 endfacet
 facet normal -8.528685e-001 -5.000000e-001  1.503837e-001
   outer loop
     vertex  1.009665e+002  5.033021e+000 -5.408911e+001
     vertex  1.020744e+002  3.084464e+000 -5.428447e+001
     vertex  1.017548e+002  4.058742e+000 -5.285730e+001
   endloop
 endfacet
 facet normal -1.479629e-015 -1.000000e+000 -7.254768e-015
   outer loop
     vertex  1.042902e+002  3.084464e+000 -5.467518e+001
     vertex  1.047590e+002  3.084464e+000 -5.201619e+001
     vertex  1.034167e+002  3.084464e+000 -5.315033e+001
   endloop
 endfacet
 facet normal -1.313816e-015 -1.000000e+000 -7.451021e-015
   outer loop
     vertex  1.047590e+002  3.084464e+000 -5.201619e+001
     vertex  1.025432e+002  3.084464e+000 -5.162549e+001
     vertex  1.034167e+002  3.084464e+000 -5.315033e+001
   endloop
 endfacet
 facet normal -1.090880e-015 -1.000000e+000 -7.323315e-015
   outer loop
     vertex  1.025432e+002  3.084464e+000 -5.162549e+001
     vertex  1.020744e+002  3.084464e+000 -5.428447e+001
     vertex  1.034167e+002  3.084464e+000 -5.315033e+001
   endloop
 endfacet
 facet normal -1.256694e-015 -1.000000e+000 -7.127063e-015
   outer loop
     vertex  1.020744e+002  3.084464e+000 -5.428447e+001
     vertex  1.042902e+002  3.084464e+000 -5.467518e+001
     vertex  1.034167e+002  3.084464e+000 -5.315033e+001
   endloop
 endfacet
 facet normal  8.528685e-001 -5.000000e-001 -1.503837e-001
   outer loop
     vertex  1.053981e+002  5.033021e+000 -5.487053e+001
     vertex  1.058669e+002  5.033021e+000 -5.221155e+001
     vertex  1.050786e+002  4.058742e+000 -5.344336e+001
   endloop
 endfacet
 facet normal  8.528685e-001 -5.000000e-001 -1.503837e-001
   outer loop
     vertex  1.058669e+002  5.033021e+000 -5.221155e+001
     vertex  1.047590e+002  3.084464e+000 -5.201619e+001
     vertex  1.050786e+002  4.058742e+000 -5.344336e+001
   endloop
 endfacet
 facet normal  8.528685e-001 -5.000000e-001 -1.503837e-001
   outer loop
     vertex  1.047590e+002  3.084464e+000 -5.201619e+001
     vertex  1.042902e+002  3.084464e+000 -5.467518e+001
     vertex  1.050786e+002  4.058742e+000 -5.344336e+001
   endloop
 endfacet
 facet normal  8.528685e-001 -5.000000e-001 -1.503837e-001
   outer loop
     vertex  1.042902e+002  3.084464e+000 -5.467518e+001
     vertex  1.053981e+002  5.033021e+000 -5.487053e+001
     vertex  1.050786e+002  4.058742e+000 -5.344336e+001
   endloop
 endfacet
 facet normal -1.736482e-001 -1.785269e-015 -9.848078e-001
   outer loop
     vertex  1.031823e+002  5.033021e+000 -5.447982e+001
     vertex  1.053981e+002  5.033021e+000 -5.487053e+001
     vertex  1.042902e+002  3.084464e+000 -5.467518e+001
   endloop
 endfacet
 facet normal -1.736482e-001  2.218292e-014 -9.848078e-001
   outer loop
     vertex  1.031823e+002  5.033021e+000 -5.447982e+001
     vertex  1.042902e+002  3.084464e+000 -5.467518e+001
     vertex  1.020744e+002  3.084464e+000 -5.428447e+001
   endloop
 endfacet
 facet normal -1.736482e-001  2.397452e-014 -9.848078e-001
   outer loop
     vertex  1.031823e+002  5.033021e+000 -5.447982e+001
     vertex  1.020744e+002  3.084464e+000 -5.428447e+001
     vertex  1.009665e+002  5.033021e+000 -5.408911e+001
   endloop
 endfacet
 facet normal -1.736482e-001  2.629790e-014 -9.848078e-001
   outer loop
     vertex  1.031823e+002  5.033021e+000 -5.447982e+001
     vertex  1.009665e+002  5.033021e+000 -5.408911e+001
     vertex  1.020744e+002  6.981578e+000 -5.428447e+001
   endloop
 endfacet
 facet normal -1.736482e-001  2.962787e-015 -9.848078e-001
   outer loop
     vertex  1.031823e+002  5.033021e+000 -5.447982e+001
     vertex  1.020744e+002  6.981578e+000 -5.428447e+001
     vertex  1.042902e+002  6.981578e+000 -5.467518e+001
   endloop
 endfacet
 facet normal -1.736482e-001  1.791600e-015 -9.848078e-001
   outer loop
     vertex  1.031823e+002  5.033021e+000 -5.447982e+001
     vertex  1.042902e+002  6.981578e+000 -5.467518e+001
     vertex  1.053981e+002  5.033021e+000 -5.487053e+001
   endloop
 endfacet
endsolid
