solid
 facet normal -2.486900e-014  1.000000e+000  0.000000e+000
   outer loop
     vertex  1.890085e+002  3.252517e+001  1.540000e+002
     vertex  1.850085e+002  3.252517e+001  1.540000e+002
     vertex  1.890085e+002  3.252517e+001  1.580000e+002
   endloop
 endfacet
 facet normal -2.486900e-014  1.000000e+000  0.000000e+000
   outer loop
     vertex  1.850085e+002  3.252517e+001  1.540000e+002
     vertex  1.850085e+002  3.252517e+001  1.580000e+002
     vertex  1.890085e+002  3.252517e+001  1.580000e+002
   endloop
 endfacet
 facet normal  8.660254e-001  5.000000e-001  0.000000e+000
   outer loop
     vertex  1.910085e+002  2.906107e+001  1.540000e+002
     vertex  1.890085e+002  3.252517e+001  1.540000e+002
     vertex  1.910085e+002  2.906107e+001  1.580000e+002
   endloop
 endfacet
 facet normal  8.660254e-001  5.000000e-001 -0.000000e+000
   outer loop
     vertex  1.890085e+002  3.252517e+001  1.540000e+002
     vertex  1.890085e+002  3.252517e+001  1.580000e+002
     vertex  1.910085e+002  2.906107e+001  1.580000e+002
   endloop
 endfacet
 facet normal -8.660254e-001  5.000000e-001  0.000000e+000
   outer loop
     vertex  1.850085e+002  3.252517e+001  1.540000e+002
     vertex  1.830085e+002  2.906107e+001  1.540000e+002
     vertex  1.830085e+002  2.906107e+001  1.580000e+002
   endloop
 endfacet
 facet normal -8.660254e-001  5.000000e-001  0.000000e+000
   outer loop
     vertex  1.850085e+002  3.252517e+001  1.540000e+002
     vertex  1.830085e+002  2.906107e+001  1.580000e+002
     vertex  1.850085e+002  3.252517e+001  1.580000e+002
   endloop
 endfacet
 facet normal  0.000000e+000  0.000000e+000  1.000000e+000
   outer loop
     vertex  1.875480e+002  2.760369e+001  1.580000e+002
     vertex  1.873338e+002  2.753761e+001  1.580000e+002
     vertex  1.890085e+002  2.559697e+001  1.580000e+002
   endloop
 endfacet
 facet normal -0.000000e+000  0.000000e+000  1.000000e+000
   outer loop
     vertex  1.850085e+002  3.252517e+001  1.580000e+002
     vertex  1.830085e+002  2.906107e+001  1.580000e+002
     vertex  1.857606e+002  2.984498e+001  1.580000e+002
   endloop
 endfacet
 facet normal -0.000000e+000  0.000000e+000  1.000000e+000
   outer loop
     vertex  1.856485e+002  2.965083e+001  1.580000e+002
     vertex  1.830085e+002  2.906107e+001  1.580000e+002
     vertex  1.855666e+002  2.944213e+001  1.580000e+002
   endloop
 endfacet
 facet normal  0.000000e+000  0.000000e+000  1.000000e+000
   outer loop
     vertex  1.871121e+002  3.049581e+001  1.580000e+002
     vertex  1.850085e+002  3.252517e+001  1.580000e+002
     vertex  1.868879e+002  3.049581e+001  1.580000e+002
   endloop
 endfacet
 facet normal  0.000000e+000  0.000000e+000  1.000000e+000
   outer loop
     vertex  1.877500e+002  2.770096e+001  1.580000e+002
     vertex  1.875480e+002  2.760369e+001  1.580000e+002
     vertex  1.890085e+002  2.559697e+001  1.580000e+002
   endloop
 endfacet
 facet normal  0.000000e+000  0.000000e+000  1.000000e+000
   outer loop
     vertex  1.860648e+002  2.782725e+001  1.580000e+002
     vertex  1.859004e+002  2.797974e+001  1.580000e+002
     vertex  1.850085e+002  2.559697e+001  1.580000e+002
   endloop
 endfacet
 facet normal -0.000000e+000  0.000000e+000  1.000000e+000
   outer loop
     vertex  1.857606e+002  2.984498e+001  1.580000e+002
     vertex  1.830085e+002  2.906107e+001  1.580000e+002
     vertex  1.856485e+002  2.965083e+001  1.580000e+002
   endloop
 endfacet
 facet normal -0.000000e+000  0.000000e+000  1.000000e+000
   outer loop
     vertex  1.857606e+002  2.815502e+001  1.580000e+002
     vertex  1.850085e+002  2.559697e+001  1.580000e+002
     vertex  1.859004e+002  2.797974e+001  1.580000e+002
   endloop
 endfacet
 facet normal  0.000000e+000  0.000000e+000  1.000000e+000
   outer loop
     vertex  1.879352e+002  2.782725e+001  1.580000e+002
     vertex  1.877500e+002  2.770096e+001  1.580000e+002
     vertex  1.890085e+002  2.559697e+001  1.580000e+002
   endloop
 endfacet
 facet normal  0.000000e+000  0.000000e+000  1.000000e+000
   outer loop
     vertex  1.862500e+002  2.770096e+001  1.580000e+002
     vertex  1.860648e+002  2.782725e+001  1.580000e+002
     vertex  1.850085e+002  2.559697e+001  1.580000e+002
   endloop
 endfacet
 facet normal  0.000000e+000  0.000000e+000  1.000000e+000
   outer loop
     vertex  1.856485e+002  2.834917e+001  1.580000e+002
     vertex  1.830085e+002  2.906107e+001  1.580000e+002
     vertex  1.850085e+002  2.559697e+001  1.580000e+002
   endloop
 endfacet
 facet normal -0.000000e+000  0.000000e+000  1.000000e+000
   outer loop
     vertex  1.856485e+002  2.834917e+001  1.580000e+002
     vertex  1.850085e+002  2.559697e+001  1.580000e+002
     vertex  1.857606e+002  2.815502e+001  1.580000e+002
   endloop
 endfacet
 facet normal  0.000000e+000  0.000000e+000  1.000000e+000
   outer loop
     vertex  1.880996e+002  2.797974e+001  1.580000e+002
     vertex  1.879352e+002  2.782725e+001  1.580000e+002
     vertex  1.890085e+002  2.559697e+001  1.580000e+002
   endloop
 endfacet
 facet normal  0.000000e+000  0.000000e+000  1.000000e+000
   outer loop
     vertex  1.864520e+002  2.760369e+001  1.580000e+002
     vertex  1.862500e+002  2.770096e+001  1.580000e+002
     vertex  1.850085e+002  2.559697e+001  1.580000e+002
   endloop
 endfacet
 facet normal  0.000000e+000  0.000000e+000  1.000000e+000
   outer loop
     vertex  1.855666e+002  2.855787e+001  1.580000e+002
     vertex  1.830085e+002  2.906107e+001  1.580000e+002
     vertex  1.856485e+002  2.834917e+001  1.580000e+002
   endloop
 endfacet
 facet normal  0.000000e+000  0.000000e+000  1.000000e+000
   outer loop
     vertex  1.882394e+002  2.815502e+001  1.580000e+002
     vertex  1.880996e+002  2.797974e+001  1.580000e+002
     vertex  1.890085e+002  2.559697e+001  1.580000e+002
   endloop
 endfacet
 facet normal  0.000000e+000  0.000000e+000  1.000000e+000
   outer loop
     vertex  1.866662e+002  2.753761e+001  1.580000e+002
     vertex  1.864520e+002  2.760369e+001  1.580000e+002
     vertex  1.850085e+002  2.559697e+001  1.580000e+002
   endloop
 endfacet
 facet normal  0.000000e+000  0.000000e+000  1.000000e+000
   outer loop
     vertex  1.855168e+002  2.877644e+001  1.580000e+002
     vertex  1.830085e+002  2.906107e+001  1.580000e+002
     vertex  1.855666e+002  2.855787e+001  1.580000e+002
   endloop
 endfacet
 facet normal  0.000000e+000  0.000000e+000  1.000000e+000
   outer loop
     vertex  1.883515e+002  2.834917e+001  1.580000e+002
     vertex  1.882394e+002  2.815502e+001  1.580000e+002
     vertex  1.890085e+002  2.559697e+001  1.580000e+002
   endloop
 endfacet
 facet normal  0.000000e+000  0.000000e+000  1.000000e+000
   outer loop
     vertex  1.910085e+002  2.906107e+001  1.580000e+002
     vertex  1.883515e+002  2.834917e+001  1.580000e+002
     vertex  1.890085e+002  2.559697e+001  1.580000e+002
   endloop
 endfacet
 facet normal  0.000000e+000  0.000000e+000  1.000000e+000
   outer loop
     vertex  1.868879e+002  2.750419e+001  1.580000e+002
     vertex  1.866662e+002  2.753761e+001  1.580000e+002
     vertex  1.850085e+002  2.559697e+001  1.580000e+002
   endloop
 endfacet
 facet normal  0.000000e+000  0.000000e+000  1.000000e+000
   outer loop
     vertex  1.910085e+002  2.906107e+001  1.580000e+002
     vertex  1.882394e+002  2.984498e+001  1.580000e+002
     vertex  1.883515e+002  2.965083e+001  1.580000e+002
   endloop
 endfacet
 facet normal  0.000000e+000  0.000000e+000  1.000000e+000
   outer loop
     vertex  1.910085e+002  2.906107e+001  1.580000e+002
     vertex  1.883515e+002  2.965083e+001  1.580000e+002
     vertex  1.884334e+002  2.944213e+001  1.580000e+002
   endloop
 endfacet
 facet normal  0.000000e+000  0.000000e+000  1.000000e+000
   outer loop
     vertex  1.910085e+002  2.906107e+001  1.580000e+002
     vertex  1.884334e+002  2.944213e+001  1.580000e+002
     vertex  1.884832e+002  2.922356e+001  1.580000e+002
   endloop
 endfacet
 facet normal  0.000000e+000  0.000000e+000  1.000000e+000
   outer loop
     vertex  1.910085e+002  2.906107e+001  1.580000e+002
     vertex  1.884832e+002  2.922356e+001  1.580000e+002
     vertex  1.885000e+002  2.900000e+001  1.580000e+002
   endloop
 endfacet
 facet normal  0.000000e+000  0.000000e+000  1.000000e+000
   outer loop
     vertex  1.855000e+002  2.900000e+001  1.580000e+002
     vertex  1.830085e+002  2.906107e+001  1.580000e+002
     vertex  1.855168e+002  2.877644e+001  1.580000e+002
   endloop
 endfacet
 facet normal  0.000000e+000  0.000000e+000  1.000000e+000
   outer loop
     vertex  1.910085e+002  2.906107e+001  1.580000e+002
     vertex  1.885000e+002  2.900000e+001  1.580000e+002
     vertex  1.884832e+002  2.877644e+001  1.580000e+002
   endloop
 endfacet
 facet normal  0.000000e+000  0.000000e+000  1.000000e+000
   outer loop
     vertex  1.910085e+002  2.906107e+001  1.580000e+002
     vertex  1.884832e+002  2.877644e+001  1.580000e+002
     vertex  1.884334e+002  2.855787e+001  1.580000e+002
   endloop
 endfacet
 facet normal  0.000000e+000  0.000000e+000  1.000000e+000
   outer loop
     vertex  1.910085e+002  2.906107e+001  1.580000e+002
     vertex  1.884334e+002  2.855787e+001  1.580000e+002
     vertex  1.883515e+002  2.834917e+001  1.580000e+002
   endloop
 endfacet
 facet normal -0.000000e+000  0.000000e+000  1.000000e+000
   outer loop
     vertex  1.871121e+002  2.750419e+001  1.580000e+002
     vertex  1.850085e+002  2.559697e+001  1.580000e+002
     vertex  1.890085e+002  2.559697e+001  1.580000e+002
   endloop
 endfacet
 facet normal  0.000000e+000  0.000000e+000  1.000000e+000
   outer loop
     vertex  1.890085e+002  3.252517e+001  1.580000e+002
     vertex  1.871121e+002  3.049581e+001  1.580000e+002
     vertex  1.873338e+002  3.046239e+001  1.580000e+002
   endloop
 endfacet
 facet normal  0.000000e+000  0.000000e+000  1.000000e+000
   outer loop
     vertex  1.890085e+002  3.252517e+001  1.580000e+002
     vertex  1.850085e+002  3.252517e+001  1.580000e+002
     vertex  1.871121e+002  3.049581e+001  1.580000e+002
   endloop
 endfacet
 facet normal  0.000000e+000  0.000000e+000  1.000000e+000
   outer loop
     vertex  1.890085e+002  3.252517e+001  1.580000e+002
     vertex  1.873338e+002  3.046239e+001  1.580000e+002
     vertex  1.875480e+002  3.039631e+001  1.580000e+002
   endloop
 endfacet
 facet normal  0.000000e+000  0.000000e+000  1.000000e+000
   outer loop
     vertex  1.890085e+002  3.252517e+001  1.580000e+002
     vertex  1.875480e+002  3.039631e+001  1.580000e+002
     vertex  1.877500e+002  3.029904e+001  1.580000e+002
   endloop
 endfacet
 facet normal  0.000000e+000  0.000000e+000  1.000000e+000
   outer loop
     vertex  1.871121e+002  2.750419e+001  1.580000e+002
     vertex  1.868879e+002  2.750419e+001  1.580000e+002
     vertex  1.850085e+002  2.559697e+001  1.580000e+002
   endloop
 endfacet
 facet normal  0.000000e+000  0.000000e+000  1.000000e+000
   outer loop
     vertex  1.890085e+002  3.252517e+001  1.580000e+002
     vertex  1.877500e+002  3.029904e+001  1.580000e+002
     vertex  1.879352e+002  3.017275e+001  1.580000e+002
   endloop
 endfacet
 facet normal  0.000000e+000  0.000000e+000  1.000000e+000
   outer loop
     vertex  1.890085e+002  3.252517e+001  1.580000e+002
     vertex  1.879352e+002  3.017275e+001  1.580000e+002
     vertex  1.880996e+002  3.002026e+001  1.580000e+002
   endloop
 endfacet
 facet normal  0.000000e+000  0.000000e+000  1.000000e+000
   outer loop
     vertex  1.890085e+002  3.252517e+001  1.580000e+002
     vertex  1.880996e+002  3.002026e+001  1.580000e+002
     vertex  1.882394e+002  2.984498e+001  1.580000e+002
   endloop
 endfacet
 facet normal  0.000000e+000  0.000000e+000  1.000000e+000
   outer loop
     vertex  1.890085e+002  3.252517e+001  1.580000e+002
     vertex  1.882394e+002  2.984498e+001  1.580000e+002
     vertex  1.910085e+002  2.906107e+001  1.580000e+002
   endloop
 endfacet
 facet normal  0.000000e+000  0.000000e+000  1.000000e+000
   outer loop
     vertex  1.855168e+002  2.922356e+001  1.580000e+002
     vertex  1.830085e+002  2.906107e+001  1.580000e+002
     vertex  1.855000e+002  2.900000e+001  1.580000e+002
   endloop
 endfacet
 facet normal  0.000000e+000  0.000000e+000  1.000000e+000
   outer loop
     vertex  1.873338e+002  2.753761e+001  1.580000e+002
     vertex  1.871121e+002  2.750419e+001  1.580000e+002
     vertex  1.890085e+002  2.559697e+001  1.580000e+002
   endloop
 endfacet
 facet normal -0.000000e+000  0.000000e+000  1.000000e+000
   outer loop
     vertex  1.850085e+002  3.252517e+001  1.580000e+002
     vertex  1.857606e+002  2.984498e+001  1.580000e+002
     vertex  1.859004e+002  3.002026e+001  1.580000e+002
   endloop
 endfacet
 facet normal -0.000000e+000  0.000000e+000  1.000000e+000
   outer loop
     vertex  1.855666e+002  2.944213e+001  1.580000e+002
     vertex  1.830085e+002  2.906107e+001  1.580000e+002
     vertex  1.855168e+002  2.922356e+001  1.580000e+002
   endloop
 endfacet
 facet normal -0.000000e+000  0.000000e+000  1.000000e+000
   outer loop
     vertex  1.850085e+002  3.252517e+001  1.580000e+002
     vertex  1.859004e+002  3.002026e+001  1.580000e+002
     vertex  1.860648e+002  3.017275e+001  1.580000e+002
   endloop
 endfacet
 facet normal -0.000000e+000  0.000000e+000  1.000000e+000
   outer loop
     vertex  1.850085e+002  3.252517e+001  1.580000e+002
     vertex  1.860648e+002  3.017275e+001  1.580000e+002
     vertex  1.862500e+002  3.029904e+001  1.580000e+002
   endloop
 endfacet
 facet normal -0.000000e+000  0.000000e+000  1.000000e+000
   outer loop
     vertex  1.850085e+002  3.252517e+001  1.580000e+002
     vertex  1.862500e+002  3.029904e+001  1.580000e+002
     vertex  1.864520e+002  3.039631e+001  1.580000e+002
   endloop
 endfacet
 facet normal -0.000000e+000  0.000000e+000  1.000000e+000
   outer loop
     vertex  1.850085e+002  3.252517e+001  1.580000e+002
     vertex  1.864520e+002  3.039631e+001  1.580000e+002
     vertex  1.866662e+002  3.046239e+001  1.580000e+002
   endloop
 endfacet
 facet normal -0.000000e+000  0.000000e+000  1.000000e+000
   outer loop
     vertex  1.850085e+002  3.252517e+001  1.580000e+002
     vertex  1.866662e+002  3.046239e+001  1.580000e+002
     vertex  1.868879e+002  3.049581e+001  1.580000e+002
   endloop
 endfacet
 facet normal  8.660254e-001 -5.000000e-001  0.000000e+000
   outer loop
     vertex  1.890085e+002  2.559697e+001  1.580000e+002
     vertex  1.890085e+002  2.559697e+001  1.540000e+002
     vertex  1.910085e+002  2.906107e+001  1.540000e+002
   endloop
 endfacet
 facet normal  8.660254e-001 -5.000000e-001  0.000000e+000
   outer loop
     vertex  1.910085e+002  2.906107e+001  1.580000e+002
     vertex  1.890085e+002  2.559697e+001  1.580000e+002
     vertex  1.910085e+002  2.906107e+001  1.540000e+002
   endloop
 endfacet
 facet normal -0.000000e+000  0.000000e+000 -1.000000e+000
   outer loop
     vertex  1.862500e+002  3.029904e+001  1.540000e+002
     vertex  1.860648e+002  3.017275e+001  1.540000e+002
     vertex  1.850085e+002  3.252517e+001  1.540000e+002
   endloop
 endfacet
 facet normal -0.000000e+000  0.000000e+000 -1.000000e+000
   outer loop
     vertex  1.860648e+002  3.017275e+001  1.540000e+002
     vertex  1.859004e+002  3.002026e+001  1.540000e+002
     vertex  1.850085e+002  3.252517e+001  1.540000e+002
   endloop
 endfacet
 facet normal -0.000000e+000  0.000000e+000 -1.000000e+000
   outer loop
     vertex  1.859004e+002  3.002026e+001  1.540000e+002
     vertex  1.857606e+002  2.984498e+001  1.540000e+002
     vertex  1.850085e+002  3.252517e+001  1.540000e+002
   endloop
 endfacet
 facet normal -0.000000e+000  0.000000e+000 -1.000000e+000
   outer loop
     vertex  1.855666e+002  2.944213e+001  1.540000e+002
     vertex  1.830085e+002  2.906107e+001  1.540000e+002
     vertex  1.856485e+002  2.965083e+001  1.540000e+002
   endloop
 endfacet
 facet normal -0.000000e+000  0.000000e+000 -1.000000e+000
   outer loop
     vertex  1.857606e+002  2.984498e+001  1.540000e+002
     vertex  1.830085e+002  2.906107e+001  1.540000e+002
     vertex  1.850085e+002  3.252517e+001  1.540000e+002
   endloop
 endfacet
 facet normal  0.000000e+000  0.000000e+000 -1.000000e+000
   outer loop
     vertex  1.890085e+002  2.559697e+001  1.540000e+002
     vertex  1.875480e+002  2.760369e+001  1.540000e+002
     vertex  1.877500e+002  2.770096e+001  1.540000e+002
   endloop
 endfacet
 facet normal  0.000000e+000  0.000000e+000 -1.000000e+000
   outer loop
     vertex  1.868879e+002  3.049581e+001  1.540000e+002
     vertex  1.850085e+002  3.252517e+001  1.540000e+002
     vertex  1.871121e+002  3.049581e+001  1.540000e+002
   endloop
 endfacet
 facet normal  0.000000e+000  0.000000e+000 -1.000000e+000
   outer loop
     vertex  1.850085e+002  2.559697e+001  1.540000e+002
     vertex  1.859004e+002  2.797974e+001  1.540000e+002
     vertex  1.860648e+002  2.782725e+001  1.540000e+002
   endloop
 endfacet
 facet normal -0.000000e+000  0.000000e+000 -1.000000e+000
   outer loop
     vertex  1.856485e+002  2.965083e+001  1.540000e+002
     vertex  1.830085e+002  2.906107e+001  1.540000e+002
     vertex  1.857606e+002  2.984498e+001  1.540000e+002
   endloop
 endfacet
 facet normal -0.000000e+000  0.000000e+000 -1.000000e+000
   outer loop
     vertex  1.859004e+002  2.797974e+001  1.540000e+002
     vertex  1.850085e+002  2.559697e+001  1.540000e+002
     vertex  1.857606e+002  2.815502e+001  1.540000e+002
   endloop
 endfacet
 facet normal  0.000000e+000  0.000000e+000 -1.000000e+000
   outer loop
     vertex  1.890085e+002  2.559697e+001  1.540000e+002
     vertex  1.877500e+002  2.770096e+001  1.540000e+002
     vertex  1.879352e+002  2.782725e+001  1.540000e+002
   endloop
 endfacet
 facet normal  0.000000e+000  0.000000e+000 -1.000000e+000
   outer loop
     vertex  1.850085e+002  2.559697e+001  1.540000e+002
     vertex  1.860648e+002  2.782725e+001  1.540000e+002
     vertex  1.862500e+002  2.770096e+001  1.540000e+002
   endloop
 endfacet
 facet normal  0.000000e+000  0.000000e+000 -1.000000e+000
   outer loop
     vertex  1.850085e+002  2.559697e+001  1.540000e+002
     vertex  1.830085e+002  2.906107e+001  1.540000e+002
     vertex  1.856485e+002  2.834917e+001  1.540000e+002
   endloop
 endfacet
 facet normal -0.000000e+000  0.000000e+000 -1.000000e+000
   outer loop
     vertex  1.857606e+002  2.815502e+001  1.540000e+002
     vertex  1.850085e+002  2.559697e+001  1.540000e+002
     vertex  1.856485e+002  2.834917e+001  1.540000e+002
   endloop
 endfacet
 facet normal  0.000000e+000  0.000000e+000 -1.000000e+000
   outer loop
     vertex  1.890085e+002  2.559697e+001  1.540000e+002
     vertex  1.879352e+002  2.782725e+001  1.540000e+002
     vertex  1.880996e+002  2.797974e+001  1.540000e+002
   endloop
 endfacet
 facet normal  0.000000e+000  0.000000e+000 -1.000000e+000
   outer loop
     vertex  1.850085e+002  2.559697e+001  1.540000e+002
     vertex  1.862500e+002  2.770096e+001  1.540000e+002
     vertex  1.864520e+002  2.760369e+001  1.540000e+002
   endloop
 endfacet
 facet normal  0.000000e+000  0.000000e+000 -1.000000e+000
   outer loop
     vertex  1.856485e+002  2.834917e+001  1.540000e+002
     vertex  1.830085e+002  2.906107e+001  1.540000e+002
     vertex  1.855666e+002  2.855787e+001  1.540000e+002
   endloop
 endfacet
 facet normal  0.000000e+000  0.000000e+000 -1.000000e+000
   outer loop
     vertex  1.890085e+002  2.559697e+001  1.540000e+002
     vertex  1.880996e+002  2.797974e+001  1.540000e+002
     vertex  1.882394e+002  2.815502e+001  1.540000e+002
   endloop
 endfacet
 facet normal  0.000000e+000  0.000000e+000 -1.000000e+000
   outer loop
     vertex  1.850085e+002  2.559697e+001  1.540000e+002
     vertex  1.864520e+002  2.760369e+001  1.540000e+002
     vertex  1.866662e+002  2.753761e+001  1.540000e+002
   endloop
 endfacet
 facet normal  0.000000e+000  0.000000e+000 -1.000000e+000
   outer loop
     vertex  1.855666e+002  2.855787e+001  1.540000e+002
     vertex  1.830085e+002  2.906107e+001  1.540000e+002
     vertex  1.855168e+002  2.877644e+001  1.540000e+002
   endloop
 endfacet
 facet normal  0.000000e+000  0.000000e+000 -1.000000e+000
   outer loop
     vertex  1.890085e+002  2.559697e+001  1.540000e+002
     vertex  1.882394e+002  2.815502e+001  1.540000e+002
     vertex  1.883515e+002  2.834917e+001  1.540000e+002
   endloop
 endfacet
 facet normal  0.000000e+000  0.000000e+000 -1.000000e+000
   outer loop
     vertex  1.890085e+002  2.559697e+001  1.540000e+002
     vertex  1.883515e+002  2.834917e+001  1.540000e+002
     vertex  1.910085e+002  2.906107e+001  1.540000e+002
   endloop
 endfacet
 facet normal  0.000000e+000  0.000000e+000 -1.000000e+000
   outer loop
     vertex  1.883515e+002  2.834917e+001  1.540000e+002
     vertex  1.884334e+002  2.855787e+001  1.540000e+002
     vertex  1.910085e+002  2.906107e+001  1.540000e+002
   endloop
 endfacet
 facet normal  0.000000e+000  0.000000e+000 -1.000000e+000
   outer loop
     vertex  1.884334e+002  2.855787e+001  1.540000e+002
     vertex  1.884832e+002  2.877644e+001  1.540000e+002
     vertex  1.910085e+002  2.906107e+001  1.540000e+002
   endloop
 endfacet
 facet normal  0.000000e+000  0.000000e+000 -1.000000e+000
   outer loop
     vertex  1.884832e+002  2.877644e+001  1.540000e+002
     vertex  1.885000e+002  2.900000e+001  1.540000e+002
     vertex  1.910085e+002  2.906107e+001  1.540000e+002
   endloop
 endfacet
 facet normal  0.000000e+000  0.000000e+000 -1.000000e+000
   outer loop
     vertex  1.885000e+002  2.900000e+001  1.540000e+002
     vertex  1.884832e+002  2.922356e+001  1.540000e+002
     vertex  1.910085e+002  2.906107e+001  1.540000e+002
   endloop
 endfacet
 facet normal  0.000000e+000  0.000000e+000 -1.000000e+000
   outer loop
     vertex  1.850085e+002  2.559697e+001  1.540000e+002
     vertex  1.866662e+002  2.753761e+001  1.540000e+002
     vertex  1.868879e+002  2.750419e+001  1.540000e+002
   endloop
 endfacet
 facet normal  0.000000e+000  0.000000e+000 -1.000000e+000
   outer loop
     vertex  1.884832e+002  2.922356e+001  1.540000e+002
     vertex  1.884334e+002  2.944213e+001  1.540000e+002
     vertex  1.910085e+002  2.906107e+001  1.540000e+002
   endloop
 endfacet
 facet normal  0.000000e+000  0.000000e+000 -1.000000e+000
   outer loop
     vertex  1.884334e+002  2.944213e+001  1.540000e+002
     vertex  1.883515e+002  2.965083e+001  1.540000e+002
     vertex  1.910085e+002  2.906107e+001  1.540000e+002
   endloop
 endfacet
 facet normal  0.000000e+000  0.000000e+000 -1.000000e+000
   outer loop
     vertex  1.883515e+002  2.965083e+001  1.540000e+002
     vertex  1.882394e+002  2.984498e+001  1.540000e+002
     vertex  1.910085e+002  2.906107e+001  1.540000e+002
   endloop
 endfacet
 facet normal  0.000000e+000  0.000000e+000 -1.000000e+000
   outer loop
     vertex  1.910085e+002  2.906107e+001  1.540000e+002
     vertex  1.882394e+002  2.984498e+001  1.540000e+002
     vertex  1.890085e+002  3.252517e+001  1.540000e+002
   endloop
 endfacet
 facet normal  0.000000e+000  0.000000e+000 -1.000000e+000
   outer loop
     vertex  1.855168e+002  2.877644e+001  1.540000e+002
     vertex  1.830085e+002  2.906107e+001  1.540000e+002
     vertex  1.855000e+002  2.900000e+001  1.540000e+002
   endloop
 endfacet
 facet normal  0.000000e+000  0.000000e+000 -1.000000e+000
   outer loop
     vertex  1.871121e+002  3.049581e+001  1.540000e+002
     vertex  1.850085e+002  3.252517e+001  1.540000e+002
     vertex  1.890085e+002  3.252517e+001  1.540000e+002
   endloop
 endfacet
 facet normal  0.000000e+000  0.000000e+000 -1.000000e+000
   outer loop
     vertex  1.882394e+002  2.984498e+001  1.540000e+002
     vertex  1.880996e+002  3.002026e+001  1.540000e+002
     vertex  1.890085e+002  3.252517e+001  1.540000e+002
   endloop
 endfacet
 facet normal  0.000000e+000  0.000000e+000 -1.000000e+000
   outer loop
     vertex  1.880996e+002  3.002026e+001  1.540000e+002
     vertex  1.879352e+002  3.017275e+001  1.540000e+002
     vertex  1.890085e+002  3.252517e+001  1.540000e+002
   endloop
 endfacet
 facet normal  0.000000e+000  0.000000e+000 -1.000000e+000
   outer loop
     vertex  1.879352e+002  3.017275e+001  1.540000e+002
     vertex  1.877500e+002  3.029904e+001  1.540000e+002
     vertex  1.890085e+002  3.252517e+001  1.540000e+002
   endloop
 endfacet
 facet normal  0.000000e+000  0.000000e+000 -1.000000e+000
   outer loop
     vertex  1.877500e+002  3.029904e+001  1.540000e+002
     vertex  1.875480e+002  3.039631e+001  1.540000e+002
     vertex  1.890085e+002  3.252517e+001  1.540000e+002
   endloop
 endfacet
 facet normal -0.000000e+000  0.000000e+000 -1.000000e+000
   outer loop
     vertex  1.890085e+002  2.559697e+001  1.540000e+002
     vertex  1.850085e+002  2.559697e+001  1.540000e+002
     vertex  1.871121e+002  2.750419e+001  1.540000e+002
   endloop
 endfacet
 facet normal  0.000000e+000  0.000000e+000 -1.000000e+000
   outer loop
     vertex  1.875480e+002  3.039631e+001  1.540000e+002
     vertex  1.873338e+002  3.046239e+001  1.540000e+002
     vertex  1.890085e+002  3.252517e+001  1.540000e+002
   endloop
 endfacet
 facet normal  0.000000e+000  0.000000e+000 -1.000000e+000
   outer loop
     vertex  1.850085e+002  2.559697e+001  1.540000e+002
     vertex  1.868879e+002  2.750419e+001  1.540000e+002
     vertex  1.871121e+002  2.750419e+001  1.540000e+002
   endloop
 endfacet
 facet normal  0.000000e+000  0.000000e+000 -1.000000e+000
   outer loop
     vertex  1.873338e+002  3.046239e+001  1.540000e+002
     vertex  1.871121e+002  3.049581e+001  1.540000e+002
     vertex  1.890085e+002  3.252517e+001  1.540000e+002
   endloop
 endfacet
 facet normal  0.000000e+000  0.000000e+000 -1.000000e+000
   outer loop
     vertex  1.855000e+002  2.900000e+001  1.540000e+002
     vertex  1.830085e+002  2.906107e+001  1.540000e+002
     vertex  1.855168e+002  2.922356e+001  1.540000e+002
   endloop
 endfacet
 facet normal  0.000000e+000  0.000000e+000 -1.000000e+000
   outer loop
     vertex  1.890085e+002  2.559697e+001  1.540000e+002
     vertex  1.871121e+002  2.750419e+001  1.540000e+002
     vertex  1.873338e+002  2.753761e+001  1.540000e+002
   endloop
 endfacet
 facet normal -0.000000e+000  0.000000e+000 -1.000000e+000
   outer loop
     vertex  1.855168e+002  2.922356e+001  1.540000e+002
     vertex  1.830085e+002  2.906107e+001  1.540000e+002
     vertex  1.855666e+002  2.944213e+001  1.540000e+002
   endloop
 endfacet
 facet normal -0.000000e+000  0.000000e+000 -1.000000e+000
   outer loop
     vertex  1.868879e+002  3.049581e+001  1.540000e+002
     vertex  1.866662e+002  3.046239e+001  1.540000e+002
     vertex  1.850085e+002  3.252517e+001  1.540000e+002
   endloop
 endfacet
 facet normal -0.000000e+000  0.000000e+000 -1.000000e+000
   outer loop
     vertex  1.866662e+002  3.046239e+001  1.540000e+002
     vertex  1.864520e+002  3.039631e+001  1.540000e+002
     vertex  1.850085e+002  3.252517e+001  1.540000e+002
   endloop
 endfacet
 facet normal -0.000000e+000  0.000000e+000 -1.000000e+000
   outer loop
     vertex  1.864520e+002  3.039631e+001  1.540000e+002
     vertex  1.862500e+002  3.029904e+001  1.540000e+002
     vertex  1.850085e+002  3.252517e+001  1.540000e+002
   endloop
 endfacet
 facet normal  0.000000e+000  0.000000e+000 -1.000000e+000
   outer loop
     vertex  1.890085e+002  2.559697e+001  1.540000e+002
     vertex  1.873338e+002  2.753761e+001  1.540000e+002
     vertex  1.875480e+002  2.760369e+001  1.540000e+002
   endloop
 endfacet
 facet normal -8.660254e-001 -5.000000e-001 -0.000000e+000
   outer loop
     vertex  1.830085e+002  2.906107e+001  1.580000e+002
     vertex  1.830085e+002  2.906107e+001  1.540000e+002
     vertex  1.850085e+002  2.559697e+001  1.540000e+002
   endloop
 endfacet
 facet normal -8.660254e-001 -5.000000e-001  0.000000e+000
   outer loop
     vertex  1.850085e+002  2.559697e+001  1.580000e+002
     vertex  1.830085e+002  2.906107e+001  1.580000e+002
     vertex  1.850085e+002  2.559697e+001  1.540000e+002
   endloop
 endfacet
 facet normal  2.486900e-014 -1.000000e+000  0.000000e+000
   outer loop
     vertex  1.850085e+002  2.559697e+001  1.580000e+002
     vertex  1.850085e+002  2.559697e+001  1.540000e+002
     vertex  1.890085e+002  2.559697e+001  1.540000e+002
   endloop
 endfacet
 facet normal  2.486900e-014 -1.000000e+000  0.000000e+000
   outer loop
     vertex  1.890085e+002  2.559697e+001  1.580000e+002
     vertex  1.850085e+002  2.559697e+001  1.580000e+002
     vertex  1.890085e+002  2.559697e+001  1.540000e+002
   endloop
 endfacet
endsolid
