solid
 facet normal -8.715574e-002 -1.587570e-014  9.961947e-001
   outer loop
     vertex  1.769076e+002  1.635305e+001  1.775234e+001
     vertex  1.786828e+002  1.943956e+001  1.790765e+001
     vertex  1.751324e+002  1.943956e+001  1.759703e+001
   endloop
 endfacet
 facet normal -8.715574e-002 -1.622390e-014  9.961947e-001
   outer loop
     vertex  1.786828e+002  1.943956e+001  1.790765e+001
     vertex  1.769076e+002  2.252608e+001  1.775234e+001
     vertex  1.751324e+002  1.943956e+001  1.759703e+001
   endloop
 endfacet
 facet normal -8.715574e-002 -1.622894e-014  9.961947e-001
   outer loop
     vertex  1.769076e+002  2.252608e+001  1.775234e+001
     vertex  1.733571e+002  2.252608e+001  1.744172e+001
     vertex  1.751324e+002  1.943956e+001  1.759703e+001
   endloop
 endfacet
 facet normal -8.715574e-002  0.000000e+000  9.961947e-001
   outer loop
     vertex  1.733571e+002  2.252608e+001  1.744172e+001
     vertex  1.715819e+002  1.943956e+001  1.728640e+001
     vertex  1.751324e+002  1.943956e+001  1.759703e+001
   endloop
 endfacet
 facet normal -8.715574e-002  0.000000e+000  9.961947e-001
   outer loop
     vertex  1.715819e+002  1.943956e+001  1.728640e+001
     vertex  1.733571e+002  1.635305e+001  1.744172e+001
     vertex  1.751324e+002  1.943956e+001  1.759703e+001
   endloop
 endfacet
 facet normal -8.715574e-002  1.715747e-016  9.961947e-001
   outer loop
     vertex  1.733571e+002  1.635305e+001  1.744172e+001
     vertex  1.769076e+002  1.635305e+001  1.775234e+001
     vertex  1.751324e+002  1.943956e+001  1.759703e+001
   endloop
 endfacet
 facet normal  8.627299e-001  5.000000e-001  7.547909e-002
   outer loop
     vertex  1.771406e+002  2.252608e+001  1.508951e+001
     vertex  1.769076e+002  2.252608e+001  1.775234e+001
     vertex  1.779117e+002  2.098282e+001  1.649858e+001
   endloop
 endfacet
 facet normal  8.627299e-001  5.000000e-001  7.547909e-002
   outer loop
     vertex  1.769076e+002  2.252608e+001  1.775234e+001
     vertex  1.786828e+002  1.943956e+001  1.790765e+001
     vertex  1.779117e+002  2.098282e+001  1.649858e+001
   endloop
 endfacet
 facet normal  8.627299e-001  5.000000e-001  7.547909e-002
   outer loop
     vertex  1.786828e+002  1.943956e+001  1.790765e+001
     vertex  1.789158e+002  1.943956e+001  1.524482e+001
     vertex  1.779117e+002  2.098282e+001  1.649858e+001
   endloop
 endfacet
 facet normal  8.627299e-001  5.000000e-001  7.547909e-002
   outer loop
     vertex  1.789158e+002  1.943956e+001  1.524482e+001
     vertex  1.771406e+002  2.252608e+001  1.508951e+001
     vertex  1.779117e+002  2.098282e+001  1.649858e+001
   endloop
 endfacet
 facet normal  2.456161e-014  1.000000e+000  3.950613e-014
   outer loop
     vertex  1.735901e+002  2.252608e+001  1.477889e+001
     vertex  1.733571e+002  2.252608e+001  1.744172e+001
     vertex  1.752488e+002  2.252608e+001  1.626561e+001
   endloop
 endfacet
 facet normal -0.000000e+000  1.000000e+000  0.000000e+000
   outer loop
     vertex  1.733571e+002  2.252608e+001  1.744172e+001
     vertex  1.769076e+002  2.252608e+001  1.775234e+001
     vertex  1.752488e+002  2.252608e+001  1.626561e+001
   endloop
 endfacet
 facet normal  0.000000e+000  1.000000e+000  0.000000e+000
   outer loop
     vertex  1.769076e+002  2.252608e+001  1.775234e+001
     vertex  1.771406e+002  2.252608e+001  1.508951e+001
     vertex  1.752488e+002  2.252608e+001  1.626561e+001
   endloop
 endfacet
 facet normal  2.456161e-014  1.000000e+000  3.950613e-014
   outer loop
     vertex  1.771406e+002  2.252608e+001  1.508951e+001
     vertex  1.735901e+002  2.252608e+001  1.477889e+001
     vertex  1.752488e+002  2.252608e+001  1.626561e+001
   endloop
 endfacet
 facet normal -8.627299e-001  5.000000e-001 -7.547909e-002
   outer loop
     vertex  1.718149e+002  1.943956e+001  1.462358e+001
     vertex  1.715819e+002  1.943956e+001  1.728640e+001
     vertex  1.725860e+002  2.098282e+001  1.603265e+001
   endloop
 endfacet
 facet normal -8.627299e-001  5.000000e-001 -7.547909e-002
   outer loop
     vertex  1.715819e+002  1.943956e+001  1.728640e+001
     vertex  1.733571e+002  2.252608e+001  1.744172e+001
     vertex  1.725860e+002  2.098282e+001  1.603265e+001
   endloop
 endfacet
 facet normal -8.627299e-001  5.000000e-001 -7.547909e-002
   outer loop
     vertex  1.733571e+002  2.252608e+001  1.744172e+001
     vertex  1.735901e+002  2.252608e+001  1.477889e+001
     vertex  1.725860e+002  2.098282e+001  1.603265e+001
   endloop
 endfacet
 facet normal -8.627299e-001  5.000000e-001 -7.547909e-002
   outer loop
     vertex  1.735901e+002  2.252608e+001  1.477889e+001
     vertex  1.718149e+002  1.943956e+001  1.462358e+001
     vertex  1.725860e+002  2.098282e+001  1.603265e+001
   endloop
 endfacet
 facet normal -8.627299e-001 -5.000000e-001 -7.547909e-002
   outer loop
     vertex  1.735901e+002  1.635305e+001  1.477889e+001
     vertex  1.733571e+002  1.635305e+001  1.744172e+001
     vertex  1.725860e+002  1.789630e+001  1.603265e+001
   endloop
 endfacet
 facet normal -8.627299e-001 -5.000000e-001 -7.547909e-002
   outer loop
     vertex  1.733571e+002  1.635305e+001  1.744172e+001
     vertex  1.715819e+002  1.943956e+001  1.728640e+001
     vertex  1.725860e+002  1.789630e+001  1.603265e+001
   endloop
 endfacet
 facet normal -8.627299e-001 -5.000000e-001 -7.547909e-002
   outer loop
     vertex  1.715819e+002  1.943956e+001  1.728640e+001
     vertex  1.718149e+002  1.943956e+001  1.462358e+001
     vertex  1.725860e+002  1.789630e+001  1.603265e+001
   endloop
 endfacet
 facet normal -8.627299e-001 -5.000000e-001 -7.547909e-002
   outer loop
     vertex  1.718149e+002  1.943956e+001  1.462358e+001
     vertex  1.735901e+002  1.635305e+001  1.477889e+001
     vertex  1.725860e+002  1.789630e+001  1.603265e+001
   endloop
 endfacet
 facet normal -0.000000e+000 -1.000000e+000  0.000000e+000
   outer loop
     vertex  1.771406e+002  1.635305e+001  1.508951e+001
     vertex  1.769076e+002  1.635305e+001  1.775234e+001
     vertex  1.752488e+002  1.635305e+001  1.626561e+001
   endloop
 endfacet
 facet normal  0.000000e+000 -1.000000e+000 -0.000000e+000
   outer loop
     vertex  1.769076e+002  1.635305e+001  1.775234e+001
     vertex  1.733571e+002  1.635305e+001  1.744172e+001
     vertex  1.752488e+002  1.635305e+001  1.626561e+001
   endloop
 endfacet
 facet normal  0.000000e+000 -1.000000e+000  0.000000e+000
   outer loop
     vertex  1.733571e+002  1.635305e+001  1.744172e+001
     vertex  1.735901e+002  1.635305e+001  1.477889e+001
     vertex  1.752488e+002  1.635305e+001  1.626561e+001
   endloop
 endfacet
 facet normal  0.000000e+000 -1.000000e+000  0.000000e+000
   outer loop
     vertex  1.735901e+002  1.635305e+001  1.477889e+001
     vertex  1.771406e+002  1.635305e+001  1.508951e+001
     vertex  1.752488e+002  1.635305e+001  1.626561e+001
   endloop
 endfacet
 facet normal  8.627299e-001 -5.000000e-001  7.547909e-002
   outer loop
     vertex  1.789158e+002  1.943956e+001  1.524482e+001
     vertex  1.786828e+002  1.943956e+001  1.790765e+001
     vertex  1.779117e+002  1.789630e+001  1.649858e+001
   endloop
 endfacet
 facet normal  8.627299e-001 -5.000000e-001  7.547909e-002
   outer loop
     vertex  1.786828e+002  1.943956e+001  1.790765e+001
     vertex  1.769076e+002  1.635305e+001  1.775234e+001
     vertex  1.779117e+002  1.789630e+001  1.649858e+001
   endloop
 endfacet
 facet normal  8.627299e-001 -5.000000e-001  7.547909e-002
   outer loop
     vertex  1.769076e+002  1.635305e+001  1.775234e+001
     vertex  1.771406e+002  1.635305e+001  1.508951e+001
     vertex  1.779117e+002  1.789630e+001  1.649858e+001
   endloop
 endfacet
 facet normal  8.627299e-001 -5.000000e-001  7.547909e-002
   outer loop
     vertex  1.771406e+002  1.635305e+001  1.508951e+001
     vertex  1.789158e+002  1.943956e+001  1.524482e+001
     vertex  1.779117e+002  1.789630e+001  1.649858e+001
   endloop
 endfacet
 facet normal  8.715574e-002  1.410949e-014 -9.961947e-001
   outer loop
     vertex  1.753653e+002  1.943956e+001  1.493420e+001
     vertex  1.789158e+002  1.943956e+001  1.524482e+001
     vertex  1.771406e+002  1.635305e+001  1.508951e+001
   endloop
 endfacet
 facet normal  8.715574e-002  1.633996e-014 -9.961947e-001
   outer loop
     vertex  1.753653e+002  1.943956e+001  1.493420e+001
     vertex  1.771406e+002  1.635305e+001  1.508951e+001
     vertex  1.735901e+002  1.635305e+001  1.477889e+001
   endloop
 endfacet
 facet normal  8.715574e-002  1.599681e-014 -9.961947e-001
   outer loop
     vertex  1.753653e+002  1.943956e+001  1.493420e+001
     vertex  1.735901e+002  1.635305e+001  1.477889e+001
     vertex  1.718149e+002  1.943956e+001  1.462358e+001
   endloop
 endfacet
 facet normal  8.715574e-002  1.611793e-014 -9.961947e-001
   outer loop
     vertex  1.753653e+002  1.943956e+001  1.493420e+001
     vertex  1.718149e+002  1.943956e+001  1.462358e+001
     vertex  1.735901e+002  2.252608e+001  1.477889e+001
   endloop
 endfacet
 facet normal  8.715574e-002 -2.926862e-016 -9.961947e-001
   outer loop
     vertex  1.753653e+002  1.943956e+001  1.493420e+001
     vertex  1.735901e+002  2.252608e+001  1.477889e+001
     vertex  1.771406e+002  2.252608e+001  1.508951e+001
   endloop
 endfacet
 facet normal  8.715574e-002 -1.410445e-014 -9.961947e-001
   outer loop
     vertex  1.753653e+002  1.943956e+001  1.493420e+001
     vertex  1.771406e+002  2.252608e+001  1.508951e+001
     vertex  1.789158e+002  1.943956e+001  1.524482e+001
   endloop
 endfacet
endsolid
