solid C:\Temp\NOELParts\PART_13_PRT.STL created by CtrlView V2.70
facet normal 0 -1 0
outer loop
vertex 5.41809 0.000103078 19.7001
vertex 0.000104308 0.000103078 16.442
vertex 0.000104308 0.000103078 0.000102445
endloop
endfacet
facet normal 0 -1 0
outer loop
vertex 103.537 0.000103078 12.0717
vertex 5.41809 0.000103078 19.7001
vertex 103.504 0.000103078 11.3091
endloop
endfacet
facet normal 0 -1 0
outer loop
vertex 103.504 0.000103078 11.3091
vertex 5.41809 0.000103078 19.7001
vertex 0.000104308 0.000103078 0.000102445
endloop
endfacet
facet normal 0 -1 0
outer loop
vertex 103.504 0.000103078 11.3091
vertex 0.000104308 0.000103078 0.000102445
vertex 103.601 0.000103078 10.552
endloop
endfacet
facet normal 0 -1 0
outer loop
vertex 106.501 0.000103078 7.25715
vertex 105.805 0.000103078 7.57154
vertex 0.000104308 0.000103078 0.000102445
endloop
endfacet
facet normal 0 -1 0
outer loop
vertex 0.000104308 0.000103078 0.000102445
vertex 105.805 0.000103078 7.57154
vertex 105.173 0.000103078 7.99894
endloop
endfacet
facet normal 0 -1 0
outer loop
vertex 0.000104308 0.000103078 0.000102445
vertex 105.173 0.000103078 7.99894
vertex 104.622 0.000103078 8.52707
endloop
endfacet
facet normal 0 -1 0
outer loop
vertex 104.622 0.000103078 8.52707
vertex 104.168 0.000103078 9.14072
vertex 0.000104308 0.000103078 0.000102445
endloop
endfacet
facet normal 0 -1 0
outer loop
vertex 0.000104308 0.000103078 0.000102445
vertex 104.168 0.000103078 9.14072
vertex 103.825 0.000103078 9.82225
endloop
endfacet
facet normal 0 -1 0
outer loop
vertex 0.000104308 0.000103078 0.000102445
vertex 103.825 0.000103078 9.82225
vertex 103.601 0.000103078 10.552
endloop
endfacet
facet normal 0 -1 0
outer loop
vertex 390.219 0.000103078 0.000102445
vertex 111.832 0.000103078 9.14072
vertex 111.378 0.000103078 8.52707
endloop
endfacet
facet normal 0 -1 0
outer loop
vertex 111.378 0.000103078 8.52707
vertex 110.827 0.000103078 7.99894
vertex 390.219 0.000103078 0.000102445
endloop
endfacet
facet normal 0 -1 0
outer loop
vertex 390.219 0.000103078 0.000102445
vertex 110.827 0.000103078 7.99894
vertex 110.195 0.000103078 7.57154
endloop
endfacet
facet normal 0 -1 0
outer loop
vertex 390.219 0.000103078 0.000102445
vertex 110.195 0.000103078 7.57154
vertex 109.499 0.000103078 7.25715
endloop
endfacet
facet normal 0 -1 0
outer loop
vertex 103.537 0.000103078 12.0717
vertex 103.697 0.000103078 12.8178
vertex 5.41809 0.000103078 19.7001
endloop
endfacet
facet normal 0 -1 0
outer loop
vertex 5.41809 0.000103078 19.7001
vertex 103.697 0.000103078 12.8178
vertex 103.982 0.000103078 13.526
endloop
endfacet
facet normal 0 -1 0
outer loop
vertex 5.41809 0.000103078 19.7001
vertex 103.982 0.000103078 13.526
vertex 104.382 0.000103078 14.176
endloop
endfacet
facet normal 0 -1 0
outer loop
vertex 104.382 0.000103078 14.176
vertex 104.886 0.000103078 14.7489
vertex 5.41809 0.000103078 19.7001
endloop
endfacet
facet normal 0 -1 0
outer loop
vertex 5.41809 0.000103078 19.7001
vertex 104.886 0.000103078 14.7489
vertex 105.48 0.000103078 15.2284
endloop
endfacet
facet normal 0 -1 0
outer loop
vertex 5.41809 0.000103078 19.7001
vertex 105.48 0.000103078 15.2284
vertex 106.147 0.000103078 15.6006
endloop
endfacet
facet normal 0 -1 0
outer loop
vertex 109.499 0.000103078 7.25715
vertex 108.761 0.000103078 7.06483
vertex 390.219 0.000103078 0.000102445
endloop
endfacet
facet normal 0 -1 0
outer loop
vertex 390.219 0.000103078 0.000102445
vertex 108.761 0.000103078 7.06483
vertex 108 0.000103078 7.0001
endloop
endfacet
facet normal 0 -1 0
outer loop
vertex 390.219 0.000103078 0.000102445
vertex 108 0.000103078 7.0001
vertex 0.000104308 0.000103078 0.000102445
endloop
endfacet
facet normal 0 -1 0
outer loop
vertex 0.000104308 0.000103078 0.000102445
vertex 108 0.000103078 7.0001
vertex 107.24 0.000103078 7.06483
endloop
endfacet
facet normal 0 -1 0
outer loop
vertex 0.000104308 0.000103078 0.000102445
vertex 107.24 0.000103078 7.06483
vertex 106.501 0.000103078 7.25715
endloop
endfacet
facet normal 0 -1 0
outer loop
vertex 109.134 0.000103078 15.8549
vertex 109.854 0.000103078 15.6006
vertex 397.373 0.000103078 19.7001
endloop
endfacet
facet normal 0 -1 0
outer loop
vertex 397.373 0.000103078 19.7001
vertex 109.854 0.000103078 15.6006
vertex 110.52 0.000103078 15.2284
endloop
endfacet
facet normal 0 -1 0
outer loop
vertex 397.373 0.000103078 19.7001
vertex 110.52 0.000103078 15.2284
vertex 111.114 0.000103078 14.7489
endloop
endfacet
facet normal 0 -1 0
outer loop
vertex 112.496 0.000103078 11.3091
vertex 112.399 0.000103078 10.552
vertex 390.219 0.000103078 0.000102445
endloop
endfacet
facet normal 0 -1 0
outer loop
vertex 390.219 0.000103078 0.000102445
vertex 112.399 0.000103078 10.552
vertex 112.176 0.000103078 9.82225
endloop
endfacet
facet normal 0 -1 0
outer loop
vertex 390.219 0.000103078 0.000102445
vertex 112.176 0.000103078 9.82225
vertex 111.832 0.000103078 9.14072
endloop
endfacet
facet normal 0 -1 0
outer loop
vertex 106.147 0.000103078 15.6006
vertex 106.866 0.000103078 15.8549
vertex 5.41809 0.000103078 19.7001
endloop
endfacet
facet normal 0 -1 0
outer loop
vertex 5.41809 0.000103078 19.7001
vertex 106.866 0.000103078 15.8549
vertex 107.618 0.000103078 15.9839
endloop
endfacet
facet normal 0 -1 0
outer loop
vertex 5.41809 0.000103078 19.7001
vertex 107.618 0.000103078 15.9839
vertex 397.373 0.000103078 19.7001
endloop
endfacet
facet normal 0 -1 0
outer loop
vertex 397.373 0.000103078 19.7001
vertex 107.618 0.000103078 15.9839
vertex 108.382 0.000103078 15.9839
endloop
endfacet
facet normal 0 -1 0
outer loop
vertex 397.373 0.000103078 19.7001
vertex 108.382 0.000103078 15.9839
vertex 109.134 0.000103078 15.8549
endloop
endfacet
facet normal 0 -1 0
outer loop
vertex 111.114 0.000103078 14.7489
vertex 111.618 0.000103078 14.176
vertex 397.373 0.000103078 19.7001
endloop
endfacet
facet normal 0 -1 0
outer loop
vertex 397.373 0.000103078 19.7001
vertex 111.618 0.000103078 14.176
vertex 112.018 0.000103078 13.526
endloop
endfacet
facet normal 0 -1 0
outer loop
vertex 397.373 0.000103078 19.7001
vertex 112.018 0.000103078 13.526
vertex 112.303 0.000103078 12.8178
endloop
endfacet
facet normal 0 -1 0
outer loop
vertex 112.496 0.000103078 11.3091
vertex 390.219 0.000103078 0.000102445
vertex 112.464 0.000103078 12.0717
endloop
endfacet
facet normal 0 -1 0
outer loop
vertex 112.464 0.000103078 12.0717
vertex 390.219 0.000103078 0.000102445
vertex 337.5 0.000103078 7.0001
endloop
endfacet
facet normal 0 -1 0
outer loop
vertex 112.464 0.000103078 12.0717
vertex 337.5 0.000103078 7.0001
vertex 336.759 0.000103078 7.06148
endloop
endfacet
facet normal 0 -1 0
outer loop
vertex 336.759 0.000103078 7.06148
vertex 336.039 0.000103078 7.24393
vertex 112.464 0.000103078 12.0717
endloop
endfacet
facet normal 0 -1 0
outer loop
vertex 112.464 0.000103078 12.0717
vertex 336.039 0.000103078 7.24393
vertex 335.358 0.000103078 7.54247
endloop
endfacet
facet normal 0 -1 0
outer loop
vertex 112.464 0.000103078 12.0717
vertex 335.358 0.000103078 7.54247
vertex 334.736 0.000103078 7.94897
endloop
endfacet
facet normal 0 -1 0
outer loop
vertex 334.736 0.000103078 7.94897
vertex 334.189 0.000103078 8.45234
vertex 112.464 0.000103078 12.0717
endloop
endfacet
facet normal 0 -1 0
outer loop
vertex 112.464 0.000103078 12.0717
vertex 334.189 0.000103078 8.45234
vertex 333.733 0.000103078 9.03884
endloop
endfacet
facet normal 0 -1 0
outer loop
vertex 112.464 0.000103078 12.0717
vertex 333.733 0.000103078 9.03884
vertex 333.379 0.000103078 9.69247
endloop
endfacet
facet normal 0 -1 0
outer loop
vertex 352.862 0.000103078 12.6048
vertex 352.985 0.000103078 11.8717
vertex 397.373 0.000103078 19.7001
endloop
endfacet
facet normal 0 -1 0
outer loop
vertex 397.373 0.000103078 19.7001
vertex 352.985 0.000103078 11.8717
vertex 390.219 0.000103078 0.000102445
endloop
endfacet
facet normal 0 -1 0
outer loop
vertex 352.985 0.000103078 11.8717
vertex 352.985 0.000103078 11.1285
vertex 390.219 0.000103078 0.000102445
endloop
endfacet
facet normal 0 -1 0
outer loop
vertex 390.219 0.000103078 0.000102445
vertex 352.985 0.000103078 11.1285
vertex 352.862 0.000103078 10.3954
endloop
endfacet
facet normal 0 -1 0
outer loop
vertex 390.219 0.000103078 0.000102445
vertex 352.862 0.000103078 10.3954
vertex 352.621 0.000103078 9.69247
endloop
endfacet
facet normal 0 -1 0
outer loop
vertex 351.264 0.000103078 7.94897
vertex 350.642 0.000103078 7.54247
vertex 390.219 0.000103078 0.000102445
endloop
endfacet
facet normal 0 -1 0
outer loop
vertex 390.219 0.000103078 0.000102445
vertex 350.642 0.000103078 7.54247
vertex 349.961 0.000103078 7.24393
endloop
endfacet
facet normal 0 -1 0
outer loop
vertex 349.961 0.000103078 7.24393
vertex 349.241 0.000103078 7.06148
vertex 390.219 0.000103078 0.000102445
endloop
endfacet
facet normal 0 -1 0
outer loop
vertex 390.219 0.000103078 0.000102445
vertex 349.241 0.000103078 7.06148
vertex 348.5 0.000103078 7.0001
endloop
endfacet
facet normal 0 -1 0
outer loop
vertex 390.219 0.000103078 0.000102445
vertex 348.5 0.000103078 7.0001
vertex 337.5 0.000103078 7.0001
endloop
endfacet
facet normal 0 -1 0
outer loop
vertex 333.379 0.000103078 9.69247
vertex 333.138 0.000103078 10.3954
vertex 112.464 0.000103078 12.0717
endloop
endfacet
facet normal 0 -1 0
outer loop
vertex 112.464 0.000103078 12.0717
vertex 333.138 0.000103078 10.3954
vertex 333.015 0.000103078 11.1285
endloop
endfacet
facet normal 0 -1 0
outer loop
vertex 112.464 0.000103078 12.0717
vertex 333.015 0.000103078 11.1285
vertex 112.303 0.000103078 12.8178
endloop
endfacet
facet normal 0 -1 0
outer loop
vertex 112.303 0.000103078 12.8178
vertex 333.015 0.000103078 11.1285
vertex 333.015 0.000103078 11.8717
endloop
endfacet
facet normal 0 -1 0
outer loop
vertex 112.303 0.000103078 12.8178
vertex 333.015 0.000103078 11.8717
vertex 333.138 0.000103078 12.6048
endloop
endfacet
facet normal 0 -1 0
outer loop
vertex 349.241 0.000103078 15.9387
vertex 349.961 0.000103078 15.7563
vertex 397.373 0.000103078 19.7001
endloop
endfacet
facet normal 0 -1 0
outer loop
vertex 349.961 0.000103078 15.7563
vertex 350.642 0.000103078 15.4577
vertex 397.373 0.000103078 19.7001
endloop
endfacet
facet normal 0 -1 0
outer loop
vertex 397.373 0.000103078 19.7001
vertex 350.642 0.000103078 15.4577
vertex 351.264 0.000103078 15.0512
endloop
endfacet
facet normal 0 -1 0
outer loop
vertex 397.373 0.000103078 19.7001
vertex 351.264 0.000103078 15.0512
vertex 351.811 0.000103078 14.5479
endloop
endfacet
facet normal 0 -1 0
outer loop
vertex 352.621 0.000103078 9.69247
vertex 352.267 0.000103078 9.03884
vertex 390.219 0.000103078 0.000102445
endloop
endfacet
facet normal 0 -1 0
outer loop
vertex 390.219 0.000103078 0.000102445
vertex 352.267 0.000103078 9.03884
vertex 351.811 0.000103078 8.45234
endloop
endfacet
facet normal 0 -1 0
outer loop
vertex 390.219 0.000103078 0.000102445
vertex 351.811 0.000103078 8.45234
vertex 351.264 0.000103078 7.94897
endloop
endfacet
facet normal 0 -1 0
outer loop
vertex 333.138 0.000103078 12.6048
vertex 333.379 0.000103078 13.3077
vertex 112.303 0.000103078 12.8178
endloop
endfacet
facet normal 0 -1 0
outer loop
vertex 112.303 0.000103078 12.8178
vertex 333.379 0.000103078 13.3077
vertex 333.733 0.000103078 13.9614
endloop
endfacet
facet normal 0 -1 0
outer loop
vertex 112.303 0.000103078 12.8178
vertex 333.733 0.000103078 13.9614
vertex 334.189 0.000103078 14.5479
endloop
endfacet
facet normal 0 -1 0
outer loop
vertex 351.811 0.000103078 14.5479
vertex 352.267 0.000103078 13.9614
vertex 397.373 0.000103078 19.7001
endloop
endfacet
facet normal 0 -1 0
outer loop
vertex 397.373 0.000103078 19.7001
vertex 352.267 0.000103078 13.9614
vertex 352.621 0.000103078 13.3077
endloop
endfacet
facet normal 0 -1 0
outer loop
vertex 397.373 0.000103078 19.7001
vertex 352.621 0.000103078 13.3077
vertex 352.862 0.000103078 12.6048
endloop
endfacet
facet normal 0 -1 0
outer loop
vertex 334.189 0.000103078 14.5479
vertex 334.736 0.000103078 15.0512
vertex 112.303 0.000103078 12.8178
endloop
endfacet
facet normal 0 -1 0
outer loop
vertex 112.303 0.000103078 12.8178
vertex 334.736 0.000103078 15.0512
vertex 335.358 0.000103078 15.4577
endloop
endfacet
facet normal 0 -1 0
outer loop
vertex 112.303 0.000103078 12.8178
vertex 335.358 0.000103078 15.4577
vertex 336.039 0.000103078 15.7563
endloop
endfacet
facet normal 0 -1 0
outer loop
vertex 336.039 0.000103078 15.7563
vertex 336.759 0.000103078 15.9387
vertex 112.303 0.000103078 12.8178
endloop
endfacet
facet normal 0 -1 0
outer loop
vertex 112.303 0.000103078 12.8178
vertex 336.759 0.000103078 15.9387
vertex 337.5 0.000103078 16.0001
endloop
endfacet
facet normal 0 -1 0
outer loop
vertex 112.303 0.000103078 12.8178
vertex 337.5 0.000103078 16.0001
vertex 397.373 0.000103078 19.7001
endloop
endfacet
facet normal 0 -1 0
outer loop
vertex 397.373 0.000103078 19.7001
vertex 337.5 0.000103078 16.0001
vertex 348.5 0.000103078 16.0001
endloop
endfacet
facet normal 0 -1 0
outer loop
vertex 397.373 0.000103078 19.7001
vertex 348.5 0.000103078 16.0001
vertex 349.241 0.000103078 15.9387
endloop
endfacet
facet normal -0.515346 0 0.856982
outer loop
vertex 0.000104308 0.000103078 16.442
vertex 5.41809 0.000103078 19.7001
vertex 5.41809 0.293692 19.7001
endloop
endfacet
facet normal -0.515346 0 0.856982
outer loop
vertex 5.41809 1.2001 19.7001
vertex 0.000104308 1.2001 16.442
vertex 5.41809 0.600103 19.7001
endloop
endfacet
facet normal -0.515346 0 0.856982
outer loop
vertex 5.41809 0.600103 19.7001
vertex 0.000104308 1.2001 16.442
vertex 0.000104308 0.000103078 16.442
endloop
endfacet
facet normal -0.515346 0 0.856982
outer loop
vertex 5.41809 0.600103 19.7001
vertex 0.000104308 0.000103078 16.442
vertex 5.41809 0.598568 19.7001
endloop
endfacet
facet normal -0.515346 0 0.856982
outer loop
vertex 5.41809 0.598568 19.7001
vertex 0.000104308 0.000103078 16.442
vertex 5.41809 0.293692 19.7001
endloop
endfacet
facet normal -1 0 0
outer loop
vertex 0.000104308 1.2001 16.442
vertex 0.000104308 1.2001 0.000102445
vertex 0.000104308 0.000103078 16.442
endloop
endfacet
facet normal -1 0 0
outer loop
vertex 0.000104308 0.000103078 16.442
vertex 0.000104308 1.2001 0.000102445
vertex 0.000104308 0.000103078 0.000102445
endloop
endfacet
facet normal 0 0 -1
outer loop
vertex 390.219 1.2001 0.000102445
vertex 390.219 0.000103078 0.000102445
vertex 0.000104308 1.2001 0.000102445
endloop
endfacet
facet normal 0 0 -1
outer loop
vertex 0.000104308 1.2001 0.000102445
vertex 390.219 0.000103078 0.000102445
vertex 0.000104308 0.000103078 0.000102445
endloop
endfacet
facet normal 0.939937 0 -0.341347
outer loop
vertex 397.373 0.000103078 19.7001
vertex 390.219 0.000103078 0.000102445
vertex 397.373 0.59852 19.7001
endloop
endfacet
facet normal 0.939937 0 -0.341347
outer loop
vertex 397.373 0.59852 19.7001
vertex 390.219 0.000103078 0.000102445
vertex 397.373 0.600103 19.7001
endloop
endfacet
facet normal 0.939937 0 -0.341347
outer loop
vertex 397.373 0.600103 19.7001
vertex 390.219 0.000103078 0.000102445
vertex 397.373 0.903093 19.7001
endloop
endfacet
facet normal 0.939937 0 -0.341347
outer loop
vertex 397.373 0.903093 19.7001
vertex 390.219 0.000103078 0.000102445
vertex 390.219 1.2001 0.000102445
endloop
endfacet
facet normal 0.939937 0 -0.341347
outer loop
vertex 397.373 0.903093 19.7001
vertex 390.219 1.2001 0.000102445
vertex 397.373 1.2001 19.7001
endloop
endfacet
facet normal -0.0825776 0 0.996585
outer loop
vertex 348.5 1.2001 7.0001
vertex 348.5 0.000103078 7.0001
vertex 349.241 1.2001 7.06148
endloop
endfacet
facet normal -0.0825776 0 0.996585
outer loop
vertex 349.241 1.2001 7.06148
vertex 348.5 0.000103078 7.0001
vertex 349.241 0.000103078 7.06148
endloop
endfacet
facet normal -0.245489 0 0.969399
outer loop
vertex 349.241 1.2001 7.06148
vertex 349.241 0.000103078 7.06148
vertex 349.961 1.2001 7.24393
endloop
endfacet
facet normal -0.245489 0 0.969399
outer loop
vertex 349.961 1.2001 7.24393
vertex 349.241 0.000103078 7.06148
vertex 349.961 0.000103078 7.24393
endloop
endfacet
facet normal -0.401687 0 0.915777
outer loop
vertex 349.961 1.2001 7.24393
vertex 349.961 0.000103078 7.24393
vertex 350.642 1.2001 7.54247
endloop
endfacet
facet normal -0.401687 0 0.915777
outer loop
vertex 350.642 1.2001 7.54247
vertex 349.961 0.000103078 7.24393
vertex 350.642 0.000103078 7.54247
endloop
endfacet
facet normal -0.546949 0 0.837166
outer loop
vertex 350.642 1.2001 7.54247
vertex 350.642 0.000103078 7.54247
vertex 351.264 1.2001 7.94897
endloop
endfacet
facet normal -0.546949 0 0.837166
outer loop
vertex 351.264 1.2001 7.94897
vertex 350.642 0.000103078 7.54247
vertex 351.264 0.000103078 7.94897
endloop
endfacet
facet normal -0.677272 0 0.735732
outer loop
vertex 351.264 1.2001 7.94897
vertex 351.264 0.000103078 7.94897
vertex 351.811 1.2001 8.45234
endloop
endfacet
facet normal -0.677272 0 0.735732
outer loop
vertex 351.811 1.2001 8.45234
vertex 351.264 0.000103078 7.94897
vertex 351.811 0.000103078 8.45234
endloop
endfacet
facet normal -0.789147 0 0.614205
outer loop
vertex 351.811 1.2001 8.45234
vertex 351.811 0.000103078 8.45234
vertex 352.267 1.2001 9.03884
endloop
endfacet
facet normal -0.789147 0 0.614205
outer loop
vertex 352.267 1.2001 9.03884
vertex 351.811 0.000103078 8.45234
vertex 352.267 0.000103078 9.03884
endloop
endfacet
facet normal -0.879475 0 0.475945
outer loop
vertex 352.267 1.2001 9.03884
vertex 352.267 0.000103078 9.03884
vertex 352.621 1.2001 9.69247
endloop
endfacet
facet normal -0.879475 0 0.475945
outer loop
vertex 352.621 1.2001 9.69247
vertex 352.267 0.000103078 9.03884
vertex 352.621 0.000103078 9.69247
endloop
endfacet
facet normal -0.945812 0 0.324714
outer loop
vertex 352.621 1.2001 9.69247
vertex 352.621 0.000103078 9.69247
vertex 352.862 1.2001 10.3954
endloop
endfacet
facet normal -0.945812 0 0.324714
outer loop
vertex 352.862 1.2001 10.3954
vertex 352.621 0.000103078 9.69247
vertex 352.862 0.000103078 10.3954
endloop
endfacet
facet normal -0.986364 0 0.164576
outer loop
vertex 352.862 1.2001 10.3954
vertex 352.862 0.000103078 10.3954
vertex 352.985 1.2001 11.1285
endloop
endfacet
facet normal -0.986364 0 0.164576
outer loop
vertex 352.985 1.2001 11.1285
vertex 352.862 0.000103078 10.3954
vertex 352.985 0.000103078 11.1285
endloop
endfacet
facet normal -1 0 0
outer loop
vertex 352.985 1.2001 11.1285
vertex 352.985 0.000103078 11.1285
vertex 352.985 1.2001 11.8717
endloop
endfacet
facet normal -1 0 0
outer loop
vertex 352.985 1.2001 11.8717
vertex 352.985 0.000103078 11.1285
vertex 352.985 0.000103078 11.8717
endloop
endfacet
facet normal -0.986364 0 -0.164576
outer loop
vertex 352.985 1.2001 11.8717
vertex 352.985 0.000103078 11.8717
vertex 352.862 1.2001 12.6048
endloop
endfacet
facet normal -0.986364 0 -0.164576
outer loop
vertex 352.862 1.2001 12.6048
vertex 352.985 0.000103078 11.8717
vertex 352.862 0.000103078 12.6048
endloop
endfacet
facet normal -0.945812 0 -0.324714
outer loop
vertex 352.862 1.2001 12.6048
vertex 352.862 0.000103078 12.6048
vertex 352.621 1.2001 13.3077
endloop
endfacet
facet normal -0.945812 0 -0.324714
outer loop
vertex 352.621 1.2001 13.3077
vertex 352.862 0.000103078 12.6048
vertex 352.621 0.000103078 13.3077
endloop
endfacet
facet normal -0.879475 0 -0.475945
outer loop
vertex 352.621 1.2001 13.3077
vertex 352.621 0.000103078 13.3077
vertex 352.267 1.2001 13.9614
endloop
endfacet
facet normal -0.879475 0 -0.475945
outer loop
vertex 352.267 1.2001 13.9614
vertex 352.621 0.000103078 13.3077
vertex 352.267 0.000103078 13.9614
endloop
endfacet
facet normal -0.789147 0 -0.614205
outer loop
vertex 352.267 1.2001 13.9614
vertex 352.267 0.000103078 13.9614
vertex 351.811 1.2001 14.5479
endloop
endfacet
facet normal -0.789147 0 -0.614205
outer loop
vertex 351.811 1.2001 14.5479
vertex 352.267 0.000103078 13.9614
vertex 351.811 0.000103078 14.5479
endloop
endfacet
facet normal -0.677272 0 -0.735733
outer loop
vertex 351.811 1.2001 14.5479
vertex 351.811 0.000103078 14.5479
vertex 351.264 1.2001 15.0512
endloop
endfacet
facet normal -0.677272 0 -0.735733
outer loop
vertex 351.264 1.2001 15.0512
vertex 351.811 0.000103078 14.5479
vertex 351.264 0.000103078 15.0512
endloop
endfacet
facet normal -0.546949 0 -0.837166
outer loop
vertex 351.264 1.2001 15.0512
vertex 351.264 0.000103078 15.0512
vertex 350.642 1.2001 15.4577
endloop
endfacet
facet normal -0.546949 0 -0.837166
outer loop
vertex 350.642 1.2001 15.4577
vertex 351.264 0.000103078 15.0512
vertex 350.642 0.000103078 15.4577
endloop
endfacet
facet normal -0.401687 0 -0.915777
outer loop
vertex 350.642 1.2001 15.4577
vertex 350.642 0.000103078 15.4577
vertex 349.961 1.2001 15.7563
endloop
endfacet
facet normal -0.401687 0 -0.915777
outer loop
vertex 349.961 1.2001 15.7563
vertex 350.642 0.000103078 15.4577
vertex 349.961 0.000103078 15.7563
endloop
endfacet
facet normal -0.24549 0 -0.969399
outer loop
vertex 349.961 1.2001 15.7563
vertex 349.961 0.000103078 15.7563
vertex 349.241 1.2001 15.9387
endloop
endfacet
facet normal -0.24549 0 -0.969399
outer loop
vertex 349.241 1.2001 15.9387
vertex 349.961 0.000103078 15.7563
vertex 349.241 0.000103078 15.9387
endloop
endfacet
facet normal -0.082577 0 -0.996585
outer loop
vertex 349.241 1.2001 15.9387
vertex 349.241 0.000103078 15.9387
vertex 348.5 1.2001 16.0001
endloop
endfacet
facet normal -0.082577 0 -0.996585
outer loop
vertex 348.5 1.2001 16.0001
vertex 349.241 0.000103078 15.9387
vertex 348.5 0.000103078 16.0001
endloop
endfacet
facet normal 0 0 1
outer loop
vertex 348.5 0.000103078 7.0001
vertex 348.5 1.2001 7.0001
vertex 337.5 0.000103078 7.0001
endloop
endfacet
facet normal 0 0 1
outer loop
vertex 337.5 0.000103078 7.0001
vertex 348.5 1.2001 7.0001
vertex 337.5 1.2001 7.0001
endloop
endfacet
facet normal 0.0825837 0 -0.996584
outer loop
vertex 337.5 1.2001 16.0001
vertex 337.5 0.000103078 16.0001
vertex 336.759 1.2001 15.9387
endloop
endfacet
facet normal 0.0825837 0 -0.996584
outer loop
vertex 336.759 1.2001 15.9387
vertex 337.5 0.000103078 16.0001
vertex 336.759 0.000103078 15.9387
endloop
endfacet
facet normal 0.24547 0 -0.969404
outer loop
vertex 336.759 1.2001 15.9387
vertex 336.759 0.000103078 15.9387
vertex 336.039 1.2001 15.7563
endloop
endfacet
facet normal 0.24547 0 -0.969404
outer loop
vertex 336.039 1.2001 15.7563
vertex 336.759 0.000103078 15.9387
vertex 336.039 0.000103078 15.7563
endloop
endfacet
facet normal 0.401702 0 -0.915771
outer loop
vertex 336.039 1.2001 15.7563
vertex 336.039 0.000103078 15.7563
vertex 335.358 1.2001 15.4577
endloop
endfacet
facet normal 0.401702 0 -0.915771
outer loop
vertex 335.358 1.2001 15.4577
vertex 336.039 0.000103078 15.7563
vertex 335.358 0.000103078 15.4577
endloop
endfacet
facet normal 0.546968 0 -0.837153
outer loop
vertex 335.358 1.2001 15.4577
vertex 335.358 0.000103078 15.4577
vertex 334.736 1.2001 15.0512
endloop
endfacet
facet normal 0.546968 0 -0.837153
outer loop
vertex 334.736 1.2001 15.0512
vertex 335.358 0.000103078 15.4577
vertex 334.736 0.000103078 15.0512
endloop
endfacet
facet normal 0.677272 0 -0.735733
outer loop
vertex 334.736 1.2001 15.0512
vertex 334.736 0.000103078 15.0512
vertex 334.189 1.2001 14.5479
endloop
endfacet
facet normal 0.677272 0 -0.735733
outer loop
vertex 334.189 1.2001 14.5479
vertex 334.736 0.000103078 15.0512
vertex 334.189 0.000103078 14.5479
endloop
endfacet
facet normal 0.789127 0 -0.61423
outer loop
vertex 334.189 1.2001 14.5479
vertex 334.189 0.000103078 14.5479
vertex 333.733 1.2001 13.9614
endloop
endfacet
facet normal 0.789127 0 -0.61423
outer loop
vertex 333.733 1.2001 13.9614
vertex 334.189 0.000103078 14.5479
vertex 333.733 0.000103078 13.9614
endloop
endfacet
facet normal 0.879475 0 -0.475945
outer loop
vertex 333.733 1.2001 13.9614
vertex 333.733 0.000103078 13.9614
vertex 333.379 1.2001 13.3077
endloop
endfacet
facet normal 0.879475 0 -0.475945
outer loop
vertex 333.379 1.2001 13.3077
vertex 333.733 0.000103078 13.9614
vertex 333.379 0.000103078 13.3077
endloop
endfacet
facet normal 0.945825 0 -0.324677
outer loop
vertex 333.379 1.2001 13.3077
vertex 333.379 0.000103078 13.3077
vertex 333.138 1.2001 12.6048
endloop
endfacet
facet normal 0.945825 0 -0.324677
outer loop
vertex 333.138 1.2001 12.6048
vertex 333.379 0.000103078 13.3077
vertex 333.138 0.000103078 12.6048
endloop
endfacet
facet normal 0.986358 0 -0.164616
outer loop
vertex 333.138 1.2001 12.6048
vertex 333.138 0.000103078 12.6048
vertex 333.015 1.2001 11.8717
endloop
endfacet
facet normal 0.986358 0 -0.164616
outer loop
vertex 333.015 1.2001 11.8717
vertex 333.138 0.000103078 12.6048
vertex 333.015 0.000103078 11.8717
endloop
endfacet
facet normal 1 0 0
outer loop
vertex 333.015 1.2001 11.8717
vertex 333.015 0.000103078 11.8717
vertex 333.015 1.2001 11.1285
endloop
endfacet
facet normal 1 0 0
outer loop
vertex 333.015 1.2001 11.1285
vertex 333.015 0.000103078 11.8717
vertex 333.015 0.000103078 11.1285
endloop
endfacet
facet normal 0.986358 0 0.164616
outer loop
vertex 333.015 1.2001 11.1285
vertex 333.015 0.000103078 11.1285
vertex 333.138 1.2001 10.3954
endloop
endfacet
facet normal 0.986358 0 0.164616
outer loop
vertex 333.138 1.2001 10.3954
vertex 333.015 0.000103078 11.1285
vertex 333.138 0.000103078 10.3954
endloop
endfacet
facet normal 0.945825 0 0.324677
outer loop
vertex 333.138 1.2001 10.3954
vertex 333.138 0.000103078 10.3954
vertex 333.379 1.2001 9.69247
endloop
endfacet
facet normal 0.945825 0 0.324677
outer loop
vertex 333.379 1.2001 9.69247
vertex 333.138 0.000103078 10.3954
vertex 333.379 0.000103078 9.69247
endloop
endfacet
facet normal 0.879475 0 0.475945
outer loop
vertex 333.379 1.2001 9.69247
vertex 333.379 0.000103078 9.69247
vertex 333.733 1.2001 9.03884
endloop
endfacet
facet normal 0.879475 0 0.475945
outer loop
vertex 333.733 1.2001 9.03884
vertex 333.379 0.000103078 9.69247
vertex 333.733 0.000103078 9.03884
endloop
endfacet
facet normal 0.789127 0 0.61423
outer loop
vertex 333.733 1.2001 9.03884
vertex 333.733 0.000103078 9.03884
vertex 334.189 1.2001 8.45234
endloop
endfacet
facet normal 0.789127 0 0.61423
outer loop
vertex 334.189 1.2001 8.45234
vertex 333.733 0.000103078 9.03884
vertex 334.189 0.000103078 8.45234
endloop
endfacet
facet normal 0.677272 0 0.735732
outer loop
vertex 334.189 1.2001 8.45234
vertex 334.189 0.000103078 8.45234
vertex 334.736 1.2001 7.94897
endloop
endfacet
facet normal 0.677272 0 0.735732
outer loop
vertex 334.736 1.2001 7.94897
vertex 334.189 0.000103078 8.45234
vertex 334.736 0.000103078 7.94897
endloop
endfacet
facet normal 0.546968 0 0.837153
outer loop
vertex 334.736 1.2001 7.94897
vertex 334.736 0.000103078 7.94897
vertex 335.358 1.2001 7.54247
endloop
endfacet
facet normal 0.546968 0 0.837153
outer loop
vertex 335.358 1.2001 7.54247
vertex 334.736 0.000103078 7.94897
vertex 335.358 0.000103078 7.54247
endloop
endfacet
facet normal 0.401702 0 0.915771
outer loop
vertex 335.358 1.2001 7.54247
vertex 335.358 0.000103078 7.54247
vertex 336.039 1.2001 7.24393
endloop
endfacet
facet normal 0.401702 0 0.915771
outer loop
vertex 336.039 1.2001 7.24393
vertex 335.358 0.000103078 7.54247
vertex 336.039 0.000103078 7.24393
endloop
endfacet
facet normal 0.24547 0 0.969404
outer loop
vertex 336.039 1.2001 7.24393
vertex 336.039 0.000103078 7.24393
vertex 336.759 1.2001 7.06148
endloop
endfacet
facet normal 0.24547 0 0.969404
outer loop
vertex 336.759 1.2001 7.06148
vertex 336.039 0.000103078 7.24393
vertex 336.759 0.000103078 7.06148
endloop
endfacet
facet normal 0.0825843 0 0.996584
outer loop
vertex 336.759 1.2001 7.06148
vertex 336.759 0.000103078 7.06148
vertex 337.5 1.2001 7.0001
endloop
endfacet
facet normal 0.0825843 0 0.996584
outer loop
vertex 337.5 1.2001 7.0001
vertex 336.759 0.000103078 7.06148
vertex 337.5 0.000103078 7.0001
endloop
endfacet
facet normal 0 0 -1
outer loop
vertex 337.5 0.000103078 16.0001
vertex 337.5 1.2001 16.0001
vertex 348.5 0.000103078 16.0001
endloop
endfacet
facet normal 0 0 -1
outer loop
vertex 348.5 0.000103078 16.0001
vertex 337.5 1.2001 16.0001
vertex 348.5 1.2001 16.0001
endloop
endfacet
facet normal -0.251979 0 0.967733
outer loop
vertex 108.761 1.2001 7.06483
vertex 108.761 0.000103078 7.06483
vertex 109.499 1.2001 7.25715
endloop
endfacet
facet normal -0.251979 0 0.967733
outer loop
vertex 109.499 1.2001 7.25715
vertex 108.761 0.000103078 7.06483
vertex 109.499 0.000103078 7.25715
endloop
endfacet
facet normal -0.411902 0 0.911228
outer loop
vertex 109.499 1.2001 7.25715
vertex 109.499 0.000103078 7.25715
vertex 110.195 1.2001 7.57154
endloop
endfacet
facet normal -0.411902 0 0.911228
outer loop
vertex 110.195 1.2001 7.57154
vertex 109.499 0.000103078 7.25715
vertex 110.195 0.000103078 7.57154
endloop
endfacet
facet normal -0.55997 0 0.828513
outer loop
vertex 110.195 1.2001 7.57154
vertex 110.195 0.000103078 7.57154
vertex 110.827 1.2001 7.99894
endloop
endfacet
facet normal -0.55997 0 0.828513
outer loop
vertex 110.827 1.2001 7.99894
vertex 110.195 0.000103078 7.57154
vertex 110.827 0.000103078 7.99894
endloop
endfacet
facet normal -0.691941 0 0.721954
outer loop
vertex 110.827 1.2001 7.99894
vertex 110.827 0.000103078 7.99894
vertex 111.378 1.2001 8.52707
endloop
endfacet
facet normal -0.691941 0 0.721954
outer loop
vertex 111.378 1.2001 8.52707
vertex 110.827 0.000103078 7.99894
vertex 111.378 0.000103078 8.52707
endloop
endfacet
facet normal -0.803996 0 0.594635
outer loop
vertex 111.378 1.2001 8.52707
vertex 111.378 0.000103078 8.52707
vertex 111.832 1.2001 9.14072
endloop
endfacet
facet normal -0.803996 0 0.594635
outer loop
vertex 111.832 1.2001 9.14072
vertex 111.378 0.000103078 8.52707
vertex 111.832 0.000103078 9.14072
endloop
endfacet
facet normal -0.892926 0 0.450204
outer loop
vertex 111.832 1.2001 9.14072
vertex 111.832 0.000103078 9.14072
vertex 112.176 1.2001 9.82225
endloop
endfacet
facet normal -0.892926 0 0.450204
outer loop
vertex 112.176 1.2001 9.82225
vertex 111.832 0.000103078 9.14072
vertex 112.176 0.000103078 9.82225
endloop
endfacet
facet normal -0.956168 0 0.29282
outer loop
vertex 112.176 1.2001 9.82225
vertex 112.176 0.000103078 9.82225
vertex 112.399 1.2001 10.552
endloop
endfacet
facet normal -0.956168 0 0.29282
outer loop
vertex 112.399 1.2001 10.552
vertex 112.176 0.000103078 9.82225
vertex 112.399 0.000103078 10.552
endloop
endfacet
facet normal -0.9919 0 0.127018
outer loop
vertex 112.399 1.2001 10.552
vertex 112.399 0.000103078 10.552
vertex 112.496 1.2001 11.3091
endloop
endfacet
facet normal -0.9919 0 0.127018
outer loop
vertex 112.496 1.2001 11.3091
vertex 112.399 0.000103078 10.552
vertex 112.496 0.000103078 11.3091
endloop
endfacet
facet normal -0.999099 0 -0.0424426
outer loop
vertex 112.496 1.2001 11.3091
vertex 112.496 0.000103078 11.3091
vertex 112.464 1.2001 12.0717
endloop
endfacet
facet normal -0.999099 0 -0.0424426
outer loop
vertex 112.464 1.2001 12.0717
vertex 112.496 0.000103078 11.3091
vertex 112.464 0.000103078 12.0717
endloop
endfacet
facet normal -0.977556 0 -0.210674
outer loop
vertex 112.464 1.2001 12.0717
vertex 112.464 0.000103078 12.0717
vertex 112.303 1.2001 12.8178
endloop
endfacet
facet normal -0.977556 0 -0.210674
outer loop
vertex 112.303 1.2001 12.8178
vertex 112.464 0.000103078 12.0717
vertex 112.303 0.000103078 12.8178
endloop
endfacet
facet normal -0.927889 0 -0.372856
outer loop
vertex 112.303 1.2001 12.8178
vertex 112.303 0.000103078 12.8178
vertex 112.018 1.2001 13.526
endloop
endfacet
facet normal -0.927889 0 -0.372856
outer loop
vertex 112.018 1.2001 13.526
vertex 112.303 0.000103078 12.8178
vertex 112.018 0.000103078 13.526
endloop
endfacet
facet normal -0.851525 0 -0.524313
outer loop
vertex 112.018 1.2001 13.526
vertex 112.018 0.000103078 13.526
vertex 111.618 1.2001 14.176
endloop
endfacet
facet normal -0.851525 0 -0.524313
outer loop
vertex 111.618 1.2001 14.176
vertex 112.018 0.000103078 13.526
vertex 111.618 0.000103078 14.176
endloop
endfacet
facet normal -0.750671 0 -0.660676
outer loop
vertex 111.618 1.2001 14.176
vertex 111.618 0.000103078 14.176
vertex 111.114 1.2001 14.7489
endloop
endfacet
facet normal -0.750671 0 -0.660676
outer loop
vertex 111.114 1.2001 14.7489
vertex 111.618 0.000103078 14.176
vertex 111.114 0.000103078 14.7489
endloop
endfacet
facet normal -0.628222 0 -0.778034
outer loop
vertex 111.114 1.2001 14.7489
vertex 111.114 0.000103078 14.7489
vertex 110.52 1.2001 15.2284
endloop
endfacet
facet normal -0.628222 0 -0.778034
outer loop
vertex 110.52 1.2001 15.2284
vertex 111.114 0.000103078 14.7489
vertex 110.52 0.000103078 15.2284
endloop
endfacet
facet normal -0.487692 0 -0.873016
outer loop
vertex 110.52 1.2001 15.2284
vertex 110.52 0.000103078 15.2284
vertex 109.854 1.2001 15.6006
endloop
endfacet
facet normal -0.487692 0 -0.873016
outer loop
vertex 109.854 1.2001 15.6006
vertex 110.52 0.000103078 15.2284
vertex 109.854 0.000103078 15.6006
endloop
endfacet
facet normal -0.333143 0 -0.942876
outer loop
vertex 109.854 1.2001 15.6006
vertex 109.854 0.000103078 15.6006
vertex 109.134 1.2001 15.8549
endloop
endfacet
facet normal -0.333143 0 -0.942876
outer loop
vertex 109.134 1.2001 15.8549
vertex 109.854 0.000103078 15.6006
vertex 109.134 0.000103078 15.8549
endloop
endfacet
facet normal -0.169001 0 -0.985616
outer loop
vertex 109.134 1.2001 15.8549
vertex 109.134 0.000103078 15.8549
vertex 108.382 1.2001 15.9839
endloop
endfacet
facet normal -0.169001 0 -0.985616
outer loop
vertex 108.382 1.2001 15.9839
vertex 109.134 0.000103078 15.8549
vertex 108.382 0.000103078 15.9839
endloop
endfacet
facet normal 0 0 -1
outer loop
vertex 108.382 1.2001 15.9839
vertex 108.382 0.000103078 15.9839
vertex 107.618 1.2001 15.9839
endloop
endfacet
facet normal 0 0 -1
outer loop
vertex 107.618 1.2001 15.9839
vertex 108.382 0.000103078 15.9839
vertex 107.618 0.000103078 15.9839
endloop
endfacet
facet normal 0.169001 0 -0.985616
outer loop
vertex 107.618 1.2001 15.9839
vertex 107.618 0.000103078 15.9839
vertex 106.866 1.2001 15.8549
endloop
endfacet
facet normal 0.169001 0 -0.985616
outer loop
vertex 106.866 1.2001 15.8549
vertex 107.618 0.000103078 15.9839
vertex 106.866 0.000103078 15.8549
endloop
endfacet
facet normal 0.33314 0 -0.942877
outer loop
vertex 106.866 1.2001 15.8549
vertex 106.866 0.000103078 15.8549
vertex 106.147 1.2001 15.6006
endloop
endfacet
facet normal 0.33314 0 -0.942877
outer loop
vertex 106.147 1.2001 15.6006
vertex 106.866 0.000103078 15.8549
vertex 106.147 0.000103078 15.6006
endloop
endfacet
facet normal 0.487696 0 -0.873014
outer loop
vertex 106.147 1.2001 15.6006
vertex 106.147 0.000103078 15.6006
vertex 105.48 1.2001 15.2284
endloop
endfacet
facet normal 0.487696 0 -0.873014
outer loop
vertex 105.48 1.2001 15.2284
vertex 106.147 0.000103078 15.6006
vertex 105.48 0.000103078 15.2284
endloop
endfacet
facet normal 0.628217 0 -0.778038
outer loop
vertex 105.48 1.2001 15.2284
vertex 105.48 0.000103078 15.2284
vertex 104.886 1.2001 14.7489
endloop
endfacet
facet normal 0.628217 0 -0.778038
outer loop
vertex 104.886 1.2001 14.7489
vertex 105.48 0.000103078 15.2284
vertex 104.886 0.000103078 14.7489
endloop
endfacet
facet normal 0.750671 0 -0.660676
outer loop
vertex 104.886 1.2001 14.7489
vertex 104.886 0.000103078 14.7489
vertex 104.382 1.2001 14.176
endloop
endfacet
facet normal 0.750671 0 -0.660676
outer loop
vertex 104.382 1.2001 14.176
vertex 104.886 0.000103078 14.7489
vertex 104.382 0.000103078 14.176
endloop
endfacet
facet normal 0.85153 0 -0.524306
outer loop
vertex 104.382 1.2001 14.176
vertex 104.382 0.000103078 14.176
vertex 103.982 1.2001 13.526
endloop
endfacet
facet normal 0.85153 0 -0.524306
outer loop
vertex 103.982 1.2001 13.526
vertex 104.382 0.000103078 14.176
vertex 103.982 0.000103078 13.526
endloop
endfacet
facet normal 0.927889 0 -0.372856
outer loop
vertex 103.982 1.2001 13.526
vertex 103.982 0.000103078 13.526
vertex 103.697 1.2001 12.8178
endloop
endfacet
facet normal 0.927889 0 -0.372856
outer loop
vertex 103.697 1.2001 12.8178
vertex 103.982 0.000103078 13.526
vertex 103.697 0.000103078 12.8178
endloop
endfacet
facet normal 0.977556 0 -0.210674
outer loop
vertex 103.697 1.2001 12.8178
vertex 103.697 0.000103078 12.8178
vertex 103.537 1.2001 12.0717
endloop
endfacet
facet normal 0.977556 0 -0.210674
outer loop
vertex 103.537 1.2001 12.0717
vertex 103.697 0.000103078 12.8178
vertex 103.537 0.000103078 12.0717
endloop
endfacet
facet normal 0.999099 0 -0.0424426
outer loop
vertex 103.537 1.2001 12.0717
vertex 103.537 0.000103078 12.0717
vertex 103.504 1.2001 11.3091
endloop
endfacet
facet normal 0.999099 0 -0.0424426
outer loop
vertex 103.504 1.2001 11.3091
vertex 103.537 0.000103078 12.0717
vertex 103.504 0.000103078 11.3091
endloop
endfacet
facet normal 0.9919 0 0.127018
outer loop
vertex 103.504 1.2001 11.3091
vertex 103.504 0.000103078 11.3091
vertex 103.601 1.2001 10.552
endloop
endfacet
facet normal 0.9919 0 0.127018
outer loop
vertex 103.601 1.2001 10.552
vertex 103.504 0.000103078 11.3091
vertex 103.601 0.000103078 10.552
endloop
endfacet
facet normal 0.956168 0 0.29282
outer loop
vertex 103.601 1.2001 10.552
vertex 103.601 0.000103078 10.552
vertex 103.825 1.2001 9.82225
endloop
endfacet
facet normal 0.956168 0 0.29282
outer loop
vertex 103.825 1.2001 9.82225
vertex 103.601 0.000103078 10.552
vertex 103.825 0.000103078 9.82225
endloop
endfacet
facet normal 0.892926 0 0.450204
outer loop
vertex 103.825 1.2001 9.82225
vertex 103.825 0.000103078 9.82225
vertex 104.168 1.2001 9.14072
endloop
endfacet
facet normal 0.892926 0 0.450204
outer loop
vertex 104.168 1.2001 9.14072
vertex 103.825 0.000103078 9.82225
vertex 104.168 0.000103078 9.14072
endloop
endfacet
facet normal 0.804001 0 0.594628
outer loop
vertex 104.168 1.2001 9.14072
vertex 104.168 0.000103078 9.14072
vertex 104.622 1.2001 8.52707
endloop
endfacet
facet normal 0.804001 0 0.594628
outer loop
vertex 104.622 1.2001 8.52707
vertex 104.168 0.000103078 9.14072
vertex 104.622 0.000103078 8.52707
endloop
endfacet
facet normal 0.691936 0 0.721959
outer loop
vertex 104.622 1.2001 8.52707
vertex 104.622 0.000103078 8.52707
vertex 105.173 1.2001 7.99894
endloop
endfacet
facet normal 0.691936 0 0.721959
outer loop
vertex 105.173 1.2001 7.99894
vertex 104.622 0.000103078 8.52707
vertex 105.173 0.000103078 7.99894
endloop
endfacet
facet normal 0.559975 0 0.82851
outer loop
vertex 105.173 1.2001 7.99894
vertex 105.173 0.000103078 7.99894
vertex 105.805 1.2001 7.57154
endloop
endfacet
facet normal 0.559975 0 0.82851
outer loop
vertex 105.805 1.2001 7.57154
vertex 105.173 0.000103078 7.99894
vertex 105.805 0.000103078 7.57154
endloop
endfacet
facet normal 0.411899 0 0.91123
outer loop
vertex 105.805 1.2001 7.57154
vertex 105.805 0.000103078 7.57154
vertex 106.501 1.2001 7.25715
endloop
endfacet
facet normal 0.411899 0 0.91123
outer loop
vertex 106.501 1.2001 7.25715
vertex 105.805 0.000103078 7.57154
vertex 106.501 0.000103078 7.25715
endloop
endfacet
facet normal 0.251981 0 0.967732
outer loop
vertex 106.501 1.2001 7.25715
vertex 106.501 0.000103078 7.25715
vertex 107.24 1.2001 7.06483
endloop
endfacet
facet normal 0.251981 0 0.967732
outer loop
vertex 107.24 1.2001 7.06483
vertex 106.501 0.000103078 7.25715
vertex 107.24 0.000103078 7.06483
endloop
endfacet
facet normal 0.0848049 0 0.996398
outer loop
vertex 107.24 1.2001 7.06483
vertex 107.24 0.000103078 7.06483
vertex 108 1.2001 7.0001
endloop
endfacet
facet normal 0.0848049 0 0.996398
outer loop
vertex 108 1.2001 7.0001
vertex 107.24 0.000103078 7.06483
vertex 108 0.000103078 7.0001
endloop
endfacet
facet normal -0.0848049 0 0.996398
outer loop
vertex 108 1.2001 7.0001
vertex 108 0.000103078 7.0001
vertex 108.761 1.2001 7.06483
endloop
endfacet
facet normal -0.0848049 0 0.996398
outer loop
vertex 108.761 1.2001 7.06483
vertex 108 0.000103078 7.0001
vertex 108.761 0.000103078 7.06483
endloop
endfacet
facet normal 0 -0.0879558 0.996124
outer loop
vertex 398.517 2.8001 22.5001
vertex 10.6563 2.8001 22.5001
vertex 398.403 2.36246 22.4615
endloop
endfacet
facet normal 8.37491e-005 -0.0140883 0.999901
outer loop
vertex 398.403 2.36246 22.4615
vertex 10.6563 2.8001 22.5001
vertex 10.5629 2.72171 22.499
endloop
endfacet
facet normal -4.27828e-005 -0.149526 0.988758
outer loop
vertex 398.403 2.36246 22.4615
vertex 10.5629 2.72171 22.499
vertex 10.1326 2.36522 22.4451
endloop
endfacet
facet normal -4.66731e-005 -0.275544 0.961289
outer loop
vertex 10.0015 2.25658 22.4286
vertex 398.288 1.93692 22.3559
vertex 398.373 2.24908 22.4453
endloop
endfacet
facet normal -4.54211e-005 -0.149535 0.988756
outer loop
vertex 10.0015 2.25658 22.4286
vertex 398.373 2.24908 22.4453
vertex 10.1326 2.36522 22.4451
endloop
endfacet
facet normal -5.63321e-005 -0.186021 0.982546
outer loop
vertex 10.1326 2.36522 22.4451
vertex 398.373 2.24908 22.4453
vertex 398.389 2.30947 22.4568
endloop
endfacet
facet normal -4.26553e-005 -0.0879347 0.996126
outer loop
vertex 10.1326 2.36522 22.4451
vertex 398.389 2.30947 22.4568
vertex 398.403 2.36246 22.4615
endloop
endfacet
facet normal 6.21157e-005 -0.149646 0.98874
outer loop
vertex 10.0015 2.25658 22.4286
vertex 9.74861 2.04711 22.397
vertex 398.288 1.93692 22.3559
endloop
endfacet
facet normal -1.20245e-005 -0.386326 0.922362
outer loop
vertex 398.288 1.93692 22.3559
vertex 9.74861 2.04711 22.397
vertex 9.6093 1.93935 22.3518
endloop
endfacet
facet normal -1.17375e-005 -0.275543 0.961289
outer loop
vertex 398.288 1.93692 22.3559
vertex 9.6093 1.93935 22.3518
vertex 398.255 1.81308 22.3204
endloop
endfacet
facet normal -6.60132e-005 -0.428247 0.903662
outer loop
vertex 398.255 1.81308 22.3204
vertex 9.6093 1.93935 22.3518
vertex 398.231 1.73044 22.2812
endloop
endfacet
facet normal -6.60206e-005 -0.428258 0.903656
outer loop
vertex 398.231 1.73044 22.2812
vertex 9.6093 1.93935 22.3518
vertex 398.174 1.5325 22.1874
endloop
endfacet
facet normal -1.42088e-005 -0.386334 0.922359
outer loop
vertex 398.174 1.5325 22.1874
vertex 9.6093 1.93935 22.3518
vertex 9.34671 1.73624 22.2667
endloop
endfacet
facet normal -1.42088e-005 -0.386334 0.922359
outer loop
vertex 398.174 1.5325 22.1874
vertex 9.34671 1.73624 22.2667
vertex 9.08585 1.53447 22.1822
endloop
endfacet
facet normal 5.28784e-005 -0.511262 0.859425
outer loop
vertex 8.81654 1.33152 22.0841
vertex 398.06 1.15971 21.9579
vertex 8.9201 1.40626 22.1285
endloop
endfacet
facet normal -1.72819e-005 -0.587338 0.809342
outer loop
vertex 8.9201 1.40626 22.1285
vertex 398.06 1.15971 21.9579
vertex 398.119 1.3445 22.092
endloop
endfacet
facet normal 2.52074e-005 -0.386377 0.922341
outer loop
vertex 8.9201 1.40626 22.1285
vertex 398.119 1.3445 22.092
vertex 9.08585 1.53447 22.1822
endloop
endfacet
facet normal -4.99056e-005 -0.510532 0.859859
outer loop
vertex 9.08585 1.53447 22.1822
vertex 398.119 1.3445 22.092
vertex 398.135 1.39693 22.1231
endloop
endfacet
facet normal -1.41719e-005 -0.428268 0.903652
outer loop
vertex 9.08585 1.53447 22.1822
vertex 398.135 1.39693 22.1231
vertex 398.174 1.5325 22.1874
endloop
endfacet
facet normal -2.2438e-005 -0.624392 0.781111
outer loop
vertex 8.81654 1.33152 22.0841
vertex 8.69204 1.25022 22.0191
vertex 398.06 1.15971 21.9579
endloop
endfacet
facet normal -2.24434e-005 -0.624407 0.781099
outer loop
vertex 398.06 1.15971 21.9579
vertex 8.69204 1.25022 22.0191
vertex 8.5621 1.16537 21.9512
endloop
endfacet
facet normal -2.23873e-005 -0.587338 0.809342
outer loop
vertex 398.06 1.15971 21.9579
vertex 8.5621 1.16537 21.9512
vertex 398.001 0.977386 21.8256
endloop
endfacet
facet normal -4.93632e-005 -0.624366 0.781132
outer loop
vertex 398.001 0.977386 21.8256
vertex 8.5621 1.16537 21.9512
vertex 8.03708 0.822555 21.6772
endloop
endfacet
facet normal 1.48504e-005 -0.7112 0.70299
outer loop
vertex 398.001 0.977386 21.8256
vertex 8.03708 0.822555 21.6772
vertex 397.945 0.826916 21.6734
endloop
endfacet
facet normal 7.64376e-005 -0.796316 0.60488
outer loop
vertex 7.16828 0.377568 21.1041
vertex 397.716 0.311838 20.9683
vertex 7.38238 0.485863 21.2467
endloop
endfacet
facet normal -0.00010707 -0.908554 0.417768
outer loop
vertex 7.38238 0.485863 21.2467
vertex 397.716 0.311838 20.9683
vertex 397.746 0.360948 21.0751
endloop
endfacet
facet normal 1.11529e-005 -0.796265 0.604948
outer loop
vertex 7.38238 0.485863 21.2467
vertex 397.746 0.360948 21.0751
vertex 7.51241 0.55164 21.3333
endloop
endfacet
facet normal -3.43215e-005 -0.828483 0.560014
outer loop
vertex 7.51241 0.55164 21.3333
vertex 397.746 0.360948 21.0751
vertex 397.83 0.541141 21.3416
endloop
endfacet
facet normal -3.44205e-005 -0.796236 0.604986
outer loop
vertex 7.51241 0.55164 21.3333
vertex 397.83 0.541141 21.3416
vertex 7.99957 0.798063 21.6576
endloop
endfacet
facet normal -9.21089e-005 -0.828475 0.560026
outer loop
vertex 7.99957 0.798063 21.6576
vertex 397.83 0.541141 21.3416
vertex 397.865 0.614972 21.4509
endloop
endfacet
facet normal 0.000120816 -0.624563 0.780974
outer loop
vertex 7.99957 0.798063 21.6576
vertex 397.865 0.614972 21.4509
vertex 8.03708 0.822555 21.6772
endloop
endfacet
facet normal -4.39766e-005 -0.773532 0.633758
outer loop
vertex 8.03708 0.822555 21.6772
vertex 397.865 0.614972 21.4509
vertex 397.881 0.653621 21.4981
endloop
endfacet
facet normal 1.48504e-005 -0.711197 0.702993
outer loop
vertex 8.03708 0.822555 21.6772
vertex 397.881 0.653621 21.4981
vertex 397.945 0.826916 21.6734
endloop
endfacet
facet normal -8.06236e-005 -0.943507 0.331353
outer loop
vertex 397.627 0.168541 20.6566
vertex 6.98841 0.311531 20.9687
vertex 397.611 0.148303 20.599
endloop
endfacet
facet normal -4.6379e-005 -0.932002 0.362453
outer loop
vertex 397.611 0.148303 20.599
vertex 6.98841 0.311531 20.9687
vertex 6.72773 0.232294 20.7649
endloop
endfacet
facet normal -0.00010513 -0.969956 0.243282
outer loop
vertex 397.611 0.148303 20.599
vertex 6.72773 0.232294 20.7649
vertex 397.602 0.13971 20.5647
endloop
endfacet
facet normal 2.2618e-005 -0.873189 0.487382
outer loop
vertex 7.16828 0.377568 21.1041
vertex 7.06063 0.333488 21.0252
vertex 397.716 0.311838 20.9683
endloop
endfacet
facet normal 1.14937e-006 -0.932019 0.362408
outer loop
vertex 397.716 0.311838 20.9683
vertex 7.06063 0.333488 21.0252
vertex 6.98841 0.311531 20.9687
endloop
endfacet
facet normal 1.1947e-006 -0.908562 0.41775
outer loop
vertex 397.716 0.311838 20.9683
vertex 6.98841 0.311531 20.9687
vertex 397.659 0.220328 20.7692
endloop
endfacet
facet normal 1.19209e-006 -0.908564 0.417746
outer loop
vertex 397.659 0.220328 20.7692
vertex 6.98841 0.311531 20.9687
vertex 397.627 0.168541 20.6566
endloop
endfacet
facet normal -3.51047e-005 -0.932008 0.362439
outer loop
vertex 6.72773 0.232294 20.7649
vertex 6.46506 0.152454 20.5596
vertex 397.602 0.13971 20.5647
endloop
endfacet
facet normal -3.51047e-005 -0.932006 0.362442
outer loop
vertex 397.602 0.13971 20.5647
vertex 6.46506 0.152454 20.5596
vertex 6.24733 0.0862663 20.3894
endloop
endfacet
facet normal 2.34739e-005 -0.969961 0.24326
outer loop
vertex 397.602 0.13971 20.5647
vertex 6.24733 0.0862663 20.3894
vertex 397.493 0.0379712 20.159
endloop
endfacet
facet normal -4.94277e-005 -0.99227 0.124101
outer loop
vertex 397.493 0.0379712 20.159
vertex 6.24733 0.0862663 20.3894
vertex 6.07298 0.0681513 20.2445
endloop
endfacet
facet normal -5.88958e-005 -0.996612 0.0822462
outer loop
vertex 397.493 0.0379712 20.159
vertex 6.07298 0.0681513 20.2445
vertex 397.487 0.0362331 20.138
endloop
endfacet
facet normal -4.71567e-005 -0.99227 0.124098
outer loop
vertex 6.07298 0.0681513 20.2445
vertex 5.9419 0.0545301 20.1355
vertex 397.487 0.0362331 20.138
endloop
endfacet
facet normal -4.71567e-005 -0.99227 0.124097
outer loop
vertex 397.487 0.0362331 20.138
vertex 5.9419 0.0545301 20.1355
vertex 5.41809 0.000103078 19.7001
endloop
endfacet
facet normal 0 -0.996613 0.0822319
outer loop
vertex 397.487 0.0362331 20.138
vertex 5.41809 0.000103078 19.7001
vertex 397.373 0.000103078 19.7001
endloop
endfacet
facet normal -0.642568 0.707964 0.293075
outer loop
vertex 9.08585 1.53447 22.1822
vertex 9.34671 1.73624 22.2667
vertex 9.34674 1.84135 22.0129
endloop
endfacet
facet normal -0.430736 0.795186 0.426786
outer loop
vertex 9.0858 2.08263 21.11
vertex 9.01936 2.0553 21.0939
vertex 9.01935 1.76252 21.6394
endloop
endfacet
facet normal -0.550195 0 0.835036
outer loop
vertex 5.41809 0.600103 19.7001
vertex 5.41809 0.598568 19.7001
vertex 5.74547 0.609611 19.9158
endloop
endfacet
facet normal -0.430723 0 0.902484
outer loop
vertex 5.41809 1.2001 19.7001
vertex 5.41809 0.600103 19.7001
vertex 5.74547 1.21407 19.8563
endloop
endfacet
facet normal -0.550008 0.0817587 0.831148
outer loop
vertex 5.74547 1.21407 19.8563
vertex 5.41809 0.600103 19.7001
vertex 5.74547 0.609611 19.9158
endloop
endfacet
facet normal -0.432086 0.0882857 0.897501
outer loop
vertex 5.74547 1.21407 19.8563
vertex 5.74547 0.609611 19.9158
vertex 5.94194 1.22245 19.9501
endloop
endfacet
facet normal -0.550732 0.130412 0.824431
outer loop
vertex 5.94194 1.22245 19.9501
vertex 5.74547 0.609611 19.9158
vertex 6.07286 0.642186 20.1294
endloop
endfacet
facet normal -0.430125 0.176445 0.885358
outer loop
vertex 5.94194 1.22245 19.9501
vertex 6.07286 0.642186 20.1294
vertex 6.01272 1.22547 19.9839
endloop
endfacet
facet normal -0.427545 0.426061 0.797294
outer loop
vertex 6.98844 1.38159 20.4237
vertex 7.05503 0.860813 20.7377
vertex 7.09713 1.39898 20.4727
endloop
endfacet
facet normal -0.550348 0.403109 0.731178
outer loop
vertex 7.09713 1.39898 20.4727
vertex 7.05503 0.860813 20.7377
vertex 7.38241 0.971226 20.9232
endloop
endfacet
facet normal -0.4283 0.504212 0.749887
outer loop
vertex 7.09713 1.39898 20.4727
vertex 7.38241 0.971226 20.9232
vertex 7.38224 1.48532 20.5775
endloop
endfacet
facet normal -0.428256 0.504224 0.749904
outer loop
vertex 7.38224 1.48532 20.5775
vertex 7.38241 0.971226 20.9232
vertex 7.51254 1.52477 20.6254
endloop
endfacet
facet normal -0.55006 0.492322 0.674576
outer loop
vertex 7.51254 1.52477 20.6254
vertex 7.38241 0.971226 20.9232
vertex 7.7098 1.09903 21.0969
endloop
endfacet
facet normal -0.429951 0.573318 0.697458
outer loop
vertex 7.51254 1.52477 20.6254
vertex 7.7098 1.09903 21.0969
vertex 7.70991 1.58453 20.6979
endloop
endfacet
facet normal -0.436038 0.635187 0.637502
outer loop
vertex 8.03752 1.68373 20.8183
vertex 8.03719 1.24338 21.2568
vertex 8.03775 1.6838 20.8184
endloop
endfacet
facet normal -0.549163 0.589955 0.591924
outer loop
vertex 8.03775 1.6838 20.8184
vertex 8.03719 1.24338 21.2568
vertex 8.36457 1.40328 21.4012
endloop
endfacet
facet normal -0.423273 0.700525 0.574547
outer loop
vertex 8.03775 1.6838 20.8184
vertex 8.36457 1.40328 21.4012
vertex 8.33461 1.77369 20.9275
endloop
endfacet
facet normal -0.42692 0.69906 0.573632
outer loop
vertex 8.33461 1.77369 20.9275
vertex 8.36457 1.40328 21.4012
vertex 8.56167 1.86707 20.9827
endloop
endfacet
facet normal -0.550054 0.676114 0.490214
outer loop
vertex 8.56167 1.86707 20.9827
vertex 8.36457 1.40328 21.4012
vertex 8.69197 1.57697 21.529
endloop
endfacet
facet normal -0.430489 0.750613 0.501257
outer loop
vertex 8.56167 1.86707 20.9827
vertex 8.69197 1.57697 21.529
vertex 8.69173 1.92056 21.0143
endloop
endfacet
facet normal -0.430554 0.864008 0.260987
outer loop
vertex 9.42013 2.22012 21.1913
vertex 9.67413 2.16139 21.8047
vertex 9.60922 2.30723 21.2149
endloop
endfacet
facet normal -0.550162 0.794535 0.256972
outer loop
vertex 9.60922 2.30723 21.2149
vertex 9.67413 2.16139 21.8047
vertex 10.0015 2.37085 21.858
endloop
endfacet
facet normal -0.431214 0.885022 0.175471
outer loop
vertex 9.60922 2.30723 21.2149
vertex 10.0015 2.37085 21.858
vertex 10.0016 2.49291 21.2425
endloop
endfacet
facet normal -0.430798 0.885217 0.17551
outer loop
vertex 10.0016 2.49291 21.2425
vertex 10.0015 2.37085 21.858
vertex 10.1329 2.55455 21.254
endloop
endfacet
facet normal -0.55073 0.824354 0.130908
outer loop
vertex 10.1329 2.55455 21.254
vertex 10.0015 2.37085 21.858
vertex 10.3289 2.5844 21.8906
endloop
endfacet
facet normal -0.429504 0.898559 0.090103
outer loop
vertex 10.1329 2.55455 21.254
vertex 10.3289 2.5844 21.8906
vertex 10.3292 2.64664 21.2713
endloop
endfacet
facet normal -0.641791 0.751764 0.151511
outer loop
vertex 10.0015 2.3114 22.1569
vertex 10.1326 2.36522 22.4451
vertex 10.5629 2.72171 22.499
endloop
endfacet
facet normal -0.642562 0.707969 0.293077
outer loop
vertex 9.34671 1.73624 22.2667
vertex 9.6093 1.93935 22.3518
vertex 9.34674 1.84135 22.0129
endloop
endfacet
facet normal -0.642568 0.707961 0.293083
outer loop
vertex 9.34674 1.84135 22.0129
vertex 9.6093 1.93935 22.3518
vertex 9.74861 2.04711 22.397
endloop
endfacet
facet normal -0.600295 0.770198 0.215502
outer loop
vertex 9.34674 1.84135 22.0129
vertex 9.74861 2.04711 22.397
vertex 10.0015 2.3114 22.1569
endloop
endfacet
facet normal -0.641784 0.751769 0.151514
outer loop
vertex 10.0015 2.3114 22.1569
vertex 9.74861 2.04711 22.397
vertex 10.0015 2.25658 22.4286
endloop
endfacet
facet normal -0.641792 0.751762 0.151512
outer loop
vertex 10.0015 2.3114 22.1569
vertex 10.0015 2.25658 22.4286
vertex 10.1326 2.36522 22.4451
endloop
endfacet
facet normal -0.641151 0.616442 0.457082
outer loop
vertex 8.81654 1.33152 22.0841
vertex 8.9201 1.40626 22.1285
vertex 8.69204 1.25022 22.0191
endloop
endfacet
facet normal -0.641165 0.639053 0.424874
outer loop
vertex 8.69204 1.25022 22.0191
vertex 8.9201 1.40626 22.1285
vertex 8.69197 1.40759 21.7823
endloop
endfacet
facet normal -0.63992 0.639919 0.425449
outer loop
vertex 8.69204 1.25022 22.0191
vertex 8.69197 1.40759 21.7823
vertex 8.5621 1.16537 21.9512
endloop
endfacet
facet normal -0.598635 0.648756 0.469843
outer loop
vertex 8.5621 1.16537 21.9512
vertex 8.69197 1.40759 21.7823
vertex 8.03719 1.0278 21.4724
endloop
endfacet
facet normal -0.639001 0.543485 0.544337
outer loop
vertex 8.5621 1.16537 21.9512
vertex 8.03719 1.0278 21.4724
vertex 8.03708 0.822555 21.6772
endloop
endfacet
facet normal -0.639049 0.543456 0.544309
outer loop
vertex 8.03708 0.822555 21.6772
vertex 8.03719 1.0278 21.4724
vertex 7.99957 0.798063 21.6576
endloop
endfacet
facet normal -0.638024 0.5439 0.545067
outer loop
vertex 7.99957 0.798063 21.6576
vertex 8.03719 1.0278 21.4724
vertex 7.51241 0.55164 21.3333
endloop
endfacet
facet normal -0.598643 0.470296 0.64842
outer loop
vertex 7.51241 0.55164 21.3333
vertex 8.03719 1.0278 21.4724
vertex 7.38241 0.717956 21.0926
endloop
endfacet
facet normal -0.640719 0.424685 0.639626
outer loop
vertex 7.51241 0.55164 21.3333
vertex 7.38241 0.717956 21.0926
vertex 7.38238 0.485863 21.2467
endloop
endfacet
facet normal -0.641198 0.441758 0.627466
outer loop
vertex 7.16828 0.377568 21.1041
vertex 7.38238 0.485863 21.2467
vertex 7.06063 0.333488 21.0252
endloop
endfacet
facet normal -0.64117 0.424477 0.639313
outer loop
vertex 7.06063 0.333488 21.0252
vertex 7.38238 0.485863 21.2467
vertex 7.38241 0.717956 21.0926
endloop
endfacet
facet normal -0.635046 0.417487 0.649939
outer loop
vertex 7.06063 0.333488 21.0252
vertex 7.38241 0.717956 21.0926
vertex 6.98841 0.311531 20.9687
endloop
endfacet
facet normal -0.600108 0.364716 0.711936
outer loop
vertex 6.98841 0.311531 20.9687
vertex 7.38241 0.717956 21.0926
vertex 6.72764 0.487288 20.6589
endloop
endfacet
facet normal -0.64253 0.29409 0.707578
outer loop
vertex 6.98841 0.311531 20.9687
vertex 6.72764 0.487288 20.6589
vertex 6.72773 0.232294 20.7649
endloop
endfacet
facet normal -0.642529 0.29409 0.707578
outer loop
vertex 6.72773 0.232294 20.7649
vertex 6.72764 0.487288 20.6589
vertex 6.46506 0.152454 20.5596
endloop
endfacet
facet normal -0.641077 0.151869 0.752301
outer loop
vertex 6.07286 0.343349 20.1888
vertex 6.07298 0.0681513 20.2445
vertex 6.24733 0.0862663 20.3894
endloop
endfacet
facet normal -0.641101 0.151865 0.752281
outer loop
vertex 6.07298 0.0681513 20.2445
vertex 6.07286 0.343349 20.1888
vertex 5.9419 0.0545301 20.1355
endloop
endfacet
facet normal -0.599489 0.125958 0.79041
outer loop
vertex 5.9419 0.0545301 20.1355
vertex 6.07286 0.343349 20.1888
vertex 5.41809 0.293692 19.7001
endloop
endfacet
facet normal -0.639222 0 0.769022
outer loop
vertex 5.9419 0.0545301 20.1355
vertex 5.41809 0.293692 19.7001
vertex 5.41809 0.000103078 19.7001
endloop
endfacet
facet normal -0.598134 0.801396 0
outer loop
vertex 10.6563 2.8001 21.9016
vertex 10.0015 2.3114 22.1569
vertex 10.6563 2.8001 22.2065
endloop
endfacet
facet normal -0.599104 0.800334 0.0232268
outer loop
vertex 10.6563 2.8001 22.2065
vertex 10.0015 2.3114 22.1569
vertex 10.5629 2.72171 22.499
endloop
endfacet
facet normal -0.642951 0.765907 0
outer loop
vertex 10.6563 2.8001 22.2065
vertex 10.5629 2.72171 22.499
vertex 10.6563 2.8001 22.5001
endloop
endfacet
facet normal -0.550889 0.777804 0.302559
outer loop
vertex 9.42013 2.22012 21.1913
vertex 9.34674 1.95797 21.7316
vertex 9.67413 2.16139 21.8047
endloop
endfacet
facet normal -0.550578 0.77115 0.319674
outer loop
vertex 9.67413 2.16139 21.8047
vertex 9.34674 1.95797 21.7316
vertex 9.34674 1.84135 22.0129
endloop
endfacet
facet normal -0.54655 0.771279 0.326207
outer loop
vertex 9.67413 2.16139 21.8047
vertex 9.34674 1.84135 22.0129
vertex 10.0015 2.37085 21.858
endloop
endfacet
facet normal -0.598455 0.785761 0.156305
outer loop
vertex 10.0015 2.37085 21.858
vertex 9.34674 1.84135 22.0129
vertex 10.0015 2.3114 22.1569
endloop
endfacet
facet normal -0.550349 0.818891 0.162895
outer loop
vertex 10.0015 2.37085 21.858
vertex 10.0015 2.3114 22.1569
vertex 10.3289 2.5844 21.8906
endloop
endfacet
facet normal -0.546215 0.820327 0.16945
outer loop
vertex 10.3289 2.5844 21.8906
vertex 10.0015 2.3114 22.1569
vertex 10.6563 2.8001 21.9016
endloop
endfacet
facet normal -0.550239 0.830848 0.0832397
outer loop
vertex 10.3289 2.5844 21.8906
vertex 10.6563 2.8001 21.9016
vertex 10.3292 2.64664 21.2713
endloop
endfacet
facet normal -0.424761 0.905306 0
outer loop
vertex 10.3292 2.64664 21.2713
vertex 10.6563 2.8001 21.9016
vertex 10.6563 2.8001 21.9001
endloop
endfacet
facet normal -0.424761 0.905306 0
outer loop
vertex 10.3292 2.64664 21.2713
vertex 10.6563 2.8001 21.9001
vertex 10.6563 2.8001 21.3001
endloop
endfacet
facet normal -0.427608 0.83474 0.346929
outer loop
vertex 9.42013 2.22012 21.1913
vertex 9.0858 2.08263 21.11
vertex 9.34674 1.95797 21.7316
endloop
endfacet
facet normal -0.550691 0.743084 0.380218
outer loop
vertex 9.34674 1.95797 21.7316
vertex 9.0858 2.08263 21.11
vertex 9.01935 1.76252 21.6394
endloop
endfacet
facet normal -0.550451 0.771227 0.319706
outer loop
vertex 9.34674 1.95797 21.7316
vertex 9.01935 1.76252 21.6394
vertex 9.34674 1.84135 22.0129
endloop
endfacet
facet normal -0.600152 0.705383 0.377164
outer loop
vertex 9.34674 1.84135 22.0129
vertex 9.01935 1.76252 21.6394
vertex 8.69197 1.40759 21.7823
endloop
endfacet
facet normal -0.600112 0.711674 0.365221
outer loop
vertex 9.34674 1.84135 22.0129
vertex 8.69197 1.40759 21.7823
vertex 9.08585 1.53447 22.1822
endloop
endfacet
facet normal -0.636298 0.645986 0.421694
outer loop
vertex 9.08585 1.53447 22.1822
vertex 8.69197 1.40759 21.7823
vertex 8.9201 1.40626 22.1285
endloop
endfacet
facet normal -0.43074 0.795184 0.426785
outer loop
vertex 9.01936 2.0553 21.0939
vertex 8.69173 1.92056 21.0143
vertex 9.01935 1.76252 21.6394
endloop
endfacet
facet normal -0.550034 0.694485 0.463846
outer loop
vertex 9.01935 1.76252 21.6394
vertex 8.69173 1.92056 21.0143
vertex 8.69197 1.57697 21.529
endloop
endfacet
facet normal -0.550021 0.694207 0.464277
outer loop
vertex 9.01935 1.76252 21.6394
vertex 8.69197 1.57697 21.529
vertex 8.69197 1.40759 21.7823
endloop
endfacet
facet normal -0.549677 0.694395 0.464403
outer loop
vertex 8.69197 1.40759 21.7823
vertex 8.69197 1.57697 21.529
vertex 8.36457 1.40328 21.4012
endloop
endfacet
facet normal -0.599269 0.61883 0.507864
outer loop
vertex 8.69197 1.40759 21.7823
vertex 8.36457 1.40328 21.4012
vertex 8.03719 1.0278 21.4724
endloop
endfacet
facet normal -0.549196 0.590927 0.590923
outer loop
vertex 8.03719 1.0278 21.4724
vertex 8.36457 1.40328 21.4012
vertex 8.03719 1.24338 21.2568
endloop
endfacet
facet normal -0.597298 0.567115 0.567111
outer loop
vertex 8.03719 1.0278 21.4724
vertex 8.03719 1.24338 21.2568
vertex 7.38241 0.717956 21.0926
endloop
endfacet
facet normal -0.428362 0.63778 0.640112
outer loop
vertex 8.03752 1.68373 20.8183
vertex 7.70991 1.58453 20.6979
vertex 8.03719 1.24338 21.2568
endloop
endfacet
facet normal -0.549265 0.530663 0.645527
outer loop
vertex 8.03719 1.24338 21.2568
vertex 7.70991 1.58453 20.6979
vertex 7.7098 1.09903 21.0969
endloop
endfacet
facet normal -0.545179 0.460467 0.700536
outer loop
vertex 8.03719 1.24338 21.2568
vertex 7.7098 1.09903 21.0969
vertex 7.38241 0.717956 21.0926
endloop
endfacet
facet normal -0.549677 0.4644 0.694398
outer loop
vertex 7.38241 0.717956 21.0926
vertex 7.7098 1.09903 21.0969
vertex 7.38241 0.971226 20.9232
endloop
endfacet
facet normal -0.598202 0.445481 0.666109
outer loop
vertex 7.38241 0.717956 21.0926
vertex 7.38241 0.971226 20.9232
vertex 6.72764 0.487288 20.6589
endloop
endfacet
facet normal -0.546141 0.314863 0.776268
outer loop
vertex 6.72764 0.487288 20.6589
vertex 7.38241 0.971226 20.9232
vertex 7.05503 0.860813 20.7377
endloop
endfacet
facet normal -0.55045 0.319703 0.771229
outer loop
vertex 6.72764 0.487288 20.6589
vertex 7.05503 0.860813 20.7377
vertex 6.72764 0.768616 20.5422
endloop
endfacet
facet normal -0.550721 0.378224 0.744079
outer loop
vertex 6.72764 0.768616 20.5422
vertex 7.05503 0.860813 20.7377
vertex 6.98844 1.38159 20.4237
endloop
endfacet
facet normal -0.431015 0.34467 0.833923
outer loop
vertex 6.72764 0.768616 20.5422
vertex 6.98844 1.38159 20.4237
vertex 6.72776 1.33988 20.3062
endloop
endfacet
facet normal -0.432763 0.344351 0.83315
outer loop
vertex 6.72776 1.33988 20.3062
vertex 6.46512 1.28813 20.1912
vertex 6.72764 0.768616 20.5422
endloop
endfacet
facet normal -0.55085 0.258032 0.793715
outer loop
vertex 6.72764 0.768616 20.5422
vertex 6.46512 1.28813 20.1912
vertex 6.40026 0.695464 20.3388
endloop
endfacet
facet normal -0.550595 0.319667 0.771141
outer loop
vertex 6.72764 0.768616 20.5422
vertex 6.40026 0.695464 20.3388
vertex 6.72764 0.487288 20.6589
endloop
endfacet
facet normal -0.600407 0.232243 0.765229
outer loop
vertex 6.72764 0.487288 20.6589
vertex 6.40026 0.695464 20.3388
vertex 6.07286 0.343349 20.1888
endloop
endfacet
facet normal -0.600368 0.245121 0.761232
outer loop
vertex 6.72764 0.487288 20.6589
vertex 6.07286 0.343349 20.1888
vertex 6.46506 0.152454 20.5596
endloop
endfacet
facet normal -0.637373 0.156151 0.754568
outer loop
vertex 6.46506 0.152454 20.5596
vertex 6.07286 0.343349 20.1888
vertex 6.24733 0.0862663 20.3894
endloop
endfacet
facet normal -0.550195 0 0.835036
outer loop
vertex 5.41809 0.598568 19.7001
vertex 5.41809 0.293692 19.7001
vertex 5.74547 0.609611 19.9158
endloop
endfacet
facet normal -0.600106 0.0783221 0.796077
outer loop
vertex 5.74547 0.609611 19.9158
vertex 5.41809 0.293692 19.7001
vertex 6.07286 0.343349 20.1888
endloop
endfacet
facet normal -0.550349 0.162893 0.81889
outer loop
vertex 5.74547 0.609611 19.9158
vertex 6.07286 0.343349 20.1888
vertex 6.07286 0.642186 20.1294
endloop
endfacet
facet normal -0.55039 0.162888 0.818864
outer loop
vertex 6.07286 0.642186 20.1294
vertex 6.07286 0.343349 20.1888
vertex 6.40026 0.695464 20.3388
endloop
endfacet
facet normal -0.549966 0.148268 0.821921
outer loop
vertex 6.07286 0.642186 20.1294
vertex 6.40026 0.695464 20.3388
vertex 6.01272 1.22547 19.9839
endloop
endfacet
facet normal -0.431718 0.262264 0.863039
outer loop
vertex 6.01272 1.22547 19.9839
vertex 6.40026 0.695464 20.3388
vertex 6.46512 1.28813 20.1912
endloop
endfacet
facet normal 0 1 0
outer loop
vertex 0.000104308 1.2001 0.000102445
vertex 0.000104308 1.2001 16.442
vertex 5.41809 1.2001 19.7001
endloop
endfacet
facet normal 0 1 0
outer loop
vertex 106.866 1.2001 15.8549
vertex 106.147 1.2001 15.6006
vertex 5.41809 1.2001 19.7001
endloop
endfacet
facet normal 0 1 0
outer loop
vertex 5.41809 1.2001 19.7001
vertex 106.147 1.2001 15.6006
vertex 105.48 1.2001 15.2284
endloop
endfacet
facet normal 0 1 0
outer loop
vertex 5.41809 1.2001 19.7001
vertex 105.48 1.2001 15.2284
vertex 104.886 1.2001 14.7489
endloop
endfacet
facet normal 0 1 0
outer loop
vertex 104.886 1.2001 14.7489
vertex 104.382 1.2001 14.176
vertex 5.41809 1.2001 19.7001
endloop
endfacet
facet normal 0 1 0
outer loop
vertex 5.41809 1.2001 19.7001
vertex 104.382 1.2001 14.176
vertex 103.982 1.2001 13.526
endloop
endfacet
facet normal 0 1 0
outer loop
vertex 5.41809 1.2001 19.7001
vertex 103.982 1.2001 13.526
vertex 103.697 1.2001 12.8178
endloop
endfacet
facet normal 0 1 0
outer loop
vertex 103.697 1.2001 12.8178
vertex 103.537 1.2001 12.0717
vertex 5.41809 1.2001 19.7001
endloop
endfacet
facet normal 0 1 0
outer loop
vertex 5.41809 1.2001 19.7001
vertex 103.537 1.2001 12.0717
vertex 103.504 1.2001 11.3091
endloop
endfacet
facet normal 0 1 0
outer loop
vertex 5.41809 1.2001 19.7001
vertex 103.504 1.2001 11.3091
vertex 0.000104308 1.2001 0.000102445
endloop
endfacet
facet normal 0 1 0
outer loop
vertex 0.000104308 1.2001 0.000102445
vertex 103.504 1.2001 11.3091
vertex 103.601 1.2001 10.552
endloop
endfacet
facet normal 0 1 0
outer loop
vertex 0.000104308 1.2001 0.000102445
vertex 103.601 1.2001 10.552
vertex 103.825 1.2001 9.82225
endloop
endfacet
facet normal 0 1 0
outer loop
vertex 112.464 1.2001 12.0717
vertex 112.303 1.2001 12.8178
vertex 397.373 1.2001 19.7001
endloop
endfacet
facet normal 0 1 0
outer loop
vertex 111.114 1.2001 14.7489
vertex 110.52 1.2001 15.2284
vertex 397.373 1.2001 19.7001
endloop
endfacet
facet normal 0 1 0
outer loop
vertex 397.373 1.2001 19.7001
vertex 110.52 1.2001 15.2284
vertex 109.854 1.2001 15.6006
endloop
endfacet
facet normal 0 1 0
outer loop
vertex 109.854 1.2001 15.6006
vertex 109.134 1.2001 15.8549
vertex 397.373 1.2001 19.7001
endloop
endfacet
facet normal 0 1 0
outer loop
vertex 397.373 1.2001 19.7001
vertex 109.134 1.2001 15.8549
vertex 108.382 1.2001 15.9839
endloop
endfacet
facet normal 0 1 0
outer loop
vertex 397.373 1.2001 19.7001
vertex 108.382 1.2001 15.9839
vertex 5.41809 1.2001 19.7001
endloop
endfacet
facet normal 0 1 0
outer loop
vertex 5.41809 1.2001 19.7001
vertex 108.382 1.2001 15.9839
vertex 107.618 1.2001 15.9839
endloop
endfacet
facet normal 0 1 0
outer loop
vertex 5.41809 1.2001 19.7001
vertex 107.618 1.2001 15.9839
vertex 106.866 1.2001 15.8549
endloop
endfacet
facet normal 0 1 0
outer loop
vertex 110.827 1.2001 7.99894
vertex 390.219 1.2001 0.000102445
vertex 110.195 1.2001 7.57154
endloop
endfacet
facet normal 0 1 0
outer loop
vertex 110.195 1.2001 7.57154
vertex 390.219 1.2001 0.000102445
vertex 109.499 1.2001 7.25715
endloop
endfacet
facet normal 0 1 0
outer loop
vertex 397.373 1.2001 19.7001
vertex 111.832 1.2001 9.14072
vertex 112.176 1.2001 9.82225
endloop
endfacet
facet normal 0 1 0
outer loop
vertex 112.303 1.2001 12.8178
vertex 112.018 1.2001 13.526
vertex 397.373 1.2001 19.7001
endloop
endfacet
facet normal 0 1 0
outer loop
vertex 397.373 1.2001 19.7001
vertex 112.018 1.2001 13.526
vertex 111.618 1.2001 14.176
endloop
endfacet
facet normal 0 1 0
outer loop
vertex 397.373 1.2001 19.7001
vertex 111.618 1.2001 14.176
vertex 111.114 1.2001 14.7489
endloop
endfacet
facet normal 0 1 0
outer loop
vertex 105.173 1.2001 7.99894
vertex 105.805 1.2001 7.57154
vertex 0.000104308 1.2001 0.000102445
endloop
endfacet
facet normal 0 1 0
outer loop
vertex 0.000104308 1.2001 0.000102445
vertex 105.805 1.2001 7.57154
vertex 106.501 1.2001 7.25715
endloop
endfacet
facet normal 0 1 0
outer loop
vertex 112.176 1.2001 9.82225
vertex 112.399 1.2001 10.552
vertex 397.373 1.2001 19.7001
endloop
endfacet
facet normal 0 1 0
outer loop
vertex 397.373 1.2001 19.7001
vertex 112.399 1.2001 10.552
vertex 112.496 1.2001 11.3091
endloop
endfacet
facet normal 0 1 0
outer loop
vertex 397.373 1.2001 19.7001
vertex 112.496 1.2001 11.3091
vertex 112.464 1.2001 12.0717
endloop
endfacet
facet normal 0 1 0
outer loop
vertex 103.825 1.2001 9.82225
vertex 104.168 1.2001 9.14072
vertex 0.000104308 1.2001 0.000102445
endloop
endfacet
facet normal 0 1 0
outer loop
vertex 0.000104308 1.2001 0.000102445
vertex 104.168 1.2001 9.14072
vertex 104.622 1.2001 8.52707
endloop
endfacet
facet normal 0 1 0
outer loop
vertex 0.000104308 1.2001 0.000102445
vertex 104.622 1.2001 8.52707
vertex 105.173 1.2001 7.99894
endloop
endfacet
facet normal 0 1 0
outer loop
vertex 106.501 1.2001 7.25715
vertex 107.24 1.2001 7.06483
vertex 0.000104308 1.2001 0.000102445
endloop
endfacet
facet normal 0 1 0
outer loop
vertex 0.000104308 1.2001 0.000102445
vertex 107.24 1.2001 7.06483
vertex 108 1.2001 7.0001
endloop
endfacet
facet normal 0 1 0
outer loop
vertex 0.000104308 1.2001 0.000102445
vertex 108 1.2001 7.0001
vertex 390.219 1.2001 0.000102445
endloop
endfacet
facet normal 0 1 0
outer loop
vertex 390.219 1.2001 0.000102445
vertex 108 1.2001 7.0001
vertex 108.761 1.2001 7.06483
endloop
endfacet
facet normal 0 1 0
outer loop
vertex 390.219 1.2001 0.000102445
vertex 108.761 1.2001 7.06483
vertex 109.499 1.2001 7.25715
endloop
endfacet
facet normal 0 1 0
outer loop
vertex 333.015 1.2001 11.1285
vertex 110.827 1.2001 7.99894
vertex 333.015 1.2001 11.8717
endloop
endfacet
facet normal 0 1 0
outer loop
vertex 333.015 1.2001 11.8717
vertex 110.827 1.2001 7.99894
vertex 111.378 1.2001 8.52707
endloop
endfacet
facet normal 0 1 0
outer loop
vertex 333.015 1.2001 11.8717
vertex 111.378 1.2001 8.52707
vertex 333.138 1.2001 12.6048
endloop
endfacet
facet normal 0 1 0
outer loop
vertex 352.862 1.2001 10.3954
vertex 352.985 1.2001 11.1285
vertex 390.219 1.2001 0.000102445
endloop
endfacet
facet normal 0 1 0
outer loop
vertex 111.378 1.2001 8.52707
vertex 336.759 1.2001 15.9387
vertex 336.039 1.2001 15.7563
endloop
endfacet
facet normal 0 1 0
outer loop
vertex 390.219 1.2001 0.000102445
vertex 352.985 1.2001 11.1285
vertex 397.373 1.2001 19.7001
endloop
endfacet
facet normal 0 1 0
outer loop
vertex 111.832 1.2001 9.14072
vertex 397.373 1.2001 19.7001
vertex 111.378 1.2001 8.52707
endloop
endfacet
facet normal 0 1 0
outer loop
vertex 111.378 1.2001 8.52707
vertex 397.373 1.2001 19.7001
vertex 337.5 1.2001 16.0001
endloop
endfacet
facet normal 0 1 0
outer loop
vertex 111.378 1.2001 8.52707
vertex 337.5 1.2001 16.0001
vertex 336.759 1.2001 15.9387
endloop
endfacet
facet normal 0 1 0
outer loop
vertex 336.039 1.2001 15.7563
vertex 335.358 1.2001 15.4577
vertex 111.378 1.2001 8.52707
endloop
endfacet
facet normal 0 1 0
outer loop
vertex 111.378 1.2001 8.52707
vertex 335.358 1.2001 15.4577
vertex 334.736 1.2001 15.0512
endloop
endfacet
facet normal 0 1 0
outer loop
vertex 111.378 1.2001 8.52707
vertex 334.736 1.2001 15.0512
vertex 334.189 1.2001 14.5479
endloop
endfacet
facet normal 0 1 0
outer loop
vertex 334.189 1.2001 14.5479
vertex 333.733 1.2001 13.9614
vertex 111.378 1.2001 8.52707
endloop
endfacet
facet normal 0 1 0
outer loop
vertex 111.378 1.2001 8.52707
vertex 333.733 1.2001 13.9614
vertex 333.379 1.2001 13.3077
endloop
endfacet
facet normal 0 1 0
outer loop
vertex 111.378 1.2001 8.52707
vertex 333.379 1.2001 13.3077
vertex 333.138 1.2001 12.6048
endloop
endfacet
facet normal 0 1 0
outer loop
vertex 350.642 1.2001 7.54247
vertex 351.264 1.2001 7.94897
vertex 390.219 1.2001 0.000102445
endloop
endfacet
facet normal 0 1 0
outer loop
vertex 390.219 1.2001 0.000102445
vertex 351.264 1.2001 7.94897
vertex 351.811 1.2001 8.45234
endloop
endfacet
facet normal 0 1 0
outer loop
vertex 351.811 1.2001 8.45234
vertex 352.267 1.2001 9.03884
vertex 390.219 1.2001 0.000102445
endloop
endfacet
facet normal 0 1 0
outer loop
vertex 390.219 1.2001 0.000102445
vertex 352.267 1.2001 9.03884
vertex 352.621 1.2001 9.69247
endloop
endfacet
facet normal 0 1 0
outer loop
vertex 390.219 1.2001 0.000102445
vertex 352.621 1.2001 9.69247
vertex 352.862 1.2001 10.3954
endloop
endfacet
facet normal 0 1 0
outer loop
vertex 352.985 1.2001 11.1285
vertex 352.985 1.2001 11.8717
vertex 397.373 1.2001 19.7001
endloop
endfacet
facet normal 0 1 0
outer loop
vertex 397.373 1.2001 19.7001
vertex 352.985 1.2001 11.8717
vertex 352.862 1.2001 12.6048
endloop
endfacet
facet normal 0 1 0
outer loop
vertex 397.373 1.2001 19.7001
vertex 352.862 1.2001 12.6048
vertex 352.621 1.2001 13.3077
endloop
endfacet
facet normal 0 1 0
outer loop
vertex 351.264 1.2001 15.0512
vertex 350.642 1.2001 15.4577
vertex 397.373 1.2001 19.7001
endloop
endfacet
facet normal 0 1 0
outer loop
vertex 397.373 1.2001 19.7001
vertex 350.642 1.2001 15.4577
vertex 349.961 1.2001 15.7563
endloop
endfacet
facet normal 0 1 0
outer loop
vertex 349.961 1.2001 15.7563
vertex 349.241 1.2001 15.9387
vertex 397.373 1.2001 19.7001
endloop
endfacet
facet normal 0 1 0
outer loop
vertex 397.373 1.2001 19.7001
vertex 349.241 1.2001 15.9387
vertex 348.5 1.2001 16.0001
endloop
endfacet
facet normal 0 1 0
outer loop
vertex 397.373 1.2001 19.7001
vertex 348.5 1.2001 16.0001
vertex 337.5 1.2001 16.0001
endloop
endfacet
facet normal 0 1 0
outer loop
vertex 333.015 1.2001 11.1285
vertex 333.138 1.2001 10.3954
vertex 110.827 1.2001 7.99894
endloop
endfacet
facet normal 0 1 0
outer loop
vertex 110.827 1.2001 7.99894
vertex 333.138 1.2001 10.3954
vertex 333.379 1.2001 9.69247
endloop
endfacet
facet normal 0 1 0
outer loop
vertex 110.827 1.2001 7.99894
vertex 333.379 1.2001 9.69247
vertex 333.733 1.2001 9.03884
endloop
endfacet
facet normal 0 1 0
outer loop
vertex 333.733 1.2001 9.03884
vertex 334.189 1.2001 8.45234
vertex 110.827 1.2001 7.99894
endloop
endfacet
facet normal 0 1 0
outer loop
vertex 110.827 1.2001 7.99894
vertex 334.189 1.2001 8.45234
vertex 334.736 1.2001 7.94897
endloop
endfacet
facet normal 0 1 0
outer loop
vertex 110.827 1.2001 7.99894
vertex 334.736 1.2001 7.94897
vertex 335.358 1.2001 7.54247
endloop
endfacet
facet normal 0 1 0
outer loop
vertex 348.5 1.2001 7.0001
vertex 349.241 1.2001 7.06148
vertex 390.219 1.2001 0.000102445
endloop
endfacet
facet normal 0 1 0
outer loop
vertex 390.219 1.2001 0.000102445
vertex 349.241 1.2001 7.06148
vertex 349.961 1.2001 7.24393
endloop
endfacet
facet normal 0 1 0
outer loop
vertex 390.219 1.2001 0.000102445
vertex 349.961 1.2001 7.24393
vertex 350.642 1.2001 7.54247
endloop
endfacet
facet normal 0 1 0
outer loop
vertex 352.621 1.2001 13.3077
vertex 352.267 1.2001 13.9614
vertex 397.373 1.2001 19.7001
endloop
endfacet
facet normal 0 1 0
outer loop
vertex 397.373 1.2001 19.7001
vertex 352.267 1.2001 13.9614
vertex 351.811 1.2001 14.5479
endloop
endfacet
facet normal 0 1 0
outer loop
vertex 397.373 1.2001 19.7001
vertex 351.811 1.2001 14.5479
vertex 351.264 1.2001 15.0512
endloop
endfacet
facet normal 0 1 0
outer loop
vertex 335.358 1.2001 7.54247
vertex 336.039 1.2001 7.24393
vertex 110.827 1.2001 7.99894
endloop
endfacet
facet normal 0 1 0
outer loop
vertex 110.827 1.2001 7.99894
vertex 336.039 1.2001 7.24393
vertex 336.759 1.2001 7.06148
endloop
endfacet
facet normal 0 1 0
outer loop
vertex 110.827 1.2001 7.99894
vertex 336.759 1.2001 7.06148
vertex 390.219 1.2001 0.000102445
endloop
endfacet
facet normal 0 1 0
outer loop
vertex 390.219 1.2001 0.000102445
vertex 336.759 1.2001 7.06148
vertex 337.5 1.2001 7.0001
endloop
endfacet
facet normal 0 1 0
outer loop
vertex 390.219 1.2001 0.000102445
vertex 337.5 1.2001 7.0001
vertex 348.5 1.2001 7.0001
endloop
endfacet
facet normal 0.909451 -0.294074 -0.293972
outer loop
vertex 397.911 1.6168 20.777
vertex 397.945 1.672 20.8279
vertex 397.945 1.45871 21.0415
endloop
endfacet
facet normal 0.966976 -0.0965454 -0.235873
outer loop
vertex 397.611 0.148303 20.599
vertex 397.602 0.13971 20.5647
vertex 397.659 0.768571 20.5423
endloop
endfacet
facet normal 0.967536 0 -0.252733
outer loop
vertex 397.373 0.000103078 19.7001
vertex 397.373 0.59852 19.7001
vertex 397.487 0.0362331 20.138
endloop
endfacet
facet normal 0.94874 -0.0500331 -0.312072
outer loop
vertex 397.487 0.0362331 20.138
vertex 397.373 0.59852 19.7001
vertex 397.659 0.768571 20.5423
endloop
endfacet
facet normal 0.96513 -0.0905639 -0.245608
outer loop
vertex 397.487 0.0362331 20.138
vertex 397.659 0.768571 20.5423
vertex 397.493 0.0379712 20.159
endloop
endfacet
facet normal 0.967164 -0.0965351 -0.235105
outer loop
vertex 397.493 0.0379712 20.159
vertex 397.659 0.768571 20.5423
vertex 397.602 0.13971 20.5647
endloop
endfacet
facet normal 0.967812 -0.093467 -0.233674
outer loop
vertex 397.627 0.168541 20.6566
vertex 397.611 0.148303 20.599
vertex 397.659 0.220328 20.7692
endloop
endfacet
facet normal 0.967822 -0.0963006 -0.232478
outer loop
vertex 397.659 0.220328 20.7692
vertex 397.611 0.148303 20.599
vertex 397.659 0.768571 20.5423
endloop
endfacet
facet normal 0.967787 -0.0963533 -0.232605
outer loop
vertex 397.659 0.220328 20.7692
vertex 397.659 0.768571 20.5423
vertex 397.716 0.311838 20.9683
endloop
endfacet
facet normal 0.948095 -0.14555 -0.282721
outer loop
vertex 397.716 0.311838 20.9683
vertex 397.659 0.768571 20.5423
vertex 397.945 1.24335 21.2569
endloop
endfacet
facet normal 0.967482 -0.168299 -0.188821
outer loop
vertex 397.881 0.653621 21.4981
vertex 397.865 0.614972 21.4509
vertex 397.945 0.826916 21.6734
endloop
endfacet
facet normal 0.967393 -0.162805 -0.194022
outer loop
vertex 397.945 0.826916 21.6734
vertex 397.865 0.614972 21.4509
vertex 397.83 0.541141 21.3416
endloop
endfacet
facet normal 0.967226 -0.179562 -0.179529
outer loop
vertex 397.945 0.826916 21.6734
vertex 397.83 0.541141 21.3416
vertex 397.945 1.24335 21.2569
endloop
endfacet
facet normal 0.966616 -0.179825 -0.182531
outer loop
vertex 397.945 1.24335 21.2569
vertex 397.83 0.541141 21.3416
vertex 397.746 0.360948 21.0751
endloop
endfacet
facet normal 0.96475 -0.17686 -0.194881
outer loop
vertex 397.945 1.24335 21.2569
vertex 397.746 0.360948 21.0751
vertex 397.716 0.311838 20.9683
endloop
endfacet
facet normal 0.967752 -0.23275 -0.0963527
outer loop
vertex 398.231 1.95795 21.7316
vertex 398.231 1.73044 22.2812
vertex 398.174 1.5325 22.1874
endloop
endfacet
facet normal 0.967393 -0.189983 -0.167506
outer loop
vertex 398.001 0.977386 21.8256
vertex 397.945 0.826916 21.6734
vertex 398.06 1.15971 21.9579
endloop
endfacet
facet normal 0.967211 -0.179604 -0.179571
outer loop
vertex 398.06 1.15971 21.9579
vertex 397.945 0.826916 21.6734
vertex 397.945 1.24335 21.2569
endloop
endfacet
facet normal 0.966904 -0.181118 -0.179701
outer loop
vertex 398.06 1.15971 21.9579
vertex 397.945 1.24335 21.2569
vertex 398.119 1.3445 22.092
endloop
endfacet
facet normal 0.948617 -0.269919 -0.165132
outer loop
vertex 398.119 1.3445 22.092
vertex 397.945 1.24335 21.2569
vertex 398.231 1.95795 21.7316
endloop
endfacet
facet normal 0.967168 -0.234225 -0.0986165
outer loop
vertex 398.119 1.3445 22.092
vertex 398.231 1.95795 21.7316
vertex 398.135 1.39693 22.1231
endloop
endfacet
facet normal 0.967757 -0.232736 -0.0963388
outer loop
vertex 398.135 1.39693 22.1231
vertex 398.231 1.95795 21.7316
vertex 398.174 1.5325 22.1874
endloop
endfacet
facet normal 0.967469 -0.252988 0
outer loop
vertex 398.517 2.8001 21.9017
vertex 398.517 2.8001 22.5001
vertex 398.403 2.36246 22.4615
endloop
endfacet
facet normal 0.967596 -0.235352 -0.0914733
outer loop
vertex 398.255 1.81308 22.3204
vertex 398.231 1.73044 22.2812
vertex 398.288 1.93692 22.3559
endloop
endfacet
facet normal 0.967549 -0.233468 -0.0966495
outer loop
vertex 398.288 1.93692 22.3559
vertex 398.231 1.73044 22.2812
vertex 398.231 1.95795 21.7316
endloop
endfacet
facet normal 0.9674 -0.234084 -0.0966566
outer loop
vertex 398.288 1.93692 22.3559
vertex 398.231 1.95795 21.7316
vertex 398.373 2.24908 22.4453
endloop
endfacet
facet normal 0.948807 -0.309688 -0.0621248
outer loop
vertex 398.373 2.24908 22.4453
vertex 398.231 1.95795 21.7316
vertex 398.517 2.8001 21.9017
endloop
endfacet
facet normal 0.966899 -0.255151 -0.00204869
outer loop
vertex 398.373 2.24908 22.4453
vertex 398.517 2.8001 21.9017
vertex 398.389 2.30947 22.4568
endloop
endfacet
facet normal 0.967481 -0.252945 3.55134e-005
outer loop
vertex 398.389 2.30947 22.4568
vertex 398.517 2.8001 21.9017
vertex 398.403 2.36246 22.4615
endloop
endfacet
facet normal 0.910386 -0.382357 -0.158114
outer loop
vertex 398.288 2.30686 21.2187
vertex 398.308 2.34812 21.2349
vertex 398.231 2.07446 21.4506
endloop
endfacet
facet normal 0.906742 -0.387602 -0.16608
outer loop
vertex 398.231 2.07446 21.4506
vertex 398.308 2.34812 21.2349
vertex 398.403 2.55068 21.276
endloop
endfacet
facet normal 0.909833 -0.414975 0
outer loop
vertex 398.517 2.8001 21.3001
vertex 398.517 2.8001 21.5971
vertex 398.451 2.65564 21.2936
endloop
endfacet
facet normal 0.909463 -0.415784 0.000464846
outer loop
vertex 398.451 2.65564 21.2936
vertex 398.517 2.8001 21.5971
vertex 398.434 2.61819 21.2897
endloop
endfacet
facet normal 0.90961 -0.384044 -0.158496
outer loop
vertex 398.174 2.07377 21.1256
vertex 398.181 2.08755 21.1327
vertex 398.231 2.07446 21.4506
endloop
endfacet
facet normal 0.910139 -0.382774 -0.158526
outer loop
vertex 398.231 2.07446 21.4506
vertex 398.181 2.08755 21.1327
vertex 398.231 2.18954 21.1727
endloop
endfacet
facet normal 0.910186 -0.38268 -0.158487
outer loop
vertex 398.231 2.07446 21.4506
vertex 398.231 2.18954 21.1727
vertex 398.288 2.30686 21.2187
endloop
endfacet
facet normal 0.909348 -0.294232 -0.294131
outer loop
vertex 397.945 1.672 20.8279
vertex 398.039 1.82258 20.9668
vertex 397.945 1.45871 21.0415
endloop
endfacet
facet normal 0.90571 -0.295339 -0.304078
outer loop
vertex 397.945 1.45871 21.0415
vertex 398.039 1.82258 20.9668
vertex 398.06 1.86145 20.9917
endloop
endfacet
facet normal 0.932528 -0.291702 -0.21284
outer loop
vertex 397.945 1.45871 21.0415
vertex 398.06 1.86145 20.9917
vertex 398.231 2.07446 21.4506
endloop
endfacet
facet normal 0.907105 -0.390296 -0.157576
outer loop
vertex 398.231 2.07446 21.4506
vertex 398.06 1.86145 20.9917
vertex 398.164 2.05446 21.1157
endloop
endfacet
facet normal 0.909892 -0.383353 -0.158547
outer loop
vertex 398.231 2.07446 21.4506
vertex 398.164 2.05446 21.1157
vertex 398.174 2.07377 21.1256
endloop
endfacet
facet normal 0.909886 -0.159012 -0.383174
outer loop
vertex 397.659 1.04962 20.4258
vertex 397.659 1.3248 20.3115
vertex 397.716 1.37982 20.4239
endloop
endfacet
facet normal 0.909672 -0.158978 -0.383696
outer loop
vertex 397.716 1.37982 20.4239
vertex 397.768 1.43008 20.5266
vertex 397.659 1.04962 20.4258
endloop
endfacet
facet normal 0.904243 -0.153508 -0.398473
outer loop
vertex 397.659 1.04962 20.4258
vertex 397.768 1.43008 20.5266
vertex 397.83 1.51049 20.6371
endloop
endfacet
facet normal 0.932525 -0.213039 -0.291568
outer loop
vertex 397.659 1.04962 20.4258
vertex 397.83 1.51049 20.6371
vertex 397.945 1.45871 21.0415
endloop
endfacet
facet normal 0.907659 -0.298138 -0.295414
outer loop
vertex 397.945 1.45871 21.0415
vertex 397.83 1.51049 20.6371
vertex 397.894 1.59227 20.7495
endloop
endfacet
facet normal 0.909764 -0.293441 -0.293635
outer loop
vertex 397.945 1.45871 21.0415
vertex 397.894 1.59227 20.7495
vertex 397.911 1.6168 20.777
endloop
endfacet
facet normal 0.909401 0 -0.41592
outer loop
vertex 397.373 1.2001 19.7001
vertex 397.487 1.22205 19.9502
vertex 397.373 0.903093 19.7001
endloop
endfacet
facet normal 0.908735 0.00137801 -0.417372
outer loop
vertex 397.373 0.903093 19.7001
vertex 397.487 1.22205 19.9502
vertex 397.501 1.22456 19.9788
endloop
endfacet
facet normal 0.90862 -0.160959 -0.38536
outer loop
vertex 397.602 1.28199 20.1936
vertex 397.626 1.29573 20.245
vertex 397.659 1.04962 20.4258
endloop
endfacet
facet normal 0.910192 -0.158702 -0.382575
outer loop
vertex 397.659 1.04962 20.4258
vertex 397.626 1.29573 20.245
vertex 397.641 1.30698 20.2751
endloop
endfacet
facet normal 0.910037 -0.158886 -0.382869
outer loop
vertex 397.659 1.04962 20.4258
vertex 397.641 1.30698 20.2751
vertex 397.659 1.3248 20.3115
endloop
endfacet
facet normal 0.930343 -0.36669 0
outer loop
vertex 398.517 2.8001 21.9001
vertex 398.231 2.07446 21.4506
vertex 398.517 2.8001 21.5971
endloop
endfacet
facet normal 0.932681 -0.35641 -0.0554788
outer loop
vertex 398.517 2.8001 21.5971
vertex 398.231 2.07446 21.4506
vertex 398.403 2.55068 21.276
endloop
endfacet
facet normal 0.906272 -0.422661 0.00539656
outer loop
vertex 398.517 2.8001 21.5971
vertex 398.403 2.55068 21.276
vertex 398.434 2.61819 21.2897
endloop
endfacet
facet normal 0.903172 0.0137155 -0.429059
outer loop
vertex 397.501 1.22456 19.9788
vertex 397.602 1.28199 20.1936
vertex 397.373 0.903093 19.7001
endloop
endfacet
facet normal 0.931924 -0.114114 -0.344231
outer loop
vertex 397.373 0.903093 19.7001
vertex 397.602 1.28199 20.1936
vertex 397.659 1.04962 20.4258
endloop
endfacet
facet normal 0.930357 0 -0.366655
outer loop
vertex 397.373 0.903093 19.7001
vertex 397.659 1.04962 20.4258
vertex 397.373 0.600103 19.7001
endloop
endfacet
facet normal 0.930357 0 -0.366655
outer loop
vertex 397.373 0.600103 19.7001
vertex 397.659 1.04962 20.4258
vertex 397.373 0.59852 19.7001
endloop
endfacet
facet normal 0.947001 -0.123012 -0.296745
outer loop
vertex 397.373 0.59852 19.7001
vertex 397.659 1.04962 20.4258
vertex 397.659 0.768571 20.5423
endloop
endfacet
facet normal 0.930324 -0.140438 -0.338782
outer loop
vertex 397.659 0.768571 20.5423
vertex 397.659 1.04962 20.4258
vertex 397.945 1.45871 21.0415
endloop
endfacet
facet normal 0.946761 -0.227644 -0.227645
outer loop
vertex 397.659 0.768571 20.5423
vertex 397.945 1.45871 21.0415
vertex 397.945 1.24335 21.2569
endloop
endfacet
facet normal 0.930187 -0.259568 -0.259569
outer loop
vertex 397.945 1.24335 21.2569
vertex 397.945 1.45871 21.0415
vertex 398.231 2.07446 21.4506
endloop
endfacet
facet normal 0.946869 -0.297105 -0.123162
outer loop
vertex 397.945 1.24335 21.2569
vertex 398.231 2.07446 21.4506
vertex 398.231 1.95795 21.7316
endloop
endfacet
facet normal 0.94692 -0.296965 -0.123104
outer loop
vertex 398.231 1.95795 21.7316
vertex 398.231 2.07446 21.4506
vertex 398.517 2.8001 21.9001
endloop
endfacet
facet normal 0.946883 -0.321579 0
outer loop
vertex 398.231 1.95795 21.7316
vertex 398.517 2.8001 21.9001
vertex 398.517 2.8001 21.9017
endloop
endfacet
facet normal 0 0 1
outer loop
vertex 80.0001 44.5001 22.5001
vertex 10.6563 2.8001 22.5001
vertex 432 95.0001 22.5001
endloop
endfacet
facet normal 0 0 1
outer loop
vertex 432 95.0001 22.5001
vertex 10.6563 2.8001 22.5001
vertex 398.517 2.8001 22.5001
endloop
endfacet
facet normal -0.142012 0.989865 0
outer loop
vertex 432 95.0001 22.5001
vertex 432 95.0001 21.3001
vertex 80.0001 44.5001 22.5001
endloop
endfacet
facet normal -0.142012 0.989865 0
outer loop
vertex 80.0001 44.5001 22.5001
vertex 432 95.0001 21.3001
vertex 80.0001 44.5001 21.3001
endloop
endfacet
facet normal -0.515347 0.856982 0
outer loop
vertex 10.6563 2.8001 22.5001
vertex 80.0001 44.5001 22.5001
vertex 10.6563 2.8001 22.2065
endloop
endfacet
facet normal -0.515347 0.856982 0
outer loop
vertex 10.6563 2.8001 22.2065
vertex 80.0001 44.5001 22.5001
vertex 10.6563 2.8001 21.9016
endloop
endfacet
facet normal -0.515347 0.856982 0
outer loop
vertex 10.6563 2.8001 21.9016
vertex 80.0001 44.5001 22.5001
vertex 10.6563 2.8001 21.9001
endloop
endfacet
facet normal -0.515347 0.856982 0
outer loop
vertex 10.6563 2.8001 21.9001
vertex 80.0001 44.5001 22.5001
vertex 80.0001 44.5001 21.3001
endloop
endfacet
facet normal -0.515347 0.856982 0
outer loop
vertex 10.6563 2.8001 21.9001
vertex 80.0001 44.5001 21.3001
vertex 10.6563 2.8001 21.3001
endloop
endfacet
facet normal 8.99639e-005 0.045148 -0.99898
outer loop
vertex 398.451 2.65564 21.2936
vertex 10.1329 2.55455 21.254
vertex 398.517 2.8001 21.3001
endloop
endfacet
facet normal -6.78733e-009 0.184423 -0.982847
outer loop
vertex 398.517 2.8001 21.3001
vertex 10.1329 2.55455 21.254
vertex 10.3292 2.64664 21.2713
endloop
endfacet
facet normal 0 0.184406 -0.98285
outer loop
vertex 398.517 2.8001 21.3001
vertex 10.3292 2.64664 21.2713
vertex 10.6563 2.8001 21.3001
endloop
endfacet
facet normal 7.47357e-005 0.101998 -0.994785
outer loop
vertex 398.451 2.65564 21.2936
vertex 398.434 2.61819 21.2897
vertex 10.1329 2.55455 21.254
endloop
endfacet
facet normal 5.75162e-005 0.198785 -0.980043
outer loop
vertex 10.1329 2.55455 21.254
vertex 398.434 2.61819 21.2897
vertex 398.403 2.55068 21.276
endloop
endfacet
facet normal 5.75323e-005 0.184269 -0.982876
outer loop
vertex 10.1329 2.55455 21.254
vertex 398.403 2.55068 21.276
vertex 10.0016 2.49291 21.2425
endloop
endfacet
facet normal 5.51254e-005 0.198803 -0.980039
outer loop
vertex 10.0016 2.49291 21.2425
vertex 398.403 2.55068 21.276
vertex 398.308 2.34812 21.2349
endloop
endfacet
facet normal 3.56349e-005 0.147007 -0.989135
outer loop
vertex 10.0016 2.49291 21.2425
vertex 398.308 2.34812 21.2349
vertex 9.60922 2.30723 21.2149
endloop
endfacet
facet normal 9.65235e-006 0.365377 -0.93086
outer loop
vertex 9.60922 2.30723 21.2149
vertex 398.308 2.34812 21.2349
vertex 398.288 2.30686 21.2187
endloop
endfacet
facet normal 9.89742e-006 0.261196 -0.965286
outer loop
vertex 9.60922 2.30723 21.2149
vertex 398.288 2.30686 21.2187
vertex 9.42013 2.22012 21.1913
endloop
endfacet
facet normal 4.60217e-005 0.455698 -0.890135
outer loop
vertex 398.181 2.08755 21.1327
vertex 398.174 2.07377 21.1256
vertex 9.0858 2.08263 21.11
endloop
endfacet
facet normal -5.27089e-005 0.508817 -0.860875
outer loop
vertex 9.42013 2.22012 21.1913
vertex 398.288 2.30686 21.2187
vertex 9.0858 2.08263 21.11
endloop
endfacet
facet normal 4.95407e-005 0.365287 -0.930895
outer loop
vertex 9.0858 2.08263 21.11
vertex 398.288 2.30686 21.2187
vertex 398.231 2.18954 21.1727
endloop
endfacet
facet normal 4.95373e-005 0.365297 -0.930891
outer loop
vertex 9.0858 2.08263 21.11
vertex 398.231 2.18954 21.1727
vertex 398.181 2.08755 21.1327
endloop
endfacet
facet normal 4.60776e-005 0.508614 -0.860995
outer loop
vertex 8.56167 1.86707 20.9827
vertex 8.69173 1.92056 21.0143
vertex 398.174 2.07377 21.1256
endloop
endfacet
facet normal 4.60626e-005 0.508641 -0.860979
outer loop
vertex 398.174 2.07377 21.1256
vertex 8.69173 1.92056 21.0143
vertex 9.01936 2.0553 21.0939
endloop
endfacet
facet normal 4.60596e-005 0.508671 -0.860961
outer loop
vertex 398.174 2.07377 21.1256
vertex 9.01936 2.0553 21.0939
vertex 9.0858 2.08263 21.11
endloop
endfacet
facet normal 8.48892e-005 0.455631 -0.890168
outer loop
vertex 398.174 2.07377 21.1256
vertex 398.164 2.05446 21.1157
vertex 8.56167 1.86707 20.9827
endloop
endfacet
facet normal 2.7402e-005 0.54049 -0.841351
outer loop
vertex 8.56167 1.86707 20.9827
vertex 398.164 2.05446 21.1157
vertex 398.06 1.86145 20.9917
endloop
endfacet
facet normal 2.73995e-005 0.508683 -0.860954
outer loop
vertex 8.56167 1.86707 20.9827
vertex 398.06 1.86145 20.9917
vertex 8.33461 1.77369 20.9275
endloop
endfacet
facet normal -6.90059e-005 0.771897 -0.635747
outer loop
vertex 8.33461 1.77369 20.9275
vertex 398.06 1.86145 20.9917
vertex 8.03775 1.6838 20.8184
endloop
endfacet
facet normal 0.00012588 0.677825 -0.735224
outer loop
vertex 397.911 1.6168 20.777
vertex 7.51254 1.52477 20.6254
vertex 397.945 1.672 20.8279
endloop
endfacet
facet normal 3.89395e-005 0.771747 -0.635929
outer loop
vertex 397.945 1.672 20.8279
vertex 7.51254 1.52477 20.6254
vertex 7.70991 1.58453 20.6979
endloop
endfacet
facet normal 0.000127818 0.540446 -0.841379
outer loop
vertex 398.06 1.86145 20.9917
vertex 398.039 1.82258 20.9668
vertex 8.03775 1.6838 20.8184
endloop
endfacet
facet normal 3.85292e-005 0.677841 -0.735209
outer loop
vertex 8.03775 1.6838 20.8184
vertex 398.039 1.82258 20.9668
vertex 397.945 1.672 20.8279
endloop
endfacet
facet normal 3.89353e-005 0.769602 -0.638524
outer loop
vertex 8.03775 1.6838 20.8184
vertex 397.945 1.672 20.8279
vertex 8.03752 1.68373 20.8183
endloop
endfacet
facet normal 3.89357e-005 0.771753 -0.635922
outer loop
vertex 8.03752 1.68373 20.8183
vertex 397.945 1.672 20.8279
vertex 7.70991 1.58453 20.6979
endloop
endfacet
facet normal -0.000128303 0.942469 -0.334294
outer loop
vertex 6.98844 1.38159 20.4237
vertex 7.09713 1.39898 20.4727
vertex 397.83 1.51049 20.6371
endloop
endfacet
facet normal 8.20606e-005 0.747235 -0.66456
outer loop
vertex 397.911 1.6168 20.777
vertex 397.894 1.59227 20.7495
vertex 7.51254 1.52477 20.6254
endloop
endfacet
facet normal 4.72428e-005 0.80857 -0.5884
outer loop
vertex 7.51254 1.52477 20.6254
vertex 397.894 1.59227 20.7495
vertex 397.83 1.51049 20.6371
endloop
endfacet
facet normal 4.73211e-005 0.771741 -0.635937
outer loop
vertex 7.51254 1.52477 20.6254
vertex 397.83 1.51049 20.6371
vertex 7.38224 1.48532 20.5775
endloop
endfacet
facet normal 4.73201e-005 0.771745 -0.635933
outer loop
vertex 7.38224 1.48532 20.5775
vertex 397.83 1.51049 20.6371
vertex 7.09713 1.39898 20.4727
endloop
endfacet
facet normal 5.45762e-005 0.808576 -0.588392
outer loop
vertex 397.83 1.51049 20.6371
vertex 397.768 1.43008 20.5266
vertex 6.98844 1.38159 20.4237
endloop
endfacet
facet normal 4.29762e-006 0.898179 -0.43963
outer loop
vertex 6.98844 1.38159 20.4237
vertex 397.768 1.43008 20.5266
vertex 397.716 1.37982 20.4239
endloop
endfacet
facet normal 4.44663e-006 0.94238 -0.334544
outer loop
vertex 6.98844 1.38159 20.4237
vertex 397.716 1.37982 20.4239
vertex 6.72776 1.33988 20.3062
endloop
endfacet
facet normal 4.05957e-005 0.898174 -0.43964
outer loop
vertex 6.72776 1.33988 20.3062
vertex 397.716 1.37982 20.4239
vertex 397.659 1.3248 20.3115
endloop
endfacet
facet normal 4.07296e-005 0.911926 -0.410355
outer loop
vertex 6.72776 1.33988 20.3062
vertex 397.659 1.3248 20.3115
vertex 6.46512 1.28813 20.1912
endloop
endfacet
facet normal 5.10378e-005 0.898158 -0.439673
outer loop
vertex 6.46512 1.28813 20.1912
vertex 397.659 1.3248 20.3115
vertex 397.641 1.30698 20.2751
endloop
endfacet
facet normal 0 0.996172 -0.0874178
outer loop
vertex 397.487 1.22205 19.9502
vertex 397.373 1.2001 19.7001
vertex 5.41809 1.2001 19.7001
endloop
endfacet
facet normal 2.99384e-005 0.936758 -0.349978
outer loop
vertex 397.641 1.30698 20.2751
vertex 397.626 1.29573 20.245
vertex 6.46512 1.28813 20.1912
endloop
endfacet
facet normal 1.6761e-005 0.966064 -0.258303
outer loop
vertex 6.46512 1.28813 20.1912
vertex 397.626 1.29573 20.245
vertex 397.602 1.28199 20.1936
endloop
endfacet
facet normal 1.6813e-005 0.957202 -0.289421
outer loop
vertex 6.46512 1.28813 20.1912
vertex 397.602 1.28199 20.1936
vertex 6.01272 1.22547 19.9839
endloop
endfacet
facet normal -1.12325e-006 0.966062 -0.25831
outer loop
vertex 6.01272 1.22547 19.9839
vertex 397.602 1.28199 20.1936
vertex 397.501 1.22456 19.9788
endloop
endfacet
facet normal 1.16277e-006 0.996028 -0.089038
outer loop
vertex 6.01272 1.22547 19.9839
vertex 397.501 1.22456 19.9788
vertex 5.94194 1.22245 19.9501
endloop
endfacet
facet normal 1.04332e-006 0.996172 -0.0874165
outer loop
vertex 5.94194 1.22245 19.9501
vertex 397.501 1.22456 19.9788
vertex 397.487 1.22205 19.9502
endloop
endfacet
facet normal 1.0435e-006 0.996028 -0.0890432
outer loop
vertex 5.94194 1.22245 19.9501
vertex 397.487 1.22205 19.9502
vertex 5.74547 1.21407 19.8563
endloop
endfacet
facet normal 1.04269e-006 0.996028 -0.0890399
outer loop
vertex 5.74547 1.21407 19.8563
vertex 397.487 1.22205 19.9502
vertex 5.41809 1.2001 19.7001
endloop
endfacet
facet normal 0.939938 -0.341346 0
outer loop
vertex 432 95.0001 22.5001
vertex 398.517 2.8001 22.5001
vertex 398.517 2.8001 21.9017
endloop
endfacet
facet normal 0.939938 -0.341346 0
outer loop
vertex 398.517 2.8001 21.3001
vertex 432 95.0001 21.3001
vertex 398.517 2.8001 21.5971
endloop
endfacet
facet normal 0.939938 -0.341346 0
outer loop
vertex 398.517 2.8001 21.5971
vertex 432 95.0001 21.3001
vertex 432 95.0001 22.5001
endloop
endfacet
facet normal 0.939938 -0.341346 0
outer loop
vertex 398.517 2.8001 21.5971
vertex 432 95.0001 22.5001
vertex 398.517 2.8001 21.9001
endloop
endfacet
facet normal 0.939938 -0.341346 0
outer loop
vertex 398.517 2.8001 21.9001
vertex 432 95.0001 22.5001
vertex 398.517 2.8001 21.9017
endloop
endfacet
facet normal 0 0 -1
outer loop
vertex 80.0001 44.5001 21.3001
vertex 432 95.0001 21.3001
vertex 10.6563 2.8001 21.3001
endloop
endfacet
facet normal 0 0 -1
outer loop
vertex 10.6563 2.8001 21.3001
vertex 432 95.0001 21.3001
vertex 398.517 2.8001 21.3001
endloop
endfacet
endsolid
