solid C:\Temp\NOELParts\PART_23_PRT.STL created by CtrlView V2.70
facet normal -1.04805e-005 0.882945 0.469476
outer loop
vertex 219.47 281.091 169.292
vertex 218.745 281.232 169.027
vertex 217.982 281.318 168.865
endloop
endfacet
facet normal 0.000411196 0.882917 0.469529
outer loop
vertex 221.955 277.335 176.356
vertex 222.138 277.694 175.682
vertex 222.2 278.061 174.992
endloop
endfacet
facet normal 0 0.882948 0.469472
outer loop
vertex 24 281.347 168.811
vertex 18 281.347 168.811
vertex 18 279.469 172.343
endloop
endfacet
facet normal 0 0.882948 0.469472
outer loop
vertex 198.2 369.608 2.81692
vertex 24 369.608 2.81692
vertex 24 281.347 168.811
endloop
endfacet
facet normal -1.90453e-006 0.882948 0.469472
outer loop
vertex 210.2 277.591 175.875
vertex 210.2 275.713 179.406
vertex 222.2 278.061 174.992
endloop
endfacet
facet normal 0 0.882945 0.469476
outer loop
vertex 222.2 278.061 174.992
vertex 210.2 275.713 179.406
vertex 217.2 275.713 179.406
endloop
endfacet
facet normal -5.62198e-007 0.882946 0.469475
outer loop
vertex 222.2 278.061 174.992
vertex 217.2 275.713 179.406
vertex 217.982 275.742 179.352
endloop
endfacet
facet normal 0 0.882949 0.469469
outer loop
vertex 204.2 97.3142 514.927
vertex 204.2 99.1921 511.395
vertex 198.2 99.1921 511.395
endloop
endfacet
facet normal 0 0.882948 0.469472
outer loop
vertex 12 275.713 179.406
vertex 12 277.591 175.875
vertex 5 275.713 179.406
endloop
endfacet
facet normal 7.71436e-007 0.882947 0.469473
outer loop
vertex 5 275.713 179.406
vertex 12 277.591 175.875
vertex 4.21783 275.742 179.352
endloop
endfacet
facet normal 2.06824e-005 0.882939 0.469488
outer loop
vertex 198.2 369.608 2.81692
vertex 24 281.347 168.811
vertex 18 277.591 175.875
endloop
endfacet
facet normal 4.77578e-006 0.882944 0.469478
outer loop
vertex 18 277.591 175.875
vertex 24 281.347 168.811
vertex 18 279.469 172.343
endloop
endfacet
facet normal 0 0.882944 0.469478
outer loop
vertex 18 277.591 175.875
vertex 18 279.469 172.343
vertex 12 277.591 175.875
endloop
endfacet
facet normal 0 0.882944 0.469478
outer loop
vertex 12 277.591 175.875
vertex 18 279.469 172.343
vertex 12 279.469 172.343
endloop
endfacet
facet normal 3.71364e-006 0.882944 0.469478
outer loop
vertex 12 277.591 175.875
vertex 12 279.469 172.343
vertex 4.21783 275.742 179.352
endloop
endfacet
facet normal -3.59383e-006 0.882948 0.469472
outer loop
vertex 4.21783 275.742 179.352
vertex 12 279.469 172.343
vertex 12 281.347 168.811
endloop
endfacet
facet normal 0 0.882946 0.469474
outer loop
vertex 4.21783 275.742 179.352
vertex 12 281.347 168.811
vertex 5 281.347 168.811
endloop
endfacet
facet normal 8.13697e-005 0.882946 0.469475
outer loop
vertex 221.955 95.1804 518.94
vertex 222.138 95.5386 518.266
vertex 222.2 95.9058 517.575
endloop
endfacet
facet normal 0 0.882948 0.469472
outer loop
vertex 210.2 281.347 168.811
vertex 210.2 279.469 172.343
vertex 217.2 281.347 168.811
endloop
endfacet
facet normal 2.29997e-005 0.882929 0.469507
outer loop
vertex 217.2 281.347 168.811
vertex 210.2 279.469 172.343
vertex 217.982 281.318 168.865
endloop
endfacet
facet normal 0.000186257 0.882971 0.469427
outer loop
vertex 221.955 279.725 171.862
vertex 221.655 280.065 171.222
vertex 222.138 279.367 172.535
endloop
endfacet
facet normal 2.20303e-006 0.882943 0.46948
outer loop
vertex 222.138 279.367 172.535
vertex 221.655 280.065 171.222
vertex 210.2 277.591 175.875
endloop
endfacet
facet normal 7.87747e-007 0.882945 0.469476
outer loop
vertex 222.138 279.367 172.535
vertex 210.2 277.591 175.875
vertex 222.2 279 173.226
endloop
endfacet
facet normal -2.61512e-006 0.882952 0.469464
outer loop
vertex 222.2 279 173.226
vertex 210.2 277.591 175.875
vertex 222.2 278.061 174.992
endloop
endfacet
facet normal 0.000229959 0.883087 0.469209
outer loop
vertex 220.139 280.899 169.654
vertex 219.47 281.091 169.292
vertex 220.736 280.66 170.104
endloop
endfacet
facet normal 6.37651e-006 0.882943 0.469481
outer loop
vertex 220.736 280.66 170.104
vertex 219.47 281.091 169.292
vertex 210.2 277.591 175.875
endloop
endfacet
facet normal -5.7945e-006 0.882952 0.469464
outer loop
vertex 220.736 280.66 170.104
vertex 210.2 277.591 175.875
vertex 221.245 280.379 170.631
endloop
endfacet
facet normal -8.9683e-006 0.882955 0.469459
outer loop
vertex 221.245 280.379 170.631
vertex 210.2 277.591 175.875
vertex 221.655 280.065 171.222
endloop
endfacet
facet normal 1.31866e-005 0.882942 0.469482
outer loop
vertex 3.45492 281.232 169.027
vertex 2.73005 281.091 169.292
vertex 0 279 173.226
endloop
endfacet
facet normal 0 0.882949 0.469469
outer loop
vertex 217.2 99.1921 511.395
vertex 210.2 99.1921 511.395
vertex 210.2 97.3142 514.927
endloop
endfacet
facet normal -1.01798e-006 0.882949 0.469469
outer loop
vertex 210.2 95.4363 518.458
vertex 210.2 93.5584 521.99
vertex 222.2 95.9058 517.575
endloop
endfacet
facet normal 0 0.882948 0.469471
outer loop
vertex 222.2 95.9058 517.575
vertex 210.2 93.5584 521.99
vertex 217.2 93.5584 521.99
endloop
endfacet
facet normal -2.09038e-005 0.882958 0.469452
outer loop
vertex 222.2 95.9058 517.575
vertex 217.2 93.5584 521.99
vertex 217.982 93.5873 521.936
endloop
endfacet
facet normal 0 0.882948 0.469472
outer loop
vertex 198.2 275.713 179.406
vertex 204.2 275.713 179.406
vertex 204.2 277.591 175.875
endloop
endfacet
facet normal -1.4866e-005 0.882961 0.469446
outer loop
vertex 221.245 276.681 177.587
vertex 221.655 276.995 176.996
vertex 220.736 276.401 178.113
endloop
endfacet
facet normal 0.00027207 0.882863 0.46963
outer loop
vertex 220.736 276.401 178.113
vertex 221.655 276.995 176.996
vertex 221.955 277.335 176.356
endloop
endfacet
facet normal 6.58794e-005 0.882923 0.469518
outer loop
vertex 220.736 276.401 178.113
vertex 221.955 277.335 176.356
vertex 220.139 276.162 178.563
endloop
endfacet
facet normal -8.87217e-006 0.882948 0.46947
outer loop
vertex 220.139 276.162 178.563
vertex 221.955 277.335 176.356
vertex 222.2 278.061 174.992
endloop
endfacet
facet normal -4.85882e-006 0.882947 0.469472
outer loop
vertex 220.139 276.162 178.563
vertex 222.2 278.061 174.992
vertex 219.47 275.969 178.925
endloop
endfacet
facet normal -4.1438e-006 0.882947 0.469472
outer loop
vertex 219.47 275.969 178.925
vertex 222.2 278.061 174.992
vertex 217.982 275.742 179.352
endloop
endfacet
facet normal -5.11948e-005 0.883015 0.469345
outer loop
vertex 219.47 275.969 178.925
vertex 217.982 275.742 179.352
vertex 218.745 275.828 179.19
endloop
endfacet
facet normal -4.3468e-005 0.883051 0.469278
outer loop
vertex 4.21783 281.318 168.865
vertex 3.45492 281.232 169.027
vertex 5 281.347 168.811
endloop
endfacet
facet normal -9.4409e-006 0.88295 0.469467
outer loop
vertex 5 281.347 168.811
vertex 3.45492 281.232 169.027
vertex 0 279 173.226
endloop
endfacet
facet normal -2.38443e-006 0.882947 0.469474
outer loop
vertex 5 281.347 168.811
vertex 0 279 173.226
vertex 4.21783 275.742 179.352
endloop
endfacet
facet normal 1.52398e-005 0.882952 0.469464
outer loop
vertex 4.21783 275.742 179.352
vertex 0 279 173.226
vertex 0 278.061 174.992
endloop
endfacet
facet normal 1.95991e-005 0.882953 0.469461
outer loop
vertex 4.21783 275.742 179.352
vertex 0 278.061 174.992
vertex 3.45492 275.828 179.19
endloop
endfacet
facet normal -4.72871e-005 0.882931 0.469504
outer loop
vertex 3.45492 275.828 179.19
vertex 0 278.061 174.992
vertex 0.0615641 277.694 175.682
endloop
endfacet
facet normal -1.03989e-005 0.882945 0.469476
outer loop
vertex 3.45492 275.828 179.19
vertex 0.0615641 277.694 175.682
vertex 2.73005 275.969 178.925
endloop
endfacet
facet normal 6.3702e-005 0.882971 0.469428
outer loop
vertex 2.73005 275.969 178.925
vertex 0.0615641 277.694 175.682
vertex 0.244722 277.335 176.356
endloop
endfacet
facet normal 3.89644e-006 0.882947 0.469473
outer loop
vertex 2.73005 275.969 178.925
vertex 0.244722 277.335 176.356
vertex 2.06108 276.162 178.563
endloop
endfacet
facet normal -0.000196982 0.882878 0.469602
outer loop
vertex 2.06108 276.162 178.563
vertex 0.244722 277.335 176.356
vertex 0.544973 276.995 176.996
endloop
endfacet
facet normal -1.31072e-005 0.882952 0.469464
outer loop
vertex 2.06108 276.162 178.563
vertex 0.544973 276.995 176.996
vertex 1.46447 276.401 178.113
endloop
endfacet
facet normal 1.48648e-005 0.882961 0.469446
outer loop
vertex 1.46447 276.401 178.113
vertex 0.544973 276.995 176.996
vertex 0.954919 276.681 177.587
endloop
endfacet
facet normal 4.40092e-005 0.882936 0.469493
outer loop
vertex 2.06108 280.899 169.654
vertex 1.46447 280.66 170.104
vertex 0.954919 280.379 170.631
endloop
endfacet
facet normal 0 0.882948 0.469471
outer loop
vertex 24 5.29779 687.984
vertex 198.2 5.29779 687.984
vertex 198.2 93.5584 521.99
endloop
endfacet
facet normal 0 0.882944 0.469478
outer loop
vertex 210.2 95.4363 518.458
vertex 210.2 97.3142 514.927
vertex 204.2 95.4363 518.458
endloop
endfacet
facet normal 0 0.882944 0.469478
outer loop
vertex 204.2 95.4363 518.458
vertex 210.2 97.3142 514.927
vertex 204.2 97.3142 514.927
endloop
endfacet
facet normal 1.01182e-006 0.882948 0.46947
outer loop
vertex 217.2 99.1921 511.395
vertex 210.2 97.3142 514.927
vertex 217.982 99.1632 511.449
endloop
endfacet
facet normal 5.55384e-006 0.882944 0.469478
outer loop
vertex 217.982 99.1632 511.449
vertex 210.2 97.3142 514.927
vertex 210.2 95.4363 518.458
endloop
endfacet
facet normal 5.98219e-006 0.882944 0.469478
outer loop
vertex 217.982 99.1632 511.449
vertex 210.2 95.4363 518.458
vertex 218.745 99.0772 511.611
endloop
endfacet
facet normal -7.75483e-006 0.882951 0.469465
outer loop
vertex 218.745 99.0772 511.611
vertex 210.2 95.4363 518.458
vertex 220.139 98.7438 512.238
endloop
endfacet
facet normal 0.0001078 0.883058 0.469265
outer loop
vertex 218.745 99.0772 511.611
vertex 220.139 98.7438 512.238
vertex 219.47 98.9362 511.876
endloop
endfacet
facet normal 0 0.882949 0.469469
outer loop
vertex 18 99.1921 511.395
vertex 18 97.3142 514.927
vertex 24 99.1921 511.395
endloop
endfacet
facet normal 2.43533e-006 0.882948 0.469472
outer loop
vertex 24 99.1921 511.395
vertex 18 97.3142 514.927
vertex 24 93.5584 521.99
endloop
endfacet
facet normal 0 0.882949 0.469469
outer loop
vertex 12 93.5584 521.99
vertex 12 95.4363 518.458
vertex 5 93.5584 521.99
endloop
endfacet
facet normal 1.70976e-005 0.882935 0.469495
outer loop
vertex 5 93.5584 521.99
vertex 12 95.4363 518.458
vertex 4.21783 93.5873 521.936
endloop
endfacet
facet normal 0 0.882949 0.469469
outer loop
vertex 18 93.5584 521.99
vertex 24 93.5584 521.99
vertex 18 95.4363 518.458
endloop
endfacet
facet normal -7.02122e-006 0.882944 0.469478
outer loop
vertex 18 95.4363 518.458
vertex 24 93.5584 521.99
vertex 18 97.3142 514.927
endloop
endfacet
facet normal 0 0.882944 0.469478
outer loop
vertex 18 95.4363 518.458
vertex 18 97.3142 514.927
vertex 12 95.4363 518.458
endloop
endfacet
facet normal 0 0.882944 0.469478
outer loop
vertex 12 95.4363 518.458
vertex 18 97.3142 514.927
vertex 12 97.3142 514.927
endloop
endfacet
facet normal 7.28506e-006 0.882944 0.469478
outer loop
vertex 12 95.4363 518.458
vertex 12 97.3142 514.927
vertex 4.21783 93.5873 521.936
endloop
endfacet
facet normal -3.02038e-006 0.88295 0.469467
outer loop
vertex 0 95.9058 517.575
vertex 12 97.3142 514.927
vertex 0 96.8447 515.809
endloop
endfacet
facet normal -2.86226e-006 0.882949 0.469469
outer loop
vertex 0 96.8447 515.809
vertex 12 97.3142 514.927
vertex 12 99.1921 511.395
endloop
endfacet
facet normal -2.72015e-006 0.882949 0.469469
outer loop
vertex 0 96.8447 515.809
vertex 12 99.1921 511.395
vertex 0.0615641 97.212 515.119
endloop
endfacet
facet normal 0 0.882945 0.469476
outer loop
vertex 0.0615641 97.212 515.119
vertex 12 99.1921 511.395
vertex 5 99.1921 511.395
endloop
endfacet
facet normal 1.82092e-005 0.882935 0.469494
outer loop
vertex 0.0615641 97.212 515.119
vertex 5 99.1921 511.395
vertex 0.244722 97.5701 514.445
endloop
endfacet
facet normal -9.11667e-007 0.882948 0.469471
outer loop
vertex 0.244722 97.5701 514.445
vertex 5 99.1921 511.395
vertex 4.21783 99.1632 511.449
endloop
endfacet
facet normal -1.36382e-005 0.882955 0.469458
outer loop
vertex 0.244722 97.5701 514.445
vertex 4.21783 99.1632 511.449
vertex 0.544973 97.9104 513.805
endloop
endfacet
facet normal -1.04587e-005 0.882953 0.469462
outer loop
vertex 0.544973 97.9104 513.805
vertex 4.21783 99.1632 511.449
vertex 3.45492 99.0772 511.611
endloop
endfacet
facet normal 3.70589e-005 0.882927 0.469511
outer loop
vertex 0.544973 97.9104 513.805
vertex 3.45492 99.0772 511.611
vertex 0.954919 98.2245 513.215
endloop
endfacet
facet normal -3.1177e-005 0.882971 0.469428
outer loop
vertex 0.954919 98.2245 513.215
vertex 3.45492 99.0772 511.611
vertex 2.73005 98.9362 511.876
endloop
endfacet
facet normal 2.33138e-005 0.882941 0.469484
outer loop
vertex 0.954919 98.2245 513.215
vertex 2.73005 98.9362 511.876
vertex 1.46447 98.5046 512.688
endloop
endfacet
facet normal 0.000159765 0.882853 0.46965
outer loop
vertex 1.46447 98.5046 512.688
vertex 2.73005 98.9362 511.876
vertex 2.06108 98.7438 512.238
endloop
endfacet
facet normal -1.19392e-006 0.88295 0.469467
outer loop
vertex 222.2 95.9058 517.575
vertex 222.2 96.8447 515.809
vertex 210.2 95.4363 518.458
endloop
endfacet
facet normal -5.69503e-007 0.882949 0.469469
outer loop
vertex 210.2 95.4363 518.458
vertex 222.2 96.8447 515.809
vertex 222.138 97.212 515.119
endloop
endfacet
facet normal 6.65131e-006 0.882938 0.469489
outer loop
vertex 210.2 95.4363 518.458
vertex 222.138 97.212 515.119
vertex 221.955 97.5701 514.445
endloop
endfacet
facet normal 0 0.882949 0.469469
outer loop
vertex 204.2 93.5584 521.99
vertex 204.2 95.4363 518.458
vertex 198.2 93.5584 521.99
endloop
endfacet
facet normal 7.02122e-006 0.882944 0.469478
outer loop
vertex 198.2 93.5584 521.99
vertex 204.2 95.4363 518.458
vertex 204.2 97.3142 514.927
endloop
endfacet
facet normal 1.201e-005 0.882942 0.469481
outer loop
vertex 198.2 93.5584 521.99
vertex 204.2 97.3142 514.927
vertex 24 5.29779 687.984
endloop
endfacet
facet normal -1.42399e-006 0.882948 0.46947
outer loop
vertex 24 5.29779 687.984
vertex 204.2 97.3142 514.927
vertex 198.2 99.1921 511.395
endloop
endfacet
facet normal -2.02774e-008 0.882948 0.469471
outer loop
vertex 24 5.29779 687.984
vertex 198.2 99.1921 511.395
vertex 24 93.5584 521.99
endloop
endfacet
facet normal -1.78e-008 0.882948 0.469472
outer loop
vertex 24 93.5584 521.99
vertex 198.2 99.1921 511.395
vertex 198.2 275.713 179.406
endloop
endfacet
facet normal 5.57733e-007 0.882948 0.469472
outer loop
vertex 24 93.5584 521.99
vertex 198.2 275.713 179.406
vertex 24 99.1921 511.395
endloop
endfacet
facet normal 5.32755e-006 0.882946 0.469474
outer loop
vertex 24 99.1921 511.395
vertex 198.2 275.713 179.406
vertex 198.2 281.347 168.811
endloop
endfacet
facet normal -1.70029e-007 0.882948 0.469472
outer loop
vertex 24 99.1921 511.395
vertex 198.2 281.347 168.811
vertex 24 275.713 179.406
endloop
endfacet
facet normal -1.69357e-007 0.882948 0.469472
outer loop
vertex 24 275.713 179.406
vertex 198.2 281.347 168.811
vertex 198.2 369.608 2.81692
endloop
endfacet
facet normal 0 0.882948 0.469472
outer loop
vertex 24 275.713 179.406
vertex 198.2 369.608 2.81692
vertex 18 275.713 179.406
endloop
endfacet
facet normal -8.53086e-008 0.882948 0.469472
outer loop
vertex 18 275.713 179.406
vertex 198.2 369.608 2.81692
vertex 18 277.591 175.875
endloop
endfacet
facet normal -6.96145e-006 0.88295 0.469466
outer loop
vertex 219.47 281.091 169.292
vertex 217.982 281.318 168.865
vertex 210.2 277.591 175.875
endloop
endfacet
facet normal 6.25556e-006 0.882944 0.469478
outer loop
vertex 210.2 277.591 175.875
vertex 217.982 281.318 168.865
vertex 210.2 279.469 172.343
endloop
endfacet
facet normal 0 0.882944 0.469478
outer loop
vertex 210.2 277.591 175.875
vertex 210.2 279.469 172.343
vertex 204.2 277.591 175.875
endloop
endfacet
facet normal 0 0.882944 0.469478
outer loop
vertex 204.2 277.591 175.875
vertex 210.2 279.469 172.343
vertex 204.2 279.469 172.343
endloop
endfacet
facet normal 4.77578e-006 0.882944 0.469478
outer loop
vertex 204.2 277.591 175.875
vertex 204.2 279.469 172.343
vertex 198.2 275.713 179.406
endloop
endfacet
facet normal -4.77571e-006 0.882948 0.469472
outer loop
vertex 198.2 275.713 179.406
vertex 204.2 279.469 172.343
vertex 204.2 281.347 168.811
endloop
endfacet
facet normal 0 0.882946 0.469474
outer loop
vertex 198.2 275.713 179.406
vertex 204.2 281.347 168.811
vertex 198.2 281.347 168.811
endloop
endfacet
facet normal -7.34469e-005 0.882967 0.469435
outer loop
vertex 2.73005 281.091 169.292
vertex 2.06108 280.899 169.654
vertex 0 279 173.226
endloop
endfacet
facet normal 3.28249e-005 0.882942 0.469483
outer loop
vertex 0 279 173.226
vertex 2.06108 280.899 169.654
vertex 0.954919 280.379 170.631
endloop
endfacet
facet normal 1.29285e-005 0.882945 0.469477
outer loop
vertex 0 279 173.226
vertex 0.954919 280.379 170.631
vertex 0.0615641 279.367 172.535
endloop
endfacet
facet normal 0.00010593 0.882927 0.469511
outer loop
vertex 0.0615641 279.367 172.535
vertex 0.954919 280.379 170.631
vertex 0.544973 280.065 171.222
endloop
endfacet
facet normal -0.000186281 0.882971 0.469427
outer loop
vertex 0.0615641 279.367 172.535
vertex 0.544973 280.065 171.222
vertex 0.244722 279.725 171.862
endloop
endfacet
facet normal -0.000142553 0.883013 0.469349
outer loop
vertex 220.736 94.246 520.697
vertex 221.245 94.5261 520.17
vertex 220.139 94.0067 521.147
endloop
endfacet
facet normal 4.59913e-005 0.882924 0.469516
outer loop
vertex 220.139 94.0067 521.147
vertex 221.245 94.5261 520.17
vertex 221.655 94.8401 519.58
endloop
endfacet
facet normal -8.13423e-005 0.882946 0.469475
outer loop
vertex 0 95.9058 517.575
vertex 0.0615641 95.5386 518.266
vertex 0.244722 95.1804 518.94
endloop
endfacet
facet normal -3.87401e-006 0.882952 0.469464
outer loop
vertex 0 95.9058 517.575
vertex 0.244722 95.1804 518.94
vertex 12 97.3142 514.927
endloop
endfacet
facet normal -5.40765e-007 0.882948 0.469471
outer loop
vertex 12 97.3142 514.927
vertex 0.244722 95.1804 518.94
vertex 0.544973 94.8401 519.58
endloop
endfacet
facet normal 7.52174e-006 0.882939 0.469487
outer loop
vertex 12 97.3142 514.927
vertex 0.544973 94.8401 519.58
vertex 0.954919 94.5261 520.17
endloop
endfacet
facet normal -2.56048e-005 0.882953 0.469462
outer loop
vertex 221.655 94.8401 519.58
vertex 221.955 95.1804 518.94
vertex 220.139 94.0067 521.147
endloop
endfacet
facet normal -2.99348e-005 0.882954 0.469459
outer loop
vertex 220.139 94.0067 521.147
vertex 221.955 95.1804 518.94
vertex 222.2 95.9058 517.575
endloop
endfacet
facet normal -9.3164e-006 0.882949 0.469468
outer loop
vertex 220.139 94.0067 521.147
vertex 222.2 95.9058 517.575
vertex 219.47 93.8143 521.509
endloop
endfacet
facet normal 2.46249e-005 0.88294 0.469487
outer loop
vertex 219.47 93.8143 521.509
vertex 222.2 95.9058 517.575
vertex 217.982 93.5873 521.936
endloop
endfacet
facet normal 2.18559e-005 0.882944 0.469479
outer loop
vertex 219.47 93.8143 521.509
vertex 217.982 93.5873 521.936
vertex 218.745 93.6733 521.774
endloop
endfacet
facet normal 6.51816e-005 0.882976 0.469418
outer loop
vertex 220.736 98.5046 512.688
vertex 220.139 98.7438 512.238
vertex 221.245 98.2245 513.215
endloop
endfacet
facet normal 2.7726e-007 0.882946 0.469475
outer loop
vertex 221.245 98.2245 513.215
vertex 220.139 98.7438 512.238
vertex 210.2 95.4363 518.458
endloop
endfacet
facet normal 7.52169e-006 0.882939 0.469487
outer loop
vertex 221.245 98.2245 513.215
vertex 210.2 95.4363 518.458
vertex 221.655 97.9104 513.805
endloop
endfacet
facet normal -4.13188e-006 0.882951 0.469465
outer loop
vertex 221.655 97.9104 513.805
vertex 210.2 95.4363 518.458
vertex 221.955 97.5701 514.445
endloop
endfacet
facet normal -2.18546e-005 0.882944 0.469479
outer loop
vertex 3.45492 93.6733 521.774
vertex 4.21783 93.5873 521.936
vertex 2.73005 93.8143 521.509
endloop
endfacet
facet normal -1.44778e-005 0.882954 0.469459
outer loop
vertex 2.73005 93.8143 521.509
vertex 4.21783 93.5873 521.936
vertex 12 97.3142 514.927
endloop
endfacet
facet normal 2.65312e-006 0.882944 0.469478
outer loop
vertex 2.73005 93.8143 521.509
vertex 12 97.3142 514.927
vertex 2.06108 94.0067 521.147
endloop
endfacet
facet normal 2.7726e-007 0.882946 0.469475
outer loop
vertex 2.06108 94.0067 521.147
vertex 12 97.3142 514.927
vertex 0.954919 94.5261 520.17
endloop
endfacet
facet normal 0.000142551 0.883013 0.469349
outer loop
vertex 2.06108 94.0067 521.147
vertex 0.954919 94.5261 520.17
vertex 1.46447 94.246 520.697
endloop
endfacet
facet normal 1 0 0
outer loop
vertex 198.2 275.713 179.406
vertex 198.2 99.1921 511.395
vertex 198.2 270.416 176.59
endloop
endfacet
facet normal 1 0 0
outer loop
vertex 198.2 270.416 176.59
vertex 198.2 99.1921 511.395
vertex 198.2 93.8944 508.578
endloop
endfacet
facet normal 0 -0.469475 0.882946
outer loop
vertex 198.2 275.713 179.406
vertex 198.2 270.416 176.59
vertex 204.2 275.713 179.406
endloop
endfacet
facet normal 0 -0.469475 0.882946
outer loop
vertex 204.2 275.713 179.406
vertex 198.2 270.416 176.59
vertex 204.2 270.416 176.59
endloop
endfacet
facet normal 1 0 0
outer loop
vertex 204.2 275.713 179.406
vertex 204.2 270.416 176.59
vertex 204.2 277.591 175.875
endloop
endfacet
facet normal 1 0 0
outer loop
vertex 204.2 277.591 175.875
vertex 204.2 270.416 176.59
vertex 204.2 272.294 173.058
endloop
endfacet
facet normal 0 -0.469467 0.88295
outer loop
vertex 204.2 277.591 175.875
vertex 204.2 272.294 173.058
vertex 210.2 277.591 175.875
endloop
endfacet
facet normal 0 -0.469467 0.88295
outer loop
vertex 210.2 277.591 175.875
vertex 204.2 272.294 173.058
vertex 210.2 272.294 173.058
endloop
endfacet
facet normal -1 0 0
outer loop
vertex 210.2 277.591 175.875
vertex 210.2 272.294 173.058
vertex 210.2 275.713 179.406
endloop
endfacet
facet normal -1 0 0
outer loop
vertex 210.2 275.713 179.406
vertex 210.2 272.294 173.058
vertex 210.2 270.416 176.59
endloop
endfacet
facet normal 0 -0.469475 0.882946
outer loop
vertex 210.2 275.713 179.406
vertex 210.2 270.416 176.59
vertex 217.2 275.713 179.406
endloop
endfacet
facet normal 0 -0.469475 0.882946
outer loop
vertex 217.2 275.713 179.406
vertex 210.2 270.416 176.59
vertex 217.2 270.416 176.59
endloop
endfacet
facet normal 0.0784589 -0.468028 0.880224
outer loop
vertex 217.2 275.713 179.406
vertex 217.2 270.416 176.59
vertex 217.982 275.742 179.352
endloop
endfacet
facet normal 0.0784759 -0.468029 0.880222
outer loop
vertex 217.982 275.742 179.352
vertex 217.2 270.416 176.59
vertex 217.982 270.445 176.535
endloop
endfacet
facet normal 0.233445 -0.456506 0.858549
outer loop
vertex 217.982 275.742 179.352
vertex 217.982 270.445 176.535
vertex 218.745 275.828 179.19
endloop
endfacet
facet normal 0.233445 -0.456506 0.858549
outer loop
vertex 218.745 275.828 179.19
vertex 217.982 270.445 176.535
vertex 218.745 270.531 176.374
endloop
endfacet
facet normal 0.382693 -0.433739 0.815731
outer loop
vertex 218.745 275.828 179.19
vertex 218.745 270.531 176.374
vertex 219.47 275.969 178.925
endloop
endfacet
facet normal 0.382677 -0.43374 0.815738
outer loop
vertex 219.47 275.969 178.925
vertex 218.745 270.531 176.374
vertex 219.47 270.672 176.108
endloop
endfacet
facet normal 0.522531 -0.400284 0.752818
outer loop
vertex 219.47 275.969 178.925
vertex 219.47 270.672 176.108
vertex 220.139 276.162 178.563
endloop
endfacet
facet normal 0.522468 -0.400294 0.752856
outer loop
vertex 220.139 276.162 178.563
vertex 219.47 270.672 176.108
vertex 220.139 270.864 175.747
endloop
endfacet
facet normal 0.649432 -0.356991 0.671413
outer loop
vertex 220.139 276.162 178.563
vertex 220.139 270.864 175.747
vertex 220.736 276.401 178.113
endloop
endfacet
facet normal 0.649492 -0.356976 0.671363
outer loop
vertex 220.736 276.401 178.113
vertex 220.139 270.864 175.747
vertex 220.736 271.103 175.297
endloop
endfacet
facet normal 0.760415 -0.304896 0.573417
outer loop
vertex 220.736 276.401 178.113
vertex 220.736 271.103 175.297
vertex 221.245 276.681 177.587
endloop
endfacet
facet normal 0.760371 -0.304912 0.573466
outer loop
vertex 221.245 276.681 177.587
vertex 220.736 271.103 175.297
vertex 221.245 271.383 174.77
endloop
endfacet
facet normal 0.852637 -0.245297 0.461345
outer loop
vertex 221.245 276.681 177.587
vertex 221.245 271.383 174.77
vertex 221.655 276.995 176.996
endloop
endfacet
facet normal 0.852642 -0.245294 0.461337
outer loop
vertex 221.655 276.995 176.996
vertex 221.245 271.383 174.77
vertex 221.655 271.697 174.179
endloop
endfacet
facet normal 0.923875 -0.179663 0.3379
outer loop
vertex 221.655 276.995 176.996
vertex 221.655 271.697 174.179
vertex 221.955 277.335 176.356
endloop
endfacet
facet normal 0.923882 -0.179657 0.337884
outer loop
vertex 221.955 277.335 176.356
vertex 221.655 271.697 174.179
vertex 221.955 272.038 173.539
endloop
endfacet
facet normal 0.972378 -0.10958 0.206089
outer loop
vertex 221.955 277.335 176.356
vertex 221.955 272.038 173.539
vertex 222.138 277.694 175.682
endloop
endfacet
facet normal 0.972375 -0.109584 0.2061
outer loop
vertex 222.138 277.694 175.682
vertex 221.955 272.038 173.539
vertex 222.138 272.396 172.866
endloop
endfacet
facet normal 0.996915 -0.0368508 0.069307
outer loop
vertex 222.138 277.694 175.682
vertex 222.138 272.396 172.866
vertex 222.2 278.061 174.992
endloop
endfacet
facet normal 0.996915 -0.0368489 0.0693019
outer loop
vertex 222.2 278.061 174.992
vertex 222.138 272.396 172.866
vertex 222.2 272.763 172.175
endloop
endfacet
facet normal 1 0 0
outer loop
vertex 222.2 278.061 174.992
vertex 222.2 272.763 172.175
vertex 222.2 279 173.226
endloop
endfacet
facet normal 1 0 0
outer loop
vertex 222.2 279 173.226
vertex 222.2 272.763 172.175
vertex 222.2 273.702 170.409
endloop
endfacet
facet normal 0.996915 0.0368493 -0.0693032
outer loop
vertex 222.2 279 173.226
vertex 222.2 273.702 170.409
vertex 222.138 279.367 172.535
endloop
endfacet
facet normal 0.996915 0.0368508 -0.069307
outer loop
vertex 222.138 279.367 172.535
vertex 222.2 273.702 170.409
vertex 222.138 274.069 169.718
endloop
endfacet
facet normal 0.972375 0.109584 -0.2061
outer loop
vertex 222.138 279.367 172.535
vertex 222.138 274.069 169.718
vertex 221.955 279.725 171.862
endloop
endfacet
facet normal 0.972379 0.109579 -0.206085
outer loop
vertex 221.955 279.725 171.862
vertex 222.138 274.069 169.718
vertex 221.955 274.427 169.045
endloop
endfacet
facet normal 0.923885 0.179654 -0.337877
outer loop
vertex 221.955 279.725 171.862
vertex 221.955 274.427 169.045
vertex 221.655 280.065 171.222
endloop
endfacet
facet normal 0.923875 0.179663 -0.337901
outer loop
vertex 221.655 280.065 171.222
vertex 221.955 274.427 169.045
vertex 221.655 274.768 168.405
endloop
endfacet
facet normal 0.852637 0.245298 -0.461344
outer loop
vertex 221.655 280.065 171.222
vertex 221.655 274.768 168.405
vertex 221.245 280.379 170.631
endloop
endfacet
facet normal 0.852637 0.245298 -0.461344
outer loop
vertex 221.245 280.379 170.631
vertex 221.655 274.768 168.405
vertex 221.245 275.082 167.814
endloop
endfacet
facet normal 0.760379 0.30491 -0.573458
outer loop
vertex 221.245 280.379 170.631
vertex 221.245 275.082 167.814
vertex 220.736 280.66 170.104
endloop
endfacet
facet normal 0.760408 0.304899 -0.573425
outer loop
vertex 220.736 280.66 170.104
vertex 221.245 275.082 167.814
vertex 220.736 275.362 167.287
endloop
endfacet
facet normal 0.649482 0.356978 -0.671371
outer loop
vertex 220.736 280.66 170.104
vertex 220.736 275.362 167.287
vertex 220.139 280.899 169.654
endloop
endfacet
facet normal 0.649452 0.356986 -0.671396
outer loop
vertex 220.139 280.899 169.654
vertex 220.736 275.362 167.287
vertex 220.139 275.601 166.837
endloop
endfacet
facet normal 0.522481 0.400293 -0.752847
outer loop
vertex 220.139 280.899 169.654
vertex 220.139 275.601 166.837
vertex 219.47 281.091 169.292
endloop
endfacet
facet normal 0.522505 0.40029 -0.752832
outer loop
vertex 219.47 281.091 169.292
vertex 220.139 275.601 166.837
vertex 219.47 275.794 166.475
endloop
endfacet
facet normal 0.382693 0.433735 -0.815733
outer loop
vertex 219.47 281.091 169.292
vertex 219.47 275.794 166.475
vertex 218.745 281.232 169.027
endloop
endfacet
facet normal 0.382693 0.433735 -0.815733
outer loop
vertex 218.745 281.232 169.027
vertex 219.47 275.794 166.475
vertex 218.745 275.934 166.21
endloop
endfacet
facet normal 0.233411 0.456505 -0.858558
outer loop
vertex 218.745 281.232 169.027
vertex 218.745 275.934 166.21
vertex 217.982 281.318 168.865
endloop
endfacet
facet normal 0.233445 0.456506 -0.858549
outer loop
vertex 217.982 281.318 168.865
vertex 218.745 275.934 166.21
vertex 217.982 276.02 166.049
endloop
endfacet
facet normal 0.0784941 0.468029 -0.88022
outer loop
vertex 217.982 281.318 168.865
vertex 217.982 276.02 166.049
vertex 217.2 281.347 168.811
endloop
endfacet
facet normal 0.0784589 0.468026 -0.880225
outer loop
vertex 217.2 281.347 168.811
vertex 217.982 276.02 166.049
vertex 217.2 276.049 165.994
endloop
endfacet
facet normal 0 0.469473 -0.882947
outer loop
vertex 217.2 281.347 168.811
vertex 217.2 276.049 165.994
vertex 210.2 281.347 168.811
endloop
endfacet
facet normal 0 0.469473 -0.882947
outer loop
vertex 210.2 281.347 168.811
vertex 217.2 276.049 165.994
vertex 210.2 276.049 165.994
endloop
endfacet
facet normal -1 0 0
outer loop
vertex 210.2 281.347 168.811
vertex 210.2 276.049 165.994
vertex 210.2 279.469 172.343
endloop
endfacet
facet normal -1 0 0
outer loop
vertex 210.2 279.469 172.343
vertex 210.2 276.049 165.994
vertex 210.2 274.171 169.526
endloop
endfacet
facet normal 0 0.469473 -0.882947
outer loop
vertex 210.2 279.469 172.343
vertex 210.2 274.171 169.526
vertex 204.2 279.469 172.343
endloop
endfacet
facet normal 0 0.469473 -0.882947
outer loop
vertex 204.2 279.469 172.343
vertex 210.2 274.171 169.526
vertex 204.2 274.171 169.526
endloop
endfacet
facet normal 1 0 0
outer loop
vertex 204.2 279.469 172.343
vertex 204.2 274.171 169.526
vertex 204.2 281.347 168.811
endloop
endfacet
facet normal 1 0 0
outer loop
vertex 204.2 281.347 168.811
vertex 204.2 274.171 169.526
vertex 204.2 276.049 165.994
endloop
endfacet
facet normal 0 0.469473 -0.882947
outer loop
vertex 204.2 281.347 168.811
vertex 204.2 276.049 165.994
vertex 198.2 281.347 168.811
endloop
endfacet
facet normal 0 0.469473 -0.882947
outer loop
vertex 198.2 281.347 168.811
vertex 204.2 276.049 165.994
vertex 198.2 276.049 165.994
endloop
endfacet
facet normal 1 0 0
outer loop
vertex 198.2 369.608 2.81692
vertex 198.2 281.347 168.811
vertex 198.2 364.31 0.000119209
endloop
endfacet
facet normal 1 0 0
outer loop
vertex 198.2 364.31 0.000119209
vertex 198.2 281.347 168.811
vertex 198.2 276.049 165.994
endloop
endfacet
facet normal 0 0.469466 -0.88295
outer loop
vertex 24 369.608 2.81692
vertex 198.2 369.608 2.81692
vertex 24 364.31 0.000119209
endloop
endfacet
facet normal 0 0.469466 -0.88295
outer loop
vertex 24 364.31 0.000119209
vertex 198.2 369.608 2.81692
vertex 198.2 364.31 0.000119209
endloop
endfacet
facet normal -1 0 0
outer loop
vertex 24 369.608 2.81692
vertex 24 364.31 0.000119209
vertex 24 281.347 168.811
endloop
endfacet
facet normal -1 0 0
outer loop
vertex 24 281.347 168.811
vertex 24 364.31 0.000119209
vertex 24 276.049 165.994
endloop
endfacet
facet normal 0 0.469473 -0.882947
outer loop
vertex 24 281.347 168.811
vertex 24 276.049 165.994
vertex 18 281.347 168.811
endloop
endfacet
facet normal 0 0.469473 -0.882947
outer loop
vertex 18 281.347 168.811
vertex 24 276.049 165.994
vertex 18 276.049 165.994
endloop
endfacet
facet normal -1 0 0
outer loop
vertex 18 281.347 168.811
vertex 18 276.049 165.994
vertex 18 279.469 172.343
endloop
endfacet
facet normal -1 0 0
outer loop
vertex 18 279.469 172.343
vertex 18 276.049 165.994
vertex 18 274.171 169.526
endloop
endfacet
facet normal 0 0.469473 -0.882947
outer loop
vertex 18 279.469 172.343
vertex 18 274.171 169.526
vertex 12 279.469 172.343
endloop
endfacet
facet normal 0 0.469473 -0.882947
outer loop
vertex 12 279.469 172.343
vertex 18 274.171 169.526
vertex 12 274.171 169.526
endloop
endfacet
facet normal 1 0 0
outer loop
vertex 12 279.469 172.343
vertex 12 274.171 169.526
vertex 12 281.347 168.811
endloop
endfacet
facet normal 1 0 0
outer loop
vertex 12 281.347 168.811
vertex 12 274.171 169.526
vertex 12 276.049 165.994
endloop
endfacet
facet normal 0 0.469473 -0.882947
outer loop
vertex 12 281.347 168.811
vertex 12 276.049 165.994
vertex 5 281.347 168.811
endloop
endfacet
facet normal 0 0.469473 -0.882947
outer loop
vertex 5 281.347 168.811
vertex 12 276.049 165.994
vertex 5 276.049 165.994
endloop
endfacet
facet normal -0.0784937 0.468025 -0.880223
outer loop
vertex 5 281.347 168.811
vertex 5 276.049 165.994
vertex 4.21783 281.318 168.865
endloop
endfacet
facet normal -0.0784585 0.46803 -0.880223
outer loop
vertex 4.21783 281.318 168.865
vertex 5 276.049 165.994
vertex 4.21783 276.02 166.049
endloop
endfacet
facet normal -0.233409 0.45651 -0.858557
outer loop
vertex 4.21783 281.318 168.865
vertex 4.21783 276.02 166.049
vertex 3.45492 281.232 169.027
endloop
endfacet
facet normal -0.233442 0.456502 -0.858552
outer loop
vertex 3.45492 281.232 169.027
vertex 4.21783 276.02 166.049
vertex 3.45492 275.934 166.21
endloop
endfacet
facet normal -0.3827 0.433733 -0.81573
outer loop
vertex 3.45492 281.232 169.027
vertex 3.45492 275.934 166.21
vertex 2.73005 281.091 169.292
endloop
endfacet
facet normal -0.3827 0.433733 -0.81573
outer loop
vertex 2.73005 281.091 169.292
vertex 3.45492 275.934 166.21
vertex 2.73005 275.794 166.475
endloop
endfacet
facet normal -0.522474 0.400299 -0.752849
outer loop
vertex 2.73005 281.091 169.292
vertex 2.73005 275.794 166.475
vertex 2.06108 280.899 169.654
endloop
endfacet
facet normal -0.522498 0.400289 -0.752838
outer loop
vertex 2.06108 280.899 169.654
vertex 2.73005 275.794 166.475
vertex 2.06108 275.601 166.837
endloop
endfacet
facet normal -0.649481 0.356974 -0.671375
outer loop
vertex 2.06108 280.899 169.654
vertex 2.06108 275.601 166.837
vertex 1.46447 280.66 170.104
endloop
endfacet
facet normal -0.649451 0.356991 -0.671395
outer loop
vertex 1.46447 280.66 170.104
vertex 2.06108 275.601 166.837
vertex 1.46447 275.362 167.287
endloop
endfacet
facet normal -0.760378 0.304915 -0.573456
outer loop
vertex 1.46447 280.66 170.104
vertex 1.46447 275.362 167.287
vertex 0.954919 280.379 170.631
endloop
endfacet
facet normal -0.760408 0.304894 -0.573428
outer loop
vertex 0.954919 280.379 170.631
vertex 1.46447 275.362 167.287
vertex 0.954919 275.082 167.814
endloop
endfacet
facet normal -0.852644 0.245293 -0.461334
outer loop
vertex 0.954919 280.379 170.631
vertex 0.954919 275.082 167.814
vertex 0.544973 280.065 171.222
endloop
endfacet
facet normal -0.852644 0.245293 -0.461334
outer loop
vertex 0.544973 280.065 171.222
vertex 0.954919 275.082 167.814
vertex 0.544973 274.768 168.405
endloop
endfacet
facet normal -0.923883 0.179653 -0.337883
outer loop
vertex 0.544973 280.065 171.222
vertex 0.544973 274.768 168.405
vertex 0.244722 279.725 171.862
endloop
endfacet
facet normal -0.923873 0.179668 -0.337903
outer loop
vertex 0.244722 279.725 171.862
vertex 0.544973 274.768 168.405
vertex 0.244722 274.427 169.045
endloop
endfacet
facet normal -0.972369 0.109598 -0.206122
outer loop
vertex 0.244722 279.725 171.862
vertex 0.244722 274.427 169.045
vertex 0.0615641 279.367 172.535
endloop
endfacet
facet normal -0.972373 0.109589 -0.206109
outer loop
vertex 0.0615641 279.367 172.535
vertex 0.244722 274.427 169.045
vertex 0.0615641 274.069 169.718
endloop
endfacet
facet normal -0.996917 0.0368368 -0.0692807
outer loop
vertex 0.0615641 279.367 172.535
vertex 0.0615641 274.069 169.718
vertex 0 279 173.226
endloop
endfacet
facet normal -0.996917 0.0368391 -0.069284
outer loop
vertex 0 279 173.226
vertex 0.0615641 274.069 169.718
vertex 0 273.702 170.409
endloop
endfacet
facet normal -1 0 0
outer loop
vertex 0 279 173.226
vertex 0 273.702 170.409
vertex 0 278.061 174.992
endloop
endfacet
facet normal -1 0 0
outer loop
vertex 0 278.061 174.992
vertex 0 273.702 170.409
vertex 0 272.763 172.175
endloop
endfacet
facet normal -0.996917 -0.0368393 0.0692839
outer loop
vertex 0 278.061 174.992
vertex 0 272.763 172.175
vertex 0.0615641 277.694 175.682
endloop
endfacet
facet normal -0.996917 -0.0368361 0.0692795
outer loop
vertex 0.0615641 277.694 175.682
vertex 0 272.763 172.175
vertex 0.0615641 272.396 172.866
endloop
endfacet
facet normal -0.972372 -0.109591 0.206113
outer loop
vertex 0.0615641 277.694 175.682
vertex 0.0615641 272.396 172.866
vertex 0.244722 277.335 176.356
endloop
endfacet
facet normal -0.972369 -0.109598 0.206122
outer loop
vertex 0.244722 277.335 176.356
vertex 0.0615641 272.396 172.866
vertex 0.244722 272.038 173.539
endloop
endfacet
facet normal -0.923873 -0.179667 0.337903
outer loop
vertex 0.244722 277.335 176.356
vertex 0.244722 272.038 173.539
vertex 0.544973 276.995 176.996
endloop
endfacet
facet normal -0.92388 -0.179656 0.337888
outer loop
vertex 0.544973 276.995 176.996
vertex 0.244722 272.038 173.539
vertex 0.544973 271.697 174.179
endloop
endfacet
facet normal -0.852644 -0.245293 0.461334
outer loop
vertex 0.544973 276.995 176.996
vertex 0.544973 271.697 174.179
vertex 0.954919 276.681 177.587
endloop
endfacet
facet normal -0.852649 -0.245288 0.461327
outer loop
vertex 0.954919 276.681 177.587
vertex 0.544973 271.697 174.179
vertex 0.954919 271.383 174.77
endloop
endfacet
facet normal -0.760415 -0.304888 0.573421
outer loop
vertex 0.954919 276.681 177.587
vertex 0.954919 271.383 174.77
vertex 1.46447 276.401 178.113
endloop
endfacet
facet normal -0.760371 -0.30492 0.573463
outer loop
vertex 1.46447 276.401 178.113
vertex 0.954919 271.383 174.77
vertex 1.46447 271.103 175.297
endloop
endfacet
facet normal -0.649431 -0.357 0.671409
outer loop
vertex 1.46447 276.401 178.113
vertex 1.46447 271.103 175.297
vertex 2.06108 276.162 178.563
endloop
endfacet
facet normal -0.649491 -0.356967 0.671369
outer loop
vertex 2.06108 276.162 178.563
vertex 1.46447 271.103 175.297
vertex 2.06108 270.864 175.747
endloop
endfacet
facet normal -0.522524 -0.400278 0.752826
outer loop
vertex 2.06108 276.162 178.563
vertex 2.06108 270.864 175.747
vertex 2.73005 275.969 178.925
endloop
endfacet
facet normal -0.522461 -0.400304 0.752855
outer loop
vertex 2.73005 275.969 178.925
vertex 2.06108 270.864 175.747
vertex 2.73005 270.672 176.108
endloop
endfacet
facet normal -0.3827 -0.433735 0.815729
outer loop
vertex 2.73005 275.969 178.925
vertex 2.73005 270.672 176.108
vertex 3.45492 275.828 179.19
endloop
endfacet
facet normal -0.382685 -0.43374 0.815734
outer loop
vertex 3.45492 275.828 179.19
vertex 2.73005 270.672 176.108
vertex 3.45492 270.531 176.374
endloop
endfacet
facet normal -0.233442 -0.456506 0.858549
outer loop
vertex 3.45492 275.828 179.19
vertex 3.45492 270.531 176.374
vertex 4.21783 275.742 179.352
endloop
endfacet
facet normal -0.233442 -0.456506 0.858549
outer loop
vertex 4.21783 275.742 179.352
vertex 3.45492 270.531 176.374
vertex 4.21783 270.445 176.535
endloop
endfacet
facet normal -0.0784585 -0.46803 0.880223
outer loop
vertex 4.21783 275.742 179.352
vertex 4.21783 270.445 176.535
vertex 5 275.713 179.406
endloop
endfacet
facet normal -0.0784756 -0.468027 0.880223
outer loop
vertex 5 275.713 179.406
vertex 4.21783 270.445 176.535
vertex 5 270.416 176.59
endloop
endfacet
facet normal 0 -0.469475 0.882946
outer loop
vertex 5 275.713 179.406
vertex 5 270.416 176.59
vertex 12 275.713 179.406
endloop
endfacet
facet normal 0 -0.469475 0.882946
outer loop
vertex 12 275.713 179.406
vertex 5 270.416 176.59
vertex 12 270.416 176.59
endloop
endfacet
facet normal 1 0 0
outer loop
vertex 12 275.713 179.406
vertex 12 270.416 176.59
vertex 12 277.591 175.875
endloop
endfacet
facet normal 1 0 0
outer loop
vertex 12 277.591 175.875
vertex 12 270.416 176.59
vertex 12 272.294 173.058
endloop
endfacet
facet normal 0 -0.469467 0.88295
outer loop
vertex 12 277.591 175.875
vertex 12 272.294 173.058
vertex 18 277.591 175.875
endloop
endfacet
facet normal 0 -0.469467 0.88295
outer loop
vertex 18 277.591 175.875
vertex 12 272.294 173.058
vertex 18 272.294 173.058
endloop
endfacet
facet normal -1 0 0
outer loop
vertex 18 277.591 175.875
vertex 18 272.294 173.058
vertex 18 275.713 179.406
endloop
endfacet
facet normal -1 0 0
outer loop
vertex 18 275.713 179.406
vertex 18 272.294 173.058
vertex 18 270.416 176.59
endloop
endfacet
facet normal 0 -0.469475 0.882946
outer loop
vertex 18 275.713 179.406
vertex 18 270.416 176.59
vertex 24 275.713 179.406
endloop
endfacet
facet normal 0 -0.469475 0.882946
outer loop
vertex 24 275.713 179.406
vertex 18 270.416 176.59
vertex 24 270.416 176.59
endloop
endfacet
facet normal -1 0 0
outer loop
vertex 24 275.713 179.406
vertex 24 270.416 176.59
vertex 24 99.1921 511.395
endloop
endfacet
facet normal -1 0 0
outer loop
vertex 24 99.1921 511.395
vertex 24 270.416 176.59
vertex 24 93.8944 508.578
endloop
endfacet
facet normal 0 0.469468 -0.88295
outer loop
vertex 24 99.1921 511.395
vertex 24 93.8944 508.578
vertex 18 99.1921 511.395
endloop
endfacet
facet normal 0 0.469468 -0.88295
outer loop
vertex 18 99.1921 511.395
vertex 24 93.8944 508.578
vertex 18 93.8944 508.578
endloop
endfacet
facet normal -1 0 0
outer loop
vertex 18 99.1921 511.395
vertex 18 93.8944 508.578
vertex 18 97.3142 514.927
endloop
endfacet
facet normal -1 0 0
outer loop
vertex 18 97.3142 514.927
vertex 18 93.8944 508.578
vertex 18 92.0165 512.11
endloop
endfacet
facet normal 0 0.46948 -0.882943
outer loop
vertex 18 97.3142 514.927
vertex 18 92.0165 512.11
vertex 12 97.3142 514.927
endloop
endfacet
facet normal 0 0.46948 -0.882943
outer loop
vertex 12 97.3142 514.927
vertex 18 92.0165 512.11
vertex 12 92.0165 512.11
endloop
endfacet
facet normal 1 0 0
outer loop
vertex 12 97.3142 514.927
vertex 12 92.0165 512.11
vertex 12 99.1921 511.395
endloop
endfacet
facet normal 1 0 0
outer loop
vertex 12 99.1921 511.395
vertex 12 92.0165 512.11
vertex 12 93.8944 508.578
endloop
endfacet
facet normal 0 0.469468 -0.88295
outer loop
vertex 12 99.1921 511.395
vertex 12 93.8944 508.578
vertex 5 99.1921 511.395
endloop
endfacet
facet normal 0 0.469468 -0.88295
outer loop
vertex 5 99.1921 511.395
vertex 12 93.8944 508.578
vertex 5 93.8944 508.578
endloop
endfacet
facet normal -0.0784585 0.468021 -0.880228
outer loop
vertex 5 99.1921 511.395
vertex 5 93.8944 508.578
vertex 4.21783 99.1632 511.449
endloop
endfacet
facet normal -0.0784585 0.468021 -0.880228
outer loop
vertex 4.21783 99.1632 511.449
vertex 5 93.8944 508.578
vertex 4.21783 93.8655 508.632
endloop
endfacet
facet normal -0.233438 0.456497 -0.858555
outer loop
vertex 4.21783 99.1632 511.449
vertex 4.21783 93.8655 508.632
vertex 3.45492 99.0772 511.611
endloop
endfacet
facet normal -0.233373 0.456512 -0.858565
outer loop
vertex 3.45492 99.0772 511.611
vertex 4.21783 93.8655 508.632
vertex 3.45492 93.7795 508.794
endloop
endfacet
facet normal -0.38269 0.433738 -0.815733
outer loop
vertex 3.45492 99.0772 511.611
vertex 3.45492 93.7795 508.794
vertex 2.73005 98.9362 511.876
endloop
endfacet
facet normal -0.382711 0.433731 -0.815726
outer loop
vertex 2.73005 98.9362 511.876
vertex 3.45492 93.7795 508.794
vertex 2.73005 93.6386 509.059
endloop
endfacet
facet normal -0.522526 0.400283 -0.752821
outer loop
vertex 2.73005 98.9362 511.876
vertex 2.73005 93.6386 509.059
vertex 2.06108 98.7438 512.238
endloop
endfacet
facet normal -0.522505 0.400292 -0.752831
outer loop
vertex 2.06108 98.7438 512.238
vertex 2.73005 93.6386 509.059
vertex 2.06108 93.4461 509.421
endloop
endfacet
facet normal -0.649439 0.356996 -0.671404
outer loop
vertex 2.06108 98.7438 512.238
vertex 2.06108 93.4461 509.421
vertex 1.46447 98.5046 512.688
endloop
endfacet
facet normal -0.649441 0.356995 -0.671402
outer loop
vertex 1.46447 98.5046 512.688
vertex 2.06108 93.4461 509.421
vertex 1.46447 93.2069 509.871
endloop
endfacet
facet normal -0.760417 0.304894 -0.573416
outer loop
vertex 1.46447 98.5046 512.688
vertex 1.46447 93.2069 509.871
vertex 0.954919 98.2245 513.215
endloop
endfacet
facet normal -0.760413 0.304897 -0.573419
outer loop
vertex 0.954919 98.2245 513.215
vertex 1.46447 93.2069 509.871
vertex 0.954919 92.9268 510.398
endloop
endfacet
facet normal -0.852631 0.245308 -0.46135
outer loop
vertex 0.954919 98.2245 513.215
vertex 0.954919 92.9268 510.398
vertex 0.544973 97.9104 513.805
endloop
endfacet
facet normal -0.852641 0.245298 -0.461338
outer loop
vertex 0.544973 97.9104 513.805
vertex 0.954919 92.9268 510.398
vertex 0.544973 92.6127 510.988
endloop
endfacet
facet normal -0.923877 0.179662 -0.337894
outer loop
vertex 0.544973 97.9104 513.805
vertex 0.544973 92.6127 510.988
vertex 0.244722 97.5701 514.445
endloop
endfacet
facet normal -0.923874 0.179667 -0.337901
outer loop
vertex 0.244722 97.5701 514.445
vertex 0.544973 92.6127 510.988
vertex 0.244722 92.2724 511.628
endloop
endfacet
facet normal -0.972369 0.109599 -0.206124
outer loop
vertex 0.244722 97.5701 514.445
vertex 0.244722 92.2724 511.628
vertex 0.0615641 97.212 515.119
endloop
endfacet
facet normal -0.972374 0.109586 -0.206105
outer loop
vertex 0.0615641 97.212 515.119
vertex 0.244722 92.2724 511.628
vertex 0.0615641 91.9143 512.302
endloop
endfacet
facet normal -0.996917 0.0368375 -0.0692827
outer loop
vertex 0.0615641 97.212 515.119
vertex 0.0615641 91.9143 512.302
vertex 0 96.8447 515.809
endloop
endfacet
facet normal -0.996916 0.0368404 -0.0692868
outer loop
vertex 0 96.8447 515.809
vertex 0.0615641 91.9143 512.302
vertex 0 91.5471 512.993
endloop
endfacet
facet normal -1 0 0
outer loop
vertex 0 96.8447 515.809
vertex 0 91.5471 512.993
vertex 0 95.9058 517.575
endloop
endfacet
facet normal -1 0 0
outer loop
vertex 0 95.9058 517.575
vertex 0 91.5471 512.993
vertex 0 90.6081 514.759
endloop
endfacet
facet normal -0.996917 -0.0368381 0.0692823
outer loop
vertex 0 95.9058 517.575
vertex 0 90.6081 514.759
vertex 0.0615641 95.5386 518.266
endloop
endfacet
facet normal -0.996917 -0.0368381 0.0692823
outer loop
vertex 0.0615641 95.5386 518.266
vertex 0 90.6081 514.759
vertex 0.0615641 90.2409 515.449
endloop
endfacet
facet normal -0.972373 -0.109591 0.20611
outer loop
vertex 0.0615641 95.5386 518.266
vertex 0.0615641 90.2409 515.449
vertex 0.244722 95.1804 518.94
endloop
endfacet
facet normal -0.972369 -0.1096 0.206122
outer loop
vertex 0.244722 95.1804 518.94
vertex 0.0615641 90.2409 515.449
vertex 0.244722 89.8827 516.123
endloop
endfacet
facet normal -0.923878 -0.179664 0.337891
outer loop
vertex 0.244722 95.1804 518.94
vertex 0.244722 89.8827 516.123
vertex 0.544973 94.8401 519.58
endloop
endfacet
facet normal -0.923887 -0.17965 0.337873
outer loop
vertex 0.544973 94.8401 519.58
vertex 0.244722 89.8827 516.123
vertex 0.544973 89.5424 516.763
endloop
endfacet
facet normal -0.852631 -0.245305 0.461351
outer loop
vertex 0.544973 94.8401 519.58
vertex 0.544973 89.5424 516.763
vertex 0.954919 94.5261 520.17
endloop
endfacet
facet normal -0.852631 -0.245305 0.461351
outer loop
vertex 0.954919 94.5261 520.17
vertex 0.544973 89.5424 516.763
vertex 0.954919 89.2284 517.353
endloop
endfacet
facet normal -0.760415 -0.304893 0.573419
outer loop
vertex 0.954919 94.5261 520.17
vertex 0.954919 89.2284 517.353
vertex 1.46447 94.246 520.697
endloop
endfacet
facet normal -0.760388 -0.304913 0.573444
outer loop
vertex 1.46447 94.246 520.697
vertex 0.954919 89.2284 517.353
vertex 1.46447 88.9483 517.88
endloop
endfacet
facet normal -0.649441 -0.356998 0.6714
outer loop
vertex 1.46447 94.246 520.697
vertex 1.46447 88.9483 517.88
vertex 2.06108 94.0067 521.147
endloop
endfacet
facet normal -0.649478 -0.356977 0.671375
outer loop
vertex 2.06108 94.0067 521.147
vertex 1.46447 88.9483 517.88
vertex 2.06108 88.7091 518.33
endloop
endfacet
facet normal -0.522476 -0.400297 0.752848
outer loop
vertex 2.06108 94.0067 521.147
vertex 2.06108 88.7091 518.33
vertex 2.73005 93.8143 521.509
endloop
endfacet
facet normal -0.522526 -0.400276 0.752825
outer loop
vertex 2.73005 93.8143 521.509
vertex 2.06108 88.7091 518.33
vertex 2.73005 88.5166 518.692
endloop
endfacet
facet normal -0.382715 -0.433722 0.815729
outer loop
vertex 2.73005 93.8143 521.509
vertex 2.73005 88.5166 518.692
vertex 3.45492 93.6733 521.774
endloop
endfacet
facet normal -0.38266 -0.43374 0.815746
outer loop
vertex 3.45492 93.6733 521.774
vertex 2.73005 88.5166 518.692
vertex 3.45492 88.3756 518.957
endloop
endfacet
facet normal -0.233466 -0.456498 0.858547
outer loop
vertex 3.45492 93.6733 521.774
vertex 3.45492 88.3756 518.957
vertex 4.21783 93.5873 521.936
endloop
endfacet
facet normal -0.233401 -0.456513 0.858557
outer loop
vertex 4.21783 93.5873 521.936
vertex 3.45492 88.3756 518.957
vertex 4.21783 88.2897 519.119
endloop
endfacet
facet normal -0.0784244 -0.468034 0.880224
outer loop
vertex 4.21783 93.5873 521.936
vertex 4.21783 88.2897 519.119
vertex 5 93.5584 521.99
endloop
endfacet
facet normal -0.0784926 -0.468023 0.880223
outer loop
vertex 5 93.5584 521.99
vertex 4.21783 88.2897 519.119
vertex 5 88.2608 519.173
endloop
endfacet
facet normal 0 -0.469472 0.882948
outer loop
vertex 5 93.5584 521.99
vertex 5 88.2608 519.173
vertex 12 93.5584 521.99
endloop
endfacet
facet normal 0 -0.469472 0.882948
outer loop
vertex 12 93.5584 521.99
vertex 5 88.2608 519.173
vertex 12 88.2608 519.173
endloop
endfacet
facet normal 1 0 0
outer loop
vertex 12 93.5584 521.99
vertex 12 88.2608 519.173
vertex 12 95.4363 518.458
endloop
endfacet
facet normal 1 0 0
outer loop
vertex 12 95.4363 518.458
vertex 12 88.2608 519.173
vertex 12 90.1386 515.642
endloop
endfacet
facet normal 0 -0.469464 0.882951
outer loop
vertex 12 95.4363 518.458
vertex 12 90.1386 515.642
vertex 18 95.4363 518.458
endloop
endfacet
facet normal 0 -0.469464 0.882951
outer loop
vertex 18 95.4363 518.458
vertex 12 90.1386 515.642
vertex 18 90.1386 515.642
endloop
endfacet
facet normal -1 0 0
outer loop
vertex 18 95.4363 518.458
vertex 18 90.1386 515.642
vertex 18 93.5584 521.99
endloop
endfacet
facet normal -1 0 0
outer loop
vertex 18 93.5584 521.99
vertex 18 90.1386 515.642
vertex 18 88.2608 519.173
endloop
endfacet
facet normal 0 -0.469472 0.882948
outer loop
vertex 18 93.5584 521.99
vertex 18 88.2608 519.173
vertex 24 93.5584 521.99
endloop
endfacet
facet normal 0 -0.469472 0.882948
outer loop
vertex 24 93.5584 521.99
vertex 18 88.2608 519.173
vertex 24 88.2608 519.173
endloop
endfacet
facet normal -1 0 0
outer loop
vertex 24 93.5584 521.99
vertex 24 88.2608 519.173
vertex 24 5.29779 687.984
endloop
endfacet
facet normal -1 0 0
outer loop
vertex 24 5.29779 687.984
vertex 24 88.2608 519.173
vertex 24 0.000103078 685.167
endloop
endfacet
facet normal 0 -0.46948 0.882943
outer loop
vertex 24 5.29779 687.984
vertex 24 0.000103078 685.167
vertex 198.2 5.29779 687.984
endloop
endfacet
facet normal 0 -0.46948 0.882943
outer loop
vertex 198.2 5.29779 687.984
vertex 24 0.000103078 685.167
vertex 198.2 0.000103078 685.167
endloop
endfacet
facet normal 1 0 0
outer loop
vertex 198.2 93.5584 521.99
vertex 198.2 5.29779 687.984
vertex 198.2 88.2608 519.173
endloop
endfacet
facet normal 1 0 0
outer loop
vertex 198.2 88.2608 519.173
vertex 198.2 5.29779 687.984
vertex 198.2 0.000103078 685.167
endloop
endfacet
facet normal 0 -0.469472 0.882948
outer loop
vertex 198.2 93.5584 521.99
vertex 198.2 88.2608 519.173
vertex 204.2 93.5584 521.99
endloop
endfacet
facet normal 0 -0.469472 0.882948
outer loop
vertex 204.2 93.5584 521.99
vertex 198.2 88.2608 519.173
vertex 204.2 88.2608 519.173
endloop
endfacet
facet normal 1 0 0
outer loop
vertex 204.2 93.5584 521.99
vertex 204.2 88.2608 519.173
vertex 204.2 95.4363 518.458
endloop
endfacet
facet normal 1 0 0
outer loop
vertex 204.2 95.4363 518.458
vertex 204.2 88.2608 519.173
vertex 204.2 90.1386 515.642
endloop
endfacet
facet normal 0 -0.469464 0.882951
outer loop
vertex 204.2 95.4363 518.458
vertex 204.2 90.1386 515.642
vertex 210.2 95.4363 518.458
endloop
endfacet
facet normal 0 -0.469464 0.882951
outer loop
vertex 210.2 95.4363 518.458
vertex 204.2 90.1386 515.642
vertex 210.2 90.1386 515.642
endloop
endfacet
facet normal -1 0 0
outer loop
vertex 210.2 95.4363 518.458
vertex 210.2 90.1386 515.642
vertex 210.2 93.5584 521.99
endloop
endfacet
facet normal -1 0 0
outer loop
vertex 210.2 93.5584 521.99
vertex 210.2 90.1386 515.642
vertex 210.2 88.2608 519.173
endloop
endfacet
facet normal 0 -0.469472 0.882948
outer loop
vertex 210.2 93.5584 521.99
vertex 210.2 88.2608 519.173
vertex 217.2 93.5584 521.99
endloop
endfacet
facet normal 0 -0.469472 0.882948
outer loop
vertex 217.2 93.5584 521.99
vertex 210.2 88.2608 519.173
vertex 217.2 88.2608 519.173
endloop
endfacet
facet normal 0.0784248 -0.468026 0.880228
outer loop
vertex 217.2 93.5584 521.99
vertex 217.2 88.2608 519.173
vertex 217.982 93.5873 521.936
endloop
endfacet
facet normal 0.078493 -0.468031 0.880219
outer loop
vertex 217.982 93.5873 521.936
vertex 217.2 88.2608 519.173
vertex 217.982 88.2897 519.119
endloop
endfacet
facet normal 0.233469 -0.456505 0.858543
outer loop
vertex 217.982 93.5873 521.936
vertex 217.982 88.2897 519.119
vertex 218.745 93.6733 521.774
endloop
endfacet
facet normal 0.233404 -0.456505 0.85856
outer loop
vertex 218.745 93.6733 521.774
vertex 217.982 88.2897 519.119
vertex 218.745 88.3756 518.957
endloop
endfacet
facet normal 0.382707 -0.433731 0.815728
outer loop
vertex 218.745 93.6733 521.774
vertex 218.745 88.3756 518.957
vertex 219.47 93.8143 521.509
endloop
endfacet
facet normal 0.382653 -0.433734 0.815752
outer loop
vertex 219.47 93.8143 521.509
vertex 218.745 88.3756 518.957
vertex 219.47 88.5166 518.692
endloop
endfacet
facet normal 0.522483 -0.400288 0.752848
outer loop
vertex 219.47 93.8143 521.509
vertex 219.47 88.5166 518.692
vertex 220.139 94.0067 521.147
endloop
endfacet
facet normal 0.522533 -0.400281 0.752817
outer loop
vertex 220.139 94.0067 521.147
vertex 219.47 88.5166 518.692
vertex 220.139 88.7091 518.33
endloop
endfacet
facet normal 0.649442 -0.356992 0.671403
outer loop
vertex 220.139 94.0067 521.147
vertex 220.139 88.7091 518.33
vertex 220.736 94.246 520.697
endloop
endfacet
facet normal 0.64948 -0.356982 0.671372
outer loop
vertex 220.736 94.246 520.697
vertex 220.139 88.7091 518.33
vertex 220.736 88.9483 517.88
endloop
endfacet
facet normal 0.760415 -0.304897 0.573416
outer loop
vertex 220.736 94.246 520.697
vertex 220.736 88.9483 517.88
vertex 221.245 94.5261 520.17
endloop
endfacet
facet normal 0.760388 -0.304907 0.573447
outer loop
vertex 221.245 94.5261 520.17
vertex 220.736 88.9483 517.88
vertex 221.245 89.2284 517.353
endloop
endfacet
facet normal 0.852625 -0.24531 0.461361
outer loop
vertex 221.245 94.5261 520.17
vertex 221.245 89.2284 517.353
vertex 221.655 94.8401 519.58
endloop
endfacet
facet normal 0.852625 -0.24531 0.461361
outer loop
vertex 221.655 94.8401 519.58
vertex 221.245 89.2284 517.353
vertex 221.655 89.5424 516.763
endloop
endfacet
facet normal 0.92388 -0.179659 0.337889
outer loop
vertex 221.655 94.8401 519.58
vertex 221.655 89.5424 516.763
vertex 221.955 95.1804 518.94
endloop
endfacet
facet normal 0.923889 -0.179651 0.337868
outer loop
vertex 221.955 95.1804 518.94
vertex 221.655 89.5424 516.763
vertex 221.955 89.8827 516.123
endloop
endfacet
facet normal 0.972379 -0.109581 0.206086
outer loop
vertex 221.955 95.1804 518.94
vertex 221.955 89.8827 516.123
vertex 222.138 95.5386 518.266
endloop
endfacet
facet normal 0.972375 -0.109586 0.2061
outer loop
vertex 222.138 95.5386 518.266
vertex 221.955 89.8827 516.123
vertex 222.138 90.2409 515.449
endloop
endfacet
facet normal 0.996915 -0.0368502 0.0693051
outer loop
vertex 222.138 95.5386 518.266
vertex 222.138 90.2409 515.449
vertex 222.2 95.9058 517.575
endloop
endfacet
facet normal 0.996915 -0.0368502 0.0693051
outer loop
vertex 222.2 95.9058 517.575
vertex 222.138 90.2409 515.449
vertex 222.2 90.6081 514.759
endloop
endfacet
facet normal 1 0 0
outer loop
vertex 222.2 95.9058 517.575
vertex 222.2 90.6081 514.759
vertex 222.2 96.8447 515.809
endloop
endfacet
facet normal 1 0 0
outer loop
vertex 222.2 96.8447 515.809
vertex 222.2 90.6081 514.759
vertex 222.2 91.5471 512.993
endloop
endfacet
facet normal 0.996915 0.0368502 -0.0693051
outer loop
vertex 222.2 96.8447 515.809
vertex 222.2 91.5471 512.993
vertex 222.138 97.212 515.119
endloop
endfacet
facet normal 0.996914 0.036852 -0.0693098
outer loop
vertex 222.138 97.212 515.119
vertex 222.2 91.5471 512.993
vertex 222.138 91.9143 512.302
endloop
endfacet
facet normal 0.972375 0.109584 -0.206102
outer loop
vertex 222.138 97.212 515.119
vertex 222.138 91.9143 512.302
vertex 221.955 97.5701 514.445
endloop
endfacet
facet normal 0.97238 0.109576 -0.206081
outer loop
vertex 221.955 97.5701 514.445
vertex 222.138 91.9143 512.302
vertex 221.955 92.2724 511.628
endloop
endfacet
facet normal 0.923879 0.179661 -0.33789
outer loop
vertex 221.955 97.5701 514.445
vertex 221.955 92.2724 511.628
vertex 221.655 97.9104 513.805
endloop
endfacet
facet normal 0.923875 0.179664 -0.337898
outer loop
vertex 221.655 97.9104 513.805
vertex 221.955 92.2724 511.628
vertex 221.655 92.6127 510.988
endloop
endfacet
facet normal 0.852625 0.245311 -0.461361
outer loop
vertex 221.655 97.9104 513.805
vertex 221.655 92.6127 510.988
vertex 221.245 98.2245 513.215
endloop
endfacet
facet normal 0.852634 0.245306 -0.461346
outer loop
vertex 221.245 98.2245 513.215
vertex 221.655 92.6127 510.988
vertex 221.245 92.9268 510.398
endloop
endfacet
facet normal 0.760417 0.304894 -0.573415
outer loop
vertex 221.245 98.2245 513.215
vertex 221.245 92.9268 510.398
vertex 220.736 98.5046 512.688
endloop
endfacet
facet normal 0.760413 0.304896 -0.573419
outer loop
vertex 220.736 98.5046 512.688
vertex 221.245 92.9268 510.398
vertex 220.736 93.2069 509.871
endloop
endfacet
facet normal 0.64944 0.356995 -0.671403
outer loop
vertex 220.736 98.5046 512.688
vertex 220.736 93.2069 509.871
vertex 220.139 98.7438 512.238
endloop
endfacet
facet normal 0.649442 0.356995 -0.671401
outer loop
vertex 220.139 98.7438 512.238
vertex 220.736 93.2069 509.871
vertex 220.139 93.4461 509.421
endloop
endfacet
facet normal 0.522533 0.400284 -0.752816
outer loop
vertex 220.139 98.7438 512.238
vertex 220.139 93.4461 509.421
vertex 219.47 98.9362 511.876
endloop
endfacet
facet normal 0.522512 0.400288 -0.752829
outer loop
vertex 219.47 98.9362 511.876
vertex 220.139 93.4461 509.421
vertex 219.47 93.6386 509.059
endloop
endfacet
facet normal 0.382682 0.433737 -0.815737
outer loop
vertex 219.47 98.9362 511.876
vertex 219.47 93.6386 509.059
vertex 218.745 99.0772 511.611
endloop
endfacet
facet normal 0.382704 0.433735 -0.815728
outer loop
vertex 218.745 99.0772 511.611
vertex 219.47 93.6386 509.059
vertex 218.745 93.7795 508.794
endloop
endfacet
facet normal 0.23344 0.456505 -0.858551
outer loop
vertex 218.745 99.0772 511.611
vertex 218.745 93.7795 508.794
vertex 217.982 99.1632 511.449
endloop
endfacet
facet normal 0.233375 0.456504 -0.858568
outer loop
vertex 217.982 99.1632 511.449
vertex 218.745 93.7795 508.794
vertex 217.982 93.8655 508.632
endloop
endfacet
facet normal 0.0784589 0.468021 -0.880228
outer loop
vertex 217.982 99.1632 511.449
vertex 217.982 93.8655 508.632
vertex 217.2 99.1921 511.395
endloop
endfacet
facet normal 0.0784589 0.468021 -0.880228
outer loop
vertex 217.2 99.1921 511.395
vertex 217.982 93.8655 508.632
vertex 217.2 93.8944 508.578
endloop
endfacet
facet normal 0 0.469468 -0.88295
outer loop
vertex 217.2 99.1921 511.395
vertex 217.2 93.8944 508.578
vertex 210.2 99.1921 511.395
endloop
endfacet
facet normal 0 0.469468 -0.88295
outer loop
vertex 210.2 99.1921 511.395
vertex 217.2 93.8944 508.578
vertex 210.2 93.8944 508.578
endloop
endfacet
facet normal -1 0 0
outer loop
vertex 210.2 99.1921 511.395
vertex 210.2 93.8944 508.578
vertex 210.2 97.3142 514.927
endloop
endfacet
facet normal -1 0 0
outer loop
vertex 210.2 97.3142 514.927
vertex 210.2 93.8944 508.578
vertex 210.2 92.0165 512.11
endloop
endfacet
facet normal 0 0.46948 -0.882943
outer loop
vertex 210.2 97.3142 514.927
vertex 210.2 92.0165 512.11
vertex 204.2 97.3142 514.927
endloop
endfacet
facet normal 0 0.46948 -0.882943
outer loop
vertex 204.2 97.3142 514.927
vertex 210.2 92.0165 512.11
vertex 204.2 92.0165 512.11
endloop
endfacet
facet normal 1 0 0
outer loop
vertex 204.2 97.3142 514.927
vertex 204.2 92.0165 512.11
vertex 204.2 99.1921 511.395
endloop
endfacet
facet normal 1 0 0
outer loop
vertex 204.2 99.1921 511.395
vertex 204.2 92.0165 512.11
vertex 204.2 93.8944 508.578
endloop
endfacet
facet normal 0 0.469468 -0.88295
outer loop
vertex 204.2 99.1921 511.395
vertex 204.2 93.8944 508.578
vertex 198.2 99.1921 511.395
endloop
endfacet
facet normal 0 0.469468 -0.88295
outer loop
vertex 198.2 99.1921 511.395
vertex 204.2 93.8944 508.578
vertex 198.2 93.8944 508.578
endloop
endfacet
facet normal 0 -0.882948 -0.469472
outer loop
vertex 198.2 88.2608 519.173
vertex 198.2 0.000103078 685.167
vertex 24 0.000103078 685.167
endloop
endfacet
facet normal -7.87831e-006 -0.882944 -0.469478
outer loop
vertex 18 270.416 176.59
vertex 18 272.294 173.058
vertex 198.2 364.31 0.000119209
endloop
endfacet
facet normal 0 -0.882945 -0.469477
outer loop
vertex 18 92.0165 512.11
vertex 18 93.8944 508.578
vertex 24 93.8944 508.578
endloop
endfacet
facet normal 0 -0.882945 -0.469477
outer loop
vertex 210.2 88.2608 519.173
vertex 210.2 90.1386 515.642
vertex 217.2 88.2608 519.173
endloop
endfacet
facet normal -1.57142e-005 -0.882958 -0.469452
outer loop
vertex 217.2 88.2608 519.173
vertex 210.2 90.1386 515.642
vertex 217.982 88.2897 519.119
endloop
endfacet
facet normal 0 -0.882948 -0.469472
outer loop
vertex 12 276.049 165.994
vertex 12 274.171 169.526
vertex 5 276.049 165.994
endloop
endfacet
facet normal 7.71436e-007 -0.882947 -0.469473
outer loop
vertex 5 276.049 165.994
vertex 12 274.171 169.526
vertex 4.21783 276.02 166.049
endloop
endfacet
facet normal 1.4161e-005 -0.882943 -0.469481
outer loop
vertex 3.45492 275.934 166.21
vertex 4.21783 276.02 166.049
vertex 12 272.294 173.058
endloop
endfacet
facet normal -3.32097e-006 -0.882951 -0.469466
outer loop
vertex 12 272.294 173.058
vertex 4.21783 276.02 166.049
vertex 12 274.171 169.526
endloop
endfacet
facet normal 0 -0.882951 -0.469466
outer loop
vertex 12 272.294 173.058
vertex 12 274.171 169.526
vertex 18 272.294 173.058
endloop
endfacet
facet normal 0 -0.882945 -0.469477
outer loop
vertex 198.2 93.8944 508.578
vertex 204.2 93.8944 508.578
vertex 204.2 92.0165 512.11
endloop
endfacet
facet normal 0.000168739 -0.883104 -0.469177
outer loop
vertex 219.47 88.5166 518.692
vertex 218.745 88.3756 518.957
vertex 220.139 88.7091 518.33
endloop
endfacet
facet normal -5.69053e-007 -0.882948 -0.46947
outer loop
vertex 220.139 88.7091 518.33
vertex 218.745 88.3756 518.957
vertex 210.2 92.0165 512.11
endloop
endfacet
facet normal 0 -0.882948 -0.469472
outer loop
vertex 18 274.171 169.526
vertex 18 276.049 165.994
vertex 24 276.049 165.994
endloop
endfacet
facet normal 2.9136e-006 -0.88295 -0.469467
outer loop
vertex 0 273.702 170.409
vertex 12 272.294 173.058
vertex 0 272.763 172.175
endloop
endfacet
facet normal 3.92273e-006 -0.882944 -0.469478
outer loop
vertex 0 272.763 172.175
vertex 12 272.294 173.058
vertex 12 270.416 176.59
endloop
endfacet
facet normal 0 -0.882949 -0.46947
outer loop
vertex 0 272.763 172.175
vertex 12 270.416 176.59
vertex 5 270.416 176.59
endloop
endfacet
facet normal 0 -0.882948 -0.469472
outer loop
vertex 198.2 276.049 165.994
vertex 204.2 276.049 165.994
vertex 204.2 274.171 169.526
endloop
endfacet
facet normal 0 -0.882945 -0.469477
outer loop
vertex 12 93.8944 508.578
vertex 12 92.0165 512.11
vertex 5 93.8944 508.578
endloop
endfacet
facet normal 3.85005e-007 -0.882945 -0.469477
outer loop
vertex 5 93.8944 508.578
vertex 12 92.0165 512.11
vertex 4.21783 93.8655 508.632
endloop
endfacet
facet normal 0 -0.882951 -0.469465
outer loop
vertex 18 90.1386 515.642
vertex 12 90.1386 515.642
vertex 12 92.0165 512.11
endloop
endfacet
facet normal -6.35434e-006 -0.882951 -0.469465
outer loop
vertex 12 92.0165 512.11
vertex 12 90.1386 515.642
vertex 4.21783 93.8655 508.632
endloop
endfacet
facet normal 6.54258e-006 -0.882945 -0.469477
outer loop
vertex 4.21783 93.8655 508.632
vertex 12 90.1386 515.642
vertex 12 88.2608 519.173
endloop
endfacet
facet normal 0 -0.882947 -0.469473
outer loop
vertex 4.21783 93.8655 508.632
vertex 12 88.2608 519.173
vertex 5 88.2608 519.173
endloop
endfacet
facet normal 1.42018e-005 -0.882941 -0.469485
outer loop
vertex 218.745 88.3756 518.957
vertex 217.982 88.2897 519.119
vertex 210.2 92.0165 512.11
endloop
endfacet
facet normal -8.19534e-006 -0.882951 -0.469465
outer loop
vertex 210.2 92.0165 512.11
vertex 217.982 88.2897 519.119
vertex 210.2 90.1386 515.642
endloop
endfacet
facet normal 0 -0.882951 -0.469465
outer loop
vertex 210.2 92.0165 512.11
vertex 210.2 90.1386 515.642
vertex 204.2 92.0165 512.11
endloop
endfacet
facet normal 0 -0.882951 -0.469465
outer loop
vertex 204.2 92.0165 512.11
vertex 210.2 90.1386 515.642
vertex 204.2 90.1386 515.642
endloop
endfacet
facet normal -8.42857e-006 -0.882951 -0.469465
outer loop
vertex 204.2 92.0165 512.11
vertex 204.2 90.1386 515.642
vertex 198.2 93.8944 508.578
endloop
endfacet
facet normal 8.4288e-006 -0.882945 -0.469477
outer loop
vertex 198.2 93.8944 508.578
vertex 204.2 90.1386 515.642
vertex 204.2 88.2608 519.173
endloop
endfacet
facet normal 7.69571e-005 -0.882892 -0.469576
outer loop
vertex 220.139 93.4461 509.421
vertex 220.736 93.2069 509.871
vertex 219.47 93.6386 509.059
endloop
endfacet
facet normal -7.78048e-005 -0.882992 -0.469388
outer loop
vertex 219.47 93.6386 509.059
vertex 220.736 93.2069 509.871
vertex 221.245 92.9268 510.398
endloop
endfacet
facet normal 5.08905e-005 -0.882921 -0.469521
outer loop
vertex 219.47 93.6386 509.059
vertex 221.245 92.9268 510.398
vertex 218.745 93.7795 508.794
endloop
endfacet
facet normal 1.87223e-005 -0.882942 -0.469482
outer loop
vertex 218.745 93.7795 508.794
vertex 221.245 92.9268 510.398
vertex 221.655 92.6127 510.988
endloop
endfacet
facet normal -6.64299e-005 -0.882989 -0.469394
outer loop
vertex 218.745 93.7795 508.794
vertex 221.655 92.6127 510.988
vertex 217.982 93.8655 508.632
endloop
endfacet
facet normal 2.589e-005 -0.882929 -0.469506
outer loop
vertex 217.982 93.8655 508.632
vertex 221.655 92.6127 510.988
vertex 221.955 92.2724 511.628
endloop
endfacet
facet normal -1.79632e-007 -0.882943 -0.469479
outer loop
vertex 217.982 93.8655 508.632
vertex 221.955 92.2724 511.628
vertex 217.2 93.8944 508.578
endloop
endfacet
facet normal -4.64361e-005 -0.882973 -0.469423
outer loop
vertex 217.2 93.8944 508.578
vertex 221.955 92.2724 511.628
vertex 222.138 91.9143 512.302
endloop
endfacet
facet normal 0 -0.882948 -0.469471
outer loop
vertex 217.2 93.8944 508.578
vertex 222.138 91.9143 512.302
vertex 210.2 93.8944 508.578
endloop
endfacet
facet normal 1.55387e-005 -0.882927 -0.46951
outer loop
vertex 210.2 93.8944 508.578
vertex 222.138 91.9143 512.302
vertex 222.2 91.5471 512.993
endloop
endfacet
facet normal -2.80681e-007 -0.882945 -0.469477
outer loop
vertex 210.2 93.8944 508.578
vertex 222.2 91.5471 512.993
vertex 210.2 92.0165 512.11
endloop
endfacet
facet normal -1.47459e-006 -0.882952 -0.469464
outer loop
vertex 210.2 92.0165 512.11
vertex 222.2 91.5471 512.993
vertex 222.2 90.6081 514.759
endloop
endfacet
facet normal -1.89753e-008 -0.882949 -0.469469
outer loop
vertex 210.2 92.0165 512.11
vertex 222.2 90.6081 514.759
vertex 222.138 90.2409 515.449
endloop
endfacet
facet normal 0 -0.882948 -0.469472
outer loop
vertex 24 364.31 0.000119209
vertex 198.2 364.31 0.000119209
vertex 24 276.049 165.994
endloop
endfacet
facet normal 1.94139e-005 -0.882956 -0.469456
outer loop
vertex 24 276.049 165.994
vertex 198.2 364.31 0.000119209
vertex 18 272.294 173.058
endloop
endfacet
facet normal 4.49092e-006 -0.882951 -0.469466
outer loop
vertex 24 276.049 165.994
vertex 18 272.294 173.058
vertex 18 274.171 169.526
endloop
endfacet
facet normal 0 -0.882951 -0.469466
outer loop
vertex 18 274.171 169.526
vertex 18 272.294 173.058
vertex 12 274.171 169.526
endloop
endfacet
facet normal 2.49933e-005 -0.882985 -0.4694
outer loop
vertex 2.73005 275.794 166.475
vertex 3.45492 275.934 166.21
vertex 2.06108 275.601 166.837
endloop
endfacet
facet normal -8.59779e-006 -0.882954 -0.469459
outer loop
vertex 2.06108 275.601 166.837
vertex 3.45492 275.934 166.21
vertex 12 272.294 173.058
endloop
endfacet
facet normal 6.5883e-006 -0.882944 -0.469478
outer loop
vertex 2.06108 275.601 166.837
vertex 12 272.294 173.058
vertex 1.46447 275.362 167.287
endloop
endfacet
facet normal 5.33016e-006 -0.882945 -0.469476
outer loop
vertex 1.46447 275.362 167.287
vertex 12 272.294 173.058
vertex 0 273.702 170.409
endloop
endfacet
facet normal -2.6286e-005 -0.882939 -0.469487
outer loop
vertex 1.46447 275.362 167.287
vertex 0 273.702 170.409
vertex 0.954919 275.082 167.814
endloop
endfacet
facet normal -9.48273e-005 -0.882929 -0.469507
outer loop
vertex 0.954919 275.082 167.814
vertex 0 273.702 170.409
vertex 0.0615641 274.069 169.718
endloop
endfacet
facet normal -0.00010593 -0.882927 -0.469511
outer loop
vertex 0.954919 275.082 167.814
vertex 0.0615641 274.069 169.718
vertex 0.544973 274.768 168.405
endloop
endfacet
facet normal 0.000101982 -0.882958 -0.469451
outer loop
vertex 0.544973 274.768 168.405
vertex 0.0615641 274.069 169.718
vertex 0.244722 274.427 169.045
endloop
endfacet
facet normal 9.49366e-008 -0.882948 -0.469472
outer loop
vertex 204.2 274.171 169.526
vertex 198.2 270.416 176.59
vertex 198.2 276.049 165.994
endloop
endfacet
facet normal -4.88247e-007 -0.882948 -0.469472
outer loop
vertex 198.2 276.049 165.994
vertex 198.2 270.416 176.59
vertex 24 93.8944 508.578
endloop
endfacet
facet normal -3.05455e-007 -0.882948 -0.469472
outer loop
vertex 198.2 276.049 165.994
vertex 24 93.8944 508.578
vertex 198.2 364.31 0.000119209
endloop
endfacet
facet normal 1.71136e-007 -0.882948 -0.469471
outer loop
vertex 198.2 364.31 0.000119209
vertex 24 93.8944 508.578
vertex 24 270.416 176.59
endloop
endfacet
facet normal 0 -0.882948 -0.469472
outer loop
vertex 198.2 364.31 0.000119209
vertex 24 270.416 176.59
vertex 18 270.416 176.59
endloop
endfacet
facet normal 0 -0.882945 -0.469477
outer loop
vertex 24 88.2608 519.173
vertex 18 88.2608 519.173
vertex 18 90.1386 515.642
endloop
endfacet
facet normal -0.000168758 -0.883104 -0.469177
outer loop
vertex 3.45492 88.3756 518.957
vertex 2.73005 88.5166 518.692
vertex 2.06108 88.7091 518.33
endloop
endfacet
facet normal -0.000264071 -0.882822 -0.469708
outer loop
vertex 220.736 88.9483 517.88
vertex 220.139 88.7091 518.33
vertex 221.245 89.2284 517.353
endloop
endfacet
facet normal 1.96441e-006 -0.882947 -0.469474
outer loop
vertex 221.245 89.2284 517.353
vertex 220.139 88.7091 518.33
vertex 210.2 92.0165 512.11
endloop
endfacet
facet normal 9.47305e-006 -0.88294 -0.469486
outer loop
vertex 221.245 89.2284 517.353
vertex 210.2 92.0165 512.11
vertex 221.655 89.5424 516.763
endloop
endfacet
facet normal -1.59692e-006 -0.882951 -0.469465
outer loop
vertex 221.655 89.5424 516.763
vertex 210.2 92.0165 512.11
vertex 222.138 90.2409 515.449
endloop
endfacet
facet normal -0.000456869 -0.882882 -0.469595
outer loop
vertex 221.655 89.5424 516.763
vertex 222.138 90.2409 515.449
vertex 221.955 89.8827 516.123
endloop
endfacet
facet normal 8.79613e-006 -0.882945 -0.469477
outer loop
vertex 5 270.416 176.59
vertex 4.21783 270.445 176.535
vertex 0 272.763 172.175
endloop
endfacet
facet normal -2.12469e-005 -0.882957 -0.469455
outer loop
vertex 0 272.763 172.175
vertex 4.21783 270.445 176.535
vertex 3.45492 270.531 176.374
endloop
endfacet
facet normal 6.30047e-005 -0.882928 -0.469509
outer loop
vertex 0 272.763 172.175
vertex 3.45492 270.531 176.374
vertex 2.73005 270.672 176.108
endloop
endfacet
facet normal 0 -0.882951 -0.469465
outer loop
vertex 12 92.0165 512.11
vertex 18 92.0165 512.11
vertex 18 90.1386 515.642
endloop
endfacet
facet normal 8.42857e-006 -0.882951 -0.469465
outer loop
vertex 18 90.1386 515.642
vertex 18 92.0165 512.11
vertex 24 93.8944 508.578
endloop
endfacet
facet normal -2.80958e-006 -0.882947 -0.469473
outer loop
vertex 18 90.1386 515.642
vertex 24 93.8944 508.578
vertex 24 88.2608 519.173
endloop
endfacet
facet normal -3.14212e-006 -0.882947 -0.469473
outer loop
vertex 24 88.2608 519.173
vertex 24 93.8944 508.578
vertex 198.2 270.416 176.59
endloop
endfacet
facet normal -1.05989e-007 -0.882948 -0.469472
outer loop
vertex 24 88.2608 519.173
vertex 198.2 270.416 176.59
vertex 24 0.000103078 685.167
endloop
endfacet
facet normal 2.00225e-007 -0.882948 -0.469471
outer loop
vertex 24 0.000103078 685.167
vertex 198.2 270.416 176.59
vertex 198.2 93.8944 508.578
endloop
endfacet
facet normal -1.47111e-006 -0.882947 -0.469473
outer loop
vertex 24 0.000103078 685.167
vertex 198.2 93.8944 508.578
vertex 198.2 88.2608 519.173
endloop
endfacet
facet normal 0 -0.882947 -0.469473
outer loop
vertex 198.2 88.2608 519.173
vertex 198.2 93.8944 508.578
vertex 204.2 88.2608 519.173
endloop
endfacet
facet normal 0 -0.882944 -0.469478
outer loop
vertex 210.2 270.416 176.59
vertex 210.2 272.294 173.058
vertex 217.2 270.416 176.59
endloop
endfacet
facet normal -7.77393e-006 -0.882951 -0.469466
outer loop
vertex 217.2 270.416 176.59
vertex 210.2 272.294 173.058
vertex 217.982 270.445 176.535
endloop
endfacet
facet normal 1.7492e-005 -0.882952 -0.469464
outer loop
vertex 0 91.5471 512.993
vertex 4.21783 93.8655 508.632
vertex 0 90.6081 514.759
endloop
endfacet
facet normal 8.48001e-007 -0.882947 -0.469473
outer loop
vertex 0 90.6081 514.759
vertex 4.21783 93.8655 508.632
vertex 5 88.2608 519.173
endloop
endfacet
facet normal 1.89752e-005 -0.882938 -0.469489
outer loop
vertex 0 90.6081 514.759
vertex 5 88.2608 519.173
vertex 4.21783 88.2897 519.119
endloop
endfacet
facet normal -9.05923e-005 -0.882972 -0.469426
outer loop
vertex 2.73005 270.672 176.108
vertex 2.06108 270.864 175.747
vertex 0 272.763 172.175
endloop
endfacet
facet normal 5.42951e-005 -0.882937 -0.469491
outer loop
vertex 0 272.763 172.175
vertex 2.06108 270.864 175.747
vertex 1.46447 271.103 175.297
endloop
endfacet
facet normal -9.8929e-006 -0.88295 -0.469467
outer loop
vertex 0 272.763 172.175
vertex 1.46447 271.103 175.297
vertex 0.0615641 272.396 172.866
endloop
endfacet
facet normal 5.86045e-006 -0.882946 -0.469474
outer loop
vertex 0.0615641 272.396 172.866
vertex 1.46447 271.103 175.297
vertex 0.954919 271.383 174.77
endloop
endfacet
facet normal -3.64376e-005 -0.882954 -0.469459
outer loop
vertex 0.0615641 272.396 172.866
vertex 0.954919 271.383 174.77
vertex 0.244722 272.038 173.539
endloop
endfacet
facet normal -0.000152713 -0.882982 -0.469407
outer loop
vertex 0.244722 272.038 173.539
vertex 0.954919 271.383 174.77
vertex 0.544973 271.697 174.179
endloop
endfacet
facet normal 0 -0.882944 -0.469478
outer loop
vertex 204.2 270.416 176.59
vertex 198.2 270.416 176.59
vertex 204.2 272.294 173.058
endloop
endfacet
facet normal 9.26657e-006 -0.882951 -0.469466
outer loop
vertex 204.2 272.294 173.058
vertex 198.2 270.416 176.59
vertex 204.2 274.171 169.526
endloop
endfacet
facet normal 0 -0.882951 -0.469466
outer loop
vertex 204.2 272.294 173.058
vertex 204.2 274.171 169.526
vertex 210.2 272.294 173.058
endloop
endfacet
facet normal 0 -0.882951 -0.469466
outer loop
vertex 210.2 272.294 173.058
vertex 204.2 274.171 169.526
vertex 210.2 274.171 169.526
endloop
endfacet
facet normal -7.92347e-006 -0.882951 -0.469466
outer loop
vertex 210.2 272.294 173.058
vertex 210.2 274.171 169.526
vertex 217.982 270.445 176.535
endloop
endfacet
facet normal -1.05188e-006 -0.882948 -0.469472
outer loop
vertex 217.982 270.445 176.535
vertex 210.2 274.171 169.526
vertex 210.2 276.049 165.994
endloop
endfacet
facet normal 0 -0.882947 -0.469472
outer loop
vertex 217.982 270.445 176.535
vertex 210.2 276.049 165.994
vertex 217.2 276.049 165.994
endloop
endfacet
facet normal 0.000264069 -0.882822 -0.469708
outer loop
vertex 1.46447 88.9483 517.88
vertex 0.954919 89.2284 517.353
vertex 2.06108 88.7091 518.33
endloop
endfacet
facet normal 4.59889e-005 -0.882924 -0.469516
outer loop
vertex 2.06108 88.7091 518.33
vertex 0.954919 89.2284 517.353
vertex 0.544973 89.5424 516.763
endloop
endfacet
facet normal -2.13668e-005 -0.882955 -0.469458
outer loop
vertex 4.21783 88.2897 519.119
vertex 3.45492 88.3756 518.957
vertex 0 90.6081 514.759
endloop
endfacet
facet normal 2.47956e-006 -0.882946 -0.469474
outer loop
vertex 0 90.6081 514.759
vertex 3.45492 88.3756 518.957
vertex 2.06108 88.7091 518.33
endloop
endfacet
facet normal -9.35544e-006 -0.882949 -0.469468
outer loop
vertex 0 90.6081 514.759
vertex 2.06108 88.7091 518.33
vertex 0.0615641 90.2409 515.449
endloop
endfacet
facet normal -3.64546e-005 -0.882957 -0.469454
outer loop
vertex 0.0615641 90.2409 515.449
vertex 2.06108 88.7091 518.33
vertex 0.544973 89.5424 516.763
endloop
endfacet
facet normal 0.00045693 -0.882882 -0.469595
outer loop
vertex 0.0615641 90.2409 515.449
vertex 0.544973 89.5424 516.763
vertex 0.244722 89.8827 516.123
endloop
endfacet
facet normal -7.62021e-005 -0.882892 -0.469575
outer loop
vertex 2.06108 93.4461 509.421
vertex 2.73005 93.6386 509.059
vertex 3.45492 93.7795 508.794
endloop
endfacet
facet normal -2.49905e-005 -0.882985 -0.4694
outer loop
vertex 218.745 275.934 166.21
vertex 219.47 275.794 166.475
vertex 220.139 275.601 166.837
endloop
endfacet
facet normal -5.42955e-005 -0.882937 -0.469491
outer loop
vertex 222.2 272.763 172.175
vertex 220.736 271.103 175.297
vertex 220.139 270.864 175.747
endloop
endfacet
facet normal -0.000118055 -0.882913 -0.469536
outer loop
vertex 0.954919 92.9268 510.398
vertex 1.46447 93.2069 509.871
vertex 0.544973 92.6127 510.988
endloop
endfacet
facet normal 9.31681e-005 -0.882985 -0.4694
outer loop
vertex 0.544973 92.6127 510.988
vertex 1.46447 93.2069 509.871
vertex 2.06108 93.4461 509.421
endloop
endfacet
facet normal -5.62198e-007 -0.882946 -0.469475
outer loop
vertex 222.2 273.702 170.409
vertex 217.2 276.049 165.994
vertex 217.982 276.02 166.049
endloop
endfacet
facet normal -4.15759e-006 -0.882947 -0.469472
outer loop
vertex 217.2 276.049 165.994
vertex 222.2 273.702 170.409
vertex 217.982 270.445 176.535
endloop
endfacet
facet normal 4.65768e-006 -0.88295 -0.469467
outer loop
vertex 217.982 270.445 176.535
vertex 222.2 273.702 170.409
vertex 222.2 272.763 172.175
endloop
endfacet
facet normal 2.12472e-005 -0.882957 -0.469455
outer loop
vertex 217.982 270.445 176.535
vertex 222.2 272.763 172.175
vertex 218.745 270.531 176.374
endloop
endfacet
facet normal 1.00918e-005 -0.882953 -0.469462
outer loop
vertex 218.745 270.531 176.374
vertex 222.2 272.763 172.175
vertex 220.139 270.864 175.747
endloop
endfacet
facet normal -0.000263115 -0.882701 -0.469935
outer loop
vertex 218.745 270.531 176.374
vertex 220.139 270.864 175.747
vertex 219.47 270.672 176.108
endloop
endfacet
facet normal 0.000415229 -0.883015 -0.469345
outer loop
vertex 0.244722 92.2724 511.628
vertex 0.544973 92.6127 510.988
vertex 0.0615641 91.9143 512.302
endloop
endfacet
facet normal 1.40313e-005 -0.882954 -0.46946
outer loop
vertex 0.0615641 91.9143 512.302
vertex 0.544973 92.6127 510.988
vertex 2.06108 93.4461 509.421
endloop
endfacet
facet normal -8.74559e-005 -0.882924 -0.469515
outer loop
vertex 0.0615641 91.9143 512.302
vertex 2.06108 93.4461 509.421
vertex 0 91.5471 512.993
endloop
endfacet
facet normal -2.53285e-005 -0.882939 -0.469487
outer loop
vertex 0 91.5471 512.993
vertex 2.06108 93.4461 509.421
vertex 3.45492 93.7795 508.794
endloop
endfacet
facet normal 5.52181e-005 -0.882967 -0.469435
outer loop
vertex 0 91.5471 512.993
vertex 3.45492 93.7795 508.794
vertex 4.21783 93.8655 508.632
endloop
endfacet
facet normal -6.02862e-005 -0.882974 -0.469422
outer loop
vertex 220.736 275.362 167.287
vertex 221.245 275.082 167.814
vertex 220.139 275.601 166.837
endloop
endfacet
facet normal -6.29929e-005 -0.882975 -0.46942
outer loop
vertex 220.139 275.601 166.837
vertex 221.245 275.082 167.814
vertex 221.655 274.768 168.405
endloop
endfacet
facet normal -1.95994e-005 -0.882953 -0.469461
outer loop
vertex 217.982 276.02 166.049
vertex 218.745 275.934 166.21
vertex 222.2 273.702 170.409
endloop
endfacet
facet normal 2.71335e-005 -0.882937 -0.469491
outer loop
vertex 222.2 273.702 170.409
vertex 218.745 275.934 166.21
vertex 220.139 275.601 166.837
endloop
endfacet
facet normal 5.74423e-005 -0.88293 -0.469504
outer loop
vertex 222.2 273.702 170.409
vertex 220.139 275.601 166.837
vertex 222.138 274.069 169.718
endloop
endfacet
facet normal 2.89051e-005 -0.882938 -0.469489
outer loop
vertex 222.138 274.069 169.718
vertex 220.139 275.601 166.837
vertex 221.655 274.768 168.405
endloop
endfacet
facet normal -0.000101968 -0.882958 -0.469451
outer loop
vertex 222.138 274.069 169.718
vertex 221.655 274.768 168.405
vertex 221.955 274.427 169.045
endloop
endfacet
facet normal 0.000152695 -0.882982 -0.469407
outer loop
vertex 221.655 271.697 174.179
vertex 221.245 271.383 174.77
vertex 221.955 272.038 173.539
endloop
endfacet
facet normal -1.75569e-005 -0.882941 -0.469483
outer loop
vertex 221.955 272.038 173.539
vertex 221.245 271.383 174.77
vertex 220.736 271.103 175.297
endloop
endfacet
facet normal 2.14719e-005 -0.882953 -0.469462
outer loop
vertex 221.955 272.038 173.539
vertex 220.736 271.103 175.297
vertex 222.138 272.396 172.866
endloop
endfacet
facet normal 9.89361e-006 -0.88295 -0.469467
outer loop
vertex 222.138 272.396 172.866
vertex 220.736 271.103 175.297
vertex 222.2 272.763 172.175
endloop
endfacet
endsolid
