solid C:\Temp\NOELParts\SLIDER_.STL created by CtrlView V2.70
facet normal 0 0 1
outer loop
vertex 17.2 1.45603 1
vertex 17.5901 0 1
vertex 17.8099 0 1
endloop
endfacet
facet normal 0 0 1
outer loop
vertex 39.2 1.45603 1
vertex 39.5901 0 1
vertex 39.8099 0 1
endloop
endfacet
facet normal 0 0 1
outer loop
vertex 0 9.51 1
vertex 0 1.51 1
vertex 8.18554 1.51 1
endloop
endfacet
facet normal 0 0 1
outer loop
vertex 15.5901 0 1
vertex 15.8099 0 1
vertex 15.2 1.45603 1
endloop
endfacet
facet normal 0 0 1
outer loop
vertex 15.2 1.45603 1
vertex 15.8099 0 1
vertex 16.2 1.45603 1
endloop
endfacet
facet normal 0 0 1
outer loop
vertex 16.5901 0 1
vertex 16.8099 0 1
vertex 16.2 1.45603 1
endloop
endfacet
facet normal 0 0 1
outer loop
vertex 16.2 1.45603 1
vertex 16.8099 0 1
vertex 17.2 1.45603 1
endloop
endfacet
facet normal 0 0 1
outer loop
vertex 26.2 1.45603 1
vertex 26.5901 0 1
vertex 26.8099 0 1
endloop
endfacet
facet normal 0 0 1
outer loop
vertex 38.5901 0 1
vertex 38.8099 0 1
vertex 38.2 1.45603 1
endloop
endfacet
facet normal 0 0 1
outer loop
vertex 38.2 1.45603 1
vertex 38.8099 0 1
vertex 39.2 1.45603 1
endloop
endfacet
facet normal 0 0 1
outer loop
vertex 10.5901 0 1
vertex 10.8099 0 1
vertex 10.2 1.45603 1
endloop
endfacet
facet normal 0 0 1
outer loop
vertex 10.2 1.45603 1
vertex 10.8099 0 1
vertex 11.2 1.45603 1
endloop
endfacet
facet normal 0 0 1
outer loop
vertex 13.2 1.45603 1
vertex 13.5901 0 1
vertex 13.8099 0 1
endloop
endfacet
facet normal 0 0 1
outer loop
vertex 48 9.51 1
vertex 45.4095 4.67826 1
vertex 45.5182 4.72329 1
endloop
endfacet
facet normal 0 0 1
outer loop
vertex 40.5901 0 1
vertex 40.8099 0 1
vertex 40.2 1.45603 1
endloop
endfacet
facet normal 0 0 1
outer loop
vertex 40.2 1.45603 1
vertex 40.8099 0 1
vertex 41.2 1.45603 1
endloop
endfacet
facet normal 0 0 1
outer loop
vertex 40.2 1.45603 1
vertex 41.2 1.45603 1
vertex 42.25 4.51 1
endloop
endfacet
facet normal 0 0 1
outer loop
vertex 42.25 4.51 1
vertex 41.2 1.45603 1
vertex 42.2 1.45603 1
endloop
endfacet
facet normal 0 0 1
outer loop
vertex 42.2 1.45603 1
vertex 41.2 1.45603 1
vertex 41.5901 0 1
endloop
endfacet
facet normal 0 0 1
outer loop
vertex 42.2 1.45603 1
vertex 41.5901 0 1
vertex 41.8099 0 1
endloop
endfacet
facet normal 0 0 1
outer loop
vertex 42.25 3.26 1
vertex 43.75 3.76 1
vertex 42.25 3.76 1
endloop
endfacet
facet normal 0 0 1
outer loop
vertex 43.5901 0 1
vertex 43.8099 0 1
vertex 43.2 1.45603 1
endloop
endfacet
facet normal 0 0 1
outer loop
vertex 43.2 1.45603 1
vertex 43.8099 0 1
vertex 44.2 1.45603 1
endloop
endfacet
facet normal 0 0 1
outer loop
vertex 8.59014 0 1
vertex 8.80986 0 1
vertex 8.18554 1.51 1
endloop
endfacet
facet normal 0 0 1
outer loop
vertex 8.18554 1.51 1
vertex 8.80986 0 1
vertex 9.2 1.45603 1
endloop
endfacet
facet normal 0 0 1
outer loop
vertex 8.18554 1.51 1
vertex 9.2 1.45603 1
vertex 0 9.51 1
endloop
endfacet
facet normal 0 0 1
outer loop
vertex 0 9.51 1
vertex 9.2 1.45603 1
vertex 8.75 2.51 1
endloop
endfacet
facet normal 0 0 1
outer loop
vertex 0 9.51 1
vertex 8.75 2.51 1
vertex 8.75 4.51 1
endloop
endfacet
facet normal 0 0 1
outer loop
vertex 19.2 1.45603 1
vertex 19.5901 0 1
vertex 19.8099 0 1
endloop
endfacet
facet normal 0 0 1
outer loop
vertex 42.25 3.26 1
vertex 43.75 3.26 1
vertex 43.75 3.76 1
endloop
endfacet
facet normal 0 0 1
outer loop
vertex 43.75 3.76 1
vertex 43.75 3.26 1
vertex 48 9.51 1
endloop
endfacet
facet normal 0 0 1
outer loop
vertex 43.75 3.76 1
vertex 48 9.51 1
vertex 43.75 4.51 1
endloop
endfacet
facet normal 0 0 1
outer loop
vertex 43.75 4.51 1
vertex 48 9.51 1
vertex 42.25 4.51 1
endloop
endfacet
facet normal 0 0 1
outer loop
vertex 45.5901 0 1
vertex 45.8099 0 1
vertex 45.2 1.45603 1
endloop
endfacet
facet normal 0 0 1
outer loop
vertex 45.2 1.45603 1
vertex 45.8099 0 1
vertex 46.2145 1.51 1
endloop
endfacet
facet normal 0 0 1
outer loop
vertex 9.59014 0 1
vertex 9.80986 0 1
vertex 9.2 1.45603 1
endloop
endfacet
facet normal 0 0 1
outer loop
vertex 9.2 1.45603 1
vertex 9.80986 0 1
vertex 10.2 1.45603 1
endloop
endfacet
facet normal 0 0 1
outer loop
vertex 9.2 1.45603 1
vertex 10.2 1.45603 1
vertex 8.75 2.51 1
endloop
endfacet
facet normal 0 0 1
outer loop
vertex 8.75 2.51 1
vertex 10.2 1.45603 1
vertex 11.2 1.45603 1
endloop
endfacet
facet normal 0 0 1
outer loop
vertex 8.75 2.51 1
vertex 11.2 1.45603 1
vertex 10 2.51 1
endloop
endfacet
facet normal 0 0 1
outer loop
vertex 12.5901 0 1
vertex 12.8099 0 1
vertex 12.2 1.45603 1
endloop
endfacet
facet normal 0 0 1
outer loop
vertex 12.2 1.45603 1
vertex 12.8099 0 1
vertex 13.2 1.45603 1
endloop
endfacet
facet normal 0 0 1
outer loop
vertex 11.5901 0 1
vertex 11.8099 0 1
vertex 11.2 1.45603 1
endloop
endfacet
facet normal 0 0 1
outer loop
vertex 11.2 1.45603 1
vertex 11.8099 0 1
vertex 12.2 1.45603 1
endloop
endfacet
facet normal 0 0 1
outer loop
vertex 11.2 1.45603 1
vertex 12.2 1.45603 1
vertex 10 2.51 1
endloop
endfacet
facet normal 0 0 1
outer loop
vertex 10 2.51 1
vertex 12.2 1.45603 1
vertex 13.2 1.45603 1
endloop
endfacet
facet normal 0 0 1
outer loop
vertex 10 2.51 1
vertex 13.2 1.45603 1
vertex 14.2 1.45603 1
endloop
endfacet
facet normal 0 0 1
outer loop
vertex 14.2 1.45603 1
vertex 13.2 1.45603 1
vertex 13.8099 0 1
endloop
endfacet
facet normal 0 0 1
outer loop
vertex 14.5901 0 1
vertex 14.8099 0 1
vertex 14.2 1.45603 1
endloop
endfacet
facet normal 0 0 1
outer loop
vertex 14.2 1.45603 1
vertex 14.8099 0 1
vertex 15.2 1.45603 1
endloop
endfacet
facet normal 0 0 1
outer loop
vertex 14.2 1.45603 1
vertex 15.2 1.45603 1
vertex 10 2.51 1
endloop
endfacet
facet normal 0 0 1
outer loop
vertex 10 2.51 1
vertex 15.2 1.45603 1
vertex 16.2 1.45603 1
endloop
endfacet
facet normal 0 0 1
outer loop
vertex 10 2.51 1
vertex 16.2 1.45603 1
vertex 10 4.51 1
endloop
endfacet
facet normal 0 0 1
outer loop
vertex 10 4.51 1
vertex 16.2 1.45603 1
vertex 17.2 1.45603 1
endloop
endfacet
facet normal 0 0 1
outer loop
vertex 10 4.51 1
vertex 17.2 1.45603 1
vertex 18.2 1.45603 1
endloop
endfacet
facet normal 0 0 1
outer loop
vertex 18.2 1.45603 1
vertex 17.2 1.45603 1
vertex 17.8099 0 1
endloop
endfacet
facet normal 0 0 1
outer loop
vertex 18.5901 0 1
vertex 18.8099 0 1
vertex 18.2 1.45603 1
endloop
endfacet
facet normal 0 0 1
outer loop
vertex 18.2 1.45603 1
vertex 18.8099 0 1
vertex 19.2 1.45603 1
endloop
endfacet
facet normal 0 0 1
outer loop
vertex 15.25 7.76 1
vertex 10 4.51 1
vertex 15.25 3.26 1
endloop
endfacet
facet normal 0 0 1
outer loop
vertex 15.25 3.26 1
vertex 10 4.51 1
vertex 18.2 1.45603 1
endloop
endfacet
facet normal 0 0 1
outer loop
vertex 15.25 3.26 1
vertex 18.2 1.45603 1
vertex 21.75 3.26 1
endloop
endfacet
facet normal 0 0 1
outer loop
vertex 21.75 3.26 1
vertex 18.2 1.45603 1
vertex 19.2 1.45603 1
endloop
endfacet
facet normal 0 0 1
outer loop
vertex 21.75 3.26 1
vertex 19.2 1.45603 1
vertex 20.2 1.45603 1
endloop
endfacet
facet normal 0 0 1
outer loop
vertex 20.2 1.45603 1
vertex 19.2 1.45603 1
vertex 19.8099 0 1
endloop
endfacet
facet normal 0 0 1
outer loop
vertex 21.8099 0 1
vertex 22.2 1.45603 1
vertex 21.5901 0 1
endloop
endfacet
facet normal 0 0 1
outer loop
vertex 21.5901 0 1
vertex 22.2 1.45603 1
vertex 21.2 1.45603 1
endloop
endfacet
facet normal 0 0 1
outer loop
vertex 27.5901 0 1
vertex 27.8099 0 1
vertex 27.2 1.45603 1
endloop
endfacet
facet normal 0 0 1
outer loop
vertex 27.2 1.45603 1
vertex 27.8099 0 1
vertex 28.2 1.45603 1
endloop
endfacet
facet normal 0 0 1
outer loop
vertex 27.2 1.45603 1
vertex 28.2 1.45603 1
vertex 21.75 7.76 1
endloop
endfacet
facet normal 0 0 1
outer loop
vertex 28.5901 0 1
vertex 28.8099 0 1
vertex 28.2 1.45603 1
endloop
endfacet
facet normal 0 0 1
outer loop
vertex 28.2 1.45603 1
vertex 28.8099 0 1
vertex 29.2 1.45603 1
endloop
endfacet
facet normal 0 0 1
outer loop
vertex 28.2 1.45603 1
vertex 29.2 1.45603 1
vertex 21.75 7.76 1
endloop
endfacet
facet normal 0 0 1
outer loop
vertex 31.2 1.45603 1
vertex 31.5901 0 1
vertex 31.8099 0 1
endloop
endfacet
facet normal 0 0 1
outer loop
vertex 45.5182 4.72329 1
vertex 45.6327 4.75077 1
vertex 48 9.51 1
endloop
endfacet
facet normal 0 0 1
outer loop
vertex 48 9.51 1
vertex 45.6327 4.75077 1
vertex 45.75 4.76 1
endloop
endfacet
facet normal 0 0 1
outer loop
vertex 48 9.51 1
vertex 45.75 4.76 1
vertex 48 4.76 1
endloop
endfacet
facet normal 0 0 1
outer loop
vertex 45.5182 2.54671 1
vertex 45.4095 2.59174 1
vertex 46.2145 1.51 1
endloop
endfacet
facet normal 0 0 1
outer loop
vertex 43.75 3.26 1
vertex 45.0367 4.24176 1
vertex 45.0817 4.35049 1
endloop
endfacet
facet normal 0 0 1
outer loop
vertex 22.5901 0 1
vertex 22.8099 0 1
vertex 22.2 1.45603 1
endloop
endfacet
facet normal 0 0 1
outer loop
vertex 22.2 1.45603 1
vertex 22.8099 0 1
vertex 23.2 1.45603 1
endloop
endfacet
facet normal 0 0 1
outer loop
vertex 23.2 1.45603 1
vertex 23.5901 0 1
vertex 23.8099 0 1
endloop
endfacet
facet normal 0 0 1
outer loop
vertex 30.5901 0 1
vertex 30.8099 0 1
vertex 30.2 1.45603 1
endloop
endfacet
facet normal 0 0 1
outer loop
vertex 30.2 1.45603 1
vertex 30.8099 0 1
vertex 31.2 1.45603 1
endloop
endfacet
facet normal 0 0 1
outer loop
vertex 34.5901 0 1
vertex 34.8099 0 1
vertex 34.2 1.45603 1
endloop
endfacet
facet normal 0 0 1
outer loop
vertex 34.2 1.45603 1
vertex 34.8099 0 1
vertex 35.2 1.45603 1
endloop
endfacet
facet normal 0 0 1
outer loop
vertex 42.25 2.51 1
vertex 42.25 3.26 1
vertex 42.2 1.45603 1
endloop
endfacet
facet normal 0 0 1
outer loop
vertex 42.2 1.45603 1
vertex 42.25 3.26 1
vertex 42.25 3.76 1
endloop
endfacet
facet normal 0 0 1
outer loop
vertex 42.2 1.45603 1
vertex 42.25 3.76 1
vertex 42.25 4.51 1
endloop
endfacet
facet normal 0 0 1
outer loop
vertex 45.5182 2.54671 1
vertex 46.2145 1.51 1
vertex 45.6327 2.51923 1
endloop
endfacet
facet normal 0 0 1
outer loop
vertex 45.3092 2.65324 1
vertex 45.2197 2.72967 1
vertex 43.75 3.26 1
endloop
endfacet
facet normal 0 0 1
outer loop
vertex 43.75 3.26 1
vertex 45.2197 2.72967 1
vertex 45.1432 2.81916 1
endloop
endfacet
facet normal 0 0 1
outer loop
vertex 43.75 3.26 1
vertex 45.1432 2.81916 1
vertex 45.0817 2.91951 1
endloop
endfacet
facet normal 0 0 1
outer loop
vertex 45.0817 4.35049 1
vertex 45.1432 4.45084 1
vertex 43.75 3.26 1
endloop
endfacet
facet normal 0 0 1
outer loop
vertex 43.75 3.26 1
vertex 45.1432 4.45084 1
vertex 45.2197 4.54033 1
endloop
endfacet
facet normal 0 0 1
outer loop
vertex 43.75 3.26 1
vertex 45.2197 4.54033 1
vertex 48 9.51 1
endloop
endfacet
facet normal 0 0 1
outer loop
vertex 48 9.51 1
vertex 45.2197 4.54033 1
vertex 45.3092 4.61676 1
endloop
endfacet
facet normal 0 0 1
outer loop
vertex 48 9.51 1
vertex 45.3092 4.61676 1
vertex 45.4095 4.67826 1
endloop
endfacet
facet normal 0 0 1
outer loop
vertex 25.5901 0 1
vertex 25.8099 0 1
vertex 25.2 1.45603 1
endloop
endfacet
facet normal 0 0 1
outer loop
vertex 25.2 1.45603 1
vertex 25.8099 0 1
vertex 26.2 1.45603 1
endloop
endfacet
facet normal 0 0 1
outer loop
vertex 29.5901 0 1
vertex 29.8099 0 1
vertex 29.2 1.45603 1
endloop
endfacet
facet normal 0 0 1
outer loop
vertex 29.2 1.45603 1
vertex 29.8099 0 1
vertex 30.2 1.45603 1
endloop
endfacet
facet normal 0 0 1
outer loop
vertex 29.2 1.45603 1
vertex 30.2 1.45603 1
vertex 21.75 7.76 1
endloop
endfacet
facet normal 0 0 1
outer loop
vertex 21.75 7.76 1
vertex 30.2 1.45603 1
vertex 31.2 1.45603 1
endloop
endfacet
facet normal 0 0 1
outer loop
vertex 21.75 7.76 1
vertex 31.2 1.45603 1
vertex 32.2 1.45603 1
endloop
endfacet
facet normal 0 0 1
outer loop
vertex 32.2 1.45603 1
vertex 31.2 1.45603 1
vertex 31.8099 0 1
endloop
endfacet
facet normal 0 0 1
outer loop
vertex 32.5901 0 1
vertex 32.8099 0 1
vertex 32.2 1.45603 1
endloop
endfacet
facet normal 0 0 1
outer loop
vertex 32.2 1.45603 1
vertex 32.8099 0 1
vertex 33.2 1.45603 1
endloop
endfacet
facet normal 0 0 1
outer loop
vertex 32.2 1.45603 1
vertex 33.2 1.45603 1
vertex 21.75 7.76 1
endloop
endfacet
facet normal 0 0 1
outer loop
vertex 21.75 7.76 1
vertex 33.2 1.45603 1
vertex 48 9.51 1
endloop
endfacet
facet normal 0 0 1
outer loop
vertex 21.75 7.76 1
vertex 48 9.51 1
vertex 15.25 7.76 1
endloop
endfacet
facet normal 0 0 1
outer loop
vertex 15.25 7.76 1
vertex 48 9.51 1
vertex 0 9.51 1
endloop
endfacet
facet normal 0 0 1
outer loop
vertex 15.25 7.76 1
vertex 0 9.51 1
vertex 10 4.51 1
endloop
endfacet
facet normal 0 0 1
outer loop
vertex 10 4.51 1
vertex 0 9.51 1
vertex 8.75 4.51 1
endloop
endfacet
facet normal 0 0 1
outer loop
vertex 35.2 1.45603 1
vertex 35.5901 0 1
vertex 35.8099 0 1
endloop
endfacet
facet normal 0 0 1
outer loop
vertex 37.5901 0 1
vertex 37.8099 0 1
vertex 37.2 1.45603 1
endloop
endfacet
facet normal 0 0 1
outer loop
vertex 37.2 1.45603 1
vertex 37.8099 0 1
vertex 38.2 1.45603 1
endloop
endfacet
facet normal 0 0 1
outer loop
vertex 42.5901 0 1
vertex 42.8099 0 1
vertex 42.2 1.45603 1
endloop
endfacet
facet normal 0 0 1
outer loop
vertex 42.2 1.45603 1
vertex 42.8099 0 1
vertex 43.2 1.45603 1
endloop
endfacet
facet normal 0 0 1
outer loop
vertex 42.2 1.45603 1
vertex 43.2 1.45603 1
vertex 42.25 2.51 1
endloop
endfacet
facet normal 0 0 1
outer loop
vertex 42.25 2.51 1
vertex 43.2 1.45603 1
vertex 44.2 1.45603 1
endloop
endfacet
facet normal 0 0 1
outer loop
vertex 42.25 2.51 1
vertex 44.2 1.45603 1
vertex 43.75 2.51 1
endloop
endfacet
facet normal 0 0 1
outer loop
vertex 43.75 2.51 1
vertex 44.2 1.45603 1
vertex 43.75 3.26 1
endloop
endfacet
facet normal 0 0 1
outer loop
vertex 45.4095 2.59174 1
vertex 45.3092 2.65324 1
vertex 46.2145 1.51 1
endloop
endfacet
facet normal 0 0 1
outer loop
vertex 46.2145 1.51 1
vertex 45.3092 2.65324 1
vertex 43.75 3.26 1
endloop
endfacet
facet normal 0 0 1
outer loop
vertex 46.2145 1.51 1
vertex 43.75 3.26 1
vertex 45.2 1.45603 1
endloop
endfacet
facet normal 0 0 1
outer loop
vertex 45.2 1.45603 1
vertex 43.75 3.26 1
vertex 44.2 1.45603 1
endloop
endfacet
facet normal 0 0 1
outer loop
vertex 45.2 1.45603 1
vertex 44.2 1.45603 1
vertex 44.8099 0 1
endloop
endfacet
facet normal 0 0 1
outer loop
vertex 44.8099 0 1
vertex 44.2 1.45603 1
vertex 44.5901 0 1
endloop
endfacet
facet normal 0 0 1
outer loop
vertex 45.0817 2.91951 1
vertex 45.0367 3.02824 1
vertex 43.75 3.26 1
endloop
endfacet
facet normal 0 0 1
outer loop
vertex 43.75 3.26 1
vertex 45.0367 3.02824 1
vertex 45.0092 3.14267 1
endloop
endfacet
facet normal 0 0 1
outer loop
vertex 43.75 3.26 1
vertex 45.0092 3.14267 1
vertex 45 3.26 1
endloop
endfacet
facet normal 0 0 1
outer loop
vertex 20.5901 0 1
vertex 20.8099 0 1
vertex 20.2 1.45603 1
endloop
endfacet
facet normal 0 0 1
outer loop
vertex 20.2 1.45603 1
vertex 20.8099 0 1
vertex 21.2 1.45603 1
endloop
endfacet
facet normal 0 0 1
outer loop
vertex 20.2 1.45603 1
vertex 21.2 1.45603 1
vertex 21.75 3.26 1
endloop
endfacet
facet normal 0 0 1
outer loop
vertex 21.75 3.26 1
vertex 21.2 1.45603 1
vertex 22.2 1.45603 1
endloop
endfacet
facet normal 0 0 1
outer loop
vertex 21.75 3.26 1
vertex 22.2 1.45603 1
vertex 21.75 7.76 1
endloop
endfacet
facet normal 0 0 1
outer loop
vertex 21.75 7.76 1
vertex 22.2 1.45603 1
vertex 23.2 1.45603 1
endloop
endfacet
facet normal 0 0 1
outer loop
vertex 21.75 7.76 1
vertex 23.2 1.45603 1
vertex 24.2 1.45603 1
endloop
endfacet
facet normal 0 0 1
outer loop
vertex 24.2 1.45603 1
vertex 23.2 1.45603 1
vertex 23.8099 0 1
endloop
endfacet
facet normal 0 0 1
outer loop
vertex 24.5901 0 1
vertex 24.8099 0 1
vertex 24.2 1.45603 1
endloop
endfacet
facet normal 0 0 1
outer loop
vertex 24.2 1.45603 1
vertex 24.8099 0 1
vertex 25.2 1.45603 1
endloop
endfacet
facet normal 0 0 1
outer loop
vertex 24.2 1.45603 1
vertex 25.2 1.45603 1
vertex 21.75 7.76 1
endloop
endfacet
facet normal 0 0 1
outer loop
vertex 21.75 7.76 1
vertex 25.2 1.45603 1
vertex 26.2 1.45603 1
endloop
endfacet
facet normal 0 0 1
outer loop
vertex 21.75 7.76 1
vertex 26.2 1.45603 1
vertex 27.2 1.45603 1
endloop
endfacet
facet normal 0 0 1
outer loop
vertex 27.2 1.45603 1
vertex 26.2 1.45603 1
vertex 26.8099 0 1
endloop
endfacet
facet normal 0 0 1
outer loop
vertex 33.5901 0 1
vertex 33.8099 0 1
vertex 33.2 1.45603 1
endloop
endfacet
facet normal 0 0 1
outer loop
vertex 33.2 1.45603 1
vertex 33.8099 0 1
vertex 34.2 1.45603 1
endloop
endfacet
facet normal 0 0 1
outer loop
vertex 33.2 1.45603 1
vertex 34.2 1.45603 1
vertex 48 9.51 1
endloop
endfacet
facet normal 0 0 1
outer loop
vertex 48 9.51 1
vertex 34.2 1.45603 1
vertex 35.2 1.45603 1
endloop
endfacet
facet normal 0 0 1
outer loop
vertex 48 9.51 1
vertex 35.2 1.45603 1
vertex 36.2 1.45603 1
endloop
endfacet
facet normal 0 0 1
outer loop
vertex 36.2 1.45603 1
vertex 35.2 1.45603 1
vertex 35.8099 0 1
endloop
endfacet
facet normal 0 0 1
outer loop
vertex 36.5901 0 1
vertex 36.8099 0 1
vertex 36.2 1.45603 1
endloop
endfacet
facet normal 0 0 1
outer loop
vertex 36.2 1.45603 1
vertex 36.8099 0 1
vertex 37.2 1.45603 1
endloop
endfacet
facet normal 0 0 1
outer loop
vertex 36.2 1.45603 1
vertex 37.2 1.45603 1
vertex 48 9.51 1
endloop
endfacet
facet normal 0 0 1
outer loop
vertex 48 9.51 1
vertex 37.2 1.45603 1
vertex 38.2 1.45603 1
endloop
endfacet
facet normal 0 0 1
outer loop
vertex 48 9.51 1
vertex 38.2 1.45603 1
vertex 42.25 4.51 1
endloop
endfacet
facet normal 0 0 1
outer loop
vertex 42.25 4.51 1
vertex 38.2 1.45603 1
vertex 39.2 1.45603 1
endloop
endfacet
facet normal 0 0 1
outer loop
vertex 42.25 4.51 1
vertex 39.2 1.45603 1
vertex 40.2 1.45603 1
endloop
endfacet
facet normal 0 0 1
outer loop
vertex 40.2 1.45603 1
vertex 39.2 1.45603 1
vertex 39.8099 0 1
endloop
endfacet
facet normal 0 0 1
outer loop
vertex 45 3.26 1
vertex 45 4.01 1
vertex 43.75 3.26 1
endloop
endfacet
facet normal 0 0 1
outer loop
vertex 43.75 3.26 1
vertex 45 4.01 1
vertex 45.0092 4.12733 1
endloop
endfacet
facet normal 0 0 1
outer loop
vertex 43.75 3.26 1
vertex 45.0092 4.12733 1
vertex 45.0367 4.24176 1
endloop
endfacet
facet normal 0 0 1
outer loop
vertex 48 1.51 1
vertex 48 2.51 1
vertex 46.2145 1.51 1
endloop
endfacet
facet normal 0 0 1
outer loop
vertex 46.2145 1.51 1
vertex 48 2.51 1
vertex 45.75 2.51 1
endloop
endfacet
facet normal 0 0 1
outer loop
vertex 46.2145 1.51 1
vertex 45.75 2.51 1
vertex 45.6327 2.51923 1
endloop
endfacet
facet normal 1 0 0
outer loop
vertex 45 3.26 1
vertex 45 3.26 0
vertex 45 4.01 1
endloop
endfacet
facet normal 1 0 0
outer loop
vertex 45 4.01 1
vertex 45 3.26 0
vertex 45 4.01 1.35525e-017
endloop
endfacet
facet normal 0.0784575 -0.996917 0
outer loop
vertex 45.75 4.76 1.35525e-017
vertex 45.75 4.76 1
vertex 45.6327 4.75077 1.35525e-017
endloop
endfacet
facet normal 0.0784575 -0.996917 0
outer loop
vertex 45.6327 4.75077 1.35525e-017
vertex 45.75 4.76 1
vertex 45.6327 4.75077 1
endloop
endfacet
facet normal 0.233445 -0.97237 0
outer loop
vertex 45.6327 4.75077 1.35525e-017
vertex 45.6327 4.75077 1
vertex 45.5182 4.72329 1.35525e-017
endloop
endfacet
facet normal 0.233445 -0.97237 0
outer loop
vertex 45.5182 4.72329 1.35525e-017
vertex 45.6327 4.75077 1
vertex 45.5182 4.72329 1
endloop
endfacet
facet normal 0.382681 -0.92388 0
outer loop
vertex 45.5182 4.72329 1.35525e-017
vertex 45.5182 4.72329 1
vertex 45.4095 4.67826 1.35525e-017
endloop
endfacet
facet normal 0.382681 -0.92388 0
outer loop
vertex 45.4095 4.67826 1.35525e-017
vertex 45.5182 4.72329 1
vertex 45.4095 4.67826 1
endloop
endfacet
facet normal 0.522502 -0.852638 0
outer loop
vertex 45.4095 4.67826 1.35525e-017
vertex 45.4095 4.67826 1
vertex 45.3092 4.61676 1.35525e-017
endloop
endfacet
facet normal 0.522502 -0.852638 0
outer loop
vertex 45.3092 4.61676 1.35525e-017
vertex 45.4095 4.67826 1
vertex 45.3092 4.61676 1
endloop
endfacet
facet normal 0.649441 -0.760412 0
outer loop
vertex 45.3092 4.61676 1.35525e-017
vertex 45.3092 4.61676 1
vertex 45.2197 4.54033 1.35525e-017
endloop
endfacet
facet normal 0.649441 -0.760412 0
outer loop
vertex 45.2197 4.54033 1.35525e-017
vertex 45.3092 4.61676 1
vertex 45.2197 4.54033 1
endloop
endfacet
facet normal 0.760411 -0.649442 0
outer loop
vertex 45.2197 4.54033 1.35525e-017
vertex 45.2197 4.54033 1
vertex 45.1432 4.45084 1.35525e-017
endloop
endfacet
facet normal 0.760411 -0.649442 0
outer loop
vertex 45.1432 4.45084 1.35525e-017
vertex 45.2197 4.54033 1
vertex 45.1432 4.45084 1
endloop
endfacet
facet normal 0.852637 -0.522503 0
outer loop
vertex 45.1432 4.45084 1.35525e-017
vertex 45.1432 4.45084 1
vertex 45.0817 4.35049 1.35525e-017
endloop
endfacet
facet normal 0.852637 -0.522503 0
outer loop
vertex 45.0817 4.35049 1.35525e-017
vertex 45.1432 4.45084 1
vertex 45.0817 4.35049 1
endloop
endfacet
facet normal 0.923895 -0.382647 0
outer loop
vertex 45.0817 4.35049 1.35525e-017
vertex 45.0817 4.35049 1
vertex 45.0367 4.24176 1.35525e-017
endloop
endfacet
facet normal 0.923895 -0.382647 0
outer loop
vertex 45.0367 4.24176 1.35525e-017
vertex 45.0817 4.35049 1
vertex 45.0367 4.24176 1
endloop
endfacet
facet normal 0.972356 -0.233504 0
outer loop
vertex 45.0367 4.24176 1.35525e-017
vertex 45.0367 4.24176 1
vertex 45.0092 4.12733 1.35525e-017
endloop
endfacet
facet normal 0.972356 -0.233504 0
outer loop
vertex 45.0092 4.12733 1.35525e-017
vertex 45.0367 4.24176 1
vertex 45.0092 4.12733 1
endloop
endfacet
facet normal 0.996919 -0.0784404 0
outer loop
vertex 45.0092 4.12733 1.35525e-017
vertex 45.0092 4.12733 1
vertex 45 4.01 1.35525e-017
endloop
endfacet
facet normal 0.996919 -0.0784404 0
outer loop
vertex 45 4.01 1.35525e-017
vertex 45.0092 4.12733 1
vertex 45 4.01 1
endloop
endfacet
facet normal 0 -1 0
outer loop
vertex 45.75 4.76 1
vertex 45.75 4.76 1.35525e-017
vertex 48 4.76 1
endloop
endfacet
facet normal 0 -1 0
outer loop
vertex 48 4.76 1
vertex 45.75 4.76 1.35525e-017
vertex 48 4.76 0
endloop
endfacet
facet normal 1 0 0
outer loop
vertex 48 4.76 0
vertex 48 9.51 0
vertex 48 4.76 1
endloop
endfacet
facet normal 1 0 0
outer loop
vertex 48 4.76 1
vertex 48 9.51 0
vertex 48 9.51 1
endloop
endfacet
facet normal 0 1 0
outer loop
vertex 0 9.51 0
vertex 0 9.51 1
vertex 48 9.51 0
endloop
endfacet
facet normal 0 1 0
outer loop
vertex 48 9.51 0
vertex 0 9.51 1
vertex 48 9.51 1
endloop
endfacet
facet normal -1 0 0
outer loop
vertex 0 1.51 0
vertex 0 1.51 1
vertex 0 9.51 0
endloop
endfacet
facet normal -1 0 0
outer loop
vertex 0 9.51 0
vertex 0 1.51 1
vertex 0 9.51 1
endloop
endfacet
facet normal 0 -1 0
outer loop
vertex 8.18554 1.51 1
vertex 0 1.51 1
vertex 8.18554 1.51 0
endloop
endfacet
facet normal 0 -1 0
outer loop
vertex 8.18554 1.51 0
vertex 0 1.51 1
vertex 0 1.51 0
endloop
endfacet
facet normal -0.965926 -0.258819 0
outer loop
vertex 8.59014 0 1
vertex 8.18554 1.51 1
vertex 8.59014 0 0
endloop
endfacet
facet normal -0.965926 -0.258819 0
outer loop
vertex 8.59014 0 0
vertex 8.18554 1.51 1
vertex 8.18554 1.51 0
endloop
endfacet
facet normal 0 -1 0
outer loop
vertex 8.59014 0 1
vertex 8.59014 0 0
vertex 8.80986 0 1
endloop
endfacet
facet normal 0 -1 0
outer loop
vertex 8.80986 0 1
vertex 8.59014 0 0
vertex 8.80986 0 0
endloop
endfacet
facet normal 0.965926 -0.258819 0
outer loop
vertex 8.80986 0 0
vertex 9.2 1.45603 0
vertex 8.80986 0 1
endloop
endfacet
facet normal 0.965926 -0.258819 0
outer loop
vertex 8.80986 0 1
vertex 9.2 1.45603 0
vertex 9.2 1.45603 1
endloop
endfacet
facet normal -0.965926 -0.258819 0
outer loop
vertex 9.59014 0 1
vertex 9.2 1.45603 1
vertex 9.59014 0 0
endloop
endfacet
facet normal -0.965926 -0.258819 0
outer loop
vertex 9.59014 0 0
vertex 9.2 1.45603 1
vertex 9.2 1.45603 0
endloop
endfacet
facet normal 0 -1 0
outer loop
vertex 9.59014 0 1
vertex 9.59014 0 0
vertex 9.80986 0 1
endloop
endfacet
facet normal 0 -1 0
outer loop
vertex 9.80986 0 1
vertex 9.59014 0 0
vertex 9.80986 0 0
endloop
endfacet
facet normal 0.965926 -0.258819 0
outer loop
vertex 9.80986 0 0
vertex 10.2 1.45603 0
vertex 9.80986 0 1
endloop
endfacet
facet normal 0.965926 -0.258819 0
outer loop
vertex 9.80986 0 1
vertex 10.2 1.45603 0
vertex 10.2 1.45603 1
endloop
endfacet
facet normal -0.965926 -0.258819 0
outer loop
vertex 10.5901 0 1
vertex 10.2 1.45603 1
vertex 10.5901 0 0
endloop
endfacet
facet normal -0.965926 -0.258819 0
outer loop
vertex 10.5901 0 0
vertex 10.2 1.45603 1
vertex 10.2 1.45603 0
endloop
endfacet
facet normal 0 -1 0
outer loop
vertex 10.5901 0 1
vertex 10.5901 0 0
vertex 10.8099 0 1
endloop
endfacet
facet normal 0 -1 0
outer loop
vertex 10.8099 0 1
vertex 10.5901 0 0
vertex 10.8099 0 0
endloop
endfacet
facet normal 0.965926 -0.258819 0
outer loop
vertex 10.8099 0 0
vertex 11.2 1.45603 0
vertex 10.8099 0 1
endloop
endfacet
facet normal 0.965926 -0.258819 0
outer loop
vertex 10.8099 0 1
vertex 11.2 1.45603 0
vertex 11.2 1.45603 1
endloop
endfacet
facet normal -0.965926 -0.258819 0
outer loop
vertex 11.5901 0 1
vertex 11.2 1.45603 1
vertex 11.5901 0 0
endloop
endfacet
facet normal -0.965926 -0.258819 0
outer loop
vertex 11.5901 0 0
vertex 11.2 1.45603 1
vertex 11.2 1.45603 0
endloop
endfacet
facet normal 0 -1 0
outer loop
vertex 11.5901 0 1
vertex 11.5901 0 0
vertex 11.8099 0 1
endloop
endfacet
facet normal 0 -1 0
outer loop
vertex 11.8099 0 1
vertex 11.5901 0 0
vertex 11.8099 0 0
endloop
endfacet
facet normal 0.965926 -0.258819 0
outer loop
vertex 11.8099 0 0
vertex 12.2 1.45603 0
vertex 11.8099 0 1
endloop
endfacet
facet normal 0.965926 -0.258819 0
outer loop
vertex 11.8099 0 1
vertex 12.2 1.45603 0
vertex 12.2 1.45603 1
endloop
endfacet
facet normal -0.965926 -0.258819 0
outer loop
vertex 12.5901 0 1
vertex 12.2 1.45603 1
vertex 12.5901 0 0
endloop
endfacet
facet normal -0.965926 -0.258819 0
outer loop
vertex 12.5901 0 0
vertex 12.2 1.45603 1
vertex 12.2 1.45603 0
endloop
endfacet
facet normal 0 -1 0
outer loop
vertex 12.5901 0 1
vertex 12.5901 0 0
vertex 12.8099 0 1
endloop
endfacet
facet normal 0 -1 0
outer loop
vertex 12.8099 0 1
vertex 12.5901 0 0
vertex 12.8099 0 0
endloop
endfacet
facet normal 0.965926 -0.258819 0
outer loop
vertex 12.8099 0 0
vertex 13.2 1.45603 0
vertex 12.8099 0 1
endloop
endfacet
facet normal 0.965926 -0.258819 0
outer loop
vertex 12.8099 0 1
vertex 13.2 1.45603 0
vertex 13.2 1.45603 1
endloop
endfacet
facet normal -0.965926 -0.258819 0
outer loop
vertex 13.5901 0 1
vertex 13.2 1.45603 1
vertex 13.5901 0 0
endloop
endfacet
facet normal -0.965926 -0.258819 0
outer loop
vertex 13.5901 0 0
vertex 13.2 1.45603 1
vertex 13.2 1.45603 0
endloop
endfacet
facet normal 0 -1 0
outer loop
vertex 13.5901 0 1
vertex 13.5901 0 0
vertex 13.8099 0 1
endloop
endfacet
facet normal 0 -1 0
outer loop
vertex 13.8099 0 1
vertex 13.5901 0 0
vertex 13.8099 0 0
endloop
endfacet
facet normal 0.965926 -0.258818 0
outer loop
vertex 13.8099 0 0
vertex 14.2 1.45603 0
vertex 13.8099 0 1
endloop
endfacet
facet normal 0.965926 -0.258818 0
outer loop
vertex 13.8099 0 1
vertex 14.2 1.45603 0
vertex 14.2 1.45603 1
endloop
endfacet
facet normal -0.965926 -0.258819 0
outer loop
vertex 14.5901 0 1
vertex 14.2 1.45603 1
vertex 14.5901 0 0
endloop
endfacet
facet normal -0.965926 -0.258819 0
outer loop
vertex 14.5901 0 0
vertex 14.2 1.45603 1
vertex 14.2 1.45603 0
endloop
endfacet
facet normal 0 -1 0
outer loop
vertex 14.5901 0 1
vertex 14.5901 0 0
vertex 14.8099 0 1
endloop
endfacet
facet normal 0 -1 0
outer loop
vertex 14.8099 0 1
vertex 14.5901 0 0
vertex 14.8099 0 0
endloop
endfacet
facet normal 0.965926 -0.258818 0
outer loop
vertex 14.8099 0 0
vertex 15.2 1.45603 0
vertex 14.8099 0 1
endloop
endfacet
facet normal 0.965926 -0.258818 0
outer loop
vertex 14.8099 0 1
vertex 15.2 1.45603 0
vertex 15.2 1.45603 1
endloop
endfacet
facet normal -0.965926 -0.258819 0
outer loop
vertex 15.5901 0 1
vertex 15.2 1.45603 1
vertex 15.5901 0 0
endloop
endfacet
facet normal -0.965926 -0.258819 0
outer loop
vertex 15.5901 0 0
vertex 15.2 1.45603 1
vertex 15.2 1.45603 0
endloop
endfacet
facet normal 0 -1 0
outer loop
vertex 15.5901 0 1
vertex 15.5901 0 0
vertex 15.8099 0 1
endloop
endfacet
facet normal 0 -1 0
outer loop
vertex 15.8099 0 1
vertex 15.5901 0 0
vertex 15.8099 0 0
endloop
endfacet
facet normal 0.965926 -0.258819 0
outer loop
vertex 15.8099 0 0
vertex 16.2 1.45603 0
vertex 15.8099 0 1
endloop
endfacet
facet normal 0.965926 -0.258819 0
outer loop
vertex 15.8099 0 1
vertex 16.2 1.45603 0
vertex 16.2 1.45603 1
endloop
endfacet
facet normal -0.965926 -0.258819 0
outer loop
vertex 16.5901 0 1
vertex 16.2 1.45603 1
vertex 16.5901 0 0
endloop
endfacet
facet normal -0.965926 -0.258819 0
outer loop
vertex 16.5901 0 0
vertex 16.2 1.45603 1
vertex 16.2 1.45603 0
endloop
endfacet
facet normal 0 -1 0
outer loop
vertex 16.5901 0 1
vertex 16.5901 0 0
vertex 16.8099 0 1
endloop
endfacet
facet normal 0 -1 0
outer loop
vertex 16.8099 0 1
vertex 16.5901 0 0
vertex 16.8099 0 0
endloop
endfacet
facet normal 0.965926 -0.258819 0
outer loop
vertex 16.8099 0 0
vertex 17.2 1.45603 0
vertex 16.8099 0 1
endloop
endfacet
facet normal 0.965926 -0.258819 0
outer loop
vertex 16.8099 0 1
vertex 17.2 1.45603 0
vertex 17.2 1.45603 1
endloop
endfacet
facet normal -0.965926 -0.258819 0
outer loop
vertex 17.5901 0 1
vertex 17.2 1.45603 1
vertex 17.5901 0 0
endloop
endfacet
facet normal -0.965926 -0.258819 0
outer loop
vertex 17.5901 0 0
vertex 17.2 1.45603 1
vertex 17.2 1.45603 0
endloop
endfacet
facet normal 0 -1 0
outer loop
vertex 17.5901 0 1
vertex 17.5901 0 0
vertex 17.8099 0 1
endloop
endfacet
facet normal 0 -1 0
outer loop
vertex 17.8099 0 1
vertex 17.5901 0 0
vertex 17.8099 0 0
endloop
endfacet
facet normal 0.965926 -0.258819 0
outer loop
vertex 17.8099 0 0
vertex 18.2 1.45603 0
vertex 17.8099 0 1
endloop
endfacet
facet normal 0.965926 -0.258819 0
outer loop
vertex 17.8099 0 1
vertex 18.2 1.45603 0
vertex 18.2 1.45603 1
endloop
endfacet
facet normal -0.965926 -0.258819 0
outer loop
vertex 18.5901 0 1
vertex 18.2 1.45603 1
vertex 18.5901 0 0
endloop
endfacet
facet normal -0.965926 -0.258819 0
outer loop
vertex 18.5901 0 0
vertex 18.2 1.45603 1
vertex 18.2 1.45603 0
endloop
endfacet
facet normal 0 -1 0
outer loop
vertex 18.5901 0 1
vertex 18.5901 0 0
vertex 18.8099 0 1
endloop
endfacet
facet normal 0 -1 0
outer loop
vertex 18.8099 0 1
vertex 18.5901 0 0
vertex 18.8099 0 0
endloop
endfacet
facet normal 0.965926 -0.258819 0
outer loop
vertex 18.8099 0 0
vertex 19.2 1.45603 0
vertex 18.8099 0 1
endloop
endfacet
facet normal 0.965926 -0.258819 0
outer loop
vertex 18.8099 0 1
vertex 19.2 1.45603 0
vertex 19.2 1.45603 1
endloop
endfacet
facet normal -0.965926 -0.258819 0
outer loop
vertex 19.5901 0 1
vertex 19.2 1.45603 1
vertex 19.5901 0 0
endloop
endfacet
facet normal -0.965926 -0.258819 0
outer loop
vertex 19.5901 0 0
vertex 19.2 1.45603 1
vertex 19.2 1.45603 0
endloop
endfacet
facet normal 0 -1 0
outer loop
vertex 19.5901 0 1
vertex 19.5901 0 0
vertex 19.8099 0 1
endloop
endfacet
facet normal 0 -1 0
outer loop
vertex 19.8099 0 1
vertex 19.5901 0 0
vertex 19.8099 0 0
endloop
endfacet
facet normal 0.965926 -0.258819 0
outer loop
vertex 19.8099 0 0
vertex 20.2 1.45603 0
vertex 19.8099 0 1
endloop
endfacet
facet normal 0.965926 -0.258819 0
outer loop
vertex 19.8099 0 1
vertex 20.2 1.45603 0
vertex 20.2 1.45603 1
endloop
endfacet
facet normal -0.965926 -0.258819 0
outer loop
vertex 20.5901 0 1
vertex 20.2 1.45603 1
vertex 20.5901 0 0
endloop
endfacet
facet normal -0.965926 -0.258819 0
outer loop
vertex 20.5901 0 0
vertex 20.2 1.45603 1
vertex 20.2 1.45603 0
endloop
endfacet
facet normal 0 -1 0
outer loop
vertex 20.5901 0 1
vertex 20.5901 0 0
vertex 20.8099 0 1
endloop
endfacet
facet normal 0 -1 0
outer loop
vertex 20.8099 0 1
vertex 20.5901 0 0
vertex 20.8099 0 0
endloop
endfacet
facet normal 0.965926 -0.25882 0
outer loop
vertex 20.8099 0 0
vertex 21.2 1.45603 0
vertex 20.8099 0 1
endloop
endfacet
facet normal 0.965926 -0.25882 0
outer loop
vertex 20.8099 0 1
vertex 21.2 1.45603 0
vertex 21.2 1.45603 1
endloop
endfacet
facet normal -0.965926 -0.258819 0
outer loop
vertex 21.5901 0 1
vertex 21.2 1.45603 1
vertex 21.5901 0 0
endloop
endfacet
facet normal -0.965926 -0.258819 0
outer loop
vertex 21.5901 0 0
vertex 21.2 1.45603 1
vertex 21.2 1.45603 0
endloop
endfacet
facet normal 0 -1 0
outer loop
vertex 21.5901 0 1
vertex 21.5901 0 0
vertex 21.8099 0 1
endloop
endfacet
facet normal 0 -1 0
outer loop
vertex 21.8099 0 1
vertex 21.5901 0 0
vertex 21.8099 0 0
endloop
endfacet
facet normal 0.965926 -0.25882 0
outer loop
vertex 21.8099 0 0
vertex 22.2 1.45603 0
vertex 21.8099 0 1
endloop
endfacet
facet normal 0.965926 -0.25882 0
outer loop
vertex 21.8099 0 1
vertex 22.2 1.45603 0
vertex 22.2 1.45603 1
endloop
endfacet
facet normal -0.965926 -0.258819 0
outer loop
vertex 22.5901 0 1
vertex 22.2 1.45603 1
vertex 22.5901 0 0
endloop
endfacet
facet normal -0.965926 -0.258819 0
outer loop
vertex 22.5901 0 0
vertex 22.2 1.45603 1
vertex 22.2 1.45603 0
endloop
endfacet
facet normal 0 -1 0
outer loop
vertex 22.5901 0 1
vertex 22.5901 0 0
vertex 22.8099 0 1
endloop
endfacet
facet normal 0 -1 0
outer loop
vertex 22.8099 0 1
vertex 22.5901 0 0
vertex 22.8099 0 0
endloop
endfacet
facet normal 0.965926 -0.258819 0
outer loop
vertex 22.8099 0 0
vertex 23.2 1.45603 0
vertex 22.8099 0 1
endloop
endfacet
facet normal 0.965926 -0.258819 0
outer loop
vertex 22.8099 0 1
vertex 23.2 1.45603 0
vertex 23.2 1.45603 1
endloop
endfacet
facet normal -0.965926 -0.258819 0
outer loop
vertex 23.5901 0 1
vertex 23.2 1.45603 1
vertex 23.5901 0 0
endloop
endfacet
facet normal -0.965926 -0.258819 0
outer loop
vertex 23.5901 0 0
vertex 23.2 1.45603 1
vertex 23.2 1.45603 0
endloop
endfacet
facet normal 0 -1 0
outer loop
vertex 23.5901 0 1
vertex 23.5901 0 0
vertex 23.8099 0 1
endloop
endfacet
facet normal 0 -1 0
outer loop
vertex 23.8099 0 1
vertex 23.5901 0 0
vertex 23.8099 0 0
endloop
endfacet
facet normal 0.965926 -0.258819 0
outer loop
vertex 23.8099 0 0
vertex 24.2 1.45603 0
vertex 23.8099 0 1
endloop
endfacet
facet normal 0.965926 -0.258819 0
outer loop
vertex 23.8099 0 1
vertex 24.2 1.45603 0
vertex 24.2 1.45603 1
endloop
endfacet
facet normal -0.965926 -0.258819 0
outer loop
vertex 24.5901 0 1
vertex 24.2 1.45603 1
vertex 24.5901 0 0
endloop
endfacet
facet normal -0.965926 -0.258819 0
outer loop
vertex 24.5901 0 0
vertex 24.2 1.45603 1
vertex 24.2 1.45603 0
endloop
endfacet
facet normal 0 -1 0
outer loop
vertex 24.5901 0 1
vertex 24.5901 0 0
vertex 24.8099 0 1
endloop
endfacet
facet normal 0 -1 0
outer loop
vertex 24.8099 0 1
vertex 24.5901 0 0
vertex 24.8099 0 0
endloop
endfacet
facet normal 0.965926 -0.258819 0
outer loop
vertex 24.8099 0 0
vertex 25.2 1.45603 0
vertex 24.8099 0 1
endloop
endfacet
facet normal 0.965926 -0.258819 0
outer loop
vertex 24.8099 0 1
vertex 25.2 1.45603 0
vertex 25.2 1.45603 1
endloop
endfacet
facet normal -0.965926 -0.258819 0
outer loop
vertex 25.5901 0 1
vertex 25.2 1.45603 1
vertex 25.5901 0 0
endloop
endfacet
facet normal -0.965926 -0.258819 0
outer loop
vertex 25.5901 0 0
vertex 25.2 1.45603 1
vertex 25.2 1.45603 0
endloop
endfacet
facet normal 0 -1 0
outer loop
vertex 25.5901 0 1
vertex 25.5901 0 0
vertex 25.8099 0 1
endloop
endfacet
facet normal 0 -1 0
outer loop
vertex 25.8099 0 1
vertex 25.5901 0 0
vertex 25.8099 0 0
endloop
endfacet
facet normal 0.965926 -0.258819 0
outer loop
vertex 25.8099 0 0
vertex 26.2 1.45603 0
vertex 25.8099 0 1
endloop
endfacet
facet normal 0.965926 -0.258819 0
outer loop
vertex 25.8099 0 1
vertex 26.2 1.45603 0
vertex 26.2 1.45603 1
endloop
endfacet
facet normal -0.965926 -0.25882 0
outer loop
vertex 26.5901 0 1
vertex 26.2 1.45603 1
vertex 26.5901 0 0
endloop
endfacet
facet normal -0.965926 -0.25882 0
outer loop
vertex 26.5901 0 0
vertex 26.2 1.45603 1
vertex 26.2 1.45603 0
endloop
endfacet
facet normal 0 -1 0
outer loop
vertex 26.5901 0 1
vertex 26.5901 0 0
vertex 26.8099 0 1
endloop
endfacet
facet normal 0 -1 0
outer loop
vertex 26.8099 0 1
vertex 26.5901 0 0
vertex 26.8099 0 0
endloop
endfacet
facet normal 0.965926 -0.258819 0
outer loop
vertex 26.8099 0 0
vertex 27.2 1.45603 0
vertex 26.8099 0 1
endloop
endfacet
facet normal 0.965926 -0.258819 0
outer loop
vertex 26.8099 0 1
vertex 27.2 1.45603 0
vertex 27.2 1.45603 1
endloop
endfacet
facet normal -0.965926 -0.258819 0
outer loop
vertex 27.5901 0 1
vertex 27.2 1.45603 1
vertex 27.5901 0 0
endloop
endfacet
facet normal -0.965926 -0.258819 0
outer loop
vertex 27.5901 0 0
vertex 27.2 1.45603 1
vertex 27.2 1.45603 0
endloop
endfacet
facet normal 0 -1 0
outer loop
vertex 27.5901 0 1
vertex 27.5901 0 0
vertex 27.8099 0 1
endloop
endfacet
facet normal 0 -1 0
outer loop
vertex 27.8099 0 1
vertex 27.5901 0 0
vertex 27.8099 0 0
endloop
endfacet
facet normal 0.965926 -0.258819 0
outer loop
vertex 27.8099 0 0
vertex 28.2 1.45603 0
vertex 27.8099 0 1
endloop
endfacet
facet normal 0.965926 -0.258819 0
outer loop
vertex 27.8099 0 1
vertex 28.2 1.45603 0
vertex 28.2 1.45603 1
endloop
endfacet
facet normal -0.965926 -0.258819 0
outer loop
vertex 28.5901 0 1
vertex 28.2 1.45603 1
vertex 28.5901 0 0
endloop
endfacet
facet normal -0.965926 -0.258819 0
outer loop
vertex 28.5901 0 0
vertex 28.2 1.45603 1
vertex 28.2 1.45603 0
endloop
endfacet
facet normal 0 -1 0
outer loop
vertex 28.5901 0 1
vertex 28.5901 0 0
vertex 28.8099 0 1
endloop
endfacet
facet normal 0 -1 0
outer loop
vertex 28.8099 0 1
vertex 28.5901 0 0
vertex 28.8099 0 0
endloop
endfacet
facet normal 0.965926 -0.258819 0
outer loop
vertex 28.8099 0 0
vertex 29.2 1.45603 0
vertex 28.8099 0 1
endloop
endfacet
facet normal 0.965926 -0.258819 0
outer loop
vertex 28.8099 0 1
vertex 29.2 1.45603 0
vertex 29.2 1.45603 1
endloop
endfacet
facet normal -0.965926 -0.258819 0
outer loop
vertex 29.5901 0 1
vertex 29.2 1.45603 1
vertex 29.5901 0 0
endloop
endfacet
facet normal -0.965926 -0.258819 0
outer loop
vertex 29.5901 0 0
vertex 29.2 1.45603 1
vertex 29.2 1.45603 0
endloop
endfacet
facet normal 0 -1 0
outer loop
vertex 29.5901 0 1
vertex 29.5901 0 0
vertex 29.8099 0 1
endloop
endfacet
facet normal 0 -1 0
outer loop
vertex 29.8099 0 1
vertex 29.5901 0 0
vertex 29.8099 0 0
endloop
endfacet
facet normal 0.965926 -0.25882 0
outer loop
vertex 29.8099 0 0
vertex 30.2 1.45603 0
vertex 29.8099 0 1
endloop
endfacet
facet normal 0.965926 -0.25882 0
outer loop
vertex 29.8099 0 1
vertex 30.2 1.45603 0
vertex 30.2 1.45603 1
endloop
endfacet
facet normal -0.965926 -0.258819 0
outer loop
vertex 30.5901 0 1
vertex 30.2 1.45603 1
vertex 30.5901 0 0
endloop
endfacet
facet normal -0.965926 -0.258819 0
outer loop
vertex 30.5901 0 0
vertex 30.2 1.45603 1
vertex 30.2 1.45603 0
endloop
endfacet
facet normal 0 -1 0
outer loop
vertex 30.5901 0 1
vertex 30.5901 0 0
vertex 30.8099 0 1
endloop
endfacet
facet normal 0 -1 0
outer loop
vertex 30.8099 0 1
vertex 30.5901 0 0
vertex 30.8099 0 0
endloop
endfacet
facet normal 0.965926 -0.258819 0
outer loop
vertex 30.8099 0 0
vertex 31.2 1.45603 0
vertex 30.8099 0 1
endloop
endfacet
facet normal 0.965926 -0.258819 0
outer loop
vertex 30.8099 0 1
vertex 31.2 1.45603 0
vertex 31.2 1.45603 1
endloop
endfacet
facet normal -0.965926 -0.258819 0
outer loop
vertex 31.5901 0 1
vertex 31.2 1.45603 1
vertex 31.5901 0 0
endloop
endfacet
facet normal -0.965926 -0.258819 0
outer loop
vertex 31.5901 0 0
vertex 31.2 1.45603 1
vertex 31.2 1.45603 0
endloop
endfacet
facet normal 0 -1 0
outer loop
vertex 31.5901 0 1
vertex 31.5901 0 0
vertex 31.8099 0 1
endloop
endfacet
facet normal 0 -1 0
outer loop
vertex 31.8099 0 1
vertex 31.5901 0 0
vertex 31.8099 0 0
endloop
endfacet
facet normal 0.965926 -0.25882 0
outer loop
vertex 31.8099 0 0
vertex 32.2 1.45603 0
vertex 31.8099 0 1
endloop
endfacet
facet normal 0.965926 -0.25882 0
outer loop
vertex 31.8099 0 1
vertex 32.2 1.45603 0
vertex 32.2 1.45603 1
endloop
endfacet
facet normal -0.965925 -0.258821 0
outer loop
vertex 32.5901 0 1
vertex 32.2 1.45603 1
vertex 32.5901 0 0
endloop
endfacet
facet normal -0.965925 -0.258821 0
outer loop
vertex 32.5901 0 0
vertex 32.2 1.45603 1
vertex 32.2 1.45603 0
endloop
endfacet
facet normal 0 -1 0
outer loop
vertex 32.5901 0 1
vertex 32.5901 0 0
vertex 32.8099 0 1
endloop
endfacet
facet normal 0 -1 0
outer loop
vertex 32.8099 0 1
vertex 32.5901 0 0
vertex 32.8099 0 0
endloop
endfacet
facet normal 0.965926 -0.258819 0
outer loop
vertex 32.8099 0 0
vertex 33.2 1.45603 0
vertex 32.8099 0 1
endloop
endfacet
facet normal 0.965926 -0.258819 0
outer loop
vertex 32.8099 0 1
vertex 33.2 1.45603 0
vertex 33.2 1.45603 1
endloop
endfacet
facet normal -0.965926 -0.258819 0
outer loop
vertex 33.5901 0 1
vertex 33.2 1.45603 1
vertex 33.5901 0 0
endloop
endfacet
facet normal -0.965926 -0.258819 0
outer loop
vertex 33.5901 0 0
vertex 33.2 1.45603 1
vertex 33.2 1.45603 0
endloop
endfacet
facet normal 0 -1 0
outer loop
vertex 33.5901 0 1
vertex 33.5901 0 0
vertex 33.8099 0 1
endloop
endfacet
facet normal 0 -1 0
outer loop
vertex 33.8099 0 1
vertex 33.5901 0 0
vertex 33.8099 0 0
endloop
endfacet
facet normal 0.965926 -0.258819 0
outer loop
vertex 33.8099 0 0
vertex 34.2 1.45603 0
vertex 33.8099 0 1
endloop
endfacet
facet normal 0.965926 -0.258819 0
outer loop
vertex 33.8099 0 1
vertex 34.2 1.45603 0
vertex 34.2 1.45603 1
endloop
endfacet
facet normal -0.965926 -0.258819 0
outer loop
vertex 34.5901 0 1
vertex 34.2 1.45603 1
vertex 34.5901 0 0
endloop
endfacet
facet normal -0.965926 -0.258819 0
outer loop
vertex 34.5901 0 0
vertex 34.2 1.45603 1
vertex 34.2 1.45603 0
endloop
endfacet
facet normal 0 -1 0
outer loop
vertex 34.5901 0 1
vertex 34.5901 0 0
vertex 34.8099 0 1
endloop
endfacet
facet normal 0 -1 0
outer loop
vertex 34.8099 0 1
vertex 34.5901 0 0
vertex 34.8099 0 0
endloop
endfacet
facet normal 0.965925 -0.258821 0
outer loop
vertex 34.8099 0 0
vertex 35.2 1.45603 0
vertex 34.8099 0 1
endloop
endfacet
facet normal 0.965925 -0.258821 0
outer loop
vertex 34.8099 0 1
vertex 35.2 1.45603 0
vertex 35.2 1.45603 1
endloop
endfacet
facet normal -0.965926 -0.258819 0
outer loop
vertex 35.5901 0 1
vertex 35.2 1.45603 1
vertex 35.5901 0 0
endloop
endfacet
facet normal -0.965926 -0.258819 0
outer loop
vertex 35.5901 0 0
vertex 35.2 1.45603 1
vertex 35.2 1.45603 0
endloop
endfacet
facet normal 0 -1 0
outer loop
vertex 35.5901 0 1
vertex 35.5901 0 0
vertex 35.8099 0 1
endloop
endfacet
facet normal 0 -1 0
outer loop
vertex 35.8099 0 1
vertex 35.5901 0 0
vertex 35.8099 0 0
endloop
endfacet
facet normal 0.965926 -0.258819 0
outer loop
vertex 35.8099 0 0
vertex 36.2 1.45603 0
vertex 35.8099 0 1
endloop
endfacet
facet normal 0.965926 -0.258819 0
outer loop
vertex 35.8099 0 1
vertex 36.2 1.45603 0
vertex 36.2 1.45603 1
endloop
endfacet
facet normal -0.965926 -0.258819 0
outer loop
vertex 36.5901 0 1
vertex 36.2 1.45603 1
vertex 36.5901 0 0
endloop
endfacet
facet normal -0.965926 -0.258819 0
outer loop
vertex 36.5901 0 0
vertex 36.2 1.45603 1
vertex 36.2 1.45603 0
endloop
endfacet
facet normal 0 -1 0
outer loop
vertex 36.5901 0 1
vertex 36.5901 0 0
vertex 36.8099 0 1
endloop
endfacet
facet normal 0 -1 0
outer loop
vertex 36.8099 0 1
vertex 36.5901 0 0
vertex 36.8099 0 0
endloop
endfacet
facet normal 0.965926 -0.258819 0
outer loop
vertex 36.8099 0 0
vertex 37.2 1.45603 0
vertex 36.8099 0 1
endloop
endfacet
facet normal 0.965926 -0.258819 0
outer loop
vertex 36.8099 0 1
vertex 37.2 1.45603 0
vertex 37.2 1.45603 1
endloop
endfacet
facet normal -0.965926 -0.258819 0
outer loop
vertex 37.5901 0 1
vertex 37.2 1.45603 1
vertex 37.5901 0 0
endloop
endfacet
facet normal -0.965926 -0.258819 0
outer loop
vertex 37.5901 0 0
vertex 37.2 1.45603 1
vertex 37.2 1.45603 0
endloop
endfacet
facet normal 0 -1 0
outer loop
vertex 37.5901 0 1
vertex 37.5901 0 0
vertex 37.8099 0 1
endloop
endfacet
facet normal 0 -1 0
outer loop
vertex 37.8099 0 1
vertex 37.5901 0 0
vertex 37.8099 0 0
endloop
endfacet
facet normal 0.965927 -0.258817 0
outer loop
vertex 37.8099 0 0
vertex 38.2 1.45603 0
vertex 37.8099 0 1
endloop
endfacet
facet normal 0.965927 -0.258817 0
outer loop
vertex 37.8099 0 1
vertex 38.2 1.45603 0
vertex 38.2 1.45603 1
endloop
endfacet
facet normal -0.965925 -0.258821 0
outer loop
vertex 38.5901 0 1
vertex 38.2 1.45603 1
vertex 38.5901 0 0
endloop
endfacet
facet normal -0.965925 -0.258821 0
outer loop
vertex 38.5901 0 0
vertex 38.2 1.45603 1
vertex 38.2 1.45603 0
endloop
endfacet
facet normal 0 -1 0
outer loop
vertex 38.5901 0 1
vertex 38.5901 0 0
vertex 38.8099 0 1
endloop
endfacet
facet normal 0 -1 0
outer loop
vertex 38.8099 0 1
vertex 38.5901 0 0
vertex 38.8099 0 0
endloop
endfacet
facet normal 0.965925 -0.258821 0
outer loop
vertex 38.8099 0 0
vertex 39.2 1.45603 0
vertex 38.8099 0 1
endloop
endfacet
facet normal 0.965925 -0.258821 0
outer loop
vertex 38.8099 0 1
vertex 39.2 1.45603 0
vertex 39.2 1.45603 1
endloop
endfacet
facet normal -0.965926 -0.258819 0
outer loop
vertex 39.5901 0 1
vertex 39.2 1.45603 1
vertex 39.5901 0 0
endloop
endfacet
facet normal -0.965926 -0.258819 0
outer loop
vertex 39.5901 0 0
vertex 39.2 1.45603 1
vertex 39.2 1.45603 0
endloop
endfacet
facet normal 0 -1 0
outer loop
vertex 39.5901 0 1
vertex 39.5901 0 0
vertex 39.8099 0 1
endloop
endfacet
facet normal 0 -1 0
outer loop
vertex 39.8099 0 1
vertex 39.5901 0 0
vertex 39.8099 0 0
endloop
endfacet
facet normal 0.965926 -0.258819 0
outer loop
vertex 39.8099 0 0
vertex 40.2 1.45603 0
vertex 39.8099 0 1
endloop
endfacet
facet normal 0.965926 -0.258819 0
outer loop
vertex 39.8099 0 1
vertex 40.2 1.45603 0
vertex 40.2 1.45603 1
endloop
endfacet
facet normal -0.965926 -0.258819 0
outer loop
vertex 40.5901 0 1
vertex 40.2 1.45603 1
vertex 40.5901 0 0
endloop
endfacet
facet normal -0.965926 -0.258819 0
outer loop
vertex 40.5901 0 0
vertex 40.2 1.45603 1
vertex 40.2 1.45603 0
endloop
endfacet
facet normal 0 -1 0
outer loop
vertex 40.5901 0 1
vertex 40.5901 0 0
vertex 40.8099 0 1
endloop
endfacet
facet normal 0 -1 0
outer loop
vertex 40.8099 0 1
vertex 40.5901 0 0
vertex 40.8099 0 0
endloop
endfacet
facet normal 0.965927 -0.258817 0
outer loop
vertex 40.8099 0 0
vertex 41.2 1.45603 0
vertex 40.8099 0 1
endloop
endfacet
facet normal 0.965927 -0.258817 0
outer loop
vertex 40.8099 0 1
vertex 41.2 1.45603 0
vertex 41.2 1.45603 1
endloop
endfacet
facet normal -0.965927 -0.258817 0
outer loop
vertex 41.5901 0 1
vertex 41.2 1.45603 1
vertex 41.5901 0 0
endloop
endfacet
facet normal -0.965927 -0.258817 0
outer loop
vertex 41.5901 0 0
vertex 41.2 1.45603 1
vertex 41.2 1.45603 0
endloop
endfacet
facet normal 0 -1 0
outer loop
vertex 41.5901 0 1
vertex 41.5901 0 0
vertex 41.8099 0 1
endloop
endfacet
facet normal 0 -1 0
outer loop
vertex 41.8099 0 1
vertex 41.5901 0 0
vertex 41.8099 0 0
endloop
endfacet
facet normal 0.965926 -0.258819 0
outer loop
vertex 41.8099 0 0
vertex 42.2 1.45603 0
vertex 41.8099 0 1
endloop
endfacet
facet normal 0.965926 -0.258819 0
outer loop
vertex 41.8099 0 1
vertex 42.2 1.45603 0
vertex 42.2 1.45603 1
endloop
endfacet
facet normal -0.965926 -0.258819 0
outer loop
vertex 42.5901 0 1
vertex 42.2 1.45603 1
vertex 42.5901 0 0
endloop
endfacet
facet normal -0.965926 -0.258819 0
outer loop
vertex 42.5901 0 0
vertex 42.2 1.45603 1
vertex 42.2 1.45603 0
endloop
endfacet
facet normal 0 -1 0
outer loop
vertex 42.5901 0 1
vertex 42.5901 0 0
vertex 42.8099 0 1
endloop
endfacet
facet normal 0 -1 0
outer loop
vertex 42.8099 0 1
vertex 42.5901 0 0
vertex 42.8099 0 0
endloop
endfacet
facet normal 0.965926 -0.258819 0
outer loop
vertex 42.8099 0 0
vertex 43.2 1.45603 0
vertex 42.8099 0 1
endloop
endfacet
facet normal 0.965926 -0.258819 0
outer loop
vertex 42.8099 0 1
vertex 43.2 1.45603 0
vertex 43.2 1.45603 1
endloop
endfacet
facet normal -0.965925 -0.258821 0
outer loop
vertex 43.5901 0 1
vertex 43.2 1.45603 1
vertex 43.5901 0 0
endloop
endfacet
facet normal -0.965925 -0.258821 0
outer loop
vertex 43.5901 0 0
vertex 43.2 1.45603 1
vertex 43.2 1.45603 0
endloop
endfacet
facet normal 0 -1 0
outer loop
vertex 43.5901 0 1
vertex 43.5901 0 0
vertex 43.8099 0 1
endloop
endfacet
facet normal 0 -1 0
outer loop
vertex 43.8099 0 1
vertex 43.5901 0 0
vertex 43.8099 0 0
endloop
endfacet
facet normal 0.965925 -0.258821 0
outer loop
vertex 43.8099 0 0
vertex 44.2 1.45603 0
vertex 43.8099 0 1
endloop
endfacet
facet normal 0.965925 -0.258821 0
outer loop
vertex 43.8099 0 1
vertex 44.2 1.45603 0
vertex 44.2 1.45603 1
endloop
endfacet
facet normal -0.965927 -0.258817 0
outer loop
vertex 44.5901 0 1
vertex 44.2 1.45603 1
vertex 44.5901 0 0
endloop
endfacet
facet normal -0.965927 -0.258817 0
outer loop
vertex 44.5901 0 0
vertex 44.2 1.45603 1
vertex 44.2 1.45603 0
endloop
endfacet
facet normal 0 -1 0
outer loop
vertex 44.5901 0 1
vertex 44.5901 0 0
vertex 44.8099 0 1
endloop
endfacet
facet normal 0 -1 0
outer loop
vertex 44.8099 0 1
vertex 44.5901 0 0
vertex 44.8099 0 0
endloop
endfacet
facet normal 0.965926 -0.258819 0
outer loop
vertex 44.8099 0 0
vertex 45.2 1.45603 0
vertex 44.8099 0 1
endloop
endfacet
facet normal 0.965926 -0.258819 0
outer loop
vertex 44.8099 0 1
vertex 45.2 1.45603 0
vertex 45.2 1.45603 1
endloop
endfacet
facet normal -0.965926 -0.258819 0
outer loop
vertex 45.5901 0 1
vertex 45.2 1.45603 1
vertex 45.5901 0 0
endloop
endfacet
facet normal -0.965926 -0.258819 0
outer loop
vertex 45.5901 0 0
vertex 45.2 1.45603 1
vertex 45.2 1.45603 0
endloop
endfacet
facet normal 0 -1 0
outer loop
vertex 45.5901 0 1
vertex 45.5901 0 0
vertex 45.8099 0 1
endloop
endfacet
facet normal 0 -1 0
outer loop
vertex 45.8099 0 1
vertex 45.5901 0 0
vertex 45.8099 0 0
endloop
endfacet
facet normal 0.965925 -0.258821 0
outer loop
vertex 45.8099 0 0
vertex 46.2145 1.51 0
vertex 45.8099 0 1
endloop
endfacet
facet normal 0.965925 -0.258821 0
outer loop
vertex 45.8099 0 1
vertex 46.2145 1.51 0
vertex 46.2145 1.51 1
endloop
endfacet
facet normal 0 -1 0
outer loop
vertex 46.2145 1.51 0
vertex 48 1.51 0
vertex 46.2145 1.51 1
endloop
endfacet
facet normal 0 -1 0
outer loop
vertex 46.2145 1.51 1
vertex 48 1.51 0
vertex 48 1.51 1
endloop
endfacet
facet normal 1 0 0
outer loop
vertex 48 2.51 1
vertex 48 1.51 1
vertex 48 2.51 0
endloop
endfacet
facet normal 1 0 0
outer loop
vertex 48 2.51 0
vertex 48 1.51 1
vertex 48 1.51 0
endloop
endfacet
facet normal 0 1 0
outer loop
vertex 45.75 2.51 0
vertex 45.75 2.51 1
vertex 48 2.51 0
endloop
endfacet
facet normal 0 1 0
outer loop
vertex 48 2.51 0
vertex 45.75 2.51 1
vertex 48 2.51 1
endloop
endfacet
facet normal 0.996919 0.0784406 0
outer loop
vertex 45 3.26 0
vertex 45 3.26 1
vertex 45.0092 3.14267 0
endloop
endfacet
facet normal 0.996919 0.0784406 0
outer loop
vertex 45.0092 3.14267 0
vertex 45 3.26 1
vertex 45.0092 3.14267 1
endloop
endfacet
facet normal 0.972356 0.233504 0
outer loop
vertex 45.0092 3.14267 0
vertex 45.0092 3.14267 1
vertex 45.0367 3.02824 0
endloop
endfacet
facet normal 0.972356 0.233504 0
outer loop
vertex 45.0367 3.02824 0
vertex 45.0092 3.14267 1
vertex 45.0367 3.02824 1
endloop
endfacet
facet normal 0.923894 0.382647 0
outer loop
vertex 45.0367 3.02824 0
vertex 45.0367 3.02824 1
vertex 45.0817 2.91951 0
endloop
endfacet
facet normal 0.923894 0.382647 0
outer loop
vertex 45.0817 2.91951 0
vertex 45.0367 3.02824 1
vertex 45.0817 2.91951 1
endloop
endfacet
facet normal 0.852638 0.522502 0
outer loop
vertex 45.0817 2.91951 0
vertex 45.0817 2.91951 1
vertex 45.1432 2.81916 0
endloop
endfacet
facet normal 0.852638 0.522502 0
outer loop
vertex 45.1432 2.81916 0
vertex 45.0817 2.91951 1
vertex 45.1432 2.81916 1
endloop
endfacet
facet normal 0.760412 0.649441 0
outer loop
vertex 45.1432 2.81916 0
vertex 45.1432 2.81916 1
vertex 45.2197 2.72967 0
endloop
endfacet
facet normal 0.760412 0.649441 0
outer loop
vertex 45.2197 2.72967 0
vertex 45.1432 2.81916 1
vertex 45.2197 2.72967 1
endloop
endfacet
facet normal 0.649441 0.760412 0
outer loop
vertex 45.2197 2.72967 0
vertex 45.2197 2.72967 1
vertex 45.3092 2.65324 0
endloop
endfacet
facet normal 0.649441 0.760412 0
outer loop
vertex 45.3092 2.65324 0
vertex 45.2197 2.72967 1
vertex 45.3092 2.65324 1
endloop
endfacet
facet normal 0.522501 0.852639 0
outer loop
vertex 45.3092 2.65324 0
vertex 45.3092 2.65324 1
vertex 45.4095 2.59174 0
endloop
endfacet
facet normal 0.522501 0.852639 0
outer loop
vertex 45.4095 2.59174 0
vertex 45.3092 2.65324 1
vertex 45.4095 2.59174 1
endloop
endfacet
facet normal 0.382681 0.92388 0
outer loop
vertex 45.4095 2.59174 0
vertex 45.4095 2.59174 1
vertex 45.5182 2.54671 0
endloop
endfacet
facet normal 0.382681 0.92388 0
outer loop
vertex 45.5182 2.54671 0
vertex 45.4095 2.59174 1
vertex 45.5182 2.54671 1
endloop
endfacet
facet normal 0.233445 0.97237 0
outer loop
vertex 45.5182 2.54671 0
vertex 45.5182 2.54671 1
vertex 45.6327 2.51923 0
endloop
endfacet
facet normal 0.233445 0.97237 0
outer loop
vertex 45.6327 2.51923 0
vertex 45.5182 2.54671 1
vertex 45.6327 2.51923 1
endloop
endfacet
facet normal 0.0784595 0.996917 0
outer loop
vertex 45.6327 2.51923 0
vertex 45.6327 2.51923 1
vertex 45.75 2.51 0
endloop
endfacet
facet normal 0.0784595 0.996917 0
outer loop
vertex 45.75 2.51 0
vertex 45.6327 2.51923 1
vertex 45.75 2.51 1
endloop
endfacet
facet normal 0 -1 0
outer loop
vertex 42.25 3.26 0
vertex 43.75 3.26 0
vertex 42.25 3.26 1
endloop
endfacet
facet normal 0 -1 0
outer loop
vertex 42.25 3.26 1
vertex 43.75 3.26 0
vertex 43.75 3.26 1
endloop
endfacet
facet normal -1 0 0
outer loop
vertex 43.75 3.26 0
vertex 43.75 2.51 0
vertex 43.75 3.26 1
endloop
endfacet
facet normal -1 0 0
outer loop
vertex 43.75 3.26 1
vertex 43.75 2.51 0
vertex 43.75 2.51 1
endloop
endfacet
facet normal 0 1 0
outer loop
vertex 43.75 2.51 0
vertex 42.25 2.51 0
vertex 43.75 2.51 1
endloop
endfacet
facet normal 0 1 0
outer loop
vertex 43.75 2.51 1
vertex 42.25 2.51 0
vertex 42.25 2.51 1
endloop
endfacet
facet normal 1 0 0
outer loop
vertex 42.25 2.51 0
vertex 42.25 3.26 0
vertex 42.25 2.51 1
endloop
endfacet
facet normal 1 0 0
outer loop
vertex 42.25 2.51 1
vertex 42.25 3.26 0
vertex 42.25 3.26 1
endloop
endfacet
facet normal 0 1 0
outer loop
vertex 42.25 3.76 0
vertex 42.25 3.76 1
vertex 43.75 3.76 0
endloop
endfacet
facet normal 0 1 0
outer loop
vertex 43.75 3.76 0
vertex 42.25 3.76 1
vertex 43.75 3.76 1
endloop
endfacet
facet normal 1 0 0
outer loop
vertex 42.25 4.51 0
vertex 42.25 4.51 1
vertex 42.25 3.76 0
endloop
endfacet
facet normal 1 0 0
outer loop
vertex 42.25 3.76 0
vertex 42.25 4.51 1
vertex 42.25 3.76 1
endloop
endfacet
facet normal 0 -1 0
outer loop
vertex 43.75 4.51 0
vertex 43.75 4.51 1
vertex 42.25 4.51 0
endloop
endfacet
facet normal 0 -1 0
outer loop
vertex 42.25 4.51 0
vertex 43.75 4.51 1
vertex 42.25 4.51 1
endloop
endfacet
facet normal -1 0 0
outer loop
vertex 43.75 3.76 0
vertex 43.75 3.76 1
vertex 43.75 4.51 0
endloop
endfacet
facet normal -1 0 0
outer loop
vertex 43.75 4.51 0
vertex 43.75 3.76 1
vertex 43.75 4.51 1
endloop
endfacet
facet normal 0 -1 0
outer loop
vertex 15.25 7.76 0
vertex 21.75 7.76 0
vertex 15.25 7.76 1
endloop
endfacet
facet normal 0 -1 0
outer loop
vertex 15.25 7.76 1
vertex 21.75 7.76 0
vertex 21.75 7.76 1
endloop
endfacet
facet normal -1 0 0
outer loop
vertex 21.75 7.76 0
vertex 21.75 3.26 0
vertex 21.75 7.76 1
endloop
endfacet
facet normal -1 0 0
outer loop
vertex 21.75 7.76 1
vertex 21.75 3.26 0
vertex 21.75 3.26 1
endloop
endfacet
facet normal 0 1 0
outer loop
vertex 21.75 3.26 0
vertex 15.25 3.26 0
vertex 21.75 3.26 1
endloop
endfacet
facet normal 0 1 0
outer loop
vertex 21.75 3.26 1
vertex 15.25 3.26 0
vertex 15.25 3.26 1
endloop
endfacet
facet normal 1 0 0
outer loop
vertex 15.25 3.26 0
vertex 15.25 7.76 0
vertex 15.25 3.26 1
endloop
endfacet
facet normal 1 0 0
outer loop
vertex 15.25 3.26 1
vertex 15.25 7.76 0
vertex 15.25 7.76 1
endloop
endfacet
facet normal 0 -1 0
outer loop
vertex 8.75 4.51 0
vertex 10 4.51 0
vertex 8.75 4.51 1
endloop
endfacet
facet normal 0 -1 0
outer loop
vertex 8.75 4.51 1
vertex 10 4.51 0
vertex 10 4.51 1
endloop
endfacet
facet normal -1 0 0
outer loop
vertex 10 4.51 0
vertex 10 2.51 0
vertex 10 4.51 1
endloop
endfacet
facet normal -1 0 0
outer loop
vertex 10 4.51 1
vertex 10 2.51 0
vertex 10 2.51 1
endloop
endfacet
facet normal 0 1 0
outer loop
vertex 10 2.51 0
vertex 8.75 2.51 0
vertex 10 2.51 1
endloop
endfacet
facet normal 0 1 0
outer loop
vertex 10 2.51 1
vertex 8.75 2.51 0
vertex 8.75 2.51 1
endloop
endfacet
facet normal 1 0 0
outer loop
vertex 8.75 2.51 0
vertex 8.75 4.51 0
vertex 8.75 2.51 1
endloop
endfacet
facet normal 1 0 0
outer loop
vertex 8.75 2.51 1
vertex 8.75 4.51 0
vertex 8.75 4.51 1
endloop
endfacet
facet normal 0 0 -1
outer loop
vertex 42.25 3.76 0
vertex 43.75 3.76 0
vertex 43.75 3.26 0
endloop
endfacet
facet normal 0 0 -1
outer loop
vertex 21.75 3.26 0
vertex 21.75 7.76 0
vertex 42.25 3.26 0
endloop
endfacet
facet normal 0 0 -1
outer loop
vertex 42.8099 0 0
vertex 42.5901 0 0
vertex 43.2 1.45603 0
endloop
endfacet
facet normal 0 0 -1
outer loop
vertex 43.2 1.45603 0
vertex 42.5901 0 0
vertex 42.2 1.45603 0
endloop
endfacet
facet normal 0 0 -1
outer loop
vertex 37.8099 0 0
vertex 37.5901 0 0
vertex 38.2 1.45603 0
endloop
endfacet
facet normal 0 0 -1
outer loop
vertex 38.2 1.45603 0
vertex 37.5901 0 0
vertex 37.2 1.45603 0
endloop
endfacet
facet normal 0 0 -1
outer loop
vertex 46.2145 1.51 0
vertex 45.1432 2.81916 0
vertex 45.2197 2.72967 0
endloop
endfacet
facet normal 0 0 -1
outer loop
vertex 16.8099 0 0
vertex 16.5901 0 0
vertex 17.2 1.45603 0
endloop
endfacet
facet normal 0 0 -1
outer loop
vertex 17.2 1.45603 0
vertex 16.5901 0 0
vertex 16.2 1.45603 0
endloop
endfacet
facet normal 0 0 -1
outer loop
vertex 15.2 1.45603 0
vertex 15.25 7.76 0
vertex 15.25 3.26 0
endloop
endfacet
facet normal 0 0 -1
outer loop
vertex 45.2197 2.72967 0
vertex 45.3092 2.65324 0
vertex 46.2145 1.51 0
endloop
endfacet
facet normal 0 0 -1
outer loop
vertex 46.2145 1.51 0
vertex 45.3092 2.65324 0
vertex 45.4095 2.59174 0
endloop
endfacet
facet normal 0 0 -1
outer loop
vertex 46.2145 1.51 0
vertex 45.4095 2.59174 0
vertex 45.5182 2.54671 0
endloop
endfacet
facet normal 0 0 -1
outer loop
vertex 45.0092 3.14267 0
vertex 45.0367 3.02824 0
vertex 45.2 1.45603 0
endloop
endfacet
facet normal 0 0 -1
outer loop
vertex 45.2 1.45603 0
vertex 45.0367 3.02824 0
vertex 45.0817 2.91951 0
endloop
endfacet
facet normal 0 0 -1
outer loop
vertex 45.2 1.45603 0
vertex 45.0817 2.91951 0
vertex 45.1432 2.81916 0
endloop
endfacet
facet normal 0 0 -1
outer loop
vertex 43.75 2.51 0
vertex 43.75 3.26 0
vertex 44.2 1.45603 0
endloop
endfacet
facet normal 0 0 -1
outer loop
vertex 44.2 1.45603 0
vertex 43.75 3.26 0
vertex 43.75 3.76 0
endloop
endfacet
facet normal 0 0 -1
outer loop
vertex 44.2 1.45603 0
vertex 43.75 3.76 0
vertex 43.75 4.51 0
endloop
endfacet
facet normal 0 0 -1
outer loop
vertex 40.2 1.45603 0
vertex 39.8099 0 0
vertex 39.5901 0 0
endloop
endfacet
facet normal 0 0 -1
outer loop
vertex 37.2 1.45603 0
vertex 36.8099 0 0
vertex 36.5901 0 0
endloop
endfacet
facet normal 0 0 -1
outer loop
vertex 45.1432 2.81916 0
vertex 46.2145 1.51 0
vertex 45.2 1.45603 0
endloop
endfacet
facet normal 0 0 -1
outer loop
vertex 45.2 1.45603 0
vertex 46.2145 1.51 0
vertex 45.8099 0 0
endloop
endfacet
facet normal 0 0 -1
outer loop
vertex 45.2 1.45603 0
vertex 45.8099 0 0
vertex 45.5901 0 0
endloop
endfacet
facet normal 9.44985e-018 -1.10645e-017 -1
outer loop
vertex 45.3092 4.61676 1.35525e-017
vertex 45.2197 4.54033 1.35525e-017
vertex 43.75 4.51 0
endloop
endfacet
facet normal 9.38696e-018 -8.0171e-018 -1
outer loop
vertex 43.75 4.51 0
vertex 45.2197 4.54033 1.35525e-017
vertex 45.1432 4.45084 1.35525e-017
endloop
endfacet
facet normal 1.05112e-017 -8.27054e-019 -1
outer loop
vertex 43.75 4.51 0
vertex 45.0092 4.12733 1.35525e-017
vertex 45 4.01 1.35525e-017
endloop
endfacet
facet normal 0 0 -1
outer loop
vertex 15.25 7.76 0
vertex 0 9.51 0
vertex 21.75 7.76 0
endloop
endfacet
facet normal 0 0 -1
outer loop
vertex 21.75 7.76 0
vertex 0 9.51 0
vertex 48 9.51 0
endloop
endfacet
facet normal 0 0 -1
outer loop
vertex 43.8099 0 0
vertex 43.5901 0 0
vertex 44.2 1.45603 0
endloop
endfacet
facet normal 0 0 -1
outer loop
vertex 44.2 1.45603 0
vertex 43.5901 0 0
vertex 43.2 1.45603 0
endloop
endfacet
facet normal 0 0 -1
outer loop
vertex 44.2 1.45603 0
vertex 43.2 1.45603 0
vertex 43.75 2.51 0
endloop
endfacet
facet normal 0 0 -1
outer loop
vertex 43.75 2.51 0
vertex 43.2 1.45603 0
vertex 42.25 2.51 0
endloop
endfacet
facet normal 0 0 -1
outer loop
vertex 40.8099 0 0
vertex 40.5901 0 0
vertex 41.2 1.45603 0
endloop
endfacet
facet normal 0 0 -1
outer loop
vertex 41.2 1.45603 0
vertex 40.5901 0 0
vertex 40.2 1.45603 0
endloop
endfacet
facet normal 0 0 -1
outer loop
vertex 12.2 1.45603 0
vertex 11.8099 0 0
vertex 11.5901 0 0
endloop
endfacet
facet normal 1.49348e-018 -3.60561e-018 -1
outer loop
vertex 48 9.51 0
vertex 45.5182 4.72329 1.35525e-017
vertex 45.4095 4.67826 1.35525e-017
endloop
endfacet
facet normal 9.48068e-018 -5.80984e-018 -1
outer loop
vertex 45.1432 4.45084 1.35525e-017
vertex 45.0817 4.35049 1.35525e-017
vertex 43.75 4.51 0
endloop
endfacet
facet normal 9.69559e-018 -4.01559e-018 -1
outer loop
vertex 43.75 4.51 0
vertex 45.0817 4.35049 1.35525e-017
vertex 45.0367 4.24176 1.35525e-017
endloop
endfacet
facet normal 1.00306e-017 -2.40876e-018 -1
outer loop
vertex 43.75 4.51 0
vertex 45.0367 4.24176 1.35525e-017
vertex 45.0092 4.12733 1.35525e-017
endloop
endfacet
facet normal 0 0 -1
outer loop
vertex 42.25 3.26 0
vertex 42.25 2.51 0
vertex 21.75 3.26 0
endloop
endfacet
facet normal 0 0 -1
outer loop
vertex 21.75 3.26 0
vertex 42.25 2.51 0
vertex 43.2 1.45603 0
endloop
endfacet
facet normal 0 0 -1
outer loop
vertex 21.75 3.26 0
vertex 43.2 1.45603 0
vertex 15.25 3.26 0
endloop
endfacet
facet normal 0 0 -1
outer loop
vertex 15.25 3.26 0
vertex 43.2 1.45603 0
vertex 42.2 1.45603 0
endloop
endfacet
facet normal 0 0 -1
outer loop
vertex 38.8099 0 0
vertex 38.5901 0 0
vertex 39.2 1.45603 0
endloop
endfacet
facet normal 0 0 -1
outer loop
vertex 39.2 1.45603 0
vertex 38.5901 0 0
vertex 38.2 1.45603 0
endloop
endfacet
facet normal 0 0 -1
outer loop
vertex 39.2 1.45603 0
vertex 38.2 1.45603 0
vertex 15.25 3.26 0
endloop
endfacet
facet normal 0 0 -1
outer loop
vertex 15.25 3.26 0
vertex 38.2 1.45603 0
vertex 37.2 1.45603 0
endloop
endfacet
facet normal 0 0 -1
outer loop
vertex 15.25 3.26 0
vertex 37.2 1.45603 0
vertex 36.2 1.45603 0
endloop
endfacet
facet normal 0 0 -1
outer loop
vertex 36.2 1.45603 0
vertex 37.2 1.45603 0
vertex 36.5901 0 0
endloop
endfacet
facet normal 0 0 -1
outer loop
vertex 34.8099 0 0
vertex 34.5901 0 0
vertex 35.2 1.45603 0
endloop
endfacet
facet normal 0 0 -1
outer loop
vertex 35.2 1.45603 0
vertex 34.5901 0 0
vertex 34.2 1.45603 0
endloop
endfacet
facet normal 0 0 -1
outer loop
vertex 34.2 1.45603 0
vertex 33.8099 0 0
vertex 33.5901 0 0
endloop
endfacet
facet normal 0 0 -1
outer loop
vertex 28.2 1.45603 0
vertex 27.8099 0 0
vertex 27.5901 0 0
endloop
endfacet
facet normal 0 0 -1
outer loop
vertex 26.8099 0 0
vertex 26.5901 0 0
vertex 27.2 1.45603 0
endloop
endfacet
facet normal 0 0 -1
outer loop
vertex 27.2 1.45603 0
vertex 26.5901 0 0
vertex 26.2 1.45603 0
endloop
endfacet
facet normal 0 0 -1
outer loop
vertex 27.2 1.45603 0
vertex 26.2 1.45603 0
vertex 15.25 3.26 0
endloop
endfacet
facet normal 0 0 -1
outer loop
vertex 14.8099 0 0
vertex 14.5901 0 0
vertex 15.2 1.45603 0
endloop
endfacet
facet normal 0 0 -1
outer loop
vertex 15.2 1.45603 0
vertex 14.5901 0 0
vertex 14.2 1.45603 0
endloop
endfacet
facet normal 0 0 -1
outer loop
vertex 15.2 1.45603 0
vertex 14.2 1.45603 0
vertex 15.25 7.76 0
endloop
endfacet
facet normal 0 0 -1
outer loop
vertex 10 2.51 0
vertex 15.25 7.76 0
vertex 11.2 1.45603 0
endloop
endfacet
facet normal 0 0 -1
outer loop
vertex 48 2.51 0
vertex 48 1.51 0
vertex 45.75 2.51 0
endloop
endfacet
facet normal 0 0 -1
outer loop
vertex 45.75 2.51 0
vertex 48 1.51 0
vertex 46.2145 1.51 0
endloop
endfacet
facet normal 0 0 -1
outer loop
vertex 45.75 2.51 0
vertex 46.2145 1.51 0
vertex 45.6327 2.51923 0
endloop
endfacet
facet normal 0 0 -1
outer loop
vertex 45.6327 2.51923 0
vertex 46.2145 1.51 0
vertex 45.5182 2.54671 0
endloop
endfacet
facet normal -6.02335e-018 0 -1
outer loop
vertex 48 4.76 0
vertex 45.75 4.76 1.35525e-017
vertex 48 9.51 0
endloop
endfacet
facet normal 2.33239e-019 -2.96365e-018 -1
outer loop
vertex 48 9.51 0
vertex 45.75 4.76 1.35525e-017
vertex 45.6327 4.75077 1.35525e-017
endloop
endfacet
facet normal 7.76369e-019 -3.23381e-018 -1
outer loop
vertex 48 9.51 0
vertex 45.6327 4.75077 1.35525e-017
vertex 45.5182 4.72329 1.35525e-017
endloop
endfacet
facet normal 0 0 -1
outer loop
vertex 39.5901 0 0
vertex 39.2 1.45603 0
vertex 40.2 1.45603 0
endloop
endfacet
facet normal 0 0 -1
outer loop
vertex 40.2 1.45603 0
vertex 39.2 1.45603 0
vertex 15.25 3.26 0
endloop
endfacet
facet normal 0 0 -1
outer loop
vertex 40.2 1.45603 0
vertex 15.25 3.26 0
vertex 41.2 1.45603 0
endloop
endfacet
facet normal 0 0 -1
outer loop
vertex 41.2 1.45603 0
vertex 15.25 3.26 0
vertex 42.2 1.45603 0
endloop
endfacet
facet normal 0 0 -1
outer loop
vertex 41.2 1.45603 0
vertex 42.2 1.45603 0
vertex 41.5901 0 0
endloop
endfacet
facet normal 0 0 -1
outer loop
vertex 41.5901 0 0
vertex 42.2 1.45603 0
vertex 41.8099 0 0
endloop
endfacet
facet normal 0 0 -1
outer loop
vertex 35.8099 0 0
vertex 35.5901 0 0
vertex 36.2 1.45603 0
endloop
endfacet
facet normal 0 0 -1
outer loop
vertex 36.2 1.45603 0
vertex 35.5901 0 0
vertex 35.2 1.45603 0
endloop
endfacet
facet normal 0 0 -1
outer loop
vertex 36.2 1.45603 0
vertex 35.2 1.45603 0
vertex 15.25 3.26 0
endloop
endfacet
facet normal 0 0 -1
outer loop
vertex 15.25 3.26 0
vertex 35.2 1.45603 0
vertex 34.2 1.45603 0
endloop
endfacet
facet normal 0 0 -1
outer loop
vertex 15.25 3.26 0
vertex 34.2 1.45603 0
vertex 33.2 1.45603 0
endloop
endfacet
facet normal 0 0 -1
outer loop
vertex 33.2 1.45603 0
vertex 34.2 1.45603 0
vertex 33.5901 0 0
endloop
endfacet
facet normal 0 0 -1
outer loop
vertex 28.8099 0 0
vertex 28.5901 0 0
vertex 29.2 1.45603 0
endloop
endfacet
facet normal 0 0 -1
outer loop
vertex 29.2 1.45603 0
vertex 28.5901 0 0
vertex 28.2 1.45603 0
endloop
endfacet
facet normal 0 0 -1
outer loop
vertex 10 2.51 0
vertex 11.2 1.45603 0
vertex 10.2 1.45603 0
endloop
endfacet
facet normal 0 0 -1
outer loop
vertex 10.2 1.45603 0
vertex 11.2 1.45603 0
vertex 10.8099 0 0
endloop
endfacet
facet normal 0 0 -1
outer loop
vertex 10.2 1.45603 0
vertex 10.8099 0 0
vertex 10.5901 0 0
endloop
endfacet
facet normal 0 0 -1
outer loop
vertex 8.75 2.51 0
vertex 10 2.51 0
vertex 9.2 1.45603 0
endloop
endfacet
facet normal 0 0 -1
outer loop
vertex 9.2 1.45603 0
vertex 10 2.51 0
vertex 10.2 1.45603 0
endloop
endfacet
facet normal 0 0 -1
outer loop
vertex 9.2 1.45603 0
vertex 10.2 1.45603 0
vertex 9.59014 0 0
endloop
endfacet
facet normal 0 0 -1
outer loop
vertex 9.59014 0 0
vertex 10.2 1.45603 0
vertex 9.80986 0 0
endloop
endfacet
facet normal 0 0 -1
outer loop
vertex 10 2.51 0
vertex 10 4.51 0
vertex 15.25 7.76 0
endloop
endfacet
facet normal 0 0 -1
outer loop
vertex 15.25 7.76 0
vertex 10 4.51 0
vertex 8.75 4.51 0
endloop
endfacet
facet normal 0 0 -1
outer loop
vertex 15.25 7.76 0
vertex 8.75 4.51 0
vertex 0 9.51 0
endloop
endfacet
facet normal 0 0 -1
outer loop
vertex 0 9.51 0
vertex 8.75 4.51 0
vertex 8.75 2.51 0
endloop
endfacet
facet normal 0 0 -1
outer loop
vertex 43.75 3.26 0
vertex 42.25 3.26 0
vertex 42.25 3.76 0
endloop
endfacet
facet normal 0 0 -1
outer loop
vertex 42.25 3.76 0
vertex 42.25 3.26 0
vertex 21.75 7.76 0
endloop
endfacet
facet normal 0 0 -1
outer loop
vertex 42.25 3.76 0
vertex 21.75 7.76 0
vertex 42.25 4.51 0
endloop
endfacet
facet normal 0 0 -1
outer loop
vertex 42.25 4.51 0
vertex 21.75 7.76 0
vertex 48 9.51 0
endloop
endfacet
facet normal 0 0 -1
outer loop
vertex 42.25 4.51 0
vertex 48 9.51 0
vertex 43.75 4.51 0
endloop
endfacet
facet normal 8.93679e-018 -7.59626e-018 -1
outer loop
vertex 43.75 4.51 0
vertex 48 9.51 0
vertex 45.4095 4.67826 1.35525e-017
endloop
endfacet
facet normal 9.78565e-018 -1.59686e-017 -1
outer loop
vertex 43.75 4.51 0
vertex 45.4095 4.67826 1.35525e-017
vertex 45.3092 4.61676 1.35525e-017
endloop
endfacet
facet normal 0 0 -1
outer loop
vertex 31.2 1.45603 0
vertex 30.8099 0 0
vertex 30.5901 0 0
endloop
endfacet
facet normal 0 0 -1
outer loop
vertex 25.8099 0 0
vertex 25.5901 0 0
vertex 26.2 1.45603 0
endloop
endfacet
facet normal 0 0 -1
outer loop
vertex 26.2 1.45603 0
vertex 25.5901 0 0
vertex 25.2 1.45603 0
endloop
endfacet
facet normal 0 0 -1
outer loop
vertex 26.2 1.45603 0
vertex 25.2 1.45603 0
vertex 15.25 3.26 0
endloop
endfacet
facet normal 0 0 -1
outer loop
vertex 20.2 1.45603 0
vertex 19.8099 0 0
vertex 19.5901 0 0
endloop
endfacet
facet normal 0 0 -1
outer loop
vertex 12.8099 0 0
vertex 12.5901 0 0
vertex 13.2 1.45603 0
endloop
endfacet
facet normal 0 0 -1
outer loop
vertex 13.2 1.45603 0
vertex 12.5901 0 0
vertex 12.2 1.45603 0
endloop
endfacet
facet normal 0 0 -1
outer loop
vertex 13.8099 0 0
vertex 13.5901 0 0
vertex 14.2 1.45603 0
endloop
endfacet
facet normal 0 0 -1
outer loop
vertex 14.2 1.45603 0
vertex 13.5901 0 0
vertex 13.2 1.45603 0
endloop
endfacet
facet normal 0 0 -1
outer loop
vertex 14.2 1.45603 0
vertex 13.2 1.45603 0
vertex 15.25 7.76 0
endloop
endfacet
facet normal 0 0 -1
outer loop
vertex 15.25 7.76 0
vertex 13.2 1.45603 0
vertex 12.2 1.45603 0
endloop
endfacet
facet normal 0 0 -1
outer loop
vertex 15.25 7.76 0
vertex 12.2 1.45603 0
vertex 11.2 1.45603 0
endloop
endfacet
facet normal 0 0 -1
outer loop
vertex 11.2 1.45603 0
vertex 12.2 1.45603 0
vertex 11.5901 0 0
endloop
endfacet
facet normal 0 0 -1
outer loop
vertex 8.80986 0 0
vertex 8.59014 0 0
vertex 9.2 1.45603 0
endloop
endfacet
facet normal 0 0 -1
outer loop
vertex 9.2 1.45603 0
vertex 8.59014 0 0
vertex 8.18554 1.51 0
endloop
endfacet
facet normal 0 0 -1
outer loop
vertex 9.2 1.45603 0
vertex 8.18554 1.51 0
vertex 8.75 2.51 0
endloop
endfacet
facet normal 0 0 -1
outer loop
vertex 8.75 2.51 0
vertex 8.18554 1.51 0
vertex 0 1.51 0
endloop
endfacet
facet normal 0 0 -1
outer loop
vertex 8.75 2.51 0
vertex 0 1.51 0
vertex 0 9.51 0
endloop
endfacet
facet normal 1.80701e-017 1.807e-017 -1
outer loop
vertex 45 4.01 1.35525e-017
vertex 45 3.26 0
vertex 43.75 4.51 0
endloop
endfacet
facet normal 0 0 -1
outer loop
vertex 43.75 4.51 0
vertex 45 3.26 0
vertex 45.0092 3.14267 0
endloop
endfacet
facet normal 0 0 -1
outer loop
vertex 43.75 4.51 0
vertex 45.0092 3.14267 0
vertex 44.2 1.45603 0
endloop
endfacet
facet normal 0 0 -1
outer loop
vertex 44.2 1.45603 0
vertex 45.0092 3.14267 0
vertex 45.2 1.45603 0
endloop
endfacet
facet normal 0 0 -1
outer loop
vertex 44.2 1.45603 0
vertex 45.2 1.45603 0
vertex 44.5901 0 0
endloop
endfacet
facet normal 0 0 -1
outer loop
vertex 44.5901 0 0
vertex 45.2 1.45603 0
vertex 44.8099 0 0
endloop
endfacet
facet normal 0 0 -1
outer loop
vertex 31.8099 0 0
vertex 31.5901 0 0
vertex 32.2 1.45603 0
endloop
endfacet
facet normal 0 0 -1
outer loop
vertex 32.2 1.45603 0
vertex 31.5901 0 0
vertex 31.2 1.45603 0
endloop
endfacet
facet normal 0 0 -1
outer loop
vertex 32.8099 0 0
vertex 32.5901 0 0
vertex 33.2 1.45603 0
endloop
endfacet
facet normal 0 0 -1
outer loop
vertex 33.2 1.45603 0
vertex 32.5901 0 0
vertex 32.2 1.45603 0
endloop
endfacet
facet normal 0 0 -1
outer loop
vertex 33.2 1.45603 0
vertex 32.2 1.45603 0
vertex 15.25 3.26 0
endloop
endfacet
facet normal 0 0 -1
outer loop
vertex 15.25 3.26 0
vertex 32.2 1.45603 0
vertex 31.2 1.45603 0
endloop
endfacet
facet normal 0 0 -1
outer loop
vertex 15.25 3.26 0
vertex 31.2 1.45603 0
vertex 30.2 1.45603 0
endloop
endfacet
facet normal 0 0 -1
outer loop
vertex 30.2 1.45603 0
vertex 31.2 1.45603 0
vertex 30.5901 0 0
endloop
endfacet
facet normal 0 0 -1
outer loop
vertex 29.8099 0 0
vertex 29.5901 0 0
vertex 30.2 1.45603 0
endloop
endfacet
facet normal 0 0 -1
outer loop
vertex 30.2 1.45603 0
vertex 29.5901 0 0
vertex 29.2 1.45603 0
endloop
endfacet
facet normal 0 0 -1
outer loop
vertex 30.2 1.45603 0
vertex 29.2 1.45603 0
vertex 15.25 3.26 0
endloop
endfacet
facet normal 0 0 -1
outer loop
vertex 15.25 3.26 0
vertex 29.2 1.45603 0
vertex 28.2 1.45603 0
endloop
endfacet
facet normal 0 0 -1
outer loop
vertex 15.25 3.26 0
vertex 28.2 1.45603 0
vertex 27.2 1.45603 0
endloop
endfacet
facet normal 0 0 -1
outer loop
vertex 27.2 1.45603 0
vertex 28.2 1.45603 0
vertex 27.5901 0 0
endloop
endfacet
facet normal 0 0 -1
outer loop
vertex 20.8099 0 0
vertex 20.5901 0 0
vertex 21.2 1.45603 0
endloop
endfacet
facet normal 0 0 -1
outer loop
vertex 21.2 1.45603 0
vertex 20.5901 0 0
vertex 20.2 1.45603 0
endloop
endfacet
facet normal 0 0 -1
outer loop
vertex 18.8099 0 0
vertex 18.5901 0 0
vertex 19.2 1.45603 0
endloop
endfacet
facet normal 0 0 -1
outer loop
vertex 19.2 1.45603 0
vertex 18.5901 0 0
vertex 18.2 1.45603 0
endloop
endfacet
facet normal 0 0 -1
outer loop
vertex 19.2 1.45603 0
vertex 18.2 1.45603 0
vertex 15.25 3.26 0
endloop
endfacet
facet normal 0 0 -1
outer loop
vertex 17.8099 0 0
vertex 17.5901 0 0
vertex 18.2 1.45603 0
endloop
endfacet
facet normal 0 0 -1
outer loop
vertex 18.2 1.45603 0
vertex 17.5901 0 0
vertex 17.2 1.45603 0
endloop
endfacet
facet normal 0 0 -1
outer loop
vertex 18.2 1.45603 0
vertex 17.2 1.45603 0
vertex 15.25 3.26 0
endloop
endfacet
facet normal 0 0 -1
outer loop
vertex 15.25 3.26 0
vertex 17.2 1.45603 0
vertex 16.2 1.45603 0
endloop
endfacet
facet normal 0 0 -1
outer loop
vertex 15.25 3.26 0
vertex 16.2 1.45603 0
vertex 15.2 1.45603 0
endloop
endfacet
facet normal 0 0 -1
outer loop
vertex 15.2 1.45603 0
vertex 16.2 1.45603 0
vertex 15.8099 0 0
endloop
endfacet
facet normal 0 0 -1
outer loop
vertex 15.2 1.45603 0
vertex 15.8099 0 0
vertex 15.5901 0 0
endloop
endfacet
facet normal 0 0 -1
outer loop
vertex 23.8099 0 0
vertex 23.5901 0 0
vertex 24.2 1.45603 0
endloop
endfacet
facet normal 0 0 -1
outer loop
vertex 24.2 1.45603 0
vertex 23.5901 0 0
vertex 23.2 1.45603 0
endloop
endfacet
facet normal 0 0 -1
outer loop
vertex 23.2 1.45603 0
vertex 22.8099 0 0
vertex 22.5901 0 0
endloop
endfacet
facet normal 0 0 -1
outer loop
vertex 24.8099 0 0
vertex 24.5901 0 0
vertex 25.2 1.45603 0
endloop
endfacet
facet normal 0 0 -1
outer loop
vertex 25.2 1.45603 0
vertex 24.5901 0 0
vertex 24.2 1.45603 0
endloop
endfacet
facet normal 0 0 -1
outer loop
vertex 25.2 1.45603 0
vertex 24.2 1.45603 0
vertex 15.25 3.26 0
endloop
endfacet
facet normal 0 0 -1
outer loop
vertex 15.25 3.26 0
vertex 24.2 1.45603 0
vertex 23.2 1.45603 0
endloop
endfacet
facet normal 0 0 -1
outer loop
vertex 15.25 3.26 0
vertex 23.2 1.45603 0
vertex 22.2 1.45603 0
endloop
endfacet
facet normal 0 0 -1
outer loop
vertex 22.2 1.45603 0
vertex 23.2 1.45603 0
vertex 22.5901 0 0
endloop
endfacet
facet normal 0 0 -1
outer loop
vertex 21.8099 0 0
vertex 21.5901 0 0
vertex 22.2 1.45603 0
endloop
endfacet
facet normal 0 0 -1
outer loop
vertex 22.2 1.45603 0
vertex 21.5901 0 0
vertex 21.2 1.45603 0
endloop
endfacet
facet normal 0 0 -1
outer loop
vertex 22.2 1.45603 0
vertex 21.2 1.45603 0
vertex 15.25 3.26 0
endloop
endfacet
facet normal 0 0 -1
outer loop
vertex 15.25 3.26 0
vertex 21.2 1.45603 0
vertex 20.2 1.45603 0
endloop
endfacet
facet normal 0 0 -1
outer loop
vertex 15.25 3.26 0
vertex 20.2 1.45603 0
vertex 19.2 1.45603 0
endloop
endfacet
facet normal 0 0 -1
outer loop
vertex 19.2 1.45603 0
vertex 20.2 1.45603 0
vertex 19.5901 0 0
endloop
endfacet
endsolid
