solid C:\Temp\NOELParts\CONN3_P_.STL created by CtrlView V2.70
facet normal 0 1 0
outer loop
vertex 0 10.5 0
vertex 0 10.5 21
vertex 31.5 10.5 0
endloop
endfacet
facet normal 0 1 0
outer loop
vertex 31.5 10.5 0
vertex 0 10.5 21
vertex 31.5 10.5 21
endloop
endfacet
facet normal 1 0 0
outer loop
vertex 31.5 10.5 0
vertex 31.5 10.5 21
vertex 31.5 0 0
endloop
endfacet
facet normal 1 0 0
outer loop
vertex 31.5 0 0
vertex 31.5 10.5 21
vertex 31.5 0 21
endloop
endfacet
facet normal 0 0 1
outer loop
vertex 31.5 0 21
vertex 31.5 10.5 21
vertex 0 0 21
endloop
endfacet
facet normal 0 0 1
outer loop
vertex 0 0 21
vertex 31.5 10.5 21
vertex 0 10.5 21
endloop
endfacet
facet normal -1 0 0
outer loop
vertex 0 0 0
vertex 0 0 21
vertex 0 10.5 0
endloop
endfacet
facet normal -1 0 0
outer loop
vertex 0 10.5 0
vertex 0 0 21
vertex 0 10.5 21
endloop
endfacet
facet normal 0 0 -1
outer loop
vertex 31.5 0 0
vertex 0 0 0
vertex 31.5 10.5 0
endloop
endfacet
facet normal 0 0 -1
outer loop
vertex 31.5 10.5 0
vertex 0 0 0
vertex 0 10.5 0
endloop
endfacet
facet normal 0 -1 0
outer loop
vertex 31.5 0 0
vertex 31.5 0 21
vertex 0 0 0
endloop
endfacet
facet normal 0 -1 0
outer loop
vertex 0 0 0
vertex 31.5 0 21
vertex 0 0 21
endloop
endfacet
endsolid
