solid C:\Temp\NOELParts\CORE_WORK.STL created by CtrlView V2.70
facet normal 0 -1 0
outer loop
vertex 178.206 0 0
vertex 178.206 0 216.408
vertex 0 0 0
endloop
endfacet
facet normal 0 -1 0
outer loop
vertex 0 0 0
vertex 178.206 0 216.408
vertex 0 0 216.408
endloop
endfacet
facet normal 1 0 0
outer loop
vertex 178.206 70.485 216.408
vertex 178.206 0 216.408
vertex 178.206 70.485 0
endloop
endfacet
facet normal 1 0 0
outer loop
vertex 178.206 70.485 0
vertex 178.206 0 216.408
vertex 178.206 0 0
endloop
endfacet
facet normal 0 0 1
outer loop
vertex 0 70.485 216.408
vertex 0 0 216.408
vertex 178.206 70.485 216.408
endloop
endfacet
facet normal 0 0 1
outer loop
vertex 178.206 70.485 216.408
vertex 0 0 216.408
vertex 178.206 0 216.408
endloop
endfacet
facet normal -1 0 0
outer loop
vertex 0 70.485 0
vertex 0 0 0
vertex 0 70.485 216.408
endloop
endfacet
facet normal -1 0 0
outer loop
vertex 0 70.485 216.408
vertex 0 0 0
vertex 0 0 216.408
endloop
endfacet
facet normal 0 0 -1
outer loop
vertex 178.206 70.485 0
vertex 178.206 0 0
vertex 0 70.485 0
endloop
endfacet
facet normal 0 0 -1
outer loop
vertex 0 70.485 0
vertex 178.206 0 0
vertex 0 0 0
endloop
endfacet
facet normal 0 1 0
outer loop
vertex 178.206 70.485 216.408
vertex 178.206 70.485 0
vertex 0 70.485 216.408
endloop
endfacet
facet normal 0 1 0
outer loop
vertex 0 70.485 216.408
vertex 178.206 70.485 0
vertex 0 70.485 0
endloop
endfacet
endsolid
