solid C:\Temp\NOELParts\RCR32_M_.STL created by CtrlView V2.70
facet normal 1 0 0
outer loop
vertex 5 19 0
vertex 5 19 6.35
vertex 5 0 0
endloop
endfacet
facet normal 1 0 0
outer loop
vertex 5 0 0
vertex 5 19 6.35
vertex 5 0 6.35
endloop
endfacet
facet normal 0 -1 0
outer loop
vertex 5 0 0
vertex 5 0 6.35
vertex 0 0 0
endloop
endfacet
facet normal 0 -1 0
outer loop
vertex 0 0 0
vertex 5 0 6.35
vertex 0 0 6.35
endloop
endfacet
facet normal 0 0 1
outer loop
vertex 5 0 6.35
vertex 5 19 6.35
vertex 0 0 6.35
endloop
endfacet
facet normal 0 0 1
outer loop
vertex 0 0 6.35
vertex 5 19 6.35
vertex 0 19 6.35
endloop
endfacet
facet normal 0 1 0
outer loop
vertex 0 19 0
vertex 0 19 6.35
vertex 5 19 0
endloop
endfacet
facet normal 0 1 0
outer loop
vertex 5 19 0
vertex 0 19 6.35
vertex 5 19 6.35
endloop
endfacet
facet normal 0 0 -1
outer loop
vertex 5 0 0
vertex 0 0 0
vertex 5 19 0
endloop
endfacet
facet normal 0 0 -1
outer loop
vertex 5 19 0
vertex 0 0 0
vertex 0 19 0
endloop
endfacet
facet normal -1 0 0
outer loop
vertex 0 0 0
vertex 0 0 6.35
vertex 0 19 0
endloop
endfacet
facet normal -1 0 0
outer loop
vertex 0 19 0
vertex 0 0 6.35
vertex 0 19 6.35
endloop
endfacet
endsolid
