solid C:\Temp\NOELParts\RES_POWER_P__PRT.STL created by CtrlView V2.70
facet normal 1 0 0
outer loop
vertex 5.08 15.24 0
vertex 5.08 15.24 7.62
vertex 5.08 0 0
endloop
endfacet
facet normal 1 0 0
outer loop
vertex 5.08 0 0
vertex 5.08 15.24 7.62
vertex 5.08 0 7.62
endloop
endfacet
facet normal 0 -1 0
outer loop
vertex 5.08 0 0
vertex 5.08 0 7.62
vertex 0 0 0
endloop
endfacet
facet normal 0 -1 0
outer loop
vertex 0 0 0
vertex 5.08 0 7.62
vertex 0 0 7.62
endloop
endfacet
facet normal 0 0 1
outer loop
vertex 0 0 7.62
vertex 5.08 0 7.62
vertex 0 15.24 7.62
endloop
endfacet
facet normal 0 0 1
outer loop
vertex 0 15.24 7.62
vertex 5.08 0 7.62
vertex 5.08 15.24 7.62
endloop
endfacet
facet normal 0 1 0
outer loop
vertex 0 15.24 0
vertex 0 15.24 7.62
vertex 5.08 15.24 0
endloop
endfacet
facet normal 0 1 0
outer loop
vertex 5.08 15.24 0
vertex 0 15.24 7.62
vertex 5.08 15.24 7.62
endloop
endfacet
facet normal 0 0 -1
outer loop
vertex 0 0 0
vertex 0 15.24 0
vertex 5.08 0 0
endloop
endfacet
facet normal 0 0 -1
outer loop
vertex 5.08 0 0
vertex 0 15.24 0
vertex 5.08 15.24 0
endloop
endfacet
facet normal -1 0 0
outer loop
vertex 0 0 0
vertex 0 0 7.62
vertex 0 15.24 0
endloop
endfacet
facet normal -1 0 0
outer loop
vertex 0 15.24 0
vertex 0 0 7.62
vertex 0 15.24 7.62
endloop
endfacet
endsolid
