solid C:\Temp\NOELParts\CLAMP_SLIDER_PRT.STL created by CtrlView V2.70
facet normal 0 1 0
outer loop
vertex 55.6504 29.718 22.6282
vertex 55.1597 29.718 22.4064
vertex 54.6386 29.718 22.2707
endloop
endfacet
facet normal 0 1 0
outer loop
vertex 56.4854 29.718 23.3024
vertex 56.0966 29.718 22.9297
vertex 55.6504 29.718 22.6282
endloop
endfacet
facet normal 0 1 0
outer loop
vertex 54.3713 29.718 28.5636
vertex 53.5654 29.718 22.2707
vertex 53.0443 29.718 22.4064
endloop
endfacet
facet normal 0 1 0
outer loop
vertex 50.9527 29.718 25.8033
vertex 51.0662 29.718 26.3297
vertex 51.267 29.718 26.8294
endloop
endfacet
facet normal 0 1 0
outer loop
vertex 51.7186 29.718 23.3024
vertex 51.3984 29.718 23.7353
vertex 52.1074 29.718 22.9297
endloop
endfacet
facet normal 0 1 0
outer loop
vertex 52.1074 29.718 22.9297
vertex 51.3984 29.718 23.7353
vertex 54.3713 29.718 28.5636
endloop
endfacet
facet normal 0 1 0
outer loop
vertex 52.1074 29.718 22.9297
vertex 54.3713 29.718 28.5636
vertex 52.5536 29.718 22.6282
endloop
endfacet
facet normal 0 1 0
outer loop
vertex 52.5536 29.718 22.6282
vertex 54.3713 29.718 28.5636
vertex 53.0443 29.718 22.4064
endloop
endfacet
facet normal 0 1 0
outer loop
vertex 50.9527 29.718 25.8033
vertex 51.267 29.718 26.8294
vertex 54.3713 29.718 28.5636
endloop
endfacet
facet normal 0 1 0
outer loop
vertex 54.3713 29.718 28.5636
vertex 51.267 29.718 26.8294
vertex 51.5493 29.718 27.288
endloop
endfacet
facet normal 0 1 0
outer loop
vertex 54.3713 29.718 28.5636
vertex 51.5493 29.718 27.288
vertex 51.9051 29.718 27.6922
endloop
endfacet
facet normal 0 1 0
outer loop
vertex 54.102 29.718 22.225
vertex 53.5654 29.718 22.2707
vertex 54.6386 29.718 22.2707
endloop
endfacet
facet normal 0 1 0
outer loop
vertex 54.6386 29.718 22.2707
vertex 53.5654 29.718 22.2707
vertex 54.3713 29.718 28.5636
endloop
endfacet
facet normal 0 1 0
outer loop
vertex 54.6386 29.718 22.2707
vertex 54.3713 29.718 28.5636
vertex 55.6504 29.718 22.6282
endloop
endfacet
facet normal 0 1 0
outer loop
vertex 55.6504 29.718 22.6282
vertex 54.3713 29.718 28.5636
vertex 54.902 29.718 28.4725
endloop
endfacet
facet normal 0 1 0
outer loop
vertex 55.6504 29.718 22.6282
vertex 54.902 29.718 28.4725
vertex 55.4098 29.718 28.2932
endloop
endfacet
facet normal 0 1 0
outer loop
vertex 57.2057 29.718 24.7311
vertex 57.048 29.718 24.2162
vertex 56.8056 29.718 23.7353
endloop
endfacet
facet normal 0 1 0
outer loop
vertex 50.9299 29.718 25.2652
vertex 50.9527 29.718 25.8033
vertex 50.9983 29.718 24.7311
endloop
endfacet
facet normal 0 1 0
outer loop
vertex 50.9983 29.718 24.7311
vertex 50.9527 29.718 25.8033
vertex 54.3713 29.718 28.5636
endloop
endfacet
facet normal 0 1 0
outer loop
vertex 50.9983 29.718 24.7311
vertex 54.3713 29.718 28.5636
vertex 51.156 29.718 24.2162
endloop
endfacet
facet normal 0 1 0
outer loop
vertex 51.156 29.718 24.2162
vertex 54.3713 29.718 28.5636
vertex 51.3984 29.718 23.7353
endloop
endfacet
facet normal 0 1 0
outer loop
vertex 53.302 29.718 28.4725
vertex 53.8327 29.718 28.5636
vertex 52.7942 29.718 28.2932
endloop
endfacet
facet normal 0 1 0
outer loop
vertex 52.7942 29.718 28.2932
vertex 53.8327 29.718 28.5636
vertex 54.3713 29.718 28.5636
endloop
endfacet
facet normal 0 1 0
outer loop
vertex 52.7942 29.718 28.2932
vertex 54.3713 29.718 28.5636
vertex 52.3241 29.718 28.0305
endloop
endfacet
facet normal 0 1 0
outer loop
vertex 52.3241 29.718 28.0305
vertex 54.3713 29.718 28.5636
vertex 51.9051 29.718 27.6922
endloop
endfacet
facet normal 0 1 0
outer loop
vertex 56.6547 29.718 27.288
vertex 56.937 29.718 26.8294
vertex 56.2989 29.718 27.6922
endloop
endfacet
facet normal 0 1 0
outer loop
vertex 56.2989 29.718 27.6922
vertex 56.937 29.718 26.8294
vertex 55.6504 29.718 22.6282
endloop
endfacet
facet normal 0 1 0
outer loop
vertex 56.2989 29.718 27.6922
vertex 55.6504 29.718 22.6282
vertex 55.8799 29.718 28.0305
endloop
endfacet
facet normal 0 1 0
outer loop
vertex 55.8799 29.718 28.0305
vertex 55.6504 29.718 22.6282
vertex 55.4098 29.718 28.2932
endloop
endfacet
facet normal 0 1 0
outer loop
vertex 56.8056 29.718 23.7353
vertex 56.4854 29.718 23.3024
vertex 57.2057 29.718 24.7311
endloop
endfacet
facet normal 0 1 0
outer loop
vertex 57.2057 29.718 24.7311
vertex 56.4854 29.718 23.3024
vertex 55.6504 29.718 22.6282
endloop
endfacet
facet normal 0 1 0
outer loop
vertex 57.2057 29.718 24.7311
vertex 55.6504 29.718 22.6282
vertex 57.2741 29.718 25.2652
endloop
endfacet
facet normal 0 1 0
outer loop
vertex 57.2741 29.718 25.2652
vertex 55.6504 29.718 22.6282
vertex 56.937 29.718 26.8294
endloop
endfacet
facet normal 0 1 0
outer loop
vertex 57.2741 29.718 25.2652
vertex 56.937 29.718 26.8294
vertex 57.2513 29.718 25.8033
endloop
endfacet
facet normal 0 1 0
outer loop
vertex 57.2513 29.718 25.8033
vertex 56.937 29.718 26.8294
vertex 57.1378 29.718 26.3297
endloop
endfacet
facet normal 0 1 0
outer loop
vertex 56.4854 29.718 150.302
vertex 56.0966 29.718 149.93
vertex 55.6504 29.718 149.628
endloop
endfacet
facet normal 0 1 0
outer loop
vertex 52.3241 29.718 155.031
vertex 52.7942 29.718 155.293
vertex 51.3984 29.718 150.735
endloop
endfacet
facet normal 0 1 0
outer loop
vertex 55.6504 29.718 149.628
vertex 55.1597 29.718 149.406
vertex 54.6386 29.718 149.271
endloop
endfacet
facet normal 0 1 0
outer loop
vertex 56.6547 29.718 154.288
vertex 56.937 29.718 153.829
vertex 55.6504 29.718 149.628
endloop
endfacet
facet normal 0 1 0
outer loop
vertex 50.9527 29.718 152.803
vertex 51.0662 29.718 153.33
vertex 51.267 29.718 153.829
endloop
endfacet
facet normal 0 1 0
outer loop
vertex 54.3713 29.718 155.564
vertex 55.6504 29.718 149.628
vertex 53.8327 29.718 155.564
endloop
endfacet
facet normal 0 1 0
outer loop
vertex 53.8327 29.718 155.564
vertex 55.6504 29.718 149.628
vertex 52.7942 29.718 155.293
endloop
endfacet
facet normal 0 1 0
outer loop
vertex 53.8327 29.718 155.564
vertex 52.7942 29.718 155.293
vertex 53.302 29.718 155.473
endloop
endfacet
facet normal 0 1 0
outer loop
vertex 55.6504 29.718 149.628
vertex 54.6386 29.718 149.271
vertex 52.7942 29.718 155.293
endloop
endfacet
facet normal 0 1 0
outer loop
vertex 52.7942 29.718 155.293
vertex 54.6386 29.718 149.271
vertex 54.102 29.718 149.225
endloop
endfacet
facet normal 0 1 0
outer loop
vertex 52.7942 29.718 155.293
vertex 54.102 29.718 149.225
vertex 53.5654 29.718 149.271
endloop
endfacet
facet normal 0 1 0
outer loop
vertex 51.267 29.718 153.829
vertex 51.5493 29.718 154.288
vertex 51.9051 29.718 154.692
endloop
endfacet
facet normal 0 1 0
outer loop
vertex 56.2989 29.718 154.692
vertex 56.6547 29.718 154.288
vertex 55.8799 29.718 155.031
endloop
endfacet
facet normal 0 1 0
outer loop
vertex 55.8799 29.718 155.031
vertex 56.6547 29.718 154.288
vertex 55.6504 29.718 149.628
endloop
endfacet
facet normal 0 1 0
outer loop
vertex 55.8799 29.718 155.031
vertex 55.6504 29.718 149.628
vertex 55.4098 29.718 155.293
endloop
endfacet
facet normal 0 1 0
outer loop
vertex 55.4098 29.718 155.293
vertex 55.6504 29.718 149.628
vertex 54.3713 29.718 155.564
endloop
endfacet
facet normal 0 1 0
outer loop
vertex 55.4098 29.718 155.293
vertex 54.3713 29.718 155.564
vertex 54.902 29.718 155.473
endloop
endfacet
facet normal 0 1 0
outer loop
vertex 57.2057 29.718 151.731
vertex 57.048 29.718 151.216
vertex 56.8056 29.718 150.735
endloop
endfacet
facet normal 0 1 0
outer loop
vertex 51.7186 29.718 150.302
vertex 51.3984 29.718 150.735
vertex 52.1074 29.718 149.93
endloop
endfacet
facet normal 0 1 0
outer loop
vertex 52.1074 29.718 149.93
vertex 51.3984 29.718 150.735
vertex 52.7942 29.718 155.293
endloop
endfacet
facet normal 0 1 0
outer loop
vertex 52.1074 29.718 149.93
vertex 52.7942 29.718 155.293
vertex 52.5536 29.718 149.628
endloop
endfacet
facet normal 0 1 0
outer loop
vertex 52.5536 29.718 149.628
vertex 52.7942 29.718 155.293
vertex 53.5654 29.718 149.271
endloop
endfacet
facet normal 0 1 0
outer loop
vertex 52.5536 29.718 149.628
vertex 53.5654 29.718 149.271
vertex 53.0443 29.718 149.406
endloop
endfacet
facet normal 0 1 0
outer loop
vertex 51.3984 29.718 150.735
vertex 51.156 29.718 151.216
vertex 50.9983 29.718 151.731
endloop
endfacet
facet normal 0 1 0
outer loop
vertex 56.8056 29.718 150.735
vertex 56.4854 29.718 150.302
vertex 57.2057 29.718 151.731
endloop
endfacet
facet normal 0 1 0
outer loop
vertex 57.2057 29.718 151.731
vertex 56.4854 29.718 150.302
vertex 55.6504 29.718 149.628
endloop
endfacet
facet normal 0 1 0
outer loop
vertex 57.2057 29.718 151.731
vertex 55.6504 29.718 149.628
vertex 57.2741 29.718 152.265
endloop
endfacet
facet normal 0 1 0
outer loop
vertex 57.2741 29.718 152.265
vertex 55.6504 29.718 149.628
vertex 56.937 29.718 153.829
endloop
endfacet
facet normal 0 1 0
outer loop
vertex 57.2741 29.718 152.265
vertex 56.937 29.718 153.829
vertex 57.2513 29.718 152.803
endloop
endfacet
facet normal 0 1 0
outer loop
vertex 57.2513 29.718 152.803
vertex 56.937 29.718 153.829
vertex 57.1378 29.718 153.33
endloop
endfacet
facet normal 0 1 0
outer loop
vertex 51.9051 29.718 154.692
vertex 52.3241 29.718 155.031
vertex 51.267 29.718 153.829
endloop
endfacet
facet normal 0 1 0
outer loop
vertex 51.267 29.718 153.829
vertex 52.3241 29.718 155.031
vertex 51.3984 29.718 150.735
endloop
endfacet
facet normal 0 1 0
outer loop
vertex 51.267 29.718 153.829
vertex 51.3984 29.718 150.735
vertex 50.9527 29.718 152.803
endloop
endfacet
facet normal 0 1 0
outer loop
vertex 50.9527 29.718 152.803
vertex 51.3984 29.718 150.735
vertex 50.9983 29.718 151.731
endloop
endfacet
facet normal 0 1 0
outer loop
vertex 50.9527 29.718 152.803
vertex 50.9983 29.718 151.731
vertex 50.9299 29.718 152.265
endloop
endfacet
facet normal 0 1 0
outer loop
vertex 22.0827 29.718 28.5636
vertex 22.6213 29.718 28.5636
vertex 19.517 29.718 26.8294
endloop
endfacet
facet normal 0 1 0
outer loop
vertex 22.8886 29.718 22.2707
vertex 22.352 29.718 22.225
vertex 21.8154 29.718 22.2707
endloop
endfacet
facet normal 0 1 0
outer loop
vertex 21.8154 29.718 22.2707
vertex 21.2943 29.718 22.4064
vertex 22.6213 29.718 28.5636
endloop
endfacet
facet normal 0 1 0
outer loop
vertex 22.6213 29.718 28.5636
vertex 21.2943 29.718 22.4064
vertex 20.8036 29.718 22.6282
endloop
endfacet
facet normal 0 1 0
outer loop
vertex 19.517 29.718 26.8294
vertex 22.6213 29.718 28.5636
vertex 19.3162 29.718 26.3297
endloop
endfacet
facet normal 0 1 0
outer loop
vertex 19.3162 29.718 26.3297
vertex 22.6213 29.718 28.5636
vertex 19.1799 29.718 25.2652
endloop
endfacet
facet normal 0 1 0
outer loop
vertex 19.3162 29.718 26.3297
vertex 19.1799 29.718 25.2652
vertex 19.2027 29.718 25.8033
endloop
endfacet
facet normal 0 1 0
outer loop
vertex 21.8154 29.718 22.2707
vertex 22.6213 29.718 28.5636
vertex 22.8886 29.718 22.2707
endloop
endfacet
facet normal 0 1 0
outer loop
vertex 22.8886 29.718 22.2707
vertex 22.6213 29.718 28.5636
vertex 23.152 29.718 28.4725
endloop
endfacet
facet normal 0 1 0
outer loop
vertex 22.8886 29.718 22.2707
vertex 23.152 29.718 28.4725
vertex 23.6598 29.718 28.2932
endloop
endfacet
facet normal 0 1 0
outer loop
vertex 23.4097 29.718 22.4064
vertex 22.8886 29.718 22.2707
vertex 23.9004 29.718 22.6282
endloop
endfacet
facet normal 0 1 0
outer loop
vertex 23.9004 29.718 22.6282
vertex 22.8886 29.718 22.2707
vertex 25.187 29.718 26.8294
endloop
endfacet
facet normal 0 1 0
outer loop
vertex 23.9004 29.718 22.6282
vertex 25.187 29.718 26.8294
vertex 25.3878 29.718 26.3297
endloop
endfacet
facet normal 0 1 0
outer loop
vertex 19.2483 29.718 24.7311
vertex 19.1799 29.718 25.2652
vertex 19.406 29.718 24.2162
endloop
endfacet
facet normal 0 1 0
outer loop
vertex 19.406 29.718 24.2162
vertex 19.1799 29.718 25.2652
vertex 22.6213 29.718 28.5636
endloop
endfacet
facet normal 0 1 0
outer loop
vertex 19.406 29.718 24.2162
vertex 22.6213 29.718 28.5636
vertex 19.6484 29.718 23.7353
endloop
endfacet
facet normal 0 1 0
outer loop
vertex 19.6484 29.718 23.7353
vertex 22.6213 29.718 28.5636
vertex 20.8036 29.718 22.6282
endloop
endfacet
facet normal 0 1 0
outer loop
vertex 19.6484 29.718 23.7353
vertex 20.8036 29.718 22.6282
vertex 19.9686 29.718 23.3024
endloop
endfacet
facet normal 0 1 0
outer loop
vertex 19.9686 29.718 23.3024
vertex 20.8036 29.718 22.6282
vertex 20.3574 29.718 22.9297
endloop
endfacet
facet normal 0 1 0
outer loop
vertex 19.517 29.718 26.8294
vertex 19.7993 29.718 27.288
vertex 20.1551 29.718 27.6922
endloop
endfacet
facet normal 0 1 0
outer loop
vertex 21.0442 29.718 28.2932
vertex 21.552 29.718 28.4725
vertex 22.0827 29.718 28.5636
endloop
endfacet
facet normal 0 1 0
outer loop
vertex 24.9047 29.718 27.288
vertex 25.187 29.718 26.8294
vertex 24.5489 29.718 27.6922
endloop
endfacet
facet normal 0 1 0
outer loop
vertex 24.5489 29.718 27.6922
vertex 25.187 29.718 26.8294
vertex 22.8886 29.718 22.2707
endloop
endfacet
facet normal 0 1 0
outer loop
vertex 24.5489 29.718 27.6922
vertex 22.8886 29.718 22.2707
vertex 24.1299 29.718 28.0305
endloop
endfacet
facet normal 0 1 0
outer loop
vertex 24.1299 29.718 28.0305
vertex 22.8886 29.718 22.2707
vertex 23.6598 29.718 28.2932
endloop
endfacet
facet normal 0 1 0
outer loop
vertex 22.0827 29.718 28.5636
vertex 19.517 29.718 26.8294
vertex 21.0442 29.718 28.2932
endloop
endfacet
facet normal 0 1 0
outer loop
vertex 21.0442 29.718 28.2932
vertex 19.517 29.718 26.8294
vertex 20.1551 29.718 27.6922
endloop
endfacet
facet normal 0 1 0
outer loop
vertex 21.0442 29.718 28.2932
vertex 20.1551 29.718 27.6922
vertex 20.5741 29.718 28.0305
endloop
endfacet
facet normal 0 1 0
outer loop
vertex 25.3878 29.718 26.3297
vertex 25.5013 29.718 25.8033
vertex 23.9004 29.718 22.6282
endloop
endfacet
facet normal 0 1 0
outer loop
vertex 23.9004 29.718 22.6282
vertex 25.5013 29.718 25.8033
vertex 25.5241 29.718 25.2652
endloop
endfacet
facet normal 0 1 0
outer loop
vertex 23.9004 29.718 22.6282
vertex 25.5241 29.718 25.2652
vertex 25.4557 29.718 24.7311
endloop
endfacet
facet normal 0 1 0
outer loop
vertex 24.7354 29.718 23.3024
vertex 24.3466 29.718 22.9297
vertex 25.0556 29.718 23.7353
endloop
endfacet
facet normal 0 1 0
outer loop
vertex 25.0556 29.718 23.7353
vertex 24.3466 29.718 22.9297
vertex 23.9004 29.718 22.6282
endloop
endfacet
facet normal 0 1 0
outer loop
vertex 25.0556 29.718 23.7353
vertex 23.9004 29.718 22.6282
vertex 25.298 29.718 24.2162
endloop
endfacet
facet normal 0 1 0
outer loop
vertex 25.298 29.718 24.2162
vertex 23.9004 29.718 22.6282
vertex 25.4557 29.718 24.7311
endloop
endfacet
facet normal 0 1 0
outer loop
vertex 20.8036 29.718 149.628
vertex 21.0442 29.718 155.293
vertex 21.552 29.718 155.473
endloop
endfacet
facet normal 0 1 0
outer loop
vertex 21.2943 29.718 149.406
vertex 20.8036 29.718 149.628
vertex 21.8154 29.718 149.271
endloop
endfacet
facet normal 0 1 0
outer loop
vertex 21.8154 29.718 149.271
vertex 20.8036 29.718 149.628
vertex 23.6598 29.718 155.293
endloop
endfacet
facet normal 0 1 0
outer loop
vertex 21.8154 29.718 149.271
vertex 23.6598 29.718 155.293
vertex 22.352 29.718 149.225
endloop
endfacet
facet normal 0 1 0
outer loop
vertex 22.352 29.718 149.225
vertex 23.6598 29.718 155.293
vertex 24.1299 29.718 155.031
endloop
endfacet
facet normal 0 1 0
outer loop
vertex 19.2483 29.718 151.731
vertex 19.1799 29.718 152.265
vertex 19.406 29.718 151.216
endloop
endfacet
facet normal 0 1 0
outer loop
vertex 19.406 29.718 151.216
vertex 19.1799 29.718 152.265
vertex 21.0442 29.718 155.293
endloop
endfacet
facet normal 0 1 0
outer loop
vertex 19.406 29.718 151.216
vertex 21.0442 29.718 155.293
vertex 19.6484 29.718 150.735
endloop
endfacet
facet normal 0 1 0
outer loop
vertex 19.6484 29.718 150.735
vertex 21.0442 29.718 155.293
vertex 20.8036 29.718 149.628
endloop
endfacet
facet normal 0 1 0
outer loop
vertex 19.6484 29.718 150.735
vertex 20.8036 29.718 149.628
vertex 19.9686 29.718 150.302
endloop
endfacet
facet normal 0 1 0
outer loop
vertex 19.9686 29.718 150.302
vertex 20.8036 29.718 149.628
vertex 20.3574 29.718 149.93
endloop
endfacet
facet normal 0 1 0
outer loop
vertex 19.1799 29.718 152.265
vertex 19.2027 29.718 152.803
vertex 19.3162 29.718 153.33
endloop
endfacet
facet normal 0 1 0
outer loop
vertex 19.1799 29.718 152.265
vertex 19.3162 29.718 153.33
vertex 21.0442 29.718 155.293
endloop
endfacet
facet normal 0 1 0
outer loop
vertex 21.0442 29.718 155.293
vertex 19.3162 29.718 153.33
vertex 19.517 29.718 153.829
endloop
endfacet
facet normal 0 1 0
outer loop
vertex 21.0442 29.718 155.293
vertex 19.517 29.718 153.829
vertex 20.5741 29.718 155.031
endloop
endfacet
facet normal 0 1 0
outer loop
vertex 20.5741 29.718 155.031
vertex 19.517 29.718 153.829
vertex 19.7993 29.718 154.288
endloop
endfacet
facet normal 0 1 0
outer loop
vertex 20.5741 29.718 155.031
vertex 19.7993 29.718 154.288
vertex 20.1551 29.718 154.692
endloop
endfacet
facet normal 0 1 0
outer loop
vertex 23.152 29.718 155.473
vertex 23.6598 29.718 155.293
vertex 22.6213 29.718 155.564
endloop
endfacet
facet normal 0 1 0
outer loop
vertex 22.6213 29.718 155.564
vertex 23.6598 29.718 155.293
vertex 20.8036 29.718 149.628
endloop
endfacet
facet normal 0 1 0
outer loop
vertex 22.6213 29.718 155.564
vertex 20.8036 29.718 149.628
vertex 22.0827 29.718 155.564
endloop
endfacet
facet normal 0 1 0
outer loop
vertex 22.0827 29.718 155.564
vertex 20.8036 29.718 149.628
vertex 21.552 29.718 155.473
endloop
endfacet
facet normal 0 1 0
outer loop
vertex 24.1299 29.718 155.031
vertex 24.5489 29.718 154.692
vertex 24.9047 29.718 154.288
endloop
endfacet
facet normal 0 1 0
outer loop
vertex 23.9004 29.718 149.628
vertex 25.187 29.718 153.829
vertex 25.3878 29.718 153.33
endloop
endfacet
facet normal 0 1 0
outer loop
vertex 24.1299 29.718 155.031
vertex 24.9047 29.718 154.288
vertex 22.352 29.718 149.225
endloop
endfacet
facet normal 0 1 0
outer loop
vertex 22.352 29.718 149.225
vertex 24.9047 29.718 154.288
vertex 25.187 29.718 153.829
endloop
endfacet
facet normal 0 1 0
outer loop
vertex 22.352 29.718 149.225
vertex 25.187 29.718 153.829
vertex 22.8886 29.718 149.271
endloop
endfacet
facet normal 0 1 0
outer loop
vertex 22.8886 29.718 149.271
vertex 25.187 29.718 153.829
vertex 23.9004 29.718 149.628
endloop
endfacet
facet normal 0 1 0
outer loop
vertex 22.8886 29.718 149.271
vertex 23.9004 29.718 149.628
vertex 23.4097 29.718 149.406
endloop
endfacet
facet normal 0 1 0
outer loop
vertex 25.3878 29.718 153.33
vertex 25.5013 29.718 152.803
vertex 23.9004 29.718 149.628
endloop
endfacet
facet normal 0 1 0
outer loop
vertex 23.9004 29.718 149.628
vertex 25.5013 29.718 152.803
vertex 25.5241 29.718 152.265
endloop
endfacet
facet normal 0 1 0
outer loop
vertex 23.9004 29.718 149.628
vertex 25.5241 29.718 152.265
vertex 25.4557 29.718 151.731
endloop
endfacet
facet normal 0 1 0
outer loop
vertex 24.7354 29.718 150.302
vertex 24.3466 29.718 149.93
vertex 25.0556 29.718 150.735
endloop
endfacet
facet normal 0 1 0
outer loop
vertex 25.0556 29.718 150.735
vertex 24.3466 29.718 149.93
vertex 23.9004 29.718 149.628
endloop
endfacet
facet normal 0 1 0
outer loop
vertex 25.0556 29.718 150.735
vertex 23.9004 29.718 149.628
vertex 25.298 29.718 151.216
endloop
endfacet
facet normal 0 1 0
outer loop
vertex 25.298 29.718 151.216
vertex 23.9004 29.718 149.628
vertex 25.4557 29.718 151.731
endloop
endfacet
facet normal -0.251973 0 0.967734
outer loop
vertex 54.6386 55.118 22.2707
vertex 54.6386 29.718 22.2707
vertex 55.1597 55.118 22.4064
endloop
endfacet
facet normal -0.251973 0 0.967734
outer loop
vertex 55.1597 55.118 22.4064
vertex 54.6386 29.718 22.2707
vertex 55.1597 29.718 22.4064
endloop
endfacet
facet normal -0.411904 0 0.911227
outer loop
vertex 55.1597 55.118 22.4064
vertex 55.1597 29.718 22.4064
vertex 55.6504 55.118 22.6282
endloop
endfacet
facet normal -0.411904 0 0.911227
outer loop
vertex 55.6504 55.118 22.6282
vertex 55.1597 29.718 22.4064
vertex 55.6504 29.718 22.6282
endloop
endfacet
facet normal -0.559972 0 0.828512
outer loop
vertex 55.6504 55.118 22.6282
vertex 55.6504 29.718 22.6282
vertex 56.0966 55.118 22.9297
endloop
endfacet
facet normal -0.559972 0 0.828512
outer loop
vertex 56.0966 55.118 22.9297
vertex 55.6504 29.718 22.6282
vertex 56.0966 29.718 22.9297
endloop
endfacet
facet normal -0.691937 0 0.721958
outer loop
vertex 56.0966 55.118 22.9297
vertex 56.0966 29.718 22.9297
vertex 56.4854 55.118 23.3024
endloop
endfacet
facet normal -0.691937 0 0.721958
outer loop
vertex 56.4854 55.118 23.3024
vertex 56.0966 29.718 22.9297
vertex 56.4854 29.718 23.3024
endloop
endfacet
facet normal -0.804001 0 0.594628
outer loop
vertex 56.4854 55.118 23.3024
vertex 56.4854 29.718 23.3024
vertex 56.8056 55.118 23.7353
endloop
endfacet
facet normal -0.804001 0 0.594628
outer loop
vertex 56.8056 55.118 23.7353
vertex 56.4854 29.718 23.3024
vertex 56.8056 29.718 23.7353
endloop
endfacet
facet normal -0.892924 0 0.450207
outer loop
vertex 56.8056 55.118 23.7353
vertex 56.8056 29.718 23.7353
vertex 57.048 55.118 24.2162
endloop
endfacet
facet normal -0.892924 0 0.450207
outer loop
vertex 57.048 55.118 24.2162
vertex 56.8056 29.718 23.7353
vertex 57.048 29.718 24.2162
endloop
endfacet
facet normal -0.956167 0 0.292821
outer loop
vertex 57.048 55.118 24.2162
vertex 57.048 29.718 24.2162
vertex 57.2057 55.118 24.7311
endloop
endfacet
facet normal -0.956167 0 0.292821
outer loop
vertex 57.2057 55.118 24.7311
vertex 57.048 29.718 24.2162
vertex 57.2057 29.718 24.7311
endloop
endfacet
facet normal -0.9919 0 0.127018
outer loop
vertex 57.2057 55.118 24.7311
vertex 57.2057 29.718 24.7311
vertex 57.2741 55.118 25.2652
endloop
endfacet
facet normal -0.9919 0 0.127018
outer loop
vertex 57.2741 55.118 25.2652
vertex 57.2057 29.718 24.7311
vertex 57.2741 29.718 25.2652
endloop
endfacet
facet normal -0.999099 0 -0.0424452
outer loop
vertex 57.2741 55.118 25.2652
vertex 57.2741 29.718 25.2652
vertex 57.2513 55.118 25.8033
endloop
endfacet
facet normal -0.999099 0 -0.0424452
outer loop
vertex 57.2513 55.118 25.8033
vertex 57.2741 29.718 25.2652
vertex 57.2513 29.718 25.8033
endloop
endfacet
facet normal -0.977557 0 -0.210671
outer loop
vertex 57.2513 55.118 25.8033
vertex 57.2513 29.718 25.8033
vertex 57.1378 55.118 26.3297
endloop
endfacet
facet normal -0.977557 0 -0.210671
outer loop
vertex 57.1378 55.118 26.3297
vertex 57.2513 29.718 25.8033
vertex 57.1378 29.718 26.3297
endloop
endfacet
facet normal -0.927886 0 -0.372864
outer loop
vertex 57.1378 55.118 26.3297
vertex 57.1378 29.718 26.3297
vertex 56.937 55.118 26.8294
endloop
endfacet
facet normal -0.927886 0 -0.372864
outer loop
vertex 56.937 55.118 26.8294
vertex 57.1378 29.718 26.3297
vertex 56.937 29.718 26.8294
endloop
endfacet
facet normal -0.851533 0 -0.524301
outer loop
vertex 56.937 55.118 26.8294
vertex 56.937 29.718 26.8294
vertex 56.6547 55.118 27.288
endloop
endfacet
facet normal -0.851533 0 -0.524301
outer loop
vertex 56.6547 55.118 27.288
vertex 56.937 29.718 26.8294
vertex 56.6547 29.718 27.288
endloop
endfacet
facet normal -0.750668 0 -0.66068
outer loop
vertex 56.6547 55.118 27.288
vertex 56.6547 29.718 27.288
vertex 56.2989 55.118 27.6922
endloop
endfacet
facet normal -0.750668 0 -0.66068
outer loop
vertex 56.2989 55.118 27.6922
vertex 56.6547 29.718 27.288
vertex 56.2989 29.718 27.6922
endloop
endfacet
facet normal -0.628223 0 -0.778033
outer loop
vertex 56.2989 55.118 27.6922
vertex 56.2989 29.718 27.6922
vertex 55.8799 55.118 28.0305
endloop
endfacet
facet normal -0.628223 0 -0.778033
outer loop
vertex 55.8799 55.118 28.0305
vertex 56.2989 29.718 27.6922
vertex 55.8799 29.718 28.0305
endloop
endfacet
facet normal -0.4877 0 -0.873011
outer loop
vertex 55.8799 55.118 28.0305
vertex 55.8799 29.718 28.0305
vertex 55.4098 55.118 28.2932
endloop
endfacet
facet normal -0.4877 0 -0.873011
outer loop
vertex 55.4098 55.118 28.2932
vertex 55.8799 29.718 28.0305
vertex 55.4098 29.718 28.2932
endloop
endfacet
facet normal -0.333131 0 -0.94288
outer loop
vertex 55.4098 55.118 28.2932
vertex 55.4098 29.718 28.2932
vertex 54.902 55.118 28.4725
endloop
endfacet
facet normal -0.333131 0 -0.94288
outer loop
vertex 54.902 55.118 28.4725
vertex 55.4098 29.718 28.2932
vertex 54.902 29.718 28.4725
endloop
endfacet
facet normal -0.169007 0 -0.985615
outer loop
vertex 54.902 55.118 28.4725
vertex 54.902 29.718 28.4725
vertex 54.3713 55.118 28.5636
endloop
endfacet
facet normal -0.169007 0 -0.985615
outer loop
vertex 54.3713 55.118 28.5636
vertex 54.902 29.718 28.4725
vertex 54.3713 29.718 28.5636
endloop
endfacet
facet normal 0 0 -1
outer loop
vertex 54.3713 55.118 28.5636
vertex 54.3713 29.718 28.5636
vertex 53.8327 55.118 28.5636
endloop
endfacet
facet normal 0 0 -1
outer loop
vertex 53.8327 55.118 28.5636
vertex 54.3713 29.718 28.5636
vertex 53.8327 29.718 28.5636
endloop
endfacet
facet normal 0.169007 0 -0.985615
outer loop
vertex 53.8327 55.118 28.5636
vertex 53.8327 29.718 28.5636
vertex 53.302 55.118 28.4725
endloop
endfacet
facet normal 0.169007 0 -0.985615
outer loop
vertex 53.302 55.118 28.4725
vertex 53.8327 29.718 28.5636
vertex 53.302 29.718 28.4725
endloop
endfacet
facet normal 0.333134 0 -0.94288
outer loop
vertex 53.302 55.118 28.4725
vertex 53.302 29.718 28.4725
vertex 52.7942 55.118 28.2932
endloop
endfacet
facet normal 0.333134 0 -0.94288
outer loop
vertex 52.7942 55.118 28.2932
vertex 53.302 29.718 28.4725
vertex 52.7942 29.718 28.2932
endloop
endfacet
facet normal 0.487694 0 -0.873015
outer loop
vertex 52.7942 55.118 28.2932
vertex 52.7942 29.718 28.2932
vertex 52.3241 55.118 28.0305
endloop
endfacet
facet normal 0.487694 0 -0.873015
outer loop
vertex 52.3241 55.118 28.0305
vertex 52.7942 29.718 28.2932
vertex 52.3241 29.718 28.0305
endloop
endfacet
facet normal 0.628223 0 -0.778033
outer loop
vertex 52.3241 55.118 28.0305
vertex 52.3241 29.718 28.0305
vertex 51.9051 55.118 27.6922
endloop
endfacet
facet normal 0.628223 0 -0.778033
outer loop
vertex 51.9051 55.118 27.6922
vertex 52.3241 29.718 28.0305
vertex 51.9051 29.718 27.6922
endloop
endfacet
facet normal 0.750671 0 -0.660676
outer loop
vertex 51.9051 55.118 27.6922
vertex 51.9051 29.718 27.6922
vertex 51.5493 55.118 27.288
endloop
endfacet
facet normal 0.750671 0 -0.660676
outer loop
vertex 51.5493 55.118 27.288
vertex 51.9051 29.718 27.6922
vertex 51.5493 29.718 27.288
endloop
endfacet
facet normal 0.85153 0 -0.524306
outer loop
vertex 51.5493 55.118 27.288
vertex 51.5493 29.718 27.288
vertex 51.267 55.118 26.8294
endloop
endfacet
facet normal 0.85153 0 -0.524306
outer loop
vertex 51.267 55.118 26.8294
vertex 51.5493 29.718 27.288
vertex 51.267 29.718 26.8294
endloop
endfacet
facet normal 0.927888 0 -0.372858
outer loop
vertex 51.267 55.118 26.8294
vertex 51.267 29.718 26.8294
vertex 51.0662 55.118 26.3297
endloop
endfacet
facet normal 0.927888 0 -0.372858
outer loop
vertex 51.0662 55.118 26.3297
vertex 51.267 29.718 26.8294
vertex 51.0662 29.718 26.3297
endloop
endfacet
facet normal 0.977556 0 -0.210677
outer loop
vertex 51.0662 55.118 26.3297
vertex 51.0662 29.718 26.3297
vertex 50.9527 55.118 25.8033
endloop
endfacet
facet normal 0.977556 0 -0.210677
outer loop
vertex 50.9527 55.118 25.8033
vertex 51.0662 29.718 26.3297
vertex 50.9527 29.718 25.8033
endloop
endfacet
facet normal 0.999099 0 -0.0424452
outer loop
vertex 50.9527 55.118 25.8033
vertex 50.9527 29.718 25.8033
vertex 50.9299 55.118 25.2652
endloop
endfacet
facet normal 0.999099 0 -0.0424452
outer loop
vertex 50.9299 55.118 25.2652
vertex 50.9527 29.718 25.8033
vertex 50.9299 29.718 25.2652
endloop
endfacet
facet normal 0.9919 0 0.127025
outer loop
vertex 50.9299 55.118 25.2652
vertex 50.9299 29.718 25.2652
vertex 50.9983 55.118 24.7311
endloop
endfacet
facet normal 0.9919 0 0.127025
outer loop
vertex 50.9983 55.118 24.7311
vertex 50.9299 29.718 25.2652
vertex 50.9983 29.718 24.7311
endloop
endfacet
facet normal 0.956165 0 0.292827
outer loop
vertex 50.9983 55.118 24.7311
vertex 50.9983 29.718 24.7311
vertex 51.156 55.118 24.2162
endloop
endfacet
facet normal 0.956165 0 0.292827
outer loop
vertex 51.156 55.118 24.2162
vertex 50.9983 29.718 24.7311
vertex 51.156 29.718 24.2162
endloop
endfacet
facet normal 0.89293 0 0.450196
outer loop
vertex 51.156 55.118 24.2162
vertex 51.156 29.718 24.2162
vertex 51.3984 55.118 23.7353
endloop
endfacet
facet normal 0.89293 0 0.450196
outer loop
vertex 51.3984 55.118 23.7353
vertex 51.156 29.718 24.2162
vertex 51.3984 29.718 23.7353
endloop
endfacet
facet normal 0.803998 0 0.594632
outer loop
vertex 51.3984 55.118 23.7353
vertex 51.3984 29.718 23.7353
vertex 51.7186 55.118 23.3024
endloop
endfacet
facet normal 0.803998 0 0.594632
outer loop
vertex 51.7186 55.118 23.3024
vertex 51.3984 29.718 23.7353
vertex 51.7186 29.718 23.3024
endloop
endfacet
facet normal 0.691937 0 0.721958
outer loop
vertex 51.7186 55.118 23.3024
vertex 51.7186 29.718 23.3024
vertex 52.1074 55.118 22.9297
endloop
endfacet
facet normal 0.691937 0 0.721958
outer loop
vertex 52.1074 55.118 22.9297
vertex 51.7186 29.718 23.3024
vertex 52.1074 29.718 22.9297
endloop
endfacet
facet normal 0.559972 0 0.828512
outer loop
vertex 52.1074 55.118 22.9297
vertex 52.1074 29.718 22.9297
vertex 52.5536 55.118 22.6282
endloop
endfacet
facet normal 0.559972 0 0.828512
outer loop
vertex 52.5536 55.118 22.6282
vertex 52.1074 29.718 22.9297
vertex 52.5536 29.718 22.6282
endloop
endfacet
facet normal 0.411907 0 0.911226
outer loop
vertex 52.5536 55.118 22.6282
vertex 52.5536 29.718 22.6282
vertex 53.0443 55.118 22.4064
endloop
endfacet
facet normal 0.411907 0 0.911226
outer loop
vertex 53.0443 55.118 22.4064
vertex 52.5536 29.718 22.6282
vertex 53.0443 29.718 22.4064
endloop
endfacet
facet normal 0.251971 0 0.967735
outer loop
vertex 53.0443 55.118 22.4064
vertex 53.0443 29.718 22.4064
vertex 53.5654 55.118 22.2707
endloop
endfacet
facet normal 0.251971 0 0.967735
outer loop
vertex 53.5654 55.118 22.2707
vertex 53.0443 29.718 22.4064
vertex 53.5654 29.718 22.2707
endloop
endfacet
facet normal 0.0848093 0 0.996397
outer loop
vertex 53.5654 55.118 22.2707
vertex 53.5654 29.718 22.2707
vertex 54.102 55.118 22.225
endloop
endfacet
facet normal 0.0848093 0 0.996397
outer loop
vertex 54.102 55.118 22.225
vertex 53.5654 29.718 22.2707
vertex 54.102 29.718 22.225
endloop
endfacet
facet normal -0.0848093 0 0.996397
outer loop
vertex 54.102 55.118 22.225
vertex 54.102 29.718 22.225
vertex 54.6386 55.118 22.2707
endloop
endfacet
facet normal -0.0848093 0 0.996397
outer loop
vertex 54.6386 55.118 22.2707
vertex 54.102 29.718 22.225
vertex 54.6386 29.718 22.2707
endloop
endfacet
facet normal -0.251956 0 0.967739
outer loop
vertex 54.6386 55.118 149.271
vertex 54.6386 29.718 149.271
vertex 55.1597 55.118 149.406
endloop
endfacet
facet normal -0.251956 0 0.967739
outer loop
vertex 55.1597 55.118 149.406
vertex 54.6386 29.718 149.271
vertex 55.1597 29.718 149.406
endloop
endfacet
facet normal -0.411901 0 0.911229
outer loop
vertex 55.1597 55.118 149.406
vertex 55.1597 29.718 149.406
vertex 55.6504 55.118 149.628
endloop
endfacet
facet normal -0.411901 0 0.911229
outer loop
vertex 55.6504 55.118 149.628
vertex 55.1597 29.718 149.406
vertex 55.6504 29.718 149.628
endloop
endfacet
facet normal -0.559979 0 0.828507
outer loop
vertex 55.6504 55.118 149.628
vertex 55.6504 29.718 149.628
vertex 56.0966 55.118 149.93
endloop
endfacet
facet normal -0.559979 0 0.828507
outer loop
vertex 56.0966 55.118 149.93
vertex 55.6504 29.718 149.628
vertex 56.0966 29.718 149.93
endloop
endfacet
facet normal -0.691937 0 0.721958
outer loop
vertex 56.0966 55.118 149.93
vertex 56.0966 29.718 149.93
vertex 56.4854 55.118 150.302
endloop
endfacet
facet normal -0.691937 0 0.721958
outer loop
vertex 56.4854 55.118 150.302
vertex 56.0966 29.718 149.93
vertex 56.4854 29.718 150.302
endloop
endfacet
facet normal -0.804001 0 0.594628
outer loop
vertex 56.4854 55.118 150.302
vertex 56.4854 29.718 150.302
vertex 56.8056 55.118 150.735
endloop
endfacet
facet normal -0.804001 0 0.594628
outer loop
vertex 56.8056 55.118 150.735
vertex 56.4854 29.718 150.302
vertex 56.8056 29.718 150.735
endloop
endfacet
facet normal -0.892926 0 0.450203
outer loop
vertex 56.8056 55.118 150.735
vertex 56.8056 29.718 150.735
vertex 57.048 55.118 151.216
endloop
endfacet
facet normal -0.892926 0 0.450203
outer loop
vertex 57.048 55.118 151.216
vertex 56.8056 29.718 150.735
vertex 57.048 29.718 151.216
endloop
endfacet
facet normal -0.956169 0 0.292814
outer loop
vertex 57.048 55.118 151.216
vertex 57.048 29.718 151.216
vertex 57.2057 55.118 151.731
endloop
endfacet
facet normal -0.956169 0 0.292814
outer loop
vertex 57.2057 55.118 151.731
vertex 57.048 29.718 151.216
vertex 57.2057 29.718 151.731
endloop
endfacet
facet normal -0.9919 0 0.127023
outer loop
vertex 57.2057 55.118 151.731
vertex 57.2057 29.718 151.731
vertex 57.2741 55.118 152.265
endloop
endfacet
facet normal -0.9919 0 0.127023
outer loop
vertex 57.2741 55.118 152.265
vertex 57.2057 29.718 151.731
vertex 57.2741 29.718 152.265
endloop
endfacet
facet normal -0.999099 0 -0.0424461
outer loop
vertex 57.2741 55.118 152.265
vertex 57.2741 29.718 152.265
vertex 57.2513 55.118 152.803
endloop
endfacet
facet normal -0.999099 0 -0.0424461
outer loop
vertex 57.2513 55.118 152.803
vertex 57.2741 29.718 152.265
vertex 57.2513 29.718 152.803
endloop
endfacet
facet normal -0.977558 0 -0.210665
outer loop
vertex 57.2513 55.118 152.803
vertex 57.2513 29.718 152.803
vertex 57.1378 55.118 153.33
endloop
endfacet
facet normal -0.977558 0 -0.210665
outer loop
vertex 57.1378 55.118 153.33
vertex 57.2513 29.718 152.803
vertex 57.1378 29.718 153.33
endloop
endfacet
facet normal -0.927885 0 -0.372867
outer loop
vertex 57.1378 55.118 153.33
vertex 57.1378 29.718 153.33
vertex 56.937 55.118 153.829
endloop
endfacet
facet normal -0.927885 0 -0.372867
outer loop
vertex 56.937 55.118 153.829
vertex 57.1378 29.718 153.33
vertex 56.937 29.718 153.829
endloop
endfacet
facet normal -0.851537 0 -0.524295
outer loop
vertex 56.937 55.118 153.829
vertex 56.937 29.718 153.829
vertex 56.6547 55.118 154.288
endloop
endfacet
facet normal -0.851537 0 -0.524295
outer loop
vertex 56.6547 55.118 154.288
vertex 56.937 29.718 153.829
vertex 56.6547 29.718 154.288
endloop
endfacet
facet normal -0.750657 0 -0.660692
outer loop
vertex 56.6547 55.118 154.288
vertex 56.6547 29.718 154.288
vertex 56.2989 55.118 154.692
endloop
endfacet
facet normal -0.750657 0 -0.660692
outer loop
vertex 56.2989 55.118 154.692
vertex 56.6547 29.718 154.288
vertex 56.2989 29.718 154.692
endloop
endfacet
facet normal -0.628234 0 -0.778025
outer loop
vertex 56.2989 55.118 154.692
vertex 56.2989 29.718 154.692
vertex 55.8799 55.118 155.031
endloop
endfacet
facet normal -0.628234 0 -0.778025
outer loop
vertex 55.8799 55.118 155.031
vertex 56.2989 29.718 154.692
vertex 55.8799 29.718 155.031
endloop
endfacet
facet normal -0.4877 0 -0.873011
outer loop
vertex 55.8799 55.118 155.031
vertex 55.8799 29.718 155.031
vertex 55.4098 55.118 155.293
endloop
endfacet
facet normal -0.4877 0 -0.873011
outer loop
vertex 55.4098 55.118 155.293
vertex 55.8799 29.718 155.031
vertex 55.4098 29.718 155.293
endloop
endfacet
facet normal -0.333131 0 -0.94288
outer loop
vertex 55.4098 55.118 155.293
vertex 55.4098 29.718 155.293
vertex 54.902 55.118 155.473
endloop
endfacet
facet normal -0.333131 0 -0.94288
outer loop
vertex 54.902 55.118 155.473
vertex 55.4098 29.718 155.293
vertex 54.902 29.718 155.473
endloop
endfacet
facet normal -0.169017 0 -0.985613
outer loop
vertex 54.902 55.118 155.473
vertex 54.902 29.718 155.473
vertex 54.3713 55.118 155.564
endloop
endfacet
facet normal -0.169017 0 -0.985613
outer loop
vertex 54.3713 55.118 155.564
vertex 54.902 29.718 155.473
vertex 54.3713 29.718 155.564
endloop
endfacet
facet normal 0 0 -1
outer loop
vertex 54.3713 55.118 155.564
vertex 54.3713 29.718 155.564
vertex 53.8327 55.118 155.564
endloop
endfacet
facet normal 0 0 -1
outer loop
vertex 53.8327 55.118 155.564
vertex 54.3713 29.718 155.564
vertex 53.8327 29.718 155.564
endloop
endfacet
facet normal 0.169017 0 -0.985613
outer loop
vertex 53.8327 55.118 155.564
vertex 53.8327 29.718 155.564
vertex 53.302 55.118 155.473
endloop
endfacet
facet normal 0.169017 0 -0.985613
outer loop
vertex 53.302 55.118 155.473
vertex 53.8327 29.718 155.564
vertex 53.302 29.718 155.473
endloop
endfacet
facet normal 0.333134 0 -0.94288
outer loop
vertex 53.302 55.118 155.473
vertex 53.302 29.718 155.473
vertex 52.7942 55.118 155.293
endloop
endfacet
facet normal 0.333134 0 -0.94288
outer loop
vertex 52.7942 55.118 155.293
vertex 53.302 29.718 155.473
vertex 52.7942 29.718 155.293
endloop
endfacet
facet normal 0.487694 0 -0.873015
outer loop
vertex 52.7942 55.118 155.293
vertex 52.7942 29.718 155.293
vertex 52.3241 55.118 155.031
endloop
endfacet
facet normal 0.487694 0 -0.873015
outer loop
vertex 52.3241 55.118 155.031
vertex 52.7942 29.718 155.293
vertex 52.3241 29.718 155.031
endloop
endfacet
facet normal 0.628234 0 -0.778025
outer loop
vertex 52.3241 55.118 155.031
vertex 52.3241 29.718 155.031
vertex 51.9051 55.118 154.692
endloop
endfacet
facet normal 0.628234 0 -0.778025
outer loop
vertex 51.9051 55.118 154.692
vertex 52.3241 29.718 155.031
vertex 51.9051 29.718 154.692
endloop
endfacet
facet normal 0.75066 0 -0.660688
outer loop
vertex 51.9051 55.118 154.692
vertex 51.9051 29.718 154.692
vertex 51.5493 55.118 154.288
endloop
endfacet
facet normal 0.75066 0 -0.660688
outer loop
vertex 51.5493 55.118 154.288
vertex 51.9051 29.718 154.692
vertex 51.5493 29.718 154.288
endloop
endfacet
facet normal 0.851534 0 -0.5243
outer loop
vertex 51.5493 55.118 154.288
vertex 51.5493 29.718 154.288
vertex 51.267 55.118 153.829
endloop
endfacet
facet normal 0.851534 0 -0.5243
outer loop
vertex 51.267 55.118 153.829
vertex 51.5493 29.718 154.288
vertex 51.267 29.718 153.829
endloop
endfacet
facet normal 0.927887 0 -0.372861
outer loop
vertex 51.267 55.118 153.829
vertex 51.267 29.718 153.829
vertex 51.0662 55.118 153.33
endloop
endfacet
facet normal 0.927887 0 -0.372861
outer loop
vertex 51.0662 55.118 153.33
vertex 51.267 29.718 153.829
vertex 51.0662 29.718 153.33
endloop
endfacet
facet normal 0.977557 0 -0.210672
outer loop
vertex 51.0662 55.118 153.33
vertex 51.0662 29.718 153.33
vertex 50.9527 55.118 152.803
endloop
endfacet
facet normal 0.977557 0 -0.210672
outer loop
vertex 50.9527 55.118 152.803
vertex 51.0662 29.718 153.33
vertex 50.9527 29.718 152.803
endloop
endfacet
facet normal 0.999099 0 -0.0424461
outer loop
vertex 50.9527 55.118 152.803
vertex 50.9527 29.718 152.803
vertex 50.9299 55.118 152.265
endloop
endfacet
facet normal 0.999099 0 -0.0424461
outer loop
vertex 50.9299 55.118 152.265
vertex 50.9527 29.718 152.803
vertex 50.9299 29.718 152.265
endloop
endfacet
facet normal 0.991899 0 0.12703
outer loop
vertex 50.9299 55.118 152.265
vertex 50.9299 29.718 152.265
vertex 50.9983 55.118 151.731
endloop
endfacet
facet normal 0.991899 0 0.12703
outer loop
vertex 50.9983 55.118 151.731
vertex 50.9299 29.718 152.265
vertex 50.9983 29.718 151.731
endloop
endfacet
facet normal 0.956167 0 0.29282
outer loop
vertex 50.9983 55.118 151.731
vertex 50.9983 29.718 151.731
vertex 51.156 55.118 151.216
endloop
endfacet
facet normal 0.956167 0 0.29282
outer loop
vertex 51.156 55.118 151.216
vertex 50.9983 29.718 151.731
vertex 51.156 29.718 151.216
endloop
endfacet
facet normal 0.892932 0 0.450192
outer loop
vertex 51.156 55.118 151.216
vertex 51.156 29.718 151.216
vertex 51.3984 55.118 150.735
endloop
endfacet
facet normal 0.892932 0 0.450192
outer loop
vertex 51.3984 55.118 150.735
vertex 51.156 29.718 151.216
vertex 51.3984 29.718 150.735
endloop
endfacet
facet normal 0.803998 0 0.594632
outer loop
vertex 51.3984 55.118 150.735
vertex 51.3984 29.718 150.735
vertex 51.7186 55.118 150.302
endloop
endfacet
facet normal 0.803998 0 0.594632
outer loop
vertex 51.7186 55.118 150.302
vertex 51.3984 29.718 150.735
vertex 51.7186 29.718 150.302
endloop
endfacet
facet normal 0.691937 0 0.721958
outer loop
vertex 51.7186 55.118 150.302
vertex 51.7186 29.718 150.302
vertex 52.1074 55.118 149.93
endloop
endfacet
facet normal 0.691937 0 0.721958
outer loop
vertex 52.1074 55.118 149.93
vertex 51.7186 29.718 150.302
vertex 52.1074 29.718 149.93
endloop
endfacet
facet normal 0.559979 0 0.828507
outer loop
vertex 52.1074 55.118 149.93
vertex 52.1074 29.718 149.93
vertex 52.5536 55.118 149.628
endloop
endfacet
facet normal 0.559979 0 0.828507
outer loop
vertex 52.5536 55.118 149.628
vertex 52.1074 29.718 149.93
vertex 52.5536 29.718 149.628
endloop
endfacet
facet normal 0.411904 0 0.911227
outer loop
vertex 52.5536 55.118 149.628
vertex 52.5536 29.718 149.628
vertex 53.0443 55.118 149.406
endloop
endfacet
facet normal 0.411904 0 0.911227
outer loop
vertex 53.0443 55.118 149.406
vertex 52.5536 29.718 149.628
vertex 53.0443 29.718 149.406
endloop
endfacet
facet normal 0.251955 0 0.967739
outer loop
vertex 53.0443 55.118 149.406
vertex 53.0443 29.718 149.406
vertex 53.5654 55.118 149.271
endloop
endfacet
facet normal 0.251955 0 0.967739
outer loop
vertex 53.5654 55.118 149.271
vertex 53.0443 29.718 149.406
vertex 53.5654 29.718 149.271
endloop
endfacet
facet normal 0.0848339 0 0.996395
outer loop
vertex 53.5654 55.118 149.271
vertex 53.5654 29.718 149.271
vertex 54.102 55.118 149.225
endloop
endfacet
facet normal 0.0848339 0 0.996395
outer loop
vertex 54.102 55.118 149.225
vertex 53.5654 29.718 149.271
vertex 54.102 29.718 149.225
endloop
endfacet
facet normal -0.0848339 0 0.996395
outer loop
vertex 54.102 55.118 149.225
vertex 54.102 29.718 149.225
vertex 54.6386 55.118 149.271
endloop
endfacet
facet normal -0.0848339 0 0.996395
outer loop
vertex 54.6386 55.118 149.271
vertex 54.102 29.718 149.225
vertex 54.6386 29.718 149.271
endloop
endfacet
facet normal -0.25197 0 0.967735
outer loop
vertex 22.8886 55.118 22.2707
vertex 22.8886 29.718 22.2707
vertex 23.4097 55.118 22.4064
endloop
endfacet
facet normal -0.25197 0 0.967735
outer loop
vertex 23.4097 55.118 22.4064
vertex 22.8886 29.718 22.2707
vertex 23.4097 29.718 22.4064
endloop
endfacet
facet normal -0.411908 0 0.911225
outer loop
vertex 23.4097 55.118 22.4064
vertex 23.4097 29.718 22.4064
vertex 23.9004 55.118 22.6282
endloop
endfacet
facet normal -0.411908 0 0.911225
outer loop
vertex 23.9004 55.118 22.6282
vertex 23.4097 29.718 22.4064
vertex 23.9004 29.718 22.6282
endloop
endfacet
facet normal -0.55997 0 0.828513
outer loop
vertex 23.9004 55.118 22.6282
vertex 23.9004 29.718 22.6282
vertex 24.3466 55.118 22.9297
endloop
endfacet
facet normal -0.55997 0 0.828513
outer loop
vertex 24.3466 55.118 22.9297
vertex 23.9004 29.718 22.6282
vertex 24.3466 29.718 22.9297
endloop
endfacet
facet normal -0.691939 0 0.721956
outer loop
vertex 24.3466 55.118 22.9297
vertex 24.3466 29.718 22.9297
vertex 24.7354 55.118 23.3024
endloop
endfacet
facet normal -0.691939 0 0.721956
outer loop
vertex 24.7354 55.118 23.3024
vertex 24.3466 29.718 22.9297
vertex 24.7354 29.718 23.3024
endloop
endfacet
facet normal -0.803996 0 0.594635
outer loop
vertex 24.7354 55.118 23.3024
vertex 24.7354 29.718 23.3024
vertex 25.0556 55.118 23.7353
endloop
endfacet
facet normal -0.803996 0 0.594635
outer loop
vertex 25.0556 55.118 23.7353
vertex 24.7354 29.718 23.3024
vertex 25.0556 29.718 23.7353
endloop
endfacet
facet normal -0.892928 0 0.450199
outer loop
vertex 25.0556 55.118 23.7353
vertex 25.0556 29.718 23.7353
vertex 25.298 55.118 24.2162
endloop
endfacet
facet normal -0.892928 0 0.450199
outer loop
vertex 25.298 55.118 24.2162
vertex 25.0556 29.718 23.7353
vertex 25.298 29.718 24.2162
endloop
endfacet
facet normal -0.956165 0 0.292827
outer loop
vertex 25.298 55.118 24.2162
vertex 25.298 29.718 24.2162
vertex 25.4557 55.118 24.7311
endloop
endfacet
facet normal -0.956165 0 0.292827
outer loop
vertex 25.4557 55.118 24.7311
vertex 25.298 29.718 24.2162
vertex 25.4557 29.718 24.7311
endloop
endfacet
facet normal -0.991901 0 0.127015
outer loop
vertex 25.4557 55.118 24.7311
vertex 25.4557 29.718 24.7311
vertex 25.5241 55.118 25.2652
endloop
endfacet
facet normal -0.991901 0 0.127015
outer loop
vertex 25.5241 55.118 25.2652
vertex 25.4557 29.718 24.7311
vertex 25.5241 29.718 25.2652
endloop
endfacet
facet normal -0.999099 0 -0.0424381
outer loop
vertex 25.5241 55.118 25.2652
vertex 25.5241 29.718 25.2652
vertex 25.5013 55.118 25.8033
endloop
endfacet
facet normal -0.999099 0 -0.0424381
outer loop
vertex 25.5013 55.118 25.8033
vertex 25.5241 29.718 25.2652
vertex 25.5013 29.718 25.8033
endloop
endfacet
facet normal -0.977555 0 -0.210681
outer loop
vertex 25.5013 55.118 25.8033
vertex 25.5013 29.718 25.8033
vertex 25.3878 55.118 26.3297
endloop
endfacet
facet normal -0.977555 0 -0.210681
outer loop
vertex 25.3878 55.118 26.3297
vertex 25.5013 29.718 25.8033
vertex 25.3878 29.718 26.3297
endloop
endfacet
facet normal -0.927888 0 -0.372858
outer loop
vertex 25.3878 55.118 26.3297
vertex 25.3878 29.718 26.3297
vertex 25.187 55.118 26.8294
endloop
endfacet
facet normal -0.927888 0 -0.372858
outer loop
vertex 25.187 55.118 26.8294
vertex 25.3878 29.718 26.3297
vertex 25.187 29.718 26.8294
endloop
endfacet
facet normal -0.851528 0 -0.524309
outer loop
vertex 25.187 55.118 26.8294
vertex 25.187 29.718 26.8294
vertex 24.9047 55.118 27.288
endloop
endfacet
facet normal -0.851528 0 -0.524309
outer loop
vertex 24.9047 55.118 27.288
vertex 25.187 29.718 26.8294
vertex 24.9047 29.718 27.288
endloop
endfacet
facet normal -0.750673 0 -0.660674
outer loop
vertex 24.9047 55.118 27.288
vertex 24.9047 29.718 27.288
vertex 24.5489 55.118 27.6922
endloop
endfacet
facet normal -0.750673 0 -0.660674
outer loop
vertex 24.5489 55.118 27.6922
vertex 24.9047 29.718 27.288
vertex 24.5489 29.718 27.6922
endloop
endfacet
facet normal -0.62822 0 -0.778036
outer loop
vertex 24.5489 55.118 27.6922
vertex 24.5489 29.718 27.6922
vertex 24.1299 55.118 28.0305
endloop
endfacet
facet normal -0.62822 0 -0.778036
outer loop
vertex 24.1299 55.118 28.0305
vertex 24.5489 29.718 27.6922
vertex 24.1299 29.718 28.0305
endloop
endfacet
facet normal -0.4877 0 -0.873011
outer loop
vertex 24.1299 55.118 28.0305
vertex 24.1299 29.718 28.0305
vertex 23.6598 55.118 28.2932
endloop
endfacet
facet normal -0.4877 0 -0.873011
outer loop
vertex 23.6598 55.118 28.2932
vertex 24.1299 29.718 28.0305
vertex 23.6598 29.718 28.2932
endloop
endfacet
facet normal -0.333132 0 -0.94288
outer loop
vertex 23.6598 55.118 28.2932
vertex 23.6598 29.718 28.2932
vertex 23.152 55.118 28.4725
endloop
endfacet
facet normal -0.333132 0 -0.94288
outer loop
vertex 23.152 55.118 28.4725
vertex 23.6598 29.718 28.2932
vertex 23.152 29.718 28.4725
endloop
endfacet
facet normal -0.169006 0 -0.985615
outer loop
vertex 23.152 55.118 28.4725
vertex 23.152 29.718 28.4725
vertex 22.6213 55.118 28.5636
endloop
endfacet
facet normal -0.169006 0 -0.985615
outer loop
vertex 22.6213 55.118 28.5636
vertex 23.152 29.718 28.4725
vertex 22.6213 29.718 28.5636
endloop
endfacet
facet normal 0 0 -1
outer loop
vertex 22.6213 55.118 28.5636
vertex 22.6213 29.718 28.5636
vertex 22.0827 55.118 28.5636
endloop
endfacet
facet normal 0 0 -1
outer loop
vertex 22.0827 55.118 28.5636
vertex 22.6213 29.718 28.5636
vertex 22.0827 29.718 28.5636
endloop
endfacet
facet normal 0.169006 0 -0.985615
outer loop
vertex 22.0827 55.118 28.5636
vertex 22.0827 29.718 28.5636
vertex 21.552 55.118 28.4725
endloop
endfacet
facet normal 0.169006 0 -0.985615
outer loop
vertex 21.552 55.118 28.4725
vertex 22.0827 29.718 28.5636
vertex 21.552 29.718 28.4725
endloop
endfacet
facet normal 0.333134 0 -0.94288
outer loop
vertex 21.552 55.118 28.4725
vertex 21.552 29.718 28.4725
vertex 21.0442 55.118 28.2932
endloop
endfacet
facet normal 0.333134 0 -0.94288
outer loop
vertex 21.0442 55.118 28.2932
vertex 21.552 29.718 28.4725
vertex 21.0442 29.718 28.2932
endloop
endfacet
facet normal 0.487697 0 -0.873013
outer loop
vertex 21.0442 55.118 28.2932
vertex 21.0442 29.718 28.2932
vertex 20.5741 55.118 28.0305
endloop
endfacet
facet normal 0.487697 0 -0.873013
outer loop
vertex 20.5741 55.118 28.0305
vertex 21.0442 29.718 28.2932
vertex 20.5741 29.718 28.0305
endloop
endfacet
facet normal 0.628221 0 -0.778035
outer loop
vertex 20.5741 55.118 28.0305
vertex 20.5741 29.718 28.0305
vertex 20.1551 55.118 27.6922
endloop
endfacet
facet normal 0.628221 0 -0.778035
outer loop
vertex 20.1551 55.118 27.6922
vertex 20.5741 29.718 28.0305
vertex 20.1551 29.718 27.6922
endloop
endfacet
facet normal 0.750671 0 -0.660676
outer loop
vertex 20.1551 55.118 27.6922
vertex 20.1551 29.718 27.6922
vertex 19.7993 55.118 27.288
endloop
endfacet
facet normal 0.750671 0 -0.660676
outer loop
vertex 19.7993 55.118 27.288
vertex 20.1551 29.718 27.6922
vertex 19.7993 29.718 27.288
endloop
endfacet
facet normal 0.851531 0 -0.524304
outer loop
vertex 19.7993 55.118 27.288
vertex 19.7993 29.718 27.288
vertex 19.517 55.118 26.8294
endloop
endfacet
facet normal 0.851531 0 -0.524304
outer loop
vertex 19.517 55.118 26.8294
vertex 19.7993 29.718 27.288
vertex 19.517 29.718 26.8294
endloop
endfacet
facet normal 0.927887 0 -0.372861
outer loop
vertex 19.517 55.118 26.8294
vertex 19.517 29.718 26.8294
vertex 19.3162 55.118 26.3297
endloop
endfacet
facet normal 0.927887 0 -0.372861
outer loop
vertex 19.3162 55.118 26.3297
vertex 19.517 29.718 26.8294
vertex 19.3162 29.718 26.3297
endloop
endfacet
facet normal 0.977556 0 -0.210677
outer loop
vertex 19.3162 55.118 26.3297
vertex 19.3162 29.718 26.3297
vertex 19.2027 55.118 25.8033
endloop
endfacet
facet normal 0.977556 0 -0.210677
outer loop
vertex 19.2027 55.118 25.8033
vertex 19.3162 29.718 26.3297
vertex 19.2027 29.718 25.8033
endloop
endfacet
facet normal 0.999099 0 -0.0424417
outer loop
vertex 19.2027 55.118 25.8033
vertex 19.2027 29.718 25.8033
vertex 19.1799 55.118 25.2652
endloop
endfacet
facet normal 0.999099 0 -0.0424417
outer loop
vertex 19.1799 55.118 25.2652
vertex 19.2027 29.718 25.8033
vertex 19.1799 29.718 25.2652
endloop
endfacet
facet normal 0.9919 0 0.127018
outer loop
vertex 19.1799 55.118 25.2652
vertex 19.1799 29.718 25.2652
vertex 19.2483 55.118 24.7311
endloop
endfacet
facet normal 0.9919 0 0.127018
outer loop
vertex 19.2483 55.118 24.7311
vertex 19.1799 29.718 25.2652
vertex 19.2483 29.718 24.7311
endloop
endfacet
facet normal 0.956165 0 0.292827
outer loop
vertex 19.2483 55.118 24.7311
vertex 19.2483 29.718 24.7311
vertex 19.406 55.118 24.2162
endloop
endfacet
facet normal 0.956165 0 0.292827
outer loop
vertex 19.406 55.118 24.2162
vertex 19.2483 29.718 24.7311
vertex 19.406 29.718 24.2162
endloop
endfacet
facet normal 0.892928 0 0.450199
outer loop
vertex 19.406 55.118 24.2162
vertex 19.406 29.718 24.2162
vertex 19.6484 55.118 23.7353
endloop
endfacet
facet normal 0.892928 0 0.450199
outer loop
vertex 19.6484 55.118 23.7353
vertex 19.406 29.718 24.2162
vertex 19.6484 29.718 23.7353
endloop
endfacet
facet normal 0.803998 0 0.594632
outer loop
vertex 19.6484 55.118 23.7353
vertex 19.6484 29.718 23.7353
vertex 19.9686 55.118 23.3024
endloop
endfacet
facet normal 0.803998 0 0.594632
outer loop
vertex 19.9686 55.118 23.3024
vertex 19.6484 29.718 23.7353
vertex 19.9686 29.718 23.3024
endloop
endfacet
facet normal 0.691937 0 0.721958
outer loop
vertex 19.9686 55.118 23.3024
vertex 19.9686 29.718 23.3024
vertex 20.3574 55.118 22.9297
endloop
endfacet
facet normal 0.691937 0 0.721958
outer loop
vertex 20.3574 55.118 22.9297
vertex 19.9686 29.718 23.3024
vertex 20.3574 29.718 22.9297
endloop
endfacet
facet normal 0.559972 0 0.828512
outer loop
vertex 20.3574 55.118 22.9297
vertex 20.3574 29.718 22.9297
vertex 20.8036 55.118 22.6282
endloop
endfacet
facet normal 0.559972 0 0.828512
outer loop
vertex 20.8036 55.118 22.6282
vertex 20.3574 29.718 22.9297
vertex 20.8036 29.718 22.6282
endloop
endfacet
facet normal 0.411907 0 0.911226
outer loop
vertex 20.8036 55.118 22.6282
vertex 20.8036 29.718 22.6282
vertex 21.2943 55.118 22.4064
endloop
endfacet
facet normal 0.411907 0 0.911226
outer loop
vertex 21.2943 55.118 22.4064
vertex 20.8036 29.718 22.6282
vertex 21.2943 29.718 22.4064
endloop
endfacet
facet normal 0.251971 0 0.967735
outer loop
vertex 21.2943 55.118 22.4064
vertex 21.2943 29.718 22.4064
vertex 21.8154 55.118 22.2707
endloop
endfacet
facet normal 0.251971 0 0.967735
outer loop
vertex 21.8154 55.118 22.2707
vertex 21.2943 29.718 22.4064
vertex 21.8154 29.718 22.2707
endloop
endfacet
facet normal 0.0848093 0 0.996397
outer loop
vertex 21.8154 55.118 22.2707
vertex 21.8154 29.718 22.2707
vertex 22.352 55.118 22.225
endloop
endfacet
facet normal 0.0848093 0 0.996397
outer loop
vertex 22.352 55.118 22.225
vertex 21.8154 29.718 22.2707
vertex 22.352 29.718 22.225
endloop
endfacet
facet normal -0.0848096 0 0.996397
outer loop
vertex 22.352 55.118 22.225
vertex 22.352 29.718 22.225
vertex 22.8886 55.118 22.2707
endloop
endfacet
facet normal -0.0848096 0 0.996397
outer loop
vertex 22.8886 55.118 22.2707
vertex 22.352 29.718 22.225
vertex 22.8886 29.718 22.2707
endloop
endfacet
facet normal -0.251954 0 0.967739
outer loop
vertex 22.8886 55.118 149.271
vertex 22.8886 29.718 149.271
vertex 23.4097 55.118 149.406
endloop
endfacet
facet normal -0.251954 0 0.967739
outer loop
vertex 23.4097 55.118 149.406
vertex 22.8886 29.718 149.271
vertex 23.4097 29.718 149.406
endloop
endfacet
facet normal -0.411905 0 0.911227
outer loop
vertex 23.4097 55.118 149.406
vertex 23.4097 29.718 149.406
vertex 23.9004 55.118 149.628
endloop
endfacet
facet normal -0.411905 0 0.911227
outer loop
vertex 23.9004 55.118 149.628
vertex 23.4097 29.718 149.406
vertex 23.9004 29.718 149.628
endloop
endfacet
facet normal -0.559977 0 0.828508
outer loop
vertex 23.9004 55.118 149.628
vertex 23.9004 29.718 149.628
vertex 24.3466 55.118 149.93
endloop
endfacet
facet normal -0.559977 0 0.828508
outer loop
vertex 24.3466 55.118 149.93
vertex 23.9004 29.718 149.628
vertex 24.3466 29.718 149.93
endloop
endfacet
facet normal -0.691939 0 0.721956
outer loop
vertex 24.3466 55.118 149.93
vertex 24.3466 29.718 149.93
vertex 24.7354 55.118 150.302
endloop
endfacet
facet normal -0.691939 0 0.721956
outer loop
vertex 24.7354 55.118 150.302
vertex 24.3466 29.718 149.93
vertex 24.7354 29.718 150.302
endloop
endfacet
facet normal -0.803996 0 0.594635
outer loop
vertex 24.7354 55.118 150.302
vertex 24.7354 29.718 150.302
vertex 25.0556 55.118 150.735
endloop
endfacet
facet normal -0.803996 0 0.594635
outer loop
vertex 25.0556 55.118 150.735
vertex 24.7354 29.718 150.302
vertex 25.0556 29.718 150.735
endloop
endfacet
facet normal -0.89293 0 0.450195
outer loop
vertex 25.0556 55.118 150.735
vertex 25.0556 29.718 150.735
vertex 25.298 55.118 151.216
endloop
endfacet
facet normal -0.89293 0 0.450195
outer loop
vertex 25.298 55.118 151.216
vertex 25.0556 29.718 150.735
vertex 25.298 29.718 151.216
endloop
endfacet
facet normal -0.956167 0 0.29282
outer loop
vertex 25.298 55.118 151.216
vertex 25.298 29.718 151.216
vertex 25.4557 55.118 151.731
endloop
endfacet
facet normal -0.956167 0 0.29282
outer loop
vertex 25.4557 55.118 151.731
vertex 25.298 29.718 151.216
vertex 25.4557 29.718 151.731
endloop
endfacet
facet normal -0.9919 0 0.127019
outer loop
vertex 25.4557 55.118 151.731
vertex 25.4557 29.718 151.731
vertex 25.5241 55.118 152.265
endloop
endfacet
facet normal -0.9919 0 0.127019
outer loop
vertex 25.5241 55.118 152.265
vertex 25.4557 29.718 151.731
vertex 25.5241 29.718 152.265
endloop
endfacet
facet normal -0.999099 0 -0.042439
outer loop
vertex 25.5241 55.118 152.265
vertex 25.5241 29.718 152.265
vertex 25.5013 55.118 152.803
endloop
endfacet
facet normal -0.999099 0 -0.042439
outer loop
vertex 25.5013 55.118 152.803
vertex 25.5241 29.718 152.265
vertex 25.5013 29.718 152.803
endloop
endfacet
facet normal -0.977556 0 -0.210675
outer loop
vertex 25.5013 55.118 152.803
vertex 25.5013 29.718 152.803
vertex 25.3878 55.118 153.33
endloop
endfacet
facet normal -0.977556 0 -0.210675
outer loop
vertex 25.3878 55.118 153.33
vertex 25.5013 29.718 152.803
vertex 25.3878 29.718 153.33
endloop
endfacet
facet normal -0.927887 0 -0.372861
outer loop
vertex 25.3878 55.118 153.33
vertex 25.3878 29.718 153.33
vertex 25.187 55.118 153.829
endloop
endfacet
facet normal -0.927887 0 -0.372861
outer loop
vertex 25.187 55.118 153.829
vertex 25.3878 29.718 153.33
vertex 25.187 29.718 153.829
endloop
endfacet
facet normal -0.851532 0 -0.524302
outer loop
vertex 25.187 55.118 153.829
vertex 25.187 29.718 153.829
vertex 24.9047 55.118 154.288
endloop
endfacet
facet normal -0.851532 0 -0.524302
outer loop
vertex 24.9047 55.118 154.288
vertex 25.187 29.718 153.829
vertex 24.9047 29.718 154.288
endloop
endfacet
facet normal -0.750662 0 -0.660686
outer loop
vertex 24.9047 55.118 154.288
vertex 24.9047 29.718 154.288
vertex 24.5489 55.118 154.692
endloop
endfacet
facet normal -0.750662 0 -0.660686
outer loop
vertex 24.5489 55.118 154.692
vertex 24.9047 29.718 154.288
vertex 24.5489 29.718 154.692
endloop
endfacet
facet normal -0.62823 0 -0.778027
outer loop
vertex 24.5489 55.118 154.692
vertex 24.5489 29.718 154.692
vertex 24.1299 55.118 155.031
endloop
endfacet
facet normal -0.62823 0 -0.778027
outer loop
vertex 24.1299 55.118 155.031
vertex 24.5489 29.718 154.692
vertex 24.1299 29.718 155.031
endloop
endfacet
facet normal -0.4877 0 -0.873011
outer loop
vertex 24.1299 55.118 155.031
vertex 24.1299 29.718 155.031
vertex 23.6598 55.118 155.293
endloop
endfacet
facet normal -0.4877 0 -0.873011
outer loop
vertex 23.6598 55.118 155.293
vertex 24.1299 29.718 155.031
vertex 23.6598 29.718 155.293
endloop
endfacet
facet normal -0.333132 0 -0.94288
outer loop
vertex 23.6598 55.118 155.293
vertex 23.6598 29.718 155.293
vertex 23.152 55.118 155.473
endloop
endfacet
facet normal -0.333132 0 -0.94288
outer loop
vertex 23.152 55.118 155.473
vertex 23.6598 29.718 155.293
vertex 23.152 29.718 155.473
endloop
endfacet
facet normal -0.169017 0 -0.985613
outer loop
vertex 23.152 55.118 155.473
vertex 23.152 29.718 155.473
vertex 22.6213 55.118 155.564
endloop
endfacet
facet normal -0.169017 0 -0.985613
outer loop
vertex 22.6213 55.118 155.564
vertex 23.152 29.718 155.473
vertex 22.6213 29.718 155.564
endloop
endfacet
facet normal 0 0 -1
outer loop
vertex 22.6213 55.118 155.564
vertex 22.6213 29.718 155.564
vertex 22.0827 55.118 155.564
endloop
endfacet
facet normal 0 0 -1
outer loop
vertex 22.0827 55.118 155.564
vertex 22.6213 29.718 155.564
vertex 22.0827 29.718 155.564
endloop
endfacet
facet normal 0.169016 0 -0.985613
outer loop
vertex 22.0827 55.118 155.564
vertex 22.0827 29.718 155.564
vertex 21.552 55.118 155.473
endloop
endfacet
facet normal 0.169016 0 -0.985613
outer loop
vertex 21.552 55.118 155.473
vertex 22.0827 29.718 155.564
vertex 21.552 29.718 155.473
endloop
endfacet
facet normal 0.333134 0 -0.94288
outer loop
vertex 21.552 55.118 155.473
vertex 21.552 29.718 155.473
vertex 21.0442 55.118 155.293
endloop
endfacet
facet normal 0.333134 0 -0.94288
outer loop
vertex 21.0442 55.118 155.293
vertex 21.552 29.718 155.473
vertex 21.0442 29.718 155.293
endloop
endfacet
facet normal 0.487697 0 -0.873013
outer loop
vertex 21.0442 55.118 155.293
vertex 21.0442 29.718 155.293
vertex 20.5741 55.118 155.031
endloop
endfacet
facet normal 0.487697 0 -0.873013
outer loop
vertex 20.5741 55.118 155.031
vertex 21.0442 29.718 155.293
vertex 20.5741 29.718 155.031
endloop
endfacet
facet normal 0.628232 0 -0.778026
outer loop
vertex 20.5741 55.118 155.031
vertex 20.5741 29.718 155.031
vertex 20.1551 55.118 154.692
endloop
endfacet
facet normal 0.628232 0 -0.778026
outer loop
vertex 20.1551 55.118 154.692
vertex 20.5741 29.718 155.031
vertex 20.1551 29.718 154.692
endloop
endfacet
facet normal 0.75066 0 -0.660688
outer loop
vertex 20.1551 55.118 154.692
vertex 20.1551 29.718 154.692
vertex 19.7993 55.118 154.288
endloop
endfacet
facet normal 0.75066 0 -0.660688
outer loop
vertex 19.7993 55.118 154.288
vertex 20.1551 29.718 154.692
vertex 19.7993 29.718 154.288
endloop
endfacet
facet normal 0.851535 0 -0.524297
outer loop
vertex 19.7993 55.118 154.288
vertex 19.7993 29.718 154.288
vertex 19.517 55.118 153.829
endloop
endfacet
facet normal 0.851535 0 -0.524297
outer loop
vertex 19.517 55.118 153.829
vertex 19.7993 29.718 154.288
vertex 19.517 29.718 153.829
endloop
endfacet
facet normal 0.927886 0 -0.372864
outer loop
vertex 19.517 55.118 153.829
vertex 19.517 29.718 153.829
vertex 19.3162 55.118 153.33
endloop
endfacet
facet normal 0.927886 0 -0.372864
outer loop
vertex 19.3162 55.118 153.33
vertex 19.517 29.718 153.829
vertex 19.3162 29.718 153.33
endloop
endfacet
facet normal 0.977557 0 -0.210672
outer loop
vertex 19.3162 55.118 153.33
vertex 19.3162 29.718 153.33
vertex 19.2027 55.118 152.803
endloop
endfacet
facet normal 0.977557 0 -0.210672
outer loop
vertex 19.2027 55.118 152.803
vertex 19.3162 29.718 153.33
vertex 19.2027 29.718 152.803
endloop
endfacet
facet normal 0.999099 0 -0.0424426
outer loop
vertex 19.2027 55.118 152.803
vertex 19.2027 29.718 152.803
vertex 19.1799 55.118 152.265
endloop
endfacet
facet normal 0.999099 0 -0.0424426
outer loop
vertex 19.1799 55.118 152.265
vertex 19.2027 29.718 152.803
vertex 19.1799 29.718 152.265
endloop
endfacet
facet normal 0.9919 0 0.127023
outer loop
vertex 19.1799 55.118 152.265
vertex 19.1799 29.718 152.265
vertex 19.2483 55.118 151.731
endloop
endfacet
facet normal 0.9919 0 0.127023
outer loop
vertex 19.2483 55.118 151.731
vertex 19.1799 29.718 152.265
vertex 19.2483 29.718 151.731
endloop
endfacet
facet normal 0.956167 0 0.29282
outer loop
vertex 19.2483 55.118 151.731
vertex 19.2483 29.718 151.731
vertex 19.406 55.118 151.216
endloop
endfacet
facet normal 0.956167 0 0.29282
outer loop
vertex 19.406 55.118 151.216
vertex 19.2483 29.718 151.731
vertex 19.406 29.718 151.216
endloop
endfacet
facet normal 0.89293 0 0.450195
outer loop
vertex 19.406 55.118 151.216
vertex 19.406 29.718 151.216
vertex 19.6484 55.118 150.735
endloop
endfacet
facet normal 0.89293 0 0.450195
outer loop
vertex 19.6484 55.118 150.735
vertex 19.406 29.718 151.216
vertex 19.6484 29.718 150.735
endloop
endfacet
facet normal 0.803998 0 0.594632
outer loop
vertex 19.6484 55.118 150.735
vertex 19.6484 29.718 150.735
vertex 19.9686 55.118 150.302
endloop
endfacet
facet normal 0.803998 0 0.594632
outer loop
vertex 19.9686 55.118 150.302
vertex 19.6484 29.718 150.735
vertex 19.9686 29.718 150.302
endloop
endfacet
facet normal 0.691937 0 0.721958
outer loop
vertex 19.9686 55.118 150.302
vertex 19.9686 29.718 150.302
vertex 20.3574 55.118 149.93
endloop
endfacet
facet normal 0.691937 0 0.721958
outer loop
vertex 20.3574 55.118 149.93
vertex 19.9686 29.718 150.302
vertex 20.3574 29.718 149.93
endloop
endfacet
facet normal 0.559979 0 0.828507
outer loop
vertex 20.3574 55.118 149.93
vertex 20.3574 29.718 149.93
vertex 20.8036 55.118 149.628
endloop
endfacet
facet normal 0.559979 0 0.828507
outer loop
vertex 20.8036 55.118 149.628
vertex 20.3574 29.718 149.93
vertex 20.8036 29.718 149.628
endloop
endfacet
facet normal 0.411904 0 0.911227
outer loop
vertex 20.8036 55.118 149.628
vertex 20.8036 29.718 149.628
vertex 21.2943 55.118 149.406
endloop
endfacet
facet normal 0.411904 0 0.911227
outer loop
vertex 21.2943 55.118 149.406
vertex 20.8036 29.718 149.628
vertex 21.2943 29.718 149.406
endloop
endfacet
facet normal 0.251955 0 0.967739
outer loop
vertex 21.2943 55.118 149.406
vertex 21.2943 29.718 149.406
vertex 21.8154 55.118 149.271
endloop
endfacet
facet normal 0.251955 0 0.967739
outer loop
vertex 21.8154 55.118 149.271
vertex 21.2943 29.718 149.406
vertex 21.8154 29.718 149.271
endloop
endfacet
facet normal 0.0848339 0 0.996395
outer loop
vertex 21.8154 55.118 149.271
vertex 21.8154 29.718 149.271
vertex 22.352 55.118 149.225
endloop
endfacet
facet normal 0.0848339 0 0.996395
outer loop
vertex 22.352 55.118 149.225
vertex 21.8154 29.718 149.271
vertex 22.352 29.718 149.225
endloop
endfacet
facet normal -0.0848342 0 0.996395
outer loop
vertex 22.352 55.118 149.225
vertex 22.352 29.718 149.225
vertex 22.8886 55.118 149.271
endloop
endfacet
facet normal -0.0848342 0 0.996395
outer loop
vertex 22.8886 55.118 149.271
vertex 22.352 29.718 149.225
vertex 22.8886 29.718 149.271
endloop
endfacet
facet normal 0 1 0
outer loop
vertex 63.5 50.546 0
vertex 63.5 50.546 177.8
vertex 76.2 50.546 0
endloop
endfacet
facet normal 0 1 0
outer loop
vertex 76.2 50.546 0
vertex 63.5 50.546 177.8
vertex 76.2 50.546 177.8
endloop
endfacet
facet normal 1 0 0
outer loop
vertex 63.5 55.118 0
vertex 63.5 55.118 177.8
vertex 63.5 50.546 0
endloop
endfacet
facet normal 1 0 0
outer loop
vertex 63.5 50.546 0
vertex 63.5 55.118 177.8
vertex 63.5 50.546 177.8
endloop
endfacet
facet normal 0 1 0
outer loop
vertex 55.8799 55.118 155.031
vertex 55.4098 55.118 155.293
vertex 63.5 55.118 177.8
endloop
endfacet
facet normal 0 1 0
outer loop
vertex 24.9047 55.118 154.288
vertex 24.5489 55.118 154.692
vertex 63.5 55.118 177.8
endloop
endfacet
facet normal 0 1 0
outer loop
vertex 55.4098 55.118 155.293
vertex 54.902 55.118 155.473
vertex 63.5 55.118 177.8
endloop
endfacet
facet normal 0 1 0
outer loop
vertex 63.5 55.118 177.8
vertex 54.902 55.118 155.473
vertex 54.3713 55.118 155.564
endloop
endfacet
facet normal 0 1 0
outer loop
vertex 63.5 55.118 177.8
vertex 54.3713 55.118 155.564
vertex 53.8327 55.118 155.564
endloop
endfacet
facet normal 0 1 0
outer loop
vertex 24.5489 55.118 154.692
vertex 24.1299 55.118 155.031
vertex 63.5 55.118 177.8
endloop
endfacet
facet normal 0 1 0
outer loop
vertex 63.5 55.118 177.8
vertex 24.1299 55.118 155.031
vertex 23.6598 55.118 155.293
endloop
endfacet
facet normal 0 1 0
outer loop
vertex 63.5 55.118 177.8
vertex 23.6598 55.118 155.293
vertex 12.7 55.118 177.8
endloop
endfacet
facet normal 0 1 0
outer loop
vertex 12.7 55.118 177.8
vertex 23.6598 55.118 155.293
vertex 23.152 55.118 155.473
endloop
endfacet
facet normal 0 1 0
outer loop
vertex 23.152 55.118 155.473
vertex 22.6213 55.118 155.564
vertex 12.7 55.118 177.8
endloop
endfacet
facet normal 0 1 0
outer loop
vertex 12.7 55.118 177.8
vertex 22.6213 55.118 155.564
vertex 22.0827 55.118 155.564
endloop
endfacet
facet normal 0 1 0
outer loop
vertex 12.7 55.118 177.8
vertex 22.0827 55.118 155.564
vertex 21.552 55.118 155.473
endloop
endfacet
facet normal 0 1 0
outer loop
vertex 21.552 55.118 155.473
vertex 21.0442 55.118 155.293
vertex 12.7 55.118 177.8
endloop
endfacet
facet normal 0 1 0
outer loop
vertex 12.7 55.118 177.8
vertex 21.0442 55.118 155.293
vertex 20.5741 55.118 155.031
endloop
endfacet
facet normal 0 1 0
outer loop
vertex 12.7 55.118 177.8
vertex 20.5741 55.118 155.031
vertex 20.1551 55.118 154.692
endloop
endfacet
facet normal 0 1 0
outer loop
vertex 52.3241 55.118 155.031
vertex 51.9051 55.118 154.692
vertex 25.5241 55.118 152.265
endloop
endfacet
facet normal 0 1 0
outer loop
vertex 53.8327 55.118 155.564
vertex 53.302 55.118 155.473
vertex 25.5241 55.118 152.265
endloop
endfacet
facet normal 0 1 0
outer loop
vertex 25.5241 55.118 152.265
vertex 53.302 55.118 155.473
vertex 52.7942 55.118 155.293
endloop
endfacet
facet normal 0 1 0
outer loop
vertex 25.5241 55.118 152.265
vertex 52.7942 55.118 155.293
vertex 52.3241 55.118 155.031
endloop
endfacet
facet normal 0 1 0
outer loop
vertex 25.5241 55.118 152.265
vertex 25.5013 55.118 152.803
vertex 53.8327 55.118 155.564
endloop
endfacet
facet normal 0 1 0
outer loop
vertex 53.8327 55.118 155.564
vertex 25.5013 55.118 152.803
vertex 25.3878 55.118 153.33
endloop
endfacet
facet normal 0 1 0
outer loop
vertex 53.8327 55.118 155.564
vertex 25.3878 55.118 153.33
vertex 63.5 55.118 177.8
endloop
endfacet
facet normal 0 1 0
outer loop
vertex 63.5 55.118 177.8
vertex 25.3878 55.118 153.33
vertex 25.187 55.118 153.829
endloop
endfacet
facet normal 0 1 0
outer loop
vertex 63.5 55.118 177.8
vertex 25.187 55.118 153.829
vertex 24.9047 55.118 154.288
endloop
endfacet
facet normal 0 1 0
outer loop
vertex 25.0556 55.118 150.735
vertex 22.6213 55.118 28.5636
vertex 24.7354 55.118 150.302
endloop
endfacet
facet normal 0 1 0
outer loop
vertex 24.7354 55.118 150.302
vertex 22.6213 55.118 28.5636
vertex 24.3466 55.118 149.93
endloop
endfacet
facet normal 0 1 0
outer loop
vertex 25.0556 55.118 150.735
vertex 25.298 55.118 151.216
vertex 22.6213 55.118 28.5636
endloop
endfacet
facet normal 0 1 0
outer loop
vertex 22.6213 55.118 28.5636
vertex 25.298 55.118 151.216
vertex 25.4557 55.118 151.731
endloop
endfacet
facet normal 0 1 0
outer loop
vertex 22.6213 55.118 28.5636
vertex 25.4557 55.118 151.731
vertex 25.5241 55.118 152.265
endloop
endfacet
facet normal 0 1 0
outer loop
vertex 20.1551 55.118 154.692
vertex 19.7993 55.118 154.288
vertex 12.7 55.118 177.8
endloop
endfacet
facet normal 0 1 0
outer loop
vertex 12.7 55.118 177.8
vertex 19.7993 55.118 154.288
vertex 19.517 55.118 153.829
endloop
endfacet
facet normal 0 1 0
outer loop
vertex 12.7 55.118 177.8
vertex 19.517 55.118 153.829
vertex 19.3162 55.118 153.33
endloop
endfacet
facet normal 0 1 0
outer loop
vertex 19.3162 55.118 153.33
vertex 19.2027 55.118 152.803
vertex 12.7 55.118 177.8
endloop
endfacet
facet normal 0 1 0
outer loop
vertex 12.7 55.118 177.8
vertex 19.2027 55.118 152.803
vertex 19.1799 55.118 152.265
endloop
endfacet
facet normal 0 1 0
outer loop
vertex 12.7 55.118 177.8
vertex 19.1799 55.118 152.265
vertex 12.7 55.118 0
endloop
endfacet
facet normal 0 1 0
outer loop
vertex 12.7 55.118 0
vertex 19.1799 55.118 152.265
vertex 19.2483 55.118 151.731
endloop
endfacet
facet normal 0 1 0
outer loop
vertex 12.7 55.118 0
vertex 19.2483 55.118 151.731
vertex 19.406 55.118 151.216
endloop
endfacet
facet normal 0 1 0
outer loop
vertex 19.406 55.118 151.216
vertex 19.6484 55.118 150.735
vertex 12.7 55.118 0
endloop
endfacet
facet normal 0 1 0
outer loop
vertex 12.7 55.118 0
vertex 19.6484 55.118 150.735
vertex 19.9686 55.118 150.302
endloop
endfacet
facet normal 0 1 0
outer loop
vertex 12.7 55.118 0
vertex 19.9686 55.118 150.302
vertex 20.3574 55.118 149.93
endloop
endfacet
facet normal 0 1 0
outer loop
vertex 54.6386 55.118 149.271
vertex 55.1597 55.118 149.406
vertex 54.3713 55.118 28.5636
endloop
endfacet
facet normal 0 1 0
outer loop
vertex 54.3713 55.118 28.5636
vertex 55.1597 55.118 149.406
vertex 55.6504 55.118 149.628
endloop
endfacet
facet normal 0 1 0
outer loop
vertex 54.3713 55.118 28.5636
vertex 55.6504 55.118 149.628
vertex 56.0966 55.118 149.93
endloop
endfacet
facet normal 0 1 0
outer loop
vertex 20.3574 55.118 149.93
vertex 20.8036 55.118 149.628
vertex 12.7 55.118 0
endloop
endfacet
facet normal 0 1 0
outer loop
vertex 12.7 55.118 0
vertex 20.8036 55.118 149.628
vertex 21.2943 55.118 149.406
endloop
endfacet
facet normal 0 1 0
outer loop
vertex 12.7 55.118 0
vertex 21.2943 55.118 149.406
vertex 21.8154 55.118 149.271
endloop
endfacet
facet normal 0 1 0
outer loop
vertex 56.0966 55.118 149.93
vertex 56.4854 55.118 150.302
vertex 54.3713 55.118 28.5636
endloop
endfacet
facet normal 0 1 0
outer loop
vertex 54.3713 55.118 28.5636
vertex 56.4854 55.118 150.302
vertex 56.8056 55.118 150.735
endloop
endfacet
facet normal 0 1 0
outer loop
vertex 54.3713 55.118 28.5636
vertex 56.8056 55.118 150.735
vertex 57.048 55.118 151.216
endloop
endfacet
facet normal 0 1 0
outer loop
vertex 63.5 55.118 177.8
vertex 57.2057 55.118 151.731
vertex 57.2741 55.118 152.265
endloop
endfacet
facet normal 0 1 0
outer loop
vertex 57.2741 55.118 152.265
vertex 57.2513 55.118 152.803
vertex 63.5 55.118 177.8
endloop
endfacet
facet normal 0 1 0
outer loop
vertex 63.5 55.118 177.8
vertex 57.2513 55.118 152.803
vertex 57.1378 55.118 153.33
endloop
endfacet
facet normal 0 1 0
outer loop
vertex 63.5 55.118 177.8
vertex 57.1378 55.118 153.33
vertex 56.937 55.118 153.829
endloop
endfacet
facet normal 0 1 0
outer loop
vertex 22.8886 55.118 149.271
vertex 23.4097 55.118 149.406
vertex 22.6213 55.118 28.5636
endloop
endfacet
facet normal 0 1 0
outer loop
vertex 22.6213 55.118 28.5636
vertex 23.4097 55.118 149.406
vertex 23.9004 55.118 149.628
endloop
endfacet
facet normal 0 1 0
outer loop
vertex 22.6213 55.118 28.5636
vertex 23.9004 55.118 149.628
vertex 24.3466 55.118 149.93
endloop
endfacet
facet normal 0 1 0
outer loop
vertex 56.937 55.118 153.829
vertex 56.6547 55.118 154.288
vertex 63.5 55.118 177.8
endloop
endfacet
facet normal 0 1 0
outer loop
vertex 63.5 55.118 177.8
vertex 56.6547 55.118 154.288
vertex 56.2989 55.118 154.692
endloop
endfacet
facet normal 0 1 0
outer loop
vertex 63.5 55.118 177.8
vertex 56.2989 55.118 154.692
vertex 55.8799 55.118 155.031
endloop
endfacet
facet normal 0 1 0
outer loop
vertex 55.6504 55.118 22.6282
vertex 56.0966 55.118 22.9297
vertex 63.5 55.118 0
endloop
endfacet
facet normal 0 1 0
outer loop
vertex 54.102 55.118 22.225
vertex 54.6386 55.118 22.2707
vertex 63.5 55.118 0
endloop
endfacet
facet normal 0 1 0
outer loop
vertex 63.5 55.118 0
vertex 54.6386 55.118 22.2707
vertex 55.1597 55.118 22.4064
endloop
endfacet
facet normal 0 1 0
outer loop
vertex 63.5 55.118 0
vertex 55.1597 55.118 22.4064
vertex 55.6504 55.118 22.6282
endloop
endfacet
facet normal 0 1 0
outer loop
vertex 51.0662 55.118 153.33
vertex 50.9527 55.118 152.803
vertex 25.5241 55.118 152.265
endloop
endfacet
facet normal 0 1 0
outer loop
vertex 25.5241 55.118 152.265
vertex 50.9527 55.118 152.803
vertex 50.9299 55.118 152.265
endloop
endfacet
facet normal 0 1 0
outer loop
vertex 25.5241 55.118 152.265
vertex 50.9299 55.118 152.265
vertex 50.9983 55.118 151.731
endloop
endfacet
facet normal 0 1 0
outer loop
vertex 52.5536 55.118 149.628
vertex 53.0443 55.118 149.406
vertex 25.5013 55.118 25.8033
endloop
endfacet
facet normal 0 1 0
outer loop
vertex 24.1299 55.118 28.0305
vertex 23.6598 55.118 28.2932
vertex 52.1074 55.118 149.93
endloop
endfacet
facet normal 0 1 0
outer loop
vertex 52.1074 55.118 149.93
vertex 23.6598 55.118 28.2932
vertex 23.152 55.118 28.4725
endloop
endfacet
facet normal 0 1 0
outer loop
vertex 52.1074 55.118 149.93
vertex 23.152 55.118 28.4725
vertex 22.6213 55.118 28.5636
endloop
endfacet
facet normal 0 1 0
outer loop
vertex 21.2943 55.118 22.4064
vertex 12.7 55.118 0
vertex 20.8036 55.118 22.6282
endloop
endfacet
facet normal 0 1 0
outer loop
vertex 20.8036 55.118 22.6282
vertex 12.7 55.118 0
vertex 20.3574 55.118 22.9297
endloop
endfacet
facet normal 0 1 0
outer loop
vertex 12.7 55.118 0
vertex 53.0443 55.118 22.4064
vertex 63.5 55.118 0
endloop
endfacet
facet normal 0 1 0
outer loop
vertex 63.5 55.118 0
vertex 53.0443 55.118 22.4064
vertex 53.5654 55.118 22.2707
endloop
endfacet
facet normal 0 1 0
outer loop
vertex 63.5 55.118 0
vertex 53.5654 55.118 22.2707
vertex 54.102 55.118 22.225
endloop
endfacet
facet normal 0 1 0
outer loop
vertex 51.9051 55.118 154.692
vertex 51.5493 55.118 154.288
vertex 25.5241 55.118 152.265
endloop
endfacet
facet normal 0 1 0
outer loop
vertex 25.5241 55.118 152.265
vertex 51.5493 55.118 154.288
vertex 51.267 55.118 153.829
endloop
endfacet
facet normal 0 1 0
outer loop
vertex 25.5241 55.118 152.265
vertex 51.267 55.118 153.829
vertex 51.0662 55.118 153.33
endloop
endfacet
facet normal 0 1 0
outer loop
vertex 50.9983 55.118 151.731
vertex 51.156 55.118 151.216
vertex 25.5241 55.118 152.265
endloop
endfacet
facet normal 0 1 0
outer loop
vertex 25.5241 55.118 152.265
vertex 51.156 55.118 151.216
vertex 51.3984 55.118 150.735
endloop
endfacet
facet normal 0 1 0
outer loop
vertex 25.5241 55.118 152.265
vertex 51.3984 55.118 150.735
vertex 22.6213 55.118 28.5636
endloop
endfacet
facet normal 0 1 0
outer loop
vertex 22.6213 55.118 28.5636
vertex 51.3984 55.118 150.735
vertex 51.7186 55.118 150.302
endloop
endfacet
facet normal 0 1 0
outer loop
vertex 22.6213 55.118 28.5636
vertex 51.7186 55.118 150.302
vertex 52.1074 55.118 149.93
endloop
endfacet
facet normal 0 1 0
outer loop
vertex 53.5654 55.118 149.271
vertex 25.4557 55.118 24.7311
vertex 53.0443 55.118 149.406
endloop
endfacet
facet normal 0 1 0
outer loop
vertex 53.0443 55.118 149.406
vertex 25.4557 55.118 24.7311
vertex 25.5241 55.118 25.2652
endloop
endfacet
facet normal 0 1 0
outer loop
vertex 53.0443 55.118 149.406
vertex 25.5241 55.118 25.2652
vertex 25.5013 55.118 25.8033
endloop
endfacet
facet normal 0 1 0
outer loop
vertex 25.187 55.118 26.8294
vertex 24.9047 55.118 27.288
vertex 52.1074 55.118 149.93
endloop
endfacet
facet normal 0 1 0
outer loop
vertex 52.1074 55.118 149.93
vertex 24.9047 55.118 27.288
vertex 24.5489 55.118 27.6922
endloop
endfacet
facet normal 0 1 0
outer loop
vertex 52.1074 55.118 149.93
vertex 24.5489 55.118 27.6922
vertex 24.1299 55.118 28.0305
endloop
endfacet
facet normal 0 1 0
outer loop
vertex 52.5536 55.118 149.628
vertex 25.5013 55.118 25.8033
vertex 52.1074 55.118 149.93
endloop
endfacet
facet normal 0 1 0
outer loop
vertex 52.1074 55.118 149.93
vertex 25.5013 55.118 25.8033
vertex 25.3878 55.118 26.3297
endloop
endfacet
facet normal 0 1 0
outer loop
vertex 52.1074 55.118 149.93
vertex 25.3878 55.118 26.3297
vertex 25.187 55.118 26.8294
endloop
endfacet
facet normal 0 1 0
outer loop
vertex 21.2943 55.118 22.4064
vertex 21.8154 55.118 22.2707
vertex 12.7 55.118 0
endloop
endfacet
facet normal 0 1 0
outer loop
vertex 12.7 55.118 0
vertex 21.8154 55.118 22.2707
vertex 22.352 55.118 22.225
endloop
endfacet
facet normal 0 1 0
outer loop
vertex 12.7 55.118 0
vertex 22.352 55.118 22.225
vertex 22.8886 55.118 22.2707
endloop
endfacet
facet normal 0 1 0
outer loop
vertex 56.0966 55.118 22.9297
vertex 56.4854 55.118 23.3024
vertex 63.5 55.118 0
endloop
endfacet
facet normal 0 1 0
outer loop
vertex 63.5 55.118 0
vertex 56.4854 55.118 23.3024
vertex 56.8056 55.118 23.7353
endloop
endfacet
facet normal 0 1 0
outer loop
vertex 63.5 55.118 0
vertex 56.8056 55.118 23.7353
vertex 57.048 55.118 24.2162
endloop
endfacet
facet normal 0 1 0
outer loop
vertex 57.2513 55.118 25.8033
vertex 63.5 55.118 177.8
vertex 57.2741 55.118 25.2652
endloop
endfacet
facet normal 0 1 0
outer loop
vertex 57.2741 55.118 25.2652
vertex 63.5 55.118 177.8
vertex 63.5 55.118 0
endloop
endfacet
facet normal 0 1 0
outer loop
vertex 57.2741 55.118 25.2652
vertex 63.5 55.118 0
vertex 57.2057 55.118 24.7311
endloop
endfacet
facet normal 0 1 0
outer loop
vertex 57.2057 55.118 24.7311
vertex 63.5 55.118 0
vertex 57.048 55.118 24.2162
endloop
endfacet
facet normal 0 1 0
outer loop
vertex 57.2513 55.118 25.8033
vertex 57.1378 55.118 26.3297
vertex 63.5 55.118 177.8
endloop
endfacet
facet normal 0 1 0
outer loop
vertex 63.5 55.118 177.8
vertex 57.1378 55.118 26.3297
vertex 56.937 55.118 26.8294
endloop
endfacet
facet normal 0 1 0
outer loop
vertex 63.5 55.118 177.8
vertex 56.937 55.118 26.8294
vertex 56.6547 55.118 27.288
endloop
endfacet
facet normal 0 1 0
outer loop
vertex 56.6547 55.118 27.288
vertex 56.2989 55.118 27.6922
vertex 63.5 55.118 177.8
endloop
endfacet
facet normal 0 1 0
outer loop
vertex 63.5 55.118 177.8
vertex 56.2989 55.118 27.6922
vertex 55.8799 55.118 28.0305
endloop
endfacet
facet normal 0 1 0
outer loop
vertex 63.5 55.118 177.8
vertex 55.8799 55.118 28.0305
vertex 55.4098 55.118 28.2932
endloop
endfacet
facet normal 0 1 0
outer loop
vertex 57.048 55.118 151.216
vertex 57.2057 55.118 151.731
vertex 54.3713 55.118 28.5636
endloop
endfacet
facet normal 0 1 0
outer loop
vertex 54.3713 55.118 28.5636
vertex 57.2057 55.118 151.731
vertex 63.5 55.118 177.8
endloop
endfacet
facet normal 0 1 0
outer loop
vertex 54.3713 55.118 28.5636
vertex 63.5 55.118 177.8
vertex 54.902 55.118 28.4725
endloop
endfacet
facet normal 0 1 0
outer loop
vertex 54.902 55.118 28.4725
vertex 63.5 55.118 177.8
vertex 55.4098 55.118 28.2932
endloop
endfacet
facet normal 0 1 0
outer loop
vertex 22.0827 55.118 28.5636
vertex 21.552 55.118 28.4725
vertex 21.8154 55.118 149.271
endloop
endfacet
facet normal 0 1 0
outer loop
vertex 21.8154 55.118 149.271
vertex 21.552 55.118 28.4725
vertex 21.0442 55.118 28.2932
endloop
endfacet
facet normal 0 1 0
outer loop
vertex 21.0442 55.118 28.2932
vertex 20.5741 55.118 28.0305
vertex 21.8154 55.118 149.271
endloop
endfacet
facet normal 0 1 0
outer loop
vertex 21.8154 55.118 149.271
vertex 20.5741 55.118 28.0305
vertex 20.1551 55.118 27.6922
endloop
endfacet
facet normal 0 1 0
outer loop
vertex 21.8154 55.118 149.271
vertex 20.1551 55.118 27.6922
vertex 19.7993 55.118 27.288
endloop
endfacet
facet normal 0 1 0
outer loop
vertex 19.7993 55.118 27.288
vertex 19.517 55.118 26.8294
vertex 21.8154 55.118 149.271
endloop
endfacet
facet normal 0 1 0
outer loop
vertex 21.8154 55.118 149.271
vertex 19.517 55.118 26.8294
vertex 19.3162 55.118 26.3297
endloop
endfacet
facet normal 0 1 0
outer loop
vertex 21.8154 55.118 149.271
vertex 19.3162 55.118 26.3297
vertex 12.7 55.118 0
endloop
endfacet
facet normal 0 1 0
outer loop
vertex 12.7 55.118 0
vertex 19.3162 55.118 26.3297
vertex 19.2027 55.118 25.8033
endloop
endfacet
facet normal 0 1 0
outer loop
vertex 19.2027 55.118 25.8033
vertex 19.1799 55.118 25.2652
vertex 12.7 55.118 0
endloop
endfacet
facet normal 0 1 0
outer loop
vertex 12.7 55.118 0
vertex 19.1799 55.118 25.2652
vertex 19.2483 55.118 24.7311
endloop
endfacet
facet normal 0 1 0
outer loop
vertex 12.7 55.118 0
vertex 19.2483 55.118 24.7311
vertex 19.406 55.118 24.2162
endloop
endfacet
facet normal 0 1 0
outer loop
vertex 25.4557 55.118 24.7311
vertex 51.5493 55.118 27.288
vertex 51.267 55.118 26.8294
endloop
endfacet
facet normal 0 1 0
outer loop
vertex 19.406 55.118 24.2162
vertex 19.6484 55.118 23.7353
vertex 12.7 55.118 0
endloop
endfacet
facet normal 0 1 0
outer loop
vertex 12.7 55.118 0
vertex 19.6484 55.118 23.7353
vertex 19.9686 55.118 23.3024
endloop
endfacet
facet normal 0 1 0
outer loop
vertex 12.7 55.118 0
vertex 19.9686 55.118 23.3024
vertex 20.3574 55.118 22.9297
endloop
endfacet
facet normal 0 1 0
outer loop
vertex 53.8327 55.118 28.5636
vertex 53.302 55.118 28.4725
vertex 53.5654 55.118 149.271
endloop
endfacet
facet normal 0 1 0
outer loop
vertex 24.3466 55.118 22.9297
vertex 51.7186 55.118 23.3024
vertex 52.1074 55.118 22.9297
endloop
endfacet
facet normal 0 1 0
outer loop
vertex 22.0827 55.118 28.5636
vertex 21.8154 55.118 149.271
vertex 22.6213 55.118 28.5636
endloop
endfacet
facet normal 0 1 0
outer loop
vertex 22.6213 55.118 28.5636
vertex 21.8154 55.118 149.271
vertex 22.352 55.118 149.225
endloop
endfacet
facet normal 0 1 0
outer loop
vertex 22.6213 55.118 28.5636
vertex 22.352 55.118 149.225
vertex 22.8886 55.118 149.271
endloop
endfacet
facet normal 0 1 0
outer loop
vertex 53.302 55.118 28.4725
vertex 52.7942 55.118 28.2932
vertex 53.5654 55.118 149.271
endloop
endfacet
facet normal 0 1 0
outer loop
vertex 53.5654 55.118 149.271
vertex 52.7942 55.118 28.2932
vertex 52.3241 55.118 28.0305
endloop
endfacet
facet normal 0 1 0
outer loop
vertex 53.5654 55.118 149.271
vertex 52.3241 55.118 28.0305
vertex 25.4557 55.118 24.7311
endloop
endfacet
facet normal 0 1 0
outer loop
vertex 25.4557 55.118 24.7311
vertex 52.3241 55.118 28.0305
vertex 51.9051 55.118 27.6922
endloop
endfacet
facet normal 0 1 0
outer loop
vertex 25.4557 55.118 24.7311
vertex 51.9051 55.118 27.6922
vertex 51.5493 55.118 27.288
endloop
endfacet
facet normal 0 1 0
outer loop
vertex 22.8886 55.118 22.2707
vertex 23.4097 55.118 22.4064
vertex 12.7 55.118 0
endloop
endfacet
facet normal 0 1 0
outer loop
vertex 12.7 55.118 0
vertex 23.4097 55.118 22.4064
vertex 23.9004 55.118 22.6282
endloop
endfacet
facet normal 0 1 0
outer loop
vertex 12.7 55.118 0
vertex 23.9004 55.118 22.6282
vertex 53.0443 55.118 22.4064
endloop
endfacet
facet normal 0 1 0
outer loop
vertex 53.0443 55.118 22.4064
vertex 23.9004 55.118 22.6282
vertex 24.3466 55.118 22.9297
endloop
endfacet
facet normal 0 1 0
outer loop
vertex 53.0443 55.118 22.4064
vertex 24.3466 55.118 22.9297
vertex 52.5536 55.118 22.6282
endloop
endfacet
facet normal 0 1 0
outer loop
vertex 52.5536 55.118 22.6282
vertex 24.3466 55.118 22.9297
vertex 52.1074 55.118 22.9297
endloop
endfacet
facet normal 0 1 0
outer loop
vertex 53.8327 55.118 28.5636
vertex 53.5654 55.118 149.271
vertex 54.3713 55.118 28.5636
endloop
endfacet
facet normal 0 1 0
outer loop
vertex 54.3713 55.118 28.5636
vertex 53.5654 55.118 149.271
vertex 54.102 55.118 149.225
endloop
endfacet
facet normal 0 1 0
outer loop
vertex 54.3713 55.118 28.5636
vertex 54.102 55.118 149.225
vertex 54.6386 55.118 149.271
endloop
endfacet
facet normal 0 1 0
outer loop
vertex 51.267 55.118 26.8294
vertex 51.0662 55.118 26.3297
vertex 25.4557 55.118 24.7311
endloop
endfacet
facet normal 0 1 0
outer loop
vertex 25.4557 55.118 24.7311
vertex 51.0662 55.118 26.3297
vertex 50.9527 55.118 25.8033
endloop
endfacet
facet normal 0 1 0
outer loop
vertex 25.4557 55.118 24.7311
vertex 50.9527 55.118 25.8033
vertex 25.298 55.118 24.2162
endloop
endfacet
facet normal 0 1 0
outer loop
vertex 25.298 55.118 24.2162
vertex 50.9527 55.118 25.8033
vertex 50.9299 55.118 25.2652
endloop
endfacet
facet normal 0 1 0
outer loop
vertex 25.298 55.118 24.2162
vertex 50.9299 55.118 25.2652
vertex 25.0556 55.118 23.7353
endloop
endfacet
facet normal 0 1 0
outer loop
vertex 25.0556 55.118 23.7353
vertex 50.9299 55.118 25.2652
vertex 50.9983 55.118 24.7311
endloop
endfacet
facet normal 0 1 0
outer loop
vertex 25.0556 55.118 23.7353
vertex 50.9983 55.118 24.7311
vertex 24.7354 55.118 23.3024
endloop
endfacet
facet normal 0 1 0
outer loop
vertex 24.7354 55.118 23.3024
vertex 50.9983 55.118 24.7311
vertex 51.156 55.118 24.2162
endloop
endfacet
facet normal 0 1 0
outer loop
vertex 24.7354 55.118 23.3024
vertex 51.156 55.118 24.2162
vertex 24.3466 55.118 22.9297
endloop
endfacet
facet normal 0 1 0
outer loop
vertex 24.3466 55.118 22.9297
vertex 51.156 55.118 24.2162
vertex 51.3984 55.118 23.7353
endloop
endfacet
facet normal 0 1 0
outer loop
vertex 24.3466 55.118 22.9297
vertex 51.3984 55.118 23.7353
vertex 51.7186 55.118 23.3024
endloop
endfacet
facet normal -1 0 0
outer loop
vertex 12.7 50.546 0
vertex 12.7 50.546 177.8
vertex 12.7 55.118 0
endloop
endfacet
facet normal -1 0 0
outer loop
vertex 12.7 55.118 0
vertex 12.7 50.546 177.8
vertex 12.7 55.118 177.8
endloop
endfacet
facet normal 0 1 0
outer loop
vertex 0 50.546 0
vertex 0 50.546 177.8
vertex 12.7 50.546 0
endloop
endfacet
facet normal 0 1 0
outer loop
vertex 12.7 50.546 0
vertex 0 50.546 177.8
vertex 12.7 50.546 177.8
endloop
endfacet
facet normal 0 0 1
outer loop
vertex 6.35 0 170.942
vertex 69.85 0 170.942
vertex 6.35 11.684 170.942
endloop
endfacet
facet normal 0 0 1
outer loop
vertex 6.35 11.684 170.942
vertex 69.85 0 170.942
vertex 69.85 11.684 170.942
endloop
endfacet
facet normal 0 -1 0
outer loop
vertex 6.35 0 133.858
vertex 69.85 0 133.858
vertex 6.35 0 170.942
endloop
endfacet
facet normal 0 -1 0
outer loop
vertex 6.35 0 170.942
vertex 69.85 0 133.858
vertex 69.85 0 170.942
endloop
endfacet
facet normal 0 0 -1
outer loop
vertex 6.35 11.684 133.858
vertex 69.85 11.684 133.858
vertex 6.35 0 133.858
endloop
endfacet
facet normal 0 0 -1
outer loop
vertex 6.35 0 133.858
vertex 69.85 11.684 133.858
vertex 69.85 0 133.858
endloop
endfacet
facet normal 0 1 0
outer loop
vertex 6.35 11.684 146.05
vertex 69.85 11.684 146.05
vertex 6.35 11.684 133.858
endloop
endfacet
facet normal 0 1 0
outer loop
vertex 6.35 11.684 133.858
vertex 69.85 11.684 146.05
vertex 69.85 11.684 133.858
endloop
endfacet
facet normal 0 1 0
outer loop
vertex 6.35 11.684 170.942
vertex 69.85 11.684 170.942
vertex 6.35 11.684 158.75
endloop
endfacet
facet normal 0 1 0
outer loop
vertex 6.35 11.684 158.75
vertex 69.85 11.684 170.942
vertex 69.85 11.684 158.75
endloop
endfacet
facet normal 0 0 -1
outer loop
vertex 6.35 0 6.858
vertex 6.35 11.684 6.858
vertex 69.85 0 6.858
endloop
endfacet
facet normal 0 0 -1
outer loop
vertex 69.85 0 6.858
vertex 6.35 11.684 6.858
vertex 69.85 11.684 6.858
endloop
endfacet
facet normal 0 -1 0
outer loop
vertex 6.35 0 43.942
vertex 6.35 0 6.858
vertex 69.85 0 43.942
endloop
endfacet
facet normal 0 -1 0
outer loop
vertex 69.85 0 43.942
vertex 6.35 0 6.858
vertex 69.85 0 6.858
endloop
endfacet
facet normal 0 0 1
outer loop
vertex 6.35 11.684 43.942
vertex 6.35 0 43.942
vertex 69.85 11.684 43.942
endloop
endfacet
facet normal 0 0 1
outer loop
vertex 69.85 11.684 43.942
vertex 6.35 0 43.942
vertex 69.85 0 43.942
endloop
endfacet
facet normal 0 1 0
outer loop
vertex 6.35 11.684 31.75
vertex 6.35 11.684 43.942
vertex 69.85 11.684 31.75
endloop
endfacet
facet normal 0 1 0
outer loop
vertex 69.85 11.684 31.75
vertex 6.35 11.684 43.942
vertex 69.85 11.684 43.942
endloop
endfacet
facet normal 0 1 0
outer loop
vertex 6.35 11.684 6.858
vertex 6.35 11.684 19.05
vertex 69.85 11.684 6.858
endloop
endfacet
facet normal 0 1 0
outer loop
vertex 69.85 11.684 6.858
vertex 6.35 11.684 19.05
vertex 69.85 11.684 19.05
endloop
endfacet
facet normal 1 0 0
outer loop
vertex 76.2 50.546 0
vertex 76.2 50.546 177.8
vertex 76.2 25.146 0
endloop
endfacet
facet normal 1 0 0
outer loop
vertex 76.2 25.146 0
vertex 76.2 50.546 177.8
vertex 76.2 25.146 177.8
endloop
endfacet
facet normal 0 0 1
outer loop
vertex 76.2 25.146 177.8
vertex 76.2 50.546 177.8
vertex 0 25.146 177.8
endloop
endfacet
facet normal 0 0 1
outer loop
vertex 0 25.146 177.8
vertex 76.2 50.546 177.8
vertex 63.5 50.546 177.8
endloop
endfacet
facet normal 0 0 1
outer loop
vertex 0 50.546 177.8
vertex 0 25.146 177.8
vertex 12.7 50.546 177.8
endloop
endfacet
facet normal 0 0 1
outer loop
vertex 12.7 50.546 177.8
vertex 0 25.146 177.8
vertex 63.5 50.546 177.8
endloop
endfacet
facet normal 0 0 1
outer loop
vertex 12.7 50.546 177.8
vertex 63.5 50.546 177.8
vertex 12.7 55.118 177.8
endloop
endfacet
facet normal 0 0 1
outer loop
vertex 12.7 55.118 177.8
vertex 63.5 50.546 177.8
vertex 63.5 55.118 177.8
endloop
endfacet
facet normal -1 0 0
outer loop
vertex 0 25.146 0
vertex 0 25.146 177.8
vertex 0 50.546 0
endloop
endfacet
facet normal -1 0 0
outer loop
vertex 0 50.546 0
vertex 0 25.146 177.8
vertex 0 50.546 177.8
endloop
endfacet
facet normal 0 0 -1
outer loop
vertex 63.5 50.546 0
vertex 76.2 50.546 0
vertex 76.2 25.146 0
endloop
endfacet
facet normal 0 0 -1
outer loop
vertex 0 25.146 0
vertex 0 50.546 0
vertex 12.7 50.546 0
endloop
endfacet
facet normal 0 0 -1
outer loop
vertex 12.7 55.118 0
vertex 63.5 55.118 0
vertex 12.7 50.546 0
endloop
endfacet
facet normal 0 0 -1
outer loop
vertex 12.7 50.546 0
vertex 63.5 55.118 0
vertex 63.5 50.546 0
endloop
endfacet
facet normal 0 0 -1
outer loop
vertex 12.7 50.546 0
vertex 63.5 50.546 0
vertex 0 25.146 0
endloop
endfacet
facet normal 0 0 -1
outer loop
vertex 0 25.146 0
vertex 63.5 50.546 0
vertex 76.2 25.146 0
endloop
endfacet
facet normal 1 0 0
outer loop
vertex 69.85 0 133.858
vertex 69.85 11.684 133.858
vertex 69.85 0 170.942
endloop
endfacet
facet normal 1 0 0
outer loop
vertex 69.85 0 170.942
vertex 69.85 11.684 133.858
vertex 69.85 11.684 146.05
endloop
endfacet
facet normal 1 0 0
outer loop
vertex 69.85 11.684 170.942
vertex 69.85 0 170.942
vertex 69.85 11.684 158.75
endloop
endfacet
facet normal 1 0 0
outer loop
vertex 69.85 11.684 158.75
vertex 69.85 0 170.942
vertex 69.85 11.684 146.05
endloop
endfacet
facet normal 1 0 0
outer loop
vertex 69.85 11.684 158.75
vertex 69.85 11.684 146.05
vertex 69.85 25.146 158.75
endloop
endfacet
facet normal 1 0 0
outer loop
vertex 69.85 25.146 158.75
vertex 69.85 11.684 146.05
vertex 69.85 25.146 146.05
endloop
endfacet
facet normal 0 0 -1
outer loop
vertex 69.85 25.146 146.05
vertex 69.85 11.684 146.05
vertex 6.35 25.146 146.05
endloop
endfacet
facet normal 0 0 -1
outer loop
vertex 6.35 25.146 146.05
vertex 69.85 11.684 146.05
vertex 6.35 11.684 146.05
endloop
endfacet
facet normal -1 0 0
outer loop
vertex 6.35 11.684 146.05
vertex 6.35 11.684 133.858
vertex 6.35 0 133.858
endloop
endfacet
facet normal -1 0 0
outer loop
vertex 6.35 0 170.942
vertex 6.35 11.684 170.942
vertex 6.35 11.684 158.75
endloop
endfacet
facet normal -1 0 0
outer loop
vertex 6.35 25.146 158.75
vertex 6.35 25.146 146.05
vertex 6.35 11.684 158.75
endloop
endfacet
facet normal -1 0 0
outer loop
vertex 6.35 11.684 158.75
vertex 6.35 25.146 146.05
vertex 6.35 11.684 146.05
endloop
endfacet
facet normal -1 0 0
outer loop
vertex 6.35 11.684 158.75
vertex 6.35 11.684 146.05
vertex 6.35 0 170.942
endloop
endfacet
facet normal -1 0 0
outer loop
vertex 6.35 0 170.942
vertex 6.35 11.684 146.05
vertex 6.35 0 133.858
endloop
endfacet
facet normal 0 0 1
outer loop
vertex 6.35 25.146 158.75
vertex 6.35 11.684 158.75
vertex 69.85 25.146 158.75
endloop
endfacet
facet normal 0 0 1
outer loop
vertex 69.85 25.146 158.75
vertex 6.35 11.684 158.75
vertex 69.85 11.684 158.75
endloop
endfacet
facet normal -1 0 0
outer loop
vertex 6.35 11.684 19.05
vertex 6.35 11.684 6.858
vertex 6.35 0 6.858
endloop
endfacet
facet normal -1 0 0
outer loop
vertex 6.35 0 43.942
vertex 6.35 11.684 43.942
vertex 6.35 11.684 31.75
endloop
endfacet
facet normal -1 0 0
outer loop
vertex 6.35 25.146 31.75
vertex 6.35 25.146 19.05
vertex 6.35 11.684 31.75
endloop
endfacet
facet normal -1 0 0
outer loop
vertex 6.35 11.684 31.75
vertex 6.35 25.146 19.05
vertex 6.35 11.684 19.05
endloop
endfacet
facet normal -1 0 0
outer loop
vertex 6.35 11.684 31.75
vertex 6.35 11.684 19.05
vertex 6.35 0 43.942
endloop
endfacet
facet normal -1 0 0
outer loop
vertex 6.35 0 43.942
vertex 6.35 11.684 19.05
vertex 6.35 0 6.858
endloop
endfacet
facet normal 0 0 1
outer loop
vertex 69.85 25.146 31.75
vertex 6.35 25.146 31.75
vertex 69.85 11.684 31.75
endloop
endfacet
facet normal 0 0 1
outer loop
vertex 69.85 11.684 31.75
vertex 6.35 25.146 31.75
vertex 6.35 11.684 31.75
endloop
endfacet
facet normal 1 0 0
outer loop
vertex 69.85 11.684 31.75
vertex 69.85 11.684 43.942
vertex 69.85 0 43.942
endloop
endfacet
facet normal 1 0 0
outer loop
vertex 69.85 0 6.858
vertex 69.85 11.684 6.858
vertex 69.85 11.684 19.05
endloop
endfacet
facet normal 1 0 0
outer loop
vertex 69.85 25.146 19.05
vertex 69.85 25.146 31.75
vertex 69.85 11.684 19.05
endloop
endfacet
facet normal 1 0 0
outer loop
vertex 69.85 11.684 19.05
vertex 69.85 25.146 31.75
vertex 69.85 11.684 31.75
endloop
endfacet
facet normal 1 0 0
outer loop
vertex 69.85 11.684 19.05
vertex 69.85 11.684 31.75
vertex 69.85 0 6.858
endloop
endfacet
facet normal 1 0 0
outer loop
vertex 69.85 0 6.858
vertex 69.85 11.684 31.75
vertex 69.85 0 43.942
endloop
endfacet
facet normal 0 0 -1
outer loop
vertex 6.35 25.146 19.05
vertex 69.85 25.146 19.05
vertex 6.35 11.684 19.05
endloop
endfacet
facet normal 0 0 -1
outer loop
vertex 6.35 11.684 19.05
vertex 69.85 25.146 19.05
vertex 69.85 11.684 19.05
endloop
endfacet
facet normal 0 -1 0
outer loop
vertex 69.85 25.146 19.05
vertex 6.35 25.146 19.05
vertex 0 25.146 0
endloop
endfacet
facet normal 0 -1 0
outer loop
vertex 0 25.146 0
vertex 6.35 25.146 19.05
vertex 6.35 25.146 31.75
endloop
endfacet
facet normal 0 -1 0
outer loop
vertex 6.35 25.146 146.05
vertex 6.35 25.146 158.75
vertex 0 25.146 177.8
endloop
endfacet
facet normal 0 -1 0
outer loop
vertex 0 25.146 177.8
vertex 6.35 25.146 158.75
vertex 76.2 25.146 177.8
endloop
endfacet
facet normal 0 -1 0
outer loop
vertex 76.2 25.146 177.8
vertex 6.35 25.146 158.75
vertex 69.85 25.146 158.75
endloop
endfacet
facet normal 0 -1 0
outer loop
vertex 76.2 25.146 177.8
vertex 69.85 25.146 158.75
vertex 69.85 25.146 146.05
endloop
endfacet
facet normal 0 -1 0
outer loop
vertex 0 25.146 0
vertex 76.2 25.146 0
vertex 69.85 25.146 19.05
endloop
endfacet
facet normal 0 -1 0
outer loop
vertex 69.85 25.146 19.05
vertex 76.2 25.146 0
vertex 76.2 25.146 177.8
endloop
endfacet
facet normal 0 -1 0
outer loop
vertex 69.85 25.146 19.05
vertex 76.2 25.146 177.8
vertex 69.85 25.146 31.75
endloop
endfacet
facet normal 0 -1 0
outer loop
vertex 69.85 25.146 31.75
vertex 76.2 25.146 177.8
vertex 69.85 25.146 146.05
endloop
endfacet
facet normal 0 -1 0
outer loop
vertex 69.85 25.146 31.75
vertex 69.85 25.146 146.05
vertex 6.35 25.146 31.75
endloop
endfacet
facet normal 0 -1 0
outer loop
vertex 6.35 25.146 31.75
vertex 69.85 25.146 146.05
vertex 6.35 25.146 146.05
endloop
endfacet
facet normal 0 -1 0
outer loop
vertex 6.35 25.146 31.75
vertex 6.35 25.146 146.05
vertex 0 25.146 0
endloop
endfacet
facet normal 0 -1 0
outer loop
vertex 0 25.146 0
vertex 6.35 25.146 146.05
vertex 0 25.146 177.8
endloop
endfacet
endsolid
