solid C:\Temp\NOELParts\ganter_din_508.STL created by CtrlView V2.70
facet normal 0.996398 0.084805 9.52391e-005
outer loop
vertex 2.82445 4.2127 6.5
vertex 2.82504 4.21285 0.173205
vertex 2.8 4.5 6.5
endloop
endfacet
facet normal 0.969375 0.245476 -0.00730406
outer loop
vertex 2.8 4.5 6.5
vertex 2.82504 4.21285 0.173205
vertex 2.82319 4.22019 0.173205
endloop
endfacet
facet normal 0.911229 0.411901 0.00027018
outer loop
vertex 2.89711 3.93366 6.5
vertex 3.01588 3.67092 6.5
vertex 3.01732 3.67186 0.173205
endloop
endfacet
facet normal 0.837146 0.546938 -0.00672522
outer loop
vertex 3.01732 3.67186 0.173205
vertex 3.00489 3.69089 0.173205
vertex 2.89711 3.93366 6.5
endloop
endfacet
facet normal 0.915773 0.401695 0.000187606
outer loop
vertex 2.89711 3.93366 6.5
vertex 3.00489 3.69089 0.173205
vertex 2.8982 3.93414 0.173205
endloop
endfacet
facet normal 0.967733 0.251979 0.000185249
outer loop
vertex 2.89711 3.93366 6.5
vertex 2.8982 3.93414 0.173205
vertex 2.82445 4.2127 6.5
endloop
endfacet
facet normal 0.915748 0.401691 -0.00701228
outer loop
vertex 2.82445 4.2127 6.5
vertex 2.8982 3.93414 0.173205
vertex 2.89211 3.94801 0.173205
endloop
endfacet
facet normal 0.9694 0.245485 9.65156e-005
outer loop
vertex 2.82445 4.2127 6.5
vertex 2.89211 3.94801 0.173205
vertex 2.82504 4.21285 0.173205
endloop
endfacet
facet normal 0.721956 0.691939 -0.000442279
outer loop
vertex 3.37685 3.22386 6.5
vertex 3.34862 3.24927 0.173205
vertex 3.17734 3.43203 6.5
endloop
endfacet
facet normal 0.735723 0.677282 0.000353823
outer loop
vertex 3.17734 3.43203 6.5
vertex 3.34862 3.24927 0.173205
vertex 3.17899 3.43354 0.173205
endloop
endfacet
facet normal 0.828509 0.559975 0.000349866
outer loop
vertex 3.17734 3.43203 6.5
vertex 3.17899 3.43354 0.173205
vertex 3.01588 3.67092 6.5
endloop
endfacet
facet normal 0.73571 0.677266 -0.00644325
outer loop
vertex 3.01588 3.67092 6.5
vertex 3.17899 3.43354 0.173205
vertex 3.15846 3.45584 0.173205
endloop
endfacet
facet normal 0.837167 0.546948 0.000273427
outer loop
vertex 3.01588 3.67092 6.5
vertex 3.15846 3.45584 0.173205
vertex 3.01732 3.67186 0.173205
endloop
endfacet
facet normal 0.594633 0.803997 -0.000514722
outer loop
vertex 3.60868 3.0524 6.5
vertex 3.57019 3.07682 0.173205
vertex 3.37685 3.22386 6.5
endloop
endfacet
facet normal 0.614213 0.78914 0.000428919
outer loop
vertex 3.37685 3.22386 6.5
vertex 3.57019 3.07682 0.173205
vertex 3.37852 3.226 0.173205
endloop
endfacet
facet normal 0.614212 0.789141 0.000428919
outer loop
vertex 3.37685 3.22386 6.5
vertex 3.37852 3.226 0.173205
vertex 3.34862 3.24927 0.173205
endloop
endfacet
facet normal 0.450204 0.892926 -0.000581758
outer loop
vertex 3.86614 2.92259 6.5
vertex 3.81712 2.94319 0.173205
vertex 3.60868 3.0524 6.5
endloop
endfacet
facet normal 0.475948 0.879473 0.000498614
outer loop
vertex 3.60868 3.0524 6.5
vertex 3.81712 2.94319 0.173205
vertex 3.61018 3.05517 0.173205
endloop
endfacet
facet normal 0.475945 0.879475 0.000498614
outer loop
vertex 3.60868 3.0524 6.5
vertex 3.61018 3.05517 0.173205
vertex 3.57019 3.07682 0.173205
endloop
endfacet
facet normal 0.292823 0.956166 -0.000643417
outer loop
vertex 4.14184 2.83816 6.5
vertex 4.08267 2.85202 0.173205
vertex 3.86614 2.92259 6.5
endloop
endfacet
facet normal 0.3247 0.945817 0.00056298
outer loop
vertex 3.86614 2.92259 6.5
vertex 4.08267 2.85202 0.173205
vertex 3.8673 2.92596 0.173205
endloop
endfacet
facet normal 0.324697 0.945818 0.00056298
outer loop
vertex 3.86614 2.92259 6.5
vertex 3.8673 2.92596 0.173205
vertex 3.81712 2.94319 0.173205
endloop
endfacet
facet normal 0.127018 0.9919 -0.000699735
outer loop
vertex 4.42785 2.80153 6.5
vertex 4.35961 2.80581 0.173205
vertex 4.14184 2.83816 6.5
endloop
endfacet
facet normal 0.164595 0.986361 0.000621998
outer loop
vertex 4.14184 2.83816 6.5
vertex 4.35961 2.80581 0.173205
vertex 4.14249 2.84204 0.173205
endloop
endfacet
facet normal 0.164593 0.986361 0.000621998
outer loop
vertex 4.14184 2.83816 6.5
vertex 4.14249 2.84204 0.173205
vertex 4.08267 2.85202 0.173205
endloop
endfacet
facet normal -0.0424414 0.999099 -0.000750699
outer loop
vertex 4.71593 2.81377 6.5
vertex 4.64038 2.80581 0.173205
vertex 4.42785 2.80153 6.5
endloop
endfacet
facet normal 0 1 0.000675635
outer loop
vertex 4.42785 2.80153 6.5
vertex 4.64038 2.80581 0.173205
vertex 4.42785 2.80581 0.173205
endloop
endfacet
facet normal 0 1 0.000675635
outer loop
vertex 4.42785 2.80153 6.5
vertex 4.42785 2.80581 0.173205
vertex 4.35961 2.80581 0.173205
endloop
endfacet
facet normal -0.210679 0.977555 -0.000796304
outer loop
vertex 4.9978 2.87452 6.5
vertex 4.91733 2.85202 0.173205
vertex 4.71593 2.81377 6.5
endloop
endfacet
facet normal -0.164594 0.986361 0.000723909
outer loop
vertex 4.71593 2.81377 6.5
vertex 4.91733 2.85202 0.173205
vertex 4.71518 2.81829 0.173205
endloop
endfacet
facet normal -0.164595 0.986361 0.000723909
outer loop
vertex 4.71593 2.81377 6.5
vertex 4.71518 2.81829 0.173205
vertex 4.64038 2.80581 0.173205
endloop
endfacet
facet normal -0.372857 0.927889 -0.000836534
outer loop
vertex 5.26535 2.98203 6.5
vertex 5.18288 2.94319 0.173205
vertex 4.9978 2.87452 6.5
endloop
endfacet
facet normal -0.3247 0.945817 0.000766823
outer loop
vertex 4.9978 2.87452 6.5
vertex 5.18288 2.94319 0.173205
vertex 4.99622 2.87911 0.173205
endloop
endfacet
facet normal -0.324698 0.945817 0.000766823
outer loop
vertex 4.9978 2.87452 6.5
vertex 4.99622 2.87911 0.173205
vertex 4.91733 2.85202 0.173205
endloop
endfacet
facet normal -0.524307 0.851529 -0.000871435
outer loop
vertex 5.51088 3.1332 6.5
vertex 5.42981 3.07682 0.173205
vertex 5.26535 2.98203 6.5
endloop
endfacet
facet normal -0.475946 0.879474 0.000804401
outer loop
vertex 5.26535 2.98203 6.5
vertex 5.42981 3.07682 0.173205
vertex 5.26292 2.9865 0.173205
endloop
endfacet
facet normal -0.475948 0.879473 0.000804401
outer loop
vertex 5.26535 2.98203 6.5
vertex 5.26292 2.9865 0.173205
vertex 5.18288 2.94319 0.173205
endloop
endfacet
facet normal -0.660675 0.750672 -0.000900939
outer loop
vertex 5.72732 3.3237 6.5
vertex 5.65138 3.24927 0.173205
vertex 5.51088 3.1332 6.5
endloop
endfacet
facet normal -0.614212 0.789141 0.000836597
outer loop
vertex 5.51088 3.1332 6.5
vertex 5.65138 3.24927 0.173205
vertex 5.50763 3.13738 0.173205
endloop
endfacet
facet normal -0.614215 0.789139 0.000836597
outer loop
vertex 5.51088 3.1332 6.5
vertex 5.50763 3.13738 0.173205
vertex 5.42981 3.07682 0.173205
endloop
endfacet
facet normal -0.778035 0.62822 -0.000925119
outer loop
vertex 5.90847 3.54804 6.5
vertex 5.84154 3.45584 0.173205
vertex 5.72732 3.3237 6.5
endloop
endfacet
facet normal -0.735723 0.677282 0.000863392
outer loop
vertex 5.72732 3.3237 6.5
vertex 5.84154 3.45584 0.173205
vertex 5.72331 3.3274 0.173205
endloop
endfacet
facet normal -0.735724 0.677281 0.000863392
outer loop
vertex 5.72732 3.3237 6.5
vertex 5.72331 3.3274 0.173205
vertex 5.65138 3.24927 0.173205
endloop
endfacet
facet normal -0.873014 0.487695 -0.000943834
outer loop
vertex 6.04909 3.79977 6.5
vertex 5.9951 3.69089 0.173205
vertex 5.90847 3.54804 6.5
endloop
endfacet
facet normal -0.837168 0.546946 0.000884811
outer loop
vertex 5.90847 3.54804 6.5
vertex 5.9951 3.69089 0.173205
vertex 5.90378 3.5511 0.173205
endloop
endfacet
facet normal -0.837166 0.546948 0.000884811
outer loop
vertex 5.90847 3.54804 6.5
vertex 5.90378 3.5511 0.173205
vertex 5.84154 3.45584 0.173205
endloop
endfacet
facet normal -0.942877 0.333141 -0.000957292
outer loop
vertex 6.14515 4.07164 6.5
vertex 6.10789 3.94801 0.173205
vertex 6.04909 3.79977 6.5
endloop
endfacet
facet normal -0.915773 0.401696 0.000900926
outer loop
vertex 6.04909 3.79977 6.5
vertex 6.10789 3.94801 0.173205
vertex 6.04387 3.80206 0.173205
endloop
endfacet
facet normal -0.915772 0.401698 0.000900926
outer loop
vertex 6.04909 3.79977 6.5
vertex 6.04387 3.80206 0.173205
vertex 5.9951 3.69089 0.173205
endloop
endfacet
facet normal -0.985616 0.169 -0.000965325
outer loop
vertex 6.19388 4.35583 6.5
vertex 6.17681 4.22019 0.173205
vertex 6.14515 4.07164 6.5
endloop
endfacet
facet normal -0.9694 0.245487 0.000911744
outer loop
vertex 6.14515 4.07164 6.5
vertex 6.17681 4.22019 0.173205
vertex 6.13955 4.07305 0.173205
endloop
endfacet
facet normal -0.9694 0.245483 0.000911744
outer loop
vertex 6.14515 4.07164 6.5
vertex 6.13955 4.07305 0.173205
vertex 6.10789 3.94801 0.173205
endloop
endfacet
facet normal -1 0 -0.000968025
outer loop
vertex 6.19388 4.64417 6.5
vertex 6.2 4.5 0.173205
vertex 6.19388 4.35583 6.5
endloop
endfacet
facet normal -0.996584 0.0825796 0.000917044
outer loop
vertex 6.19388 4.35583 6.5
vertex 6.2 4.5 0.173205
vertex 6.18809 4.35631 0.173205
endloop
endfacet
facet normal -0.996584 0.0825785 0.000917044
outer loop
vertex 6.19388 4.35583 6.5
vertex 6.18809 4.35631 0.173205
vertex 6.17681 4.22019 0.173205
endloop
endfacet
facet normal -0.985616 -0.169 -0.000965325
outer loop
vertex 6.14515 4.92836 6.5
vertex 6.17681 4.77981 0.173205
vertex 6.19388 4.64417 6.5
endloop
endfacet
facet normal -0.996584 -0.0825785 0.000917044
outer loop
vertex 6.19388 4.64417 6.5
vertex 6.17681 4.77981 0.173205
vertex 6.18809 4.64369 0.173205
endloop
endfacet
facet normal -0.996584 -0.0825799 0.000917044
outer loop
vertex 6.19388 4.64417 6.5
vertex 6.18809 4.64369 0.173205
vertex 6.2 4.5 0.173205
endloop
endfacet
facet normal -0.942877 -0.33314 -0.000957286
outer loop
vertex 6.04909 5.20023 6.5
vertex 6.10789 5.05199 0.173205
vertex 6.14515 4.92836 6.5
endloop
endfacet
facet normal -0.9694 -0.245484 0.000911725
outer loop
vertex 6.14515 4.92836 6.5
vertex 6.10789 5.05199 0.173205
vertex 6.13955 4.92695 0.173205
endloop
endfacet
facet normal -0.9694 -0.245486 0.000911725
outer loop
vertex 6.14515 4.92836 6.5
vertex 6.13955 4.92695 0.173205
vertex 6.17681 4.77981 0.173205
endloop
endfacet
facet normal -0.873013 -0.487695 -0.000943849
outer loop
vertex 5.90847 5.45196 6.5
vertex 5.9951 5.30911 0.173205
vertex 6.04909 5.20023 6.5
endloop
endfacet
facet normal -0.915772 -0.401697 0.000900941
outer loop
vertex 6.04909 5.20023 6.5
vertex 5.9951 5.30911 0.173205
vertex 6.04387 5.19794 0.173205
endloop
endfacet
facet normal -0.915773 -0.401696 0.000900941
outer loop
vertex 6.04909 5.20023 6.5
vertex 6.04387 5.19794 0.173205
vertex 6.10789 5.05199 0.173205
endloop
endfacet
facet normal -0.778036 -0.628219 -0.000925133
outer loop
vertex 5.72732 5.6763 6.5
vertex 5.84154 5.54416 0.173205
vertex 5.90847 5.45196 6.5
endloop
endfacet
facet normal -0.837166 -0.546948 0.00088479
outer loop
vertex 5.90847 5.45196 6.5
vertex 5.84154 5.54416 0.173205
vertex 5.90378 5.44889 0.173205
endloop
endfacet
facet normal -0.837167 -0.546946 0.00088479
outer loop
vertex 5.90847 5.45196 6.5
vertex 5.90378 5.44889 0.173205
vertex 5.9951 5.30911 0.173205
endloop
endfacet
facet normal -0.660675 -0.750671 -0.000900957
outer loop
vertex 5.51088 5.8668 6.5
vertex 5.65138 5.75073 0.173205
vertex 5.72732 5.6763 6.5
endloop
endfacet
facet normal -0.735723 -0.677282 0.000863341
outer loop
vertex 5.72732 5.6763 6.5
vertex 5.65138 5.75073 0.173205
vertex 5.72331 5.6726 0.173205
endloop
endfacet
facet normal -0.735724 -0.677281 0.000863341
outer loop
vertex 5.72732 5.6763 6.5
vertex 5.72331 5.6726 0.173205
vertex 5.84154 5.54416 0.173205
endloop
endfacet
facet normal -0.524306 -0.85153 -0.000871393
outer loop
vertex 5.26535 6.01797 6.5
vertex 5.42981 5.92318 0.173205
vertex 5.51088 5.8668 6.5
endloop
endfacet
facet normal -0.614213 -0.78914 0.000836626
outer loop
vertex 5.51088 5.8668 6.5
vertex 5.42981 5.92318 0.173205
vertex 5.50763 5.86262 0.173205
endloop
endfacet
facet normal -0.614211 -0.789141 0.000836626
outer loop
vertex 5.51088 5.8668 6.5
vertex 5.50763 5.86262 0.173205
vertex 5.65138 5.75073 0.173205
endloop
endfacet
facet normal -0.372857 -0.927888 -0.000836593
outer loop
vertex 4.9978 6.12548 6.5
vertex 5.18288 6.05681 0.173205
vertex 5.26535 6.01797 6.5
endloop
endfacet
facet normal -0.47595 -0.879472 0.000804368
outer loop
vertex 5.26535 6.01797 6.5
vertex 5.18288 6.05681 0.173205
vertex 5.26292 6.0135 0.173205
endloop
endfacet
facet normal -0.475947 -0.879474 0.000804368
outer loop
vertex 5.26535 6.01797 6.5
vertex 5.26292 6.0135 0.173205
vertex 5.42981 5.92318 0.173205
endloop
endfacet
facet normal -0.21068 -0.977555 -0.000796294
outer loop
vertex 4.71593 6.18623 6.5
vertex 4.91733 6.14798 0.173205
vertex 4.9978 6.12548 6.5
endloop
endfacet
facet normal -0.324698 -0.945817 0.000766823
outer loop
vertex 4.9978 6.12548 6.5
vertex 4.91733 6.14798 0.173205
vertex 4.99622 6.12089 0.173205
endloop
endfacet
facet normal -0.324699 -0.945817 0.000766823
outer loop
vertex 4.9978 6.12548 6.5
vertex 4.99622 6.12089 0.173205
vertex 5.18288 6.05681 0.173205
endloop
endfacet
facet normal -0.0424414 -0.999099 -0.000750661
outer loop
vertex 4.42785 6.19847 6.5
vertex 4.64038 6.19419 0.173205
vertex 4.71593 6.18623 6.5
endloop
endfacet
facet normal -0.164592 -0.986362 0.000723909
outer loop
vertex 4.71593 6.18623 6.5
vertex 4.64038 6.19419 0.173205
vertex 4.71518 6.18171 0.173205
endloop
endfacet
facet normal -0.164596 -0.986361 0.000723909
outer loop
vertex 4.71593 6.18623 6.5
vertex 4.71518 6.18171 0.173205
vertex 4.91733 6.14798 0.173205
endloop
endfacet
facet normal 0.12702 -0.9919 -0.000699715
outer loop
vertex 4.14184 6.16184 6.5
vertex 4.35961 6.19419 0.173205
vertex 4.42785 6.19847 6.5
endloop
endfacet
facet normal 0 -1 0.000675673
outer loop
vertex 4.42785 6.19847 6.5
vertex 4.35961 6.19419 0.173205
vertex 4.42785 6.19419 0.173205
endloop
endfacet
facet normal 0 -1 0.000675673
outer loop
vertex 4.42785 6.19847 6.5
vertex 4.42785 6.19419 0.173205
vertex 4.64038 6.19419 0.173205
endloop
endfacet
facet normal 0.292822 -0.956167 -0.000643438
outer loop
vertex 3.86614 6.07741 6.5
vertex 4.08267 6.14798 0.173205
vertex 4.14184 6.16184 6.5
endloop
endfacet
facet normal 0.164597 -0.986361 0.000621924
outer loop
vertex 4.14184 6.16184 6.5
vertex 4.08267 6.14798 0.173205
vertex 4.14249 6.15796 0.173205
endloop
endfacet
facet normal 0.164594 -0.986361 0.000621924
outer loop
vertex 4.14184 6.16184 6.5
vertex 4.14249 6.15796 0.173205
vertex 4.35961 6.19419 0.173205
endloop
endfacet
facet normal 0.450204 -0.892926 -0.000581758
outer loop
vertex 3.60868 5.9476 6.5
vertex 3.81712 6.05681 0.173205
vertex 3.86614 6.07741 6.5
endloop
endfacet
facet normal 0.324689 -0.945821 0.000563051
outer loop
vertex 3.86614 6.07741 6.5
vertex 3.81712 6.05681 0.173205
vertex 3.8673 6.07404 0.173205
endloop
endfacet
facet normal 0.324701 -0.945817 0.000563051
outer loop
vertex 3.86614 6.07741 6.5
vertex 3.8673 6.07404 0.173205
vertex 4.08267 6.14798 0.173205
endloop
endfacet
facet normal 0.594633 -0.803997 -0.000514667
outer loop
vertex 3.37685 5.77614 6.5
vertex 3.57019 5.92318 0.173205
vertex 3.60868 5.9476 6.5
endloop
endfacet
facet normal 0.475949 -0.879473 0.000498647
outer loop
vertex 3.60868 5.9476 6.5
vertex 3.57019 5.92318 0.173205
vertex 3.61018 5.94482 0.173205
endloop
endfacet
facet normal 0.475949 -0.879473 0.000498647
outer loop
vertex 3.60868 5.9476 6.5
vertex 3.61018 5.94482 0.173205
vertex 3.81712 6.05681 0.173205
endloop
endfacet
facet normal 0.721955 -0.691939 -0.000442302
outer loop
vertex 3.17734 5.56797 6.5
vertex 3.34862 5.75073 0.173205
vertex 3.37685 5.77614 6.5
endloop
endfacet
facet normal 0.614208 -0.789144 0.000428919
outer loop
vertex 3.37685 5.77614 6.5
vertex 3.34862 5.75073 0.173205
vertex 3.37852 5.774 0.173205
endloop
endfacet
facet normal 0.614213 -0.789141 0.000428919
outer loop
vertex 3.37685 5.77614 6.5
vertex 3.37852 5.774 0.173205
vertex 3.57019 5.92318 0.173205
endloop
endfacet
facet normal 0.828509 -0.559975 -0.000364518
outer loop
vertex 3.01588 5.32908 6.5
vertex 3.15846 5.54416 0.173205
vertex 3.17734 5.56797 6.5
endloop
endfacet
facet normal 0.735725 -0.67728 0.000353848
outer loop
vertex 3.17734 5.56797 6.5
vertex 3.15846 5.54416 0.173205
vertex 3.17899 5.56646 0.173205
endloop
endfacet
facet normal 0.735724 -0.677282 0.000353848
outer loop
vertex 3.17734 5.56797 6.5
vertex 3.17899 5.56646 0.173205
vertex 3.34862 5.75073 0.173205
endloop
endfacet
facet normal 0.911229 -0.411901 -0.000281418
outer loop
vertex 2.89711 5.06634 6.5
vertex 3.00489 5.30911 0.173205
vertex 3.01588 5.32908 6.5
endloop
endfacet
facet normal 0.837162 -0.546955 0.000273447
outer loop
vertex 3.01588 5.32908 6.5
vertex 3.00489 5.30911 0.173205
vertex 3.01732 5.32814 0.173205
endloop
endfacet
facet normal 0.837167 -0.546948 0.000273447
outer loop
vertex 3.01588 5.32908 6.5
vertex 3.01732 5.32814 0.173205
vertex 3.15846 5.54416 0.173205
endloop
endfacet
facet normal 0.967733 -0.251979 -0.000192981
outer loop
vertex 2.82445 4.7873 6.5
vertex 2.89211 5.05199 0.173205
vertex 2.89711 5.06634 6.5
endloop
endfacet
facet normal 0.915773 -0.401696 0.000187606
outer loop
vertex 2.89711 5.06634 6.5
vertex 2.89211 5.05199 0.173205
vertex 2.8982 5.06586 0.173205
endloop
endfacet
facet normal 0.915773 -0.401695 0.000187606
outer loop
vertex 2.89711 5.06634 6.5
vertex 2.8982 5.06586 0.173205
vertex 3.00489 5.30911 0.173205
endloop
endfacet
facet normal 0.996585 0.0825791 0
outer loop
vertex 2.82319 4.22019 0.173205
vertex 2.8 4.5 0.173205
vertex 2.8 4.5 6.5
endloop
endfacet
facet normal 0.996584 -0.0825793 0
outer loop
vertex 2.8 4.5 6.5
vertex 2.8 4.5 0.173205
vertex 2.82319 4.77981 0.173205
endloop
endfacet
facet normal 0.996398 -0.0848051 -9.91257e-005
outer loop
vertex 2.8 4.5 6.5
vertex 2.82319 4.77981 0.173205
vertex 2.82445 4.7873 6.5
endloop
endfacet
facet normal 0.969401 -0.245483 9.65156e-005
outer loop
vertex 2.82445 4.7873 6.5
vertex 2.82319 4.77981 0.173205
vertex 2.82504 4.78715 0.173205
endloop
endfacet
facet normal 0.9694 -0.245485 9.65156e-005
outer loop
vertex 2.82445 4.7873 6.5
vertex 2.82504 4.78715 0.173205
vertex 2.89211 5.05199 0.173205
endloop
endfacet
facet normal 0 0 1
outer loop
vertex 7 0 2.5
vertex 9 0 2.5
vertex 7 9 2.5
endloop
endfacet
facet normal 0 0 1
outer loop
vertex 7 9 2.5
vertex 9 0 2.5
vertex 9 9 2.5
endloop
endfacet
facet normal 1 0 0
outer loop
vertex 7 0 6.5
vertex 7 0 2.5
vertex 7 9 6.5
endloop
endfacet
facet normal 1 0 0
outer loop
vertex 7 9 6.5
vertex 7 0 2.5
vertex 7 9 2.5
endloop
endfacet
facet normal 0 0 1
outer loop
vertex 6.14515 4.92836 6.5
vertex 6.19388 4.64417 6.5
vertex 7 9 6.5
endloop
endfacet
facet normal 0 0 1
outer loop
vertex 4.9978 6.12548 6.5
vertex 5.26535 6.01797 6.5
vertex 7 9 6.5
endloop
endfacet
facet normal 0 0 1
outer loop
vertex 7 9 6.5
vertex 5.26535 6.01797 6.5
vertex 5.51088 5.8668 6.5
endloop
endfacet
facet normal 0 0 1
outer loop
vertex 7 9 6.5
vertex 5.51088 5.8668 6.5
vertex 5.72732 5.6763 6.5
endloop
endfacet
facet normal 0 0 1
outer loop
vertex 6.14515 4.07164 6.5
vertex 6.04909 3.79977 6.5
vertex 7 0 6.5
endloop
endfacet
facet normal 0 0 1
outer loop
vertex 7 0 6.5
vertex 6.04909 3.79977 6.5
vertex 5.90847 3.54804 6.5
endloop
endfacet
facet normal 0 0 1
outer loop
vertex 4.14184 6.16184 6.5
vertex 4.42785 6.19847 6.5
vertex 2 9 6.5
endloop
endfacet
facet normal 0 0 1
outer loop
vertex 7 9 6.5
vertex 6.19388 4.64417 6.5
vertex 7 0 6.5
endloop
endfacet
facet normal 0 0 1
outer loop
vertex 7 0 6.5
vertex 6.19388 4.64417 6.5
vertex 6.19388 4.35583 6.5
endloop
endfacet
facet normal 0 0 1
outer loop
vertex 7 0 6.5
vertex 6.19388 4.35583 6.5
vertex 6.14515 4.07164 6.5
endloop
endfacet
facet normal 0 0 1
outer loop
vertex 5.90847 3.54804 6.5
vertex 5.72732 3.3237 6.5
vertex 7 0 6.5
endloop
endfacet
facet normal 0 0 1
outer loop
vertex 7 0 6.5
vertex 5.72732 3.3237 6.5
vertex 5.51088 3.1332 6.5
endloop
endfacet
facet normal 0 0 1
outer loop
vertex 7 0 6.5
vertex 5.51088 3.1332 6.5
vertex 5.26535 2.98203 6.5
endloop
endfacet
facet normal 0 0 1
outer loop
vertex 4.14184 2.83816 6.5
vertex 3.86614 2.92259 6.5
vertex 2 0 6.5
endloop
endfacet
facet normal 0 0 1
outer loop
vertex 2 0 6.5
vertex 3.86614 2.92259 6.5
vertex 3.60868 3.0524 6.5
endloop
endfacet
facet normal 0 0 1
outer loop
vertex 2 0 6.5
vertex 3.60868 3.0524 6.5
vertex 3.37685 3.22386 6.5
endloop
endfacet
facet normal 0 0 1
outer loop
vertex 2.89711 5.06634 6.5
vertex 3.01588 5.32908 6.5
vertex 2 9 6.5
endloop
endfacet
facet normal 0 0 1
outer loop
vertex 2 9 6.5
vertex 3.01588 5.32908 6.5
vertex 3.17734 5.56797 6.5
endloop
endfacet
facet normal 0 0 1
outer loop
vertex 2 9 6.5
vertex 3.17734 5.56797 6.5
vertex 3.37685 5.77614 6.5
endloop
endfacet
facet normal 0 0 1
outer loop
vertex 2 9 6.5
vertex 4.42785 6.19847 6.5
vertex 7 9 6.5
endloop
endfacet
facet normal 0 0 1
outer loop
vertex 7 9 6.5
vertex 4.42785 6.19847 6.5
vertex 4.71593 6.18623 6.5
endloop
endfacet
facet normal 0 0 1
outer loop
vertex 7 9 6.5
vertex 4.71593 6.18623 6.5
vertex 4.9978 6.12548 6.5
endloop
endfacet
facet normal 0 0 1
outer loop
vertex 5.72732 5.6763 6.5
vertex 5.90847 5.45196 6.5
vertex 7 9 6.5
endloop
endfacet
facet normal 0 0 1
outer loop
vertex 7 9 6.5
vertex 5.90847 5.45196 6.5
vertex 6.04909 5.20023 6.5
endloop
endfacet
facet normal 0 0 1
outer loop
vertex 7 9 6.5
vertex 6.04909 5.20023 6.5
vertex 6.14515 4.92836 6.5
endloop
endfacet
facet normal 0 0 1
outer loop
vertex 3.37685 3.22386 6.5
vertex 3.17734 3.43203 6.5
vertex 2 0 6.5
endloop
endfacet
facet normal 0 0 1
outer loop
vertex 2 0 6.5
vertex 3.17734 3.43203 6.5
vertex 3.01588 3.67092 6.5
endloop
endfacet
facet normal 0 0 1
outer loop
vertex 2 0 6.5
vertex 3.01588 3.67092 6.5
vertex 2.89711 3.93366 6.5
endloop
endfacet
facet normal 0 0 1
outer loop
vertex 3.37685 5.77614 6.5
vertex 3.60868 5.9476 6.5
vertex 2 9 6.5
endloop
endfacet
facet normal 0 0 1
outer loop
vertex 2 9 6.5
vertex 3.60868 5.9476 6.5
vertex 3.86614 6.07741 6.5
endloop
endfacet
facet normal 0 0 1
outer loop
vertex 2 9 6.5
vertex 3.86614 6.07741 6.5
vertex 4.14184 6.16184 6.5
endloop
endfacet
facet normal 0 0 1
outer loop
vertex 2.89711 3.93366 6.5
vertex 2.82445 4.2127 6.5
vertex 2 0 6.5
endloop
endfacet
facet normal 0 0 1
outer loop
vertex 2 0 6.5
vertex 2.82445 4.2127 6.5
vertex 2.8 4.5 6.5
endloop
endfacet
facet normal 0 0 1
outer loop
vertex 2 0 6.5
vertex 2.8 4.5 6.5
vertex 2 9 6.5
endloop
endfacet
facet normal 0 0 1
outer loop
vertex 2 9 6.5
vertex 2.8 4.5 6.5
vertex 2.82445 4.7873 6.5
endloop
endfacet
facet normal 0 0 1
outer loop
vertex 2 9 6.5
vertex 2.82445 4.7873 6.5
vertex 2.89711 5.06634 6.5
endloop
endfacet
facet normal 0 0 1
outer loop
vertex 5.26535 2.98203 6.5
vertex 4.9978 2.87452 6.5
vertex 7 0 6.5
endloop
endfacet
facet normal 0 0 1
outer loop
vertex 7 0 6.5
vertex 4.9978 2.87452 6.5
vertex 4.71593 2.81377 6.5
endloop
endfacet
facet normal 0 0 1
outer loop
vertex 7 0 6.5
vertex 4.71593 2.81377 6.5
vertex 2 0 6.5
endloop
endfacet
facet normal 0 0 1
outer loop
vertex 2 0 6.5
vertex 4.71593 2.81377 6.5
vertex 4.42785 2.80153 6.5
endloop
endfacet
facet normal 0 0 1
outer loop
vertex 2 0 6.5
vertex 4.42785 2.80153 6.5
vertex 4.14184 2.83816 6.5
endloop
endfacet
facet normal -1 0 0
outer loop
vertex 2 0 2.5
vertex 2 0 6.5
vertex 2 9 2.5
endloop
endfacet
facet normal -1 0 0
outer loop
vertex 2 9 2.5
vertex 2 0 6.5
vertex 2 9 6.5
endloop
endfacet
facet normal 0 0 1
outer loop
vertex 0 0 2.5
vertex 2 0 2.5
vertex 0 9 2.5
endloop
endfacet
facet normal 0 0 1
outer loop
vertex 0 9 2.5
vertex 2 0 2.5
vertex 2 9 2.5
endloop
endfacet
facet normal -1 0 0
outer loop
vertex 0 0 0.25
vertex 0 0 2.5
vertex 0 9 0.25
endloop
endfacet
facet normal -1 0 0
outer loop
vertex 0 9 0.25
vertex 0 0 2.5
vertex 0 9 2.5
endloop
endfacet
facet normal 1 0 0
outer loop
vertex 9 0 2.5
vertex 9 0 0.25
vertex 9 9 2.5
endloop
endfacet
facet normal 1 0 0
outer loop
vertex 9 9 2.5
vertex 9 0 0.25
vertex 9 9 0.25
endloop
endfacet
facet normal 0.485944 0.123058 -0.865283
outer loop
vertex 2.60837 3.8506 1.87271e-011
vertex 2.52728 4.17081 1.87271e-011
vertex 2.82504 4.21285 0.173205
endloop
endfacet
facet normal 0.485944 0.123058 -0.865283
outer loop
vertex 2.82504 4.21285 0.173205
vertex 2.89211 3.94801 0.173205
vertex 2.60837 3.8506 1.87271e-011
endloop
endfacet
facet normal 0.459061 0.201366 -0.865283
outer loop
vertex 2.60837 3.8506 1.87271e-011
vertex 2.89211 3.94801 0.173205
vertex 2.8982 3.93414 0.173205
endloop
endfacet
facet normal 0.459062 0.201363 -0.865283
outer loop
vertex 2.60837 3.8506 1.87271e-011
vertex 2.8982 3.93414 0.173205
vertex 2.74105 3.54811 1.87271e-011
endloop
endfacet
facet normal 0.459062 0.201363 -0.865283
outer loop
vertex 2.8982 3.93414 0.173205
vertex 3.00489 3.69089 0.173205
vertex 2.74105 3.54811 1.87271e-011
endloop
endfacet
facet normal 0.419657 0.274177 -0.865283
outer loop
vertex 2.74105 3.54811 1.87271e-011
vertex 3.00489 3.69089 0.173205
vertex 3.01732 3.67186 0.173205
endloop
endfacet
facet normal 0.419658 0.274176 -0.865283
outer loop
vertex 2.74105 3.54811 1.87271e-011
vertex 3.01732 3.67186 0.173205
vertex 2.92172 3.27157 1.87271e-011
endloop
endfacet
facet normal 0.419658 0.274176 -0.865283
outer loop
vertex 3.01732 3.67186 0.173205
vertex 3.15846 3.45584 0.173205
vertex 2.92172 3.27157 1.87271e-011
endloop
endfacet
facet normal 0.368807 0.339509 -0.865283
outer loop
vertex 2.92172 3.27157 1.87271e-011
vertex 3.15846 3.45584 0.173205
vertex 3.17899 3.43354 0.173205
endloop
endfacet
facet normal 0.368806 0.33951 -0.865283
outer loop
vertex 2.92172 3.27157 1.87271e-011
vertex 3.17899 3.43354 0.173205
vertex 3.14544 3.02855 1.87271e-011
endloop
endfacet
facet normal 0.368806 0.33951 -0.865283
outer loop
vertex 3.17899 3.43354 0.173205
vertex 3.34862 3.24927 0.173205
vertex 3.14544 3.02855 1.87271e-011
endloop
endfacet
facet normal 0.307895 0.395583 -0.865283
outer loop
vertex 3.14544 3.02855 1.87271e-011
vertex 3.34862 3.24927 0.173205
vertex 3.37852 3.226 0.173205
endloop
endfacet
facet normal 0.307895 0.395583 -0.865283
outer loop
vertex 3.14544 3.02855 1.87271e-011
vertex 3.37852 3.226 0.173205
vertex 3.4061 2.82567 1.87271e-011
endloop
endfacet
facet normal 0.307895 0.395583 -0.865283
outer loop
vertex 3.37852 3.226 0.173205
vertex 3.57019 3.07682 0.173205
vertex 3.4061 2.82567 1.87271e-011
endloop
endfacet
facet normal 0.238583 0.440866 -0.865283
outer loop
vertex 3.4061 2.82567 1.87271e-011
vertex 3.57019 3.07682 0.173205
vertex 3.61018 3.05517 0.173205
endloop
endfacet
facet normal 0.238584 0.440866 -0.865283
outer loop
vertex 3.4061 2.82567 1.87271e-011
vertex 3.61018 3.05517 0.173205
vertex 3.69661 2.66845 1.87271e-011
endloop
endfacet
facet normal 0.238585 0.440866 -0.865283
outer loop
vertex 3.61018 3.05517 0.173205
vertex 3.81712 2.94319 0.173205
vertex 3.69661 2.66845 1.87271e-011
endloop
endfacet
facet normal 0.162765 0.474123 -0.865283
outer loop
vertex 3.69661 2.66845 1.87271e-011
vertex 3.81712 2.94319 0.173205
vertex 3.8673 2.92596 0.173205
endloop
endfacet
facet normal 0.162767 0.474123 -0.865283
outer loop
vertex 3.69661 2.66845 1.87271e-011
vertex 3.8673 2.92596 0.173205
vertex 4.00903 2.5612 1.87271e-011
endloop
endfacet
facet normal 0.162767 0.474123 -0.865283
outer loop
vertex 3.8673 2.92596 0.173205
vertex 4.08267 2.85202 0.173205
vertex 4.00903 2.5612 1.87271e-011
endloop
endfacet
facet normal 0.0825077 0.494447 -0.865283
outer loop
vertex 4.00903 2.5612 1.87271e-011
vertex 4.08267 2.85202 0.173205
vertex 4.14249 2.84204 0.173205
endloop
endfacet
facet normal 0.0825087 0.494446 -0.865283
outer loop
vertex 4.00903 2.5612 1.87271e-011
vertex 4.14249 2.84204 0.173205
vertex 4.33484 2.50683 1.87272e-011
endloop
endfacet
facet normal 0.0825087 0.494447 -0.865283
outer loop
vertex 4.14249 2.84204 0.173205
vertex 4.35961 2.80581 0.173205
vertex 4.33484 2.50683 1.87272e-011
endloop
endfacet
facet normal 0 0.501283 -0.865283
outer loop
vertex 4.33484 2.50683 1.87272e-011
vertex 4.35961 2.80581 0.173205
vertex 4.42785 2.80581 0.173205
endloop
endfacet
facet normal 8.63396e-017 0.501283 -0.865283
outer loop
vertex 4.33484 2.50683 1.87272e-011
vertex 4.42785 2.80581 0.173205
vertex 4.66516 2.50683 1.87272e-011
endloop
endfacet
facet normal 0 0.501283 -0.865283
outer loop
vertex 4.42785 2.80581 0.173205
vertex 4.64038 2.80581 0.173205
vertex 4.66516 2.50683 1.87272e-011
endloop
endfacet
facet normal -0.0825086 0.494447 -0.865283
outer loop
vertex 4.66516 2.50683 1.87272e-011
vertex 4.64038 2.80581 0.173205
vertex 4.71518 2.81829 0.173205
endloop
endfacet
facet normal -0.0825087 0.494447 -0.865283
outer loop
vertex 4.66516 2.50683 1.87272e-011
vertex 4.71518 2.81829 0.173205
vertex 4.99097 2.5612 1.87272e-011
endloop
endfacet
facet normal -0.0825085 0.494447 -0.865283
outer loop
vertex 4.71518 2.81829 0.173205
vertex 4.91733 2.85202 0.173205
vertex 4.99097 2.5612 1.87272e-011
endloop
endfacet
facet normal -0.162766 0.474123 -0.865283
outer loop
vertex 4.99097 2.5612 1.87272e-011
vertex 4.91733 2.85202 0.173205
vertex 4.99622 2.87911 0.173205
endloop
endfacet
facet normal -0.162767 0.474123 -0.865283
outer loop
vertex 4.99097 2.5612 1.87272e-011
vertex 4.99622 2.87911 0.173205
vertex 5.30339 2.66845 1.87273e-011
endloop
endfacet
facet normal -0.162767 0.474123 -0.865283
outer loop
vertex 4.99622 2.87911 0.173205
vertex 5.18288 2.94319 0.173205
vertex 5.30339 2.66845 1.87273e-011
endloop
endfacet
facet normal -0.238585 0.440865 -0.865283
outer loop
vertex 5.30339 2.66845 1.87273e-011
vertex 5.18288 2.94319 0.173205
vertex 5.26292 2.9865 0.173205
endloop
endfacet
facet normal -0.238585 0.440865 -0.865283
outer loop
vertex 5.30339 2.66845 1.87273e-011
vertex 5.26292 2.9865 0.173205
vertex 5.5939 2.82567 1.87274e-011
endloop
endfacet
facet normal -0.238584 0.440866 -0.865283
outer loop
vertex 5.26292 2.9865 0.173205
vertex 5.42981 3.07682 0.173205
vertex 5.5939 2.82567 1.87274e-011
endloop
endfacet
facet normal -0.307896 0.395583 -0.865283
outer loop
vertex 5.5939 2.82567 1.87274e-011
vertex 5.42981 3.07682 0.173205
vertex 5.50763 3.13738 0.173205
endloop
endfacet
facet normal -0.307895 0.395583 -0.865283
outer loop
vertex 5.5939 2.82567 1.87274e-011
vertex 5.50763 3.13738 0.173205
vertex 5.85456 3.02855 1.87274e-011
endloop
endfacet
facet normal -0.307895 0.395584 -0.865283
outer loop
vertex 5.50763 3.13738 0.173205
vertex 5.65138 3.24927 0.173205
vertex 5.85456 3.02855 1.87274e-011
endloop
endfacet
facet normal -0.368807 0.33951 -0.865283
outer loop
vertex 5.85456 3.02855 1.87274e-011
vertex 5.65138 3.24927 0.173205
vertex 5.72331 3.3274 0.173205
endloop
endfacet
facet normal -0.368806 0.33951 -0.865283
outer loop
vertex 5.85456 3.02855 1.87274e-011
vertex 5.72331 3.3274 0.173205
vertex 6.07828 3.27157 1.87275e-011
endloop
endfacet
facet normal -0.368806 0.339511 -0.865283
outer loop
vertex 5.72331 3.3274 0.173205
vertex 5.84154 3.45584 0.173205
vertex 6.07828 3.27157 1.87275e-011
endloop
endfacet
facet normal -0.419658 0.274176 -0.865283
outer loop
vertex 6.07828 3.27157 1.87275e-011
vertex 5.84154 3.45584 0.173205
vertex 5.90378 3.5511 0.173205
endloop
endfacet
facet normal -0.419658 0.274176 -0.865283
outer loop
vertex 6.07828 3.27157 1.87275e-011
vertex 5.90378 3.5511 0.173205
vertex 6.25895 3.54811 1.87275e-011
endloop
endfacet
facet normal -0.419658 0.274175 -0.865283
outer loop
vertex 5.90378 3.5511 0.173205
vertex 5.9951 3.69089 0.173205
vertex 6.25895 3.54811 1.87275e-011
endloop
endfacet
facet normal -0.459061 0.201364 -0.865283
outer loop
vertex 6.25895 3.54811 1.87275e-011
vertex 5.9951 3.69089 0.173205
vertex 6.04387 3.80206 0.173205
endloop
endfacet
facet normal -0.459062 0.201363 -0.865283
outer loop
vertex 6.25895 3.54811 1.87275e-011
vertex 6.04387 3.80206 0.173205
vertex 6.39163 3.8506 1.87276e-011
endloop
endfacet
facet normal -0.459062 0.201364 -0.865283
outer loop
vertex 6.04387 3.80206 0.173205
vertex 6.10789 3.94801 0.173205
vertex 6.39163 3.8506 1.87276e-011
endloop
endfacet
facet normal -0.485945 0.123057 -0.865283
outer loop
vertex 6.39163 3.8506 1.87276e-011
vertex 6.10789 3.94801 0.173205
vertex 6.13955 4.07305 0.173205
endloop
endfacet
facet normal -0.485944 0.123058 -0.865283
outer loop
vertex 6.39163 3.8506 1.87276e-011
vertex 6.13955 4.07305 0.173205
vertex 6.47272 4.17081 1.87276e-011
endloop
endfacet
facet normal -0.485944 0.123059 -0.865283
outer loop
vertex 6.13955 4.07305 0.173205
vertex 6.17681 4.22019 0.173205
vertex 6.47272 4.17081 1.87276e-011
endloop
endfacet
facet normal -0.499571 0.0413953 -0.865283
outer loop
vertex 6.47272 4.17081 1.87276e-011
vertex 6.17681 4.22019 0.173205
vertex 6.18809 4.35631 0.173205
endloop
endfacet
facet normal -0.499571 0.0413957 -0.865283
outer loop
vertex 6.47272 4.17081 1.87276e-011
vertex 6.18809 4.35631 0.173205
vertex 6.5 4.5 1.87277e-011
endloop
endfacet
facet normal -0.499571 0.0413958 -0.865283
outer loop
vertex 6.5 4.5 1.87277e-011
vertex 6.18809 4.35631 0.173205
vertex 6.2 4.5 0.173205
endloop
endfacet
facet normal -0.499571 -0.0413958 -0.865283
outer loop
vertex 6.5 4.5 1.87277e-011
vertex 6.2 4.5 0.173205
vertex 6.47272 4.82919 1.87277e-011
endloop
endfacet
facet normal -0.499571 -0.0413959 -0.865283
outer loop
vertex 6.2 4.5 0.173205
vertex 6.18809 4.64369 0.173205
vertex 6.47272 4.82919 1.87277e-011
endloop
endfacet
facet normal -0.499571 -0.0413953 -0.865283
outer loop
vertex 6.47272 4.82919 1.87277e-011
vertex 6.18809 4.64369 0.173205
vertex 6.17681 4.77981 0.173205
endloop
endfacet
facet normal -0.485944 -0.123058 -0.865283
outer loop
vertex 6.47272 4.82919 1.87277e-011
vertex 6.17681 4.77981 0.173205
vertex 6.39163 5.1494 1.87277e-011
endloop
endfacet
facet normal -0.485944 -0.123058 -0.865283
outer loop
vertex 6.17681 4.77981 0.173205
vertex 6.13955 4.92695 0.173205
vertex 6.39163 5.1494 1.87277e-011
endloop
endfacet
facet normal -0.485945 -0.123057 -0.865283
outer loop
vertex 6.39163 5.1494 1.87277e-011
vertex 6.13955 4.92695 0.173205
vertex 6.10789 5.05199 0.173205
endloop
endfacet
facet normal -0.459062 -0.201364 -0.865283
outer loop
vertex 6.39163 5.1494 1.87277e-011
vertex 6.10789 5.05199 0.173205
vertex 6.25895 5.45189 1.87278e-011
endloop
endfacet
facet normal -0.459062 -0.201364 -0.865283
outer loop
vertex 6.10789 5.05199 0.173205
vertex 6.04387 5.19794 0.173205
vertex 6.25895 5.45189 1.87278e-011
endloop
endfacet
facet normal -0.459061 -0.201364 -0.865283
outer loop
vertex 6.25895 5.45189 1.87278e-011
vertex 6.04387 5.19794 0.173205
vertex 5.9951 5.30911 0.173205
endloop
endfacet
facet normal -0.419658 -0.274176 -0.865283
outer loop
vertex 6.25895 5.45189 1.87278e-011
vertex 5.9951 5.30911 0.173205
vertex 6.07828 5.72843 1.87278e-011
endloop
endfacet
facet normal -0.419659 -0.274175 -0.865283
outer loop
vertex 5.9951 5.30911 0.173205
vertex 5.90378 5.44889 0.173205
vertex 6.07828 5.72843 1.87278e-011
endloop
endfacet
facet normal -0.419658 -0.274176 -0.865283
outer loop
vertex 6.07828 5.72843 1.87278e-011
vertex 5.90378 5.44889 0.173205
vertex 5.84154 5.54416 0.173205
endloop
endfacet
facet normal -0.368806 -0.339511 -0.865283
outer loop
vertex 6.07828 5.72843 1.87278e-011
vertex 5.84154 5.54416 0.173205
vertex 5.85456 5.97145 1.87278e-011
endloop
endfacet
facet normal -0.368807 -0.33951 -0.865283
outer loop
vertex 5.84154 5.54416 0.173205
vertex 5.72331 5.6726 0.173205
vertex 5.85456 5.97145 1.87278e-011
endloop
endfacet
facet normal -0.368806 -0.339511 -0.865283
outer loop
vertex 5.85456 5.97145 1.87278e-011
vertex 5.72331 5.6726 0.173205
vertex 5.65138 5.75073 0.173205
endloop
endfacet
facet normal -0.307895 -0.395583 -0.865283
outer loop
vertex 5.85456 5.97145 1.87278e-011
vertex 5.65138 5.75073 0.173205
vertex 5.5939 6.17433 1.87278e-011
endloop
endfacet
facet normal -0.307894 -0.395583 -0.865283
outer loop
vertex 5.65138 5.75073 0.173205
vertex 5.50763 5.86262 0.173205
vertex 5.5939 6.17433 1.87278e-011
endloop
endfacet
facet normal -0.307895 -0.395583 -0.865283
outer loop
vertex 5.5939 6.17433 1.87278e-011
vertex 5.50763 5.86262 0.173205
vertex 5.42981 5.92318 0.173205
endloop
endfacet
facet normal -0.238584 -0.440866 -0.865283
outer loop
vertex 5.5939 6.17433 1.87278e-011
vertex 5.42981 5.92318 0.173205
vertex 5.30339 6.33155 1.87277e-011
endloop
endfacet
facet normal -0.238584 -0.440866 -0.865283
outer loop
vertex 5.42981 5.92318 0.173205
vertex 5.26292 6.0135 0.173205
vertex 5.30339 6.33155 1.87277e-011
endloop
endfacet
facet normal -0.238586 -0.440865 -0.865283
outer loop
vertex 5.30339 6.33155 1.87277e-011
vertex 5.26292 6.0135 0.173205
vertex 5.18288 6.05681 0.173205
endloop
endfacet
facet normal -0.162767 -0.474123 -0.865283
outer loop
vertex 5.30339 6.33155 1.87277e-011
vertex 5.18288 6.05681 0.173205
vertex 4.99097 6.4388 1.87277e-011
endloop
endfacet
facet normal -0.162766 -0.474123 -0.865283
outer loop
vertex 5.18288 6.05681 0.173205
vertex 4.99622 6.12089 0.173205
vertex 4.99097 6.4388 1.87277e-011
endloop
endfacet
facet normal -0.162766 -0.474123 -0.865283
outer loop
vertex 4.99097 6.4388 1.87277e-011
vertex 4.99622 6.12089 0.173205
vertex 4.91733 6.14798 0.173205
endloop
endfacet
facet normal -0.0825087 -0.494447 -0.865283
outer loop
vertex 4.99097 6.4388 1.87277e-011
vertex 4.91733 6.14798 0.173205
vertex 4.66516 6.49317 1.87277e-011
endloop
endfacet
facet normal -0.0825091 -0.494447 -0.865283
outer loop
vertex 4.91733 6.14798 0.173205
vertex 4.71518 6.18171 0.173205
vertex 4.66516 6.49317 1.87277e-011
endloop
endfacet
facet normal -0.0825071 -0.494447 -0.865283
outer loop
vertex 4.66516 6.49317 1.87277e-011
vertex 4.71518 6.18171 0.173205
vertex 4.64038 6.19419 0.173205
endloop
endfacet
facet normal 1.04516e-016 -0.501283 -0.865283
outer loop
vertex 4.66516 6.49317 1.87277e-011
vertex 4.64038 6.19419 0.173205
vertex 4.33484 6.49317 1.87277e-011
endloop
endfacet
facet normal 0 -0.501283 -0.865283
outer loop
vertex 4.64038 6.19419 0.173205
vertex 4.42785 6.19419 0.173205
vertex 4.33484 6.49317 1.87277e-011
endloop
endfacet
facet normal 0 -0.501283 -0.865283
outer loop
vertex 4.33484 6.49317 1.87277e-011
vertex 4.42785 6.19419 0.173205
vertex 4.35961 6.19419 0.173205
endloop
endfacet
facet normal 0.0825087 -0.494447 -0.865283
outer loop
vertex 4.33484 6.49317 1.87277e-011
vertex 4.35961 6.19419 0.173205
vertex 4.00903 6.4388 1.87276e-011
endloop
endfacet
facet normal 0.0825083 -0.494447 -0.865283
outer loop
vertex 4.35961 6.19419 0.173205
vertex 4.14249 6.15796 0.173205
vertex 4.00903 6.4388 1.87276e-011
endloop
endfacet
facet normal 0.0825096 -0.494446 -0.865283
outer loop
vertex 4.00903 6.4388 1.87276e-011
vertex 4.14249 6.15796 0.173205
vertex 4.08267 6.14798 0.173205
endloop
endfacet
facet normal 0.162767 -0.474123 -0.865283
outer loop
vertex 4.00903 6.4388 1.87276e-011
vertex 4.08267 6.14798 0.173205
vertex 3.69661 6.33155 1.87276e-011
endloop
endfacet
facet normal 0.162767 -0.474122 -0.865283
outer loop
vertex 4.08267 6.14798 0.173205
vertex 3.8673 6.07404 0.173205
vertex 3.69661 6.33155 1.87276e-011
endloop
endfacet
facet normal 0.162762 -0.474125 -0.865283
outer loop
vertex 3.69661 6.33155 1.87276e-011
vertex 3.8673 6.07404 0.173205
vertex 3.81712 6.05681 0.173205
endloop
endfacet
facet normal 0.238584 -0.440866 -0.865283
outer loop
vertex 3.69661 6.33155 1.87276e-011
vertex 3.81712 6.05681 0.173205
vertex 3.4061 6.17433 1.87275e-011
endloop
endfacet
facet normal 0.238585 -0.440865 -0.865284
outer loop
vertex 3.81712 6.05681 0.173205
vertex 3.61018 5.94482 0.173205
vertex 3.4061 6.17433 1.87275e-011
endloop
endfacet
facet normal 0.238585 -0.440865 -0.865284
outer loop
vertex 3.4061 6.17433 1.87275e-011
vertex 3.61018 5.94482 0.173205
vertex 3.57019 5.92318 0.173205
endloop
endfacet
facet normal 0.307895 -0.395582 -0.865283
outer loop
vertex 3.4061 6.17433 1.87275e-011
vertex 3.57019 5.92318 0.173205
vertex 3.14544 5.97145 1.87274e-011
endloop
endfacet
facet normal 0.307895 -0.395583 -0.865283
outer loop
vertex 3.57019 5.92318 0.173205
vertex 3.37852 5.774 0.173205
vertex 3.14544 5.97145 1.87274e-011
endloop
endfacet
facet normal 0.307893 -0.395585 -0.865283
outer loop
vertex 3.14544 5.97145 1.87274e-011
vertex 3.37852 5.774 0.173205
vertex 3.34862 5.75073 0.173205
endloop
endfacet
facet normal 0.368806 -0.339511 -0.865283
outer loop
vertex 3.14544 5.97145 1.87274e-011
vertex 3.34862 5.75073 0.173205
vertex 2.92172 5.72843 1.87274e-011
endloop
endfacet
facet normal 0.368806 -0.33951 -0.865283
outer loop
vertex 3.34862 5.75073 0.173205
vertex 3.17899 5.56646 0.173205
vertex 2.92172 5.72843 1.87274e-011
endloop
endfacet
facet normal 0.368807 -0.339509 -0.865283
outer loop
vertex 2.92172 5.72843 1.87274e-011
vertex 3.17899 5.56646 0.173205
vertex 3.15846 5.54416 0.173205
endloop
endfacet
facet normal 0.419658 -0.274175 -0.865283
outer loop
vertex 2.92172 5.72843 1.87274e-011
vertex 3.15846 5.54416 0.173205
vertex 2.74105 5.45189 1.87273e-011
endloop
endfacet
facet normal 0.419658 -0.274176 -0.865283
outer loop
vertex 3.15846 5.54416 0.173205
vertex 3.01732 5.32814 0.173205
vertex 2.74105 5.45189 1.87273e-011
endloop
endfacet
facet normal 0.419656 -0.27418 -0.865283
outer loop
vertex 2.74105 5.45189 1.87273e-011
vertex 3.01732 5.32814 0.173205
vertex 3.00489 5.30911 0.173205
endloop
endfacet
facet normal 0.459062 -0.201364 -0.865283
outer loop
vertex 2.74105 5.45189 1.87273e-011
vertex 3.00489 5.30911 0.173205
vertex 2.60837 5.1494 1.87273e-011
endloop
endfacet
facet normal 0.459062 -0.201363 -0.865283
outer loop
vertex 3.00489 5.30911 0.173205
vertex 2.8982 5.06586 0.173205
vertex 2.60837 5.1494 1.87273e-011
endloop
endfacet
facet normal 0.459062 -0.201363 -0.865283
outer loop
vertex 2.60837 5.1494 1.87273e-011
vertex 2.8982 5.06586 0.173205
vertex 2.89211 5.05199 0.173205
endloop
endfacet
facet normal 0.485944 -0.123058 -0.865283
outer loop
vertex 2.60837 5.1494 1.87273e-011
vertex 2.89211 5.05199 0.173205
vertex 2.52728 4.82919 1.87272e-011
endloop
endfacet
facet normal 0.485944 -0.123058 -0.865283
outer loop
vertex 2.89211 5.05199 0.173205
vertex 2.82504 4.78715 0.173205
vertex 2.52728 4.82919 1.87272e-011
endloop
endfacet
facet normal 0.485945 -0.123057 -0.865283
outer loop
vertex 2.52728 4.82919 1.87272e-011
vertex 2.82504 4.78715 0.173205
vertex 2.82319 4.77981 0.173205
endloop
endfacet
facet normal 0.499571 -0.0413958 -0.865283
outer loop
vertex 2.52728 4.82919 1.87272e-011
vertex 2.82319 4.77981 0.173205
vertex 2.5 4.5 1.87272e-011
endloop
endfacet
facet normal 0.499571 -0.0413956 -0.865283
outer loop
vertex 2.5 4.5 1.87272e-011
vertex 2.82319 4.77981 0.173205
vertex 2.8 4.5 0.173205
endloop
endfacet
facet normal 0.499571 0.0413958 -0.865283
outer loop
vertex 2.5 4.5 1.87272e-011
vertex 2.8 4.5 0.173205
vertex 2.52728 4.17081 1.87271e-011
endloop
endfacet
facet normal 0.499571 0.0413956 -0.865283
outer loop
vertex 2.52728 4.17081 1.87271e-011
vertex 2.8 4.5 0.173205
vertex 2.82319 4.22019 0.173205
endloop
endfacet
facet normal 0.485945 0.123057 -0.865283
outer loop
vertex 2.52728 4.17081 1.87271e-011
vertex 2.82319 4.22019 0.173205
vertex 2.82504 4.21285 0.173205
endloop
endfacet
facet normal 0 -1 0
outer loop
vertex 9 0 0.25
vertex 9 0 2.5
vertex 7 0 2.5
endloop
endfacet
facet normal 0 -1 0
outer loop
vertex 7 0 6.5
vertex 2 0 6.5
vertex 7 0 2.5
endloop
endfacet
facet normal 0 -1 0
outer loop
vertex 7 0 2.5
vertex 2 0 6.5
vertex 2 0 2.5
endloop
endfacet
facet normal 0 -1 0
outer loop
vertex 0 0 2.5
vertex 0 0 0.25
vertex 2 0 2.5
endloop
endfacet
facet normal 0 -1 0
outer loop
vertex 2 0 2.5
vertex 0 0 0.25
vertex 0.25 0 7.55711e-011
endloop
endfacet
facet normal 0 -1 0
outer loop
vertex 2 0 2.5
vertex 0.25 0 7.55711e-011
vertex 7 0 2.5
endloop
endfacet
facet normal 0 -1 0
outer loop
vertex 7 0 2.5
vertex 0.25 0 7.55711e-011
vertex 8.75 0 7.55711e-011
endloop
endfacet
facet normal 0 -1 0
outer loop
vertex 7 0 2.5
vertex 8.75 0 7.55711e-011
vertex 9 0 0.25
endloop
endfacet
facet normal -0.707107 -5.45171e-019 -0.707106
outer loop
vertex 0.25 0 7.55711e-011
vertex 0 0 0.25
vertex 0.25 9 7.55711e-011
endloop
endfacet
facet normal -0.707107 0 -0.707106
outer loop
vertex 0.25 9 7.55711e-011
vertex 0 0 0.25
vertex 0 9 0.25
endloop
endfacet
facet normal 0 1 0
outer loop
vertex 0 9 0.25
vertex 0 9 2.5
vertex 2 9 2.5
endloop
endfacet
facet normal 0 1 0
outer loop
vertex 2 9 6.5
vertex 7 9 6.5
vertex 2 9 2.5
endloop
endfacet
facet normal 0 1 0
outer loop
vertex 2 9 2.5
vertex 7 9 6.5
vertex 7 9 2.5
endloop
endfacet
facet normal 0 1 0
outer loop
vertex 9 9 2.5
vertex 9 9 0.25
vertex 7 9 2.5
endloop
endfacet
facet normal 0 1 0
outer loop
vertex 7 9 2.5
vertex 9 9 0.25
vertex 8.75 9 7.55711e-011
endloop
endfacet
facet normal 0 1 0
outer loop
vertex 7 9 2.5
vertex 8.75 9 7.55711e-011
vertex 2 9 2.5
endloop
endfacet
facet normal 0 1 0
outer loop
vertex 2 9 2.5
vertex 8.75 9 7.55711e-011
vertex 0.25 9 7.55711e-011
endloop
endfacet
facet normal 0 1 0
outer loop
vertex 2 9 2.5
vertex 0.25 9 7.55711e-011
vertex 0 9 0.25
endloop
endfacet
facet normal 0.707107 0 -0.707107
outer loop
vertex 9 0 0.25
vertex 8.75 0 7.55711e-011
vertex 9 9 0.25
endloop
endfacet
facet normal 0.707107 0 -0.707107
outer loop
vertex 9 9 0.25
vertex 8.75 0 7.55711e-011
vertex 8.75 9 7.55711e-011
endloop
endfacet
facet normal -6.7853e-012 -1.25383e-011 -1
outer loop
vertex 3.4061 2.82567 1.87271e-011
vertex 3.69661 2.66845 1.87271e-011
vertex 0.25 0 7.55711e-011
endloop
endfacet
facet normal 5.06662e-012 -1.47581e-011 -1
outer loop
vertex 4.99097 2.5612 1.87272e-011
vertex 5.30339 2.66845 1.87273e-011
vertex 8.75 0 7.55711e-011
endloop
endfacet
facet normal 6.78543e-012 -1.2538e-011 -1
outer loop
vertex 8.75 0 7.55711e-011
vertex 5.30339 2.66845 1.87273e-011
vertex 5.5939 2.82567 1.87274e-011
endloop
endfacet
facet normal 8.3761e-012 -1.07613e-011 -1
outer loop
vertex 8.75 0 7.55711e-011
vertex 5.5939 2.82567 1.87274e-011
vertex 5.85456 3.02855 1.87274e-011
endloop
endfacet
facet normal -5.06646e-012 -1.47583e-011 -1
outer loop
vertex 3.69661 2.66845 1.87271e-011
vertex 4.00903 2.5612 1.87271e-011
vertex 0.25 0 7.55711e-011
endloop
endfacet
facet normal -2.97488e-012 -1.78281e-011 -1
outer loop
vertex 0.25 0 7.55711e-011
vertex 4.00903 2.5612 1.87271e-011
vertex 4.33484 2.50683 1.87272e-011
endloop
endfacet
facet normal 0 -2.26756e-011 -1
outer loop
vertex 0.25 0 7.55711e-011
vertex 4.33484 2.50683 1.87272e-011
vertex 8.75 0 7.55711e-011
endloop
endfacet
facet normal 9.97819e-017 -2.26755e-011 -1
outer loop
vertex 8.75 0 7.55711e-011
vertex 4.33484 2.50683 1.87272e-011
vertex 4.66516 2.50683 1.87272e-011
endloop
endfacet
facet normal 2.97508e-012 -1.78278e-011 -1
outer loop
vertex 8.75 0 7.55711e-011
vertex 4.66516 2.50683 1.87272e-011
vertex 4.99097 2.5612 1.87272e-011
endloop
endfacet
facet normal -1.70526e-011 -4.31822e-012 -1
outer loop
vertex 2.52728 4.17081 1.87271e-011
vertex 2.60837 3.8506 1.87271e-011
vertex 0.25 0 7.55711e-011
endloop
endfacet
facet normal -1.40447e-011 -6.16049e-012 -1
outer loop
vertex 0.25 0 7.55711e-011
vertex 2.60837 3.8506 1.87271e-011
vertex 2.74105 3.54811 1.87271e-011
endloop
endfacet
facet normal -1.182e-011 -7.72235e-012 -1
outer loop
vertex 2.74105 3.54811 1.87271e-011
vertex 2.92172 3.27157 1.87271e-011
vertex 0.25 0 7.55711e-011
endloop
endfacet
facet normal -1.00018e-011 -9.20724e-012 -1
outer loop
vertex 0.25 0 7.55711e-011
vertex 2.92172 3.27157 1.87271e-011
vertex 3.14544 3.02855 1.87271e-011
endloop
endfacet
facet normal -8.37602e-012 -1.07615e-011 -1
outer loop
vertex 0.25 0 7.55711e-011
vertex 3.14544 3.02855 1.87271e-011
vertex 3.4061 2.82567 1.87271e-011
endloop
endfacet
facet normal -1.18198e-011 7.72244e-012 -1
outer loop
vertex 2.74105 5.45189 1.87273e-011
vertex 0.25 9 7.55711e-011
vertex 2.92172 5.72843 1.87274e-011
endloop
endfacet
facet normal -1.00015e-011 9.20733e-012 -1
outer loop
vertex 2.92172 5.72843 1.87274e-011
vertex 0.25 9 7.55711e-011
vertex 3.14544 5.97145 1.87274e-011
endloop
endfacet
facet normal -1.40444e-011 6.16062e-012 -1
outer loop
vertex 2.74105 5.45189 1.87273e-011
vertex 2.60837 5.1494 1.87273e-011
vertex 0.25 9 7.55711e-011
endloop
endfacet
facet normal -1.70523e-011 4.31837e-012 -1
outer loop
vertex 0.25 9 7.55711e-011
vertex 2.60837 5.1494 1.87273e-011
vertex 2.52728 4.82919 1.87272e-011
endloop
endfacet
facet normal -2.49613e-011 -7.70988e-019 -1
outer loop
vertex 0.25 9 7.55711e-011
vertex 2.52728 4.82919 1.87272e-011
vertex 0.25 0 7.55711e-011
endloop
endfacet
facet normal -3.02829e-011 2.50947e-012 -1
outer loop
vertex 0.25 0 7.55711e-011
vertex 2.52728 4.82919 1.87272e-011
vertex 2.5 4.5 1.87272e-011
endloop
endfacet
facet normal -2.16725e-011 -1.79574e-012 -1
outer loop
vertex 0.25 0 7.55711e-011
vertex 2.5 4.5 1.87272e-011
vertex 2.52728 4.17081 1.87271e-011
endloop
endfacet
facet normal 1.00018e-011 -9.20708e-012 -1
outer loop
vertex 5.85456 3.02855 1.87274e-011
vertex 6.07828 3.27157 1.87275e-011
vertex 8.75 0 7.55711e-011
endloop
endfacet
facet normal 1.182e-011 -7.72222e-012 -1
outer loop
vertex 8.75 0 7.55711e-011
vertex 6.07828 3.27157 1.87275e-011
vertex 6.25895 3.54811 1.87275e-011
endloop
endfacet
facet normal 1.40446e-011 -6.16038e-012 -1
outer loop
vertex 8.75 0 7.55711e-011
vertex 6.25895 3.54811 1.87275e-011
vertex 6.39163 3.8506 1.87276e-011
endloop
endfacet
facet normal 2.1672e-011 1.7959e-012 -1
outer loop
vertex 6.47272 4.82919 1.87277e-011
vertex 8.75 9 7.55711e-011
vertex 6.5 4.5 1.87277e-011
endloop
endfacet
facet normal 2.52638e-011 0 -1
outer loop
vertex 6.5 4.5 1.87277e-011
vertex 8.75 9 7.55711e-011
vertex 8.75 0 7.55711e-011
endloop
endfacet
facet normal 2.16724e-011 -1.79568e-012 -1
outer loop
vertex 6.5 4.5 1.87277e-011
vertex 8.75 0 7.55711e-011
vertex 6.47272 4.17081 1.87276e-011
endloop
endfacet
facet normal 1.70525e-011 -4.31814e-012 -1
outer loop
vertex 6.47272 4.17081 1.87276e-011
vertex 8.75 0 7.55711e-011
vertex 6.39163 3.8506 1.87276e-011
endloop
endfacet
facet normal 1.70522e-011 4.3183e-012 -1
outer loop
vertex 6.47272 4.82919 1.87277e-011
vertex 6.39163 5.1494 1.87277e-011
vertex 8.75 9 7.55711e-011
endloop
endfacet
facet normal 1.40444e-011 6.16051e-012 -1
outer loop
vertex 8.75 9 7.55711e-011
vertex 6.39163 5.1494 1.87277e-011
vertex 6.25895 5.45189 1.87278e-011
endloop
endfacet
facet normal 1.18198e-011 7.7223e-012 -1
outer loop
vertex 8.75 9 7.55711e-011
vertex 6.25895 5.45189 1.87278e-011
vertex 6.07828 5.72843 1.87278e-011
endloop
endfacet
facet normal 1.00016e-011 9.20716e-012 -1
outer loop
vertex 6.07828 5.72843 1.87278e-011
vertex 5.85456 5.97145 1.87278e-011
vertex 8.75 9 7.55711e-011
endloop
endfacet
facet normal 8.37595e-012 1.07614e-011 -1
outer loop
vertex 8.75 9 7.55711e-011
vertex 5.85456 5.97145 1.87278e-011
vertex 5.5939 6.17433 1.87278e-011
endloop
endfacet
facet normal 6.78529e-012 1.2538e-011 -1
outer loop
vertex 8.75 9 7.55711e-011
vertex 5.5939 6.17433 1.87278e-011
vertex 5.30339 6.33155 1.87277e-011
endloop
endfacet
facet normal -5.06636e-012 1.47583e-011 -1
outer loop
vertex 4.00903 6.4388 1.87276e-011
vertex 3.69661 6.33155 1.87276e-011
vertex 0.25 9 7.55711e-011
endloop
endfacet
facet normal -6.78516e-012 1.25383e-011 -1
outer loop
vertex 0.25 9 7.55711e-011
vertex 3.69661 6.33155 1.87276e-011
vertex 3.4061 6.17433 1.87275e-011
endloop
endfacet
facet normal -8.37587e-012 1.07615e-011 -1
outer loop
vertex 0.25 9 7.55711e-011
vertex 3.4061 6.17433 1.87275e-011
vertex 3.14544 5.97145 1.87274e-011
endloop
endfacet
facet normal 5.06652e-012 1.4758e-011 -1
outer loop
vertex 5.30339 6.33155 1.87277e-011
vertex 4.99097 6.4388 1.87277e-011
vertex 8.75 9 7.55711e-011
endloop
endfacet
facet normal 2.97501e-012 1.78277e-011 -1
outer loop
vertex 8.75 9 7.55711e-011
vertex 4.99097 6.4388 1.87277e-011
vertex 4.66516 6.49317 1.87277e-011
endloop
endfacet
facet normal 8.1634e-019 2.26754e-011 -1
outer loop
vertex 8.75 9 7.55711e-011
vertex 4.66516 6.49317 1.87277e-011
vertex 0.25 9 7.55711e-011
endloop
endfacet
facet normal 1.20789e-016 2.26756e-011 -1
outer loop
vertex 0.25 9 7.55711e-011
vertex 4.66516 6.49317 1.87277e-011
vertex 4.33484 6.49317 1.87277e-011
endloop
endfacet
facet normal -2.97482e-012 1.7828e-011 -1
outer loop
vertex 0.25 9 7.55711e-011
vertex 4.33484 6.49317 1.87277e-011
vertex 4.00903 6.4388 1.87276e-011
endloop
endfacet
endsolid
