solid C:\Temp\NOELParts\POWER_TRANS_WRAP__PRT.STL created by CtrlView V2.70
facet normal -1 0 0
outer loop
vertex 50.5 4.25 0
vertex 50.5 4.25 19
vertex 50.5 35.75 0
endloop
endfacet
facet normal -1 0 0
outer loop
vertex 50.5 35.75 0
vertex 50.5 4.25 19
vertex 50.5 35.75 19
endloop
endfacet
facet normal 0 1 0
outer loop
vertex 4.5 4.25 0
vertex 4.5 4.25 19
vertex 50.5 4.25 0
endloop
endfacet
facet normal 0 1 0
outer loop
vertex 50.5 4.25 0
vertex 4.5 4.25 19
vertex 50.5 4.25 19
endloop
endfacet
facet normal 1 0 0
outer loop
vertex 4.5 35.75 0
vertex 4.5 35.75 19
vertex 4.5 4.25 0
endloop
endfacet
facet normal 1 0 0
outer loop
vertex 4.5 4.25 0
vertex 4.5 35.75 19
vertex 4.5 4.25 19
endloop
endfacet
facet normal 0 -1 0
outer loop
vertex 50.5 35.75 0
vertex 50.5 35.75 19
vertex 4.5 35.75 0
endloop
endfacet
facet normal 0 -1 0
outer loop
vertex 4.5 35.75 0
vertex 50.5 35.75 19
vertex 4.5 35.75 19
endloop
endfacet
facet normal 0 -1 0
outer loop
vertex 55 0 0
vertex 55 0 19
vertex 0 0 0
endloop
endfacet
facet normal 0 -1 0
outer loop
vertex 0 0 0
vertex 55 0 19
vertex 0 0 19
endloop
endfacet
facet normal -1 0 0
outer loop
vertex 0 0 0
vertex 0 0 19
vertex 0 40 0
endloop
endfacet
facet normal -1 0 0
outer loop
vertex 0 40 0
vertex 0 0 19
vertex 0 40 19
endloop
endfacet
facet normal 0 0 1
outer loop
vertex 50.5 35.75 19
vertex 55 40 19
vertex 0 40 19
endloop
endfacet
facet normal 0 0 1
outer loop
vertex 55 40 19
vertex 50.5 35.75 19
vertex 55 0 19
endloop
endfacet
facet normal 0 0 1
outer loop
vertex 55 0 19
vertex 50.5 35.75 19
vertex 50.5 4.25 19
endloop
endfacet
facet normal 0 0 1
outer loop
vertex 55 0 19
vertex 50.5 4.25 19
vertex 0 0 19
endloop
endfacet
facet normal 0 0 1
outer loop
vertex 0 0 19
vertex 50.5 4.25 19
vertex 4.5 4.25 19
endloop
endfacet
facet normal 0 0 1
outer loop
vertex 0 0 19
vertex 4.5 4.25 19
vertex 0 40 19
endloop
endfacet
facet normal 0 0 1
outer loop
vertex 0 40 19
vertex 4.5 4.25 19
vertex 4.5 35.75 19
endloop
endfacet
facet normal 0 0 1
outer loop
vertex 0 40 19
vertex 4.5 35.75 19
vertex 50.5 35.75 19
endloop
endfacet
facet normal 1 0 0
outer loop
vertex 55 40 0
vertex 55 40 19
vertex 55 0 0
endloop
endfacet
facet normal 1 0 0
outer loop
vertex 55 0 0
vertex 55 40 19
vertex 55 0 19
endloop
endfacet
facet normal 0 0 -1
outer loop
vertex 4.5 4.25 0
vertex 0 0 0
vertex 0 40 0
endloop
endfacet
facet normal 0 0 -1
outer loop
vertex 0 0 0
vertex 4.5 4.25 0
vertex 55 0 0
endloop
endfacet
facet normal 0 0 -1
outer loop
vertex 55 0 0
vertex 4.5 4.25 0
vertex 50.5 4.25 0
endloop
endfacet
facet normal 0 0 -1
outer loop
vertex 55 0 0
vertex 50.5 4.25 0
vertex 55 40 0
endloop
endfacet
facet normal 0 0 -1
outer loop
vertex 55 40 0
vertex 50.5 4.25 0
vertex 50.5 35.75 0
endloop
endfacet
facet normal 0 0 -1
outer loop
vertex 55 40 0
vertex 50.5 35.75 0
vertex 0 40 0
endloop
endfacet
facet normal 0 0 -1
outer loop
vertex 0 40 0
vertex 50.5 35.75 0
vertex 4.5 35.75 0
endloop
endfacet
facet normal 0 0 -1
outer loop
vertex 0 40 0
vertex 4.5 35.75 0
vertex 4.5 4.25 0
endloop
endfacet
facet normal 0 1 0
outer loop
vertex 0 40 0
vertex 0 40 19
vertex 55 40 0
endloop
endfacet
facet normal 0 1 0
outer loop
vertex 55 40 0
vertex 0 40 19
vertex 55 40 19
endloop
endfacet
endsolid
