solid C:\Temp\NOELParts\impeller_shaft.STL created by CtrlView V2.70
facet normal 1 0 0
outer loop
vertex 111.489 14.5877 51.5221
vertex 111.489 14.2978 51.9928
vertex 111.489 14.4528 48.3461
endloop
endfacet
facet normal 1 0 0
outer loop
vertex 111.489 11.6775 46.7957
vertex 111.489 12.2283 46.8426
vertex 111.489 14.2978 51.9928
endloop
endfacet
facet normal 1 0 0
outer loop
vertex 111.489 14.2978 51.9928
vertex 111.489 12.2283 46.8426
vertex 111.489 12.7633 46.9819
endloop
endfacet
facet normal 1 0 0
outer loop
vertex 111.489 12.4988 53.2088
vertex 111.489 11.9539 53.3022
vertex 111.489 11.4011 53.3022
endloop
endfacet
facet normal 1 0 0
outer loop
vertex 111.489 8.90231 48.3461
vertex 111.489 10.3351 53.0246
vertex 111.489 8.65344 48.8397
endloop
endfacet
facet normal 1 0 0
outer loop
vertex 111.489 8.65344 48.8397
vertex 111.489 10.3351 53.0246
vertex 111.489 9.85251 52.755
endloop
endfacet
facet normal 1 0 0
outer loop
vertex 111.489 8.65344 48.8397
vertex 111.489 9.85251 52.755
vertex 111.489 8.49158 49.3682
endloop
endfacet
facet normal 1 0 0
outer loop
vertex 111.489 8.49158 49.3682
vertex 111.489 9.85251 52.755
vertex 111.489 9.42243 52.4078
endloop
endfacet
facet normal 1 0 0
outer loop
vertex 111.489 8.49158 49.3682
vertex 111.489 9.42243 52.4078
vertex 111.489 8.42136 49.9165
endloop
endfacet
facet normal 1 0 0
outer loop
vertex 111.489 8.42136 49.9165
vertex 111.489 9.42243 52.4078
vertex 111.489 9.05722 51.9928
endloop
endfacet
facet normal 1 0 0
outer loop
vertex 111.489 8.42136 49.9165
vertex 111.489 9.05722 51.9928
vertex 111.489 8.44482 50.4688
endloop
endfacet
facet normal 1 0 0
outer loop
vertex 111.489 8.44482 50.4688
vertex 111.489 9.05722 51.9928
vertex 111.489 8.76739 51.5221
endloop
endfacet
facet normal 1 0 0
outer loop
vertex 111.489 8.44482 50.4688
vertex 111.489 8.76739 51.5221
vertex 111.489 8.56128 51.0092
endloop
endfacet
facet normal 1 0 0
outer loop
vertex 111.489 10.5918 46.9819
vertex 111.489 11.1267 46.8426
vertex 111.489 11.6775 46.7957
endloop
endfacet
facet normal 1 0 0
outer loop
vertex 111.489 9.23101 47.9016
vertex 111.489 9.6301 47.5191
vertex 111.489 14.2978 51.9928
endloop
endfacet
facet normal 1 0 0
outer loop
vertex 111.489 11.6775 46.7957
vertex 111.489 14.2978 51.9928
vertex 111.489 10.5918 46.9819
endloop
endfacet
facet normal 1 0 0
outer loop
vertex 111.489 10.5918 46.9819
vertex 111.489 14.2978 51.9928
vertex 111.489 9.6301 47.5191
endloop
endfacet
facet normal 1 0 0
outer loop
vertex 111.489 10.5918 46.9819
vertex 111.489 9.6301 47.5191
vertex 111.489 10.0881 47.2096
endloop
endfacet
facet normal 1 0 0
outer loop
vertex 111.489 14.1241 47.9016
vertex 111.489 14.4528 48.3461
vertex 111.489 13.725 47.5191
endloop
endfacet
facet normal 1 0 0
outer loop
vertex 111.489 13.725 47.5191
vertex 111.489 14.4528 48.3461
vertex 111.489 14.2978 51.9928
endloop
endfacet
facet normal 1 0 0
outer loop
vertex 111.489 13.725 47.5191
vertex 111.489 14.2978 51.9928
vertex 111.489 13.267 47.2096
endloop
endfacet
facet normal 1 0 0
outer loop
vertex 111.489 13.267 47.2096
vertex 111.489 14.2978 51.9928
vertex 111.489 12.7633 46.9819
endloop
endfacet
facet normal 1 0 0
outer loop
vertex 111.489 14.7938 51.0092
vertex 111.489 14.5877 51.5221
vertex 111.489 14.9102 50.4688
endloop
endfacet
facet normal 1 0 0
outer loop
vertex 111.489 14.9102 50.4688
vertex 111.489 14.5877 51.5221
vertex 111.489 14.4528 48.3461
endloop
endfacet
facet normal 1 0 0
outer loop
vertex 111.489 14.9102 50.4688
vertex 111.489 14.4528 48.3461
vertex 111.489 14.9337 49.9165
endloop
endfacet
facet normal 1 0 0
outer loop
vertex 111.489 14.9337 49.9165
vertex 111.489 14.4528 48.3461
vertex 111.489 14.7016 48.8397
endloop
endfacet
facet normal 1 0 0
outer loop
vertex 111.489 14.9337 49.9165
vertex 111.489 14.7016 48.8397
vertex 111.489 14.8635 49.3682
endloop
endfacet
facet normal 1 0 0
outer loop
vertex 111.489 9.23101 47.9016
vertex 111.489 14.2978 51.9928
vertex 111.489 8.90231 48.3461
endloop
endfacet
facet normal 1 0 0
outer loop
vertex 111.489 8.90231 48.3461
vertex 111.489 14.2978 51.9928
vertex 111.489 13.9326 52.4078
endloop
endfacet
facet normal 1 0 0
outer loop
vertex 111.489 8.90231 48.3461
vertex 111.489 13.9326 52.4078
vertex 111.489 13.5026 52.755
endloop
endfacet
facet normal 1 0 0
outer loop
vertex 111.489 10.8563 53.2088
vertex 111.489 10.3351 53.0246
vertex 111.489 11.4011 53.3022
endloop
endfacet
facet normal 1 0 0
outer loop
vertex 111.489 11.4011 53.3022
vertex 111.489 10.3351 53.0246
vertex 111.489 8.90231 48.3461
endloop
endfacet
facet normal 1 0 0
outer loop
vertex 111.489 11.4011 53.3022
vertex 111.489 8.90231 48.3461
vertex 111.489 12.4988 53.2088
endloop
endfacet
facet normal 1 0 0
outer loop
vertex 111.489 12.4988 53.2088
vertex 111.489 8.90231 48.3461
vertex 111.489 13.5026 52.755
endloop
endfacet
facet normal 1 0 0
outer loop
vertex 111.489 12.4988 53.2088
vertex 111.489 13.5026 52.755
vertex 111.489 13.02 53.0246
endloop
endfacet
facet normal 0 0.251972 -0.967735
outer loop
vertex 111.489 12.2283 46.8426
vertex 99.9578 12.2283 46.8426
vertex 111.489 12.7633 46.9819
endloop
endfacet
facet normal 0 0.251972 -0.967735
outer loop
vertex 111.489 12.7633 46.9819
vertex 99.9578 12.2283 46.8426
vertex 99.9578 12.7633 46.9819
endloop
endfacet
facet normal 0 0.411907 -0.911226
outer loop
vertex 111.489 12.7633 46.9819
vertex 99.9578 12.7633 46.9819
vertex 111.489 13.267 47.2096
endloop
endfacet
facet normal 0 0.411907 -0.911226
outer loop
vertex 111.489 13.267 47.2096
vertex 99.9578 12.7633 46.9819
vertex 99.9578 13.267 47.2096
endloop
endfacet
facet normal 0 0.559972 -0.828511
outer loop
vertex 111.489 13.267 47.2096
vertex 99.9578 13.267 47.2096
vertex 111.489 13.725 47.5191
endloop
endfacet
facet normal 0 0.559972 -0.828511
outer loop
vertex 111.489 13.725 47.5191
vertex 99.9578 13.267 47.2096
vertex 99.9578 13.725 47.5191
endloop
endfacet
facet normal 0 0.691941 -0.721954
outer loop
vertex 111.489 13.725 47.5191
vertex 99.9578 13.725 47.5191
vertex 111.489 14.1241 47.9016
endloop
endfacet
facet normal 0 0.691941 -0.721954
outer loop
vertex 111.489 14.1241 47.9016
vertex 99.9578 13.725 47.5191
vertex 99.9578 14.1241 47.9016
endloop
endfacet
facet normal 0 0.803998 -0.594631
outer loop
vertex 111.489 14.1241 47.9016
vertex 99.9578 14.1241 47.9016
vertex 111.489 14.4528 48.3461
endloop
endfacet
facet normal 0 0.803998 -0.594631
outer loop
vertex 111.489 14.4528 48.3461
vertex 99.9578 14.1241 47.9016
vertex 99.9578 14.4528 48.3461
endloop
endfacet
facet normal 0 0.892925 -0.450206
outer loop
vertex 111.489 14.4528 48.3461
vertex 99.9578 14.4528 48.3461
vertex 111.489 14.7016 48.8397
endloop
endfacet
facet normal 0 0.892925 -0.450206
outer loop
vertex 111.489 14.7016 48.8397
vertex 99.9578 14.4528 48.3461
vertex 99.9578 14.7016 48.8397
endloop
endfacet
facet normal 0 0.956167 -0.292822
outer loop
vertex 111.489 14.7016 48.8397
vertex 99.9578 14.7016 48.8397
vertex 111.489 14.8635 49.3682
endloop
endfacet
facet normal 0 0.956167 -0.292822
outer loop
vertex 111.489 14.8635 49.3682
vertex 99.9578 14.7016 48.8397
vertex 99.9578 14.8635 49.3682
endloop
endfacet
facet normal 0 0.9919 -0.12702
outer loop
vertex 111.489 14.8635 49.3682
vertex 99.9578 14.8635 49.3682
vertex 111.489 14.9337 49.9165
endloop
endfacet
facet normal 0 0.9919 -0.12702
outer loop
vertex 111.489 14.9337 49.9165
vertex 99.9578 14.8635 49.3682
vertex 99.9578 14.9337 49.9165
endloop
endfacet
facet normal 0 0.999099 0.0424437
outer loop
vertex 111.489 14.9337 49.9165
vertex 99.9578 14.9337 49.9165
vertex 111.489 14.9102 50.4688
endloop
endfacet
facet normal 0 0.999099 0.0424437
outer loop
vertex 111.489 14.9102 50.4688
vertex 99.9578 14.9337 49.9165
vertex 99.9578 14.9102 50.4688
endloop
endfacet
facet normal 0 0.977555 0.21068
outer loop
vertex 111.489 14.9102 50.4688
vertex 99.9578 14.9102 50.4688
vertex 111.489 14.7938 51.0092
endloop
endfacet
facet normal 0 0.977555 0.21068
outer loop
vertex 111.489 14.7938 51.0092
vertex 99.9578 14.9102 50.4688
vertex 99.9578 14.7938 51.0092
endloop
endfacet
facet normal 0 0.92789 0.372855
outer loop
vertex 111.489 14.7938 51.0092
vertex 99.9578 14.7938 51.0092
vertex 111.489 14.5877 51.5221
endloop
endfacet
facet normal 0 0.92789 0.372855
outer loop
vertex 111.489 14.5877 51.5221
vertex 99.9578 14.7938 51.0092
vertex 99.9578 14.5877 51.5221
endloop
endfacet
facet normal 0 0.85153 0.524306
outer loop
vertex 111.489 14.5877 51.5221
vertex 99.9578 14.5877 51.5221
vertex 111.489 14.2978 51.9928
endloop
endfacet
facet normal 0 0.85153 0.524306
outer loop
vertex 111.489 14.2978 51.9928
vertex 99.9578 14.5877 51.5221
vertex 99.9578 14.2978 51.9928
endloop
endfacet
facet normal 0 0.750673 0.660674
outer loop
vertex 111.489 14.2978 51.9928
vertex 99.9578 14.2978 51.9928
vertex 111.489 13.9326 52.4078
endloop
endfacet
facet normal 0 0.750673 0.660674
outer loop
vertex 111.489 13.9326 52.4078
vertex 99.9578 14.2978 51.9928
vertex 99.9578 13.9326 52.4078
endloop
endfacet
facet normal 0 0.628217 0.778038
outer loop
vertex 111.489 13.9326 52.4078
vertex 99.9578 13.9326 52.4078
vertex 111.489 13.5026 52.755
endloop
endfacet
facet normal 0 0.628217 0.778038
outer loop
vertex 111.489 13.5026 52.755
vertex 99.9578 13.9326 52.4078
vertex 99.9578 13.5026 52.755
endloop
endfacet
facet normal 0 0.487698 0.873013
outer loop
vertex 111.489 13.5026 52.755
vertex 99.9578 13.5026 52.755
vertex 111.489 13.02 53.0246
endloop
endfacet
facet normal 0 0.487698 0.873013
outer loop
vertex 111.489 13.02 53.0246
vertex 99.9578 13.5026 52.755
vertex 99.9578 13.02 53.0246
endloop
endfacet
facet normal 0 0.333135 0.942879
outer loop
vertex 111.489 13.02 53.0246
vertex 99.9578 13.02 53.0246
vertex 111.489 12.4988 53.2088
endloop
endfacet
facet normal 0 0.333135 0.942879
outer loop
vertex 111.489 12.4988 53.2088
vertex 99.9578 13.02 53.0246
vertex 99.9578 12.4988 53.2088
endloop
endfacet
facet normal 0 0.169009 0.985615
outer loop
vertex 111.489 12.4988 53.2088
vertex 99.9578 12.4988 53.2088
vertex 111.489 11.9539 53.3022
endloop
endfacet
facet normal 0 0.169009 0.985615
outer loop
vertex 111.489 11.9539 53.3022
vertex 99.9578 12.4988 53.2088
vertex 99.9578 11.9539 53.3022
endloop
endfacet
facet normal 0 0 1
outer loop
vertex 111.489 11.9539 53.3022
vertex 99.9578 11.9539 53.3022
vertex 111.489 11.4011 53.3022
endloop
endfacet
facet normal 0 0 1
outer loop
vertex 111.489 11.4011 53.3022
vertex 99.9578 11.9539 53.3022
vertex 99.9578 11.4011 53.3022
endloop
endfacet
facet normal 0 -0.169009 0.985615
outer loop
vertex 111.489 11.4011 53.3022
vertex 99.9578 11.4011 53.3022
vertex 111.489 10.8563 53.2088
endloop
endfacet
facet normal 0 -0.169009 0.985615
outer loop
vertex 111.489 10.8563 53.2088
vertex 99.9578 11.4011 53.3022
vertex 99.9578 10.8563 53.2088
endloop
endfacet
facet normal 0 -0.333135 0.942879
outer loop
vertex 111.489 10.8563 53.2088
vertex 99.9578 10.8563 53.2088
vertex 111.489 10.3351 53.0246
endloop
endfacet
facet normal 0 -0.333135 0.942879
outer loop
vertex 111.489 10.3351 53.0246
vertex 99.9578 10.8563 53.2088
vertex 99.9578 10.3351 53.0246
endloop
endfacet
facet normal 0 -0.487697 0.873013
outer loop
vertex 111.489 10.3351 53.0246
vertex 99.9578 10.3351 53.0246
vertex 111.489 9.85251 52.755
endloop
endfacet
facet normal 0 -0.487697 0.873013
outer loop
vertex 111.489 9.85251 52.755
vertex 99.9578 10.3351 53.0246
vertex 99.9578 9.85251 52.755
endloop
endfacet
facet normal 0 -0.628218 0.778037
outer loop
vertex 111.489 9.85251 52.755
vertex 99.9578 9.85251 52.755
vertex 111.489 9.42243 52.4078
endloop
endfacet
facet normal 0 -0.628218 0.778037
outer loop
vertex 111.489 9.42243 52.4078
vertex 99.9578 9.85251 52.755
vertex 99.9578 9.42243 52.4078
endloop
endfacet
facet normal 0 -0.750673 0.660674
outer loop
vertex 111.489 9.42243 52.4078
vertex 99.9578 9.42243 52.4078
vertex 111.489 9.05722 51.9928
endloop
endfacet
facet normal 0 -0.750673 0.660674
outer loop
vertex 111.489 9.05722 51.9928
vertex 99.9578 9.42243 52.4078
vertex 99.9578 9.05722 51.9928
endloop
endfacet
facet normal 0 -0.851529 0.524308
outer loop
vertex 111.489 9.05722 51.9928
vertex 99.9578 9.05722 51.9928
vertex 111.489 8.76739 51.5221
endloop
endfacet
facet normal 0 -0.851529 0.524308
outer loop
vertex 111.489 8.76739 51.5221
vertex 99.9578 9.05722 51.9928
vertex 99.9578 8.76739 51.5221
endloop
endfacet
facet normal 0 -0.92789 0.372855
outer loop
vertex 111.489 8.76739 51.5221
vertex 99.9578 8.76739 51.5221
vertex 111.489 8.56128 51.0092
endloop
endfacet
facet normal 0 -0.92789 0.372855
outer loop
vertex 111.489 8.56128 51.0092
vertex 99.9578 8.76739 51.5221
vertex 99.9578 8.56128 51.0092
endloop
endfacet
facet normal 0 -0.977555 0.21068
outer loop
vertex 111.489 8.56128 51.0092
vertex 99.9578 8.56128 51.0092
vertex 111.489 8.44482 50.4688
endloop
endfacet
facet normal 0 -0.977555 0.21068
outer loop
vertex 111.489 8.44482 50.4688
vertex 99.9578 8.56128 51.0092
vertex 99.9578 8.44482 50.4688
endloop
endfacet
facet normal 0 -0.999099 0.042442
outer loop
vertex 111.489 8.44482 50.4688
vertex 99.9578 8.44482 50.4688
vertex 111.489 8.42136 49.9165
endloop
endfacet
facet normal 0 -0.999099 0.042442
outer loop
vertex 111.489 8.42136 49.9165
vertex 99.9578 8.44482 50.4688
vertex 99.9578 8.42136 49.9165
endloop
endfacet
facet normal 0 -0.9919 -0.127018
outer loop
vertex 111.489 8.42136 49.9165
vertex 99.9578 8.42136 49.9165
vertex 111.489 8.49158 49.3682
endloop
endfacet
facet normal 0 -0.9919 -0.127018
outer loop
vertex 111.489 8.49158 49.3682
vertex 99.9578 8.42136 49.9165
vertex 99.9578 8.49158 49.3682
endloop
endfacet
facet normal 0 -0.956166 -0.292824
outer loop
vertex 111.489 8.49158 49.3682
vertex 99.9578 8.49158 49.3682
vertex 111.489 8.65344 48.8397
endloop
endfacet
facet normal 0 -0.956166 -0.292824
outer loop
vertex 111.489 8.65344 48.8397
vertex 99.9578 8.49158 49.3682
vertex 99.9578 8.65344 48.8397
endloop
endfacet
facet normal 0 -0.892925 -0.450205
outer loop
vertex 111.489 8.65344 48.8397
vertex 99.9578 8.65344 48.8397
vertex 111.489 8.90231 48.3461
endloop
endfacet
facet normal 0 -0.892925 -0.450205
outer loop
vertex 111.489 8.90231 48.3461
vertex 99.9578 8.65344 48.8397
vertex 99.9578 8.90231 48.3461
endloop
endfacet
facet normal 0 -0.803998 -0.594633
outer loop
vertex 111.489 8.90231 48.3461
vertex 99.9578 8.90231 48.3461
vertex 111.489 9.23101 47.9016
endloop
endfacet
facet normal 0 -0.803998 -0.594633
outer loop
vertex 111.489 9.23101 47.9016
vertex 99.9578 8.90231 48.3461
vertex 99.9578 9.23101 47.9016
endloop
endfacet
facet normal 0 -0.691941 -0.721954
outer loop
vertex 111.489 9.23101 47.9016
vertex 99.9578 9.23101 47.9016
vertex 111.489 9.6301 47.5191
endloop
endfacet
facet normal 0 -0.691941 -0.721954
outer loop
vertex 111.489 9.6301 47.5191
vertex 99.9578 9.23101 47.9016
vertex 99.9578 9.6301 47.5191
endloop
endfacet
facet normal 0 -0.559973 -0.828511
outer loop
vertex 111.489 9.6301 47.5191
vertex 99.9578 9.6301 47.5191
vertex 111.489 10.0881 47.2096
endloop
endfacet
facet normal 0 -0.559973 -0.828511
outer loop
vertex 111.489 10.0881 47.2096
vertex 99.9578 9.6301 47.5191
vertex 99.9578 10.0881 47.2096
endloop
endfacet
facet normal 0 -0.411906 -0.911226
outer loop
vertex 111.489 10.0881 47.2096
vertex 99.9578 10.0881 47.2096
vertex 111.489 10.5918 46.9819
endloop
endfacet
facet normal 0 -0.411906 -0.911226
outer loop
vertex 111.489 10.5918 46.9819
vertex 99.9578 10.0881 47.2096
vertex 99.9578 10.5918 46.9819
endloop
endfacet
facet normal 0 -0.251972 -0.967734
outer loop
vertex 111.489 10.5918 46.9819
vertex 99.9578 10.5918 46.9819
vertex 111.489 11.1267 46.8426
endloop
endfacet
facet normal 0 -0.251972 -0.967734
outer loop
vertex 111.489 11.1267 46.8426
vertex 99.9578 10.5918 46.9819
vertex 99.9578 11.1267 46.8426
endloop
endfacet
facet normal 0 -0.0848051 -0.996398
outer loop
vertex 111.489 11.1267 46.8426
vertex 99.9578 11.1267 46.8426
vertex 111.489 11.6775 46.7957
endloop
endfacet
facet normal 0 -0.0848051 -0.996398
outer loop
vertex 111.489 11.6775 46.7957
vertex 99.9578 11.1267 46.8426
vertex 99.9578 11.6775 46.7957
endloop
endfacet
facet normal 0 0.0848051 -0.996398
outer loop
vertex 111.489 11.6775 46.7957
vertex 99.9578 11.6775 46.7957
vertex 111.489 12.2283 46.8426
endloop
endfacet
facet normal 0 0.0848051 -0.996398
outer loop
vertex 111.489 12.2283 46.8426
vertex 99.9578 11.6775 46.7957
vertex 99.9578 12.2283 46.8426
endloop
endfacet
facet normal -1 0 0
outer loop
vertex 0 16.2183 47.7654
vertex 0 15.7661 47.031
vertex 0 15.1962 46.3835
endloop
endfacet
facet normal -1 0 0
outer loop
vertex 0 13.7722 45.421
vertex 0 12.9589 45.1337
vertex 0 11.6775 55.1401
endloop
endfacet
facet normal -1 0 0
outer loop
vertex 0 8.15885 46.3835
vertex 0 7.589 47.031
vertex 0 8.82992 45.8417
endloop
endfacet
facet normal -1 0 0
outer loop
vertex 0 8.82992 45.8417
vertex 0 7.589 47.031
vertex 0 11.6775 55.1401
endloop
endfacet
facet normal -1 0 0
outer loop
vertex 0 9.58291 45.421
vertex 0 8.82992 45.8417
vertex 0 10.3962 45.1337
endloop
endfacet
facet normal -1 0 0
outer loop
vertex 0 10.3962 45.1337
vertex 0 8.82992 45.8417
vertex 0 11.6775 55.1401
endloop
endfacet
facet normal -1 0 0
outer loop
vertex 0 10.3962 45.1337
vertex 0 11.6775 55.1401
vertex 0 11.2463 44.9879
endloop
endfacet
facet normal -1 0 0
outer loop
vertex 0 11.2463 44.9879
vertex 0 11.6775 55.1401
vertex 0 12.9589 45.1337
endloop
endfacet
facet normal -1 0 0
outer loop
vertex 0 11.2463 44.9879
vertex 0 12.9589 45.1337
vertex 0 12.1088 44.9879
endloop
endfacet
facet normal -1 0 0
outer loop
vertex 0 7.13678 47.7654
vertex 0 6.95898 51.9509
vertex 0 7.589 47.031
endloop
endfacet
facet normal -1 0 0
outer loop
vertex 0 7.589 47.031
vertex 0 6.95898 51.9509
vertex 0 7.34729 52.7211
endloop
endfacet
facet normal -1 0 0
outer loop
vertex 0 7.589 47.031
vertex 0 7.34729 52.7211
vertex 0 7.86018 53.4145
endloop
endfacet
facet normal -1 0 0
outer loop
vertex 0 10.8181 55.0669
vertex 0 11.6775 55.1401
vertex 0 9.98344 54.8496
endloop
endfacet
facet normal -1 0 0
outer loop
vertex 0 9.98344 54.8496
vertex 0 11.6775 55.1401
vertex 0 7.589 47.031
endloop
endfacet
facet normal -1 0 0
outer loop
vertex 0 9.98344 54.8496
vertex 0 7.589 47.031
vertex 0 9.19748 54.4943
endloop
endfacet
facet normal -1 0 0
outer loop
vertex 0 9.19748 54.4943
vertex 0 7.589 47.031
vertex 0 7.86018 53.4145
endloop
endfacet
facet normal -1 0 0
outer loop
vertex 0 9.19748 54.4943
vertex 0 7.86018 53.4145
vertex 0 8.48288 54.0113
endloop
endfacet
facet normal -1 0 0
outer loop
vertex 0 14.8722 54.0113
vertex 0 15.4949 53.4145
vertex 0 14.1576 54.4943
endloop
endfacet
facet normal -1 0 0
outer loop
vertex 0 14.1576 54.4943
vertex 0 15.4949 53.4145
vertex 0 11.6775 55.1401
endloop
endfacet
facet normal -1 0 0
outer loop
vertex 0 14.1576 54.4943
vertex 0 11.6775 55.1401
vertex 0 13.3716 54.8496
endloop
endfacet
facet normal -1 0 0
outer loop
vertex 0 13.3716 54.8496
vertex 0 11.6775 55.1401
vertex 0 12.5369 55.0669
endloop
endfacet
facet normal -1 0 0
outer loop
vertex 0 14.5251 45.8417
vertex 0 13.7722 45.421
vertex 0 15.1962 46.3835
endloop
endfacet
facet normal -1 0 0
outer loop
vertex 0 15.1962 46.3835
vertex 0 13.7722 45.421
vertex 0 11.6775 55.1401
endloop
endfacet
facet normal -1 0 0
outer loop
vertex 0 15.1962 46.3835
vertex 0 11.6775 55.1401
vertex 0 16.2183 47.7654
endloop
endfacet
facet normal -1 0 0
outer loop
vertex 0 16.2183 47.7654
vertex 0 11.6775 55.1401
vertex 0 16.7216 49.4089
endloop
endfacet
facet normal -1 0 0
outer loop
vertex 0 16.2183 47.7654
vertex 0 16.7216 49.4089
vertex 0 16.5399 48.5658
endloop
endfacet
facet normal -1 0 0
outer loop
vertex 0 6.59686 50.2707
vertex 0 6.70642 51.1262
vertex 0 6.63347 49.4089
endloop
endfacet
facet normal -1 0 0
outer loop
vertex 0 6.63347 49.4089
vertex 0 6.70642 51.1262
vertex 0 6.95898 51.9509
endloop
endfacet
facet normal -1 0 0
outer loop
vertex 0 6.63347 49.4089
vertex 0 6.95898 51.9509
vertex 0 6.81519 48.5658
endloop
endfacet
facet normal -1 0 0
outer loop
vertex 0 6.81519 48.5658
vertex 0 6.95898 51.9509
vertex 0 7.13678 47.7654
endloop
endfacet
facet normal -1 0 0
outer loop
vertex 0 16.7582 50.2707
vertex 0 16.7216 49.4089
vertex 0 16.6486 51.1262
endloop
endfacet
facet normal -1 0 0
outer loop
vertex 0 16.6486 51.1262
vertex 0 16.7216 49.4089
vertex 0 11.6775 55.1401
endloop
endfacet
facet normal -1 0 0
outer loop
vertex 0 16.6486 51.1262
vertex 0 11.6775 55.1401
vertex 0 16.3961 51.9509
endloop
endfacet
facet normal -1 0 0
outer loop
vertex 0 16.3961 51.9509
vertex 0 11.6775 55.1401
vertex 0 15.4949 53.4145
endloop
endfacet
facet normal -1 0 0
outer loop
vertex 0 16.3961 51.9509
vertex 0 15.4949 53.4145
vertex 0 16.0078 52.7211
endloop
endfacet
facet normal 1 0 0
outer loop
vertex 99.9578 14.4528 48.3461
vertex 99.9578 14.1241 47.9016
vertex 99.9578 15.1962 46.3835
endloop
endfacet
facet normal 1 0 0
outer loop
vertex 99.9578 15.1962 46.3835
vertex 99.9578 14.1241 47.9016
vertex 99.9578 14.5251 45.8417
endloop
endfacet
facet normal 1 0 0
outer loop
vertex 99.9578 14.7938 51.0092
vertex 99.9578 16.3961 51.9509
vertex 99.9578 14.5877 51.5221
endloop
endfacet
facet normal 1 0 0
outer loop
vertex 99.9578 14.5877 51.5221
vertex 99.9578 16.3961 51.9509
vertex 99.9578 16.0078 52.7211
endloop
endfacet
facet normal 1 0 0
outer loop
vertex 99.9578 14.5877 51.5221
vertex 99.9578 16.0078 52.7211
vertex 99.9578 14.2978 51.9928
endloop
endfacet
facet normal 1 0 0
outer loop
vertex 99.9578 14.2978 51.9928
vertex 99.9578 16.0078 52.7211
vertex 99.9578 13.9326 52.4078
endloop
endfacet
facet normal 1 0 0
outer loop
vertex 99.9578 15.1962 46.3835
vertex 99.9578 15.7661 47.031
vertex 99.9578 14.4528 48.3461
endloop
endfacet
facet normal 1 0 0
outer loop
vertex 99.9578 14.4528 48.3461
vertex 99.9578 15.7661 47.031
vertex 99.9578 16.2183 47.7654
endloop
endfacet
facet normal 1 0 0
outer loop
vertex 99.9578 14.4528 48.3461
vertex 99.9578 16.2183 47.7654
vertex 99.9578 14.7016 48.8397
endloop
endfacet
facet normal 1 0 0
outer loop
vertex 99.9578 14.7016 48.8397
vertex 99.9578 16.2183 47.7654
vertex 99.9578 16.5399 48.5658
endloop
endfacet
facet normal 1 0 0
outer loop
vertex 99.9578 14.7016 48.8397
vertex 99.9578 16.5399 48.5658
vertex 99.9578 14.8635 49.3682
endloop
endfacet
facet normal 1 0 0
outer loop
vertex 99.9578 14.8635 49.3682
vertex 99.9578 16.5399 48.5658
vertex 99.9578 16.7216 49.4089
endloop
endfacet
facet normal 1 0 0
outer loop
vertex 99.9578 14.8635 49.3682
vertex 99.9578 16.7216 49.4089
vertex 99.9578 14.9337 49.9165
endloop
endfacet
facet normal 1 0 0
outer loop
vertex 99.9578 16.0078 52.7211
vertex 99.9578 15.4949 53.4145
vertex 99.9578 13.9326 52.4078
endloop
endfacet
facet normal 1 0 0
outer loop
vertex 99.9578 13.9326 52.4078
vertex 99.9578 15.4949 53.4145
vertex 99.9578 14.8722 54.0113
endloop
endfacet
facet normal 1 0 0
outer loop
vertex 99.9578 13.9326 52.4078
vertex 99.9578 14.8722 54.0113
vertex 99.9578 13.5026 52.755
endloop
endfacet
facet normal 1 0 0
outer loop
vertex 99.9578 13.5026 52.755
vertex 99.9578 14.8722 54.0113
vertex 99.9578 14.1576 54.4943
endloop
endfacet
facet normal 1 0 0
outer loop
vertex 99.9578 13.5026 52.755
vertex 99.9578 14.1576 54.4943
vertex 99.9578 13.02 53.0246
endloop
endfacet
facet normal 1 0 0
outer loop
vertex 99.9578 13.02 53.0246
vertex 99.9578 14.1576 54.4943
vertex 99.9578 13.3716 54.8496
endloop
endfacet
facet normal 1 0 0
outer loop
vertex 99.9578 13.02 53.0246
vertex 99.9578 13.3716 54.8496
vertex 99.9578 12.4988 53.2088
endloop
endfacet
facet normal 1 0 0
outer loop
vertex 99.9578 12.4988 53.2088
vertex 99.9578 13.3716 54.8496
vertex 99.9578 12.5369 55.0669
endloop
endfacet
facet normal 1 0 0
outer loop
vertex 99.9578 12.4988 53.2088
vertex 99.9578 12.5369 55.0669
vertex 99.9578 11.9539 53.3022
endloop
endfacet
facet normal 1 0 0
outer loop
vertex 99.9578 11.9539 53.3022
vertex 99.9578 12.5369 55.0669
vertex 99.9578 11.4011 53.3022
endloop
endfacet
facet normal 1 0 0
outer loop
vertex 99.9578 14.9337 49.9165
vertex 99.9578 16.7216 49.4089
vertex 99.9578 14.9102 50.4688
endloop
endfacet
facet normal 1 0 0
outer loop
vertex 99.9578 14.9102 50.4688
vertex 99.9578 16.7216 49.4089
vertex 99.9578 16.7582 50.2707
endloop
endfacet
facet normal 1 0 0
outer loop
vertex 99.9578 14.9102 50.4688
vertex 99.9578 16.7582 50.2707
vertex 99.9578 14.7938 51.0092
endloop
endfacet
facet normal 1 0 0
outer loop
vertex 99.9578 14.7938 51.0092
vertex 99.9578 16.7582 50.2707
vertex 99.9578 16.6486 51.1262
endloop
endfacet
facet normal 1 0 0
outer loop
vertex 99.9578 14.7938 51.0092
vertex 99.9578 16.6486 51.1262
vertex 99.9578 16.3961 51.9509
endloop
endfacet
facet normal 1 0 0
outer loop
vertex 99.9578 14.1241 47.9016
vertex 99.9578 13.725 47.5191
vertex 99.9578 14.5251 45.8417
endloop
endfacet
facet normal 1 0 0
outer loop
vertex 99.9578 14.5251 45.8417
vertex 99.9578 13.725 47.5191
vertex 99.9578 13.267 47.2096
endloop
endfacet
facet normal 1 0 0
outer loop
vertex 99.9578 14.5251 45.8417
vertex 99.9578 13.267 47.2096
vertex 99.9578 13.7722 45.421
endloop
endfacet
facet normal 1 0 0
outer loop
vertex 99.9578 13.7722 45.421
vertex 99.9578 13.267 47.2096
vertex 99.9578 12.7633 46.9819
endloop
endfacet
facet normal 1 0 0
outer loop
vertex 99.9578 13.7722 45.421
vertex 99.9578 12.7633 46.9819
vertex 99.9578 12.9589 45.1337
endloop
endfacet
facet normal 1 0 0
outer loop
vertex 99.9578 12.9589 45.1337
vertex 99.9578 12.7633 46.9819
vertex 99.9578 12.1088 44.9879
endloop
endfacet
facet normal 1 0 0
outer loop
vertex 99.9578 12.7633 46.9819
vertex 99.9578 12.2283 46.8426
vertex 99.9578 12.1088 44.9879
endloop
endfacet
facet normal 1 0 0
outer loop
vertex 99.9578 12.1088 44.9879
vertex 99.9578 12.2283 46.8426
vertex 99.9578 11.6775 46.7957
endloop
endfacet
facet normal 1 0 0
outer loop
vertex 99.9578 12.1088 44.9879
vertex 99.9578 11.6775 46.7957
vertex 99.9578 11.2463 44.9879
endloop
endfacet
facet normal 1 0 0
outer loop
vertex 99.9578 11.2463 44.9879
vertex 99.9578 11.6775 46.7957
vertex 99.9578 11.1267 46.8426
endloop
endfacet
facet normal 1 0 0
outer loop
vertex 99.9578 11.2463 44.9879
vertex 99.9578 11.1267 46.8426
vertex 99.9578 10.3962 45.1337
endloop
endfacet
facet normal 1 0 0
outer loop
vertex 99.9578 10.3962 45.1337
vertex 99.9578 11.1267 46.8426
vertex 99.9578 10.5918 46.9819
endloop
endfacet
facet normal 1 0 0
outer loop
vertex 99.9578 10.3962 45.1337
vertex 99.9578 10.5918 46.9819
vertex 99.9578 9.58291 45.421
endloop
endfacet
facet normal 1 0 0
outer loop
vertex 99.9578 9.58291 45.421
vertex 99.9578 10.5918 46.9819
vertex 99.9578 10.0881 47.2096
endloop
endfacet
facet normal 1 0 0
outer loop
vertex 99.9578 9.58291 45.421
vertex 99.9578 10.0881 47.2096
vertex 99.9578 8.82992 45.8417
endloop
endfacet
facet normal 1 0 0
outer loop
vertex 99.9578 8.82992 45.8417
vertex 99.9578 10.0881 47.2096
vertex 99.9578 9.6301 47.5191
endloop
endfacet
facet normal 1 0 0
outer loop
vertex 99.9578 8.82992 45.8417
vertex 99.9578 9.6301 47.5191
vertex 99.9578 8.15885 46.3835
endloop
endfacet
facet normal 1 0 0
outer loop
vertex 99.9578 8.15885 46.3835
vertex 99.9578 9.6301 47.5191
vertex 99.9578 9.23101 47.9016
endloop
endfacet
facet normal 1 0 0
outer loop
vertex 99.9578 8.15885 46.3835
vertex 99.9578 9.23101 47.9016
vertex 99.9578 7.589 47.031
endloop
endfacet
facet normal 1 0 0
outer loop
vertex 99.9578 7.589 47.031
vertex 99.9578 9.23101 47.9016
vertex 99.9578 8.90231 48.3461
endloop
endfacet
facet normal 1 0 0
outer loop
vertex 99.9578 7.589 47.031
vertex 99.9578 8.90231 48.3461
vertex 99.9578 7.13678 47.7654
endloop
endfacet
facet normal 1 0 0
outer loop
vertex 99.9578 7.13678 47.7654
vertex 99.9578 8.90231 48.3461
vertex 99.9578 8.65344 48.8397
endloop
endfacet
facet normal 1 0 0
outer loop
vertex 99.9578 7.13678 47.7654
vertex 99.9578 8.65344 48.8397
vertex 99.9578 6.81519 48.5658
endloop
endfacet
facet normal 1 0 0
outer loop
vertex 99.9578 6.81519 48.5658
vertex 99.9578 8.65344 48.8397
vertex 99.9578 8.49158 49.3682
endloop
endfacet
facet normal 1 0 0
outer loop
vertex 99.9578 6.81519 48.5658
vertex 99.9578 8.49158 49.3682
vertex 99.9578 6.63347 49.4089
endloop
endfacet
facet normal 1 0 0
outer loop
vertex 99.9578 6.63347 49.4089
vertex 99.9578 8.49158 49.3682
vertex 99.9578 8.42136 49.9165
endloop
endfacet
facet normal 1 0 0
outer loop
vertex 99.9578 6.63347 49.4089
vertex 99.9578 8.42136 49.9165
vertex 99.9578 6.59686 50.2707
endloop
endfacet
facet normal 1 0 0
outer loop
vertex 99.9578 6.59686 50.2707
vertex 99.9578 8.42136 49.9165
vertex 99.9578 8.44482 50.4688
endloop
endfacet
facet normal 1 0 0
outer loop
vertex 99.9578 6.59686 50.2707
vertex 99.9578 8.44482 50.4688
vertex 99.9578 6.70642 51.1262
endloop
endfacet
facet normal 1 0 0
outer loop
vertex 99.9578 6.70642 51.1262
vertex 99.9578 8.44482 50.4688
vertex 99.9578 8.56128 51.0092
endloop
endfacet
facet normal 1 0 0
outer loop
vertex 99.9578 6.70642 51.1262
vertex 99.9578 8.56128 51.0092
vertex 99.9578 6.95898 51.9509
endloop
endfacet
facet normal 1 0 0
outer loop
vertex 99.9578 6.95898 51.9509
vertex 99.9578 8.56128 51.0092
vertex 99.9578 8.76739 51.5221
endloop
endfacet
facet normal 1 0 0
outer loop
vertex 99.9578 6.95898 51.9509
vertex 99.9578 8.76739 51.5221
vertex 99.9578 7.34729 52.7211
endloop
endfacet
facet normal 1 0 0
outer loop
vertex 99.9578 7.34729 52.7211
vertex 99.9578 8.76739 51.5221
vertex 99.9578 9.05722 51.9928
endloop
endfacet
facet normal 1 0 0
outer loop
vertex 99.9578 7.34729 52.7211
vertex 99.9578 9.05722 51.9928
vertex 99.9578 7.86018 53.4145
endloop
endfacet
facet normal 1 0 0
outer loop
vertex 99.9578 7.86018 53.4145
vertex 99.9578 9.05722 51.9928
vertex 99.9578 9.42243 52.4078
endloop
endfacet
facet normal 1 0 0
outer loop
vertex 99.9578 7.86018 53.4145
vertex 99.9578 9.42243 52.4078
vertex 99.9578 8.48288 54.0113
endloop
endfacet
facet normal 1 0 0
outer loop
vertex 99.9578 8.48288 54.0113
vertex 99.9578 9.42243 52.4078
vertex 99.9578 9.85251 52.755
endloop
endfacet
facet normal 1 0 0
outer loop
vertex 99.9578 8.48288 54.0113
vertex 99.9578 9.85251 52.755
vertex 99.9578 9.19748 54.4943
endloop
endfacet
facet normal 1 0 0
outer loop
vertex 99.9578 9.19748 54.4943
vertex 99.9578 9.85251 52.755
vertex 99.9578 10.3351 53.0246
endloop
endfacet
facet normal 1 0 0
outer loop
vertex 99.9578 9.19748 54.4943
vertex 99.9578 10.3351 53.0246
vertex 99.9578 9.98344 54.8496
endloop
endfacet
facet normal 1 0 0
outer loop
vertex 99.9578 9.98344 54.8496
vertex 99.9578 10.3351 53.0246
vertex 99.9578 10.8563 53.2088
endloop
endfacet
facet normal 1 0 0
outer loop
vertex 99.9578 9.98344 54.8496
vertex 99.9578 10.8563 53.2088
vertex 99.9578 10.8181 55.0669
endloop
endfacet
facet normal 1 0 0
outer loop
vertex 99.9578 10.8181 55.0669
vertex 99.9578 10.8563 53.2088
vertex 99.9578 11.4011 53.3022
endloop
endfacet
facet normal 1 0 0
outer loop
vertex 99.9578 10.8181 55.0669
vertex 99.9578 11.4011 53.3022
vertex 99.9578 11.6775 55.1401
endloop
endfacet
facet normal 1 0 0
outer loop
vertex 99.9578 11.6775 55.1401
vertex 99.9578 11.4011 53.3022
vertex 99.9578 12.5369 55.0669
endloop
endfacet
facet normal 0 0.251982 0.967732
outer loop
vertex 0 12.5369 55.0669
vertex 31.0853 12.5369 55.0669
vertex 0 13.3716 54.8496
endloop
endfacet
facet normal 0 0.251982 0.967732
outer loop
vertex 0 13.3716 54.8496
vertex 31.0853 12.5369 55.0669
vertex 31.0853 13.3716 54.8496
endloop
endfacet
facet normal 0 0.411902 0.911228
outer loop
vertex 0 13.3716 54.8496
vertex 31.0853 13.3716 54.8496
vertex 0 14.1576 54.4943
endloop
endfacet
facet normal 0 0.411902 0.911228
outer loop
vertex 0 14.1576 54.4943
vertex 31.0853 13.3716 54.8496
vertex 31.0853 14.1576 54.4943
endloop
endfacet
facet normal 0 0.559974 0.82851
outer loop
vertex 0 14.1576 54.4943
vertex 31.0853 14.1576 54.4943
vertex 0 14.8722 54.0113
endloop
endfacet
facet normal 0 0.559974 0.82851
outer loop
vertex 0 14.8722 54.0113
vertex 31.0853 14.1576 54.4943
vertex 31.0853 14.8722 54.0113
endloop
endfacet
facet normal 0 0.691938 0.721957
outer loop
vertex 0 14.8722 54.0113
vertex 31.0853 14.8722 54.0113
vertex 0 15.4949 53.4145
endloop
endfacet
facet normal 0 0.691938 0.721957
outer loop
vertex 0 15.4949 53.4145
vertex 31.0853 14.8722 54.0113
vertex 31.0853 15.4949 53.4145
endloop
endfacet
facet normal 0 0.803996 0.594635
outer loop
vertex 0 15.4949 53.4145
vertex 31.0853 15.4949 53.4145
vertex 0 16.0078 52.7211
endloop
endfacet
facet normal 0 0.803996 0.594635
outer loop
vertex 0 16.0078 52.7211
vertex 31.0853 15.4949 53.4145
vertex 31.0853 16.0078 52.7211
endloop
endfacet
facet normal 0 0.892926 0.450203
outer loop
vertex 0 16.0078 52.7211
vertex 31.0853 16.0078 52.7211
vertex 0 16.3961 51.9509
endloop
endfacet
facet normal 0 0.892926 0.450203
outer loop
vertex 0 16.3961 51.9509
vertex 31.0853 16.0078 52.7211
vertex 31.0853 16.3961 51.9509
endloop
endfacet
facet normal 0 0.956167 0.292821
outer loop
vertex 0 16.3961 51.9509
vertex 31.0853 16.3961 51.9509
vertex 0 16.6486 51.1262
endloop
endfacet
facet normal 0 0.956167 0.292821
outer loop
vertex 0 16.6486 51.1262
vertex 31.0853 16.3961 51.9509
vertex 31.0853 16.6486 51.1262
endloop
endfacet
facet normal 0 0.9919 0.127019
outer loop
vertex 0 16.6486 51.1262
vertex 31.0853 16.6486 51.1262
vertex 0 16.7582 50.2707
endloop
endfacet
facet normal 0 0.9919 0.127019
outer loop
vertex 0 16.7582 50.2707
vertex 31.0853 16.6486 51.1262
vertex 31.0853 16.7582 50.2707
endloop
endfacet
facet normal 0 0.999099 -0.0424429
outer loop
vertex 0 16.7582 50.2707
vertex 31.0853 16.7582 50.2707
vertex 0 16.7216 49.4089
endloop
endfacet
facet normal 0 0.999099 -0.0424429
outer loop
vertex 0 16.7216 49.4089
vertex 31.0853 16.7582 50.2707
vertex 31.0853 16.7216 49.4089
endloop
endfacet
facet normal 0 0.977555 -0.210682
outer loop
vertex 0 16.7216 49.4089
vertex 31.0853 16.7216 49.4089
vertex 0 16.5399 48.5658
endloop
endfacet
facet normal 0 0.977555 -0.210682
outer loop
vertex 0 16.5399 48.5658
vertex 31.0853 16.7216 49.4089
vertex 31.0853 16.5399 48.5658
endloop
endfacet
facet normal 0 0.927891 -0.372852
outer loop
vertex 0 16.5399 48.5658
vertex 31.0853 16.5399 48.5658
vertex 0 16.2183 47.7654
endloop
endfacet
facet normal 0 0.927891 -0.372852
outer loop
vertex 0 16.2183 47.7654
vertex 31.0853 16.5399 48.5658
vertex 31.0853 16.2183 47.7654
endloop
endfacet
facet normal 0 0.851529 -0.524308
outer loop
vertex 0 16.2183 47.7654
vertex 31.0853 16.2183 47.7654
vertex 0 15.7661 47.031
endloop
endfacet
facet normal 0 0.851529 -0.524308
outer loop
vertex 0 15.7661 47.031
vertex 31.0853 16.2183 47.7654
vertex 31.0853 15.7661 47.031
endloop
endfacet
facet normal 0 0.750671 -0.660676
outer loop
vertex 0 15.7661 47.031
vertex 31.0853 15.7661 47.031
vertex 0 15.1962 46.3835
endloop
endfacet
facet normal 0 0.750671 -0.660676
outer loop
vertex 0 15.1962 46.3835
vertex 31.0853 15.7661 47.031
vertex 31.0853 15.1962 46.3835
endloop
endfacet
facet normal 0 0.62822 -0.778036
outer loop
vertex 0 15.1962 46.3835
vertex 31.0853 15.1962 46.3835
vertex 0 14.5251 45.8417
endloop
endfacet
facet normal 0 0.62822 -0.778036
outer loop
vertex 0 14.5251 45.8417
vertex 31.0853 15.1962 46.3835
vertex 31.0853 14.5251 45.8417
endloop
endfacet
facet normal 0 0.487696 -0.873013
outer loop
vertex 0 14.5251 45.8417
vertex 31.0853 14.5251 45.8417
vertex 0 13.7722 45.421
endloop
endfacet
facet normal 0 0.487696 -0.873013
outer loop
vertex 0 13.7722 45.421
vertex 31.0853 14.5251 45.8417
vertex 31.0853 13.7722 45.421
endloop
endfacet
facet normal 0 0.333143 -0.942876
outer loop
vertex 0 13.7722 45.421
vertex 31.0853 13.7722 45.421
vertex 0 12.9589 45.1337
endloop
endfacet
facet normal 0 0.333143 -0.942876
outer loop
vertex 0 12.9589 45.1337
vertex 31.0853 13.7722 45.421
vertex 31.0853 12.9589 45.1337
endloop
endfacet
facet normal 0 0.168997 -0.985617
outer loop
vertex 0 12.9589 45.1337
vertex 31.0853 12.9589 45.1337
vertex 0 12.1088 44.9879
endloop
endfacet
facet normal 0 0.168997 -0.985617
outer loop
vertex 0 12.1088 44.9879
vertex 31.0853 12.9589 45.1337
vertex 31.0853 12.1088 44.9879
endloop
endfacet
facet normal 0 0 -1
outer loop
vertex 0 12.1088 44.9879
vertex 31.0853 12.1088 44.9879
vertex 0 11.2463 44.9879
endloop
endfacet
facet normal 0 0 -1
outer loop
vertex 0 11.2463 44.9879
vertex 31.0853 12.1088 44.9879
vertex 31.0853 11.2463 44.9879
endloop
endfacet
facet normal 0 -0.168997 -0.985617
outer loop
vertex 0 11.2463 44.9879
vertex 31.0853 11.2463 44.9879
vertex 0 10.3962 45.1337
endloop
endfacet
facet normal 0 -0.168997 -0.985617
outer loop
vertex 0 10.3962 45.1337
vertex 31.0853 11.2463 44.9879
vertex 31.0853 10.3962 45.1337
endloop
endfacet
facet normal 0 -0.333143 -0.942876
outer loop
vertex 0 10.3962 45.1337
vertex 31.0853 10.3962 45.1337
vertex 0 9.58291 45.421
endloop
endfacet
facet normal 0 -0.333143 -0.942876
outer loop
vertex 0 9.58291 45.421
vertex 31.0853 10.3962 45.1337
vertex 31.0853 9.58291 45.421
endloop
endfacet
facet normal 0 -0.487697 -0.873013
outer loop
vertex 0 9.58291 45.421
vertex 31.0853 9.58291 45.421
vertex 0 8.82992 45.8417
endloop
endfacet
facet normal 0 -0.487697 -0.873013
outer loop
vertex 0 8.82992 45.8417
vertex 31.0853 9.58291 45.421
vertex 31.0853 8.82992 45.8417
endloop
endfacet
facet normal 0 -0.62822 -0.778036
outer loop
vertex 0 8.82992 45.8417
vertex 31.0853 8.82992 45.8417
vertex 0 8.15885 46.3835
endloop
endfacet
facet normal 0 -0.62822 -0.778036
outer loop
vertex 0 8.15885 46.3835
vertex 31.0853 8.82992 45.8417
vertex 31.0853 8.15885 46.3835
endloop
endfacet
facet normal 0 -0.750671 -0.660676
outer loop
vertex 0 8.15885 46.3835
vertex 31.0853 8.15885 46.3835
vertex 0 7.589 47.031
endloop
endfacet
facet normal 0 -0.750671 -0.660676
outer loop
vertex 0 7.589 47.031
vertex 31.0853 8.15885 46.3835
vertex 31.0853 7.589 47.031
endloop
endfacet
facet normal 0 -0.851529 -0.524307
outer loop
vertex 0 7.589 47.031
vertex 31.0853 7.589 47.031
vertex 0 7.13678 47.7654
endloop
endfacet
facet normal 0 -0.851529 -0.524307
outer loop
vertex 0 7.13678 47.7654
vertex 31.0853 7.589 47.031
vertex 31.0853 7.13678 47.7654
endloop
endfacet
facet normal 0 -0.92789 -0.372853
outer loop
vertex 0 7.13678 47.7654
vertex 31.0853 7.13678 47.7654
vertex 0 6.81519 48.5658
endloop
endfacet
facet normal 0 -0.92789 -0.372853
outer loop
vertex 0 6.81519 48.5658
vertex 31.0853 7.13678 47.7654
vertex 31.0853 6.81519 48.5658
endloop
endfacet
facet normal 0 -0.977555 -0.210681
outer loop
vertex 0 6.81519 48.5658
vertex 31.0853 6.81519 48.5658
vertex 0 6.63347 49.4089
endloop
endfacet
facet normal 0 -0.977555 -0.210681
outer loop
vertex 0 6.63347 49.4089
vertex 31.0853 6.81519 48.5658
vertex 31.0853 6.63347 49.4089
endloop
endfacet
facet normal 0 -0.999099 -0.0424435
outer loop
vertex 0 6.63347 49.4089
vertex 31.0853 6.63347 49.4089
vertex 0 6.59686 50.2707
endloop
endfacet
facet normal 0 -0.999099 -0.0424435
outer loop
vertex 0 6.59686 50.2707
vertex 31.0853 6.63347 49.4089
vertex 31.0853 6.59686 50.2707
endloop
endfacet
facet normal 0 -0.9919 0.12702
outer loop
vertex 0 6.59686 50.2707
vertex 31.0853 6.59686 50.2707
vertex 0 6.70642 51.1262
endloop
endfacet
facet normal 0 -0.9919 0.12702
outer loop
vertex 0 6.70642 51.1262
vertex 31.0853 6.59686 50.2707
vertex 31.0853 6.70642 51.1262
endloop
endfacet
facet normal 0 -0.956167 0.292821
outer loop
vertex 0 6.70642 51.1262
vertex 31.0853 6.70642 51.1262
vertex 0 6.95898 51.9509
endloop
endfacet
facet normal 0 -0.956167 0.292821
outer loop
vertex 0 6.95898 51.9509
vertex 31.0853 6.70642 51.1262
vertex 31.0853 6.95898 51.9509
endloop
endfacet
facet normal 0 -0.892926 0.450203
outer loop
vertex 0 6.95898 51.9509
vertex 31.0853 6.95898 51.9509
vertex 0 7.34729 52.7211
endloop
endfacet
facet normal 0 -0.892926 0.450203
outer loop
vertex 0 7.34729 52.7211
vertex 31.0853 6.95898 51.9509
vertex 31.0853 7.34729 52.7211
endloop
endfacet
facet normal 0 -0.803997 0.594634
outer loop
vertex 0 7.34729 52.7211
vertex 31.0853 7.34729 52.7211
vertex 0 7.86018 53.4145
endloop
endfacet
facet normal 0 -0.803997 0.594634
outer loop
vertex 0 7.86018 53.4145
vertex 31.0853 7.34729 52.7211
vertex 31.0853 7.86018 53.4145
endloop
endfacet
facet normal 0 -0.691938 0.721957
outer loop
vertex 0 7.86018 53.4145
vertex 31.0853 7.86018 53.4145
vertex 0 8.48288 54.0113
endloop
endfacet
facet normal 0 -0.691938 0.721957
outer loop
vertex 0 8.48288 54.0113
vertex 31.0853 7.86018 53.4145
vertex 31.0853 8.48288 54.0113
endloop
endfacet
facet normal 0 -0.559973 0.828511
outer loop
vertex 0 8.48288 54.0113
vertex 31.0853 8.48288 54.0113
vertex 0 9.19748 54.4943
endloop
endfacet
facet normal 0 -0.559973 0.828511
outer loop
vertex 0 9.19748 54.4943
vertex 31.0853 8.48288 54.0113
vertex 31.0853 9.19748 54.4943
endloop
endfacet
facet normal 0 -0.411902 0.911228
outer loop
vertex 0 9.19748 54.4943
vertex 31.0853 9.19748 54.4943
vertex 0 9.98344 54.8496
endloop
endfacet
facet normal 0 -0.411902 0.911228
outer loop
vertex 0 9.98344 54.8496
vertex 31.0853 9.19748 54.4943
vertex 31.0853 9.98344 54.8496
endloop
endfacet
facet normal 0 -0.251982 0.967732
outer loop
vertex 0 9.98344 54.8496
vertex 31.0853 9.98344 54.8496
vertex 0 10.8181 55.0669
endloop
endfacet
facet normal 0 -0.251982 0.967732
outer loop
vertex 0 10.8181 55.0669
vertex 31.0853 9.98344 54.8496
vertex 31.0853 10.8181 55.0669
endloop
endfacet
facet normal 0 -0.0848059 0.996397
outer loop
vertex 0 10.8181 55.0669
vertex 31.0853 10.8181 55.0669
vertex 0 11.6775 55.1401
endloop
endfacet
facet normal 0 -0.0848059 0.996397
outer loop
vertex 0 11.6775 55.1401
vertex 31.0853 10.8181 55.0669
vertex 31.0853 11.6775 55.1401
endloop
endfacet
facet normal 0 0.0848059 0.996397
outer loop
vertex 0 11.6775 55.1401
vertex 31.0853 11.6775 55.1401
vertex 0 12.5369 55.0669
endloop
endfacet
facet normal 0 0.0848059 0.996397
outer loop
vertex 0 12.5369 55.0669
vertex 31.0853 11.6775 55.1401
vertex 31.0853 12.5369 55.0669
endloop
endfacet
facet normal 0 0.251982 0.967732
outer loop
vertex 54.4899 12.5369 55.0669
vertex 99.9578 12.5369 55.0669
vertex 54.4899 13.3716 54.8496
endloop
endfacet
facet normal 0 0.251982 0.967732
outer loop
vertex 54.4899 13.3716 54.8496
vertex 99.9578 12.5369 55.0669
vertex 99.9578 13.3716 54.8496
endloop
endfacet
facet normal 0 0.411902 0.911228
outer loop
vertex 54.4899 13.3716 54.8496
vertex 99.9578 13.3716 54.8496
vertex 54.4899 14.1576 54.4943
endloop
endfacet
facet normal 0 0.411902 0.911228
outer loop
vertex 54.4899 14.1576 54.4943
vertex 99.9578 13.3716 54.8496
vertex 99.9578 14.1576 54.4943
endloop
endfacet
facet normal 0 0.559974 0.82851
outer loop
vertex 54.4899 14.1576 54.4943
vertex 99.9578 14.1576 54.4943
vertex 54.4899 14.8722 54.0113
endloop
endfacet
facet normal 0 0.559974 0.82851
outer loop
vertex 54.4899 14.8722 54.0113
vertex 99.9578 14.1576 54.4943
vertex 99.9578 14.8722 54.0113
endloop
endfacet
facet normal 0 0.691938 0.721957
outer loop
vertex 54.4899 14.8722 54.0113
vertex 99.9578 14.8722 54.0113
vertex 54.4899 15.4949 53.4145
endloop
endfacet
facet normal 0 0.691938 0.721957
outer loop
vertex 54.4899 15.4949 53.4145
vertex 99.9578 14.8722 54.0113
vertex 99.9578 15.4949 53.4145
endloop
endfacet
facet normal 0 0.803996 0.594635
outer loop
vertex 54.4899 15.4949 53.4145
vertex 99.9578 15.4949 53.4145
vertex 54.4899 16.0078 52.7211
endloop
endfacet
facet normal 0 0.803996 0.594635
outer loop
vertex 54.4899 16.0078 52.7211
vertex 99.9578 15.4949 53.4145
vertex 99.9578 16.0078 52.7211
endloop
endfacet
facet normal 0 0.892926 0.450203
outer loop
vertex 54.4899 16.0078 52.7211
vertex 99.9578 16.0078 52.7211
vertex 54.4899 16.3961 51.9509
endloop
endfacet
facet normal 0 0.892926 0.450203
outer loop
vertex 54.4899 16.3961 51.9509
vertex 99.9578 16.0078 52.7211
vertex 99.9578 16.3961 51.9509
endloop
endfacet
facet normal 0 0.956167 0.292821
outer loop
vertex 54.4899 16.3961 51.9509
vertex 99.9578 16.3961 51.9509
vertex 54.4899 16.6486 51.1262
endloop
endfacet
facet normal 0 0.956167 0.292821
outer loop
vertex 54.4899 16.6486 51.1262
vertex 99.9578 16.3961 51.9509
vertex 99.9578 16.6486 51.1262
endloop
endfacet
facet normal 0 0.9919 0.127019
outer loop
vertex 54.4899 16.6486 51.1262
vertex 99.9578 16.6486 51.1262
vertex 54.4899 16.7582 50.2707
endloop
endfacet
facet normal 0 0.9919 0.127019
outer loop
vertex 54.4899 16.7582 50.2707
vertex 99.9578 16.6486 51.1262
vertex 99.9578 16.7582 50.2707
endloop
endfacet
facet normal 0 0.999099 -0.0424429
outer loop
vertex 54.4899 16.7582 50.2707
vertex 99.9578 16.7582 50.2707
vertex 54.4899 16.7216 49.4089
endloop
endfacet
facet normal 0 0.999099 -0.0424429
outer loop
vertex 54.4899 16.7216 49.4089
vertex 99.9578 16.7582 50.2707
vertex 99.9578 16.7216 49.4089
endloop
endfacet
facet normal 0 0.977555 -0.210682
outer loop
vertex 54.4899 16.7216 49.4089
vertex 99.9578 16.7216 49.4089
vertex 54.4899 16.5399 48.5658
endloop
endfacet
facet normal 0 0.977555 -0.210682
outer loop
vertex 54.4899 16.5399 48.5658
vertex 99.9578 16.7216 49.4089
vertex 99.9578 16.5399 48.5658
endloop
endfacet
facet normal 0 0.927891 -0.372852
outer loop
vertex 54.4899 16.5399 48.5658
vertex 99.9578 16.5399 48.5658
vertex 54.4899 16.2183 47.7654
endloop
endfacet
facet normal 0 0.927891 -0.372852
outer loop
vertex 54.4899 16.2183 47.7654
vertex 99.9578 16.5399 48.5658
vertex 99.9578 16.2183 47.7654
endloop
endfacet
facet normal 0 0.851529 -0.524308
outer loop
vertex 54.4899 16.2183 47.7654
vertex 99.9578 16.2183 47.7654
vertex 54.4899 15.7661 47.031
endloop
endfacet
facet normal 0 0.851529 -0.524308
outer loop
vertex 54.4899 15.7661 47.031
vertex 99.9578 16.2183 47.7654
vertex 99.9578 15.7661 47.031
endloop
endfacet
facet normal 0 0.750671 -0.660676
outer loop
vertex 54.4899 15.7661 47.031
vertex 99.9578 15.7661 47.031
vertex 54.4899 15.1962 46.3835
endloop
endfacet
facet normal 0 0.750671 -0.660676
outer loop
vertex 54.4899 15.1962 46.3835
vertex 99.9578 15.7661 47.031
vertex 99.9578 15.1962 46.3835
endloop
endfacet
facet normal 0 0.62822 -0.778036
outer loop
vertex 54.4899 15.1962 46.3835
vertex 99.9578 15.1962 46.3835
vertex 54.4899 14.5251 45.8417
endloop
endfacet
facet normal 0 0.62822 -0.778036
outer loop
vertex 54.4899 14.5251 45.8417
vertex 99.9578 15.1962 46.3835
vertex 99.9578 14.5251 45.8417
endloop
endfacet
facet normal 0 0.487696 -0.873013
outer loop
vertex 54.4899 14.5251 45.8417
vertex 99.9578 14.5251 45.8417
vertex 54.4899 13.7722 45.421
endloop
endfacet
facet normal 0 0.487696 -0.873013
outer loop
vertex 54.4899 13.7722 45.421
vertex 99.9578 14.5251 45.8417
vertex 99.9578 13.7722 45.421
endloop
endfacet
facet normal 0 0.333143 -0.942876
outer loop
vertex 54.4899 13.7722 45.421
vertex 99.9578 13.7722 45.421
vertex 54.4899 12.9589 45.1337
endloop
endfacet
facet normal 0 0.333143 -0.942876
outer loop
vertex 54.4899 12.9589 45.1337
vertex 99.9578 13.7722 45.421
vertex 99.9578 12.9589 45.1337
endloop
endfacet
facet normal 0 0.168997 -0.985617
outer loop
vertex 54.4899 12.9589 45.1337
vertex 99.9578 12.9589 45.1337
vertex 54.4899 12.1088 44.9879
endloop
endfacet
facet normal 0 0.168997 -0.985617
outer loop
vertex 54.4899 12.1088 44.9879
vertex 99.9578 12.9589 45.1337
vertex 99.9578 12.1088 44.9879
endloop
endfacet
facet normal 0 0 -1
outer loop
vertex 54.4899 12.1088 44.9879
vertex 99.9578 12.1088 44.9879
vertex 54.4899 11.2463 44.9879
endloop
endfacet
facet normal 0 0 -1
outer loop
vertex 54.4899 11.2463 44.9879
vertex 99.9578 12.1088 44.9879
vertex 99.9578 11.2463 44.9879
endloop
endfacet
facet normal 0 -0.168997 -0.985617
outer loop
vertex 54.4899 11.2463 44.9879
vertex 99.9578 11.2463 44.9879
vertex 54.4899 10.3962 45.1337
endloop
endfacet
facet normal 0 -0.168997 -0.985617
outer loop
vertex 54.4899 10.3962 45.1337
vertex 99.9578 11.2463 44.9879
vertex 99.9578 10.3962 45.1337
endloop
endfacet
facet normal 0 -0.333143 -0.942876
outer loop
vertex 54.4899 10.3962 45.1337
vertex 99.9578 10.3962 45.1337
vertex 54.4899 9.58291 45.421
endloop
endfacet
facet normal 0 -0.333143 -0.942876
outer loop
vertex 54.4899 9.58291 45.421
vertex 99.9578 10.3962 45.1337
vertex 99.9578 9.58291 45.421
endloop
endfacet
facet normal 0 -0.487697 -0.873013
outer loop
vertex 54.4899 9.58291 45.421
vertex 99.9578 9.58291 45.421
vertex 54.4899 8.82992 45.8417
endloop
endfacet
facet normal 0 -0.487697 -0.873013
outer loop
vertex 54.4899 8.82992 45.8417
vertex 99.9578 9.58291 45.421
vertex 99.9578 8.82992 45.8417
endloop
endfacet
facet normal 0 -0.62822 -0.778036
outer loop
vertex 54.4899 8.82992 45.8417
vertex 99.9578 8.82992 45.8417
vertex 54.4899 8.15885 46.3835
endloop
endfacet
facet normal 0 -0.62822 -0.778036
outer loop
vertex 54.4899 8.15885 46.3835
vertex 99.9578 8.82992 45.8417
vertex 99.9578 8.15885 46.3835
endloop
endfacet
facet normal 0 -0.750671 -0.660676
outer loop
vertex 54.4899 8.15885 46.3835
vertex 99.9578 8.15885 46.3835
vertex 54.4899 7.589 47.031
endloop
endfacet
facet normal 0 -0.750671 -0.660676
outer loop
vertex 54.4899 7.589 47.031
vertex 99.9578 8.15885 46.3835
vertex 99.9578 7.589 47.031
endloop
endfacet
facet normal 0 -0.851529 -0.524307
outer loop
vertex 54.4899 7.589 47.031
vertex 99.9578 7.589 47.031
vertex 54.4899 7.13678 47.7654
endloop
endfacet
facet normal 0 -0.851529 -0.524307
outer loop
vertex 54.4899 7.13678 47.7654
vertex 99.9578 7.589 47.031
vertex 99.9578 7.13678 47.7654
endloop
endfacet
facet normal 0 -0.92789 -0.372853
outer loop
vertex 54.4899 7.13678 47.7654
vertex 99.9578 7.13678 47.7654
vertex 54.4899 6.81519 48.5658
endloop
endfacet
facet normal 0 -0.92789 -0.372853
outer loop
vertex 54.4899 6.81519 48.5658
vertex 99.9578 7.13678 47.7654
vertex 99.9578 6.81519 48.5658
endloop
endfacet
facet normal 0 -0.977555 -0.210681
outer loop
vertex 54.4899 6.81519 48.5658
vertex 99.9578 6.81519 48.5658
vertex 54.4899 6.63347 49.4089
endloop
endfacet
facet normal 0 -0.977555 -0.210681
outer loop
vertex 54.4899 6.63347 49.4089
vertex 99.9578 6.81519 48.5658
vertex 99.9578 6.63347 49.4089
endloop
endfacet
facet normal 0 -0.999099 -0.0424435
outer loop
vertex 54.4899 6.63347 49.4089
vertex 99.9578 6.63347 49.4089
vertex 54.4899 6.59686 50.2707
endloop
endfacet
facet normal 0 -0.999099 -0.0424435
outer loop
vertex 54.4899 6.59686 50.2707
vertex 99.9578 6.63347 49.4089
vertex 99.9578 6.59686 50.2707
endloop
endfacet
facet normal 0 -0.9919 0.12702
outer loop
vertex 54.4899 6.59686 50.2707
vertex 99.9578 6.59686 50.2707
vertex 54.4899 6.70642 51.1262
endloop
endfacet
facet normal 0 -0.9919 0.12702
outer loop
vertex 54.4899 6.70642 51.1262
vertex 99.9578 6.59686 50.2707
vertex 99.9578 6.70642 51.1262
endloop
endfacet
facet normal 0 -0.956167 0.292821
outer loop
vertex 54.4899 6.70642 51.1262
vertex 99.9578 6.70642 51.1262
vertex 54.4899 6.95898 51.9509
endloop
endfacet
facet normal 0 -0.956167 0.292821
outer loop
vertex 54.4899 6.95898 51.9509
vertex 99.9578 6.70642 51.1262
vertex 99.9578 6.95898 51.9509
endloop
endfacet
facet normal 0 -0.892926 0.450203
outer loop
vertex 54.4899 6.95898 51.9509
vertex 99.9578 6.95898 51.9509
vertex 54.4899 7.34729 52.7211
endloop
endfacet
facet normal 0 -0.892926 0.450203
outer loop
vertex 54.4899 7.34729 52.7211
vertex 99.9578 6.95898 51.9509
vertex 99.9578 7.34729 52.7211
endloop
endfacet
facet normal 0 -0.803997 0.594634
outer loop
vertex 54.4899 7.34729 52.7211
vertex 99.9578 7.34729 52.7211
vertex 54.4899 7.86018 53.4145
endloop
endfacet
facet normal 0 -0.803997 0.594634
outer loop
vertex 54.4899 7.86018 53.4145
vertex 99.9578 7.34729 52.7211
vertex 99.9578 7.86018 53.4145
endloop
endfacet
facet normal 0 -0.691938 0.721957
outer loop
vertex 54.4899 7.86018 53.4145
vertex 99.9578 7.86018 53.4145
vertex 54.4899 8.48288 54.0113
endloop
endfacet
facet normal 0 -0.691938 0.721957
outer loop
vertex 54.4899 8.48288 54.0113
vertex 99.9578 7.86018 53.4145
vertex 99.9578 8.48288 54.0113
endloop
endfacet
facet normal 0 -0.559973 0.828511
outer loop
vertex 54.4899 8.48288 54.0113
vertex 99.9578 8.48288 54.0113
vertex 54.4899 9.19748 54.4943
endloop
endfacet
facet normal 0 -0.559973 0.828511
outer loop
vertex 54.4899 9.19748 54.4943
vertex 99.9578 8.48288 54.0113
vertex 99.9578 9.19748 54.4943
endloop
endfacet
facet normal 0 -0.411902 0.911228
outer loop
vertex 54.4899 9.19748 54.4943
vertex 99.9578 9.19748 54.4943
vertex 54.4899 9.98344 54.8496
endloop
endfacet
facet normal 0 -0.411902 0.911228
outer loop
vertex 54.4899 9.98344 54.8496
vertex 99.9578 9.19748 54.4943
vertex 99.9578 9.98344 54.8496
endloop
endfacet
facet normal 0 -0.251982 0.967732
outer loop
vertex 54.4899 9.98344 54.8496
vertex 99.9578 9.98344 54.8496
vertex 54.4899 10.8181 55.0669
endloop
endfacet
facet normal 0 -0.251982 0.967732
outer loop
vertex 54.4899 10.8181 55.0669
vertex 99.9578 9.98344 54.8496
vertex 99.9578 10.8181 55.0669
endloop
endfacet
facet normal 0 -0.0848059 0.996397
outer loop
vertex 54.4899 10.8181 55.0669
vertex 99.9578 10.8181 55.0669
vertex 54.4899 11.6775 55.1401
endloop
endfacet
facet normal 0 -0.0848059 0.996397
outer loop
vertex 54.4899 11.6775 55.1401
vertex 99.9578 10.8181 55.0669
vertex 99.9578 11.6775 55.1401
endloop
endfacet
facet normal 0 0.0848059 0.996397
outer loop
vertex 54.4899 11.6775 55.1401
vertex 99.9578 11.6775 55.1401
vertex 54.4899 12.5369 55.0669
endloop
endfacet
facet normal 0 0.0848059 0.996397
outer loop
vertex 54.4899 12.5369 55.0669
vertex 99.9578 11.6775 55.1401
vertex 99.9578 12.5369 55.0669
endloop
endfacet
facet normal -1 0 0
outer loop
vertex 31.0853 6.81519 48.5658
vertex 31.0853 0.511866 46.6354
vertex 31.0853 6.63347 49.4089
endloop
endfacet
facet normal -1 0 0
outer loop
vertex 31.0853 6.63347 49.4089
vertex 31.0853 0.511866 46.6354
vertex 31.0853 0.0945851 48.5716
endloop
endfacet
facet normal -1 0 0
outer loop
vertex 31.0853 6.63347 49.4089
vertex 31.0853 0.0945851 48.5716
vertex 31.0853 6.59686 50.2707
endloop
endfacet
facet normal -1 0 0
outer loop
vertex 31.0853 6.59686 50.2707
vertex 31.0853 0.0945851 48.5716
vertex 31.0853 0.0105239 50.5504
endloop
endfacet
facet normal -1 0 0
outer loop
vertex 31.0853 6.59686 50.2707
vertex 31.0853 0.0105239 50.5504
vertex 31.0853 6.70642 51.1262
endloop
endfacet
facet normal -1 0 0
outer loop
vertex 31.0853 6.70642 51.1262
vertex 31.0853 0.0105239 50.5504
vertex 31.0853 0.2621 52.5151
endloop
endfacet
facet normal -1 0 0
outer loop
vertex 31.0853 6.70642 51.1262
vertex 31.0853 0.2621 52.5151
vertex 31.0853 6.95898 51.9509
endloop
endfacet
facet normal -1 0 0
outer loop
vertex 31.0853 6.95898 51.9509
vertex 31.0853 0.2621 52.5151
vertex 31.0853 0.84208 54.4089
endloop
endfacet
facet normal -1 0 0
outer loop
vertex 31.0853 6.95898 51.9509
vertex 31.0853 0.84208 54.4089
vertex 31.0853 7.34729 52.7211
endloop
endfacet
facet normal -1 0 0
outer loop
vertex 31.0853 7.34729 52.7211
vertex 31.0853 0.84208 54.4089
vertex 31.0853 1.73378 56.1775
endloop
endfacet
facet normal -1 0 0
outer loop
vertex 31.0853 7.34729 52.7211
vertex 31.0853 1.73378 56.1775
vertex 31.0853 7.86018 53.4145
endloop
endfacet
facet normal -1 0 0
outer loop
vertex 31.0853 7.86018 53.4145
vertex 31.0853 1.73378 56.1775
vertex 31.0853 2.91153 57.7699
endloop
endfacet
facet normal -1 0 0
outer loop
vertex 31.0853 7.86018 53.4145
vertex 31.0853 2.91153 57.7699
vertex 31.0853 8.48288 54.0113
endloop
endfacet
facet normal -1 0 0
outer loop
vertex 31.0853 8.48288 54.0113
vertex 31.0853 2.91153 57.7699
vertex 31.0853 4.34148 59.1404
endloop
endfacet
facet normal -1 0 0
outer loop
vertex 31.0853 8.48288 54.0113
vertex 31.0853 4.34148 59.1404
vertex 31.0853 9.19748 54.4943
endloop
endfacet
facet normal -1 0 0
outer loop
vertex 31.0853 9.19748 54.4943
vertex 31.0853 4.34148 59.1404
vertex 31.0853 5.98246 60.2495
endloop
endfacet
facet normal -1 0 0
outer loop
vertex 31.0853 9.19748 54.4943
vertex 31.0853 5.98246 60.2495
vertex 31.0853 9.98344 54.8496
endloop
endfacet
facet normal -1 0 0
outer loop
vertex 31.0853 9.98344 54.8496
vertex 31.0853 5.98246 60.2495
vertex 31.0853 7.78728 61.0653
endloop
endfacet
facet normal -1 0 0
outer loop
vertex 31.0853 9.98344 54.8496
vertex 31.0853 7.78728 61.0653
vertex 31.0853 10.8181 55.0669
endloop
endfacet
facet normal -1 0 0
outer loop
vertex 31.0853 10.8181 55.0669
vertex 31.0853 7.78728 61.0653
vertex 31.0853 9.70402 61.5644
endloop
endfacet
facet normal -1 0 0
outer loop
vertex 31.0853 10.8181 55.0669
vertex 31.0853 9.70402 61.5644
vertex 31.0853 11.6775 55.1401
endloop
endfacet
facet normal -1 0 0
outer loop
vertex 31.0853 11.6775 55.1401
vertex 31.0853 9.70402 61.5644
vertex 31.0853 11.6775 61.7324
endloop
endfacet
facet normal -1 0 0
outer loop
vertex 31.0853 11.6775 55.1401
vertex 31.0853 11.6775 61.7324
vertex 31.0853 12.5369 55.0669
endloop
endfacet
facet normal -1 0 0
outer loop
vertex 31.0853 12.5369 55.0669
vertex 31.0853 11.6775 61.7324
vertex 31.0853 13.651 61.5644
endloop
endfacet
facet normal -1 0 0
outer loop
vertex 31.0853 12.5369 55.0669
vertex 31.0853 13.651 61.5644
vertex 31.0853 13.3716 54.8496
endloop
endfacet
facet normal -1 0 0
outer loop
vertex 31.0853 13.3716 54.8496
vertex 31.0853 13.651 61.5644
vertex 31.0853 15.5678 61.0653
endloop
endfacet
facet normal -1 0 0
outer loop
vertex 31.0853 13.3716 54.8496
vertex 31.0853 15.5678 61.0653
vertex 31.0853 14.1576 54.4943
endloop
endfacet
facet normal -1 0 0
outer loop
vertex 31.0853 14.1576 54.4943
vertex 31.0853 15.5678 61.0653
vertex 31.0853 17.3726 60.2495
endloop
endfacet
facet normal -1 0 0
outer loop
vertex 31.0853 14.1576 54.4943
vertex 31.0853 17.3726 60.2495
vertex 31.0853 14.8722 54.0113
endloop
endfacet
facet normal -1 0 0
outer loop
vertex 31.0853 14.8722 54.0113
vertex 31.0853 17.3726 60.2495
vertex 31.0853 19.0136 59.1404
endloop
endfacet
facet normal -1 0 0
outer loop
vertex 31.0853 14.8722 54.0113
vertex 31.0853 19.0136 59.1404
vertex 31.0853 15.4949 53.4145
endloop
endfacet
facet normal -1 0 0
outer loop
vertex 31.0853 15.4949 53.4145
vertex 31.0853 19.0136 59.1404
vertex 31.0853 20.4435 57.7699
endloop
endfacet
facet normal -1 0 0
outer loop
vertex 31.0853 15.4949 53.4145
vertex 31.0853 20.4435 57.7699
vertex 31.0853 16.0078 52.7211
endloop
endfacet
facet normal -1 0 0
outer loop
vertex 31.0853 16.0078 52.7211
vertex 31.0853 20.4435 57.7699
vertex 31.0853 21.6213 56.1775
endloop
endfacet
facet normal -1 0 0
outer loop
vertex 31.0853 16.0078 52.7211
vertex 31.0853 21.6213 56.1775
vertex 31.0853 16.3961 51.9509
endloop
endfacet
facet normal -1 0 0
outer loop
vertex 31.0853 16.3961 51.9509
vertex 31.0853 21.6213 56.1775
vertex 31.0853 22.513 54.4089
endloop
endfacet
facet normal -1 0 0
outer loop
vertex 31.0853 16.3961 51.9509
vertex 31.0853 22.513 54.4089
vertex 31.0853 16.6486 51.1262
endloop
endfacet
facet normal -1 0 0
outer loop
vertex 31.0853 16.6486 51.1262
vertex 31.0853 22.513 54.4089
vertex 31.0853 23.093 52.5151
endloop
endfacet
facet normal -1 0 0
outer loop
vertex 31.0853 16.6486 51.1262
vertex 31.0853 23.093 52.5151
vertex 31.0853 16.7582 50.2707
endloop
endfacet
facet normal -1 0 0
outer loop
vertex 31.0853 16.7582 50.2707
vertex 31.0853 23.093 52.5151
vertex 31.0853 23.3445 50.5504
endloop
endfacet
facet normal -1 0 0
outer loop
vertex 31.0853 16.7582 50.2707
vertex 31.0853 23.3445 50.5504
vertex 31.0853 16.7216 49.4089
endloop
endfacet
facet normal -1 0 0
outer loop
vertex 31.0853 16.7216 49.4089
vertex 31.0853 23.3445 50.5504
vertex 31.0853 23.2605 48.5716
endloop
endfacet
facet normal -1 0 0
outer loop
vertex 31.0853 16.7216 49.4089
vertex 31.0853 23.2605 48.5716
vertex 31.0853 16.5399 48.5658
endloop
endfacet
facet normal -1 0 0
outer loop
vertex 31.0853 16.5399 48.5658
vertex 31.0853 23.2605 48.5716
vertex 31.0853 22.8432 46.6354
endloop
endfacet
facet normal -1 0 0
outer loop
vertex 31.0853 16.5399 48.5658
vertex 31.0853 22.8432 46.6354
vertex 31.0853 16.2183 47.7654
endloop
endfacet
facet normal -1 0 0
outer loop
vertex 31.0853 16.2183 47.7654
vertex 31.0853 22.8432 46.6354
vertex 31.0853 22.1047 44.7976
endloop
endfacet
facet normal -1 0 0
outer loop
vertex 31.0853 16.2183 47.7654
vertex 31.0853 22.1047 44.7976
vertex 31.0853 15.7661 47.031
endloop
endfacet
facet normal -1 0 0
outer loop
vertex 31.0853 15.7661 47.031
vertex 31.0853 22.1047 44.7976
vertex 31.0853 21.0662 43.111
endloop
endfacet
facet normal -1 0 0
outer loop
vertex 31.0853 15.7661 47.031
vertex 31.0853 21.0662 43.111
vertex 31.0853 15.1962 46.3835
endloop
endfacet
facet normal -1 0 0
outer loop
vertex 31.0853 15.1962 46.3835
vertex 31.0853 21.0662 43.111
vertex 31.0853 19.7577 41.6242
endloop
endfacet
facet normal -1 0 0
outer loop
vertex 31.0853 15.1962 46.3835
vertex 31.0853 19.7577 41.6242
vertex 31.0853 14.5251 45.8417
endloop
endfacet
facet normal -1 0 0
outer loop
vertex 31.0853 14.5251 45.8417
vertex 31.0853 19.7577 41.6242
vertex 31.0853 18.2167 40.3799
endloop
endfacet
facet normal -1 0 0
outer loop
vertex 31.0853 14.5251 45.8417
vertex 31.0853 18.2167 40.3799
vertex 31.0853 13.7722 45.421
endloop
endfacet
facet normal -1 0 0
outer loop
vertex 31.0853 13.7722 45.421
vertex 31.0853 18.2167 40.3799
vertex 31.0853 16.4875 39.4139
endloop
endfacet
facet normal -1 0 0
outer loop
vertex 31.0853 13.7722 45.421
vertex 31.0853 16.4875 39.4139
vertex 31.0853 12.9589 45.1337
endloop
endfacet
facet normal -1 0 0
outer loop
vertex 31.0853 12.9589 45.1337
vertex 31.0853 16.4875 39.4139
vertex 31.0853 14.62 38.7541
endloop
endfacet
facet normal -1 0 0
outer loop
vertex 31.0853 12.9589 45.1337
vertex 31.0853 14.62 38.7541
vertex 31.0853 12.1088 44.9879
endloop
endfacet
facet normal -1 0 0
outer loop
vertex 31.0853 12.1088 44.9879
vertex 31.0853 14.62 38.7541
vertex 31.0853 12.6679 38.4194
endloop
endfacet
facet normal -1 0 0
outer loop
vertex 31.0853 12.1088 44.9879
vertex 31.0853 12.6679 38.4194
vertex 31.0853 11.2463 44.9879
endloop
endfacet
facet normal -1 0 0
outer loop
vertex 31.0853 11.2463 44.9879
vertex 31.0853 12.6679 38.4194
vertex 31.0853 10.6872 38.4194
endloop
endfacet
facet normal -1 0 0
outer loop
vertex 31.0853 11.2463 44.9879
vertex 31.0853 10.6872 38.4194
vertex 31.0853 10.3962 45.1337
endloop
endfacet
facet normal -1 0 0
outer loop
vertex 31.0853 10.3962 45.1337
vertex 31.0853 10.6872 38.4194
vertex 31.0853 8.73505 38.7541
endloop
endfacet
facet normal -1 0 0
outer loop
vertex 31.0853 10.3962 45.1337
vertex 31.0853 8.73505 38.7541
vertex 31.0853 9.58291 45.421
endloop
endfacet
facet normal -1 0 0
outer loop
vertex 31.0853 9.58291 45.421
vertex 31.0853 8.73505 38.7541
vertex 31.0853 6.86754 39.4139
endloop
endfacet
facet normal -1 0 0
outer loop
vertex 31.0853 9.58291 45.421
vertex 31.0853 6.86754 39.4139
vertex 31.0853 8.82992 45.8417
endloop
endfacet
facet normal -1 0 0
outer loop
vertex 31.0853 8.82992 45.8417
vertex 31.0853 6.86754 39.4139
vertex 31.0853 5.13841 40.3799
endloop
endfacet
facet normal -1 0 0
outer loop
vertex 31.0853 8.82992 45.8417
vertex 31.0853 5.13841 40.3799
vertex 31.0853 8.15885 46.3835
endloop
endfacet
facet normal -1 0 0
outer loop
vertex 31.0853 8.15885 46.3835
vertex 31.0853 5.13841 40.3799
vertex 31.0853 3.59739 41.6242
endloop
endfacet
facet normal -1 0 0
outer loop
vertex 31.0853 8.15885 46.3835
vertex 31.0853 3.59739 41.6242
vertex 31.0853 7.589 47.031
endloop
endfacet
facet normal -1 0 0
outer loop
vertex 31.0853 7.589 47.031
vertex 31.0853 3.59739 41.6242
vertex 31.0853 2.28883 43.111
endloop
endfacet
facet normal -1 0 0
outer loop
vertex 31.0853 7.589 47.031
vertex 31.0853 2.28883 43.111
vertex 31.0853 7.13678 47.7654
endloop
endfacet
facet normal -1 0 0
outer loop
vertex 31.0853 7.13678 47.7654
vertex 31.0853 2.28883 43.111
vertex 31.0853 1.25036 44.7976
endloop
endfacet
facet normal -1 0 0
outer loop
vertex 31.0853 7.13678 47.7654
vertex 31.0853 1.25036 44.7976
vertex 31.0853 6.81519 48.5658
endloop
endfacet
facet normal -1 0 0
outer loop
vertex 31.0853 6.81519 48.5658
vertex 31.0853 1.25036 44.7976
vertex 31.0853 0.511866 46.6354
endloop
endfacet
facet normal 1 0 0
outer loop
vertex 54.4899 16.5399 48.5658
vertex 54.4899 22.8432 46.6354
vertex 54.4899 16.7216 49.4089
endloop
endfacet
facet normal 1 0 0
outer loop
vertex 54.4899 16.7216 49.4089
vertex 54.4899 22.8432 46.6354
vertex 54.4899 23.2605 48.5716
endloop
endfacet
facet normal 1 0 0
outer loop
vertex 54.4899 16.7216 49.4089
vertex 54.4899 23.2605 48.5716
vertex 54.4899 16.7582 50.2707
endloop
endfacet
facet normal 1 0 0
outer loop
vertex 54.4899 16.7582 50.2707
vertex 54.4899 23.2605 48.5716
vertex 54.4899 23.3445 50.5504
endloop
endfacet
facet normal 1 0 0
outer loop
vertex 54.4899 16.7582 50.2707
vertex 54.4899 23.3445 50.5504
vertex 54.4899 16.6486 51.1262
endloop
endfacet
facet normal 1 0 0
outer loop
vertex 54.4899 16.6486 51.1262
vertex 54.4899 23.3445 50.5504
vertex 54.4899 23.093 52.5151
endloop
endfacet
facet normal 1 0 0
outer loop
vertex 54.4899 16.6486 51.1262
vertex 54.4899 23.093 52.5151
vertex 54.4899 16.3961 51.9509
endloop
endfacet
facet normal 1 0 0
outer loop
vertex 54.4899 16.3961 51.9509
vertex 54.4899 23.093 52.5151
vertex 54.4899 22.513 54.4089
endloop
endfacet
facet normal 1 0 0
outer loop
vertex 54.4899 16.3961 51.9509
vertex 54.4899 22.513 54.4089
vertex 54.4899 16.0078 52.7211
endloop
endfacet
facet normal 1 0 0
outer loop
vertex 54.4899 16.0078 52.7211
vertex 54.4899 22.513 54.4089
vertex 54.4899 21.6213 56.1775
endloop
endfacet
facet normal 1 0 0
outer loop
vertex 54.4899 16.0078 52.7211
vertex 54.4899 21.6213 56.1775
vertex 54.4899 15.4949 53.4145
endloop
endfacet
facet normal 1 0 0
outer loop
vertex 54.4899 15.4949 53.4145
vertex 54.4899 21.6213 56.1775
vertex 54.4899 20.4435 57.7699
endloop
endfacet
facet normal 1 0 0
outer loop
vertex 54.4899 15.4949 53.4145
vertex 54.4899 20.4435 57.7699
vertex 54.4899 14.8722 54.0113
endloop
endfacet
facet normal 1 0 0
outer loop
vertex 54.4899 14.8722 54.0113
vertex 54.4899 20.4435 57.7699
vertex 54.4899 19.0136 59.1404
endloop
endfacet
facet normal 1 0 0
outer loop
vertex 54.4899 14.8722 54.0113
vertex 54.4899 19.0136 59.1404
vertex 54.4899 14.1576 54.4943
endloop
endfacet
facet normal 1 0 0
outer loop
vertex 54.4899 14.1576 54.4943
vertex 54.4899 19.0136 59.1404
vertex 54.4899 17.3726 60.2495
endloop
endfacet
facet normal 1 0 0
outer loop
vertex 54.4899 14.1576 54.4943
vertex 54.4899 17.3726 60.2495
vertex 54.4899 13.3716 54.8496
endloop
endfacet
facet normal 1 0 0
outer loop
vertex 54.4899 13.3716 54.8496
vertex 54.4899 17.3726 60.2495
vertex 54.4899 15.5678 61.0653
endloop
endfacet
facet normal 1 0 0
outer loop
vertex 54.4899 13.3716 54.8496
vertex 54.4899 15.5678 61.0653
vertex 54.4899 12.5369 55.0669
endloop
endfacet
facet normal 1 0 0
outer loop
vertex 54.4899 12.5369 55.0669
vertex 54.4899 15.5678 61.0653
vertex 54.4899 13.651 61.5644
endloop
endfacet
facet normal 1 0 0
outer loop
vertex 54.4899 12.5369 55.0669
vertex 54.4899 13.651 61.5644
vertex 54.4899 11.6775 55.1401
endloop
endfacet
facet normal 1 0 0
outer loop
vertex 54.4899 11.6775 55.1401
vertex 54.4899 13.651 61.5644
vertex 54.4899 11.6775 61.7324
endloop
endfacet
facet normal 1 0 0
outer loop
vertex 54.4899 11.6775 55.1401
vertex 54.4899 11.6775 61.7324
vertex 54.4899 10.8181 55.0669
endloop
endfacet
facet normal 1 0 0
outer loop
vertex 54.4899 10.8181 55.0669
vertex 54.4899 11.6775 61.7324
vertex 54.4899 9.70402 61.5644
endloop
endfacet
facet normal 1 0 0
outer loop
vertex 54.4899 10.8181 55.0669
vertex 54.4899 9.70402 61.5644
vertex 54.4899 9.98344 54.8496
endloop
endfacet
facet normal 1 0 0
outer loop
vertex 54.4899 9.98344 54.8496
vertex 54.4899 9.70402 61.5644
vertex 54.4899 7.78728 61.0653
endloop
endfacet
facet normal 1 0 0
outer loop
vertex 54.4899 9.98344 54.8496
vertex 54.4899 7.78728 61.0653
vertex 54.4899 9.19748 54.4943
endloop
endfacet
facet normal 1 0 0
outer loop
vertex 54.4899 9.19748 54.4943
vertex 54.4899 7.78728 61.0653
vertex 54.4899 5.98246 60.2495
endloop
endfacet
facet normal 1 0 0
outer loop
vertex 54.4899 9.19748 54.4943
vertex 54.4899 5.98246 60.2495
vertex 54.4899 8.48288 54.0113
endloop
endfacet
facet normal 1 0 0
outer loop
vertex 54.4899 8.48288 54.0113
vertex 54.4899 5.98246 60.2495
vertex 54.4899 4.34148 59.1404
endloop
endfacet
facet normal 1 0 0
outer loop
vertex 54.4899 8.48288 54.0113
vertex 54.4899 4.34148 59.1404
vertex 54.4899 7.86018 53.4145
endloop
endfacet
facet normal 1 0 0
outer loop
vertex 54.4899 7.86018 53.4145
vertex 54.4899 4.34148 59.1404
vertex 54.4899 2.91153 57.7699
endloop
endfacet
facet normal 1 0 0
outer loop
vertex 54.4899 7.86018 53.4145
vertex 54.4899 2.91153 57.7699
vertex 54.4899 7.34729 52.7211
endloop
endfacet
facet normal 1 0 0
outer loop
vertex 54.4899 7.34729 52.7211
vertex 54.4899 2.91153 57.7699
vertex 54.4899 1.73378 56.1775
endloop
endfacet
facet normal 1 0 0
outer loop
vertex 54.4899 7.34729 52.7211
vertex 54.4899 1.73378 56.1775
vertex 54.4899 6.95898 51.9509
endloop
endfacet
facet normal 1 0 0
outer loop
vertex 54.4899 6.95898 51.9509
vertex 54.4899 1.73378 56.1775
vertex 54.4899 0.84208 54.4089
endloop
endfacet
facet normal 1 0 0
outer loop
vertex 54.4899 6.95898 51.9509
vertex 54.4899 0.84208 54.4089
vertex 54.4899 6.70642 51.1262
endloop
endfacet
facet normal 1 0 0
outer loop
vertex 54.4899 6.70642 51.1262
vertex 54.4899 0.84208 54.4089
vertex 54.4899 0.2621 52.5151
endloop
endfacet
facet normal 1 0 0
outer loop
vertex 54.4899 6.70642 51.1262
vertex 54.4899 0.2621 52.5151
vertex 54.4899 6.59686 50.2707
endloop
endfacet
facet normal 1 0 0
outer loop
vertex 54.4899 6.59686 50.2707
vertex 54.4899 0.2621 52.5151
vertex 54.4899 0.0105239 50.5504
endloop
endfacet
facet normal 1 0 0
outer loop
vertex 54.4899 6.59686 50.2707
vertex 54.4899 0.0105239 50.5504
vertex 54.4899 6.63347 49.4089
endloop
endfacet
facet normal 1 0 0
outer loop
vertex 54.4899 6.63347 49.4089
vertex 54.4899 0.0105239 50.5504
vertex 54.4899 0.0945851 48.5716
endloop
endfacet
facet normal 1 0 0
outer loop
vertex 54.4899 6.63347 49.4089
vertex 54.4899 0.0945851 48.5716
vertex 54.4899 6.81519 48.5658
endloop
endfacet
facet normal 1 0 0
outer loop
vertex 54.4899 6.81519 48.5658
vertex 54.4899 0.0945851 48.5716
vertex 54.4899 0.511866 46.6354
endloop
endfacet
facet normal 1 0 0
outer loop
vertex 54.4899 6.81519 48.5658
vertex 54.4899 0.511866 46.6354
vertex 54.4899 7.13678 47.7654
endloop
endfacet
facet normal 1 0 0
outer loop
vertex 54.4899 7.13678 47.7654
vertex 54.4899 0.511866 46.6354
vertex 54.4899 1.25036 44.7976
endloop
endfacet
facet normal 1 0 0
outer loop
vertex 54.4899 7.13678 47.7654
vertex 54.4899 1.25036 44.7976
vertex 54.4899 7.589 47.031
endloop
endfacet
facet normal 1 0 0
outer loop
vertex 54.4899 7.589 47.031
vertex 54.4899 1.25036 44.7976
vertex 54.4899 2.28883 43.111
endloop
endfacet
facet normal 1 0 0
outer loop
vertex 54.4899 7.589 47.031
vertex 54.4899 2.28883 43.111
vertex 54.4899 8.15885 46.3835
endloop
endfacet
facet normal 1 0 0
outer loop
vertex 54.4899 8.15885 46.3835
vertex 54.4899 2.28883 43.111
vertex 54.4899 3.59739 41.6242
endloop
endfacet
facet normal 1 0 0
outer loop
vertex 54.4899 8.15885 46.3835
vertex 54.4899 3.59739 41.6242
vertex 54.4899 8.82992 45.8417
endloop
endfacet
facet normal 1 0 0
outer loop
vertex 54.4899 8.82992 45.8417
vertex 54.4899 3.59739 41.6242
vertex 54.4899 5.13841 40.3799
endloop
endfacet
facet normal 1 0 0
outer loop
vertex 54.4899 8.82992 45.8417
vertex 54.4899 5.13841 40.3799
vertex 54.4899 9.58291 45.421
endloop
endfacet
facet normal 1 0 0
outer loop
vertex 54.4899 9.58291 45.421
vertex 54.4899 5.13841 40.3799
vertex 54.4899 6.86754 39.4139
endloop
endfacet
facet normal 1 0 0
outer loop
vertex 54.4899 9.58291 45.421
vertex 54.4899 6.86754 39.4139
vertex 54.4899 10.3962 45.1337
endloop
endfacet
facet normal 1 0 0
outer loop
vertex 54.4899 10.3962 45.1337
vertex 54.4899 6.86754 39.4139
vertex 54.4899 8.73505 38.7541
endloop
endfacet
facet normal 1 0 0
outer loop
vertex 54.4899 10.3962 45.1337
vertex 54.4899 8.73505 38.7541
vertex 54.4899 11.2463 44.9879
endloop
endfacet
facet normal 1 0 0
outer loop
vertex 54.4899 11.2463 44.9879
vertex 54.4899 8.73505 38.7541
vertex 54.4899 10.6872 38.4194
endloop
endfacet
facet normal 1 0 0
outer loop
vertex 54.4899 11.2463 44.9879
vertex 54.4899 10.6872 38.4194
vertex 54.4899 12.1088 44.9879
endloop
endfacet
facet normal 1 0 0
outer loop
vertex 54.4899 12.1088 44.9879
vertex 54.4899 10.6872 38.4194
vertex 54.4899 12.6679 38.4194
endloop
endfacet
facet normal 1 0 0
outer loop
vertex 54.4899 12.1088 44.9879
vertex 54.4899 12.6679 38.4194
vertex 54.4899 12.9589 45.1337
endloop
endfacet
facet normal 1 0 0
outer loop
vertex 54.4899 12.9589 45.1337
vertex 54.4899 12.6679 38.4194
vertex 54.4899 14.62 38.7541
endloop
endfacet
facet normal 1 0 0
outer loop
vertex 54.4899 12.9589 45.1337
vertex 54.4899 14.62 38.7541
vertex 54.4899 13.7722 45.421
endloop
endfacet
facet normal 1 0 0
outer loop
vertex 54.4899 13.7722 45.421
vertex 54.4899 14.62 38.7541
vertex 54.4899 16.4875 39.4139
endloop
endfacet
facet normal 1 0 0
outer loop
vertex 54.4899 13.7722 45.421
vertex 54.4899 16.4875 39.4139
vertex 54.4899 14.5251 45.8417
endloop
endfacet
facet normal 1 0 0
outer loop
vertex 54.4899 14.5251 45.8417
vertex 54.4899 16.4875 39.4139
vertex 54.4899 18.2167 40.3799
endloop
endfacet
facet normal 1 0 0
outer loop
vertex 54.4899 14.5251 45.8417
vertex 54.4899 18.2167 40.3799
vertex 54.4899 15.1962 46.3835
endloop
endfacet
facet normal 1 0 0
outer loop
vertex 54.4899 15.1962 46.3835
vertex 54.4899 18.2167 40.3799
vertex 54.4899 19.7577 41.6242
endloop
endfacet
facet normal 1 0 0
outer loop
vertex 54.4899 15.1962 46.3835
vertex 54.4899 19.7577 41.6242
vertex 54.4899 15.7661 47.031
endloop
endfacet
facet normal 1 0 0
outer loop
vertex 54.4899 15.7661 47.031
vertex 54.4899 19.7577 41.6242
vertex 54.4899 21.0662 43.111
endloop
endfacet
facet normal 1 0 0
outer loop
vertex 54.4899 15.7661 47.031
vertex 54.4899 21.0662 43.111
vertex 54.4899 16.2183 47.7654
endloop
endfacet
facet normal 1 0 0
outer loop
vertex 54.4899 16.2183 47.7654
vertex 54.4899 21.0662 43.111
vertex 54.4899 22.1047 44.7976
endloop
endfacet
facet normal 1 0 0
outer loop
vertex 54.4899 16.2183 47.7654
vertex 54.4899 22.1047 44.7976
vertex 54.4899 16.5399 48.5658
endloop
endfacet
facet normal 1 0 0
outer loop
vertex 54.4899 16.5399 48.5658
vertex 54.4899 22.1047 44.7976
vertex 54.4899 22.8432 46.6354
endloop
endfacet
facet normal 0 0.251977 0.967733
outer loop
vertex 31.0853 13.651 61.5644
vertex 54.4899 13.651 61.5644
vertex 31.0853 15.5678 61.0653
endloop
endfacet
facet normal 0 0.251977 0.967733
outer loop
vertex 31.0853 15.5678 61.0653
vertex 54.4899 13.651 61.5644
vertex 54.4899 15.5678 61.0653
endloop
endfacet
facet normal 0 0.4119 0.911229
outer loop
vertex 31.0853 15.5678 61.0653
vertex 54.4899 15.5678 61.0653
vertex 31.0853 17.3726 60.2495
endloop
endfacet
facet normal 0 0.4119 0.911229
outer loop
vertex 31.0853 17.3726 60.2495
vertex 54.4899 15.5678 61.0653
vertex 54.4899 17.3726 60.2495
endloop
endfacet
facet normal 0 0.559975 0.82851
outer loop
vertex 31.0853 17.3726 60.2495
vertex 54.4899 17.3726 60.2495
vertex 31.0853 19.0136 59.1404
endloop
endfacet
facet normal 0 0.559975 0.82851
outer loop
vertex 31.0853 19.0136 59.1404
vertex 54.4899 17.3726 60.2495
vertex 54.4899 19.0136 59.1404
endloop
endfacet
facet normal 0 0.69194 0.721955
outer loop
vertex 31.0853 19.0136 59.1404
vertex 54.4899 19.0136 59.1404
vertex 31.0853 20.4435 57.7699
endloop
endfacet
facet normal 0 0.69194 0.721955
outer loop
vertex 31.0853 20.4435 57.7699
vertex 54.4899 19.0136 59.1404
vertex 54.4899 20.4435 57.7699
endloop
endfacet
facet normal 0 0.803997 0.594633
outer loop
vertex 31.0853 20.4435 57.7699
vertex 54.4899 20.4435 57.7699
vertex 31.0853 21.6213 56.1775
endloop
endfacet
facet normal 0 0.803997 0.594633
outer loop
vertex 31.0853 21.6213 56.1775
vertex 54.4899 20.4435 57.7699
vertex 54.4899 21.6213 56.1775
endloop
endfacet
facet normal 0 0.892925 0.450205
outer loop
vertex 31.0853 21.6213 56.1775
vertex 54.4899 21.6213 56.1775
vertex 31.0853 22.513 54.4089
endloop
endfacet
facet normal 0 0.892925 0.450205
outer loop
vertex 31.0853 22.513 54.4089
vertex 54.4899 21.6213 56.1775
vertex 54.4899 22.513 54.4089
endloop
endfacet
facet normal 0 0.956167 0.292823
outer loop
vertex 31.0853 22.513 54.4089
vertex 54.4899 22.513 54.4089
vertex 31.0853 23.093 52.5151
endloop
endfacet
facet normal 0 0.956167 0.292823
outer loop
vertex 31.0853 23.093 52.5151
vertex 54.4899 22.513 54.4089
vertex 54.4899 23.093 52.5151
endloop
endfacet
facet normal 0 0.9919 0.127018
outer loop
vertex 31.0853 23.093 52.5151
vertex 54.4899 23.093 52.5151
vertex 31.0853 23.3445 50.5504
endloop
endfacet
facet normal 0 0.9919 0.127018
outer loop
vertex 31.0853 23.3445 50.5504
vertex 54.4899 23.093 52.5151
vertex 54.4899 23.3445 50.5504
endloop
endfacet
facet normal 0 0.999099 -0.042442
outer loop
vertex 31.0853 23.3445 50.5504
vertex 54.4899 23.3445 50.5504
vertex 31.0853 23.2605 48.5716
endloop
endfacet
facet normal 0 0.999099 -0.042442
outer loop
vertex 31.0853 23.2605 48.5716
vertex 54.4899 23.3445 50.5504
vertex 54.4899 23.2605 48.5716
endloop
endfacet
facet normal 0 0.977555 -0.210679
outer loop
vertex 31.0853 23.2605 48.5716
vertex 54.4899 23.2605 48.5716
vertex 31.0853 22.8432 46.6354
endloop
endfacet
facet normal 0 0.977555 -0.210679
outer loop
vertex 31.0853 22.8432 46.6354
vertex 54.4899 23.2605 48.5716
vertex 54.4899 22.8432 46.6354
endloop
endfacet
facet normal 0 0.927889 -0.372857
outer loop
vertex 31.0853 22.8432 46.6354
vertex 54.4899 22.8432 46.6354
vertex 31.0853 22.1047 44.7976
endloop
endfacet
facet normal 0 0.927889 -0.372857
outer loop
vertex 31.0853 22.1047 44.7976
vertex 54.4899 22.8432 46.6354
vertex 54.4899 22.1047 44.7976
endloop
endfacet
facet normal 0 0.851529 -0.524307
outer loop
vertex 31.0853 22.1047 44.7976
vertex 54.4899 22.1047 44.7976
vertex 31.0853 21.0662 43.111
endloop
endfacet
facet normal 0 0.851529 -0.524307
outer loop
vertex 31.0853 21.0662 43.111
vertex 54.4899 22.1047 44.7976
vertex 54.4899 21.0662 43.111
endloop
endfacet
facet normal 0 0.750673 -0.660674
outer loop
vertex 31.0853 21.0662 43.111
vertex 54.4899 21.0662 43.111
vertex 31.0853 19.7577 41.6242
endloop
endfacet
facet normal 0 0.750673 -0.660674
outer loop
vertex 31.0853 19.7577 41.6242
vertex 54.4899 21.0662 43.111
vertex 54.4899 19.7577 41.6242
endloop
endfacet
facet normal 0 0.62822 -0.778036
outer loop
vertex 31.0853 19.7577 41.6242
vertex 54.4899 19.7577 41.6242
vertex 31.0853 18.2167 40.3799
endloop
endfacet
facet normal 0 0.62822 -0.778036
outer loop
vertex 31.0853 18.2167 40.3799
vertex 54.4899 19.7577 41.6242
vertex 54.4899 18.2167 40.3799
endloop
endfacet
facet normal 0 0.487694 -0.873015
outer loop
vertex 31.0853 18.2167 40.3799
vertex 54.4899 18.2167 40.3799
vertex 31.0853 16.4875 39.4139
endloop
endfacet
facet normal 0 0.487694 -0.873015
outer loop
vertex 31.0853 16.4875 39.4139
vertex 54.4899 18.2167 40.3799
vertex 54.4899 16.4875 39.4139
endloop
endfacet
facet normal 0 0.333141 -0.942877
outer loop
vertex 31.0853 16.4875 39.4139
vertex 54.4899 16.4875 39.4139
vertex 31.0853 14.62 38.7541
endloop
endfacet
facet normal 0 0.333141 -0.942877
outer loop
vertex 31.0853 14.62 38.7541
vertex 54.4899 16.4875 39.4139
vertex 54.4899 14.62 38.7541
endloop
endfacet
facet normal 0 0.169001 -0.985616
outer loop
vertex 31.0853 14.62 38.7541
vertex 54.4899 14.62 38.7541
vertex 31.0853 12.6679 38.4194
endloop
endfacet
facet normal 0 0.169001 -0.985616
outer loop
vertex 31.0853 12.6679 38.4194
vertex 54.4899 14.62 38.7541
vertex 54.4899 12.6679 38.4194
endloop
endfacet
facet normal 0 0 -1
outer loop
vertex 31.0853 12.6679 38.4194
vertex 54.4899 12.6679 38.4194
vertex 31.0853 10.6872 38.4194
endloop
endfacet
facet normal 0 0 -1
outer loop
vertex 31.0853 10.6872 38.4194
vertex 54.4899 12.6679 38.4194
vertex 54.4899 10.6872 38.4194
endloop
endfacet
facet normal 0 -0.169001 -0.985616
outer loop
vertex 31.0853 10.6872 38.4194
vertex 54.4899 10.6872 38.4194
vertex 31.0853 8.73505 38.7541
endloop
endfacet
facet normal 0 -0.169001 -0.985616
outer loop
vertex 31.0853 8.73505 38.7541
vertex 54.4899 10.6872 38.4194
vertex 54.4899 8.73505 38.7541
endloop
endfacet
facet normal 0 -0.333141 -0.942877
outer loop
vertex 31.0853 8.73505 38.7541
vertex 54.4899 8.73505 38.7541
vertex 31.0853 6.86754 39.4139
endloop
endfacet
facet normal 0 -0.333141 -0.942877
outer loop
vertex 31.0853 6.86754 39.4139
vertex 54.4899 8.73505 38.7541
vertex 54.4899 6.86754 39.4139
endloop
endfacet
facet normal 0 -0.487694 -0.873015
outer loop
vertex 31.0853 6.86754 39.4139
vertex 54.4899 6.86754 39.4139
vertex 31.0853 5.13841 40.3799
endloop
endfacet
facet normal 0 -0.487694 -0.873015
outer loop
vertex 31.0853 5.13841 40.3799
vertex 54.4899 6.86754 39.4139
vertex 54.4899 5.13841 40.3799
endloop
endfacet
facet normal 0 -0.62822 -0.778036
outer loop
vertex 31.0853 5.13841 40.3799
vertex 54.4899 5.13841 40.3799
vertex 31.0853 3.59739 41.6242
endloop
endfacet
facet normal 0 -0.62822 -0.778036
outer loop
vertex 31.0853 3.59739 41.6242
vertex 54.4899 5.13841 40.3799
vertex 54.4899 3.59739 41.6242
endloop
endfacet
facet normal 0 -0.750673 -0.660674
outer loop
vertex 31.0853 3.59739 41.6242
vertex 54.4899 3.59739 41.6242
vertex 31.0853 2.28883 43.111
endloop
endfacet
facet normal 0 -0.750673 -0.660674
outer loop
vertex 31.0853 2.28883 43.111
vertex 54.4899 3.59739 41.6242
vertex 54.4899 2.28883 43.111
endloop
endfacet
facet normal 0 -0.851529 -0.524307
outer loop
vertex 31.0853 2.28883 43.111
vertex 54.4899 2.28883 43.111
vertex 31.0853 1.25036 44.7976
endloop
endfacet
facet normal 0 -0.851529 -0.524307
outer loop
vertex 31.0853 1.25036 44.7976
vertex 54.4899 2.28883 43.111
vertex 54.4899 1.25036 44.7976
endloop
endfacet
facet normal 0 -0.927889 -0.372857
outer loop
vertex 31.0853 1.25036 44.7976
vertex 54.4899 1.25036 44.7976
vertex 31.0853 0.511866 46.6354
endloop
endfacet
facet normal 0 -0.927889 -0.372857
outer loop
vertex 31.0853 0.511866 46.6354
vertex 54.4899 1.25036 44.7976
vertex 54.4899 0.511866 46.6354
endloop
endfacet
facet normal 0 -0.977555 -0.210679
outer loop
vertex 31.0853 0.511866 46.6354
vertex 54.4899 0.511866 46.6354
vertex 31.0853 0.0945851 48.5716
endloop
endfacet
facet normal 0 -0.977555 -0.210679
outer loop
vertex 31.0853 0.0945851 48.5716
vertex 54.4899 0.511866 46.6354
vertex 54.4899 0.0945851 48.5716
endloop
endfacet
facet normal 0 -0.999099 -0.0424413
outer loop
vertex 31.0853 0.0945851 48.5716
vertex 54.4899 0.0945851 48.5716
vertex 31.0853 0.0105239 50.5504
endloop
endfacet
facet normal 0 -0.999099 -0.0424413
outer loop
vertex 31.0853 0.0105239 50.5504
vertex 54.4899 0.0945851 48.5716
vertex 54.4899 0.0105239 50.5504
endloop
endfacet
facet normal 0 -0.991901 0.127017
outer loop
vertex 31.0853 0.0105239 50.5504
vertex 54.4899 0.0105239 50.5504
vertex 31.0853 0.2621 52.5151
endloop
endfacet
facet normal 0 -0.991901 0.127017
outer loop
vertex 31.0853 0.2621 52.5151
vertex 54.4899 0.0105239 50.5504
vertex 54.4899 0.2621 52.5151
endloop
endfacet
facet normal 0 -0.956167 0.292823
outer loop
vertex 31.0853 0.2621 52.5151
vertex 54.4899 0.2621 52.5151
vertex 31.0853 0.84208 54.4089
endloop
endfacet
facet normal 0 -0.956167 0.292823
outer loop
vertex 31.0853 0.84208 54.4089
vertex 54.4899 0.2621 52.5151
vertex 54.4899 0.84208 54.4089
endloop
endfacet
facet normal 0 -0.892925 0.450205
outer loop
vertex 31.0853 0.84208 54.4089
vertex 54.4899 0.84208 54.4089
vertex 31.0853 1.73378 56.1775
endloop
endfacet
facet normal 0 -0.892925 0.450205
outer loop
vertex 31.0853 1.73378 56.1775
vertex 54.4899 0.84208 54.4089
vertex 54.4899 1.73378 56.1775
endloop
endfacet
facet normal 0 -0.803997 0.594633
outer loop
vertex 31.0853 1.73378 56.1775
vertex 54.4899 1.73378 56.1775
vertex 31.0853 2.91153 57.7699
endloop
endfacet
facet normal 0 -0.803997 0.594633
outer loop
vertex 31.0853 2.91153 57.7699
vertex 54.4899 1.73378 56.1775
vertex 54.4899 2.91153 57.7699
endloop
endfacet
facet normal 0 -0.69194 0.721955
outer loop
vertex 31.0853 2.91153 57.7699
vertex 54.4899 2.91153 57.7699
vertex 31.0853 4.34148 59.1404
endloop
endfacet
facet normal 0 -0.69194 0.721955
outer loop
vertex 31.0853 4.34148 59.1404
vertex 54.4899 2.91153 57.7699
vertex 54.4899 4.34148 59.1404
endloop
endfacet
facet normal 0 -0.559975 0.828509
outer loop
vertex 31.0853 4.34148 59.1404
vertex 54.4899 4.34148 59.1404
vertex 31.0853 5.98246 60.2495
endloop
endfacet
facet normal 0 -0.559975 0.828509
outer loop
vertex 31.0853 5.98246 60.2495
vertex 54.4899 4.34148 59.1404
vertex 54.4899 5.98246 60.2495
endloop
endfacet
facet normal 0 -0.4119 0.911229
outer loop
vertex 31.0853 5.98246 60.2495
vertex 54.4899 5.98246 60.2495
vertex 31.0853 7.78728 61.0653
endloop
endfacet
facet normal 0 -0.4119 0.911229
outer loop
vertex 31.0853 7.78728 61.0653
vertex 54.4899 5.98246 60.2495
vertex 54.4899 7.78728 61.0653
endloop
endfacet
facet normal 0 -0.251977 0.967733
outer loop
vertex 31.0853 7.78728 61.0653
vertex 54.4899 7.78728 61.0653
vertex 31.0853 9.70402 61.5644
endloop
endfacet
facet normal 0 -0.251977 0.967733
outer loop
vertex 31.0853 9.70402 61.5644
vertex 54.4899 7.78728 61.0653
vertex 54.4899 9.70402 61.5644
endloop
endfacet
facet normal 0 -0.0848087 0.996397
outer loop
vertex 31.0853 9.70402 61.5644
vertex 54.4899 9.70402 61.5644
vertex 31.0853 11.6775 61.7324
endloop
endfacet
facet normal 0 -0.0848087 0.996397
outer loop
vertex 31.0853 11.6775 61.7324
vertex 54.4899 9.70402 61.5644
vertex 54.4899 11.6775 61.7324
endloop
endfacet
facet normal 0 0.0848087 0.996397
outer loop
vertex 31.0853 11.6775 61.7324
vertex 54.4899 11.6775 61.7324
vertex 31.0853 13.651 61.5644
endloop
endfacet
facet normal 0 0.0848087 0.996397
outer loop
vertex 31.0853 13.651 61.5644
vertex 54.4899 11.6775 61.7324
vertex 54.4899 13.651 61.5644
endloop
endfacet
endsolid
