solid C:\Temp\NOELParts\REV_SHAFT.STL created by CtrlView V2.70
facet normal 0 1 0
outer loop
vertex 5.43833 170 17.9282
vertex 6.07074 170 19.502
vertex 6.96003 170 20.9463
endloop
endfacet
facet normal 0 1 0
outer loop
vertex 22.5067 170 8.39325
vertex 10.881 170 24.1123
vertex 12.4802 170 24.6773
endloop
endfacet
facet normal 0 1 0
outer loop
vertex 18.3314 170 5.57123
vertex 16.69 170 5.14384
vertex 19.8769 170 6.26986
endloop
endfacet
facet normal 0 1 0
outer loop
vertex 19.8769 170 6.26986
vertex 16.69 170 5.14384
vertex 6.96003 170 20.9463
endloop
endfacet
facet normal 0 1 0
outer loop
vertex 11.6686 170 5.57123
vertex 10.123 170 6.26986
vertex 8.7178 170 7.21964
endloop
endfacet
facet normal 0 1 0
outer loop
vertex 9.40025 170 23.2851
vertex 10.881 170 24.1123
vertex 8.08061 170 22.2196
endloop
endfacet
facet normal 0 1 0
outer loop
vertex 8.08061 170 22.2196
vertex 10.881 170 24.1123
vertex 22.5067 170 8.39325
endloop
endfacet
facet normal 0 1 0
outer loop
vertex 8.08061 170 22.2196
vertex 22.5067 170 8.39325
vertex 6.96003 170 20.9463
endloop
endfacet
facet normal 0 1 0
outer loop
vertex 6.96003 170 20.9463
vertex 22.5067 170 8.39325
vertex 21.2822 170 7.21964
endloop
endfacet
facet normal 0 1 0
outer loop
vertex 6.96003 170 20.9463
vertex 21.2822 170 7.21964
vertex 19.8769 170 6.26986
endloop
endfacet
facet normal 0 1 0
outer loop
vertex 16.69 170 5.14384
vertex 15 170 5
vertex 6.96003 170 20.9463
endloop
endfacet
facet normal 0 1 0
outer loop
vertex 6.96003 170 20.9463
vertex 15 170 5
vertex 13.31 170 5.14384
endloop
endfacet
facet normal 0 1 0
outer loop
vertex 6.96003 170 20.9463
vertex 13.31 170 5.14384
vertex 11.6686 170 5.57123
endloop
endfacet
facet normal 0 1 0
outer loop
vertex 20.5997 170 23.2851
vertex 21.9194 170 22.2196
vertex 23.04 170 20.9463
endloop
endfacet
facet normal 0 1 0
outer loop
vertex 11.6686 170 5.57123
vertex 8.7178 170 7.21964
vertex 6.96003 170 20.9463
endloop
endfacet
facet normal 0 1 0
outer loop
vertex 6.96003 170 20.9463
vertex 8.7178 170 7.21964
vertex 7.49328 170 8.39325
endloop
endfacet
facet normal 0 1 0
outer loop
vertex 6.96003 170 20.9463
vertex 7.49328 170 8.39325
vertex 6.48471 170 9.75693
endloop
endfacet
facet normal 0 1 0
outer loop
vertex 17.5198 170 24.6773
vertex 19.119 170 24.1123
vertex 15.8481 170 24.964
endloop
endfacet
facet normal 0 1 0
outer loop
vertex 15.8481 170 24.964
vertex 19.119 170 24.1123
vertex 22.5067 170 8.39325
endloop
endfacet
facet normal 0 1 0
outer loop
vertex 15.8481 170 24.964
vertex 22.5067 170 8.39325
vertex 14.1519 170 24.964
endloop
endfacet
facet normal 0 1 0
outer loop
vertex 14.1519 170 24.964
vertex 22.5067 170 8.39325
vertex 12.4802 170 24.6773
endloop
endfacet
facet normal 0 1 0
outer loop
vertex 19.119 170 24.1123
vertex 20.5997 170 23.2851
vertex 22.5067 170 8.39325
endloop
endfacet
facet normal 0 1 0
outer loop
vertex 22.5067 170 8.39325
vertex 20.5997 170 23.2851
vertex 23.04 170 20.9463
endloop
endfacet
facet normal 0 1 0
outer loop
vertex 22.5067 170 8.39325
vertex 23.04 170 20.9463
vertex 23.5153 170 9.75693
endloop
endfacet
facet normal 0 1 0
outer loop
vertex 23.5153 170 9.75693
vertex 23.04 170 20.9463
vertex 23.9293 170 19.502
endloop
endfacet
facet normal 0 1 0
outer loop
vertex 23.5153 170 9.75693
vertex 23.9293 170 19.502
vertex 24.2789 170 11.2714
endloop
endfacet
facet normal 0 1 0
outer loop
vertex 24.2789 170 11.2714
vertex 23.9293 170 19.502
vertex 24.5617 170 17.9282
endloop
endfacet
facet normal 0 1 0
outer loop
vertex 24.2789 170 11.2714
vertex 24.5617 170 17.9282
vertex 24.7756 170 12.8932
endloop
endfacet
facet normal 0 1 0
outer loop
vertex 24.7756 170 12.8932
vertex 24.5617 170 17.9282
vertex 24.919 170 16.2702
endloop
endfacet
facet normal 0 1 0
outer loop
vertex 24.7756 170 12.8932
vertex 24.919 170 16.2702
vertex 24.991 170 14.5756
endloop
endfacet
facet normal 0 1 0
outer loop
vertex 5.081 170 16.2702
vertex 5.43833 170 17.9282
vertex 5.00901 170 14.5756
endloop
endfacet
facet normal 0 1 0
outer loop
vertex 5.00901 170 14.5756
vertex 5.43833 170 17.9282
vertex 6.96003 170 20.9463
endloop
endfacet
facet normal 0 1 0
outer loop
vertex 5.00901 170 14.5756
vertex 6.96003 170 20.9463
vertex 5.22445 170 12.8932
endloop
endfacet
facet normal 0 1 0
outer loop
vertex 5.22445 170 12.8932
vertex 6.96003 170 20.9463
vertex 6.48471 170 9.75693
endloop
endfacet
facet normal 0 1 0
outer loop
vertex 5.22445 170 12.8932
vertex 6.48471 170 9.75693
vertex 5.72111 170 11.2714
endloop
endfacet
facet normal 0 -1 0
outer loop
vertex 18.3314 0 24.4288
vertex 16.69 0 24.8562
vertex 10.881 0 5.88772
endloop
endfacet
facet normal 0 -1 0
outer loop
vertex 8.7178 0 22.7804
vertex 7.49328 0 21.6067
vertex 6.48471 0 20.2431
endloop
endfacet
facet normal 0 -1 0
outer loop
vertex 18.3314 0 24.4288
vertex 10.881 0 5.88772
vertex 19.8769 0 23.7301
endloop
endfacet
facet normal 0 -1 0
outer loop
vertex 19.8769 0 23.7301
vertex 10.881 0 5.88772
vertex 12.4802 0 5.32267
endloop
endfacet
facet normal 0 -1 0
outer loop
vertex 19.8769 0 23.7301
vertex 12.4802 0 5.32267
vertex 14.1519 0 5.03602
endloop
endfacet
facet normal 0 -1 0
outer loop
vertex 19.119 0 5.88772
vertex 20.5997 0 6.7149
vertex 17.5198 0 5.32267
endloop
endfacet
facet normal 0 -1 0
outer loop
vertex 17.5198 0 5.32267
vertex 20.5997 0 6.7149
vertex 19.8769 0 23.7301
endloop
endfacet
facet normal 0 -1 0
outer loop
vertex 17.5198 0 5.32267
vertex 19.8769 0 23.7301
vertex 15.8481 0 5.03602
endloop
endfacet
facet normal 0 -1 0
outer loop
vertex 15.8481 0 5.03602
vertex 19.8769 0 23.7301
vertex 14.1519 0 5.03602
endloop
endfacet
facet normal 0 -1 0
outer loop
vertex 20.5997 0 6.7149
vertex 21.9194 0 7.78044
vertex 19.8769 0 23.7301
endloop
endfacet
facet normal 0 -1 0
outer loop
vertex 19.8769 0 23.7301
vertex 21.9194 0 7.78044
vertex 23.04 0 9.05367
endloop
endfacet
facet normal 0 -1 0
outer loop
vertex 19.8769 0 23.7301
vertex 23.04 0 9.05367
vertex 23.9293 0 10.498
endloop
endfacet
facet normal 0 -1 0
outer loop
vertex 16.69 0 24.8562
vertex 15 0 25
vertex 10.881 0 5.88772
endloop
endfacet
facet normal 0 -1 0
outer loop
vertex 10.881 0 5.88772
vertex 15 0 25
vertex 13.31 0 24.8562
endloop
endfacet
facet normal 0 -1 0
outer loop
vertex 10.881 0 5.88772
vertex 13.31 0 24.8562
vertex 11.6686 0 24.4288
endloop
endfacet
facet normal 0 -1 0
outer loop
vertex 22.5067 0 21.6067
vertex 21.2822 0 22.7804
vertex 23.5153 0 20.2431
endloop
endfacet
facet normal 0 -1 0
outer loop
vertex 23.5153 0 20.2431
vertex 21.2822 0 22.7804
vertex 19.8769 0 23.7301
endloop
endfacet
facet normal 0 -1 0
outer loop
vertex 23.5153 0 20.2431
vertex 19.8769 0 23.7301
vertex 24.2789 0 18.7286
endloop
endfacet
facet normal 0 -1 0
outer loop
vertex 24.2789 0 18.7286
vertex 19.8769 0 23.7301
vertex 24.7756 0 17.1068
endloop
endfacet
facet normal 0 -1 0
outer loop
vertex 5.72111 0 18.7286
vertex 5.22445 0 17.1068
vertex 6.48471 0 20.2431
endloop
endfacet
facet normal 0 -1 0
outer loop
vertex 6.48471 0 20.2431
vertex 5.22445 0 17.1068
vertex 10.881 0 5.88772
endloop
endfacet
facet normal 0 -1 0
outer loop
vertex 6.48471 0 20.2431
vertex 10.881 0 5.88772
vertex 8.7178 0 22.7804
endloop
endfacet
facet normal 0 -1 0
outer loop
vertex 8.7178 0 22.7804
vertex 10.881 0 5.88772
vertex 11.6686 0 24.4288
endloop
endfacet
facet normal 0 -1 0
outer loop
vertex 8.7178 0 22.7804
vertex 11.6686 0 24.4288
vertex 10.123 0 23.7301
endloop
endfacet
facet normal 0 -1 0
outer loop
vertex 5.22445 0 17.1068
vertex 5.00901 0 15.4244
vertex 10.881 0 5.88772
endloop
endfacet
facet normal 0 -1 0
outer loop
vertex 10.881 0 5.88772
vertex 5.00901 0 15.4244
vertex 5.081 0 13.7298
endloop
endfacet
facet normal 0 -1 0
outer loop
vertex 10.881 0 5.88772
vertex 5.081 0 13.7298
vertex 5.43833 0 12.0718
endloop
endfacet
facet normal 0 -1 0
outer loop
vertex 24.991 0 15.4244
vertex 24.7756 0 17.1068
vertex 24.919 0 13.7298
endloop
endfacet
facet normal 0 -1 0
outer loop
vertex 24.919 0 13.7298
vertex 24.7756 0 17.1068
vertex 19.8769 0 23.7301
endloop
endfacet
facet normal 0 -1 0
outer loop
vertex 24.919 0 13.7298
vertex 19.8769 0 23.7301
vertex 24.5617 0 12.0718
endloop
endfacet
facet normal 0 -1 0
outer loop
vertex 24.5617 0 12.0718
vertex 19.8769 0 23.7301
vertex 23.9293 0 10.498
endloop
endfacet
facet normal 0 -1 0
outer loop
vertex 8.08061 0 7.78044
vertex 9.40025 0 6.7149
vertex 6.96003 0 9.05367
endloop
endfacet
facet normal 0 -1 0
outer loop
vertex 6.96003 0 9.05367
vertex 9.40025 0 6.7149
vertex 10.881 0 5.88772
endloop
endfacet
facet normal 0 -1 0
outer loop
vertex 6.96003 0 9.05367
vertex 10.881 0 5.88772
vertex 6.07074 0 10.498
endloop
endfacet
facet normal 0 -1 0
outer loop
vertex 6.07074 0 10.498
vertex 10.881 0 5.88772
vertex 5.43833 0 12.0718
endloop
endfacet
facet normal -0.0600749 0.70583 -0.70583
outer loop
vertex 13.31 170 5.14384
vertex 15 170 5
vertex 13.7325 165 0.107881
endloop
endfacet
facet normal -0.0600749 0.70583 -0.70583
outer loop
vertex 13.7325 165 0.107881
vertex 12.465 165 0.215761
vertex 13.31 170 5.14384
endloop
endfacet
facet normal -0.178497 0.70583 -0.685524
outer loop
vertex 13.31 170 5.14384
vertex 12.465 165 0.215761
vertex 11.2339 165 0.536299
endloop
endfacet
facet normal -0.178497 0.70583 -0.685524
outer loop
vertex 13.31 170 5.14384
vertex 11.2339 165 0.536299
vertex 11.6686 170 5.57123
endloop
endfacet
facet normal -0.178497 0.70583 -0.685524
outer loop
vertex 11.2339 165 0.536299
vertex 10.0029 165 0.856838
vertex 11.6686 170 5.57123
endloop
endfacet
facet normal -0.291783 0.70583 -0.645498
outer loop
vertex 11.6686 170 5.57123
vertex 10.0029 165 0.856838
vertex 8.84374 165 1.38081
endloop
endfacet
facet normal -0.291783 0.70583 -0.645498
outer loop
vertex 11.6686 170 5.57123
vertex 8.84374 165 1.38081
vertex 10.123 170 6.26986
endloop
endfacet
facet normal -0.291783 0.70583 -0.645497
outer loop
vertex 8.84374 165 1.38081
vertex 7.68458 165 1.90479
vertex 10.123 170 6.26986
endloop
endfacet
facet normal -0.396676 0.70583 -0.586901
outer loop
vertex 10.123 170 6.26986
vertex 7.68458 165 1.90479
vertex 6.63064 165 2.61713
endloop
endfacet
facet normal -0.396676 0.70583 -0.586901
outer loop
vertex 10.123 170 6.26986
vertex 6.63064 165 2.61713
vertex 8.7178 170 7.21964
endloop
endfacet
facet normal -0.396676 0.70583 -0.586901
outer loop
vertex 6.63064 165 2.61713
vertex 5.5767 165 3.32946
vertex 8.7178 170 7.21964
endloop
endfacet
facet normal -0.490157 0.70583 -0.511421
outer loop
vertex 8.7178 170 7.21964
vertex 5.5767 165 3.32946
vertex 4.65831 165 4.20967
endloop
endfacet
facet normal -0.490157 0.70583 -0.51142
outer loop
vertex 8.7178 170 7.21964
vertex 4.65831 165 4.20967
vertex 7.49328 170 8.39325
endloop
endfacet
facet normal -0.490157 0.70583 -0.51142
outer loop
vertex 4.65831 165 4.20967
vertex 3.73991 165 5.08988
vertex 7.49328 170 8.39325
endloop
endfacet
facet normal -0.569537 0.70583 -0.421227
outer loop
vertex 7.49328 170 8.39325
vertex 3.73991 165 5.08988
vertex 2.98349 165 6.11263
endloop
endfacet
facet normal -0.569537 0.70583 -0.421227
outer loop
vertex 7.49328 170 8.39325
vertex 2.98349 165 6.11263
vertex 6.48471 170 9.75693
endloop
endfacet
facet normal -0.569537 0.70583 -0.421227
outer loop
vertex 2.98349 165 6.11263
vertex 2.22706 165 7.13539
vertex 6.48471 170 9.75693
endloop
endfacet
facet normal -0.632532 0.70583 -0.318916
outer loop
vertex 6.48471 170 9.75693
vertex 2.22706 165 7.13539
vertex 1.65436 165 8.27127
endloop
endfacet
facet normal -0.632532 0.70583 -0.318916
outer loop
vertex 6.48471 170 9.75693
vertex 1.65436 165 8.27127
vertex 5.72111 170 11.2714
endloop
endfacet
facet normal -0.632532 0.70583 -0.318916
outer loop
vertex 1.65436 165 8.27127
vertex 1.08166 165 9.40715
vertex 5.72111 170 11.2714
endloop
endfacet
facet normal -0.677331 0.70583 -0.20743
outer loop
vertex 5.72111 170 11.2714
vertex 1.08166 165 9.40715
vertex 0.709168 165 10.6235
endloop
endfacet
facet normal -0.677331 0.70583 -0.20743
outer loop
vertex 5.72111 170 11.2714
vertex 0.709168 165 10.6235
vertex 5.22445 170 12.8932
endloop
endfacet
facet normal -0.677331 0.70583 -0.20743
outer loop
vertex 0.709168 165 10.6235
vertex 0.336671 165 11.8398
vertex 5.22445 170 12.8932
endloop
endfacet
facet normal -0.702644 0.70583 -0.089977
outer loop
vertex 5.22445 170 12.8932
vertex 0.336671 165 11.8398
vertex 0.175093 165 13.1016
endloop
endfacet
facet normal -0.702644 0.70583 -0.0899772
outer loop
vertex 5.22445 170 12.8932
vertex 0.175093 165 13.1016
vertex 5.00901 170 14.5756
endloop
endfacet
facet normal -0.702644 0.70583 -0.0899771
outer loop
vertex 0.175093 165 13.1016
vertex 0.0135154 165 14.3634
vertex 5.00901 170 14.5756
endloop
endfacet
facet normal -0.707743 0.70583 0.0300645
outer loop
vertex 5.00901 170 14.5756
vertex 0.0135154 165 14.3634
vertex 0.0675041 165 15.6343
endloop
endfacet
facet normal -0.707743 0.70583 0.0300643
outer loop
vertex 5.00901 170 14.5756
vertex 0.0675041 165 15.6343
vertex 5.081 170 16.2702
endloop
endfacet
facet normal -0.707743 0.70583 0.0300644
outer loop
vertex 0.0675041 165 15.6343
vertex 0.121493 165 16.9053
vertex 5.081 170 16.2702
endloop
endfacet
facet normal -0.692482 0.70583 0.149242
outer loop
vertex 5.081 170 16.2702
vertex 0.121493 165 16.9053
vertex 0.389496 165 18.1488
endloop
endfacet
facet normal -0.692482 0.70583 0.149241
outer loop
vertex 5.081 170 16.2702
vertex 0.389496 165 18.1488
vertex 5.43833 170 17.9282
endloop
endfacet
facet normal -0.692482 0.70583 0.149241
outer loop
vertex 0.389496 165 18.1488
vertex 0.657499 165 19.3923
vertex 5.43833 170 17.9282
endloop
endfacet
facet normal -0.6573 0.70583 0.264124
outer loop
vertex 5.43833 170 17.9282
vertex 0.657499 165 19.3923
vertex 1.13181 165 20.5727
endloop
endfacet
facet normal -0.657299 0.70583 0.264125
outer loop
vertex 5.43833 170 17.9282
vertex 1.13181 165 20.5727
vertex 6.07074 170 19.502
endloop
endfacet
facet normal -0.657299 0.70583 0.264125
outer loop
vertex 1.13181 165 20.5727
vertex 1.60611 165 21.7531
vertex 6.07074 170 19.502
endloop
endfacet
facet normal -0.603207 0.70583 0.37141
outer loop
vertex 6.07074 170 19.502
vertex 1.60611 165 21.7531
vertex 2.27308 165 22.8363
endloop
endfacet
facet normal -0.603208 0.70583 0.37141
outer loop
vertex 6.07074 170 19.502
vertex 2.27308 165 22.8363
vertex 6.96003 170 20.9463
endloop
endfacet
facet normal -0.603208 0.70583 0.37141
outer loop
vertex 2.27308 165 22.8363
vertex 2.94004 165 23.9195
vertex 6.96003 170 20.9463
endloop
endfacet
facet normal -0.531763 0.70583 0.46801
outer loop
vertex 6.96003 170 20.9463
vertex 2.94004 165 23.9195
vertex 3.78048 165 24.8744
endloop
endfacet
facet normal -0.531763 0.70583 0.46801
outer loop
vertex 6.96003 170 20.9463
vertex 3.78048 165 24.8744
vertex 8.08061 170 22.2196
endloop
endfacet
facet normal -0.531763 0.70583 0.468009
outer loop
vertex 3.78048 165 24.8744
vertex 4.62092 165 25.8293
vertex 8.08061 170 22.2196
endloop
endfacet
facet normal -0.445019 0.70583 0.551147
outer loop
vertex 8.08061 170 22.2196
vertex 4.62092 165 25.8293
vertex 5.61065 165 26.6285
endloop
endfacet
facet normal -0.44502 0.70583 0.551146
outer loop
vertex 8.08061 170 22.2196
vertex 5.61065 165 26.6285
vertex 9.40025 170 23.2851
endloop
endfacet
facet normal -0.445019 0.70583 0.551147
outer loop
vertex 5.61065 165 26.6285
vertex 6.60038 165 27.4276
vertex 9.40025 170 23.2851
endloop
endfacet
facet normal -0.345474 0.70583 0.618427
outer loop
vertex 9.40025 170 23.2851
vertex 6.60038 165 27.4276
vertex 7.71093 165 28.048
endloop
endfacet
facet normal -0.345474 0.70583 0.618427
outer loop
vertex 9.40025 170 23.2851
vertex 7.71093 165 28.048
vertex 10.881 170 24.1123
endloop
endfacet
facet normal -0.345474 0.70583 0.618427
outer loop
vertex 7.71093 165 28.048
vertex 8.82148 165 28.6684
vertex 10.881 170 24.1123
endloop
endfacet
facet normal -0.235991 0.70583 0.667917
outer loop
vertex 10.881 170 24.1123
vertex 8.82148 165 28.6684
vertex 10.0209 165 29.0922
endloop
endfacet
facet normal -0.23599 0.70583 0.667917
outer loop
vertex 10.881 170 24.1123
vertex 10.0209 165 29.0922
vertex 12.4802 170 24.6773
endloop
endfacet
facet normal -0.23599 0.70583 0.667917
outer loop
vertex 10.0209 165 29.0922
vertex 11.2203 165 29.516
vertex 12.4802 170 24.6773
endloop
endfacet
facet normal -0.119718 0.70583 0.698192
outer loop
vertex 12.4802 170 24.6773
vertex 11.2203 165 29.516
vertex 12.4741 165 29.731
endloop
endfacet
facet normal -0.119717 0.70583 0.698192
outer loop
vertex 12.4802 170 24.6773
vertex 12.4741 165 29.731
vertex 14.1519 170 24.964
endloop
endfacet
facet normal -0.119717 0.70583 0.698192
outer loop
vertex 12.4741 165 29.731
vertex 13.7279 165 29.946
vertex 14.1519 170 24.964
endloop
endfacet
facet normal -0.0300237 0.706788 0.706788
outer loop
vertex 14.1519 170 24.964
vertex 13.7279 165 29.946
vertex 15 165 30
endloop
endfacet
facet normal 0 0.70964 0.704564
outer loop
vertex 14.1519 170 24.964
vertex 15 165 30
vertex 15.8481 170 24.964
endloop
endfacet
facet normal 0.0300237 0.706788 0.706788
outer loop
vertex 15 165 30
vertex 16.2721 165 29.946
vertex 15.8481 170 24.964
endloop
endfacet
facet normal 0.119718 0.70583 0.698192
outer loop
vertex 15.8481 170 24.964
vertex 16.2721 165 29.946
vertex 17.5259 165 29.731
endloop
endfacet
facet normal 0.119717 0.70583 0.698192
outer loop
vertex 15.8481 170 24.964
vertex 17.5259 165 29.731
vertex 17.5198 170 24.6773
endloop
endfacet
facet normal 0.119717 0.70583 0.698192
outer loop
vertex 17.5259 165 29.731
vertex 18.7797 165 29.516
vertex 17.5198 170 24.6773
endloop
endfacet
facet normal 0.235989 0.70583 0.667917
outer loop
vertex 17.5198 170 24.6773
vertex 18.7797 165 29.516
vertex 19.9791 165 29.0922
endloop
endfacet
facet normal 0.23599 0.70583 0.667917
outer loop
vertex 17.5198 170 24.6773
vertex 19.9791 165 29.0922
vertex 19.119 170 24.1123
endloop
endfacet
facet normal 0.235991 0.70583 0.667917
outer loop
vertex 19.9791 165 29.0922
vertex 21.1785 165 28.6684
vertex 19.119 170 24.1123
endloop
endfacet
facet normal 0.345474 0.70583 0.618427
outer loop
vertex 19.119 170 24.1123
vertex 21.1785 165 28.6684
vertex 22.2891 165 28.048
endloop
endfacet
facet normal 0.345474 0.70583 0.618427
outer loop
vertex 19.119 170 24.1123
vertex 22.2891 165 28.048
vertex 20.5997 170 23.2851
endloop
endfacet
facet normal 0.345474 0.70583 0.618427
outer loop
vertex 22.2891 165 28.048
vertex 23.3996 165 27.4276
vertex 20.5997 170 23.2851
endloop
endfacet
facet normal 0.445019 0.70583 0.551147
outer loop
vertex 20.5997 170 23.2851
vertex 23.3996 165 27.4276
vertex 24.3894 165 26.6285
endloop
endfacet
facet normal 0.44502 0.70583 0.551146
outer loop
vertex 20.5997 170 23.2851
vertex 24.3894 165 26.6285
vertex 21.9194 170 22.2196
endloop
endfacet
facet normal 0.445019 0.70583 0.551147
outer loop
vertex 24.3894 165 26.6285
vertex 25.3791 165 25.8293
vertex 21.9194 170 22.2196
endloop
endfacet
facet normal 0.531763 0.70583 0.468009
outer loop
vertex 21.9194 170 22.2196
vertex 25.3791 165 25.8293
vertex 26.2195 165 24.8744
endloop
endfacet
facet normal 0.531763 0.70583 0.46801
outer loop
vertex 21.9194 170 22.2196
vertex 26.2195 165 24.8744
vertex 23.04 170 20.9463
endloop
endfacet
facet normal 0.531762 0.70583 0.46801
outer loop
vertex 26.2195 165 24.8744
vertex 27.06 165 23.9195
vertex 23.04 170 20.9463
endloop
endfacet
facet normal 0.603208 0.70583 0.371409
outer loop
vertex 23.04 170 20.9463
vertex 27.06 165 23.9195
vertex 27.7269 165 22.8363
endloop
endfacet
facet normal 0.603208 0.70583 0.371409
outer loop
vertex 23.04 170 20.9463
vertex 27.7269 165 22.8363
vertex 23.9293 170 19.502
endloop
endfacet
facet normal 0.603208 0.70583 0.371409
outer loop
vertex 27.7269 165 22.8363
vertex 28.3939 165 21.7531
vertex 23.9293 170 19.502
endloop
endfacet
facet normal 0.657299 0.70583 0.264126
outer loop
vertex 23.9293 170 19.502
vertex 28.3939 165 21.7531
vertex 28.8682 165 20.5727
endloop
endfacet
facet normal 0.657299 0.70583 0.264125
outer loop
vertex 23.9293 170 19.502
vertex 28.8682 165 20.5727
vertex 24.5617 170 17.9282
endloop
endfacet
facet normal 0.6573 0.70583 0.264124
outer loop
vertex 28.8682 165 20.5727
vertex 29.3425 165 19.3923
vertex 24.5617 170 17.9282
endloop
endfacet
facet normal 0.692482 0.70583 0.149242
outer loop
vertex 24.5617 170 17.9282
vertex 29.3425 165 19.3923
vertex 29.6105 165 18.1488
endloop
endfacet
facet normal 0.692482 0.70583 0.149241
outer loop
vertex 24.5617 170 17.9282
vertex 29.6105 165 18.1488
vertex 24.919 170 16.2702
endloop
endfacet
facet normal 0.692482 0.70583 0.149241
outer loop
vertex 29.6105 165 18.1488
vertex 29.8785 165 16.9053
vertex 24.919 170 16.2702
endloop
endfacet
facet normal 0.707743 0.70583 0.0300648
outer loop
vertex 24.919 170 16.2702
vertex 29.8785 165 16.9053
vertex 29.9325 165 15.6343
endloop
endfacet
facet normal 0.707743 0.70583 0.0300653
outer loop
vertex 24.919 170 16.2702
vertex 29.9325 165 15.6343
vertex 24.991 170 14.5756
endloop
endfacet
facet normal 0.707743 0.70583 0.0300648
outer loop
vertex 29.9325 165 15.6343
vertex 29.9865 165 14.3634
vertex 24.991 170 14.5756
endloop
endfacet
facet normal 0.702644 0.70583 -0.0899777
outer loop
vertex 24.991 170 14.5756
vertex 29.9865 165 14.3634
vertex 29.8249 165 13.1016
endloop
endfacet
facet normal 0.702644 0.70583 -0.0899778
outer loop
vertex 24.991 170 14.5756
vertex 29.8249 165 13.1016
vertex 24.7756 170 12.8932
endloop
endfacet
facet normal 0.702644 0.70583 -0.0899766
outer loop
vertex 29.8249 165 13.1016
vertex 29.6633 165 11.8398
vertex 24.7756 170 12.8932
endloop
endfacet
facet normal 0.677331 0.70583 -0.20743
outer loop
vertex 24.7756 170 12.8932
vertex 29.6633 165 11.8398
vertex 29.2908 165 10.6235
endloop
endfacet
facet normal 0.677331 0.70583 -0.207429
outer loop
vertex 24.7756 170 12.8932
vertex 29.2908 165 10.6235
vertex 24.2789 170 11.2714
endloop
endfacet
facet normal 0.677331 0.70583 -0.207431
outer loop
vertex 29.2908 165 10.6235
vertex 28.9183 165 9.40715
vertex 24.2789 170 11.2714
endloop
endfacet
facet normal 0.632532 0.70583 -0.318916
outer loop
vertex 24.2789 170 11.2714
vertex 28.9183 165 9.40715
vertex 28.3456 165 8.27127
endloop
endfacet
facet normal 0.632532 0.70583 -0.318916
outer loop
vertex 24.2789 170 11.2714
vertex 28.3456 165 8.27127
vertex 23.5153 170 9.75693
endloop
endfacet
facet normal 0.632532 0.70583 -0.318916
outer loop
vertex 28.3456 165 8.27127
vertex 27.7729 165 7.13539
vertex 23.5153 170 9.75693
endloop
endfacet
facet normal 0.569536 0.70583 -0.421228
outer loop
vertex 23.5153 170 9.75693
vertex 27.7729 165 7.13539
vertex 27.0165 165 6.11263
endloop
endfacet
facet normal 0.569537 0.70583 -0.421227
outer loop
vertex 23.5153 170 9.75693
vertex 27.0165 165 6.11263
vertex 22.5067 170 8.39325
endloop
endfacet
facet normal 0.569537 0.70583 -0.421227
outer loop
vertex 27.0165 165 6.11263
vertex 26.2601 165 5.08988
vertex 22.5067 170 8.39325
endloop
endfacet
facet normal 0.490157 0.70583 -0.51142
outer loop
vertex 22.5067 170 8.39325
vertex 26.2601 165 5.08988
vertex 25.3417 165 4.20967
endloop
endfacet
facet normal 0.490157 0.70583 -0.51142
outer loop
vertex 22.5067 170 8.39325
vertex 25.3417 165 4.20967
vertex 21.2822 170 7.21964
endloop
endfacet
facet normal 0.490156 0.70583 -0.511421
outer loop
vertex 25.3417 165 4.20967
vertex 24.4233 165 3.32946
vertex 21.2822 170 7.21964
endloop
endfacet
facet normal 0.396675 0.70583 -0.586901
outer loop
vertex 21.2822 170 7.21964
vertex 24.4233 165 3.32946
vertex 23.3694 165 2.61713
endloop
endfacet
facet normal 0.396676 0.70583 -0.586901
outer loop
vertex 21.2822 170 7.21964
vertex 23.3694 165 2.61713
vertex 19.8769 170 6.26986
endloop
endfacet
facet normal 0.396676 0.70583 -0.586901
outer loop
vertex 23.3694 165 2.61713
vertex 22.3154 165 1.90479
vertex 19.8769 170 6.26986
endloop
endfacet
facet normal 0.291784 0.70583 -0.645497
outer loop
vertex 19.8769 170 6.26986
vertex 22.3154 165 1.90479
vertex 21.1563 165 1.38081
endloop
endfacet
facet normal 0.291783 0.70583 -0.645498
outer loop
vertex 19.8769 170 6.26986
vertex 21.1563 165 1.38081
vertex 18.3314 170 5.57123
endloop
endfacet
facet normal 0.291783 0.70583 -0.645498
outer loop
vertex 21.1563 165 1.38081
vertex 19.9971 165 0.856838
vertex 18.3314 170 5.57123
endloop
endfacet
facet normal 0.178497 0.70583 -0.685524
outer loop
vertex 18.3314 170 5.57123
vertex 19.9971 165 0.856838
vertex 18.7661 165 0.536299
endloop
endfacet
facet normal 0.178497 0.70583 -0.685524
outer loop
vertex 18.3314 170 5.57123
vertex 18.7661 165 0.536299
vertex 16.69 170 5.14384
endloop
endfacet
facet normal 0.178496 0.70583 -0.685524
outer loop
vertex 18.7661 165 0.536299
vertex 17.535 165 0.215761
vertex 16.69 170 5.14384
endloop
endfacet
facet normal 0.060075 0.70583 -0.70583
outer loop
vertex 16.69 170 5.14384
vertex 17.535 165 0.215761
vertex 16.2675 165 0.107881
endloop
endfacet
facet normal 0.0600749 0.70583 -0.70583
outer loop
vertex 16.69 170 5.14384
vertex 16.2675 165 0.107881
vertex 15 170 5
endloop
endfacet
facet normal 0.060075 0.70583 -0.70583
outer loop
vertex 15 170 5
vertex 16.2675 165 0.107881
vertex 15 165 0
endloop
endfacet
facet normal -0.0600749 0.70583 -0.70583
outer loop
vertex 15 170 5
vertex 15 165 0
vertex 13.7325 165 0.107881
endloop
endfacet
facet normal 0.178497 -0.70583 0.685524
outer loop
vertex 17.535 5 29.7842
vertex 16.69 0 24.8562
vertex 19.9971 5 29.1432
endloop
endfacet
facet normal 0.178496 -0.70583 0.685524
outer loop
vertex 19.9971 5 29.1432
vertex 16.69 0 24.8562
vertex 18.3314 0 24.4288
endloop
endfacet
facet normal 0.291783 -0.70583 0.645497
outer loop
vertex 19.9971 5 29.1432
vertex 18.3314 0 24.4288
vertex 22.3154 5 28.0952
endloop
endfacet
facet normal 0.291783 -0.70583 0.645498
outer loop
vertex 22.3154 5 28.0952
vertex 18.3314 0 24.4288
vertex 19.8769 0 23.7301
endloop
endfacet
facet normal 0.396676 -0.70583 0.586901
outer loop
vertex 22.3154 5 28.0952
vertex 19.8769 0 23.7301
vertex 24.4233 5 26.6705
endloop
endfacet
facet normal 0.396676 -0.70583 0.586901
outer loop
vertex 24.4233 5 26.6705
vertex 19.8769 0 23.7301
vertex 21.2822 0 22.7804
endloop
endfacet
facet normal 0.490157 -0.70583 0.511421
outer loop
vertex 24.4233 5 26.6705
vertex 21.2822 0 22.7804
vertex 26.2601 5 24.9101
endloop
endfacet
facet normal 0.490157 -0.70583 0.51142
outer loop
vertex 26.2601 5 24.9101
vertex 21.2822 0 22.7804
vertex 22.5067 0 21.6067
endloop
endfacet
facet normal 0.569537 -0.70583 0.421227
outer loop
vertex 26.2601 5 24.9101
vertex 22.5067 0 21.6067
vertex 27.7729 5 22.8646
endloop
endfacet
facet normal 0.569537 -0.70583 0.421227
outer loop
vertex 27.7729 5 22.8646
vertex 22.5067 0 21.6067
vertex 23.5153 0 20.2431
endloop
endfacet
facet normal 0.632532 -0.70583 0.318915
outer loop
vertex 27.7729 5 22.8646
vertex 23.5153 0 20.2431
vertex 28.9183 5 20.5928
endloop
endfacet
facet normal 0.632532 -0.70583 0.318916
outer loop
vertex 28.9183 5 20.5928
vertex 23.5153 0 20.2431
vertex 24.2789 0 18.7286
endloop
endfacet
facet normal 0.677331 -0.70583 0.20743
outer loop
vertex 28.9183 5 20.5928
vertex 24.2789 0 18.7286
vertex 29.6633 5 18.1602
endloop
endfacet
facet normal 0.677331 -0.70583 0.207429
outer loop
vertex 29.6633 5 18.1602
vertex 24.2789 0 18.7286
vertex 24.7756 0 17.1068
endloop
endfacet
facet normal 0.702644 -0.70583 0.0899772
outer loop
vertex 29.6633 5 18.1602
vertex 24.7756 0 17.1068
vertex 29.9865 5 15.6366
endloop
endfacet
facet normal 0.702644 -0.70583 0.0899777
outer loop
vertex 29.9865 5 15.6366
vertex 24.7756 0 17.1068
vertex 24.991 0 15.4244
endloop
endfacet
facet normal 0.707743 -0.70583 -0.0300648
outer loop
vertex 29.9865 5 15.6366
vertex 24.991 0 15.4244
vertex 29.8785 5 13.0947
endloop
endfacet
facet normal 0.707743 -0.70583 -0.0300653
outer loop
vertex 29.8785 5 13.0947
vertex 24.991 0 15.4244
vertex 24.919 0 13.7298
endloop
endfacet
facet normal 0.692482 -0.70583 -0.149241
outer loop
vertex 29.8785 5 13.0947
vertex 24.919 0 13.7298
vertex 29.3425 5 10.6077
endloop
endfacet
facet normal 0.692482 -0.70583 -0.149241
outer loop
vertex 29.3425 5 10.6077
vertex 24.919 0 13.7298
vertex 24.5617 0 12.0718
endloop
endfacet
facet normal 0.657299 -0.70583 -0.264125
outer loop
vertex 29.3425 5 10.6077
vertex 24.5617 0 12.0718
vertex 28.3939 5 8.24694
endloop
endfacet
facet normal 0.657299 -0.70583 -0.264125
outer loop
vertex 28.3939 5 8.24694
vertex 24.5617 0 12.0718
vertex 23.9293 0 10.498
endloop
endfacet
facet normal 0.603208 -0.70583 -0.371409
outer loop
vertex 28.3939 5 8.24694
vertex 23.9293 0 10.498
vertex 27.06 5 6.0805
endloop
endfacet
facet normal 0.603208 -0.70583 -0.371409
outer loop
vertex 27.06 5 6.0805
vertex 23.9293 0 10.498
vertex 23.04 0 9.05367
endloop
endfacet
facet normal 0.531762 -0.70583 -0.46801
outer loop
vertex 27.06 5 6.0805
vertex 23.04 0 9.05367
vertex 25.3791 5 4.17066
endloop
endfacet
facet normal 0.531762 -0.70583 -0.46801
outer loop
vertex 25.3791 5 4.17066
vertex 23.04 0 9.05367
vertex 21.9194 0 7.78044
endloop
endfacet
facet normal 0.445019 -0.70583 -0.551146
outer loop
vertex 25.3791 5 4.17066
vertex 21.9194 0 7.78044
vertex 23.3996 5 2.57235
endloop
endfacet
facet normal 0.44502 -0.70583 -0.551146
outer loop
vertex 23.3996 5 2.57235
vertex 21.9194 0 7.78044
vertex 20.5997 0 6.7149
endloop
endfacet
facet normal 0.345474 -0.70583 -0.618427
outer loop
vertex 23.3996 5 2.57235
vertex 20.5997 0 6.7149
vertex 21.1785 5 1.33157
endloop
endfacet
facet normal 0.345474 -0.70583 -0.618427
outer loop
vertex 21.1785 5 1.33157
vertex 20.5997 0 6.7149
vertex 19.119 0 5.88772
endloop
endfacet
facet normal 0.23599 -0.70583 -0.667917
outer loop
vertex 21.1785 5 1.33157
vertex 19.119 0 5.88772
vertex 18.7797 5 0.484006
endloop
endfacet
facet normal 0.23599 -0.70583 -0.667917
outer loop
vertex 18.7797 5 0.484006
vertex 19.119 0 5.88772
vertex 17.5198 0 5.32267
endloop
endfacet
facet normal 0.119717 -0.70583 -0.698192
outer loop
vertex 18.7797 5 0.484006
vertex 17.5198 0 5.32267
vertex 16.2721 5 0.0540372
endloop
endfacet
facet normal 0.119717 -0.70583 -0.698192
outer loop
vertex 16.2721 5 0.0540372
vertex 17.5198 0 5.32267
vertex 15.8481 0 5.03602
endloop
endfacet
facet normal 0 -0.70583 -0.708382
outer loop
vertex 16.2721 5 0.0540372
vertex 15.8481 0 5.03602
vertex 13.7279 5 0.0540372
endloop
endfacet
facet normal 0 -0.70583 -0.708382
outer loop
vertex 13.7279 5 0.0540372
vertex 15.8481 0 5.03602
vertex 14.1519 0 5.03602
endloop
endfacet
facet normal -0.119717 -0.70583 -0.698192
outer loop
vertex 13.7279 5 0.0540372
vertex 14.1519 0 5.03602
vertex 11.2203 5 0.484006
endloop
endfacet
facet normal -0.119717 -0.70583 -0.698192
outer loop
vertex 11.2203 5 0.484006
vertex 14.1519 0 5.03602
vertex 12.4802 0 5.32267
endloop
endfacet
facet normal -0.23599 -0.70583 -0.667917
outer loop
vertex 11.2203 5 0.484006
vertex 12.4802 0 5.32267
vertex 8.82148 5 1.33157
endloop
endfacet
facet normal -0.23599 -0.70583 -0.667917
outer loop
vertex 8.82148 5 1.33157
vertex 12.4802 0 5.32267
vertex 10.881 0 5.88772
endloop
endfacet
facet normal -0.345474 -0.70583 -0.618427
outer loop
vertex 8.82148 5 1.33157
vertex 10.881 0 5.88772
vertex 6.60038 5 2.57235
endloop
endfacet
facet normal -0.345474 -0.70583 -0.618427
outer loop
vertex 6.60038 5 2.57235
vertex 10.881 0 5.88772
vertex 9.40025 0 6.7149
endloop
endfacet
facet normal -0.445019 -0.70583 -0.551146
outer loop
vertex 6.60038 5 2.57235
vertex 9.40025 0 6.7149
vertex 4.62092 5 4.17066
endloop
endfacet
facet normal -0.44502 -0.70583 -0.551146
outer loop
vertex 4.62092 5 4.17066
vertex 9.40025 0 6.7149
vertex 8.08061 0 7.78044
endloop
endfacet
facet normal -0.531762 -0.70583 -0.46801
outer loop
vertex 4.62092 5 4.17066
vertex 8.08061 0 7.78044
vertex 2.94004 5 6.0805
endloop
endfacet
facet normal -0.531762 -0.70583 -0.46801
outer loop
vertex 2.94004 5 6.0805
vertex 8.08061 0 7.78044
vertex 6.96003 0 9.05367
endloop
endfacet
facet normal -0.603208 -0.70583 -0.37141
outer loop
vertex 2.94004 5 6.0805
vertex 6.96003 0 9.05367
vertex 1.60611 5 8.24694
endloop
endfacet
facet normal -0.603208 -0.70583 -0.37141
outer loop
vertex 1.60611 5 8.24694
vertex 6.96003 0 9.05367
vertex 6.07074 0 10.498
endloop
endfacet
facet normal -0.6573 -0.70583 -0.264124
outer loop
vertex 1.60611 5 8.24694
vertex 6.07074 0 10.498
vertex 0.657499 5 10.6077
endloop
endfacet
facet normal -0.657299 -0.70583 -0.264125
outer loop
vertex 0.657499 5 10.6077
vertex 6.07074 0 10.498
vertex 5.43833 0 12.0718
endloop
endfacet
facet normal -0.692482 -0.70583 -0.149241
outer loop
vertex 0.657499 5 10.6077
vertex 5.43833 0 12.0718
vertex 0.121493 5 13.0947
endloop
endfacet
facet normal -0.692482 -0.70583 -0.149241
outer loop
vertex 0.121493 5 13.0947
vertex 5.43833 0 12.0718
vertex 5.081 0 13.7298
endloop
endfacet
facet normal -0.707743 -0.70583 -0.0300644
outer loop
vertex 0.121493 5 13.0947
vertex 5.081 0 13.7298
vertex 0.0135154 5 15.6366
endloop
endfacet
facet normal -0.707743 -0.70583 -0.0300644
outer loop
vertex 0.0135154 5 15.6366
vertex 5.081 0 13.7298
vertex 5.00901 0 15.4244
endloop
endfacet
facet normal -0.702644 -0.70583 0.0899771
outer loop
vertex 0.0135154 5 15.6366
vertex 5.00901 0 15.4244
vertex 0.336671 5 18.1602
endloop
endfacet
facet normal -0.702644 -0.70583 0.0899771
outer loop
vertex 0.336671 5 18.1602
vertex 5.00901 0 15.4244
vertex 5.22445 0 17.1068
endloop
endfacet
facet normal -0.677331 -0.70583 0.20743
outer loop
vertex 0.336671 5 18.1602
vertex 5.22445 0 17.1068
vertex 1.08166 5 20.5928
endloop
endfacet
facet normal -0.677331 -0.70583 0.20743
outer loop
vertex 1.08166 5 20.5928
vertex 5.22445 0 17.1068
vertex 5.72111 0 18.7286
endloop
endfacet
facet normal -0.632532 -0.70583 0.318916
outer loop
vertex 1.08166 5 20.5928
vertex 5.72111 0 18.7286
vertex 2.22706 5 22.8646
endloop
endfacet
facet normal -0.632532 -0.70583 0.318916
outer loop
vertex 2.22706 5 22.8646
vertex 5.72111 0 18.7286
vertex 6.48471 0 20.2431
endloop
endfacet
facet normal -0.569536 -0.70583 0.421227
outer loop
vertex 2.22706 5 22.8646
vertex 6.48471 0 20.2431
vertex 3.73991 5 24.9101
endloop
endfacet
facet normal -0.569537 -0.70583 0.421227
outer loop
vertex 3.73991 5 24.9101
vertex 6.48471 0 20.2431
vertex 7.49328 0 21.6067
endloop
endfacet
facet normal -0.490157 -0.70583 0.51142
outer loop
vertex 3.73991 5 24.9101
vertex 7.49328 0 21.6067
vertex 5.5767 5 26.6705
endloop
endfacet
facet normal -0.490157 -0.70583 0.51142
outer loop
vertex 5.5767 5 26.6705
vertex 7.49328 0 21.6067
vertex 8.7178 0 22.7804
endloop
endfacet
facet normal -0.396676 -0.70583 0.586901
outer loop
vertex 5.5767 5 26.6705
vertex 8.7178 0 22.7804
vertex 7.68458 5 28.0952
endloop
endfacet
facet normal -0.396676 -0.70583 0.586901
outer loop
vertex 7.68458 5 28.0952
vertex 8.7178 0 22.7804
vertex 10.123 0 23.7301
endloop
endfacet
facet normal -0.291783 -0.70583 0.645497
outer loop
vertex 7.68458 5 28.0952
vertex 10.123 0 23.7301
vertex 10.0029 5 29.1432
endloop
endfacet
facet normal -0.291783 -0.70583 0.645498
outer loop
vertex 10.0029 5 29.1432
vertex 10.123 0 23.7301
vertex 11.6686 0 24.4288
endloop
endfacet
facet normal -0.178497 -0.70583 0.685524
outer loop
vertex 10.0029 5 29.1432
vertex 11.6686 0 24.4288
vertex 12.465 5 29.7842
endloop
endfacet
facet normal -0.178496 -0.70583 0.685524
outer loop
vertex 12.465 5 29.7842
vertex 11.6686 0 24.4288
vertex 13.31 0 24.8562
endloop
endfacet
facet normal -0.0600749 -0.70583 0.70583
outer loop
vertex 12.465 5 29.7842
vertex 13.31 0 24.8562
vertex 15 5 30
endloop
endfacet
facet normal -0.0600749 -0.70583 0.70583
outer loop
vertex 15 5 30
vertex 13.31 0 24.8562
vertex 15 0 25
endloop
endfacet
facet normal 0.0600749 -0.70583 0.70583
outer loop
vertex 15 5 30
vertex 15 0 25
vertex 17.535 5 29.7842
endloop
endfacet
facet normal 0.0600749 -0.70583 0.70583
outer loop
vertex 17.535 5 29.7842
vertex 15 0 25
vertex 16.69 0 24.8562
endloop
endfacet
facet normal -0.0848058 -0.000337738 0.996397
outer loop
vertex 13.7279 165 29.946
vertex 12.465 5 29.7842
vertex 15 5 30
endloop
endfacet
facet normal -0.169001 0.000337738 0.985616
outer loop
vertex 13.7279 165 29.946
vertex 12.4741 165 29.731
vertex 12.465 5 29.7842
endloop
endfacet
facet normal -0.169001 0.000337738 0.985616
outer loop
vertex 12.465 5 29.7842
vertex 12.4741 165 29.731
vertex 11.2203 165 29.516
endloop
endfacet
facet normal -0.251978 -0.000337729 0.967733
outer loop
vertex 12.465 5 29.7842
vertex 11.2203 165 29.516
vertex 10.0029 5 29.1432
endloop
endfacet
facet normal -0.333139 0.000337735 0.942878
outer loop
vertex 11.2203 165 29.516
vertex 10.0209 165 29.0922
vertex 10.0029 5 29.1432
endloop
endfacet
facet normal -0.33314 0.000337735 0.942877
outer loop
vertex 10.0029 5 29.1432
vertex 10.0209 165 29.0922
vertex 8.82148 165 28.6684
endloop
endfacet
facet normal -0.411901 -0.000337733 0.911228
outer loop
vertex 10.0029 5 29.1432
vertex 8.82148 165 28.6684
vertex 7.68458 5 28.0952
endloop
endfacet
facet normal -0.487695 0.000337739 0.873014
outer loop
vertex 8.82148 165 28.6684
vertex 7.71093 165 28.048
vertex 7.68458 5 28.0952
endloop
endfacet
facet normal -0.487695 0.000337739 0.873014
outer loop
vertex 7.68458 5 28.0952
vertex 7.71093 165 28.048
vertex 6.60038 165 27.4276
endloop
endfacet
facet normal -0.559975 -0.000337728 0.82851
outer loop
vertex 7.68458 5 28.0952
vertex 6.60038 165 27.4276
vertex 5.5767 5 26.6705
endloop
endfacet
facet normal -0.628219 0.000337737 0.778036
outer loop
vertex 6.60038 165 27.4276
vertex 5.61065 165 26.6285
vertex 5.5767 5 26.6705
endloop
endfacet
facet normal -0.628219 0.000337737 0.778036
outer loop
vertex 5.5767 5 26.6705
vertex 5.61065 165 26.6285
vertex 4.62092 165 25.8293
endloop
endfacet
facet normal -0.691939 -0.000337742 0.721956
outer loop
vertex 5.5767 5 26.6705
vertex 4.62092 165 25.8293
vertex 3.73991 5 24.9101
endloop
endfacet
facet normal -0.750673 0.000337737 0.660674
outer loop
vertex 4.62092 165 25.8293
vertex 3.78048 165 24.8744
vertex 3.73991 5 24.9101
endloop
endfacet
facet normal -0.750672 0.000337737 0.660675
outer loop
vertex 3.73991 5 24.9101
vertex 3.78048 165 24.8744
vertex 2.94004 165 23.9195
endloop
endfacet
facet normal -0.803997 -0.000337728 0.594634
outer loop
vertex 3.73991 5 24.9101
vertex 2.94004 165 23.9195
vertex 2.22706 5 22.8646
endloop
endfacet
facet normal -0.851529 0.000337747 0.524307
outer loop
vertex 2.94004 165 23.9195
vertex 2.27308 165 22.8363
vertex 2.22706 5 22.8646
endloop
endfacet
facet normal -0.851529 0.000337747 0.524308
outer loop
vertex 2.22706 5 22.8646
vertex 2.27308 165 22.8363
vertex 1.60611 165 21.7531
endloop
endfacet
facet normal -0.892926 -0.000337735 0.450203
outer loop
vertex 2.22706 5 22.8646
vertex 1.60611 165 21.7531
vertex 1.08166 5 20.5928
endloop
endfacet
facet normal -0.927889 0.000337732 0.372857
outer loop
vertex 1.60611 165 21.7531
vertex 1.13181 165 20.5727
vertex 1.08166 5 20.5928
endloop
endfacet
facet normal -0.927889 0.000337732 0.372856
outer loop
vertex 1.08166 5 20.5928
vertex 1.13181 165 20.5727
vertex 0.657499 165 19.3923
endloop
endfacet
facet normal -0.956167 -0.000337736 0.292823
outer loop
vertex 1.08166 5 20.5928
vertex 0.657499 165 19.3923
vertex 0.336671 5 18.1602
endloop
endfacet
facet normal -0.977555 0.000337735 0.210679
outer loop
vertex 0.657499 165 19.3923
vertex 0.389496 165 18.1488
vertex 0.336671 5 18.1602
endloop
endfacet
facet normal -0.977555 0.000337735 0.21068
outer loop
vertex 0.336671 5 18.1602
vertex 0.389496 165 18.1488
vertex 0.121493 165 16.9053
endloop
endfacet
facet normal -0.9919 -0.000337739 0.127018
outer loop
vertex 0.336671 5 18.1602
vertex 0.121493 165 16.9053
vertex 0.0135154 5 15.6366
endloop
endfacet
facet normal -0.999099 0.000337734 0.042441
outer loop
vertex 0.121493 165 16.9053
vertex 0.0675041 165 15.6343
vertex 0.0135154 5 15.6366
endloop
endfacet
facet normal -0.999099 0.000337734 0.0424411
outer loop
vertex 0.0135154 5 15.6366
vertex 0.0675041 165 15.6343
vertex 0.0135154 165 14.3634
endloop
endfacet
facet normal -0.999099 -0.000337734 -0.042441
outer loop
vertex 0.0135154 5 15.6366
vertex 0.0135154 165 14.3634
vertex 0.121493 5 13.0947
endloop
endfacet
facet normal -0.9919 0.000337739 -0.127018
outer loop
vertex 0.0135154 165 14.3634
vertex 0.175093 165 13.1016
vertex 0.121493 5 13.0947
endloop
endfacet
facet normal -0.9919 0.000337739 -0.127018
outer loop
vertex 0.121493 5 13.0947
vertex 0.175093 165 13.1016
vertex 0.336671 165 11.8398
endloop
endfacet
facet normal -0.977555 -0.000337735 -0.210679
outer loop
vertex 0.121493 5 13.0947
vertex 0.336671 165 11.8398
vertex 0.657499 5 10.6077
endloop
endfacet
facet normal -0.956167 0.000337732 -0.292823
outer loop
vertex 0.336671 165 11.8398
vertex 0.709168 165 10.6235
vertex 0.657499 5 10.6077
endloop
endfacet
facet normal -0.956167 0.000337732 -0.292823
outer loop
vertex 0.657499 5 10.6077
vertex 0.709168 165 10.6235
vertex 1.08166 165 9.40715
endloop
endfacet
facet normal -0.927889 -0.000337737 -0.372856
outer loop
vertex 0.657499 5 10.6077
vertex 1.08166 165 9.40715
vertex 1.60611 5 8.24694
endloop
endfacet
facet normal -0.892926 0.000337737 -0.450204
outer loop
vertex 1.08166 165 9.40715
vertex 1.65436 165 8.27127
vertex 1.60611 5 8.24694
endloop
endfacet
facet normal -0.892926 0.000337737 -0.450204
outer loop
vertex 1.60611 5 8.24694
vertex 1.65436 165 8.27127
vertex 2.22706 165 7.13539
endloop
endfacet
facet normal -0.851529 -0.000337735 -0.524307
outer loop
vertex 1.60611 5 8.24694
vertex 2.22706 165 7.13539
vertex 2.94004 5 6.0805
endloop
endfacet
facet normal -0.803997 0.000337735 -0.594633
outer loop
vertex 2.22706 165 7.13539
vertex 2.98349 165 6.11263
vertex 2.94004 5 6.0805
endloop
endfacet
facet normal -0.803997 0.000337735 -0.594633
outer loop
vertex 2.94004 5 6.0805
vertex 2.98349 165 6.11263
vertex 3.73991 165 5.08988
endloop
endfacet
facet normal -0.750672 -0.000337734 -0.660675
outer loop
vertex 2.94004 5 6.0805
vertex 3.73991 165 5.08988
vertex 4.62092 5 4.17066
endloop
endfacet
facet normal -0.691939 0.000337736 -0.721956
outer loop
vertex 3.73991 165 5.08988
vertex 4.65831 165 4.20967
vertex 4.62092 5 4.17066
endloop
endfacet
facet normal -0.691939 0.000337736 -0.721956
outer loop
vertex 4.62092 5 4.17066
vertex 4.65831 165 4.20967
vertex 5.5767 165 3.32946
endloop
endfacet
facet normal -0.62822 -0.000337733 -0.778036
outer loop
vertex 4.62092 5 4.17066
vertex 5.5767 165 3.32946
vertex 6.60038 5 2.57235
endloop
endfacet
facet normal -0.559975 0.000337735 -0.828509
outer loop
vertex 5.5767 165 3.32946
vertex 6.63064 165 2.61713
vertex 6.60038 5 2.57235
endloop
endfacet
facet normal -0.559974 0.000337735 -0.82851
outer loop
vertex 6.60038 5 2.57235
vertex 6.63064 165 2.61713
vertex 7.68458 165 1.90479
endloop
endfacet
facet normal -0.487695 -0.000337733 -0.873014
outer loop
vertex 6.60038 5 2.57235
vertex 7.68458 165 1.90479
vertex 8.82148 5 1.33157
endloop
endfacet
facet normal -0.411901 0.000337736 -0.911228
outer loop
vertex 7.68458 165 1.90479
vertex 8.84374 165 1.38081
vertex 8.82148 5 1.33157
endloop
endfacet
facet normal -0.411901 0.000337736 -0.911228
outer loop
vertex 8.82148 5 1.33157
vertex 8.84374 165 1.38081
vertex 10.0029 165 0.856838
endloop
endfacet
facet normal -0.33314 -0.000337734 -0.942877
outer loop
vertex 8.82148 5 1.33157
vertex 10.0029 165 0.856838
vertex 11.2203 5 0.484006
endloop
endfacet
facet normal -0.251978 0.000337736 -0.967733
outer loop
vertex 10.0029 165 0.856838
vertex 11.2339 165 0.536299
vertex 11.2203 5 0.484006
endloop
endfacet
facet normal -0.251978 0.000337736 -0.967733
outer loop
vertex 11.2203 5 0.484006
vertex 11.2339 165 0.536299
vertex 12.465 165 0.215761
endloop
endfacet
facet normal -0.169001 -0.000337734 -0.985616
outer loop
vertex 11.2203 5 0.484006
vertex 12.465 165 0.215761
vertex 13.7279 5 0.0540372
endloop
endfacet
facet normal -0.0848059 0.000337738 -0.996397
outer loop
vertex 12.465 165 0.215761
vertex 13.7325 165 0.107881
vertex 13.7279 5 0.0540372
endloop
endfacet
facet normal -0.0848059 0.000337738 -0.996397
outer loop
vertex 13.7279 5 0.0540372
vertex 13.7325 165 0.107881
vertex 15 165 0
endloop
endfacet
facet normal 0 -0.000337732 -1
outer loop
vertex 13.7279 5 0.0540372
vertex 15 165 0
vertex 16.2721 5 0.0540372
endloop
endfacet
facet normal 0.084806 0.000337739 -0.996397
outer loop
vertex 15 165 0
vertex 16.2675 165 0.107881
vertex 16.2721 5 0.0540372
endloop
endfacet
facet normal 0.084806 0.000337739 -0.996397
outer loop
vertex 16.2721 5 0.0540372
vertex 16.2675 165 0.107881
vertex 17.535 165 0.215761
endloop
endfacet
facet normal 0.169001 -0.000337732 -0.985616
outer loop
vertex 16.2721 5 0.0540372
vertex 17.535 165 0.215761
vertex 18.7797 5 0.484006
endloop
endfacet
facet normal 0.251978 0.000337734 -0.967733
outer loop
vertex 17.535 165 0.215761
vertex 18.7661 165 0.536299
vertex 18.7797 5 0.484006
endloop
endfacet
facet normal 0.251978 0.000337734 -0.967733
outer loop
vertex 18.7797 5 0.484006
vertex 18.7661 165 0.536299
vertex 19.9971 165 0.856838
endloop
endfacet
facet normal 0.33314 -0.000337736 -0.942877
outer loop
vertex 18.7797 5 0.484006
vertex 19.9971 165 0.856838
vertex 21.1785 5 1.33157
endloop
endfacet
facet normal 0.411901 0.000337734 -0.911228
outer loop
vertex 19.9971 165 0.856838
vertex 21.1563 165 1.38081
vertex 21.1785 5 1.33157
endloop
endfacet
facet normal 0.411902 0.000337734 -0.911228
outer loop
vertex 21.1785 5 1.33157
vertex 21.1563 165 1.38081
vertex 22.3154 165 1.90479
endloop
endfacet
facet normal 0.487695 -0.000337733 -0.873014
outer loop
vertex 21.1785 5 1.33157
vertex 22.3154 165 1.90479
vertex 23.3996 5 2.57235
endloop
endfacet
facet normal 0.559975 0.000337743 -0.828509
outer loop
vertex 22.3154 165 1.90479
vertex 23.3694 165 2.61713
vertex 23.3996 5 2.57235
endloop
endfacet
facet normal 0.559974 0.000337743 -0.82851
outer loop
vertex 23.3996 5 2.57235
vertex 23.3694 165 2.61713
vertex 24.4233 165 3.32946
endloop
endfacet
facet normal 0.62822 -0.000337733 -0.778036
outer loop
vertex 23.3996 5 2.57235
vertex 24.4233 165 3.32946
vertex 25.3791 5 4.17066
endloop
endfacet
facet normal 0.691938 0.000337731 -0.721957
outer loop
vertex 24.4233 165 3.32946
vertex 25.3417 165 4.20967
vertex 25.3791 5 4.17066
endloop
endfacet
facet normal 0.691939 0.000337731 -0.721956
outer loop
vertex 25.3791 5 4.17066
vertex 25.3417 165 4.20967
vertex 26.2601 165 5.08988
endloop
endfacet
facet normal 0.750672 -0.000337738 -0.660675
outer loop
vertex 25.3791 5 4.17066
vertex 26.2601 165 5.08988
vertex 27.06 5 6.0805
endloop
endfacet
facet normal 0.803998 0.000337742 -0.594632
outer loop
vertex 26.2601 165 5.08988
vertex 27.0165 165 6.11263
vertex 27.06 5 6.0805
endloop
endfacet
facet normal 0.803997 0.000337742 -0.594634
outer loop
vertex 27.06 5 6.0805
vertex 27.0165 165 6.11263
vertex 27.7729 165 7.13539
endloop
endfacet
facet normal 0.851529 -0.000337741 -0.524307
outer loop
vertex 27.06 5 6.0805
vertex 27.7729 165 7.13539
vertex 28.3939 5 8.24694
endloop
endfacet
facet normal 0.892926 0.000337728 -0.450203
outer loop
vertex 27.7729 165 7.13539
vertex 28.3456 165 8.27127
vertex 28.3939 5 8.24694
endloop
endfacet
facet normal 0.892926 0.000337728 -0.450204
outer loop
vertex 28.3939 5 8.24694
vertex 28.3456 165 8.27127
vertex 28.9183 165 9.40715
endloop
endfacet
facet normal 0.927889 -0.000337739 -0.372857
outer loop
vertex 28.3939 5 8.24694
vertex 28.9183 165 9.40715
vertex 29.3425 5 10.6077
endloop
endfacet
facet normal 0.956166 0.000337728 -0.292824
outer loop
vertex 28.9183 165 9.40715
vertex 29.2908 165 10.6235
vertex 29.3425 5 10.6077
endloop
endfacet
facet normal 0.956167 0.000337728 -0.292822
outer loop
vertex 29.3425 5 10.6077
vertex 29.2908 165 10.6235
vertex 29.6633 165 11.8398
endloop
endfacet
facet normal 0.977555 -0.000337737 -0.210679
outer loop
vertex 29.3425 5 10.6077
vertex 29.6633 165 11.8398
vertex 29.8785 5 13.0947
endloop
endfacet
facet normal 0.9919 0.000337738 -0.127017
outer loop
vertex 29.6633 165 11.8398
vertex 29.8249 165 13.1016
vertex 29.8785 5 13.0947
endloop
endfacet
facet normal 0.9919 0.000337738 -0.127019
outer loop
vertex 29.8785 5 13.0947
vertex 29.8249 165 13.1016
vertex 29.9865 165 14.3634
endloop
endfacet
facet normal 0.999099 -0.000337738 -0.0424415
outer loop
vertex 29.8785 5 13.0947
vertex 29.9865 165 14.3634
vertex 29.9865 5 15.6366
endloop
endfacet
facet normal 0.999099 0.000337738 0.0424416
outer loop
vertex 29.9865 165 14.3634
vertex 29.9325 165 15.6343
vertex 29.9865 5 15.6366
endloop
endfacet
facet normal 0.999099 0.000337738 0.0424415
outer loop
vertex 29.9865 5 15.6366
vertex 29.9325 165 15.6343
vertex 29.8785 165 16.9053
endloop
endfacet
facet normal 0.9919 -0.000337732 0.127018
outer loop
vertex 29.9865 5 15.6366
vertex 29.8785 165 16.9053
vertex 29.6633 5 18.1602
endloop
endfacet
facet normal 0.977555 0.000337731 0.210679
outer loop
vertex 29.8785 165 16.9053
vertex 29.6105 165 18.1488
vertex 29.6633 5 18.1602
endloop
endfacet
facet normal 0.977555 0.000337731 0.21068
outer loop
vertex 29.6633 5 18.1602
vertex 29.6105 165 18.1488
vertex 29.3425 165 19.3923
endloop
endfacet
facet normal 0.956167 -0.000337738 0.292823
outer loop
vertex 29.6633 5 18.1602
vertex 29.3425 165 19.3923
vertex 28.9183 5 20.5928
endloop
endfacet
facet normal 0.927889 0.000337725 0.372856
outer loop
vertex 29.3425 165 19.3923
vertex 28.8682 165 20.5727
vertex 28.9183 5 20.5928
endloop
endfacet
facet normal 0.927888 0.000337725 0.372858
outer loop
vertex 28.9183 5 20.5928
vertex 28.8682 165 20.5727
vertex 28.3939 165 21.7531
endloop
endfacet
facet normal 0.892926 -0.000337725 0.450203
outer loop
vertex 28.9183 5 20.5928
vertex 28.3939 165 21.7531
vertex 27.7729 5 22.8646
endloop
endfacet
facet normal 0.851529 0.000337747 0.524307
outer loop
vertex 28.3939 165 21.7531
vertex 27.7269 165 22.8363
vertex 27.7729 5 22.8646
endloop
endfacet
facet normal 0.851529 0.000337747 0.524307
outer loop
vertex 27.7729 5 22.8646
vertex 27.7269 165 22.8363
vertex 27.06 165 23.9195
endloop
endfacet
facet normal 0.803997 -0.000337727 0.594633
outer loop
vertex 27.7729 5 22.8646
vertex 27.06 165 23.9195
vertex 26.2601 5 24.9101
endloop
endfacet
facet normal 0.750672 0.000337741 0.660675
outer loop
vertex 27.06 165 23.9195
vertex 26.2195 165 24.8744
vertex 26.2601 5 24.9101
endloop
endfacet
facet normal 0.750673 0.000337741 0.660674
outer loop
vertex 26.2601 5 24.9101
vertex 26.2195 165 24.8744
vertex 25.3791 165 25.8293
endloop
endfacet
facet normal 0.691939 -0.00033774 0.721956
outer loop
vertex 26.2601 5 24.9101
vertex 25.3791 165 25.8293
vertex 24.4233 5 26.6705
endloop
endfacet
facet normal 0.628219 0.000337735 0.778036
outer loop
vertex 25.3791 165 25.8293
vertex 24.3894 165 26.6285
vertex 24.4233 5 26.6705
endloop
endfacet
facet normal 0.628219 0.000337735 0.778036
outer loop
vertex 24.4233 5 26.6705
vertex 24.3894 165 26.6285
vertex 23.3996 165 27.4276
endloop
endfacet
facet normal 0.559975 -0.000337729 0.82851
outer loop
vertex 24.4233 5 26.6705
vertex 23.3996 165 27.4276
vertex 22.3154 5 28.0952
endloop
endfacet
facet normal 0.487695 0.000337739 0.873014
outer loop
vertex 23.3996 165 27.4276
vertex 22.2891 165 28.048
vertex 22.3154 5 28.0952
endloop
endfacet
facet normal 0.487695 0.000337739 0.873014
outer loop
vertex 22.3154 5 28.0952
vertex 22.2891 165 28.048
vertex 21.1785 165 28.6684
endloop
endfacet
facet normal 0.411902 -0.000337731 0.911228
outer loop
vertex 22.3154 5 28.0952
vertex 21.1785 165 28.6684
vertex 19.9971 5 29.1432
endloop
endfacet
facet normal 0.333141 0.000337735 0.942877
outer loop
vertex 21.1785 165 28.6684
vertex 19.9791 165 29.0922
vertex 19.9971 5 29.1432
endloop
endfacet
facet normal 0.333139 0.000337735 0.942878
outer loop
vertex 19.9971 5 29.1432
vertex 19.9791 165 29.0922
vertex 18.7797 165 29.516
endloop
endfacet
facet normal 0.251978 -0.000337729 0.967733
outer loop
vertex 19.9971 5 29.1432
vertex 18.7797 165 29.516
vertex 17.535 5 29.7842
endloop
endfacet
facet normal 0.169001 0.000337738 0.985616
outer loop
vertex 18.7797 165 29.516
vertex 17.5259 165 29.731
vertex 17.535 5 29.7842
endloop
endfacet
facet normal 0.169002 0.000337738 0.985616
outer loop
vertex 17.535 5 29.7842
vertex 17.5259 165 29.731
vertex 16.2721 165 29.946
endloop
endfacet
facet normal 0.0848059 -0.000337739 0.996397
outer loop
vertex 17.535 5 29.7842
vertex 16.2721 165 29.946
vertex 15 5 30
endloop
endfacet
facet normal 0.0424407 0 0.999099
outer loop
vertex 15 5 30
vertex 16.2721 165 29.946
vertex 15 165 30
endloop
endfacet
facet normal -0.0424407 0 0.999099
outer loop
vertex 15 5 30
vertex 15 165 30
vertex 13.7279 165 29.946
endloop
endfacet
endsolid
