solid C:\Temp\NOELParts\STUD10.STL created by CtrlView V2.70
facet normal 0 1 0
outer loop
vertex 27.6025 1500 158.746
vertex 34.2428 1500 175.271
vertex 43.5803 1500 190.436
endloop
endfacet
facet normal 0 1 0
outer loop
vertex 23.0946 1500 123.544
vertex 23.8505 1500 141.337
vertex 232.15 1500 141.337
endloop
endfacet
facet normal 0 1 0
outer loop
vertex 23.0946 1500 123.544
vertex 232.15 1500 141.337
vertex 25.3567 1500 105.879
endloop
endfacet
facet normal 0 1 0
outer loop
vertex 25.3567 1500 105.879
vertex 232.15 1500 141.337
vertex 232.905 1500 123.544
endloop
endfacet
facet normal 0 1 0
outer loop
vertex 25.3567 1500 105.879
vertex 232.905 1500 123.544
vertex 230.643 1500 105.879
endloop
endfacet
facet normal 0 1 0
outer loop
vertex 43.5803 1500 190.436
vertex 55.3464 1500 203.805
vertex 154.458 1500 229.612
endloop
endfacet
facet normal 0 1 0
outer loop
vertex 154.458 1500 229.612
vertex 55.3464 1500 203.805
vertex 69.2027 1500 214.994
endloop
endfacet
facet normal 0 1 0
outer loop
vertex 23.8505 1500 141.337
vertex 27.6025 1500 158.746
vertex 232.15 1500 141.337
endloop
endfacet
facet normal 0 1 0
outer loop
vertex 232.15 1500 141.337
vertex 27.6025 1500 158.746
vertex 43.5803 1500 190.436
endloop
endfacet
facet normal 0 1 0
outer loop
vertex 232.15 1500 141.337
vertex 43.5803 1500 190.436
vertex 228.398 1500 158.746
endloop
endfacet
facet normal 0 1 0
outer loop
vertex 228.398 1500 158.746
vertex 43.5803 1500 190.436
vertex 212.42 1500 190.436
endloop
endfacet
facet normal 0 1 0
outer loop
vertex 228.398 1500 158.746
vertex 212.42 1500 190.436
vertex 221.757 1500 175.271
endloop
endfacet
facet normal 0 1 0
outer loop
vertex 193.963 1500 46.3063
vertex 179.208 1500 36.3335
vertex 206.821 1500 58.6292
endloop
endfacet
facet normal 0 1 0
outer loop
vertex 206.821 1500 58.6292
vertex 179.208 1500 36.3335
vertex 25.3567 1500 105.879
endloop
endfacet
facet normal 0 1 0
outer loop
vertex 206.821 1500 58.6292
vertex 25.3567 1500 105.879
vertex 217.411 1500 72.9477
endloop
endfacet
facet normal 0 1 0
outer loop
vertex 217.411 1500 72.9477
vertex 25.3567 1500 105.879
vertex 230.643 1500 105.879
endloop
endfacet
facet normal 0 1 0
outer loop
vertex 217.411 1500 72.9477
vertex 230.643 1500 105.879
vertex 225.428 1500 88.8501
endloop
endfacet
facet normal 0 1 0
outer loop
vertex 119.095 1500 232.622
vertex 136.905 1500 232.622
vertex 101.542 1500 229.612
endloop
endfacet
facet normal 0 1 0
outer loop
vertex 101.542 1500 229.612
vertex 136.905 1500 232.622
vertex 154.458 1500 229.612
endloop
endfacet
facet normal 0 1 0
outer loop
vertex 101.542 1500 229.612
vertex 154.458 1500 229.612
vertex 84.7504 1500 223.679
endloop
endfacet
facet normal 0 1 0
outer loop
vertex 84.7504 1500 223.679
vertex 154.458 1500 229.612
vertex 69.2027 1500 214.994
endloop
endfacet
facet normal 0 1 0
outer loop
vertex 110.255 1500 24.5103
vertex 93.0203 1500 28.9979
vertex 128 1500 23
endloop
endfacet
facet normal 0 1 0
outer loop
vertex 128 1500 23
vertex 93.0203 1500 28.9979
vertex 76.792 1500 36.3335
endloop
endfacet
facet normal 0 1 0
outer loop
vertex 128 1500 23
vertex 76.792 1500 36.3335
vertex 145.745 1500 24.5103
endloop
endfacet
facet normal 0 1 0
outer loop
vertex 145.745 1500 24.5103
vertex 76.792 1500 36.3335
vertex 179.208 1500 36.3335
endloop
endfacet
facet normal 0 1 0
outer loop
vertex 145.745 1500 24.5103
vertex 179.208 1500 36.3335
vertex 162.98 1500 28.9979
endloop
endfacet
facet normal 0 1 0
outer loop
vertex 30.5717 1500 88.8501
vertex 25.3567 1500 105.879
vertex 38.5894 1500 72.9477
endloop
endfacet
facet normal 0 1 0
outer loop
vertex 38.5894 1500 72.9477
vertex 25.3567 1500 105.879
vertex 179.208 1500 36.3335
endloop
endfacet
facet normal 0 1 0
outer loop
vertex 38.5894 1500 72.9477
vertex 179.208 1500 36.3335
vertex 49.1794 1500 58.6292
endloop
endfacet
facet normal 0 1 0
outer loop
vertex 49.1794 1500 58.6292
vertex 179.208 1500 36.3335
vertex 76.792 1500 36.3335
endloop
endfacet
facet normal 0 1 0
outer loop
vertex 49.1794 1500 58.6292
vertex 76.792 1500 36.3335
vertex 62.0369 1500 46.3063
endloop
endfacet
facet normal 0 1 0
outer loop
vertex 200.654 1500 203.805
vertex 212.42 1500 190.436
vertex 186.797 1500 214.994
endloop
endfacet
facet normal 0 1 0
outer loop
vertex 186.797 1500 214.994
vertex 212.42 1500 190.436
vertex 43.5803 1500 190.436
endloop
endfacet
facet normal 0 1 0
outer loop
vertex 186.797 1500 214.994
vertex 43.5803 1500 190.436
vertex 171.25 1500 223.679
endloop
endfacet
facet normal 0 1 0
outer loop
vertex 171.25 1500 223.679
vertex 43.5803 1500 190.436
vertex 154.458 1500 229.612
endloop
endfacet
facet normal 0.178497 0.70583 -0.685524
outer loop
vertex 149.125 1480 4.79802
vertex 145.745 1500 24.5103
vertex 169.642 1480 10.1403
endloop
endfacet
facet normal 0.178497 0.70583 -0.685524
outer loop
vertex 169.642 1480 10.1403
vertex 145.745 1500 24.5103
vertex 162.98 1500 28.9979
endloop
endfacet
facet normal 0.291783 0.70583 -0.645498
outer loop
vertex 169.642 1480 10.1403
vertex 162.98 1500 28.9979
vertex 188.962 1480 18.8732
endloop
endfacet
facet normal 0.291783 0.70583 -0.645498
outer loop
vertex 188.962 1480 18.8732
vertex 162.98 1500 28.9979
vertex 179.208 1500 36.3335
endloop
endfacet
facet normal 0.396676 0.70583 -0.586901
outer loop
vertex 188.962 1480 18.8732
vertex 179.208 1500 36.3335
vertex 206.527 1480 30.7455
endloop
endfacet
facet normal 0.396676 0.70583 -0.586901
outer loop
vertex 206.527 1480 30.7455
vertex 179.208 1500 36.3335
vertex 193.963 1500 46.3063
endloop
endfacet
facet normal 0.490157 0.70583 -0.51142
outer loop
vertex 206.527 1480 30.7455
vertex 193.963 1500 46.3063
vertex 221.834 1480 45.4157
endloop
endfacet
facet normal 0.490157 0.70583 -0.511421
outer loop
vertex 221.834 1480 45.4157
vertex 193.963 1500 46.3063
vertex 206.821 1500 58.6292
endloop
endfacet
facet normal 0.569537 0.705829 -0.421228
outer loop
vertex 221.834 1480 45.4157
vertex 206.821 1500 58.6292
vertex 234.441 1480 62.4616
endloop
endfacet
facet normal 0.569537 0.70583 -0.421227
outer loop
vertex 234.441 1480 62.4616
vertex 206.821 1500 58.6292
vertex 217.411 1500 72.9477
endloop
endfacet
facet normal 0.632532 0.70583 -0.318916
outer loop
vertex 234.441 1480 62.4616
vertex 217.411 1500 72.9477
vertex 243.986 1480 81.3929
endloop
endfacet
facet normal 0.632532 0.70583 -0.318915
outer loop
vertex 243.986 1480 81.3929
vertex 217.411 1500 72.9477
vertex 225.428 1500 88.8501
endloop
endfacet
facet normal 0.677331 0.70583 -0.20743
outer loop
vertex 243.986 1480 81.3929
vertex 225.428 1500 88.8501
vertex 250.194 1480 101.665
endloop
endfacet
facet normal 0.677331 0.70583 -0.20743
outer loop
vertex 250.194 1480 101.665
vertex 225.428 1500 88.8501
vertex 230.643 1500 105.879
endloop
endfacet
facet normal 0.702644 0.70583 -0.0899775
outer loop
vertex 250.194 1480 101.665
vertex 230.643 1500 105.879
vertex 252.887 1480 122.695
endloop
endfacet
facet normal 0.702644 0.70583 -0.0899774
outer loop
vertex 252.887 1480 122.695
vertex 230.643 1500 105.879
vertex 232.905 1500 123.544
endloop
endfacet
facet normal 0.707743 0.70583 0.0300639
outer loop
vertex 252.887 1480 122.695
vertex 232.905 1500 123.544
vertex 251.988 1480 143.877
endloop
endfacet
facet normal 0.707743 0.70583 0.0300651
outer loop
vertex 251.988 1480 143.877
vertex 232.905 1500 123.544
vertex 232.15 1500 141.337
endloop
endfacet
facet normal 0.692481 0.70583 0.149242
outer loop
vertex 251.988 1480 143.877
vertex 232.15 1500 141.337
vertex 247.521 1480 164.603
endloop
endfacet
facet normal 0.692483 0.705829 0.14924
outer loop
vertex 247.521 1480 164.603
vertex 232.15 1500 141.337
vertex 228.398 1500 158.746
endloop
endfacet
facet normal 0.6573 0.705829 0.264124
outer loop
vertex 247.521 1480 164.603
vertex 228.398 1500 158.746
vertex 239.616 1480 184.275
endloop
endfacet
facet normal 0.657299 0.70583 0.264125
outer loop
vertex 239.616 1480 184.275
vertex 228.398 1500 158.746
vertex 221.757 1500 175.271
endloop
endfacet
facet normal 0.603207 0.70583 0.371409
outer loop
vertex 239.616 1480 184.275
vertex 221.757 1500 175.271
vertex 228.5 1480 202.329
endloop
endfacet
facet normal 0.603208 0.70583 0.371409
outer loop
vertex 228.5 1480 202.329
vertex 221.757 1500 175.271
vertex 212.42 1500 190.436
endloop
endfacet
facet normal 0.531762 0.70583 0.46801
outer loop
vertex 228.5 1480 202.329
vertex 212.42 1500 190.436
vertex 214.492 1480 218.245
endloop
endfacet
facet normal 0.531762 0.70583 0.46801
outer loop
vertex 214.492 1480 218.245
vertex 212.42 1500 190.436
vertex 200.654 1500 203.805
endloop
endfacet
facet normal 0.445019 0.70583 0.551146
outer loop
vertex 214.492 1480 218.245
vertex 200.654 1500 203.805
vertex 197.997 1480 231.564
endloop
endfacet
facet normal 0.445019 0.70583 0.551146
outer loop
vertex 197.997 1480 231.564
vertex 200.654 1500 203.805
vertex 186.797 1500 214.994
endloop
endfacet
facet normal 0.345474 0.70583 0.618427
outer loop
vertex 197.997 1480 231.564
vertex 186.797 1500 214.994
vertex 179.488 1480 241.904
endloop
endfacet
facet normal 0.345474 0.70583 0.618427
outer loop
vertex 179.488 1480 241.904
vertex 186.797 1500 214.994
vertex 171.25 1500 223.679
endloop
endfacet
facet normal 0.23599 0.70583 0.667917
outer loop
vertex 179.488 1480 241.904
vertex 171.25 1500 223.679
vertex 159.497 1480 248.967
endloop
endfacet
facet normal 0.23599 0.70583 0.667917
outer loop
vertex 159.497 1480 248.967
vertex 171.25 1500 223.679
vertex 154.458 1500 229.612
endloop
endfacet
facet normal 0.119718 0.70583 0.698192
outer loop
vertex 159.497 1480 248.967
vertex 154.458 1500 229.612
vertex 138.601 1480 252.55
endloop
endfacet
facet normal 0.119717 0.70583 0.698192
outer loop
vertex 138.601 1480 252.55
vertex 154.458 1500 229.612
vertex 136.905 1500 232.622
endloop
endfacet
facet normal 0 0.70583 0.708381
outer loop
vertex 138.601 1480 252.55
vertex 136.905 1500 232.622
vertex 117.399 1480 252.55
endloop
endfacet
facet normal 0 0.70583 0.708381
outer loop
vertex 117.399 1480 252.55
vertex 136.905 1500 232.622
vertex 119.095 1500 232.622
endloop
endfacet
facet normal -0.119718 0.70583 0.698192
outer loop
vertex 117.399 1480 252.55
vertex 119.095 1500 232.622
vertex 96.5028 1480 248.967
endloop
endfacet
facet normal -0.119717 0.70583 0.698192
outer loop
vertex 96.5028 1480 248.967
vertex 119.095 1500 232.622
vertex 101.542 1500 229.612
endloop
endfacet
facet normal -0.23599 0.70583 0.667917
outer loop
vertex 96.5028 1480 248.967
vertex 101.542 1500 229.612
vertex 76.5124 1480 241.904
endloop
endfacet
facet normal -0.23599 0.70583 0.667917
outer loop
vertex 76.5124 1480 241.904
vertex 101.542 1500 229.612
vertex 84.7504 1500 223.679
endloop
endfacet
facet normal -0.345474 0.70583 0.618427
outer loop
vertex 76.5124 1480 241.904
vertex 84.7504 1500 223.679
vertex 58.0032 1480 231.564
endloop
endfacet
facet normal -0.345474 0.70583 0.618427
outer loop
vertex 58.0032 1480 231.564
vertex 84.7504 1500 223.679
vertex 69.2027 1500 214.994
endloop
endfacet
facet normal -0.445019 0.70583 0.551146
outer loop
vertex 58.0032 1480 231.564
vertex 69.2027 1500 214.994
vertex 41.5076 1480 218.245
endloop
endfacet
facet normal -0.445019 0.70583 0.551146
outer loop
vertex 41.5076 1480 218.245
vertex 69.2027 1500 214.994
vertex 55.3464 1500 203.805
endloop
endfacet
facet normal -0.531762 0.70583 0.46801
outer loop
vertex 41.5076 1480 218.245
vertex 55.3464 1500 203.805
vertex 27.5004 1480 202.329
endloop
endfacet
facet normal -0.531762 0.70583 0.468009
outer loop
vertex 27.5004 1480 202.329
vertex 55.3464 1500 203.805
vertex 43.5803 1500 190.436
endloop
endfacet
facet normal -0.603207 0.70583 0.371409
outer loop
vertex 27.5004 1480 202.329
vertex 43.5803 1500 190.436
vertex 16.3843 1480 184.275
endloop
endfacet
facet normal -0.603207 0.70583 0.37141
outer loop
vertex 16.3843 1480 184.275
vertex 43.5803 1500 190.436
vertex 34.2428 1500 175.271
endloop
endfacet
facet normal -0.657299 0.70583 0.264124
outer loop
vertex 16.3843 1480 184.275
vertex 34.2428 1500 175.271
vertex 8.47916 1480 164.603
endloop
endfacet
facet normal -0.657299 0.70583 0.264125
outer loop
vertex 8.47916 1480 164.603
vertex 34.2428 1500 175.271
vertex 27.6025 1500 158.746
endloop
endfacet
facet normal -0.692482 0.70583 0.149241
outer loop
vertex 8.47916 1480 164.603
vertex 27.6025 1500 158.746
vertex 4.01245 1480 143.877
endloop
endfacet
facet normal -0.692482 0.70583 0.149241
outer loop
vertex 4.01245 1480 143.877
vertex 27.6025 1500 158.746
vertex 23.8505 1500 141.337
endloop
endfacet
facet normal -0.707743 0.70583 0.0300645
outer loop
vertex 4.01245 1480 143.877
vertex 23.8505 1500 141.337
vertex 3.11264 1480 122.695
endloop
endfacet
facet normal -0.707743 0.70583 0.0300647
outer loop
vertex 3.11264 1480 122.695
vertex 23.8505 1500 141.337
vertex 23.0946 1500 123.544
endloop
endfacet
facet normal -0.702644 0.70583 -0.0899771
outer loop
vertex 3.11264 1480 122.695
vertex 23.0946 1500 123.544
vertex 5.8056 1480 101.665
endloop
endfacet
facet normal -0.702644 0.70583 -0.0899769
outer loop
vertex 5.8056 1480 101.665
vertex 23.0946 1500 123.544
vertex 25.3567 1500 105.879
endloop
endfacet
facet normal -0.677331 0.70583 -0.20743
outer loop
vertex 5.8056 1480 101.665
vertex 25.3567 1500 105.879
vertex 12.0139 1480 81.3929
endloop
endfacet
facet normal -0.677331 0.70583 -0.207431
outer loop
vertex 12.0139 1480 81.3929
vertex 25.3567 1500 105.879
vertex 30.5717 1500 88.8501
endloop
endfacet
facet normal -0.632532 0.70583 -0.318916
outer loop
vertex 12.0139 1480 81.3929
vertex 30.5717 1500 88.8501
vertex 21.5589 1480 62.4616
endloop
endfacet
facet normal -0.632532 0.70583 -0.318916
outer loop
vertex 21.5589 1480 62.4616
vertex 30.5717 1500 88.8501
vertex 38.5894 1500 72.9477
endloop
endfacet
facet normal -0.569537 0.70583 -0.421227
outer loop
vertex 21.5589 1480 62.4616
vertex 38.5894 1500 72.9477
vertex 34.166 1480 45.4157
endloop
endfacet
facet normal -0.569537 0.70583 -0.421227
outer loop
vertex 34.166 1480 45.4157
vertex 38.5894 1500 72.9477
vertex 49.1794 1500 58.6292
endloop
endfacet
facet normal -0.490157 0.70583 -0.51142
outer loop
vertex 34.166 1480 45.4157
vertex 49.1794 1500 58.6292
vertex 49.4725 1480 30.7455
endloop
endfacet
facet normal -0.490157 0.70583 -0.51142
outer loop
vertex 49.4725 1480 30.7455
vertex 49.1794 1500 58.6292
vertex 62.0369 1500 46.3063
endloop
endfacet
facet normal -0.396676 0.70583 -0.586901
outer loop
vertex 49.4725 1480 30.7455
vertex 62.0369 1500 46.3063
vertex 67.0381 1480 18.8732
endloop
endfacet
facet normal -0.396676 0.70583 -0.586901
outer loop
vertex 67.0381 1480 18.8732
vertex 62.0369 1500 46.3063
vertex 76.792 1500 36.3335
endloop
endfacet
facet normal -0.291783 0.70583 -0.645498
outer loop
vertex 67.0381 1480 18.8732
vertex 76.792 1500 36.3335
vertex 86.3575 1480 10.1403
endloop
endfacet
facet normal -0.291783 0.70583 -0.645498
outer loop
vertex 86.3575 1480 10.1403
vertex 76.792 1500 36.3335
vertex 93.0203 1500 28.9979
endloop
endfacet
facet normal -0.178496 0.70583 -0.685524
outer loop
vertex 86.3575 1480 10.1403
vertex 93.0203 1500 28.9979
vertex 106.875 1480 4.79802
endloop
endfacet
facet normal -0.178496 0.70583 -0.685524
outer loop
vertex 106.875 1480 4.79802
vertex 93.0203 1500 28.9979
vertex 110.255 1500 24.5103
endloop
endfacet
facet normal -0.060075 0.70583 -0.70583
outer loop
vertex 106.875 1480 4.79802
vertex 110.255 1500 24.5103
vertex 128 1480 3.00001
endloop
endfacet
facet normal -0.060075 0.70583 -0.70583
outer loop
vertex 128 1480 3.00001
vertex 110.255 1500 24.5103
vertex 128 1500 23
endloop
endfacet
facet normal 0.0600749 0.70583 -0.70583
outer loop
vertex 128 1480 3.00001
vertex 128 1500 23
vertex 149.125 1480 4.79802
endloop
endfacet
facet normal 0.0600749 0.70583 -0.70583
outer loop
vertex 149.125 1480 4.79802
vertex 128 1500 23
vertex 145.745 1500 24.5103
endloop
endfacet
facet normal 0.251978 0 -0.967733
outer loop
vertex 149.125 875 4.79802
vertex 149.125 1480 4.79802
vertex 169.642 875 10.1403
endloop
endfacet
facet normal 0.251978 0 -0.967733
outer loop
vertex 169.642 875 10.1403
vertex 149.125 1480 4.79802
vertex 169.642 1480 10.1403
endloop
endfacet
facet normal 0.411901 0 -0.911229
outer loop
vertex 169.642 875 10.1403
vertex 169.642 1480 10.1403
vertex 188.962 875 18.8732
endloop
endfacet
facet normal 0.411901 0 -0.911229
outer loop
vertex 188.962 875 18.8732
vertex 169.642 1480 10.1403
vertex 188.962 1480 18.8732
endloop
endfacet
facet normal 0.559975 0 -0.828509
outer loop
vertex 188.962 875 18.8732
vertex 188.962 1480 18.8732
vertex 206.527 875 30.7455
endloop
endfacet
facet normal 0.559975 0 -0.828509
outer loop
vertex 206.527 875 30.7455
vertex 188.962 1480 18.8732
vertex 206.527 1480 30.7455
endloop
endfacet
facet normal 0.691939 0 -0.721956
outer loop
vertex 206.527 875 30.7455
vertex 206.527 1480 30.7455
vertex 221.834 875 45.4157
endloop
endfacet
facet normal 0.691939 0 -0.721956
outer loop
vertex 221.834 875 45.4157
vertex 206.527 1480 30.7455
vertex 221.834 1480 45.4157
endloop
endfacet
facet normal 0.803997 0 -0.594633
outer loop
vertex 221.834 875 45.4157
vertex 221.834 1480 45.4157
vertex 234.441 875 62.4616
endloop
endfacet
facet normal 0.803997 0 -0.594633
outer loop
vertex 234.441 875 62.4616
vertex 221.834 1480 45.4157
vertex 234.441 1480 62.4616
endloop
endfacet
facet normal 0.892926 0 -0.450204
outer loop
vertex 234.441 875 62.4616
vertex 234.441 1480 62.4616
vertex 243.986 875 81.3929
endloop
endfacet
facet normal 0.892926 0 -0.450204
outer loop
vertex 243.986 875 81.3929
vertex 234.441 1480 62.4616
vertex 243.986 1480 81.3929
endloop
endfacet
facet normal 0.956167 0 -0.292822
outer loop
vertex 243.986 875 81.3929
vertex 243.986 1480 81.3929
vertex 250.194 875 101.665
endloop
endfacet
facet normal 0.956167 0 -0.292822
outer loop
vertex 250.194 875 101.665
vertex 243.986 1480 81.3929
vertex 250.194 1480 101.665
endloop
endfacet
facet normal 0.9919 0 -0.127018
outer loop
vertex 250.194 875 101.665
vertex 250.194 1480 101.665
vertex 252.887 875 122.695
endloop
endfacet
facet normal 0.9919 0 -0.127018
outer loop
vertex 252.887 875 122.695
vertex 250.194 1480 101.665
vertex 252.887 1480 122.695
endloop
endfacet
facet normal 0.999099 0 0.0424402
outer loop
vertex 252.887 875 122.695
vertex 252.887 1480 122.695
vertex 251.988 875 143.877
endloop
endfacet
facet normal 0.999099 0 0.0424402
outer loop
vertex 251.988 875 143.877
vertex 252.887 1480 122.695
vertex 251.988 1480 143.877
endloop
endfacet
facet normal 0.977555 0 0.21068
outer loop
vertex 251.988 875 143.877
vertex 251.988 1480 143.877
vertex 247.521 875 164.603
endloop
endfacet
facet normal 0.977555 0 0.21068
outer loop
vertex 247.521 875 164.603
vertex 251.988 1480 143.877
vertex 247.521 1480 164.603
endloop
endfacet
facet normal 0.927889 0 0.372856
outer loop
vertex 247.521 875 164.603
vertex 247.521 1480 164.603
vertex 239.616 875 184.275
endloop
endfacet
facet normal 0.927889 0 0.372856
outer loop
vertex 239.616 875 184.275
vertex 247.521 1480 164.603
vertex 239.616 1480 184.275
endloop
endfacet
facet normal 0.851529 0 0.524307
outer loop
vertex 239.616 875 184.275
vertex 239.616 1480 184.275
vertex 228.5 875 202.329
endloop
endfacet
facet normal 0.851529 0 0.524307
outer loop
vertex 228.5 875 202.329
vertex 239.616 1480 184.275
vertex 228.5 1480 202.329
endloop
endfacet
facet normal 0.750672 0 0.660675
outer loop
vertex 228.5 875 202.329
vertex 228.5 1480 202.329
vertex 214.492 875 218.245
endloop
endfacet
facet normal 0.750672 0 0.660675
outer loop
vertex 214.492 875 218.245
vertex 228.5 1480 202.329
vertex 214.492 1480 218.245
endloop
endfacet
facet normal 0.62822 0 0.778036
outer loop
vertex 214.492 875 218.245
vertex 214.492 1480 218.245
vertex 197.997 875 231.564
endloop
endfacet
facet normal 0.62822 0 0.778036
outer loop
vertex 197.997 875 231.564
vertex 214.492 1480 218.245
vertex 197.997 1480 231.564
endloop
endfacet
facet normal 0.487695 0 0.873014
outer loop
vertex 197.997 875 231.564
vertex 197.997 1480 231.564
vertex 179.488 875 241.904
endloop
endfacet
facet normal 0.487695 0 0.873014
outer loop
vertex 179.488 875 241.904
vertex 197.997 1480 231.564
vertex 179.488 1480 241.904
endloop
endfacet
facet normal 0.333139 0 0.942878
outer loop
vertex 179.488 875 241.904
vertex 179.488 1480 241.904
vertex 159.497 875 248.967
endloop
endfacet
facet normal 0.333139 0 0.942878
outer loop
vertex 159.497 875 248.967
vertex 179.488 1480 241.904
vertex 159.497 1480 248.967
endloop
endfacet
facet normal 0.169002 0 0.985616
outer loop
vertex 159.497 875 248.967
vertex 159.497 1480 248.967
vertex 138.601 875 252.55
endloop
endfacet
facet normal 0.169002 0 0.985616
outer loop
vertex 138.601 875 252.55
vertex 159.497 1480 248.967
vertex 138.601 1480 252.55
endloop
endfacet
facet normal 0 0 1
outer loop
vertex 138.601 875 252.55
vertex 138.601 1480 252.55
vertex 117.399 875 252.55
endloop
endfacet
facet normal 0 0 1
outer loop
vertex 117.399 875 252.55
vertex 138.601 1480 252.55
vertex 117.399 1480 252.55
endloop
endfacet
facet normal -0.169002 0 0.985616
outer loop
vertex 117.399 875 252.55
vertex 117.399 1480 252.55
vertex 96.5028 875 248.967
endloop
endfacet
facet normal -0.169002 0 0.985616
outer loop
vertex 96.5028 875 248.967
vertex 117.399 1480 252.55
vertex 96.5028 1480 248.967
endloop
endfacet
facet normal -0.333139 0 0.942878
outer loop
vertex 96.5028 875 248.967
vertex 96.5028 1480 248.967
vertex 76.5124 875 241.904
endloop
endfacet
facet normal -0.333139 0 0.942878
outer loop
vertex 76.5124 875 241.904
vertex 96.5028 1480 248.967
vertex 76.5124 1480 241.904
endloop
endfacet
facet normal -0.487695 0 0.873014
outer loop
vertex 76.5124 875 241.904
vertex 76.5124 1480 241.904
vertex 58.0032 875 231.564
endloop
endfacet
facet normal -0.487695 0 0.873014
outer loop
vertex 58.0032 875 231.564
vertex 76.5124 1480 241.904
vertex 58.0032 1480 231.564
endloop
endfacet
facet normal -0.62822 0 0.778036
outer loop
vertex 58.0032 875 231.564
vertex 58.0032 1480 231.564
vertex 41.5076 875 218.245
endloop
endfacet
facet normal -0.62822 0 0.778036
outer loop
vertex 41.5076 875 218.245
vertex 58.0032 1480 231.564
vertex 41.5076 1480 218.245
endloop
endfacet
facet normal -0.750672 0 0.660675
outer loop
vertex 41.5076 875 218.245
vertex 41.5076 1480 218.245
vertex 27.5004 875 202.329
endloop
endfacet
facet normal -0.750672 0 0.660675
outer loop
vertex 27.5004 875 202.329
vertex 41.5076 1480 218.245
vertex 27.5004 1480 202.329
endloop
endfacet
facet normal -0.851529 0 0.524307
outer loop
vertex 27.5004 875 202.329
vertex 27.5004 1480 202.329
vertex 16.3843 875 184.275
endloop
endfacet
facet normal -0.851529 0 0.524307
outer loop
vertex 16.3843 875 184.275
vertex 27.5004 1480 202.329
vertex 16.3843 1480 184.275
endloop
endfacet
facet normal -0.927889 0 0.372856
outer loop
vertex 16.3843 875 184.275
vertex 16.3843 1480 184.275
vertex 8.47916 875 164.603
endloop
endfacet
facet normal -0.927889 0 0.372856
outer loop
vertex 8.47916 875 164.603
vertex 16.3843 1480 184.275
vertex 8.47916 1480 164.603
endloop
endfacet
facet normal -0.977555 0 0.210679
outer loop
vertex 8.47916 875 164.603
vertex 8.47916 1480 164.603
vertex 4.01245 875 143.877
endloop
endfacet
facet normal -0.977555 0 0.210679
outer loop
vertex 4.01245 875 143.877
vertex 8.47916 1480 164.603
vertex 4.01245 1480 143.877
endloop
endfacet
facet normal -0.999099 0 0.0424411
outer loop
vertex 4.01245 875 143.877
vertex 4.01245 1480 143.877
vertex 3.11264 875 122.695
endloop
endfacet
facet normal -0.999099 0 0.0424411
outer loop
vertex 3.11264 875 122.695
vertex 4.01245 1480 143.877
vertex 3.11264 1480 122.695
endloop
endfacet
facet normal -0.9919 0 -0.127018
outer loop
vertex 3.11264 875 122.695
vertex 3.11264 1480 122.695
vertex 5.8056 875 101.665
endloop
endfacet
facet normal -0.9919 0 -0.127018
outer loop
vertex 5.8056 875 101.665
vertex 3.11264 1480 122.695
vertex 5.8056 1480 101.665
endloop
endfacet
facet normal -0.956167 0 -0.292823
outer loop
vertex 5.8056 875 101.665
vertex 5.8056 1480 101.665
vertex 12.0139 875 81.3929
endloop
endfacet
facet normal -0.956167 0 -0.292823
outer loop
vertex 12.0139 875 81.3929
vertex 5.8056 1480 101.665
vertex 12.0139 1480 81.3929
endloop
endfacet
facet normal -0.892926 0 -0.450204
outer loop
vertex 12.0139 875 81.3929
vertex 12.0139 1480 81.3929
vertex 21.5589 875 62.4616
endloop
endfacet
facet normal -0.892926 0 -0.450204
outer loop
vertex 21.5589 875 62.4616
vertex 12.0139 1480 81.3929
vertex 21.5589 1480 62.4616
endloop
endfacet
facet normal -0.803997 0 -0.594633
outer loop
vertex 21.5589 875 62.4616
vertex 21.5589 1480 62.4616
vertex 34.166 875 45.4157
endloop
endfacet
facet normal -0.803997 0 -0.594633
outer loop
vertex 34.166 875 45.4157
vertex 21.5589 1480 62.4616
vertex 34.166 1480 45.4157
endloop
endfacet
facet normal -0.691939 0 -0.721956
outer loop
vertex 34.166 875 45.4157
vertex 34.166 1480 45.4157
vertex 49.4725 875 30.7455
endloop
endfacet
facet normal -0.691939 0 -0.721956
outer loop
vertex 49.4725 875 30.7455
vertex 34.166 1480 45.4157
vertex 49.4725 1480 30.7455
endloop
endfacet
facet normal -0.559975 0 -0.82851
outer loop
vertex 49.4725 875 30.7455
vertex 49.4725 1480 30.7455
vertex 67.0381 875 18.8732
endloop
endfacet
facet normal -0.559975 0 -0.82851
outer loop
vertex 67.0381 875 18.8732
vertex 49.4725 1480 30.7455
vertex 67.0381 1480 18.8732
endloop
endfacet
facet normal -0.411901 0 -0.911228
outer loop
vertex 67.0381 875 18.8732
vertex 67.0381 1480 18.8732
vertex 86.3575 875 10.1403
endloop
endfacet
facet normal -0.411901 0 -0.911228
outer loop
vertex 86.3575 875 10.1403
vertex 67.0381 1480 18.8732
vertex 86.3575 1480 10.1403
endloop
endfacet
facet normal -0.251978 0 -0.967733
outer loop
vertex 86.3575 875 10.1403
vertex 86.3575 1480 10.1403
vertex 106.875 875 4.79802
endloop
endfacet
facet normal -0.251978 0 -0.967733
outer loop
vertex 106.875 875 4.79802
vertex 86.3575 1480 10.1403
vertex 106.875 1480 4.79802
endloop
endfacet
facet normal -0.084806 0 -0.996397
outer loop
vertex 106.875 875 4.79802
vertex 106.875 1480 4.79802
vertex 128 875 3.00001
endloop
endfacet
facet normal -0.084806 0 -0.996397
outer loop
vertex 128 875 3.00001
vertex 106.875 1480 4.79802
vertex 128 1480 3.00001
endloop
endfacet
facet normal 0.0848059 0 -0.996397
outer loop
vertex 128 875 3.00001
vertex 128 1480 3.00001
vertex 149.125 875 4.79802
endloop
endfacet
facet normal 0.0848059 0 -0.996397
outer loop
vertex 149.125 875 4.79802
vertex 128 1480 3.00001
vertex 149.125 1480 4.79802
endloop
endfacet
facet normal 0 1 0
outer loop
vertex 4.01245 875 143.877
vertex 1.03675 875 144.258
vertex 8.47916 875 164.603
endloop
endfacet
facet normal 0 1 0
outer loop
vertex 8.47916 875 164.603
vertex 1.03675 875 144.258
vertex 5.61067 875 165.481
endloop
endfacet
facet normal 0 1 0
outer loop
vertex 8.47916 875 164.603
vertex 5.61067 875 165.481
vertex 16.3843 875 184.275
endloop
endfacet
facet normal 0 1 0
outer loop
vertex 16.3843 875 184.275
vertex 5.61067 875 165.481
vertex 13.7055 875 185.626
endloop
endfacet
facet normal 0 1 0
outer loop
vertex 16.3843 875 184.275
vertex 13.7055 875 185.626
vertex 27.5004 875 202.329
endloop
endfacet
facet normal 0 1 0
outer loop
vertex 27.5004 875 202.329
vertex 13.7055 875 185.626
vertex 25.0884 875 204.113
endloop
endfacet
facet normal 0 1 0
outer loop
vertex 27.5004 875 202.329
vertex 25.0884 875 204.113
vertex 41.5076 875 218.245
endloop
endfacet
facet normal 0 1 0
outer loop
vertex 41.5076 875 218.245
vertex 25.0884 875 204.113
vertex 39.4318 875 220.41
endloop
endfacet
facet normal 0 1 0
outer loop
vertex 41.5076 875 218.245
vertex 39.4318 875 220.41
vertex 58.0032 875 231.564
endloop
endfacet
facet normal 0 1 0
outer loop
vertex 58.0032 875 231.564
vertex 39.4318 875 220.41
vertex 56.3232 875 234.049
endloop
endfacet
facet normal 0 1 0
outer loop
vertex 58.0032 875 231.564
vertex 56.3232 875 234.049
vertex 76.5124 875 241.904
endloop
endfacet
facet normal 0 1 0
outer loop
vertex 76.5124 875 241.904
vertex 56.3232 875 234.049
vertex 75.2766 875 244.637
endloop
endfacet
facet normal 0 1 0
outer loop
vertex 76.5124 875 241.904
vertex 75.2766 875 244.637
vertex 96.5028 875 248.967
endloop
endfacet
facet normal 0 1 0
outer loop
vertex 96.5028 875 248.967
vertex 75.2766 875 244.637
vertex 95.7468 875 251.87
endloop
endfacet
facet normal 0 1 0
outer loop
vertex 96.5028 875 248.967
vertex 95.7468 875 251.87
vertex 117.399 875 252.55
endloop
endfacet
facet normal 0 1 0
outer loop
vertex 117.399 875 252.55
vertex 95.7468 875 251.87
vertex 117.145 875 255.539
endloop
endfacet
facet normal 0 1 0
outer loop
vertex 117.399 875 252.55
vertex 117.145 875 255.539
vertex 138.601 875 252.55
endloop
endfacet
facet normal 0 1 0
outer loop
vertex 138.601 875 252.55
vertex 117.145 875 255.539
vertex 138.855 875 255.539
endloop
endfacet
facet normal 0 1 0
outer loop
vertex 138.601 875 252.55
vertex 138.855 875 255.539
vertex 159.497 875 248.967
endloop
endfacet
facet normal 0 1 0
outer loop
vertex 159.497 875 248.967
vertex 138.855 875 255.539
vertex 160.253 875 251.87
endloop
endfacet
facet normal 0 1 0
outer loop
vertex 159.497 875 248.967
vertex 160.253 875 251.87
vertex 179.488 875 241.904
endloop
endfacet
facet normal 0 1 0
outer loop
vertex 179.488 875 241.904
vertex 160.253 875 251.87
vertex 180.723 875 244.637
endloop
endfacet
facet normal 0 1 0
outer loop
vertex 179.488 875 241.904
vertex 180.723 875 244.637
vertex 197.997 875 231.564
endloop
endfacet
facet normal 0 1 0
outer loop
vertex 197.997 875 231.564
vertex 180.723 875 244.637
vertex 199.677 875 234.049
endloop
endfacet
facet normal 0 1 0
outer loop
vertex 197.997 875 231.564
vertex 199.677 875 234.049
vertex 214.492 875 218.245
endloop
endfacet
facet normal 0 1 0
outer loop
vertex 214.492 875 218.245
vertex 199.677 875 234.049
vertex 216.568 875 220.41
endloop
endfacet
facet normal 0 1 0
outer loop
vertex 214.492 875 218.245
vertex 216.568 875 220.41
vertex 228.5 875 202.329
endloop
endfacet
facet normal 0 1 0
outer loop
vertex 228.5 875 202.329
vertex 216.568 875 220.41
vertex 230.912 875 204.113
endloop
endfacet
facet normal 0 1 0
outer loop
vertex 228.5 875 202.329
vertex 230.912 875 204.113
vertex 239.616 875 184.275
endloop
endfacet
facet normal 0 1 0
outer loop
vertex 239.616 875 184.275
vertex 230.912 875 204.113
vertex 242.295 875 185.626
endloop
endfacet
facet normal 0 1 0
outer loop
vertex 239.616 875 184.275
vertex 242.295 875 185.626
vertex 247.521 875 164.603
endloop
endfacet
facet normal 0 1 0
outer loop
vertex 247.521 875 164.603
vertex 242.295 875 185.626
vertex 250.389 875 165.481
endloop
endfacet
facet normal 0 1 0
outer loop
vertex 247.521 875 164.603
vertex 250.389 875 165.481
vertex 251.988 875 143.877
endloop
endfacet
facet normal 0 1 0
outer loop
vertex 251.988 875 143.877
vertex 250.389 875 165.481
vertex 254.963 875 144.258
endloop
endfacet
facet normal 0 1 0
outer loop
vertex 251.988 875 143.877
vertex 254.963 875 144.258
vertex 252.887 875 122.695
endloop
endfacet
facet normal 0 1 0
outer loop
vertex 252.887 875 122.695
vertex 254.963 875 144.258
vertex 255.885 875 122.568
endloop
endfacet
facet normal 0 1 0
outer loop
vertex 252.887 875 122.695
vertex 255.885 875 122.568
vertex 250.194 875 101.665
endloop
endfacet
facet normal 0 1 0
outer loop
vertex 250.194 875 101.665
vertex 255.885 875 122.568
vertex 253.127 875 101.033
endloop
endfacet
facet normal 0 1 0
outer loop
vertex 250.194 875 101.665
vertex 253.127 875 101.033
vertex 243.986 875 81.3929
endloop
endfacet
facet normal 0 1 0
outer loop
vertex 243.986 875 81.3929
vertex 253.127 875 101.033
vertex 246.77 875 80.2744
endloop
endfacet
facet normal 0 1 0
outer loop
vertex 243.986 875 81.3929
vertex 246.77 875 80.2744
vertex 234.441 875 62.4616
endloop
endfacet
facet normal 0 1 0
outer loop
vertex 234.441 875 62.4616
vertex 246.77 875 80.2744
vertex 236.996 875 60.8887
endloop
endfacet
facet normal 0 1 0
outer loop
vertex 234.441 875 62.4616
vertex 236.996 875 60.8887
vertex 221.834 875 45.4157
endloop
endfacet
facet normal 0 1 0
outer loop
vertex 221.834 875 45.4157
vertex 236.996 875 60.8887
vertex 224.086 875 43.4336
endloop
endfacet
facet normal 0 1 0
outer loop
vertex 221.834 875 45.4157
vertex 224.086 875 43.4336
vertex 206.527 875 30.7455
endloop
endfacet
facet normal 0 1 0
outer loop
vertex 206.527 875 30.7455
vertex 224.086 875 43.4336
vertex 208.412 875 28.4114
endloop
endfacet
facet normal 0 1 0
outer loop
vertex 206.527 875 30.7455
vertex 208.412 875 28.4114
vertex 188.962 875 18.8732
endloop
endfacet
facet normal 0 1 0
outer loop
vertex 188.962 875 18.8732
vertex 208.412 875 28.4114
vertex 190.425 875 16.2542
endloop
endfacet
facet normal 0 1 0
outer loop
vertex 188.962 875 18.8732
vertex 190.425 875 16.2542
vertex 169.642 875 10.1403
endloop
endfacet
facet normal 0 1 0
outer loop
vertex 169.642 875 10.1403
vertex 190.425 875 16.2542
vertex 170.642 875 7.31169
endloop
endfacet
facet normal 0 1 0
outer loop
vertex 169.642 875 10.1403
vertex 170.642 875 7.31169
vertex 149.125 875 4.79802
endloop
endfacet
facet normal 0 1 0
outer loop
vertex 149.125 875 4.79802
vertex 170.642 875 7.31169
vertex 149.632 875 1.84117
endloop
endfacet
facet normal 0 1 0
outer loop
vertex 149.125 875 4.79802
vertex 149.632 875 1.84117
vertex 128 875 3.00001
endloop
endfacet
facet normal 0 1 0
outer loop
vertex 128 875 3.00001
vertex 149.632 875 1.84117
vertex 128 875 0
endloop
endfacet
facet normal 0 1 0
outer loop
vertex 128 875 3.00001
vertex 128 875 0
vertex 106.875 875 4.79802
endloop
endfacet
facet normal 0 1 0
outer loop
vertex 106.875 875 4.79802
vertex 128 875 0
vertex 106.368 875 1.84117
endloop
endfacet
facet normal 0 1 0
outer loop
vertex 106.875 875 4.79802
vertex 106.368 875 1.84117
vertex 86.3575 875 10.1403
endloop
endfacet
facet normal 0 1 0
outer loop
vertex 86.3575 875 10.1403
vertex 106.368 875 1.84117
vertex 85.3581 875 7.31169
endloop
endfacet
facet normal 0 1 0
outer loop
vertex 86.3575 875 10.1403
vertex 85.3581 875 7.31169
vertex 67.0381 875 18.8732
endloop
endfacet
facet normal 0 1 0
outer loop
vertex 67.0381 875 18.8732
vertex 85.3581 875 7.31169
vertex 65.5751 875 16.2542
endloop
endfacet
facet normal 0 1 0
outer loop
vertex 67.0381 875 18.8732
vertex 65.5751 875 16.2542
vertex 49.4725 875 30.7455
endloop
endfacet
facet normal 0 1 0
outer loop
vertex 49.4725 875 30.7455
vertex 65.5751 875 16.2542
vertex 47.5878 875 28.4114
endloop
endfacet
facet normal 0 1 0
outer loop
vertex 49.4725 875 30.7455
vertex 47.5878 875 28.4114
vertex 34.166 875 45.4157
endloop
endfacet
facet normal 0 1 0
outer loop
vertex 34.166 875 45.4157
vertex 47.5878 875 28.4114
vertex 31.914 875 43.4336
endloop
endfacet
facet normal 0 1 0
outer loop
vertex 34.166 875 45.4157
vertex 31.914 875 43.4336
vertex 21.5589 875 62.4616
endloop
endfacet
facet normal 0 1 0
outer loop
vertex 21.5589 875 62.4616
vertex 31.914 875 43.4336
vertex 19.0043 875 60.8887
endloop
endfacet
facet normal 0 1 0
outer loop
vertex 21.5589 875 62.4616
vertex 19.0043 875 60.8887
vertex 12.0139 875 81.3929
endloop
endfacet
facet normal 0 1 0
outer loop
vertex 12.0139 875 81.3929
vertex 19.0043 875 60.8887
vertex 9.23021 875 80.2744
endloop
endfacet
facet normal 0 1 0
outer loop
vertex 12.0139 875 81.3929
vertex 9.23021 875 80.2744
vertex 5.8056 875 101.665
endloop
endfacet
facet normal 0 1 0
outer loop
vertex 5.8056 875 101.665
vertex 9.23021 875 80.2744
vertex 2.87293 875 101.033
endloop
endfacet
facet normal 0 1 0
outer loop
vertex 5.8056 875 101.665
vertex 2.87293 875 101.033
vertex 3.11264 875 122.695
endloop
endfacet
facet normal 0 1 0
outer loop
vertex 3.11264 875 122.695
vertex 2.87293 875 101.033
vertex 0.115335 875 122.568
endloop
endfacet
facet normal 0 1 0
outer loop
vertex 3.11264 875 122.695
vertex 0.115335 875 122.568
vertex 4.01245 875 143.877
endloop
endfacet
facet normal 0 1 0
outer loop
vertex 4.01245 875 143.877
vertex 0.115335 875 122.568
vertex 1.03675 875 144.258
endloop
endfacet
facet normal 0 -1 0
outer loop
vertex 27.6025 0 97.2536
vertex 34.2428 0 80.7286
vertex 43.5803 0 65.5635
endloop
endfacet
facet normal 0 -1 0
outer loop
vertex 23.0946 0 132.456
vertex 23.8505 0 114.663
vertex 232.15 0 114.663
endloop
endfacet
facet normal 0 -1 0
outer loop
vertex 23.0946 0 132.456
vertex 232.15 0 114.663
vertex 25.3567 0 150.121
endloop
endfacet
facet normal 0 -1 0
outer loop
vertex 25.3567 0 150.121
vertex 232.15 0 114.663
vertex 232.905 0 132.456
endloop
endfacet
facet normal 0 -1 0
outer loop
vertex 25.3567 0 150.121
vertex 232.905 0 132.456
vertex 230.643 0 150.121
endloop
endfacet
facet normal 0 -1 0
outer loop
vertex 43.5803 0 65.5635
vertex 55.3464 0 52.1946
vertex 154.458 0 26.3881
endloop
endfacet
facet normal 0 -1 0
outer loop
vertex 154.458 0 26.3881
vertex 55.3464 0 52.1946
vertex 69.2027 0 41.0065
endloop
endfacet
facet normal 0 -1 0
outer loop
vertex 23.8505 0 114.663
vertex 27.6025 0 97.2536
vertex 232.15 0 114.663
endloop
endfacet
facet normal 0 -1 0
outer loop
vertex 232.15 0 114.663
vertex 27.6025 0 97.2536
vertex 43.5803 0 65.5635
endloop
endfacet
facet normal 0 -1 0
outer loop
vertex 232.15 0 114.663
vertex 43.5803 0 65.5635
vertex 228.398 0 97.2536
endloop
endfacet
facet normal 0 -1 0
outer loop
vertex 228.398 0 97.2536
vertex 43.5803 0 65.5635
vertex 212.42 0 65.5635
endloop
endfacet
facet normal 0 -1 0
outer loop
vertex 228.398 0 97.2536
vertex 212.42 0 65.5635
vertex 221.757 0 80.7286
endloop
endfacet
facet normal 0 -1 0
outer loop
vertex 193.963 0 209.694
vertex 179.208 0 219.666
vertex 206.821 0 197.371
endloop
endfacet
facet normal 0 -1 0
outer loop
vertex 206.821 0 197.371
vertex 179.208 0 219.666
vertex 25.3567 0 150.121
endloop
endfacet
facet normal 0 -1 0
outer loop
vertex 206.821 0 197.371
vertex 25.3567 0 150.121
vertex 217.411 0 183.052
endloop
endfacet
facet normal 0 -1 0
outer loop
vertex 217.411 0 183.052
vertex 25.3567 0 150.121
vertex 230.643 0 150.121
endloop
endfacet
facet normal 0 -1 0
outer loop
vertex 217.411 0 183.052
vertex 230.643 0 150.121
vertex 225.428 0 167.15
endloop
endfacet
facet normal 0 -1 0
outer loop
vertex 119.095 0 23.3783
vertex 136.905 0 23.3783
vertex 101.542 0 26.3881
endloop
endfacet
facet normal 0 -1 0
outer loop
vertex 101.542 0 26.3881
vertex 136.905 0 23.3783
vertex 154.458 0 26.3881
endloop
endfacet
facet normal 0 -1 0
outer loop
vertex 101.542 0 26.3881
vertex 154.458 0 26.3881
vertex 84.7504 0 32.321
endloop
endfacet
facet normal 0 -1 0
outer loop
vertex 84.7504 0 32.321
vertex 154.458 0 26.3881
vertex 69.2027 0 41.0065
endloop
endfacet
facet normal 0 -1 0
outer loop
vertex 110.255 0 231.49
vertex 93.0203 0 227.002
vertex 128 0 233
endloop
endfacet
facet normal 0 -1 0
outer loop
vertex 128 0 233
vertex 93.0203 0 227.002
vertex 76.792 0 219.666
endloop
endfacet
facet normal 0 -1 0
outer loop
vertex 128 0 233
vertex 76.792 0 219.666
vertex 145.745 0 231.49
endloop
endfacet
facet normal 0 -1 0
outer loop
vertex 145.745 0 231.49
vertex 76.792 0 219.666
vertex 179.208 0 219.666
endloop
endfacet
facet normal 0 -1 0
outer loop
vertex 145.745 0 231.49
vertex 179.208 0 219.666
vertex 162.98 0 227.002
endloop
endfacet
facet normal 0 -1 0
outer loop
vertex 30.5717 0 167.15
vertex 25.3567 0 150.121
vertex 38.5894 0 183.052
endloop
endfacet
facet normal 0 -1 0
outer loop
vertex 38.5894 0 183.052
vertex 25.3567 0 150.121
vertex 179.208 0 219.666
endloop
endfacet
facet normal 0 -1 0
outer loop
vertex 38.5894 0 183.052
vertex 179.208 0 219.666
vertex 49.1794 0 197.371
endloop
endfacet
facet normal 0 -1 0
outer loop
vertex 49.1794 0 197.371
vertex 179.208 0 219.666
vertex 76.792 0 219.666
endloop
endfacet
facet normal 0 -1 0
outer loop
vertex 49.1794 0 197.371
vertex 76.792 0 219.666
vertex 62.0369 0 209.694
endloop
endfacet
facet normal 0 -1 0
outer loop
vertex 200.654 0 52.1946
vertex 212.42 0 65.5635
vertex 186.797 0 41.0065
endloop
endfacet
facet normal 0 -1 0
outer loop
vertex 186.797 0 41.0065
vertex 212.42 0 65.5635
vertex 43.5803 0 65.5635
endloop
endfacet
facet normal 0 -1 0
outer loop
vertex 186.797 0 41.0065
vertex 43.5803 0 65.5635
vertex 171.25 0 32.321
endloop
endfacet
facet normal 0 -1 0
outer loop
vertex 171.25 0 32.321
vertex 43.5803 0 65.5635
vertex 154.458 0 26.3881
endloop
endfacet
facet normal 0.251978 0 -0.967733
outer loop
vertex 149.632 625 1.84117
vertex 149.632 875 1.84117
vertex 170.642 625 7.31169
endloop
endfacet
facet normal 0.251978 0 -0.967733
outer loop
vertex 170.642 625 7.31169
vertex 149.632 875 1.84117
vertex 170.642 875 7.31169
endloop
endfacet
facet normal 0.411901 0 -0.911228
outer loop
vertex 170.642 625 7.31169
vertex 170.642 875 7.31169
vertex 190.425 625 16.2542
endloop
endfacet
facet normal 0.411901 0 -0.911228
outer loop
vertex 190.425 625 16.2542
vertex 170.642 875 7.31169
vertex 190.425 875 16.2542
endloop
endfacet
facet normal 0.559975 0 -0.82851
outer loop
vertex 190.425 625 16.2542
vertex 190.425 875 16.2542
vertex 208.412 625 28.4114
endloop
endfacet
facet normal 0.559975 0 -0.82851
outer loop
vertex 208.412 625 28.4114
vertex 190.425 875 16.2542
vertex 208.412 875 28.4114
endloop
endfacet
facet normal 0.691939 0 -0.721956
outer loop
vertex 208.412 625 28.4114
vertex 208.412 875 28.4114
vertex 224.086 625 43.4336
endloop
endfacet
facet normal 0.691939 0 -0.721956
outer loop
vertex 224.086 625 43.4336
vertex 208.412 875 28.4114
vertex 224.086 875 43.4336
endloop
endfacet
facet normal 0.803997 0 -0.594633
outer loop
vertex 224.086 625 43.4336
vertex 224.086 875 43.4336
vertex 236.996 625 60.8887
endloop
endfacet
facet normal 0.803997 0 -0.594633
outer loop
vertex 236.996 625 60.8887
vertex 224.086 875 43.4336
vertex 236.996 875 60.8887
endloop
endfacet
facet normal 0.892926 0 -0.450204
outer loop
vertex 236.996 625 60.8887
vertex 236.996 875 60.8887
vertex 246.77 625 80.2744
endloop
endfacet
facet normal 0.892926 0 -0.450204
outer loop
vertex 246.77 625 80.2744
vertex 236.996 875 60.8887
vertex 246.77 875 80.2744
endloop
endfacet
facet normal 0.956166 0 -0.292824
outer loop
vertex 246.77 625 80.2744
vertex 246.77 875 80.2744
vertex 253.127 625 101.033
endloop
endfacet
facet normal 0.956166 0 -0.292824
outer loop
vertex 253.127 625 101.033
vertex 246.77 875 80.2744
vertex 253.127 875 101.033
endloop
endfacet
facet normal 0.991901 0 -0.127016
outer loop
vertex 253.127 625 101.033
vertex 253.127 875 101.033
vertex 255.885 625 122.568
endloop
endfacet
facet normal 0.991901 0 -0.127016
outer loop
vertex 255.885 625 122.568
vertex 253.127 875 101.033
vertex 255.885 875 122.568
endloop
endfacet
facet normal 0.999099 0 0.0424408
outer loop
vertex 255.885 625 122.568
vertex 255.885 875 122.568
vertex 254.963 625 144.258
endloop
endfacet
facet normal 0.999099 0 0.0424408
outer loop
vertex 254.963 625 144.258
vertex 255.885 875 122.568
vertex 254.963 875 144.258
endloop
endfacet
facet normal 0.977555 0 0.21068
outer loop
vertex 254.963 625 144.258
vertex 254.963 875 144.258
vertex 250.389 625 165.481
endloop
endfacet
facet normal 0.977555 0 0.21068
outer loop
vertex 250.389 625 165.481
vertex 254.963 875 144.258
vertex 250.389 875 165.481
endloop
endfacet
facet normal 0.927889 0 0.372856
outer loop
vertex 250.389 625 165.481
vertex 250.389 875 165.481
vertex 242.295 625 185.626
endloop
endfacet
facet normal 0.927889 0 0.372856
outer loop
vertex 242.295 625 185.626
vertex 250.389 875 165.481
vertex 242.295 875 185.626
endloop
endfacet
facet normal 0.851529 0 0.524308
outer loop
vertex 242.295 625 185.626
vertex 242.295 875 185.626
vertex 230.912 625 204.113
endloop
endfacet
facet normal 0.851529 0 0.524308
outer loop
vertex 230.912 625 204.113
vertex 242.295 875 185.626
vertex 230.912 875 204.113
endloop
endfacet
facet normal 0.750672 0 0.660675
outer loop
vertex 230.912 625 204.113
vertex 230.912 875 204.113
vertex 216.568 625 220.41
endloop
endfacet
facet normal 0.750672 0 0.660675
outer loop
vertex 216.568 625 220.41
vertex 230.912 875 204.113
vertex 216.568 875 220.41
endloop
endfacet
facet normal 0.62822 0 0.778035
outer loop
vertex 216.568 625 220.41
vertex 216.568 875 220.41
vertex 199.677 625 234.049
endloop
endfacet
facet normal 0.62822 0 0.778035
outer loop
vertex 199.677 625 234.049
vertex 216.568 875 220.41
vertex 199.677 875 234.049
endloop
endfacet
facet normal 0.487695 0 0.873014
outer loop
vertex 199.677 625 234.049
vertex 199.677 875 234.049
vertex 180.723 625 244.637
endloop
endfacet
facet normal 0.487695 0 0.873014
outer loop
vertex 180.723 625 244.637
vertex 199.677 875 234.049
vertex 180.723 875 244.637
endloop
endfacet
facet normal 0.33314 0 0.942877
outer loop
vertex 180.723 625 244.637
vertex 180.723 875 244.637
vertex 160.253 625 251.87
endloop
endfacet
facet normal 0.33314 0 0.942877
outer loop
vertex 160.253 625 251.87
vertex 180.723 875 244.637
vertex 160.253 875 251.87
endloop
endfacet
facet normal 0.169 0 0.985616
outer loop
vertex 160.253 625 251.87
vertex 160.253 875 251.87
vertex 138.855 625 255.539
endloop
endfacet
facet normal 0.169 0 0.985616
outer loop
vertex 138.855 625 255.539
vertex 160.253 875 251.87
vertex 138.855 875 255.539
endloop
endfacet
facet normal 0 0 1
outer loop
vertex 138.855 625 255.539
vertex 138.855 875 255.539
vertex 117.145 625 255.539
endloop
endfacet
facet normal 0 0 1
outer loop
vertex 117.145 625 255.539
vertex 138.855 875 255.539
vertex 117.145 875 255.539
endloop
endfacet
facet normal -0.169 0 0.985616
outer loop
vertex 117.145 625 255.539
vertex 117.145 875 255.539
vertex 95.7468 625 251.87
endloop
endfacet
facet normal -0.169 0 0.985616
outer loop
vertex 95.7468 625 251.87
vertex 117.145 875 255.539
vertex 95.7468 875 251.87
endloop
endfacet
facet normal -0.33314 0 0.942877
outer loop
vertex 95.7468 625 251.87
vertex 95.7468 875 251.87
vertex 75.2766 625 244.637
endloop
endfacet
facet normal -0.33314 0 0.942877
outer loop
vertex 75.2766 625 244.637
vertex 95.7468 875 251.87
vertex 75.2766 875 244.637
endloop
endfacet
facet normal -0.487696 0 0.873014
outer loop
vertex 75.2766 625 244.637
vertex 75.2766 875 244.637
vertex 56.3232 625 234.049
endloop
endfacet
facet normal -0.487696 0 0.873014
outer loop
vertex 56.3232 625 234.049
vertex 75.2766 875 244.637
vertex 56.3232 875 234.049
endloop
endfacet
facet normal -0.62822 0 0.778036
outer loop
vertex 56.3232 625 234.049
vertex 56.3232 875 234.049
vertex 39.4318 625 220.41
endloop
endfacet
facet normal -0.62822 0 0.778036
outer loop
vertex 39.4318 625 220.41
vertex 56.3232 875 234.049
vertex 39.4318 875 220.41
endloop
endfacet
facet normal -0.750672 0 0.660675
outer loop
vertex 39.4318 625 220.41
vertex 39.4318 875 220.41
vertex 25.0884 625 204.113
endloop
endfacet
facet normal -0.750672 0 0.660675
outer loop
vertex 25.0884 625 204.113
vertex 39.4318 875 220.41
vertex 25.0884 875 204.113
endloop
endfacet
facet normal -0.851529 0 0.524307
outer loop
vertex 25.0884 625 204.113
vertex 25.0884 875 204.113
vertex 13.7055 625 185.626
endloop
endfacet
facet normal -0.851529 0 0.524307
outer loop
vertex 13.7055 625 185.626
vertex 25.0884 875 204.113
vertex 13.7055 875 185.626
endloop
endfacet
facet normal -0.927889 0 0.372857
outer loop
vertex 13.7055 625 185.626
vertex 13.7055 875 185.626
vertex 5.61067 625 165.481
endloop
endfacet
facet normal -0.927889 0 0.372857
outer loop
vertex 5.61067 625 165.481
vertex 13.7055 875 185.626
vertex 5.61067 875 165.481
endloop
endfacet
facet normal -0.977555 0 0.210679
outer loop
vertex 5.61067 625 165.481
vertex 5.61067 875 165.481
vertex 1.03675 625 144.258
endloop
endfacet
facet normal -0.977555 0 0.210679
outer loop
vertex 1.03675 625 144.258
vertex 5.61067 875 165.481
vertex 1.03675 875 144.258
endloop
endfacet
facet normal -0.999099 0 0.0424413
outer loop
vertex 1.03675 625 144.258
vertex 1.03675 875 144.258
vertex 0.115335 625 122.568
endloop
endfacet
facet normal -0.999099 0 0.0424413
outer loop
vertex 0.115335 625 122.568
vertex 1.03675 875 144.258
vertex 0.115335 875 122.568
endloop
endfacet
facet normal -0.9919 0 -0.127018
outer loop
vertex 0.115335 625 122.568
vertex 0.115335 875 122.568
vertex 2.87293 625 101.033
endloop
endfacet
facet normal -0.9919 0 -0.127018
outer loop
vertex 2.87293 625 101.033
vertex 0.115335 875 122.568
vertex 2.87293 875 101.033
endloop
endfacet
facet normal -0.956167 0 -0.292823
outer loop
vertex 2.87293 625 101.033
vertex 2.87293 875 101.033
vertex 9.23021 625 80.2744
endloop
endfacet
facet normal -0.956167 0 -0.292823
outer loop
vertex 9.23021 625 80.2744
vertex 2.87293 875 101.033
vertex 9.23021 875 80.2744
endloop
endfacet
facet normal -0.892926 0 -0.450204
outer loop
vertex 9.23021 625 80.2744
vertex 9.23021 875 80.2744
vertex 19.0043 625 60.8887
endloop
endfacet
facet normal -0.892926 0 -0.450204
outer loop
vertex 19.0043 625 60.8887
vertex 9.23021 875 80.2744
vertex 19.0043 875 60.8887
endloop
endfacet
facet normal -0.803997 0 -0.594633
outer loop
vertex 19.0043 625 60.8887
vertex 19.0043 875 60.8887
vertex 31.914 625 43.4336
endloop
endfacet
facet normal -0.803997 0 -0.594633
outer loop
vertex 31.914 625 43.4336
vertex 19.0043 875 60.8887
vertex 31.914 875 43.4336
endloop
endfacet
facet normal -0.691939 0 -0.721956
outer loop
vertex 31.914 625 43.4336
vertex 31.914 875 43.4336
vertex 47.5878 625 28.4114
endloop
endfacet
facet normal -0.691939 0 -0.721956
outer loop
vertex 47.5878 625 28.4114
vertex 31.914 875 43.4336
vertex 47.5878 875 28.4114
endloop
endfacet
facet normal -0.559975 0 -0.82851
outer loop
vertex 47.5878 625 28.4114
vertex 47.5878 875 28.4114
vertex 65.5751 625 16.2542
endloop
endfacet
facet normal -0.559975 0 -0.82851
outer loop
vertex 65.5751 625 16.2542
vertex 47.5878 875 28.4114
vertex 65.5751 875 16.2542
endloop
endfacet
facet normal -0.411901 0 -0.911229
outer loop
vertex 65.5751 625 16.2542
vertex 65.5751 875 16.2542
vertex 85.3581 625 7.31169
endloop
endfacet
facet normal -0.411901 0 -0.911229
outer loop
vertex 85.3581 625 7.31169
vertex 65.5751 875 16.2542
vertex 85.3581 875 7.31169
endloop
endfacet
facet normal -0.251978 0 -0.967733
outer loop
vertex 85.3581 625 7.31169
vertex 85.3581 875 7.31169
vertex 106.368 625 1.84117
endloop
endfacet
facet normal -0.251978 0 -0.967733
outer loop
vertex 106.368 625 1.84117
vertex 85.3581 875 7.31169
vertex 106.368 875 1.84117
endloop
endfacet
facet normal -0.0848064 0 -0.996397
outer loop
vertex 106.368 625 1.84117
vertex 106.368 875 1.84117
vertex 128 625 0
endloop
endfacet
facet normal -0.0848064 0 -0.996397
outer loop
vertex 128 625 0
vertex 106.368 875 1.84117
vertex 128 875 0
endloop
endfacet
facet normal 0.0848063 0 -0.996397
outer loop
vertex 128 625 0
vertex 128 875 0
vertex 149.632 625 1.84117
endloop
endfacet
facet normal 0.0848063 0 -0.996397
outer loop
vertex 149.632 625 1.84117
vertex 128 875 0
vertex 149.632 875 1.84117
endloop
endfacet
facet normal -0.0600756 -0.70583 0.705829
outer loop
vertex 110.255 0 231.49
vertex 128 0 233
vertex 117.437 20 252.101
endloop
endfacet
facet normal -0.0600757 -0.70583 0.705829
outer loop
vertex 117.437 20 252.101
vertex 106.875 20 251.202
vertex 110.255 0 231.49
endloop
endfacet
facet normal -0.178496 -0.70583 0.685524
outer loop
vertex 110.255 0 231.49
vertex 106.875 20 251.202
vertex 96.6162 20 248.531
endloop
endfacet
facet normal -0.178496 -0.70583 0.685524
outer loop
vertex 110.255 0 231.49
vertex 96.6162 20 248.531
vertex 93.0203 0 227.002
endloop
endfacet
facet normal -0.178497 -0.70583 0.685524
outer loop
vertex 96.6162 20 248.531
vertex 86.3575 20 245.86
vertex 93.0203 0 227.002
endloop
endfacet
facet normal -0.291783 -0.70583 0.645497
outer loop
vertex 93.0203 0 227.002
vertex 86.3575 20 245.86
vertex 76.6978 20 241.493
endloop
endfacet
facet normal -0.291783 -0.70583 0.645497
outer loop
vertex 93.0203 0 227.002
vertex 76.6978 20 241.493
vertex 76.792 0 219.666
endloop
endfacet
facet normal -0.291783 -0.70583 0.645497
outer loop
vertex 76.6978 20 241.493
vertex 67.0381 20 237.127
vertex 76.792 0 219.666
endloop
endfacet
facet normal -0.396675 -0.70583 0.586901
outer loop
vertex 76.792 0 219.666
vertex 67.0381 20 237.127
vertex 58.2553 20 231.191
endloop
endfacet
facet normal -0.396675 -0.70583 0.586901
outer loop
vertex 76.792 0 219.666
vertex 58.2553 20 231.191
vertex 62.0369 0 209.694
endloop
endfacet
facet normal -0.396676 -0.70583 0.5869
outer loop
vertex 58.2553 20 231.191
vertex 49.4725 20 225.254
vertex 62.0369 0 209.694
endloop
endfacet
facet normal -0.490157 -0.70583 0.51142
outer loop
vertex 62.0369 0 209.694
vertex 49.4725 20 225.254
vertex 41.8192 20 217.919
endloop
endfacet
facet normal -0.490156 -0.70583 0.51142
outer loop
vertex 62.0369 0 209.694
vertex 41.8192 20 217.919
vertex 49.1794 0 197.371
endloop
endfacet
facet normal -0.490157 -0.70583 0.51142
outer loop
vertex 41.8192 20 217.919
vertex 34.166 20 210.584
vertex 49.1794 0 197.371
endloop
endfacet
facet normal -0.569536 -0.70583 0.421228
outer loop
vertex 49.1794 0 197.371
vertex 34.166 20 210.584
vertex 27.8624 20 202.061
endloop
endfacet
facet normal -0.569536 -0.70583 0.421227
outer loop
vertex 49.1794 0 197.371
vertex 27.8624 20 202.061
vertex 38.5894 0 183.052
endloop
endfacet
facet normal -0.569537 -0.70583 0.421227
outer loop
vertex 27.8624 20 202.061
vertex 21.5589 20 193.538
vertex 38.5894 0 183.052
endloop
endfacet
facet normal -0.632532 -0.70583 0.318916
outer loop
vertex 38.5894 0 183.052
vertex 21.5589 20 193.538
vertex 16.7864 20 184.073
endloop
endfacet
facet normal -0.632532 -0.70583 0.318916
outer loop
vertex 38.5894 0 183.052
vertex 16.7864 20 184.073
vertex 30.5717 0 167.15
endloop
endfacet
facet normal -0.632532 -0.70583 0.318916
outer loop
vertex 16.7864 20 184.073
vertex 12.0139 20 174.607
vertex 30.5717 0 167.15
endloop
endfacet
facet normal -0.677331 -0.70583 0.20743
outer loop
vertex 30.5717 0 167.15
vertex 12.0139 20 174.607
vertex 8.90974 20 164.471
endloop
endfacet
facet normal -0.677331 -0.70583 0.207431
outer loop
vertex 30.5717 0 167.15
vertex 8.90974 20 164.471
vertex 25.3567 0 150.121
endloop
endfacet
facet normal -0.677331 -0.70583 0.20743
outer loop
vertex 8.90974 20 164.471
vertex 5.8056 20 154.335
vertex 25.3567 0 150.121
endloop
endfacet
facet normal -0.702644 -0.70583 0.0899771
outer loop
vertex 25.3567 0 150.121
vertex 5.8056 20 154.335
vertex 4.45912 20 143.82
endloop
endfacet
facet normal -0.702644 -0.70583 0.0899768
outer loop
vertex 25.3567 0 150.121
vertex 4.45912 20 143.82
vertex 23.0946 0 132.456
endloop
endfacet
facet normal -0.702644 -0.70583 0.0899771
outer loop
vertex 4.45912 20 143.82
vertex 3.11264 20 133.305
vertex 23.0946 0 132.456
endloop
endfacet
facet normal -0.707743 -0.70583 -0.0300642
outer loop
vertex 23.0946 0 132.456
vertex 3.11264 20 133.305
vertex 3.56254 20 122.714
endloop
endfacet
facet normal -0.707743 -0.70583 -0.0300646
outer loop
vertex 23.0946 0 132.456
vertex 3.56254 20 122.714
vertex 23.8505 0 114.663
endloop
endfacet
facet normal -0.707743 -0.70583 -0.0300647
outer loop
vertex 3.56254 20 122.714
vertex 4.01245 20 112.123
vertex 23.8505 0 114.663
endloop
endfacet
facet normal -0.692482 -0.70583 -0.149241
outer loop
vertex 23.8505 0 114.663
vertex 4.01245 20 112.123
vertex 6.24581 20 101.76
endloop
endfacet
facet normal -0.692482 -0.70583 -0.149241
outer loop
vertex 23.8505 0 114.663
vertex 6.24581 20 101.76
vertex 27.6025 0 97.2536
endloop
endfacet
facet normal -0.692482 -0.70583 -0.149241
outer loop
vertex 6.24581 20 101.76
vertex 8.47916 20 91.3972
vertex 27.6025 0 97.2536
endloop
endfacet
facet normal -0.657299 -0.70583 -0.264125
outer loop
vertex 27.6025 0 97.2536
vertex 8.47916 20 91.3972
vertex 12.4317 20 81.5609
endloop
endfacet
facet normal -0.657299 -0.70583 -0.264125
outer loop
vertex 27.6025 0 97.2536
vertex 12.4317 20 81.5609
vertex 34.2428 0 80.7286
endloop
endfacet
facet normal -0.657299 -0.70583 -0.264124
outer loop
vertex 12.4317 20 81.5609
vertex 16.3843 20 71.7245
vertex 34.2428 0 80.7286
endloop
endfacet
facet normal -0.603207 -0.70583 -0.37141
outer loop
vertex 34.2428 0 80.7286
vertex 16.3843 20 71.7245
vertex 21.9423 20 62.6977
endloop
endfacet
facet normal -0.603207 -0.70583 -0.371409
outer loop
vertex 34.2428 0 80.7286
vertex 21.9423 20 62.6977
vertex 43.5803 0 65.5635
endloop
endfacet
facet normal -0.603207 -0.70583 -0.371409
outer loop
vertex 21.9423 20 62.6977
vertex 27.5004 20 53.6709
vertex 43.5803 0 65.5635
endloop
endfacet
facet normal -0.531762 -0.70583 -0.46801
outer loop
vertex 43.5803 0 65.5635
vertex 27.5004 20 53.6709
vertex 34.504 20 45.7132
endloop
endfacet
facet normal -0.531762 -0.70583 -0.46801
outer loop
vertex 43.5803 0 65.5635
vertex 34.504 20 45.7132
vertex 55.3464 0 52.1946
endloop
endfacet
facet normal -0.531762 -0.70583 -0.46801
outer loop
vertex 34.504 20 45.7132
vertex 41.5076 20 37.7555
vertex 55.3464 0 52.1946
endloop
endfacet
facet normal -0.445019 -0.70583 -0.551146
outer loop
vertex 55.3464 0 52.1946
vertex 41.5076 20 37.7555
vertex 49.7554 20 31.0959
endloop
endfacet
facet normal -0.445019 -0.70583 -0.551146
outer loop
vertex 55.3464 0 52.1946
vertex 49.7554 20 31.0959
vertex 69.2027 0 41.0065
endloop
endfacet
facet normal -0.445019 -0.70583 -0.551146
outer loop
vertex 49.7554 20 31.0959
vertex 58.0032 20 24.4363
vertex 69.2027 0 41.0065
endloop
endfacet
facet normal -0.345474 -0.70583 -0.618427
outer loop
vertex 69.2027 0 41.0065
vertex 58.0032 20 24.4363
vertex 67.2578 20 19.2664
endloop
endfacet
facet normal -0.345474 -0.70583 -0.618427
outer loop
vertex 69.2027 0 41.0065
vertex 67.2578 20 19.2664
vertex 84.7504 0 32.321
endloop
endfacet
facet normal -0.345474 -0.70583 -0.618427
outer loop
vertex 67.2578 20 19.2664
vertex 76.5124 20 14.0964
vertex 84.7504 0 32.321
endloop
endfacet
facet normal -0.23599 -0.70583 -0.667917
outer loop
vertex 84.7504 0 32.321
vertex 76.5124 20 14.0964
vertex 86.5075 20 10.5649
endloop
endfacet
facet normal -0.23599 -0.70583 -0.667917
outer loop
vertex 84.7504 0 32.321
vertex 86.5075 20 10.5649
vertex 101.542 0 26.3881
endloop
endfacet
facet normal -0.23599 -0.70583 -0.667917
outer loop
vertex 86.5075 20 10.5649
vertex 96.5028 20 7.03339
vertex 101.542 0 26.3881
endloop
endfacet
facet normal -0.119717 -0.70583 -0.698192
outer loop
vertex 101.542 0 26.3881
vertex 96.5028 20 7.03339
vertex 106.951 20 5.24186
endloop
endfacet
facet normal -0.119717 -0.70583 -0.698192
outer loop
vertex 101.542 0 26.3881
vertex 106.951 20 5.24186
vertex 119.095 0 23.3783
endloop
endfacet
facet normal -0.119717 -0.70583 -0.698192
outer loop
vertex 106.951 20 5.24186
vertex 117.399 20 3.45032
vertex 119.095 0 23.3783
endloop
endfacet
facet normal -0.0300239 -0.706788 -0.706788
outer loop
vertex 119.095 0 23.3783
vertex 117.399 20 3.45032
vertex 128 20 3.00001
endloop
endfacet
facet normal 0 -0.7137 -0.700452
outer loop
vertex 119.095 0 23.3783
vertex 128 20 3.00001
vertex 136.905 0 23.3783
endloop
endfacet
facet normal 0.0300239 -0.706788 -0.706788
outer loop
vertex 128 20 3.00001
vertex 138.601 20 3.45032
vertex 136.905 0 23.3783
endloop
endfacet
facet normal 0.119717 -0.70583 -0.698192
outer loop
vertex 136.905 0 23.3783
vertex 138.601 20 3.45032
vertex 149.049 20 5.24186
endloop
endfacet
facet normal 0.119717 -0.70583 -0.698192
outer loop
vertex 136.905 0 23.3783
vertex 149.049 20 5.24186
vertex 154.458 0 26.3881
endloop
endfacet
facet normal 0.119717 -0.70583 -0.698192
outer loop
vertex 149.049 20 5.24186
vertex 159.497 20 7.03339
vertex 154.458 0 26.3881
endloop
endfacet
facet normal 0.23599 -0.70583 -0.667917
outer loop
vertex 154.458 0 26.3881
vertex 159.497 20 7.03339
vertex 169.492 20 10.5649
endloop
endfacet
facet normal 0.23599 -0.70583 -0.667917
outer loop
vertex 154.458 0 26.3881
vertex 169.492 20 10.5649
vertex 171.25 0 32.321
endloop
endfacet
facet normal 0.23599 -0.70583 -0.667917
outer loop
vertex 169.492 20 10.5649
vertex 179.488 20 14.0964
vertex 171.25 0 32.321
endloop
endfacet
facet normal 0.345474 -0.70583 -0.618427
outer loop
vertex 171.25 0 32.321
vertex 179.488 20 14.0964
vertex 188.742 20 19.2664
endloop
endfacet
facet normal 0.345474 -0.70583 -0.618427
outer loop
vertex 171.25 0 32.321
vertex 188.742 20 19.2664
vertex 186.797 0 41.0065
endloop
endfacet
facet normal 0.345474 -0.70583 -0.618427
outer loop
vertex 188.742 20 19.2664
vertex 197.997 20 24.4363
vertex 186.797 0 41.0065
endloop
endfacet
facet normal 0.445019 -0.70583 -0.551146
outer loop
vertex 186.797 0 41.0065
vertex 197.997 20 24.4363
vertex 206.245 20 31.0959
endloop
endfacet
facet normal 0.445019 -0.70583 -0.551146
outer loop
vertex 186.797 0 41.0065
vertex 206.245 20 31.0959
vertex 200.654 0 52.1946
endloop
endfacet
facet normal 0.445019 -0.70583 -0.551146
outer loop
vertex 206.245 20 31.0959
vertex 214.492 20 37.7555
vertex 200.654 0 52.1946
endloop
endfacet
facet normal 0.531762 -0.70583 -0.46801
outer loop
vertex 200.654 0 52.1946
vertex 214.492 20 37.7555
vertex 221.496 20 45.7132
endloop
endfacet
facet normal 0.531762 -0.70583 -0.46801
outer loop
vertex 200.654 0 52.1946
vertex 221.496 20 45.7132
vertex 212.42 0 65.5635
endloop
endfacet
facet normal 0.531762 -0.70583 -0.468009
outer loop
vertex 221.496 20 45.7132
vertex 228.5 20 53.6709
vertex 212.42 0 65.5635
endloop
endfacet
facet normal 0.603207 -0.70583 -0.371409
outer loop
vertex 212.42 0 65.5635
vertex 228.5 20 53.6709
vertex 234.058 20 62.6977
endloop
endfacet
facet normal 0.603207 -0.70583 -0.371409
outer loop
vertex 212.42 0 65.5635
vertex 234.058 20 62.6977
vertex 221.757 0 80.7286
endloop
endfacet
facet normal 0.603207 -0.70583 -0.37141
outer loop
vertex 234.058 20 62.6977
vertex 239.616 20 71.7245
vertex 221.757 0 80.7286
endloop
endfacet
facet normal 0.657299 -0.70583 -0.264125
outer loop
vertex 221.757 0 80.7286
vertex 239.616 20 71.7245
vertex 243.568 20 81.5609
endloop
endfacet
facet normal 0.657299 -0.70583 -0.264125
outer loop
vertex 221.757 0 80.7286
vertex 243.568 20 81.5609
vertex 228.398 0 97.2536
endloop
endfacet
facet normal 0.6573 -0.70583 -0.264124
outer loop
vertex 243.568 20 81.5609
vertex 247.521 20 91.3972
vertex 228.398 0 97.2536
endloop
endfacet
facet normal 0.692482 -0.70583 -0.149242
outer loop
vertex 228.398 0 97.2536
vertex 247.521 20 91.3972
vertex 249.754 20 101.76
endloop
endfacet
facet normal 0.692482 -0.70583 -0.14924
outer loop
vertex 228.398 0 97.2536
vertex 249.754 20 101.76
vertex 232.15 0 114.663
endloop
endfacet
facet normal 0.692481 -0.705831 -0.149242
outer loop
vertex 249.754 20 101.76
vertex 251.988 20 112.123
vertex 232.15 0 114.663
endloop
endfacet
facet normal 0.707742 -0.705831 -0.0300633
outer loop
vertex 232.15 0 114.663
vertex 251.988 20 112.123
vertex 252.437 20 122.714
endloop
endfacet
facet normal 0.707743 -0.70583 -0.0300651
outer loop
vertex 232.15 0 114.663
vertex 252.437 20 122.714
vertex 232.905 0 132.456
endloop
endfacet
facet normal 0.707743 -0.70583 -0.0300644
outer loop
vertex 252.437 20 122.714
vertex 252.887 20 133.305
vertex 232.905 0 132.456
endloop
endfacet
facet normal 0.702644 -0.70583 0.089977
outer loop
vertex 232.905 0 132.456
vertex 252.887 20 133.305
vertex 251.541 20 143.82
endloop
endfacet
facet normal 0.702644 -0.70583 0.0899773
outer loop
vertex 232.905 0 132.456
vertex 251.541 20 143.82
vertex 230.643 0 150.121
endloop
endfacet
facet normal 0.702644 -0.70583 0.089978
outer loop
vertex 251.541 20 143.82
vertex 250.194 20 154.335
vertex 230.643 0 150.121
endloop
endfacet
facet normal 0.677331 -0.70583 0.207428
outer loop
vertex 230.643 0 150.121
vertex 250.194 20 154.335
vertex 247.09 20 164.471
endloop
endfacet
facet normal 0.67733 -0.70583 0.20743
outer loop
vertex 230.643 0 150.121
vertex 247.09 20 164.471
vertex 225.428 0 167.15
endloop
endfacet
facet normal 0.67733 -0.70583 0.207431
outer loop
vertex 247.09 20 164.471
vertex 243.986 20 174.607
vertex 225.428 0 167.15
endloop
endfacet
facet normal 0.632532 -0.70583 0.318916
outer loop
vertex 225.428 0 167.15
vertex 243.986 20 174.607
vertex 239.214 20 184.073
endloop
endfacet
facet normal 0.632532 -0.70583 0.318915
outer loop
vertex 225.428 0 167.15
vertex 239.214 20 184.073
vertex 217.411 0 183.052
endloop
endfacet
facet normal 0.632532 -0.70583 0.318916
outer loop
vertex 239.214 20 184.073
vertex 234.441 20 193.538
vertex 217.411 0 183.052
endloop
endfacet
facet normal 0.569537 -0.70583 0.421227
outer loop
vertex 217.411 0 183.052
vertex 234.441 20 193.538
vertex 228.138 20 202.061
endloop
endfacet
facet normal 0.569536 -0.70583 0.421227
outer loop
vertex 217.411 0 183.052
vertex 228.138 20 202.061
vertex 206.821 0 197.371
endloop
endfacet
facet normal 0.569536 -0.70583 0.421229
outer loop
vertex 228.138 20 202.061
vertex 221.834 20 210.584
vertex 206.821 0 197.371
endloop
endfacet
facet normal 0.490157 -0.70583 0.51142
outer loop
vertex 206.821 0 197.371
vertex 221.834 20 210.584
vertex 214.181 20 217.919
endloop
endfacet
facet normal 0.490156 -0.70583 0.51142
outer loop
vertex 206.821 0 197.371
vertex 214.181 20 217.919
vertex 193.963 0 209.694
endloop
endfacet
facet normal 0.490157 -0.70583 0.51142
outer loop
vertex 214.181 20 217.919
vertex 206.527 20 225.254
vertex 193.963 0 209.694
endloop
endfacet
facet normal 0.396676 -0.70583 0.5869
outer loop
vertex 193.963 0 209.694
vertex 206.527 20 225.254
vertex 197.745 20 231.191
endloop
endfacet
facet normal 0.396675 -0.70583 0.586901
outer loop
vertex 193.963 0 209.694
vertex 197.745 20 231.191
vertex 179.208 0 219.666
endloop
endfacet
facet normal 0.396676 -0.70583 0.5869
outer loop
vertex 197.745 20 231.191
vertex 188.962 20 237.127
vertex 179.208 0 219.666
endloop
endfacet
facet normal 0.291783 -0.70583 0.645497
outer loop
vertex 179.208 0 219.666
vertex 188.962 20 237.127
vertex 179.302 20 241.493
endloop
endfacet
facet normal 0.291784 -0.70583 0.645497
outer loop
vertex 179.208 0 219.666
vertex 179.302 20 241.493
vertex 162.98 0 227.002
endloop
endfacet
facet normal 0.291783 -0.70583 0.645498
outer loop
vertex 179.302 20 241.493
vertex 169.642 20 245.86
vertex 162.98 0 227.002
endloop
endfacet
facet normal 0.178497 -0.70583 0.685524
outer loop
vertex 162.98 0 227.002
vertex 169.642 20 245.86
vertex 159.384 20 248.531
endloop
endfacet
facet normal 0.178496 -0.70583 0.685524
outer loop
vertex 162.98 0 227.002
vertex 159.384 20 248.531
vertex 145.745 0 231.49
endloop
endfacet
facet normal 0.178496 -0.70583 0.685524
outer loop
vertex 159.384 20 248.531
vertex 149.125 20 251.202
vertex 145.745 0 231.49
endloop
endfacet
facet normal 0.0600757 -0.70583 0.705829
outer loop
vertex 145.745 0 231.49
vertex 149.125 20 251.202
vertex 138.563 20 252.101
endloop
endfacet
facet normal 0.0600755 -0.70583 0.705829
outer loop
vertex 145.745 0 231.49
vertex 138.563 20 252.101
vertex 128 0 233
endloop
endfacet
facet normal 0.0600757 -0.70583 0.705829
outer loop
vertex 128 0 233
vertex 138.563 20 252.101
vertex 128 20 253
endloop
endfacet
facet normal -0.0600757 -0.70583 0.705829
outer loop
vertex 128 0 233
vertex 128 20 253
vertex 117.437 20 252.101
endloop
endfacet
facet normal 0 -1 0
outer loop
vertex 228.5 625 202.329
vertex 230.912 625 204.113
vertex 214.492 625 218.245
endloop
endfacet
facet normal 0 -1 0
outer loop
vertex 214.492 625 218.245
vertex 230.912 625 204.113
vertex 216.568 625 220.41
endloop
endfacet
facet normal 0 -1 0
outer loop
vertex 214.492 625 218.245
vertex 216.568 625 220.41
vertex 197.997 625 231.564
endloop
endfacet
facet normal 0 -1 0
outer loop
vertex 197.997 625 231.564
vertex 216.568 625 220.41
vertex 199.677 625 234.049
endloop
endfacet
facet normal 0 -1 0
outer loop
vertex 197.997 625 231.564
vertex 199.677 625 234.049
vertex 179.488 625 241.904
endloop
endfacet
facet normal 0 -1 0
outer loop
vertex 179.488 625 241.904
vertex 199.677 625 234.049
vertex 180.723 625 244.637
endloop
endfacet
facet normal 0 -1 0
outer loop
vertex 179.488 625 241.904
vertex 180.723 625 244.637
vertex 159.497 625 248.967
endloop
endfacet
facet normal 0 -1 0
outer loop
vertex 159.497 625 248.967
vertex 180.723 625 244.637
vertex 160.253 625 251.87
endloop
endfacet
facet normal 0 -1 0
outer loop
vertex 159.497 625 248.967
vertex 160.253 625 251.87
vertex 138.601 625 252.55
endloop
endfacet
facet normal 0 -1 0
outer loop
vertex 138.601 625 252.55
vertex 160.253 625 251.87
vertex 138.855 625 255.539
endloop
endfacet
facet normal 0 -1 0
outer loop
vertex 138.601 625 252.55
vertex 138.855 625 255.539
vertex 117.399 625 252.55
endloop
endfacet
facet normal 0 -1 0
outer loop
vertex 117.399 625 252.55
vertex 138.855 625 255.539
vertex 117.145 625 255.539
endloop
endfacet
facet normal 0 -1 0
outer loop
vertex 117.399 625 252.55
vertex 117.145 625 255.539
vertex 96.5028 625 248.967
endloop
endfacet
facet normal 0 -1 0
outer loop
vertex 96.5028 625 248.967
vertex 117.145 625 255.539
vertex 95.7468 625 251.87
endloop
endfacet
facet normal 0 -1 0
outer loop
vertex 96.5028 625 248.967
vertex 95.7468 625 251.87
vertex 76.5124 625 241.904
endloop
endfacet
facet normal 0 -1 0
outer loop
vertex 76.5124 625 241.904
vertex 95.7468 625 251.87
vertex 75.2766 625 244.637
endloop
endfacet
facet normal 0 -1 0
outer loop
vertex 76.5124 625 241.904
vertex 75.2766 625 244.637
vertex 58.0032 625 231.564
endloop
endfacet
facet normal 0 -1 0
outer loop
vertex 58.0032 625 231.564
vertex 75.2766 625 244.637
vertex 56.3232 625 234.049
endloop
endfacet
facet normal 0 -1 0
outer loop
vertex 58.0032 625 231.564
vertex 56.3232 625 234.049
vertex 41.5076 625 218.245
endloop
endfacet
facet normal 0 -1 0
outer loop
vertex 41.5076 625 218.245
vertex 56.3232 625 234.049
vertex 39.4318 625 220.41
endloop
endfacet
facet normal 0 -1 0
outer loop
vertex 41.5076 625 218.245
vertex 39.4318 625 220.41
vertex 27.5004 625 202.329
endloop
endfacet
facet normal 0 -1 0
outer loop
vertex 27.5004 625 202.329
vertex 39.4318 625 220.41
vertex 25.0884 625 204.113
endloop
endfacet
facet normal 0 -1 0
outer loop
vertex 27.5004 625 202.329
vertex 25.0884 625 204.113
vertex 16.3843 625 184.275
endloop
endfacet
facet normal 0 -1 0
outer loop
vertex 16.3843 625 184.275
vertex 25.0884 625 204.113
vertex 13.7055 625 185.626
endloop
endfacet
facet normal 0 -1 0
outer loop
vertex 16.3843 625 184.275
vertex 13.7055 625 185.626
vertex 8.47916 625 164.603
endloop
endfacet
facet normal 0 -1 0
outer loop
vertex 8.47916 625 164.603
vertex 13.7055 625 185.626
vertex 5.61067 625 165.481
endloop
endfacet
facet normal 0 -1 0
outer loop
vertex 8.47916 625 164.603
vertex 5.61067 625 165.481
vertex 4.01245 625 143.877
endloop
endfacet
facet normal 0 -1 0
outer loop
vertex 4.01245 625 143.877
vertex 5.61067 625 165.481
vertex 1.03675 625 144.258
endloop
endfacet
facet normal 0 -1 0
outer loop
vertex 4.01245 625 143.877
vertex 1.03675 625 144.258
vertex 3.11264 625 122.695
endloop
endfacet
facet normal 0 -1 0
outer loop
vertex 3.11264 625 122.695
vertex 1.03675 625 144.258
vertex 0.115335 625 122.568
endloop
endfacet
facet normal 0 -1 0
outer loop
vertex 3.11264 625 122.695
vertex 0.115335 625 122.568
vertex 5.8056 625 101.665
endloop
endfacet
facet normal 0 -1 0
outer loop
vertex 5.8056 625 101.665
vertex 0.115335 625 122.568
vertex 2.87293 625 101.033
endloop
endfacet
facet normal 0 -1 0
outer loop
vertex 5.8056 625 101.665
vertex 2.87293 625 101.033
vertex 12.0139 625 81.3929
endloop
endfacet
facet normal 0 -1 0
outer loop
vertex 12.0139 625 81.3929
vertex 2.87293 625 101.033
vertex 9.23021 625 80.2744
endloop
endfacet
facet normal 0 -1 0
outer loop
vertex 12.0139 625 81.3929
vertex 9.23021 625 80.2744
vertex 21.5589 625 62.4616
endloop
endfacet
facet normal 0 -1 0
outer loop
vertex 21.5589 625 62.4616
vertex 9.23021 625 80.2744
vertex 19.0043 625 60.8887
endloop
endfacet
facet normal 0 -1 0
outer loop
vertex 21.5589 625 62.4616
vertex 19.0043 625 60.8887
vertex 34.166 625 45.4157
endloop
endfacet
facet normal 0 -1 0
outer loop
vertex 34.166 625 45.4157
vertex 19.0043 625 60.8887
vertex 31.914 625 43.4336
endloop
endfacet
facet normal 0 -1 0
outer loop
vertex 34.166 625 45.4157
vertex 31.914 625 43.4336
vertex 49.4725 625 30.7455
endloop
endfacet
facet normal 0 -1 0
outer loop
vertex 49.4725 625 30.7455
vertex 31.914 625 43.4336
vertex 47.5878 625 28.4114
endloop
endfacet
facet normal 0 -1 0
outer loop
vertex 49.4725 625 30.7455
vertex 47.5878 625 28.4114
vertex 67.0381 625 18.8732
endloop
endfacet
facet normal 0 -1 0
outer loop
vertex 67.0381 625 18.8732
vertex 47.5878 625 28.4114
vertex 65.5751 625 16.2542
endloop
endfacet
facet normal 0 -1 0
outer loop
vertex 67.0381 625 18.8732
vertex 65.5751 625 16.2542
vertex 86.3575 625 10.1403
endloop
endfacet
facet normal 0 -1 0
outer loop
vertex 86.3575 625 10.1403
vertex 65.5751 625 16.2542
vertex 85.3581 625 7.31169
endloop
endfacet
facet normal 0 -1 0
outer loop
vertex 86.3575 625 10.1403
vertex 85.3581 625 7.31169
vertex 106.875 625 4.79802
endloop
endfacet
facet normal 0 -1 0
outer loop
vertex 106.875 625 4.79802
vertex 85.3581 625 7.31169
vertex 106.368 625 1.84117
endloop
endfacet
facet normal 0 -1 0
outer loop
vertex 106.875 625 4.79802
vertex 106.368 625 1.84117
vertex 128 625 3.00001
endloop
endfacet
facet normal 0 -1 0
outer loop
vertex 128 625 3.00001
vertex 106.368 625 1.84117
vertex 128 625 0
endloop
endfacet
facet normal 0 -1 0
outer loop
vertex 128 625 3.00001
vertex 128 625 0
vertex 149.125 625 4.79802
endloop
endfacet
facet normal 0 -1 0
outer loop
vertex 149.125 625 4.79802
vertex 128 625 0
vertex 149.632 625 1.84117
endloop
endfacet
facet normal 0 -1 0
outer loop
vertex 149.125 625 4.79802
vertex 149.632 625 1.84117
vertex 169.642 625 10.1403
endloop
endfacet
facet normal 0 -1 0
outer loop
vertex 169.642 625 10.1403
vertex 149.632 625 1.84117
vertex 170.642 625 7.31169
endloop
endfacet
facet normal 0 -1 0
outer loop
vertex 169.642 625 10.1403
vertex 170.642 625 7.31169
vertex 188.962 625 18.8732
endloop
endfacet
facet normal 0 -1 0
outer loop
vertex 188.962 625 18.8732
vertex 170.642 625 7.31169
vertex 190.425 625 16.2542
endloop
endfacet
facet normal 0 -1 0
outer loop
vertex 188.962 625 18.8732
vertex 190.425 625 16.2542
vertex 206.527 625 30.7455
endloop
endfacet
facet normal 0 -1 0
outer loop
vertex 206.527 625 30.7455
vertex 190.425 625 16.2542
vertex 208.412 625 28.4114
endloop
endfacet
facet normal 0 -1 0
outer loop
vertex 206.527 625 30.7455
vertex 208.412 625 28.4114
vertex 221.834 625 45.4157
endloop
endfacet
facet normal 0 -1 0
outer loop
vertex 221.834 625 45.4157
vertex 208.412 625 28.4114
vertex 224.086 625 43.4336
endloop
endfacet
facet normal 0 -1 0
outer loop
vertex 221.834 625 45.4157
vertex 224.086 625 43.4336
vertex 234.441 625 62.4616
endloop
endfacet
facet normal 0 -1 0
outer loop
vertex 234.441 625 62.4616
vertex 224.086 625 43.4336
vertex 236.996 625 60.8887
endloop
endfacet
facet normal 0 -1 0
outer loop
vertex 234.441 625 62.4616
vertex 236.996 625 60.8887
vertex 243.986 625 81.3929
endloop
endfacet
facet normal 0 -1 0
outer loop
vertex 243.986 625 81.3929
vertex 236.996 625 60.8887
vertex 246.77 625 80.2744
endloop
endfacet
facet normal 0 -1 0
outer loop
vertex 243.986 625 81.3929
vertex 246.77 625 80.2744
vertex 250.194 625 101.665
endloop
endfacet
facet normal 0 -1 0
outer loop
vertex 250.194 625 101.665
vertex 246.77 625 80.2744
vertex 253.127 625 101.033
endloop
endfacet
facet normal 0 -1 0
outer loop
vertex 250.194 625 101.665
vertex 253.127 625 101.033
vertex 252.887 625 122.695
endloop
endfacet
facet normal 0 -1 0
outer loop
vertex 252.887 625 122.695
vertex 253.127 625 101.033
vertex 255.885 625 122.568
endloop
endfacet
facet normal 0 -1 0
outer loop
vertex 252.887 625 122.695
vertex 255.885 625 122.568
vertex 251.988 625 143.877
endloop
endfacet
facet normal 0 -1 0
outer loop
vertex 251.988 625 143.877
vertex 255.885 625 122.568
vertex 254.963 625 144.258
endloop
endfacet
facet normal 0 -1 0
outer loop
vertex 251.988 625 143.877
vertex 254.963 625 144.258
vertex 247.521 625 164.603
endloop
endfacet
facet normal 0 -1 0
outer loop
vertex 247.521 625 164.603
vertex 254.963 625 144.258
vertex 250.389 625 165.481
endloop
endfacet
facet normal 0 -1 0
outer loop
vertex 247.521 625 164.603
vertex 250.389 625 165.481
vertex 239.616 625 184.275
endloop
endfacet
facet normal 0 -1 0
outer loop
vertex 239.616 625 184.275
vertex 250.389 625 165.481
vertex 242.295 625 185.626
endloop
endfacet
facet normal 0 -1 0
outer loop
vertex 239.616 625 184.275
vertex 242.295 625 185.626
vertex 228.5 625 202.329
endloop
endfacet
facet normal 0 -1 0
outer loop
vertex 228.5 625 202.329
vertex 242.295 625 185.626
vertex 230.912 625 204.113
endloop
endfacet
facet normal -0.0848059 0.000744321 -0.996397
outer loop
vertex 117.399 20 3.45032
vertex 106.875 625 4.79802
vertex 128 625 3.00001
endloop
endfacet
facet normal -0.169001 -0.000744321 -0.985616
outer loop
vertex 117.399 20 3.45032
vertex 106.951 20 5.24186
vertex 106.875 625 4.79802
endloop
endfacet
facet normal -0.169 -0.000744321 -0.985616
outer loop
vertex 106.875 625 4.79802
vertex 106.951 20 5.24186
vertex 96.5028 20 7.03339
endloop
endfacet
facet normal -0.251978 0.000744321 -0.967733
outer loop
vertex 106.875 625 4.79802
vertex 96.5028 20 7.03339
vertex 86.3575 625 10.1403
endloop
endfacet
facet normal -0.33314 -0.000744321 -0.942877
outer loop
vertex 96.5028 20 7.03339
vertex 86.5075 20 10.5649
vertex 86.3575 625 10.1403
endloop
endfacet
facet normal -0.33314 -0.000744321 -0.942877
outer loop
vertex 86.3575 625 10.1403
vertex 86.5075 20 10.5649
vertex 76.5124 20 14.0964
endloop
endfacet
facet normal -0.411901 0.000744316 -0.911228
outer loop
vertex 86.3575 625 10.1403
vertex 76.5124 20 14.0964
vertex 67.0381 625 18.8732
endloop
endfacet
facet normal -0.487695 -0.000744322 -0.873014
outer loop
vertex 76.5124 20 14.0964
vertex 67.2578 20 19.2664
vertex 67.0381 625 18.8732
endloop
endfacet
facet normal -0.487695 -0.000744322 -0.873014
outer loop
vertex 67.0381 625 18.8732
vertex 67.2578 20 19.2664
vertex 58.0032 20 24.4363
endloop
endfacet
facet normal -0.559975 0.000744315 -0.828509
outer loop
vertex 67.0381 625 18.8732
vertex 58.0032 20 24.4363
vertex 49.4725 625 30.7455
endloop
endfacet
facet normal -0.62822 -0.000744325 -0.778036
outer loop
vertex 58.0032 20 24.4363
vertex 49.7554 20 31.0959
vertex 49.4725 625 30.7455
endloop
endfacet
facet normal -0.62822 -0.000744325 -0.778036
outer loop
vertex 49.4725 625 30.7455
vertex 49.7554 20 31.0959
vertex 41.5076 20 37.7555
endloop
endfacet
facet normal -0.691939 0.000744317 -0.721956
outer loop
vertex 49.4725 625 30.7455
vertex 41.5076 20 37.7555
vertex 34.166 625 45.4157
endloop
endfacet
facet normal -0.750672 -0.000744327 -0.660674
outer loop
vertex 41.5076 20 37.7555
vertex 34.504 20 45.7132
vertex 34.166 625 45.4157
endloop
endfacet
facet normal -0.750672 -0.000744327 -0.660675
outer loop
vertex 34.166 625 45.4157
vertex 34.504 20 45.7132
vertex 27.5004 20 53.6709
endloop
endfacet
facet normal -0.803997 0.000744324 -0.594633
outer loop
vertex 34.166 625 45.4157
vertex 27.5004 20 53.6709
vertex 21.5589 625 62.4616
endloop
endfacet
facet normal -0.851529 -0.000744318 -0.524307
outer loop
vertex 27.5004 20 53.6709
vertex 21.9423 20 62.6977
vertex 21.5589 625 62.4616
endloop
endfacet
facet normal -0.851529 -0.000744318 -0.524307
outer loop
vertex 21.5589 625 62.4616
vertex 21.9423 20 62.6977
vertex 16.3843 20 71.7245
endloop
endfacet
facet normal -0.892926 0.000744323 -0.450204
outer loop
vertex 21.5589 625 62.4616
vertex 16.3843 20 71.7245
vertex 12.0139 625 81.3929
endloop
endfacet
facet normal -0.927889 -0.000744327 -0.372856
outer loop
vertex 16.3843 20 71.7245
vertex 12.4317 20 81.5609
vertex 12.0139 625 81.3929
endloop
endfacet
facet normal -0.927889 -0.000744327 -0.372857
outer loop
vertex 12.0139 625 81.3929
vertex 12.4317 20 81.5609
vertex 8.47916 20 91.3972
endloop
endfacet
facet normal -0.956167 0.000744322 -0.292822
outer loop
vertex 12.0139 625 81.3929
vertex 8.47916 20 91.3972
vertex 5.8056 625 101.665
endloop
endfacet
facet normal -0.977555 -0.000744316 -0.210679
outer loop
vertex 8.47916 20 91.3972
vertex 6.24581 20 101.76
vertex 5.8056 625 101.665
endloop
endfacet
facet normal -0.977555 -0.000744316 -0.210679
outer loop
vertex 5.8056 625 101.665
vertex 6.24581 20 101.76
vertex 4.01245 20 112.123
endloop
endfacet
facet normal -0.9919 0.000744326 -0.127018
outer loop
vertex 5.8056 625 101.665
vertex 4.01245 20 112.123
vertex 3.11264 625 122.695
endloop
endfacet
facet normal -0.999099 -0.000744312 -0.0424414
outer loop
vertex 4.01245 20 112.123
vertex 3.56254 20 122.714
vertex 3.11264 625 122.695
endloop
endfacet
facet normal -0.999099 -0.000744312 -0.0424407
outer loop
vertex 3.11264 625 122.695
vertex 3.56254 20 122.714
vertex 3.11264 20 133.305
endloop
endfacet
facet normal -0.999099 0.000744318 0.0424411
outer loop
vertex 3.11264 625 122.695
vertex 3.11264 20 133.305
vertex 4.01245 625 143.877
endloop
endfacet
facet normal -0.9919 -0.000744327 0.127018
outer loop
vertex 3.11264 20 133.305
vertex 4.45912 20 143.82
vertex 4.01245 625 143.877
endloop
endfacet
facet normal -0.9919 -0.000744327 0.127018
outer loop
vertex 4.01245 625 143.877
vertex 4.45912 20 143.82
vertex 5.8056 20 154.335
endloop
endfacet
facet normal -0.977555 0.000744314 0.210679
outer loop
vertex 4.01245 625 143.877
vertex 5.8056 20 154.335
vertex 8.47916 625 164.603
endloop
endfacet
facet normal -0.956167 -0.000744317 0.292822
outer loop
vertex 5.8056 20 154.335
vertex 8.90974 20 164.471
vertex 8.47916 625 164.603
endloop
endfacet
facet normal -0.956167 -0.000744317 0.292822
outer loop
vertex 8.47916 625 164.603
vertex 8.90974 20 164.471
vertex 12.0139 20 174.607
endloop
endfacet
facet normal -0.927889 0.000744327 0.372856
outer loop
vertex 8.47916 625 164.603
vertex 12.0139 20 174.607
vertex 16.3843 625 184.275
endloop
endfacet
facet normal -0.892925 -0.000744335 0.450204
outer loop
vertex 12.0139 20 174.607
vertex 16.7864 20 184.073
vertex 16.3843 625 184.275
endloop
endfacet
facet normal -0.892926 -0.000744335 0.450203
outer loop
vertex 16.3843 625 184.275
vertex 16.7864 20 184.073
vertex 21.5589 20 193.538
endloop
endfacet
facet normal -0.851529 0.00074431 0.524307
outer loop
vertex 16.3843 625 184.275
vertex 21.5589 20 193.538
vertex 27.5004 625 202.329
endloop
endfacet
facet normal -0.803997 -0.00074433 0.594633
outer loop
vertex 21.5589 20 193.538
vertex 27.8624 20 202.061
vertex 27.5004 625 202.329
endloop
endfacet
facet normal -0.803996 -0.00074433 0.594634
outer loop
vertex 27.5004 625 202.329
vertex 27.8624 20 202.061
vertex 34.166 20 210.584
endloop
endfacet
facet normal -0.750672 0.000744294 0.660675
outer loop
vertex 27.5004 625 202.329
vertex 34.166 20 210.584
vertex 41.5076 625 218.245
endloop
endfacet
facet normal -0.691939 -0.000744338 0.721956
outer loop
vertex 34.166 20 210.584
vertex 41.8192 20 217.919
vertex 41.5076 625 218.245
endloop
endfacet
facet normal -0.691939 -0.000744338 0.721956
outer loop
vertex 41.5076 625 218.245
vertex 41.8192 20 217.919
vertex 49.4725 20 225.254
endloop
endfacet
facet normal -0.62822 0.000744308 0.778036
outer loop
vertex 41.5076 625 218.245
vertex 49.4725 20 225.254
vertex 58.0032 625 231.564
endloop
endfacet
facet normal -0.559975 -0.000744323 0.828509
outer loop
vertex 49.4725 20 225.254
vertex 58.2553 20 231.191
vertex 58.0032 625 231.564
endloop
endfacet
facet normal -0.559975 -0.000744323 0.828509
outer loop
vertex 58.0032 625 231.564
vertex 58.2553 20 231.191
vertex 67.0381 20 237.127
endloop
endfacet
facet normal -0.487695 0.000744311 0.873014
outer loop
vertex 58.0032 625 231.564
vertex 67.0381 20 237.127
vertex 76.5124 625 241.904
endloop
endfacet
facet normal -0.411901 -0.000744339 0.911228
outer loop
vertex 67.0381 20 237.127
vertex 76.6978 20 241.493
vertex 76.5124 625 241.904
endloop
endfacet
facet normal -0.411901 -0.000744339 0.911228
outer loop
vertex 76.5124 625 241.904
vertex 76.6978 20 241.493
vertex 86.3575 20 245.86
endloop
endfacet
facet normal -0.333139 0.000744296 0.942877
outer loop
vertex 76.5124 625 241.904
vertex 86.3575 20 245.86
vertex 96.5028 625 248.967
endloop
endfacet
facet normal -0.251978 -0.00074433 0.967733
outer loop
vertex 86.3575 20 245.86
vertex 96.6162 20 248.531
vertex 96.5028 625 248.967
endloop
endfacet
facet normal -0.251977 -0.00074433 0.967733
outer loop
vertex 96.5028 625 248.967
vertex 96.6162 20 248.531
vertex 106.875 20 251.202
endloop
endfacet
facet normal -0.169002 0.000744276 0.985616
outer loop
vertex 96.5028 625 248.967
vertex 106.875 20 251.202
vertex 117.399 625 252.55
endloop
endfacet
facet normal -0.084807 -0.000744359 0.996397
outer loop
vertex 106.875 20 251.202
vertex 117.437 20 252.101
vertex 117.399 625 252.55
endloop
endfacet
facet normal -0.084807 -0.000744359 0.996397
outer loop
vertex 117.399 625 252.55
vertex 117.437 20 252.101
vertex 128 20 253
endloop
endfacet
facet normal 0 0.000744301 1
outer loop
vertex 117.399 625 252.55
vertex 128 20 253
vertex 138.601 625 252.55
endloop
endfacet
facet normal 0.0848069 -0.00074436 0.996397
outer loop
vertex 128 20 253
vertex 138.563 20 252.101
vertex 138.601 625 252.55
endloop
endfacet
facet normal 0.084807 -0.00074436 0.996397
outer loop
vertex 138.601 625 252.55
vertex 138.563 20 252.101
vertex 149.125 20 251.202
endloop
endfacet
facet normal 0.169002 0.000744276 0.985615
outer loop
vertex 138.601 625 252.55
vertex 149.125 20 251.202
vertex 159.497 625 248.967
endloop
endfacet
facet normal 0.251977 -0.000744324 0.967733
outer loop
vertex 149.125 20 251.202
vertex 159.384 20 248.531
vertex 159.497 625 248.967
endloop
endfacet
facet normal 0.251979 -0.000744324 0.967732
outer loop
vertex 159.497 625 248.967
vertex 159.384 20 248.531
vertex 169.642 20 245.86
endloop
endfacet
facet normal 0.333139 0.000744296 0.942877
outer loop
vertex 159.497 625 248.967
vertex 169.642 20 245.86
vertex 179.488 625 241.904
endloop
endfacet
facet normal 0.4119 -0.000744334 0.911229
outer loop
vertex 169.642 20 245.86
vertex 179.302 20 241.493
vertex 179.488 625 241.904
endloop
endfacet
facet normal 0.411901 -0.000744334 0.911228
outer loop
vertex 179.488 625 241.904
vertex 179.302 20 241.493
vertex 188.962 20 237.127
endloop
endfacet
facet normal 0.487695 0.000744314 0.873014
outer loop
vertex 179.488 625 241.904
vertex 188.962 20 237.127
vertex 197.997 625 231.564
endloop
endfacet
facet normal 0.559975 -0.000744327 0.828509
outer loop
vertex 188.962 20 237.127
vertex 197.745 20 231.191
vertex 197.997 625 231.564
endloop
endfacet
facet normal 0.559976 -0.000744327 0.828509
outer loop
vertex 197.997 625 231.564
vertex 197.745 20 231.191
vertex 206.527 20 225.254
endloop
endfacet
facet normal 0.62822 0.000744292 0.778036
outer loop
vertex 197.997 625 231.564
vertex 206.527 20 225.254
vertex 214.492 625 218.245
endloop
endfacet
facet normal 0.691939 -0.000744346 0.721956
outer loop
vertex 206.527 20 225.254
vertex 214.181 20 217.919
vertex 214.492 625 218.245
endloop
endfacet
facet normal 0.691939 -0.000744346 0.721955
outer loop
vertex 214.492 625 218.245
vertex 214.181 20 217.919
vertex 221.834 20 210.584
endloop
endfacet
facet normal 0.750672 0.000744278 0.660675
outer loop
vertex 214.492 625 218.245
vertex 221.834 20 210.584
vertex 228.5 625 202.329
endloop
endfacet
facet normal 0.803995 -0.000744317 0.594635
outer loop
vertex 221.834 20 210.584
vertex 228.138 20 202.061
vertex 228.5 625 202.329
endloop
endfacet
facet normal 0.803997 -0.000744317 0.594632
outer loop
vertex 228.5 625 202.329
vertex 228.138 20 202.061
vertex 234.441 20 193.538
endloop
endfacet
facet normal 0.851529 0.000744314 0.524307
outer loop
vertex 228.5 625 202.329
vertex 234.441 20 193.538
vertex 239.616 625 184.275
endloop
endfacet
facet normal 0.892926 -0.000744332 0.450203
outer loop
vertex 234.441 20 193.538
vertex 239.214 20 184.073
vertex 239.616 625 184.275
endloop
endfacet
facet normal 0.892926 -0.000744332 0.450204
outer loop
vertex 239.616 625 184.275
vertex 239.214 20 184.073
vertex 243.986 20 174.607
endloop
endfacet
facet normal 0.927889 0.00074432 0.372856
outer loop
vertex 239.616 625 184.275
vertex 243.986 20 174.607
vertex 247.521 625 164.603
endloop
endfacet
facet normal 0.956166 -0.000744287 0.292824
outer loop
vertex 243.986 20 174.607
vertex 247.09 20 164.471
vertex 247.521 625 164.603
endloop
endfacet
facet normal 0.956167 -0.000744287 0.29282
outer loop
vertex 247.521 625 164.603
vertex 247.09 20 164.471
vertex 250.194 20 154.335
endloop
endfacet
facet normal 0.977555 0.000744286 0.21068
outer loop
vertex 247.521 625 164.603
vertex 250.194 20 154.335
vertex 251.988 625 143.877
endloop
endfacet
facet normal 0.9919 -0.000744353 0.127019
outer loop
vertex 250.194 20 154.335
vertex 251.541 20 143.82
vertex 251.988 625 143.877
endloop
endfacet
facet normal 0.9919 -0.000744353 0.127018
outer loop
vertex 251.988 625 143.877
vertex 251.541 20 143.82
vertex 252.887 20 133.305
endloop
endfacet
facet normal 0.999099 0.000744303 0.0424402
outer loop
vertex 251.988 625 143.877
vertex 252.887 20 133.305
vertex 252.887 625 122.695
endloop
endfacet
facet normal 0.999099 -0.000744316 -0.0424409
outer loop
vertex 252.887 20 133.305
vertex 252.437 20 122.714
vertex 252.887 625 122.695
endloop
endfacet
facet normal 0.999099 -0.000744316 -0.0424395
outer loop
vertex 252.887 625 122.695
vertex 252.437 20 122.714
vertex 251.988 20 112.123
endloop
endfacet
facet normal 0.9919 0.000744365 -0.127018
outer loop
vertex 252.887 625 122.695
vertex 251.988 20 112.123
vertex 250.194 625 101.665
endloop
endfacet
facet normal 0.977555 -0.000744289 -0.21068
outer loop
vertex 251.988 20 112.123
vertex 249.754 20 101.76
vertex 250.194 625 101.665
endloop
endfacet
facet normal 0.977555 -0.000744289 -0.21068
outer loop
vertex 250.194 625 101.665
vertex 249.754 20 101.76
vertex 247.521 20 91.3972
endloop
endfacet
facet normal 0.956167 0.000744328 -0.292822
outer loop
vertex 250.194 625 101.665
vertex 247.521 20 91.3972
vertex 243.986 625 81.3929
endloop
endfacet
facet normal 0.927889 -0.000744308 -0.372856
outer loop
vertex 247.521 20 91.3972
vertex 243.568 20 81.5609
vertex 243.986 625 81.3929
endloop
endfacet
facet normal 0.927889 -0.000744308 -0.372857
outer loop
vertex 243.986 625 81.3929
vertex 243.568 20 81.5609
vertex 239.616 20 71.7245
endloop
endfacet
facet normal 0.892926 0.000744326 -0.450203
outer loop
vertex 243.986 625 81.3929
vertex 239.616 20 71.7245
vertex 234.441 625 62.4616
endloop
endfacet
facet normal 0.851529 -0.000744321 -0.524307
outer loop
vertex 239.616 20 71.7245
vertex 234.058 20 62.6977
vertex 234.441 625 62.4616
endloop
endfacet
facet normal 0.851529 -0.000744321 -0.524307
outer loop
vertex 234.441 625 62.4616
vertex 234.058 20 62.6977
vertex 228.5 20 53.6709
endloop
endfacet
facet normal 0.803997 0.000744328 -0.594633
outer loop
vertex 234.441 625 62.4616
vertex 228.5 20 53.6709
vertex 221.834 625 45.4157
endloop
endfacet
facet normal 0.750672 -0.000744298 -0.660674
outer loop
vertex 228.5 20 53.6709
vertex 221.496 20 45.7132
vertex 221.834 625 45.4157
endloop
endfacet
facet normal 0.750672 -0.000744298 -0.660675
outer loop
vertex 221.834 625 45.4157
vertex 221.496 20 45.7132
vertex 214.492 20 37.7555
endloop
endfacet
facet normal 0.691939 0.000744334 -0.721956
outer loop
vertex 221.834 625 45.4157
vertex 214.492 20 37.7555
vertex 206.527 625 30.7455
endloop
endfacet
facet normal 0.62822 -0.000744309 -0.778036
outer loop
vertex 214.492 20 37.7555
vertex 206.245 20 31.0959
vertex 206.527 625 30.7455
endloop
endfacet
facet normal 0.62822 -0.000744309 -0.778036
outer loop
vertex 206.527 625 30.7455
vertex 206.245 20 31.0959
vertex 197.997 20 24.4363
endloop
endfacet
facet normal 0.559975 0.000744322 -0.828509
outer loop
vertex 206.527 625 30.7455
vertex 197.997 20 24.4363
vertex 188.962 625 18.8732
endloop
endfacet
facet normal 0.487694 -0.000744334 -0.873014
outer loop
vertex 197.997 20 24.4363
vertex 188.742 20 19.2664
vertex 188.962 625 18.8732
endloop
endfacet
facet normal 0.487695 -0.000744334 -0.873014
outer loop
vertex 188.962 625 18.8732
vertex 188.742 20 19.2664
vertex 179.488 20 14.0964
endloop
endfacet
facet normal 0.411901 0.000744314 -0.911228
outer loop
vertex 188.962 625 18.8732
vertex 179.488 20 14.0964
vertex 169.642 625 10.1403
endloop
endfacet
facet normal 0.33314 -0.000744321 -0.942877
outer loop
vertex 179.488 20 14.0964
vertex 169.492 20 10.5649
vertex 169.642 625 10.1403
endloop
endfacet
facet normal 0.33314 -0.000744321 -0.942877
outer loop
vertex 169.642 625 10.1403
vertex 169.492 20 10.5649
vertex 159.497 20 7.03339
endloop
endfacet
facet normal 0.251978 0.000744319 -0.967733
outer loop
vertex 169.642 625 10.1403
vertex 159.497 20 7.03339
vertex 149.125 625 4.79802
endloop
endfacet
facet normal 0.169 -0.000744326 -0.985616
outer loop
vertex 159.497 20 7.03339
vertex 149.049 20 5.24186
vertex 149.125 625 4.79802
endloop
endfacet
facet normal 0.169001 -0.000744326 -0.985616
outer loop
vertex 149.125 625 4.79802
vertex 149.049 20 5.24186
vertex 138.601 20 3.45032
endloop
endfacet
facet normal 0.0848059 0.000744323 -0.996397
outer loop
vertex 149.125 625 4.79802
vertex 138.601 20 3.45032
vertex 128 625 3.00001
endloop
endfacet
facet normal 0.0424411 0 -0.999099
outer loop
vertex 128 625 3.00001
vertex 138.601 20 3.45032
vertex 128 20 3.00001
endloop
endfacet
facet normal -0.0424412 0 -0.999099
outer loop
vertex 128 625 3.00001
vertex 128 20 3.00001
vertex 117.399 20 3.45032
endloop
endfacet
endsolid
