solid
 facet normal  0.000000e+000  0.000000e+000 -1.000000e+000
   outer loop
     vertex -6.000000e-001 -6.000000e-001 -1.000000e+000
     vertex -1.500000e+000 -6.000000e-001 -1.000000e+000
     vertex -1.500000e+000  6.000000e-001 -1.000000e+000
   endloop
 endfacet
 facet normal  0.000000e+000  0.000000e+000 -1.000000e+000
   outer loop
     vertex  6.000000e-001 -1.500000e+000 -1.000000e+000
     vertex -6.000000e-001 -1.500000e+000 -1.000000e+000
     vertex  6.000000e-001 -6.000000e-001 -1.000000e+000
   endloop
 endfacet
 facet normal  0.000000e+000  0.000000e+000 -1.000000e+000
   outer loop
     vertex -6.000000e-001 -1.500000e+000 -1.000000e+000
     vertex -6.000000e-001 -6.000000e-001 -1.000000e+000
     vertex  6.000000e-001 -6.000000e-001 -1.000000e+000
   endloop
 endfacet
 facet normal  0.000000e+000  0.000000e+000 -1.000000e+000
   outer loop
     vertex -6.000000e-001 -6.000000e-001 -1.000000e+000
     vertex -1.500000e+000  6.000000e-001 -1.000000e+000
     vertex -6.000000e-001  6.000000e-001 -1.000000e+000
   endloop
 endfacet
 facet normal  0.000000e+000  0.000000e+000 -1.000000e+000
   outer loop
     vertex -6.000000e-001  6.000000e-001 -1.000000e+000
     vertex -6.000000e-001  1.500000e+000 -1.000000e+000
     vertex  6.000000e-001  1.500000e+000 -1.000000e+000
   endloop
 endfacet
 facet normal  0.000000e+000  0.000000e+000 -1.000000e+000
   outer loop
     vertex  6.000000e-001  6.000000e-001 -1.000000e+000
     vertex -6.000000e-001  6.000000e-001 -1.000000e+000
     vertex  6.000000e-001  1.500000e+000 -1.000000e+000
   endloop
 endfacet
 facet normal  0.000000e+000  0.000000e+000 -1.000000e+000
   outer loop
     vertex  1.500000e+000 -6.000000e-001 -1.000000e+000
     vertex  6.000000e-001 -6.000000e-001 -1.000000e+000
     vertex  1.500000e+000  6.000000e-001 -1.000000e+000
   endloop
 endfacet
 facet normal  0.000000e+000  0.000000e+000 -1.000000e+000
   outer loop
     vertex  6.000000e-001 -6.000000e-001 -1.000000e+000
     vertex  6.000000e-001  6.000000e-001 -1.000000e+000
     vertex  1.500000e+000  6.000000e-001 -1.000000e+000
   endloop
 endfacet
 facet normal  0.000000e+000  0.000000e+000 -1.000000e+000
   outer loop
     vertex  6.000000e-001 -6.000000e-001 -1.000000e+000
     vertex -6.000000e-001 -6.000000e-001 -1.000000e+000
     vertex  0.000000e+000  0.000000e+000 -1.000000e+000
   endloop
 endfacet
 facet normal  0.000000e+000  0.000000e+000 -1.000000e+000
   outer loop
     vertex -6.000000e-001 -6.000000e-001 -1.000000e+000
     vertex -6.000000e-001  6.000000e-001 -1.000000e+000
     vertex  0.000000e+000  0.000000e+000 -1.000000e+000
   endloop
 endfacet
 facet normal -0.000000e+000 -0.000000e+000 -1.000000e+000
   outer loop
     vertex  6.000000e-001  6.000000e-001 -1.000000e+000
     vertex  6.000000e-001 -6.000000e-001 -1.000000e+000
     vertex  0.000000e+000  0.000000e+000 -1.000000e+000
   endloop
 endfacet
 facet normal  0.000000e+000 -0.000000e+000 -1.000000e+000
   outer loop
     vertex -6.000000e-001  6.000000e-001 -1.000000e+000
     vertex  6.000000e-001  6.000000e-001 -1.000000e+000
     vertex  0.000000e+000  0.000000e+000 -1.000000e+000
   endloop
 endfacet
 facet normal  1.000000e+000 -0.000000e+000  0.000000e+000
   outer loop
     vertex -6.000000e-001  6.000000e-001 -1.000000e+000
     vertex -6.000000e-001  6.000000e-001 -3.000000e+000
     vertex -6.000000e-001  1.500000e+000 -3.000000e+000
   endloop
 endfacet
 facet normal  1.000000e+000  0.000000e+000  0.000000e+000
   outer loop
     vertex -6.000000e-001  1.500000e+000 -1.000000e+000
     vertex -6.000000e-001  6.000000e-001 -1.000000e+000
     vertex -6.000000e-001  1.500000e+000 -3.000000e+000
   endloop
 endfacet
 facet normal  0.000000e+000 -1.000000e+000 -0.000000e+000
   outer loop
     vertex  6.000000e-001  1.500000e+000 -1.000000e+000
     vertex -6.000000e-001  1.500000e+000 -3.000000e+000
     vertex  6.000000e-001  1.500000e+000 -3.000000e+000
   endloop
 endfacet
 facet normal -0.000000e+000 -1.000000e+000 -0.000000e+000
   outer loop
     vertex  6.000000e-001  1.500000e+000 -1.000000e+000
     vertex -6.000000e-001  1.500000e+000 -1.000000e+000
     vertex -6.000000e-001  1.500000e+000 -3.000000e+000
   endloop
 endfacet
 facet normal -1.000000e+000  0.000000e+000  0.000000e+000
   outer loop
     vertex  6.000000e-001  6.000000e-001 -3.000000e+000
     vertex  6.000000e-001  6.000000e-001 -1.000000e+000
     vertex  6.000000e-001  1.500000e+000 -1.000000e+000
   endloop
 endfacet
 facet normal -1.000000e+000  0.000000e+000  0.000000e+000
   outer loop
     vertex  6.000000e-001  1.500000e+000 -3.000000e+000
     vertex  6.000000e-001  6.000000e-001 -3.000000e+000
     vertex  6.000000e-001  1.500000e+000 -1.000000e+000
   endloop
 endfacet
 facet normal  0.000000e+000 -1.000000e+000  0.000000e+000
   outer loop
     vertex  6.000000e-001  6.000000e-001 -1.000000e+000
     vertex  6.000000e-001  6.000000e-001 -3.000000e+000
     vertex  1.500000e+000  6.000000e-001 -3.000000e+000
   endloop
 endfacet
 facet normal -0.000000e+000 -1.000000e+000 -0.000000e+000
   outer loop
     vertex  1.500000e+000  6.000000e-001 -1.000000e+000
     vertex  6.000000e-001  6.000000e-001 -1.000000e+000
     vertex  1.500000e+000  6.000000e-001 -3.000000e+000
   endloop
 endfacet
 facet normal -1.000000e+000  0.000000e+000  0.000000e+000
   outer loop
     vertex  1.500000e+000  6.000000e-001 -3.000000e+000
     vertex  1.500000e+000 -6.000000e-001 -3.000000e+000
     vertex  1.500000e+000 -6.000000e-001 -1.000000e+000
   endloop
 endfacet
 facet normal -1.000000e+000  0.000000e+000  0.000000e+000
   outer loop
     vertex  1.500000e+000  6.000000e-001 -3.000000e+000
     vertex  1.500000e+000 -6.000000e-001 -1.000000e+000
     vertex  1.500000e+000  6.000000e-001 -1.000000e+000
   endloop
 endfacet
 facet normal  0.000000e+000  1.000000e+000  0.000000e+000
   outer loop
     vertex  6.000000e-001 -6.000000e-001 -3.000000e+000
     vertex  6.000000e-001 -6.000000e-001 -1.000000e+000
     vertex  1.500000e+000 -6.000000e-001 -1.000000e+000
   endloop
 endfacet
 facet normal  0.000000e+000  1.000000e+000 -0.000000e+000
   outer loop
     vertex  1.500000e+000 -6.000000e-001 -3.000000e+000
     vertex  6.000000e-001 -6.000000e-001 -3.000000e+000
     vertex  1.500000e+000 -6.000000e-001 -1.000000e+000
   endloop
 endfacet
 facet normal -1.000000e+000  0.000000e+000  0.000000e+000
   outer loop
     vertex  6.000000e-001 -1.500000e+000 -3.000000e+000
     vertex  6.000000e-001 -1.500000e+000 -1.000000e+000
     vertex  6.000000e-001 -6.000000e-001 -1.000000e+000
   endloop
 endfacet
 facet normal -1.000000e+000  0.000000e+000  0.000000e+000
   outer loop
     vertex  6.000000e-001 -6.000000e-001 -3.000000e+000
     vertex  6.000000e-001 -1.500000e+000 -3.000000e+000
     vertex  6.000000e-001 -6.000000e-001 -1.000000e+000
   endloop
 endfacet
 facet normal  0.000000e+000  1.000000e+000 -0.000000e+000
   outer loop
     vertex  6.000000e-001 -1.500000e+000 -3.000000e+000
     vertex -6.000000e-001 -1.500000e+000 -3.000000e+000
     vertex -6.000000e-001 -1.500000e+000 -1.000000e+000
   endloop
 endfacet
 facet normal  0.000000e+000  1.000000e+000 -0.000000e+000
   outer loop
     vertex  6.000000e-001 -1.500000e+000 -3.000000e+000
     vertex -6.000000e-001 -1.500000e+000 -1.000000e+000
     vertex  6.000000e-001 -1.500000e+000 -1.000000e+000
   endloop
 endfacet
 facet normal  1.000000e+000 -0.000000e+000  0.000000e+000
   outer loop
     vertex -6.000000e-001 -1.500000e+000 -1.000000e+000
     vertex -6.000000e-001 -1.500000e+000 -3.000000e+000
     vertex -6.000000e-001 -6.000000e-001 -3.000000e+000
   endloop
 endfacet
 facet normal  1.000000e+000  0.000000e+000  0.000000e+000
   outer loop
     vertex -6.000000e-001 -6.000000e-001 -1.000000e+000
     vertex -6.000000e-001 -1.500000e+000 -1.000000e+000
     vertex -6.000000e-001 -6.000000e-001 -3.000000e+000
   endloop
 endfacet
 facet normal  0.000000e+000  1.000000e+000  0.000000e+000
   outer loop
     vertex -1.500000e+000 -6.000000e-001 -3.000000e+000
     vertex -1.500000e+000 -6.000000e-001 -1.000000e+000
     vertex -6.000000e-001 -6.000000e-001 -1.000000e+000
   endloop
 endfacet
 facet normal  0.000000e+000  1.000000e+000 -0.000000e+000
   outer loop
     vertex -6.000000e-001 -6.000000e-001 -3.000000e+000
     vertex -1.500000e+000 -6.000000e-001 -3.000000e+000
     vertex -6.000000e-001 -6.000000e-001 -1.000000e+000
   endloop
 endfacet
 facet normal  1.000000e+000 -0.000000e+000  0.000000e+000
   outer loop
     vertex -1.500000e+000  6.000000e-001 -1.000000e+000
     vertex -1.500000e+000 -6.000000e-001 -3.000000e+000
     vertex -1.500000e+000  6.000000e-001 -3.000000e+000
   endloop
 endfacet
 facet normal  1.000000e+000  0.000000e+000  0.000000e+000
   outer loop
     vertex -1.500000e+000  6.000000e-001 -1.000000e+000
     vertex -1.500000e+000 -6.000000e-001 -1.000000e+000
     vertex -1.500000e+000 -6.000000e-001 -3.000000e+000
   endloop
 endfacet
 facet normal  0.000000e+000 -1.000000e+000  0.000000e+000
   outer loop
     vertex -1.500000e+000  6.000000e-001 -1.000000e+000
     vertex -1.500000e+000  6.000000e-001 -3.000000e+000
     vertex -6.000000e-001  6.000000e-001 -3.000000e+000
   endloop
 endfacet
 facet normal -0.000000e+000 -1.000000e+000 -0.000000e+000
   outer loop
     vertex -6.000000e-001  6.000000e-001 -1.000000e+000
     vertex -1.500000e+000  6.000000e-001 -1.000000e+000
     vertex -6.000000e-001  6.000000e-001 -3.000000e+000
   endloop
 endfacet
 facet normal  0.000000e+000  0.000000e+000 -1.000000e+000
   outer loop
     vertex -6.000000e-001  1.500000e+000 -3.000000e+000
     vertex -1.246980e+000  1.563663e+000 -3.000000e+000
     vertex -1.000000e+000  1.732051e+000 -3.000000e+000
   endloop
 endfacet
 facet normal  0.000000e+000  0.000000e+000 -1.000000e+000
   outer loop
     vertex -6.000000e-001  1.500000e+000 -3.000000e+000
     vertex -1.000000e+000  1.732051e+000 -3.000000e+000
     vertex -7.306820e-001  1.861747e+000 -3.000000e+000
   endloop
 endfacet
 facet normal  0.000000e+000  0.000000e+000 -1.000000e+000
   outer loop
     vertex -6.000000e-001  1.500000e+000 -3.000000e+000
     vertex -7.306820e-001  1.861747e+000 -3.000000e+000
     vertex -4.450419e-001  1.949856e+000 -3.000000e+000
   endloop
 endfacet
 facet normal  0.000000e+000  0.000000e+000 -1.000000e+000
   outer loop
     vertex -6.000000e-001  1.500000e+000 -3.000000e+000
     vertex -4.450419e-001  1.949856e+000 -3.000000e+000
     vertex -1.494602e-001  1.994408e+000 -3.000000e+000
   endloop
 endfacet
 facet normal -0.000000e+000  0.000000e+000 -1.000000e+000
   outer loop
     vertex -1.500000e+000  6.000000e-001 -3.000000e+000
     vertex -1.977662e+000  2.980845e-001 -3.000000e+000
     vertex -1.911146e+000  5.895103e-001 -3.000000e+000
   endloop
 endfacet
 facet normal -0.000000e+000  0.000000e+000 -1.000000e+000
   outer loop
     vertex -1.500000e+000  6.000000e-001 -3.000000e+000
     vertex -1.911146e+000  5.895103e-001 -3.000000e+000
     vertex -1.801938e+000  8.677675e-001 -3.000000e+000
   endloop
 endfacet
 facet normal  0.000000e+000  0.000000e+000 -1.000000e+000
   outer loop
     vertex -1.500000e+000  6.000000e-001 -3.000000e+000
     vertex -1.801938e+000  8.677675e-001 -3.000000e+000
     vertex -1.652478e+000  1.126640e+000 -3.000000e+000
   endloop
 endfacet
 facet normal  0.000000e+000  0.000000e+000 -1.000000e+000
   outer loop
     vertex -1.500000e+000  6.000000e-001 -3.000000e+000
     vertex -1.652478e+000  1.126640e+000 -3.000000e+000
     vertex -1.466104e+000  1.360345e+000 -3.000000e+000
   endloop
 endfacet
 facet normal  0.000000e+000  0.000000e+000 -1.000000e+000
   outer loop
     vertex -2.000000e+000 -2.449213e-016 -3.000000e+000
     vertex -1.977662e+000  2.980845e-001 -3.000000e+000
     vertex -1.500000e+000  6.000000e-001 -3.000000e+000
   endloop
 endfacet
 facet normal -0.000000e+000  0.000000e+000 -1.000000e+000
   outer loop
     vertex  1.494602e-001  1.994408e+000 -3.000000e+000
     vertex -6.000000e-001  1.500000e+000 -3.000000e+000
     vertex -1.494602e-001  1.994408e+000 -3.000000e+000
   endloop
 endfacet
 facet normal  0.000000e+000  0.000000e+000 -1.000000e+000
   outer loop
     vertex -6.000000e-001  6.000000e-001 -3.000000e+000
     vertex -1.466104e+000  1.360345e+000 -3.000000e+000
     vertex -1.246980e+000  1.563663e+000 -3.000000e+000
   endloop
 endfacet
 facet normal  0.000000e+000  0.000000e+000 -1.000000e+000
   outer loop
     vertex -6.000000e-001  6.000000e-001 -3.000000e+000
     vertex -1.246980e+000  1.563663e+000 -3.000000e+000
     vertex -6.000000e-001  1.500000e+000 -3.000000e+000
   endloop
 endfacet
 facet normal  0.000000e+000  0.000000e+000 -1.000000e+000
   outer loop
     vertex -6.000000e-001  6.000000e-001 -3.000000e+000
     vertex -1.500000e+000  6.000000e-001 -3.000000e+000
     vertex -1.466104e+000  1.360345e+000 -3.000000e+000
   endloop
 endfacet
 facet normal  0.000000e+000  0.000000e+000 -1.000000e+000
   outer loop
     vertex  6.000000e-001  1.500000e+000 -3.000000e+000
     vertex  1.494602e-001  1.994408e+000 -3.000000e+000
     vertex  4.450419e-001  1.949856e+000 -3.000000e+000
   endloop
 endfacet
 facet normal  0.000000e+000  0.000000e+000 -1.000000e+000
   outer loop
     vertex  6.000000e-001  1.500000e+000 -3.000000e+000
     vertex  4.450419e-001  1.949856e+000 -3.000000e+000
     vertex  7.306820e-001  1.861747e+000 -3.000000e+000
   endloop
 endfacet
 facet normal  0.000000e+000  0.000000e+000 -1.000000e+000
   outer loop
     vertex  6.000000e-001  1.500000e+000 -3.000000e+000
     vertex -6.000000e-001  1.500000e+000 -3.000000e+000
     vertex  1.494602e-001  1.994408e+000 -3.000000e+000
   endloop
 endfacet
 facet normal -0.000000e+000  0.000000e+000 -1.000000e+000
   outer loop
     vertex -1.500000e+000 -6.000000e-001 -3.000000e+000
     vertex -1.801938e+000 -8.677675e-001 -3.000000e+000
     vertex -1.911146e+000 -5.895103e-001 -3.000000e+000
   endloop
 endfacet
 facet normal  0.000000e+000  0.000000e+000 -1.000000e+000
   outer loop
     vertex -1.500000e+000 -6.000000e-001 -3.000000e+000
     vertex -1.911146e+000 -5.895103e-001 -3.000000e+000
     vertex -1.977662e+000 -2.980845e-001 -3.000000e+000
   endloop
 endfacet
 facet normal  0.000000e+000  0.000000e+000 -1.000000e+000
   outer loop
     vertex -1.500000e+000 -6.000000e-001 -3.000000e+000
     vertex -1.977662e+000 -2.980845e-001 -3.000000e+000
     vertex -2.000000e+000 -2.449213e-016 -3.000000e+000
   endloop
 endfacet
 facet normal  0.000000e+000  0.000000e+000 -1.000000e+000
   outer loop
     vertex -1.500000e+000 -6.000000e-001 -3.000000e+000
     vertex -2.000000e+000 -2.449213e-016 -3.000000e+000
     vertex -1.500000e+000  6.000000e-001 -3.000000e+000
   endloop
 endfacet
 facet normal -0.000000e+000  0.000000e+000 -1.000000e+000
   outer loop
     vertex  1.000000e+000  1.732051e+000 -3.000000e+000
     vertex  6.000000e-001  1.500000e+000 -3.000000e+000
     vertex  7.306820e-001  1.861747e+000 -3.000000e+000
   endloop
 endfacet
 facet normal  0.000000e+000  0.000000e+000 -1.000000e+000
   outer loop
     vertex -1.652478e+000 -1.126640e+000 -3.000000e+000
     vertex -1.801938e+000 -8.677675e-001 -3.000000e+000
     vertex -1.500000e+000 -6.000000e-001 -3.000000e+000
   endloop
 endfacet
 facet normal -0.000000e+000  0.000000e+000 -1.000000e+000
   outer loop
     vertex  1.246980e+000  1.563663e+000 -3.000000e+000
     vertex  6.000000e-001  1.500000e+000 -3.000000e+000
     vertex  1.000000e+000  1.732051e+000 -3.000000e+000
   endloop
 endfacet
 facet normal  0.000000e+000  0.000000e+000 -1.000000e+000
   outer loop
     vertex -1.466104e+000 -1.360345e+000 -3.000000e+000
     vertex -1.652478e+000 -1.126640e+000 -3.000000e+000
     vertex -1.500000e+000 -6.000000e-001 -3.000000e+000
   endloop
 endfacet
 facet normal  0.000000e+000  0.000000e+000 -1.000000e+000
   outer loop
     vertex  6.000000e-001  6.000000e-001 -3.000000e+000
     vertex  6.000000e-001  1.500000e+000 -3.000000e+000
     vertex  1.246980e+000  1.563663e+000 -3.000000e+000
   endloop
 endfacet
 facet normal -0.000000e+000  0.000000e+000 -1.000000e+000
   outer loop
     vertex -6.000000e-001 -6.000000e-001 -3.000000e+000
     vertex -1.466104e+000 -1.360345e+000 -3.000000e+000
     vertex -1.500000e+000 -6.000000e-001 -3.000000e+000
   endloop
 endfacet
 facet normal -0.000000e+000  0.000000e+000 -1.000000e+000
   outer loop
     vertex  1.466104e+000  1.360345e+000 -3.000000e+000
     vertex  6.000000e-001  6.000000e-001 -3.000000e+000
     vertex  1.246980e+000  1.563663e+000 -3.000000e+000
   endloop
 endfacet
 facet normal  0.000000e+000  0.000000e+000 -1.000000e+000
   outer loop
     vertex -1.246980e+000 -1.563663e+000 -3.000000e+000
     vertex -1.466104e+000 -1.360345e+000 -3.000000e+000
     vertex -6.000000e-001 -6.000000e-001 -3.000000e+000
   endloop
 endfacet
 facet normal -0.000000e+000  0.000000e+000 -1.000000e+000
   outer loop
     vertex -6.000000e-001 -1.500000e+000 -3.000000e+000
     vertex -1.000000e+000 -1.732051e+000 -3.000000e+000
     vertex -1.246980e+000 -1.563663e+000 -3.000000e+000
   endloop
 endfacet
 facet normal -0.000000e+000  0.000000e+000 -1.000000e+000
   outer loop
     vertex -6.000000e-001 -1.500000e+000 -3.000000e+000
     vertex -1.246980e+000 -1.563663e+000 -3.000000e+000
     vertex -6.000000e-001 -6.000000e-001 -3.000000e+000
   endloop
 endfacet
 facet normal  0.000000e+000  0.000000e+000 -1.000000e+000
   outer loop
     vertex  1.500000e+000  6.000000e-001 -3.000000e+000
     vertex  6.000000e-001  6.000000e-001 -3.000000e+000
     vertex  1.466104e+000  1.360345e+000 -3.000000e+000
   endloop
 endfacet
 facet normal  0.000000e+000  0.000000e+000 -1.000000e+000
   outer loop
     vertex  1.500000e+000  6.000000e-001 -3.000000e+000
     vertex  1.466104e+000  1.360345e+000 -3.000000e+000
     vertex  1.652478e+000  1.126640e+000 -3.000000e+000
   endloop
 endfacet
 facet normal -0.000000e+000  0.000000e+000 -1.000000e+000
   outer loop
     vertex  1.801938e+000  8.677675e-001 -3.000000e+000
     vertex  1.500000e+000  6.000000e-001 -3.000000e+000
     vertex  1.652478e+000  1.126640e+000 -3.000000e+000
   endloop
 endfacet
 facet normal  0.000000e+000  0.000000e+000 -1.000000e+000
   outer loop
     vertex -7.306820e-001 -1.861747e+000 -3.000000e+000
     vertex -1.000000e+000 -1.732051e+000 -3.000000e+000
     vertex -6.000000e-001 -1.500000e+000 -3.000000e+000
   endloop
 endfacet
 facet normal  0.000000e+000  0.000000e+000 -1.000000e+000
   outer loop
     vertex  1.911146e+000  5.895103e-001 -3.000000e+000
     vertex  1.500000e+000  6.000000e-001 -3.000000e+000
     vertex  1.801938e+000  8.677675e-001 -3.000000e+000
   endloop
 endfacet
 facet normal  0.000000e+000  0.000000e+000 -1.000000e+000
   outer loop
     vertex -4.450419e-001 -1.949856e+000 -3.000000e+000
     vertex -7.306820e-001 -1.861747e+000 -3.000000e+000
     vertex -6.000000e-001 -1.500000e+000 -3.000000e+000
   endloop
 endfacet
 facet normal  0.000000e+000  0.000000e+000 -1.000000e+000
   outer loop
     vertex  1.977662e+000  2.980845e-001 -3.000000e+000
     vertex  1.500000e+000  6.000000e-001 -3.000000e+000
     vertex  1.911146e+000  5.895103e-001 -3.000000e+000
   endloop
 endfacet
 facet normal  0.000000e+000  0.000000e+000 -1.000000e+000
   outer loop
     vertex -1.494602e-001 -1.994408e+000 -3.000000e+000
     vertex -4.450419e-001 -1.949856e+000 -3.000000e+000
     vertex -6.000000e-001 -1.500000e+000 -3.000000e+000
   endloop
 endfacet
 facet normal  0.000000e+000  0.000000e+000 -1.000000e+000
   outer loop
     vertex  2.000000e+000  0.000000e+000 -3.000000e+000
     vertex  1.500000e+000  6.000000e-001 -3.000000e+000
     vertex  1.977662e+000  2.980845e-001 -3.000000e+000
   endloop
 endfacet
 facet normal  0.000000e+000  0.000000e+000 -1.000000e+000
   outer loop
     vertex  1.500000e+000 -6.000000e-001 -3.000000e+000
     vertex  1.500000e+000  6.000000e-001 -3.000000e+000
     vertex  2.000000e+000  0.000000e+000 -3.000000e+000
   endloop
 endfacet
 facet normal -0.000000e+000  0.000000e+000 -1.000000e+000
   outer loop
     vertex  6.000000e-001 -1.500000e+000 -3.000000e+000
     vertex -1.494602e-001 -1.994408e+000 -3.000000e+000
     vertex -6.000000e-001 -1.500000e+000 -3.000000e+000
   endloop
 endfacet
 facet normal  0.000000e+000  0.000000e+000 -1.000000e+000
   outer loop
     vertex  1.494602e-001 -1.994408e+000 -3.000000e+000
     vertex -1.494602e-001 -1.994408e+000 -3.000000e+000
     vertex  6.000000e-001 -1.500000e+000 -3.000000e+000
   endloop
 endfacet
 facet normal -0.000000e+000  0.000000e+000 -1.000000e+000
   outer loop
     vertex  1.977662e+000 -2.980845e-001 -3.000000e+000
     vertex  1.500000e+000 -6.000000e-001 -3.000000e+000
     vertex  2.000000e+000  0.000000e+000 -3.000000e+000
   endloop
 endfacet
 facet normal -0.000000e+000  0.000000e+000 -1.000000e+000
   outer loop
     vertex  4.450419e-001 -1.949856e+000 -3.000000e+000
     vertex  1.494602e-001 -1.994408e+000 -3.000000e+000
     vertex  6.000000e-001 -1.500000e+000 -3.000000e+000
   endloop
 endfacet
 facet normal -0.000000e+000  0.000000e+000 -1.000000e+000
   outer loop
     vertex  1.911146e+000 -5.895103e-001 -3.000000e+000
     vertex  1.500000e+000 -6.000000e-001 -3.000000e+000
     vertex  1.977662e+000 -2.980845e-001 -3.000000e+000
   endloop
 endfacet
 facet normal -0.000000e+000  0.000000e+000 -1.000000e+000
   outer loop
     vertex  7.306820e-001 -1.861747e+000 -3.000000e+000
     vertex  4.450419e-001 -1.949856e+000 -3.000000e+000
     vertex  6.000000e-001 -1.500000e+000 -3.000000e+000
   endloop
 endfacet
 facet normal  0.000000e+000  0.000000e+000 -1.000000e+000
   outer loop
     vertex  1.801938e+000 -8.677675e-001 -3.000000e+000
     vertex  1.500000e+000 -6.000000e-001 -3.000000e+000
     vertex  1.911146e+000 -5.895103e-001 -3.000000e+000
   endloop
 endfacet
 facet normal -0.000000e+000  0.000000e+000 -1.000000e+000
   outer loop
     vertex  1.000000e+000 -1.732051e+000 -3.000000e+000
     vertex  7.306820e-001 -1.861747e+000 -3.000000e+000
     vertex  6.000000e-001 -1.500000e+000 -3.000000e+000
   endloop
 endfacet
 facet normal  0.000000e+000  0.000000e+000 -1.000000e+000
   outer loop
     vertex  1.652478e+000 -1.126640e+000 -3.000000e+000
     vertex  1.500000e+000 -6.000000e-001 -3.000000e+000
     vertex  1.801938e+000 -8.677675e-001 -3.000000e+000
   endloop
 endfacet
 facet normal -0.000000e+000  0.000000e+000 -1.000000e+000
   outer loop
     vertex  1.246980e+000 -1.563663e+000 -3.000000e+000
     vertex  1.000000e+000 -1.732051e+000 -3.000000e+000
     vertex  6.000000e-001 -1.500000e+000 -3.000000e+000
   endloop
 endfacet
 facet normal  0.000000e+000  0.000000e+000 -1.000000e+000
   outer loop
     vertex  1.246980e+000 -1.563663e+000 -3.000000e+000
     vertex  6.000000e-001 -1.500000e+000 -3.000000e+000
     vertex  6.000000e-001 -6.000000e-001 -3.000000e+000
   endloop
 endfacet
 facet normal  0.000000e+000  0.000000e+000 -1.000000e+000
   outer loop
     vertex  1.466104e+000 -1.360345e+000 -3.000000e+000
     vertex  6.000000e-001 -6.000000e-001 -3.000000e+000
     vertex  1.500000e+000 -6.000000e-001 -3.000000e+000
   endloop
 endfacet
 facet normal -0.000000e+000  0.000000e+000 -1.000000e+000
   outer loop
     vertex  1.466104e+000 -1.360345e+000 -3.000000e+000
     vertex  1.246980e+000 -1.563663e+000 -3.000000e+000
     vertex  6.000000e-001 -6.000000e-001 -3.000000e+000
   endloop
 endfacet
 facet normal  0.000000e+000  0.000000e+000 -1.000000e+000
   outer loop
     vertex  1.466104e+000 -1.360345e+000 -3.000000e+000
     vertex  1.500000e+000 -6.000000e-001 -3.000000e+000
     vertex  1.652478e+000 -1.126640e+000 -3.000000e+000
   endloop
 endfacet
 facet normal  1.490423e-001 -9.888308e-001  2.127875e-017
   outer loop
     vertex  1.494602e-001 -1.994408e+000 -3.000000e+000
     vertex  4.450419e-001 -1.949856e+000  0.000000e+000
     vertex  1.494602e-001 -1.994408e+000  0.000000e+000
   endloop
 endfacet
 facet normal  1.490423e-001 -9.888308e-001 -3.606293e-017
   outer loop
     vertex  1.494602e-001 -1.994408e+000 -3.000000e+000
     vertex  4.450419e-001 -1.949856e+000 -3.000000e+000
     vertex  4.450419e-001 -1.949856e+000  0.000000e+000
   endloop
 endfacet
 facet normal -7.428219e-016 -1.000000e+000 -3.298792e-031
   outer loop
     vertex -1.494602e-001 -1.994408e+000 -3.000000e+000
     vertex  1.494602e-001 -1.994408e+000  0.000000e+000
     vertex -1.494602e-001 -1.994408e+000  0.000000e+000
   endloop
 endfacet
 facet normal  9.972038e-001 -7.473009e-002  0.000000e+000
   outer loop
     vertex  1.977662e+000 -2.980845e-001 -3.000000e+000
     vertex  2.000000e+000  0.000000e+000 -3.000000e+000
     vertex  2.000000e+000  0.000000e+000  0.000000e+000
   endloop
 endfacet
 facet normal  9.972038e-001 -7.473009e-002  1.228364e-016
   outer loop
     vertex  1.977662e+000 -2.980845e-001 -3.000000e+000
     vertex  2.000000e+000  0.000000e+000  0.000000e+000
     vertex  1.977662e+000 -2.980845e-001  0.000000e+000
   endloop
 endfacet
 facet normal  0.000000e+000 -1.000000e+000 -7.401487e-017
   outer loop
     vertex -1.494602e-001 -1.994408e+000 -3.000000e+000
     vertex  1.494602e-001 -1.994408e+000 -3.000000e+000
     vertex  1.494602e-001 -1.994408e+000  0.000000e+000
   endloop
 endfacet
 facet normal -1.490423e-001 -9.888308e-001 -4.836080e-017
   outer loop
     vertex -4.450419e-001 -1.949856e+000 -3.000000e+000
     vertex -1.494602e-001 -1.994408e+000  0.000000e+000
     vertex -4.450419e-001 -1.949856e+000  0.000000e+000
   endloop
 endfacet
 facet normal -1.490423e-001 -9.888308e-001 -6.756698e-017
   outer loop
     vertex -4.450419e-001 -1.949856e+000 -3.000000e+000
     vertex -1.494602e-001 -1.994408e+000 -3.000000e+000
     vertex -1.494602e-001 -1.994408e+000  0.000000e+000
   endloop
 endfacet
 facet normal  9.749279e-001 -2.225209e-001  1.238037e-016
   outer loop
     vertex  1.911146e+000 -5.895103e-001 -3.000000e+000
     vertex  1.977662e+000 -2.980845e-001  0.000000e+000
     vertex  1.911146e+000 -5.895103e-001  0.000000e+000
   endloop
 endfacet
 facet normal  9.749279e-001 -2.225209e-001 -2.260464e-016
   outer loop
     vertex  1.911146e+000 -5.895103e-001 -3.000000e+000
     vertex  1.977662e+000 -2.980845e-001 -3.000000e+000
     vertex  1.977662e+000 -2.980845e-001  0.000000e+000
   endloop
 endfacet
 facet normal -2.947552e-001 -9.555728e-001  2.708205e-017
   outer loop
     vertex -7.306820e-001 -1.861747e+000 -3.000000e+000
     vertex -4.450419e-001 -1.949856e+000  0.000000e+000
     vertex -7.306820e-001 -1.861747e+000  0.000000e+000
   endloop
 endfacet
 facet normal -2.947552e-001 -9.555728e-001 -9.271913e-017
   outer loop
     vertex -7.306820e-001 -1.861747e+000 -3.000000e+000
     vertex -4.450419e-001 -1.949856e+000 -3.000000e+000
     vertex -4.450419e-001 -1.949856e+000  0.000000e+000
   endloop
 endfacet
 facet normal  9.308737e-001 -3.653410e-001  1.934432e-016
   outer loop
     vertex  1.801938e+000 -8.677675e-001 -3.000000e+000
     vertex  1.911146e+000 -5.895103e-001  0.000000e+000
     vertex  1.801938e+000 -8.677675e-001  0.000000e+000
   endloop
 endfacet
 facet normal -4.338837e-001 -9.009689e-001  2.457396e-018
   outer loop
     vertex -1.000000e+000 -1.732051e+000  0.000000e+000
     vertex -7.306820e-001 -1.861747e+000 -3.000000e+000
     vertex -7.306820e-001 -1.861747e+000  0.000000e+000
   endloop
 endfacet
 facet normal  9.308737e-001 -3.653410e-001 -1.924304e-016
   outer loop
     vertex  1.801938e+000 -8.677675e-001 -3.000000e+000
     vertex  1.911146e+000 -5.895103e-001 -3.000000e+000
     vertex  1.911146e+000 -5.895103e-001  0.000000e+000
   endloop
 endfacet
 facet normal -4.338837e-001 -9.009689e-001 -2.321318e-017
   outer loop
     vertex -1.000000e+000 -1.732051e+000 -3.000000e+000
     vertex -7.306820e-001 -1.861747e+000 -3.000000e+000
     vertex -1.000000e+000 -1.732051e+000  0.000000e+000
   endloop
 endfacet
 facet normal -5.633201e-001 -8.262388e-001  1.387136e-018
   outer loop
     vertex -1.246980e+000 -1.563663e+000  0.000000e+000
     vertex -1.000000e+000 -1.732051e+000 -3.000000e+000
     vertex -1.000000e+000 -1.732051e+000  0.000000e+000
   endloop
 endfacet
 facet normal  8.660254e-001 -5.000000e-001  1.315414e-016
   outer loop
     vertex  1.652478e+000 -1.126640e+000 -3.000000e+000
     vertex  1.801938e+000 -8.677675e-001  0.000000e+000
     vertex  1.652478e+000 -1.126640e+000  0.000000e+000
   endloop
 endfacet
 facet normal  8.660254e-001 -5.000000e-001 -1.004896e-016
   outer loop
     vertex  1.652478e+000 -1.126640e+000 -3.000000e+000
     vertex  1.801938e+000 -8.677675e-001 -3.000000e+000
     vertex  1.801938e+000 -8.677675e-001  0.000000e+000
   endloop
 endfacet
 facet normal -5.633201e-001 -8.262388e-001  2.321318e-017
   outer loop
     vertex -1.246980e+000 -1.563663e+000 -3.000000e+000
     vertex -1.000000e+000 -1.732051e+000 -3.000000e+000
     vertex -1.246980e+000 -1.563663e+000  0.000000e+000
   endloop
 endfacet
 facet normal -6.801727e-001 -7.330519e-001  8.894426e-017
   outer loop
     vertex -1.466104e+000 -1.360345e+000  0.000000e+000
     vertex -1.246980e+000 -1.563663e+000 -3.000000e+000
     vertex -1.246980e+000 -1.563663e+000  0.000000e+000
   endloop
 endfacet
 facet normal  7.818315e-001 -6.234898e-001  1.702300e-016
   outer loop
     vertex  1.466104e+000 -1.360345e+000 -3.000000e+000
     vertex  1.652478e+000 -1.126640e+000  0.000000e+000
     vertex  1.466104e+000 -1.360345e+000  0.000000e+000
   endloop
 endfacet
 facet normal  7.818315e-001 -6.234898e-001 -1.245298e-016
   outer loop
     vertex  1.466104e+000 -1.360345e+000 -3.000000e+000
     vertex  1.652478e+000 -1.126640e+000 -3.000000e+000
     vertex  1.652478e+000 -1.126640e+000  0.000000e+000
   endloop
 endfacet
 facet normal -6.801727e-001 -7.330519e-001 -1.547546e-017
   outer loop
     vertex -1.466104e+000 -1.360345e+000 -3.000000e+000
     vertex -1.246980e+000 -1.563663e+000 -3.000000e+000
     vertex -1.466104e+000 -1.360345e+000  0.000000e+000
   endloop
 endfacet
 facet normal -7.818315e-001 -6.234898e-001  4.687855e-017
   outer loop
     vertex -1.652478e+000 -1.126640e+000  0.000000e+000
     vertex -1.466104e+000 -1.360345e+000 -3.000000e+000
     vertex -1.466104e+000 -1.360345e+000  0.000000e+000
   endloop
 endfacet
 facet normal  6.801727e-001 -7.330519e-001  6.190183e-017
   outer loop
     vertex  1.246980e+000 -1.563663e+000 -3.000000e+000
     vertex  1.466104e+000 -1.360345e+000  0.000000e+000
     vertex  1.246980e+000 -1.563663e+000  0.000000e+000
   endloop
 endfacet
 facet normal -7.818315e-001 -6.234898e-001  0.000000e+000
   outer loop
     vertex -1.652478e+000 -1.126640e+000 -3.000000e+000
     vertex -1.466104e+000 -1.360345e+000 -3.000000e+000
     vertex -1.652478e+000 -1.126640e+000  0.000000e+000
   endloop
 endfacet
 facet normal  6.801727e-001 -7.330519e-001 -5.479379e-017
   outer loop
     vertex  1.246980e+000 -1.563663e+000 -3.000000e+000
     vertex  1.466104e+000 -1.360345e+000 -3.000000e+000
     vertex  1.466104e+000 -1.360345e+000  0.000000e+000
   endloop
 endfacet
 facet normal -8.660254e-001 -5.000000e-001  7.135785e-017
   outer loop
     vertex -1.801938e+000 -8.677675e-001  0.000000e+000
     vertex -1.652478e+000 -1.126640e+000 -3.000000e+000
     vertex -1.652478e+000 -1.126640e+000  0.000000e+000
   endloop
 endfacet
 facet normal -8.660254e-001 -5.000000e-001 -7.737728e-017
   outer loop
     vertex -1.801938e+000 -8.677675e-001 -3.000000e+000
     vertex -1.652478e+000 -1.126640e+000 -3.000000e+000
     vertex -1.801938e+000 -8.677675e-001  0.000000e+000
   endloop
 endfacet
 facet normal  5.633201e-001 -8.262388e-001  6.963955e-017
   outer loop
     vertex  1.000000e+000 -1.732051e+000 -3.000000e+000
     vertex  1.246980e+000 -1.563663e+000  0.000000e+000
     vertex  1.000000e+000 -1.732051e+000  0.000000e+000
   endloop
 endfacet
 facet normal  5.633201e-001 -8.262388e-001 -1.306707e-016
   outer loop
     vertex  1.000000e+000 -1.732051e+000 -3.000000e+000
     vertex  1.246980e+000 -1.563663e+000 -3.000000e+000
     vertex  1.246980e+000 -1.563663e+000  0.000000e+000
   endloop
 endfacet
 facet normal -9.308737e-001 -3.653410e-001 -1.092668e-017
   outer loop
     vertex -1.911146e+000 -5.895103e-001  0.000000e+000
     vertex -1.801938e+000 -8.677675e-001 -3.000000e+000
     vertex -1.801938e+000 -8.677675e-001  0.000000e+000
   endloop
 endfacet
 facet normal -9.308737e-001 -3.653410e-001 -1.160659e-017
   outer loop
     vertex -1.911146e+000 -5.895103e-001 -3.000000e+000
     vertex -1.801938e+000 -8.677675e-001 -3.000000e+000
     vertex -1.911146e+000 -5.895103e-001  0.000000e+000
   endloop
 endfacet
 facet normal  4.338837e-001 -9.009689e-001  3.868864e-017
   outer loop
     vertex  7.306820e-001 -1.861747e+000 -3.000000e+000
     vertex  1.000000e+000 -1.732051e+000  0.000000e+000
     vertex  7.306820e-001 -1.861747e+000  0.000000e+000
   endloop
 endfacet
 facet normal -9.749279e-001 -2.225209e-001  5.373411e-017
   outer loop
     vertex -1.977662e+000 -2.980845e-001  0.000000e+000
     vertex -1.911146e+000 -5.895103e-001 -3.000000e+000
     vertex -1.911146e+000 -5.895103e-001  0.000000e+000
   endloop
 endfacet
 facet normal  4.338837e-001 -9.009689e-001 -8.142947e-017
   outer loop
     vertex  7.306820e-001 -1.861747e+000 -3.000000e+000
     vertex  1.000000e+000 -1.732051e+000 -3.000000e+000
     vertex  1.000000e+000 -1.732051e+000  0.000000e+000
   endloop
 endfacet
 facet normal -9.749279e-001 -2.225209e-001 -2.321318e-017
   outer loop
     vertex -1.977662e+000 -2.980845e-001 -3.000000e+000
     vertex -1.911146e+000 -5.895103e-001 -3.000000e+000
     vertex -1.977662e+000 -2.980845e-001  0.000000e+000
   endloop
 endfacet
 facet normal -9.972038e-001 -7.473009e-002  4.200386e-017
   outer loop
     vertex -2.000000e+000 -2.449213e-016  0.000000e+000
     vertex -1.977662e+000 -2.980845e-001 -3.000000e+000
     vertex -1.977662e+000 -2.980845e-001  0.000000e+000
   endloop
 endfacet
 facet normal  2.947552e-001 -9.555728e-001  7.737728e-017
   outer loop
     vertex  4.450419e-001 -1.949856e+000 -3.000000e+000
     vertex  7.306820e-001 -1.861747e+000  0.000000e+000
     vertex  4.450419e-001 -1.949856e+000  0.000000e+000
   endloop
 endfacet
 facet normal  2.947552e-001 -9.555728e-001 -1.027459e-016
   outer loop
     vertex  4.450419e-001 -1.949856e+000 -3.000000e+000
     vertex  7.306820e-001 -1.861747e+000 -3.000000e+000
     vertex  7.306820e-001 -1.861747e+000  0.000000e+000
   endloop
 endfacet
 facet normal -9.972038e-001 -7.473009e-002  0.000000e+000
   outer loop
     vertex -2.000000e+000 -2.449213e-016 -3.000000e+000
     vertex -1.977662e+000 -2.980845e-001 -3.000000e+000
     vertex -2.000000e+000 -2.449213e-016  0.000000e+000
   endloop
 endfacet
 facet normal -0.000000e+000  1.000000e+000  7.401487e-017
   outer loop
     vertex  1.494602e-001  1.994408e+000 -3.000000e+000
     vertex -1.494602e-001  1.994408e+000  0.000000e+000
     vertex  1.494602e-001  1.994408e+000  0.000000e+000
   endloop
 endfacet
 facet normal -7.428219e-016  1.000000e+000  3.367517e-031
   outer loop
     vertex  1.494602e-001  1.994408e+000 -3.000000e+000
     vertex -1.494602e-001  1.994408e+000 -3.000000e+000
     vertex -1.494602e-001  1.994408e+000  0.000000e+000
   endloop
 endfacet
 facet normal -9.972038e-001  7.473009e-002  0.000000e+000
   outer loop
     vertex -1.977662e+000  2.980845e-001  0.000000e+000
     vertex -2.000000e+000 -2.449213e-016 -3.000000e+000
     vertex -2.000000e+000 -2.449213e-016  0.000000e+000
   endloop
 endfacet
 facet normal  1.490423e-001  9.888308e-001  3.675421e-017
   outer loop
     vertex  4.450419e-001  1.949856e+000 -3.000000e+000
     vertex  1.494602e-001  1.994408e+000  0.000000e+000
     vertex  4.450419e-001  1.949856e+000  0.000000e+000
   endloop
 endfacet
 facet normal -9.972038e-001  7.473009e-002 -4.255751e-017
   outer loop
     vertex -1.977662e+000  2.980845e-001 -3.000000e+000
     vertex -2.000000e+000 -2.449213e-016 -3.000000e+000
     vertex -1.977662e+000  2.980845e-001  0.000000e+000
   endloop
 endfacet
 facet normal  1.490423e-001  9.888308e-001 -1.782040e-017
   outer loop
     vertex  4.450419e-001  1.949856e+000 -3.000000e+000
     vertex  1.494602e-001  1.994408e+000 -3.000000e+000
     vertex  1.494602e-001  1.994408e+000  0.000000e+000
   endloop
 endfacet
 facet normal -9.749279e-001  2.225209e-001  2.254252e-017
   outer loop
     vertex -1.911146e+000  5.895103e-001  0.000000e+000
     vertex -1.977662e+000  2.980845e-001 -3.000000e+000
     vertex -1.977662e+000  2.980845e-001  0.000000e+000
   endloop
 endfacet
 facet normal  2.947552e-001  9.555728e-001  1.044593e-016
   outer loop
     vertex  7.306820e-001  1.861747e+000 -3.000000e+000
     vertex  4.450419e-001  1.949856e+000  0.000000e+000
     vertex  7.306820e-001  1.861747e+000  0.000000e+000
   endloop
 endfacet
 facet normal  2.947552e-001  9.555728e-001 -7.670946e-017
   outer loop
     vertex  7.306820e-001  1.861747e+000 -3.000000e+000
     vertex  4.450419e-001  1.949856e+000 -3.000000e+000
     vertex  4.450419e-001  1.949856e+000  0.000000e+000
   endloop
 endfacet
 facet normal -9.749279e-001  2.225209e-001 -5.416410e-017
   outer loop
     vertex -1.911146e+000  5.895103e-001 -3.000000e+000
     vertex -1.977662e+000  2.980845e-001 -3.000000e+000
     vertex -1.911146e+000  5.895103e-001  0.000000e+000
   endloop
 endfacet
 facet normal -9.308737e-001  3.653410e-001  1.092668e-017
   outer loop
     vertex -1.801938e+000  8.677675e-001  0.000000e+000
     vertex -1.911146e+000  5.895103e-001 -3.000000e+000
     vertex -1.911146e+000  5.895103e-001  0.000000e+000
   endloop
 endfacet
 facet normal  4.338837e-001  9.009689e-001 -3.588379e-017
   outer loop
     vertex  1.000000e+000  1.732051e+000 -3.000000e+000
     vertex  7.306820e-001  1.861747e+000 -3.000000e+000
     vertex  7.306820e-001  1.861747e+000  0.000000e+000
   endloop
 endfacet
 facet normal -9.308737e-001  3.653410e-001  1.160659e-017
   outer loop
     vertex -1.801938e+000  8.677675e-001 -3.000000e+000
     vertex -1.911146e+000  5.895103e-001 -3.000000e+000
     vertex -1.801938e+000  8.677675e-001  0.000000e+000
   endloop
 endfacet
 facet normal  4.338837e-001  9.009689e-001  7.737728e-017
   outer loop
     vertex  1.000000e+000  1.732051e+000 -3.000000e+000
     vertex  7.306820e-001  1.861747e+000  0.000000e+000
     vertex  1.000000e+000  1.732051e+000  0.000000e+000
   endloop
 endfacet
 facet normal -8.660254e-001  5.000000e-001  7.534338e-017
   outer loop
     vertex -1.652478e+000  1.126640e+000  0.000000e+000
     vertex -1.801938e+000  8.677675e-001 -3.000000e+000
     vertex -1.801938e+000  8.677675e-001  0.000000e+000
   endloop
 endfacet
 facet normal  5.633201e-001  8.262388e-001 -7.225104e-017
   outer loop
     vertex  1.246980e+000  1.563663e+000 -3.000000e+000
     vertex  1.000000e+000  1.732051e+000 -3.000000e+000
     vertex  1.000000e+000  1.732051e+000  0.000000e+000
   endloop
 endfacet
 facet normal -8.660254e-001  5.000000e-001 -6.963955e-017
   outer loop
     vertex -1.652478e+000  1.126640e+000 -3.000000e+000
     vertex -1.801938e+000  8.677675e-001 -3.000000e+000
     vertex -1.652478e+000  1.126640e+000  0.000000e+000
   endloop
 endfacet
 facet normal  5.633201e-001  8.262388e-001  1.315414e-016
   outer loop
     vertex  1.246980e+000  1.563663e+000 -3.000000e+000
     vertex  1.000000e+000  1.732051e+000  0.000000e+000
     vertex  1.246980e+000  1.563663e+000  0.000000e+000
   endloop
 endfacet
 facet normal -7.818315e-001  6.234898e-001 -7.310390e-019
   outer loop
     vertex -1.466104e+000  1.360345e+000  0.000000e+000
     vertex -1.652478e+000  1.126640e+000 -3.000000e+000
     vertex -1.652478e+000  1.126640e+000  0.000000e+000
   endloop
 endfacet
 facet normal  6.801727e-001  7.330519e-001 -5.763353e-017
   outer loop
     vertex  1.466104e+000  1.360345e+000 -3.000000e+000
     vertex  1.246980e+000  1.563663e+000 -3.000000e+000
     vertex  1.246980e+000  1.563663e+000  0.000000e+000
   endloop
 endfacet
 facet normal -7.818315e-001  6.234898e-001 -4.642637e-017
   outer loop
     vertex -1.466104e+000  1.360345e+000 -3.000000e+000
     vertex -1.652478e+000  1.126640e+000 -3.000000e+000
     vertex -1.466104e+000  1.360345e+000  0.000000e+000
   endloop
 endfacet
 facet normal  6.801727e-001  7.330519e-001  5.416410e-017
   outer loop
     vertex  1.466104e+000  1.360345e+000 -3.000000e+000
     vertex  1.246980e+000  1.563663e+000  0.000000e+000
     vertex  1.466104e+000  1.360345e+000  0.000000e+000
   endloop
 endfacet
 facet normal -6.801727e-001  7.330519e-001  1.565537e-017
   outer loop
     vertex -1.246980e+000  1.563663e+000  0.000000e+000
     vertex -1.466104e+000  1.360345e+000 -3.000000e+000
     vertex -1.466104e+000  1.360345e+000  0.000000e+000
   endloop
 endfacet
 facet normal  7.818315e-001  6.234898e-001 -1.640749e-016
   outer loop
     vertex  1.652478e+000  1.126640e+000 -3.000000e+000
     vertex  1.466104e+000  1.360345e+000 -3.000000e+000
     vertex  1.466104e+000  1.360345e+000  0.000000e+000
   endloop
 endfacet
 facet normal -6.801727e-001  7.330519e-001 -9.285274e-017
   outer loop
     vertex -1.246980e+000  1.563663e+000 -3.000000e+000
     vertex -1.466104e+000  1.360345e+000 -3.000000e+000
     vertex -1.246980e+000  1.563663e+000  0.000000e+000
   endloop
 endfacet
 facet normal  7.818315e-001  6.234898e-001  1.238037e-016
   outer loop
     vertex  1.652478e+000  1.126640e+000 -3.000000e+000
     vertex  1.466104e+000  1.360345e+000  0.000000e+000
     vertex  1.652478e+000  1.126640e+000  0.000000e+000
   endloop
 endfacet
 facet normal -5.633201e-001  8.262388e-001 -2.500844e-017
   outer loop
     vertex -1.000000e+000  1.732051e+000  0.000000e+000
     vertex -1.246980e+000  1.563663e+000 -3.000000e+000
     vertex -1.246980e+000  1.563663e+000  0.000000e+000
   endloop
 endfacet
 facet normal  8.660254e-001  5.000000e-001 -1.301426e-016
   outer loop
     vertex  1.801938e+000  8.677675e-001 -3.000000e+000
     vertex  1.652478e+000  1.126640e+000 -3.000000e+000
     vertex  1.652478e+000  1.126640e+000  0.000000e+000
   endloop
 endfacet
 facet normal -5.633201e-001  8.262388e-001  0.000000e+000
   outer loop
     vertex -1.000000e+000  1.732051e+000 -3.000000e+000
     vertex -1.246980e+000  1.563663e+000 -3.000000e+000
     vertex -1.000000e+000  1.732051e+000  0.000000e+000
   endloop
 endfacet
 facet normal  8.660254e-001  5.000000e-001  1.005905e-016
   outer loop
     vertex  1.801938e+000  8.677675e-001 -3.000000e+000
     vertex  1.652478e+000  1.126640e+000  0.000000e+000
     vertex  1.801938e+000  8.677675e-001  0.000000e+000
   endloop
 endfacet
 facet normal -4.338837e-001  9.009689e-001 -7.737728e-018
   outer loop
     vertex -7.306820e-001  1.861747e+000 -3.000000e+000
     vertex -1.000000e+000  1.732051e+000  0.000000e+000
     vertex -7.306820e-001  1.861747e+000  0.000000e+000
   endloop
 endfacet
 facet normal  9.308737e-001  3.653410e-001 -1.913263e-016
   outer loop
     vertex  1.911146e+000  5.895103e-001 -3.000000e+000
     vertex  1.801938e+000  8.677675e-001 -3.000000e+000
     vertex  1.801938e+000  8.677675e-001  0.000000e+000
   endloop
 endfacet
 facet normal  9.308737e-001  3.653410e-001  1.934432e-016
   outer loop
     vertex  1.911146e+000  5.895103e-001 -3.000000e+000
     vertex  1.801938e+000  8.677675e-001  0.000000e+000
     vertex  1.911146e+000  5.895103e-001  0.000000e+000
   endloop
 endfacet
 facet normal -4.338837e-001  9.009689e-001  1.851432e-017
   outer loop
     vertex -7.306820e-001  1.861747e+000 -3.000000e+000
     vertex -1.000000e+000  1.732051e+000 -3.000000e+000
     vertex -1.000000e+000  1.732051e+000  0.000000e+000
   endloop
 endfacet
 facet normal -2.947552e-001  9.555728e-001  9.285274e-017
   outer loop
     vertex -4.450419e-001  1.949856e+000 -3.000000e+000
     vertex -7.306820e-001  1.861747e+000  0.000000e+000
     vertex -4.450419e-001  1.949856e+000  0.000000e+000
   endloop
 endfacet
 facet normal  9.749279e-001  2.225209e-001  2.243941e-016
   outer loop
     vertex  1.977662e+000  2.980845e-001 -3.000000e+000
     vertex  1.911146e+000  5.895103e-001  0.000000e+000
     vertex  1.977662e+000  2.980845e-001  0.000000e+000
   endloop
 endfacet
 facet normal  9.749279e-001  2.225209e-001 -1.243522e-016
   outer loop
     vertex  1.977662e+000  2.980845e-001 -3.000000e+000
     vertex  1.911146e+000  5.895103e-001 -3.000000e+000
     vertex  1.911146e+000  5.895103e-001  0.000000e+000
   endloop
 endfacet
 facet normal -2.947552e-001  9.555728e-001 -2.709406e-017
   outer loop
     vertex -4.450419e-001  1.949856e+000 -3.000000e+000
     vertex -7.306820e-001  1.861747e+000 -3.000000e+000
     vertex -7.306820e-001  1.861747e+000  0.000000e+000
   endloop
 endfacet
 facet normal  9.972038e-001  7.473009e-002  0.000000e+000
   outer loop
     vertex  2.000000e+000  0.000000e+000 -3.000000e+000
     vertex  1.977662e+000  2.980845e-001  0.000000e+000
     vertex  2.000000e+000  0.000000e+000  0.000000e+000
   endloop
 endfacet
 facet normal -1.490423e-001  9.888308e-001  6.770512e-017
   outer loop
     vertex -1.494602e-001  1.994408e+000 -3.000000e+000
     vertex -4.450419e-001  1.949856e+000  0.000000e+000
     vertex -1.494602e-001  1.994408e+000  0.000000e+000
   endloop
 endfacet
 facet normal  9.972038e-001  7.473009e-002 -1.223836e-016
   outer loop
     vertex  2.000000e+000  0.000000e+000 -3.000000e+000
     vertex  1.977662e+000  2.980845e-001 -3.000000e+000
     vertex  1.977662e+000  2.980845e-001  0.000000e+000
   endloop
 endfacet
 facet normal -1.490423e-001  9.888308e-001  4.688321e-017
   outer loop
     vertex -1.494602e-001  1.994408e+000 -3.000000e+000
     vertex -4.450419e-001  1.949856e+000 -3.000000e+000
     vertex -4.450419e-001  1.949856e+000  0.000000e+000
   endloop
 endfacet
 facet normal  0.000000e+000 -0.000000e+000  1.000000e+000
   outer loop
     vertex  0.000000e+000  0.000000e+000  8.000000e+000
     vertex  1.000000e+000  0.000000e+000  8.000000e+000
     vertex  9.749279e-001  2.225209e-001  8.000000e+000
   endloop
 endfacet
 facet normal  0.000000e+000 -0.000000e+000  1.000000e+000
   outer loop
     vertex  0.000000e+000  0.000000e+000  8.000000e+000
     vertex  9.749279e-001  2.225209e-001  8.000000e+000
     vertex  9.009689e-001  4.338837e-001  8.000000e+000
   endloop
 endfacet
 facet normal  0.000000e+000 -0.000000e+000  1.000000e+000
   outer loop
     vertex  0.000000e+000  0.000000e+000  8.000000e+000
     vertex  9.009689e-001  4.338837e-001  8.000000e+000
     vertex  7.818315e-001  6.234898e-001  8.000000e+000
   endloop
 endfacet
 facet normal  0.000000e+000 -0.000000e+000  1.000000e+000
   outer loop
     vertex  0.000000e+000  0.000000e+000  8.000000e+000
     vertex  7.818315e-001  6.234898e-001  8.000000e+000
     vertex  6.234898e-001  7.818315e-001  8.000000e+000
   endloop
 endfacet
 facet normal  0.000000e+000 -0.000000e+000  1.000000e+000
   outer loop
     vertex  0.000000e+000  0.000000e+000  8.000000e+000
     vertex  6.234898e-001  7.818315e-001  8.000000e+000
     vertex  4.338837e-001  9.009689e-001  8.000000e+000
   endloop
 endfacet
 facet normal  0.000000e+000 -0.000000e+000  1.000000e+000
   outer loop
     vertex  0.000000e+000  0.000000e+000  8.000000e+000
     vertex  4.338837e-001  9.009689e-001  8.000000e+000
     vertex  2.225209e-001  9.749279e-001  8.000000e+000
   endloop
 endfacet
 facet normal  0.000000e+000 -0.000000e+000  1.000000e+000
   outer loop
     vertex  0.000000e+000  0.000000e+000  8.000000e+000
     vertex  2.225209e-001  9.749279e-001  8.000000e+000
     vertex  6.123234e-017  1.000000e+000  8.000000e+000
   endloop
 endfacet
 facet normal  0.000000e+000 -0.000000e+000  1.000000e+000
   outer loop
     vertex  0.000000e+000  0.000000e+000  8.000000e+000
     vertex  6.123234e-017  1.000000e+000  8.000000e+000
     vertex -2.225209e-001  9.749279e-001  8.000000e+000
   endloop
 endfacet
 facet normal  0.000000e+000  0.000000e+000  1.000000e+000
   outer loop
     vertex  0.000000e+000  0.000000e+000  8.000000e+000
     vertex -2.225209e-001  9.749279e-001  8.000000e+000
     vertex -4.338837e-001  9.009689e-001  8.000000e+000
   endloop
 endfacet
 facet normal  0.000000e+000  0.000000e+000  1.000000e+000
   outer loop
     vertex  0.000000e+000  0.000000e+000  8.000000e+000
     vertex -4.338837e-001  9.009689e-001  8.000000e+000
     vertex -6.234898e-001  7.818315e-001  8.000000e+000
   endloop
 endfacet
 facet normal  0.000000e+000  0.000000e+000  1.000000e+000
   outer loop
     vertex  0.000000e+000  0.000000e+000  8.000000e+000
     vertex -6.234898e-001  7.818315e-001  8.000000e+000
     vertex -7.818315e-001  6.234898e-001  8.000000e+000
   endloop
 endfacet
 facet normal  0.000000e+000  0.000000e+000  1.000000e+000
   outer loop
     vertex  0.000000e+000  0.000000e+000  8.000000e+000
     vertex -7.818315e-001  6.234898e-001  8.000000e+000
     vertex -9.009689e-001  4.338837e-001  8.000000e+000
   endloop
 endfacet
 facet normal  0.000000e+000  0.000000e+000  1.000000e+000
   outer loop
     vertex  0.000000e+000  0.000000e+000  8.000000e+000
     vertex -9.009689e-001  4.338837e-001  8.000000e+000
     vertex -9.749279e-001  2.225209e-001  8.000000e+000
   endloop
 endfacet
 facet normal  0.000000e+000  0.000000e+000  1.000000e+000
   outer loop
     vertex  0.000000e+000  0.000000e+000  8.000000e+000
     vertex -9.749279e-001  2.225209e-001  8.000000e+000
     vertex -1.000000e+000  1.224606e-016  8.000000e+000
   endloop
 endfacet
 facet normal  0.000000e+000  0.000000e+000  1.000000e+000
   outer loop
     vertex  0.000000e+000  0.000000e+000  8.000000e+000
     vertex -1.000000e+000  1.224606e-016  8.000000e+000
     vertex -9.749279e-001 -2.225209e-001  8.000000e+000
   endloop
 endfacet
 facet normal  0.000000e+000  0.000000e+000  1.000000e+000
   outer loop
     vertex  0.000000e+000  0.000000e+000  8.000000e+000
     vertex -9.749279e-001 -2.225209e-001  8.000000e+000
     vertex -9.009689e-001 -4.338837e-001  8.000000e+000
   endloop
 endfacet
 facet normal  0.000000e+000  0.000000e+000  1.000000e+000
   outer loop
     vertex  0.000000e+000  0.000000e+000  8.000000e+000
     vertex -9.009689e-001 -4.338837e-001  8.000000e+000
     vertex -7.818315e-001 -6.234898e-001  8.000000e+000
   endloop
 endfacet
 facet normal  0.000000e+000  0.000000e+000  1.000000e+000
   outer loop
     vertex  0.000000e+000  0.000000e+000  8.000000e+000
     vertex -7.818315e-001 -6.234898e-001  8.000000e+000
     vertex -6.234898e-001 -7.818315e-001  8.000000e+000
   endloop
 endfacet
 facet normal  0.000000e+000  0.000000e+000  1.000000e+000
   outer loop
     vertex  0.000000e+000  0.000000e+000  8.000000e+000
     vertex -6.234898e-001 -7.818315e-001  8.000000e+000
     vertex -4.338837e-001 -9.009689e-001  8.000000e+000
   endloop
 endfacet
 facet normal  0.000000e+000  0.000000e+000  1.000000e+000
   outer loop
     vertex  0.000000e+000  0.000000e+000  8.000000e+000
     vertex -4.338837e-001 -9.009689e-001  8.000000e+000
     vertex -2.225209e-001 -9.749279e-001  8.000000e+000
   endloop
 endfacet
 facet normal  0.000000e+000  0.000000e+000  1.000000e+000
   outer loop
     vertex  0.000000e+000  0.000000e+000  8.000000e+000
     vertex -2.225209e-001 -9.749279e-001  8.000000e+000
     vertex -1.836970e-016 -1.000000e+000  8.000000e+000
   endloop
 endfacet
 facet normal -0.000000e+000  0.000000e+000  1.000000e+000
   outer loop
     vertex  0.000000e+000  0.000000e+000  8.000000e+000
     vertex -1.836970e-016 -1.000000e+000  8.000000e+000
     vertex  2.225209e-001 -9.749279e-001  8.000000e+000
   endloop
 endfacet
 facet normal -0.000000e+000  0.000000e+000  1.000000e+000
   outer loop
     vertex  0.000000e+000  0.000000e+000  8.000000e+000
     vertex  2.225209e-001 -9.749279e-001  8.000000e+000
     vertex  4.338837e-001 -9.009689e-001  8.000000e+000
   endloop
 endfacet
 facet normal -0.000000e+000  0.000000e+000  1.000000e+000
   outer loop
     vertex  0.000000e+000  0.000000e+000  8.000000e+000
     vertex  4.338837e-001 -9.009689e-001  8.000000e+000
     vertex  6.234898e-001 -7.818315e-001  8.000000e+000
   endloop
 endfacet
 facet normal -0.000000e+000  0.000000e+000  1.000000e+000
   outer loop
     vertex  0.000000e+000  0.000000e+000  8.000000e+000
     vertex  6.234898e-001 -7.818315e-001  8.000000e+000
     vertex  7.818315e-001 -6.234898e-001  8.000000e+000
   endloop
 endfacet
 facet normal -0.000000e+000  0.000000e+000  1.000000e+000
   outer loop
     vertex  0.000000e+000  0.000000e+000  8.000000e+000
     vertex  7.818315e-001 -6.234898e-001  8.000000e+000
     vertex  9.009689e-001 -4.338837e-001  8.000000e+000
   endloop
 endfacet
 facet normal -0.000000e+000  0.000000e+000  1.000000e+000
   outer loop
     vertex  0.000000e+000  0.000000e+000  8.000000e+000
     vertex  9.009689e-001 -4.338837e-001  8.000000e+000
     vertex  9.749279e-001 -2.225209e-001  8.000000e+000
   endloop
 endfacet
 facet normal -0.000000e+000  0.000000e+000  1.000000e+000
   outer loop
     vertex  0.000000e+000  0.000000e+000  8.000000e+000
     vertex  9.749279e-001 -2.225209e-001  8.000000e+000
     vertex  1.000000e+000  0.000000e+000  8.000000e+000
   endloop
 endfacet
 facet normal  0.000000e+000  0.000000e+000  1.000000e+000
   outer loop
     vertex -6.234898e-001 -7.818315e-001  0.000000e+000
     vertex -1.466104e+000 -1.360345e+000  0.000000e+000
     vertex -1.246980e+000 -1.563663e+000  0.000000e+000
   endloop
 endfacet
 facet normal  0.000000e+000  0.000000e+000  1.000000e+000
   outer loop
     vertex -6.234898e-001 -7.818315e-001  0.000000e+000
     vertex -1.246980e+000 -1.563663e+000  0.000000e+000
     vertex -1.000000e+000 -1.732051e+000  0.000000e+000
   endloop
 endfacet
 facet normal  0.000000e+000  0.000000e+000  1.000000e+000
   outer loop
     vertex -7.818315e-001 -6.234898e-001  0.000000e+000
     vertex -1.652478e+000 -1.126640e+000  0.000000e+000
     vertex -1.466104e+000 -1.360345e+000  0.000000e+000
   endloop
 endfacet
 facet normal -0.000000e+000  0.000000e+000  1.000000e+000
   outer loop
     vertex -7.818315e-001 -6.234898e-001  0.000000e+000
     vertex -1.466104e+000 -1.360345e+000  0.000000e+000
     vertex -6.234898e-001 -7.818315e-001  0.000000e+000
   endloop
 endfacet
 facet normal  0.000000e+000  0.000000e+000  1.000000e+000
   outer loop
     vertex -4.338837e-001 -9.009689e-001  0.000000e+000
     vertex -1.000000e+000 -1.732051e+000  0.000000e+000
     vertex -7.306820e-001 -1.861747e+000  0.000000e+000
   endloop
 endfacet
 facet normal  0.000000e+000  0.000000e+000  1.000000e+000
   outer loop
     vertex -4.338837e-001 -9.009689e-001  0.000000e+000
     vertex -6.234898e-001 -7.818315e-001  0.000000e+000
     vertex -1.000000e+000 -1.732051e+000  0.000000e+000
   endloop
 endfacet
 facet normal  0.000000e+000  0.000000e+000  1.000000e+000
   outer loop
     vertex -9.009689e-001 -4.338837e-001  0.000000e+000
     vertex -1.911146e+000 -5.895103e-001  0.000000e+000
     vertex -1.801938e+000 -8.677675e-001  0.000000e+000
   endloop
 endfacet
 facet normal  0.000000e+000  0.000000e+000  1.000000e+000
   outer loop
     vertex -9.009689e-001 -4.338837e-001  0.000000e+000
     vertex -1.801938e+000 -8.677675e-001  0.000000e+000
     vertex -1.652478e+000 -1.126640e+000  0.000000e+000
   endloop
 endfacet
 facet normal -0.000000e+000  0.000000e+000  1.000000e+000
   outer loop
     vertex -9.009689e-001 -4.338837e-001  0.000000e+000
     vertex -1.652478e+000 -1.126640e+000  0.000000e+000
     vertex -7.818315e-001 -6.234898e-001  0.000000e+000
   endloop
 endfacet
 facet normal  0.000000e+000  0.000000e+000  1.000000e+000
   outer loop
     vertex -9.749279e-001 -2.225209e-001  0.000000e+000
     vertex -1.977662e+000 -2.980845e-001  0.000000e+000
     vertex -1.911146e+000 -5.895103e-001  0.000000e+000
   endloop
 endfacet
 facet normal -0.000000e+000  0.000000e+000  1.000000e+000
   outer loop
     vertex -9.749279e-001 -2.225209e-001  0.000000e+000
     vertex -1.911146e+000 -5.895103e-001  0.000000e+000
     vertex -9.009689e-001 -4.338837e-001  0.000000e+000
   endloop
 endfacet
 facet normal  0.000000e+000  0.000000e+000  1.000000e+000
   outer loop
     vertex -2.225209e-001 -9.749279e-001  0.000000e+000
     vertex -4.338837e-001 -9.009689e-001  0.000000e+000
     vertex -7.306820e-001 -1.861747e+000  0.000000e+000
   endloop
 endfacet
 facet normal  0.000000e+000  0.000000e+000  1.000000e+000
   outer loop
     vertex -2.225209e-001 -9.749279e-001  0.000000e+000
     vertex -7.306820e-001 -1.861747e+000  0.000000e+000
     vertex -4.450419e-001 -1.949856e+000  0.000000e+000
   endloop
 endfacet
 facet normal  0.000000e+000  0.000000e+000  1.000000e+000
   outer loop
     vertex -2.225209e-001 -9.749279e-001  0.000000e+000
     vertex -4.450419e-001 -1.949856e+000  0.000000e+000
     vertex -1.494602e-001 -1.994408e+000  0.000000e+000
   endloop
 endfacet
 facet normal  0.000000e+000  0.000000e+000  1.000000e+000
   outer loop
     vertex  6.123234e-017 -1.000000e+000  0.000000e+000
     vertex -2.225209e-001 -9.749279e-001  0.000000e+000
     vertex -1.494602e-001 -1.994408e+000  0.000000e+000
   endloop
 endfacet
 facet normal  0.000000e+000  0.000000e+000  1.000000e+000
   outer loop
     vertex  6.123234e-017 -1.000000e+000  0.000000e+000
     vertex -1.494602e-001 -1.994408e+000  0.000000e+000
     vertex  1.494602e-001 -1.994408e+000  0.000000e+000
   endloop
 endfacet
 facet normal -0.000000e+000  0.000000e+000  1.000000e+000
   outer loop
     vertex -1.000000e+000  1.224606e-016  0.000000e+000
     vertex -1.977662e+000 -2.980845e-001  0.000000e+000
     vertex -9.749279e-001 -2.225209e-001  0.000000e+000
   endloop
 endfacet
 facet normal  0.000000e+000  0.000000e+000  1.000000e+000
   outer loop
     vertex -1.000000e+000  1.224606e-016  0.000000e+000
     vertex -1.977662e+000  2.980845e-001  0.000000e+000
     vertex -2.000000e+000 -2.449213e-016  0.000000e+000
   endloop
 endfacet
 facet normal  0.000000e+000  0.000000e+000  1.000000e+000
   outer loop
     vertex -1.000000e+000  1.224606e-016  0.000000e+000
     vertex -2.000000e+000 -2.449213e-016  0.000000e+000
     vertex -1.977662e+000 -2.980845e-001  0.000000e+000
   endloop
 endfacet
 facet normal  0.000000e+000  0.000000e+000  1.000000e+000
   outer loop
     vertex -9.749279e-001  2.225209e-001  0.000000e+000
     vertex -1.911146e+000  5.895103e-001  0.000000e+000
     vertex -1.977662e+000  2.980845e-001  0.000000e+000
   endloop
 endfacet
 facet normal  0.000000e+000  0.000000e+000  1.000000e+000
   outer loop
     vertex -9.749279e-001  2.225209e-001  0.000000e+000
     vertex -1.977662e+000  2.980845e-001  0.000000e+000
     vertex -1.000000e+000  1.224606e-016  0.000000e+000
   endloop
 endfacet
 facet normal  0.000000e+000  0.000000e+000  1.000000e+000
   outer loop
     vertex  2.225209e-001 -9.749279e-001  0.000000e+000
     vertex  6.123234e-017 -1.000000e+000  0.000000e+000
     vertex  1.494602e-001 -1.994408e+000  0.000000e+000
   endloop
 endfacet
 facet normal -0.000000e+000  0.000000e+000  1.000000e+000
   outer loop
     vertex  2.225209e-001 -9.749279e-001  0.000000e+000
     vertex  1.494602e-001 -1.994408e+000  0.000000e+000
     vertex  4.450419e-001 -1.949856e+000  0.000000e+000
   endloop
 endfacet
 facet normal -0.000000e+000  0.000000e+000  1.000000e+000
   outer loop
     vertex  2.225209e-001 -9.749279e-001  0.000000e+000
     vertex  4.450419e-001 -1.949856e+000  0.000000e+000
     vertex  7.306820e-001 -1.861747e+000  0.000000e+000
   endloop
 endfacet
 facet normal  0.000000e+000  0.000000e+000  1.000000e+000
   outer loop
     vertex  4.338837e-001 -9.009689e-001  0.000000e+000
     vertex  2.225209e-001 -9.749279e-001  0.000000e+000
     vertex  7.306820e-001 -1.861747e+000  0.000000e+000
   endloop
 endfacet
 facet normal -0.000000e+000  0.000000e+000  1.000000e+000
   outer loop
     vertex  4.338837e-001 -9.009689e-001  0.000000e+000
     vertex  7.306820e-001 -1.861747e+000  0.000000e+000
     vertex  1.000000e+000 -1.732051e+000  0.000000e+000
   endloop
 endfacet
 facet normal  0.000000e+000  0.000000e+000  1.000000e+000
   outer loop
     vertex -9.009689e-001  4.338837e-001  0.000000e+000
     vertex -1.652478e+000  1.126640e+000  0.000000e+000
     vertex -1.801938e+000  8.677675e-001  0.000000e+000
   endloop
 endfacet
 facet normal  0.000000e+000  0.000000e+000  1.000000e+000
   outer loop
     vertex -9.009689e-001  4.338837e-001  0.000000e+000
     vertex -1.801938e+000  8.677675e-001  0.000000e+000
     vertex -1.911146e+000  5.895103e-001  0.000000e+000
   endloop
 endfacet
 facet normal  0.000000e+000  0.000000e+000  1.000000e+000
   outer loop
     vertex -9.009689e-001  4.338837e-001  0.000000e+000
     vertex -1.911146e+000  5.895103e-001  0.000000e+000
     vertex -9.749279e-001  2.225209e-001  0.000000e+000
   endloop
 endfacet
 facet normal  0.000000e+000  0.000000e+000  1.000000e+000
   outer loop
     vertex -7.818315e-001  6.234898e-001  0.000000e+000
     vertex -1.652478e+000  1.126640e+000  0.000000e+000
     vertex -9.009689e-001  4.338837e-001  0.000000e+000
   endloop
 endfacet
 facet normal  0.000000e+000  0.000000e+000  1.000000e+000
   outer loop
     vertex  6.234898e-001 -7.818315e-001  0.000000e+000
     vertex  4.338837e-001 -9.009689e-001  0.000000e+000
     vertex  1.000000e+000 -1.732051e+000  0.000000e+000
   endloop
 endfacet
 facet normal -0.000000e+000  0.000000e+000  1.000000e+000
   outer loop
     vertex  6.234898e-001 -7.818315e-001  0.000000e+000
     vertex  1.000000e+000 -1.732051e+000  0.000000e+000
     vertex  1.246980e+000 -1.563663e+000  0.000000e+000
   endloop
 endfacet
 facet normal  0.000000e+000  0.000000e+000  1.000000e+000
   outer loop
     vertex -1.466104e+000  1.360345e+000  0.000000e+000
     vertex -1.652478e+000  1.126640e+000  0.000000e+000
     vertex -7.818315e-001  6.234898e-001  0.000000e+000
   endloop
 endfacet
 facet normal  0.000000e+000  0.000000e+000  1.000000e+000
   outer loop
     vertex  1.466104e+000 -1.360345e+000  0.000000e+000
     vertex  6.234898e-001 -7.818315e-001  0.000000e+000
     vertex  1.246980e+000 -1.563663e+000  0.000000e+000
   endloop
 endfacet
 facet normal  0.000000e+000  0.000000e+000  1.000000e+000
   outer loop
     vertex -6.234898e-001  7.818315e-001  0.000000e+000
     vertex -1.466104e+000  1.360345e+000  0.000000e+000
     vertex -7.818315e-001  6.234898e-001  0.000000e+000
   endloop
 endfacet
 facet normal  0.000000e+000  0.000000e+000  1.000000e+000
   outer loop
     vertex  7.818315e-001 -6.234898e-001  0.000000e+000
     vertex  6.234898e-001 -7.818315e-001  0.000000e+000
     vertex  1.466104e+000 -1.360345e+000  0.000000e+000
   endloop
 endfacet
 facet normal  0.000000e+000  0.000000e+000  1.000000e+000
   outer loop
     vertex -1.246980e+000  1.563663e+000  0.000000e+000
     vertex -1.466104e+000  1.360345e+000  0.000000e+000
     vertex -6.234898e-001  7.818315e-001  0.000000e+000
   endloop
 endfacet
 facet normal  0.000000e+000  0.000000e+000  1.000000e+000
   outer loop
     vertex  1.652478e+000 -1.126640e+000  0.000000e+000
     vertex  7.818315e-001 -6.234898e-001  0.000000e+000
     vertex  1.466104e+000 -1.360345e+000  0.000000e+000
   endloop
 endfacet
 facet normal  0.000000e+000  0.000000e+000  1.000000e+000
   outer loop
     vertex  1.652478e+000 -1.126640e+000  0.000000e+000
     vertex  9.009689e-001 -4.338837e-001  0.000000e+000
     vertex  7.818315e-001 -6.234898e-001  0.000000e+000
   endloop
 endfacet
 facet normal  0.000000e+000  0.000000e+000  1.000000e+000
   outer loop
     vertex -1.000000e+000  1.732051e+000  0.000000e+000
     vertex -1.246980e+000  1.563663e+000  0.000000e+000
     vertex -6.234898e-001  7.818315e-001  0.000000e+000
   endloop
 endfacet
 facet normal -0.000000e+000  0.000000e+000  1.000000e+000
   outer loop
     vertex -1.000000e+000  1.732051e+000  0.000000e+000
     vertex -6.234898e-001  7.818315e-001  0.000000e+000
     vertex -4.338837e-001  9.009689e-001  0.000000e+000
   endloop
 endfacet
 facet normal  0.000000e+000  0.000000e+000  1.000000e+000
   outer loop
     vertex  1.801938e+000 -8.677675e-001  0.000000e+000
     vertex  9.009689e-001 -4.338837e-001  0.000000e+000
     vertex  1.652478e+000 -1.126640e+000  0.000000e+000
   endloop
 endfacet
 facet normal  0.000000e+000  0.000000e+000  1.000000e+000
   outer loop
     vertex -7.306820e-001  1.861747e+000  0.000000e+000
     vertex -1.000000e+000  1.732051e+000  0.000000e+000
     vertex -4.338837e-001  9.009689e-001  0.000000e+000
   endloop
 endfacet
 facet normal -0.000000e+000  0.000000e+000  1.000000e+000
   outer loop
     vertex -7.306820e-001  1.861747e+000  0.000000e+000
     vertex -4.338837e-001  9.009689e-001  0.000000e+000
     vertex -2.225209e-001  9.749279e-001  0.000000e+000
   endloop
 endfacet
 facet normal  0.000000e+000  0.000000e+000  1.000000e+000
   outer loop
     vertex  1.911146e+000 -5.895103e-001  0.000000e+000
     vertex  9.749279e-001 -2.225209e-001  0.000000e+000
     vertex  9.009689e-001 -4.338837e-001  0.000000e+000
   endloop
 endfacet
 facet normal  0.000000e+000  0.000000e+000  1.000000e+000
   outer loop
     vertex  1.911146e+000 -5.895103e-001  0.000000e+000
     vertex  9.009689e-001 -4.338837e-001  0.000000e+000
     vertex  1.801938e+000 -8.677675e-001  0.000000e+000
   endloop
 endfacet
 facet normal  0.000000e+000  0.000000e+000  1.000000e+000
   outer loop
     vertex -4.450419e-001  1.949856e+000  0.000000e+000
     vertex -7.306820e-001  1.861747e+000  0.000000e+000
     vertex -2.225209e-001  9.749279e-001  0.000000e+000
   endloop
 endfacet
 facet normal  0.000000e+000  0.000000e+000  1.000000e+000
   outer loop
     vertex  1.977662e+000 -2.980845e-001  0.000000e+000
     vertex  1.000000e+000  0.000000e+000  0.000000e+000
     vertex  9.749279e-001 -2.225209e-001  0.000000e+000
   endloop
 endfacet
 facet normal  0.000000e+000  0.000000e+000  1.000000e+000
   outer loop
     vertex  1.977662e+000 -2.980845e-001  0.000000e+000
     vertex  9.749279e-001 -2.225209e-001  0.000000e+000
     vertex  1.911146e+000 -5.895103e-001  0.000000e+000
   endloop
 endfacet
 facet normal -0.000000e+000  0.000000e+000  1.000000e+000
   outer loop
     vertex -1.494602e-001  1.994408e+000  0.000000e+000
     vertex -2.225209e-001  9.749279e-001  0.000000e+000
     vertex -1.836970e-016  1.000000e+000  0.000000e+000
   endloop
 endfacet
 facet normal  0.000000e+000  0.000000e+000  1.000000e+000
   outer loop
     vertex -1.494602e-001  1.994408e+000  0.000000e+000
     vertex -4.450419e-001  1.949856e+000  0.000000e+000
     vertex -2.225209e-001  9.749279e-001  0.000000e+000
   endloop
 endfacet
 facet normal  0.000000e+000  0.000000e+000  1.000000e+000
   outer loop
     vertex  2.000000e+000  0.000000e+000  0.000000e+000
     vertex  1.000000e+000  0.000000e+000  0.000000e+000
     vertex  1.977662e+000 -2.980845e-001  0.000000e+000
   endloop
 endfacet
 facet normal  0.000000e+000  0.000000e+000  1.000000e+000
   outer loop
     vertex  1.494602e-001  1.994408e+000  0.000000e+000
     vertex -1.836970e-016  1.000000e+000  0.000000e+000
     vertex  2.225209e-001  9.749279e-001  0.000000e+000
   endloop
 endfacet
 facet normal  0.000000e+000  0.000000e+000  1.000000e+000
   outer loop
     vertex  1.494602e-001  1.994408e+000  0.000000e+000
     vertex -1.494602e-001  1.994408e+000  0.000000e+000
     vertex -1.836970e-016  1.000000e+000  0.000000e+000
   endloop
 endfacet
 facet normal -0.000000e+000  0.000000e+000  1.000000e+000
   outer loop
     vertex  1.977662e+000  2.980845e-001  0.000000e+000
     vertex  1.000000e+000  0.000000e+000  0.000000e+000
     vertex  2.000000e+000  0.000000e+000  0.000000e+000
   endloop
 endfacet
 facet normal  0.000000e+000  0.000000e+000  1.000000e+000
   outer loop
     vertex  1.977662e+000  2.980845e-001  0.000000e+000
     vertex  9.749279e-001  2.225209e-001  0.000000e+000
     vertex  1.000000e+000  0.000000e+000  0.000000e+000
   endloop
 endfacet
 facet normal  0.000000e+000  0.000000e+000  1.000000e+000
   outer loop
     vertex  4.450419e-001  1.949856e+000  0.000000e+000
     vertex  1.494602e-001  1.994408e+000  0.000000e+000
     vertex  2.225209e-001  9.749279e-001  0.000000e+000
   endloop
 endfacet
 facet normal  0.000000e+000  0.000000e+000  1.000000e+000
   outer loop
     vertex  1.911146e+000  5.895103e-001  0.000000e+000
     vertex  9.009689e-001  4.338837e-001  0.000000e+000
     vertex  9.749279e-001  2.225209e-001  0.000000e+000
   endloop
 endfacet
 facet normal -0.000000e+000  0.000000e+000  1.000000e+000
   outer loop
     vertex  1.911146e+000  5.895103e-001  0.000000e+000
     vertex  9.749279e-001  2.225209e-001  0.000000e+000
     vertex  1.977662e+000  2.980845e-001  0.000000e+000
   endloop
 endfacet
 facet normal  0.000000e+000  0.000000e+000  1.000000e+000
   outer loop
     vertex  7.306820e-001  1.861747e+000  0.000000e+000
     vertex  2.225209e-001  9.749279e-001  0.000000e+000
     vertex  4.338837e-001  9.009689e-001  0.000000e+000
   endloop
 endfacet
 facet normal  0.000000e+000  0.000000e+000  1.000000e+000
   outer loop
     vertex  7.306820e-001  1.861747e+000  0.000000e+000
     vertex  4.450419e-001  1.949856e+000  0.000000e+000
     vertex  2.225209e-001  9.749279e-001  0.000000e+000
   endloop
 endfacet
 facet normal -0.000000e+000  0.000000e+000  1.000000e+000
   outer loop
     vertex  1.801938e+000  8.677675e-001  0.000000e+000
     vertex  9.009689e-001  4.338837e-001  0.000000e+000
     vertex  1.911146e+000  5.895103e-001  0.000000e+000
   endloop
 endfacet
 facet normal  0.000000e+000  0.000000e+000  1.000000e+000
   outer loop
     vertex  1.000000e+000  1.732051e+000  0.000000e+000
     vertex  4.338837e-001  9.009689e-001  0.000000e+000
     vertex  6.234898e-001  7.818315e-001  0.000000e+000
   endloop
 endfacet
 facet normal  0.000000e+000  0.000000e+000  1.000000e+000
   outer loop
     vertex  1.000000e+000  1.732051e+000  0.000000e+000
     vertex  7.306820e-001  1.861747e+000  0.000000e+000
     vertex  4.338837e-001  9.009689e-001  0.000000e+000
   endloop
 endfacet
 facet normal  0.000000e+000  0.000000e+000  1.000000e+000
   outer loop
     vertex  1.652478e+000  1.126640e+000  0.000000e+000
     vertex  7.818315e-001  6.234898e-001  0.000000e+000
     vertex  9.009689e-001  4.338837e-001  0.000000e+000
   endloop
 endfacet
 facet normal -0.000000e+000  0.000000e+000  1.000000e+000
   outer loop
     vertex  1.652478e+000  1.126640e+000  0.000000e+000
     vertex  9.009689e-001  4.338837e-001  0.000000e+000
     vertex  1.801938e+000  8.677675e-001  0.000000e+000
   endloop
 endfacet
 facet normal  0.000000e+000  0.000000e+000  1.000000e+000
   outer loop
     vertex  1.246980e+000  1.563663e+000  0.000000e+000
     vertex  1.000000e+000  1.732051e+000  0.000000e+000
     vertex  6.234898e-001  7.818315e-001  0.000000e+000
   endloop
 endfacet
 facet normal -0.000000e+000  0.000000e+000  1.000000e+000
   outer loop
     vertex  1.466104e+000  1.360345e+000  0.000000e+000
     vertex  7.818315e-001  6.234898e-001  0.000000e+000
     vertex  1.652478e+000  1.126640e+000  0.000000e+000
   endloop
 endfacet
 facet normal  0.000000e+000  0.000000e+000  1.000000e+000
   outer loop
     vertex  1.466104e+000  1.360345e+000  0.000000e+000
     vertex  1.246980e+000  1.563663e+000  0.000000e+000
     vertex  6.234898e-001  7.818315e-001  0.000000e+000
   endloop
 endfacet
 facet normal  0.000000e+000  0.000000e+000  1.000000e+000
   outer loop
     vertex  1.466104e+000  1.360345e+000  0.000000e+000
     vertex  6.234898e-001  7.818315e-001  0.000000e+000
     vertex  7.818315e-001  6.234898e-001  0.000000e+000
   endloop
 endfacet
 facet normal  5.320321e-001 -8.467242e-001  3.016198e-018
   outer loop
     vertex  6.234898e-001 -7.818315e-001  8.000000e+000
     vertex  4.338837e-001 -9.009689e-001  8.000000e+000
     vertex  4.338837e-001 -9.009689e-001  0.000000e+000
   endloop
 endfacet
 facet normal  7.071068e-001 -7.071068e-001 -9.683448e-018
   outer loop
     vertex  7.818315e-001 -6.234898e-001  8.000000e+000
     vertex  6.234898e-001 -7.818315e-001  0.000000e+000
     vertex  7.818315e-001 -6.234898e-001  0.000000e+000
   endloop
 endfacet
 facet normal  7.071068e-001 -7.071068e-001  9.813078e-018
   outer loop
     vertex  7.818315e-001 -6.234898e-001  8.000000e+000
     vertex  6.234898e-001 -7.818315e-001  8.000000e+000
     vertex  6.234898e-001 -7.818315e-001  0.000000e+000
   endloop
 endfacet
 facet normal -9.937122e-001 -1.119645e-001 -0.000000e+000
   outer loop
     vertex -9.749279e-001 -2.225209e-001  8.000000e+000
     vertex -1.000000e+000  1.224606e-016  8.000000e+000
     vertex -1.000000e+000  1.224606e-016  0.000000e+000
   endloop
 endfacet
 facet normal -9.937122e-001 -1.119645e-001  2.905034e-018
   outer loop
     vertex -9.749279e-001 -2.225209e-001  8.000000e+000
     vertex -1.000000e+000  1.224606e-016  0.000000e+000
     vertex -9.749279e-001 -2.225209e-001  0.000000e+000
   endloop
 endfacet
 facet normal  8.467242e-001 -5.320321e-001 -3.873379e-018
   outer loop
     vertex  9.009689e-001 -4.338837e-001  8.000000e+000
     vertex  7.818315e-001 -6.234898e-001  0.000000e+000
     vertex  9.009689e-001 -4.338837e-001  0.000000e+000
   endloop
 endfacet
 facet normal  8.467242e-001 -5.320321e-001 -3.016198e-018
   outer loop
     vertex  9.009689e-001 -4.338837e-001  8.000000e+000
     vertex  7.818315e-001 -6.234898e-001  8.000000e+000
     vertex  7.818315e-001 -6.234898e-001  0.000000e+000
   endloop
 endfacet
 facet normal -9.438833e-001 -3.302791e-001 -3.873379e-018
   outer loop
     vertex -9.009689e-001 -4.338837e-001  8.000000e+000
     vertex -9.749279e-001 -2.225209e-001  0.000000e+000
     vertex -9.009689e-001 -4.338837e-001  0.000000e+000
   endloop
 endfacet
 facet normal -9.438833e-001 -3.302791e-001  9.167085e-018
   outer loop
     vertex -9.009689e-001 -4.338837e-001  8.000000e+000
     vertex -9.749279e-001 -2.225209e-001  8.000000e+000
     vertex -9.749279e-001 -2.225209e-001  0.000000e+000
   endloop
 endfacet
 facet normal  9.438833e-001 -3.302791e-001  1.936690e-018
   outer loop
     vertex  9.749279e-001 -2.225209e-001  8.000000e+000
     vertex  9.009689e-001 -4.338837e-001  0.000000e+000
     vertex  9.749279e-001 -2.225209e-001  0.000000e+000
   endloop
 endfacet
 facet normal  9.438833e-001 -3.302791e-001  3.931927e-018
   outer loop
     vertex  9.749279e-001 -2.225209e-001  8.000000e+000
     vertex  9.009689e-001 -4.338837e-001  8.000000e+000
     vertex  9.009689e-001 -4.338837e-001  0.000000e+000
   endloop
 endfacet
 facet normal -8.467242e-001 -5.320321e-001 -7.746758e-018
   outer loop
     vertex -7.818315e-001 -6.234898e-001  8.000000e+000
     vertex -9.009689e-001 -4.338837e-001  0.000000e+000
     vertex -7.818315e-001 -6.234898e-001  0.000000e+000
   endloop
 endfacet
 facet normal  9.937122e-001 -1.119645e-001  0.000000e+000
   outer loop
     vertex  1.000000e+000  0.000000e+000  8.000000e+000
     vertex  9.749279e-001 -2.225209e-001  0.000000e+000
     vertex  1.000000e+000  0.000000e+000  0.000000e+000
   endloop
 endfacet
 facet normal -8.467242e-001 -5.320321e-001  3.016198e-018
   outer loop
     vertex -7.818315e-001 -6.234898e-001  8.000000e+000
     vertex -9.009689e-001 -4.338837e-001  8.000000e+000
     vertex -9.009689e-001 -4.338837e-001  0.000000e+000
   endloop
 endfacet
 facet normal  9.937122e-001 -1.119645e-001  1.029443e-017
   outer loop
     vertex  1.000000e+000  0.000000e+000  8.000000e+000
     vertex  9.749279e-001 -2.225209e-001  8.000000e+000
     vertex  9.749279e-001 -2.225209e-001  0.000000e+000
   endloop
 endfacet
 facet normal -7.071068e-001 -7.071068e-001  0.000000e+000
   outer loop
     vertex -6.234898e-001 -7.818315e-001  8.000000e+000
     vertex -7.818315e-001 -6.234898e-001  0.000000e+000
     vertex -6.234898e-001 -7.818315e-001  0.000000e+000
   endloop
 endfacet
 facet normal -7.071068e-001 -7.071068e-001 -1.376101e-032
   outer loop
     vertex -6.234898e-001 -7.818315e-001  8.000000e+000
     vertex -7.818315e-001 -6.234898e-001  8.000000e+000
     vertex -7.818315e-001 -6.234898e-001  0.000000e+000
   endloop
 endfacet
 facet normal -5.320321e-001 -8.467242e-001 -3.873379e-018
   outer loop
     vertex -4.338837e-001 -9.009689e-001  8.000000e+000
     vertex -6.234898e-001 -7.818315e-001  0.000000e+000
     vertex -4.338837e-001 -9.009689e-001  0.000000e+000
   endloop
 endfacet
 facet normal -5.320321e-001 -8.467242e-001  8.734461e-018
   outer loop
     vertex -4.338837e-001 -9.009689e-001  8.000000e+000
     vertex -6.234898e-001 -7.818315e-001  8.000000e+000
     vertex -6.234898e-001 -7.818315e-001  0.000000e+000
   endloop
 endfacet
 facet normal -3.302791e-001 -9.438833e-001 -1.162014e-017
   outer loop
     vertex -2.225209e-001 -9.749279e-001  8.000000e+000
     vertex -4.338837e-001 -9.009689e-001  0.000000e+000
     vertex -2.225209e-001 -9.749279e-001  0.000000e+000
   endloop
 endfacet
 facet normal -3.302791e-001 -9.438833e-001  3.931927e-018
   outer loop
     vertex -2.225209e-001 -9.749279e-001  8.000000e+000
     vertex -4.338837e-001 -9.009689e-001  8.000000e+000
     vertex -4.338837e-001 -9.009689e-001  0.000000e+000
   endloop
 endfacet
 facet normal -1.119645e-001 -9.937122e-001 -3.873379e-018
   outer loop
     vertex -1.836970e-016 -1.000000e+000  8.000000e+000
     vertex -2.225209e-001 -9.749279e-001  0.000000e+000
     vertex  6.123234e-017 -1.000000e+000  0.000000e+000
   endloop
 endfacet
 facet normal -1.119645e-001 -9.937122e-001 -3.496093e-018
   outer loop
     vertex -1.836970e-016 -1.000000e+000  8.000000e+000
     vertex -2.225209e-001 -9.749279e-001  8.000000e+000
     vertex -2.225209e-001 -9.749279e-001  0.000000e+000
   endloop
 endfacet
 facet normal  1.119645e-001 -9.937122e-001  3.389207e-018
   outer loop
     vertex  2.225209e-001 -9.749279e-001  8.000000e+000
     vertex  6.123234e-017 -1.000000e+000  0.000000e+000
     vertex  2.225209e-001 -9.749279e-001  0.000000e+000
   endloop
 endfacet
 facet normal  1.119645e-001 -9.937122e-001  3.427923e-018
   outer loop
     vertex  2.225209e-001 -9.749279e-001  8.000000e+000
     vertex -1.836970e-016 -1.000000e+000  8.000000e+000
     vertex  6.123234e-017 -1.000000e+000  0.000000e+000
   endloop
 endfacet
 facet normal  3.302791e-001 -9.438833e-001 -3.873379e-018
   outer loop
     vertex  4.338837e-001 -9.009689e-001  8.000000e+000
     vertex  2.225209e-001 -9.749279e-001  0.000000e+000
     vertex  4.338837e-001 -9.009689e-001  0.000000e+000
   endloop
 endfacet
 facet normal  3.302791e-001 -9.438833e-001  9.167085e-018
   outer loop
     vertex  4.338837e-001 -9.009689e-001  8.000000e+000
     vertex  2.225209e-001 -9.749279e-001  8.000000e+000
     vertex  2.225209e-001 -9.749279e-001  0.000000e+000
   endloop
 endfacet
 facet normal  5.320321e-001 -8.467242e-001  3.873379e-018
   outer loop
     vertex  6.234898e-001 -7.818315e-001  8.000000e+000
     vertex  4.338837e-001 -9.009689e-001  0.000000e+000
     vertex  6.234898e-001 -7.818315e-001  0.000000e+000
   endloop
 endfacet
 facet normal -5.320321e-001  8.467242e-001  3.016198e-018
   outer loop
     vertex -6.234898e-001  7.818315e-001  8.000000e+000
     vertex -4.338837e-001  9.009689e-001  8.000000e+000
     vertex -4.338837e-001  9.009689e-001  0.000000e+000
   endloop
 endfacet
 facet normal -7.071068e-001  7.071068e-001  0.000000e+000
   outer loop
     vertex -7.818315e-001  6.234898e-001  8.000000e+000
     vertex -6.234898e-001  7.818315e-001  0.000000e+000
     vertex -7.818315e-001  6.234898e-001  0.000000e+000
   endloop
 endfacet
 facet normal -7.071068e-001  7.071068e-001  1.376101e-032
   outer loop
     vertex -7.818315e-001  6.234898e-001  8.000000e+000
     vertex -6.234898e-001  7.818315e-001  8.000000e+000
     vertex -6.234898e-001  7.818315e-001  0.000000e+000
   endloop
 endfacet
 facet normal  9.937122e-001  1.119645e-001  0.000000e+000
   outer loop
     vertex  9.749279e-001  2.225209e-001  8.000000e+000
     vertex  1.000000e+000  0.000000e+000  8.000000e+000
     vertex  1.000000e+000  0.000000e+000  0.000000e+000
   endloop
 endfacet
 facet normal  9.937122e-001  1.119645e-001 -1.016762e-017
   outer loop
     vertex  9.749279e-001  2.225209e-001  8.000000e+000
     vertex  1.000000e+000  0.000000e+000  0.000000e+000
     vertex  9.749279e-001  2.225209e-001  0.000000e+000
   endloop
 endfacet
 facet normal -8.467242e-001  5.320321e-001 -3.873379e-018
   outer loop
     vertex -9.009689e-001  4.338837e-001  8.000000e+000
     vertex -7.818315e-001  6.234898e-001  0.000000e+000
     vertex -9.009689e-001  4.338837e-001  0.000000e+000
   endloop
 endfacet
 facet normal -8.467242e-001  5.320321e-001  8.734461e-018
   outer loop
     vertex -9.009689e-001  4.338837e-001  8.000000e+000
     vertex -7.818315e-001  6.234898e-001  8.000000e+000
     vertex -7.818315e-001  6.234898e-001  0.000000e+000
   endloop
 endfacet
 facet normal  9.438833e-001  3.302791e-001 -3.873379e-018
   outer loop
     vertex  9.009689e-001  4.338837e-001  8.000000e+000
     vertex  9.749279e-001  2.225209e-001  0.000000e+000
     vertex  9.009689e-001  4.338837e-001  0.000000e+000
   endloop
 endfacet
 facet normal  9.438833e-001  3.302791e-001 -2.786041e-018
   outer loop
     vertex  9.009689e-001  4.338837e-001  8.000000e+000
     vertex  9.749279e-001  2.225209e-001  8.000000e+000
     vertex  9.749279e-001  2.225209e-001  0.000000e+000
   endloop
 endfacet
 facet normal -9.438833e-001  3.302791e-001 -9.683448e-018
   outer loop
     vertex -9.749279e-001  2.225209e-001  8.000000e+000
     vertex -9.009689e-001  4.338837e-001  0.000000e+000
     vertex -9.749279e-001  2.225209e-001  0.000000e+000
   endloop
 endfacet
 facet normal -9.438833e-001  3.302791e-001  3.931927e-018
   outer loop
     vertex -9.749279e-001  2.225209e-001  8.000000e+000
     vertex -9.009689e-001  4.338837e-001  8.000000e+000
     vertex -9.009689e-001  4.338837e-001  0.000000e+000
   endloop
 endfacet
 facet normal  8.467242e-001  5.320321e-001  3.873379e-018
   outer loop
     vertex  7.818315e-001  6.234898e-001  8.000000e+000
     vertex  9.009689e-001  4.338837e-001  0.000000e+000
     vertex  7.818315e-001  6.234898e-001  0.000000e+000
   endloop
 endfacet
 facet normal -9.937122e-001  1.119645e-001  0.000000e+000
   outer loop
     vertex -1.000000e+000  1.224606e-016  8.000000e+000
     vertex -9.749279e-001  2.225209e-001  0.000000e+000
     vertex -1.000000e+000  1.224606e-016  0.000000e+000
   endloop
 endfacet
 facet normal  8.467242e-001  5.320321e-001  3.016198e-018
   outer loop
     vertex  7.818315e-001  6.234898e-001  8.000000e+000
     vertex  9.009689e-001  4.338837e-001  8.000000e+000
     vertex  9.009689e-001  4.338837e-001  0.000000e+000
   endloop
 endfacet
 facet normal -9.937122e-001  1.119645e-001 -3.107638e-018
   outer loop
     vertex -1.000000e+000  1.224606e-016  8.000000e+000
     vertex -9.749279e-001  2.225209e-001  8.000000e+000
     vertex -9.749279e-001  2.225209e-001  0.000000e+000
   endloop
 endfacet
 facet normal  7.071068e-001  7.071068e-001 -9.683448e-018
   outer loop
     vertex  6.234898e-001  7.818315e-001  8.000000e+000
     vertex  7.818315e-001  6.234898e-001  0.000000e+000
     vertex  6.234898e-001  7.818315e-001  0.000000e+000
   endloop
 endfacet
 facet normal  7.071068e-001  7.071068e-001  9.813078e-018
   outer loop
     vertex  6.234898e-001  7.818315e-001  8.000000e+000
     vertex  7.818315e-001  6.234898e-001  8.000000e+000
     vertex  7.818315e-001  6.234898e-001  0.000000e+000
   endloop
 endfacet
 facet normal  5.320321e-001  8.467242e-001 -3.873379e-018
   outer loop
     vertex  4.338837e-001  9.009689e-001  8.000000e+000
     vertex  6.234898e-001  7.818315e-001  0.000000e+000
     vertex  4.338837e-001  9.009689e-001  0.000000e+000
   endloop
 endfacet
 facet normal  5.320321e-001  8.467242e-001 -3.016198e-018
   outer loop
     vertex  4.338837e-001  9.009689e-001  8.000000e+000
     vertex  6.234898e-001  7.818315e-001  8.000000e+000
     vertex  6.234898e-001  7.818315e-001  0.000000e+000
   endloop
 endfacet
 facet normal  3.302791e-001  9.438833e-001 -9.683448e-018
   outer loop
     vertex  2.225209e-001  9.749279e-001  8.000000e+000
     vertex  4.338837e-001  9.009689e-001  0.000000e+000
     vertex  2.225209e-001  9.749279e-001  0.000000e+000
   endloop
 endfacet
 facet normal  3.302791e-001  9.438833e-001  3.931927e-018
   outer loop
     vertex  2.225209e-001  9.749279e-001  8.000000e+000
     vertex  4.338837e-001  9.009689e-001  8.000000e+000
     vertex  4.338837e-001  9.009689e-001  0.000000e+000
   endloop
 endfacet
 facet normal  1.119645e-001  9.937122e-001 -3.389207e-018
   outer loop
     vertex  6.123234e-017  1.000000e+000  8.000000e+000
     vertex  2.225209e-001  9.749279e-001  0.000000e+000
     vertex -1.836970e-016  1.000000e+000  0.000000e+000
   endloop
 endfacet
 facet normal  1.119645e-001  9.937122e-001 -3.107638e-018
   outer loop
     vertex  6.123234e-017  1.000000e+000  8.000000e+000
     vertex  2.225209e-001  9.749279e-001  8.000000e+000
     vertex  2.225209e-001  9.749279e-001  0.000000e+000
   endloop
 endfacet
 facet normal -1.119645e-001  9.937122e-001  3.873379e-018
   outer loop
     vertex -2.225209e-001  9.749279e-001  8.000000e+000
     vertex -1.836970e-016  1.000000e+000  0.000000e+000
     vertex -2.225209e-001  9.749279e-001  0.000000e+000
   endloop
 endfacet
 facet normal -1.119645e-001  9.937122e-001  3.427923e-018
   outer loop
     vertex -2.225209e-001  9.749279e-001  8.000000e+000
     vertex  6.123234e-017  1.000000e+000  8.000000e+000
     vertex -1.836970e-016  1.000000e+000  0.000000e+000
   endloop
 endfacet
 facet normal -3.302791e-001  9.438833e-001 -3.873379e-018
   outer loop
     vertex -4.338837e-001  9.009689e-001  8.000000e+000
     vertex -2.225209e-001  9.749279e-001  0.000000e+000
     vertex -4.338837e-001  9.009689e-001  0.000000e+000
   endloop
 endfacet
 facet normal -3.302791e-001  9.438833e-001  1.031297e-017
   outer loop
     vertex -4.338837e-001  9.009689e-001  8.000000e+000
     vertex -2.225209e-001  9.749279e-001  8.000000e+000
     vertex -2.225209e-001  9.749279e-001  0.000000e+000
   endloop
 endfacet
 facet normal -5.320321e-001  8.467242e-001 -7.746758e-018
   outer loop
     vertex -6.234898e-001  7.818315e-001  8.000000e+000
     vertex -4.338837e-001  9.009689e-001  0.000000e+000
     vertex -6.234898e-001  7.818315e-001  0.000000e+000
   endloop
 endfacet
endsolid
