solid
 facet normal -0.000000e+000  1.000000e+000  0.000000e+000
   outer loop
     vertex -4.060300e-001 -1.815000e+000 -4.218990e+000
     vertex -4.060300e-001 -1.815000e+000 -4.093990e+000
     vertex -3.782149e-001 -1.815000e+000 -4.097124e+000
   endloop
 endfacet
 facet normal -0.000000e+000  1.000000e+000  0.000000e+000
   outer loop
     vertex -4.060300e-001 -1.815000e+000 -4.218990e+000
     vertex -3.782149e-001 -1.815000e+000 -4.097124e+000
     vertex -3.517945e-001 -1.815000e+000 -4.106369e+000
   endloop
 endfacet
 facet normal -0.000000e+000  1.000000e+000  0.000000e+000
   outer loop
     vertex -4.060300e-001 -1.815000e+000 -4.218990e+000
     vertex -3.517945e-001 -1.815000e+000 -4.106369e+000
     vertex -3.280938e-001 -1.815000e+000 -4.121261e+000
   endloop
 endfacet
 facet normal -0.000000e+000  1.000000e+000  0.000000e+000
   outer loop
     vertex -4.060300e-001 -1.815000e+000 -4.218990e+000
     vertex -3.280938e-001 -1.815000e+000 -4.121261e+000
     vertex -3.083011e-001 -1.815000e+000 -4.141054e+000
   endloop
 endfacet
 facet normal -0.000000e+000  1.000000e+000  0.000000e+000
   outer loop
     vertex -4.060300e-001 -1.815000e+000 -4.218990e+000
     vertex -3.083011e-001 -1.815000e+000 -4.141054e+000
     vertex -2.934089e-001 -1.815000e+000 -4.164755e+000
   endloop
 endfacet
 facet normal -0.000000e+000  1.000000e+000  0.000000e+000
   outer loop
     vertex -4.060300e-001 -1.815000e+000 -4.218990e+000
     vertex -2.934089e-001 -1.815000e+000 -4.164755e+000
     vertex -2.841640e-001 -1.815000e+000 -4.191175e+000
   endloop
 endfacet
 facet normal -0.000000e+000  1.000000e+000  0.000000e+000
   outer loop
     vertex -4.060300e-001 -1.815000e+000 -4.218990e+000
     vertex -2.841640e-001 -1.815000e+000 -4.191175e+000
     vertex -2.810300e-001 -1.815000e+000 -4.218990e+000
   endloop
 endfacet
 facet normal -0.000000e+000  1.000000e+000  0.000000e+000
   outer loop
     vertex -4.060300e-001 -1.815000e+000 -4.218990e+000
     vertex -2.810300e-001 -1.815000e+000 -4.218990e+000
     vertex -2.841640e-001 -1.815000e+000 -4.246805e+000
   endloop
 endfacet
 facet normal  0.000000e+000  1.000000e+000  0.000000e+000
   outer loop
     vertex -4.060300e-001 -1.815000e+000 -4.218990e+000
     vertex -2.841640e-001 -1.815000e+000 -4.246805e+000
     vertex -2.934089e-001 -1.815000e+000 -4.273225e+000
   endloop
 endfacet
 facet normal  0.000000e+000  1.000000e+000  0.000000e+000
   outer loop
     vertex -4.060300e-001 -1.815000e+000 -4.218990e+000
     vertex -2.934089e-001 -1.815000e+000 -4.273225e+000
     vertex -3.083011e-001 -1.815000e+000 -4.296926e+000
   endloop
 endfacet
 facet normal  0.000000e+000  1.000000e+000  0.000000e+000
   outer loop
     vertex -4.060300e-001 -1.815000e+000 -4.218990e+000
     vertex -3.083011e-001 -1.815000e+000 -4.296926e+000
     vertex -3.280938e-001 -1.815000e+000 -4.316719e+000
   endloop
 endfacet
 facet normal  0.000000e+000  1.000000e+000  0.000000e+000
   outer loop
     vertex -4.060300e-001 -1.815000e+000 -4.218990e+000
     vertex -3.280938e-001 -1.815000e+000 -4.316719e+000
     vertex -3.517945e-001 -1.815000e+000 -4.331611e+000
   endloop
 endfacet
 facet normal  0.000000e+000  1.000000e+000  0.000000e+000
   outer loop
     vertex -4.060300e-001 -1.815000e+000 -4.218990e+000
     vertex -3.517945e-001 -1.815000e+000 -4.331611e+000
     vertex -3.782149e-001 -1.815000e+000 -4.340856e+000
   endloop
 endfacet
 facet normal  0.000000e+000  1.000000e+000  0.000000e+000
   outer loop
     vertex -4.060300e-001 -1.815000e+000 -4.218990e+000
     vertex -3.782149e-001 -1.815000e+000 -4.340856e+000
     vertex -4.060300e-001 -1.815000e+000 -4.343990e+000
   endloop
 endfacet
 facet normal  0.000000e+000  1.000000e+000  0.000000e+000
   outer loop
     vertex -4.060300e-001 -1.815000e+000 -4.218990e+000
     vertex -4.060300e-001 -1.815000e+000 -4.343990e+000
     vertex -4.338451e-001 -1.815000e+000 -4.340856e+000
   endloop
 endfacet
 facet normal  0.000000e+000  1.000000e+000  0.000000e+000
   outer loop
     vertex -4.060300e-001 -1.815000e+000 -4.218990e+000
     vertex -4.338451e-001 -1.815000e+000 -4.340856e+000
     vertex -4.602655e-001 -1.815000e+000 -4.331611e+000
   endloop
 endfacet
 facet normal  0.000000e+000  1.000000e+000  0.000000e+000
   outer loop
     vertex -4.060300e-001 -1.815000e+000 -4.218990e+000
     vertex -4.602655e-001 -1.815000e+000 -4.331611e+000
     vertex -4.839662e-001 -1.815000e+000 -4.316719e+000
   endloop
 endfacet
 facet normal  0.000000e+000  1.000000e+000  0.000000e+000
   outer loop
     vertex -4.060300e-001 -1.815000e+000 -4.218990e+000
     vertex -4.839662e-001 -1.815000e+000 -4.316719e+000
     vertex -5.037589e-001 -1.815000e+000 -4.296926e+000
   endloop
 endfacet
 facet normal  0.000000e+000  1.000000e+000  0.000000e+000
   outer loop
     vertex -4.060300e-001 -1.815000e+000 -4.218990e+000
     vertex -5.037589e-001 -1.815000e+000 -4.296926e+000
     vertex -5.186511e-001 -1.815000e+000 -4.273225e+000
   endloop
 endfacet
 facet normal  0.000000e+000  1.000000e+000  0.000000e+000
   outer loop
     vertex -4.060300e-001 -1.815000e+000 -4.218990e+000
     vertex -5.186511e-001 -1.815000e+000 -4.273225e+000
     vertex -5.278960e-001 -1.815000e+000 -4.246805e+000
   endloop
 endfacet
 facet normal  0.000000e+000  1.000000e+000  0.000000e+000
   outer loop
     vertex -4.060300e-001 -1.815000e+000 -4.218990e+000
     vertex -5.278960e-001 -1.815000e+000 -4.246805e+000
     vertex -5.310300e-001 -1.815000e+000 -4.218990e+000
   endloop
 endfacet
 facet normal  0.000000e+000  1.000000e+000 -0.000000e+000
   outer loop
     vertex -4.060300e-001 -1.815000e+000 -4.218990e+000
     vertex -5.310300e-001 -1.815000e+000 -4.218990e+000
     vertex -5.278960e-001 -1.815000e+000 -4.191175e+000
   endloop
 endfacet
 facet normal  0.000000e+000  1.000000e+000 -0.000000e+000
   outer loop
     vertex -4.060300e-001 -1.815000e+000 -4.218990e+000
     vertex -5.278960e-001 -1.815000e+000 -4.191175e+000
     vertex -5.186511e-001 -1.815000e+000 -4.164755e+000
   endloop
 endfacet
 facet normal  0.000000e+000  1.000000e+000 -0.000000e+000
   outer loop
     vertex -4.060300e-001 -1.815000e+000 -4.218990e+000
     vertex -5.186511e-001 -1.815000e+000 -4.164755e+000
     vertex -5.037589e-001 -1.815000e+000 -4.141054e+000
   endloop
 endfacet
 facet normal  0.000000e+000  1.000000e+000 -0.000000e+000
   outer loop
     vertex -4.060300e-001 -1.815000e+000 -4.218990e+000
     vertex -5.037589e-001 -1.815000e+000 -4.141054e+000
     vertex -4.839662e-001 -1.815000e+000 -4.121261e+000
   endloop
 endfacet
 facet normal  0.000000e+000  1.000000e+000 -0.000000e+000
   outer loop
     vertex -4.060300e-001 -1.815000e+000 -4.218990e+000
     vertex -4.839662e-001 -1.815000e+000 -4.121261e+000
     vertex -4.602655e-001 -1.815000e+000 -4.106369e+000
   endloop
 endfacet
 facet normal  0.000000e+000  1.000000e+000 -0.000000e+000
   outer loop
     vertex -4.060300e-001 -1.815000e+000 -4.218990e+000
     vertex -4.602655e-001 -1.815000e+000 -4.106369e+000
     vertex -4.338451e-001 -1.815000e+000 -4.097124e+000
   endloop
 endfacet
 facet normal  0.000000e+000  1.000000e+000 -0.000000e+000
   outer loop
     vertex -4.060300e-001 -1.815000e+000 -4.218990e+000
     vertex -4.338451e-001 -1.815000e+000 -4.097124e+000
     vertex -4.060300e-001 -1.815000e+000 -4.093990e+000
   endloop
 endfacet
 facet normal -0.000000e+000 -1.000000e+000 -0.000000e+000
   outer loop
     vertex -3.680300e-001 -3.130000e+000 -4.093990e+000
     vertex -4.410300e-001 -3.130000e+000 -4.093990e+000
     vertex -3.680300e-001 -3.130000e+000 -4.183990e+000
   endloop
 endfacet
 facet normal  0.000000e+000 -1.000000e+000  0.000000e+000
   outer loop
     vertex -4.410300e-001 -3.130000e+000 -4.093990e+000
     vertex -4.410300e-001 -3.130000e+000 -4.183990e+000
     vertex -3.680300e-001 -3.130000e+000 -4.183990e+000
   endloop
 endfacet
 facet normal -0.000000e+000 -1.000000e+000 -0.000000e+000
   outer loop
     vertex -4.410300e-001 -3.130000e+000 -4.183990e+000
     vertex -5.280300e-001 -3.130000e+000 -4.183990e+000
     vertex -4.410300e-001 -3.130000e+000 -4.259990e+000
   endloop
 endfacet
 facet normal  0.000000e+000 -1.000000e+000  0.000000e+000
   outer loop
     vertex -5.280300e-001 -3.130000e+000 -4.183990e+000
     vertex -5.280300e-001 -3.130000e+000 -4.259990e+000
     vertex -4.410300e-001 -3.130000e+000 -4.259990e+000
   endloop
 endfacet
 facet normal  0.000000e+000 -1.000000e+000  0.000000e+000
   outer loop
     vertex -3.680300e-001 -3.130000e+000 -4.183990e+000
     vertex -3.650300e-001 -3.130000e+000 -4.259990e+000
     vertex -2.780300e-001 -3.130000e+000 -4.183990e+000
   endloop
 endfacet
 facet normal  0.000000e+000 -1.000000e+000  0.000000e+000
   outer loop
     vertex -4.410300e-001 -3.130000e+000 -4.259990e+000
     vertex -4.410300e-001 -3.130000e+000 -4.346990e+000
     vertex -3.650300e-001 -3.130000e+000 -4.346990e+000
   endloop
 endfacet
 facet normal -0.000000e+000 -1.000000e+000 -0.000000e+000
   outer loop
     vertex -3.650300e-001 -3.130000e+000 -4.259990e+000
     vertex -4.410300e-001 -3.130000e+000 -4.259990e+000
     vertex -3.650300e-001 -3.130000e+000 -4.346990e+000
   endloop
 endfacet
 facet normal  0.000000e+000 -1.000000e+000 -0.000000e+000
   outer loop
     vertex -2.780300e-001 -3.130000e+000 -4.183990e+000
     vertex -3.650300e-001 -3.130000e+000 -4.259990e+000
     vertex -2.780300e-001 -3.130000e+000 -4.259990e+000
   endloop
 endfacet
 facet normal  0.000000e+000 -1.000000e+000  0.000000e+000
   outer loop
     vertex -4.410300e-001 -3.130000e+000 -4.183990e+000
     vertex -4.410300e-001 -3.130000e+000 -4.259990e+000
     vertex -4.030300e-001 -3.130000e+000 -4.220490e+000
   endloop
 endfacet
 facet normal -0.000000e+000 -1.000000e+000 -0.000000e+000
   outer loop
     vertex -3.680300e-001 -3.130000e+000 -4.183990e+000
     vertex -4.410300e-001 -3.130000e+000 -4.183990e+000
     vertex -4.030300e-001 -3.130000e+000 -4.220490e+000
   endloop
 endfacet
 facet normal -0.000000e+000 -1.000000e+000  0.000000e+000
   outer loop
     vertex -3.650300e-001 -3.130000e+000 -4.259990e+000
     vertex -3.680300e-001 -3.130000e+000 -4.183990e+000
     vertex -4.030300e-001 -3.130000e+000 -4.220490e+000
   endloop
 endfacet
 facet normal  0.000000e+000 -1.000000e+000  0.000000e+000
   outer loop
     vertex -4.410300e-001 -3.130000e+000 -4.259990e+000
     vertex -3.650300e-001 -3.130000e+000 -4.259990e+000
     vertex -4.030300e-001 -3.130000e+000 -4.220490e+000
   endloop
 endfacet
 facet normal  8.467242e-001  0.000000e+000 -5.320321e-001
   outer loop
     vertex -3.083011e-001 -1.815000e+000 -4.296926e+000
     vertex -2.934089e-001 -1.815000e+000 -4.273225e+000
     vertex -2.934089e-001 -2.940000e+000 -4.273225e+000
   endloop
 endfacet
 facet normal  7.071068e-001  0.000000e+000 -7.071068e-001
   outer loop
     vertex -3.280938e-001 -1.815000e+000 -4.316719e+000
     vertex -3.083011e-001 -2.940000e+000 -4.296926e+000
     vertex -3.280938e-001 -2.940000e+000 -4.316719e+000
   endloop
 endfacet
 facet normal  7.071068e-001 -3.489094e-017 -7.071068e-001
   outer loop
     vertex -3.280938e-001 -1.815000e+000 -4.316719e+000
     vertex -3.083011e-001 -1.815000e+000 -4.296926e+000
     vertex -3.083011e-001 -2.940000e+000 -4.296926e+000
   endloop
 endfacet
 facet normal  1.119645e-001  0.000000e+000  9.937122e-001
   outer loop
     vertex -3.782149e-001 -1.815000e+000 -4.097124e+000
     vertex -4.060300e-001 -1.815000e+000 -4.093990e+000
     vertex -4.060300e-001 -2.940000e+000 -4.093990e+000
   endloop
 endfacet
 facet normal  1.119645e-001  5.594881e-018  9.937122e-001
   outer loop
     vertex -3.782149e-001 -1.815000e+000 -4.097124e+000
     vertex -4.060300e-001 -2.940000e+000 -4.093990e+000
     vertex -3.782149e-001 -2.940000e+000 -4.097124e+000
   endloop
 endfacet
 facet normal  5.320321e-001  0.000000e+000 -8.467242e-001
   outer loop
     vertex -3.517945e-001 -1.815000e+000 -4.331611e+000
     vertex -3.280938e-001 -2.940000e+000 -4.316719e+000
     vertex -3.517945e-001 -2.940000e+000 -4.331611e+000
   endloop
 endfacet
 facet normal  5.320321e-001  0.000000e+000 -8.467242e-001
   outer loop
     vertex -3.517945e-001 -1.815000e+000 -4.331611e+000
     vertex -3.280938e-001 -1.815000e+000 -4.316719e+000
     vertex -3.280938e-001 -2.940000e+000 -4.316719e+000
   endloop
 endfacet
 facet normal  3.302791e-001  1.721502e-017  9.438833e-001
   outer loop
     vertex -3.517945e-001 -1.815000e+000 -4.106369e+000
     vertex -3.782149e-001 -2.940000e+000 -4.097124e+000
     vertex -3.517945e-001 -2.940000e+000 -4.106369e+000
   endloop
 endfacet
 facet normal  3.302791e-001  1.629704e-017  9.438833e-001
   outer loop
     vertex -3.517945e-001 -1.815000e+000 -4.106369e+000
     vertex -3.782149e-001 -1.815000e+000 -4.097124e+000
     vertex -3.782149e-001 -2.940000e+000 -4.097124e+000
   endloop
 endfacet
 facet normal  3.302791e-001  0.000000e+000 -9.438833e-001
   outer loop
     vertex -3.782149e-001 -1.815000e+000 -4.340856e+000
     vertex -3.517945e-001 -2.940000e+000 -4.331611e+000
     vertex -3.782149e-001 -2.940000e+000 -4.340856e+000
   endloop
 endfacet
 facet normal  3.302791e-001  0.000000e+000 -9.438833e-001
   outer loop
     vertex -3.782149e-001 -1.815000e+000 -4.340856e+000
     vertex -3.517945e-001 -1.815000e+000 -4.331611e+000
     vertex -3.517945e-001 -2.940000e+000 -4.331611e+000
   endloop
 endfacet
 facet normal  5.320321e-001  2.582253e-017  8.467242e-001
   outer loop
     vertex -3.280938e-001 -1.815000e+000 -4.121261e+000
     vertex -3.517945e-001 -2.940000e+000 -4.106369e+000
     vertex -3.280938e-001 -2.940000e+000 -4.121261e+000
   endloop
 endfacet
 facet normal  1.119645e-001  0.000000e+000 -9.937122e-001
   outer loop
     vertex -4.060300e-001 -1.815000e+000 -4.343990e+000
     vertex -3.782149e-001 -2.940000e+000 -4.340856e+000
     vertex -4.060300e-001 -2.940000e+000 -4.343990e+000
   endloop
 endfacet
 facet normal  5.320321e-001  2.625219e-017  8.467242e-001
   outer loop
     vertex -3.280938e-001 -1.815000e+000 -4.121261e+000
     vertex -3.517945e-001 -1.815000e+000 -4.106369e+000
     vertex -3.517945e-001 -2.940000e+000 -4.106369e+000
   endloop
 endfacet
 facet normal  1.119645e-001  0.000000e+000 -9.937122e-001
   outer loop
     vertex -4.060300e-001 -1.815000e+000 -4.343990e+000
     vertex -3.782149e-001 -1.815000e+000 -4.340856e+000
     vertex -3.782149e-001 -2.940000e+000 -4.340856e+000
   endloop
 endfacet
 facet normal  7.071068e-001  0.000000e+000  7.071068e-001
   outer loop
     vertex -3.083011e-001 -1.815000e+000 -4.141054e+000
     vertex -3.280938e-001 -2.940000e+000 -4.121261e+000
     vertex -3.083011e-001 -2.940000e+000 -4.141054e+000
   endloop
 endfacet
 facet normal  7.071068e-001  3.489094e-017  7.071068e-001
   outer loop
     vertex -3.083011e-001 -1.815000e+000 -4.141054e+000
     vertex -3.280938e-001 -1.815000e+000 -4.121261e+000
     vertex -3.280938e-001 -2.940000e+000 -4.121261e+000
   endloop
 endfacet
 facet normal  8.467242e-001 -4.200465e-016  5.320321e-001
   outer loop
     vertex -2.934089e-001 -1.815000e+000 -4.164755e+000
     vertex -3.083011e-001 -2.940000e+000 -4.141054e+000
     vertex -2.934089e-001 -2.940000e+000 -4.164755e+000
   endloop
 endfacet
 facet normal  8.467242e-001  0.000000e+000  5.320321e-001
   outer loop
     vertex -2.934089e-001 -1.815000e+000 -4.164755e+000
     vertex -3.083011e-001 -1.815000e+000 -4.141054e+000
     vertex -3.083011e-001 -2.940000e+000 -4.141054e+000
   endloop
 endfacet
 facet normal  9.438833e-001 -2.616683e-016  3.302791e-001
   outer loop
     vertex -2.841640e-001 -1.815000e+000 -4.191175e+000
     vertex -2.934089e-001 -2.940000e+000 -4.164755e+000
     vertex -2.841640e-001 -2.940000e+000 -4.191175e+000
   endloop
 endfacet
 facet normal  9.438833e-001 -2.607527e-016  3.302791e-001
   outer loop
     vertex -2.841640e-001 -1.815000e+000 -4.191175e+000
     vertex -2.934089e-001 -1.815000e+000 -4.164755e+000
     vertex -2.934089e-001 -2.940000e+000 -4.164755e+000
   endloop
 endfacet
 facet normal  9.937122e-001  0.000000e+000  1.119645e-001
   outer loop
     vertex -2.810300e-001 -1.815000e+000 -4.218990e+000
     vertex -2.841640e-001 -2.940000e+000 -4.191175e+000
     vertex -2.810300e-001 -2.940000e+000 -4.218990e+000
   endloop
 endfacet
 facet normal  9.937122e-001 -8.839505e-017  1.119645e-001
   outer loop
     vertex -2.810300e-001 -1.815000e+000 -4.218990e+000
     vertex -2.841640e-001 -1.815000e+000 -4.191175e+000
     vertex -2.841640e-001 -2.940000e+000 -4.191175e+000
   endloop
 endfacet
 facet normal  9.937122e-001  0.000000e+000 -1.119645e-001
   outer loop
     vertex -2.841640e-001 -1.815000e+000 -4.246805e+000
     vertex -2.810300e-001 -2.940000e+000 -4.218990e+000
     vertex -2.841640e-001 -2.940000e+000 -4.246805e+000
   endloop
 endfacet
 facet normal  9.937122e-001  0.000000e+000 -1.119645e-001
   outer loop
     vertex -2.841640e-001 -1.815000e+000 -4.246805e+000
     vertex -2.810300e-001 -1.815000e+000 -4.218990e+000
     vertex -2.810300e-001 -2.940000e+000 -4.218990e+000
   endloop
 endfacet
 facet normal  9.438833e-001  0.000000e+000 -3.302791e-001
   outer loop
     vertex -2.934089e-001 -1.815000e+000 -4.273225e+000
     vertex -2.841640e-001 -2.940000e+000 -4.246805e+000
     vertex -2.934089e-001 -2.940000e+000 -4.273225e+000
   endloop
 endfacet
 facet normal  9.438833e-001  0.000000e+000 -3.302791e-001
   outer loop
     vertex -2.934089e-001 -1.815000e+000 -4.273225e+000
     vertex -2.841640e-001 -1.815000e+000 -4.246805e+000
     vertex -2.841640e-001 -2.940000e+000 -4.246805e+000
   endloop
 endfacet
 facet normal  8.467242e-001 -4.131604e-017 -5.320321e-001
   outer loop
     vertex -3.083011e-001 -1.815000e+000 -4.296926e+000
     vertex -2.934089e-001 -2.940000e+000 -4.273225e+000
     vertex -3.083011e-001 -2.940000e+000 -4.296926e+000
   endloop
 endfacet
 facet normal -8.467242e-001  4.200350e-016  5.320321e-001
   outer loop
     vertex -5.037589e-001 -1.815000e+000 -4.141054e+000
     vertex -5.186511e-001 -1.815000e+000 -4.164755e+000
     vertex -5.186511e-001 -2.940000e+000 -4.164755e+000
   endloop
 endfacet
 facet normal -7.071068e-001 -3.615154e-017  7.071068e-001
   outer loop
     vertex -4.839662e-001 -1.815000e+000 -4.121261e+000
     vertex -5.037589e-001 -2.940000e+000 -4.141054e+000
     vertex -4.839662e-001 -2.940000e+000 -4.121261e+000
   endloop
 endfacet
 facet normal -7.071068e-001  0.000000e+000  7.071068e-001
   outer loop
     vertex -4.839662e-001 -1.815000e+000 -4.121261e+000
     vertex -5.037589e-001 -1.815000e+000 -4.141054e+000
     vertex -5.037589e-001 -2.940000e+000 -4.141054e+000
   endloop
 endfacet
 facet normal -1.119645e-001 -0.000000e+000 -9.937122e-001
   outer loop
     vertex -4.338451e-001 -1.815000e+000 -4.340856e+000
     vertex -4.060300e-001 -1.815000e+000 -4.343990e+000
     vertex -4.060300e-001 -2.940000e+000 -4.343990e+000
   endloop
 endfacet
 facet normal -1.119645e-001  0.000000e+000 -9.937122e-001
   outer loop
     vertex -4.338451e-001 -1.815000e+000 -4.340856e+000
     vertex -4.060300e-001 -2.940000e+000 -4.343990e+000
     vertex -4.338451e-001 -2.940000e+000 -4.340856e+000
   endloop
 endfacet
 facet normal -5.320321e-001 -2.582253e-017  8.467242e-001
   outer loop
     vertex -4.602655e-001 -1.815000e+000 -4.106369e+000
     vertex -4.839662e-001 -2.940000e+000 -4.121261e+000
     vertex -4.602655e-001 -2.940000e+000 -4.106369e+000
   endloop
 endfacet
 facet normal -5.320321e-001 -2.625219e-017  8.467242e-001
   outer loop
     vertex -4.602655e-001 -1.815000e+000 -4.106369e+000
     vertex -4.839662e-001 -1.815000e+000 -4.121261e+000
     vertex -4.839662e-001 -2.940000e+000 -4.121261e+000
   endloop
 endfacet
 facet normal -3.302791e-001  0.000000e+000 -9.438833e-001
   outer loop
     vertex -4.602655e-001 -1.815000e+000 -4.331611e+000
     vertex -4.338451e-001 -2.940000e+000 -4.340856e+000
     vertex -4.602655e-001 -2.940000e+000 -4.331611e+000
   endloop
 endfacet
 facet normal -3.302791e-001 -0.000000e+000 -9.438833e-001
   outer loop
     vertex -4.602655e-001 -1.815000e+000 -4.331611e+000
     vertex -4.338451e-001 -1.815000e+000 -4.340856e+000
     vertex -4.338451e-001 -2.940000e+000 -4.340856e+000
   endloop
 endfacet
 facet normal -3.302791e-001 -1.721502e-017  9.438833e-001
   outer loop
     vertex -4.338451e-001 -1.815000e+000 -4.097124e+000
     vertex -4.602655e-001 -2.940000e+000 -4.106369e+000
     vertex -4.338451e-001 -2.940000e+000 -4.097124e+000
   endloop
 endfacet
 facet normal -3.302791e-001 -1.629704e-017  9.438833e-001
   outer loop
     vertex -4.338451e-001 -1.815000e+000 -4.097124e+000
     vertex -4.602655e-001 -1.815000e+000 -4.106369e+000
     vertex -4.602655e-001 -2.940000e+000 -4.106369e+000
   endloop
 endfacet
 facet normal -5.320321e-001  0.000000e+000 -8.467242e-001
   outer loop
     vertex -4.839662e-001 -1.815000e+000 -4.316719e+000
     vertex -4.602655e-001 -2.940000e+000 -4.331611e+000
     vertex -4.839662e-001 -2.940000e+000 -4.316719e+000
   endloop
 endfacet
 facet normal -1.119645e-001  0.000000e+000  9.937122e-001
   outer loop
     vertex -4.060300e-001 -1.815000e+000 -4.093990e+000
     vertex -4.338451e-001 -2.940000e+000 -4.097124e+000
     vertex -4.060300e-001 -2.940000e+000 -4.093990e+000
   endloop
 endfacet
 facet normal -5.320321e-001 -0.000000e+000 -8.467242e-001
   outer loop
     vertex -4.839662e-001 -1.815000e+000 -4.316719e+000
     vertex -4.602655e-001 -1.815000e+000 -4.331611e+000
     vertex -4.602655e-001 -2.940000e+000 -4.331611e+000
   endloop
 endfacet
 facet normal -1.119645e-001 -5.524691e-018  9.937122e-001
   outer loop
     vertex -4.060300e-001 -1.815000e+000 -4.093990e+000
     vertex -4.338451e-001 -1.815000e+000 -4.097124e+000
     vertex -4.338451e-001 -2.940000e+000 -4.097124e+000
   endloop
 endfacet
 facet normal -7.071068e-001  0.000000e+000 -7.071068e-001
   outer loop
     vertex -5.037589e-001 -1.815000e+000 -4.296926e+000
     vertex -4.839662e-001 -2.940000e+000 -4.316719e+000
     vertex -5.037589e-001 -2.940000e+000 -4.296926e+000
   endloop
 endfacet
 facet normal -7.071068e-001 -0.000000e+000 -7.071068e-001
   outer loop
     vertex -5.037589e-001 -1.815000e+000 -4.296926e+000
     vertex -4.839662e-001 -1.815000e+000 -4.316719e+000
     vertex -4.839662e-001 -2.940000e+000 -4.316719e+000
   endloop
 endfacet
 facet normal -8.467242e-001  0.000000e+000 -5.320321e-001
   outer loop
     vertex -5.186511e-001 -1.815000e+000 -4.273225e+000
     vertex -5.037589e-001 -2.940000e+000 -4.296926e+000
     vertex -5.186511e-001 -2.940000e+000 -4.273225e+000
   endloop
 endfacet
 facet normal -8.467242e-001 -0.000000e+000 -5.320321e-001
   outer loop
     vertex -5.186511e-001 -1.815000e+000 -4.273225e+000
     vertex -5.037589e-001 -1.815000e+000 -4.296926e+000
     vertex -5.037589e-001 -2.940000e+000 -4.296926e+000
   endloop
 endfacet
 facet normal -9.438833e-001  0.000000e+000 -3.302791e-001
   outer loop
     vertex -5.278960e-001 -1.815000e+000 -4.246805e+000
     vertex -5.186511e-001 -2.940000e+000 -4.273225e+000
     vertex -5.278960e-001 -2.940000e+000 -4.246805e+000
   endloop
 endfacet
 facet normal -9.438833e-001 -0.000000e+000 -3.302791e-001
   outer loop
     vertex -5.278960e-001 -1.815000e+000 -4.246805e+000
     vertex -5.186511e-001 -1.815000e+000 -4.273225e+000
     vertex -5.186511e-001 -2.940000e+000 -4.273225e+000
   endloop
 endfacet
 facet normal -9.937122e-001  0.000000e+000 -1.119645e-001
   outer loop
     vertex -5.310300e-001 -1.815000e+000 -4.218990e+000
     vertex -5.278960e-001 -2.940000e+000 -4.246805e+000
     vertex -5.310300e-001 -2.940000e+000 -4.218990e+000
   endloop
 endfacet
 facet normal -9.937122e-001 -0.000000e+000 -1.119645e-001
   outer loop
     vertex -5.310300e-001 -1.815000e+000 -4.218990e+000
     vertex -5.278960e-001 -1.815000e+000 -4.246805e+000
     vertex -5.278960e-001 -2.940000e+000 -4.246805e+000
   endloop
 endfacet
 facet normal -9.937122e-001  8.822697e-017  1.119645e-001
   outer loop
     vertex -5.278960e-001 -1.815000e+000 -4.191175e+000
     vertex -5.310300e-001 -2.940000e+000 -4.218990e+000
     vertex -5.278960e-001 -2.940000e+000 -4.191175e+000
   endloop
 endfacet
 facet normal -9.937122e-001  0.000000e+000  1.119645e-001
   outer loop
     vertex -5.278960e-001 -1.815000e+000 -4.191175e+000
     vertex -5.310300e-001 -1.815000e+000 -4.218990e+000
     vertex -5.310300e-001 -2.940000e+000 -4.218990e+000
   endloop
 endfacet
 facet normal -9.438833e-001  2.616683e-016  3.302791e-001
   outer loop
     vertex -5.186511e-001 -1.815000e+000 -4.164755e+000
     vertex -5.278960e-001 -2.940000e+000 -4.191175e+000
     vertex -5.186511e-001 -2.940000e+000 -4.164755e+000
   endloop
 endfacet
 facet normal -9.438833e-001  2.607527e-016  3.302791e-001
   outer loop
     vertex -5.186511e-001 -1.815000e+000 -4.164755e+000
     vertex -5.278960e-001 -1.815000e+000 -4.191175e+000
     vertex -5.278960e-001 -2.940000e+000 -4.191175e+000
   endloop
 endfacet
 facet normal -8.467242e-001  0.000000e+000  5.320321e-001
   outer loop
     vertex -5.037589e-001 -1.815000e+000 -4.141054e+000
     vertex -5.186511e-001 -2.940000e+000 -4.164755e+000
     vertex -5.037589e-001 -2.940000e+000 -4.141054e+000
   endloop
 endfacet
 facet normal  1.000000e+000 -0.000000e+000  0.000000e+000
   outer loop
     vertex -4.410300e-001 -3.190000e+000 -4.093990e+000
     vertex -4.410300e-001 -3.190000e+000 -4.183990e+000
     vertex -4.410300e-001 -3.130000e+000 -4.183990e+000
   endloop
 endfacet
 facet normal  1.000000e+000  0.000000e+000  0.000000e+000
   outer loop
     vertex -4.410300e-001 -3.130000e+000 -4.093990e+000
     vertex -4.410300e-001 -3.190000e+000 -4.093990e+000
     vertex -4.410300e-001 -3.130000e+000 -4.183990e+000
   endloop
 endfacet
 facet normal  0.000000e+000  0.000000e+000 -1.000000e+000
   outer loop
     vertex -4.410300e-001 -3.190000e+000 -4.183990e+000
     vertex -5.280300e-001 -3.190000e+000 -4.183990e+000
     vertex -4.410300e-001 -3.130000e+000 -4.183990e+000
   endloop
 endfacet
 facet normal  0.000000e+000  0.000000e+000 -1.000000e+000
   outer loop
     vertex -5.280300e-001 -3.190000e+000 -4.183990e+000
     vertex -5.280300e-001 -3.130000e+000 -4.183990e+000
     vertex -4.410300e-001 -3.130000e+000 -4.183990e+000
   endloop
 endfacet
 facet normal  1.000000e+000 -0.000000e+000  0.000000e+000
   outer loop
     vertex -5.280300e-001 -3.190000e+000 -4.183990e+000
     vertex -5.280300e-001 -3.190000e+000 -4.259990e+000
     vertex -5.280300e-001 -3.130000e+000 -4.259990e+000
   endloop
 endfacet
 facet normal  1.000000e+000  0.000000e+000  0.000000e+000
   outer loop
     vertex -5.280300e-001 -3.130000e+000 -4.183990e+000
     vertex -5.280300e-001 -3.190000e+000 -4.183990e+000
     vertex -5.280300e-001 -3.130000e+000 -4.259990e+000
   endloop
 endfacet
 facet normal  0.000000e+000  0.000000e+000  1.000000e+000
   outer loop
     vertex -4.410300e-001 -3.130000e+000 -4.259990e+000
     vertex -5.280300e-001 -3.130000e+000 -4.259990e+000
     vertex -4.410300e-001 -3.190000e+000 -4.259990e+000
   endloop
 endfacet
 facet normal -0.000000e+000  0.000000e+000  1.000000e+000
   outer loop
     vertex -5.280300e-001 -3.130000e+000 -4.259990e+000
     vertex -5.280300e-001 -3.190000e+000 -4.259990e+000
     vertex -4.410300e-001 -3.190000e+000 -4.259990e+000
   endloop
 endfacet
 facet normal  1.000000e+000 -0.000000e+000  0.000000e+000
   outer loop
     vertex -4.410300e-001 -3.190000e+000 -4.259990e+000
     vertex -4.410300e-001 -3.190000e+000 -4.346990e+000
     vertex -4.410300e-001 -3.130000e+000 -4.346990e+000
   endloop
 endfacet
 facet normal  1.000000e+000  0.000000e+000  0.000000e+000
   outer loop
     vertex -4.410300e-001 -3.130000e+000 -4.259990e+000
     vertex -4.410300e-001 -3.190000e+000 -4.259990e+000
     vertex -4.410300e-001 -3.130000e+000 -4.346990e+000
   endloop
 endfacet
 facet normal  0.000000e+000  0.000000e+000  1.000000e+000
   outer loop
     vertex -3.650300e-001 -3.130000e+000 -4.346990e+000
     vertex -4.410300e-001 -3.130000e+000 -4.346990e+000
     vertex -3.650300e-001 -3.190000e+000 -4.346990e+000
   endloop
 endfacet
 facet normal -0.000000e+000  0.000000e+000  1.000000e+000
   outer loop
     vertex -4.410300e-001 -3.130000e+000 -4.346990e+000
     vertex -4.410300e-001 -3.190000e+000 -4.346990e+000
     vertex -3.650300e-001 -3.190000e+000 -4.346990e+000
   endloop
 endfacet
 facet normal -1.000000e+000  0.000000e+000  0.000000e+000
   outer loop
     vertex -3.650300e-001 -3.190000e+000 -4.346990e+000
     vertex -3.650300e-001 -3.190000e+000 -4.259990e+000
     vertex -3.650300e-001 -3.130000e+000 -4.259990e+000
   endloop
 endfacet
 facet normal -1.000000e+000  0.000000e+000  0.000000e+000
   outer loop
     vertex -3.650300e-001 -3.130000e+000 -4.346990e+000
     vertex -3.650300e-001 -3.190000e+000 -4.346990e+000
     vertex -3.650300e-001 -3.130000e+000 -4.259990e+000
   endloop
 endfacet
 facet normal  0.000000e+000  0.000000e+000  1.000000e+000
   outer loop
     vertex -2.780300e-001 -3.130000e+000 -4.259990e+000
     vertex -3.650300e-001 -3.130000e+000 -4.259990e+000
     vertex -2.780300e-001 -3.190000e+000 -4.259990e+000
   endloop
 endfacet
 facet normal -0.000000e+000  0.000000e+000  1.000000e+000
   outer loop
     vertex -3.650300e-001 -3.130000e+000 -4.259990e+000
     vertex -3.650300e-001 -3.190000e+000 -4.259990e+000
     vertex -2.780300e-001 -3.190000e+000 -4.259990e+000
   endloop
 endfacet
 facet normal -1.000000e+000  0.000000e+000  0.000000e+000
   outer loop
     vertex -2.780300e-001 -3.190000e+000 -4.259990e+000
     vertex -2.780300e-001 -3.190000e+000 -4.183990e+000
     vertex -2.780300e-001 -3.130000e+000 -4.183990e+000
   endloop
 endfacet
 facet normal -1.000000e+000  0.000000e+000  0.000000e+000
   outer loop
     vertex -2.780300e-001 -3.130000e+000 -4.259990e+000
     vertex -2.780300e-001 -3.190000e+000 -4.259990e+000
     vertex -2.780300e-001 -3.130000e+000 -4.183990e+000
   endloop
 endfacet
 facet normal  0.000000e+000  0.000000e+000 -1.000000e+000
   outer loop
     vertex -2.780300e-001 -3.190000e+000 -4.183990e+000
     vertex -3.680300e-001 -3.190000e+000 -4.183990e+000
     vertex -2.780300e-001 -3.130000e+000 -4.183990e+000
   endloop
 endfacet
 facet normal  0.000000e+000  0.000000e+000 -1.000000e+000
   outer loop
     vertex -3.680300e-001 -3.190000e+000 -4.183990e+000
     vertex -3.680300e-001 -3.130000e+000 -4.183990e+000
     vertex -2.780300e-001 -3.130000e+000 -4.183990e+000
   endloop
 endfacet
 facet normal -1.000000e+000  0.000000e+000  0.000000e+000
   outer loop
     vertex -3.680300e-001 -3.190000e+000 -4.183990e+000
     vertex -3.680300e-001 -3.190000e+000 -4.093990e+000
     vertex -3.680300e-001 -3.130000e+000 -4.093990e+000
   endloop
 endfacet
 facet normal -1.000000e+000  0.000000e+000  0.000000e+000
   outer loop
     vertex -3.680300e-001 -3.130000e+000 -4.183990e+000
     vertex -3.680300e-001 -3.190000e+000 -4.183990e+000
     vertex -3.680300e-001 -3.130000e+000 -4.093990e+000
   endloop
 endfacet
 facet normal  0.000000e+000  0.000000e+000 -1.000000e+000
   outer loop
     vertex -3.680300e-001 -3.190000e+000 -4.093990e+000
     vertex -4.410300e-001 -3.190000e+000 -4.093990e+000
     vertex -3.680300e-001 -3.130000e+000 -4.093990e+000
   endloop
 endfacet
 facet normal  0.000000e+000  0.000000e+000 -1.000000e+000
   outer loop
     vertex -4.410300e-001 -3.190000e+000 -4.093990e+000
     vertex -4.410300e-001 -3.130000e+000 -4.093990e+000
     vertex -3.680300e-001 -3.130000e+000 -4.093990e+000
   endloop
 endfacet
 facet normal  0.000000e+000  1.000000e+000 -0.000000e+000
   outer loop
     vertex -4.839662e-001 -2.940000e+000 -4.121261e+000
     vertex -5.265527e-001 -2.940000e+000 -4.075357e+000
     vertex -4.997800e-001 -2.940000e+000 -4.056610e+000
   endloop
 endfacet
 facet normal  0.000000e+000  1.000000e+000 -0.000000e+000
   outer loop
     vertex -5.037589e-001 -2.940000e+000 -4.141054e+000
     vertex -5.684098e-001 -2.940000e+000 -4.125240e+000
     vertex -5.496633e-001 -2.940000e+000 -4.098467e+000
   endloop
 endfacet
 facet normal  0.000000e+000  1.000000e+000 -0.000000e+000
   outer loop
     vertex -5.037589e-001 -2.940000e+000 -4.141054e+000
     vertex -5.496633e-001 -2.940000e+000 -4.098467e+000
     vertex -5.265527e-001 -2.940000e+000 -4.075357e+000
   endloop
 endfacet
 facet normal -0.000000e+000  1.000000e+000 -0.000000e+000
   outer loop
     vertex -5.037589e-001 -2.940000e+000 -4.141054e+000
     vertex -5.265527e-001 -2.940000e+000 -4.075357e+000
     vertex -4.839662e-001 -2.940000e+000 -4.121261e+000
   endloop
 endfacet
 facet normal  0.000000e+000  1.000000e+000 -0.000000e+000
   outer loop
     vertex -4.602655e-001 -2.940000e+000 -4.106369e+000
     vertex -4.997800e-001 -2.940000e+000 -4.056610e+000
     vertex -4.701588e-001 -2.940000e+000 -4.042798e+000
   endloop
 endfacet
 facet normal  0.000000e+000  1.000000e+000  0.000000e+000
   outer loop
     vertex -4.602655e-001 -2.940000e+000 -4.106369e+000
     vertex -4.839662e-001 -2.940000e+000 -4.121261e+000
     vertex -4.997800e-001 -2.940000e+000 -4.056610e+000
   endloop
 endfacet
 facet normal  0.000000e+000  1.000000e+000 -0.000000e+000
   outer loop
     vertex -5.186511e-001 -2.940000e+000 -4.164755e+000
     vertex -5.822224e-001 -2.940000e+000 -4.154861e+000
     vertex -5.684098e-001 -2.940000e+000 -4.125240e+000
   endloop
 endfacet
 facet normal -0.000000e+000  1.000000e+000 -0.000000e+000
   outer loop
     vertex -5.186511e-001 -2.940000e+000 -4.164755e+000
     vertex -5.684098e-001 -2.940000e+000 -4.125240e+000
     vertex -5.037589e-001 -2.940000e+000 -4.141054e+000
   endloop
 endfacet
 facet normal  0.000000e+000  1.000000e+000 -0.000000e+000
   outer loop
     vertex -4.338451e-001 -2.940000e+000 -4.097124e+000
     vertex -4.701588e-001 -2.940000e+000 -4.042798e+000
     vertex -4.385890e-001 -2.940000e+000 -4.034339e+000
   endloop
 endfacet
 facet normal  0.000000e+000  1.000000e+000  0.000000e+000
   outer loop
     vertex -4.338451e-001 -2.940000e+000 -4.097124e+000
     vertex -4.602655e-001 -2.940000e+000 -4.106369e+000
     vertex -4.701588e-001 -2.940000e+000 -4.042798e+000
   endloop
 endfacet
 facet normal  0.000000e+000  1.000000e+000 -0.000000e+000
   outer loop
     vertex -5.278960e-001 -2.940000e+000 -4.191175e+000
     vertex -5.906815e-001 -2.940000e+000 -4.186431e+000
     vertex -5.822224e-001 -2.940000e+000 -4.154861e+000
   endloop
 endfacet
 facet normal -0.000000e+000  1.000000e+000 -0.000000e+000
   outer loop
     vertex -5.278960e-001 -2.940000e+000 -4.191175e+000
     vertex -5.822224e-001 -2.940000e+000 -4.154861e+000
     vertex -5.186511e-001 -2.940000e+000 -4.164755e+000
   endloop
 endfacet
 facet normal -0.000000e+000  1.000000e+000  0.000000e+000
   outer loop
     vertex -4.060300e-001 -2.940000e+000 -4.093990e+000
     vertex -4.060300e-001 -2.940000e+000 -4.031490e+000
     vertex -3.734710e-001 -2.940000e+000 -4.034339e+000
   endloop
 endfacet
 facet normal  0.000000e+000  1.000000e+000 -0.000000e+000
   outer loop
     vertex -4.060300e-001 -2.940000e+000 -4.093990e+000
     vertex -4.385890e-001 -2.940000e+000 -4.034339e+000
     vertex -4.060300e-001 -2.940000e+000 -4.031490e+000
   endloop
 endfacet
 facet normal  0.000000e+000  1.000000e+000  0.000000e+000
   outer loop
     vertex -4.060300e-001 -2.940000e+000 -4.093990e+000
     vertex -4.338451e-001 -2.940000e+000 -4.097124e+000
     vertex -4.385890e-001 -2.940000e+000 -4.034339e+000
   endloop
 endfacet
 facet normal -0.000000e+000  1.000000e+000 -0.000000e+000
   outer loop
     vertex -5.310300e-001 -2.940000e+000 -4.218990e+000
     vertex -5.906815e-001 -2.940000e+000 -4.186431e+000
     vertex -5.278960e-001 -2.940000e+000 -4.191175e+000
   endloop
 endfacet
 facet normal  0.000000e+000  1.000000e+000  0.000000e+000
   outer loop
     vertex -5.310300e-001 -2.940000e+000 -4.218990e+000
     vertex -5.906815e-001 -2.940000e+000 -4.251549e+000
     vertex -5.935300e-001 -2.940000e+000 -4.218990e+000
   endloop
 endfacet
 facet normal  0.000000e+000  1.000000e+000 -0.000000e+000
   outer loop
     vertex -5.310300e-001 -2.940000e+000 -4.218990e+000
     vertex -5.935300e-001 -2.940000e+000 -4.218990e+000
     vertex -5.906815e-001 -2.940000e+000 -4.186431e+000
   endloop
 endfacet
 facet normal  0.000000e+000  1.000000e+000 -0.000000e+000
   outer loop
     vertex -3.782149e-001 -2.940000e+000 -4.097124e+000
     vertex -4.060300e-001 -2.940000e+000 -4.093990e+000
     vertex -3.734710e-001 -2.940000e+000 -4.034339e+000
   endloop
 endfacet
 facet normal -0.000000e+000  1.000000e+000  0.000000e+000
   outer loop
     vertex -3.782149e-001 -2.940000e+000 -4.097124e+000
     vertex -3.734710e-001 -2.940000e+000 -4.034339e+000
     vertex -3.419012e-001 -2.940000e+000 -4.042798e+000
   endloop
 endfacet
 facet normal  0.000000e+000  1.000000e+000 -0.000000e+000
   outer loop
     vertex -5.278960e-001 -2.940000e+000 -4.246805e+000
     vertex -5.906815e-001 -2.940000e+000 -4.251549e+000
     vertex -5.310300e-001 -2.940000e+000 -4.218990e+000
   endloop
 endfacet
 facet normal  0.000000e+000  1.000000e+000  0.000000e+000
   outer loop
     vertex -5.278960e-001 -2.940000e+000 -4.246805e+000
     vertex -5.822224e-001 -2.940000e+000 -4.283119e+000
     vertex -5.906815e-001 -2.940000e+000 -4.251549e+000
   endloop
 endfacet
 facet normal  0.000000e+000  1.000000e+000 -0.000000e+000
   outer loop
     vertex -3.517945e-001 -2.940000e+000 -4.106369e+000
     vertex -3.782149e-001 -2.940000e+000 -4.097124e+000
     vertex -3.419012e-001 -2.940000e+000 -4.042798e+000
   endloop
 endfacet
 facet normal -0.000000e+000  1.000000e+000  0.000000e+000
   outer loop
     vertex -3.517945e-001 -2.940000e+000 -4.106369e+000
     vertex -3.419012e-001 -2.940000e+000 -4.042798e+000
     vertex -3.122800e-001 -2.940000e+000 -4.056610e+000
   endloop
 endfacet
 facet normal  0.000000e+000  1.000000e+000 -0.000000e+000
   outer loop
     vertex -5.186511e-001 -2.940000e+000 -4.273225e+000
     vertex -5.822224e-001 -2.940000e+000 -4.283119e+000
     vertex -5.278960e-001 -2.940000e+000 -4.246805e+000
   endloop
 endfacet
 facet normal  0.000000e+000  1.000000e+000  0.000000e+000
   outer loop
     vertex -5.186511e-001 -2.940000e+000 -4.273225e+000
     vertex -5.684098e-001 -2.940000e+000 -4.312740e+000
     vertex -5.822224e-001 -2.940000e+000 -4.283119e+000
   endloop
 endfacet
 facet normal  0.000000e+000  1.000000e+000 -0.000000e+000
   outer loop
     vertex -3.280938e-001 -2.940000e+000 -4.121261e+000
     vertex -3.517945e-001 -2.940000e+000 -4.106369e+000
     vertex -3.122800e-001 -2.940000e+000 -4.056610e+000
   endloop
 endfacet
 facet normal -0.000000e+000  1.000000e+000  0.000000e+000
   outer loop
     vertex -3.280938e-001 -2.940000e+000 -4.121261e+000
     vertex -3.122800e-001 -2.940000e+000 -4.056610e+000
     vertex -2.855073e-001 -2.940000e+000 -4.075357e+000
   endloop
 endfacet
 facet normal  0.000000e+000  1.000000e+000 -0.000000e+000
   outer loop
     vertex -5.037589e-001 -2.940000e+000 -4.296926e+000
     vertex -5.684098e-001 -2.940000e+000 -4.312740e+000
     vertex -5.186511e-001 -2.940000e+000 -4.273225e+000
   endloop
 endfacet
 facet normal  0.000000e+000  1.000000e+000  0.000000e+000
   outer loop
     vertex -5.037589e-001 -2.940000e+000 -4.296926e+000
     vertex -5.496633e-001 -2.940000e+000 -4.339513e+000
     vertex -5.684098e-001 -2.940000e+000 -4.312740e+000
   endloop
 endfacet
 facet normal  0.000000e+000  1.000000e+000 -0.000000e+000
   outer loop
     vertex -4.839662e-001 -2.940000e+000 -4.316719e+000
     vertex -5.496633e-001 -2.940000e+000 -4.339513e+000
     vertex -5.037589e-001 -2.940000e+000 -4.296926e+000
   endloop
 endfacet
 facet normal  0.000000e+000  1.000000e+000 -0.000000e+000
   outer loop
     vertex -2.623967e-001 -2.940000e+000 -4.098467e+000
     vertex -3.280938e-001 -2.940000e+000 -4.121261e+000
     vertex -2.855073e-001 -2.940000e+000 -4.075357e+000
   endloop
 endfacet
 facet normal  0.000000e+000  1.000000e+000  0.000000e+000
   outer loop
     vertex -2.623967e-001 -2.940000e+000 -4.098467e+000
     vertex -3.083011e-001 -2.940000e+000 -4.141054e+000
     vertex -3.280938e-001 -2.940000e+000 -4.121261e+000
   endloop
 endfacet
 facet normal  0.000000e+000  1.000000e+000 -0.000000e+000
   outer loop
     vertex -5.265527e-001 -2.940000e+000 -4.362623e+000
     vertex -5.496633e-001 -2.940000e+000 -4.339513e+000
     vertex -4.839662e-001 -2.940000e+000 -4.316719e+000
   endloop
 endfacet
 facet normal  0.000000e+000  1.000000e+000 -0.000000e+000
   outer loop
     vertex -2.436502e-001 -2.940000e+000 -4.125240e+000
     vertex -3.083011e-001 -2.940000e+000 -4.141054e+000
     vertex -2.623967e-001 -2.940000e+000 -4.098467e+000
   endloop
 endfacet
 facet normal  0.000000e+000  1.000000e+000  0.000000e+000
   outer loop
     vertex -2.436502e-001 -2.940000e+000 -4.125240e+000
     vertex -2.934089e-001 -2.940000e+000 -4.164755e+000
     vertex -3.083011e-001 -2.940000e+000 -4.141054e+000
   endloop
 endfacet
 facet normal -0.000000e+000  1.000000e+000  0.000000e+000
   outer loop
     vertex -4.997800e-001 -2.940000e+000 -4.381370e+000
     vertex -4.839662e-001 -2.940000e+000 -4.316719e+000
     vertex -4.602655e-001 -2.940000e+000 -4.331611e+000
   endloop
 endfacet
 facet normal  0.000000e+000  1.000000e+000 -0.000000e+000
   outer loop
     vertex -4.997800e-001 -2.940000e+000 -4.381370e+000
     vertex -5.265527e-001 -2.940000e+000 -4.362623e+000
     vertex -4.839662e-001 -2.940000e+000 -4.316719e+000
   endloop
 endfacet
 facet normal  0.000000e+000  1.000000e+000 -0.000000e+000
   outer loop
     vertex -2.298376e-001 -2.940000e+000 -4.154861e+000
     vertex -2.934089e-001 -2.940000e+000 -4.164755e+000
     vertex -2.436502e-001 -2.940000e+000 -4.125240e+000
   endloop
 endfacet
 facet normal  0.000000e+000  1.000000e+000  0.000000e+000
   outer loop
     vertex -2.298376e-001 -2.940000e+000 -4.154861e+000
     vertex -2.841640e-001 -2.940000e+000 -4.191175e+000
     vertex -2.934089e-001 -2.940000e+000 -4.164755e+000
   endloop
 endfacet
 facet normal -0.000000e+000  1.000000e+000  0.000000e+000
   outer loop
     vertex -4.701588e-001 -2.940000e+000 -4.395182e+000
     vertex -4.602655e-001 -2.940000e+000 -4.331611e+000
     vertex -4.338451e-001 -2.940000e+000 -4.340856e+000
   endloop
 endfacet
 facet normal  0.000000e+000  1.000000e+000 -0.000000e+000
   outer loop
     vertex -4.701588e-001 -2.940000e+000 -4.395182e+000
     vertex -4.997800e-001 -2.940000e+000 -4.381370e+000
     vertex -4.602655e-001 -2.940000e+000 -4.331611e+000
   endloop
 endfacet
 facet normal  0.000000e+000  1.000000e+000  0.000000e+000
   outer loop
     vertex -2.213785e-001 -2.940000e+000 -4.186431e+000
     vertex -2.810300e-001 -2.940000e+000 -4.218990e+000
     vertex -2.841640e-001 -2.940000e+000 -4.191175e+000
   endloop
 endfacet
 facet normal  0.000000e+000  1.000000e+000 -0.000000e+000
   outer loop
     vertex -2.213785e-001 -2.940000e+000 -4.186431e+000
     vertex -2.841640e-001 -2.940000e+000 -4.191175e+000
     vertex -2.298376e-001 -2.940000e+000 -4.154861e+000
   endloop
 endfacet
 facet normal -0.000000e+000  1.000000e+000  0.000000e+000
   outer loop
     vertex -4.385890e-001 -2.940000e+000 -4.403641e+000
     vertex -4.338451e-001 -2.940000e+000 -4.340856e+000
     vertex -4.060300e-001 -2.940000e+000 -4.343990e+000
   endloop
 endfacet
 facet normal  0.000000e+000  1.000000e+000 -0.000000e+000
   outer loop
     vertex -4.385890e-001 -2.940000e+000 -4.403641e+000
     vertex -4.701588e-001 -2.940000e+000 -4.395182e+000
     vertex -4.338451e-001 -2.940000e+000 -4.340856e+000
   endloop
 endfacet
 facet normal  0.000000e+000  1.000000e+000 -0.000000e+000
   outer loop
     vertex -2.185300e-001 -2.940000e+000 -4.218990e+000
     vertex -2.810300e-001 -2.940000e+000 -4.218990e+000
     vertex -2.213785e-001 -2.940000e+000 -4.186431e+000
   endloop
 endfacet
 facet normal  0.000000e+000  1.000000e+000 -0.000000e+000
   outer loop
     vertex -4.060300e-001 -2.940000e+000 -4.406490e+000
     vertex -4.385890e-001 -2.940000e+000 -4.403641e+000
     vertex -4.060300e-001 -2.940000e+000 -4.343990e+000
   endloop
 endfacet
 facet normal  0.000000e+000  1.000000e+000 -0.000000e+000
   outer loop
     vertex -2.213785e-001 -2.940000e+000 -4.251549e+000
     vertex -2.841640e-001 -2.940000e+000 -4.246805e+000
     vertex -2.810300e-001 -2.940000e+000 -4.218990e+000
   endloop
 endfacet
 facet normal  0.000000e+000  1.000000e+000 -0.000000e+000
   outer loop
     vertex -2.213785e-001 -2.940000e+000 -4.251549e+000
     vertex -2.810300e-001 -2.940000e+000 -4.218990e+000
     vertex -2.185300e-001 -2.940000e+000 -4.218990e+000
   endloop
 endfacet
 facet normal  0.000000e+000  1.000000e+000 -0.000000e+000
   outer loop
     vertex -3.734710e-001 -2.940000e+000 -4.403641e+000
     vertex -4.060300e-001 -2.940000e+000 -4.343990e+000
     vertex -3.782149e-001 -2.940000e+000 -4.340856e+000
   endloop
 endfacet
 facet normal  0.000000e+000  1.000000e+000 -0.000000e+000
   outer loop
     vertex -3.734710e-001 -2.940000e+000 -4.403641e+000
     vertex -4.060300e-001 -2.940000e+000 -4.406490e+000
     vertex -4.060300e-001 -2.940000e+000 -4.343990e+000
   endloop
 endfacet
 facet normal  0.000000e+000  1.000000e+000 -0.000000e+000
   outer loop
     vertex -2.298376e-001 -2.940000e+000 -4.283119e+000
     vertex -2.934089e-001 -2.940000e+000 -4.273225e+000
     vertex -2.841640e-001 -2.940000e+000 -4.246805e+000
   endloop
 endfacet
 facet normal -0.000000e+000  1.000000e+000 -0.000000e+000
   outer loop
     vertex -2.298376e-001 -2.940000e+000 -4.283119e+000
     vertex -2.841640e-001 -2.940000e+000 -4.246805e+000
     vertex -2.213785e-001 -2.940000e+000 -4.251549e+000
   endloop
 endfacet
 facet normal  0.000000e+000  1.000000e+000 -0.000000e+000
   outer loop
     vertex -3.419012e-001 -2.940000e+000 -4.395182e+000
     vertex -3.782149e-001 -2.940000e+000 -4.340856e+000
     vertex -3.517945e-001 -2.940000e+000 -4.331611e+000
   endloop
 endfacet
 facet normal  0.000000e+000  1.000000e+000  0.000000e+000
   outer loop
     vertex -3.419012e-001 -2.940000e+000 -4.395182e+000
     vertex -3.734710e-001 -2.940000e+000 -4.403641e+000
     vertex -3.782149e-001 -2.940000e+000 -4.340856e+000
   endloop
 endfacet
 facet normal  0.000000e+000  1.000000e+000 -0.000000e+000
   outer loop
     vertex -2.436502e-001 -2.940000e+000 -4.312740e+000
     vertex -3.083011e-001 -2.940000e+000 -4.296926e+000
     vertex -2.934089e-001 -2.940000e+000 -4.273225e+000
   endloop
 endfacet
 facet normal -0.000000e+000  1.000000e+000 -0.000000e+000
   outer loop
     vertex -2.436502e-001 -2.940000e+000 -4.312740e+000
     vertex -2.934089e-001 -2.940000e+000 -4.273225e+000
     vertex -2.298376e-001 -2.940000e+000 -4.283119e+000
   endloop
 endfacet
 facet normal  0.000000e+000  1.000000e+000 -0.000000e+000
   outer loop
     vertex -3.122800e-001 -2.940000e+000 -4.381370e+000
     vertex -3.517945e-001 -2.940000e+000 -4.331611e+000
     vertex -3.280938e-001 -2.940000e+000 -4.316719e+000
   endloop
 endfacet
 facet normal  0.000000e+000  1.000000e+000  0.000000e+000
   outer loop
     vertex -3.122800e-001 -2.940000e+000 -4.381370e+000
     vertex -3.419012e-001 -2.940000e+000 -4.395182e+000
     vertex -3.517945e-001 -2.940000e+000 -4.331611e+000
   endloop
 endfacet
 facet normal  0.000000e+000  1.000000e+000 -0.000000e+000
   outer loop
     vertex -2.855073e-001 -2.940000e+000 -4.362623e+000
     vertex -3.280938e-001 -2.940000e+000 -4.316719e+000
     vertex -3.083011e-001 -2.940000e+000 -4.296926e+000
   endloop
 endfacet
 facet normal  0.000000e+000  1.000000e+000  0.000000e+000
   outer loop
     vertex -2.855073e-001 -2.940000e+000 -4.362623e+000
     vertex -3.122800e-001 -2.940000e+000 -4.381370e+000
     vertex -3.280938e-001 -2.940000e+000 -4.316719e+000
   endloop
 endfacet
 facet normal  0.000000e+000  1.000000e+000  0.000000e+000
   outer loop
     vertex -2.623967e-001 -2.940000e+000 -4.339513e+000
     vertex -2.855073e-001 -2.940000e+000 -4.362623e+000
     vertex -3.083011e-001 -2.940000e+000 -4.296926e+000
   endloop
 endfacet
 facet normal -0.000000e+000  1.000000e+000 -0.000000e+000
   outer loop
     vertex -2.623967e-001 -2.940000e+000 -4.339513e+000
     vertex -3.083011e-001 -2.940000e+000 -4.296926e+000
     vertex -2.436502e-001 -2.940000e+000 -4.312740e+000
   endloop
 endfacet
 facet normal -0.000000e+000 -1.000000e+000 -0.000000e+000
   outer loop
     vertex -4.410300e-001 -3.190000e+000 -4.259990e+000
     vertex -5.280300e-001 -3.190000e+000 -4.259990e+000
     vertex -4.410300e-001 -3.190000e+000 -4.346990e+000
   endloop
 endfacet
 facet normal  0.000000e+000 -1.000000e+000 -0.000000e+000
   outer loop
     vertex -2.185300e-001 -3.190000e+000 -4.218990e+000
     vertex -2.780300e-001 -3.190000e+000 -4.259990e+000
     vertex -2.213785e-001 -3.190000e+000 -4.251549e+000
   endloop
 endfacet
 facet normal -0.000000e+000 -1.000000e+000 -0.000000e+000
   outer loop
     vertex -2.185300e-001 -3.190000e+000 -4.218990e+000
     vertex -2.780300e-001 -3.190000e+000 -4.183990e+000
     vertex -2.780300e-001 -3.190000e+000 -4.259990e+000
   endloop
 endfacet
 facet normal -0.000000e+000 -1.000000e+000 -0.000000e+000
   outer loop
     vertex -3.122800e-001 -3.190000e+000 -4.381370e+000
     vertex -3.650300e-001 -3.190000e+000 -4.346990e+000
     vertex -3.419012e-001 -3.190000e+000 -4.395182e+000
   endloop
 endfacet
 facet normal  0.000000e+000 -1.000000e+000 -0.000000e+000
   outer loop
     vertex -4.060300e-001 -3.190000e+000 -4.031490e+000
     vertex -4.410300e-001 -3.190000e+000 -4.093990e+000
     vertex -3.680300e-001 -3.190000e+000 -4.093990e+000
   endloop
 endfacet
 facet normal  0.000000e+000 -1.000000e+000  0.000000e+000
   outer loop
     vertex -4.060300e-001 -3.190000e+000 -4.031490e+000
     vertex -4.385890e-001 -3.190000e+000 -4.034339e+000
     vertex -4.410300e-001 -3.190000e+000 -4.093990e+000
   endloop
 endfacet
 facet normal  0.000000e+000 -1.000000e+000 -0.000000e+000
   outer loop
     vertex -5.684098e-001 -3.190000e+000 -4.125240e+000
     vertex -5.822224e-001 -3.190000e+000 -4.154861e+000
     vertex -5.280300e-001 -3.190000e+000 -4.183990e+000
   endloop
 endfacet
 facet normal -0.000000e+000 -1.000000e+000 -0.000000e+000
   outer loop
     vertex -2.213785e-001 -3.190000e+000 -4.186431e+000
     vertex -2.780300e-001 -3.190000e+000 -4.183990e+000
     vertex -2.185300e-001 -3.190000e+000 -4.218990e+000
   endloop
 endfacet
 facet normal -0.000000e+000 -1.000000e+000 -0.000000e+000
   outer loop
     vertex -2.855073e-001 -3.190000e+000 -4.362623e+000
     vertex -3.650300e-001 -3.190000e+000 -4.346990e+000
     vertex -3.122800e-001 -3.190000e+000 -4.381370e+000
   endloop
 endfacet
 facet normal -0.000000e+000 -1.000000e+000 -0.000000e+000
   outer loop
     vertex -3.734710e-001 -3.190000e+000 -4.034339e+000
     vertex -4.060300e-001 -3.190000e+000 -4.031490e+000
     vertex -3.680300e-001 -3.190000e+000 -4.093990e+000
   endloop
 endfacet
 facet normal  0.000000e+000 -1.000000e+000 -0.000000e+000
   outer loop
     vertex -5.496633e-001 -3.190000e+000 -4.098467e+000
     vertex -5.684098e-001 -3.190000e+000 -4.125240e+000
     vertex -5.280300e-001 -3.190000e+000 -4.183990e+000
   endloop
 endfacet
 facet normal  0.000000e+000 -1.000000e+000 -0.000000e+000
   outer loop
     vertex -2.298376e-001 -3.190000e+000 -4.154861e+000
     vertex -2.780300e-001 -3.190000e+000 -4.183990e+000
     vertex -2.213785e-001 -3.190000e+000 -4.186431e+000
   endloop
 endfacet
 facet normal -0.000000e+000 -1.000000e+000 -0.000000e+000
   outer loop
     vertex -3.419012e-001 -3.190000e+000 -4.042798e+000
     vertex -3.734710e-001 -3.190000e+000 -4.034339e+000
     vertex -3.680300e-001 -3.190000e+000 -4.093990e+000
   endloop
 endfacet
 facet normal  0.000000e+000 -1.000000e+000 -0.000000e+000
   outer loop
     vertex -2.436502e-001 -3.190000e+000 -4.125240e+000
     vertex -2.780300e-001 -3.190000e+000 -4.183990e+000
     vertex -2.298376e-001 -3.190000e+000 -4.154861e+000
   endloop
 endfacet
 facet normal -0.000000e+000 -1.000000e+000  0.000000e+000
   outer loop
     vertex -3.122800e-001 -3.190000e+000 -4.056610e+000
     vertex -3.419012e-001 -3.190000e+000 -4.042798e+000
     vertex -3.680300e-001 -3.190000e+000 -4.093990e+000
   endloop
 endfacet
 facet normal  0.000000e+000 -1.000000e+000 -0.000000e+000
   outer loop
     vertex -5.265527e-001 -3.190000e+000 -4.075357e+000
     vertex -5.496633e-001 -3.190000e+000 -4.098467e+000
     vertex -5.280300e-001 -3.190000e+000 -4.183990e+000
   endloop
 endfacet
 facet normal -0.000000e+000 -1.000000e+000  0.000000e+000
   outer loop
     vertex -2.855073e-001 -3.190000e+000 -4.075357e+000
     vertex -3.122800e-001 -3.190000e+000 -4.056610e+000
     vertex -3.680300e-001 -3.190000e+000 -4.093990e+000
   endloop
 endfacet
 facet normal -0.000000e+000 -1.000000e+000 -0.000000e+000
   outer loop
     vertex -2.623967e-001 -3.190000e+000 -4.098467e+000
     vertex -3.680300e-001 -3.190000e+000 -4.093990e+000
     vertex -2.780300e-001 -3.190000e+000 -4.183990e+000
   endloop
 endfacet
 facet normal  0.000000e+000 -1.000000e+000 -0.000000e+000
   outer loop
     vertex -2.623967e-001 -3.190000e+000 -4.098467e+000
     vertex -2.780300e-001 -3.190000e+000 -4.183990e+000
     vertex -2.436502e-001 -3.190000e+000 -4.125240e+000
   endloop
 endfacet
 facet normal -0.000000e+000 -1.000000e+000 -0.000000e+000
   outer loop
     vertex -5.280300e-001 -3.190000e+000 -4.259990e+000
     vertex -5.935300e-001 -3.190000e+000 -4.218990e+000
     vertex -5.906815e-001 -3.190000e+000 -4.251549e+000
   endloop
 endfacet
 facet normal -0.000000e+000 -1.000000e+000 -0.000000e+000
   outer loop
     vertex -5.280300e-001 -3.190000e+000 -4.259990e+000
     vertex -5.906815e-001 -3.190000e+000 -4.251549e+000
     vertex -5.822224e-001 -3.190000e+000 -4.283119e+000
   endloop
 endfacet
 facet normal -0.000000e+000 -1.000000e+000  0.000000e+000
   outer loop
     vertex -2.623967e-001 -3.190000e+000 -4.098467e+000
     vertex -2.855073e-001 -3.190000e+000 -4.075357e+000
     vertex -3.680300e-001 -3.190000e+000 -4.093990e+000
   endloop
 endfacet
 facet normal  0.000000e+000 -1.000000e+000 -0.000000e+000
   outer loop
     vertex -5.280300e-001 -3.190000e+000 -4.259990e+000
     vertex -5.822224e-001 -3.190000e+000 -4.283119e+000
     vertex -5.684098e-001 -3.190000e+000 -4.312740e+000
   endloop
 endfacet
 facet normal  0.000000e+000 -1.000000e+000 -0.000000e+000
   outer loop
     vertex -5.280300e-001 -3.190000e+000 -4.259990e+000
     vertex -5.684098e-001 -3.190000e+000 -4.312740e+000
     vertex -5.496633e-001 -3.190000e+000 -4.339513e+000
   endloop
 endfacet
 facet normal  0.000000e+000 -1.000000e+000 -0.000000e+000
   outer loop
     vertex -5.280300e-001 -3.190000e+000 -4.259990e+000
     vertex -5.496633e-001 -3.190000e+000 -4.339513e+000
     vertex -5.265527e-001 -3.190000e+000 -4.362623e+000
   endloop
 endfacet
 facet normal -0.000000e+000 -1.000000e+000 -0.000000e+000
   outer loop
     vertex -2.780300e-001 -3.190000e+000 -4.259990e+000
     vertex -3.650300e-001 -3.190000e+000 -4.259990e+000
     vertex -3.650300e-001 -3.190000e+000 -4.346990e+000
   endloop
 endfacet
 facet normal  0.000000e+000 -1.000000e+000 -0.000000e+000
   outer loop
     vertex -4.410300e-001 -3.190000e+000 -4.346990e+000
     vertex -5.265527e-001 -3.190000e+000 -4.362623e+000
     vertex -4.997800e-001 -3.190000e+000 -4.381370e+000
   endloop
 endfacet
 facet normal  0.000000e+000 -1.000000e+000 -0.000000e+000
   outer loop
     vertex -4.410300e-001 -3.190000e+000 -4.346990e+000
     vertex -4.997800e-001 -3.190000e+000 -4.381370e+000
     vertex -4.701588e-001 -3.190000e+000 -4.395182e+000
   endloop
 endfacet
 facet normal  0.000000e+000 -1.000000e+000 -0.000000e+000
   outer loop
     vertex -4.410300e-001 -3.190000e+000 -4.346990e+000
     vertex -4.701588e-001 -3.190000e+000 -4.395182e+000
     vertex -4.385890e-001 -3.190000e+000 -4.403641e+000
   endloop
 endfacet
 facet normal  0.000000e+000 -1.000000e+000 -0.000000e+000
   outer loop
     vertex -2.780300e-001 -3.190000e+000 -4.259990e+000
     vertex -2.855073e-001 -3.190000e+000 -4.362623e+000
     vertex -2.623967e-001 -3.190000e+000 -4.339513e+000
   endloop
 endfacet
 facet normal  0.000000e+000 -1.000000e+000  0.000000e+000
   outer loop
     vertex -4.410300e-001 -3.190000e+000 -4.346990e+000
     vertex -4.385890e-001 -3.190000e+000 -4.403641e+000
     vertex -4.060300e-001 -3.190000e+000 -4.406490e+000
   endloop
 endfacet
 facet normal  0.000000e+000 -1.000000e+000  0.000000e+000
   outer loop
     vertex -2.780300e-001 -3.190000e+000 -4.259990e+000
     vertex -2.623967e-001 -3.190000e+000 -4.339513e+000
     vertex -2.436502e-001 -3.190000e+000 -4.312740e+000
   endloop
 endfacet
 facet normal -0.000000e+000 -1.000000e+000 -0.000000e+000
   outer loop
     vertex -4.410300e-001 -3.190000e+000 -4.346990e+000
     vertex -5.280300e-001 -3.190000e+000 -4.259990e+000
     vertex -5.265527e-001 -3.190000e+000 -4.362623e+000
   endloop
 endfacet
 facet normal  0.000000e+000 -1.000000e+000 -0.000000e+000
   outer loop
     vertex -2.780300e-001 -3.190000e+000 -4.259990e+000
     vertex -3.650300e-001 -3.190000e+000 -4.346990e+000
     vertex -2.855073e-001 -3.190000e+000 -4.362623e+000
   endloop
 endfacet
 facet normal -0.000000e+000 -1.000000e+000  0.000000e+000
   outer loop
     vertex -4.410300e-001 -3.190000e+000 -4.093990e+000
     vertex -5.265527e-001 -3.190000e+000 -4.075357e+000
     vertex -5.280300e-001 -3.190000e+000 -4.183990e+000
   endloop
 endfacet
 facet normal  0.000000e+000 -1.000000e+000 -0.000000e+000
   outer loop
     vertex -4.410300e-001 -3.190000e+000 -4.093990e+000
     vertex -5.280300e-001 -3.190000e+000 -4.183990e+000
     vertex -4.410300e-001 -3.190000e+000 -4.183990e+000
   endloop
 endfacet
 facet normal -0.000000e+000 -1.000000e+000  0.000000e+000
   outer loop
     vertex -4.410300e-001 -3.190000e+000 -4.093990e+000
     vertex -4.997800e-001 -3.190000e+000 -4.056610e+000
     vertex -5.265527e-001 -3.190000e+000 -4.075357e+000
   endloop
 endfacet
 facet normal -0.000000e+000 -1.000000e+000 -0.000000e+000
   outer loop
     vertex -2.298376e-001 -3.190000e+000 -4.283119e+000
     vertex -2.780300e-001 -3.190000e+000 -4.259990e+000
     vertex -2.436502e-001 -3.190000e+000 -4.312740e+000
   endloop
 endfacet
 facet normal  0.000000e+000 -1.000000e+000 -0.000000e+000
   outer loop
     vertex -4.701588e-001 -3.190000e+000 -4.042798e+000
     vertex -4.997800e-001 -3.190000e+000 -4.056610e+000
     vertex -4.410300e-001 -3.190000e+000 -4.093990e+000
   endloop
 endfacet
 facet normal  0.000000e+000 -1.000000e+000 -0.000000e+000
   outer loop
     vertex -2.213785e-001 -3.190000e+000 -4.251549e+000
     vertex -2.780300e-001 -3.190000e+000 -4.259990e+000
     vertex -2.298376e-001 -3.190000e+000 -4.283119e+000
   endloop
 endfacet
 facet normal  0.000000e+000 -1.000000e+000 -0.000000e+000
   outer loop
     vertex -3.650300e-001 -3.190000e+000 -4.346990e+000
     vertex -4.060300e-001 -3.190000e+000 -4.406490e+000
     vertex -3.734710e-001 -3.190000e+000 -4.403641e+000
   endloop
 endfacet
 facet normal  0.000000e+000 -1.000000e+000 -0.000000e+000
   outer loop
     vertex -3.650300e-001 -3.190000e+000 -4.346990e+000
     vertex -3.734710e-001 -3.190000e+000 -4.403641e+000
     vertex -3.419012e-001 -3.190000e+000 -4.395182e+000
   endloop
 endfacet
 facet normal  0.000000e+000 -1.000000e+000 -0.000000e+000
   outer loop
     vertex -4.385890e-001 -3.190000e+000 -4.034339e+000
     vertex -4.701588e-001 -3.190000e+000 -4.042798e+000
     vertex -4.410300e-001 -3.190000e+000 -4.093990e+000
   endloop
 endfacet
 facet normal -0.000000e+000 -1.000000e+000 -0.000000e+000
   outer loop
     vertex -3.650300e-001 -3.190000e+000 -4.346990e+000
     vertex -4.410300e-001 -3.190000e+000 -4.346990e+000
     vertex -4.060300e-001 -3.190000e+000 -4.406490e+000
   endloop
 endfacet
 facet normal -0.000000e+000 -1.000000e+000  0.000000e+000
   outer loop
     vertex -5.280300e-001 -3.190000e+000 -4.183990e+000
     vertex -5.822224e-001 -3.190000e+000 -4.154861e+000
     vertex -5.906815e-001 -3.190000e+000 -4.186431e+000
   endloop
 endfacet
 facet normal  0.000000e+000 -1.000000e+000  0.000000e+000
   outer loop
     vertex -5.280300e-001 -3.190000e+000 -4.183990e+000
     vertex -5.906815e-001 -3.190000e+000 -4.186431e+000
     vertex -5.935300e-001 -3.190000e+000 -4.218990e+000
   endloop
 endfacet
 facet normal -0.000000e+000 -1.000000e+000 -0.000000e+000
   outer loop
     vertex -2.780300e-001 -3.190000e+000 -4.183990e+000
     vertex -3.680300e-001 -3.190000e+000 -4.093990e+000
     vertex -3.680300e-001 -3.190000e+000 -4.183990e+000
   endloop
 endfacet
 facet normal  0.000000e+000 -1.000000e+000 -0.000000e+000
   outer loop
     vertex -5.280300e-001 -3.190000e+000 -4.183990e+000
     vertex -5.935300e-001 -3.190000e+000 -4.218990e+000
     vertex -5.280300e-001 -3.190000e+000 -4.259990e+000
   endloop
 endfacet
 facet normal -9.961947e-001 -4.411991e-016  8.715574e-002
   outer loop
     vertex -5.906815e-001 -2.940000e+000 -4.186431e+000
     vertex -5.935300e-001 -3.190000e+000 -4.218990e+000
     vertex -5.906815e-001 -3.190000e+000 -4.186431e+000
   endloop
 endfacet
 facet normal -9.961947e-001  0.000000e+000  8.715574e-002
   outer loop
     vertex -5.906815e-001 -2.940000e+000 -4.186431e+000
     vertex -5.935300e-001 -2.940000e+000 -4.218990e+000
     vertex -5.935300e-001 -3.190000e+000 -4.218990e+000
   endloop
 endfacet
 facet normal -9.659258e-001  6.634573e-017  2.588190e-001
   outer loop
     vertex -5.822224e-001 -2.940000e+000 -4.154861e+000
     vertex -5.906815e-001 -3.190000e+000 -4.186431e+000
     vertex -5.822224e-001 -3.190000e+000 -4.154861e+000
   endloop
 endfacet
 facet normal -9.659258e-001 -4.289572e-016  2.588190e-001
   outer loop
     vertex -5.822224e-001 -2.940000e+000 -4.154861e+000
     vertex -5.906815e-001 -2.940000e+000 -4.186431e+000
     vertex -5.906815e-001 -3.190000e+000 -4.186431e+000
   endloop
 endfacet
 facet normal -8.715574e-002 -0.000000e+000 -9.961947e-001
   outer loop
     vertex -4.385890e-001 -2.940000e+000 -4.403641e+000
     vertex -4.060300e-001 -2.940000e+000 -4.406490e+000
     vertex -4.060300e-001 -3.190000e+000 -4.406490e+000
   endloop
 endfacet
 facet normal -8.715574e-002 -3.441685e-015 -9.961947e-001
   outer loop
     vertex -4.385890e-001 -2.940000e+000 -4.403641e+000
     vertex -4.060300e-001 -3.190000e+000 -4.406490e+000
     vertex -4.385890e-001 -3.190000e+000 -4.403641e+000
   endloop
 endfacet
 facet normal -9.063078e-001 -8.027834e-016  4.226183e-001
   outer loop
     vertex -5.684098e-001 -2.940000e+000 -4.125240e+000
     vertex -5.822224e-001 -3.190000e+000 -4.154861e+000
     vertex -5.684098e-001 -3.190000e+000 -4.125240e+000
   endloop
 endfacet
 facet normal -9.063078e-001  6.964787e-016  4.226183e-001
   outer loop
     vertex -5.684098e-001 -2.940000e+000 -4.125240e+000
     vertex -5.822224e-001 -2.940000e+000 -4.154861e+000
     vertex -5.822224e-001 -3.190000e+000 -4.154861e+000
   endloop
 endfacet
 facet normal -2.588190e-001  2.852866e-016 -9.659258e-001
   outer loop
     vertex -4.701588e-001 -2.940000e+000 -4.395182e+000
     vertex -4.385890e-001 -3.190000e+000 -4.403641e+000
     vertex -4.701588e-001 -3.190000e+000 -4.395182e+000
   endloop
 endfacet
 facet normal -2.588190e-001 -3.144311e-015 -9.659258e-001
   outer loop
     vertex -4.701588e-001 -2.940000e+000 -4.395182e+000
     vertex -4.385890e-001 -2.940000e+000 -4.403641e+000
     vertex -4.385890e-001 -3.190000e+000 -4.403641e+000
   endloop
 endfacet
 facet normal -8.191520e-001  9.421094e-016  5.735764e-001
   outer loop
     vertex -5.496633e-001 -2.940000e+000 -4.098467e+000
     vertex -5.684098e-001 -3.190000e+000 -4.125240e+000
     vertex -5.496633e-001 -3.190000e+000 -4.098467e+000
   endloop
 endfacet
 facet normal -8.191520e-001 -7.275532e-016  5.735764e-001
   outer loop
     vertex -5.496633e-001 -2.940000e+000 -4.098467e+000
     vertex -5.684098e-001 -2.940000e+000 -4.125240e+000
     vertex -5.684098e-001 -3.190000e+000 -4.125240e+000
   endloop
 endfacet
 facet normal -4.226183e-001  3.781707e-016 -9.063078e-001
   outer loop
     vertex -4.997800e-001 -2.940000e+000 -4.381370e+000
     vertex -4.701588e-001 -3.190000e+000 -4.395182e+000
     vertex -4.997800e-001 -3.190000e+000 -4.381370e+000
   endloop
 endfacet
 facet normal -4.226183e-001  4.692005e-016 -9.063078e-001
   outer loop
     vertex -4.997800e-001 -2.940000e+000 -4.381370e+000
     vertex -4.701588e-001 -2.940000e+000 -4.395182e+000
     vertex -4.701588e-001 -3.190000e+000 -4.395182e+000
   endloop
 endfacet
 facet normal -7.071068e-001 -1.247300e-015  7.071068e-001
   outer loop
     vertex -5.265527e-001 -2.940000e+000 -4.075357e+000
     vertex -5.496633e-001 -3.190000e+000 -4.098467e+000
     vertex -5.265527e-001 -3.190000e+000 -4.075357e+000
   endloop
 endfacet
 facet normal -7.071068e-001  1.570092e-015  7.071068e-001
   outer loop
     vertex -5.265527e-001 -2.940000e+000 -4.075357e+000
     vertex -5.496633e-001 -2.940000e+000 -4.098467e+000
     vertex -5.496633e-001 -3.190000e+000 -4.098467e+000
   endloop
 endfacet
 facet normal -5.735764e-001  5.174967e-016 -8.191520e-001
   outer loop
     vertex -5.265527e-001 -2.940000e+000 -4.362623e+000
     vertex -4.997800e-001 -3.190000e+000 -4.381370e+000
     vertex -5.265527e-001 -3.190000e+000 -4.362623e+000
   endloop
 endfacet
 facet normal -5.735764e-001  5.094382e-016 -8.191520e-001
   outer loop
     vertex -5.265527e-001 -2.940000e+000 -4.362623e+000
     vertex -4.997800e-001 -2.940000e+000 -4.381370e+000
     vertex -4.997800e-001 -3.190000e+000 -4.381370e+000
   endloop
 endfacet
 facet normal -5.735764e-001 -1.273838e-015  8.191520e-001
   outer loop
     vertex -4.997800e-001 -2.940000e+000 -4.056610e+000
     vertex -5.265527e-001 -3.190000e+000 -4.075357e+000
     vertex -4.997800e-001 -3.190000e+000 -4.056610e+000
   endloop
 endfacet
 facet normal -5.735764e-001 -1.018876e-015  8.191520e-001
   outer loop
     vertex -4.997800e-001 -2.940000e+000 -4.056610e+000
     vertex -5.265527e-001 -2.940000e+000 -4.075357e+000
     vertex -5.265527e-001 -3.190000e+000 -4.075357e+000
   endloop
 endfacet
 facet normal -7.071068e-001  6.369190e-016 -7.071068e-001
   outer loop
     vertex -5.496633e-001 -2.940000e+000 -4.339513e+000
     vertex -5.265527e-001 -3.190000e+000 -4.362623e+000
     vertex -5.496633e-001 -3.190000e+000 -4.339513e+000
   endloop
 endfacet
 facet normal -4.226183e-001 -9.384010e-016  9.063078e-001
   outer loop
     vertex -4.701588e-001 -2.940000e+000 -4.042798e+000
     vertex -4.997800e-001 -2.940000e+000 -4.056610e+000
     vertex -4.997800e-001 -3.190000e+000 -4.056610e+000
   endloop
 endfacet
 facet normal -7.071068e-001  6.280370e-016 -7.071068e-001
   outer loop
     vertex -5.496633e-001 -2.940000e+000 -4.339513e+000
     vertex -5.265527e-001 -2.940000e+000 -4.362623e+000
     vertex -5.265527e-001 -3.190000e+000 -4.362623e+000
   endloop
 endfacet
 facet normal -4.226183e-001  2.189409e-015  9.063078e-001
   outer loop
     vertex -4.701588e-001 -2.940000e+000 -4.042798e+000
     vertex -4.997800e-001 -3.190000e+000 -4.056610e+000
     vertex -4.701588e-001 -3.190000e+000 -4.042798e+000
   endloop
 endfacet
 facet normal -8.191520e-001  3.582670e-016 -5.735764e-001
   outer loop
     vertex -5.684098e-001 -2.940000e+000 -4.312740e+000
     vertex -5.496633e-001 -3.190000e+000 -4.339513e+000
     vertex -5.684098e-001 -3.190000e+000 -4.312740e+000
   endloop
 endfacet
 facet normal -2.588190e-001  2.799495e-015  9.659258e-001
   outer loop
     vertex -4.385890e-001 -2.940000e+000 -4.034339e+000
     vertex -4.701588e-001 -2.940000e+000 -4.042798e+000
     vertex -4.701588e-001 -3.190000e+000 -4.042798e+000
   endloop
 endfacet
 facet normal -8.191520e-001  7.275532e-016 -5.735764e-001
   outer loop
     vertex -5.684098e-001 -2.940000e+000 -4.312740e+000
     vertex -5.496633e-001 -2.940000e+000 -4.339513e+000
     vertex -5.496633e-001 -3.190000e+000 -4.339513e+000
   endloop
 endfacet
 facet normal -2.588190e-001  2.740079e-015  9.659258e-001
   outer loop
     vertex -4.385890e-001 -2.940000e+000 -4.034339e+000
     vertex -4.701588e-001 -3.190000e+000 -4.042798e+000
     vertex -4.385890e-001 -3.190000e+000 -4.034339e+000
   endloop
 endfacet
 facet normal -9.063078e-001  3.980744e-016 -4.226183e-001
   outer loop
     vertex -5.822224e-001 -2.940000e+000 -4.283119e+000
     vertex -5.684098e-001 -3.190000e+000 -4.312740e+000
     vertex -5.822224e-001 -3.190000e+000 -4.283119e+000
   endloop
 endfacet
 facet normal -8.715574e-002  3.306965e-015  9.961947e-001
   outer loop
     vertex -4.060300e-001 -2.940000e+000 -4.031490e+000
     vertex -4.385890e-001 -2.940000e+000 -4.034339e+000
     vertex -4.385890e-001 -3.190000e+000 -4.034339e+000
   endloop
 endfacet
 facet normal -8.715574e-002  0.000000e+000  9.961947e-001
   outer loop
     vertex -4.060300e-001 -2.940000e+000 -4.031490e+000
     vertex -4.385890e-001 -3.190000e+000 -4.034339e+000
     vertex -4.060300e-001 -3.190000e+000 -4.031490e+000
   endloop
 endfacet
 facet normal -9.063078e-001  4.024815e-016 -4.226183e-001
   outer loop
     vertex -5.822224e-001 -2.940000e+000 -4.283119e+000
     vertex -5.684098e-001 -2.940000e+000 -4.312740e+000
     vertex -5.684098e-001 -3.190000e+000 -4.312740e+000
   endloop
 endfacet
 facet normal -9.659258e-001 -9.222057e-016 -2.588190e-001
   outer loop
     vertex -5.906815e-001 -2.940000e+000 -4.251549e+000
     vertex -5.822224e-001 -3.190000e+000 -4.283119e+000
     vertex -5.906815e-001 -3.190000e+000 -4.251549e+000
   endloop
 endfacet
 facet normal -9.659258e-001  4.289572e-016 -2.588190e-001
   outer loop
     vertex -5.906815e-001 -2.940000e+000 -4.251549e+000
     vertex -5.822224e-001 -2.940000e+000 -4.283119e+000
     vertex -5.822224e-001 -3.190000e+000 -4.283119e+000
   endloop
 endfacet
 facet normal -9.961947e-001  0.000000e+000 -8.715574e-002
   outer loop
     vertex -5.935300e-001 -2.940000e+000 -4.218990e+000
     vertex -5.906815e-001 -3.190000e+000 -4.251549e+000
     vertex -5.935300e-001 -3.190000e+000 -4.218990e+000
   endloop
 endfacet
 facet normal -9.961947e-001 -3.096394e-016 -8.715574e-002
   outer loop
     vertex -5.935300e-001 -2.940000e+000 -4.218990e+000
     vertex -5.906815e-001 -2.940000e+000 -4.251549e+000
     vertex -5.906815e-001 -3.190000e+000 -4.251549e+000
   endloop
 endfacet
 facet normal  9.961947e-001  1.990372e-016 -8.715574e-002
   outer loop
     vertex -2.213785e-001 -2.940000e+000 -4.251549e+000
     vertex -2.185300e-001 -3.190000e+000 -4.218990e+000
     vertex -2.213785e-001 -3.190000e+000 -4.251549e+000
   endloop
 endfacet
 facet normal  9.961947e-001  0.000000e+000 -8.715574e-002
   outer loop
     vertex -2.213785e-001 -2.940000e+000 -4.251549e+000
     vertex -2.185300e-001 -2.940000e+000 -4.218990e+000
     vertex -2.185300e-001 -3.190000e+000 -4.218990e+000
   endloop
 endfacet
 facet normal  9.659258e-001 -4.312473e-016 -2.588190e-001
   outer loop
     vertex -2.298376e-001 -2.940000e+000 -4.283119e+000
     vertex -2.213785e-001 -3.190000e+000 -4.251549e+000
     vertex -2.298376e-001 -3.190000e+000 -4.283119e+000
   endloop
 endfacet
 facet normal  9.659258e-001  8.122707e-016 -2.588190e-001
   outer loop
     vertex -2.298376e-001 -2.940000e+000 -4.283119e+000
     vertex -2.213785e-001 -2.940000e+000 -4.251549e+000
     vertex -2.213785e-001 -3.190000e+000 -4.251549e+000
   endloop
 endfacet
 facet normal  8.715574e-002  0.000000e+000  9.961947e-001
   outer loop
     vertex -3.734710e-001 -2.940000e+000 -4.034339e+000
     vertex -4.060300e-001 -2.940000e+000 -4.031490e+000
     vertex -4.060300e-001 -3.190000e+000 -4.031490e+000
   endloop
 endfacet
 facet normal  8.715574e-002 -3.307335e-015  9.961947e-001
   outer loop
     vertex -3.734710e-001 -2.940000e+000 -4.034339e+000
     vertex -4.060300e-001 -3.190000e+000 -4.031490e+000
     vertex -3.734710e-001 -3.190000e+000 -4.034339e+000
   endloop
 endfacet
 facet normal  9.063078e-001 -5.042276e-016 -4.226183e-001
   outer loop
     vertex -2.436502e-001 -2.940000e+000 -4.312740e+000
     vertex -2.298376e-001 -3.190000e+000 -4.283119e+000
     vertex -2.436502e-001 -3.190000e+000 -4.312740e+000
   endloop
 endfacet
 facet normal  9.063078e-001 -4.024815e-016 -4.226183e-001
   outer loop
     vertex -2.436502e-001 -2.940000e+000 -4.312740e+000
     vertex -2.298376e-001 -2.940000e+000 -4.283119e+000
     vertex -2.298376e-001 -3.190000e+000 -4.283119e+000
   endloop
 endfacet
 facet normal  2.588190e-001 -2.799790e-015  9.659258e-001
   outer loop
     vertex -3.419012e-001 -2.940000e+000 -4.042798e+000
     vertex -3.734710e-001 -3.190000e+000 -4.034339e+000
     vertex -3.419012e-001 -3.190000e+000 -4.042798e+000
   endloop
 endfacet
 facet normal  2.588190e-001 -2.742025e-015  9.659258e-001
   outer loop
     vertex -3.419012e-001 -2.940000e+000 -4.042798e+000
     vertex -3.734710e-001 -2.940000e+000 -4.034339e+000
     vertex -3.734710e-001 -3.190000e+000 -4.034339e+000
   endloop
 endfacet
 facet normal  8.191520e-001 -5.440350e-016 -5.735764e-001
   outer loop
     vertex -2.623967e-001 -2.940000e+000 -4.339513e+000
     vertex -2.436502e-001 -3.190000e+000 -4.312740e+000
     vertex -2.623967e-001 -3.190000e+000 -4.339513e+000
   endloop
 endfacet
 facet normal  8.191520e-001 -4.547207e-016 -5.735764e-001
   outer loop
     vertex -2.623967e-001 -2.940000e+000 -4.339513e+000
     vertex -2.436502e-001 -2.940000e+000 -4.312740e+000
     vertex -2.436502e-001 -3.190000e+000 -4.312740e+000
   endloop
 endfacet
 facet normal  4.226183e-001  9.354748e-016  9.063078e-001
   outer loop
     vertex -3.122800e-001 -2.940000e+000 -4.056610e+000
     vertex -3.419012e-001 -3.190000e+000 -4.042798e+000
     vertex -3.122800e-001 -3.190000e+000 -4.056610e+000
   endloop
 endfacet
 facet normal  4.226183e-001 -2.187611e-015  9.063078e-001
   outer loop
     vertex -3.122800e-001 -2.940000e+000 -4.056610e+000
     vertex -3.419012e-001 -2.940000e+000 -4.042798e+000
     vertex -3.419012e-001 -3.190000e+000 -4.042798e+000
   endloop
 endfacet
 facet normal  7.071068e-001 -6.236499e-016 -7.071068e-001
   outer loop
     vertex -2.855073e-001 -2.940000e+000 -4.362623e+000
     vertex -2.623967e-001 -3.190000e+000 -4.339513e+000
     vertex -2.855073e-001 -3.190000e+000 -4.362623e+000
   endloop
 endfacet
 facet normal  7.071068e-001 -4.710277e-016 -7.071068e-001
   outer loop
     vertex -2.855073e-001 -2.940000e+000 -4.362623e+000
     vertex -2.623967e-001 -2.940000e+000 -4.339513e+000
     vertex -2.623967e-001 -3.190000e+000 -4.339513e+000
   endloop
 endfacet
 facet normal  5.735764e-001  1.021724e-015  8.191520e-001
   outer loop
     vertex -2.855073e-001 -2.940000e+000 -4.075357e+000
     vertex -3.122800e-001 -3.190000e+000 -4.056610e+000
     vertex -2.855073e-001 -3.190000e+000 -4.075357e+000
   endloop
 endfacet
 facet normal  5.735764e-001  1.273596e-015  8.191520e-001
   outer loop
     vertex -2.855073e-001 -2.940000e+000 -4.075357e+000
     vertex -3.122800e-001 -2.940000e+000 -4.056610e+000
     vertex -3.122800e-001 -3.190000e+000 -4.056610e+000
   endloop
 endfacet
 facet normal  5.735764e-001 -5.174967e-016 -8.191520e-001
   outer loop
     vertex -3.122800e-001 -2.940000e+000 -4.381370e+000
     vertex -2.855073e-001 -3.190000e+000 -4.362623e+000
     vertex -3.122800e-001 -3.190000e+000 -4.381370e+000
   endloop
 endfacet
 facet normal  5.735764e-001 -5.094382e-016 -8.191520e-001
   outer loop
     vertex -3.122800e-001 -2.940000e+000 -4.381370e+000
     vertex -2.855073e-001 -2.940000e+000 -4.362623e+000
     vertex -2.855073e-001 -3.190000e+000 -4.362623e+000
   endloop
 endfacet
 facet normal  7.071068e-001 -1.565759e-015  7.071068e-001
   outer loop
     vertex -2.623967e-001 -2.940000e+000 -4.098467e+000
     vertex -2.855073e-001 -3.190000e+000 -4.075357e+000
     vertex -2.623967e-001 -3.190000e+000 -4.098467e+000
   endloop
 endfacet
 facet normal  4.226183e-001 -3.753604e-016 -9.063078e-001
   outer loop
     vertex -3.419012e-001 -2.940000e+000 -4.395182e+000
     vertex -3.122800e-001 -2.940000e+000 -4.381370e+000
     vertex -3.122800e-001 -3.190000e+000 -4.381370e+000
   endloop
 endfacet
 facet normal  7.071068e-001  1.256074e-015  7.071068e-001
   outer loop
     vertex -2.623967e-001 -2.940000e+000 -4.098467e+000
     vertex -2.855073e-001 -2.940000e+000 -4.075357e+000
     vertex -2.855073e-001 -3.190000e+000 -4.075357e+000
   endloop
 endfacet
 facet normal  4.226183e-001 -4.710547e-016 -9.063078e-001
   outer loop
     vertex -3.419012e-001 -2.940000e+000 -4.395182e+000
     vertex -3.122800e-001 -3.190000e+000 -4.381370e+000
     vertex -3.419012e-001 -3.190000e+000 -4.395182e+000
   endloop
 endfacet
 facet normal  8.191520e-001  7.298031e-016  5.735764e-001
   outer loop
     vertex -2.436502e-001 -2.940000e+000 -4.125240e+000
     vertex -2.623967e-001 -3.190000e+000 -4.098467e+000
     vertex -2.436502e-001 -3.190000e+000 -4.125240e+000
   endloop
 endfacet
 facet normal  2.588190e-001  3.144788e-015 -9.659258e-001
   outer loop
     vertex -3.734710e-001 -2.940000e+000 -4.403641e+000
     vertex -3.419012e-001 -3.190000e+000 -4.395182e+000
     vertex -3.734710e-001 -3.190000e+000 -4.403641e+000
   endloop
 endfacet
 facet normal  2.588190e-001 -2.873469e-016 -9.659258e-001
   outer loop
     vertex -3.734710e-001 -2.940000e+000 -4.403641e+000
     vertex -3.419012e-001 -2.940000e+000 -4.395182e+000
     vertex -3.419012e-001 -3.190000e+000 -4.395182e+000
   endloop
 endfacet
 facet normal  8.191520e-001 -9.464231e-016  5.735764e-001
   outer loop
     vertex -2.436502e-001 -2.940000e+000 -4.125240e+000
     vertex -2.623967e-001 -2.940000e+000 -4.098467e+000
     vertex -2.623967e-001 -3.190000e+000 -4.098467e+000
   endloop
 endfacet
 facet normal  8.715574e-002  0.000000e+000 -9.961947e-001
   outer loop
     vertex -4.060300e-001 -2.940000e+000 -4.406490e+000
     vertex -3.734710e-001 -3.190000e+000 -4.403641e+000
     vertex -4.060300e-001 -3.190000e+000 -4.406490e+000
   endloop
 endfacet
 facet normal  9.063078e-001 -8.956674e-016  4.226183e-001
   outer loop
     vertex -2.298376e-001 -2.940000e+000 -4.154861e+000
     vertex -2.436502e-001 -3.190000e+000 -4.125240e+000
     vertex -2.298376e-001 -3.190000e+000 -4.154861e+000
   endloop
 endfacet
 facet normal  8.715574e-002  3.442432e-015 -9.961947e-001
   outer loop
     vertex -4.060300e-001 -2.940000e+000 -4.406490e+000
     vertex -3.734710e-001 -2.940000e+000 -4.403641e+000
     vertex -3.734710e-001 -3.190000e+000 -4.403641e+000
   endloop
 endfacet
 facet normal  9.063078e-001  8.049630e-016  4.226183e-001
   outer loop
     vertex -2.298376e-001 -2.940000e+000 -4.154861e+000
     vertex -2.436502e-001 -2.940000e+000 -4.125240e+000
     vertex -2.436502e-001 -3.190000e+000 -4.125240e+000
   endloop
 endfacet
 facet normal  9.659258e-001  3.184595e-016  2.588190e-001
   outer loop
     vertex -2.213785e-001 -2.940000e+000 -4.186431e+000
     vertex -2.298376e-001 -3.190000e+000 -4.154861e+000
     vertex -2.213785e-001 -3.190000e+000 -4.186431e+000
   endloop
 endfacet
 facet normal  9.659258e-001 -2.760741e-016  2.588190e-001
   outer loop
     vertex -2.213785e-001 -2.940000e+000 -4.186431e+000
     vertex -2.298376e-001 -2.940000e+000 -4.154861e+000
     vertex -2.298376e-001 -3.190000e+000 -4.154861e+000
   endloop
 endfacet
 facet normal  9.961947e-001  0.000000e+000  8.715574e-002
   outer loop
     vertex -2.185300e-001 -2.940000e+000 -4.218990e+000
     vertex -2.213785e-001 -3.190000e+000 -4.186431e+000
     vertex -2.185300e-001 -3.190000e+000 -4.218990e+000
   endloop
 endfacet
 facet normal  9.961947e-001  3.317995e-016  8.715574e-002
   outer loop
     vertex -2.185300e-001 -2.940000e+000 -4.218990e+000
     vertex -2.213785e-001 -2.940000e+000 -4.186431e+000
     vertex -2.213785e-001 -3.190000e+000 -4.186431e+000
   endloop
 endfacet
endsolid
