solid C:\Temp\NOELParts\misumi_bracket2.STL created by CtrlView V2.70
facet normal 0.967733 -0.251977 0
outer loop
vertex 1.79685 8.04936 1.6001
vertex 1.79685 8.04936 0.000103078
vertex 1.93575 8.58281 1.6001
endloop
endfacet
facet normal 0.967733 -0.251977 0
outer loop
vertex 1.93575 8.58281 1.6001
vertex 1.79685 8.04936 0.000103078
vertex 1.93575 8.58281 0.000103078
endloop
endfacet
facet normal 0.911228 -0.411902 0
outer loop
vertex 1.93575 8.58281 1.6001
vertex 1.93575 8.58281 0.000103078
vertex 2.16281 9.08511 1.6001
endloop
endfacet
facet normal 0.911228 -0.411902 0
outer loop
vertex 2.16281 9.08511 1.6001
vertex 1.93575 8.58281 0.000103078
vertex 2.16281 9.08511 0.000103078
endloop
endfacet
facet normal 0.82851 -0.559975 0
outer loop
vertex 2.16281 9.08511 1.6001
vertex 2.16281 9.08511 0.000103078
vertex 2.47149 9.54182 1.6001
endloop
endfacet
facet normal 0.82851 -0.559975 0
outer loop
vertex 2.47149 9.54182 1.6001
vertex 2.16281 9.08511 0.000103078
vertex 2.47149 9.54182 0.000103078
endloop
endfacet
facet normal 0.721956 -0.691939 0
outer loop
vertex 2.47149 9.54182 1.6001
vertex 2.47149 9.54182 0.000103078
vertex 2.85291 9.93979 1.6001
endloop
endfacet
facet normal 0.721956 -0.691939 0
outer loop
vertex 2.85291 9.93979 1.6001
vertex 2.47149 9.54182 0.000103078
vertex 2.85291 9.93979 0.000103078
endloop
endfacet
facet normal 0.594633 -0.803997 0
outer loop
vertex 2.85291 9.93979 1.6001
vertex 2.85291 9.93979 0.000103078
vertex 3.2961 10.2676 1.6001
endloop
endfacet
facet normal 0.594633 -0.803997 0
outer loop
vertex 3.2961 10.2676 1.6001
vertex 2.85291 9.93979 0.000103078
vertex 3.2961 10.2676 0.000103078
endloop
endfacet
facet normal 0.450204 -0.892926 0
outer loop
vertex 3.2961 10.2676 1.6001
vertex 3.2961 10.2676 0.000103078
vertex 3.78832 10.5157 1.6001
endloop
endfacet
facet normal 0.450204 -0.892926 0
outer loop
vertex 3.78832 10.5157 1.6001
vertex 3.2961 10.2676 0.000103078
vertex 3.78832 10.5157 0.000103078
endloop
endfacet
facet normal 0.292824 -0.956166 0
outer loop
vertex 3.78832 10.5157 1.6001
vertex 3.78832 10.5157 0.000103078
vertex 4.31539 10.6772 1.6001
endloop
endfacet
facet normal 0.292824 -0.956166 0
outer loop
vertex 4.31539 10.6772 1.6001
vertex 3.78832 10.5157 0.000103078
vertex 4.31539 10.6772 0.000103078
endloop
endfacet
facet normal 0.127016 -0.991901 0
outer loop
vertex 4.31539 10.6772 1.6001
vertex 4.31539 10.6772 0.000103078
vertex 4.86217 10.7472 1.6001
endloop
endfacet
facet normal 0.127016 -0.991901 0
outer loop
vertex 4.86217 10.7472 1.6001
vertex 4.31539 10.6772 0.000103078
vertex 4.86217 10.7472 0.000103078
endloop
endfacet
facet normal -0.0424401 -0.999099 0
outer loop
vertex 4.86217 10.7472 1.6001
vertex 4.86217 10.7472 0.000103078
vertex 5.41291 10.7238 1.6001
endloop
endfacet
facet normal -0.0424401 -0.999099 0
outer loop
vertex 5.41291 10.7238 1.6001
vertex 4.86217 10.7472 0.000103078
vertex 5.41291 10.7238 0.000103078
endloop
endfacet
facet normal -0.210679 -0.977555 0
outer loop
vertex 5.41291 10.7238 1.6001
vertex 5.41291 10.7238 0.000103078
vertex 5.95178 10.6076 1.6001
endloop
endfacet
facet normal -0.210679 -0.977555 0
outer loop
vertex 5.95178 10.6076 1.6001
vertex 5.41291 10.7238 0.000103078
vertex 5.95178 10.6076 0.000103078
endloop
endfacet
facet normal -0.372857 -0.927889 0
outer loop
vertex 5.95178 10.6076 1.6001
vertex 5.95178 10.6076 0.000103078
vertex 6.46326 10.4021 1.6001
endloop
endfacet
facet normal -0.372857 -0.927889 0
outer loop
vertex 6.46326 10.4021 1.6001
vertex 5.95178 10.6076 0.000103078
vertex 6.46326 10.4021 0.000103078
endloop
endfacet
facet normal -0.524306 -0.85153 0
outer loop
vertex 6.46326 10.4021 1.6001
vertex 6.46326 10.4021 0.000103078
vertex 6.93266 10.1131 1.6001
endloop
endfacet
facet normal -0.524306 -0.85153 0
outer loop
vertex 6.93266 10.1131 1.6001
vertex 6.46326 10.4021 0.000103078
vertex 6.93266 10.1131 0.000103078
endloop
endfacet
facet normal -0.660675 -0.750672 0
outer loop
vertex 6.93266 10.1131 1.6001
vertex 6.93266 10.1131 0.000103078
vertex 7.34646 9.7489 1.6001
endloop
endfacet
facet normal -0.660675 -0.750672 0
outer loop
vertex 7.34646 9.7489 1.6001
vertex 6.93266 10.1131 0.000103078
vertex 7.34646 9.7489 0.000103078
endloop
endfacet
facet normal -0.778035 -0.628221 0
outer loop
vertex 7.34646 9.7489 1.6001
vertex 7.34646 9.7489 0.000103078
vertex 7.69276 9.32002 1.6001
endloop
endfacet
facet normal -0.778035 -0.628221 0
outer loop
vertex 7.69276 9.32002 1.6001
vertex 7.34646 9.7489 0.000103078
vertex 7.69276 9.32002 0.000103078
endloop
endfacet
facet normal -0.873015 -0.487694 0
outer loop
vertex 7.69276 9.32002 1.6001
vertex 7.69276 9.32002 0.000103078
vertex 7.96159 8.83878 1.6001
endloop
endfacet
facet normal -0.873015 -0.487694 0
outer loop
vertex 7.96159 8.83878 1.6001
vertex 7.69276 9.32002 0.000103078
vertex 7.96159 8.83878 0.000103078
endloop
endfacet
facet normal -0.942877 -0.33314 0
outer loop
vertex 7.96159 8.83878 1.6001
vertex 7.96159 8.83878 0.000103078
vertex 8.14523 8.31903 1.6001
endloop
endfacet
facet normal -0.942877 -0.33314 0
outer loop
vertex 8.14523 8.31903 1.6001
vertex 7.96159 8.83878 0.000103078
vertex 8.14523 8.31903 0.000103078
endloop
endfacet
facet normal -0.985616 -0.169001 0
outer loop
vertex 8.14523 8.31903 1.6001
vertex 8.14523 8.31903 0.000103078
vertex 8.23839 7.77572 1.6001
endloop
endfacet
facet normal -0.985616 -0.169001 0
outer loop
vertex 8.23839 7.77572 1.6001
vertex 8.14523 8.31903 0.000103078
vertex 8.23839 7.77572 0.000103078
endloop
endfacet
facet normal -1 0 0
outer loop
vertex 8.23839 7.77572 1.6001
vertex 8.23839 7.77572 0.000103078
vertex 8.23839 7.22448 1.6001
endloop
endfacet
facet normal -1 0 0
outer loop
vertex 8.23839 7.22448 1.6001
vertex 8.23839 7.77572 0.000103078
vertex 8.23839 7.22448 0.000103078
endloop
endfacet
facet normal -0.985616 0.169001 0
outer loop
vertex 8.23839 7.22448 1.6001
vertex 8.23839 7.22448 0.000103078
vertex 8.14523 6.68117 1.6001
endloop
endfacet
facet normal -0.985616 0.169001 0
outer loop
vertex 8.14523 6.68117 1.6001
vertex 8.23839 7.22448 0.000103078
vertex 8.14523 6.68117 0.000103078
endloop
endfacet
facet normal -0.942877 0.33314 0
outer loop
vertex 8.14523 6.68117 1.6001
vertex 8.14523 6.68117 0.000103078
vertex 7.96159 6.16142 1.6001
endloop
endfacet
facet normal -0.942877 0.33314 0
outer loop
vertex 7.96159 6.16142 1.6001
vertex 8.14523 6.68117 0.000103078
vertex 7.96159 6.16142 0.000103078
endloop
endfacet
facet normal -0.873015 0.487694 0
outer loop
vertex 7.96159 6.16142 1.6001
vertex 7.96159 6.16142 0.000103078
vertex 7.69276 5.68019 1.6001
endloop
endfacet
facet normal -0.873015 0.487694 0
outer loop
vertex 7.69276 5.68019 1.6001
vertex 7.96159 6.16142 0.000103078
vertex 7.69276 5.68019 0.000103078
endloop
endfacet
facet normal -0.778036 0.62822 0
outer loop
vertex 7.69276 5.68019 1.6001
vertex 7.69276 5.68019 0.000103078
vertex 7.34646 5.2513 1.6001
endloop
endfacet
facet normal -0.778036 0.62822 0
outer loop
vertex 7.34646 5.2513 1.6001
vertex 7.69276 5.68019 0.000103078
vertex 7.34646 5.2513 0.000103078
endloop
endfacet
facet normal -0.660674 0.750673 0
outer loop
vertex 7.34646 5.2513 1.6001
vertex 7.34646 5.2513 0.000103078
vertex 6.93266 4.88711 1.6001
endloop
endfacet
facet normal -0.660674 0.750673 0
outer loop
vertex 6.93266 4.88711 1.6001
vertex 7.34646 5.2513 0.000103078
vertex 6.93266 4.88711 0.000103078
endloop
endfacet
facet normal -0.524307 0.851529 0
outer loop
vertex 6.93266 4.88711 1.6001
vertex 6.93266 4.88711 0.000103078
vertex 6.46326 4.59809 1.6001
endloop
endfacet
facet normal -0.524307 0.851529 0
outer loop
vertex 6.46326 4.59809 1.6001
vertex 6.93266 4.88711 0.000103078
vertex 6.46326 4.59809 0.000103078
endloop
endfacet
facet normal -0.372856 0.927889 0
outer loop
vertex 6.46326 4.59809 1.6001
vertex 6.46326 4.59809 0.000103078
vertex 5.95178 4.39256 1.6001
endloop
endfacet
facet normal -0.372856 0.927889 0
outer loop
vertex 5.95178 4.39256 1.6001
vertex 6.46326 4.59809 0.000103078
vertex 5.95178 4.39256 0.000103078
endloop
endfacet
facet normal -0.21068 0.977555 0
outer loop
vertex 5.95178 4.39256 1.6001
vertex 5.95178 4.39256 0.000103078
vertex 5.41291 4.27643 1.6001
endloop
endfacet
facet normal -0.21068 0.977555 0
outer loop
vertex 5.41291 4.27643 1.6001
vertex 5.95178 4.39256 0.000103078
vertex 5.41291 4.27643 0.000103078
endloop
endfacet
facet normal -0.0424401 0.999099 0
outer loop
vertex 5.41291 4.27643 1.6001
vertex 5.41291 4.27643 0.000103078
vertex 4.86217 4.25303 1.6001
endloop
endfacet
facet normal -0.0424401 0.999099 0
outer loop
vertex 4.86217 4.25303 1.6001
vertex 5.41291 4.27643 0.000103078
vertex 4.86217 4.25303 0.000103078
endloop
endfacet
facet normal 0.127017 0.9919 0
outer loop
vertex 4.86217 4.25303 1.6001
vertex 4.86217 4.25303 0.000103078
vertex 4.31539 4.32305 1.6001
endloop
endfacet
facet normal 0.127017 0.9919 0
outer loop
vertex 4.31539 4.32305 1.6001
vertex 4.86217 4.25303 0.000103078
vertex 4.31539 4.32305 0.000103078
endloop
endfacet
facet normal 0.292823 0.956167 0
outer loop
vertex 4.31539 4.32305 1.6001
vertex 4.31539 4.32305 0.000103078
vertex 3.78832 4.48446 1.6001
endloop
endfacet
facet normal 0.292823 0.956167 0
outer loop
vertex 3.78832 4.48446 1.6001
vertex 4.31539 4.32305 0.000103078
vertex 3.78832 4.48446 0.000103078
endloop
endfacet
facet normal 0.450203 0.892926 0
outer loop
vertex 3.78832 4.48446 1.6001
vertex 3.78832 4.48446 0.000103078
vertex 3.2961 4.73263 1.6001
endloop
endfacet
facet normal 0.450203 0.892926 0
outer loop
vertex 3.2961 4.73263 1.6001
vertex 3.78832 4.48446 0.000103078
vertex 3.2961 4.73263 0.000103078
endloop
endfacet
facet normal 0.594634 0.803997 0
outer loop
vertex 3.2961 4.73263 1.6001
vertex 3.2961 4.73263 0.000103078
vertex 2.85291 5.06042 1.6001
endloop
endfacet
facet normal 0.594634 0.803997 0
outer loop
vertex 2.85291 5.06042 1.6001
vertex 3.2961 4.73263 0.000103078
vertex 2.85291 5.06042 0.000103078
endloop
endfacet
facet normal 0.721956 0.691939 0
outer loop
vertex 2.85291 5.06042 1.6001
vertex 2.85291 5.06042 0.000103078
vertex 2.47149 5.45839 1.6001
endloop
endfacet
facet normal 0.721956 0.691939 0
outer loop
vertex 2.47149 5.45839 1.6001
vertex 2.85291 5.06042 0.000103078
vertex 2.47149 5.45839 0.000103078
endloop
endfacet
facet normal 0.82851 0.559974 0
outer loop
vertex 2.47149 5.45839 1.6001
vertex 2.47149 5.45839 0.000103078
vertex 2.16281 5.91509 1.6001
endloop
endfacet
facet normal 0.82851 0.559974 0
outer loop
vertex 2.16281 5.91509 1.6001
vertex 2.47149 5.45839 0.000103078
vertex 2.16281 5.91509 0.000103078
endloop
endfacet
facet normal 0.911228 0.411902 0
outer loop
vertex 2.16281 5.91509 1.6001
vertex 2.16281 5.91509 0.000103078
vertex 1.93575 6.4174 1.6001
endloop
endfacet
facet normal 0.911228 0.411902 0
outer loop
vertex 1.93575 6.4174 1.6001
vertex 2.16281 5.91509 0.000103078
vertex 1.93575 6.4174 0.000103078
endloop
endfacet
facet normal 0.967733 0.251977 0
outer loop
vertex 1.93575 6.4174 1.6001
vertex 1.93575 6.4174 0.000103078
vertex 1.79685 6.95085 1.6001
endloop
endfacet
facet normal 0.967733 0.251977 0
outer loop
vertex 1.79685 6.95085 1.6001
vertex 1.93575 6.4174 0.000103078
vertex 1.79685 6.95085 0.000103078
endloop
endfacet
facet normal 0.996397 0.0848066 0
outer loop
vertex 1.79685 6.95085 1.6001
vertex 1.79685 6.95085 0.000103078
vertex 1.7501 7.5001 1.6001
endloop
endfacet
facet normal 0.996397 0.0848066 0
outer loop
vertex 1.7501 7.5001 1.6001
vertex 1.79685 6.95085 0.000103078
vertex 1.7501 7.5001 0.000103078
endloop
endfacet
facet normal 0.996397 -0.0848066 0
outer loop
vertex 1.7501 7.5001 1.6001
vertex 1.7501 7.5001 0.000103078
vertex 1.79685 8.04936 1.6001
endloop
endfacet
facet normal 0.996397 -0.0848066 0
outer loop
vertex 1.79685 8.04936 1.6001
vertex 1.7501 7.5001 0.000103078
vertex 1.79685 8.04936 0.000103078
endloop
endfacet
facet normal 0.967733 -0.251979 0
outer loop
vertex 24.7969 8.04936 1.6001
vertex 24.7969 8.04936 0.000103078
vertex 24.9358 8.58281 1.6001
endloop
endfacet
facet normal 0.967733 -0.251979 0
outer loop
vertex 24.9358 8.58281 1.6001
vertex 24.7969 8.04936 0.000103078
vertex 24.9358 8.58281 0.000103078
endloop
endfacet
facet normal 0.911228 -0.411902 0
outer loop
vertex 24.9358 8.58281 1.6001
vertex 24.9358 8.58281 0.000103078
vertex 25.1628 9.08511 1.6001
endloop
endfacet
facet normal 0.911228 -0.411902 0
outer loop
vertex 25.1628 9.08511 1.6001
vertex 24.9358 8.58281 0.000103078
vertex 25.1628 9.08511 0.000103078
endloop
endfacet
facet normal 0.82851 -0.559975 0
outer loop
vertex 25.1628 9.08511 1.6001
vertex 25.1628 9.08511 0.000103078
vertex 25.4715 9.54182 1.6001
endloop
endfacet
facet normal 0.82851 -0.559975 0
outer loop
vertex 25.4715 9.54182 1.6001
vertex 25.1628 9.08511 0.000103078
vertex 25.4715 9.54182 0.000103078
endloop
endfacet
facet normal 0.721957 -0.691937 0
outer loop
vertex 25.4715 9.54182 1.6001
vertex 25.4715 9.54182 0.000103078
vertex 25.8529 9.93979 1.6001
endloop
endfacet
facet normal 0.721957 -0.691937 0
outer loop
vertex 25.8529 9.93979 1.6001
vertex 25.4715 9.54182 0.000103078
vertex 25.8529 9.93979 0.000103078
endloop
endfacet
facet normal 0.594634 -0.803997 0
outer loop
vertex 25.8529 9.93979 1.6001
vertex 25.8529 9.93979 0.000103078
vertex 26.2961 10.2676 1.6001
endloop
endfacet
facet normal 0.594634 -0.803997 0
outer loop
vertex 26.2961 10.2676 1.6001
vertex 25.8529 9.93979 0.000103078
vertex 26.2961 10.2676 0.000103078
endloop
endfacet
facet normal 0.450203 -0.892926 0
outer loop
vertex 26.2961 10.2676 1.6001
vertex 26.2961 10.2676 0.000103078
vertex 26.7883 10.5157 1.6001
endloop
endfacet
facet normal 0.450203 -0.892926 0
outer loop
vertex 26.7883 10.5157 1.6001
vertex 26.2961 10.2676 0.000103078
vertex 26.7883 10.5157 0.000103078
endloop
endfacet
facet normal 0.292824 -0.956166 0
outer loop
vertex 26.7883 10.5157 1.6001
vertex 26.7883 10.5157 0.000103078
vertex 27.3154 10.6772 1.6001
endloop
endfacet
facet normal 0.292824 -0.956166 0
outer loop
vertex 27.3154 10.6772 1.6001
vertex 26.7883 10.5157 0.000103078
vertex 27.3154 10.6772 0.000103078
endloop
endfacet
facet normal 0.127016 -0.991901 0
outer loop
vertex 27.3154 10.6772 1.6001
vertex 27.3154 10.6772 0.000103078
vertex 27.8622 10.7472 1.6001
endloop
endfacet
facet normal 0.127016 -0.991901 0
outer loop
vertex 27.8622 10.7472 1.6001
vertex 27.3154 10.6772 0.000103078
vertex 27.8622 10.7472 0.000103078
endloop
endfacet
facet normal -0.0424401 -0.999099 0
outer loop
vertex 27.8622 10.7472 1.6001
vertex 27.8622 10.7472 0.000103078
vertex 28.4129 10.7238 1.6001
endloop
endfacet
facet normal -0.0424401 -0.999099 0
outer loop
vertex 28.4129 10.7238 1.6001
vertex 27.8622 10.7472 0.000103078
vertex 28.4129 10.7238 0.000103078
endloop
endfacet
facet normal -0.21068 -0.977555 0
outer loop
vertex 28.4129 10.7238 1.6001
vertex 28.4129 10.7238 0.000103078
vertex 28.9518 10.6076 1.6001
endloop
endfacet
facet normal -0.21068 -0.977555 0
outer loop
vertex 28.9518 10.6076 1.6001
vertex 28.4129 10.7238 0.000103078
vertex 28.9518 10.6076 0.000103078
endloop
endfacet
facet normal -0.372856 -0.927889 0
outer loop
vertex 28.9518 10.6076 1.6001
vertex 28.9518 10.6076 0.000103078
vertex 29.4633 10.4021 1.6001
endloop
endfacet
facet normal -0.372856 -0.927889 0
outer loop
vertex 29.4633 10.4021 1.6001
vertex 28.9518 10.6076 0.000103078
vertex 29.4633 10.4021 0.000103078
endloop
endfacet
facet normal -0.524307 -0.851529 0
outer loop
vertex 29.4633 10.4021 1.6001
vertex 29.4633 10.4021 0.000103078
vertex 29.9327 10.1131 1.6001
endloop
endfacet
facet normal -0.524307 -0.851529 0
outer loop
vertex 29.9327 10.1131 1.6001
vertex 29.4633 10.4021 0.000103078
vertex 29.9327 10.1131 0.000103078
endloop
endfacet
facet normal -0.660674 -0.750673 0
outer loop
vertex 29.9327 10.1131 1.6001
vertex 29.9327 10.1131 0.000103078
vertex 30.3465 9.7489 1.6001
endloop
endfacet
facet normal -0.660674 -0.750673 0
outer loop
vertex 30.3465 9.7489 1.6001
vertex 29.9327 10.1131 0.000103078
vertex 30.3465 9.7489 0.000103078
endloop
endfacet
facet normal -0.778034 -0.628222 0
outer loop
vertex 30.3465 9.7489 1.6001
vertex 30.3465 9.7489 0.000103078
vertex 30.6928 9.32002 1.6001
endloop
endfacet
facet normal -0.778034 -0.628222 0
outer loop
vertex 30.6928 9.32002 1.6001
vertex 30.3465 9.7489 0.000103078
vertex 30.6928 9.32002 0.000103078
endloop
endfacet
facet normal -0.873015 -0.487693 0
outer loop
vertex 30.6928 9.32002 1.6001
vertex 30.6928 9.32002 0.000103078
vertex 30.9616 8.83878 1.6001
endloop
endfacet
facet normal -0.873015 -0.487693 0
outer loop
vertex 30.9616 8.83878 1.6001
vertex 30.6928 9.32002 0.000103078
vertex 30.9616 8.83878 0.000103078
endloop
endfacet
facet normal -0.942879 -0.333137 0
outer loop
vertex 30.9616 8.83878 1.6001
vertex 30.9616 8.83878 0.000103078
vertex 31.1452 8.31903 1.6001
endloop
endfacet
facet normal -0.942879 -0.333137 0
outer loop
vertex 31.1452 8.31903 1.6001
vertex 30.9616 8.83878 0.000103078
vertex 31.1452 8.31903 0.000103078
endloop
endfacet
facet normal -0.985616 -0.169002 0
outer loop
vertex 31.1452 8.31903 1.6001
vertex 31.1452 8.31903 0.000103078
vertex 31.2384 7.77572 1.6001
endloop
endfacet
facet normal -0.985616 -0.169002 0
outer loop
vertex 31.2384 7.77572 1.6001
vertex 31.1452 8.31903 0.000103078
vertex 31.2384 7.77572 0.000103078
endloop
endfacet
facet normal -1 0 0
outer loop
vertex 31.2384 7.77572 1.6001
vertex 31.2384 7.77572 0.000103078
vertex 31.2384 7.22448 1.6001
endloop
endfacet
facet normal -1 0 0
outer loop
vertex 31.2384 7.22448 1.6001
vertex 31.2384 7.77572 0.000103078
vertex 31.2384 7.22448 0.000103078
endloop
endfacet
facet normal -0.985616 0.169002 0
outer loop
vertex 31.2384 7.22448 1.6001
vertex 31.2384 7.22448 0.000103078
vertex 31.1452 6.68117 1.6001
endloop
endfacet
facet normal -0.985616 0.169002 0
outer loop
vertex 31.1452 6.68117 1.6001
vertex 31.2384 7.22448 0.000103078
vertex 31.1452 6.68117 0.000103078
endloop
endfacet
facet normal -0.942878 0.333137 0
outer loop
vertex 31.1452 6.68117 1.6001
vertex 31.1452 6.68117 0.000103078
vertex 30.9616 6.16142 1.6001
endloop
endfacet
facet normal -0.942878 0.333137 0
outer loop
vertex 30.9616 6.16142 1.6001
vertex 31.1452 6.68117 0.000103078
vertex 30.9616 6.16142 0.000103078
endloop
endfacet
facet normal -0.873015 0.487693 0
outer loop
vertex 30.9616 6.16142 1.6001
vertex 30.9616 6.16142 0.000103078
vertex 30.6928 5.68019 1.6001
endloop
endfacet
facet normal -0.873015 0.487693 0
outer loop
vertex 30.6928 5.68019 1.6001
vertex 30.9616 6.16142 0.000103078
vertex 30.6928 5.68019 0.000103078
endloop
endfacet
facet normal -0.778035 0.628221 0
outer loop
vertex 30.6928 5.68019 1.6001
vertex 30.6928 5.68019 0.000103078
vertex 30.3465 5.2513 1.6001
endloop
endfacet
facet normal -0.778035 0.628221 0
outer loop
vertex 30.3465 5.2513 1.6001
vertex 30.6928 5.68019 0.000103078
vertex 30.3465 5.2513 0.000103078
endloop
endfacet
facet normal -0.660673 0.750674 0
outer loop
vertex 30.3465 5.2513 1.6001
vertex 30.3465 5.2513 0.000103078
vertex 29.9327 4.88711 1.6001
endloop
endfacet
facet normal -0.660673 0.750674 0
outer loop
vertex 29.9327 4.88711 1.6001
vertex 30.3465 5.2513 0.000103078
vertex 29.9327 4.88711 0.000103078
endloop
endfacet
facet normal -0.524308 0.851528 0
outer loop
vertex 29.9327 4.88711 1.6001
vertex 29.9327 4.88711 0.000103078
vertex 29.4633 4.59809 1.6001
endloop
endfacet
facet normal -0.524308 0.851528 0
outer loop
vertex 29.4633 4.59809 1.6001
vertex 29.9327 4.88711 0.000103078
vertex 29.4633 4.59809 0.000103078
endloop
endfacet
facet normal -0.372855 0.92789 0
outer loop
vertex 29.4633 4.59809 1.6001
vertex 29.4633 4.59809 0.000103078
vertex 28.9518 4.39256 1.6001
endloop
endfacet
facet normal -0.372855 0.92789 0
outer loop
vertex 28.9518 4.39256 1.6001
vertex 29.4633 4.59809 0.000103078
vertex 28.9518 4.39256 0.000103078
endloop
endfacet
facet normal -0.210681 0.977555 0
outer loop
vertex 28.9518 4.39256 1.6001
vertex 28.9518 4.39256 0.000103078
vertex 28.4129 4.27643 1.6001
endloop
endfacet
facet normal -0.210681 0.977555 0
outer loop
vertex 28.4129 4.27643 1.6001
vertex 28.9518 4.39256 0.000103078
vertex 28.4129 4.27643 0.000103078
endloop
endfacet
facet normal -0.0424401 0.999099 0
outer loop
vertex 28.4129 4.27643 1.6001
vertex 28.4129 4.27643 0.000103078
vertex 27.8622 4.25303 1.6001
endloop
endfacet
facet normal -0.0424401 0.999099 0
outer loop
vertex 27.8622 4.25303 1.6001
vertex 28.4129 4.27643 0.000103078
vertex 27.8622 4.25303 0.000103078
endloop
endfacet
facet normal 0.127017 0.9919 0
outer loop
vertex 27.8622 4.25303 1.6001
vertex 27.8622 4.25303 0.000103078
vertex 27.3154 4.32305 1.6001
endloop
endfacet
facet normal 0.127017 0.9919 0
outer loop
vertex 27.3154 4.32305 1.6001
vertex 27.8622 4.25303 0.000103078
vertex 27.3154 4.32305 0.000103078
endloop
endfacet
facet normal 0.292823 0.956167 0
outer loop
vertex 27.3154 4.32305 1.6001
vertex 27.3154 4.32305 0.000103078
vertex 26.7883 4.48446 1.6001
endloop
endfacet
facet normal 0.292823 0.956167 0
outer loop
vertex 26.7883 4.48446 1.6001
vertex 27.3154 4.32305 0.000103078
vertex 26.7883 4.48446 0.000103078
endloop
endfacet
facet normal 0.450203 0.892926 0
outer loop
vertex 26.7883 4.48446 1.6001
vertex 26.7883 4.48446 0.000103078
vertex 26.2961 4.73263 1.6001
endloop
endfacet
facet normal 0.450203 0.892926 0
outer loop
vertex 26.2961 4.73263 1.6001
vertex 26.7883 4.48446 0.000103078
vertex 26.2961 4.73263 0.000103078
endloop
endfacet
facet normal 0.594634 0.803996 0
outer loop
vertex 26.2961 4.73263 1.6001
vertex 26.2961 4.73263 0.000103078
vertex 25.8529 5.06042 1.6001
endloop
endfacet
facet normal 0.594634 0.803996 0
outer loop
vertex 25.8529 5.06042 1.6001
vertex 26.2961 4.73263 0.000103078
vertex 25.8529 5.06042 0.000103078
endloop
endfacet
facet normal 0.721957 0.691938 0
outer loop
vertex 25.8529 5.06042 1.6001
vertex 25.8529 5.06042 0.000103078
vertex 25.4715 5.45839 1.6001
endloop
endfacet
facet normal 0.721957 0.691938 0
outer loop
vertex 25.4715 5.45839 1.6001
vertex 25.8529 5.06042 0.000103078
vertex 25.4715 5.45839 0.000103078
endloop
endfacet
facet normal 0.82851 0.559975 0
outer loop
vertex 25.4715 5.45839 1.6001
vertex 25.4715 5.45839 0.000103078
vertex 25.1628 5.91509 1.6001
endloop
endfacet
facet normal 0.82851 0.559975 0
outer loop
vertex 25.1628 5.91509 1.6001
vertex 25.4715 5.45839 0.000103078
vertex 25.1628 5.91509 0.000103078
endloop
endfacet
facet normal 0.911228 0.411902 0
outer loop
vertex 25.1628 5.91509 1.6001
vertex 25.1628 5.91509 0.000103078
vertex 24.9358 6.4174 1.6001
endloop
endfacet
facet normal 0.911228 0.411902 0
outer loop
vertex 24.9358 6.4174 1.6001
vertex 25.1628 5.91509 0.000103078
vertex 24.9358 6.4174 0.000103078
endloop
endfacet
facet normal 0.967733 0.251979 0
outer loop
vertex 24.9358 6.4174 1.6001
vertex 24.9358 6.4174 0.000103078
vertex 24.7969 6.95085 1.6001
endloop
endfacet
facet normal 0.967733 0.251979 0
outer loop
vertex 24.7969 6.95085 1.6001
vertex 24.9358 6.4174 0.000103078
vertex 24.7969 6.95085 0.000103078
endloop
endfacet
facet normal 0.996398 0.084804 0
outer loop
vertex 24.7969 6.95085 1.6001
vertex 24.7969 6.95085 0.000103078
vertex 24.7501 7.5001 1.6001
endloop
endfacet
facet normal 0.996398 0.084804 0
outer loop
vertex 24.7501 7.5001 1.6001
vertex 24.7969 6.95085 0.000103078
vertex 24.7501 7.5001 0.000103078
endloop
endfacet
facet normal 0.996398 -0.084804 0
outer loop
vertex 24.7501 7.5001 1.6001
vertex 24.7501 7.5001 0.000103078
vertex 24.7969 8.04936 1.6001
endloop
endfacet
facet normal 0.996398 -0.084804 0
outer loop
vertex 24.7969 8.04936 1.6001
vertex 24.7501 7.5001 0.000103078
vertex 24.7969 8.04936 0.000103078
endloop
endfacet
facet normal 0 1 0
outer loop
vertex 33.0001 15.0001 1.6001
vertex 33.0001 15.0001 0.000103078
vertex 0.000102445 15.0001 1.6001
endloop
endfacet
facet normal 0 1 0
outer loop
vertex 0.000102445 15.0001 1.6001
vertex 33.0001 15.0001 0.000103078
vertex 0.000102445 15.0001 0.000103078
endloop
endfacet
facet normal 0 0 -1
outer loop
vertex 26.2961 10.2676 0.000103078
vertex 25.8529 9.93979 0.000103078
vertex 0.000102445 15.0001 0.000103078
endloop
endfacet
facet normal 0 0 -1
outer loop
vertex 3.2961 10.2676 0.000103078
vertex 2.85291 9.93979 0.000103078
vertex 0.000102445 15.0001 0.000103078
endloop
endfacet
facet normal 0 0 -1
outer loop
vertex 0.000102445 15.0001 0.000103078
vertex 2.85291 9.93979 0.000103078
vertex 2.47149 9.54182 0.000103078
endloop
endfacet
facet normal 0 0 -1
outer loop
vertex 0.000102445 15.0001 0.000103078
vertex 2.47149 9.54182 0.000103078
vertex 2.16281 9.08511 0.000103078
endloop
endfacet
facet normal 0 0 -1
outer loop
vertex 2.16281 9.08511 0.000103078
vertex 1.93575 8.58281 0.000103078
vertex 0.000102445 15.0001 0.000103078
endloop
endfacet
facet normal 0 0 -1
outer loop
vertex 0.000102445 15.0001 0.000103078
vertex 1.93575 8.58281 0.000103078
vertex 1.79685 8.04936 0.000103078
endloop
endfacet
facet normal 0 0 -1
outer loop
vertex 0.000102445 15.0001 0.000103078
vertex 1.79685 8.04936 0.000103078
vertex 0.000102445 3.6001 0.000103078
endloop
endfacet
facet normal 0 0 -1
outer loop
vertex 0.000102445 3.6001 0.000103078
vertex 1.79685 8.04936 0.000103078
vertex 1.7501 7.5001 0.000103078
endloop
endfacet
facet normal 0 0 -1
outer loop
vertex 0.000102445 3.6001 0.000103078
vertex 1.7501 7.5001 0.000103078
vertex 1.79685 6.95085 0.000103078
endloop
endfacet
facet normal 0 0 -1
outer loop
vertex 1.79685 6.95085 0.000103078
vertex 1.93575 6.4174 0.000103078
vertex 0.000102445 3.6001 0.000103078
endloop
endfacet
facet normal 0 0 -1
outer loop
vertex 0.000102445 3.6001 0.000103078
vertex 1.93575 6.4174 0.000103078
vertex 2.16281 5.91509 0.000103078
endloop
endfacet
facet normal 0 0 -1
outer loop
vertex 0.000102445 3.6001 0.000103078
vertex 2.16281 5.91509 0.000103078
vertex 2.47149 5.45839 0.000103078
endloop
endfacet
facet normal 0 0 -1
outer loop
vertex 25.4715 5.45839 0.000103078
vertex 25.8529 5.06042 0.000103078
vertex 0.000102445 3.6001 0.000103078
endloop
endfacet
facet normal 0 0 -1
outer loop
vertex 0.000102445 3.6001 0.000103078
vertex 25.8529 5.06042 0.000103078
vertex 26.2961 4.73263 0.000103078
endloop
endfacet
facet normal 0 0 -1
outer loop
vertex 0.000102445 3.6001 0.000103078
vertex 26.2961 4.73263 0.000103078
vertex 26.7883 4.48446 0.000103078
endloop
endfacet
facet normal 0 0 -1
outer loop
vertex 2.47149 5.45839 0.000103078
vertex 2.85291 5.06042 0.000103078
vertex 0.000102445 3.6001 0.000103078
endloop
endfacet
facet normal 0 0 -1
outer loop
vertex 0.000102445 3.6001 0.000103078
vertex 2.85291 5.06042 0.000103078
vertex 3.2961 4.73263 0.000103078
endloop
endfacet
facet normal 0 0 -1
outer loop
vertex 0.000102445 3.6001 0.000103078
vertex 3.2961 4.73263 0.000103078
vertex 3.78832 4.48446 0.000103078
endloop
endfacet
facet normal 0 0 -1
outer loop
vertex 5.41291 10.7238 0.000103078
vertex 4.86217 10.7472 0.000103078
vertex 0.000102445 15.0001 0.000103078
endloop
endfacet
facet normal 0 0 -1
outer loop
vertex 26.7883 4.48446 0.000103078
vertex 27.3154 4.32305 0.000103078
vertex 0.000102445 3.6001 0.000103078
endloop
endfacet
facet normal 0 0 -1
outer loop
vertex 0.000102445 3.6001 0.000103078
vertex 27.3154 4.32305 0.000103078
vertex 27.8622 4.25303 0.000103078
endloop
endfacet
facet normal 0 0 -1
outer loop
vertex 0.000102445 3.6001 0.000103078
vertex 27.8622 4.25303 0.000103078
vertex 33.0001 3.6001 0.000103078
endloop
endfacet
facet normal 0 0 -1
outer loop
vertex 33.0001 3.6001 0.000103078
vertex 27.8622 4.25303 0.000103078
vertex 28.4129 4.27643 0.000103078
endloop
endfacet
facet normal 0 0 -1
outer loop
vertex 28.4129 4.27643 0.000103078
vertex 28.9518 4.39256 0.000103078
vertex 33.0001 3.6001 0.000103078
endloop
endfacet
facet normal 0 0 -1
outer loop
vertex 33.0001 3.6001 0.000103078
vertex 28.9518 4.39256 0.000103078
vertex 29.4633 4.59809 0.000103078
endloop
endfacet
facet normal 0 0 -1
outer loop
vertex 33.0001 3.6001 0.000103078
vertex 29.4633 4.59809 0.000103078
vertex 29.9327 4.88711 0.000103078
endloop
endfacet
facet normal 0 0 -1
outer loop
vertex 33.0001 15.0001 0.000103078
vertex 31.1452 8.31903 0.000103078
vertex 30.9616 8.83878 0.000103078
endloop
endfacet
facet normal 0 0 -1
outer loop
vertex 5.41291 4.27643 0.000103078
vertex 5.95178 4.39256 0.000103078
vertex 24.7501 7.5001 0.000103078
endloop
endfacet
facet normal 0 0 -1
outer loop
vertex 24.7501 7.5001 0.000103078
vertex 5.95178 4.39256 0.000103078
vertex 6.46326 4.59809 0.000103078
endloop
endfacet
facet normal 0 0 -1
outer loop
vertex 24.7501 7.5001 0.000103078
vertex 6.46326 4.59809 0.000103078
vertex 6.93266 4.88711 0.000103078
endloop
endfacet
facet normal 0 0 -1
outer loop
vertex 4.86217 10.7472 0.000103078
vertex 4.31539 10.6772 0.000103078
vertex 0.000102445 15.0001 0.000103078
endloop
endfacet
facet normal 0 0 -1
outer loop
vertex 0.000102445 15.0001 0.000103078
vertex 4.31539 10.6772 0.000103078
vertex 3.78832 10.5157 0.000103078
endloop
endfacet
facet normal 0 0 -1
outer loop
vertex 0.000102445 15.0001 0.000103078
vertex 3.78832 10.5157 0.000103078
vertex 3.2961 10.2676 0.000103078
endloop
endfacet
facet normal 0 0 -1
outer loop
vertex 3.78832 4.48446 0.000103078
vertex 4.31539 4.32305 0.000103078
vertex 0.000102445 3.6001 0.000103078
endloop
endfacet
facet normal 0 0 -1
outer loop
vertex 0.000102445 3.6001 0.000103078
vertex 4.31539 4.32305 0.000103078
vertex 4.86217 4.25303 0.000103078
endloop
endfacet
facet normal 0 0 -1
outer loop
vertex 0.000102445 3.6001 0.000103078
vertex 4.86217 4.25303 0.000103078
vertex 5.41291 4.27643 0.000103078
endloop
endfacet
facet normal 0 0 -1
outer loop
vertex 30.9616 8.83878 0.000103078
vertex 30.6928 9.32002 0.000103078
vertex 33.0001 15.0001 0.000103078
endloop
endfacet
facet normal 0 0 -1
outer loop
vertex 33.0001 15.0001 0.000103078
vertex 30.6928 9.32002 0.000103078
vertex 30.3465 9.7489 0.000103078
endloop
endfacet
facet normal 0 0 -1
outer loop
vertex 33.0001 15.0001 0.000103078
vertex 30.3465 9.7489 0.000103078
vertex 29.9327 10.1131 0.000103078
endloop
endfacet
facet normal 0 0 -1
outer loop
vertex 6.93266 4.88711 0.000103078
vertex 7.34646 5.2513 0.000103078
vertex 24.7501 7.5001 0.000103078
endloop
endfacet
facet normal 0 0 -1
outer loop
vertex 24.7501 7.5001 0.000103078
vertex 7.34646 5.2513 0.000103078
vertex 7.69276 5.68019 0.000103078
endloop
endfacet
facet normal 0 0 -1
outer loop
vertex 24.7501 7.5001 0.000103078
vertex 7.69276 5.68019 0.000103078
vertex 7.96159 6.16142 0.000103078
endloop
endfacet
facet normal 0 0 -1
outer loop
vertex 24.7501 7.5001 0.000103078
vertex 24.7969 6.95085 0.000103078
vertex 5.41291 4.27643 0.000103078
endloop
endfacet
facet normal 0 0 -1
outer loop
vertex 5.41291 4.27643 0.000103078
vertex 24.7969 6.95085 0.000103078
vertex 24.9358 6.4174 0.000103078
endloop
endfacet
facet normal 0 0 -1
outer loop
vertex 5.41291 4.27643 0.000103078
vertex 24.9358 6.4174 0.000103078
vertex 0.000102445 3.6001 0.000103078
endloop
endfacet
facet normal 0 0 -1
outer loop
vertex 0.000102445 3.6001 0.000103078
vertex 24.9358 6.4174 0.000103078
vertex 25.1628 5.91509 0.000103078
endloop
endfacet
facet normal 0 0 -1
outer loop
vertex 0.000102445 3.6001 0.000103078
vertex 25.1628 5.91509 0.000103078
vertex 25.4715 5.45839 0.000103078
endloop
endfacet
facet normal 0 0 -1
outer loop
vertex 29.9327 10.1131 0.000103078
vertex 29.4633 10.4021 0.000103078
vertex 33.0001 15.0001 0.000103078
endloop
endfacet
facet normal 0 0 -1
outer loop
vertex 33.0001 15.0001 0.000103078
vertex 29.4633 10.4021 0.000103078
vertex 28.9518 10.6076 0.000103078
endloop
endfacet
facet normal 0 0 -1
outer loop
vertex 33.0001 15.0001 0.000103078
vertex 28.9518 10.6076 0.000103078
vertex 28.4129 10.7238 0.000103078
endloop
endfacet
facet normal 0 0 -1
outer loop
vertex 25.8529 9.93979 0.000103078
vertex 7.69276 9.32002 0.000103078
vertex 7.34646 9.7489 0.000103078
endloop
endfacet
facet normal 0 0 -1
outer loop
vertex 7.34646 9.7489 0.000103078
vertex 6.93266 10.1131 0.000103078
vertex 25.8529 9.93979 0.000103078
endloop
endfacet
facet normal 0 0 -1
outer loop
vertex 25.8529 9.93979 0.000103078
vertex 6.93266 10.1131 0.000103078
vertex 6.46326 10.4021 0.000103078
endloop
endfacet
facet normal 0 0 -1
outer loop
vertex 25.8529 9.93979 0.000103078
vertex 6.46326 10.4021 0.000103078
vertex 0.000102445 15.0001 0.000103078
endloop
endfacet
facet normal 0 0 -1
outer loop
vertex 0.000102445 15.0001 0.000103078
vertex 6.46326 10.4021 0.000103078
vertex 5.95178 10.6076 0.000103078
endloop
endfacet
facet normal 0 0 -1
outer loop
vertex 0.000102445 15.0001 0.000103078
vertex 5.95178 10.6076 0.000103078
vertex 5.41291 10.7238 0.000103078
endloop
endfacet
facet normal 0 0 -1
outer loop
vertex 29.9327 4.88711 0.000103078
vertex 30.3465 5.2513 0.000103078
vertex 33.0001 3.6001 0.000103078
endloop
endfacet
facet normal 0 0 -1
outer loop
vertex 33.0001 3.6001 0.000103078
vertex 30.3465 5.2513 0.000103078
vertex 30.6928 5.68019 0.000103078
endloop
endfacet
facet normal 0 0 -1
outer loop
vertex 33.0001 3.6001 0.000103078
vertex 30.6928 5.68019 0.000103078
vertex 30.9616 6.16142 0.000103078
endloop
endfacet
facet normal 0 0 -1
outer loop
vertex 28.4129 10.7238 0.000103078
vertex 27.8622 10.7472 0.000103078
vertex 33.0001 15.0001 0.000103078
endloop
endfacet
facet normal 0 0 -1
outer loop
vertex 33.0001 15.0001 0.000103078
vertex 27.8622 10.7472 0.000103078
vertex 27.3154 10.6772 0.000103078
endloop
endfacet
facet normal 0 0 -1
outer loop
vertex 33.0001 15.0001 0.000103078
vertex 27.3154 10.6772 0.000103078
vertex 0.000102445 15.0001 0.000103078
endloop
endfacet
facet normal 0 0 -1
outer loop
vertex 0.000102445 15.0001 0.000103078
vertex 27.3154 10.6772 0.000103078
vertex 26.7883 10.5157 0.000103078
endloop
endfacet
facet normal 0 0 -1
outer loop
vertex 0.000102445 15.0001 0.000103078
vertex 26.7883 10.5157 0.000103078
vertex 26.2961 10.2676 0.000103078
endloop
endfacet
facet normal 0 0 -1
outer loop
vertex 30.9616 6.16142 0.000103078
vertex 31.1452 6.68117 0.000103078
vertex 33.0001 3.6001 0.000103078
endloop
endfacet
facet normal 0 0 -1
outer loop
vertex 33.0001 3.6001 0.000103078
vertex 31.1452 6.68117 0.000103078
vertex 31.2384 7.22448 0.000103078
endloop
endfacet
facet normal 0 0 -1
outer loop
vertex 33.0001 3.6001 0.000103078
vertex 31.2384 7.22448 0.000103078
vertex 33.0001 15.0001 0.000103078
endloop
endfacet
facet normal 0 0 -1
outer loop
vertex 33.0001 15.0001 0.000103078
vertex 31.2384 7.22448 0.000103078
vertex 31.2384 7.77572 0.000103078
endloop
endfacet
facet normal 0 0 -1
outer loop
vertex 33.0001 15.0001 0.000103078
vertex 31.2384 7.77572 0.000103078
vertex 31.1452 8.31903 0.000103078
endloop
endfacet
facet normal 0 0 -1
outer loop
vertex 25.1628 9.08511 0.000103078
vertex 8.23839 7.77572 0.000103078
vertex 25.4715 9.54182 0.000103078
endloop
endfacet
facet normal 0 0 -1
outer loop
vertex 25.4715 9.54182 0.000103078
vertex 8.23839 7.77572 0.000103078
vertex 8.14523 8.31903 0.000103078
endloop
endfacet
facet normal 0 0 -1
outer loop
vertex 25.4715 9.54182 0.000103078
vertex 8.14523 8.31903 0.000103078
vertex 25.8529 9.93979 0.000103078
endloop
endfacet
facet normal 0 0 -1
outer loop
vertex 25.8529 9.93979 0.000103078
vertex 8.14523 8.31903 0.000103078
vertex 7.96159 8.83878 0.000103078
endloop
endfacet
facet normal 0 0 -1
outer loop
vertex 25.8529 9.93979 0.000103078
vertex 7.96159 8.83878 0.000103078
vertex 7.69276 9.32002 0.000103078
endloop
endfacet
facet normal 0 0 -1
outer loop
vertex 7.96159 6.16142 0.000103078
vertex 8.14523 6.68117 0.000103078
vertex 24.7501 7.5001 0.000103078
endloop
endfacet
facet normal 0 0 -1
outer loop
vertex 24.7501 7.5001 0.000103078
vertex 8.14523 6.68117 0.000103078
vertex 8.23839 7.22448 0.000103078
endloop
endfacet
facet normal 0 0 -1
outer loop
vertex 24.7501 7.5001 0.000103078
vertex 8.23839 7.22448 0.000103078
vertex 24.7969 8.04936 0.000103078
endloop
endfacet
facet normal 0 0 -1
outer loop
vertex 24.7969 8.04936 0.000103078
vertex 8.23839 7.22448 0.000103078
vertex 8.23839 7.77572 0.000103078
endloop
endfacet
facet normal 0 0 -1
outer loop
vertex 24.7969 8.04936 0.000103078
vertex 8.23839 7.77572 0.000103078
vertex 24.9358 8.58281 0.000103078
endloop
endfacet
facet normal 0 0 -1
outer loop
vertex 24.9358 8.58281 0.000103078
vertex 8.23839 7.77572 0.000103078
vertex 25.1628 9.08511 0.000103078
endloop
endfacet
facet normal 0 0 1
outer loop
vertex 6.46326 10.4021 1.6001
vertex 6.93266 10.1131 1.6001
vertex 25.8529 5.06042 1.6001
endloop
endfacet
facet normal 0 0 1
outer loop
vertex 25.8529 5.06042 1.6001
vertex 6.93266 10.1131 1.6001
vertex 7.34646 9.7489 1.6001
endloop
endfacet
facet normal 0 0 1
outer loop
vertex 25.8529 5.06042 1.6001
vertex 7.34646 9.7489 1.6001
vertex 7.69276 9.32002 1.6001
endloop
endfacet
facet normal 0 0 1
outer loop
vertex 33.0001 15.0001 1.6001
vertex 27.8622 10.7472 1.6001
vertex 28.4129 10.7238 1.6001
endloop
endfacet
facet normal 0 0 1
outer loop
vertex 8.23839 7.77572 1.6001
vertex 27.3154 4.32305 1.6001
vertex 8.14523 8.31903 1.6001
endloop
endfacet
facet normal 0 0 1
outer loop
vertex 8.14523 8.31903 1.6001
vertex 27.3154 4.32305 1.6001
vertex 26.7883 4.48446 1.6001
endloop
endfacet
facet normal 0 0 1
outer loop
vertex 7.69276 9.32002 1.6001
vertex 7.96159 8.83878 1.6001
vertex 25.8529 5.06042 1.6001
endloop
endfacet
facet normal 0 0 1
outer loop
vertex 25.8529 5.06042 1.6001
vertex 7.96159 8.83878 1.6001
vertex 8.14523 8.31903 1.6001
endloop
endfacet
facet normal 0 0 1
outer loop
vertex 25.8529 5.06042 1.6001
vertex 8.14523 8.31903 1.6001
vertex 26.2961 4.73263 1.6001
endloop
endfacet
facet normal 0 0 1
outer loop
vertex 26.2961 4.73263 1.6001
vertex 8.14523 8.31903 1.6001
vertex 26.7883 4.48446 1.6001
endloop
endfacet
facet normal 0 0 1
outer loop
vertex 2.47149 5.45839 1.6001
vertex 2.16281 5.91509 1.6001
vertex 0.000102445 3.6001 1.6001
endloop
endfacet
facet normal 0 0 1
outer loop
vertex 0.000102445 3.6001 1.6001
vertex 2.16281 5.91509 1.6001
vertex 1.93575 6.4174 1.6001
endloop
endfacet
facet normal 0 0 1
outer loop
vertex 2.47149 9.54182 1.6001
vertex 0.000102445 15.0001 1.6001
vertex 2.16281 9.08511 1.6001
endloop
endfacet
facet normal 0 0 1
outer loop
vertex 2.16281 9.08511 1.6001
vertex 0.000102445 15.0001 1.6001
vertex 1.93575 8.58281 1.6001
endloop
endfacet
facet normal 0 0 1
outer loop
vertex 28.4129 10.7238 1.6001
vertex 28.9518 10.6076 1.6001
vertex 33.0001 15.0001 1.6001
endloop
endfacet
facet normal 0 0 1
outer loop
vertex 33.0001 15.0001 1.6001
vertex 28.9518 10.6076 1.6001
vertex 29.4633 10.4021 1.6001
endloop
endfacet
facet normal 0 0 1
outer loop
vertex 33.0001 15.0001 1.6001
vertex 29.4633 10.4021 1.6001
vertex 29.9327 10.1131 1.6001
endloop
endfacet
facet normal 0 0 1
outer loop
vertex 29.9327 10.1131 1.6001
vertex 30.3465 9.7489 1.6001
vertex 33.0001 15.0001 1.6001
endloop
endfacet
facet normal 0 0 1
outer loop
vertex 33.0001 15.0001 1.6001
vertex 30.3465 9.7489 1.6001
vertex 30.6928 9.32002 1.6001
endloop
endfacet
facet normal 0 0 1
outer loop
vertex 33.0001 15.0001 1.6001
vertex 30.6928 9.32002 1.6001
vertex 30.9616 8.83878 1.6001
endloop
endfacet
facet normal 0 0 1
outer loop
vertex 1.93575 6.4174 1.6001
vertex 1.79685 6.95085 1.6001
vertex 0.000102445 3.6001 1.6001
endloop
endfacet
facet normal 0 0 1
outer loop
vertex 0.000102445 3.6001 1.6001
vertex 1.79685 6.95085 1.6001
vertex 1.7501 7.5001 1.6001
endloop
endfacet
facet normal 0 0 1
outer loop
vertex 0.000102445 3.6001 1.6001
vertex 1.7501 7.5001 1.6001
vertex 0.000102445 15.0001 1.6001
endloop
endfacet
facet normal 0 0 1
outer loop
vertex 0.000102445 15.0001 1.6001
vertex 1.7501 7.5001 1.6001
vertex 1.79685 8.04936 1.6001
endloop
endfacet
facet normal 0 0 1
outer loop
vertex 0.000102445 15.0001 1.6001
vertex 1.79685 8.04936 1.6001
vertex 1.93575 8.58281 1.6001
endloop
endfacet
facet normal 0 0 1
outer loop
vertex 2.47149 9.54182 1.6001
vertex 2.85291 9.93979 1.6001
vertex 0.000102445 15.0001 1.6001
endloop
endfacet
facet normal 0 0 1
outer loop
vertex 0.000102445 15.0001 1.6001
vertex 2.85291 9.93979 1.6001
vertex 3.2961 10.2676 1.6001
endloop
endfacet
facet normal 0 0 1
outer loop
vertex 0.000102445 15.0001 1.6001
vertex 3.2961 10.2676 1.6001
vertex 3.78832 10.5157 1.6001
endloop
endfacet
facet normal 0 0 1
outer loop
vertex 30.9616 8.83878 1.6001
vertex 31.1452 8.31903 1.6001
vertex 33.0001 15.0001 1.6001
endloop
endfacet
facet normal 0 0 1
outer loop
vertex 33.0001 15.0001 1.6001
vertex 31.1452 8.31903 1.6001
vertex 31.2384 7.77572 1.6001
endloop
endfacet
facet normal 0 0 1
outer loop
vertex 33.0001 15.0001 1.6001
vertex 31.2384 7.77572 1.6001
vertex 33.0001 3.6001 1.6001
endloop
endfacet
facet normal 0 0 1
outer loop
vertex 33.0001 3.6001 1.6001
vertex 31.2384 7.77572 1.6001
vertex 31.2384 7.22448 1.6001
endloop
endfacet
facet normal 0 0 1
outer loop
vertex 33.0001 3.6001 1.6001
vertex 31.2384 7.22448 1.6001
vertex 31.1452 6.68117 1.6001
endloop
endfacet
facet normal 0 0 1
outer loop
vertex 4.31539 4.32305 1.6001
vertex 3.78832 4.48446 1.6001
vertex 0.000102445 3.6001 1.6001
endloop
endfacet
facet normal 0 0 1
outer loop
vertex 0.000102445 15.0001 1.6001
vertex 25.4715 9.54182 1.6001
vertex 25.8529 9.93979 1.6001
endloop
endfacet
facet normal 0 0 1
outer loop
vertex 31.1452 6.68117 1.6001
vertex 30.9616 6.16142 1.6001
vertex 33.0001 3.6001 1.6001
endloop
endfacet
facet normal 0 0 1
outer loop
vertex 33.0001 3.6001 1.6001
vertex 30.9616 6.16142 1.6001
vertex 30.6928 5.68019 1.6001
endloop
endfacet
facet normal 0 0 1
outer loop
vertex 33.0001 3.6001 1.6001
vertex 30.6928 5.68019 1.6001
vertex 30.3465 5.2513 1.6001
endloop
endfacet
facet normal 0 0 1
outer loop
vertex 30.3465 5.2513 1.6001
vertex 29.9327 4.88711 1.6001
vertex 33.0001 3.6001 1.6001
endloop
endfacet
facet normal 0 0 1
outer loop
vertex 33.0001 3.6001 1.6001
vertex 29.9327 4.88711 1.6001
vertex 29.4633 4.59809 1.6001
endloop
endfacet
facet normal 0 0 1
outer loop
vertex 33.0001 3.6001 1.6001
vertex 29.4633 4.59809 1.6001
vertex 28.9518 4.39256 1.6001
endloop
endfacet
facet normal 0 0 1
outer loop
vertex 8.14523 6.68117 1.6001
vertex 7.96159 6.16142 1.6001
vertex 33.0001 3.6001 1.6001
endloop
endfacet
facet normal 0 0 1
outer loop
vertex 33.0001 3.6001 1.6001
vertex 7.96159 6.16142 1.6001
vertex 7.69276 5.68019 1.6001
endloop
endfacet
facet normal 0 0 1
outer loop
vertex 3.78832 4.48446 1.6001
vertex 3.2961 4.73263 1.6001
vertex 0.000102445 3.6001 1.6001
endloop
endfacet
facet normal 0 0 1
outer loop
vertex 0.000102445 3.6001 1.6001
vertex 3.2961 4.73263 1.6001
vertex 2.85291 5.06042 1.6001
endloop
endfacet
facet normal 0 0 1
outer loop
vertex 0.000102445 3.6001 1.6001
vertex 2.85291 5.06042 1.6001
vertex 2.47149 5.45839 1.6001
endloop
endfacet
facet normal 0 0 1
outer loop
vertex 6.46326 10.4021 1.6001
vertex 25.8529 5.06042 1.6001
vertex 5.95178 10.6076 1.6001
endloop
endfacet
facet normal 0 0 1
outer loop
vertex 5.95178 10.6076 1.6001
vertex 25.8529 5.06042 1.6001
vertex 25.4715 5.45839 1.6001
endloop
endfacet
facet normal 0 0 1
outer loop
vertex 5.95178 10.6076 1.6001
vertex 25.4715 5.45839 1.6001
vertex 25.1628 5.91509 1.6001
endloop
endfacet
facet normal 0 0 1
outer loop
vertex 24.7501 7.5001 1.6001
vertex 5.41291 10.7238 1.6001
vertex 24.7969 6.95085 1.6001
endloop
endfacet
facet normal 0 0 1
outer loop
vertex 24.7969 6.95085 1.6001
vertex 5.41291 10.7238 1.6001
vertex 5.95178 10.6076 1.6001
endloop
endfacet
facet normal 0 0 1
outer loop
vertex 24.7969 6.95085 1.6001
vertex 5.95178 10.6076 1.6001
vertex 24.9358 6.4174 1.6001
endloop
endfacet
facet normal 0 0 1
outer loop
vertex 24.9358 6.4174 1.6001
vertex 5.95178 10.6076 1.6001
vertex 25.1628 5.91509 1.6001
endloop
endfacet
facet normal 0 0 1
outer loop
vertex 7.69276 5.68019 1.6001
vertex 7.34646 5.2513 1.6001
vertex 33.0001 3.6001 1.6001
endloop
endfacet
facet normal 0 0 1
outer loop
vertex 33.0001 3.6001 1.6001
vertex 7.34646 5.2513 1.6001
vertex 6.93266 4.88711 1.6001
endloop
endfacet
facet normal 0 0 1
outer loop
vertex 33.0001 3.6001 1.6001
vertex 6.93266 4.88711 1.6001
vertex 6.46326 4.59809 1.6001
endloop
endfacet
facet normal 0 0 1
outer loop
vertex 3.78832 10.5157 1.6001
vertex 4.31539 10.6772 1.6001
vertex 0.000102445 15.0001 1.6001
endloop
endfacet
facet normal 0 0 1
outer loop
vertex 0.000102445 15.0001 1.6001
vertex 4.31539 10.6772 1.6001
vertex 4.86217 10.7472 1.6001
endloop
endfacet
facet normal 0 0 1
outer loop
vertex 0.000102445 15.0001 1.6001
vertex 4.86217 10.7472 1.6001
vertex 5.41291 10.7238 1.6001
endloop
endfacet
facet normal 0 0 1
outer loop
vertex 24.7501 7.5001 1.6001
vertex 24.7969 8.04936 1.6001
vertex 5.41291 10.7238 1.6001
endloop
endfacet
facet normal 0 0 1
outer loop
vertex 5.41291 10.7238 1.6001
vertex 24.7969 8.04936 1.6001
vertex 24.9358 8.58281 1.6001
endloop
endfacet
facet normal 0 0 1
outer loop
vertex 5.41291 10.7238 1.6001
vertex 24.9358 8.58281 1.6001
vertex 0.000102445 15.0001 1.6001
endloop
endfacet
facet normal 0 0 1
outer loop
vertex 0.000102445 15.0001 1.6001
vertex 24.9358 8.58281 1.6001
vertex 25.1628 9.08511 1.6001
endloop
endfacet
facet normal 0 0 1
outer loop
vertex 0.000102445 15.0001 1.6001
vertex 25.1628 9.08511 1.6001
vertex 25.4715 9.54182 1.6001
endloop
endfacet
facet normal 0 0 1
outer loop
vertex 25.8529 9.93979 1.6001
vertex 26.2961 10.2676 1.6001
vertex 0.000102445 15.0001 1.6001
endloop
endfacet
facet normal 0 0 1
outer loop
vertex 0.000102445 15.0001 1.6001
vertex 26.2961 10.2676 1.6001
vertex 26.7883 10.5157 1.6001
endloop
endfacet
facet normal 0 0 1
outer loop
vertex 0.000102445 15.0001 1.6001
vertex 26.7883 10.5157 1.6001
vertex 33.0001 15.0001 1.6001
endloop
endfacet
facet normal 0 0 1
outer loop
vertex 33.0001 15.0001 1.6001
vertex 26.7883 10.5157 1.6001
vertex 27.3154 10.6772 1.6001
endloop
endfacet
facet normal 0 0 1
outer loop
vertex 33.0001 15.0001 1.6001
vertex 27.3154 10.6772 1.6001
vertex 27.8622 10.7472 1.6001
endloop
endfacet
facet normal 0 0 1
outer loop
vertex 28.9518 4.39256 1.6001
vertex 28.4129 4.27643 1.6001
vertex 33.0001 3.6001 1.6001
endloop
endfacet
facet normal 0 0 1
outer loop
vertex 33.0001 3.6001 1.6001
vertex 28.4129 4.27643 1.6001
vertex 27.8622 4.25303 1.6001
endloop
endfacet
facet normal 0 0 1
outer loop
vertex 33.0001 3.6001 1.6001
vertex 27.8622 4.25303 1.6001
vertex 8.14523 6.68117 1.6001
endloop
endfacet
facet normal 0 0 1
outer loop
vertex 8.14523 6.68117 1.6001
vertex 27.8622 4.25303 1.6001
vertex 27.3154 4.32305 1.6001
endloop
endfacet
facet normal 0 0 1
outer loop
vertex 8.14523 6.68117 1.6001
vertex 27.3154 4.32305 1.6001
vertex 8.23839 7.22448 1.6001
endloop
endfacet
facet normal 0 0 1
outer loop
vertex 8.23839 7.22448 1.6001
vertex 27.3154 4.32305 1.6001
vertex 8.23839 7.77572 1.6001
endloop
endfacet
facet normal 0 0 1
outer loop
vertex 6.46326 4.59809 1.6001
vertex 5.95178 4.39256 1.6001
vertex 33.0001 3.6001 1.6001
endloop
endfacet
facet normal 0 0 1
outer loop
vertex 33.0001 3.6001 1.6001
vertex 5.95178 4.39256 1.6001
vertex 5.41291 4.27643 1.6001
endloop
endfacet
facet normal 0 0 1
outer loop
vertex 33.0001 3.6001 1.6001
vertex 5.41291 4.27643 1.6001
vertex 0.000102445 3.6001 1.6001
endloop
endfacet
facet normal 0 0 1
outer loop
vertex 0.000102445 3.6001 1.6001
vertex 5.41291 4.27643 1.6001
vertex 4.86217 4.25303 1.6001
endloop
endfacet
facet normal 0 0 1
outer loop
vertex 0.000102445 3.6001 1.6001
vertex 4.86217 4.25303 1.6001
vertex 4.31539 4.32305 1.6001
endloop
endfacet
facet normal 0 0.0784589 0.996917
outer loop
vertex 33.0001 3.6001 1.6001
vertex 0.000102445 3.6001 1.6001
vertex 33.0001 3.28723 1.62473
endloop
endfacet
facet normal 0 0.0784589 0.996917
outer loop
vertex 33.0001 3.28723 1.62473
vertex 0.000102445 3.6001 1.6001
vertex 0.000102445 3.28723 1.62473
endloop
endfacet
facet normal 0 0.233445 0.97237
outer loop
vertex 33.0001 3.28723 1.62473
vertex 0.000102445 3.28723 1.62473
vertex 33.0001 2.98207 1.69799
endloop
endfacet
facet normal 0 0.233445 0.97237
outer loop
vertex 33.0001 2.98207 1.69799
vertex 0.000102445 3.28723 1.62473
vertex 0.000102445 2.98207 1.69799
endloop
endfacet
facet normal 0 0.382683 0.92388
outer loop
vertex 33.0001 2.98207 1.69799
vertex 0.000102445 2.98207 1.69799
vertex 33.0001 2.69212 1.81809
endloop
endfacet
facet normal 0 0.382683 0.92388
outer loop
vertex 33.0001 2.69212 1.81809
vertex 0.000102445 2.98207 1.69799
vertex 0.000102445 2.69212 1.81809
endloop
endfacet
facet normal 0 0.522499 0.85264
outer loop
vertex 33.0001 2.69212 1.81809
vertex 0.000102445 2.69212 1.81809
vertex 33.0001 2.42453 1.98207
endloop
endfacet
facet normal 0 0.522499 0.85264
outer loop
vertex 33.0001 2.42453 1.98207
vertex 0.000102445 2.69212 1.81809
vertex 0.000102445 2.42453 1.98207
endloop
endfacet
facet normal 0 0.649448 0.760406
outer loop
vertex 33.0001 2.42453 1.98207
vertex 0.000102445 2.42453 1.98207
vertex 33.0001 2.18589 2.18589
endloop
endfacet
facet normal 0 0.649448 0.760406
outer loop
vertex 33.0001 2.18589 2.18589
vertex 0.000102445 2.42453 1.98207
vertex 0.000102445 2.18589 2.18589
endloop
endfacet
facet normal 0 0.760406 0.649448
outer loop
vertex 33.0001 2.18589 2.18589
vertex 0.000102445 2.18589 2.18589
vertex 33.0001 1.98207 2.42453
endloop
endfacet
facet normal 0 0.760406 0.649448
outer loop
vertex 33.0001 1.98207 2.42453
vertex 0.000102445 2.18589 2.18589
vertex 0.000102445 1.98207 2.42453
endloop
endfacet
facet normal 0 0.85264 0.522498
outer loop
vertex 33.0001 1.98207 2.42453
vertex 0.000102445 1.98207 2.42453
vertex 33.0001 1.81809 2.69212
endloop
endfacet
facet normal 0 0.85264 0.522498
outer loop
vertex 33.0001 1.81809 2.69212
vertex 0.000102445 1.98207 2.42453
vertex 0.000102445 1.81809 2.69212
endloop
endfacet
facet normal 0 0.923879 0.382684
outer loop
vertex 33.0001 1.81809 2.69212
vertex 0.000102445 1.81809 2.69212
vertex 33.0001 1.69799 2.98207
endloop
endfacet
facet normal 0 0.923879 0.382684
outer loop
vertex 33.0001 1.69799 2.98207
vertex 0.000102445 1.81809 2.69212
vertex 0.000102445 1.69799 2.98207
endloop
endfacet
facet normal 0 0.97237 0.233445
outer loop
vertex 33.0001 1.69799 2.98207
vertex 0.000102445 1.69799 2.98207
vertex 33.0001 1.62473 3.28723
endloop
endfacet
facet normal 0 0.97237 0.233445
outer loop
vertex 33.0001 1.62473 3.28723
vertex 0.000102445 1.69799 2.98207
vertex 0.000102445 1.62473 3.28723
endloop
endfacet
facet normal 0 0.996917 0.0784601
outer loop
vertex 33.0001 1.62473 3.28723
vertex 0.000102445 1.62473 3.28723
vertex 33.0001 1.6001 3.6001
endloop
endfacet
facet normal 0 0.996917 0.0784601
outer loop
vertex 33.0001 1.6001 3.6001
vertex 0.000102445 1.62473 3.28723
vertex 0.000102445 1.6001 3.6001
endloop
endfacet
facet normal 0 1 0
outer loop
vertex 10.0001 1.6001 50.0001
vertex 23.0001 1.6001 50.0001
vertex 0.000102445 1.6001 40.0001
endloop
endfacet
facet normal 0 1 0
outer loop
vertex 0.000102445 1.6001 40.0001
vertex 23.0001 1.6001 50.0001
vertex 33.0001 1.6001 40.0001
endloop
endfacet
facet normal 0 1 0
outer loop
vertex 0.000102445 1.6001 40.0001
vertex 33.0001 1.6001 40.0001
vertex 0.000102445 1.6001 3.6001
endloop
endfacet
facet normal 0 1 0
outer loop
vertex 0.000102445 1.6001 3.6001
vertex 33.0001 1.6001 40.0001
vertex 33.0001 1.6001 3.6001
endloop
endfacet
facet normal -0.707107 0 0.707107
outer loop
vertex 10.0001 0.000103377 50.0001
vertex 10.0001 1.6001 50.0001
vertex 0.000102445 0.000103377 40.0001
endloop
endfacet
facet normal -0.707107 0 0.707107
outer loop
vertex 0.000102445 0.000103377 40.0001
vertex 10.0001 1.6001 50.0001
vertex 0.000102445 1.6001 40.0001
endloop
endfacet
facet normal -1 0 0
outer loop
vertex 0.000102445 15.0001 1.6001
vertex 0.000102445 15.0001 0.000103078
vertex 0.000102445 3.6001 1.6001
endloop
endfacet
facet normal -1 0 0
outer loop
vertex 0.000102445 3.6001 1.6001
vertex 0.000102445 15.0001 0.000103078
vertex 0.000102445 3.6001 0.000103078
endloop
endfacet
facet normal -1 0 0
outer loop
vertex 0.000102445 3.6001 1.6001
vertex 0.000102445 3.6001 0.000103078
vertex 0.000102445 3.28723 1.62473
endloop
endfacet
facet normal -1 0 0
outer loop
vertex 0.000102445 3.28723 1.62473
vertex 0.000102445 3.6001 0.000103078
vertex 0.000102445 3.03694 0.0444251
endloop
endfacet
facet normal -1 0 0
outer loop
vertex 0.000102445 3.28723 1.62473
vertex 0.000102445 3.03694 0.0444251
vertex 0.000102445 2.98207 1.69799
endloop
endfacet
facet normal -1 0 0
outer loop
vertex 0.000102445 2.98207 1.69799
vertex 0.000102445 3.03694 0.0444251
vertex 0.000102445 2.48764 0.1763
endloop
endfacet
facet normal -1 0 0
outer loop
vertex 0.000102445 2.98207 1.69799
vertex 0.000102445 2.48764 0.1763
vertex 0.000102445 2.69212 1.81809
endloop
endfacet
facet normal -1 0 0
outer loop
vertex 0.000102445 2.69212 1.81809
vertex 0.000102445 2.48764 0.1763
vertex 0.000102445 1.96574 0.39248
endloop
endfacet
facet normal -1 0 0
outer loop
vertex 0.000102445 2.69212 1.81809
vertex 0.000102445 1.96574 0.39248
vertex 0.000102445 2.42453 1.98207
endloop
endfacet
facet normal -1 0 0
outer loop
vertex 0.000102445 2.42453 1.98207
vertex 0.000102445 1.96574 0.39248
vertex 0.000102445 1.48408 0.687642
endloop
endfacet
facet normal -1 0 0
outer loop
vertex 0.000102445 2.42453 1.98207
vertex 0.000102445 1.48408 0.687642
vertex 0.000102445 2.18589 2.18589
endloop
endfacet
facet normal -1 0 0
outer loop
vertex 0.000102445 2.18589 2.18589
vertex 0.000102445 1.48408 0.687642
vertex 0.000102445 1.05452 1.05452
endloop
endfacet
facet normal -1 0 0
outer loop
vertex 0.000102445 2.18589 2.18589
vertex 0.000102445 1.05452 1.05452
vertex 0.000102445 1.98207 2.42453
endloop
endfacet
facet normal -1 0 0
outer loop
vertex 0.000102445 1.98207 2.42453
vertex 0.000102445 1.05452 1.05452
vertex 0.000102445 0.687642 1.48408
endloop
endfacet
facet normal -1 0 0
outer loop
vertex 0.000102445 1.98207 2.42453
vertex 0.000102445 0.687642 1.48408
vertex 0.000102445 1.81809 2.69212
endloop
endfacet
facet normal -1 0 0
outer loop
vertex 0.000102445 1.81809 2.69212
vertex 0.000102445 0.687642 1.48408
vertex 0.000102445 0.39248 1.96574
endloop
endfacet
facet normal -1 0 0
outer loop
vertex 0.000102445 1.81809 2.69212
vertex 0.000102445 0.39248 1.96574
vertex 0.000102445 1.69799 2.98207
endloop
endfacet
facet normal -1 0 0
outer loop
vertex 0.000102445 1.69799 2.98207
vertex 0.000102445 0.39248 1.96574
vertex 0.000102445 0.1763 2.48764
endloop
endfacet
facet normal -1 0 0
outer loop
vertex 0.000102445 1.69799 2.98207
vertex 0.000102445 0.1763 2.48764
vertex 0.000102445 1.62473 3.28723
endloop
endfacet
facet normal -1 0 0
outer loop
vertex 0.000102445 1.62473 3.28723
vertex 0.000102445 0.1763 2.48764
vertex 0.000102445 0.044425 3.03694
endloop
endfacet
facet normal -1 0 0
outer loop
vertex 0.000102445 1.62473 3.28723
vertex 0.000102445 0.044425 3.03694
vertex 0.000102445 1.6001 3.6001
endloop
endfacet
facet normal -1 0 0
outer loop
vertex 0.000102445 1.6001 3.6001
vertex 0.000102445 0.044425 3.03694
vertex 0.000102445 0.000103377 3.6001
endloop
endfacet
facet normal -1 0 0
outer loop
vertex 0.000102445 1.6001 3.6001
vertex 0.000102445 0.000103377 3.6001
vertex 0.000102445 1.6001 40.0001
endloop
endfacet
facet normal -1 0 0
outer loop
vertex 0.000102445 1.6001 40.0001
vertex 0.000102445 0.000103377 3.6001
vertex 0.000102445 0.000103377 40.0001
endloop
endfacet
facet normal 0 -0.0784591 -0.996917
outer loop
vertex 0.000102445 3.6001 0.000103078
vertex 33.0001 3.6001 0.000103078
vertex 0.000102445 3.03694 0.0444251
endloop
endfacet
facet normal 0 -0.0784591 -0.996917
outer loop
vertex 0.000102445 3.03694 0.0444251
vertex 33.0001 3.6001 0.000103078
vertex 33.0001 3.03694 0.0444251
endloop
endfacet
facet normal 0 -0.233445 -0.97237
outer loop
vertex 0.000102445 3.03694 0.0444251
vertex 33.0001 3.03694 0.0444251
vertex 0.000102445 2.48764 0.1763
endloop
endfacet
facet normal 0 -0.233445 -0.97237
outer loop
vertex 0.000102445 2.48764 0.1763
vertex 33.0001 3.03694 0.0444251
vertex 33.0001 2.48764 0.1763
endloop
endfacet
facet normal 0 -0.382683 -0.92388
outer loop
vertex 0.000102445 2.48764 0.1763
vertex 33.0001 2.48764 0.1763
vertex 0.000102445 1.96574 0.39248
endloop
endfacet
facet normal 0 -0.382683 -0.92388
outer loop
vertex 0.000102445 1.96574 0.39248
vertex 33.0001 2.48764 0.1763
vertex 33.0001 1.96574 0.39248
endloop
endfacet
facet normal 0 -0.522499 -0.85264
outer loop
vertex 0.000102445 1.96574 0.39248
vertex 33.0001 1.96574 0.39248
vertex 0.000102445 1.48408 0.687642
endloop
endfacet
facet normal 0 -0.522499 -0.85264
outer loop
vertex 0.000102445 1.48408 0.687642
vertex 33.0001 1.96574 0.39248
vertex 33.0001 1.48408 0.687642
endloop
endfacet
facet normal 0 -0.649448 -0.760406
outer loop
vertex 0.000102445 1.48408 0.687642
vertex 33.0001 1.48408 0.687642
vertex 0.000102445 1.05452 1.05452
endloop
endfacet
facet normal 0 -0.649448 -0.760406
outer loop
vertex 0.000102445 1.05452 1.05452
vertex 33.0001 1.48408 0.687642
vertex 33.0001 1.05452 1.05452
endloop
endfacet
facet normal 0 -0.760406 -0.649448
outer loop
vertex 0.000102445 1.05452 1.05452
vertex 33.0001 1.05452 1.05452
vertex 0.000102445 0.687642 1.48408
endloop
endfacet
facet normal 0 -0.760406 -0.649448
outer loop
vertex 0.000102445 0.687642 1.48408
vertex 33.0001 1.05452 1.05452
vertex 33.0001 0.687642 1.48408
endloop
endfacet
facet normal 0 -0.85264 -0.522498
outer loop
vertex 0.000102445 0.687642 1.48408
vertex 33.0001 0.687642 1.48408
vertex 0.000102445 0.39248 1.96574
endloop
endfacet
facet normal 0 -0.85264 -0.522498
outer loop
vertex 0.000102445 0.39248 1.96574
vertex 33.0001 0.687642 1.48408
vertex 33.0001 0.39248 1.96574
endloop
endfacet
facet normal 0 -0.923879 -0.382684
outer loop
vertex 0.000102445 0.39248 1.96574
vertex 33.0001 0.39248 1.96574
vertex 0.000102445 0.1763 2.48764
endloop
endfacet
facet normal 0 -0.923879 -0.382684
outer loop
vertex 0.000102445 0.1763 2.48764
vertex 33.0001 0.39248 1.96574
vertex 33.0001 0.1763 2.48764
endloop
endfacet
facet normal 0 -0.97237 -0.233446
outer loop
vertex 0.000102445 0.1763 2.48764
vertex 33.0001 0.1763 2.48764
vertex 0.000102445 0.044425 3.03694
endloop
endfacet
facet normal 0 -0.97237 -0.233446
outer loop
vertex 0.000102445 0.044425 3.03694
vertex 33.0001 0.1763 2.48764
vertex 33.0001 0.044425 3.03694
endloop
endfacet
facet normal 0 -0.996917 -0.0784585
outer loop
vertex 0.000102445 0.044425 3.03694
vertex 33.0001 0.044425 3.03694
vertex 0.000102445 0.000103377 3.6001
endloop
endfacet
facet normal 0 -0.996917 -0.0784585
outer loop
vertex 0.000102445 0.000103377 3.6001
vertex 33.0001 0.044425 3.03694
vertex 33.0001 0.000103377 3.6001
endloop
endfacet
facet normal 1 0 0
outer loop
vertex 33.0001 1.6001 40.0001
vertex 33.0001 0.000103377 40.0001
vertex 33.0001 1.6001 3.6001
endloop
endfacet
facet normal 1 0 0
outer loop
vertex 33.0001 1.6001 3.6001
vertex 33.0001 0.000103377 40.0001
vertex 33.0001 0.000103377 3.6001
endloop
endfacet
facet normal 1 0 0
outer loop
vertex 33.0001 1.6001 3.6001
vertex 33.0001 0.000103377 3.6001
vertex 33.0001 1.62473 3.28723
endloop
endfacet
facet normal 1 0 0
outer loop
vertex 33.0001 1.62473 3.28723
vertex 33.0001 0.000103377 3.6001
vertex 33.0001 0.044425 3.03694
endloop
endfacet
facet normal 1 0 0
outer loop
vertex 33.0001 1.62473 3.28723
vertex 33.0001 0.044425 3.03694
vertex 33.0001 1.69799 2.98207
endloop
endfacet
facet normal 1 0 0
outer loop
vertex 33.0001 1.69799 2.98207
vertex 33.0001 0.044425 3.03694
vertex 33.0001 0.1763 2.48764
endloop
endfacet
facet normal 1 0 0
outer loop
vertex 33.0001 1.69799 2.98207
vertex 33.0001 0.1763 2.48764
vertex 33.0001 1.81809 2.69212
endloop
endfacet
facet normal 1 0 0
outer loop
vertex 33.0001 1.81809 2.69212
vertex 33.0001 0.1763 2.48764
vertex 33.0001 0.39248 1.96574
endloop
endfacet
facet normal 1 0 0
outer loop
vertex 33.0001 1.81809 2.69212
vertex 33.0001 0.39248 1.96574
vertex 33.0001 1.98207 2.42453
endloop
endfacet
facet normal 1 0 0
outer loop
vertex 33.0001 1.98207 2.42453
vertex 33.0001 0.39248 1.96574
vertex 33.0001 0.687642 1.48408
endloop
endfacet
facet normal 1 0 0
outer loop
vertex 33.0001 1.98207 2.42453
vertex 33.0001 0.687642 1.48408
vertex 33.0001 2.18589 2.18589
endloop
endfacet
facet normal 1 0 0
outer loop
vertex 33.0001 2.18589 2.18589
vertex 33.0001 0.687642 1.48408
vertex 33.0001 1.05452 1.05452
endloop
endfacet
facet normal 1 0 0
outer loop
vertex 33.0001 2.18589 2.18589
vertex 33.0001 1.05452 1.05452
vertex 33.0001 2.42453 1.98207
endloop
endfacet
facet normal 1 0 0
outer loop
vertex 33.0001 2.42453 1.98207
vertex 33.0001 1.05452 1.05452
vertex 33.0001 1.48408 0.687642
endloop
endfacet
facet normal 1 0 0
outer loop
vertex 33.0001 2.42453 1.98207
vertex 33.0001 1.48408 0.687642
vertex 33.0001 2.69212 1.81809
endloop
endfacet
facet normal 1 0 0
outer loop
vertex 33.0001 2.69212 1.81809
vertex 33.0001 1.48408 0.687642
vertex 33.0001 1.96574 0.39248
endloop
endfacet
facet normal 1 0 0
outer loop
vertex 33.0001 2.69212 1.81809
vertex 33.0001 1.96574 0.39248
vertex 33.0001 2.98207 1.69799
endloop
endfacet
facet normal 1 0 0
outer loop
vertex 33.0001 2.98207 1.69799
vertex 33.0001 1.96574 0.39248
vertex 33.0001 2.48764 0.1763
endloop
endfacet
facet normal 1 0 0
outer loop
vertex 33.0001 2.98207 1.69799
vertex 33.0001 2.48764 0.1763
vertex 33.0001 3.28723 1.62473
endloop
endfacet
facet normal 1 0 0
outer loop
vertex 33.0001 3.28723 1.62473
vertex 33.0001 2.48764 0.1763
vertex 33.0001 3.03694 0.0444251
endloop
endfacet
facet normal 1 0 0
outer loop
vertex 33.0001 3.28723 1.62473
vertex 33.0001 3.03694 0.0444251
vertex 33.0001 3.6001 1.6001
endloop
endfacet
facet normal 1 0 0
outer loop
vertex 33.0001 3.6001 1.6001
vertex 33.0001 3.03694 0.0444251
vertex 33.0001 3.6001 0.000103078
endloop
endfacet
facet normal 1 0 0
outer loop
vertex 33.0001 3.6001 1.6001
vertex 33.0001 3.6001 0.000103078
vertex 33.0001 15.0001 1.6001
endloop
endfacet
facet normal 1 0 0
outer loop
vertex 33.0001 15.0001 1.6001
vertex 33.0001 3.6001 0.000103078
vertex 33.0001 15.0001 0.000103078
endloop
endfacet
facet normal 0.707107 0 0.707107
outer loop
vertex 33.0001 0.000103377 40.0001
vertex 33.0001 1.6001 40.0001
vertex 23.0001 0.000103377 50.0001
endloop
endfacet
facet normal 0.707107 0 0.707107
outer loop
vertex 23.0001 0.000103377 50.0001
vertex 33.0001 1.6001 40.0001
vertex 23.0001 1.6001 50.0001
endloop
endfacet
facet normal 0 0 1
outer loop
vertex 10.0001 1.6001 50.0001
vertex 10.0001 0.000103377 50.0001
vertex 23.0001 1.6001 50.0001
endloop
endfacet
facet normal 0 0 1
outer loop
vertex 23.0001 1.6001 50.0001
vertex 10.0001 0.000103377 50.0001
vertex 23.0001 0.000103377 50.0001
endloop
endfacet
facet normal 0 -1 0
outer loop
vertex 0.000102445 0.000103377 3.6001
vertex 33.0001 0.000103377 3.6001
vertex 0.000102445 0.000103377 40.0001
endloop
endfacet
facet normal 0 -1 0
outer loop
vertex 0.000102445 0.000103377 40.0001
vertex 33.0001 0.000103377 3.6001
vertex 33.0001 0.000103377 40.0001
endloop
endfacet
facet normal 0 -1 0
outer loop
vertex 0.000102445 0.000103377 40.0001
vertex 33.0001 0.000103377 40.0001
vertex 10.0001 0.000103377 50.0001
endloop
endfacet
facet normal 0 -1 0
outer loop
vertex 10.0001 0.000103377 50.0001
vertex 33.0001 0.000103377 40.0001
vertex 23.0001 0.000103377 50.0001
endloop
endfacet
endsolid
