solid C:\Temp\NOELParts\misumi_bracket5.STL created by CtrlView V2.70
facet normal -0.967733 -0.251978 0
outer loop
vertex 29.9692 39.938 48.4001
vertex 29.9692 39.938 50.0001
vertex 29.5803 41.4317 48.4001
endloop
endfacet
facet normal -0.967733 -0.251978 0
outer loop
vertex 29.5803 41.4317 48.4001
vertex 29.9692 39.938 50.0001
vertex 29.5803 41.4317 50.0001
endloop
endfacet
facet normal -0.911228 -0.411902 0
outer loop
vertex 29.5803 41.4317 48.4001
vertex 29.5803 41.4317 50.0001
vertex 28.9445 42.8381 48.4001
endloop
endfacet
facet normal -0.911228 -0.411902 0
outer loop
vertex 28.9445 42.8381 48.4001
vertex 29.5803 41.4317 50.0001
vertex 28.9445 42.8381 50.0001
endloop
endfacet
facet normal -0.82851 -0.559975 0
outer loop
vertex 28.9445 42.8381 48.4001
vertex 28.9445 42.8381 50.0001
vertex 28.0802 44.1169 48.4001
endloop
endfacet
facet normal -0.82851 -0.559975 0
outer loop
vertex 28.0802 44.1169 48.4001
vertex 28.9445 42.8381 50.0001
vertex 28.0802 44.1169 50.0001
endloop
endfacet
facet normal -0.721957 -0.691938 0
outer loop
vertex 28.0802 44.1169 48.4001
vertex 28.0802 44.1169 50.0001
vertex 27.0122 45.2312 48.4001
endloop
endfacet
facet normal -0.721957 -0.691938 0
outer loop
vertex 27.0122 45.2312 48.4001
vertex 28.0802 44.1169 50.0001
vertex 27.0122 45.2312 50.0001
endloop
endfacet
facet normal -0.594631 -0.803998 0
outer loop
vertex 27.0122 45.2312 48.4001
vertex 27.0122 45.2312 50.0001
vertex 25.7713 46.149 48.4001
endloop
endfacet
facet normal -0.594631 -0.803998 0
outer loop
vertex 25.7713 46.149 48.4001
vertex 27.0122 45.2312 50.0001
vertex 25.7713 46.149 50.0001
endloop
endfacet
facet normal -0.450206 -0.892925 0
outer loop
vertex 25.7713 46.149 48.4001
vertex 25.7713 46.149 50.0001
vertex 24.3931 46.8439 48.4001
endloop
endfacet
facet normal -0.450206 -0.892925 0
outer loop
vertex 24.3931 46.8439 48.4001
vertex 25.7713 46.149 50.0001
vertex 24.3931 46.8439 50.0001
endloop
endfacet
facet normal -0.292822 -0.956167 0
outer loop
vertex 24.3931 46.8439 48.4001
vertex 24.3931 46.8439 50.0001
vertex 22.9173 47.2959 48.4001
endloop
endfacet
facet normal -0.292822 -0.956167 0
outer loop
vertex 22.9173 47.2959 48.4001
vertex 24.3931 46.8439 50.0001
vertex 22.9173 47.2959 50.0001
endloop
endfacet
facet normal -0.127018 -0.9919 0
outer loop
vertex 22.9173 47.2959 48.4001
vertex 22.9173 47.2959 50.0001
vertex 21.3863 47.4919 48.4001
endloop
endfacet
facet normal -0.127018 -0.9919 0
outer loop
vertex 21.3863 47.4919 48.4001
vertex 22.9173 47.2959 50.0001
vertex 21.3863 47.4919 50.0001
endloop
endfacet
facet normal 0.0424408 -0.999099 0
outer loop
vertex 21.3863 47.4919 48.4001
vertex 21.3863 47.4919 50.0001
vertex 19.8442 47.4264 48.4001
endloop
endfacet
facet normal 0.0424408 -0.999099 0
outer loop
vertex 19.8442 47.4264 48.4001
vertex 21.3863 47.4919 50.0001
vertex 19.8442 47.4264 50.0001
endloop
endfacet
facet normal 0.210679 -0.977555 0
outer loop
vertex 19.8442 47.4264 48.4001
vertex 19.8442 47.4264 50.0001
vertex 18.3354 47.1012 48.4001
endloop
endfacet
facet normal 0.210679 -0.977555 0
outer loop
vertex 18.3354 47.1012 48.4001
vertex 19.8442 47.4264 50.0001
vertex 18.3354 47.1012 50.0001
endloop
endfacet
facet normal 0.372859 -0.927888 0
outer loop
vertex 18.3354 47.1012 48.4001
vertex 18.3354 47.1012 50.0001
vertex 16.9032 46.5257 48.4001
endloop
endfacet
facet normal 0.372859 -0.927888 0
outer loop
vertex 16.9032 46.5257 48.4001
vertex 18.3354 47.1012 50.0001
vertex 16.9032 46.5257 50.0001
endloop
endfacet
facet normal 0.524305 -0.851531 0
outer loop
vertex 16.9032 46.5257 48.4001
vertex 16.9032 46.5257 50.0001
vertex 15.5889 45.7165 48.4001
endloop
endfacet
facet normal 0.524305 -0.851531 0
outer loop
vertex 15.5889 45.7165 48.4001
vertex 16.9032 46.5257 50.0001
vertex 15.5889 45.7165 50.0001
endloop
endfacet
facet normal 0.660676 -0.750671 0
outer loop
vertex 15.5889 45.7165 48.4001
vertex 15.5889 45.7165 50.0001
vertex 14.4303 44.6967 48.4001
endloop
endfacet
facet normal 0.660676 -0.750671 0
outer loop
vertex 14.4303 44.6967 48.4001
vertex 15.5889 45.7165 50.0001
vertex 14.4303 44.6967 50.0001
endloop
endfacet
facet normal 0.778035 -0.628221 0
outer loop
vertex 14.4303 44.6967 48.4001
vertex 14.4303 44.6967 50.0001
vertex 13.4607 43.4959 48.4001
endloop
endfacet
facet normal 0.778035 -0.628221 0
outer loop
vertex 13.4607 43.4959 48.4001
vertex 14.4303 44.6967 50.0001
vertex 13.4607 43.4959 50.0001
endloop
endfacet
facet normal 0.873015 -0.487694 0
outer loop
vertex 13.4607 43.4959 48.4001
vertex 13.4607 43.4959 50.0001
vertex 12.7079 42.1484 48.4001
endloop
endfacet
facet normal 0.873015 -0.487694 0
outer loop
vertex 12.7079 42.1484 48.4001
vertex 13.4607 43.4959 50.0001
vertex 12.7079 42.1484 50.0001
endloop
endfacet
facet normal 0.942877 -0.33314 0
outer loop
vertex 12.7079 42.1484 48.4001
vertex 12.7079 42.1484 50.0001
vertex 12.1937 40.6931 48.4001
endloop
endfacet
facet normal 0.942877 -0.33314 0
outer loop
vertex 12.1937 40.6931 48.4001
vertex 12.7079 42.1484 50.0001
vertex 12.1937 40.6931 50.0001
endloop
endfacet
facet normal 0.985616 -0.169001 0
outer loop
vertex 12.1937 40.6931 48.4001
vertex 12.1937 40.6931 50.0001
vertex 11.9329 39.1718 48.4001
endloop
endfacet
facet normal 0.985616 -0.169001 0
outer loop
vertex 11.9329 39.1718 48.4001
vertex 12.1937 40.6931 50.0001
vertex 11.9329 39.1718 50.0001
endloop
endfacet
facet normal 1 0 0
outer loop
vertex 11.9329 39.1718 48.4001
vertex 11.9329 39.1718 50.0001
vertex 11.9329 37.6284 48.4001
endloop
endfacet
facet normal 1 0 0
outer loop
vertex 11.9329 37.6284 48.4001
vertex 11.9329 39.1718 50.0001
vertex 11.9329 37.6284 50.0001
endloop
endfacet
facet normal 0.985616 0.169001 0
outer loop
vertex 11.9329 37.6284 48.4001
vertex 11.9329 37.6284 50.0001
vertex 12.1937 36.1071 48.4001
endloop
endfacet
facet normal 0.985616 0.169001 0
outer loop
vertex 12.1937 36.1071 48.4001
vertex 11.9329 37.6284 50.0001
vertex 12.1937 36.1071 50.0001
endloop
endfacet
facet normal 0.942878 0.333139 0
outer loop
vertex 12.1937 36.1071 48.4001
vertex 12.1937 36.1071 50.0001
vertex 12.7079 34.6518 48.4001
endloop
endfacet
facet normal 0.942878 0.333139 0
outer loop
vertex 12.7079 34.6518 48.4001
vertex 12.1937 36.1071 50.0001
vertex 12.7079 34.6518 50.0001
endloop
endfacet
facet normal 0.873014 0.487695 0
outer loop
vertex 12.7079 34.6518 48.4001
vertex 12.7079 34.6518 50.0001
vertex 13.4607 33.3043 48.4001
endloop
endfacet
facet normal 0.873014 0.487695 0
outer loop
vertex 13.4607 33.3043 48.4001
vertex 12.7079 34.6518 50.0001
vertex 13.4607 33.3043 50.0001
endloop
endfacet
facet normal 0.778036 0.62822 0
outer loop
vertex 13.4607 33.3043 48.4001
vertex 13.4607 33.3043 50.0001
vertex 14.4303 32.1035 48.4001
endloop
endfacet
facet normal 0.778036 0.62822 0
outer loop
vertex 14.4303 32.1035 48.4001
vertex 13.4607 33.3043 50.0001
vertex 14.4303 32.1035 50.0001
endloop
endfacet
facet normal 0.660675 0.750672 0
outer loop
vertex 14.4303 32.1035 48.4001
vertex 14.4303 32.1035 50.0001
vertex 15.5889 31.0837 48.4001
endloop
endfacet
facet normal 0.660675 0.750672 0
outer loop
vertex 15.5889 31.0837 48.4001
vertex 14.4303 32.1035 50.0001
vertex 15.5889 31.0837 50.0001
endloop
endfacet
facet normal 0.524307 0.851529 0
outer loop
vertex 15.5889 31.0837 48.4001
vertex 15.5889 31.0837 50.0001
vertex 16.9032 30.2745 48.4001
endloop
endfacet
facet normal 0.524307 0.851529 0
outer loop
vertex 16.9032 30.2745 48.4001
vertex 15.5889 31.0837 50.0001
vertex 16.9032 30.2745 50.0001
endloop
endfacet
facet normal 0.372856 0.927889 0
outer loop
vertex 16.9032 30.2745 48.4001
vertex 16.9032 30.2745 50.0001
vertex 18.3354 29.699 48.4001
endloop
endfacet
facet normal 0.372856 0.927889 0
outer loop
vertex 18.3354 29.699 48.4001
vertex 16.9032 30.2745 50.0001
vertex 18.3354 29.699 50.0001
endloop
endfacet
facet normal 0.210679 0.977555 0
outer loop
vertex 18.3354 29.699 48.4001
vertex 18.3354 29.699 50.0001
vertex 19.8442 29.3738 48.4001
endloop
endfacet
facet normal 0.210679 0.977555 0
outer loop
vertex 19.8442 29.3738 48.4001
vertex 18.3354 29.699 50.0001
vertex 19.8442 29.3738 50.0001
endloop
endfacet
facet normal 0.0424408 0.999099 0
outer loop
vertex 19.8442 29.3738 48.4001
vertex 19.8442 29.3738 50.0001
vertex 21.3863 29.3083 48.4001
endloop
endfacet
facet normal 0.0424408 0.999099 0
outer loop
vertex 21.3863 29.3083 48.4001
vertex 19.8442 29.3738 50.0001
vertex 21.3863 29.3083 50.0001
endloop
endfacet
facet normal -0.127017 0.991901 0
outer loop
vertex 21.3863 29.3083 48.4001
vertex 21.3863 29.3083 50.0001
vertex 22.9173 29.5044 48.4001
endloop
endfacet
facet normal -0.127017 0.991901 0
outer loop
vertex 22.9173 29.5044 48.4001
vertex 21.3863 29.3083 50.0001
vertex 22.9173 29.5044 50.0001
endloop
endfacet
facet normal -0.292823 0.956167 0
outer loop
vertex 22.9173 29.5044 48.4001
vertex 22.9173 29.5044 50.0001
vertex 24.3931 29.9563 48.4001
endloop
endfacet
facet normal -0.292823 0.956167 0
outer loop
vertex 24.3931 29.9563 48.4001
vertex 22.9173 29.5044 50.0001
vertex 24.3931 29.9563 50.0001
endloop
endfacet
facet normal -0.450205 0.892925 0
outer loop
vertex 24.3931 29.9563 48.4001
vertex 24.3931 29.9563 50.0001
vertex 25.7713 30.6512 48.4001
endloop
endfacet
facet normal -0.450205 0.892925 0
outer loop
vertex 25.7713 30.6512 48.4001
vertex 24.3931 29.9563 50.0001
vertex 25.7713 30.6512 50.0001
endloop
endfacet
facet normal -0.594632 0.803998 0
outer loop
vertex 25.7713 30.6512 48.4001
vertex 25.7713 30.6512 50.0001
vertex 27.0122 31.569 48.4001
endloop
endfacet
facet normal -0.594632 0.803998 0
outer loop
vertex 27.0122 31.569 48.4001
vertex 25.7713 30.6512 50.0001
vertex 27.0122 31.569 50.0001
endloop
endfacet
facet normal -0.721956 0.691939 0
outer loop
vertex 27.0122 31.569 48.4001
vertex 27.0122 31.569 50.0001
vertex 28.0802 32.6833 48.4001
endloop
endfacet
facet normal -0.721956 0.691939 0
outer loop
vertex 28.0802 32.6833 48.4001
vertex 27.0122 31.569 50.0001
vertex 28.0802 32.6833 50.0001
endloop
endfacet
facet normal -0.82851 0.559975 0
outer loop
vertex 28.0802 32.6833 48.4001
vertex 28.0802 32.6833 50.0001
vertex 28.9445 33.9621 48.4001
endloop
endfacet
facet normal -0.82851 0.559975 0
outer loop
vertex 28.9445 33.9621 48.4001
vertex 28.0802 32.6833 50.0001
vertex 28.9445 33.9621 50.0001
endloop
endfacet
facet normal -0.911228 0.411902 0
outer loop
vertex 28.9445 33.9621 48.4001
vertex 28.9445 33.9621 50.0001
vertex 29.5803 35.3685 48.4001
endloop
endfacet
facet normal -0.911228 0.411902 0
outer loop
vertex 29.5803 35.3685 48.4001
vertex 28.9445 33.9621 50.0001
vertex 29.5803 35.3685 50.0001
endloop
endfacet
facet normal -0.967733 0.251978 0
outer loop
vertex 29.5803 35.3685 48.4001
vertex 29.5803 35.3685 50.0001
vertex 29.9692 36.8622 48.4001
endloop
endfacet
facet normal -0.967733 0.251978 0
outer loop
vertex 29.9692 36.8622 48.4001
vertex 29.5803 35.3685 50.0001
vertex 29.9692 36.8622 50.0001
endloop
endfacet
facet normal -0.996397 0.0848062 0
outer loop
vertex 29.9692 36.8622 48.4001
vertex 29.9692 36.8622 50.0001
vertex 30.1001 38.4001 48.4001
endloop
endfacet
facet normal -0.996397 0.0848062 0
outer loop
vertex 30.1001 38.4001 48.4001
vertex 29.9692 36.8622 50.0001
vertex 30.1001 38.4001 50.0001
endloop
endfacet
facet normal -0.996397 -0.084806 0
outer loop
vertex 30.1001 38.4001 48.4001
vertex 30.1001 38.4001 50.0001
vertex 29.9692 39.938 48.4001
endloop
endfacet
facet normal -0.996397 -0.084806 0
outer loop
vertex 29.9692 39.938 48.4001
vertex 30.1001 38.4001 50.0001
vertex 29.9692 39.938 50.0001
endloop
endfacet
facet normal -0.707107 0.707107 0
outer loop
vertex 10.0001 52.4001 50.0001
vertex 10.0001 52.4001 48.4001
vertex 0.000102445 42.4001 50.0001
endloop
endfacet
facet normal -0.707107 0.707107 0
outer loop
vertex 0.000102445 42.4001 50.0001
vertex 10.0001 52.4001 48.4001
vertex 0.000102445 42.4001 48.4001
endloop
endfacet
facet normal 0 1 0
outer loop
vertex 10.0001 52.4001 48.4001
vertex 10.0001 52.4001 50.0001
vertex 32.0001 52.4001 48.4001
endloop
endfacet
facet normal 0 1 0
outer loop
vertex 32.0001 52.4001 48.4001
vertex 10.0001 52.4001 50.0001
vertex 32.0001 52.4001 50.0001
endloop
endfacet
facet normal 0.707107 0.707107 0
outer loop
vertex 42.0001 42.4001 50.0001
vertex 42.0001 42.4001 48.4001
vertex 32.0001 52.4001 50.0001
endloop
endfacet
facet normal 0.707107 0.707107 0
outer loop
vertex 32.0001 52.4001 50.0001
vertex 42.0001 42.4001 48.4001
vertex 32.0001 52.4001 48.4001
endloop
endfacet
facet normal 0.967733 -0.251976 0
outer loop
vertex 30.8112 11.7184 1.6001
vertex 30.8112 11.7184 0.000103078
vertex 30.9929 12.4159 1.6001
endloop
endfacet
facet normal 0.967733 -0.251976 0
outer loop
vertex 30.9929 12.4159 1.6001
vertex 30.8112 11.7184 0.000103078
vertex 30.9929 12.4159 0.000103078
endloop
endfacet
facet normal 0.911228 -0.411903 0
outer loop
vertex 30.9929 12.4159 1.6001
vertex 30.9929 12.4159 0.000103078
vertex 31.2898 13.0728 1.6001
endloop
endfacet
facet normal 0.911228 -0.411903 0
outer loop
vertex 31.2898 13.0728 1.6001
vertex 30.9929 12.4159 0.000103078
vertex 31.2898 13.0728 0.000103078
endloop
endfacet
facet normal 0.828509 -0.559975 0
outer loop
vertex 31.2898 13.0728 1.6001
vertex 31.2898 13.0728 0.000103078
vertex 31.6935 13.67 1.6001
endloop
endfacet
facet normal 0.828509 -0.559975 0
outer loop
vertex 31.6935 13.67 1.6001
vertex 31.2898 13.0728 0.000103078
vertex 31.6935 13.67 0.000103078
endloop
endfacet
facet normal 0.721957 -0.691938 0
outer loop
vertex 31.6935 13.67 1.6001
vertex 31.6935 13.67 0.000103078
vertex 32.1922 14.1905 1.6001
endloop
endfacet
facet normal 0.721957 -0.691938 0
outer loop
vertex 32.1922 14.1905 1.6001
vertex 31.6935 13.67 0.000103078
vertex 32.1922 14.1905 0.000103078
endloop
endfacet
facet normal 0.594633 -0.803997 0
outer loop
vertex 32.1922 14.1905 1.6001
vertex 32.1922 14.1905 0.000103078
vertex 32.7718 14.6191 1.6001
endloop
endfacet
facet normal 0.594633 -0.803997 0
outer loop
vertex 32.7718 14.6191 1.6001
vertex 32.1922 14.1905 0.000103078
vertex 32.7718 14.6191 0.000103078
endloop
endfacet
facet normal 0.450203 -0.892926 0
outer loop
vertex 32.7718 14.6191 1.6001
vertex 32.7718 14.6191 0.000103078
vertex 33.4155 14.9436 1.6001
endloop
endfacet
facet normal 0.450203 -0.892926 0
outer loop
vertex 33.4155 14.9436 1.6001
vertex 32.7718 14.6191 0.000103078
vertex 33.4155 14.9436 0.000103078
endloop
endfacet
facet normal 0.292823 -0.956167 0
outer loop
vertex 33.4155 14.9436 1.6001
vertex 33.4155 14.9436 0.000103078
vertex 34.1047 15.1547 1.6001
endloop
endfacet
facet normal 0.292823 -0.956167 0
outer loop
vertex 34.1047 15.1547 1.6001
vertex 33.4155 14.9436 0.000103078
vertex 34.1047 15.1547 0.000103078
endloop
endfacet
facet normal 0.127018 -0.9919 0
outer loop
vertex 34.1047 15.1547 1.6001
vertex 34.1047 15.1547 0.000103078
vertex 34.8197 15.2463 1.6001
endloop
endfacet
facet normal 0.127018 -0.9919 0
outer loop
vertex 34.8197 15.2463 1.6001
vertex 34.1047 15.1547 0.000103078
vertex 34.8197 15.2463 0.000103078
endloop
endfacet
facet normal -0.0424412 -0.999099 0
outer loop
vertex 34.8197 15.2463 1.6001
vertex 34.8197 15.2463 0.000103078
vertex 35.5399 15.2157 1.6001
endloop
endfacet
facet normal -0.0424412 -0.999099 0
outer loop
vertex 35.5399 15.2157 1.6001
vertex 34.8197 15.2463 0.000103078
vertex 35.5399 15.2157 0.000103078
endloop
endfacet
facet normal -0.210678 -0.977556 0
outer loop
vertex 35.5399 15.2157 1.6001
vertex 35.5399 15.2157 0.000103078
vertex 36.2446 15.0638 1.6001
endloop
endfacet
facet normal -0.210678 -0.977556 0
outer loop
vertex 36.2446 15.0638 1.6001
vertex 35.5399 15.2157 0.000103078
vertex 36.2446 15.0638 0.000103078
endloop
endfacet
facet normal -0.372857 -0.927889 0
outer loop
vertex 36.2446 15.0638 1.6001
vertex 36.2446 15.0638 0.000103078
vertex 36.9135 14.795 1.6001
endloop
endfacet
facet normal -0.372857 -0.927889 0
outer loop
vertex 36.9135 14.795 1.6001
vertex 36.2446 15.0638 0.000103078
vertex 36.9135 14.795 0.000103078
endloop
endfacet
facet normal -0.524308 -0.851528 0
outer loop
vertex 36.9135 14.795 1.6001
vertex 36.9135 14.795 0.000103078
vertex 37.5273 14.4171 1.6001
endloop
endfacet
facet normal -0.524308 -0.851528 0
outer loop
vertex 37.5273 14.4171 1.6001
vertex 36.9135 14.795 0.000103078
vertex 37.5273 14.4171 0.000103078
endloop
endfacet
facet normal -0.660677 -0.75067 0
outer loop
vertex 37.5273 14.4171 1.6001
vertex 37.5273 14.4171 0.000103078
vertex 38.0684 13.9408 1.6001
endloop
endfacet
facet normal -0.660677 -0.75067 0
outer loop
vertex 38.0684 13.9408 1.6001
vertex 37.5273 14.4171 0.000103078
vertex 38.0684 13.9408 0.000103078
endloop
endfacet
facet normal -0.778035 -0.628221 0
outer loop
vertex 38.0684 13.9408 1.6001
vertex 38.0684 13.9408 0.000103078
vertex 38.5213 13.38 1.6001
endloop
endfacet
facet normal -0.778035 -0.628221 0
outer loop
vertex 38.5213 13.38 1.6001
vertex 38.0684 13.9408 0.000103078
vertex 38.5213 13.38 0.000103078
endloop
endfacet
facet normal -0.873014 -0.487695 0
outer loop
vertex 38.5213 13.38 1.6001
vertex 38.5213 13.38 0.000103078
vertex 38.8728 12.7507 1.6001
endloop
endfacet
facet normal -0.873014 -0.487695 0
outer loop
vertex 38.8728 12.7507 1.6001
vertex 38.5213 13.38 0.000103078
vertex 38.8728 12.7507 0.000103078
endloop
endfacet
facet normal -0.942878 -0.333138 0
outer loop
vertex 38.8728 12.7507 1.6001
vertex 38.8728 12.7507 0.000103078
vertex 39.113 12.071 1.6001
endloop
endfacet
facet normal -0.942878 -0.333138 0
outer loop
vertex 39.113 12.071 1.6001
vertex 38.8728 12.7507 0.000103078
vertex 39.113 12.071 0.000103078
endloop
endfacet
facet normal -0.985615 -0.169004 0
outer loop
vertex 39.113 12.071 1.6001
vertex 39.113 12.071 0.000103078
vertex 39.2348 11.3605 1.6001
endloop
endfacet
facet normal -0.985615 -0.169004 0
outer loop
vertex 39.2348 11.3605 1.6001
vertex 39.113 12.071 0.000103078
vertex 39.2348 11.3605 0.000103078
endloop
endfacet
facet normal -1 0 0
outer loop
vertex 39.2348 11.3605 1.6001
vertex 39.2348 11.3605 0.000103078
vertex 39.2348 10.6397 1.6001
endloop
endfacet
facet normal -1 0 0
outer loop
vertex 39.2348 10.6397 1.6001
vertex 39.2348 11.3605 0.000103078
vertex 39.2348 10.6397 0.000103078
endloop
endfacet
facet normal -0.985615 0.169004 0
outer loop
vertex 39.2348 10.6397 1.6001
vertex 39.2348 10.6397 0.000103078
vertex 39.113 9.9292 1.6001
endloop
endfacet
facet normal -0.985615 0.169004 0
outer loop
vertex 39.113 9.9292 1.6001
vertex 39.2348 10.6397 0.000103078
vertex 39.113 9.9292 0.000103078
endloop
endfacet
facet normal -0.942878 0.333138 0
outer loop
vertex 39.113 9.9292 1.6001
vertex 39.113 9.9292 0.000103078
vertex 38.8728 9.24952 1.6001
endloop
endfacet
facet normal -0.942878 0.333138 0
outer loop
vertex 38.8728 9.24952 1.6001
vertex 39.113 9.9292 0.000103078
vertex 38.8728 9.24952 0.000103078
endloop
endfacet
facet normal -0.873015 0.487694 0
outer loop
vertex 38.8728 9.24952 1.6001
vertex 38.8728 9.24952 0.000103078
vertex 38.5213 8.62021 1.6001
endloop
endfacet
facet normal -0.873015 0.487694 0
outer loop
vertex 38.5213 8.62021 1.6001
vertex 38.8728 9.24952 0.000103078
vertex 38.5213 8.62021 0.000103078
endloop
endfacet
facet normal -0.778035 0.628221 0
outer loop
vertex 38.5213 8.62021 1.6001
vertex 38.5213 8.62021 0.000103078
vertex 38.0684 8.05936 1.6001
endloop
endfacet
facet normal -0.778035 0.628221 0
outer loop
vertex 38.0684 8.05936 1.6001
vertex 38.5213 8.62021 0.000103078
vertex 38.0684 8.05936 0.000103078
endloop
endfacet
facet normal -0.660677 0.75067 0
outer loop
vertex 38.0684 8.05936 1.6001
vertex 38.0684 8.05936 0.000103078
vertex 37.5273 7.58312 1.6001
endloop
endfacet
facet normal -0.660677 0.75067 0
outer loop
vertex 37.5273 7.58312 1.6001
vertex 38.0684 8.05936 0.000103078
vertex 37.5273 7.58312 0.000103078
endloop
endfacet
facet normal -0.524308 0.851529 0
outer loop
vertex 37.5273 7.58312 1.6001
vertex 37.5273 7.58312 0.000103078
vertex 36.9135 7.20517 1.6001
endloop
endfacet
facet normal -0.524308 0.851529 0
outer loop
vertex 36.9135 7.20517 1.6001
vertex 37.5273 7.58312 0.000103078
vertex 36.9135 7.20517 0.000103078
endloop
endfacet
facet normal -0.372857 0.927889 0
outer loop
vertex 36.9135 7.20517 1.6001
vertex 36.9135 7.20517 0.000103078
vertex 36.2446 6.93639 1.6001
endloop
endfacet
facet normal -0.372857 0.927889 0
outer loop
vertex 36.2446 6.93639 1.6001
vertex 36.9135 7.20517 0.000103078
vertex 36.2446 6.93639 0.000103078
endloop
endfacet
facet normal -0.210678 0.977556 0
outer loop
vertex 36.2446 6.93639 1.6001
vertex 36.2446 6.93639 0.000103078
vertex 35.5399 6.78453 1.6001
endloop
endfacet
facet normal -0.210678 0.977556 0
outer loop
vertex 35.5399 6.78453 1.6001
vertex 36.2446 6.93639 0.000103078
vertex 35.5399 6.78453 0.000103078
endloop
endfacet
facet normal -0.0424419 0.999099 0
outer loop
vertex 35.5399 6.78453 1.6001
vertex 35.5399 6.78453 0.000103078
vertex 34.8197 6.75393 1.6001
endloop
endfacet
facet normal -0.0424419 0.999099 0
outer loop
vertex 34.8197 6.75393 1.6001
vertex 35.5399 6.78453 0.000103078
vertex 34.8197 6.75393 0.000103078
endloop
endfacet
facet normal 0.127019 0.9919 0
outer loop
vertex 34.8197 6.75393 1.6001
vertex 34.8197 6.75393 0.000103078
vertex 34.1047 6.84549 1.6001
endloop
endfacet
facet normal 0.127019 0.9919 0
outer loop
vertex 34.1047 6.84549 1.6001
vertex 34.8197 6.75393 0.000103078
vertex 34.1047 6.84549 0.000103078
endloop
endfacet
facet normal 0.292822 0.956167 0
outer loop
vertex 34.1047 6.84549 1.6001
vertex 34.1047 6.84549 0.000103078
vertex 33.4155 7.05657 1.6001
endloop
endfacet
facet normal 0.292822 0.956167 0
outer loop
vertex 33.4155 7.05657 1.6001
vertex 34.1047 6.84549 0.000103078
vertex 33.4155 7.05657 0.000103078
endloop
endfacet
facet normal 0.450204 0.892926 0
outer loop
vertex 33.4155 7.05657 1.6001
vertex 33.4155 7.05657 0.000103078
vertex 32.7718 7.3811 1.6001
endloop
endfacet
facet normal 0.450204 0.892926 0
outer loop
vertex 32.7718 7.3811 1.6001
vertex 33.4155 7.05657 0.000103078
vertex 32.7718 7.3811 0.000103078
endloop
endfacet
facet normal 0.594632 0.803998 0
outer loop
vertex 32.7718 7.3811 1.6001
vertex 32.7718 7.3811 0.000103078
vertex 32.1922 7.80975 1.6001
endloop
endfacet
facet normal 0.594632 0.803998 0
outer loop
vertex 32.1922 7.80975 1.6001
vertex 32.7718 7.3811 0.000103078
vertex 32.1922 7.80975 0.000103078
endloop
endfacet
facet normal 0.721956 0.691939 0
outer loop
vertex 32.1922 7.80975 1.6001
vertex 32.1922 7.80975 0.000103078
vertex 31.6935 8.33017 1.6001
endloop
endfacet
facet normal 0.721956 0.691939 0
outer loop
vertex 31.6935 8.33017 1.6001
vertex 32.1922 7.80975 0.000103078
vertex 31.6935 8.33017 0.000103078
endloop
endfacet
facet normal 0.82851 0.559974 0
outer loop
vertex 31.6935 8.33017 1.6001
vertex 31.6935 8.33017 0.000103078
vertex 31.2898 8.9274 1.6001
endloop
endfacet
facet normal 0.82851 0.559974 0
outer loop
vertex 31.2898 8.9274 1.6001
vertex 31.6935 8.33017 0.000103078
vertex 31.2898 8.9274 0.000103078
endloop
endfacet
facet normal 0.911228 0.411903 0
outer loop
vertex 31.2898 8.9274 1.6001
vertex 31.2898 8.9274 0.000103078
vertex 30.9929 9.58426 1.6001
endloop
endfacet
facet normal 0.911228 0.411903 0
outer loop
vertex 30.9929 9.58426 1.6001
vertex 31.2898 8.9274 0.000103078
vertex 30.9929 9.58426 0.000103078
endloop
endfacet
facet normal 0.967734 0.251976 0
outer loop
vertex 30.9929 9.58426 1.6001
vertex 30.9929 9.58426 0.000103078
vertex 30.8112 10.2818 1.6001
endloop
endfacet
facet normal 0.967734 0.251976 0
outer loop
vertex 30.8112 10.2818 1.6001
vertex 30.9929 9.58426 0.000103078
vertex 30.8112 10.2818 0.000103078
endloop
endfacet
facet normal 0.996397 0.084806 0
outer loop
vertex 30.8112 10.2818 1.6001
vertex 30.8112 10.2818 0.000103078
vertex 30.7501 11.0001 1.6001
endloop
endfacet
facet normal 0.996397 0.084806 0
outer loop
vertex 30.7501 11.0001 1.6001
vertex 30.8112 10.2818 0.000103078
vertex 30.7501 11.0001 0.000103078
endloop
endfacet
facet normal 0.996397 -0.0848059 0
outer loop
vertex 30.7501 11.0001 1.6001
vertex 30.7501 11.0001 0.000103078
vertex 30.8112 11.7184 1.6001
endloop
endfacet
facet normal 0.996397 -0.0848059 0
outer loop
vertex 30.8112 11.7184 1.6001
vertex 30.7501 11.0001 0.000103078
vertex 30.8112 11.7184 0.000103078
endloop
endfacet
facet normal 0.967733 -0.251977 0
outer loop
vertex 2.81123 11.7184 1.6001
vertex 2.81123 11.7184 0.000103078
vertex 2.99287 12.4159 1.6001
endloop
endfacet
facet normal 0.967733 -0.251977 0
outer loop
vertex 2.99287 12.4159 1.6001
vertex 2.81123 11.7184 0.000103078
vertex 2.99287 12.4159 0.000103078
endloop
endfacet
facet normal 0.911228 -0.411902 0
outer loop
vertex 2.99287 12.4159 1.6001
vertex 2.99287 12.4159 0.000103078
vertex 3.28979 13.0728 1.6001
endloop
endfacet
facet normal 0.911228 -0.411902 0
outer loop
vertex 3.28979 13.0728 1.6001
vertex 2.99287 12.4159 0.000103078
vertex 3.28979 13.0728 0.000103078
endloop
endfacet
facet normal 0.82851 -0.559975 0
outer loop
vertex 3.28979 13.0728 1.6001
vertex 3.28979 13.0728 0.000103078
vertex 3.69345 13.67 1.6001
endloop
endfacet
facet normal 0.82851 -0.559975 0
outer loop
vertex 3.69345 13.67 1.6001
vertex 3.28979 13.0728 0.000103078
vertex 3.69345 13.67 0.000103078
endloop
endfacet
facet normal 0.721956 -0.691939 0
outer loop
vertex 3.69345 13.67 1.6001
vertex 3.69345 13.67 0.000103078
vertex 4.19223 14.1905 1.6001
endloop
endfacet
facet normal 0.721956 -0.691939 0
outer loop
vertex 4.19223 14.1905 1.6001
vertex 3.69345 13.67 0.000103078
vertex 4.19223 14.1905 0.000103078
endloop
endfacet
facet normal 0.594633 -0.803997 0
outer loop
vertex 4.19223 14.1905 1.6001
vertex 4.19223 14.1905 0.000103078
vertex 4.7718 14.6191 1.6001
endloop
endfacet
facet normal 0.594633 -0.803997 0
outer loop
vertex 4.7718 14.6191 1.6001
vertex 4.19223 14.1905 0.000103078
vertex 4.7718 14.6191 0.000103078
endloop
endfacet
facet normal 0.450203 -0.892926 0
outer loop
vertex 4.7718 14.6191 1.6001
vertex 4.7718 14.6191 0.000103078
vertex 5.41546 14.9436 1.6001
endloop
endfacet
facet normal 0.450203 -0.892926 0
outer loop
vertex 5.41546 14.9436 1.6001
vertex 4.7718 14.6191 0.000103078
vertex 5.41546 14.9436 0.000103078
endloop
endfacet
facet normal 0.292824 -0.956166 0
outer loop
vertex 5.41546 14.9436 1.6001
vertex 5.41546 14.9436 0.000103078
vertex 6.10472 15.1547 1.6001
endloop
endfacet
facet normal 0.292824 -0.956166 0
outer loop
vertex 6.10472 15.1547 1.6001
vertex 5.41546 14.9436 0.000103078
vertex 6.10472 15.1547 0.000103078
endloop
endfacet
facet normal 0.127017 -0.991901 0
outer loop
vertex 6.10472 15.1547 1.6001
vertex 6.10472 15.1547 0.000103078
vertex 6.81973 15.2463 1.6001
endloop
endfacet
facet normal 0.127017 -0.991901 0
outer loop
vertex 6.81973 15.2463 1.6001
vertex 6.10472 15.1547 0.000103078
vertex 6.81973 15.2463 0.000103078
endloop
endfacet
facet normal -0.0424414 -0.999099 0
outer loop
vertex 6.81973 15.2463 1.6001
vertex 6.81973 15.2463 0.000103078
vertex 7.53993 15.2157 1.6001
endloop
endfacet
facet normal -0.0424414 -0.999099 0
outer loop
vertex 7.53993 15.2157 1.6001
vertex 6.81973 15.2463 0.000103078
vertex 7.53993 15.2157 0.000103078
endloop
endfacet
facet normal -0.210679 -0.977555 0
outer loop
vertex 7.53993 15.2157 1.6001
vertex 7.53993 15.2157 0.000103078
vertex 8.2446 15.0638 1.6001
endloop
endfacet
facet normal -0.210679 -0.977555 0
outer loop
vertex 8.2446 15.0638 1.6001
vertex 7.53993 15.2157 0.000103078
vertex 8.2446 15.0638 0.000103078
endloop
endfacet
facet normal -0.372857 -0.927889 0
outer loop
vertex 8.2446 15.0638 1.6001
vertex 8.2446 15.0638 0.000103078
vertex 8.91347 14.795 1.6001
endloop
endfacet
facet normal -0.372857 -0.927889 0
outer loop
vertex 8.91347 14.795 1.6001
vertex 8.2446 15.0638 0.000103078
vertex 8.91347 14.795 0.000103078
endloop
endfacet
facet normal -0.524307 -0.85153 0
outer loop
vertex 8.91347 14.795 1.6001
vertex 8.91347 14.795 0.000103078
vertex 9.52729 14.4171 1.6001
endloop
endfacet
facet normal -0.524307 -0.85153 0
outer loop
vertex 9.52729 14.4171 1.6001
vertex 8.91347 14.795 0.000103078
vertex 9.52729 14.4171 0.000103078
endloop
endfacet
facet normal -0.660675 -0.750672 0
outer loop
vertex 9.52729 14.4171 1.6001
vertex 9.52729 14.4171 0.000103078
vertex 10.0684 13.9408 1.6001
endloop
endfacet
facet normal -0.660675 -0.750672 0
outer loop
vertex 10.0684 13.9408 1.6001
vertex 9.52729 14.4171 0.000103078
vertex 10.0684 13.9408 0.000103078
endloop
endfacet
facet normal -0.778035 -0.628221 0
outer loop
vertex 10.0684 13.9408 1.6001
vertex 10.0684 13.9408 0.000103078
vertex 10.5213 13.38 1.6001
endloop
endfacet
facet normal -0.778035 -0.628221 0
outer loop
vertex 10.5213 13.38 1.6001
vertex 10.0684 13.9408 0.000103078
vertex 10.5213 13.38 0.000103078
endloop
endfacet
facet normal -0.873015 -0.487694 0
outer loop
vertex 10.5213 13.38 1.6001
vertex 10.5213 13.38 0.000103078
vertex 10.8728 12.7507 1.6001
endloop
endfacet
facet normal -0.873015 -0.487694 0
outer loop
vertex 10.8728 12.7507 1.6001
vertex 10.5213 13.38 0.000103078
vertex 10.8728 12.7507 0.000103078
endloop
endfacet
facet normal -0.942877 -0.333141 0
outer loop
vertex 10.8728 12.7507 1.6001
vertex 10.8728 12.7507 0.000103078
vertex 11.113 12.071 1.6001
endloop
endfacet
facet normal -0.942877 -0.333141 0
outer loop
vertex 11.113 12.071 1.6001
vertex 10.8728 12.7507 0.000103078
vertex 11.113 12.071 0.000103078
endloop
endfacet
facet normal -0.985616 -0.169001 0
outer loop
vertex 11.113 12.071 1.6001
vertex 11.113 12.071 0.000103078
vertex 11.2348 11.3605 1.6001
endloop
endfacet
facet normal -0.985616 -0.169001 0
outer loop
vertex 11.2348 11.3605 1.6001
vertex 11.113 12.071 0.000103078
vertex 11.2348 11.3605 0.000103078
endloop
endfacet
facet normal -1 0 0
outer loop
vertex 11.2348 11.3605 1.6001
vertex 11.2348 11.3605 0.000103078
vertex 11.2348 10.6397 1.6001
endloop
endfacet
facet normal -1 0 0
outer loop
vertex 11.2348 10.6397 1.6001
vertex 11.2348 11.3605 0.000103078
vertex 11.2348 10.6397 0.000103078
endloop
endfacet
facet normal -0.985616 0.169001 0
outer loop
vertex 11.2348 10.6397 1.6001
vertex 11.2348 10.6397 0.000103078
vertex 11.113 9.9292 1.6001
endloop
endfacet
facet normal -0.985616 0.169001 0
outer loop
vertex 11.113 9.9292 1.6001
vertex 11.2348 10.6397 0.000103078
vertex 11.113 9.9292 0.000103078
endloop
endfacet
facet normal -0.942877 0.333141 0
outer loop
vertex 11.113 9.9292 1.6001
vertex 11.113 9.9292 0.000103078
vertex 10.8728 9.24952 1.6001
endloop
endfacet
facet normal -0.942877 0.333141 0
outer loop
vertex 10.8728 9.24952 1.6001
vertex 11.113 9.9292 0.000103078
vertex 10.8728 9.24952 0.000103078
endloop
endfacet
facet normal -0.873015 0.487693 0
outer loop
vertex 10.8728 9.24952 1.6001
vertex 10.8728 9.24952 0.000103078
vertex 10.5213 8.62021 1.6001
endloop
endfacet
facet normal -0.873015 0.487693 0
outer loop
vertex 10.5213 8.62021 1.6001
vertex 10.8728 9.24952 0.000103078
vertex 10.5213 8.62021 0.000103078
endloop
endfacet
facet normal -0.778035 0.628221 0
outer loop
vertex 10.5213 8.62021 1.6001
vertex 10.5213 8.62021 0.000103078
vertex 10.0684 8.05936 1.6001
endloop
endfacet
facet normal -0.778035 0.628221 0
outer loop
vertex 10.0684 8.05936 1.6001
vertex 10.5213 8.62021 0.000103078
vertex 10.0684 8.05936 0.000103078
endloop
endfacet
facet normal -0.660674 0.750673 0
outer loop
vertex 10.0684 8.05936 1.6001
vertex 10.0684 8.05936 0.000103078
vertex 9.52729 7.58312 1.6001
endloop
endfacet
facet normal -0.660674 0.750673 0
outer loop
vertex 9.52729 7.58312 1.6001
vertex 10.0684 8.05936 0.000103078
vertex 9.52729 7.58312 0.000103078
endloop
endfacet
facet normal -0.524306 0.85153 0
outer loop
vertex 9.52729 7.58312 1.6001
vertex 9.52729 7.58312 0.000103078
vertex 8.91347 7.20517 1.6001
endloop
endfacet
facet normal -0.524306 0.85153 0
outer loop
vertex 8.91347 7.20517 1.6001
vertex 9.52729 7.58312 0.000103078
vertex 8.91347 7.20517 0.000103078
endloop
endfacet
facet normal -0.372857 0.927889 0
outer loop
vertex 8.91347 7.20517 1.6001
vertex 8.91347 7.20517 0.000103078
vertex 8.2446 6.93639 1.6001
endloop
endfacet
facet normal -0.372857 0.927889 0
outer loop
vertex 8.2446 6.93639 1.6001
vertex 8.91347 7.20517 0.000103078
vertex 8.2446 6.93639 0.000103078
endloop
endfacet
facet normal -0.210679 0.977555 0
outer loop
vertex 8.2446 6.93639 1.6001
vertex 8.2446 6.93639 0.000103078
vertex 7.53993 6.78453 1.6001
endloop
endfacet
facet normal -0.210679 0.977555 0
outer loop
vertex 7.53993 6.78453 1.6001
vertex 8.2446 6.93639 0.000103078
vertex 7.53993 6.78453 0.000103078
endloop
endfacet
facet normal -0.042442 0.999099 0
outer loop
vertex 7.53993 6.78453 1.6001
vertex 7.53993 6.78453 0.000103078
vertex 6.81973 6.75393 1.6001
endloop
endfacet
facet normal -0.042442 0.999099 0
outer loop
vertex 6.81973 6.75393 1.6001
vertex 7.53993 6.78453 0.000103078
vertex 6.81973 6.75393 0.000103078
endloop
endfacet
facet normal 0.127018 0.9919 0
outer loop
vertex 6.81973 6.75393 1.6001
vertex 6.81973 6.75393 0.000103078
vertex 6.10472 6.84549 1.6001
endloop
endfacet
facet normal 0.127018 0.9919 0
outer loop
vertex 6.10472 6.84549 1.6001
vertex 6.81973 6.75393 0.000103078
vertex 6.10472 6.84549 0.000103078
endloop
endfacet
facet normal 0.292823 0.956167 0
outer loop
vertex 6.10472 6.84549 1.6001
vertex 6.10472 6.84549 0.000103078
vertex 5.41546 7.05657 1.6001
endloop
endfacet
facet normal 0.292823 0.956167 0
outer loop
vertex 5.41546 7.05657 1.6001
vertex 6.10472 6.84549 0.000103078
vertex 5.41546 7.05657 0.000103078
endloop
endfacet
facet normal 0.450204 0.892925 0
outer loop
vertex 5.41546 7.05657 1.6001
vertex 5.41546 7.05657 0.000103078
vertex 4.7718 7.3811 1.6001
endloop
endfacet
facet normal 0.450204 0.892925 0
outer loop
vertex 4.7718 7.3811 1.6001
vertex 5.41546 7.05657 0.000103078
vertex 4.7718 7.3811 0.000103078
endloop
endfacet
facet normal 0.594633 0.803997 0
outer loop
vertex 4.7718 7.3811 1.6001
vertex 4.7718 7.3811 0.000103078
vertex 4.19223 7.80975 1.6001
endloop
endfacet
facet normal 0.594633 0.803997 0
outer loop
vertex 4.19223 7.80975 1.6001
vertex 4.7718 7.3811 0.000103078
vertex 4.19223 7.80975 0.000103078
endloop
endfacet
facet normal 0.721955 0.69194 0
outer loop
vertex 4.19223 7.80975 1.6001
vertex 4.19223 7.80975 0.000103078
vertex 3.69345 8.33017 1.6001
endloop
endfacet
facet normal 0.721955 0.69194 0
outer loop
vertex 3.69345 8.33017 1.6001
vertex 4.19223 7.80975 0.000103078
vertex 3.69345 8.33017 0.000103078
endloop
endfacet
facet normal 0.82851 0.559974 0
outer loop
vertex 3.69345 8.33017 1.6001
vertex 3.69345 8.33017 0.000103078
vertex 3.28979 8.9274 1.6001
endloop
endfacet
facet normal 0.82851 0.559974 0
outer loop
vertex 3.28979 8.9274 1.6001
vertex 3.69345 8.33017 0.000103078
vertex 3.28979 8.9274 0.000103078
endloop
endfacet
facet normal 0.911228 0.411903 0
outer loop
vertex 3.28979 8.9274 1.6001
vertex 3.28979 8.9274 0.000103078
vertex 2.99287 9.58426 1.6001
endloop
endfacet
facet normal 0.911228 0.411903 0
outer loop
vertex 2.99287 9.58426 1.6001
vertex 3.28979 8.9274 0.000103078
vertex 2.99287 9.58426 0.000103078
endloop
endfacet
facet normal 0.967733 0.251977 0
outer loop
vertex 2.99287 9.58426 1.6001
vertex 2.99287 9.58426 0.000103078
vertex 2.81123 10.2818 1.6001
endloop
endfacet
facet normal 0.967733 0.251977 0
outer loop
vertex 2.81123 10.2818 1.6001
vertex 2.99287 9.58426 0.000103078
vertex 2.81123 10.2818 0.000103078
endloop
endfacet
facet normal 0.996398 0.0848054 0
outer loop
vertex 2.81123 10.2818 1.6001
vertex 2.81123 10.2818 0.000103078
vertex 2.7501 11.0001 1.6001
endloop
endfacet
facet normal 0.996398 0.0848054 0
outer loop
vertex 2.7501 11.0001 1.6001
vertex 2.81123 10.2818 0.000103078
vertex 2.7501 11.0001 0.000103078
endloop
endfacet
facet normal 0.996398 -0.0848053 0
outer loop
vertex 2.7501 11.0001 1.6001
vertex 2.7501 11.0001 0.000103078
vertex 2.81123 11.7184 1.6001
endloop
endfacet
facet normal 0.996398 -0.0848053 0
outer loop
vertex 2.81123 11.7184 1.6001
vertex 2.7501 11.0001 0.000103078
vertex 2.81123 11.7184 0.000103078
endloop
endfacet
facet normal 0 -1 0
outer loop
vertex 42.0001 0.000103377 0.000103078
vertex 42.0001 0.000103377 1.6001
vertex 0.000102445 0.000103377 0.000103078
endloop
endfacet
facet normal 0 -1 0
outer loop
vertex 0.000102445 0.000103377 0.000103078
vertex 42.0001 0.000103377 1.6001
vertex 0.000102445 0.000103377 1.6001
endloop
endfacet
facet normal 0 0 1
outer loop
vertex 42.0001 42.4001 50.0001
vertex 29.5803 41.4317 50.0001
vertex 29.9692 39.938 50.0001
endloop
endfacet
facet normal 0 0 1
outer loop
vertex 42.0001 24.0001 50.0001
vertex 28.9445 33.9621 50.0001
vertex 28.0802 32.6833 50.0001
endloop
endfacet
facet normal 0 0 1
outer loop
vertex 29.9692 39.938 50.0001
vertex 30.1001 38.4001 50.0001
vertex 42.0001 42.4001 50.0001
endloop
endfacet
facet normal 0 0 1
outer loop
vertex 42.0001 42.4001 50.0001
vertex 30.1001 38.4001 50.0001
vertex 29.9692 36.8622 50.0001
endloop
endfacet
facet normal 0 0 1
outer loop
vertex 42.0001 42.4001 50.0001
vertex 29.9692 36.8622 50.0001
vertex 42.0001 24.0001 50.0001
endloop
endfacet
facet normal 0 0 1
outer loop
vertex 42.0001 24.0001 50.0001
vertex 29.9692 36.8622 50.0001
vertex 29.5803 35.3685 50.0001
endloop
endfacet
facet normal 0 0 1
outer loop
vertex 42.0001 24.0001 50.0001
vertex 29.5803 35.3685 50.0001
vertex 28.9445 33.9621 50.0001
endloop
endfacet
facet normal 0 0 1
outer loop
vertex 28.0802 32.6833 50.0001
vertex 27.0122 31.569 50.0001
vertex 42.0001 24.0001 50.0001
endloop
endfacet
facet normal 0 0 1
outer loop
vertex 42.0001 24.0001 50.0001
vertex 27.0122 31.569 50.0001
vertex 25.7713 30.6512 50.0001
endloop
endfacet
facet normal 0 0 1
outer loop
vertex 42.0001 24.0001 50.0001
vertex 25.7713 30.6512 50.0001
vertex 24.3931 29.9563 50.0001
endloop
endfacet
facet normal 0 0 1
outer loop
vertex 32.0001 52.4001 50.0001
vertex 28.0802 44.1169 50.0001
vertex 42.0001 42.4001 50.0001
endloop
endfacet
facet normal 0 0 1
outer loop
vertex 42.0001 42.4001 50.0001
vertex 28.0802 44.1169 50.0001
vertex 28.9445 42.8381 50.0001
endloop
endfacet
facet normal 0 0 1
outer loop
vertex 42.0001 42.4001 50.0001
vertex 28.9445 42.8381 50.0001
vertex 29.5803 41.4317 50.0001
endloop
endfacet
facet normal 0 0 1
outer loop
vertex 0.000102445 24.0001 50.0001
vertex 18.3354 29.699 50.0001
vertex 16.9032 30.2745 50.0001
endloop
endfacet
facet normal 0 0 1
outer loop
vertex 24.3931 29.9563 50.0001
vertex 22.9173 29.5044 50.0001
vertex 42.0001 24.0001 50.0001
endloop
endfacet
facet normal 0 0 1
outer loop
vertex 42.0001 24.0001 50.0001
vertex 22.9173 29.5044 50.0001
vertex 21.3863 29.3083 50.0001
endloop
endfacet
facet normal 0 0 1
outer loop
vertex 42.0001 24.0001 50.0001
vertex 21.3863 29.3083 50.0001
vertex 0.000102445 24.0001 50.0001
endloop
endfacet
facet normal 0 0 1
outer loop
vertex 0.000102445 24.0001 50.0001
vertex 21.3863 29.3083 50.0001
vertex 19.8442 29.3738 50.0001
endloop
endfacet
facet normal 0 0 1
outer loop
vertex 0.000102445 24.0001 50.0001
vertex 19.8442 29.3738 50.0001
vertex 18.3354 29.699 50.0001
endloop
endfacet
facet normal 0 0 1
outer loop
vertex 16.9032 30.2745 50.0001
vertex 15.5889 31.0837 50.0001
vertex 0.000102445 24.0001 50.0001
endloop
endfacet
facet normal 0 0 1
outer loop
vertex 0.000102445 24.0001 50.0001
vertex 15.5889 31.0837 50.0001
vertex 14.4303 32.1035 50.0001
endloop
endfacet
facet normal 0 0 1
outer loop
vertex 0.000102445 24.0001 50.0001
vertex 14.4303 32.1035 50.0001
vertex 13.4607 33.3043 50.0001
endloop
endfacet
facet normal 0 0 1
outer loop
vertex 14.4303 44.6967 50.0001
vertex 15.5889 45.7165 50.0001
vertex 10.0001 52.4001 50.0001
endloop
endfacet
facet normal 0 0 1
outer loop
vertex 10.0001 52.4001 50.0001
vertex 15.5889 45.7165 50.0001
vertex 16.9032 46.5257 50.0001
endloop
endfacet
facet normal 0 0 1
outer loop
vertex 22.9173 47.2959 50.0001
vertex 24.3931 46.8439 50.0001
vertex 32.0001 52.4001 50.0001
endloop
endfacet
facet normal 0 0 1
outer loop
vertex 24.3931 46.8439 50.0001
vertex 25.7713 46.149 50.0001
vertex 32.0001 52.4001 50.0001
endloop
endfacet
facet normal 0 0 1
outer loop
vertex 32.0001 52.4001 50.0001
vertex 25.7713 46.149 50.0001
vertex 27.0122 45.2312 50.0001
endloop
endfacet
facet normal 0 0 1
outer loop
vertex 32.0001 52.4001 50.0001
vertex 27.0122 45.2312 50.0001
vertex 28.0802 44.1169 50.0001
endloop
endfacet
facet normal 0 0 1
outer loop
vertex 13.4607 33.3043 50.0001
vertex 12.7079 34.6518 50.0001
vertex 0.000102445 24.0001 50.0001
endloop
endfacet
facet normal 0 0 1
outer loop
vertex 0.000102445 24.0001 50.0001
vertex 12.7079 34.6518 50.0001
vertex 12.1937 36.1071 50.0001
endloop
endfacet
facet normal 0 0 1
outer loop
vertex 0.000102445 24.0001 50.0001
vertex 12.1937 36.1071 50.0001
vertex 0.000102445 42.4001 50.0001
endloop
endfacet
facet normal 0 0 1
outer loop
vertex 0.000102445 42.4001 50.0001
vertex 12.1937 36.1071 50.0001
vertex 11.9329 37.6284 50.0001
endloop
endfacet
facet normal 0 0 1
outer loop
vertex 0.000102445 42.4001 50.0001
vertex 11.9329 37.6284 50.0001
vertex 11.9329 39.1718 50.0001
endloop
endfacet
facet normal 0 0 1
outer loop
vertex 16.9032 46.5257 50.0001
vertex 18.3354 47.1012 50.0001
vertex 10.0001 52.4001 50.0001
endloop
endfacet
facet normal 0 0 1
outer loop
vertex 10.0001 52.4001 50.0001
vertex 18.3354 47.1012 50.0001
vertex 19.8442 47.4264 50.0001
endloop
endfacet
facet normal 0 0 1
outer loop
vertex 10.0001 52.4001 50.0001
vertex 19.8442 47.4264 50.0001
vertex 32.0001 52.4001 50.0001
endloop
endfacet
facet normal 0 0 1
outer loop
vertex 32.0001 52.4001 50.0001
vertex 19.8442 47.4264 50.0001
vertex 21.3863 47.4919 50.0001
endloop
endfacet
facet normal 0 0 1
outer loop
vertex 32.0001 52.4001 50.0001
vertex 21.3863 47.4919 50.0001
vertex 22.9173 47.2959 50.0001
endloop
endfacet
facet normal 0 0 1
outer loop
vertex 11.9329 39.1718 50.0001
vertex 12.1937 40.6931 50.0001
vertex 0.000102445 42.4001 50.0001
endloop
endfacet
facet normal 0 0 1
outer loop
vertex 0.000102445 42.4001 50.0001
vertex 12.1937 40.6931 50.0001
vertex 12.7079 42.1484 50.0001
endloop
endfacet
facet normal 0 0 1
outer loop
vertex 0.000102445 42.4001 50.0001
vertex 12.7079 42.1484 50.0001
vertex 10.0001 52.4001 50.0001
endloop
endfacet
facet normal 0 0 1
outer loop
vertex 10.0001 52.4001 50.0001
vertex 12.7079 42.1484 50.0001
vertex 13.4607 43.4959 50.0001
endloop
endfacet
facet normal 0 0 1
outer loop
vertex 10.0001 52.4001 50.0001
vertex 13.4607 43.4959 50.0001
vertex 14.4303 44.6967 50.0001
endloop
endfacet
facet normal 0 0 -1
outer loop
vertex 34.8197 6.75393 0.000103078
vertex 35.5399 6.78453 0.000103078
vertex 42.0001 0.000103377 0.000103078
endloop
endfacet
facet normal 0 0 -1
outer loop
vertex 31.2898 13.0728 0.000103078
vertex 30.9929 12.4159 0.000103078
vertex 0.000102445 18.4001 0.000103078
endloop
endfacet
facet normal 0 0 -1
outer loop
vertex 35.5399 6.78453 0.000103078
vertex 36.2446 6.93639 0.000103078
vertex 42.0001 0.000103377 0.000103078
endloop
endfacet
facet normal 0 0 -1
outer loop
vertex 42.0001 0.000103377 0.000103078
vertex 36.2446 6.93639 0.000103078
vertex 36.9135 7.20517 0.000103078
endloop
endfacet
facet normal 0 0 -1
outer loop
vertex 42.0001 0.000103377 0.000103078
vertex 36.9135 7.20517 0.000103078
vertex 37.5273 7.58312 0.000103078
endloop
endfacet
facet normal 0 0 -1
outer loop
vertex 0.000102445 18.4001 0.000103078
vertex 2.7501 11.0001 0.000103078
vertex 0.000102445 0.000103377 0.000103078
endloop
endfacet
facet normal 0 0 -1
outer loop
vertex 0.000102445 0.000103377 0.000103078
vertex 2.7501 11.0001 0.000103078
vertex 2.81123 10.2818 0.000103078
endloop
endfacet
facet normal 0 0 -1
outer loop
vertex 31.6935 8.33017 0.000103078
vertex 32.1922 7.80975 0.000103078
vertex 0.000102445 0.000103377 0.000103078
endloop
endfacet
facet normal 0 0 -1
outer loop
vertex 38.0684 13.9408 0.000103078
vertex 37.5273 14.4171 0.000103078
vertex 42.0001 18.4001 0.000103078
endloop
endfacet
facet normal 0 0 -1
outer loop
vertex 42.0001 18.4001 0.000103078
vertex 37.5273 14.4171 0.000103078
vertex 36.9135 14.795 0.000103078
endloop
endfacet
facet normal 0 0 -1
outer loop
vertex 42.0001 18.4001 0.000103078
vertex 36.9135 14.795 0.000103078
vertex 36.2446 15.0638 0.000103078
endloop
endfacet
facet normal 0 0 -1
outer loop
vertex 2.81123 10.2818 0.000103078
vertex 2.99287 9.58426 0.000103078
vertex 0.000102445 0.000103377 0.000103078
endloop
endfacet
facet normal 0 0 -1
outer loop
vertex 0.000102445 0.000103377 0.000103078
vertex 2.99287 9.58426 0.000103078
vertex 3.28979 8.9274 0.000103078
endloop
endfacet
facet normal 0 0 -1
outer loop
vertex 0.000102445 0.000103377 0.000103078
vertex 3.28979 8.9274 0.000103078
vertex 3.69345 8.33017 0.000103078
endloop
endfacet
facet normal 0 0 -1
outer loop
vertex 7.53993 6.78453 0.000103078
vertex 8.2446 6.93639 0.000103078
vertex 30.7501 11.0001 0.000103078
endloop
endfacet
facet normal 0 0 -1
outer loop
vertex 30.7501 11.0001 0.000103078
vertex 8.2446 6.93639 0.000103078
vertex 8.91347 7.20517 0.000103078
endloop
endfacet
facet normal 0 0 -1
outer loop
vertex 30.7501 11.0001 0.000103078
vertex 8.91347 7.20517 0.000103078
vertex 9.52729 7.58312 0.000103078
endloop
endfacet
facet normal 0 0 -1
outer loop
vertex 3.69345 8.33017 0.000103078
vertex 4.19223 7.80975 0.000103078
vertex 0.000102445 0.000103377 0.000103078
endloop
endfacet
facet normal 0 0 -1
outer loop
vertex 0.000102445 0.000103377 0.000103078
vertex 4.19223 7.80975 0.000103078
vertex 4.7718 7.3811 0.000103078
endloop
endfacet
facet normal 0 0 -1
outer loop
vertex 0.000102445 0.000103377 0.000103078
vertex 4.7718 7.3811 0.000103078
vertex 5.41546 7.05657 0.000103078
endloop
endfacet
facet normal 0 0 -1
outer loop
vertex 5.41546 7.05657 0.000103078
vertex 6.10472 6.84549 0.000103078
vertex 0.000102445 0.000103377 0.000103078
endloop
endfacet
facet normal 0 0 -1
outer loop
vertex 0.000102445 0.000103377 0.000103078
vertex 6.10472 6.84549 0.000103078
vertex 6.81973 6.75393 0.000103078
endloop
endfacet
facet normal 0 0 -1
outer loop
vertex 0.000102445 0.000103377 0.000103078
vertex 6.81973 6.75393 0.000103078
vertex 7.53993 6.78453 0.000103078
endloop
endfacet
facet normal 0 0 -1
outer loop
vertex 32.1922 7.80975 0.000103078
vertex 32.7718 7.3811 0.000103078
vertex 0.000102445 0.000103377 0.000103078
endloop
endfacet
facet normal 0 0 -1
outer loop
vertex 0.000102445 0.000103377 0.000103078
vertex 32.7718 7.3811 0.000103078
vertex 33.4155 7.05657 0.000103078
endloop
endfacet
facet normal 0 0 -1
outer loop
vertex 0.000102445 0.000103377 0.000103078
vertex 33.4155 7.05657 0.000103078
vertex 42.0001 0.000103377 0.000103078
endloop
endfacet
facet normal 0 0 -1
outer loop
vertex 42.0001 0.000103377 0.000103078
vertex 33.4155 7.05657 0.000103078
vertex 34.1047 6.84549 0.000103078
endloop
endfacet
facet normal 0 0 -1
outer loop
vertex 42.0001 0.000103377 0.000103078
vertex 34.1047 6.84549 0.000103078
vertex 34.8197 6.75393 0.000103078
endloop
endfacet
facet normal 0 0 -1
outer loop
vertex 39.113 12.071 0.000103078
vertex 38.8728 12.7507 0.000103078
vertex 42.0001 18.4001 0.000103078
endloop
endfacet
facet normal 0 0 -1
outer loop
vertex 42.0001 18.4001 0.000103078
vertex 38.8728 12.7507 0.000103078
vertex 38.5213 13.38 0.000103078
endloop
endfacet
facet normal 0 0 -1
outer loop
vertex 42.0001 18.4001 0.000103078
vertex 38.5213 13.38 0.000103078
vertex 38.0684 13.9408 0.000103078
endloop
endfacet
facet normal 0 0 -1
outer loop
vertex 30.7501 11.0001 0.000103078
vertex 30.8112 10.2818 0.000103078
vertex 7.53993 6.78453 0.000103078
endloop
endfacet
facet normal 0 0 -1
outer loop
vertex 7.53993 6.78453 0.000103078
vertex 30.8112 10.2818 0.000103078
vertex 30.9929 9.58426 0.000103078
endloop
endfacet
facet normal 0 0 -1
outer loop
vertex 7.53993 6.78453 0.000103078
vertex 30.9929 9.58426 0.000103078
vertex 0.000102445 0.000103377 0.000103078
endloop
endfacet
facet normal 0 0 -1
outer loop
vertex 0.000102445 0.000103377 0.000103078
vertex 30.9929 9.58426 0.000103078
vertex 31.2898 8.9274 0.000103078
endloop
endfacet
facet normal 0 0 -1
outer loop
vertex 0.000102445 0.000103377 0.000103078
vertex 31.2898 8.9274 0.000103078
vertex 31.6935 8.33017 0.000103078
endloop
endfacet
facet normal 0 0 -1
outer loop
vertex 37.5273 7.58312 0.000103078
vertex 38.0684 8.05936 0.000103078
vertex 42.0001 0.000103377 0.000103078
endloop
endfacet
facet normal 0 0 -1
outer loop
vertex 42.0001 0.000103377 0.000103078
vertex 38.0684 8.05936 0.000103078
vertex 38.5213 8.62021 0.000103078
endloop
endfacet
facet normal 0 0 -1
outer loop
vertex 42.0001 0.000103377 0.000103078
vertex 38.5213 8.62021 0.000103078
vertex 38.8728 9.24952 0.000103078
endloop
endfacet
facet normal 0 0 -1
outer loop
vertex 0.000102445 18.4001 0.000103078
vertex 33.4155 14.9436 0.000103078
vertex 32.7718 14.6191 0.000103078
endloop
endfacet
facet normal 0 0 -1
outer loop
vertex 9.52729 7.58312 0.000103078
vertex 10.0684 8.05936 0.000103078
vertex 30.7501 11.0001 0.000103078
endloop
endfacet
facet normal 0 0 -1
outer loop
vertex 30.7501 11.0001 0.000103078
vertex 10.0684 8.05936 0.000103078
vertex 10.5213 8.62021 0.000103078
endloop
endfacet
facet normal 0 0 -1
outer loop
vertex 30.7501 11.0001 0.000103078
vertex 10.5213 8.62021 0.000103078
vertex 10.8728 9.24952 0.000103078
endloop
endfacet
facet normal 0 0 -1
outer loop
vertex 38.8728 9.24952 0.000103078
vertex 39.113 9.9292 0.000103078
vertex 42.0001 0.000103377 0.000103078
endloop
endfacet
facet normal 0 0 -1
outer loop
vertex 42.0001 0.000103377 0.000103078
vertex 39.113 9.9292 0.000103078
vertex 39.2348 10.6397 0.000103078
endloop
endfacet
facet normal 0 0 -1
outer loop
vertex 42.0001 0.000103377 0.000103078
vertex 39.2348 10.6397 0.000103078
vertex 42.0001 18.4001 0.000103078
endloop
endfacet
facet normal 0 0 -1
outer loop
vertex 42.0001 18.4001 0.000103078
vertex 39.2348 10.6397 0.000103078
vertex 39.2348 11.3605 0.000103078
endloop
endfacet
facet normal 0 0 -1
outer loop
vertex 42.0001 18.4001 0.000103078
vertex 39.2348 11.3605 0.000103078
vertex 39.113 12.071 0.000103078
endloop
endfacet
facet normal 0 0 -1
outer loop
vertex 36.2446 15.0638 0.000103078
vertex 35.5399 15.2157 0.000103078
vertex 42.0001 18.4001 0.000103078
endloop
endfacet
facet normal 0 0 -1
outer loop
vertex 42.0001 18.4001 0.000103078
vertex 35.5399 15.2157 0.000103078
vertex 34.8197 15.2463 0.000103078
endloop
endfacet
facet normal 0 0 -1
outer loop
vertex 42.0001 18.4001 0.000103078
vertex 34.8197 15.2463 0.000103078
vertex 0.000102445 18.4001 0.000103078
endloop
endfacet
facet normal 0 0 -1
outer loop
vertex 0.000102445 18.4001 0.000103078
vertex 34.8197 15.2463 0.000103078
vertex 34.1047 15.1547 0.000103078
endloop
endfacet
facet normal 0 0 -1
outer loop
vertex 0.000102445 18.4001 0.000103078
vertex 34.1047 15.1547 0.000103078
vertex 33.4155 14.9436 0.000103078
endloop
endfacet
facet normal 0 0 -1
outer loop
vertex 32.7718 14.6191 0.000103078
vertex 32.1922 14.1905 0.000103078
vertex 0.000102445 18.4001 0.000103078
endloop
endfacet
facet normal 0 0 -1
outer loop
vertex 0.000102445 18.4001 0.000103078
vertex 32.1922 14.1905 0.000103078
vertex 31.6935 13.67 0.000103078
endloop
endfacet
facet normal 0 0 -1
outer loop
vertex 0.000102445 18.4001 0.000103078
vertex 31.6935 13.67 0.000103078
vertex 31.2898 13.0728 0.000103078
endloop
endfacet
facet normal 0 0 -1
outer loop
vertex 10.8728 9.24952 0.000103078
vertex 11.113 9.9292 0.000103078
vertex 30.7501 11.0001 0.000103078
endloop
endfacet
facet normal 0 0 -1
outer loop
vertex 30.7501 11.0001 0.000103078
vertex 11.113 9.9292 0.000103078
vertex 11.2348 10.6397 0.000103078
endloop
endfacet
facet normal 0 0 -1
outer loop
vertex 30.7501 11.0001 0.000103078
vertex 11.2348 10.6397 0.000103078
vertex 30.8112 11.7184 0.000103078
endloop
endfacet
facet normal 0 0 -1
outer loop
vertex 30.8112 11.7184 0.000103078
vertex 11.2348 10.6397 0.000103078
vertex 11.2348 11.3605 0.000103078
endloop
endfacet
facet normal 0 0 -1
outer loop
vertex 30.8112 11.7184 0.000103078
vertex 11.2348 11.3605 0.000103078
vertex 30.9929 12.4159 0.000103078
endloop
endfacet
facet normal 0 0 -1
outer loop
vertex 30.9929 12.4159 0.000103078
vertex 11.2348 11.3605 0.000103078
vertex 11.113 12.071 0.000103078
endloop
endfacet
facet normal 0 0 -1
outer loop
vertex 30.9929 12.4159 0.000103078
vertex 11.113 12.071 0.000103078
vertex 10.8728 12.7507 0.000103078
endloop
endfacet
facet normal 0 0 -1
outer loop
vertex 10.8728 12.7507 0.000103078
vertex 10.5213 13.38 0.000103078
vertex 30.9929 12.4159 0.000103078
endloop
endfacet
facet normal 0 0 -1
outer loop
vertex 30.9929 12.4159 0.000103078
vertex 10.5213 13.38 0.000103078
vertex 10.0684 13.9408 0.000103078
endloop
endfacet
facet normal 0 0 -1
outer loop
vertex 30.9929 12.4159 0.000103078
vertex 10.0684 13.9408 0.000103078
vertex 9.52729 14.4171 0.000103078
endloop
endfacet
facet normal 0 0 -1
outer loop
vertex 6.81973 15.2463 0.000103078
vertex 6.10472 15.1547 0.000103078
vertex 0.000102445 18.4001 0.000103078
endloop
endfacet
facet normal 0 0 -1
outer loop
vertex 0.000102445 18.4001 0.000103078
vertex 6.10472 15.1547 0.000103078
vertex 5.41546 14.9436 0.000103078
endloop
endfacet
facet normal 0 0 -1
outer loop
vertex 0.000102445 18.4001 0.000103078
vertex 5.41546 14.9436 0.000103078
vertex 4.7718 14.6191 0.000103078
endloop
endfacet
facet normal 0 0 -1
outer loop
vertex 4.7718 14.6191 0.000103078
vertex 4.19223 14.1905 0.000103078
vertex 0.000102445 18.4001 0.000103078
endloop
endfacet
facet normal 0 0 -1
outer loop
vertex 0.000102445 18.4001 0.000103078
vertex 4.19223 14.1905 0.000103078
vertex 3.69345 13.67 0.000103078
endloop
endfacet
facet normal 0 0 -1
outer loop
vertex 0.000102445 18.4001 0.000103078
vertex 3.69345 13.67 0.000103078
vertex 3.28979 13.0728 0.000103078
endloop
endfacet
facet normal 0 0 -1
outer loop
vertex 9.52729 14.4171 0.000103078
vertex 8.91347 14.795 0.000103078
vertex 30.9929 12.4159 0.000103078
endloop
endfacet
facet normal 0 0 -1
outer loop
vertex 30.9929 12.4159 0.000103078
vertex 8.91347 14.795 0.000103078
vertex 8.2446 15.0638 0.000103078
endloop
endfacet
facet normal 0 0 -1
outer loop
vertex 30.9929 12.4159 0.000103078
vertex 8.2446 15.0638 0.000103078
vertex 0.000102445 18.4001 0.000103078
endloop
endfacet
facet normal 0 0 -1
outer loop
vertex 0.000102445 18.4001 0.000103078
vertex 8.2446 15.0638 0.000103078
vertex 7.53993 15.2157 0.000103078
endloop
endfacet
facet normal 0 0 -1
outer loop
vertex 0.000102445 18.4001 0.000103078
vertex 7.53993 15.2157 0.000103078
vertex 6.81973 15.2463 0.000103078
endloop
endfacet
facet normal 0 0 -1
outer loop
vertex 3.28979 13.0728 0.000103078
vertex 2.99287 12.4159 0.000103078
vertex 0.000102445 18.4001 0.000103078
endloop
endfacet
facet normal 0 0 -1
outer loop
vertex 0.000102445 18.4001 0.000103078
vertex 2.99287 12.4159 0.000103078
vertex 2.81123 11.7184 0.000103078
endloop
endfacet
facet normal 0 0 -1
outer loop
vertex 0.000102445 18.4001 0.000103078
vertex 2.81123 11.7184 0.000103078
vertex 2.7501 11.0001 0.000103078
endloop
endfacet
facet normal 0 0.996917 -0.0784642
outer loop
vertex 0.000102445 22.0001 3.6001
vertex 42.0001 22.0001 3.6001
vertex 0.000102445 21.9558 3.03694
endloop
endfacet
facet normal 0 0.996917 -0.0784642
outer loop
vertex 0.000102445 21.9558 3.03694
vertex 42.0001 22.0001 3.6001
vertex 42.0001 21.9558 3.03694
endloop
endfacet
facet normal 0 0.97237 -0.233445
outer loop
vertex 0.000102445 21.9558 3.03694
vertex 42.0001 21.9558 3.03694
vertex 0.000102445 21.8239 2.48764
endloop
endfacet
facet normal 0 0.97237 -0.233445
outer loop
vertex 0.000102445 21.8239 2.48764
vertex 42.0001 21.9558 3.03694
vertex 42.0001 21.8239 2.48764
endloop
endfacet
facet normal 0 0.92388 -0.382682
outer loop
vertex 0.000102445 21.8239 2.48764
vertex 42.0001 21.8239 2.48764
vertex 0.000102445 21.6077 1.96574
endloop
endfacet
facet normal 0 0.92388 -0.382682
outer loop
vertex 0.000102445 21.6077 1.96574
vertex 42.0001 21.8239 2.48764
vertex 42.0001 21.6077 1.96574
endloop
endfacet
facet normal 0 0.85264 -0.522498
outer loop
vertex 0.000102445 21.6077 1.96574
vertex 42.0001 21.6077 1.96574
vertex 0.000102445 21.3126 1.48408
endloop
endfacet
facet normal 0 0.85264 -0.522498
outer loop
vertex 0.000102445 21.3126 1.48408
vertex 42.0001 21.6077 1.96574
vertex 42.0001 21.3126 1.48408
endloop
endfacet
facet normal 0 0.760404 -0.64945
outer loop
vertex 0.000102445 21.3126 1.48408
vertex 42.0001 21.3126 1.48408
vertex 0.000102445 20.9457 1.05452
endloop
endfacet
facet normal 0 0.760404 -0.64945
outer loop
vertex 0.000102445 20.9457 1.05452
vertex 42.0001 21.3126 1.48408
vertex 42.0001 20.9457 1.05452
endloop
endfacet
facet normal 0 0.649449 -0.760405
outer loop
vertex 0.000102445 20.9457 1.05452
vertex 42.0001 20.9457 1.05452
vertex 0.000102445 20.5161 0.687642
endloop
endfacet
facet normal 0 0.649449 -0.760405
outer loop
vertex 0.000102445 20.5161 0.687642
vertex 42.0001 20.9457 1.05452
vertex 42.0001 20.5161 0.687642
endloop
endfacet
facet normal 0 0.522499 -0.85264
outer loop
vertex 0.000102445 20.5161 0.687642
vertex 42.0001 20.5161 0.687642
vertex 0.000102445 20.0345 0.39248
endloop
endfacet
facet normal 0 0.522499 -0.85264
outer loop
vertex 0.000102445 20.0345 0.39248
vertex 42.0001 20.5161 0.687642
vertex 42.0001 20.0345 0.39248
endloop
endfacet
facet normal 0 0.382683 -0.92388
outer loop
vertex 0.000102445 20.0345 0.39248
vertex 42.0001 20.0345 0.39248
vertex 0.000102445 19.5126 0.1763
endloop
endfacet
facet normal 0 0.382683 -0.92388
outer loop
vertex 0.000102445 19.5126 0.1763
vertex 42.0001 20.0345 0.39248
vertex 42.0001 19.5126 0.1763
endloop
endfacet
facet normal 0 0.233445 -0.97237
outer loop
vertex 0.000102445 19.5126 0.1763
vertex 42.0001 19.5126 0.1763
vertex 0.000102445 18.9633 0.0444251
endloop
endfacet
facet normal 0 0.233445 -0.97237
outer loop
vertex 0.000102445 18.9633 0.0444251
vertex 42.0001 19.5126 0.1763
vertex 42.0001 18.9633 0.0444251
endloop
endfacet
facet normal 0 0.0784591 -0.996917
outer loop
vertex 0.000102445 18.9633 0.0444251
vertex 42.0001 18.9633 0.0444251
vertex 0.000102445 18.4001 0.000103078
endloop
endfacet
facet normal 0 0.0784591 -0.996917
outer loop
vertex 0.000102445 18.4001 0.000103078
vertex 42.0001 18.9633 0.0444251
vertex 42.0001 18.4001 0.000103078
endloop
endfacet
facet normal 0 1 0
outer loop
vertex 42.0001 22.0001 46.4001
vertex 42.0001 22.0001 3.6001
vertex 0.000102445 22.0001 46.4001
endloop
endfacet
facet normal 0 1 0
outer loop
vertex 0.000102445 22.0001 46.4001
vertex 42.0001 22.0001 3.6001
vertex 0.000102445 22.0001 3.6001
endloop
endfacet
facet normal 0 0.996918 -0.0784555
outer loop
vertex 42.0001 22.0001 46.4001
vertex 0.000102445 22.0001 46.4001
vertex 42.0001 22.0247 46.713
endloop
endfacet
facet normal 0 0.996918 -0.0784555
outer loop
vertex 42.0001 22.0247 46.713
vertex 0.000102445 22.0001 46.4001
vertex 0.000102445 22.0247 46.713
endloop
endfacet
facet normal 0 0.97237 -0.233444
outer loop
vertex 42.0001 22.0247 46.713
vertex 0.000102445 22.0247 46.713
vertex 42.0001 22.098 47.0181
endloop
endfacet
facet normal 0 0.97237 -0.233444
outer loop
vertex 42.0001 22.098 47.0181
vertex 0.000102445 22.0247 46.713
vertex 0.000102445 22.098 47.0181
endloop
endfacet
facet normal 0 0.92388 -0.382683
outer loop
vertex 42.0001 22.098 47.0181
vertex 0.000102445 22.098 47.0181
vertex 42.0001 22.2181 47.3081
endloop
endfacet
facet normal 0 0.92388 -0.382683
outer loop
vertex 42.0001 22.2181 47.3081
vertex 0.000102445 22.098 47.0181
vertex 0.000102445 22.2181 47.3081
endloop
endfacet
facet normal 0 0.852644 -0.522492
outer loop
vertex 42.0001 22.2181 47.3081
vertex 0.000102445 22.2181 47.3081
vertex 42.0001 22.3821 47.5757
endloop
endfacet
facet normal 0 0.852644 -0.522492
outer loop
vertex 42.0001 22.3821 47.5757
vertex 0.000102445 22.2181 47.3081
vertex 0.000102445 22.3821 47.5757
endloop
endfacet
facet normal 0 0.7604 -0.649455
outer loop
vertex 42.0001 22.3821 47.5757
vertex 0.000102445 22.3821 47.5757
vertex 42.0001 22.5859 47.8143
endloop
endfacet
facet normal 0 0.7604 -0.649455
outer loop
vertex 42.0001 22.5859 47.8143
vertex 0.000102445 22.3821 47.5757
vertex 0.000102445 22.5859 47.8143
endloop
endfacet
facet normal 0 0.649452 -0.760403
outer loop
vertex 42.0001 22.5859 47.8143
vertex 0.000102445 22.5859 47.8143
vertex 42.0001 22.8245 48.0181
endloop
endfacet
facet normal 0 0.649452 -0.760403
outer loop
vertex 42.0001 22.8245 48.0181
vertex 0.000102445 22.5859 47.8143
vertex 0.000102445 22.8245 48.0181
endloop
endfacet
facet normal 0 0.522497 -0.852641
outer loop
vertex 42.0001 22.8245 48.0181
vertex 0.000102445 22.8245 48.0181
vertex 42.0001 23.0921 48.1821
endloop
endfacet
facet normal 0 0.522497 -0.852641
outer loop
vertex 42.0001 23.0921 48.1821
vertex 0.000102445 22.8245 48.0181
vertex 0.000102445 23.0921 48.1821
endloop
endfacet
facet normal 0 0.38269 -0.923877
outer loop
vertex 42.0001 23.0921 48.1821
vertex 0.000102445 23.0921 48.1821
vertex 42.0001 23.3821 48.3022
endloop
endfacet
facet normal 0 0.38269 -0.923877
outer loop
vertex 42.0001 23.3821 48.3022
vertex 0.000102445 23.0921 48.1821
vertex 0.000102445 23.3821 48.3022
endloop
endfacet
facet normal 0 0.233437 -0.972372
outer loop
vertex 42.0001 23.3821 48.3022
vertex 0.000102445 23.3821 48.3022
vertex 42.0001 23.6872 48.3755
endloop
endfacet
facet normal 0 0.233437 -0.972372
outer loop
vertex 42.0001 23.6872 48.3755
vertex 0.000102445 23.3821 48.3022
vertex 0.000102445 23.6872 48.3755
endloop
endfacet
facet normal 0 0.0784606 -0.996917
outer loop
vertex 42.0001 23.6872 48.3755
vertex 0.000102445 23.6872 48.3755
vertex 42.0001 24.0001 48.4001
endloop
endfacet
facet normal 0 0.0784606 -0.996917
outer loop
vertex 42.0001 24.0001 48.4001
vertex 0.000102445 23.6872 48.3755
vertex 0.000102445 24.0001 48.4001
endloop
endfacet
facet normal 0 0 -1
outer loop
vertex 42.0001 42.4001 48.4001
vertex 30.1001 38.4001 48.4001
vertex 29.9692 39.938 48.4001
endloop
endfacet
facet normal 0 0 -1
outer loop
vertex 27.0122 45.2312 48.4001
vertex 25.7713 46.149 48.4001
vertex 32.0001 52.4001 48.4001
endloop
endfacet
facet normal 0 0 -1
outer loop
vertex 32.0001 52.4001 48.4001
vertex 25.7713 46.149 48.4001
vertex 24.3931 46.8439 48.4001
endloop
endfacet
facet normal 0 0 -1
outer loop
vertex 22.9173 29.5044 48.4001
vertex 24.3931 29.9563 48.4001
vertex 42.0001 24.0001 48.4001
endloop
endfacet
facet normal 0 0 -1
outer loop
vertex 18.3354 47.1012 48.4001
vertex 16.9032 46.5257 48.4001
vertex 10.0001 52.4001 48.4001
endloop
endfacet
facet normal 0 0 -1
outer loop
vertex 10.0001 52.4001 48.4001
vertex 16.9032 46.5257 48.4001
vertex 15.5889 45.7165 48.4001
endloop
endfacet
facet normal 0 0 -1
outer loop
vertex 24.3931 29.9563 48.4001
vertex 25.7713 30.6512 48.4001
vertex 42.0001 24.0001 48.4001
endloop
endfacet
facet normal 0 0 -1
outer loop
vertex 42.0001 24.0001 48.4001
vertex 25.7713 30.6512 48.4001
vertex 27.0122 31.569 48.4001
endloop
endfacet
facet normal 0 0 -1
outer loop
vertex 42.0001 24.0001 48.4001
vertex 27.0122 31.569 48.4001
vertex 28.0802 32.6833 48.4001
endloop
endfacet
facet normal 0 0 -1
outer loop
vertex 28.0802 32.6833 48.4001
vertex 28.9445 33.9621 48.4001
vertex 42.0001 24.0001 48.4001
endloop
endfacet
facet normal 0 0 -1
outer loop
vertex 42.0001 24.0001 48.4001
vertex 28.9445 33.9621 48.4001
vertex 29.5803 35.3685 48.4001
endloop
endfacet
facet normal 0 0 -1
outer loop
vertex 42.0001 24.0001 48.4001
vertex 29.5803 35.3685 48.4001
vertex 42.0001 42.4001 48.4001
endloop
endfacet
facet normal 0 0 -1
outer loop
vertex 42.0001 42.4001 48.4001
vertex 29.5803 35.3685 48.4001
vertex 29.9692 36.8622 48.4001
endloop
endfacet
facet normal 0 0 -1
outer loop
vertex 42.0001 42.4001 48.4001
vertex 29.9692 36.8622 48.4001
vertex 30.1001 38.4001 48.4001
endloop
endfacet
facet normal 0 0 -1
outer loop
vertex 15.5889 45.7165 48.4001
vertex 14.4303 44.6967 48.4001
vertex 10.0001 52.4001 48.4001
endloop
endfacet
facet normal 0 0 -1
outer loop
vertex 10.0001 52.4001 48.4001
vertex 14.4303 44.6967 48.4001
vertex 13.4607 43.4959 48.4001
endloop
endfacet
facet normal 0 0 -1
outer loop
vertex 10.0001 52.4001 48.4001
vertex 13.4607 43.4959 48.4001
vertex 0.000102445 42.4001 48.4001
endloop
endfacet
facet normal 0 0 -1
outer loop
vertex 0.000102445 42.4001 48.4001
vertex 13.4607 43.4959 48.4001
vertex 12.7079 42.1484 48.4001
endloop
endfacet
facet normal 0 0 -1
outer loop
vertex 0.000102445 42.4001 48.4001
vertex 12.7079 42.1484 48.4001
vertex 12.1937 40.6931 48.4001
endloop
endfacet
facet normal 0 0 -1
outer loop
vertex 0.000102445 24.0001 48.4001
vertex 12.7079 34.6518 48.4001
vertex 13.4607 33.3043 48.4001
endloop
endfacet
facet normal 0 0 -1
outer loop
vertex 13.4607 33.3043 48.4001
vertex 14.4303 32.1035 48.4001
vertex 0.000102445 24.0001 48.4001
endloop
endfacet
facet normal 0 0 -1
outer loop
vertex 0.000102445 24.0001 48.4001
vertex 14.4303 32.1035 48.4001
vertex 15.5889 31.0837 48.4001
endloop
endfacet
facet normal 0 0 -1
outer loop
vertex 0.000102445 24.0001 48.4001
vertex 15.5889 31.0837 48.4001
vertex 16.9032 30.2745 48.4001
endloop
endfacet
facet normal 0 0 -1
outer loop
vertex 16.9032 30.2745 48.4001
vertex 18.3354 29.699 48.4001
vertex 0.000102445 24.0001 48.4001
endloop
endfacet
facet normal 0 0 -1
outer loop
vertex 0.000102445 24.0001 48.4001
vertex 18.3354 29.699 48.4001
vertex 19.8442 29.3738 48.4001
endloop
endfacet
facet normal 0 0 -1
outer loop
vertex 0.000102445 24.0001 48.4001
vertex 19.8442 29.3738 48.4001
vertex 42.0001 24.0001 48.4001
endloop
endfacet
facet normal 0 0 -1
outer loop
vertex 42.0001 24.0001 48.4001
vertex 19.8442 29.3738 48.4001
vertex 21.3863 29.3083 48.4001
endloop
endfacet
facet normal 0 0 -1
outer loop
vertex 42.0001 24.0001 48.4001
vertex 21.3863 29.3083 48.4001
vertex 22.9173 29.5044 48.4001
endloop
endfacet
facet normal 0 0 -1
outer loop
vertex 29.9692 39.938 48.4001
vertex 29.5803 41.4317 48.4001
vertex 42.0001 42.4001 48.4001
endloop
endfacet
facet normal 0 0 -1
outer loop
vertex 42.0001 42.4001 48.4001
vertex 29.5803 41.4317 48.4001
vertex 28.9445 42.8381 48.4001
endloop
endfacet
facet normal 0 0 -1
outer loop
vertex 42.0001 42.4001 48.4001
vertex 28.9445 42.8381 48.4001
vertex 32.0001 52.4001 48.4001
endloop
endfacet
facet normal 0 0 -1
outer loop
vertex 32.0001 52.4001 48.4001
vertex 28.9445 42.8381 48.4001
vertex 28.0802 44.1169 48.4001
endloop
endfacet
facet normal 0 0 -1
outer loop
vertex 32.0001 52.4001 48.4001
vertex 28.0802 44.1169 48.4001
vertex 27.0122 45.2312 48.4001
endloop
endfacet
facet normal 0 0 -1
outer loop
vertex 12.1937 40.6931 48.4001
vertex 11.9329 39.1718 48.4001
vertex 0.000102445 42.4001 48.4001
endloop
endfacet
facet normal 0 0 -1
outer loop
vertex 0.000102445 42.4001 48.4001
vertex 11.9329 39.1718 48.4001
vertex 11.9329 37.6284 48.4001
endloop
endfacet
facet normal 0 0 -1
outer loop
vertex 0.000102445 42.4001 48.4001
vertex 11.9329 37.6284 48.4001
vertex 0.000102445 24.0001 48.4001
endloop
endfacet
facet normal 0 0 -1
outer loop
vertex 0.000102445 24.0001 48.4001
vertex 11.9329 37.6284 48.4001
vertex 12.1937 36.1071 48.4001
endloop
endfacet
facet normal 0 0 -1
outer loop
vertex 0.000102445 24.0001 48.4001
vertex 12.1937 36.1071 48.4001
vertex 12.7079 34.6518 48.4001
endloop
endfacet
facet normal 0 0 -1
outer loop
vertex 24.3931 46.8439 48.4001
vertex 22.9173 47.2959 48.4001
vertex 32.0001 52.4001 48.4001
endloop
endfacet
facet normal 0 0 -1
outer loop
vertex 32.0001 52.4001 48.4001
vertex 22.9173 47.2959 48.4001
vertex 21.3863 47.4919 48.4001
endloop
endfacet
facet normal 0 0 -1
outer loop
vertex 32.0001 52.4001 48.4001
vertex 21.3863 47.4919 48.4001
vertex 10.0001 52.4001 48.4001
endloop
endfacet
facet normal 0 0 -1
outer loop
vertex 10.0001 52.4001 48.4001
vertex 21.3863 47.4919 48.4001
vertex 19.8442 47.4264 48.4001
endloop
endfacet
facet normal 0 0 -1
outer loop
vertex 10.0001 52.4001 48.4001
vertex 19.8442 47.4264 48.4001
vertex 18.3354 47.1012 48.4001
endloop
endfacet
facet normal 0 0 1
outer loop
vertex 2.81123 11.7184 1.6001
vertex 2.99287 12.4159 1.6001
vertex 0.000102445 18.4001 1.6001
endloop
endfacet
facet normal 0 0 1
outer loop
vertex 42.0001 0.000103377 1.6001
vertex 38.0684 8.05936 1.6001
vertex 37.5273 7.58312 1.6001
endloop
endfacet
facet normal 0 0 1
outer loop
vertex 37.5273 7.58312 1.6001
vertex 36.9135 7.20517 1.6001
vertex 42.0001 0.000103377 1.6001
endloop
endfacet
facet normal 0 0 1
outer loop
vertex 42.0001 0.000103377 1.6001
vertex 36.9135 7.20517 1.6001
vertex 36.2446 6.93639 1.6001
endloop
endfacet
facet normal 0 0 1
outer loop
vertex 42.0001 0.000103377 1.6001
vertex 36.2446 6.93639 1.6001
vertex 35.5399 6.78453 1.6001
endloop
endfacet
facet normal 0 0 1
outer loop
vertex 30.8112 10.2818 1.6001
vertex 30.7501 11.0001 1.6001
vertex 0.000102445 0.000103377 1.6001
endloop
endfacet
facet normal 0 0 1
outer loop
vertex 36.9135 14.795 1.6001
vertex 42.0001 18.4001 1.6001
vertex 36.2446 15.0638 1.6001
endloop
endfacet
facet normal 0 0 1
outer loop
vertex 36.2446 15.0638 1.6001
vertex 42.0001 18.4001 1.6001
vertex 35.5399 15.2157 1.6001
endloop
endfacet
facet normal 0 0 1
outer loop
vertex 36.9135 14.795 1.6001
vertex 37.5273 14.4171 1.6001
vertex 42.0001 18.4001 1.6001
endloop
endfacet
facet normal 0 0 1
outer loop
vertex 42.0001 18.4001 1.6001
vertex 37.5273 14.4171 1.6001
vertex 38.0684 13.9408 1.6001
endloop
endfacet
facet normal 0 0 1
outer loop
vertex 42.0001 18.4001 1.6001
vertex 38.0684 13.9408 1.6001
vertex 38.5213 13.38 1.6001
endloop
endfacet
facet normal 0 0 1
outer loop
vertex 42.0001 18.4001 1.6001
vertex 39.2348 11.3605 1.6001
vertex 42.0001 0.000103377 1.6001
endloop
endfacet
facet normal 0 0 1
outer loop
vertex 42.0001 0.000103377 1.6001
vertex 39.2348 11.3605 1.6001
vertex 39.2348 10.6397 1.6001
endloop
endfacet
facet normal 0 0 1
outer loop
vertex 42.0001 0.000103377 1.6001
vertex 39.2348 10.6397 1.6001
vertex 39.113 9.9292 1.6001
endloop
endfacet
facet normal 0 0 1
outer loop
vertex 39.113 9.9292 1.6001
vertex 38.8728 9.24952 1.6001
vertex 42.0001 0.000103377 1.6001
endloop
endfacet
facet normal 0 0 1
outer loop
vertex 42.0001 0.000103377 1.6001
vertex 38.8728 9.24952 1.6001
vertex 38.5213 8.62021 1.6001
endloop
endfacet
facet normal 0 0 1
outer loop
vertex 42.0001 0.000103377 1.6001
vertex 38.5213 8.62021 1.6001
vertex 38.0684 8.05936 1.6001
endloop
endfacet
facet normal 0 0 1
outer loop
vertex 38.5213 13.38 1.6001
vertex 38.8728 12.7507 1.6001
vertex 42.0001 18.4001 1.6001
endloop
endfacet
facet normal 0 0 1
outer loop
vertex 42.0001 18.4001 1.6001
vertex 38.8728 12.7507 1.6001
vertex 39.113 12.071 1.6001
endloop
endfacet
facet normal 0 0 1
outer loop
vertex 42.0001 18.4001 1.6001
vertex 39.113 12.071 1.6001
vertex 39.2348 11.3605 1.6001
endloop
endfacet
facet normal 0 0 1
outer loop
vertex 33.4155 7.05657 1.6001
vertex 0.000102445 0.000103377 1.6001
vertex 34.1047 6.84549 1.6001
endloop
endfacet
facet normal 0 0 1
outer loop
vertex 34.1047 6.84549 1.6001
vertex 0.000102445 0.000103377 1.6001
vertex 42.0001 0.000103377 1.6001
endloop
endfacet
facet normal 0 0 1
outer loop
vertex 34.1047 6.84549 1.6001
vertex 42.0001 0.000103377 1.6001
vertex 34.8197 6.75393 1.6001
endloop
endfacet
facet normal 0 0 1
outer loop
vertex 34.8197 6.75393 1.6001
vertex 42.0001 0.000103377 1.6001
vertex 35.5399 6.78453 1.6001
endloop
endfacet
facet normal 0 0 1
outer loop
vertex 33.4155 7.05657 1.6001
vertex 32.7718 7.3811 1.6001
vertex 0.000102445 0.000103377 1.6001
endloop
endfacet
facet normal 0 0 1
outer loop
vertex 0.000102445 0.000103377 1.6001
vertex 32.7718 7.3811 1.6001
vertex 32.1922 7.80975 1.6001
endloop
endfacet
facet normal 0 0 1
outer loop
vertex 0.000102445 0.000103377 1.6001
vertex 32.1922 7.80975 1.6001
vertex 31.6935 8.33017 1.6001
endloop
endfacet
facet normal 0 0 1
outer loop
vertex 2.99287 12.4159 1.6001
vertex 3.28979 13.0728 1.6001
vertex 0.000102445 18.4001 1.6001
endloop
endfacet
facet normal 0 0 1
outer loop
vertex 0.000102445 18.4001 1.6001
vertex 3.28979 13.0728 1.6001
vertex 3.69345 13.67 1.6001
endloop
endfacet
facet normal 0 0 1
outer loop
vertex 0.000102445 18.4001 1.6001
vertex 3.69345 13.67 1.6001
vertex 4.19223 14.1905 1.6001
endloop
endfacet
facet normal 0 0 1
outer loop
vertex 31.6935 13.67 1.6001
vertex 11.113 12.071 1.6001
vertex 31.2898 13.0728 1.6001
endloop
endfacet
facet normal 0 0 1
outer loop
vertex 31.2898 13.0728 1.6001
vertex 11.113 12.071 1.6001
vertex 11.2348 11.3605 1.6001
endloop
endfacet
facet normal 0 0 1
outer loop
vertex 31.2898 13.0728 1.6001
vertex 11.2348 11.3605 1.6001
vertex 30.9929 12.4159 1.6001
endloop
endfacet
facet normal 0 0 1
outer loop
vertex 31.6935 13.67 1.6001
vertex 32.1922 14.1905 1.6001
vertex 0.000102445 18.4001 1.6001
endloop
endfacet
facet normal 0 0 1
outer loop
vertex 0.000102445 18.4001 1.6001
vertex 32.1922 14.1905 1.6001
vertex 32.7718 14.6191 1.6001
endloop
endfacet
facet normal 0 0 1
outer loop
vertex 31.6935 8.33017 1.6001
vertex 31.2898 8.9274 1.6001
vertex 0.000102445 0.000103377 1.6001
endloop
endfacet
facet normal 0 0 1
outer loop
vertex 0.000102445 0.000103377 1.6001
vertex 31.2898 8.9274 1.6001
vertex 30.9929 9.58426 1.6001
endloop
endfacet
facet normal 0 0 1
outer loop
vertex 0.000102445 0.000103377 1.6001
vertex 30.9929 9.58426 1.6001
vertex 30.8112 10.2818 1.6001
endloop
endfacet
facet normal 0 0 1
outer loop
vertex 30.7501 11.0001 1.6001
vertex 11.2348 10.6397 1.6001
vertex 11.113 9.9292 1.6001
endloop
endfacet
facet normal 0 0 1
outer loop
vertex 0.000102445 0.000103377 1.6001
vertex 5.41546 7.05657 1.6001
vertex 4.7718 7.3811 1.6001
endloop
endfacet
facet normal 0 0 1
outer loop
vertex 3.28979 8.9274 1.6001
vertex 2.99287 9.58426 1.6001
vertex 0.000102445 0.000103377 1.6001
endloop
endfacet
facet normal 0 0 1
outer loop
vertex 0.000102445 0.000103377 1.6001
vertex 2.99287 9.58426 1.6001
vertex 2.81123 10.2818 1.6001
endloop
endfacet
facet normal 0 0 1
outer loop
vertex 0.000102445 0.000103377 1.6001
vertex 2.81123 10.2818 1.6001
vertex 0.000102445 18.4001 1.6001
endloop
endfacet
facet normal 0 0 1
outer loop
vertex 0.000102445 18.4001 1.6001
vertex 2.81123 10.2818 1.6001
vertex 2.7501 11.0001 1.6001
endloop
endfacet
facet normal 0 0 1
outer loop
vertex 0.000102445 18.4001 1.6001
vertex 2.7501 11.0001 1.6001
vertex 2.81123 11.7184 1.6001
endloop
endfacet
facet normal 0 0 1
outer loop
vertex 4.19223 14.1905 1.6001
vertex 4.7718 14.6191 1.6001
vertex 0.000102445 18.4001 1.6001
endloop
endfacet
facet normal 0 0 1
outer loop
vertex 0.000102445 18.4001 1.6001
vertex 4.7718 14.6191 1.6001
vertex 5.41546 14.9436 1.6001
endloop
endfacet
facet normal 0 0 1
outer loop
vertex 0.000102445 18.4001 1.6001
vertex 5.41546 14.9436 1.6001
vertex 6.10472 15.1547 1.6001
endloop
endfacet
facet normal 0 0 1
outer loop
vertex 8.91347 14.795 1.6001
vertex 9.52729 14.4171 1.6001
vertex 31.6935 13.67 1.6001
endloop
endfacet
facet normal 0 0 1
outer loop
vertex 31.6935 13.67 1.6001
vertex 9.52729 14.4171 1.6001
vertex 10.0684 13.9408 1.6001
endloop
endfacet
facet normal 0 0 1
outer loop
vertex 32.7718 14.6191 1.6001
vertex 33.4155 14.9436 1.6001
vertex 0.000102445 18.4001 1.6001
endloop
endfacet
facet normal 0 0 1
outer loop
vertex 0.000102445 18.4001 1.6001
vertex 33.4155 14.9436 1.6001
vertex 34.1047 15.1547 1.6001
endloop
endfacet
facet normal 0 0 1
outer loop
vertex 0.000102445 18.4001 1.6001
vertex 34.1047 15.1547 1.6001
vertex 42.0001 18.4001 1.6001
endloop
endfacet
facet normal 0 0 1
outer loop
vertex 42.0001 18.4001 1.6001
vertex 34.1047 15.1547 1.6001
vertex 34.8197 15.2463 1.6001
endloop
endfacet
facet normal 0 0 1
outer loop
vertex 42.0001 18.4001 1.6001
vertex 34.8197 15.2463 1.6001
vertex 35.5399 15.2157 1.6001
endloop
endfacet
facet normal 0 0 1
outer loop
vertex 11.2348 10.6397 1.6001
vertex 30.7501 11.0001 1.6001
vertex 11.2348 11.3605 1.6001
endloop
endfacet
facet normal 0 0 1
outer loop
vertex 11.2348 11.3605 1.6001
vertex 30.7501 11.0001 1.6001
vertex 30.8112 11.7184 1.6001
endloop
endfacet
facet normal 0 0 1
outer loop
vertex 11.2348 11.3605 1.6001
vertex 30.8112 11.7184 1.6001
vertex 30.9929 12.4159 1.6001
endloop
endfacet
facet normal 0 0 1
outer loop
vertex 11.113 9.9292 1.6001
vertex 10.8728 9.24952 1.6001
vertex 30.7501 11.0001 1.6001
endloop
endfacet
facet normal 0 0 1
outer loop
vertex 30.7501 11.0001 1.6001
vertex 10.8728 9.24952 1.6001
vertex 10.5213 8.62021 1.6001
endloop
endfacet
facet normal 0 0 1
outer loop
vertex 30.7501 11.0001 1.6001
vertex 10.5213 8.62021 1.6001
vertex 10.0684 8.05936 1.6001
endloop
endfacet
facet normal 0 0 1
outer loop
vertex 6.10472 15.1547 1.6001
vertex 6.81973 15.2463 1.6001
vertex 0.000102445 18.4001 1.6001
endloop
endfacet
facet normal 0 0 1
outer loop
vertex 0.000102445 18.4001 1.6001
vertex 6.81973 15.2463 1.6001
vertex 7.53993 15.2157 1.6001
endloop
endfacet
facet normal 0 0 1
outer loop
vertex 0.000102445 18.4001 1.6001
vertex 7.53993 15.2157 1.6001
vertex 31.6935 13.67 1.6001
endloop
endfacet
facet normal 0 0 1
outer loop
vertex 31.6935 13.67 1.6001
vertex 7.53993 15.2157 1.6001
vertex 8.2446 15.0638 1.6001
endloop
endfacet
facet normal 0 0 1
outer loop
vertex 31.6935 13.67 1.6001
vertex 8.2446 15.0638 1.6001
vertex 8.91347 14.795 1.6001
endloop
endfacet
facet normal 0 0 1
outer loop
vertex 10.0684 13.9408 1.6001
vertex 10.5213 13.38 1.6001
vertex 31.6935 13.67 1.6001
endloop
endfacet
facet normal 0 0 1
outer loop
vertex 31.6935 13.67 1.6001
vertex 10.5213 13.38 1.6001
vertex 10.8728 12.7507 1.6001
endloop
endfacet
facet normal 0 0 1
outer loop
vertex 31.6935 13.67 1.6001
vertex 10.8728 12.7507 1.6001
vertex 11.113 12.071 1.6001
endloop
endfacet
facet normal 0 0 1
outer loop
vertex 4.7718 7.3811 1.6001
vertex 4.19223 7.80975 1.6001
vertex 0.000102445 0.000103377 1.6001
endloop
endfacet
facet normal 0 0 1
outer loop
vertex 0.000102445 0.000103377 1.6001
vertex 4.19223 7.80975 1.6001
vertex 3.69345 8.33017 1.6001
endloop
endfacet
facet normal 0 0 1
outer loop
vertex 0.000102445 0.000103377 1.6001
vertex 3.69345 8.33017 1.6001
vertex 3.28979 8.9274 1.6001
endloop
endfacet
facet normal 0 0 1
outer loop
vertex 10.0684 8.05936 1.6001
vertex 9.52729 7.58312 1.6001
vertex 30.7501 11.0001 1.6001
endloop
endfacet
facet normal 0 0 1
outer loop
vertex 30.7501 11.0001 1.6001
vertex 9.52729 7.58312 1.6001
vertex 8.91347 7.20517 1.6001
endloop
endfacet
facet normal 0 0 1
outer loop
vertex 30.7501 11.0001 1.6001
vertex 8.91347 7.20517 1.6001
vertex 0.000102445 0.000103377 1.6001
endloop
endfacet
facet normal 0 0 1
outer loop
vertex 0.000102445 0.000103377 1.6001
vertex 8.91347 7.20517 1.6001
vertex 8.2446 6.93639 1.6001
endloop
endfacet
facet normal 0 0 1
outer loop
vertex 0.000102445 0.000103377 1.6001
vertex 8.2446 6.93639 1.6001
vertex 7.53993 6.78453 1.6001
endloop
endfacet
facet normal 0 0 1
outer loop
vertex 7.53993 6.78453 1.6001
vertex 6.81973 6.75393 1.6001
vertex 0.000102445 0.000103377 1.6001
endloop
endfacet
facet normal 0 0 1
outer loop
vertex 0.000102445 0.000103377 1.6001
vertex 6.81973 6.75393 1.6001
vertex 6.10472 6.84549 1.6001
endloop
endfacet
facet normal 0 0 1
outer loop
vertex 0.000102445 0.000103377 1.6001
vertex 6.10472 6.84549 1.6001
vertex 5.41546 7.05657 1.6001
endloop
endfacet
facet normal 1 0 0
outer loop
vertex 42.0001 42.4001 48.4001
vertex 42.0001 42.4001 50.0001
vertex 42.0001 24.0001 48.4001
endloop
endfacet
facet normal 1 0 0
outer loop
vertex 42.0001 24.0001 48.4001
vertex 42.0001 42.4001 50.0001
vertex 42.0001 24.0001 50.0001
endloop
endfacet
facet normal 1 0 0
outer loop
vertex 42.0001 24.0001 48.4001
vertex 42.0001 24.0001 50.0001
vertex 42.0001 23.6872 48.3755
endloop
endfacet
facet normal 1 0 0
outer loop
vertex 42.0001 23.6872 48.3755
vertex 42.0001 24.0001 50.0001
vertex 42.0001 23.4369 49.9558
endloop
endfacet
facet normal 1 0 0
outer loop
vertex 42.0001 23.6872 48.3755
vertex 42.0001 23.4369 49.9558
vertex 42.0001 23.3821 48.3022
endloop
endfacet
facet normal 1 0 0
outer loop
vertex 42.0001 23.3821 48.3022
vertex 42.0001 23.4369 49.9558
vertex 42.0001 22.8876 49.8239
endloop
endfacet
facet normal 1 0 0
outer loop
vertex 42.0001 23.3821 48.3022
vertex 42.0001 22.8876 49.8239
vertex 42.0001 23.0921 48.1821
endloop
endfacet
facet normal 1 0 0
outer loop
vertex 42.0001 23.0921 48.1821
vertex 42.0001 22.8876 49.8239
vertex 42.0001 22.3657 49.6077
endloop
endfacet
facet normal 1 0 0
outer loop
vertex 42.0001 23.0921 48.1821
vertex 42.0001 22.3657 49.6077
vertex 42.0001 22.8245 48.0181
endloop
endfacet
facet normal 1 0 0
outer loop
vertex 42.0001 22.8245 48.0181
vertex 42.0001 22.3657 49.6077
vertex 42.0001 21.8841 49.3126
endloop
endfacet
facet normal 1 0 0
outer loop
vertex 42.0001 22.8245 48.0181
vertex 42.0001 21.8841 49.3126
vertex 42.0001 22.5859 47.8143
endloop
endfacet
facet normal 1 0 0
outer loop
vertex 42.0001 22.5859 47.8143
vertex 42.0001 21.8841 49.3126
vertex 42.0001 21.4545 48.9457
endloop
endfacet
facet normal 1 0 0
outer loop
vertex 42.0001 22.5859 47.8143
vertex 42.0001 21.4545 48.9457
vertex 42.0001 22.3821 47.5757
endloop
endfacet
facet normal 1 0 0
outer loop
vertex 42.0001 22.3821 47.5757
vertex 42.0001 21.4545 48.9457
vertex 42.0001 21.0876 48.5161
endloop
endfacet
facet normal 1 0 0
outer loop
vertex 42.0001 22.3821 47.5757
vertex 42.0001 21.0876 48.5161
vertex 42.0001 22.2181 47.3081
endloop
endfacet
facet normal 1 0 0
outer loop
vertex 42.0001 22.2181 47.3081
vertex 42.0001 21.0876 48.5161
vertex 42.0001 20.7925 48.0345
endloop
endfacet
facet normal 1 0 0
outer loop
vertex 42.0001 22.2181 47.3081
vertex 42.0001 20.7925 48.0345
vertex 42.0001 22.098 47.0181
endloop
endfacet
facet normal 1 0 0
outer loop
vertex 42.0001 22.098 47.0181
vertex 42.0001 20.7925 48.0345
vertex 42.0001 20.5763 47.5126
endloop
endfacet
facet normal 1 0 0
outer loop
vertex 42.0001 22.098 47.0181
vertex 42.0001 20.5763 47.5126
vertex 42.0001 22.0247 46.713
endloop
endfacet
facet normal 1 0 0
outer loop
vertex 42.0001 22.0247 46.713
vertex 42.0001 20.5763 47.5126
vertex 42.0001 20.4444 46.9633
endloop
endfacet
facet normal 1 0 0
outer loop
vertex 42.0001 22.0247 46.713
vertex 42.0001 20.4444 46.9633
vertex 42.0001 22.0001 46.4001
endloop
endfacet
facet normal 1 0 0
outer loop
vertex 42.0001 22.0001 46.4001
vertex 42.0001 20.4444 46.9633
vertex 42.0001 20.4001 46.4001
endloop
endfacet
facet normal 1 0 0
outer loop
vertex 42.0001 22.0001 46.4001
vertex 42.0001 20.4001 46.4001
vertex 42.0001 22.0001 3.6001
endloop
endfacet
facet normal 1 0 0
outer loop
vertex 42.0001 22.0001 3.6001
vertex 42.0001 20.4001 46.4001
vertex 42.0001 20.4001 3.6001
endloop
endfacet
facet normal 1 0 0
outer loop
vertex 42.0001 22.0001 3.6001
vertex 42.0001 20.4001 3.6001
vertex 42.0001 21.9558 3.03694
endloop
endfacet
facet normal 1 0 0
outer loop
vertex 42.0001 21.9558 3.03694
vertex 42.0001 20.4001 3.6001
vertex 42.0001 20.3755 3.28723
endloop
endfacet
facet normal 1 0 0
outer loop
vertex 42.0001 21.9558 3.03694
vertex 42.0001 20.3755 3.28723
vertex 42.0001 21.8239 2.48764
endloop
endfacet
facet normal 1 0 0
outer loop
vertex 42.0001 21.8239 2.48764
vertex 42.0001 20.3755 3.28723
vertex 42.0001 20.3022 2.98207
endloop
endfacet
facet normal 1 0 0
outer loop
vertex 42.0001 21.8239 2.48764
vertex 42.0001 20.3022 2.98207
vertex 42.0001 21.6077 1.96574
endloop
endfacet
facet normal 1 0 0
outer loop
vertex 42.0001 21.6077 1.96574
vertex 42.0001 20.3022 2.98207
vertex 42.0001 20.1821 2.69212
endloop
endfacet
facet normal 1 0 0
outer loop
vertex 42.0001 21.6077 1.96574
vertex 42.0001 20.1821 2.69212
vertex 42.0001 21.3126 1.48408
endloop
endfacet
facet normal 1 0 0
outer loop
vertex 42.0001 21.3126 1.48408
vertex 42.0001 20.1821 2.69212
vertex 42.0001 20.0181 2.42453
endloop
endfacet
facet normal 1 0 0
outer loop
vertex 42.0001 21.3126 1.48408
vertex 42.0001 20.0181 2.42453
vertex 42.0001 20.9457 1.05452
endloop
endfacet
facet normal 1 0 0
outer loop
vertex 42.0001 20.9457 1.05452
vertex 42.0001 20.0181 2.42453
vertex 42.0001 19.8143 2.18589
endloop
endfacet
facet normal 1 0 0
outer loop
vertex 42.0001 20.9457 1.05452
vertex 42.0001 19.8143 2.18589
vertex 42.0001 20.5161 0.687642
endloop
endfacet
facet normal 1 0 0
outer loop
vertex 42.0001 20.5161 0.687642
vertex 42.0001 19.8143 2.18589
vertex 42.0001 19.5757 1.98207
endloop
endfacet
facet normal 1 0 0
outer loop
vertex 42.0001 20.5161 0.687642
vertex 42.0001 19.5757 1.98207
vertex 42.0001 20.0345 0.39248
endloop
endfacet
facet normal 1 0 0
outer loop
vertex 42.0001 20.0345 0.39248
vertex 42.0001 19.5757 1.98207
vertex 42.0001 19.3081 1.81809
endloop
endfacet
facet normal 1 0 0
outer loop
vertex 42.0001 20.0345 0.39248
vertex 42.0001 19.3081 1.81809
vertex 42.0001 19.5126 0.1763
endloop
endfacet
facet normal 1 0 0
outer loop
vertex 42.0001 19.5126 0.1763
vertex 42.0001 19.3081 1.81809
vertex 42.0001 19.0181 1.69799
endloop
endfacet
facet normal 1 0 0
outer loop
vertex 42.0001 19.5126 0.1763
vertex 42.0001 19.0181 1.69799
vertex 42.0001 18.9633 0.0444251
endloop
endfacet
facet normal 1 0 0
outer loop
vertex 42.0001 18.9633 0.0444251
vertex 42.0001 19.0181 1.69799
vertex 42.0001 18.713 1.62473
endloop
endfacet
facet normal 1 0 0
outer loop
vertex 42.0001 18.9633 0.0444251
vertex 42.0001 18.713 1.62473
vertex 42.0001 18.4001 0.000103078
endloop
endfacet
facet normal 1 0 0
outer loop
vertex 42.0001 18.4001 0.000103078
vertex 42.0001 18.713 1.62473
vertex 42.0001 18.4001 1.6001
endloop
endfacet
facet normal 1 0 0
outer loop
vertex 42.0001 18.4001 0.000103078
vertex 42.0001 18.4001 1.6001
vertex 42.0001 0.000103377 0.000103078
endloop
endfacet
facet normal 1 0 0
outer loop
vertex 42.0001 0.000103377 0.000103078
vertex 42.0001 18.4001 1.6001
vertex 42.0001 0.000103377 1.6001
endloop
endfacet
facet normal 0 -0.996917 0.0784642
outer loop
vertex 0.000102445 20.4001 46.4001
vertex 42.0001 20.4001 46.4001
vertex 0.000102445 20.4444 46.9633
endloop
endfacet
facet normal 0 -0.996917 0.0784642
outer loop
vertex 0.000102445 20.4444 46.9633
vertex 42.0001 20.4001 46.4001
vertex 42.0001 20.4444 46.9633
endloop
endfacet
facet normal 0 -0.972371 0.233441
outer loop
vertex 0.000102445 20.4444 46.9633
vertex 42.0001 20.4444 46.9633
vertex 0.000102445 20.5763 47.5126
endloop
endfacet
facet normal 0 -0.972371 0.233441
outer loop
vertex 0.000102445 20.5763 47.5126
vertex 42.0001 20.4444 46.9633
vertex 42.0001 20.5763 47.5126
endloop
endfacet
facet normal 0 -0.923879 0.382685
outer loop
vertex 0.000102445 20.5763 47.5126
vertex 42.0001 20.5763 47.5126
vertex 0.000102445 20.7925 48.0345
endloop
endfacet
facet normal 0 -0.923879 0.382685
outer loop
vertex 0.000102445 20.7925 48.0345
vertex 42.0001 20.5763 47.5126
vertex 42.0001 20.7925 48.0345
endloop
endfacet
facet normal 0 -0.852641 0.522497
outer loop
vertex 0.000102445 20.7925 48.0345
vertex 42.0001 20.7925 48.0345
vertex 0.000102445 21.0876 48.5161
endloop
endfacet
facet normal 0 -0.852641 0.522497
outer loop
vertex 0.000102445 21.0876 48.5161
vertex 42.0001 20.7925 48.0345
vertex 42.0001 21.0876 48.5161
endloop
endfacet
facet normal 0 -0.760403 0.649451
outer loop
vertex 0.000102445 21.0876 48.5161
vertex 42.0001 21.0876 48.5161
vertex 0.000102445 21.4545 48.9457
endloop
endfacet
facet normal 0 -0.760403 0.649451
outer loop
vertex 0.000102445 21.4545 48.9457
vertex 42.0001 21.0876 48.5161
vertex 42.0001 21.4545 48.9457
endloop
endfacet
facet normal 0 -0.64945 0.760405
outer loop
vertex 0.000102445 21.4545 48.9457
vertex 42.0001 21.4545 48.9457
vertex 0.000102445 21.8841 49.3126
endloop
endfacet
facet normal 0 -0.64945 0.760405
outer loop
vertex 0.000102445 21.8841 49.3126
vertex 42.0001 21.4545 48.9457
vertex 42.0001 21.8841 49.3126
endloop
endfacet
facet normal 0 -0.522499 0.85264
outer loop
vertex 0.000102445 21.8841 49.3126
vertex 42.0001 21.8841 49.3126
vertex 0.000102445 22.3657 49.6077
endloop
endfacet
facet normal 0 -0.522499 0.85264
outer loop
vertex 0.000102445 22.3657 49.6077
vertex 42.0001 21.8841 49.3126
vertex 42.0001 22.3657 49.6077
endloop
endfacet
facet normal 0 -0.382681 0.923881
outer loop
vertex 0.000102445 22.3657 49.6077
vertex 42.0001 22.3657 49.6077
vertex 0.000102445 22.8876 49.8239
endloop
endfacet
facet normal 0 -0.382681 0.923881
outer loop
vertex 0.000102445 22.8876 49.8239
vertex 42.0001 22.3657 49.6077
vertex 42.0001 22.8876 49.8239
endloop
endfacet
facet normal 0 -0.233445 0.97237
outer loop
vertex 0.000102445 22.8876 49.8239
vertex 42.0001 22.8876 49.8239
vertex 0.000102445 23.4369 49.9558
endloop
endfacet
facet normal 0 -0.233445 0.97237
outer loop
vertex 0.000102445 23.4369 49.9558
vertex 42.0001 22.8876 49.8239
vertex 42.0001 23.4369 49.9558
endloop
endfacet
facet normal 0 -0.0784673 0.996917
outer loop
vertex 0.000102445 23.4369 49.9558
vertex 42.0001 23.4369 49.9558
vertex 0.000102445 24.0001 50.0001
endloop
endfacet
facet normal 0 -0.0784673 0.996917
outer loop
vertex 0.000102445 24.0001 50.0001
vertex 42.0001 23.4369 49.9558
vertex 42.0001 24.0001 50.0001
endloop
endfacet
facet normal -1 0 0
outer loop
vertex 0.000102445 0.000103377 0.000103078
vertex 0.000102445 0.000103377 1.6001
vertex 0.000102445 18.4001 0.000103078
endloop
endfacet
facet normal -1 0 0
outer loop
vertex 0.000102445 18.4001 0.000103078
vertex 0.000102445 0.000103377 1.6001
vertex 0.000102445 18.4001 1.6001
endloop
endfacet
facet normal -1 0 0
outer loop
vertex 0.000102445 18.4001 0.000103078
vertex 0.000102445 18.4001 1.6001
vertex 0.000102445 18.9633 0.0444251
endloop
endfacet
facet normal -1 0 0
outer loop
vertex 0.000102445 18.9633 0.0444251
vertex 0.000102445 18.4001 1.6001
vertex 0.000102445 18.713 1.62473
endloop
endfacet
facet normal -1 0 0
outer loop
vertex 0.000102445 18.9633 0.0444251
vertex 0.000102445 18.713 1.62473
vertex 0.000102445 19.5126 0.1763
endloop
endfacet
facet normal -1 0 0
outer loop
vertex 0.000102445 19.5126 0.1763
vertex 0.000102445 18.713 1.62473
vertex 0.000102445 19.0181 1.69799
endloop
endfacet
facet normal -1 0 0
outer loop
vertex 0.000102445 19.5126 0.1763
vertex 0.000102445 19.0181 1.69799
vertex 0.000102445 20.0345 0.39248
endloop
endfacet
facet normal -1 0 0
outer loop
vertex 0.000102445 20.0345 0.39248
vertex 0.000102445 19.0181 1.69799
vertex 0.000102445 19.3081 1.81809
endloop
endfacet
facet normal -1 0 0
outer loop
vertex 0.000102445 20.0345 0.39248
vertex 0.000102445 19.3081 1.81809
vertex 0.000102445 20.5161 0.687642
endloop
endfacet
facet normal -1 0 0
outer loop
vertex 0.000102445 20.5161 0.687642
vertex 0.000102445 19.3081 1.81809
vertex 0.000102445 19.5757 1.98207
endloop
endfacet
facet normal -1 0 0
outer loop
vertex 0.000102445 20.5161 0.687642
vertex 0.000102445 19.5757 1.98207
vertex 0.000102445 20.9457 1.05452
endloop
endfacet
facet normal -1 0 0
outer loop
vertex 0.000102445 20.9457 1.05452
vertex 0.000102445 19.5757 1.98207
vertex 0.000102445 19.8143 2.18589
endloop
endfacet
facet normal -1 0 0
outer loop
vertex 0.000102445 20.9457 1.05452
vertex 0.000102445 19.8143 2.18589
vertex 0.000102445 21.3126 1.48408
endloop
endfacet
facet normal -1 0 0
outer loop
vertex 0.000102445 21.3126 1.48408
vertex 0.000102445 19.8143 2.18589
vertex 0.000102445 20.0181 2.42453
endloop
endfacet
facet normal -1 0 0
outer loop
vertex 0.000102445 21.3126 1.48408
vertex 0.000102445 20.0181 2.42453
vertex 0.000102445 21.6077 1.96574
endloop
endfacet
facet normal -1 0 0
outer loop
vertex 0.000102445 21.6077 1.96574
vertex 0.000102445 20.0181 2.42453
vertex 0.000102445 20.1821 2.69212
endloop
endfacet
facet normal -1 0 0
outer loop
vertex 0.000102445 21.6077 1.96574
vertex 0.000102445 20.1821 2.69212
vertex 0.000102445 21.8239 2.48764
endloop
endfacet
facet normal -1 0 0
outer loop
vertex 0.000102445 21.8239 2.48764
vertex 0.000102445 20.1821 2.69212
vertex 0.000102445 20.3022 2.98207
endloop
endfacet
facet normal -1 0 0
outer loop
vertex 0.000102445 21.8239 2.48764
vertex 0.000102445 20.3022 2.98207
vertex 0.000102445 21.9558 3.03694
endloop
endfacet
facet normal -1 0 0
outer loop
vertex 0.000102445 21.9558 3.03694
vertex 0.000102445 20.3022 2.98207
vertex 0.000102445 20.3755 3.28723
endloop
endfacet
facet normal -1 0 0
outer loop
vertex 0.000102445 21.9558 3.03694
vertex 0.000102445 20.3755 3.28723
vertex 0.000102445 22.0001 3.6001
endloop
endfacet
facet normal -1 0 0
outer loop
vertex 0.000102445 22.0001 3.6001
vertex 0.000102445 20.3755 3.28723
vertex 0.000102445 20.4001 3.6001
endloop
endfacet
facet normal -1 0 0
outer loop
vertex 0.000102445 22.0001 3.6001
vertex 0.000102445 20.4001 3.6001
vertex 0.000102445 22.0001 46.4001
endloop
endfacet
facet normal -1 0 0
outer loop
vertex 0.000102445 22.0001 46.4001
vertex 0.000102445 20.4001 3.6001
vertex 0.000102445 20.4001 46.4001
endloop
endfacet
facet normal -1 0 0
outer loop
vertex 0.000102445 22.0001 46.4001
vertex 0.000102445 20.4001 46.4001
vertex 0.000102445 22.0247 46.713
endloop
endfacet
facet normal -1 0 0
outer loop
vertex 0.000102445 22.0247 46.713
vertex 0.000102445 20.4001 46.4001
vertex 0.000102445 20.4444 46.9633
endloop
endfacet
facet normal -1 0 0
outer loop
vertex 0.000102445 22.0247 46.713
vertex 0.000102445 20.4444 46.9633
vertex 0.000102445 22.098 47.0181
endloop
endfacet
facet normal -1 0 0
outer loop
vertex 0.000102445 22.098 47.0181
vertex 0.000102445 20.4444 46.9633
vertex 0.000102445 20.5763 47.5126
endloop
endfacet
facet normal -1 0 0
outer loop
vertex 0.000102445 22.098 47.0181
vertex 0.000102445 20.5763 47.5126
vertex 0.000102445 22.2181 47.3081
endloop
endfacet
facet normal -1 0 0
outer loop
vertex 0.000102445 22.2181 47.3081
vertex 0.000102445 20.5763 47.5126
vertex 0.000102445 20.7925 48.0345
endloop
endfacet
facet normal -1 0 0
outer loop
vertex 0.000102445 22.2181 47.3081
vertex 0.000102445 20.7925 48.0345
vertex 0.000102445 22.3821 47.5757
endloop
endfacet
facet normal -1 0 0
outer loop
vertex 0.000102445 22.3821 47.5757
vertex 0.000102445 20.7925 48.0345
vertex 0.000102445 21.0876 48.5161
endloop
endfacet
facet normal -1 0 0
outer loop
vertex 0.000102445 22.3821 47.5757
vertex 0.000102445 21.0876 48.5161
vertex 0.000102445 22.5859 47.8143
endloop
endfacet
facet normal -1 0 0
outer loop
vertex 0.000102445 22.5859 47.8143
vertex 0.000102445 21.0876 48.5161
vertex 0.000102445 21.4545 48.9457
endloop
endfacet
facet normal -1 0 0
outer loop
vertex 0.000102445 22.5859 47.8143
vertex 0.000102445 21.4545 48.9457
vertex 0.000102445 22.8245 48.0181
endloop
endfacet
facet normal -1 0 0
outer loop
vertex 0.000102445 22.8245 48.0181
vertex 0.000102445 21.4545 48.9457
vertex 0.000102445 21.8841 49.3126
endloop
endfacet
facet normal -1 0 0
outer loop
vertex 0.000102445 22.8245 48.0181
vertex 0.000102445 21.8841 49.3126
vertex 0.000102445 23.0921 48.1821
endloop
endfacet
facet normal -1 0 0
outer loop
vertex 0.000102445 23.0921 48.1821
vertex 0.000102445 21.8841 49.3126
vertex 0.000102445 22.3657 49.6077
endloop
endfacet
facet normal -1 0 0
outer loop
vertex 0.000102445 23.0921 48.1821
vertex 0.000102445 22.3657 49.6077
vertex 0.000102445 23.3821 48.3022
endloop
endfacet
facet normal -1 0 0
outer loop
vertex 0.000102445 23.3821 48.3022
vertex 0.000102445 22.3657 49.6077
vertex 0.000102445 22.8876 49.8239
endloop
endfacet
facet normal -1 0 0
outer loop
vertex 0.000102445 23.3821 48.3022
vertex 0.000102445 22.8876 49.8239
vertex 0.000102445 23.6872 48.3755
endloop
endfacet
facet normal -1 0 0
outer loop
vertex 0.000102445 23.6872 48.3755
vertex 0.000102445 22.8876 49.8239
vertex 0.000102445 23.4369 49.9558
endloop
endfacet
facet normal -1 0 0
outer loop
vertex 0.000102445 23.6872 48.3755
vertex 0.000102445 23.4369 49.9558
vertex 0.000102445 24.0001 48.4001
endloop
endfacet
facet normal -1 0 0
outer loop
vertex 0.000102445 24.0001 48.4001
vertex 0.000102445 23.4369 49.9558
vertex 0.000102445 24.0001 50.0001
endloop
endfacet
facet normal -1 0 0
outer loop
vertex 0.000102445 24.0001 48.4001
vertex 0.000102445 24.0001 50.0001
vertex 0.000102445 42.4001 48.4001
endloop
endfacet
facet normal -1 0 0
outer loop
vertex 0.000102445 42.4001 48.4001
vertex 0.000102445 24.0001 50.0001
vertex 0.000102445 42.4001 50.0001
endloop
endfacet
facet normal 0 -0.996917 0.0784608
outer loop
vertex 42.0001 20.4001 3.6001
vertex 0.000102445 20.4001 3.6001
vertex 42.0001 20.3755 3.28723
endloop
endfacet
facet normal 0 -0.996917 0.0784608
outer loop
vertex 42.0001 20.3755 3.28723
vertex 0.000102445 20.4001 3.6001
vertex 0.000102445 20.3755 3.28723
endloop
endfacet
facet normal 0 -0.972372 0.233438
outer loop
vertex 42.0001 20.3755 3.28723
vertex 0.000102445 20.3755 3.28723
vertex 42.0001 20.3022 2.98207
endloop
endfacet
facet normal 0 -0.972372 0.233438
outer loop
vertex 42.0001 20.3022 2.98207
vertex 0.000102445 20.3755 3.28723
vertex 0.000102445 20.3022 2.98207
endloop
endfacet
facet normal 0 -0.923877 0.382689
outer loop
vertex 42.0001 20.3022 2.98207
vertex 0.000102445 20.3022 2.98207
vertex 42.0001 20.1821 2.69212
endloop
endfacet
facet normal 0 -0.923877 0.382689
outer loop
vertex 42.0001 20.1821 2.69212
vertex 0.000102445 20.3022 2.98207
vertex 0.000102445 20.1821 2.69212
endloop
endfacet
facet normal 0 -0.852644 0.522493
outer loop
vertex 42.0001 20.1821 2.69212
vertex 0.000102445 20.1821 2.69212
vertex 42.0001 20.0181 2.42453
endloop
endfacet
facet normal 0 -0.852644 0.522493
outer loop
vertex 42.0001 20.0181 2.42453
vertex 0.000102445 20.1821 2.69212
vertex 0.000102445 20.0181 2.42453
endloop
endfacet
facet normal 0 -0.760402 0.649453
outer loop
vertex 42.0001 20.0181 2.42453
vertex 0.000102445 20.0181 2.42453
vertex 42.0001 19.8143 2.18589
endloop
endfacet
facet normal 0 -0.760402 0.649453
outer loop
vertex 42.0001 19.8143 2.18589
vertex 0.000102445 20.0181 2.42453
vertex 0.000102445 19.8143 2.18589
endloop
endfacet
facet normal 0 -0.64945 0.760404
outer loop
vertex 42.0001 19.8143 2.18589
vertex 0.000102445 19.8143 2.18589
vertex 42.0001 19.5757 1.98207
endloop
endfacet
facet normal 0 -0.64945 0.760404
outer loop
vertex 42.0001 19.5757 1.98207
vertex 0.000102445 19.8143 2.18589
vertex 0.000102445 19.5757 1.98207
endloop
endfacet
facet normal 0 -0.522499 0.85264
outer loop
vertex 42.0001 19.5757 1.98207
vertex 0.000102445 19.5757 1.98207
vertex 42.0001 19.3081 1.81809
endloop
endfacet
facet normal 0 -0.522499 0.85264
outer loop
vertex 42.0001 19.3081 1.81809
vertex 0.000102445 19.5757 1.98207
vertex 0.000102445 19.3081 1.81809
endloop
endfacet
facet normal 0 -0.382681 0.923881
outer loop
vertex 42.0001 19.3081 1.81809
vertex 0.000102445 19.3081 1.81809
vertex 42.0001 19.0181 1.69799
endloop
endfacet
facet normal 0 -0.382681 0.923881
outer loop
vertex 42.0001 19.0181 1.69799
vertex 0.000102445 19.3081 1.81809
vertex 0.000102445 19.0181 1.69799
endloop
endfacet
facet normal 0 -0.233446 0.97237
outer loop
vertex 42.0001 19.0181 1.69799
vertex 0.000102445 19.0181 1.69799
vertex 42.0001 18.713 1.62473
endloop
endfacet
facet normal 0 -0.233446 0.97237
outer loop
vertex 42.0001 18.713 1.62473
vertex 0.000102445 19.0181 1.69799
vertex 0.000102445 18.713 1.62473
endloop
endfacet
facet normal 0 -0.0784592 0.996917
outer loop
vertex 42.0001 18.713 1.62473
vertex 0.000102445 18.713 1.62473
vertex 42.0001 18.4001 1.6001
endloop
endfacet
facet normal 0 -0.0784592 0.996917
outer loop
vertex 42.0001 18.4001 1.6001
vertex 0.000102445 18.713 1.62473
vertex 0.000102445 18.4001 1.6001
endloop
endfacet
facet normal 0 -1 0
outer loop
vertex 42.0001 20.4001 3.6001
vertex 42.0001 20.4001 46.4001
vertex 0.000102445 20.4001 3.6001
endloop
endfacet
facet normal 0 -1 0
outer loop
vertex 0.000102445 20.4001 3.6001
vertex 42.0001 20.4001 46.4001
vertex 0.000102445 20.4001 46.4001
endloop
endfacet
endsolid
