solid CARRIER_BACK
  facet normal 0.000000e+00 0.000000e+00 -1.000000e+00
    outer loop
      vertex -2.000000e+00 0.000000e+00 0.000000e+00
      vertex -2.000000e+00 2.500000e+00 0.000000e+00
      vertex -1.900000e+00 2.500000e+00 0.000000e+00
    endloop
  endfacet
  facet normal 0.000000e+00 1.000000e+00 0.000000e+00
    outer loop
      vertex -1.900000e+00 2.500000e+00 4.000000e-02
      vertex -1.900000e+00 2.500000e+00 0.000000e+00
      vertex -2.000000e+00 2.500000e+00 0.000000e+00
    endloop
  endfacet
  facet normal 0.000000e+00 0.000000e+00 -1.000000e+00
    outer loop
      vertex -1.900000e+00 1.000000e-01 0.000000e+00
      vertex -2.000000e+00 0.000000e+00 0.000000e+00
      vertex -1.900000e+00 2.500000e+00 0.000000e+00
    endloop
  endfacet
  facet normal 1.000000e+00 0.000000e+00 0.000000e+00
    outer loop
      vertex -1.900000e+00 5.000000e-01 4.000000e-02
      vertex -1.900000e+00 1.000000e-01 0.000000e+00
      vertex -1.900000e+00 2.500000e+00 0.000000e+00
    endloop
  endfacet
  facet normal 1.000000e+00 0.000000e+00 0.000000e+00
    outer loop
      vertex -1.900000e+00 5.000000e-01 4.000000e-02
      vertex -1.900000e+00 2.500000e+00 0.000000e+00
      vertex -1.900000e+00 2.500000e+00 4.000000e-02
    endloop
  endfacet
  facet normal -1.000000e+00 0.000000e+00 0.000000e+00
    outer loop
      vertex -2.000000e+00 2.500000e+00 2.900000e-01
      vertex -2.000000e+00 2.500000e+00 0.000000e+00
      vertex -2.000000e+00 0.000000e+00 0.000000e+00
    endloop
  endfacet
  facet normal 0.000000e+00 1.000000e+00 0.000000e+00
    outer loop
      vertex -1.900000e+00 2.500000e+00 2.900000e-01
      vertex -2.000000e+00 2.500000e+00 0.000000e+00
      vertex -2.000000e+00 2.500000e+00 2.900000e-01
    endloop
  endfacet
  facet normal 0.000000e+00 1.000000e+00 0.000000e+00
    outer loop
      vertex -1.900000e+00 2.500000e+00 2.900000e-01
      vertex -1.900000e+00 2.500000e+00 1.400000e-01
      vertex -2.000000e+00 2.500000e+00 0.000000e+00
    endloop
  endfacet
  facet normal 0.000000e+00 1.000000e+00 0.000000e+00
    outer loop
      vertex -1.900000e+00 2.500000e+00 4.000000e-02
      vertex -2.000000e+00 2.500000e+00 0.000000e+00
      vertex -1.900000e+00 2.500000e+00 1.400000e-01
    endloop
  endfacet
  facet normal 0.000000e+00 0.000000e+00 -1.000000e+00
    outer loop
      vertex 1.900000e+00 1.000000e-01 0.000000e+00
      vertex 2.000000e+00 0.000000e+00 0.000000e+00
      vertex -2.000000e+00 0.000000e+00 0.000000e+00
    endloop
  endfacet
  facet normal 0.000000e+00 -1.000000e+00 0.000000e+00
    outer loop
      vertex -2.000000e+00 0.000000e+00 1.500000e+00
      vertex -2.000000e+00 0.000000e+00 0.000000e+00
      vertex 2.000000e+00 0.000000e+00 0.000000e+00
    endloop
  endfacet
  facet normal 0.000000e+00 0.000000e+00 -1.000000e+00
    outer loop
      vertex -1.900000e+00 1.000000e-01 0.000000e+00
      vertex 1.900000e+00 1.000000e-01 0.000000e+00
      vertex -2.000000e+00 0.000000e+00 0.000000e+00
    endloop
  endfacet
  facet normal -1.000000e+00 0.000000e+00 0.000000e+00
    outer loop
      vertex -2.000000e+00 5.000000e-01 1.048182e+00
      vertex -2.000000e+00 0.000000e+00 0.000000e+00
      vertex -2.000000e+00 0.000000e+00 1.500000e+00
    endloop
  endfacet
  facet normal -1.000000e+00 0.000000e+00 0.000000e+00
    outer loop
      vertex -2.000000e+00 5.000000e-01 9.481816e-01
      vertex -2.000000e+00 0.000000e+00 0.000000e+00
      vertex -2.000000e+00 5.000000e-01 1.048182e+00
    endloop
  endfacet
  facet normal -1.000000e+00 0.000000e+00 0.000000e+00
    outer loop
      vertex -2.000000e+00 5.000000e-01 2.900000e-01
      vertex -2.000000e+00 2.500000e+00 2.900000e-01
      vertex -2.000000e+00 0.000000e+00 0.000000e+00
    endloop
  endfacet
  facet normal -1.000000e+00 0.000000e+00 0.000000e+00
    outer loop
      vertex -2.000000e+00 5.000000e-01 3.900000e-01
      vertex -2.000000e+00 5.000000e-01 2.900000e-01
      vertex -2.000000e+00 0.000000e+00 0.000000e+00
    endloop
  endfacet
  facet normal -1.000000e+00 0.000000e+00 0.000000e+00
    outer loop
      vertex -2.000000e+00 5.000000e-01 9.481816e-01
      vertex -2.000000e+00 5.000000e-01 3.900000e-01
      vertex -2.000000e+00 0.000000e+00 0.000000e+00
    endloop
  endfacet
  facet normal 0.000000e+00 0.000000e+00 -1.000000e+00
    outer loop
      vertex 1.900000e+00 1.000000e-01 0.000000e+00
      vertex 2.000000e+00 2.500000e+00 0.000000e+00
      vertex 2.000000e+00 0.000000e+00 0.000000e+00
    endloop
  endfacet
  facet normal 1.000000e+00 0.000000e+00 0.000000e+00
    outer loop
      vertex 2.000000e+00 0.000000e+00 1.500000e+00
      vertex 2.000000e+00 0.000000e+00 0.000000e+00
      vertex 2.000000e+00 2.500000e+00 0.000000e+00
    endloop
  endfacet
  facet normal 0.000000e+00 -1.000000e+00 0.000000e+00
    outer loop
      vertex -2.000000e+00 0.000000e+00 1.500000e+00
      vertex 2.000000e+00 0.000000e+00 0.000000e+00
      vertex 2.000000e+00 0.000000e+00 1.500000e+00
    endloop
  endfacet
  facet normal 0.000000e+00 0.000000e+00 -1.000000e+00
    outer loop
      vertex 1.900000e+00 1.000000e-01 0.000000e+00
      vertex 1.900000e+00 2.500000e+00 0.000000e+00
      vertex 2.000000e+00 2.500000e+00 0.000000e+00
    endloop
  endfacet
  facet normal 0.000000e+00 1.000000e+00 0.000000e+00
    outer loop
      vertex 2.000000e+00 2.500000e+00 1.500000e+00
      vertex 2.000000e+00 2.500000e+00 0.000000e+00
      vertex 1.900000e+00 2.500000e+00 0.000000e+00
    endloop
  endfacet
  facet normal 1.000000e+00 0.000000e+00 0.000000e+00
    outer loop
      vertex 2.000000e+00 0.000000e+00 1.500000e+00
      vertex 2.000000e+00 2.500000e+00 0.000000e+00
      vertex 2.000000e+00 2.500000e+00 1.500000e+00
    endloop
  endfacet
  facet normal -1.000000e+00 0.000000e+00 0.000000e+00
    outer loop
      vertex 1.900000e+00 2.500000e+00 1.400000e+00
      vertex 1.900000e+00 2.500000e+00 0.000000e+00
      vertex 1.900000e+00 1.000000e-01 0.000000e+00
    endloop
  endfacet
  facet normal 0.000000e+00 1.000000e+00 0.000000e+00
    outer loop
      vertex 1.900000e+00 2.500000e+00 1.400000e+00
      vertex 2.000000e+00 2.500000e+00 1.500000e+00
      vertex 1.900000e+00 2.500000e+00 0.000000e+00
    endloop
  endfacet
  facet normal 0.000000e+00 1.000000e+00 0.000000e+00
    outer loop
      vertex 1.900000e+00 1.000000e-01 1.400000e+00
      vertex 1.900000e+00 1.000000e-01 0.000000e+00
      vertex -1.900000e+00 1.000000e-01 0.000000e+00
    endloop
  endfacet
  facet normal -1.000000e+00 0.000000e+00 0.000000e+00
    outer loop
      vertex 1.900000e+00 1.000000e-01 1.400000e+00
      vertex 1.900000e+00 2.500000e+00 1.400000e+00
      vertex 1.900000e+00 1.000000e-01 0.000000e+00
    endloop
  endfacet
  facet normal 0.000000e+00 1.000000e+00 0.000000e+00
    outer loop
      vertex 1.900000e+00 1.000000e-01 1.400000e+00
      vertex -1.900000e+00 1.000000e-01 0.000000e+00
      vertex -1.900000e+00 1.000000e-01 1.400000e+00
    endloop
  endfacet
  facet normal 1.000000e+00 0.000000e+00 0.000000e+00
    outer loop
      vertex -1.900000e+00 5.000000e-01 4.000000e-02
      vertex -1.900000e+00 1.000000e-01 1.400000e+00
      vertex -1.900000e+00 1.000000e-01 0.000000e+00
    endloop
  endfacet
  facet normal 0.000000e+00 0.000000e+00 1.000000e+00
    outer loop
      vertex 1.375000e+00 2.000000e+00 1.500000e+00
      vertex 2.000000e+00 2.500000e+00 1.500000e+00
      vertex -2.000000e+00 2.500000e+00 1.500000e+00
    endloop
  endfacet
  facet normal 0.000000e+00 1.000000e+00 0.000000e+00
    outer loop
      vertex -1.900000e+00 2.500000e+00 1.400000e+00
      vertex -2.000000e+00 2.500000e+00 1.500000e+00
      vertex 2.000000e+00 2.500000e+00 1.500000e+00
    endloop
  endfacet
  facet normal 0.000000e+00 0.000000e+00 1.000000e+00
    outer loop
      vertex -1.375000e+00 1.250000e+00 1.500000e+00
      vertex -2.000000e+00 2.500000e+00 1.500000e+00
      vertex -2.000000e+00 0.000000e+00 1.500000e+00
    endloop
  endfacet
  facet normal -1.000000e+00 0.000000e+00 0.000000e+00
    outer loop
      vertex -2.000000e+00 5.000000e-01 1.048182e+00
      vertex -2.000000e+00 0.000000e+00 1.500000e+00
      vertex -2.000000e+00 2.500000e+00 1.500000e+00
    endloop
  endfacet
  facet normal 0.000000e+00 0.000000e+00 1.000000e+00
    outer loop
      vertex -1.375000e+00 2.000000e+00 1.500000e+00
      vertex 1.375000e+00 2.000000e+00 1.500000e+00
      vertex -2.000000e+00 2.500000e+00 1.500000e+00
    endloop
  endfacet
  facet normal 0.000000e+00 0.000000e+00 1.000000e+00
    outer loop
      vertex -1.375000e+00 1.250000e+00 1.500000e+00
      vertex -1.375000e+00 2.000000e+00 1.500000e+00
      vertex -2.000000e+00 2.500000e+00 1.500000e+00
    endloop
  endfacet
  facet normal -1.000000e+00 0.000000e+00 0.000000e+00
    outer loop
      vertex -2.000000e+00 2.500000e+00 1.048182e+00
      vertex -2.000000e+00 5.000000e-01 1.048182e+00
      vertex -2.000000e+00 2.500000e+00 1.500000e+00
    endloop
  endfacet
  facet normal 0.000000e+00 1.000000e+00 0.000000e+00
    outer loop
      vertex -1.900000e+00 2.500000e+00 1.400000e+00
      vertex -2.000000e+00 2.500000e+00 1.048182e+00
      vertex -2.000000e+00 2.500000e+00 1.500000e+00
    endloop
  endfacet
  facet normal 0.000000e+00 0.000000e+00 1.000000e+00
    outer loop
      vertex 1.375000e+00 2.000000e+00 1.500000e+00
      vertex 2.000000e+00 0.000000e+00 1.500000e+00
      vertex 2.000000e+00 2.500000e+00 1.500000e+00
    endloop
  endfacet
  facet normal 0.000000e+00 1.000000e+00 0.000000e+00
    outer loop
      vertex 1.900000e+00 2.500000e+00 1.400000e+00
      vertex -1.900000e+00 2.500000e+00 1.400000e+00
      vertex 2.000000e+00 2.500000e+00 1.500000e+00
    endloop
  endfacet
  facet normal 0.000000e+00 0.000000e+00 1.000000e+00
    outer loop
      vertex -1.375000e+00 1.250000e+00 1.500000e+00
      vertex -2.000000e+00 0.000000e+00 1.500000e+00
      vertex 2.000000e+00 0.000000e+00 1.500000e+00
    endloop
  endfacet
  facet normal 0.000000e+00 0.000000e+00 1.000000e+00
    outer loop
      vertex 1.375000e+00 1.250000e+00 1.500000e+00
      vertex 2.000000e+00 0.000000e+00 1.500000e+00
      vertex 1.375000e+00 2.000000e+00 1.500000e+00
    endloop
  endfacet
  facet normal 0.000000e+00 0.000000e+00 1.000000e+00
    outer loop
      vertex 1.375000e+00 1.250000e+00 1.500000e+00
      vertex -1.375000e+00 1.250000e+00 1.500000e+00
      vertex 2.000000e+00 0.000000e+00 1.500000e+00
    endloop
  endfacet
  facet normal 0.000000e+00 -1.000000e+00 0.000000e+00
    outer loop
      vertex 1.375000e+00 2.000000e+00 1.400000e+00
      vertex 1.375000e+00 2.000000e+00 1.500000e+00
      vertex -1.375000e+00 2.000000e+00 1.500000e+00
    endloop
  endfacet
  facet normal -1.000000e+00 0.000000e+00 0.000000e+00
    outer loop
      vertex 1.375000e+00 1.250000e+00 1.400000e+00
      vertex 1.375000e+00 1.250000e+00 1.500000e+00
      vertex 1.375000e+00 2.000000e+00 1.500000e+00
    endloop
  endfacet
  facet normal -1.000000e+00 0.000000e+00 0.000000e+00
    outer loop
      vertex 1.375000e+00 1.250000e+00 1.400000e+00
      vertex 1.375000e+00 2.000000e+00 1.500000e+00
      vertex 1.375000e+00 2.000000e+00 1.400000e+00
    endloop
  endfacet
  facet normal 1.000000e+00 0.000000e+00 0.000000e+00
    outer loop
      vertex -1.375000e+00 2.000000e+00 1.400000e+00
      vertex -1.375000e+00 2.000000e+00 1.500000e+00
      vertex -1.375000e+00 1.250000e+00 1.500000e+00
    endloop
  endfacet
  facet normal 0.000000e+00 -1.000000e+00 0.000000e+00
    outer loop
      vertex -1.375000e+00 2.000000e+00 1.400000e+00
      vertex 1.375000e+00 2.000000e+00 1.400000e+00
      vertex -1.375000e+00 2.000000e+00 1.500000e+00
    endloop
  endfacet
  facet normal 0.000000e+00 1.000000e+00 0.000000e+00
    outer loop
      vertex -1.375000e+00 1.250000e+00 1.400000e+00
      vertex -1.375000e+00 1.250000e+00 1.500000e+00
      vertex 1.375000e+00 1.250000e+00 1.500000e+00
    endloop
  endfacet
  facet normal 1.000000e+00 0.000000e+00 0.000000e+00
    outer loop
      vertex -1.375000e+00 2.000000e+00 1.400000e+00
      vertex -1.375000e+00 1.250000e+00 1.500000e+00
      vertex -1.375000e+00 1.250000e+00 1.400000e+00
    endloop
  endfacet
  facet normal 0.000000e+00 1.000000e+00 0.000000e+00
    outer loop
      vertex -1.375000e+00 1.250000e+00 1.400000e+00
      vertex 1.375000e+00 1.250000e+00 1.500000e+00
      vertex 1.375000e+00 1.250000e+00 1.400000e+00
    endloop
  endfacet
  facet normal 0.000000e+00 0.000000e+00 -1.000000e+00
    outer loop
      vertex -1.900000e+00 5.000000e-01 1.048182e+00
      vertex -2.000000e+00 5.000000e-01 1.048182e+00
      vertex -2.000000e+00 2.500000e+00 1.048182e+00
    endloop
  endfacet
  facet normal 0.000000e+00 1.000000e+00 0.000000e+00
    outer loop
      vertex -1.900000e+00 5.000000e-01 9.481816e-01
      vertex -2.000000e+00 5.000000e-01 9.481816e-01
      vertex -2.000000e+00 5.000000e-01 1.048182e+00
    endloop
  endfacet
  facet normal 0.000000e+00 1.000000e+00 0.000000e+00
    outer loop
      vertex -1.900000e+00 5.000000e-01 9.481816e-01
      vertex -2.000000e+00 5.000000e-01 1.048182e+00
      vertex -1.900000e+00 5.000000e-01 1.048182e+00
    endloop
  endfacet
  facet normal 0.000000e+00 1.000000e+00 0.000000e+00
    outer loop
      vertex -1.900000e+00 2.500000e+00 1.400000e+00
      vertex -1.900000e+00 2.500000e+00 1.300000e+00
      vertex -2.000000e+00 2.500000e+00 1.048182e+00
    endloop
  endfacet
  facet normal 0.000000e+00 1.000000e+00 0.000000e+00
    outer loop
      vertex -1.900000e+00 2.500000e+00 1.200000e+00
      vertex -2.000000e+00 2.500000e+00 1.048182e+00
      vertex -1.900000e+00 2.500000e+00 1.300000e+00
    endloop
  endfacet
  facet normal 0.000000e+00 1.000000e+00 0.000000e+00
    outer loop
      vertex -1.900000e+00 2.500000e+00 1.200000e+00
      vertex -1.900000e+00 2.500000e+00 1.048182e+00
      vertex -2.000000e+00 2.500000e+00 1.048182e+00
    endloop
  endfacet
  facet normal 0.000000e+00 0.000000e+00 -1.000000e+00
    outer loop
      vertex -1.900000e+00 5.000000e-01 1.048182e+00
      vertex -2.000000e+00 2.500000e+00 1.048182e+00
      vertex -1.900000e+00 2.500000e+00 1.048182e+00
    endloop
  endfacet
  facet normal 0.000000e+00 0.000000e+00 1.000000e+00
    outer loop
      vertex -1.900000e+00 2.500000e+00 2.900000e-01
      vertex -2.000000e+00 2.500000e+00 2.900000e-01
      vertex -2.000000e+00 5.000000e-01 2.900000e-01
    endloop
  endfacet
  facet normal 0.000000e+00 1.000000e+00 0.000000e+00
    outer loop
      vertex -1.900000e+00 5.000000e-01 2.900000e-01
      vertex -2.000000e+00 5.000000e-01 2.900000e-01
      vertex -2.000000e+00 5.000000e-01 3.900000e-01
    endloop
  endfacet
  facet normal 0.000000e+00 0.000000e+00 1.000000e+00
    outer loop
      vertex -1.900000e+00 5.000000e-01 2.900000e-01
      vertex -1.900000e+00 2.500000e+00 2.900000e-01
      vertex -2.000000e+00 5.000000e-01 2.900000e-01
    endloop
  endfacet
  facet normal -1.000000e+00 0.000000e+00 0.000000e+00
    outer loop
      vertex -2.000000e+00 1.954861e+00 4.900000e-01
      vertex -2.000000e+00 2.500000e+00 3.900000e-01
      vertex -2.000000e+00 5.000000e-01 3.900000e-01
    endloop
  endfacet
  facet normal 1.110223e-15 0.000000e+00 -1.000000e+00
    outer loop
      vertex -1.900000e+00 5.000000e-01 3.900000e-01
      vertex -2.000000e+00 5.000000e-01 3.900000e-01
      vertex -2.000000e+00 2.500000e+00 3.900000e-01
    endloop
  endfacet
  facet normal -1.000000e+00 0.000000e+00 0.000000e+00
    outer loop
      vertex -2.000000e+00 1.250000e+00 8.500000e-01
      vertex -2.000000e+00 5.000000e-01 3.900000e-01
      vertex -2.000000e+00 5.000000e-01 9.481816e-01
    endloop
  endfacet
  facet normal -1.000000e+00 0.000000e+00 0.000000e+00
    outer loop
      vertex -2.000000e+00 1.250000e+00 4.900000e-01
      vertex -2.000000e+00 1.954861e+00 4.900000e-01
      vertex -2.000000e+00 5.000000e-01 3.900000e-01
    endloop
  endfacet
  facet normal -1.000000e+00 0.000000e+00 0.000000e+00
    outer loop
      vertex -2.000000e+00 1.250000e+00 8.500000e-01
      vertex -2.000000e+00 1.250000e+00 4.900000e-01
      vertex -2.000000e+00 5.000000e-01 3.900000e-01
    endloop
  endfacet
  facet normal 0.000000e+00 1.000000e+00 0.000000e+00
    outer loop
      vertex -1.900000e+00 5.000000e-01 2.900000e-01
      vertex -2.000000e+00 5.000000e-01 3.900000e-01
      vertex -1.900000e+00 5.000000e-01 3.900000e-01
    endloop
  endfacet
  facet normal -1.000000e+00 0.000000e+00 0.000000e+00
    outer loop
      vertex -2.000000e+00 1.954861e+00 4.900000e-01
      vertex -2.000000e+00 2.500000e+00 9.481816e-01
      vertex -2.000000e+00 2.500000e+00 3.900000e-01
    endloop
  endfacet
  facet normal 0.000000e+00 1.000000e+00 0.000000e+00
    outer loop
      vertex -1.900000e+00 2.500000e+00 9.481816e-01
      vertex -2.000000e+00 2.500000e+00 3.900000e-01
      vertex -2.000000e+00 2.500000e+00 9.481816e-01
    endloop
  endfacet
  facet normal 0.000000e+00 1.000000e+00 0.000000e+00
    outer loop
      vertex -1.900000e+00 2.500000e+00 4.900000e-01
      vertex -1.750000e+00 2.500000e+00 3.900000e-01
      vertex -2.000000e+00 2.500000e+00 3.900000e-01
    endloop
  endfacet
  facet normal 4.440892e-16 0.000000e+00 -1.000000e+00
    outer loop
      vertex -1.750000e+00 5.000000e-01 3.900000e-01
      vertex -2.000000e+00 2.500000e+00 3.900000e-01
      vertex -1.750000e+00 2.500000e+00 3.900000e-01
    endloop
  endfacet
  facet normal 0.000000e+00 1.000000e+00 0.000000e+00
    outer loop
      vertex -1.900000e+00 2.500000e+00 8.500000e-01
      vertex -1.900000e+00 2.500000e+00 4.900000e-01
      vertex -2.000000e+00 2.500000e+00 3.900000e-01
    endloop
  endfacet
  facet normal 0.000000e+00 1.000000e+00 0.000000e+00
    outer loop
      vertex -1.900000e+00 2.500000e+00 9.481816e-01
      vertex -1.900000e+00 2.500000e+00 8.500000e-01
      vertex -2.000000e+00 2.500000e+00 3.900000e-01
    endloop
  endfacet
  facet normal 0.000000e+00 -5.551115e-17 -1.000000e+00
    outer loop
      vertex -1.750000e+00 5.000000e-01 3.900000e-01
      vertex -1.900000e+00 5.000000e-01 3.900000e-01
      vertex -2.000000e+00 2.500000e+00 3.900000e-01
    endloop
  endfacet
  facet normal -1.000000e+00 0.000000e+00 0.000000e+00
    outer loop
      vertex -2.000000e+00 1.250000e+00 8.500000e-01
      vertex -2.000000e+00 5.000000e-01 9.481816e-01
      vertex -2.000000e+00 2.500000e+00 9.481816e-01
    endloop
  endfacet
  facet normal 0.000000e+00 0.000000e+00 1.000000e+00
    outer loop
      vertex -1.900000e+00 2.500000e+00 9.481816e-01
      vertex -2.000000e+00 2.500000e+00 9.481816e-01
      vertex -2.000000e+00 5.000000e-01 9.481816e-01
    endloop
  endfacet
  facet normal -1.000000e+00 0.000000e+00 0.000000e+00
    outer loop
      vertex -2.000000e+00 1.954861e+00 4.900000e-01
      vertex -2.000000e+00 1.954861e+00 8.500000e-01
      vertex -2.000000e+00 2.500000e+00 9.481816e-01
    endloop
  endfacet
  facet normal -1.000000e+00 0.000000e+00 0.000000e+00
    outer loop
      vertex -2.000000e+00 1.250000e+00 8.500000e-01
      vertex -2.000000e+00 2.500000e+00 9.481816e-01
      vertex -2.000000e+00 1.954861e+00 8.500000e-01
    endloop
  endfacet
  facet normal 0.000000e+00 0.000000e+00 1.000000e+00
    outer loop
      vertex -1.900000e+00 5.000000e-01 9.481816e-01
      vertex -1.900000e+00 2.500000e+00 9.481816e-01
      vertex -2.000000e+00 5.000000e-01 9.481816e-01
    endloop
  endfacet
  facet normal 0.000000e+00 -1.000000e+00 0.000000e+00
    outer loop
      vertex -1.900000e+00 1.954861e+00 8.500000e-01
      vertex -2.000000e+00 1.954861e+00 8.500000e-01
      vertex -2.000000e+00 1.954861e+00 4.900000e-01
    endloop
  endfacet
  facet normal 0.000000e+00 0.000000e+00 -1.000000e+00
    outer loop
      vertex -1.900000e+00 1.250000e+00 8.500000e-01
      vertex -2.000000e+00 1.250000e+00 8.500000e-01
      vertex -2.000000e+00 1.954861e+00 8.500000e-01
    endloop
  endfacet
  facet normal 0.000000e+00 0.000000e+00 -1.000000e+00
    outer loop
      vertex -1.650000e+00 5.000000e-01 8.500000e-01
      vertex -2.000000e+00 1.954861e+00 8.500000e-01
      vertex -1.900000e+00 1.954861e+00 8.500000e-01
    endloop
  endfacet
  facet normal 0.000000e+00 0.000000e+00 -1.000000e+00
    outer loop
      vertex -1.650000e+00 5.000000e-01 8.500000e-01
      vertex -1.900000e+00 1.250000e+00 8.500000e-01
      vertex -2.000000e+00 1.954861e+00 8.500000e-01
    endloop
  endfacet
  facet normal 0.000000e+00 0.000000e+00 1.000000e+00
    outer loop
      vertex -1.900000e+00 1.954861e+00 4.900000e-01
      vertex -2.000000e+00 1.954861e+00 4.900000e-01
      vertex -2.000000e+00 1.250000e+00 4.900000e-01
    endloop
  endfacet
  facet normal 0.000000e+00 -1.000000e+00 0.000000e+00
    outer loop
      vertex -1.900000e+00 1.954861e+00 4.900000e-01
      vertex -1.900000e+00 1.954861e+00 8.500000e-01
      vertex -2.000000e+00 1.954861e+00 4.900000e-01
    endloop
  endfacet
  facet normal 0.000000e+00 1.000000e+00 0.000000e+00
    outer loop
      vertex -1.900000e+00 1.250000e+00 4.900000e-01
      vertex -2.000000e+00 1.250000e+00 4.900000e-01
      vertex -2.000000e+00 1.250000e+00 8.500000e-01
    endloop
  endfacet
  facet normal 0.000000e+00 0.000000e+00 1.000000e+00
    outer loop
      vertex -1.900000e+00 1.954861e+00 4.900000e-01
      vertex -2.000000e+00 1.250000e+00 4.900000e-01
      vertex -1.650000e+00 2.500000e+00 4.900000e-01
    endloop
  endfacet
  facet normal 0.000000e+00 0.000000e+00 1.000000e+00
    outer loop
      vertex -1.900000e+00 1.250000e+00 4.900000e-01
      vertex -1.650000e+00 2.500000e+00 4.900000e-01
      vertex -2.000000e+00 1.250000e+00 4.900000e-01
    endloop
  endfacet
  facet normal 0.000000e+00 1.000000e+00 0.000000e+00
    outer loop
      vertex -1.900000e+00 1.250000e+00 8.500000e-01
      vertex -1.900000e+00 1.250000e+00 4.900000e-01
      vertex -2.000000e+00 1.250000e+00 8.500000e-01
    endloop
  endfacet
  facet normal 0.000000e+00 1.000000e+00 0.000000e+00
    outer loop
      vertex -1.650000e+00 2.500000e+00 4.900000e-01
      vertex -1.750000e+00 2.500000e+00 1.400000e-01
      vertex -1.750000e+00 2.500000e+00 3.900000e-01
    endloop
  endfacet
  facet normal -1.000000e+00 0.000000e+00 0.000000e+00
    outer loop
      vertex -1.750000e+00 5.000000e-01 1.400000e-01
      vertex -1.750000e+00 2.500000e+00 3.900000e-01
      vertex -1.750000e+00 2.500000e+00 1.400000e-01
    endloop
  endfacet
  facet normal 0.000000e+00 1.000000e+00 0.000000e+00
    outer loop
      vertex -1.900000e+00 2.500000e+00 4.900000e-01
      vertex -1.650000e+00 2.500000e+00 4.900000e-01
      vertex -1.750000e+00 2.500000e+00 3.900000e-01
    endloop
  endfacet
  facet normal -1.000000e+00 0.000000e+00 0.000000e+00
    outer loop
      vertex -1.750000e+00 5.000000e-01 3.900000e-01
      vertex -1.750000e+00 2.500000e+00 3.900000e-01
      vertex -1.750000e+00 5.000000e-01 1.400000e-01
    endloop
  endfacet
  facet normal 0.000000e+00 1.000000e+00 0.000000e+00
    outer loop
      vertex -1.900000e+00 2.500000e+00 4.000000e-02
      vertex -1.900000e+00 2.500000e+00 1.400000e-01
      vertex -1.750000e+00 2.500000e+00 1.400000e-01
    endloop
  endfacet
  facet normal 7.401487e-16 0.000000e+00 1.000000e+00
    outer loop
      vertex -1.900000e+00 5.000000e-01 1.400000e-01
      vertex -1.750000e+00 2.500000e+00 1.400000e-01
      vertex -1.900000e+00 2.500000e+00 1.400000e-01
    endloop
  endfacet
  facet normal 0.000000e+00 1.000000e+00 0.000000e+00
    outer loop
      vertex -1.650000e+00 2.500000e+00 4.000000e-02
      vertex -1.900000e+00 2.500000e+00 4.000000e-02
      vertex -1.750000e+00 2.500000e+00 1.400000e-01
    endloop
  endfacet
  facet normal 0.000000e+00 1.000000e+00 0.000000e+00
    outer loop
      vertex -1.650000e+00 2.500000e+00 4.900000e-01
      vertex -1.650000e+00 2.500000e+00 4.000000e-02
      vertex -1.750000e+00 2.500000e+00 1.400000e-01
    endloop
  endfacet
  facet normal 7.401487e-16 0.000000e+00 1.000000e+00
    outer loop
      vertex -1.750000e+00 5.000000e-01 1.400000e-01
      vertex -1.750000e+00 2.500000e+00 1.400000e-01
      vertex -1.900000e+00 5.000000e-01 1.400000e-01
    endloop
  endfacet
  facet normal 1.000000e+00 0.000000e+00 0.000000e+00
    outer loop
      vertex -1.900000e+00 5.000000e-01 2.900000e-01
      vertex -1.900000e+00 2.500000e+00 1.400000e-01
      vertex -1.900000e+00 2.500000e+00 2.900000e-01
    endloop
  endfacet
  facet normal 1.000000e+00 0.000000e+00 0.000000e+00
    outer loop
      vertex -1.900000e+00 5.000000e-01 1.400000e-01
      vertex -1.900000e+00 2.500000e+00 1.400000e-01
      vertex -1.900000e+00 5.000000e-01 2.900000e-01
    endloop
  endfacet
  facet normal 0.000000e+00 0.000000e+00 -1.000000e+00
    outer loop
      vertex -1.650000e+00 5.000000e-01 4.000000e-02
      vertex -1.900000e+00 2.500000e+00 4.000000e-02
      vertex -1.650000e+00 2.500000e+00 4.000000e-02
    endloop
  endfacet
  facet normal 0.000000e+00 0.000000e+00 -1.000000e+00
    outer loop
      vertex -1.650000e+00 5.000000e-01 4.000000e-02
      vertex -1.900000e+00 5.000000e-01 4.000000e-02
      vertex -1.900000e+00 2.500000e+00 4.000000e-02
    endloop
  endfacet
  facet normal 1.000000e+00 0.000000e+00 0.000000e+00
    outer loop
      vertex -1.650000e+00 5.000000e-01 4.900000e-01
      vertex -1.650000e+00 2.500000e+00 4.000000e-02
      vertex -1.650000e+00 2.500000e+00 4.900000e-01
    endloop
  endfacet
  facet normal 1.000000e+00 0.000000e+00 0.000000e+00
    outer loop
      vertex -1.650000e+00 5.000000e-01 4.000000e-02
      vertex -1.650000e+00 2.500000e+00 4.000000e-02
      vertex -1.650000e+00 5.000000e-01 4.900000e-01
    endloop
  endfacet
  facet normal 0.000000e+00 0.000000e+00 1.000000e+00
    outer loop
      vertex -1.900000e+00 1.954861e+00 4.900000e-01
      vertex -1.650000e+00 2.500000e+00 4.900000e-01
      vertex -1.900000e+00 2.500000e+00 4.900000e-01
    endloop
  endfacet
  facet normal 0.000000e+00 0.000000e+00 1.000000e+00
    outer loop
      vertex -1.900000e+00 5.000000e-01 4.900000e-01
      vertex -1.650000e+00 2.500000e+00 4.900000e-01
      vertex -1.900000e+00 1.250000e+00 4.900000e-01
    endloop
  endfacet
  facet normal 0.000000e+00 0.000000e+00 1.000000e+00
    outer loop
      vertex -1.650000e+00 5.000000e-01 4.900000e-01
      vertex -1.650000e+00 2.500000e+00 4.900000e-01
      vertex -1.900000e+00 5.000000e-01 4.900000e-01
    endloop
  endfacet
  facet normal 1.000000e+00 0.000000e+00 0.000000e+00
    outer loop
      vertex -1.900000e+00 1.954861e+00 8.500000e-01
      vertex -1.900000e+00 2.500000e+00 4.900000e-01
      vertex -1.900000e+00 2.500000e+00 8.500000e-01
    endloop
  endfacet
  facet normal 1.000000e+00 0.000000e+00 0.000000e+00
    outer loop
      vertex -1.900000e+00 1.954861e+00 4.900000e-01
      vertex -1.900000e+00 2.500000e+00 4.900000e-01
      vertex -1.900000e+00 1.954861e+00 8.500000e-01
    endloop
  endfacet
  facet normal 0.000000e+00 1.000000e+00 0.000000e+00
    outer loop
      vertex -1.750000e+00 2.500000e+00 9.500000e-01
      vertex -1.650000e+00 2.500000e+00 8.500000e-01
      vertex -1.900000e+00 2.500000e+00 8.500000e-01
    endloop
  endfacet
  facet normal 0.000000e+00 0.000000e+00 -1.000000e+00
    outer loop
      vertex -1.650000e+00 5.000000e-01 8.500000e-01
      vertex -1.900000e+00 2.500000e+00 8.500000e-01
      vertex -1.650000e+00 2.500000e+00 8.500000e-01
    endloop
  endfacet
  facet normal 0.000000e+00 1.000000e+00 0.000000e+00
    outer loop
      vertex -1.900000e+00 2.500000e+00 9.481816e-01
      vertex -1.750000e+00 2.500000e+00 9.500000e-01
      vertex -1.900000e+00 2.500000e+00 8.500000e-01
    endloop
  endfacet
  facet normal 0.000000e+00 0.000000e+00 -1.000000e+00
    outer loop
      vertex -1.650000e+00 5.000000e-01 8.500000e-01
      vertex -1.900000e+00 1.954861e+00 8.500000e-01
      vertex -1.900000e+00 2.500000e+00 8.500000e-01
    endloop
  endfacet
  facet normal 0.000000e+00 1.000000e+00 0.000000e+00
    outer loop
      vertex -1.750000e+00 2.500000e+00 9.500000e-01
      vertex -1.650000e+00 2.500000e+00 1.300000e+00
      vertex -1.650000e+00 2.500000e+00 8.500000e-01
    endloop
  endfacet
  facet normal 1.000000e+00 0.000000e+00 0.000000e+00
    outer loop
      vertex -1.650000e+00 5.000000e-01 1.300000e+00
      vertex -1.650000e+00 2.500000e+00 8.500000e-01
      vertex -1.650000e+00 2.500000e+00 1.300000e+00
    endloop
  endfacet
  facet normal 1.000000e+00 0.000000e+00 0.000000e+00
    outer loop
      vertex -1.650000e+00 5.000000e-01 8.500000e-01
      vertex -1.650000e+00 2.500000e+00 8.500000e-01
      vertex -1.650000e+00 5.000000e-01 1.300000e+00
    endloop
  endfacet
  facet normal 0.000000e+00 1.000000e+00 0.000000e+00
    outer loop
      vertex -1.900000e+00 2.500000e+00 1.200000e+00
      vertex -1.900000e+00 2.500000e+00 1.300000e+00
      vertex -1.650000e+00 2.500000e+00 1.300000e+00
    endloop
  endfacet
  facet normal 0.000000e+00 0.000000e+00 1.000000e+00
    outer loop
      vertex -1.900000e+00 5.000000e-01 1.300000e+00
      vertex -1.650000e+00 2.500000e+00 1.300000e+00
      vertex -1.900000e+00 2.500000e+00 1.300000e+00
    endloop
  endfacet
  facet normal 0.000000e+00 1.000000e+00 0.000000e+00
    outer loop
      vertex -1.750000e+00 2.500000e+00 1.200000e+00
      vertex -1.900000e+00 2.500000e+00 1.200000e+00
      vertex -1.650000e+00 2.500000e+00 1.300000e+00
    endloop
  endfacet
  facet normal 0.000000e+00 1.000000e+00 0.000000e+00
    outer loop
      vertex -1.750000e+00 2.500000e+00 9.500000e-01
      vertex -1.750000e+00 2.500000e+00 1.200000e+00
      vertex -1.650000e+00 2.500000e+00 1.300000e+00
    endloop
  endfacet
  facet normal 0.000000e+00 0.000000e+00 1.000000e+00
    outer loop
      vertex -1.650000e+00 5.000000e-01 1.300000e+00
      vertex -1.650000e+00 2.500000e+00 1.300000e+00
      vertex -1.900000e+00 5.000000e-01 1.300000e+00
    endloop
  endfacet
  facet normal 1.000000e+00 0.000000e+00 0.000000e+00
    outer loop
      vertex -1.900000e+00 1.000000e-01 1.400000e+00
      vertex -1.900000e+00 2.500000e+00 1.300000e+00
      vertex -1.900000e+00 2.500000e+00 1.400000e+00
    endloop
  endfacet
  facet normal 1.000000e+00 0.000000e+00 0.000000e+00
    outer loop
      vertex -1.900000e+00 5.000000e-01 1.300000e+00
      vertex -1.900000e+00 2.500000e+00 1.300000e+00
      vertex -1.900000e+00 1.000000e-01 1.400000e+00
    endloop
  endfacet
  facet normal 0.000000e+00 0.000000e+00 -1.000000e+00
    outer loop
      vertex -1.500000e+00 2.150000e+00 1.400000e+00
      vertex -1.900000e+00 2.500000e+00 1.400000e+00
      vertex 1.900000e+00 2.500000e+00 1.400000e+00
    endloop
  endfacet
  facet normal 0.000000e+00 0.000000e+00 -1.000000e+00
    outer loop
      vertex -1.500000e+00 2.150000e+00 1.400000e+00
      vertex -1.900000e+00 1.000000e-01 1.400000e+00
      vertex -1.900000e+00 2.500000e+00 1.400000e+00
    endloop
  endfacet
  facet normal 0.000000e+00 0.000000e+00 -1.000000e+00
    outer loop
      vertex 1.500000e+00 9.000000e-01 1.400000e+00
      vertex 1.900000e+00 2.500000e+00 1.400000e+00
      vertex 1.900000e+00 1.000000e-01 1.400000e+00
    endloop
  endfacet
  facet normal 0.000000e+00 0.000000e+00 -1.000000e+00
    outer loop
      vertex 1.500000e+00 2.150000e+00 1.400000e+00
      vertex -1.500000e+00 2.150000e+00 1.400000e+00
      vertex 1.900000e+00 2.500000e+00 1.400000e+00
    endloop
  endfacet
  facet normal 0.000000e+00 0.000000e+00 -1.000000e+00
    outer loop
      vertex 1.500000e+00 9.000000e-01 1.400000e+00
      vertex 1.500000e+00 2.150000e+00 1.400000e+00
      vertex 1.900000e+00 2.500000e+00 1.400000e+00
    endloop
  endfacet
  facet normal 1.000000e+00 0.000000e+00 0.000000e+00
    outer loop
      vertex -1.900000e+00 5.000000e-01 1.200000e+00
      vertex -1.900000e+00 2.500000e+00 1.048182e+00
      vertex -1.900000e+00 2.500000e+00 1.200000e+00
    endloop
  endfacet
  facet normal 1.000000e+00 0.000000e+00 0.000000e+00
    outer loop
      vertex -1.900000e+00 5.000000e-01 1.048182e+00
      vertex -1.900000e+00 2.500000e+00 1.048182e+00
      vertex -1.900000e+00 5.000000e-01 1.200000e+00
    endloop
  endfacet
  facet normal 0.000000e+00 0.000000e+00 -1.000000e+00
    outer loop
      vertex -1.750000e+00 5.000000e-01 1.200000e+00
      vertex -1.900000e+00 2.500000e+00 1.200000e+00
      vertex -1.750000e+00 2.500000e+00 1.200000e+00
    endloop
  endfacet
  facet normal 0.000000e+00 0.000000e+00 -1.000000e+00
    outer loop
      vertex -1.750000e+00 5.000000e-01 1.200000e+00
      vertex -1.900000e+00 5.000000e-01 1.200000e+00
      vertex -1.900000e+00 2.500000e+00 1.200000e+00
    endloop
  endfacet
  facet normal -1.000000e+00 0.000000e+00 0.000000e+00
    outer loop
      vertex -1.750000e+00 5.000000e-01 9.500000e-01
      vertex -1.750000e+00 2.500000e+00 1.200000e+00
      vertex -1.750000e+00 2.500000e+00 9.500000e-01
    endloop
  endfacet
  facet normal -1.000000e+00 0.000000e+00 0.000000e+00
    outer loop
      vertex -1.750000e+00 5.000000e-01 1.200000e+00
      vertex -1.750000e+00 2.500000e+00 1.200000e+00
      vertex -1.750000e+00 5.000000e-01 9.500000e-01
    endloop
  endfacet
  facet normal 0.000000e+00 1.000000e+00 0.000000e+00
    outer loop
      vertex -1.900000e+00 2.500000e+00 9.481816e-01
      vertex -1.900000e+00 2.500000e+00 9.500000e-01
      vertex -1.750000e+00 2.500000e+00 9.500000e-01
    endloop
  endfacet
  facet normal 0.000000e+00 0.000000e+00 1.000000e+00
    outer loop
      vertex -1.900000e+00 5.000000e-01 9.500000e-01
      vertex -1.750000e+00 2.500000e+00 9.500000e-01
      vertex -1.900000e+00 2.500000e+00 9.500000e-01
    endloop
  endfacet
  facet normal 0.000000e+00 0.000000e+00 1.000000e+00
    outer loop
      vertex -1.750000e+00 5.000000e-01 9.500000e-01
      vertex -1.750000e+00 2.500000e+00 9.500000e-01
      vertex -1.900000e+00 5.000000e-01 9.500000e-01
    endloop
  endfacet
  facet normal -1.000000e+00 0.000000e+00 0.000000e+00
    outer loop
      vertex -1.900000e+00 5.000000e-01 9.481816e-01
      vertex -1.900000e+00 2.500000e+00 9.500000e-01
      vertex -1.900000e+00 2.500000e+00 9.481816e-01
    endloop
  endfacet
  facet normal -1.000000e+00 0.000000e+00 0.000000e+00
    outer loop
      vertex -1.900000e+00 5.000000e-01 9.500000e-01
      vertex -1.900000e+00 2.500000e+00 9.500000e-01
      vertex -1.900000e+00 5.000000e-01 9.481816e-01
    endloop
  endfacet
  facet normal 0.000000e+00 0.000000e+00 -1.000000e+00
    outer loop
      vertex 1.500000e+00 9.000000e-01 1.400000e+00
      vertex 1.900000e+00 1.000000e-01 1.400000e+00
      vertex -1.900000e+00 1.000000e-01 1.400000e+00
    endloop
  endfacet
  facet normal 0.000000e+00 0.000000e+00 -1.000000e+00
    outer loop
      vertex -1.500000e+00 9.000000e-01 1.400000e+00
      vertex -1.900000e+00 1.000000e-01 1.400000e+00
      vertex -1.500000e+00 2.150000e+00 1.400000e+00
    endloop
  endfacet
  facet normal 0.000000e+00 0.000000e+00 -1.000000e+00
    outer loop
      vertex -1.500000e+00 9.000000e-01 1.400000e+00
      vertex 1.500000e+00 9.000000e-01 1.400000e+00
      vertex -1.900000e+00 1.000000e-01 1.400000e+00
    endloop
  endfacet
  facet normal 1.000000e+00 0.000000e+00 0.000000e+00
    outer loop
      vertex -1.900000e+00 5.000000e-01 3.900000e-01
      vertex -1.900000e+00 5.000000e-01 4.900000e-01
      vertex -1.900000e+00 1.000000e-01 1.400000e+00
    endloop
  endfacet
  facet normal 1.000000e+00 0.000000e+00 0.000000e+00
    outer loop
      vertex -1.900000e+00 5.000000e-01 8.500000e-01
      vertex -1.900000e+00 1.000000e-01 1.400000e+00
      vertex -1.900000e+00 5.000000e-01 4.900000e-01
    endloop
  endfacet
  facet normal 1.000000e+00 0.000000e+00 0.000000e+00
    outer loop
      vertex -1.900000e+00 5.000000e-01 2.900000e-01
      vertex -1.900000e+00 5.000000e-01 3.900000e-01
      vertex -1.900000e+00 1.000000e-01 1.400000e+00
    endloop
  endfacet
  facet normal 1.000000e+00 0.000000e+00 0.000000e+00
    outer loop
      vertex -1.900000e+00 5.000000e-01 1.400000e-01
      vertex -1.900000e+00 5.000000e-01 2.900000e-01
      vertex -1.900000e+00 1.000000e-01 1.400000e+00
    endloop
  endfacet
  facet normal 1.000000e+00 0.000000e+00 0.000000e+00
    outer loop
      vertex -1.900000e+00 5.000000e-01 4.000000e-02
      vertex -1.900000e+00 5.000000e-01 1.400000e-01
      vertex -1.900000e+00 1.000000e-01 1.400000e+00
    endloop
  endfacet
  facet normal 1.000000e+00 0.000000e+00 0.000000e+00
    outer loop
      vertex -1.900000e+00 5.000000e-01 1.200000e+00
      vertex -1.900000e+00 5.000000e-01 1.300000e+00
      vertex -1.900000e+00 1.000000e-01 1.400000e+00
    endloop
  endfacet
  facet normal 1.000000e+00 0.000000e+00 0.000000e+00
    outer loop
      vertex -1.900000e+00 5.000000e-01 1.048182e+00
      vertex -1.900000e+00 5.000000e-01 1.200000e+00
      vertex -1.900000e+00 1.000000e-01 1.400000e+00
    endloop
  endfacet
  facet normal 1.000000e+00 0.000000e+00 0.000000e+00
    outer loop
      vertex -1.900000e+00 5.000000e-01 9.481816e-01
      vertex -1.900000e+00 5.000000e-01 1.048182e+00
      vertex -1.900000e+00 1.000000e-01 1.400000e+00
    endloop
  endfacet
  facet normal 1.000000e+00 0.000000e+00 0.000000e+00
    outer loop
      vertex -1.900000e+00 5.000000e-01 8.500000e-01
      vertex -1.900000e+00 5.000000e-01 9.481816e-01
      vertex -1.900000e+00 1.000000e-01 1.400000e+00
    endloop
  endfacet
  facet normal 0.000000e+00 1.000000e+00 0.000000e+00
    outer loop
      vertex -1.500000e+00 2.150000e+00 1.300000e+00
      vertex -1.500000e+00 2.150000e+00 1.400000e+00
      vertex 1.500000e+00 2.150000e+00 1.400000e+00
    endloop
  endfacet
  facet normal -1.000000e+00 0.000000e+00 0.000000e+00
    outer loop
      vertex -1.500000e+00 9.000000e-01 1.300000e+00
      vertex -1.500000e+00 9.000000e-01 1.400000e+00
      vertex -1.500000e+00 2.150000e+00 1.400000e+00
    endloop
  endfacet
  facet normal -1.000000e+00 0.000000e+00 0.000000e+00
    outer loop
      vertex -1.500000e+00 9.000000e-01 1.300000e+00
      vertex -1.500000e+00 2.150000e+00 1.400000e+00
      vertex -1.500000e+00 2.150000e+00 1.300000e+00
    endloop
  endfacet
  facet normal 1.000000e+00 0.000000e+00 0.000000e+00
    outer loop
      vertex 1.500000e+00 2.150000e+00 1.300000e+00
      vertex 1.500000e+00 2.150000e+00 1.400000e+00
      vertex 1.500000e+00 9.000000e-01 1.400000e+00
    endloop
  endfacet
  facet normal 0.000000e+00 1.000000e+00 0.000000e+00
    outer loop
      vertex 1.500000e+00 2.150000e+00 1.300000e+00
      vertex -1.500000e+00 2.150000e+00 1.300000e+00
      vertex 1.500000e+00 2.150000e+00 1.400000e+00
    endloop
  endfacet
  facet normal 0.000000e+00 -1.000000e+00 0.000000e+00
    outer loop
      vertex 1.500000e+00 9.000000e-01 1.300000e+00
      vertex 1.500000e+00 9.000000e-01 1.400000e+00
      vertex -1.500000e+00 9.000000e-01 1.400000e+00
    endloop
  endfacet
  facet normal 1.000000e+00 0.000000e+00 0.000000e+00
    outer loop
      vertex 1.500000e+00 2.150000e+00 1.300000e+00
      vertex 1.500000e+00 9.000000e-01 1.400000e+00
      vertex 1.500000e+00 9.000000e-01 1.300000e+00
    endloop
  endfacet
  facet normal 0.000000e+00 -1.000000e+00 0.000000e+00
    outer loop
      vertex 1.500000e+00 9.000000e-01 1.300000e+00
      vertex -1.500000e+00 9.000000e-01 1.400000e+00
      vertex -1.500000e+00 9.000000e-01 1.300000e+00
    endloop
  endfacet
  facet normal 1.000000e+00 0.000000e+00 0.000000e+00
    outer loop
      vertex -1.900000e+00 5.000000e-01 8.500000e-01
      vertex -1.900000e+00 5.000000e-01 4.900000e-01
      vertex -1.900000e+00 1.250000e+00 4.900000e-01
    endloop
  endfacet
  facet normal 1.000000e+00 0.000000e+00 0.000000e+00
    outer loop
      vertex -1.900000e+00 1.250000e+00 8.500000e-01
      vertex -1.900000e+00 5.000000e-01 8.500000e-01
      vertex -1.900000e+00 1.250000e+00 4.900000e-01
    endloop
  endfacet
  facet normal 0.000000e+00 -1.000000e+00 0.000000e+00
    outer loop
      vertex -1.650000e+00 5.000000e-01 4.900000e-01
      vertex -1.900000e+00 5.000000e-01 4.900000e-01
      vertex -1.900000e+00 5.000000e-01 3.900000e-01
    endloop
  endfacet
  facet normal 0.000000e+00 -1.000000e+00 0.000000e+00
    outer loop
      vertex -1.750000e+00 5.000000e-01 3.900000e-01
      vertex -1.650000e+00 5.000000e-01 4.900000e-01
      vertex -1.900000e+00 5.000000e-01 3.900000e-01
    endloop
  endfacet
  facet normal 0.000000e+00 -1.000000e+00 0.000000e+00
    outer loop
      vertex -1.750000e+00 5.000000e-01 1.400000e-01
      vertex -1.900000e+00 5.000000e-01 1.400000e-01
      vertex -1.900000e+00 5.000000e-01 4.000000e-02
    endloop
  endfacet
  facet normal 0.000000e+00 -1.000000e+00 0.000000e+00
    outer loop
      vertex -1.750000e+00 5.000000e-01 1.400000e-01
      vertex -1.900000e+00 5.000000e-01 4.000000e-02
      vertex -1.650000e+00 5.000000e-01 4.000000e-02
    endloop
  endfacet
  facet normal 0.000000e+00 -1.000000e+00 0.000000e+00
    outer loop
      vertex -1.650000e+00 5.000000e-01 1.300000e+00
      vertex -1.900000e+00 5.000000e-01 1.300000e+00
      vertex -1.900000e+00 5.000000e-01 1.200000e+00
    endloop
  endfacet
  facet normal 0.000000e+00 -1.000000e+00 0.000000e+00
    outer loop
      vertex -1.650000e+00 5.000000e-01 1.300000e+00
      vertex -1.900000e+00 5.000000e-01 1.200000e+00
      vertex -1.750000e+00 5.000000e-01 1.200000e+00
    endloop
  endfacet
  facet normal 0.000000e+00 -1.000000e+00 0.000000e+00
    outer loop
      vertex -1.750000e+00 5.000000e-01 9.500000e-01
      vertex -1.900000e+00 5.000000e-01 9.481816e-01
      vertex -1.900000e+00 5.000000e-01 8.500000e-01
    endloop
  endfacet
  facet normal 0.000000e+00 -1.000000e+00 0.000000e+00
    outer loop
      vertex -1.750000e+00 5.000000e-01 9.500000e-01
      vertex -1.900000e+00 5.000000e-01 9.500000e-01
      vertex -1.900000e+00 5.000000e-01 9.481816e-01
    endloop
  endfacet
  facet normal 0.000000e+00 0.000000e+00 -1.000000e+00
    outer loop
      vertex -1.650000e+00 5.000000e-01 8.500000e-01
      vertex -1.900000e+00 5.000000e-01 8.500000e-01
      vertex -1.900000e+00 1.250000e+00 8.500000e-01
    endloop
  endfacet
  facet normal 0.000000e+00 -1.000000e+00 0.000000e+00
    outer loop
      vertex -1.650000e+00 5.000000e-01 8.500000e-01
      vertex -1.750000e+00 5.000000e-01 9.500000e-01
      vertex -1.900000e+00 5.000000e-01 8.500000e-01
    endloop
  endfacet
  facet normal 0.000000e+00 -1.000000e+00 0.000000e+00
    outer loop
      vertex -1.650000e+00 5.000000e-01 1.300000e+00
      vertex -1.750000e+00 5.000000e-01 1.200000e+00
      vertex -1.750000e+00 5.000000e-01 9.500000e-01
    endloop
  endfacet
  facet normal 0.000000e+00 -1.000000e+00 0.000000e+00
    outer loop
      vertex -1.650000e+00 5.000000e-01 8.500000e-01
      vertex -1.650000e+00 5.000000e-01 1.300000e+00
      vertex -1.750000e+00 5.000000e-01 9.500000e-01
    endloop
  endfacet
  facet normal 0.000000e+00 -1.000000e+00 0.000000e+00
    outer loop
      vertex -1.750000e+00 5.000000e-01 1.400000e-01
      vertex -1.650000e+00 5.000000e-01 4.000000e-02
      vertex -1.650000e+00 5.000000e-01 4.900000e-01
    endloop
  endfacet
  facet normal 0.000000e+00 -1.000000e+00 0.000000e+00
    outer loop
      vertex -1.750000e+00 5.000000e-01 3.900000e-01
      vertex -1.750000e+00 5.000000e-01 1.400000e-01
      vertex -1.650000e+00 5.000000e-01 4.900000e-01
    endloop
  endfacet
  facet normal 0.000000e+00 0.000000e+00 -1.000000e+00
    outer loop
      vertex 1.500000e+00 2.150000e+00 1.300000e+00
      vertex -1.500000e+00 9.000000e-01 1.300000e+00
      vertex -1.500000e+00 2.150000e+00 1.300000e+00
    endloop
  endfacet
  facet normal 0.000000e+00 0.000000e+00 -1.000000e+00
    outer loop
      vertex 1.500000e+00 2.150000e+00 1.300000e+00
      vertex 1.500000e+00 9.000000e-01 1.300000e+00
      vertex -1.500000e+00 9.000000e-01 1.300000e+00
    endloop
  endfacet
  facet normal 0.000000e+00 0.000000e+00 1.000000e+00
    outer loop
      vertex -1.375000e+00 2.000000e+00 1.400000e+00
      vertex 1.375000e+00 1.250000e+00 1.400000e+00
      vertex 1.375000e+00 2.000000e+00 1.400000e+00
    endloop
  endfacet
  facet normal 0.000000e+00 0.000000e+00 1.000000e+00
    outer loop
      vertex -1.375000e+00 2.000000e+00 1.400000e+00
      vertex -1.375000e+00 1.250000e+00 1.400000e+00
      vertex 1.375000e+00 1.250000e+00 1.400000e+00
    endloop
  endfacet
endsolid CARRIER_BACK
