solid C:\Temp\NOELParts\atlanta7830530 - Imported7-1.STL created by CtrlView V2.70
facet normal -0.239317 0 -0.970942
outer loop
vertex 52.8561 0.390001 61.1225
vertex 52.8561 39.39 61.1225
vertex 54.4187 0.390001 60.7373
endloop
endfacet
facet normal -0.239317 0 -0.970942
outer loop
vertex 54.4187 0.390001 60.7373
vertex 52.8561 39.39 61.1225
vertex 54.4187 39.39 60.7373
endloop
endfacet
facet normal -0.391967 0 -0.919979
outer loop
vertex 54.4187 0.390001 60.7373
vertex 54.4187 39.39 60.7373
vertex 55.8992 0.390001 60.1065
endloop
endfacet
facet normal -0.391967 0 -0.919979
outer loop
vertex 55.8992 0.390001 60.1065
vertex 54.4187 39.39 60.7373
vertex 55.8992 39.39 60.1065
endloop
endfacet
facet normal -0.534465 0 -0.845191
outer loop
vertex 55.8992 0.390001 60.1065
vertex 55.8992 39.39 60.1065
vertex 57.2594 0.390001 59.2464
endloop
endfacet
facet normal -0.534465 0 -0.845191
outer loop
vertex 57.2594 0.390001 59.2464
vertex 55.8992 39.39 60.1065
vertex 57.2594 39.39 59.2464
endloop
endfacet
facet normal -0.663123 0 -0.74851
outer loop
vertex 57.2594 0.390001 59.2464
vertex 57.2594 39.39 59.2464
vertex 58.464 0.390001 58.1792
endloop
endfacet
facet normal -0.663123 0 -0.74851
outer loop
vertex 58.464 0.390001 58.1792
vertex 57.2594 39.39 59.2464
vertex 58.464 39.39 58.1792
endloop
endfacet
facet normal -0.774604 0 -0.632447
outer loop
vertex 58.464 0.390001 58.1792
vertex 58.464 39.39 58.1792
vertex 59.4818 0.390001 56.9326
endloop
endfacet
facet normal -0.774604 0 -0.632447
outer loop
vertex 59.4818 0.390001 56.9326
vertex 58.464 39.39 58.1792
vertex 59.4818 39.39 56.9326
endloop
endfacet
facet normal -0.866027 0 -0.499998
outer loop
vertex 59.4818 0.390001 56.9326
vertex 59.4818 39.39 56.9326
vertex 60.2865 0.390001 55.5389
endloop
endfacet
facet normal -0.866027 0 -0.499998
outer loop
vertex 60.2865 0.390001 55.5389
vertex 59.4818 39.39 56.9326
vertex 60.2865 39.39 55.5389
endloop
endfacet
facet normal -0.935016 0 -0.354606
outer loop
vertex 60.2865 0.390001 55.5389
vertex 60.2865 39.39 55.5389
vertex 60.8572 0.390001 54.0342
endloop
endfacet
facet normal -0.935016 0 -0.354606
outer loop
vertex 60.8572 0.390001 54.0342
vertex 60.2865 39.39 55.5389
vertex 60.8572 39.39 54.0342
endloop
endfacet
facet normal -0.979791 0 -0.200026
outer loop
vertex 60.8572 0.390001 54.0342
vertex 60.8572 39.39 54.0342
vertex 61.1791 0.390001 52.4573
endloop
endfacet
facet normal -0.979791 0 -0.200026
outer loop
vertex 61.1791 0.390001 52.4573
vertex 60.8572 39.39 54.0342
vertex 61.1791 39.39 52.4573
endloop
endfacet
facet normal -0.999189 0 -0.0402654
outer loop
vertex 61.1791 0.390001 52.4573
vertex 61.1791 39.39 52.4573
vertex 61.2439 0.390001 50.8493
endloop
endfacet
facet normal -0.999189 0 -0.0402654
outer loop
vertex 61.2439 0.390001 50.8493
vertex 61.1791 39.39 52.4573
vertex 61.2439 39.39 50.8493
endloop
endfacet
facet normal -0.992709 0 0.120538
outer loop
vertex 61.2439 0.390001 50.8493
vertex 61.2439 39.39 50.8493
vertex 61.0499 0.390001 49.2517
endloop
endfacet
facet normal -0.992709 0 0.120538
outer loop
vertex 61.0499 0.390001 49.2517
vertex 61.2439 39.39 50.8493
vertex 61.0499 39.39 49.2517
endloop
endfacet
facet normal -0.960518 0 0.278217
outer loop
vertex 61.0499 0.390001 49.2517
vertex 61.0499 39.39 49.2517
vertex 60.6022 0.390001 47.7059
endloop
endfacet
facet normal -0.960518 0 0.278217
outer loop
vertex 60.6022 0.390001 47.7059
vertex 61.0499 39.39 49.2517
vertex 60.6022 39.39 47.7059
endloop
endfacet
facet normal -0.903451 0 0.428692
outer loop
vertex 60.6022 0.390001 47.7059
vertex 60.6022 39.39 47.7059
vertex 59.9123 0.390001 46.252
endloop
endfacet
facet normal -0.903451 0 0.428692
outer loop
vertex 59.9123 0.390001 46.252
vertex 60.6022 39.39 47.7059
vertex 59.9123 39.39 46.252
endloop
endfacet
facet normal -0.822984 0 0.568064
outer loop
vertex 59.9123 0.390001 46.252
vertex 59.9123 39.39 46.252
vertex 58.998 0.390001 44.9275
endloop
endfacet
facet normal -0.822984 0 0.568064
outer loop
vertex 58.998 0.390001 44.9275
vertex 59.9123 39.39 46.252
vertex 58.998 39.39 44.9275
endloop
endfacet
facet normal -0.721201 0 0.692726
outer loop
vertex 58.998 0.390001 44.9275
vertex 58.998 39.39 44.9275
vertex 57.8832 0.390001 43.7669
endloop
endfacet
facet normal -0.721201 0 0.692726
outer loop
vertex 57.8832 0.390001 43.7669
vertex 58.998 39.39 44.9275
vertex 57.8832 39.39 43.7669
endloop
endfacet
facet normal -0.600745 0 0.799441
outer loop
vertex 57.8832 0.390001 43.7669
vertex 57.8832 39.39 43.7669
vertex 56.5967 0.390001 42.8001
endloop
endfacet
facet normal -0.600745 0 0.799441
outer loop
vertex 56.5967 0.390001 42.8001
vertex 57.8832 39.39 43.7669
vertex 56.5967 39.39 42.8001
endloop
endfacet
facet normal -0.464721 0 0.885457
outer loop
vertex 56.5967 0.390001 42.8001
vertex 56.5967 39.39 42.8001
vertex 55.1717 0.390001 42.0522
endloop
endfacet
facet normal -0.464721 0 0.885457
outer loop
vertex 55.1717 0.390001 42.0522
vertex 56.5967 39.39 42.8001
vertex 55.1717 39.39 42.0522
endloop
endfacet
facet normal -0.316669 0 0.948536
outer loop
vertex 55.1717 0.390001 42.0522
vertex 55.1717 39.39 42.0522
vertex 53.6452 0.390001 41.5426
endloop
endfacet
facet normal -0.316669 0 0.948536
outer loop
vertex 53.6452 0.390001 41.5426
vertex 55.1717 39.39 42.0522
vertex 53.6452 39.39 41.5426
endloop
endfacet
facet normal -0.160412 0 0.98705
outer loop
vertex 53.6452 0.390001 41.5426
vertex 53.6452 39.39 41.5426
vertex 52.0567 0.390001 41.2844
endloop
endfacet
facet normal -0.160412 0 0.98705
outer loop
vertex 52.0567 0.390001 41.2844
vertex 53.6452 39.39 41.5426
vertex 52.0567 39.39 41.2844
endloop
endfacet
facet normal 0 0 1
outer loop
vertex 52.0567 0.390001 41.2844
vertex 52.0567 39.39 41.2844
vertex 50.4473 0.390001 41.2844
endloop
endfacet
facet normal 0 0 1
outer loop
vertex 50.4473 0.390001 41.2844
vertex 52.0567 39.39 41.2844
vertex 50.4473 39.39 41.2844
endloop
endfacet
facet normal 0.160412 0 0.98705
outer loop
vertex 50.4473 0.390001 41.2844
vertex 50.4473 39.39 41.2844
vertex 48.8588 0.390001 41.5426
endloop
endfacet
facet normal 0.160412 0 0.98705
outer loop
vertex 48.8588 0.390001 41.5426
vertex 50.4473 39.39 41.2844
vertex 48.8588 39.39 41.5426
endloop
endfacet
facet normal 0.316669 0 0.948536
outer loop
vertex 48.8588 0.390001 41.5426
vertex 48.8588 39.39 41.5426
vertex 47.3323 0.390001 42.0522
endloop
endfacet
facet normal 0.316669 0 0.948536
outer loop
vertex 47.3323 0.390001 42.0522
vertex 48.8588 39.39 41.5426
vertex 47.3323 39.39 42.0522
endloop
endfacet
facet normal 0.464721 0 0.885457
outer loop
vertex 47.3323 0.390001 42.0522
vertex 47.3323 39.39 42.0522
vertex 45.9073 0.390001 42.8001
endloop
endfacet
facet normal 0.464721 0 0.885457
outer loop
vertex 45.9073 0.390001 42.8001
vertex 47.3323 39.39 42.0522
vertex 45.9073 39.39 42.8001
endloop
endfacet
facet normal 0.600744 0 0.799442
outer loop
vertex 45.9073 0.390001 42.8001
vertex 45.9073 39.39 42.8001
vertex 44.6208 0.390001 43.7669
endloop
endfacet
facet normal 0.600744 0 0.799442
outer loop
vertex 44.6208 0.390001 43.7669
vertex 45.9073 39.39 42.8001
vertex 44.6208 39.39 43.7669
endloop
endfacet
facet normal 0.721201 0 0.692726
outer loop
vertex 44.6208 0.390001 43.7669
vertex 44.6208 39.39 43.7669
vertex 43.5059 0.390001 44.9275
endloop
endfacet
facet normal 0.721201 0 0.692726
outer loop
vertex 43.5059 0.390001 44.9275
vertex 44.6208 39.39 43.7669
vertex 43.5059 39.39 44.9275
endloop
endfacet
facet normal 0.822985 0 0.568063
outer loop
vertex 43.5059 0.390001 44.9275
vertex 43.5059 39.39 44.9275
vertex 42.5917 0.390001 46.252
endloop
endfacet
facet normal 0.822985 0 0.568063
outer loop
vertex 42.5917 0.390001 46.252
vertex 43.5059 39.39 44.9275
vertex 42.5917 39.39 46.252
endloop
endfacet
facet normal 0.90345 0 0.428694
outer loop
vertex 42.5917 0.390001 46.252
vertex 42.5917 39.39 46.252
vertex 41.9018 0.390001 47.7059
endloop
endfacet
facet normal 0.90345 0 0.428694
outer loop
vertex 41.9018 0.390001 47.7059
vertex 42.5917 39.39 46.252
vertex 41.9018 39.39 47.7059
endloop
endfacet
facet normal 0.960518 0 0.278217
outer loop
vertex 41.9018 0.390001 47.7059
vertex 41.9018 39.39 47.7059
vertex 41.4541 0.390001 49.2517
endloop
endfacet
facet normal 0.960518 0 0.278217
outer loop
vertex 41.4541 0.390001 49.2517
vertex 41.9018 39.39 47.7059
vertex 41.4541 39.39 49.2517
endloop
endfacet
facet normal 0.992709 0 0.120535
outer loop
vertex 41.4541 0.390001 49.2517
vertex 41.4541 39.39 49.2517
vertex 41.2601 0.390001 50.8493
endloop
endfacet
facet normal 0.992709 0 0.120535
outer loop
vertex 41.2601 0.390001 50.8493
vertex 41.4541 39.39 49.2517
vertex 41.2601 39.39 50.8493
endloop
endfacet
facet normal 0.999189 0 -0.040263
outer loop
vertex 41.2601 0.390001 50.8493
vertex 41.2601 39.39 50.8493
vertex 41.3249 0.390001 52.4573
endloop
endfacet
facet normal 0.999189 0 -0.040263
outer loop
vertex 41.3249 0.390001 52.4573
vertex 41.2601 39.39 50.8493
vertex 41.3249 39.39 52.4573
endloop
endfacet
facet normal 0.97979 0 -0.200028
outer loop
vertex 41.3249 0.390001 52.4573
vertex 41.3249 39.39 52.4573
vertex 41.6468 0.390001 54.0342
endloop
endfacet
facet normal 0.97979 0 -0.200028
outer loop
vertex 41.6468 0.390001 54.0342
vertex 41.3249 39.39 52.4573
vertex 41.6468 39.39 54.0342
endloop
endfacet
facet normal 0.935017 0 -0.354603
outer loop
vertex 41.6468 0.390001 54.0342
vertex 41.6468 39.39 54.0342
vertex 42.2175 0.390001 55.5389
endloop
endfacet
facet normal 0.935017 0 -0.354603
outer loop
vertex 42.2175 0.390001 55.5389
vertex 41.6468 39.39 54.0342
vertex 42.2175 39.39 55.5389
endloop
endfacet
facet normal 0.866026 0 -0.499999
outer loop
vertex 42.2175 0.390001 55.5389
vertex 42.2175 39.39 55.5389
vertex 43.0222 0.390001 56.9326
endloop
endfacet
facet normal 0.866026 0 -0.499999
outer loop
vertex 43.0222 0.390001 56.9326
vertex 42.2175 39.39 55.5389
vertex 43.0222 39.39 56.9326
endloop
endfacet
facet normal 0.774605 0 -0.632445
outer loop
vertex 43.0222 0.390001 56.9326
vertex 43.0222 39.39 56.9326
vertex 44.04 0.390001 58.1792
endloop
endfacet
facet normal 0.774605 0 -0.632445
outer loop
vertex 44.04 0.390001 58.1792
vertex 43.0222 39.39 56.9326
vertex 44.04 39.39 58.1792
endloop
endfacet
facet normal 0.663122 0 -0.748512
outer loop
vertex 44.04 0.390001 58.1792
vertex 44.04 39.39 58.1792
vertex 45.2446 0.390001 59.2464
endloop
endfacet
facet normal 0.663122 0 -0.748512
outer loop
vertex 45.2446 0.390001 59.2464
vertex 44.04 39.39 58.1792
vertex 45.2446 39.39 59.2464
endloop
endfacet
facet normal 0.534466 0 -0.84519
outer loop
vertex 45.2446 0.390001 59.2464
vertex 45.2446 39.39 59.2464
vertex 46.6048 0.390001 60.1065
endloop
endfacet
facet normal 0.534466 0 -0.84519
outer loop
vertex 46.6048 0.390001 60.1065
vertex 45.2446 39.39 59.2464
vertex 46.6048 39.39 60.1065
endloop
endfacet
facet normal 0.391967 0 -0.919979
outer loop
vertex 46.6048 0.390001 60.1065
vertex 46.6048 39.39 60.1065
vertex 48.0853 0.390001 60.7373
endloop
endfacet
facet normal 0.391967 0 -0.919979
outer loop
vertex 48.0853 0.390001 60.7373
vertex 46.6048 39.39 60.1065
vertex 48.0853 39.39 60.7373
endloop
endfacet
facet normal 0.239316 0 -0.970942
outer loop
vertex 48.0853 0.390001 60.7373
vertex 48.0853 39.39 60.7373
vertex 49.6479 0.390001 61.1225
endloop
endfacet
facet normal 0.239316 0 -0.970942
outer loop
vertex 49.6479 0.390001 61.1225
vertex 48.0853 39.39 60.7373
vertex 49.6479 39.39 61.1225
endloop
endfacet
facet normal 0.0804668 0 -0.996757
outer loop
vertex 49.6479 0.390001 61.1225
vertex 49.6479 39.39 61.1225
vertex 51.252 0.390001 61.252
endloop
endfacet
facet normal 0.0804668 0 -0.996757
outer loop
vertex 51.252 0.390001 61.252
vertex 49.6479 39.39 61.1225
vertex 51.252 39.39 61.252
endloop
endfacet
facet normal -0.0804666 0 -0.996757
outer loop
vertex 51.252 0.390001 61.252
vertex 51.252 39.39 61.252
vertex 52.8561 0.390001 61.1225
endloop
endfacet
facet normal -0.0804666 0 -0.996757
outer loop
vertex 52.8561 0.390001 61.1225
vertex 51.252 39.39 61.252
vertex 52.8561 39.39 61.1225
endloop
endfacet
facet normal 0 -1 0
outer loop
vertex 52.0567 0.390001 41.2844
vertex 54.6624 0.390001 31.5449
vertex 53.6452 0.390001 41.5426
endloop
endfacet
facet normal 0 -1 0
outer loop
vertex 53.6452 0.390001 41.5426
vertex 54.6624 0.390001 31.5449
vertex 56.8866 0.390001 32.0621
endloop
endfacet
facet normal 0 -1 0
outer loop
vertex 53.6452 0.390001 41.5426
vertex 56.8866 0.390001 32.0621
vertex 55.1717 0.390001 42.0522
endloop
endfacet
facet normal 0 -1 0
outer loop
vertex 55.1717 0.390001 42.0522
vertex 56.8866 0.390001 32.0621
vertex 59.0374 0.390001 32.8295
endloop
endfacet
facet normal 0 -1 0
outer loop
vertex 55.1717 0.390001 42.0522
vertex 59.0374 0.390001 32.8295
vertex 56.5967 0.390001 42.8001
endloop
endfacet
facet normal 0 -1 0
outer loop
vertex 58.998 0.390001 44.9275
vertex 67.7614 0.390001 39.9631
vertex 59.9123 0.390001 46.252
endloop
endfacet
facet normal 0 -1 0
outer loop
vertex 59.9123 0.390001 46.252
vertex 67.7614 0.390001 39.9631
vertex 68.9407 0.390001 41.9186
endloop
endfacet
facet normal 0 -1 0
outer loop
vertex 59.9123 0.390001 46.252
vertex 68.9407 0.390001 41.9186
vertex 60.6022 0.390001 47.7059
endloop
endfacet
facet normal 0 -1 0
outer loop
vertex 60.6022 0.390001 47.7059
vertex 68.9407 0.390001 41.9186
vertex 69.8893 0.390001 43.9958
endloop
endfacet
facet normal 0 -1 0
outer loop
vertex 60.6022 0.390001 47.7059
vertex 69.8893 0.390001 43.9958
vertex 61.0499 0.390001 49.2517
endloop
endfacet
facet normal 0 -1 0
outer loop
vertex 59.0374 0.390001 32.8295
vertex 61.0867 0.390001 33.8371
vertex 56.5967 0.390001 42.8001
endloop
endfacet
facet normal 0 -1 0
outer loop
vertex 56.5967 0.390001 42.8001
vertex 61.0867 0.390001 33.8371
vertex 63.0077 0.390001 35.0716
endloop
endfacet
facet normal 0 -1 0
outer loop
vertex 56.5967 0.390001 42.8001
vertex 63.0077 0.390001 35.0716
vertex 57.8832 0.390001 43.7669
endloop
endfacet
facet normal 0 -1 0
outer loop
vertex 57.8832 0.390001 43.7669
vertex 63.0077 0.390001 35.0716
vertex 64.7755 0.390001 36.5172
endloop
endfacet
facet normal 0 -1 0
outer loop
vertex 57.8832 0.390001 43.7669
vertex 64.7755 0.390001 36.5172
vertex 58.998 0.390001 44.9275
endloop
endfacet
facet normal 0 -1 0
outer loop
vertex 58.998 0.390001 44.9275
vertex 64.7755 0.390001 36.5172
vertex 66.367 0.390001 38.1548
endloop
endfacet
facet normal 0 -1 0
outer loop
vertex 58.998 0.390001 44.9275
vertex 66.367 0.390001 38.1548
vertex 67.7614 0.390001 39.9631
endloop
endfacet
facet normal 0 -1 0
outer loop
vertex 48.8588 0.390001 41.5426
vertex 47.8416 0.390001 31.5449
vertex 50.4473 0.390001 41.2844
endloop
endfacet
facet normal 0 -1 0
outer loop
vertex 50.4473 0.390001 41.2844
vertex 47.8416 0.390001 31.5449
vertex 50.1102 0.390001 31.2846
endloop
endfacet
facet normal 0 -1 0
outer loop
vertex 50.4473 0.390001 41.2844
vertex 50.1102 0.390001 31.2846
vertex 52.0567 0.390001 41.2844
endloop
endfacet
facet normal 0 -1 0
outer loop
vertex 52.0567 0.390001 41.2844
vertex 50.1102 0.390001 31.2846
vertex 52.3938 0.390001 31.2846
endloop
endfacet
facet normal 0 -1 0
outer loop
vertex 52.0567 0.390001 41.2844
vertex 52.3938 0.390001 31.2846
vertex 54.6624 0.390001 31.5449
endloop
endfacet
facet normal 0 -1 0
outer loop
vertex 44.6208 0.390001 43.7669
vertex 39.4963 0.390001 35.0716
vertex 45.9073 0.390001 42.8001
endloop
endfacet
facet normal 0 -1 0
outer loop
vertex 45.9073 0.390001 42.8001
vertex 39.4963 0.390001 35.0716
vertex 41.4173 0.390001 33.8371
endloop
endfacet
facet normal 0 -1 0
outer loop
vertex 45.9073 0.390001 42.8001
vertex 41.4173 0.390001 33.8371
vertex 47.3323 0.390001 42.0522
endloop
endfacet
facet normal 0 -1 0
outer loop
vertex 47.3323 0.390001 42.0522
vertex 41.4173 0.390001 33.8371
vertex 43.4666 0.390001 32.8295
endloop
endfacet
facet normal 0 -1 0
outer loop
vertex 47.3323 0.390001 42.0522
vertex 43.4666 0.390001 32.8295
vertex 48.8588 0.390001 41.5426
endloop
endfacet
facet normal 0 -1 0
outer loop
vertex 48.8588 0.390001 41.5426
vertex 43.4666 0.390001 32.8295
vertex 45.6173 0.390001 32.0621
endloop
endfacet
facet normal 0 -1 0
outer loop
vertex 48.8588 0.390001 41.5426
vertex 45.6173 0.390001 32.0621
vertex 47.8416 0.390001 31.5449
endloop
endfacet
facet normal 0 -1 0
outer loop
vertex 41.6468 0.390001 54.0342
vertex 31.6503 0.390001 55.2238
vertex 41.3249 0.390001 52.4573
endloop
endfacet
facet normal 0 -1 0
outer loop
vertex 41.3249 0.390001 52.4573
vertex 31.6503 0.390001 55.2238
vertex 31.3254 0.390001 52.9635
endloop
endfacet
facet normal 0 -1 0
outer loop
vertex 41.3249 0.390001 52.4573
vertex 31.3254 0.390001 52.9635
vertex 41.2601 0.390001 50.8493
endloop
endfacet
facet normal 0 -1 0
outer loop
vertex 49.6479 0.390001 61.1225
vertex 46.7221 0.390001 70.7322
vertex 48.0853 0.390001 60.7373
endloop
endfacet
facet normal 0 -1 0
outer loop
vertex 48.0853 0.390001 60.7373
vertex 46.7221 0.390001 70.7322
vertex 44.531 0.390001 70.0889
endloop
endfacet
facet normal 0 -1 0
outer loop
vertex 48.0853 0.390001 60.7373
vertex 44.531 0.390001 70.0889
vertex 46.6048 0.390001 60.1065
endloop
endfacet
facet normal 0 -1 0
outer loop
vertex 54.4187 0.390001 60.7373
vertex 55.7819 0.390001 70.7322
vertex 52.8561 0.390001 61.1225
endloop
endfacet
facet normal 0 -1 0
outer loop
vertex 52.8561 0.390001 61.1225
vertex 55.7819 0.390001 70.7322
vertex 53.5318 0.390001 71.1216
endloop
endfacet
facet normal 0 -1 0
outer loop
vertex 52.8561 0.390001 61.1225
vertex 53.5318 0.390001 71.1216
vertex 51.252 0.390001 61.252
endloop
endfacet
facet normal 0 -1 0
outer loop
vertex 51.252 0.390001 61.252
vertex 53.5318 0.390001 71.1216
vertex 51.252 0.390001 71.252
endloop
endfacet
facet normal 0 -1 0
outer loop
vertex 51.252 0.390001 61.252
vertex 51.252 0.390001 71.252
vertex 49.6479 0.390001 61.1225
endloop
endfacet
facet normal 0 -1 0
outer loop
vertex 49.6479 0.390001 61.1225
vertex 51.252 0.390001 71.252
vertex 48.9722 0.390001 71.1216
endloop
endfacet
facet normal 0 -1 0
outer loop
vertex 49.6479 0.390001 61.1225
vertex 48.9722 0.390001 71.1216
vertex 46.7221 0.390001 70.7322
endloop
endfacet
facet normal 0 -1 0
outer loop
vertex 42.5917 0.390001 46.252
vertex 34.7426 0.390001 39.9631
vertex 43.5059 0.390001 44.9275
endloop
endfacet
facet normal 0 -1 0
outer loop
vertex 43.5059 0.390001 44.9275
vertex 34.7426 0.390001 39.9631
vertex 36.137 0.390001 38.1548
endloop
endfacet
facet normal 0 -1 0
outer loop
vertex 43.5059 0.390001 44.9275
vertex 36.137 0.390001 38.1548
vertex 44.6208 0.390001 43.7669
endloop
endfacet
facet normal 0 -1 0
outer loop
vertex 44.6208 0.390001 43.7669
vertex 36.137 0.390001 38.1548
vertex 37.7285 0.390001 36.5172
endloop
endfacet
facet normal 0 -1 0
outer loop
vertex 44.6208 0.390001 43.7669
vertex 37.7285 0.390001 36.5172
vertex 39.4963 0.390001 35.0716
endloop
endfacet
facet normal 0 -1 0
outer loop
vertex 44.531 0.390001 70.0889
vertex 42.4276 0.390001 69.2
vertex 46.6048 0.390001 60.1065
endloop
endfacet
facet normal 0 -1 0
outer loop
vertex 46.6048 0.390001 60.1065
vertex 42.4276 0.390001 69.2
vertex 40.4392 0.390001 68.077
endloop
endfacet
facet normal 0 -1 0
outer loop
vertex 46.6048 0.390001 60.1065
vertex 40.4392 0.390001 68.077
vertex 45.2446 0.390001 59.2464
endloop
endfacet
facet normal 0 -1 0
outer loop
vertex 45.2446 0.390001 59.2464
vertex 40.4392 0.390001 68.077
vertex 38.5917 0.390001 66.7348
endloop
endfacet
facet normal 0 -1 0
outer loop
vertex 45.2446 0.390001 59.2464
vertex 38.5917 0.390001 66.7348
vertex 44.04 0.390001 58.1792
endloop
endfacet
facet normal 0 -1 0
outer loop
vertex 44.04 0.390001 58.1792
vertex 38.5917 0.390001 66.7348
vertex 36.9094 0.390001 65.1907
endloop
endfacet
facet normal 0 -1 0
outer loop
vertex 44.04 0.390001 58.1792
vertex 36.9094 0.390001 65.1907
vertex 43.0222 0.390001 56.9326
endloop
endfacet
facet normal 0 -1 0
outer loop
vertex 57.2594 0.390001 59.2464
vertex 62.0648 0.390001 68.077
vertex 55.8992 0.390001 60.1065
endloop
endfacet
facet normal 0 -1 0
outer loop
vertex 55.8992 0.390001 60.1065
vertex 62.0648 0.390001 68.077
vertex 60.0764 0.390001 69.2
endloop
endfacet
facet normal 0 -1 0
outer loop
vertex 55.8992 0.390001 60.1065
vertex 60.0764 0.390001 69.2
vertex 54.4187 0.390001 60.7373
endloop
endfacet
facet normal 0 -1 0
outer loop
vertex 54.4187 0.390001 60.7373
vertex 60.0764 0.390001 69.2
vertex 57.973 0.390001 70.0889
endloop
endfacet
facet normal 0 -1 0
outer loop
vertex 54.4187 0.390001 60.7373
vertex 57.973 0.390001 70.0889
vertex 55.7819 0.390001 70.7322
endloop
endfacet
facet normal 0 -1 0
outer loop
vertex 36.9094 0.390001 65.1907
vertex 35.414 0.390001 63.4649
vertex 43.0222 0.390001 56.9326
endloop
endfacet
facet normal 0 -1 0
outer loop
vertex 43.0222 0.390001 56.9326
vertex 35.414 0.390001 63.4649
vertex 34.125 0.390001 61.5799
endloop
endfacet
facet normal 0 -1 0
outer loop
vertex 43.0222 0.390001 56.9326
vertex 34.125 0.390001 61.5799
vertex 42.2175 0.390001 55.5389
endloop
endfacet
facet normal 0 -1 0
outer loop
vertex 42.2175 0.390001 55.5389
vertex 34.125 0.390001 61.5799
vertex 33.0594 0.390001 59.5603
endloop
endfacet
facet normal 0 -1 0
outer loop
vertex 42.2175 0.390001 55.5389
vertex 33.0594 0.390001 59.5603
vertex 41.6468 0.390001 54.0342
endloop
endfacet
facet normal 0 -1 0
outer loop
vertex 41.6468 0.390001 54.0342
vertex 33.0594 0.390001 59.5603
vertex 32.2309 0.390001 57.4323
endloop
endfacet
facet normal 0 -1 0
outer loop
vertex 41.6468 0.390001 54.0342
vertex 32.2309 0.390001 57.4323
vertex 31.6503 0.390001 55.2238
endloop
endfacet
facet normal 0 -1 0
outer loop
vertex 60.2865 0.390001 55.5389
vertex 68.379 0.390001 61.5799
vertex 59.4818 0.390001 56.9326
endloop
endfacet
facet normal 0 -1 0
outer loop
vertex 59.4818 0.390001 56.9326
vertex 68.379 0.390001 61.5799
vertex 67.09 0.390001 63.4649
endloop
endfacet
facet normal 0 -1 0
outer loop
vertex 59.4818 0.390001 56.9326
vertex 67.09 0.390001 63.4649
vertex 58.464 0.390001 58.1792
endloop
endfacet
facet normal 0 -1 0
outer loop
vertex 58.464 0.390001 58.1792
vertex 67.09 0.390001 63.4649
vertex 65.5946 0.390001 65.1907
endloop
endfacet
facet normal 0 -1 0
outer loop
vertex 58.464 0.390001 58.1792
vertex 65.5946 0.390001 65.1907
vertex 57.2594 0.390001 59.2464
endloop
endfacet
facet normal 0 -1 0
outer loop
vertex 57.2594 0.390001 59.2464
vertex 65.5946 0.390001 65.1907
vertex 63.9122 0.390001 66.7348
endloop
endfacet
facet normal 0 -1 0
outer loop
vertex 57.2594 0.390001 59.2464
vertex 63.9122 0.390001 66.7348
vertex 62.0648 0.390001 68.077
endloop
endfacet
facet normal 0 -1 0
outer loop
vertex 31.3254 0.390001 52.9635
vertex 31.2602 0.390001 50.6809
vertex 41.2601 0.390001 50.8493
endloop
endfacet
facet normal 0 -1 0
outer loop
vertex 41.2601 0.390001 50.8493
vertex 31.2602 0.390001 50.6809
vertex 31.4556 0.390001 48.4057
endloop
endfacet
facet normal 0 -1 0
outer loop
vertex 41.2601 0.390001 50.8493
vertex 31.4556 0.390001 48.4057
vertex 41.4541 0.390001 49.2517
endloop
endfacet
facet normal 0 -1 0
outer loop
vertex 41.4541 0.390001 49.2517
vertex 31.4556 0.390001 48.4057
vertex 31.9091 0.390001 46.1676
endloop
endfacet
facet normal 0 -1 0
outer loop
vertex 41.4541 0.390001 49.2517
vertex 31.9091 0.390001 46.1676
vertex 41.9018 0.390001 47.7059
endloop
endfacet
facet normal 0 -1 0
outer loop
vertex 41.9018 0.390001 47.7059
vertex 31.9091 0.390001 46.1676
vertex 32.6147 0.390001 43.9958
endloop
endfacet
facet normal 0 -1 0
outer loop
vertex 41.9018 0.390001 47.7059
vertex 32.6147 0.390001 43.9958
vertex 42.5917 0.390001 46.252
endloop
endfacet
facet normal 0 -1 0
outer loop
vertex 42.5917 0.390001 46.252
vertex 32.6147 0.390001 43.9958
vertex 33.5633 0.390001 41.9186
endloop
endfacet
facet normal 0 -1 0
outer loop
vertex 42.5917 0.390001 46.252
vertex 33.5633 0.390001 41.9186
vertex 34.7426 0.390001 39.9631
endloop
endfacet
facet normal 0 -1 0
outer loop
vertex 61.1791 0.390001 52.4573
vertex 70.8537 0.390001 55.2238
vertex 60.8572 0.390001 54.0342
endloop
endfacet
facet normal 0 -1 0
outer loop
vertex 60.8572 0.390001 54.0342
vertex 70.8537 0.390001 55.2238
vertex 70.2731 0.390001 57.4323
endloop
endfacet
facet normal 0 -1 0
outer loop
vertex 60.8572 0.390001 54.0342
vertex 70.2731 0.390001 57.4323
vertex 60.2865 0.390001 55.5389
endloop
endfacet
facet normal 0 -1 0
outer loop
vertex 60.2865 0.390001 55.5389
vertex 70.2731 0.390001 57.4323
vertex 69.4446 0.390001 59.5603
endloop
endfacet
facet normal 0 -1 0
outer loop
vertex 60.2865 0.390001 55.5389
vertex 69.4446 0.390001 59.5603
vertex 68.379 0.390001 61.5799
endloop
endfacet
facet normal 0 -1 0
outer loop
vertex 69.8893 0.390001 43.9958
vertex 70.5949 0.390001 46.1676
vertex 61.0499 0.390001 49.2517
endloop
endfacet
facet normal 0 -1 0
outer loop
vertex 61.0499 0.390001 49.2517
vertex 70.5949 0.390001 46.1676
vertex 71.0484 0.390001 48.4057
endloop
endfacet
facet normal 0 -1 0
outer loop
vertex 61.0499 0.390001 49.2517
vertex 71.0484 0.390001 48.4057
vertex 61.2439 0.390001 50.8493
endloop
endfacet
facet normal 0 -1 0
outer loop
vertex 61.2439 0.390001 50.8493
vertex 71.0484 0.390001 48.4057
vertex 71.2438 0.390001 50.6809
endloop
endfacet
facet normal 0 -1 0
outer loop
vertex 61.2439 0.390001 50.8493
vertex 71.2438 0.390001 50.6809
vertex 61.1791 0.390001 52.4573
endloop
endfacet
facet normal 0 -1 0
outer loop
vertex 61.1791 0.390001 52.4573
vertex 71.2438 0.390001 50.6809
vertex 71.1786 0.390001 52.9635
endloop
endfacet
facet normal 0 -1 0
outer loop
vertex 61.1791 0.390001 52.4573
vertex 71.1786 0.390001 52.9635
vertex 70.8537 0.390001 55.2238
endloop
endfacet
facet normal 0 1 0
outer loop
vertex 48.0853 39.39 60.7373
vertex 46.7221 39.39 70.7322
vertex 49.6479 39.39 61.1225
endloop
endfacet
facet normal 0 1 0
outer loop
vertex 49.6479 39.39 61.1225
vertex 46.7221 39.39 70.7322
vertex 48.9722 39.39 71.1216
endloop
endfacet
facet normal 0 1 0
outer loop
vertex 49.6479 39.39 61.1225
vertex 48.9722 39.39 71.1216
vertex 51.252 39.39 61.252
endloop
endfacet
facet normal 0 1 0
outer loop
vertex 51.252 39.39 61.252
vertex 48.9722 39.39 71.1216
vertex 51.252 39.39 71.252
endloop
endfacet
facet normal 0 1 0
outer loop
vertex 51.252 39.39 61.252
vertex 51.252 39.39 71.252
vertex 52.8561 39.39 61.1225
endloop
endfacet
facet normal 0 1 0
outer loop
vertex 42.2175 39.39 55.5389
vertex 34.125 39.39 61.5799
vertex 43.0222 39.39 56.9326
endloop
endfacet
facet normal 0 1 0
outer loop
vertex 43.0222 39.39 56.9326
vertex 34.125 39.39 61.5799
vertex 35.414 39.39 63.4649
endloop
endfacet
facet normal 0 1 0
outer loop
vertex 43.0222 39.39 56.9326
vertex 35.414 39.39 63.4649
vertex 44.04 39.39 58.1792
endloop
endfacet
facet normal 0 1 0
outer loop
vertex 44.04 39.39 58.1792
vertex 35.414 39.39 63.4649
vertex 36.9094 39.39 65.1907
endloop
endfacet
facet normal 0 1 0
outer loop
vertex 44.04 39.39 58.1792
vertex 36.9094 39.39 65.1907
vertex 45.2446 39.39 59.2464
endloop
endfacet
facet normal 0 1 0
outer loop
vertex 61.2439 39.39 50.8493
vertex 71.0484 39.39 48.4057
vertex 61.0499 39.39 49.2517
endloop
endfacet
facet normal 0 1 0
outer loop
vertex 61.0499 39.39 49.2517
vertex 71.0484 39.39 48.4057
vertex 70.5949 39.39 46.1676
endloop
endfacet
facet normal 0 1 0
outer loop
vertex 61.0499 39.39 49.2517
vertex 70.5949 39.39 46.1676
vertex 60.6022 39.39 47.7059
endloop
endfacet
facet normal 0 1 0
outer loop
vertex 60.6022 39.39 47.7059
vertex 70.5949 39.39 46.1676
vertex 69.8893 39.39 43.9958
endloop
endfacet
facet normal 0 1 0
outer loop
vertex 60.6022 39.39 47.7059
vertex 69.8893 39.39 43.9958
vertex 59.9123 39.39 46.252
endloop
endfacet
facet normal 0 1 0
outer loop
vertex 55.8992 39.39 60.1065
vertex 62.0648 39.39 68.077
vertex 57.2594 39.39 59.2464
endloop
endfacet
facet normal 0 1 0
outer loop
vertex 57.2594 39.39 59.2464
vertex 62.0648 39.39 68.077
vertex 63.9122 39.39 66.7348
endloop
endfacet
facet normal 0 1 0
outer loop
vertex 57.2594 39.39 59.2464
vertex 63.9122 39.39 66.7348
vertex 58.464 39.39 58.1792
endloop
endfacet
facet normal 0 1 0
outer loop
vertex 58.464 39.39 58.1792
vertex 63.9122 39.39 66.7348
vertex 65.5946 39.39 65.1907
endloop
endfacet
facet normal 0 1 0
outer loop
vertex 58.464 39.39 58.1792
vertex 65.5946 39.39 65.1907
vertex 59.4818 39.39 56.9326
endloop
endfacet
facet normal 0 1 0
outer loop
vertex 36.9094 39.39 65.1907
vertex 38.5917 39.39 66.7348
vertex 45.2446 39.39 59.2464
endloop
endfacet
facet normal 0 1 0
outer loop
vertex 45.2446 39.39 59.2464
vertex 38.5917 39.39 66.7348
vertex 40.4392 39.39 68.077
endloop
endfacet
facet normal 0 1 0
outer loop
vertex 45.2446 39.39 59.2464
vertex 40.4392 39.39 68.077
vertex 46.6048 39.39 60.1065
endloop
endfacet
facet normal 0 1 0
outer loop
vertex 46.6048 39.39 60.1065
vertex 40.4392 39.39 68.077
vertex 42.4276 39.39 69.2
endloop
endfacet
facet normal 0 1 0
outer loop
vertex 46.6048 39.39 60.1065
vertex 42.4276 39.39 69.2
vertex 48.0853 39.39 60.7373
endloop
endfacet
facet normal 0 1 0
outer loop
vertex 48.0853 39.39 60.7373
vertex 42.4276 39.39 69.2
vertex 44.531 39.39 70.0889
endloop
endfacet
facet normal 0 1 0
outer loop
vertex 48.0853 39.39 60.7373
vertex 44.531 39.39 70.0889
vertex 46.7221 39.39 70.7322
endloop
endfacet
facet normal 0 1 0
outer loop
vertex 41.3249 39.39 52.4573
vertex 31.6503 39.39 55.2238
vertex 41.6468 39.39 54.0342
endloop
endfacet
facet normal 0 1 0
outer loop
vertex 41.6468 39.39 54.0342
vertex 31.6503 39.39 55.2238
vertex 32.2309 39.39 57.4323
endloop
endfacet
facet normal 0 1 0
outer loop
vertex 41.6468 39.39 54.0342
vertex 32.2309 39.39 57.4323
vertex 42.2175 39.39 55.5389
endloop
endfacet
facet normal 0 1 0
outer loop
vertex 42.2175 39.39 55.5389
vertex 32.2309 39.39 57.4323
vertex 33.0594 39.39 59.5603
endloop
endfacet
facet normal 0 1 0
outer loop
vertex 42.2175 39.39 55.5389
vertex 33.0594 39.39 59.5603
vertex 34.125 39.39 61.5799
endloop
endfacet
facet normal 0 1 0
outer loop
vertex 60.8572 39.39 54.0342
vertex 70.8537 39.39 55.2238
vertex 61.1791 39.39 52.4573
endloop
endfacet
facet normal 0 1 0
outer loop
vertex 61.1791 39.39 52.4573
vertex 70.8537 39.39 55.2238
vertex 71.1786 39.39 52.9635
endloop
endfacet
facet normal 0 1 0
outer loop
vertex 61.1791 39.39 52.4573
vertex 71.1786 39.39 52.9635
vertex 61.2439 39.39 50.8493
endloop
endfacet
facet normal 0 1 0
outer loop
vertex 61.2439 39.39 50.8493
vertex 71.1786 39.39 52.9635
vertex 71.2438 39.39 50.6809
endloop
endfacet
facet normal 0 1 0
outer loop
vertex 61.2439 39.39 50.8493
vertex 71.2438 39.39 50.6809
vertex 71.0484 39.39 48.4057
endloop
endfacet
facet normal 0 1 0
outer loop
vertex 51.252 39.39 71.252
vertex 53.5318 39.39 71.1216
vertex 52.8561 39.39 61.1225
endloop
endfacet
facet normal 0 1 0
outer loop
vertex 52.8561 39.39 61.1225
vertex 53.5318 39.39 71.1216
vertex 55.7819 39.39 70.7322
endloop
endfacet
facet normal 0 1 0
outer loop
vertex 52.8561 39.39 61.1225
vertex 55.7819 39.39 70.7322
vertex 54.4187 39.39 60.7373
endloop
endfacet
facet normal 0 1 0
outer loop
vertex 54.4187 39.39 60.7373
vertex 55.7819 39.39 70.7322
vertex 57.973 39.39 70.0889
endloop
endfacet
facet normal 0 1 0
outer loop
vertex 54.4187 39.39 60.7373
vertex 57.973 39.39 70.0889
vertex 55.8992 39.39 60.1065
endloop
endfacet
facet normal 0 1 0
outer loop
vertex 55.8992 39.39 60.1065
vertex 57.973 39.39 70.0889
vertex 60.0764 39.39 69.2
endloop
endfacet
facet normal 0 1 0
outer loop
vertex 55.8992 39.39 60.1065
vertex 60.0764 39.39 69.2
vertex 62.0648 39.39 68.077
endloop
endfacet
facet normal 0 1 0
outer loop
vertex 43.5059 39.39 44.9275
vertex 34.7426 39.39 39.9631
vertex 42.5917 39.39 46.252
endloop
endfacet
facet normal 0 1 0
outer loop
vertex 42.5917 39.39 46.252
vertex 34.7426 39.39 39.9631
vertex 33.5633 39.39 41.9186
endloop
endfacet
facet normal 0 1 0
outer loop
vertex 42.5917 39.39 46.252
vertex 33.5633 39.39 41.9186
vertex 41.9018 39.39 47.7059
endloop
endfacet
facet normal 0 1 0
outer loop
vertex 41.9018 39.39 47.7059
vertex 33.5633 39.39 41.9186
vertex 32.6147 39.39 43.9958
endloop
endfacet
facet normal 0 1 0
outer loop
vertex 41.9018 39.39 47.7059
vertex 32.6147 39.39 43.9958
vertex 41.4541 39.39 49.2517
endloop
endfacet
facet normal 0 1 0
outer loop
vertex 50.4473 39.39 41.2844
vertex 47.8416 39.39 31.5449
vertex 48.8588 39.39 41.5426
endloop
endfacet
facet normal 0 1 0
outer loop
vertex 48.8588 39.39 41.5426
vertex 47.8416 39.39 31.5449
vertex 45.6173 39.39 32.0621
endloop
endfacet
facet normal 0 1 0
outer loop
vertex 48.8588 39.39 41.5426
vertex 45.6173 39.39 32.0621
vertex 47.3323 39.39 42.0522
endloop
endfacet
facet normal 0 1 0
outer loop
vertex 47.3323 39.39 42.0522
vertex 45.6173 39.39 32.0621
vertex 43.4666 39.39 32.8295
endloop
endfacet
facet normal 0 1 0
outer loop
vertex 47.3323 39.39 42.0522
vertex 43.4666 39.39 32.8295
vertex 45.9073 39.39 42.8001
endloop
endfacet
facet normal 0 1 0
outer loop
vertex 57.8832 39.39 43.7669
vertex 63.0077 39.39 35.0716
vertex 56.5967 39.39 42.8001
endloop
endfacet
facet normal 0 1 0
outer loop
vertex 56.5967 39.39 42.8001
vertex 63.0077 39.39 35.0716
vertex 61.0867 39.39 33.8371
endloop
endfacet
facet normal 0 1 0
outer loop
vertex 56.5967 39.39 42.8001
vertex 61.0867 39.39 33.8371
vertex 55.1717 39.39 42.0522
endloop
endfacet
facet normal 0 1 0
outer loop
vertex 55.1717 39.39 42.0522
vertex 61.0867 39.39 33.8371
vertex 59.0374 39.39 32.8295
endloop
endfacet
facet normal 0 1 0
outer loop
vertex 55.1717 39.39 42.0522
vertex 59.0374 39.39 32.8295
vertex 53.6452 39.39 41.5426
endloop
endfacet
facet normal 0 1 0
outer loop
vertex 65.5946 39.39 65.1907
vertex 67.09 39.39 63.4649
vertex 59.4818 39.39 56.9326
endloop
endfacet
facet normal 0 1 0
outer loop
vertex 59.4818 39.39 56.9326
vertex 67.09 39.39 63.4649
vertex 68.379 39.39 61.5799
endloop
endfacet
facet normal 0 1 0
outer loop
vertex 59.4818 39.39 56.9326
vertex 68.379 39.39 61.5799
vertex 60.2865 39.39 55.5389
endloop
endfacet
facet normal 0 1 0
outer loop
vertex 60.2865 39.39 55.5389
vertex 68.379 39.39 61.5799
vertex 69.4446 39.39 59.5603
endloop
endfacet
facet normal 0 1 0
outer loop
vertex 60.2865 39.39 55.5389
vertex 69.4446 39.39 59.5603
vertex 60.8572 39.39 54.0342
endloop
endfacet
facet normal 0 1 0
outer loop
vertex 60.8572 39.39 54.0342
vertex 69.4446 39.39 59.5603
vertex 70.2731 39.39 57.4323
endloop
endfacet
facet normal 0 1 0
outer loop
vertex 60.8572 39.39 54.0342
vertex 70.2731 39.39 57.4323
vertex 70.8537 39.39 55.2238
endloop
endfacet
facet normal 0 1 0
outer loop
vertex 32.6147 39.39 43.9958
vertex 31.9091 39.39 46.1676
vertex 41.4541 39.39 49.2517
endloop
endfacet
facet normal 0 1 0
outer loop
vertex 41.4541 39.39 49.2517
vertex 31.9091 39.39 46.1676
vertex 31.4556 39.39 48.4057
endloop
endfacet
facet normal 0 1 0
outer loop
vertex 41.4541 39.39 49.2517
vertex 31.4556 39.39 48.4057
vertex 41.2601 39.39 50.8493
endloop
endfacet
facet normal 0 1 0
outer loop
vertex 41.2601 39.39 50.8493
vertex 31.4556 39.39 48.4057
vertex 31.2602 39.39 50.6809
endloop
endfacet
facet normal 0 1 0
outer loop
vertex 41.2601 39.39 50.8493
vertex 31.2602 39.39 50.6809
vertex 41.3249 39.39 52.4573
endloop
endfacet
facet normal 0 1 0
outer loop
vertex 41.3249 39.39 52.4573
vertex 31.2602 39.39 50.6809
vertex 31.3254 39.39 52.9635
endloop
endfacet
facet normal 0 1 0
outer loop
vertex 41.3249 39.39 52.4573
vertex 31.3254 39.39 52.9635
vertex 31.6503 39.39 55.2238
endloop
endfacet
facet normal 0 1 0
outer loop
vertex 43.4666 39.39 32.8295
vertex 41.4173 39.39 33.8371
vertex 45.9073 39.39 42.8001
endloop
endfacet
facet normal 0 1 0
outer loop
vertex 45.9073 39.39 42.8001
vertex 41.4173 39.39 33.8371
vertex 39.4963 39.39 35.0716
endloop
endfacet
facet normal 0 1 0
outer loop
vertex 45.9073 39.39 42.8001
vertex 39.4963 39.39 35.0716
vertex 44.6208 39.39 43.7669
endloop
endfacet
facet normal 0 1 0
outer loop
vertex 44.6208 39.39 43.7669
vertex 39.4963 39.39 35.0716
vertex 37.7285 39.39 36.5172
endloop
endfacet
facet normal 0 1 0
outer loop
vertex 44.6208 39.39 43.7669
vertex 37.7285 39.39 36.5172
vertex 43.5059 39.39 44.9275
endloop
endfacet
facet normal 0 1 0
outer loop
vertex 43.5059 39.39 44.9275
vertex 37.7285 39.39 36.5172
vertex 36.137 39.39 38.1548
endloop
endfacet
facet normal 0 1 0
outer loop
vertex 43.5059 39.39 44.9275
vertex 36.137 39.39 38.1548
vertex 34.7426 39.39 39.9631
endloop
endfacet
facet normal 0 1 0
outer loop
vertex 69.8893 39.39 43.9958
vertex 68.9407 39.39 41.9186
vertex 59.9123 39.39 46.252
endloop
endfacet
facet normal 0 1 0
outer loop
vertex 59.9123 39.39 46.252
vertex 68.9407 39.39 41.9186
vertex 67.7614 39.39 39.9631
endloop
endfacet
facet normal 0 1 0
outer loop
vertex 59.9123 39.39 46.252
vertex 67.7614 39.39 39.9631
vertex 58.998 39.39 44.9275
endloop
endfacet
facet normal 0 1 0
outer loop
vertex 58.998 39.39 44.9275
vertex 67.7614 39.39 39.9631
vertex 66.367 39.39 38.1548
endloop
endfacet
facet normal 0 1 0
outer loop
vertex 58.998 39.39 44.9275
vertex 66.367 39.39 38.1548
vertex 57.8832 39.39 43.7669
endloop
endfacet
facet normal 0 1 0
outer loop
vertex 57.8832 39.39 43.7669
vertex 66.367 39.39 38.1548
vertex 64.7755 39.39 36.5172
endloop
endfacet
facet normal 0 1 0
outer loop
vertex 57.8832 39.39 43.7669
vertex 64.7755 39.39 36.5172
vertex 63.0077 39.39 35.0716
endloop
endfacet
facet normal 0 1 0
outer loop
vertex 59.0374 39.39 32.8295
vertex 56.8866 39.39 32.0621
vertex 53.6452 39.39 41.5426
endloop
endfacet
facet normal 0 1 0
outer loop
vertex 53.6452 39.39 41.5426
vertex 56.8866 39.39 32.0621
vertex 54.6624 39.39 31.5449
endloop
endfacet
facet normal 0 1 0
outer loop
vertex 53.6452 39.39 41.5426
vertex 54.6624 39.39 31.5449
vertex 52.0567 39.39 41.2844
endloop
endfacet
facet normal 0 1 0
outer loop
vertex 52.0567 39.39 41.2844
vertex 54.6624 39.39 31.5449
vertex 52.3938 39.39 31.2846
endloop
endfacet
facet normal 0 1 0
outer loop
vertex 52.0567 39.39 41.2844
vertex 52.3938 39.39 31.2846
vertex 50.4473 39.39 41.2844
endloop
endfacet
facet normal 0 1 0
outer loop
vertex 50.4473 39.39 41.2844
vertex 52.3938 39.39 31.2846
vertex 50.1102 39.39 31.2846
endloop
endfacet
facet normal 0 1 0
outer loop
vertex 50.4473 39.39 41.2844
vertex 50.1102 39.39 31.2846
vertex 47.8416 39.39 31.5449
endloop
endfacet
facet normal 0.170523 0 0.985354
outer loop
vertex 53.5318 39.39 71.1216
vertex 53.5318 0.390001 71.1216
vertex 55.7819 39.39 70.7322
endloop
endfacet
facet normal 0.170523 0 0.985354
outer loop
vertex 55.7819 39.39 70.7322
vertex 53.5318 0.390001 71.1216
vertex 55.7819 0.390001 70.7322
endloop
endfacet
facet normal 0.281734 0 0.959492
outer loop
vertex 55.7819 39.39 70.7322
vertex 55.7819 0.390001 70.7322
vertex 57.973 39.39 70.0889
endloop
endfacet
facet normal 0.281734 0 0.959492
outer loop
vertex 57.973 39.39 70.0889
vertex 55.7819 0.390001 70.7322
vertex 57.973 0.390001 70.0889
endloop
endfacet
facet normal 0.389269 0 0.921124
outer loop
vertex 57.973 39.39 70.0889
vertex 57.973 0.390001 70.0889
vertex 60.0764 39.39 69.2
endloop
endfacet
facet normal 0.389269 0 0.921124
outer loop
vertex 60.0764 39.39 69.2
vertex 57.973 0.390001 70.0889
vertex 60.0764 0.390001 69.2
endloop
endfacet
facet normal 0.491735 0 0.870745
outer loop
vertex 60.0764 39.39 69.2
vertex 60.0764 0.390001 69.2
vertex 62.0648 39.39 68.077
endloop
endfacet
facet normal 0.491735 0 0.870745
outer loop
vertex 62.0648 39.39 68.077
vertex 60.0764 0.390001 69.2
vertex 62.0648 0.390001 68.077
endloop
endfacet
facet normal 0.587786 0 0.809017
outer loop
vertex 62.0648 39.39 68.077
vertex 62.0648 0.390001 68.077
vertex 63.9122 39.39 66.7348
endloop
endfacet
facet normal 0.587786 0 0.809017
outer loop
vertex 63.9122 39.39 66.7348
vertex 62.0648 0.390001 68.077
vertex 63.9122 0.390001 66.7348
endloop
endfacet
facet normal 0.676174 0 0.736742
outer loop
vertex 63.9122 39.39 66.7348
vertex 63.9122 0.390001 66.7348
vertex 65.5946 39.39 65.1907
endloop
endfacet
facet normal 0.676174 0 0.736742
outer loop
vertex 65.5946 39.39 65.1907
vertex 63.9122 0.390001 66.7348
vertex 65.5946 0.390001 65.1907
endloop
endfacet
facet normal 0.755749 0 0.654862
outer loop
vertex 65.5946 39.39 65.1907
vertex 65.5946 0.390001 65.1907
vertex 67.09 39.39 63.4649
endloop
endfacet
facet normal 0.755749 0 0.654862
outer loop
vertex 67.09 39.39 63.4649
vertex 65.5946 0.390001 65.1907
vertex 67.09 0.390001 63.4649
endloop
endfacet
facet normal 0.825472 0 0.564443
outer loop
vertex 67.09 39.39 63.4649
vertex 67.09 0.390001 63.4649
vertex 68.379 39.39 61.5799
endloop
endfacet
facet normal 0.825472 0 0.564443
outer loop
vertex 68.379 39.39 61.5799
vertex 67.09 0.390001 63.4649
vertex 68.379 0.390001 61.5799
endloop
endfacet
facet normal 0.884433 0 0.466666
outer loop
vertex 68.379 39.39 61.5799
vertex 68.379 0.390001 61.5799
vertex 69.4446 39.39 59.5603
endloop
endfacet
facet normal 0.884433 0 0.466666
outer loop
vertex 69.4446 39.39 59.5603
vertex 68.379 0.390001 61.5799
vertex 69.4446 0.390001 59.5603
endloop
endfacet
facet normal 0.931863 0 0.362811
outer loop
vertex 69.4446 39.39 59.5603
vertex 69.4446 0.390001 59.5603
vertex 70.2731 39.39 57.4323
endloop
endfacet
facet normal 0.931863 0 0.362811
outer loop
vertex 70.2731 39.39 57.4323
vertex 69.4446 0.390001 59.5603
vertex 70.2731 0.390001 57.4323
endloop
endfacet
facet normal 0.967147 0 0.254219
outer loop
vertex 70.2731 39.39 57.4323
vertex 70.2731 0.390001 57.4323
vertex 70.8537 39.39 55.2238
endloop
endfacet
facet normal 0.967147 0 0.254219
outer loop
vertex 70.8537 39.39 55.2238
vertex 70.2731 0.390001 57.4323
vertex 70.8537 0.390001 55.2238
endloop
endfacet
facet normal 0.989822 0 0.142311
outer loop
vertex 70.8537 39.39 55.2238
vertex 70.8537 0.390001 55.2238
vertex 71.1786 39.39 52.9635
endloop
endfacet
facet normal 0.989822 0 0.142311
outer loop
vertex 71.1786 39.39 52.9635
vertex 70.8537 0.390001 55.2238
vertex 71.1786 0.390001 52.9635
endloop
endfacet
facet normal 0.999592 0 0.0285557
outer loop
vertex 71.1786 39.39 52.9635
vertex 71.1786 0.390001 52.9635
vertex 71.2438 39.39 50.6809
endloop
endfacet
facet normal 0.999592 0 0.0285557
outer loop
vertex 71.2438 39.39 50.6809
vertex 71.1786 0.390001 52.9635
vertex 71.2438 0.390001 50.6809
endloop
endfacet
facet normal 0.996332 0 -0.0855735
outer loop
vertex 71.2438 39.39 50.6809
vertex 71.2438 0.390001 50.6809
vertex 71.0484 39.39 48.4057
endloop
endfacet
facet normal 0.996332 0 -0.0855735
outer loop
vertex 71.0484 39.39 48.4057
vertex 71.2438 0.390001 50.6809
vertex 71.0484 0.390001 48.4057
endloop
endfacet
facet normal 0.980083 0 -0.198587
outer loop
vertex 71.0484 39.39 48.4057
vertex 71.0484 0.390001 48.4057
vertex 70.5949 39.39 46.1676
endloop
endfacet
facet normal 0.980083 0 -0.198587
outer loop
vertex 70.5949 39.39 46.1676
vertex 71.0484 0.390001 48.4057
vertex 70.5949 0.390001 46.1676
endloop
endfacet
facet normal 0.951055 0 -0.309021
outer loop
vertex 70.5949 39.39 46.1676
vertex 70.5949 0.390001 46.1676
vertex 69.8893 39.39 43.9958
endloop
endfacet
facet normal 0.951055 0 -0.309021
outer loop
vertex 69.8893 39.39 43.9958
vertex 70.5949 0.390001 46.1676
vertex 69.8893 0.390001 43.9958
endloop
endfacet
facet normal 0.909632 0 -0.415416
outer loop
vertex 69.8893 39.39 43.9958
vertex 69.8893 0.390001 43.9958
vertex 68.9407 39.39 41.9186
endloop
endfacet
facet normal 0.909632 0 -0.415416
outer loop
vertex 68.9407 39.39 41.9186
vertex 69.8893 0.390001 43.9958
vertex 68.9407 0.390001 41.9186
endloop
endfacet
facet normal 0.85635 0 -0.516396
outer loop
vertex 68.9407 39.39 41.9186
vertex 68.9407 0.390001 41.9186
vertex 67.7614 39.39 39.9631
endloop
endfacet
facet normal 0.85635 0 -0.516396
outer loop
vertex 67.7614 39.39 39.9631
vertex 68.9407 0.390001 41.9186
vertex 67.7614 0.390001 39.9631
endloop
endfacet
facet normal 0.791903 0 -0.610647
outer loop
vertex 67.7614 39.39 39.9631
vertex 67.7614 0.390001 39.9631
vertex 66.367 39.39 38.1548
endloop
endfacet
facet normal 0.791903 0 -0.610647
outer loop
vertex 66.367 39.39 38.1548
vertex 67.7614 0.390001 39.9631
vertex 66.367 0.390001 38.1548
endloop
endfacet
facet normal 0.717132 0 -0.696937
outer loop
vertex 66.367 39.39 38.1548
vertex 66.367 0.390001 38.1548
vertex 64.7755 39.39 36.5172
endloop
endfacet
facet normal 0.717132 0 -0.696937
outer loop
vertex 64.7755 39.39 36.5172
vertex 66.367 0.390001 38.1548
vertex 64.7755 0.390001 36.5172
endloop
endfacet
facet normal 0.633011 0 -0.774142
outer loop
vertex 64.7755 39.39 36.5172
vertex 64.7755 0.390001 36.5172
vertex 63.0077 39.39 35.0716
endloop
endfacet
facet normal 0.633011 0 -0.774142
outer loop
vertex 63.0077 39.39 35.0716
vertex 64.7755 0.390001 36.5172
vertex 63.0077 0.390001 35.0716
endloop
endfacet
facet normal 0.540641 0 -0.841253
outer loop
vertex 63.0077 39.39 35.0716
vertex 63.0077 0.390001 35.0716
vertex 61.0867 39.39 33.8371
endloop
endfacet
facet normal 0.540641 0 -0.841253
outer loop
vertex 61.0867 39.39 33.8371
vertex 63.0077 0.390001 35.0716
vertex 61.0867 0.390001 33.8371
endloop
endfacet
facet normal 0.44122 0 -0.897399
outer loop
vertex 61.0867 39.39 33.8371
vertex 61.0867 0.390001 33.8371
vertex 59.0374 39.39 32.8295
endloop
endfacet
facet normal 0.44122 0 -0.897399
outer loop
vertex 59.0374 39.39 32.8295
vertex 61.0867 0.390001 33.8371
vertex 59.0374 0.390001 32.8295
endloop
endfacet
facet normal 0.336049 0 -0.941844
outer loop
vertex 59.0374 39.39 32.8295
vertex 59.0374 0.390001 32.8295
vertex 56.8866 39.39 32.0621
endloop
endfacet
facet normal 0.336049 0 -0.941844
outer loop
vertex 56.8866 39.39 32.0621
vertex 59.0374 0.390001 32.8295
vertex 56.8866 0.390001 32.0621
endloop
endfacet
facet normal 0.226497 0 -0.974012
outer loop
vertex 56.8866 39.39 32.0621
vertex 56.8866 0.390001 32.0621
vertex 54.6624 39.39 31.5449
endloop
endfacet
facet normal 0.226497 0 -0.974012
outer loop
vertex 54.6624 39.39 31.5449
vertex 56.8866 0.390001 32.0621
vertex 54.6624 0.390001 31.5449
endloop
endfacet
facet normal 0.113991 0 -0.993482
outer loop
vertex 54.6624 39.39 31.5449
vertex 54.6624 0.390001 31.5449
vertex 52.3938 39.39 31.2846
endloop
endfacet
facet normal 0.113991 0 -0.993482
outer loop
vertex 52.3938 39.39 31.2846
vertex 54.6624 0.390001 31.5449
vertex 52.3938 0.390001 31.2846
endloop
endfacet
facet normal 0 0 -1
outer loop
vertex 52.3938 39.39 31.2846
vertex 52.3938 0.390001 31.2846
vertex 50.1102 39.39 31.2846
endloop
endfacet
facet normal 0 0 -1
outer loop
vertex 50.1102 39.39 31.2846
vertex 52.3938 0.390001 31.2846
vertex 50.1102 0.390001 31.2846
endloop
endfacet
facet normal -0.113991 0 -0.993482
outer loop
vertex 50.1102 39.39 31.2846
vertex 50.1102 0.390001 31.2846
vertex 47.8416 39.39 31.5449
endloop
endfacet
facet normal -0.113991 0 -0.993482
outer loop
vertex 47.8416 39.39 31.5449
vertex 50.1102 0.390001 31.2846
vertex 47.8416 0.390001 31.5449
endloop
endfacet
facet normal -0.226497 0 -0.974012
outer loop
vertex 47.8416 39.39 31.5449
vertex 47.8416 0.390001 31.5449
vertex 45.6173 39.39 32.0621
endloop
endfacet
facet normal -0.226497 0 -0.974012
outer loop
vertex 45.6173 39.39 32.0621
vertex 47.8416 0.390001 31.5449
vertex 45.6173 0.390001 32.0621
endloop
endfacet
facet normal -0.33605 0 -0.941844
outer loop
vertex 45.6173 39.39 32.0621
vertex 45.6173 0.390001 32.0621
vertex 43.4666 39.39 32.8295
endloop
endfacet
facet normal -0.33605 0 -0.941844
outer loop
vertex 43.4666 39.39 32.8295
vertex 45.6173 0.390001 32.0621
vertex 43.4666 0.390001 32.8295
endloop
endfacet
facet normal -0.44122 0 -0.897399
outer loop
vertex 43.4666 39.39 32.8295
vertex 43.4666 0.390001 32.8295
vertex 41.4173 39.39 33.8371
endloop
endfacet
facet normal -0.44122 0 -0.897399
outer loop
vertex 41.4173 39.39 33.8371
vertex 43.4666 0.390001 32.8295
vertex 41.4173 0.390001 33.8371
endloop
endfacet
facet normal -0.54064 0 -0.841254
outer loop
vertex 41.4173 39.39 33.8371
vertex 41.4173 0.390001 33.8371
vertex 39.4963 39.39 35.0716
endloop
endfacet
facet normal -0.54064 0 -0.841254
outer loop
vertex 39.4963 39.39 35.0716
vertex 41.4173 0.390001 33.8371
vertex 39.4963 0.390001 35.0716
endloop
endfacet
facet normal -0.633013 0 -0.774141
outer loop
vertex 39.4963 39.39 35.0716
vertex 39.4963 0.390001 35.0716
vertex 37.7285 39.39 36.5172
endloop
endfacet
facet normal -0.633013 0 -0.774141
outer loop
vertex 37.7285 39.39 36.5172
vertex 39.4963 0.390001 35.0716
vertex 37.7285 0.390001 36.5172
endloop
endfacet
facet normal -0.717131 0 -0.696938
outer loop
vertex 37.7285 39.39 36.5172
vertex 37.7285 0.390001 36.5172
vertex 36.137 39.39 38.1548
endloop
endfacet
facet normal -0.717131 0 -0.696938
outer loop
vertex 36.137 39.39 38.1548
vertex 37.7285 0.390001 36.5172
vertex 36.137 0.390001 38.1548
endloop
endfacet
facet normal -0.791903 0 -0.610647
outer loop
vertex 36.137 39.39 38.1548
vertex 36.137 0.390001 38.1548
vertex 34.7426 39.39 39.9631
endloop
endfacet
facet normal -0.791903 0 -0.610647
outer loop
vertex 34.7426 39.39 39.9631
vertex 36.137 0.390001 38.1548
vertex 34.7426 0.390001 39.9631
endloop
endfacet
facet normal -0.856349 0 -0.516397
outer loop
vertex 34.7426 39.39 39.9631
vertex 34.7426 0.390001 39.9631
vertex 33.5633 39.39 41.9186
endloop
endfacet
facet normal -0.856349 0 -0.516397
outer loop
vertex 33.5633 39.39 41.9186
vertex 34.7426 0.390001 39.9631
vertex 33.5633 0.390001 41.9186
endloop
endfacet
facet normal -0.909632 0 -0.415416
outer loop
vertex 33.5633 39.39 41.9186
vertex 33.5633 0.390001 41.9186
vertex 32.6147 39.39 43.9958
endloop
endfacet
facet normal -0.909632 0 -0.415416
outer loop
vertex 32.6147 39.39 43.9958
vertex 33.5633 0.390001 41.9186
vertex 32.6147 0.390001 43.9958
endloop
endfacet
facet normal -0.951057 0 -0.309017
outer loop
vertex 32.6147 39.39 43.9958
vertex 32.6147 0.390001 43.9958
vertex 31.9091 39.39 46.1676
endloop
endfacet
facet normal -0.951057 0 -0.309017
outer loop
vertex 31.9091 39.39 46.1676
vertex 32.6147 0.390001 43.9958
vertex 31.9091 0.390001 46.1676
endloop
endfacet
facet normal -0.980083 0 -0.19859
outer loop
vertex 31.9091 39.39 46.1676
vertex 31.9091 0.390001 46.1676
vertex 31.4556 39.39 48.4057
endloop
endfacet
facet normal -0.980083 0 -0.19859
outer loop
vertex 31.4556 39.39 48.4057
vertex 31.9091 0.390001 46.1676
vertex 31.4556 0.390001 48.4057
endloop
endfacet
facet normal -0.996332 0 -0.0855743
outer loop
vertex 31.4556 39.39 48.4057
vertex 31.4556 0.390001 48.4057
vertex 31.2602 39.39 50.6809
endloop
endfacet
facet normal -0.996332 0 -0.0855743
outer loop
vertex 31.2602 39.39 50.6809
vertex 31.4556 0.390001 48.4057
vertex 31.2602 0.390001 50.6809
endloop
endfacet
facet normal -0.999592 0 0.0285557
outer loop
vertex 31.2602 39.39 50.6809
vertex 31.2602 0.390001 50.6809
vertex 31.3254 39.39 52.9635
endloop
endfacet
facet normal -0.999592 0 0.0285557
outer loop
vertex 31.3254 39.39 52.9635
vertex 31.2602 0.390001 50.6809
vertex 31.3254 0.390001 52.9635
endloop
endfacet
facet normal -0.989822 0 0.142314
outer loop
vertex 31.3254 39.39 52.9635
vertex 31.3254 0.390001 52.9635
vertex 31.6503 39.39 55.2238
endloop
endfacet
facet normal -0.989822 0 0.142314
outer loop
vertex 31.6503 39.39 55.2238
vertex 31.3254 0.390001 52.9635
vertex 31.6503 0.390001 55.2238
endloop
endfacet
facet normal -0.967147 0 0.254219
outer loop
vertex 31.6503 39.39 55.2238
vertex 31.6503 0.390001 55.2238
vertex 32.2309 39.39 57.4323
endloop
endfacet
facet normal -0.967147 0 0.254219
outer loop
vertex 32.2309 39.39 57.4323
vertex 31.6503 0.390001 55.2238
vertex 32.2309 0.390001 57.4323
endloop
endfacet
facet normal -0.931864 0 0.362808
outer loop
vertex 32.2309 39.39 57.4323
vertex 32.2309 0.390001 57.4323
vertex 33.0594 39.39 59.5603
endloop
endfacet
facet normal -0.931864 0 0.362808
outer loop
vertex 33.0594 39.39 59.5603
vertex 32.2309 0.390001 57.4323
vertex 33.0594 0.390001 59.5603
endloop
endfacet
facet normal -0.884433 0 0.466666
outer loop
vertex 33.0594 39.39 59.5603
vertex 33.0594 0.390001 59.5603
vertex 34.125 39.39 61.5799
endloop
endfacet
facet normal -0.884433 0 0.466666
outer loop
vertex 34.125 39.39 61.5799
vertex 33.0594 0.390001 59.5603
vertex 34.125 0.390001 61.5799
endloop
endfacet
facet normal -0.825471 0 0.564444
outer loop
vertex 34.125 39.39 61.5799
vertex 34.125 0.390001 61.5799
vertex 35.414 39.39 63.4649
endloop
endfacet
facet normal -0.825471 0 0.564444
outer loop
vertex 35.414 39.39 63.4649
vertex 34.125 0.390001 61.5799
vertex 35.414 0.390001 63.4649
endloop
endfacet
facet normal -0.75575 0 0.65486
outer loop
vertex 35.414 39.39 63.4649
vertex 35.414 0.390001 63.4649
vertex 36.9094 39.39 65.1907
endloop
endfacet
facet normal -0.75575 0 0.65486
outer loop
vertex 36.9094 39.39 65.1907
vertex 35.414 0.390001 63.4649
vertex 36.9094 0.390001 65.1907
endloop
endfacet
facet normal -0.676173 0 0.736743
outer loop
vertex 36.9094 39.39 65.1907
vertex 36.9094 0.390001 65.1907
vertex 38.5917 39.39 66.7348
endloop
endfacet
facet normal -0.676173 0 0.736743
outer loop
vertex 38.5917 39.39 66.7348
vertex 36.9094 0.390001 65.1907
vertex 38.5917 0.390001 66.7348
endloop
endfacet
facet normal -0.587785 0 0.809017
outer loop
vertex 38.5917 39.39 66.7348
vertex 38.5917 0.390001 66.7348
vertex 40.4392 39.39 68.077
endloop
endfacet
facet normal -0.587785 0 0.809017
outer loop
vertex 40.4392 39.39 68.077
vertex 38.5917 0.390001 66.7348
vertex 40.4392 0.390001 68.077
endloop
endfacet
facet normal -0.491735 0 0.870745
outer loop
vertex 40.4392 39.39 68.077
vertex 40.4392 0.390001 68.077
vertex 42.4276 39.39 69.2
endloop
endfacet
facet normal -0.491735 0 0.870745
outer loop
vertex 42.4276 39.39 69.2
vertex 40.4392 0.390001 68.077
vertex 42.4276 0.390001 69.2
endloop
endfacet
facet normal -0.389269 0 0.921124
outer loop
vertex 42.4276 39.39 69.2
vertex 42.4276 0.390001 69.2
vertex 44.531 39.39 70.0889
endloop
endfacet
facet normal -0.389269 0 0.921124
outer loop
vertex 44.531 39.39 70.0889
vertex 42.4276 0.390001 69.2
vertex 44.531 0.390001 70.0889
endloop
endfacet
facet normal -0.281735 0 0.959492
outer loop
vertex 44.531 39.39 70.0889
vertex 44.531 0.390001 70.0889
vertex 46.7221 39.39 70.7322
endloop
endfacet
facet normal -0.281735 0 0.959492
outer loop
vertex 46.7221 39.39 70.7322
vertex 44.531 0.390001 70.0889
vertex 46.7221 0.390001 70.7322
endloop
endfacet
facet normal -0.170522 0 0.985354
outer loop
vertex 46.7221 39.39 70.7322
vertex 46.7221 0.390001 70.7322
vertex 48.9722 39.39 71.1216
endloop
endfacet
facet normal -0.170522 0 0.985354
outer loop
vertex 48.9722 39.39 71.1216
vertex 46.7221 0.390001 70.7322
vertex 48.9722 0.390001 71.1216
endloop
endfacet
facet normal -0.057088 0 0.998369
outer loop
vertex 48.9722 39.39 71.1216
vertex 48.9722 0.390001 71.1216
vertex 51.252 39.39 71.252
endloop
endfacet
facet normal -0.057088 0 0.998369
outer loop
vertex 51.252 39.39 71.252
vertex 48.9722 0.390001 71.1216
vertex 51.252 0.390001 71.252
endloop
endfacet
facet normal 0.0570879 0 0.998369
outer loop
vertex 51.252 39.39 71.252
vertex 51.252 0.390001 71.252
vertex 53.5318 39.39 71.1216
endloop
endfacet
facet normal 0.0570879 0 0.998369
outer loop
vertex 53.5318 39.39 71.1216
vertex 51.252 0.390001 71.252
vertex 53.5318 0.390001 71.1216
endloop
endfacet
endsolid
