solid C:\Temp\NOELParts\BELLOWS_SPACER_RIGHT.STL created by CtrlView V2.70
facet normal 0.707107 -1.23456e-007 0.707107
outer loop
vertex 4.98437 1.56112 4.83521
vertex 5.66111 1.2685 4.15847
vertex 5.02298 1.70024 4.7966
endloop
endfacet
facet normal 0.707107 -1.5506e-006 0.707107
outer loop
vertex 5.02298 1.70024 4.7966
vertex 5.66111 1.2685 4.15847
vertex 5.70827 1.47011 4.11131
endloop
endfacet
facet normal 0.707107 2.195e-006 0.707106
outer loop
vertex 5.02298 1.70024 4.7966
vertex 5.70827 1.47011 4.11131
vertex 5.0465 1.84596 4.77308
endloop
endfacet
facet normal 0.707107 7.16905e-008 0.707107
outer loop
vertex 5.70827 1.47011 4.11131
vertex 5.74001 1.67767 4.07957
vertex 5.0465 1.84596 4.77308
endloop
endfacet
facet normal 0.707107 3.6088e-008 0.707107
outer loop
vertex 5.0465 1.84596 4.77308
vertex 5.74001 1.67767 4.07957
vertex 5.75597 1.88882 4.06361
endloop
endfacet
facet normal 0.707107 2.52647e-008 0.707107
outer loop
vertex 5.0465 1.84596 4.77308
vertex 5.75597 1.88882 4.06361
vertex 5.0544 1.995 4.76518
endloop
endfacet
facet normal 0.707107 0 0.707107
outer loop
vertex 5.0544 1.995 4.76518
vertex 5.75597 1.88882 4.06361
vertex 5.75597 2.10118 4.06361
endloop
endfacet
facet normal 0.707107 -2.52646e-008 0.707107
outer loop
vertex 5.0544 1.995 4.76518
vertex 5.75597 2.10118 4.06361
vertex 5.0465 2.14404 4.77308
endloop
endfacet
facet normal 0.707107 -3.6088e-008 0.707107
outer loop
vertex 5.0465 2.14404 4.77308
vertex 5.75597 2.10118 4.06361
vertex 5.74001 2.31233 4.07957
endloop
endfacet
facet normal 0.707107 -2.30227e-006 0.707107
outer loop
vertex 5.0465 2.14404 4.77308
vertex 5.74001 2.31233 4.07957
vertex 5.02298 2.28976 4.7966
endloop
endfacet
facet normal 0.707108 1.60489e-006 0.707106
outer loop
vertex 4.86564 1.31483 4.95394
vertex 5.43328 0.721703 4.3863
vertex 4.93153 1.43168 4.88805
endloop
endfacet
facet normal 0.707107 0 0.707107
outer loop
vertex 4.93153 1.43168 4.88805
vertex 5.43328 0.721703 4.3863
vertex 5.52283 0.892164 4.29675
endloop
endfacet
facet normal 0.707106 -1.89797e-006 0.707108
outer loop
vertex 4.93153 1.43168 4.88805
vertex 5.52283 0.892164 4.29675
vertex 4.98437 1.56112 4.83521
endloop
endfacet
facet normal 0.707106 -1.38625e-006 0.707107
outer loop
vertex 4.98437 1.56112 4.83521
vertex 5.52283 0.892164 4.29675
vertex 5.59906 1.07512 4.22052
endloop
endfacet
facet normal 0.707107 1.39078e-006 0.707106
outer loop
vertex 4.98437 1.56112 4.83521
vertex 5.59906 1.07512 4.22052
vertex 5.66111 1.2685 4.15847
endloop
endfacet
facet normal 0.707108 -1.60489e-006 0.707106
outer loop
vertex 4.93153 2.55832 4.88805
vertex 5.43328 3.2683 4.3863
vertex 4.86564 2.67517 4.95394
endloop
endfacet
facet normal 0.707108 -2.33882e-006 0.707105
outer loop
vertex 4.86564 2.67517 4.95394
vertex 5.43328 3.2683 4.3863
vertex 5.33142 3.42433 4.48816
endloop
endfacet
facet normal 0.707107 -2.47856e-007 0.707107
outer loop
vertex 4.86564 2.67517 4.95394
vertex 5.33142 3.42433 4.48816
vertex 4.78816 2.77683 5.03142
endloop
endfacet
facet normal 0.707105 2.20092e-006 0.707108
outer loop
vertex 4.78816 2.77683 5.03142
vertex 5.33142 3.42433 4.48816
vertex 5.21842 3.56417 4.60116
endloop
endfacet
facet normal 0.707107 2.80467e-007 0.707107
outer loop
vertex 4.78816 2.77683 5.03142
vertex 5.21842 3.56417 4.60116
vertex 4.70084 2.86103 5.11874
endloop
endfacet
facet normal 0.707107 0 0.707107
outer loop
vertex 5.74001 2.31233 4.07957
vertex 5.70827 2.51989 4.11131
vertex 5.02298 2.28976 4.7966
endloop
endfacet
facet normal 0.707107 1.5506e-006 0.707107
outer loop
vertex 5.02298 2.28976 4.7966
vertex 5.70827 2.51989 4.11131
vertex 5.66111 2.7215 4.15847
endloop
endfacet
facet normal 0.707107 1.23457e-007 0.707107
outer loop
vertex 5.02298 2.28976 4.7966
vertex 5.66111 2.7215 4.15847
vertex 4.98437 2.42888 4.83521
endloop
endfacet
facet normal 0.707107 -1.39078e-006 0.707106
outer loop
vertex 4.98437 2.42888 4.83521
vertex 5.66111 2.7215 4.15847
vertex 5.59906 2.91488 4.22052
endloop
endfacet
facet normal 0.707106 1.9693e-006 0.707108
outer loop
vertex 4.98437 2.42888 4.83521
vertex 5.59906 2.91488 4.22052
vertex 4.93153 2.55832 4.88805
endloop
endfacet
facet normal 0.707106 1.33529e-006 0.707107
outer loop
vertex 4.93153 2.55832 4.88805
vertex 5.59906 2.91488 4.22052
vertex 5.52283 3.09784 4.29675
endloop
endfacet
facet normal 0.707107 0 0.707107
outer loop
vertex 4.93153 2.55832 4.88805
vertex 5.52283 3.09784 4.29675
vertex 5.43328 3.2683 4.3863
endloop
endfacet
facet normal 0.707108 6.3763e-007 0.707105
outer loop
vertex 4.18994 2.96993 5.62964
vertex 3.94004 3.90506 5.87954
vertex 4.08896 2.92587 5.73063
endloop
endfacet
facet normal 0.707106 -8.66716e-009 0.707107
outer loop
vertex 4.08896 2.92587 5.73063
vertex 3.94004 3.90506 5.87954
vertex 3.79878 3.83302 6.0208
endloop
endfacet
facet normal 0.707106 -1.59837e-007 0.707108
outer loop
vertex 4.08896 2.92587 5.73063
vertex 3.79878 3.83302 6.0208
vertex 3.99374 2.86103 5.82584
endloop
endfacet
facet normal 0.707105 -1.14651e-006 0.707108
outer loop
vertex 4.60563 1.06413 5.21396
vertex 4.96419 0.200872 4.85539
vertex 4.70084 1.12897 5.11874
endloop
endfacet
facet normal 0.707107 -2.97228e-007 0.707107
outer loop
vertex 4.70084 1.12897 5.11874
vertex 4.96419 0.200872 4.85539
vertex 5.09554 0.30377 4.72404
endloop
endfacet
facet normal 0.707107 -2.79634e-007 0.707107
outer loop
vertex 4.70084 1.12897 5.11874
vertex 5.09554 0.30377 4.72404
vertex 4.78816 1.21317 5.03142
endloop
endfacet
facet normal 0.707107 -2.7757e-007 0.707107
outer loop
vertex 4.78816 1.21317 5.03142
vertex 5.09554 0.30377 4.72404
vertex 5.21842 0.42583 4.60116
endloop
endfacet
facet normal 0.707107 -2.49405e-007 0.707107
outer loop
vertex 4.78816 1.21317 5.03142
vertex 5.21842 0.42583 4.60116
vertex 4.86564 1.31483 4.95394
endloop
endfacet
facet normal 0.707105 -1.84254e-006 0.707109
outer loop
vertex 4.86564 1.31483 4.95394
vertex 5.21842 0.42583 4.60116
vertex 5.33142 0.565669 4.48816
endloop
endfacet
facet normal 0.707108 2.33882e-006 0.707105
outer loop
vertex 4.86564 1.31483 4.95394
vertex 5.33142 0.565669 4.48816
vertex 5.43328 0.721703 4.3863
endloop
endfacet
facet normal 0.707108 -1.3228e-006 0.707105
outer loop
vertex 3.90642 1.21317 5.91316
vertex 3.53645 0.362486 6.28313
vertex 3.99374 1.12897 5.82584
endloop
endfacet
facet normal 0.707107 -3.73177e-007 0.707106
outer loop
vertex 3.99374 1.12897 5.82584
vertex 3.53645 0.362486 6.28313
vertex 3.66375 0.249848 6.15584
endloop
endfacet
facet normal 0.707106 5.29287e-007 0.707107
outer loop
vertex 3.99374 1.12897 5.82584
vertex 3.66375 0.249848 6.15584
vertex 4.08896 1.06413 5.73063
endloop
endfacet
facet normal 0.707107 0 0.707107
outer loop
vertex 4.50464 2.96993 5.31494
vertex 4.53452 3.97235 5.28506
vertex 4.40013 2.9922 5.41945
endloop
endfacet
facet normal 0.707108 -3.04145e-007 0.707106
outer loop
vertex 4.40013 2.9922 5.41945
vertex 4.53452 3.97235 5.28506
vertex 4.38484 3.98929 5.43474
endloop
endfacet
facet normal 0.707107 -3.38159e-007 0.707107
outer loop
vertex 4.40013 2.9922 5.41945
vertex 4.38484 3.98929 5.43474
vertex 4.29445 2.9922 5.52513
endloop
endfacet
facet normal 0.707107 -3.39318e-007 0.707107
outer loop
vertex 4.29445 2.9922 5.52513
vertex 4.38484 3.98929 5.43474
vertex 4.23474 3.98364 5.58484
endloop
endfacet
facet normal 0.707107 -3.35777e-007 0.707107
outer loop
vertex 4.29445 2.9922 5.52513
vertex 4.23474 3.98364 5.58484
vertex 4.18994 2.96993 5.62964
endloop
endfacet
facet normal 0.707107 -3.35421e-007 0.707107
outer loop
vertex 4.18994 2.96993 5.62964
vertex 4.23474 3.98364 5.58484
vertex 4.08591 3.95545 5.73367
endloop
endfacet
facet normal 0.707106 -4.478e-007 0.707107
outer loop
vertex 4.18994 2.96993 5.62964
vertex 4.08591 3.95545 5.73367
vertex 3.94004 3.90506 5.87954
endloop
endfacet
facet normal 0.707107 2.76989e-007 0.707107
outer loop
vertex 5.21842 3.56417 4.60116
vertex 5.09554 3.68623 4.72404
vertex 4.70084 2.86103 5.11874
endloop
endfacet
facet normal 0.707107 2.97228e-007 0.707107
outer loop
vertex 4.70084 2.86103 5.11874
vertex 5.09554 3.68623 4.72404
vertex 4.96419 3.78913 4.85539
endloop
endfacet
facet normal 0.707105 1.14651e-006 0.707108
outer loop
vertex 4.70084 2.86103 5.11874
vertex 4.96419 3.78913 4.85539
vertex 4.60563 2.92587 5.21396
endloop
endfacet
facet normal 0.707107 0 0.707107
outer loop
vertex 4.60563 2.92587 5.21396
vertex 4.96419 3.78913 4.85539
vertex 4.82585 3.8717 4.99373
endloop
endfacet
facet normal 0.707107 0 0.707107
outer loop
vertex 4.60563 2.92587 5.21396
vertex 4.82585 3.8717 4.99373
vertex 4.50464 2.96993 5.31494
endloop
endfacet
facet normal 0.707107 0 0.707107
outer loop
vertex 4.50464 2.96993 5.31494
vertex 4.82585 3.8717 4.99373
vertex 4.68208 3.933 5.1375
endloop
endfacet
facet normal 0.707107 0 0.707107
outer loop
vertex 4.50464 2.96993 5.31494
vertex 4.68208 3.933 5.1375
vertex 4.53452 3.97235 5.28506
endloop
endfacet
facet normal 0.707107 0 0.707107
outer loop
vertex 4.40013 0.997796 5.41945
vertex 4.53452 0.0176502 5.28506
vertex 4.50464 1.02007 5.31494
endloop
endfacet
facet normal 0.707107 0 0.707107
outer loop
vertex 4.50464 1.02007 5.31494
vertex 4.53452 0.0176502 5.28506
vertex 4.68208 0.0569974 5.1375
endloop
endfacet
facet normal 0.707107 0 0.707107
outer loop
vertex 4.50464 1.02007 5.31494
vertex 4.68208 0.0569974 5.1375
vertex 4.60563 1.06413 5.21396
endloop
endfacet
facet normal 0.707107 0 0.707107
outer loop
vertex 4.60563 1.06413 5.21396
vertex 4.68208 0.0569974 5.1375
vertex 4.82585 0.118303 4.99373
endloop
endfacet
facet normal 0.707107 0 0.707107
outer loop
vertex 4.60563 1.06413 5.21396
vertex 4.82585 0.118303 4.99373
vertex 4.96419 0.200872 4.85539
endloop
endfacet
facet normal 0.707107 -6.32003e-007 0.707106
outer loop
vertex 3.66375 0.249848 6.15584
vertex 3.79878 0.156983 6.0208
vertex 4.08896 1.06413 5.73063
endloop
endfacet
facet normal 0.707106 8.66716e-009 0.707107
outer loop
vertex 4.08896 1.06413 5.73063
vertex 3.79878 0.156983 6.0208
vertex 3.94004 0.0849431 5.87954
endloop
endfacet
facet normal 0.707108 -6.3763e-007 0.707105
outer loop
vertex 4.08896 1.06413 5.73063
vertex 3.94004 0.0849431 5.87954
vertex 4.18994 1.02007 5.62964
endloop
endfacet
facet normal 0.707106 4.478e-007 0.707107
outer loop
vertex 4.18994 1.02007 5.62964
vertex 3.94004 0.0849431 5.87954
vertex 4.08591 0.0345453 5.73367
endloop
endfacet
facet normal 0.707107 3.34597e-007 0.707107
outer loop
vertex 4.18994 1.02007 5.62964
vertex 4.08591 0.0345453 5.73367
vertex 4.29445 0.997796 5.52513
endloop
endfacet
facet normal 0.707107 3.36252e-007 0.707107
outer loop
vertex 4.29445 0.997796 5.52513
vertex 4.08591 0.0345453 5.73367
vertex 4.23474 0.00636 5.58484
endloop
endfacet
facet normal 0.707107 3.40087e-007 0.707107
outer loop
vertex 4.29445 0.997796 5.52513
vertex 4.23474 0.00636 5.58484
vertex 4.40013 0.997796 5.41945
endloop
endfacet
facet normal 0.707107 3.37964e-007 0.707107
outer loop
vertex 4.40013 0.997796 5.41945
vertex 4.23474 0.00636 5.58484
vertex 4.38484 0.000707107 5.43474
endloop
endfacet
facet normal 0.707108 3.04145e-007 0.707106
outer loop
vertex 4.40013 0.997796 5.41945
vertex 4.38484 0.000707107 5.43474
vertex 4.53452 0.0176502 5.28506
endloop
endfacet
facet normal 0.707106 9.24604e-007 0.707107
outer loop
vertex 3.71021 1.56112 6.10937
vertex 3.13191 0.982207 6.68767
vertex 3.76305 1.43168 6.05653
endloop
endfacet
facet normal 0.707107 -9.39228e-008 0.707107
outer loop
vertex 3.76305 1.43168 6.05653
vertex 3.13191 0.982207 6.68767
vertex 3.21492 0.805247 6.60466
endloop
endfacet
facet normal 0.707107 -9.828e-007 0.707106
outer loop
vertex 3.76305 1.43168 6.05653
vertex 3.21492 0.805247 6.60466
vertex 3.82894 1.31483 5.99064
endloop
endfacet
facet normal 0.707107 0 0.707107
outer loop
vertex 3.82894 1.31483 5.99064
vertex 3.21492 0.805247 6.60466
vertex 3.31076 0.641768 6.50882
endloop
endfacet
facet normal 0.707106 1.66683e-006 0.707108
outer loop
vertex 3.82894 1.31483 5.99064
vertex 3.31076 0.641768 6.50882
vertex 3.90642 1.21317 5.91316
endloop
endfacet
facet normal 0.707107 -2.42284e-007 0.707107
outer loop
vertex 3.90642 1.21317 5.91316
vertex 3.31076 0.641768 6.50882
vertex 3.41834 0.493621 6.40124
endloop
endfacet
facet normal 0.707106 2.84992e-007 0.707107
outer loop
vertex 3.90642 1.21317 5.91316
vertex 3.41834 0.493621 6.40124
vertex 3.53645 0.362486 6.28313
endloop
endfacet
facet normal 0.707106 -2.21084e-006 0.707107
outer loop
vertex 3.6716 2.28976 6.14798
vertex 2.96849 2.41671 6.85109
vertex 3.64808 2.14404 6.1715
endloop
endfacet
facet normal 0.707107 -2.70263e-008 0.707107
outer loop
vertex 3.64808 2.14404 6.1715
vertex 2.96849 2.41671 6.85109
vertex 2.9446 2.20706 6.87498
endloop
endfacet
facet normal 0.707107 1.11315e-006 0.707107
outer loop
vertex 3.64808 2.14404 6.1715
vertex 2.9446 2.20706 6.87498
vertex 3.64018 1.995 6.1794
endloop
endfacet
facet normal 0.707107 0 0.707107
outer loop
vertex 3.64018 1.995 6.1794
vertex 2.9446 2.20706 6.87498
vertex 2.93661 1.995 6.88297
endloop
endfacet
facet normal 0.707107 -1.13114e-006 0.707107
outer loop
vertex 3.64018 1.995 6.1794
vertex 2.93661 1.995 6.88297
vertex 3.64808 1.84596 6.1715
endloop
endfacet
facet normal 0.707106 -9.24604e-007 0.707107
outer loop
vertex 3.76305 2.55832 6.05653
vertex 3.13191 3.00779 6.68767
vertex 3.71021 2.42888 6.10937
endloop
endfacet
facet normal 0.707107 0 0.707107
outer loop
vertex 3.71021 2.42888 6.10937
vertex 3.13191 3.00779 6.68767
vertex 3.06268 2.81936 6.7569
endloop
endfacet
facet normal 0.707107 1.03803e-006 0.707106
outer loop
vertex 3.71021 2.42888 6.10937
vertex 3.06268 2.81936 6.7569
vertex 3.6716 2.28976 6.14798
endloop
endfacet
facet normal 0.707107 7.48883e-007 0.707107
outer loop
vertex 3.6716 2.28976 6.14798
vertex 3.06268 2.81936 6.7569
vertex 3.008 2.62158 6.81158
endloop
endfacet
facet normal 0.707107 -7.50512e-007 0.707107
outer loop
vertex 3.6716 2.28976 6.14798
vertex 3.008 2.62158 6.81158
vertex 2.96849 2.41671 6.85109
endloop
endfacet
facet normal 0.707107 3.72468e-007 0.707106
outer loop
vertex 3.79878 3.83302 6.0208
vertex 3.66375 3.74015 6.15584
vertex 3.99374 2.86103 5.82584
endloop
endfacet
facet normal 0.707107 3.73177e-007 0.707106
outer loop
vertex 3.99374 2.86103 5.82584
vertex 3.66375 3.74015 6.15584
vertex 3.53645 3.62751 6.28313
endloop
endfacet
facet normal 0.707108 1.3228e-006 0.707105
outer loop
vertex 3.99374 2.86103 5.82584
vertex 3.53645 3.62751 6.28313
vertex 3.90642 2.77683 5.91316
endloop
endfacet
facet normal 0.707106 -2.84992e-007 0.707107
outer loop
vertex 3.90642 2.77683 5.91316
vertex 3.53645 3.62751 6.28313
vertex 3.41834 3.49638 6.40124
endloop
endfacet
facet normal 0.707105 -1.31399e-006 0.707108
outer loop
vertex 3.90642 2.77683 5.91316
vertex 3.41834 3.49638 6.40124
vertex 3.82894 2.67517 5.99064
endloop
endfacet
facet normal 0.707107 0 0.707107
outer loop
vertex 3.82894 2.67517 5.99064
vertex 3.41834 3.49638 6.40124
vertex 3.31076 3.34823 6.50882
endloop
endfacet
facet normal 0.707107 8.32777e-007 0.707106
outer loop
vertex 3.82894 2.67517 5.99064
vertex 3.31076 3.34823 6.50882
vertex 3.76305 2.55832 6.05653
endloop
endfacet
facet normal 0.707107 1.0797e-007 0.707107
outer loop
vertex 3.76305 2.55832 6.05653
vertex 3.31076 3.34823 6.50882
vertex 3.21492 3.18475 6.60466
endloop
endfacet
facet normal 0.707107 9.39228e-008 0.707107
outer loop
vertex 3.76305 2.55832 6.05653
vertex 3.21492 3.18475 6.60466
vertex 3.13191 3.00779 6.68767
endloop
endfacet
facet normal 0.707107 9.00132e-009 0.707107
outer loop
vertex 2.93661 1.995 6.88297
vertex 2.9446 1.78294 6.87498
vertex 3.64808 1.84596 6.1715
endloop
endfacet
facet normal 0.707107 2.70263e-008 0.707107
outer loop
vertex 3.64808 1.84596 6.1715
vertex 2.9446 1.78294 6.87498
vertex 2.96849 1.57329 6.85109
endloop
endfacet
facet normal 0.707106 2.21084e-006 0.707107
outer loop
vertex 3.64808 1.84596 6.1715
vertex 2.96849 1.57329 6.85109
vertex 3.6716 1.70024 6.14798
endloop
endfacet
facet normal 0.707107 7.50512e-007 0.707107
outer loop
vertex 3.6716 1.70024 6.14798
vertex 2.96849 1.57329 6.85109
vertex 3.008 1.36842 6.81158
endloop
endfacet
facet normal 0.707107 -1.06408e-006 0.707107
outer loop
vertex 3.6716 1.70024 6.14798
vertex 3.008 1.36842 6.81158
vertex 3.71021 1.56112 6.10937
endloop
endfacet
facet normal 0.707107 -7.30608e-007 0.707107
outer loop
vertex 3.71021 1.56112 6.10937
vertex 3.008 1.36842 6.81158
vertex 3.06268 1.17064 6.7569
endloop
endfacet
facet normal 0.707107 0 0.707107
outer loop
vertex 3.71021 1.56112 6.10937
vertex 3.06268 1.17064 6.7569
vertex 3.13191 0.982207 6.68767
endloop
endfacet
facet normal -0.689378 -0.22252 0.689378
outer loop
vertex 4.67032 2.14404 4.3969
vertex 5.0465 2.14404 4.77308
vertex 4.6468 2.28976 4.42042
endloop
endfacet
facet normal -0.689378 -0.22252 0.689378
outer loop
vertex 4.6468 2.28976 4.42042
vertex 5.0465 2.14404 4.77308
vertex 5.02298 2.28976 4.7966
endloop
endfacet
facet normal -0.658226 -0.365344 0.658226
outer loop
vertex 4.6468 2.28976 4.42042
vertex 5.02298 2.28976 4.7966
vertex 4.60819 2.42888 4.45903
endloop
endfacet
facet normal -0.658226 -0.365342 0.658227
outer loop
vertex 4.60819 2.42888 4.45903
vertex 5.02298 2.28976 4.7966
vertex 4.98437 2.42888 4.83521
endloop
endfacet
facet normal -0.612373 -0.499997 0.612374
outer loop
vertex 4.60819 2.42888 4.45903
vertex 4.98437 2.42888 4.83521
vertex 4.55535 2.55832 4.51187
endloop
endfacet
facet normal -0.612373 -0.499998 0.612373
outer loop
vertex 4.55535 2.55832 4.51187
vertex 4.98437 2.42888 4.83521
vertex 4.93153 2.55832 4.88805
endloop
endfacet
facet normal -0.552837 -0.623493 0.552837
outer loop
vertex 4.55535 2.55832 4.51187
vertex 4.93153 2.55832 4.88805
vertex 4.48946 2.67517 4.57776
endloop
endfacet
facet normal -0.552837 -0.623491 0.552838
outer loop
vertex 4.48946 2.67517 4.57776
vertex 4.93153 2.55832 4.88805
vertex 4.86564 2.67517 4.95394
endloop
endfacet
facet normal -0.480956 -0.73305 0.480956
outer loop
vertex 4.48946 2.67517 4.57776
vertex 4.86564 2.67517 4.95394
vertex 4.41198 2.77683 4.65524
endloop
endfacet
facet normal -0.480955 -0.733052 0.480954
outer loop
vertex 4.41198 2.77683 4.65524
vertex 4.86564 2.67517 4.95394
vertex 4.78816 2.77683 5.03142
endloop
endfacet
facet normal -0.398328 -0.826238 0.398328
outer loop
vertex 4.41198 2.77683 4.65524
vertex 4.78816 2.77683 5.03142
vertex 4.32466 2.86103 4.74256
endloop
endfacet
facet normal -0.398328 -0.826238 0.398328
outer loop
vertex 4.32466 2.86103 4.74256
vertex 4.78816 2.77683 5.03142
vertex 4.70084 2.86103 5.11874
endloop
endfacet
facet normal -0.306801 -0.90097 0.3068
outer loop
vertex 4.32466 2.86103 4.74256
vertex 4.70084 2.86103 5.11874
vertex 4.22944 2.92587 4.83777
endloop
endfacet
facet normal -0.306801 -0.90097 0.306801
outer loop
vertex 4.22944 2.92587 4.83777
vertex 4.70084 2.86103 5.11874
vertex 4.60563 2.92587 5.21396
endloop
endfacet
facet normal -0.208424 -0.955572 0.208424
outer loop
vertex 4.22944 2.92587 4.83777
vertex 4.60563 2.92587 5.21396
vertex 4.12846 2.96993 4.93876
endloop
endfacet
facet normal -0.208424 -0.955572 0.208424
outer loop
vertex 4.12846 2.96993 4.93876
vertex 4.60563 2.92587 5.21396
vertex 4.50464 2.96993 5.31494
endloop
endfacet
facet normal -0.105389 -0.988831 0.105389
outer loop
vertex 4.12846 2.96993 4.93876
vertex 4.50464 2.96993 5.31494
vertex 4.02395 2.9922 5.04327
endloop
endfacet
facet normal -0.105389 -0.988831 0.105389
outer loop
vertex 4.02395 2.9922 5.04327
vertex 4.50464 2.96993 5.31494
vertex 4.40013 2.9922 5.41945
endloop
endfacet
facet normal 0 -1 0
outer loop
vertex 4.02395 2.9922 5.04327
vertex 4.40013 2.9922 5.41945
vertex 3.91827 2.9922 5.14895
endloop
endfacet
facet normal 0 -1 0
outer loop
vertex 3.91827 2.9922 5.14895
vertex 4.40013 2.9922 5.41945
vertex 4.29445 2.9922 5.52513
endloop
endfacet
facet normal 0.105389 -0.988831 -0.105389
outer loop
vertex 3.91827 2.9922 5.14895
vertex 4.29445 2.9922 5.52513
vertex 3.81376 2.96993 5.25346
endloop
endfacet
facet normal 0.105389 -0.988831 -0.105389
outer loop
vertex 3.81376 2.96993 5.25346
vertex 4.29445 2.9922 5.52513
vertex 4.18994 2.96993 5.62964
endloop
endfacet
facet normal 0.208424 -0.955573 -0.208424
outer loop
vertex 3.81376 2.96993 5.25346
vertex 4.18994 2.96993 5.62964
vertex 3.71277 2.92587 5.35444
endloop
endfacet
facet normal 0.208424 -0.955573 -0.208424
outer loop
vertex 3.71277 2.92587 5.35444
vertex 4.18994 2.96993 5.62964
vertex 4.08896 2.92587 5.73063
endloop
endfacet
facet normal 0.306802 -0.900969 -0.306802
outer loop
vertex 3.71277 2.92587 5.35444
vertex 4.08896 2.92587 5.73063
vertex 3.61756 2.86103 5.44966
endloop
endfacet
facet normal 0.306802 -0.900969 -0.306801
outer loop
vertex 3.61756 2.86103 5.44966
vertex 4.08896 2.92587 5.73063
vertex 3.99374 2.86103 5.82584
endloop
endfacet
facet normal 0.398327 -0.826239 -0.398327
outer loop
vertex 3.61756 2.86103 5.44966
vertex 3.99374 2.86103 5.82584
vertex 3.53024 2.77683 5.53698
endloop
endfacet
facet normal 0.398327 -0.826239 -0.398327
outer loop
vertex 3.53024 2.77683 5.53698
vertex 3.99374 2.86103 5.82584
vertex 3.90642 2.77683 5.91316
endloop
endfacet
facet normal 0.480955 -0.733051 -0.480955
outer loop
vertex 3.53024 2.77683 5.53698
vertex 3.90642 2.77683 5.91316
vertex 3.45276 2.67517 5.61446
endloop
endfacet
facet normal 0.480955 -0.733051 -0.480955
outer loop
vertex 3.45276 2.67517 5.61446
vertex 3.90642 2.77683 5.91316
vertex 3.82894 2.67517 5.99064
endloop
endfacet
facet normal 0.552838 -0.623491 -0.552837
outer loop
vertex 3.45276 2.67517 5.61446
vertex 3.82894 2.67517 5.99064
vertex 3.38687 2.55832 5.68035
endloop
endfacet
facet normal 0.552838 -0.623489 -0.552839
outer loop
vertex 3.38687 2.55832 5.68035
vertex 3.82894 2.67517 5.99064
vertex 3.76305 2.55832 6.05653
endloop
endfacet
facet normal 0.612373 -0.499998 -0.612374
outer loop
vertex 3.38687 2.55832 5.68035
vertex 3.76305 2.55832 6.05653
vertex 3.33403 2.42888 5.73319
endloop
endfacet
facet normal 0.612372 -0.500001 -0.612372
outer loop
vertex 3.33403 2.42888 5.73319
vertex 3.76305 2.55832 6.05653
vertex 3.71021 2.42888 6.10937
endloop
endfacet
facet normal 0.658227 -0.365344 -0.658226
outer loop
vertex 3.33403 2.42888 5.73319
vertex 3.71021 2.42888 6.10937
vertex 3.29542 2.28976 5.7718
endloop
endfacet
facet normal 0.658227 -0.365341 -0.658227
outer loop
vertex 3.29542 2.28976 5.7718
vertex 3.71021 2.42888 6.10937
vertex 3.6716 2.28976 6.14798
endloop
endfacet
facet normal 0.689378 -0.222519 -0.689379
outer loop
vertex 3.29542 2.28976 5.7718
vertex 3.6716 2.28976 6.14798
vertex 3.2719 2.14404 5.79532
endloop
endfacet
facet normal 0.689378 -0.22252 -0.689378
outer loop
vertex 3.2719 2.14404 5.79532
vertex 3.6716 2.28976 6.14798
vertex 3.64808 2.14404 6.1715
endloop
endfacet
facet normal 0.70513 -0.0747305 -0.70513
outer loop
vertex 3.2719 2.14404 5.79532
vertex 3.64808 2.14404 6.1715
vertex 3.264 1.995 5.80322
endloop
endfacet
facet normal 0.705129 -0.0747294 -0.70513
outer loop
vertex 3.264 1.995 5.80322
vertex 3.64808 2.14404 6.1715
vertex 3.64018 1.995 6.1794
endloop
endfacet
facet normal 0.705129 0.0747307 -0.70513
outer loop
vertex 3.264 1.995 5.80322
vertex 3.64018 1.995 6.1794
vertex 3.2719 1.84596 5.79532
endloop
endfacet
facet normal 0.70513 0.0747296 -0.70513
outer loop
vertex 3.2719 1.84596 5.79532
vertex 3.64018 1.995 6.1794
vertex 3.64808 1.84596 6.1715
endloop
endfacet
facet normal 0.689378 0.222519 -0.689378
outer loop
vertex 3.2719 1.84596 5.79532
vertex 3.64808 1.84596 6.1715
vertex 3.29542 1.70024 5.7718
endloop
endfacet
facet normal 0.689378 0.22252 -0.689378
outer loop
vertex 3.29542 1.70024 5.7718
vertex 3.64808 1.84596 6.1715
vertex 3.6716 1.70024 6.14798
endloop
endfacet
facet normal 0.658226 0.365344 -0.658227
outer loop
vertex 3.29542 1.70024 5.7718
vertex 3.6716 1.70024 6.14798
vertex 3.33403 1.56112 5.73319
endloop
endfacet
facet normal 0.658228 0.365341 -0.658227
outer loop
vertex 3.33403 1.56112 5.73319
vertex 3.6716 1.70024 6.14798
vertex 3.71021 1.56112 6.10937
endloop
endfacet
facet normal 0.612374 0.499998 -0.612373
outer loop
vertex 3.33403 1.56112 5.73319
vertex 3.71021 1.56112 6.10937
vertex 3.38687 1.43168 5.68035
endloop
endfacet
facet normal 0.612372 0.500001 -0.612372
outer loop
vertex 3.38687 1.43168 5.68035
vertex 3.71021 1.56112 6.10937
vertex 3.76305 1.43168 6.05653
endloop
endfacet
facet normal 0.552837 0.623491 -0.552838
outer loop
vertex 3.38687 1.43168 5.68035
vertex 3.76305 1.43168 6.05653
vertex 3.45276 1.31483 5.61446
endloop
endfacet
facet normal 0.552839 0.623489 -0.552839
outer loop
vertex 3.45276 1.31483 5.61446
vertex 3.76305 1.43168 6.05653
vertex 3.82894 1.31483 5.99064
endloop
endfacet
facet normal 0.480955 0.733052 -0.480955
outer loop
vertex 3.45276 1.31483 5.61446
vertex 3.82894 1.31483 5.99064
vertex 3.53024 1.21317 5.53698
endloop
endfacet
facet normal 0.480955 0.733052 -0.480955
outer loop
vertex 3.53024 1.21317 5.53698
vertex 3.82894 1.31483 5.99064
vertex 3.90642 1.21317 5.91316
endloop
endfacet
facet normal 0.398327 0.826239 -0.398327
outer loop
vertex 3.53024 1.21317 5.53698
vertex 3.90642 1.21317 5.91316
vertex 3.61756 1.12897 5.44966
endloop
endfacet
facet normal 0.398327 0.826239 -0.398327
outer loop
vertex 3.61756 1.12897 5.44966
vertex 3.90642 1.21317 5.91316
vertex 3.99374 1.12897 5.82584
endloop
endfacet
facet normal 0.306802 0.900969 -0.306802
outer loop
vertex 3.61756 1.12897 5.44966
vertex 3.99374 1.12897 5.82584
vertex 3.71277 1.06413 5.35444
endloop
endfacet
facet normal 0.306802 0.900969 -0.306801
outer loop
vertex 3.71277 1.06413 5.35444
vertex 3.99374 1.12897 5.82584
vertex 4.08896 1.06413 5.73063
endloop
endfacet
facet normal 0.208424 0.955573 -0.208424
outer loop
vertex 3.71277 1.06413 5.35444
vertex 4.08896 1.06413 5.73063
vertex 3.81376 1.02007 5.25346
endloop
endfacet
facet normal 0.208424 0.955573 -0.208424
outer loop
vertex 3.81376 1.02007 5.25346
vertex 4.08896 1.06413 5.73063
vertex 4.18994 1.02007 5.62964
endloop
endfacet
facet normal 0.105389 0.988831 -0.105389
outer loop
vertex 3.81376 1.02007 5.25346
vertex 4.18994 1.02007 5.62964
vertex 3.91827 0.997796 5.14895
endloop
endfacet
facet normal 0.105389 0.988831 -0.105389
outer loop
vertex 3.91827 0.997796 5.14895
vertex 4.18994 1.02007 5.62964
vertex 4.29445 0.997796 5.52513
endloop
endfacet
facet normal 0 1 0
outer loop
vertex 3.91827 0.997796 5.14895
vertex 4.29445 0.997796 5.52513
vertex 4.02395 0.997796 5.04327
endloop
endfacet
facet normal 0 1 0
outer loop
vertex 4.02395 0.997796 5.04327
vertex 4.29445 0.997796 5.52513
vertex 4.40013 0.997796 5.41945
endloop
endfacet
facet normal -0.105389 0.988831 0.105389
outer loop
vertex 4.02395 0.997796 5.04327
vertex 4.40013 0.997796 5.41945
vertex 4.12846 1.02007 4.93876
endloop
endfacet
facet normal -0.105389 0.988831 0.105389
outer loop
vertex 4.12846 1.02007 4.93876
vertex 4.40013 0.997796 5.41945
vertex 4.50464 1.02007 5.31494
endloop
endfacet
facet normal -0.208424 0.955572 0.208424
outer loop
vertex 4.12846 1.02007 4.93876
vertex 4.50464 1.02007 5.31494
vertex 4.22944 1.06413 4.83777
endloop
endfacet
facet normal -0.208424 0.955572 0.208424
outer loop
vertex 4.22944 1.06413 4.83777
vertex 4.50464 1.02007 5.31494
vertex 4.60563 1.06413 5.21396
endloop
endfacet
facet normal -0.306801 0.90097 0.306801
outer loop
vertex 4.22944 1.06413 4.83777
vertex 4.60563 1.06413 5.21396
vertex 4.32466 1.12897 4.74256
endloop
endfacet
facet normal -0.306801 0.90097 0.306801
outer loop
vertex 4.32466 1.12897 4.74256
vertex 4.60563 1.06413 5.21396
vertex 4.70084 1.12897 5.11874
endloop
endfacet
facet normal -0.398328 0.826238 0.398328
outer loop
vertex 4.32466 1.12897 4.74256
vertex 4.70084 1.12897 5.11874
vertex 4.41198 1.21317 4.65524
endloop
endfacet
facet normal -0.398328 0.826238 0.398328
outer loop
vertex 4.41198 1.21317 4.65524
vertex 4.70084 1.12897 5.11874
vertex 4.78816 1.21317 5.03142
endloop
endfacet
facet normal -0.480956 0.73305 0.480956
outer loop
vertex 4.41198 1.21317 4.65524
vertex 4.78816 1.21317 5.03142
vertex 4.48946 1.31483 4.57776
endloop
endfacet
facet normal -0.480954 0.733053 0.480955
outer loop
vertex 4.48946 1.31483 4.57776
vertex 4.78816 1.21317 5.03142
vertex 4.86564 1.31483 4.95394
endloop
endfacet
facet normal -0.552837 0.623492 0.552837
outer loop
vertex 4.48946 1.31483 4.57776
vertex 4.86564 1.31483 4.95394
vertex 4.55535 1.43168 4.51187
endloop
endfacet
facet normal -0.552838 0.623491 0.552838
outer loop
vertex 4.55535 1.43168 4.51187
vertex 4.86564 1.31483 4.95394
vertex 4.93153 1.43168 4.88805
endloop
endfacet
facet normal -0.612374 0.499997 0.612374
outer loop
vertex 4.55535 1.43168 4.51187
vertex 4.93153 1.43168 4.88805
vertex 4.60819 1.56112 4.45903
endloop
endfacet
facet normal -0.612373 0.499998 0.612373
outer loop
vertex 4.60819 1.56112 4.45903
vertex 4.93153 1.43168 4.88805
vertex 4.98437 1.56112 4.83521
endloop
endfacet
facet normal -0.658226 0.365344 0.658227
outer loop
vertex 4.60819 1.56112 4.45903
vertex 4.98437 1.56112 4.83521
vertex 4.6468 1.70024 4.42042
endloop
endfacet
facet normal -0.658227 0.365342 0.658227
outer loop
vertex 4.6468 1.70024 4.42042
vertex 4.98437 1.56112 4.83521
vertex 5.02298 1.70024 4.7966
endloop
endfacet
facet normal -0.689378 0.22252 0.689378
outer loop
vertex 4.6468 1.70024 4.42042
vertex 5.02298 1.70024 4.7966
vertex 4.67032 1.84596 4.3969
endloop
endfacet
facet normal -0.689378 0.22252 0.689378
outer loop
vertex 4.67032 1.84596 4.3969
vertex 5.02298 1.70024 4.7966
vertex 5.0465 1.84596 4.77308
endloop
endfacet
facet normal -0.70513 0.0747307 0.70513
outer loop
vertex 4.67032 1.84596 4.3969
vertex 5.0465 1.84596 4.77308
vertex 4.67822 1.995 4.389
endloop
endfacet
facet normal -0.70513 0.0747307 0.70513
outer loop
vertex 4.67822 1.995 4.389
vertex 5.0465 1.84596 4.77308
vertex 5.0544 1.995 4.76518
endloop
endfacet
facet normal -0.70513 -0.0747305 0.70513
outer loop
vertex 4.67822 1.995 4.389
vertex 5.0544 1.995 4.76518
vertex 4.67032 2.14404 4.3969
endloop
endfacet
facet normal -0.70513 -0.0747305 0.70513
outer loop
vertex 4.67032 2.14404 4.3969
vertex 5.0544 1.995 4.76518
vertex 5.0465 2.14404 4.77308
endloop
endfacet
facet normal -0.698104 0.159064 0.698104
outer loop
vertex 2.56842 2.20706 6.4988
vertex 2.9446 2.20706 6.87498
vertex 2.59231 2.41671 6.47491
endloop
endfacet
facet normal -0.698104 0.159063 0.698104
outer loop
vertex 2.59231 2.41671 6.47491
vertex 2.9446 2.20706 6.87498
vertex 2.96849 2.41671 6.85109
endloop
endfacet
facet normal -0.682194 0.263101 0.682194
outer loop
vertex 2.59231 2.41671 6.47491
vertex 2.96849 2.41671 6.85109
vertex 2.63182 2.62158 6.4354
endloop
endfacet
facet normal -0.682194 0.263102 0.682194
outer loop
vertex 2.63182 2.62158 6.4354
vertex 2.96849 2.41671 6.85109
vertex 3.008 2.62158 6.81158
endloop
endfacet
facet normal -0.658554 0.364162 0.658554
outer loop
vertex 2.63182 2.62158 6.4354
vertex 3.008 2.62158 6.81158
vertex 2.6865 2.81936 6.38072
endloop
endfacet
facet normal -0.658553 0.364162 0.658554
outer loop
vertex 2.6865 2.81936 6.38072
vertex 3.008 2.62158 6.81158
vertex 3.06268 2.81936 6.7569
endloop
endfacet
facet normal -0.627452 0.461092 0.627453
outer loop
vertex 2.6865 2.81936 6.38072
vertex 3.06268 2.81936 6.7569
vertex 2.75573 3.00779 6.31149
endloop
endfacet
facet normal -0.627453 0.461091 0.627453
outer loop
vertex 2.75573 3.00779 6.31149
vertex 3.06268 2.81936 6.7569
vertex 3.13191 3.00779 6.68767
endloop
endfacet
facet normal -0.589241 0.552802 0.589241
outer loop
vertex 2.75573 3.00779 6.31149
vertex 3.13191 3.00779 6.68767
vertex 2.83874 3.18475 6.22848
endloop
endfacet
facet normal -0.589242 0.552801 0.589241
outer loop
vertex 2.83874 3.18475 6.22848
vertex 3.13191 3.00779 6.68767
vertex 3.21492 3.18475 6.60466
endloop
endfacet
facet normal -0.544356 0.638243 0.544355
outer loop
vertex 2.83874 3.18475 6.22848
vertex 3.21492 3.18475 6.60466
vertex 2.93458 3.34823 6.13264
endloop
endfacet
facet normal -0.544354 0.638245 0.544355
outer loop
vertex 2.93458 3.34823 6.13264
vertex 3.21492 3.18475 6.60466
vertex 3.31076 3.34823 6.50882
endloop
endfacet
facet normal -0.4933 0.716457 0.4933
outer loop
vertex 2.93458 3.34823 6.13264
vertex 3.31076 3.34823 6.50882
vertex 3.04216 3.49638 6.02506
endloop
endfacet
facet normal -0.4933 0.716457 0.4933
outer loop
vertex 3.04216 3.49638 6.02506
vertex 3.31076 3.34823 6.50882
vertex 3.41834 3.49638 6.40124
endloop
endfacet
facet normal -0.436655 0.786552 0.436655
outer loop
vertex 3.04216 3.49638 6.02506
vertex 3.41834 3.49638 6.40124
vertex 3.16027 3.62751 5.90695
endloop
endfacet
facet normal -0.436656 0.786552 0.436656
outer loop
vertex 3.16027 3.62751 5.90695
vertex 3.41834 3.49638 6.40124
vertex 3.53645 3.62751 6.28313
endloop
endfacet
facet normal -0.375065 0.847734 0.375064
outer loop
vertex 3.16027 3.62751 5.90695
vertex 3.53645 3.62751 6.28313
vertex 3.28756 3.74015 5.77965
endloop
endfacet
facet normal -0.375064 0.847734 0.375064
outer loop
vertex 3.28756 3.74015 5.77965
vertex 3.53645 3.62751 6.28313
vertex 3.66375 3.74015 6.15584
endloop
endfacet
facet normal -0.309223 0.899312 0.309223
outer loop
vertex 3.28756 3.74015 5.77965
vertex 3.66375 3.74015 6.15584
vertex 3.4226 3.83302 5.64462
endloop
endfacet
facet normal -0.309222 0.899312 0.309223
outer loop
vertex 3.4226 3.83302 5.64462
vertex 3.66375 3.74015 6.15584
vertex 3.79878 3.83302 6.0208
endloop
endfacet
facet normal -0.239879 0.9407 0.239879
outer loop
vertex 3.4226 3.83302 5.64462
vertex 3.79878 3.83302 6.0208
vertex 3.56386 3.90506 5.50336
endloop
endfacet
facet normal -0.239879 0.9407 0.239879
outer loop
vertex 3.56386 3.90506 5.50336
vertex 3.79878 3.83302 6.0208
vertex 3.94004 3.90506 5.87954
endloop
endfacet
facet normal -0.167814 0.97143 0.167814
outer loop
vertex 3.56386 3.90506 5.50336
vertex 3.94004 3.90506 5.87954
vertex 3.70973 3.95545 5.35749
endloop
endfacet
facet normal -0.167814 0.97143 0.167814
outer loop
vertex 3.70973 3.95545 5.35749
vertex 3.94004 3.90506 5.87954
vertex 4.08591 3.95545 5.73367
endloop
endfacet
facet normal -0.0938526 0.991153 0.0938527
outer loop
vertex 3.70973 3.95545 5.35749
vertex 4.08591 3.95545 5.73367
vertex 3.85856 3.98364 5.20866
endloop
endfacet
facet normal -0.0938529 0.991152 0.0938528
outer loop
vertex 3.85856 3.98364 5.20866
vertex 4.08591 3.95545 5.73367
vertex 4.23474 3.98364 5.58484
endloop
endfacet
facet normal -0.0188239 0.999646 0.0188239
outer loop
vertex 3.85856 3.98364 5.20866
vertex 4.23474 3.98364 5.58484
vertex 4.00866 3.98929 5.05856
endloop
endfacet
facet normal -0.0188239 0.999646 0.0188239
outer loop
vertex 4.00866 3.98929 5.05856
vertex 4.23474 3.98364 5.58484
vertex 4.38484 3.98929 5.43474
endloop
endfacet
facet normal 0.0564191 0.996812 -0.0564191
outer loop
vertex 4.00866 3.98929 5.05856
vertex 4.38484 3.98929 5.43474
vertex 4.15834 3.97235 4.90888
endloop
endfacet
facet normal 0.0564191 0.996812 -0.0564191
outer loop
vertex 4.15834 3.97235 4.90888
vertex 4.38484 3.98929 5.43474
vertex 4.53452 3.97235 5.28506
endloop
endfacet
facet normal 0.131018 0.982684 -0.131018
outer loop
vertex 4.15834 3.97235 4.90888
vertex 4.53452 3.97235 5.28506
vertex 4.3059 3.933 4.76132
endloop
endfacet
facet normal 0.131018 0.982684 -0.131018
outer loop
vertex 4.3059 3.933 4.76132
vertex 4.53452 3.97235 5.28506
vertex 4.68208 3.933 5.1375
endloop
endfacet
facet normal 0.204136 0.957422 -0.204136
outer loop
vertex 4.3059 3.933 4.76132
vertex 4.68208 3.933 5.1375
vertex 4.44967 3.8717 4.61755
endloop
endfacet
facet normal 0.204136 0.957422 -0.204136
outer loop
vertex 4.44967 3.8717 4.61755
vertex 4.68208 3.933 5.1375
vertex 4.82585 3.8717 4.99373
endloop
endfacet
facet normal 0.27494 0.921312 -0.27494
outer loop
vertex 4.44967 3.8717 4.61755
vertex 4.82585 3.8717 4.99373
vertex 4.58801 3.78913 4.47921
endloop
endfacet
facet normal 0.27494 0.921312 -0.27494
outer loop
vertex 4.58801 3.78913 4.47921
vertex 4.82585 3.8717 4.99373
vertex 4.96419 3.78913 4.85539
endloop
endfacet
facet normal 0.342629 0.874763 -0.342629
outer loop
vertex 4.58801 3.78913 4.47921
vertex 4.96419 3.78913 4.85539
vertex 4.71936 3.68623 4.34786
endloop
endfacet
facet normal 0.342629 0.874763 -0.342629
outer loop
vertex 4.71936 3.68623 4.34786
vertex 4.96419 3.78913 4.85539
vertex 5.09554 3.68623 4.72404
endloop
endfacet
facet normal 0.406436 0.818303 -0.406436
outer loop
vertex 4.71936 3.68623 4.34786
vertex 5.09554 3.68623 4.72404
vertex 4.84224 3.56417 4.22498
endloop
endfacet
facet normal 0.406436 0.818303 -0.406436
outer loop
vertex 4.84224 3.56417 4.22498
vertex 5.09554 3.68623 4.72404
vertex 5.21842 3.56417 4.60116
endloop
endfacet
facet normal 0.465639 0.75257 -0.465639
outer loop
vertex 4.84224 3.56417 4.22498
vertex 5.21842 3.56417 4.60116
vertex 4.95524 3.42433 4.11198
endloop
endfacet
facet normal 0.465638 0.75257 -0.465638
outer loop
vertex 4.95524 3.42433 4.11198
vertex 5.21842 3.56417 4.60116
vertex 5.33142 3.42433 4.48816
endloop
endfacet
facet normal 0.519563 0.678312 -0.519564
outer loop
vertex 4.95524 3.42433 4.11198
vertex 5.33142 3.42433 4.48816
vertex 5.0571 3.2683 4.01012
endloop
endfacet
facet normal 0.519564 0.678312 -0.519564
outer loop
vertex 5.0571 3.2683 4.01012
vertex 5.33142 3.42433 4.48816
vertex 5.43328 3.2683 4.3863
endloop
endfacet
facet normal 0.567602 0.596369 -0.567602
outer loop
vertex 5.0571 3.2683 4.01012
vertex 5.43328 3.2683 4.3863
vertex 5.14665 3.09784 3.92057
endloop
endfacet
facet normal 0.567602 0.596369 -0.567602
outer loop
vertex 5.14665 3.09784 3.92057
vertex 5.43328 3.2683 4.3863
vertex 5.52283 3.09784 4.29675
endloop
endfacet
facet normal 0.609211 0.507664 -0.609211
outer loop
vertex 5.14665 3.09784 3.92057
vertex 5.52283 3.09784 4.29675
vertex 5.22288 2.91488 3.84434
endloop
endfacet
facet normal 0.609211 0.507665 -0.609211
outer loop
vertex 5.22288 2.91488 3.84434
vertex 5.52283 3.09784 4.29675
vertex 5.59906 2.91488 4.22052
endloop
endfacet
facet normal 0.643916 0.413212 -0.643916
outer loop
vertex 5.22288 2.91488 3.84434
vertex 5.59906 2.91488 4.22052
vertex 5.28492 2.7215 3.78229
endloop
endfacet
facet normal 0.643916 0.413211 -0.643916
outer loop
vertex 5.28492 2.7215 3.78229
vertex 5.59906 2.91488 4.22052
vertex 5.66111 2.7215 4.15847
endloop
endfacet
facet normal 0.671325 0.314077 -0.671325
outer loop
vertex 5.28492 2.7215 3.78229
vertex 5.66111 2.7215 4.15847
vertex 5.33209 2.51989 3.73513
endloop
endfacet
facet normal 0.671325 0.314077 -0.671325
outer loop
vertex 5.33209 2.51989 3.73513
vertex 5.66111 2.7215 4.15847
vertex 5.70827 2.51989 4.11131
endloop
endfacet
facet normal 0.691128 0.211384 -0.691128
outer loop
vertex 5.33209 2.51989 3.73513
vertex 5.70827 2.51989 4.11131
vertex 5.36383 2.31233 3.70339
endloop
endfacet
facet normal 0.691129 0.211384 -0.691128
outer loop
vertex 5.36383 2.31233 3.70339
vertex 5.70827 2.51989 4.11131
vertex 5.74001 2.31233 4.07957
endloop
endfacet
facet normal 0.703101 0.106291 -0.703101
outer loop
vertex 5.36383 2.31233 3.70339
vertex 5.74001 2.31233 4.07957
vertex 5.37979 2.10118 3.68743
endloop
endfacet
facet normal 0.703101 0.106292 -0.703101
outer loop
vertex 5.37979 2.10118 3.68743
vertex 5.74001 2.31233 4.07957
vertex 5.75597 2.10118 4.06361
endloop
endfacet
facet normal 0.707107 0 -0.707107
outer loop
vertex 5.37979 2.10118 3.68743
vertex 5.75597 2.10118 4.06361
vertex 5.37979 1.88882 3.68743
endloop
endfacet
facet normal 0.707107 0 -0.707107
outer loop
vertex 5.37979 1.88882 3.68743
vertex 5.75597 2.10118 4.06361
vertex 5.75597 1.88882 4.06361
endloop
endfacet
facet normal 0.703101 -0.106291 -0.703101
outer loop
vertex 5.37979 1.88882 3.68743
vertex 5.75597 1.88882 4.06361
vertex 5.36383 1.67767 3.70339
endloop
endfacet
facet normal 0.703101 -0.106292 -0.703101
outer loop
vertex 5.36383 1.67767 3.70339
vertex 5.75597 1.88882 4.06361
vertex 5.74001 1.67767 4.07957
endloop
endfacet
facet normal 0.691128 -0.211385 -0.691128
outer loop
vertex 5.36383 1.67767 3.70339
vertex 5.74001 1.67767 4.07957
vertex 5.33209 1.47011 3.73513
endloop
endfacet
facet normal 0.691128 -0.211384 -0.691128
outer loop
vertex 5.33209 1.47011 3.73513
vertex 5.74001 1.67767 4.07957
vertex 5.70827 1.47011 4.11131
endloop
endfacet
facet normal 0.671325 -0.314077 -0.671325
outer loop
vertex 5.33209 1.47011 3.73513
vertex 5.70827 1.47011 4.11131
vertex 5.28492 1.2685 3.78229
endloop
endfacet
facet normal 0.671325 -0.314077 -0.671325
outer loop
vertex 5.28492 1.2685 3.78229
vertex 5.70827 1.47011 4.11131
vertex 5.66111 1.2685 4.15847
endloop
endfacet
facet normal 0.643916 -0.413212 -0.643916
outer loop
vertex 5.28492 1.2685 3.78229
vertex 5.66111 1.2685 4.15847
vertex 5.22288 1.07512 3.84434
endloop
endfacet
facet normal 0.643916 -0.413211 -0.643917
outer loop
vertex 5.22288 1.07512 3.84434
vertex 5.66111 1.2685 4.15847
vertex 5.59906 1.07512 4.22052
endloop
endfacet
facet normal 0.609211 -0.507664 -0.609212
outer loop
vertex 5.22288 1.07512 3.84434
vertex 5.59906 1.07512 4.22052
vertex 5.14665 0.892164 3.92057
endloop
endfacet
facet normal 0.609211 -0.507665 -0.609211
outer loop
vertex 5.14665 0.892164 3.92057
vertex 5.59906 1.07512 4.22052
vertex 5.52283 0.892164 4.29675
endloop
endfacet
facet normal 0.567602 -0.596369 -0.567602
outer loop
vertex 5.14665 0.892164 3.92057
vertex 5.52283 0.892164 4.29675
vertex 5.0571 0.721703 4.01012
endloop
endfacet
facet normal 0.567602 -0.596369 -0.567602
outer loop
vertex 5.0571 0.721703 4.01012
vertex 5.52283 0.892164 4.29675
vertex 5.43328 0.721703 4.3863
endloop
endfacet
facet normal 0.519563 -0.678312 -0.519563
outer loop
vertex 5.0571 0.721703 4.01012
vertex 5.43328 0.721703 4.3863
vertex 4.95524 0.565669 4.11198
endloop
endfacet
facet normal 0.519564 -0.678312 -0.519564
outer loop
vertex 4.95524 0.565669 4.11198
vertex 5.43328 0.721703 4.3863
vertex 5.33142 0.565669 4.48816
endloop
endfacet
facet normal 0.465638 -0.75257 -0.465639
outer loop
vertex 4.95524 0.565669 4.11198
vertex 5.33142 0.565669 4.48816
vertex 4.84224 0.42583 4.22498
endloop
endfacet
facet normal 0.465638 -0.752571 -0.465638
outer loop
vertex 4.84224 0.42583 4.22498
vertex 5.33142 0.565669 4.48816
vertex 5.21842 0.42583 4.60116
endloop
endfacet
facet normal 0.406436 -0.818303 -0.406436
outer loop
vertex 4.84224 0.42583 4.22498
vertex 5.21842 0.42583 4.60116
vertex 4.71936 0.30377 4.34786
endloop
endfacet
facet normal 0.406436 -0.818303 -0.406436
outer loop
vertex 4.71936 0.30377 4.34786
vertex 5.21842 0.42583 4.60116
vertex 5.09554 0.30377 4.72404
endloop
endfacet
facet normal 0.342629 -0.874763 -0.342629
outer loop
vertex 4.71936 0.30377 4.34786
vertex 5.09554 0.30377 4.72404
vertex 4.58801 0.200872 4.47921
endloop
endfacet
facet normal 0.342629 -0.874763 -0.342629
outer loop
vertex 4.58801 0.200872 4.47921
vertex 5.09554 0.30377 4.72404
vertex 4.96419 0.200872 4.85539
endloop
endfacet
facet normal 0.27494 -0.921312 -0.27494
outer loop
vertex 4.58801 0.200872 4.47921
vertex 4.96419 0.200872 4.85539
vertex 4.44967 0.118303 4.61755
endloop
endfacet
facet normal 0.27494 -0.921312 -0.27494
outer loop
vertex 4.44967 0.118303 4.61755
vertex 4.96419 0.200872 4.85539
vertex 4.82585 0.118303 4.99373
endloop
endfacet
facet normal 0.204136 -0.957422 -0.204136
outer loop
vertex 4.44967 0.118303 4.61755
vertex 4.82585 0.118303 4.99373
vertex 4.3059 0.0569974 4.76132
endloop
endfacet
facet normal 0.204136 -0.957422 -0.204136
outer loop
vertex 4.3059 0.0569974 4.76132
vertex 4.82585 0.118303 4.99373
vertex 4.68208 0.0569974 5.1375
endloop
endfacet
facet normal 0.131019 -0.982684 -0.131019
outer loop
vertex 4.3059 0.0569974 4.76132
vertex 4.68208 0.0569974 5.1375
vertex 4.15834 0.0176502 4.90888
endloop
endfacet
facet normal 0.131019 -0.982684 -0.131019
outer loop
vertex 4.15834 0.0176502 4.90888
vertex 4.68208 0.0569974 5.1375
vertex 4.53452 0.0176502 5.28506
endloop
endfacet
facet normal 0.0564171 -0.996812 -0.0564171
outer loop
vertex 4.15834 0.0176502 4.90888
vertex 4.53452 0.0176502 5.28506
vertex 4.00866 0.000707107 5.05856
endloop
endfacet
facet normal 0.0564171 -0.996812 -0.0564171
outer loop
vertex 4.00866 0.000707107 5.05856
vertex 4.53452 0.0176502 5.28506
vertex 4.38484 0.000707107 5.43474
endloop
endfacet
facet normal -0.0188231 -0.999646 0.0188231
outer loop
vertex 4.00866 0.000707107 5.05856
vertex 4.38484 0.000707107 5.43474
vertex 3.85856 0.00636 5.20866
endloop
endfacet
facet normal -0.0188231 -0.999646 0.0188231
outer loop
vertex 3.85856 0.00636 5.20866
vertex 4.38484 0.000707107 5.43474
vertex 4.23474 0.00636 5.58484
endloop
endfacet
facet normal -0.0938518 -0.991153 0.0938516
outer loop
vertex 3.85856 0.00636 5.20866
vertex 4.23474 0.00636 5.58484
vertex 3.70973 0.0345453 5.35749
endloop
endfacet
facet normal -0.0938519 -0.991153 0.093852
outer loop
vertex 3.70973 0.0345453 5.35749
vertex 4.23474 0.00636 5.58484
vertex 4.08591 0.0345453 5.73367
endloop
endfacet
facet normal -0.167815 -0.97143 0.167815
outer loop
vertex 3.70973 0.0345453 5.35749
vertex 4.08591 0.0345453 5.73367
vertex 3.56386 0.0849431 5.50336
endloop
endfacet
facet normal -0.167815 -0.97143 0.167815
outer loop
vertex 3.56386 0.0849431 5.50336
vertex 4.08591 0.0345453 5.73367
vertex 3.94004 0.0849431 5.87954
endloop
endfacet
facet normal -0.239878 -0.9407 0.239879
outer loop
vertex 3.56386 0.0849431 5.50336
vertex 3.94004 0.0849431 5.87954
vertex 3.4226 0.156983 5.64462
endloop
endfacet
facet normal -0.239878 -0.9407 0.239879
outer loop
vertex 3.4226 0.156983 5.64462
vertex 3.94004 0.0849431 5.87954
vertex 3.79878 0.156983 6.0208
endloop
endfacet
facet normal -0.309223 -0.899312 0.309223
outer loop
vertex 3.4226 0.156983 5.64462
vertex 3.79878 0.156983 6.0208
vertex 3.28756 0.249848 5.77965
endloop
endfacet
facet normal -0.309223 -0.899312 0.309222
outer loop
vertex 3.28756 0.249848 5.77965
vertex 3.79878 0.156983 6.0208
vertex 3.66375 0.249848 6.15584
endloop
endfacet
facet normal -0.375064 -0.847734 0.375064
outer loop
vertex 3.28756 0.249848 5.77965
vertex 3.66375 0.249848 6.15584
vertex 3.16027 0.362486 5.90695
endloop
endfacet
facet normal -0.375064 -0.847735 0.375064
outer loop
vertex 3.16027 0.362486 5.90695
vertex 3.66375 0.249848 6.15584
vertex 3.53645 0.362486 6.28313
endloop
endfacet
facet normal -0.436656 -0.786552 0.436655
outer loop
vertex 3.16027 0.362486 5.90695
vertex 3.53645 0.362486 6.28313
vertex 3.04216 0.493621 6.02506
endloop
endfacet
facet normal -0.436656 -0.786551 0.436656
outer loop
vertex 3.04216 0.493621 6.02506
vertex 3.53645 0.362486 6.28313
vertex 3.41834 0.493621 6.40124
endloop
endfacet
facet normal -0.4933 -0.716457 0.4933
outer loop
vertex 3.04216 0.493621 6.02506
vertex 3.41834 0.493621 6.40124
vertex 2.93458 0.641768 6.13264
endloop
endfacet
facet normal -0.4933 -0.716456 0.493301
outer loop
vertex 2.93458 0.641768 6.13264
vertex 3.41834 0.493621 6.40124
vertex 3.31076 0.641768 6.50882
endloop
endfacet
facet normal -0.544355 -0.638243 0.544356
outer loop
vertex 2.93458 0.641768 6.13264
vertex 3.31076 0.641768 6.50882
vertex 2.83874 0.805247 6.22848
endloop
endfacet
facet normal -0.544355 -0.638245 0.544354
outer loop
vertex 2.83874 0.805247 6.22848
vertex 3.31076 0.641768 6.50882
vertex 3.21492 0.805247 6.60466
endloop
endfacet
facet normal -0.589242 -0.552802 0.589241
outer loop
vertex 2.83874 0.805247 6.22848
vertex 3.21492 0.805247 6.60466
vertex 2.75573 0.982207 6.31149
endloop
endfacet
facet normal -0.589242 -0.552801 0.589242
outer loop
vertex 2.75573 0.982207 6.31149
vertex 3.21492 0.805247 6.60466
vertex 3.13191 0.982207 6.68767
endloop
endfacet
facet normal -0.627453 -0.461092 0.627453
outer loop
vertex 2.75573 0.982207 6.31149
vertex 3.13191 0.982207 6.68767
vertex 2.6865 1.17064 6.38072
endloop
endfacet
facet normal -0.627453 -0.461091 0.627454
outer loop
vertex 2.6865 1.17064 6.38072
vertex 3.13191 0.982207 6.68767
vertex 3.06268 1.17064 6.7569
endloop
endfacet
facet normal -0.658553 -0.364162 0.658554
outer loop
vertex 2.6865 1.17064 6.38072
vertex 3.06268 1.17064 6.7569
vertex 2.63182 1.36842 6.4354
endloop
endfacet
facet normal -0.658553 -0.364162 0.658554
outer loop
vertex 2.63182 1.36842 6.4354
vertex 3.06268 1.17064 6.7569
vertex 3.008 1.36842 6.81158
endloop
endfacet
facet normal -0.682194 -0.263101 0.682194
outer loop
vertex 2.63182 1.36842 6.4354
vertex 3.008 1.36842 6.81158
vertex 2.59231 1.57329 6.47491
endloop
endfacet
facet normal -0.682194 -0.263102 0.682194
outer loop
vertex 2.59231 1.57329 6.47491
vertex 3.008 1.36842 6.81158
vertex 2.96849 1.57329 6.85109
endloop
endfacet
facet normal -0.698104 -0.159064 0.698104
outer loop
vertex 2.59231 1.57329 6.47491
vertex 2.96849 1.57329 6.85109
vertex 2.56842 1.78294 6.4988
endloop
endfacet
facet normal -0.698104 -0.159064 0.698104
outer loop
vertex 2.56842 1.78294 6.4988
vertex 2.96849 1.57329 6.85109
vertex 2.9446 1.78294 6.87498
endloop
endfacet
facet normal -0.706104 -0.0532215 0.706105
outer loop
vertex 2.56842 1.78294 6.4988
vertex 2.9446 1.78294 6.87498
vertex 2.56043 1.995 6.50679
endloop
endfacet
facet normal -0.706105 -0.0532223 0.706105
outer loop
vertex 2.56043 1.995 6.50679
vertex 2.9446 1.78294 6.87498
vertex 2.93661 1.995 6.88297
endloop
endfacet
facet normal -0.706105 0.0532215 0.706105
outer loop
vertex 2.56043 1.995 6.50679
vertex 2.93661 1.995 6.88297
vertex 2.56842 2.20706 6.4988
endloop
endfacet
facet normal -0.706104 0.0532223 0.706105
outer loop
vertex 2.56842 2.20706 6.4988
vertex 2.93661 1.995 6.88297
vertex 2.9446 2.20706 6.87498
endloop
endfacet
facet normal -0.707107 0 -0.707107
outer loop
vertex 4.55535 1.43168 4.51187
vertex 5.0571 0.721703 4.01012
vertex 4.48946 1.31483 4.57776
endloop
endfacet
facet normal -0.707106 1.28467e-006 -0.707107
outer loop
vertex 4.48946 1.31483 4.57776
vertex 5.0571 0.721703 4.01012
vertex 4.95524 0.565669 4.11198
endloop
endfacet
facet normal -0.707107 2.47856e-007 -0.707107
outer loop
vertex 4.48946 1.31483 4.57776
vertex 4.95524 0.565669 4.11198
vertex 4.41198 1.21317 4.65524
endloop
endfacet
facet normal -0.707108 -9.72719e-007 -0.707106
outer loop
vertex 4.41198 1.21317 4.65524
vertex 4.95524 0.565669 4.11198
vertex 4.84224 0.42583 4.22498
endloop
endfacet
facet normal -0.707107 0 -0.707107
outer loop
vertex 4.41198 1.21317 4.65524
vertex 4.84224 0.42583 4.22498
vertex 4.32466 1.12897 4.74256
endloop
endfacet
facet normal -0.707107 -1.12422e-006 -0.707107
outer loop
vertex 3.29542 1.70024 5.7718
vertex 2.59231 1.57329 6.47491
vertex 3.2719 1.84596 5.79532
endloop
endfacet
facet normal -0.707107 -7.96004e-007 -0.707107
outer loop
vertex 3.2719 1.84596 5.79532
vertex 2.59231 1.57329 6.47491
vertex 2.56842 1.78294 6.4988
endloop
endfacet
facet normal -0.707107 0 -0.707107
outer loop
vertex 3.2719 1.84596 5.79532
vertex 2.56842 1.78294 6.4988
vertex 3.264 1.995 5.80322
endloop
endfacet
facet normal -0.707107 7.85985e-007 -0.707107
outer loop
vertex 3.264 1.995 5.80322
vertex 2.56842 1.78294 6.4988
vertex 2.56043 1.995 6.50679
endloop
endfacet
facet normal -0.707107 1.26974e-008 -0.707107
outer loop
vertex 3.264 1.995 5.80322
vertex 2.56043 1.995 6.50679
vertex 3.2719 2.14404 5.79532
endloop
endfacet
facet normal -0.707107 5.91587e-007 -0.707106
outer loop
vertex 3.61756 1.12897 5.44966
vertex 3.16027 0.362486 5.90695
vertex 3.53024 1.21317 5.53698
endloop
endfacet
facet normal -0.707107 4.18636e-007 -0.707106
outer loop
vertex 3.53024 1.21317 5.53698
vertex 3.16027 0.362486 5.90695
vertex 3.04216 0.493621 6.02506
endloop
endfacet
facet normal -0.707106 -1.68588e-006 -0.707108
outer loop
vertex 3.53024 1.21317 5.53698
vertex 3.04216 0.493621 6.02506
vertex 3.45276 1.31483 5.61446
endloop
endfacet
facet normal -0.707107 -8.28772e-007 -0.707107
outer loop
vertex 3.45276 1.31483 5.61446
vertex 3.04216 0.493621 6.02506
vertex 2.93458 0.641768 6.13264
endloop
endfacet
facet normal -0.707108 1.45375e-006 -0.707106
outer loop
vertex 3.45276 1.31483 5.61446
vertex 2.93458 0.641768 6.13264
vertex 3.38687 1.43168 5.68035
endloop
endfacet
facet normal -0.707107 2.16382e-006 -0.707106
outer loop
vertex 4.60819 2.42888 4.45903
vertex 5.28492 2.7215 3.78229
vertex 4.6468 2.28976 4.42042
endloop
endfacet
facet normal -0.707107 1.5506e-006 -0.707107
outer loop
vertex 4.6468 2.28976 4.42042
vertex 5.28492 2.7215 3.78229
vertex 5.33209 2.51989 3.73513
endloop
endfacet
facet normal -0.707106 -2.195e-006 -0.707107
outer loop
vertex 4.6468 2.28976 4.42042
vertex 5.33209 2.51989 3.73513
vertex 4.67032 2.14404 4.3969
endloop
endfacet
facet normal -0.707106 -2.31369e-006 -0.707107
outer loop
vertex 4.67032 2.14404 4.3969
vertex 5.33209 2.51989 3.73513
vertex 5.36383 2.31233 3.70339
endloop
endfacet
facet normal -0.707107 1.27181e-008 -0.707107
outer loop
vertex 4.67032 2.14404 4.3969
vertex 5.36383 2.31233 3.70339
vertex 4.67822 1.995 4.389
endloop
endfacet
facet normal -0.707107 0 -0.707107
outer loop
vertex 4.22944 2.92587 4.83777
vertex 4.58801 3.78913 4.47921
vertex 4.32466 2.86103 4.74256
endloop
endfacet
facet normal -0.707107 0 -0.707107
outer loop
vertex 4.32466 2.86103 4.74256
vertex 4.58801 3.78913 4.47921
vertex 4.71936 3.68623 4.34786
endloop
endfacet
facet normal -0.707107 0 -0.707107
outer loop
vertex 4.32466 2.86103 4.74256
vertex 4.71936 3.68623 4.34786
vertex 4.41198 2.77683 4.65524
endloop
endfacet
facet normal -0.707107 0 -0.707107
outer loop
vertex 4.41198 2.77683 4.65524
vertex 4.71936 3.68623 4.34786
vertex 4.84224 3.56417 4.22498
endloop
endfacet
facet normal -0.707107 0 -0.707107
outer loop
vertex 4.41198 2.77683 4.65524
vertex 4.84224 3.56417 4.22498
vertex 4.48946 2.67517 4.57776
endloop
endfacet
facet normal -0.707106 -3.99546e-007 -0.707108
outer loop
vertex 3.81376 1.02007 5.25346
vertex 3.56386 0.0849431 5.50336
vertex 3.71277 1.06413 5.35444
endloop
endfacet
facet normal -0.707106 -3.28225e-007 -0.707107
outer loop
vertex 3.71277 1.06413 5.35444
vertex 3.56386 0.0849431 5.50336
vertex 3.4226 0.156983 5.64462
endloop
endfacet
facet normal -0.707107 0 -0.707107
outer loop
vertex 3.71277 1.06413 5.35444
vertex 3.4226 0.156983 5.64462
vertex 3.61756 1.12897 5.44966
endloop
endfacet
facet normal -0.707106 -2.20047e-007 -0.707107
outer loop
vertex 3.61756 1.12897 5.44966
vertex 3.4226 0.156983 5.64462
vertex 3.28756 0.249848 5.77965
endloop
endfacet
facet normal -0.707108 8.90307e-007 -0.707106
outer loop
vertex 3.61756 1.12897 5.44966
vertex 3.28756 0.249848 5.77965
vertex 3.16027 0.362486 5.90695
endloop
endfacet
facet normal -0.707107 0 -0.707107
outer loop
vertex 4.12846 1.02007 4.93876
vertex 4.15834 0.0176502 4.90888
vertex 4.02395 0.997796 5.04327
endloop
endfacet
facet normal -0.707106 3.04145e-007 -0.707108
outer loop
vertex 4.02395 0.997796 5.04327
vertex 4.15834 0.0176502 4.90888
vertex 4.00866 0.000707107 5.05856
endloop
endfacet
facet normal -0.707107 3.38159e-007 -0.707107
outer loop
vertex 4.02395 0.997796 5.04327
vertex 4.00866 0.000707107 5.05856
vertex 3.91827 0.997796 5.14895
endloop
endfacet
facet normal -0.707108 1.34976e-007 -0.707106
outer loop
vertex 3.91827 0.997796 5.14895
vertex 4.00866 0.000707107 5.05856
vertex 3.85856 0.00636 5.20866
endloop
endfacet
facet normal -0.707107 0 -0.707107
outer loop
vertex 3.91827 0.997796 5.14895
vertex 3.85856 0.00636 5.20866
vertex 3.81376 1.02007 5.25346
endloop
endfacet
facet normal -0.707107 -5.0476e-008 -0.707106
outer loop
vertex 3.81376 1.02007 5.25346
vertex 3.85856 0.00636 5.20866
vertex 3.70973 0.0345453 5.35749
endloop
endfacet
facet normal -0.707106 -2.82756e-007 -0.707107
outer loop
vertex 3.81376 1.02007 5.25346
vertex 3.70973 0.0345453 5.35749
vertex 3.56386 0.0849431 5.50336
endloop
endfacet
facet normal -0.707107 0 -0.707107
outer loop
vertex 4.84224 0.42583 4.22498
vertex 4.71936 0.30377 4.34786
vertex 4.32466 1.12897 4.74256
endloop
endfacet
facet normal -0.707107 0 -0.707107
outer loop
vertex 4.32466 1.12897 4.74256
vertex 4.71936 0.30377 4.34786
vertex 4.58801 0.200872 4.47921
endloop
endfacet
facet normal -0.707107 0 -0.707107
outer loop
vertex 4.32466 1.12897 4.74256
vertex 4.58801 0.200872 4.47921
vertex 4.22944 1.06413 4.83777
endloop
endfacet
facet normal -0.707107 0 -0.707107
outer loop
vertex 4.22944 1.06413 4.83777
vertex 4.58801 0.200872 4.47921
vertex 4.44967 0.118303 4.61755
endloop
endfacet
facet normal -0.707107 0 -0.707107
outer loop
vertex 4.22944 1.06413 4.83777
vertex 4.44967 0.118303 4.61755
vertex 4.12846 1.02007 4.93876
endloop
endfacet
facet normal -0.707107 0 -0.707107
outer loop
vertex 4.12846 1.02007 4.93876
vertex 4.44967 0.118303 4.61755
vertex 4.3059 0.0569974 4.76132
endloop
endfacet
facet normal -0.707107 0 -0.707107
outer loop
vertex 4.12846 1.02007 4.93876
vertex 4.3059 0.0569974 4.76132
vertex 4.15834 0.0176502 4.90888
endloop
endfacet
facet normal -0.707107 -2.16382e-006 -0.707106
outer loop
vertex 4.6468 1.70024 4.42042
vertex 5.28492 1.2685 3.78229
vertex 4.60819 1.56112 4.45903
endloop
endfacet
facet normal -0.707107 7.65582e-007 -0.707107
outer loop
vertex 4.60819 1.56112 4.45903
vertex 5.28492 1.2685 3.78229
vertex 5.22288 1.07512 3.84434
endloop
endfacet
facet normal -0.707107 8.46459e-008 -0.707107
outer loop
vertex 4.60819 1.56112 4.45903
vertex 5.22288 1.07512 3.84434
vertex 4.55535 1.43168 4.51187
endloop
endfacet
facet normal -0.707107 -6.67644e-007 -0.707106
outer loop
vertex 4.55535 1.43168 4.51187
vertex 5.22288 1.07512 3.84434
vertex 5.14665 0.892164 3.92057
endloop
endfacet
facet normal -0.707107 0 -0.707107
outer loop
vertex 4.55535 1.43168 4.51187
vertex 5.14665 0.892164 3.92057
vertex 5.0571 0.721703 4.01012
endloop
endfacet
facet normal -0.707108 7.94087e-007 -0.707106
outer loop
vertex 4.84224 3.56417 4.22498
vertex 4.95524 3.42433 4.11198
vertex 4.48946 2.67517 4.57776
endloop
endfacet
facet normal -0.707106 -1.28467e-006 -0.707107
outer loop
vertex 4.48946 2.67517 4.57776
vertex 4.95524 3.42433 4.11198
vertex 5.0571 3.2683 4.01012
endloop
endfacet
facet normal -0.707107 0 -0.707107
outer loop
vertex 4.48946 2.67517 4.57776
vertex 5.0571 3.2683 4.01012
vertex 4.55535 2.55832 4.51187
endloop
endfacet
facet normal -0.707107 0 -0.707107
outer loop
vertex 4.55535 2.55832 4.51187
vertex 5.0571 3.2683 4.01012
vertex 5.14665 3.09784 3.92057
endloop
endfacet
facet normal -0.707107 0 -0.707107
outer loop
vertex 4.55535 2.55832 4.51187
vertex 5.14665 3.09784 3.92057
vertex 4.60819 2.42888 4.45903
endloop
endfacet
facet normal -0.707107 6.07169e-007 -0.707106
outer loop
vertex 4.60819 2.42888 4.45903
vertex 5.14665 3.09784 3.92057
vertex 5.22288 2.91488 3.84434
endloop
endfacet
facet normal -0.707107 -7.65582e-007 -0.707107
outer loop
vertex 4.60819 2.42888 4.45903
vertex 5.22288 2.91488 3.84434
vertex 5.28492 2.7215 3.78229
endloop
endfacet
facet normal -0.707107 1.09358e-006 -0.707107
outer loop
vertex 3.33403 2.42888 5.73319
vertex 2.75573 3.00779 6.31149
vertex 3.38687 2.55832 5.68035
endloop
endfacet
facet normal -0.707107 -1.33433e-006 -0.707106
outer loop
vertex 3.38687 2.55832 5.68035
vertex 2.75573 3.00779 6.31149
vertex 2.83874 3.18475 6.22848
endloop
endfacet
facet normal -0.707108 -1.86013e-006 -0.707106
outer loop
vertex 3.38687 2.55832 5.68035
vertex 2.83874 3.18475 6.22848
vertex 3.45276 2.67517 5.61446
endloop
endfacet
facet normal -0.707107 8.0201e-007 -0.707107
outer loop
vertex 3.45276 2.67517 5.61446
vertex 2.83874 3.18475 6.22848
vertex 2.93458 3.34823 6.13264
endloop
endfacet
facet normal -0.707106 1.91603e-006 -0.707108
outer loop
vertex 3.45276 2.67517 5.61446
vertex 2.93458 3.34823 6.13264
vertex 3.53024 2.77683 5.53698
endloop
endfacet
facet normal -0.707106 -5.09548e-007 -0.707107
outer loop
vertex 2.93458 0.641768 6.13264
vertex 2.83874 0.805247 6.22848
vertex 3.38687 1.43168 5.68035
endloop
endfacet
facet normal -0.707107 1.33433e-006 -0.707106
outer loop
vertex 3.38687 1.43168 5.68035
vertex 2.83874 0.805247 6.22848
vertex 2.75573 0.982207 6.31149
endloop
endfacet
facet normal -0.707107 -1.09358e-006 -0.707107
outer loop
vertex 3.38687 1.43168 5.68035
vertex 2.75573 0.982207 6.31149
vertex 3.33403 1.56112 5.73319
endloop
endfacet
facet normal -0.707106 -1.46479e-006 -0.707107
outer loop
vertex 3.33403 1.56112 5.73319
vertex 2.75573 0.982207 6.31149
vertex 2.6865 1.17064 6.38072
endloop
endfacet
facet normal -0.707107 2.07605e-006 -0.707106
outer loop
vertex 3.33403 1.56112 5.73319
vertex 2.6865 1.17064 6.38072
vertex 3.29542 1.70024 5.7718
endloop
endfacet
facet normal -0.707107 1.49777e-006 -0.707106
outer loop
vertex 3.29542 1.70024 5.7718
vertex 2.6865 1.17064 6.38072
vertex 2.63182 1.36842 6.4354
endloop
endfacet
facet normal -0.707107 0 -0.707107
outer loop
vertex 3.29542 1.70024 5.7718
vertex 2.63182 1.36842 6.4354
vertex 2.59231 1.57329 6.47491
endloop
endfacet
facet normal -0.707107 2.33223e-006 -0.707106
outer loop
vertex 5.36383 2.31233 3.70339
vertex 5.37979 2.10118 3.68743
vertex 4.67822 1.995 4.389
endloop
endfacet
facet normal -0.707107 0 -0.707107
outer loop
vertex 4.67822 1.995 4.389
vertex 5.37979 2.10118 3.68743
vertex 5.37979 1.88882 3.68743
endloop
endfacet
facet normal -0.707107 2.52647e-008 -0.707107
outer loop
vertex 4.67822 1.995 4.389
vertex 5.37979 1.88882 3.68743
vertex 4.67032 1.84596 4.3969
endloop
endfacet
facet normal -0.707107 -2.37014e-006 -0.707107
outer loop
vertex 4.67032 1.84596 4.3969
vertex 5.37979 1.88882 3.68743
vertex 5.36383 1.67767 3.70339
endloop
endfacet
facet normal -0.707106 2.189e-006 -0.707107
outer loop
vertex 4.67032 1.84596 4.3969
vertex 5.36383 1.67767 3.70339
vertex 4.6468 1.70024 4.42042
endloop
endfacet
facet normal -0.707106 2.3177e-006 -0.707107
outer loop
vertex 4.6468 1.70024 4.42042
vertex 5.36383 1.67767 3.70339
vertex 5.33209 1.47011 3.73513
endloop
endfacet
facet normal -0.707107 -1.5506e-006 -0.707107
outer loop
vertex 4.6468 1.70024 4.42042
vertex 5.33209 1.47011 3.73513
vertex 5.28492 1.2685 3.78229
endloop
endfacet
facet normal -0.707107 0 -0.707107
outer loop
vertex 4.02395 2.9922 5.04327
vertex 4.15834 3.97235 4.90888
vertex 4.12846 2.96993 4.93876
endloop
endfacet
facet normal -0.707107 0 -0.707107
outer loop
vertex 4.12846 2.96993 4.93876
vertex 4.15834 3.97235 4.90888
vertex 4.3059 3.933 4.76132
endloop
endfacet
facet normal -0.707107 0 -0.707107
outer loop
vertex 4.12846 2.96993 4.93876
vertex 4.3059 3.933 4.76132
vertex 4.22944 2.92587 4.83777
endloop
endfacet
facet normal -0.707107 0 -0.707107
outer loop
vertex 4.22944 2.92587 4.83777
vertex 4.3059 3.933 4.76132
vertex 4.44967 3.8717 4.61755
endloop
endfacet
facet normal -0.707107 0 -0.707107
outer loop
vertex 4.22944 2.92587 4.83777
vertex 4.44967 3.8717 4.61755
vertex 4.58801 3.78913 4.47921
endloop
endfacet
facet normal -0.707106 3.99546e-007 -0.707108
outer loop
vertex 3.71277 2.92587 5.35444
vertex 3.56386 3.90506 5.50336
vertex 3.81376 2.96993 5.25346
endloop
endfacet
facet normal -0.707106 2.82756e-007 -0.707107
outer loop
vertex 3.81376 2.96993 5.25346
vertex 3.56386 3.90506 5.50336
vertex 3.70973 3.95545 5.35749
endloop
endfacet
facet normal -0.707107 1.67299e-007 -0.707107
outer loop
vertex 3.81376 2.96993 5.25346
vertex 3.70973 3.95545 5.35749
vertex 3.91827 2.9922 5.14895
endloop
endfacet
facet normal -0.707107 -6.74514e-008 -0.707106
outer loop
vertex 3.91827 2.9922 5.14895
vertex 3.70973 3.95545 5.35749
vertex 3.85856 3.98364 5.20866
endloop
endfacet
facet normal -0.707107 0 -0.707107
outer loop
vertex 3.91827 2.9922 5.14895
vertex 3.85856 3.98364 5.20866
vertex 4.02395 2.9922 5.04327
endloop
endfacet
facet normal -0.707108 -3.72388e-007 -0.707106
outer loop
vertex 4.02395 2.9922 5.04327
vertex 3.85856 3.98364 5.20866
vertex 4.00866 3.98929 5.05856
endloop
endfacet
facet normal -0.707106 -3.04145e-007 -0.707108
outer loop
vertex 4.02395 2.9922 5.04327
vertex 4.00866 3.98929 5.05856
vertex 4.15834 3.97235 4.90888
endloop
endfacet
facet normal -0.707107 -7.9234e-007 -0.707107
outer loop
vertex 2.56043 1.995 6.50679
vertex 2.56842 2.20706 6.4988
vertex 3.2719 2.14404 5.79532
endloop
endfacet
facet normal -0.707107 7.96003e-007 -0.707107
outer loop
vertex 3.2719 2.14404 5.79532
vertex 2.56842 2.20706 6.4988
vertex 2.59231 2.41671 6.47491
endloop
endfacet
facet normal -0.707107 1.12422e-006 -0.707107
outer loop
vertex 3.2719 2.14404 5.79532
vertex 2.59231 2.41671 6.47491
vertex 3.29542 2.28976 5.7718
endloop
endfacet
facet normal -0.707107 0 -0.707107
outer loop
vertex 3.29542 2.28976 5.7718
vertex 2.59231 2.41671 6.47491
vertex 2.63182 2.62158 6.4354
endloop
endfacet
facet normal -0.707107 -2.12815e-006 -0.707106
outer loop
vertex 3.29542 2.28976 5.7718
vertex 2.63182 2.62158 6.4354
vertex 3.33403 2.42888 5.73319
endloop
endfacet
facet normal -0.707107 -1.46122e-006 -0.707106
outer loop
vertex 3.33403 2.42888 5.73319
vertex 2.63182 2.62158 6.4354
vertex 2.6865 2.81936 6.38072
endloop
endfacet
facet normal -0.707106 1.46479e-006 -0.707107
outer loop
vertex 3.33403 2.42888 5.73319
vertex 2.6865 2.81936 6.38072
vertex 2.75573 3.00779 6.31149
endloop
endfacet
facet normal -0.707106 6.70733e-007 -0.707107
outer loop
vertex 2.93458 3.34823 6.13264
vertex 3.04216 3.49638 6.02506
vertex 3.53024 2.77683 5.53698
endloop
endfacet
facet normal -0.707107 -4.18636e-007 -0.707106
outer loop
vertex 3.53024 2.77683 5.53698
vertex 3.04216 3.49638 6.02506
vertex 3.16027 3.62751 5.90695
endloop
endfacet
facet normal -0.707107 -5.91587e-007 -0.707106
outer loop
vertex 3.53024 2.77683 5.53698
vertex 3.16027 3.62751 5.90695
vertex 3.61756 2.86103 5.44966
endloop
endfacet
facet normal -0.707108 -8.90307e-007 -0.707106
outer loop
vertex 3.61756 2.86103 5.44966
vertex 3.16027 3.62751 5.90695
vertex 3.28756 3.74015 5.77965
endloop
endfacet
facet normal -0.707107 -1.52724e-007 -0.707107
outer loop
vertex 3.61756 2.86103 5.44966
vertex 3.28756 3.74015 5.77965
vertex 3.71277 2.92587 5.35444
endloop
endfacet
facet normal -0.707106 3.27335e-007 -0.707107
outer loop
vertex 3.71277 2.92587 5.35444
vertex 3.28756 3.74015 5.77965
vertex 3.4226 3.83302 5.64462
endloop
endfacet
facet normal -0.707106 3.28225e-007 -0.707107
outer loop
vertex 3.71277 2.92587 5.35444
vertex 3.4226 3.83302 5.64462
vertex 3.56386 3.90506 5.50336
endloop
endfacet
endsolid
