solid C:\Temp\NOELParts\SPACER_87_LINK1_43_LINK1_42.STL created by CtrlView V2.70
facet normal 0.187379 0 0.982288
outer loop
vertex 304.5 4437 1311.02
vertex 304.5 4393 1311.02
vertex 327.629 4437 1306.61
endloop
endfacet
facet normal 0.187379 0 0.982288
outer loop
vertex 327.629 4437 1306.61
vertex 304.5 4393 1311.02
vertex 327.629 4393 1306.61
endloop
endfacet
facet normal 0.309017 0 0.951057
outer loop
vertex 327.629 4437 1306.61
vertex 327.629 4393 1306.61
vertex 350.023 4437 1299.33
endloop
endfacet
facet normal 0.309017 0 0.951057
outer loop
vertex 350.023 4437 1299.33
vertex 327.629 4393 1306.61
vertex 350.023 4393 1299.33
endloop
endfacet
facet normal 0.425781 0 0.904826
outer loop
vertex 350.023 4437 1299.33
vertex 350.023 4393 1299.33
vertex 371.329 4437 1289.31
endloop
endfacet
facet normal 0.425781 0 0.904826
outer loop
vertex 371.329 4437 1289.31
vertex 350.023 4393 1299.33
vertex 371.329 4393 1289.31
endloop
endfacet
facet normal 0.535827 0 0.844328
outer loop
vertex 371.329 4437 1289.31
vertex 371.329 4393 1289.31
vertex 391.21 4437 1276.69
endloop
endfacet
facet normal 0.535827 0 0.844328
outer loop
vertex 391.21 4437 1276.69
vertex 371.329 4393 1289.31
vertex 391.21 4393 1276.69
endloop
endfacet
facet normal 0.637423 0 0.770514
outer loop
vertex 391.21 4437 1276.69
vertex 391.21 4393 1276.69
vertex 409.353 4437 1261.68
endloop
endfacet
facet normal 0.637423 0 0.770514
outer loop
vertex 409.353 4437 1261.68
vertex 391.21 4393 1276.69
vertex 409.353 4393 1261.68
endloop
endfacet
facet normal 0.72897 0 0.684546
outer loop
vertex 409.353 4437 1261.68
vertex 409.353 4393 1261.68
vertex 425.471 4437 1244.52
endloop
endfacet
facet normal 0.72897 0 0.684546
outer loop
vertex 425.471 4437 1244.52
vertex 409.353 4393 1261.68
vertex 425.471 4393 1244.52
endloop
endfacet
facet normal 0.809017 0 0.587786
outer loop
vertex 425.471 4437 1244.52
vertex 425.471 4393 1244.52
vertex 439.311 4437 1225.47
endloop
endfacet
facet normal 0.809017 0 0.587786
outer loop
vertex 439.311 4437 1225.47
vertex 425.471 4393 1244.52
vertex 439.311 4393 1225.47
endloop
endfacet
facet normal 0.876307 0 0.481753
outer loop
vertex 439.311 4437 1225.47
vertex 439.311 4393 1225.47
vertex 450.655 4437 1204.83
endloop
endfacet
facet normal 0.876307 0 0.481753
outer loop
vertex 450.655 4437 1204.83
vertex 439.311 4393 1225.47
vertex 450.655 4393 1204.83
endloop
endfacet
facet normal 0.929776 0 0.368126
outer loop
vertex 450.655 4437 1204.83
vertex 450.655 4393 1204.83
vertex 459.323 4437 1182.94
endloop
endfacet
facet normal 0.929776 0 0.368126
outer loop
vertex 459.323 4437 1182.94
vertex 450.655 4393 1204.83
vertex 459.323 4393 1182.94
endloop
endfacet
facet normal 0.968584 0 0.248688
outer loop
vertex 459.323 4437 1182.94
vertex 459.323 4393 1182.94
vertex 465.179 4437 1160.13
endloop
endfacet
facet normal 0.968584 0 0.248688
outer loop
vertex 465.179 4437 1160.13
vertex 459.323 4393 1182.94
vertex 465.179 4393 1160.13
endloop
endfacet
facet normal 0.992115 0 0.125334
outer loop
vertex 465.179 4437 1160.13
vertex 465.179 4393 1160.13
vertex 468.13 4437 1136.77
endloop
endfacet
facet normal 0.992115 0 0.125334
outer loop
vertex 468.13 4437 1136.77
vertex 465.179 4393 1160.13
vertex 468.13 4393 1136.77
endloop
endfacet
facet normal 1 0 0
outer loop
vertex 468.13 4437 1136.77
vertex 468.13 4393 1136.77
vertex 468.13 4437 1113.23
endloop
endfacet
facet normal 1 0 0
outer loop
vertex 468.13 4437 1113.23
vertex 468.13 4393 1136.77
vertex 468.13 4393 1113.23
endloop
endfacet
facet normal 0.992115 0 -0.125334
outer loop
vertex 468.13 4437 1113.23
vertex 468.13 4393 1113.23
vertex 465.179 4437 1089.87
endloop
endfacet
facet normal 0.992115 0 -0.125334
outer loop
vertex 465.179 4437 1089.87
vertex 468.13 4393 1113.23
vertex 465.179 4393 1089.87
endloop
endfacet
facet normal 0.968584 0 -0.248688
outer loop
vertex 465.179 4437 1089.87
vertex 465.179 4393 1089.87
vertex 459.323 4437 1067.06
endloop
endfacet
facet normal 0.968584 0 -0.248688
outer loop
vertex 459.323 4437 1067.06
vertex 465.179 4393 1089.87
vertex 459.323 4393 1067.06
endloop
endfacet
facet normal 0.929776 0 -0.368126
outer loop
vertex 459.323 4437 1067.06
vertex 459.323 4393 1067.06
vertex 450.655 4437 1045.17
endloop
endfacet
facet normal 0.929776 0 -0.368126
outer loop
vertex 450.655 4437 1045.17
vertex 459.323 4393 1067.06
vertex 450.655 4393 1045.17
endloop
endfacet
facet normal 0.876307 0 -0.481753
outer loop
vertex 450.655 4437 1045.17
vertex 450.655 4393 1045.17
vertex 439.311 4437 1024.53
endloop
endfacet
facet normal 0.876307 0 -0.481753
outer loop
vertex 439.311 4437 1024.53
vertex 450.655 4393 1045.17
vertex 439.311 4393 1024.53
endloop
endfacet
facet normal 0.809017 0 -0.587786
outer loop
vertex 439.311 4437 1024.53
vertex 439.311 4393 1024.53
vertex 425.471 4437 1005.48
endloop
endfacet
facet normal 0.809017 0 -0.587786
outer loop
vertex 425.471 4437 1005.48
vertex 439.311 4393 1024.53
vertex 425.471 4393 1005.48
endloop
endfacet
facet normal 0.72897 0 -0.684546
outer loop
vertex 425.471 4437 1005.48
vertex 425.471 4393 1005.48
vertex 409.353 4437 988.318
endloop
endfacet
facet normal 0.72897 0 -0.684546
outer loop
vertex 409.353 4437 988.318
vertex 425.471 4393 1005.48
vertex 409.353 4393 988.318
endloop
endfacet
facet normal 0.637423 0 -0.770514
outer loop
vertex 409.353 4437 988.318
vertex 409.353 4393 988.318
vertex 391.21 4437 973.309
endloop
endfacet
facet normal 0.637423 0 -0.770514
outer loop
vertex 391.21 4437 973.309
vertex 409.353 4393 988.318
vertex 391.21 4393 973.309
endloop
endfacet
facet normal 0.535827 0 -0.844328
outer loop
vertex 391.21 4437 973.309
vertex 391.21 4393 973.309
vertex 371.329 4437 960.693
endloop
endfacet
facet normal 0.535827 0 -0.844328
outer loop
vertex 371.329 4437 960.693
vertex 391.21 4393 973.309
vertex 371.329 4393 960.693
endloop
endfacet
facet normal 0.425778 0 -0.904827
outer loop
vertex 371.329 4437 960.693
vertex 371.329 4393 960.693
vertex 350.023 4437 950.667
endloop
endfacet
facet normal 0.425778 0 -0.904827
outer loop
vertex 350.023 4437 950.667
vertex 371.329 4393 960.693
vertex 350.023 4393 950.667
endloop
endfacet
facet normal 0.309017 0 -0.951057
outer loop
vertex 350.023 4437 950.667
vertex 350.023 4393 950.667
vertex 327.629 4437 943.391
endloop
endfacet
facet normal 0.309017 0 -0.951057
outer loop
vertex 327.629 4437 943.391
vertex 350.023 4393 950.667
vertex 327.629 4393 943.391
endloop
endfacet
facet normal 0.187382 0 -0.982287
outer loop
vertex 327.629 4437 943.391
vertex 327.629 4393 943.391
vertex 304.5 4437 938.979
endloop
endfacet
facet normal 0.187382 0 -0.982287
outer loop
vertex 304.5 4437 938.979
vertex 327.629 4393 943.391
vertex 304.5 4393 938.979
endloop
endfacet
facet normal 0.0627915 0 -0.998027
outer loop
vertex 304.5 4437 938.979
vertex 304.5 4393 938.979
vertex 281 4437 937.5
endloop
endfacet
facet normal 0.0627915 0 -0.998027
outer loop
vertex 281 4437 937.5
vertex 304.5 4393 938.979
vertex 281 4393 937.5
endloop
endfacet
facet normal -0.0627914 0 -0.998027
outer loop
vertex 281 4437 937.5
vertex 281 4393 937.5
vertex 257.5 4437 938.979
endloop
endfacet
facet normal -0.0627914 0 -0.998027
outer loop
vertex 257.5 4437 938.979
vertex 281 4393 937.5
vertex 257.5 4393 938.979
endloop
endfacet
facet normal -0.187382 0 -0.982287
outer loop
vertex 257.5 4437 938.979
vertex 257.5 4393 938.979
vertex 234.371 4437 943.391
endloop
endfacet
facet normal -0.187382 0 -0.982287
outer loop
vertex 234.371 4437 943.391
vertex 257.5 4393 938.979
vertex 234.371 4393 943.391
endloop
endfacet
facet normal -0.309017 0 -0.951057
outer loop
vertex 234.371 4437 943.391
vertex 234.371 4393 943.391
vertex 211.977 4437 950.667
endloop
endfacet
facet normal -0.309017 0 -0.951057
outer loop
vertex 211.977 4437 950.667
vertex 234.371 4393 943.391
vertex 211.977 4393 950.667
endloop
endfacet
facet normal -0.425779 0 -0.904827
outer loop
vertex 211.977 4437 950.667
vertex 211.977 4393 950.667
vertex 190.671 4437 960.693
endloop
endfacet
facet normal -0.425779 0 -0.904827
outer loop
vertex 190.671 4437 960.693
vertex 211.977 4393 950.667
vertex 190.671 4393 960.693
endloop
endfacet
facet normal -0.535827 0 -0.844328
outer loop
vertex 190.671 4437 960.693
vertex 190.671 4393 960.693
vertex 170.79 4437 973.309
endloop
endfacet
facet normal -0.535827 0 -0.844328
outer loop
vertex 170.79 4437 973.309
vertex 190.671 4393 960.693
vertex 170.79 4393 973.309
endloop
endfacet
facet normal -0.637423 0 -0.770514
outer loop
vertex 170.79 4437 973.309
vertex 170.79 4393 973.309
vertex 152.647 4437 988.318
endloop
endfacet
facet normal -0.637423 0 -0.770514
outer loop
vertex 152.647 4437 988.318
vertex 170.79 4393 973.309
vertex 152.647 4393 988.318
endloop
endfacet
facet normal -0.72897 0 -0.684546
outer loop
vertex 152.647 4437 988.318
vertex 152.647 4393 988.318
vertex 136.529 4437 1005.48
endloop
endfacet
facet normal -0.72897 0 -0.684546
outer loop
vertex 136.529 4437 1005.48
vertex 152.647 4393 988.318
vertex 136.529 4393 1005.48
endloop
endfacet
facet normal -0.809016 0 -0.587786
outer loop
vertex 136.529 4437 1005.48
vertex 136.529 4393 1005.48
vertex 122.688 4437 1024.53
endloop
endfacet
facet normal -0.809016 0 -0.587786
outer loop
vertex 122.688 4437 1024.53
vertex 136.529 4393 1005.48
vertex 122.688 4393 1024.53
endloop
endfacet
facet normal -0.876307 0 -0.481753
outer loop
vertex 122.688 4437 1024.53
vertex 122.688 4393 1024.53
vertex 111.345 4437 1045.17
endloop
endfacet
facet normal -0.876307 0 -0.481753
outer loop
vertex 111.345 4437 1045.17
vertex 122.688 4393 1024.53
vertex 111.345 4393 1045.17
endloop
endfacet
facet normal -0.929777 0 -0.368124
outer loop
vertex 111.345 4437 1045.17
vertex 111.345 4393 1045.17
vertex 102.677 4437 1067.06
endloop
endfacet
facet normal -0.929777 0 -0.368124
outer loop
vertex 102.677 4437 1067.06
vertex 111.345 4393 1045.17
vertex 102.677 4393 1067.06
endloop
endfacet
facet normal -0.968583 0 -0.248689
outer loop
vertex 102.677 4437 1067.06
vertex 102.677 4393 1067.06
vertex 96.8211 4437 1089.87
endloop
endfacet
facet normal -0.968583 0 -0.248689
outer loop
vertex 96.8211 4437 1089.87
vertex 102.677 4393 1067.06
vertex 96.8211 4393 1089.87
endloop
endfacet
facet normal -0.992115 0 -0.125333
outer loop
vertex 96.8211 4437 1089.87
vertex 96.8211 4393 1089.87
vertex 93.87 4437 1113.23
endloop
endfacet
facet normal -0.992115 0 -0.125333
outer loop
vertex 93.87 4437 1113.23
vertex 96.8211 4393 1089.87
vertex 93.87 4393 1113.23
endloop
endfacet
facet normal -1 0 0
outer loop
vertex 93.87 4437 1113.23
vertex 93.87 4393 1113.23
vertex 93.87 4437 1136.77
endloop
endfacet
facet normal -1 0 0
outer loop
vertex 93.87 4437 1136.77
vertex 93.87 4393 1113.23
vertex 93.87 4393 1136.77
endloop
endfacet
facet normal -0.992115 0 0.125333
outer loop
vertex 93.87 4437 1136.77
vertex 93.87 4393 1136.77
vertex 96.8211 4437 1160.13
endloop
endfacet
facet normal -0.992115 0 0.125333
outer loop
vertex 96.8211 4437 1160.13
vertex 93.87 4393 1136.77
vertex 96.8211 4393 1160.13
endloop
endfacet
facet normal -0.968583 0 0.248689
outer loop
vertex 96.8211 4437 1160.13
vertex 96.8211 4393 1160.13
vertex 102.677 4437 1182.94
endloop
endfacet
facet normal -0.968583 0 0.248689
outer loop
vertex 102.677 4437 1182.94
vertex 96.8211 4393 1160.13
vertex 102.677 4393 1182.94
endloop
endfacet
facet normal -0.929777 0 0.368124
outer loop
vertex 102.677 4437 1182.94
vertex 102.677 4393 1182.94
vertex 111.345 4437 1204.83
endloop
endfacet
facet normal -0.929777 0 0.368124
outer loop
vertex 111.345 4437 1204.83
vertex 102.677 4393 1182.94
vertex 111.345 4393 1204.83
endloop
endfacet
facet normal -0.876307 0 0.481753
outer loop
vertex 111.345 4437 1204.83
vertex 111.345 4393 1204.83
vertex 122.688 4437 1225.47
endloop
endfacet
facet normal -0.876307 0 0.481753
outer loop
vertex 122.688 4437 1225.47
vertex 111.345 4393 1204.83
vertex 122.688 4393 1225.47
endloop
endfacet
facet normal -0.809016 0 0.587786
outer loop
vertex 122.688 4437 1225.47
vertex 122.688 4393 1225.47
vertex 136.529 4437 1244.52
endloop
endfacet
facet normal -0.809016 0 0.587786
outer loop
vertex 136.529 4437 1244.52
vertex 122.688 4393 1225.47
vertex 136.529 4393 1244.52
endloop
endfacet
facet normal -0.72897 0 0.684546
outer loop
vertex 136.529 4437 1244.52
vertex 136.529 4393 1244.52
vertex 152.647 4437 1261.68
endloop
endfacet
facet normal -0.72897 0 0.684546
outer loop
vertex 152.647 4437 1261.68
vertex 136.529 4393 1244.52
vertex 152.647 4393 1261.68
endloop
endfacet
facet normal -0.637423 0 0.770514
outer loop
vertex 152.647 4437 1261.68
vertex 152.647 4393 1261.68
vertex 170.79 4437 1276.69
endloop
endfacet
facet normal -0.637423 0 0.770514
outer loop
vertex 170.79 4437 1276.69
vertex 152.647 4393 1261.68
vertex 170.79 4393 1276.69
endloop
endfacet
facet normal -0.535827 0 0.844328
outer loop
vertex 170.79 4437 1276.69
vertex 170.79 4393 1276.69
vertex 190.671 4437 1289.31
endloop
endfacet
facet normal -0.535827 0 0.844328
outer loop
vertex 190.671 4437 1289.31
vertex 170.79 4393 1276.69
vertex 190.671 4393 1289.31
endloop
endfacet
facet normal -0.425781 0 0.904826
outer loop
vertex 190.671 4437 1289.31
vertex 190.671 4393 1289.31
vertex 211.977 4437 1299.33
endloop
endfacet
facet normal -0.425781 0 0.904826
outer loop
vertex 211.977 4437 1299.33
vertex 190.671 4393 1289.31
vertex 211.977 4393 1299.33
endloop
endfacet
facet normal -0.309017 0 0.951057
outer loop
vertex 211.977 4437 1299.33
vertex 211.977 4393 1299.33
vertex 234.371 4437 1306.61
endloop
endfacet
facet normal -0.309017 0 0.951057
outer loop
vertex 234.371 4437 1306.61
vertex 211.977 4393 1299.33
vertex 234.371 4393 1306.61
endloop
endfacet
facet normal -0.187379 0 0.982288
outer loop
vertex 234.371 4437 1306.61
vertex 234.371 4393 1306.61
vertex 257.5 4437 1311.02
endloop
endfacet
facet normal -0.187379 0 0.982288
outer loop
vertex 257.5 4437 1311.02
vertex 234.371 4393 1306.61
vertex 257.5 4393 1311.02
endloop
endfacet
facet normal -0.0627914 0 0.998027
outer loop
vertex 257.5 4437 1311.02
vertex 257.5 4393 1311.02
vertex 281 4437 1312.5
endloop
endfacet
facet normal -0.0627914 0 0.998027
outer loop
vertex 281 4437 1312.5
vertex 257.5 4393 1311.02
vertex 281 4393 1312.5
endloop
endfacet
facet normal 0.0627915 0 0.998027
outer loop
vertex 281 4437 1312.5
vertex 281 4393 1312.5
vertex 304.5 4437 1311.02
endloop
endfacet
facet normal 0.0627915 0 0.998027
outer loop
vertex 304.5 4437 1311.02
vertex 281 4393 1312.5
vertex 304.5 4393 1311.02
endloop
endfacet
facet normal 0 -1 0
outer loop
vertex 170.79 4437 973.309
vertex 130.188 4437 887.899
vertex 190.671 4437 960.693
endloop
endfacet
facet normal 0 -1 0
outer loop
vertex 190.671 4437 960.693
vertex 130.188 4437 887.899
vertex 155.367 4437 873.649
endloop
endfacet
facet normal 0 -1 0
outer loop
vertex 190.671 4437 960.693
vertex 155.367 4437 873.649
vertex 211.977 4437 950.667
endloop
endfacet
facet normal 0 -1 0
outer loop
vertex 211.977 4437 950.667
vertex 155.367 4437 873.649
vertex 181.877 4437 862.064
endloop
endfacet
facet normal 0 -1 0
outer loop
vertex 211.977 4437 950.667
vertex 181.877 4437 862.064
vertex 234.371 4437 943.391
endloop
endfacet
facet normal 0 -1 0
outer loop
vertex 234.371 4437 943.391
vertex 181.877 4437 862.064
vertex 209.437 4437 853.265
endloop
endfacet
facet normal 0 -1 0
outer loop
vertex 234.371 4437 943.391
vertex 209.437 4437 853.265
vertex 257.5 4437 938.979
endloop
endfacet
facet normal 0 -1 0
outer loop
vertex 102.677 4437 1067.06
vertex 20.703 4437 1019.14
vertex 111.345 4437 1045.17
endloop
endfacet
facet normal 0 -1 0
outer loop
vertex 111.345 4437 1045.17
vertex 20.703 4437 1019.14
vertex 32.9672 4437 992.937
endloop
endfacet
facet normal 0 -1 0
outer loop
vertex 111.345 4437 1045.17
vertex 32.9672 4437 992.937
vertex 122.688 4437 1024.53
endloop
endfacet
facet normal 0 -1 0
outer loop
vertex 122.688 4437 1024.53
vertex 32.9672 4437 992.937
vertex 47.8607 4437 968.133
endloop
endfacet
facet normal 0 -1 0
outer loop
vertex 122.688 4437 1024.53
vertex 47.8607 4437 968.133
vertex 136.529 4437 1005.48
endloop
endfacet
facet normal 0 -1 0
outer loop
vertex 136.529 4437 1005.48
vertex 47.8607 4437 968.133
vertex 65.2256 4437 944.993
endloop
endfacet
facet normal 0 -1 0
outer loop
vertex 136.529 4437 1005.48
vertex 65.2256 4437 944.993
vertex 152.647 4437 988.318
endloop
endfacet
facet normal 0 -1 0
outer loop
vertex 152.647 4437 988.318
vertex 65.2256 4437 944.993
vertex 84.8777 4437 923.761
endloop
endfacet
facet normal 0 -1 0
outer loop
vertex 152.647 4437 988.318
vertex 84.8777 4437 923.761
vertex 170.79 4437 973.309
endloop
endfacet
facet normal 0 -1 0
outer loop
vertex 170.79 4437 973.309
vertex 84.8777 4437 923.761
vertex 106.609 4437 904.662
endloop
endfacet
facet normal 0 -1 0
outer loop
vertex 170.79 4437 973.309
vertex 106.609 4437 904.662
vertex 130.188 4437 887.899
endloop
endfacet
facet normal 0 -1 0
outer loop
vertex 350.023 4437 1299.33
vertex 366.456 4437 1392.69
vertex 327.629 4437 1306.61
endloop
endfacet
facet normal 0 -1 0
outer loop
vertex 327.629 4437 1306.61
vertex 366.456 4437 1392.69
vertex 338.479 4437 1400.06
endloop
endfacet
facet normal 0 -1 0
outer loop
vertex 327.629 4437 1306.61
vertex 338.479 4437 1400.06
vertex 304.5 4437 1311.02
endloop
endfacet
facet normal 0 -1 0
outer loop
vertex 304.5 4437 1311.02
vertex 338.479 4437 1400.06
vertex 309.893 4437 1404.51
endloop
endfacet
facet normal 0 -1 0
outer loop
vertex 304.5 4437 1311.02
vertex 309.893 4437 1404.51
vertex 281 4437 1312.5
endloop
endfacet
facet normal 0 -1 0
outer loop
vertex 281 4437 1312.5
vertex 309.893 4437 1404.51
vertex 281 4437 1406
endloop
endfacet
facet normal 0 -1 0
outer loop
vertex 281 4437 1312.5
vertex 281 4437 1406
vertex 257.5 4437 1311.02
endloop
endfacet
facet normal 0 -1 0
outer loop
vertex 257.5 4437 1311.02
vertex 281 4437 1406
vertex 252.107 4437 1404.51
endloop
endfacet
facet normal 0 -1 0
outer loop
vertex 257.5 4437 1311.02
vertex 252.107 4437 1404.51
vertex 234.371 4437 1306.61
endloop
endfacet
facet normal 0 -1 0
outer loop
vertex 252.107 4437 1404.51
vertex 223.521 4437 1400.06
vertex 234.371 4437 1306.61
endloop
endfacet
facet normal 0 -1 0
outer loop
vertex 234.371 4437 1306.61
vertex 223.521 4437 1400.06
vertex 195.544 4437 1392.69
endloop
endfacet
facet normal 0 -1 0
outer loop
vertex 234.371 4437 1306.61
vertex 195.544 4437 1392.69
vertex 211.977 4437 1299.33
endloop
endfacet
facet normal 0 -1 0
outer loop
vertex 211.977 4437 1299.33
vertex 195.544 4437 1392.69
vertex 168.472 4437 1382.48
endloop
endfacet
facet normal 0 -1 0
outer loop
vertex 211.977 4437 1299.33
vertex 168.472 4437 1382.48
vertex 190.671 4437 1289.31
endloop
endfacet
facet normal 0 -1 0
outer loop
vertex 190.671 4437 1289.31
vertex 168.472 4437 1382.48
vertex 142.594 4437 1369.55
endloop
endfacet
facet normal 0 -1 0
outer loop
vertex 190.671 4437 1289.31
vertex 142.594 4437 1369.55
vertex 170.79 4437 1276.69
endloop
endfacet
facet normal 0 -1 0
outer loop
vertex 170.79 4437 1276.69
vertex 142.594 4437 1369.55
vertex 118.183 4437 1354.02
endloop
endfacet
facet normal 0 -1 0
outer loop
vertex 170.79 4437 1276.69
vertex 118.183 4437 1354.02
vertex 152.647 4437 1261.68
endloop
endfacet
facet normal 0 -1 0
outer loop
vertex 209.437 4437 853.265
vertex 237.757 4437 847.347
vertex 257.5 4437 938.979
endloop
endfacet
facet normal 0 -1 0
outer loop
vertex 257.5 4437 938.979
vertex 237.757 4437 847.347
vertex 266.534 4437 844.373
endloop
endfacet
facet normal 0 -1 0
outer loop
vertex 257.5 4437 938.979
vertex 266.534 4437 844.373
vertex 281 4437 937.5
endloop
endfacet
facet normal 0 -1 0
outer loop
vertex 281 4437 937.5
vertex 266.534 4437 844.373
vertex 295.466 4437 844.373
endloop
endfacet
facet normal 0 -1 0
outer loop
vertex 281 4437 937.5
vertex 295.466 4437 844.373
vertex 304.5 4437 938.979
endloop
endfacet
facet normal 0 -1 0
outer loop
vertex 304.5 4437 938.979
vertex 295.466 4437 844.373
vertex 324.243 4437 847.347
endloop
endfacet
facet normal 0 -1 0
outer loop
vertex 304.5 4437 938.979
vertex 324.243 4437 847.347
vertex 327.629 4437 943.391
endloop
endfacet
facet normal 0 -1 0
outer loop
vertex 327.629 4437 943.391
vertex 324.243 4437 847.347
vertex 352.563 4437 853.265
endloop
endfacet
facet normal 0 -1 0
outer loop
vertex 327.629 4437 943.391
vertex 352.563 4437 853.265
vertex 350.023 4437 950.667
endloop
endfacet
facet normal 0 -1 0
outer loop
vertex 350.023 4437 950.667
vertex 352.563 4437 853.265
vertex 380.123 4437 862.064
endloop
endfacet
facet normal 0 -1 0
outer loop
vertex 350.023 4437 950.667
vertex 380.123 4437 862.064
vertex 371.329 4437 960.693
endloop
endfacet
facet normal 0 -1 0
outer loop
vertex 118.183 4437 1354.02
vertex 95.4972 4437 1336.07
vertex 152.647 4437 1261.68
endloop
endfacet
facet normal 0 -1 0
outer loop
vertex 152.647 4437 1261.68
vertex 95.4972 4437 1336.07
vertex 74.7782 4437 1315.88
endloop
endfacet
facet normal 0 -1 0
outer loop
vertex 152.647 4437 1261.68
vertex 74.7782 4437 1315.88
vertex 136.529 4437 1244.52
endloop
endfacet
facet normal 0 -1 0
outer loop
vertex 136.529 4437 1244.52
vertex 74.7782 4437 1315.88
vertex 56.2452 4437 1293.66
endloop
endfacet
facet normal 0 -1 0
outer loop
vertex 136.529 4437 1244.52
vertex 56.2452 4437 1293.66
vertex 122.688 4437 1225.47
endloop
endfacet
facet normal 0 -1 0
outer loop
vertex 122.688 4437 1225.47
vertex 56.2452 4437 1293.66
vertex 40.0946 4437 1269.66
endloop
endfacet
facet normal 0 -1 0
outer loop
vertex 122.688 4437 1225.47
vertex 40.0946 4437 1269.66
vertex 111.345 4437 1204.83
endloop
endfacet
facet normal 0 -1 0
outer loop
vertex 111.345 4437 1204.83
vertex 40.0946 4437 1269.66
vertex 26.4977 4437 1244.12
endloop
endfacet
facet normal 0 -1 0
outer loop
vertex 111.345 4437 1204.83
vertex 26.4977 4437 1244.12
vertex 102.677 4437 1182.94
endloop
endfacet
facet normal 0 -1 0
outer loop
vertex 102.677 4437 1182.94
vertex 26.4977 4437 1244.12
vertex 15.5985 4437 1217.32
endloop
endfacet
facet normal 0 -1 0
outer loop
vertex 102.677 4437 1182.94
vertex 15.5985 4437 1217.32
vertex 96.8211 4437 1160.13
endloop
endfacet
facet normal 0 -1 0
outer loop
vertex 450.655 4437 1045.17
vertex 541.297 4437 1019.14
vertex 459.323 4437 1067.06
endloop
endfacet
facet normal 0 -1 0
outer loop
vertex 459.323 4437 1067.06
vertex 541.297 4437 1019.14
vertex 550.802 4437 1046.46
endloop
endfacet
facet normal 0 -1 0
outer loop
vertex 459.323 4437 1067.06
vertex 550.802 4437 1046.46
vertex 465.179 4437 1089.87
endloop
endfacet
facet normal 0 -1 0
outer loop
vertex 465.179 4437 1089.87
vertex 550.802 4437 1046.46
vertex 557.447 4437 1074.62
endloop
endfacet
facet normal 0 -1 0
outer loop
vertex 465.179 4437 1089.87
vertex 557.447 4437 1074.62
vertex 468.13 4437 1113.23
endloop
endfacet
facet normal 0 -1 0
outer loop
vertex 468.13 4437 1113.23
vertex 557.447 4437 1074.62
vertex 561.162 4437 1103.31
endloop
endfacet
facet normal 0 -1 0
outer loop
vertex 468.13 4437 1113.23
vertex 561.162 4437 1103.31
vertex 468.13 4437 1136.77
endloop
endfacet
facet normal 0 -1 0
outer loop
vertex 380.123 4437 862.064
vertex 406.633 4437 873.649
vertex 371.329 4437 960.693
endloop
endfacet
facet normal 0 -1 0
outer loop
vertex 371.329 4437 960.693
vertex 406.633 4437 873.649
vertex 431.812 4437 887.899
endloop
endfacet
facet normal 0 -1 0
outer loop
vertex 371.329 4437 960.693
vertex 431.812 4437 887.899
vertex 391.21 4437 973.309
endloop
endfacet
facet normal 0 -1 0
outer loop
vertex 391.21 4437 973.309
vertex 431.812 4437 887.899
vertex 455.391 4437 904.662
endloop
endfacet
facet normal 0 -1 0
outer loop
vertex 391.21 4437 973.309
vertex 455.391 4437 904.662
vertex 409.353 4437 988.318
endloop
endfacet
facet normal 0 -1 0
outer loop
vertex 409.353 4437 988.318
vertex 455.391 4437 904.662
vertex 477.122 4437 923.761
endloop
endfacet
facet normal 0 -1 0
outer loop
vertex 409.353 4437 988.318
vertex 477.122 4437 923.761
vertex 425.471 4437 1005.48
endloop
endfacet
facet normal 0 -1 0
outer loop
vertex 425.471 4437 1005.48
vertex 477.122 4437 923.761
vertex 496.774 4437 944.993
endloop
endfacet
facet normal 0 -1 0
outer loop
vertex 425.471 4437 1005.48
vertex 496.774 4437 944.993
vertex 439.311 4437 1024.53
endloop
endfacet
facet normal 0 -1 0
outer loop
vertex 439.311 4437 1024.53
vertex 496.774 4437 944.993
vertex 514.139 4437 968.133
endloop
endfacet
facet normal 0 -1 0
outer loop
vertex 439.311 4437 1024.53
vertex 514.139 4437 968.133
vertex 450.655 4437 1045.17
endloop
endfacet
facet normal 0 -1 0
outer loop
vertex 450.655 4437 1045.17
vertex 514.139 4437 968.133
vertex 529.033 4437 992.937
endloop
endfacet
facet normal 0 -1 0
outer loop
vertex 450.655 4437 1045.17
vertex 529.033 4437 992.937
vertex 541.297 4437 1019.14
endloop
endfacet
facet normal 0 -1 0
outer loop
vertex 15.5985 4437 1217.32
vertex 7.51269 4437 1189.54
vertex 96.8211 4437 1160.13
endloop
endfacet
facet normal 0 -1 0
outer loop
vertex 96.8211 4437 1160.13
vertex 7.51269 4437 1189.54
vertex 2.32592 4437 1161.08
endloop
endfacet
facet normal 0 -1 0
outer loop
vertex 96.8211 4437 1160.13
vertex 2.32592 4437 1161.08
vertex 93.87 4437 1136.77
endloop
endfacet
facet normal 0 -1 0
outer loop
vertex 93.87 4437 1136.77
vertex 2.32592 4437 1161.08
vertex 0.0931621 4437 1132.24
endloop
endfacet
facet normal 0 -1 0
outer loop
vertex 93.87 4437 1136.77
vertex 0.0931621 4437 1132.24
vertex 93.87 4437 1113.23
endloop
endfacet
facet normal 0 -1 0
outer loop
vertex 93.87 4437 1113.23
vertex 0.0931621 4437 1132.24
vertex 0.838071 4437 1103.31
endloop
endfacet
facet normal 0 -1 0
outer loop
vertex 93.87 4437 1113.23
vertex 0.838071 4437 1103.31
vertex 96.8211 4437 1089.87
endloop
endfacet
facet normal 0 -1 0
outer loop
vertex 96.8211 4437 1089.87
vertex 0.838071 4437 1103.31
vertex 4.55275 4437 1074.62
endloop
endfacet
facet normal 0 -1 0
outer loop
vertex 96.8211 4437 1089.87
vertex 4.55275 4437 1074.62
vertex 102.677 4437 1067.06
endloop
endfacet
facet normal 0 -1 0
outer loop
vertex 102.677 4437 1067.06
vertex 4.55275 4437 1074.62
vertex 11.1979 4437 1046.46
endloop
endfacet
facet normal 0 -1 0
outer loop
vertex 102.677 4437 1067.06
vertex 11.1979 4437 1046.46
vertex 20.703 4437 1019.14
endloop
endfacet
facet normal 0 -1 0
outer loop
vertex 561.162 4437 1103.31
vertex 561.907 4437 1132.24
vertex 468.13 4437 1136.77
endloop
endfacet
facet normal 0 -1 0
outer loop
vertex 468.13 4437 1136.77
vertex 561.907 4437 1132.24
vertex 559.674 4437 1161.08
endloop
endfacet
facet normal 0 -1 0
outer loop
vertex 468.13 4437 1136.77
vertex 559.674 4437 1161.08
vertex 465.179 4437 1160.13
endloop
endfacet
facet normal 0 -1 0
outer loop
vertex 465.179 4437 1160.13
vertex 559.674 4437 1161.08
vertex 554.487 4437 1189.54
endloop
endfacet
facet normal 0 -1 0
outer loop
vertex 465.179 4437 1160.13
vertex 554.487 4437 1189.54
vertex 459.323 4437 1182.94
endloop
endfacet
facet normal 0 -1 0
outer loop
vertex 459.323 4437 1182.94
vertex 554.487 4437 1189.54
vertex 546.401 4437 1217.32
endloop
endfacet
facet normal 0 -1 0
outer loop
vertex 459.323 4437 1182.94
vertex 546.401 4437 1217.32
vertex 450.655 4437 1204.83
endloop
endfacet
facet normal 0 -1 0
outer loop
vertex 450.655 4437 1204.83
vertex 546.401 4437 1217.32
vertex 535.502 4437 1244.12
endloop
endfacet
facet normal 0 -1 0
outer loop
vertex 450.655 4437 1204.83
vertex 535.502 4437 1244.12
vertex 439.311 4437 1225.47
endloop
endfacet
facet normal 0 -1 0
outer loop
vertex 439.311 4437 1225.47
vertex 535.502 4437 1244.12
vertex 521.905 4437 1269.66
endloop
endfacet
facet normal 0 -1 0
outer loop
vertex 439.311 4437 1225.47
vertex 521.905 4437 1269.66
vertex 425.471 4437 1244.52
endloop
endfacet
facet normal 0 -1 0
outer loop
vertex 521.905 4437 1269.66
vertex 505.755 4437 1293.66
vertex 425.471 4437 1244.52
endloop
endfacet
facet normal 0 -1 0
outer loop
vertex 425.471 4437 1244.52
vertex 505.755 4437 1293.66
vertex 487.222 4437 1315.88
endloop
endfacet
facet normal 0 -1 0
outer loop
vertex 425.471 4437 1244.52
vertex 487.222 4437 1315.88
vertex 409.353 4437 1261.68
endloop
endfacet
facet normal 0 -1 0
outer loop
vertex 409.353 4437 1261.68
vertex 487.222 4437 1315.88
vertex 466.503 4437 1336.07
endloop
endfacet
facet normal 0 -1 0
outer loop
vertex 409.353 4437 1261.68
vertex 466.503 4437 1336.07
vertex 391.21 4437 1276.69
endloop
endfacet
facet normal 0 -1 0
outer loop
vertex 391.21 4437 1276.69
vertex 466.503 4437 1336.07
vertex 443.817 4437 1354.02
endloop
endfacet
facet normal 0 -1 0
outer loop
vertex 391.21 4437 1276.69
vertex 443.817 4437 1354.02
vertex 371.329 4437 1289.31
endloop
endfacet
facet normal 0 -1 0
outer loop
vertex 371.329 4437 1289.31
vertex 443.817 4437 1354.02
vertex 419.406 4437 1369.55
endloop
endfacet
facet normal 0 -1 0
outer loop
vertex 371.329 4437 1289.31
vertex 419.406 4437 1369.55
vertex 350.023 4437 1299.33
endloop
endfacet
facet normal 0 -1 0
outer loop
vertex 350.023 4437 1299.33
vertex 419.406 4437 1369.55
vertex 393.528 4437 1382.48
endloop
endfacet
facet normal 0 -1 0
outer loop
vertex 350.023 4437 1299.33
vertex 393.528 4437 1382.48
vertex 366.456 4437 1392.69
endloop
endfacet
facet normal 0 -1 0
outer loop
vertex 336.465 4393 1237.02
vertex 350.023 4393 1299.33
vertex 318.715 4393 1244.17
endloop
endfacet
facet normal 0 -1 0
outer loop
vertex 318.715 4393 1244.17
vertex 350.023 4393 1299.33
vertex 327.629 4393 1306.61
endloop
endfacet
facet normal 0 -1 0
outer loop
vertex 318.715 4393 1244.17
vertex 327.629 4393 1306.61
vertex 300.081 4393 1248.54
endloop
endfacet
facet normal 0 -1 0
outer loop
vertex 300.081 4393 1248.54
vertex 327.629 4393 1306.61
vertex 304.5 4393 1311.02
endloop
endfacet
facet normal 0 -1 0
outer loop
vertex 300.081 4393 1248.54
vertex 304.5 4393 1311.02
vertex 281 4393 1250
endloop
endfacet
facet normal 0 -1 0
outer loop
vertex 281 4393 1250
vertex 304.5 4393 1311.02
vertex 281 4393 1312.5
endloop
endfacet
facet normal 0 -1 0
outer loop
vertex 281 4393 1250
vertex 281 4393 1312.5
vertex 261.919 4393 1248.54
endloop
endfacet
facet normal 0 -1 0
outer loop
vertex 261.919 4393 1248.54
vertex 281 4393 1312.5
vertex 257.5 4393 1311.02
endloop
endfacet
facet normal 0 -1 0
outer loop
vertex 261.919 4393 1248.54
vertex 257.5 4393 1311.02
vertex 243.285 4393 1244.17
endloop
endfacet
facet normal 0 -1 0
outer loop
vertex 271.431 4393 1000.37
vertex 281 4393 937.5
vertex 290.569 4393 1000.37
endloop
endfacet
facet normal 0 -1 0
outer loop
vertex 290.569 4393 1000.37
vertex 281 4393 937.5
vertex 304.5 4393 938.979
endloop
endfacet
facet normal 0 -1 0
outer loop
vertex 290.569 4393 1000.37
vertex 304.5 4393 938.979
vertex 309.482 4393 1003.29
endloop
endfacet
facet normal 0 -1 0
outer loop
vertex 309.482 4393 1003.29
vertex 304.5 4393 938.979
vertex 327.629 4393 943.391
endloop
endfacet
facet normal 0 -1 0
outer loop
vertex 309.482 4393 1003.29
vertex 327.629 4393 943.391
vertex 327.727 4393 1009.06
endloop
endfacet
facet normal 0 -1 0
outer loop
vertex 327.727 4393 1009.06
vertex 327.629 4393 943.391
vertex 350.023 4393 950.667
endloop
endfacet
facet normal 0 -1 0
outer loop
vertex 327.727 4393 1009.06
vertex 350.023 4393 950.667
vertex 344.877 4393 1017.55
endloop
endfacet
facet normal 0 -1 0
outer loop
vertex 344.877 4393 1017.55
vertex 350.023 4393 950.667
vertex 371.329 4393 960.693
endloop
endfacet
facet normal 0 -1 0
outer loop
vertex 344.877 4393 1017.55
vertex 371.329 4393 960.693
vertex 360.53 4393 1028.56
endloop
endfacet
facet normal 0 -1 0
outer loop
vertex 187.681 4393 1041.83
vertex 152.647 4393 988.318
vertex 201.47 4393 1028.56
endloop
endfacet
facet normal 0 -1 0
outer loop
vertex 201.47 4393 1028.56
vertex 152.647 4393 988.318
vertex 170.79 4393 973.309
endloop
endfacet
facet normal 0 -1 0
outer loop
vertex 201.47 4393 1028.56
vertex 170.79 4393 973.309
vertex 217.123 4393 1017.55
endloop
endfacet
facet normal 0 -1 0
outer loop
vertex 217.123 4393 1017.55
vertex 170.79 4393 973.309
vertex 190.671 4393 960.693
endloop
endfacet
facet normal 0 -1 0
outer loop
vertex 217.123 4393 1017.55
vertex 190.671 4393 960.693
vertex 234.273 4393 1009.06
endloop
endfacet
facet normal 0 -1 0
outer loop
vertex 234.273 4393 1009.06
vertex 190.671 4393 960.693
vertex 211.977 4393 950.667
endloop
endfacet
facet normal 0 -1 0
outer loop
vertex 234.273 4393 1009.06
vertex 211.977 4393 950.667
vertex 252.518 4393 1003.29
endloop
endfacet
facet normal 0 -1 0
outer loop
vertex 252.518 4393 1003.29
vertex 211.977 4393 950.667
vertex 234.371 4393 943.391
endloop
endfacet
facet normal 0 -1 0
outer loop
vertex 252.518 4393 1003.29
vertex 234.371 4393 943.391
vertex 271.431 4393 1000.37
endloop
endfacet
facet normal 0 -1 0
outer loop
vertex 271.431 4393 1000.37
vertex 234.371 4393 943.391
vertex 257.5 4393 938.979
endloop
endfacet
facet normal 0 -1 0
outer loop
vertex 271.431 4393 1000.37
vertex 257.5 4393 938.979
vertex 281 4393 937.5
endloop
endfacet
facet normal 0 -1 0
outer loop
vertex 390.814 4393 1184.72
vertex 439.311 4393 1225.47
vertex 380.412 4393 1200.78
endloop
endfacet
facet normal 0 -1 0
outer loop
vertex 380.412 4393 1200.78
vertex 439.311 4393 1225.47
vertex 425.471 4393 1244.52
endloop
endfacet
facet normal 0 -1 0
outer loop
vertex 380.412 4393 1200.78
vertex 425.471 4393 1244.52
vertex 367.679 4393 1215.07
endloop
endfacet
facet normal 0 -1 0
outer loop
vertex 367.679 4393 1215.07
vertex 425.471 4393 1244.52
vertex 409.353 4393 1261.68
endloop
endfacet
facet normal 0 -1 0
outer loop
vertex 367.679 4393 1215.07
vertex 409.353 4393 1261.68
vertex 352.915 4393 1227.24
endloop
endfacet
facet normal 0 -1 0
outer loop
vertex 352.915 4393 1227.24
vertex 409.353 4393 1261.68
vertex 391.21 4393 1276.69
endloop
endfacet
facet normal 0 -1 0
outer loop
vertex 352.915 4393 1227.24
vertex 391.21 4393 1276.69
vertex 336.465 4393 1237.02
endloop
endfacet
facet normal 0 -1 0
outer loop
vertex 336.465 4393 1237.02
vertex 391.21 4393 1276.69
vertex 371.329 4393 1289.31
endloop
endfacet
facet normal 0 -1 0
outer loop
vertex 336.465 4393 1237.02
vertex 371.329 4393 1289.31
vertex 350.023 4393 1299.33
endloop
endfacet
facet normal 0 -1 0
outer loop
vertex 401.532 4393 1091.88
vertex 465.179 4393 1089.87
vertex 405.175 4393 1110.66
endloop
endfacet
facet normal 0 -1 0
outer loop
vertex 405.175 4393 1110.66
vertex 465.179 4393 1089.87
vertex 468.13 4393 1113.23
endloop
endfacet
facet normal 0 -1 0
outer loop
vertex 405.175 4393 1110.66
vertex 468.13 4393 1113.23
vertex 405.908 4393 1129.79
endloop
endfacet
facet normal 0 -1 0
outer loop
vertex 405.908 4393 1129.79
vertex 468.13 4393 1113.23
vertex 468.13 4393 1136.77
endloop
endfacet
facet normal 0 -1 0
outer loop
vertex 405.908 4393 1129.79
vertex 468.13 4393 1136.77
vertex 403.714 4393 1148.8
endloop
endfacet
facet normal 0 -1 0
outer loop
vertex 403.714 4393 1148.8
vertex 468.13 4393 1136.77
vertex 465.179 4393 1160.13
endloop
endfacet
facet normal 0 -1 0
outer loop
vertex 403.714 4393 1148.8
vertex 465.179 4393 1160.13
vertex 398.642 4393 1167.25
endloop
endfacet
facet normal 0 -1 0
outer loop
vertex 398.642 4393 1167.25
vertex 465.179 4393 1160.13
vertex 459.323 4393 1182.94
endloop
endfacet
facet normal 0 -1 0
outer loop
vertex 398.642 4393 1167.25
vertex 459.323 4393 1182.94
vertex 390.814 4393 1184.72
endloop
endfacet
facet normal 0 -1 0
outer loop
vertex 390.814 4393 1184.72
vertex 459.323 4393 1182.94
vertex 450.655 4393 1204.83
endloop
endfacet
facet normal 0 -1 0
outer loop
vertex 390.814 4393 1184.72
vertex 450.655 4393 1204.83
vertex 439.311 4393 1225.47
endloop
endfacet
facet normal 0 -1 0
outer loop
vertex 371.329 4393 960.693
vertex 391.21 4393 973.309
vertex 360.53 4393 1028.56
endloop
endfacet
facet normal 0 -1 0
outer loop
vertex 360.53 4393 1028.56
vertex 391.21 4393 973.309
vertex 409.353 4393 988.318
endloop
endfacet
facet normal 0 -1 0
outer loop
vertex 360.53 4393 1028.56
vertex 409.353 4393 988.318
vertex 374.319 4393 1041.83
endloop
endfacet
facet normal 0 -1 0
outer loop
vertex 374.319 4393 1041.83
vertex 409.353 4393 988.318
vertex 425.471 4393 1005.48
endloop
endfacet
facet normal 0 -1 0
outer loop
vertex 374.319 4393 1041.83
vertex 425.471 4393 1005.48
vertex 385.921 4393 1057.05
endloop
endfacet
facet normal 0 -1 0
outer loop
vertex 385.921 4393 1057.05
vertex 425.471 4393 1005.48
vertex 439.311 4393 1024.53
endloop
endfacet
facet normal 0 -1 0
outer loop
vertex 385.921 4393 1057.05
vertex 439.311 4393 1024.53
vertex 395.063 4393 1073.87
endloop
endfacet
facet normal 0 -1 0
outer loop
vertex 395.063 4393 1073.87
vertex 439.311 4393 1024.53
vertex 450.655 4393 1045.17
endloop
endfacet
facet normal 0 -1 0
outer loop
vertex 395.063 4393 1073.87
vertex 450.655 4393 1045.17
vertex 401.532 4393 1091.88
endloop
endfacet
facet normal 0 -1 0
outer loop
vertex 401.532 4393 1091.88
vertex 450.655 4393 1045.17
vertex 459.323 4393 1067.06
endloop
endfacet
facet normal 0 -1 0
outer loop
vertex 401.532 4393 1091.88
vertex 459.323 4393 1067.06
vertex 465.179 4393 1089.87
endloop
endfacet
facet normal 0 -1 0
outer loop
vertex 181.588 4393 1200.78
vertex 122.688 4393 1225.47
vertex 171.186 4393 1184.72
endloop
endfacet
facet normal 0 -1 0
outer loop
vertex 171.186 4393 1184.72
vertex 122.688 4393 1225.47
vertex 111.345 4393 1204.83
endloop
endfacet
facet normal 0 -1 0
outer loop
vertex 171.186 4393 1184.72
vertex 111.345 4393 1204.83
vertex 163.357 4393 1167.25
endloop
endfacet
facet normal 0 -1 0
outer loop
vertex 163.357 4393 1167.25
vertex 111.345 4393 1204.83
vertex 102.677 4393 1182.94
endloop
endfacet
facet normal 0 -1 0
outer loop
vertex 163.357 4393 1167.25
vertex 102.677 4393 1182.94
vertex 158.286 4393 1148.8
endloop
endfacet
facet normal 0 -1 0
outer loop
vertex 158.286 4393 1148.8
vertex 102.677 4393 1182.94
vertex 96.8211 4393 1160.13
endloop
endfacet
facet normal 0 -1 0
outer loop
vertex 158.286 4393 1148.8
vertex 96.8211 4393 1160.13
vertex 156.092 4393 1129.79
endloop
endfacet
facet normal 0 -1 0
outer loop
vertex 156.092 4393 1129.79
vertex 96.8211 4393 1160.13
vertex 93.87 4393 1136.77
endloop
endfacet
facet normal 0 -1 0
outer loop
vertex 156.092 4393 1129.79
vertex 93.87 4393 1136.77
vertex 156.825 4393 1110.66
endloop
endfacet
facet normal 0 -1 0
outer loop
vertex 257.5 4393 1311.02
vertex 234.371 4393 1306.61
vertex 243.285 4393 1244.17
endloop
endfacet
facet normal 0 -1 0
outer loop
vertex 243.285 4393 1244.17
vertex 234.371 4393 1306.61
vertex 211.977 4393 1299.33
endloop
endfacet
facet normal 0 -1 0
outer loop
vertex 243.285 4393 1244.17
vertex 211.977 4393 1299.33
vertex 225.535 4393 1237.02
endloop
endfacet
facet normal 0 -1 0
outer loop
vertex 225.535 4393 1237.02
vertex 211.977 4393 1299.33
vertex 190.671 4393 1289.31
endloop
endfacet
facet normal 0 -1 0
outer loop
vertex 225.535 4393 1237.02
vertex 190.671 4393 1289.31
vertex 209.085 4393 1227.24
endloop
endfacet
facet normal 0 -1 0
outer loop
vertex 209.085 4393 1227.24
vertex 190.671 4393 1289.31
vertex 170.79 4393 1276.69
endloop
endfacet
facet normal 0 -1 0
outer loop
vertex 209.085 4393 1227.24
vertex 170.79 4393 1276.69
vertex 194.321 4393 1215.07
endloop
endfacet
facet normal 0 -1 0
outer loop
vertex 194.321 4393 1215.07
vertex 170.79 4393 1276.69
vertex 152.647 4393 1261.68
endloop
endfacet
facet normal 0 -1 0
outer loop
vertex 194.321 4393 1215.07
vertex 152.647 4393 1261.68
vertex 181.588 4393 1200.78
endloop
endfacet
facet normal 0 -1 0
outer loop
vertex 181.588 4393 1200.78
vertex 152.647 4393 1261.68
vertex 136.529 4393 1244.52
endloop
endfacet
facet normal 0 -1 0
outer loop
vertex 181.588 4393 1200.78
vertex 136.529 4393 1244.52
vertex 122.688 4393 1225.47
endloop
endfacet
facet normal 0 -1 0
outer loop
vertex 93.87 4393 1136.77
vertex 93.87 4393 1113.23
vertex 156.825 4393 1110.66
endloop
endfacet
facet normal 0 -1 0
outer loop
vertex 156.825 4393 1110.66
vertex 93.87 4393 1113.23
vertex 96.8211 4393 1089.87
endloop
endfacet
facet normal 0 -1 0
outer loop
vertex 156.825 4393 1110.66
vertex 96.8211 4393 1089.87
vertex 160.468 4393 1091.88
endloop
endfacet
facet normal 0 -1 0
outer loop
vertex 160.468 4393 1091.88
vertex 96.8211 4393 1089.87
vertex 102.677 4393 1067.06
endloop
endfacet
facet normal 0 -1 0
outer loop
vertex 160.468 4393 1091.88
vertex 102.677 4393 1067.06
vertex 166.937 4393 1073.87
endloop
endfacet
facet normal 0 -1 0
outer loop
vertex 166.937 4393 1073.87
vertex 102.677 4393 1067.06
vertex 111.345 4393 1045.17
endloop
endfacet
facet normal 0 -1 0
outer loop
vertex 166.937 4393 1073.87
vertex 111.345 4393 1045.17
vertex 176.079 4393 1057.05
endloop
endfacet
facet normal 0 -1 0
outer loop
vertex 176.079 4393 1057.05
vertex 111.345 4393 1045.17
vertex 122.688 4393 1024.53
endloop
endfacet
facet normal 0 -1 0
outer loop
vertex 176.079 4393 1057.05
vertex 122.688 4393 1024.53
vertex 187.681 4393 1041.83
endloop
endfacet
facet normal 0 -1 0
outer loop
vertex 187.681 4393 1041.83
vertex 122.688 4393 1024.53
vertex 136.529 4393 1005.48
endloop
endfacet
facet normal 0 -1 0
outer loop
vertex 187.681 4393 1041.83
vertex 136.529 4393 1005.48
vertex 152.647 4393 988.318
endloop
endfacet
facet normal 0.153892 0 0.988088
outer loop
vertex 309.893 4468 1404.51
vertex 309.893 4437 1404.51
vertex 338.479 4468 1400.06
endloop
endfacet
facet normal 0.153892 0 0.988088
outer loop
vertex 338.479 4468 1400.06
vertex 309.893 4437 1404.51
vertex 338.479 4437 1400.06
endloop
endfacet
facet normal 0.254668 0 0.967029
outer loop
vertex 338.479 4468 1400.06
vertex 338.479 4437 1400.06
vertex 366.456 4468 1392.69
endloop
endfacet
facet normal 0.254668 0 0.967029
outer loop
vertex 366.456 4468 1392.69
vertex 338.479 4437 1400.06
vertex 366.456 4437 1392.69
endloop
endfacet
facet normal 0.352755 0 0.935716
outer loop
vertex 366.456 4468 1392.69
vertex 366.456 4437 1392.69
vertex 393.528 4468 1382.48
endloop
endfacet
facet normal 0.352755 0 0.935716
outer loop
vertex 393.528 4468 1382.48
vertex 366.456 4437 1392.69
vertex 393.528 4437 1382.48
endloop
endfacet
facet normal 0.447095 0 0.894487
outer loop
vertex 393.528 4468 1382.48
vertex 393.528 4437 1382.48
vertex 419.406 4468 1369.55
endloop
endfacet
facet normal 0.447095 0 0.894487
outer loop
vertex 419.406 4468 1369.55
vertex 393.528 4437 1382.48
vertex 419.406 4437 1369.55
endloop
endfacet
facet normal 0.536694 0 0.843777
outer loop
vertex 419.406 4468 1369.55
vertex 419.406 4437 1369.55
vertex 443.817 4468 1354.02
endloop
endfacet
facet normal 0.536694 0 0.843777
outer loop
vertex 443.817 4468 1354.02
vertex 419.406 4437 1369.55
vertex 443.817 4437 1354.02
endloop
endfacet
facet normal 0.620611 0 0.784118
outer loop
vertex 443.817 4468 1354.02
vertex 443.817 4437 1354.02
vertex 466.503 4468 1336.07
endloop
endfacet
facet normal 0.620611 0 0.784118
outer loop
vertex 466.503 4468 1336.07
vertex 443.817 4437 1354.02
vertex 466.503 4437 1336.07
endloop
endfacet
facet normal 0.697944 0 0.716152
outer loop
vertex 466.503 4468 1336.07
vertex 466.503 4437 1336.07
vertex 487.222 4468 1315.88
endloop
endfacet
facet normal 0.697944 0 0.716152
outer loop
vertex 487.222 4468 1315.88
vertex 466.503 4437 1336.07
vertex 487.222 4437 1315.88
endloop
endfacet
facet normal 0.76788 0 0.640594
outer loop
vertex 487.222 4468 1315.88
vertex 487.222 4437 1315.88
vertex 505.755 4468 1293.66
endloop
endfacet
facet normal 0.76788 0 0.640594
outer loop
vertex 505.755 4468 1293.66
vertex 487.222 4437 1315.88
vertex 505.755 4437 1293.66
endloop
endfacet
facet normal 0.829677 0 0.558244
outer loop
vertex 505.755 4468 1293.66
vertex 505.755 4437 1293.66
vertex 521.905 4468 1269.66
endloop
endfacet
facet normal 0.829677 0 0.558244
outer loop
vertex 521.905 4468 1269.66
vertex 505.755 4437 1293.66
vertex 521.905 4437 1269.66
endloop
endfacet
facet normal 0.882678 0 0.469978
outer loop
vertex 521.905 4468 1269.66
vertex 521.905 4437 1269.66
vertex 535.502 4468 1244.12
endloop
endfacet
facet normal 0.882678 0 0.469978
outer loop
vertex 535.502 4468 1244.12
vertex 521.905 4437 1269.66
vertex 535.502 4437 1244.12
endloop
endfacet
facet normal 0.926324 0 0.376729
outer loop
vertex 535.502 4468 1244.12
vertex 535.502 4437 1244.12
vertex 546.401 4468 1217.32
endloop
endfacet
facet normal 0.926324 0 0.376729
outer loop
vertex 546.401 4468 1217.32
vertex 535.502 4437 1244.12
vertex 546.401 4437 1217.32
endloop
endfacet
facet normal 0.96015 0 0.279485
outer loop
vertex 546.401 4468 1217.32
vertex 546.401 4437 1217.32
vertex 554.487 4468 1189.54
endloop
endfacet
facet normal 0.96015 0 0.279485
outer loop
vertex 554.487 4468 1189.54
vertex 546.401 4437 1217.32
vertex 554.487 4437 1189.54
endloop
endfacet
facet normal 0.983799 0 0.179278
outer loop
vertex 554.487 4468 1189.54
vertex 554.487 4437 1189.54
vertex 559.674 4468 1161.08
endloop
endfacet
facet normal 0.983799 0 0.179278
outer loop
vertex 559.674 4468 1161.08
vertex 554.487 4437 1189.54
vertex 559.674 4437 1161.08
endloop
endfacet
facet normal 0.997017 0 0.0771766
outer loop
vertex 559.674 4468 1161.08
vertex 559.674 4437 1161.08
vertex 561.907 4468 1132.24
endloop
endfacet
facet normal 0.997017 0 0.0771766
outer loop
vertex 561.907 4468 1132.24
vertex 559.674 4437 1161.08
vertex 561.907 4437 1132.24
endloop
endfacet
facet normal 0.999668 0 -0.0257486
outer loop
vertex 561.907 4468 1132.24
vertex 561.907 4437 1132.24
vertex 561.162 4468 1103.31
endloop
endfacet
facet normal 0.999668 0 -0.0257486
outer loop
vertex 561.162 4468 1103.31
vertex 561.907 4437 1132.24
vertex 561.162 4437 1103.31
endloop
endfacet
facet normal 0.991723 0 -0.128397
outer loop
vertex 561.162 4468 1103.31
vertex 561.162 4437 1103.31
vertex 557.447 4468 1074.62
endloop
endfacet
facet normal 0.991723 0 -0.128397
outer loop
vertex 557.447 4468 1074.62
vertex 561.162 4437 1103.31
vertex 557.447 4437 1074.62
endloop
endfacet
facet normal 0.973265 0 -0.229687
outer loop
vertex 557.447 4468 1074.62
vertex 557.447 4437 1074.62
vertex 550.802 4468 1046.46
endloop
endfacet
facet normal 0.973265 0 -0.229687
outer loop
vertex 550.802 4468 1046.46
vertex 557.447 4437 1074.62
vertex 550.802 4437 1046.46
endloop
endfacet
facet normal 0.944489 0 -0.328543
outer loop
vertex 550.802 4468 1046.46
vertex 550.802 4437 1046.46
vertex 541.297 4468 1019.14
endloop
endfacet
facet normal 0.944489 0 -0.328543
outer loop
vertex 541.297 4468 1019.14
vertex 550.802 4437 1046.46
vertex 541.297 4437 1019.14
endloop
endfacet
facet normal 0.905702 0 -0.423915
outer loop
vertex 541.297 4468 1019.14
vertex 541.297 4437 1019.14
vertex 529.033 4468 992.937
endloop
endfacet
facet normal 0.905702 0 -0.423915
outer loop
vertex 529.033 4468 992.937
vertex 541.297 4437 1019.14
vertex 529.033 4437 992.937
endloop
endfacet
facet normal 0.857315 0 -0.514792
outer loop
vertex 529.033 4468 992.937
vertex 529.033 4437 992.937
vertex 514.139 4468 968.133
endloop
endfacet
facet normal 0.857315 0 -0.514792
outer loop
vertex 514.139 4468 968.133
vertex 529.033 4437 992.937
vertex 514.139 4437 968.133
endloop
endfacet
facet normal 0.799838 0 -0.600215
outer loop
vertex 514.139 4468 968.133
vertex 514.139 4437 968.133
vertex 496.774 4468 944.993
endloop
endfacet
facet normal 0.799838 0 -0.600215
outer loop
vertex 496.774 4468 944.993
vertex 514.139 4437 968.133
vertex 496.774 4437 944.993
endloop
endfacet
facet normal 0.733886 0 -0.679272
outer loop
vertex 496.774 4468 944.993
vertex 496.774 4437 944.993
vertex 477.122 4468 923.761
endloop
endfacet
facet normal 0.733886 0 -0.679272
outer loop
vertex 477.122 4468 923.761
vertex 496.774 4437 944.993
vertex 477.122 4437 923.761
endloop
endfacet
facet normal 0.660153 0 -0.751131
outer loop
vertex 477.122 4468 923.761
vertex 477.122 4437 923.761
vertex 455.391 4468 904.662
endloop
endfacet
facet normal 0.660153 0 -0.751131
outer loop
vertex 455.391 4468 904.662
vertex 477.122 4437 923.761
vertex 455.391 4437 904.662
endloop
endfacet
facet normal 0.579421 0 -0.815029
outer loop
vertex 455.391 4468 904.662
vertex 455.391 4437 904.662
vertex 431.812 4468 887.899
endloop
endfacet
facet normal 0.579421 0 -0.815029
outer loop
vertex 431.812 4468 887.899
vertex 455.391 4437 904.662
vertex 431.812 4437 887.899
endloop
endfacet
facet normal 0.492548 0 -0.870285
outer loop
vertex 431.812 4468 887.899
vertex 431.812 4437 887.899
vertex 406.633 4468 873.649
endloop
endfacet
facet normal 0.492548 0 -0.870285
outer loop
vertex 406.633 4468 873.649
vertex 431.812 4437 887.899
vertex 406.633 4437 873.649
endloop
endfacet
facet normal 0.400452 0 -0.916318
outer loop
vertex 406.633 4468 873.649
vertex 406.633 4437 873.649
vertex 380.123 4468 862.064
endloop
endfacet
facet normal 0.400452 0 -0.916318
outer loop
vertex 380.123 4468 862.064
vertex 406.633 4437 873.649
vertex 380.123 4437 862.064
endloop
endfacet
facet normal 0.304116 0 -0.952635
outer loop
vertex 380.123 4468 862.064
vertex 380.123 4437 862.064
vertex 352.563 4468 853.265
endloop
endfacet
facet normal 0.304116 0 -0.952635
outer loop
vertex 352.563 4468 853.265
vertex 380.123 4437 862.064
vertex 352.563 4437 853.265
endloop
endfacet
facet normal 0.204552 0 -0.978856
outer loop
vertex 352.563 4468 853.265
vertex 352.563 4437 853.265
vertex 324.243 4468 847.347
endloop
endfacet
facet normal 0.204552 0 -0.978856
outer loop
vertex 324.243 4468 847.347
vertex 352.563 4437 853.265
vertex 324.243 4437 847.347
endloop
endfacet
facet normal 0.102821 0 -0.9947
outer loop
vertex 324.243 4468 847.347
vertex 324.243 4437 847.347
vertex 295.466 4468 844.373
endloop
endfacet
facet normal 0.102821 0 -0.9947
outer loop
vertex 295.466 4468 844.373
vertex 324.243 4437 847.347
vertex 295.466 4437 844.373
endloop
endfacet
facet normal 0 0 -1
outer loop
vertex 295.466 4468 844.373
vertex 295.466 4437 844.373
vertex 266.534 4468 844.373
endloop
endfacet
facet normal 0 0 -1
outer loop
vertex 266.534 4468 844.373
vertex 295.466 4437 844.373
vertex 266.534 4437 844.373
endloop
endfacet
facet normal -0.102821 0 -0.9947
outer loop
vertex 266.534 4468 844.373
vertex 266.534 4437 844.373
vertex 237.757 4468 847.347
endloop
endfacet
facet normal -0.102821 0 -0.9947
outer loop
vertex 237.757 4468 847.347
vertex 266.534 4437 844.373
vertex 237.757 4437 847.347
endloop
endfacet
facet normal -0.204552 0 -0.978856
outer loop
vertex 237.757 4468 847.347
vertex 237.757 4437 847.347
vertex 209.437 4468 853.265
endloop
endfacet
facet normal -0.204552 0 -0.978856
outer loop
vertex 209.437 4468 853.265
vertex 237.757 4437 847.347
vertex 209.437 4437 853.265
endloop
endfacet
facet normal -0.304116 0 -0.952635
outer loop
vertex 209.437 4468 853.265
vertex 209.437 4437 853.265
vertex 181.877 4468 862.064
endloop
endfacet
facet normal -0.304116 0 -0.952635
outer loop
vertex 181.877 4468 862.064
vertex 209.437 4437 853.265
vertex 181.877 4437 862.064
endloop
endfacet
facet normal -0.400452 0 -0.916318
outer loop
vertex 181.877 4468 862.064
vertex 181.877 4437 862.064
vertex 155.367 4468 873.649
endloop
endfacet
facet normal -0.400452 0 -0.916318
outer loop
vertex 155.367 4468 873.649
vertex 181.877 4437 862.064
vertex 155.367 4437 873.649
endloop
endfacet
facet normal -0.492548 0 -0.870285
outer loop
vertex 155.367 4468 873.649
vertex 155.367 4437 873.649
vertex 130.188 4468 887.899
endloop
endfacet
facet normal -0.492548 0 -0.870285
outer loop
vertex 130.188 4468 887.899
vertex 155.367 4437 873.649
vertex 130.188 4437 887.899
endloop
endfacet
facet normal -0.579421 0 -0.815029
outer loop
vertex 130.188 4468 887.899
vertex 130.188 4437 887.899
vertex 106.609 4468 904.662
endloop
endfacet
facet normal -0.579421 0 -0.815029
outer loop
vertex 106.609 4468 904.662
vertex 130.188 4437 887.899
vertex 106.609 4437 904.662
endloop
endfacet
facet normal -0.660153 0 -0.751131
outer loop
vertex 106.609 4468 904.662
vertex 106.609 4437 904.662
vertex 84.8777 4468 923.761
endloop
endfacet
facet normal -0.660153 0 -0.751131
outer loop
vertex 84.8777 4468 923.761
vertex 106.609 4437 904.662
vertex 84.8777 4437 923.761
endloop
endfacet
facet normal -0.733886 0 -0.679273
outer loop
vertex 84.8777 4468 923.761
vertex 84.8777 4437 923.761
vertex 65.2256 4468 944.993
endloop
endfacet
facet normal -0.733886 0 -0.679273
outer loop
vertex 65.2256 4468 944.993
vertex 84.8777 4437 923.761
vertex 65.2256 4437 944.993
endloop
endfacet
facet normal -0.799838 0 -0.600216
outer loop
vertex 65.2256 4468 944.993
vertex 65.2256 4437 944.993
vertex 47.8607 4468 968.133
endloop
endfacet
facet normal -0.799838 0 -0.600216
outer loop
vertex 47.8607 4468 968.133
vertex 65.2256 4437 944.993
vertex 47.8607 4437 968.133
endloop
endfacet
facet normal -0.857315 0 -0.514793
outer loop
vertex 47.8607 4468 968.133
vertex 47.8607 4437 968.133
vertex 32.9672 4468 992.937
endloop
endfacet
facet normal -0.857315 0 -0.514793
outer loop
vertex 32.9672 4468 992.937
vertex 47.8607 4437 968.133
vertex 32.9672 4437 992.937
endloop
endfacet
facet normal -0.905702 0 -0.423915
outer loop
vertex 32.9672 4468 992.937
vertex 32.9672 4437 992.937
vertex 20.703 4468 1019.14
endloop
endfacet
facet normal -0.905702 0 -0.423915
outer loop
vertex 20.703 4468 1019.14
vertex 32.9672 4437 992.937
vertex 20.703 4437 1019.14
endloop
endfacet
facet normal -0.94449 0 -0.328541
outer loop
vertex 20.703 4468 1019.14
vertex 20.703 4437 1019.14
vertex 11.1979 4468 1046.46
endloop
endfacet
facet normal -0.94449 0 -0.328541
outer loop
vertex 11.1979 4468 1046.46
vertex 20.703 4437 1019.14
vertex 11.1979 4437 1046.46
endloop
endfacet
facet normal -0.973264 0 -0.229688
outer loop
vertex 11.1979 4468 1046.46
vertex 11.1979 4437 1046.46
vertex 4.55275 4468 1074.62
endloop
endfacet
facet normal -0.973264 0 -0.229688
outer loop
vertex 4.55275 4468 1074.62
vertex 11.1979 4437 1046.46
vertex 4.55275 4437 1074.62
endloop
endfacet
facet normal -0.991723 0 -0.128398
outer loop
vertex 4.55275 4468 1074.62
vertex 4.55275 4437 1074.62
vertex 0.838071 4468 1103.31
endloop
endfacet
facet normal -0.991723 0 -0.128398
outer loop
vertex 0.838071 4468 1103.31
vertex 4.55275 4437 1074.62
vertex 0.838071 4437 1103.31
endloop
endfacet
facet normal -0.999668 0 -0.0257477
outer loop
vertex 0.838071 4468 1103.31
vertex 0.838071 4437 1103.31
vertex 0.0931621 4468 1132.24
endloop
endfacet
facet normal -0.999668 0 -0.0257477
outer loop
vertex 0.0931621 4468 1132.24
vertex 0.838071 4437 1103.31
vertex 0.0931621 4437 1132.24
endloop
endfacet
facet normal -0.997018 0 0.0771756
outer loop
vertex 0.0931621 4468 1132.24
vertex 0.0931621 4437 1132.24
vertex 2.32592 4468 1161.08
endloop
endfacet
facet normal -0.997018 0 0.0771756
outer loop
vertex 2.32592 4468 1161.08
vertex 0.0931621 4437 1132.24
vertex 2.32592 4437 1161.08
endloop
endfacet
facet normal -0.983798 0 0.17928
outer loop
vertex 2.32592 4468 1161.08
vertex 2.32592 4437 1161.08
vertex 7.51269 4468 1189.54
endloop
endfacet
facet normal -0.983798 0 0.17928
outer loop
vertex 7.51269 4468 1189.54
vertex 2.32592 4437 1161.08
vertex 7.51269 4437 1189.54
endloop
endfacet
facet normal -0.96015 0 0.279485
outer loop
vertex 7.51269 4468 1189.54
vertex 7.51269 4437 1189.54
vertex 15.5985 4468 1217.32
endloop
endfacet
facet normal -0.96015 0 0.279485
outer loop
vertex 15.5985 4468 1217.32
vertex 7.51269 4437 1189.54
vertex 15.5985 4437 1217.32
endloop
endfacet
facet normal -0.926324 0 0.376728
outer loop
vertex 15.5985 4468 1217.32
vertex 15.5985 4437 1217.32
vertex 26.4977 4468 1244.12
endloop
endfacet
facet normal -0.926324 0 0.376728
outer loop
vertex 26.4977 4468 1244.12
vertex 15.5985 4437 1217.32
vertex 26.4977 4437 1244.12
endloop
endfacet
facet normal -0.882678 0 0.469978
outer loop
vertex 26.4977 4468 1244.12
vertex 26.4977 4437 1244.12
vertex 40.0946 4468 1269.66
endloop
endfacet
facet normal -0.882678 0 0.469978
outer loop
vertex 40.0946 4468 1269.66
vertex 26.4977 4437 1244.12
vertex 40.0946 4437 1269.66
endloop
endfacet
facet normal -0.829677 0 0.558244
outer loop
vertex 40.0946 4468 1269.66
vertex 40.0946 4437 1269.66
vertex 56.2452 4468 1293.66
endloop
endfacet
facet normal -0.829677 0 0.558244
outer loop
vertex 56.2452 4468 1293.66
vertex 40.0946 4437 1269.66
vertex 56.2452 4437 1293.66
endloop
endfacet
facet normal -0.76788 0 0.640593
outer loop
vertex 56.2452 4468 1293.66
vertex 56.2452 4437 1293.66
vertex 74.7782 4468 1315.88
endloop
endfacet
facet normal -0.76788 0 0.640593
outer loop
vertex 74.7782 4468 1315.88
vertex 56.2452 4437 1293.66
vertex 74.7782 4437 1315.88
endloop
endfacet
facet normal -0.697944 0 0.716152
outer loop
vertex 74.7782 4468 1315.88
vertex 74.7782 4437 1315.88
vertex 95.4972 4468 1336.07
endloop
endfacet
facet normal -0.697944 0 0.716152
outer loop
vertex 95.4972 4468 1336.07
vertex 74.7782 4437 1315.88
vertex 95.4972 4437 1336.07
endloop
endfacet
facet normal -0.620611 0 0.784119
outer loop
vertex 95.4972 4468 1336.07
vertex 95.4972 4437 1336.07
vertex 118.183 4468 1354.02
endloop
endfacet
facet normal -0.620611 0 0.784119
outer loop
vertex 118.183 4468 1354.02
vertex 95.4972 4437 1336.07
vertex 118.183 4437 1354.02
endloop
endfacet
facet normal -0.536694 0 0.843777
outer loop
vertex 118.183 4468 1354.02
vertex 118.183 4437 1354.02
vertex 142.594 4468 1369.55
endloop
endfacet
facet normal -0.536694 0 0.843777
outer loop
vertex 142.594 4468 1369.55
vertex 118.183 4437 1354.02
vertex 142.594 4437 1369.55
endloop
endfacet
facet normal -0.447095 0 0.894487
outer loop
vertex 142.594 4468 1369.55
vertex 142.594 4437 1369.55
vertex 168.472 4468 1382.48
endloop
endfacet
facet normal -0.447095 0 0.894487
outer loop
vertex 168.472 4468 1382.48
vertex 142.594 4437 1369.55
vertex 168.472 4437 1382.48
endloop
endfacet
facet normal -0.352754 0 0.935716
outer loop
vertex 168.472 4468 1382.48
vertex 168.472 4437 1382.48
vertex 195.544 4468 1392.69
endloop
endfacet
facet normal -0.352754 0 0.935716
outer loop
vertex 195.544 4468 1392.69
vertex 168.472 4437 1382.48
vertex 195.544 4437 1392.69
endloop
endfacet
facet normal -0.254668 0 0.967029
outer loop
vertex 195.544 4468 1392.69
vertex 195.544 4437 1392.69
vertex 223.521 4468 1400.06
endloop
endfacet
facet normal -0.254668 0 0.967029
outer loop
vertex 223.521 4468 1400.06
vertex 195.544 4437 1392.69
vertex 223.521 4437 1400.06
endloop
endfacet
facet normal -0.153892 0 0.988088
outer loop
vertex 223.521 4468 1400.06
vertex 223.521 4437 1400.06
vertex 252.107 4468 1404.51
endloop
endfacet
facet normal -0.153892 0 0.988088
outer loop
vertex 252.107 4468 1404.51
vertex 223.521 4437 1400.06
vertex 252.107 4437 1404.51
endloop
endfacet
facet normal -0.0514803 0 0.998674
outer loop
vertex 252.107 4468 1404.51
vertex 252.107 4437 1404.51
vertex 281 4468 1406
endloop
endfacet
facet normal -0.0514803 0 0.998674
outer loop
vertex 281 4468 1406
vertex 252.107 4437 1404.51
vertex 281 4437 1406
endloop
endfacet
facet normal 0.0514804 0 0.998674
outer loop
vertex 281 4468 1406
vertex 281 4437 1406
vertex 309.893 4468 1404.51
endloop
endfacet
facet normal 0.0514804 0 0.998674
outer loop
vertex 309.893 4468 1404.51
vertex 281 4437 1406
vertex 309.893 4437 1404.51
endloop
endfacet
facet normal -0.227852 0 -0.973696
outer loop
vertex 300.081 4393 1248.54
vertex 300.081 4468 1248.54
vertex 318.715 4393 1244.17
endloop
endfacet
facet normal -0.227852 0 -0.973696
outer loop
vertex 318.715 4393 1244.17
vertex 300.081 4468 1248.54
vertex 318.715 4468 1244.17
endloop
endfacet
facet normal -0.373815 0 -0.927503
outer loop
vertex 318.715 4393 1244.17
vertex 318.715 4468 1244.17
vertex 336.465 4393 1237.02
endloop
endfacet
facet normal -0.373815 0 -0.927503
outer loop
vertex 336.465 4393 1237.02
vertex 318.715 4468 1244.17
vertex 336.465 4468 1237.02
endloop
endfacet
facet normal -0.51102 0 -0.859569
outer loop
vertex 336.465 4393 1237.02
vertex 336.465 4468 1237.02
vertex 352.915 4393 1227.24
endloop
endfacet
facet normal -0.51102 0 -0.859569
outer loop
vertex 352.915 4393 1227.24
vertex 336.465 4468 1237.02
vertex 352.915 4468 1227.24
endloop
endfacet
facet normal -0.636244 0 -0.771488
outer loop
vertex 352.915 4393 1227.24
vertex 352.915 4468 1227.24
vertex 367.679 4393 1215.07
endloop
endfacet
facet normal -0.636244 0 -0.771488
outer loop
vertex 367.679 4393 1215.07
vertex 352.915 4468 1227.24
vertex 367.679 4468 1215.07
endloop
endfacet
facet normal -0.746555 0 -0.665323
outer loop
vertex 367.679 4393 1215.07
vertex 367.679 4468 1215.07
vertex 380.412 4393 1200.78
endloop
endfacet
facet normal -0.746555 0 -0.665323
outer loop
vertex 380.412 4393 1200.78
vertex 367.679 4468 1215.07
vertex 380.412 4468 1200.78
endloop
endfacet
facet normal -0.839363 0 -0.543572
outer loop
vertex 380.412 4393 1200.78
vertex 380.412 4468 1200.78
vertex 390.814 4393 1184.72
endloop
endfacet
facet normal -0.839363 0 -0.543572
outer loop
vertex 390.814 4393 1184.72
vertex 380.412 4468 1200.78
vertex 390.814 4468 1184.72
endloop
endfacet
facet normal -0.912505 0 -0.409067
outer loop
vertex 390.814 4393 1184.72
vertex 390.814 4468 1184.72
vertex 398.642 4393 1167.25
endloop
endfacet
facet normal -0.912505 0 -0.409067
outer loop
vertex 398.642 4393 1167.25
vertex 390.814 4468 1184.72
vertex 398.642 4468 1167.25
endloop
endfacet
facet normal -0.964253 0 -0.264983
outer loop
vertex 398.642 4393 1167.25
vertex 398.642 4468 1167.25
vertex 403.714 4393 1148.8
endloop
endfacet
facet normal -0.964253 0 -0.264983
outer loop
vertex 403.714 4393 1148.8
vertex 398.642 4468 1167.25
vertex 403.714 4468 1148.8
endloop
endfacet
facet normal -0.993402 0 -0.114683
outer loop
vertex 403.714 4393 1148.8
vertex 403.714 4468 1148.8
vertex 405.908 4393 1129.79
endloop
endfacet
facet normal -0.993402 0 -0.114683
outer loop
vertex 405.908 4393 1129.79
vertex 403.714 4468 1148.8
vertex 405.908 4468 1129.79
endloop
endfacet
facet normal -0.999266 0 0.0383038
outer loop
vertex 405.908 4393 1129.79
vertex 405.908 4468 1129.79
vertex 405.175 4393 1110.66
endloop
endfacet
facet normal -0.999266 0 0.0383038
outer loop
vertex 405.175 4393 1110.66
vertex 405.908 4468 1129.79
vertex 405.175 4468 1110.66
endloop
endfacet
facet normal -0.981708 0 0.19039
outer loop
vertex 405.175 4393 1110.66
vertex 405.175 4468 1110.66
vertex 401.532 4393 1091.88
endloop
endfacet
facet normal -0.981708 0 0.19039
outer loop
vertex 401.532 4393 1091.88
vertex 405.175 4468 1110.66
vertex 401.532 4468 1091.88
endloop
endfacet
facet normal -0.94114 0 0.338016
outer loop
vertex 401.532 4393 1091.88
vertex 401.532 4468 1091.88
vertex 395.063 4393 1073.87
endloop
endfacet
facet normal -0.94114 0 0.338016
outer loop
vertex 395.063 4393 1073.87
vertex 401.532 4468 1091.88
vertex 395.063 4468 1073.87
endloop
endfacet
facet normal -0.878512 0 0.477721
outer loop
vertex 395.063 4393 1073.87
vertex 395.063 4468 1073.87
vertex 385.921 4393 1057.05
endloop
endfacet
facet normal -0.878512 0 0.477721
outer loop
vertex 385.921 4393 1057.05
vertex 395.063 4468 1073.87
vertex 385.921 4468 1057.05
endloop
endfacet
facet normal -0.795293 0 0.606225
outer loop
vertex 385.921 4393 1057.05
vertex 385.921 4468 1057.05
vertex 374.319 4393 1041.83
endloop
endfacet
facet normal -0.795293 0 0.606225
outer loop
vertex 374.319 4393 1041.83
vertex 385.921 4468 1057.05
vertex 374.319 4468 1041.83
endloop
endfacet
facet normal -0.693431 0 0.720523
outer loop
vertex 374.319 4393 1041.83
vertex 374.319 4468 1041.83
vertex 360.53 4393 1028.56
endloop
endfacet
facet normal -0.693431 0 0.720523
outer loop
vertex 360.53 4393 1028.56
vertex 374.319 4468 1041.83
vertex 360.53 4468 1028.56
endloop
endfacet
facet normal -0.575318 0 0.81793
outer loop
vertex 360.53 4393 1028.56
vertex 360.53 4468 1028.56
vertex 344.877 4393 1017.55
endloop
endfacet
facet normal -0.575318 0 0.81793
outer loop
vertex 344.877 4393 1017.55
vertex 360.53 4468 1028.56
vertex 344.877 4468 1017.55
endloop
endfacet
facet normal -0.443722 0 0.896165
outer loop
vertex 344.877 4393 1017.55
vertex 344.877 4468 1017.55
vertex 327.727 4393 1009.06
endloop
endfacet
facet normal -0.443722 0 0.896165
outer loop
vertex 327.727 4393 1009.06
vertex 344.877 4468 1017.55
vertex 327.727 4468 1009.06
endloop
endfacet
facet normal -0.301723 0 0.953396
outer loop
vertex 327.727 4393 1009.06
vertex 327.727 4468 1009.06
vertex 309.482 4393 1003.29
endloop
endfacet
facet normal -0.301723 0 0.953396
outer loop
vertex 309.482 4393 1003.29
vertex 327.727 4468 1009.06
vertex 309.482 4468 1003.29
endloop
endfacet
facet normal -0.152645 0 0.988281
outer loop
vertex 309.482 4393 1003.29
vertex 309.482 4468 1003.29
vertex 290.569 4393 1000.37
endloop
endfacet
facet normal -0.152645 0 0.988281
outer loop
vertex 290.569 4393 1000.37
vertex 309.482 4468 1003.29
vertex 290.569 4468 1000.37
endloop
endfacet
facet normal 0 0 1
outer loop
vertex 290.569 4393 1000.37
vertex 290.569 4468 1000.37
vertex 271.431 4393 1000.37
endloop
endfacet
facet normal 0 0 1
outer loop
vertex 271.431 4393 1000.37
vertex 290.569 4468 1000.37
vertex 271.431 4468 1000.37
endloop
endfacet
facet normal 0.152644 0 0.988281
outer loop
vertex 271.431 4393 1000.37
vertex 271.431 4468 1000.37
vertex 252.518 4393 1003.29
endloop
endfacet
facet normal 0.152644 0 0.988281
outer loop
vertex 252.518 4393 1003.29
vertex 271.431 4468 1000.37
vertex 252.518 4468 1003.29
endloop
endfacet
facet normal 0.301723 0 0.953396
outer loop
vertex 252.518 4393 1003.29
vertex 252.518 4468 1003.29
vertex 234.273 4393 1009.06
endloop
endfacet
facet normal 0.301723 0 0.953396
outer loop
vertex 234.273 4393 1009.06
vertex 252.518 4468 1003.29
vertex 234.273 4468 1009.06
endloop
endfacet
facet normal 0.443721 0 0.896165
outer loop
vertex 234.273 4393 1009.06
vertex 234.273 4468 1009.06
vertex 217.123 4393 1017.55
endloop
endfacet
facet normal 0.443721 0 0.896165
outer loop
vertex 217.123 4393 1017.55
vertex 234.273 4468 1009.06
vertex 217.123 4468 1017.55
endloop
endfacet
facet normal 0.575318 0 0.81793
outer loop
vertex 217.123 4393 1017.55
vertex 217.123 4468 1017.55
vertex 201.47 4393 1028.56
endloop
endfacet
facet normal 0.575318 0 0.81793
outer loop
vertex 201.47 4393 1028.56
vertex 217.123 4468 1017.55
vertex 201.47 4468 1028.56
endloop
endfacet
facet normal 0.693431 0 0.720523
outer loop
vertex 201.47 4393 1028.56
vertex 201.47 4468 1028.56
vertex 187.681 4393 1041.83
endloop
endfacet
facet normal 0.693431 0 0.720523
outer loop
vertex 187.681 4393 1041.83
vertex 201.47 4468 1028.56
vertex 187.681 4468 1041.83
endloop
endfacet
facet normal 0.795294 0 0.606224
outer loop
vertex 187.681 4393 1041.83
vertex 187.681 4468 1041.83
vertex 176.079 4393 1057.05
endloop
endfacet
facet normal 0.795294 0 0.606224
outer loop
vertex 176.079 4393 1057.05
vertex 187.681 4468 1041.83
vertex 176.079 4468 1057.05
endloop
endfacet
facet normal 0.878511 0 0.477722
outer loop
vertex 176.079 4393 1057.05
vertex 176.079 4468 1057.05
vertex 166.937 4393 1073.87
endloop
endfacet
facet normal 0.878511 0 0.477722
outer loop
vertex 166.937 4393 1073.87
vertex 176.079 4468 1057.05
vertex 166.937 4468 1073.87
endloop
endfacet
facet normal 0.941141 0 0.338015
outer loop
vertex 166.937 4393 1073.87
vertex 166.937 4468 1073.87
vertex 160.468 4393 1091.88
endloop
endfacet
facet normal 0.941141 0 0.338015
outer loop
vertex 160.468 4393 1091.88
vertex 166.937 4468 1073.87
vertex 160.468 4468 1091.88
endloop
endfacet
facet normal 0.981708 0 0.190391
outer loop
vertex 160.468 4393 1091.88
vertex 160.468 4468 1091.88
vertex 156.825 4393 1110.66
endloop
endfacet
facet normal 0.981708 0 0.190391
outer loop
vertex 156.825 4393 1110.66
vertex 160.468 4468 1091.88
vertex 156.825 4468 1110.66
endloop
endfacet
facet normal 0.999266 0 0.038303
outer loop
vertex 156.825 4393 1110.66
vertex 156.825 4468 1110.66
vertex 156.092 4393 1129.79
endloop
endfacet
facet normal 0.999266 0 0.038303
outer loop
vertex 156.092 4393 1129.79
vertex 156.825 4468 1110.66
vertex 156.092 4468 1129.79
endloop
endfacet
facet normal 0.993402 0 -0.114683
outer loop
vertex 156.092 4393 1129.79
vertex 156.092 4468 1129.79
vertex 158.286 4393 1148.8
endloop
endfacet
facet normal 0.993402 0 -0.114683
outer loop
vertex 158.286 4393 1148.8
vertex 156.092 4468 1129.79
vertex 158.286 4468 1148.8
endloop
endfacet
facet normal 0.964253 0 -0.264983
outer loop
vertex 158.286 4393 1148.8
vertex 158.286 4468 1148.8
vertex 163.357 4393 1167.25
endloop
endfacet
facet normal 0.964253 0 -0.264983
outer loop
vertex 163.357 4393 1167.25
vertex 158.286 4468 1148.8
vertex 163.357 4468 1167.25
endloop
endfacet
facet normal 0.912505 0 -0.409066
outer loop
vertex 163.357 4393 1167.25
vertex 163.357 4468 1167.25
vertex 171.186 4393 1184.72
endloop
endfacet
facet normal 0.912505 0 -0.409066
outer loop
vertex 171.186 4393 1184.72
vertex 163.357 4468 1167.25
vertex 171.186 4468 1184.72
endloop
endfacet
facet normal 0.839362 0 -0.543572
outer loop
vertex 171.186 4393 1184.72
vertex 171.186 4468 1184.72
vertex 181.588 4393 1200.78
endloop
endfacet
facet normal 0.839362 0 -0.543572
outer loop
vertex 181.588 4393 1200.78
vertex 171.186 4468 1184.72
vertex 181.588 4468 1200.78
endloop
endfacet
facet normal 0.746555 0 -0.665323
outer loop
vertex 181.588 4393 1200.78
vertex 181.588 4468 1200.78
vertex 194.321 4393 1215.07
endloop
endfacet
facet normal 0.746555 0 -0.665323
outer loop
vertex 194.321 4393 1215.07
vertex 181.588 4468 1200.78
vertex 194.321 4468 1215.07
endloop
endfacet
facet normal 0.636244 0 -0.771488
outer loop
vertex 194.321 4393 1215.07
vertex 194.321 4468 1215.07
vertex 209.085 4393 1227.24
endloop
endfacet
facet normal 0.636244 0 -0.771488
outer loop
vertex 209.085 4393 1227.24
vertex 194.321 4468 1215.07
vertex 209.085 4468 1227.24
endloop
endfacet
facet normal 0.51102 0 -0.859569
outer loop
vertex 209.085 4393 1227.24
vertex 209.085 4468 1227.24
vertex 225.535 4393 1237.02
endloop
endfacet
facet normal 0.51102 0 -0.859569
outer loop
vertex 225.535 4393 1237.02
vertex 209.085 4468 1227.24
vertex 225.535 4468 1237.02
endloop
endfacet
facet normal 0.373815 0 -0.927503
outer loop
vertex 225.535 4393 1237.02
vertex 225.535 4468 1237.02
vertex 243.285 4393 1244.17
endloop
endfacet
facet normal 0.373815 0 -0.927503
outer loop
vertex 243.285 4393 1244.17
vertex 225.535 4468 1237.02
vertex 243.285 4468 1244.17
endloop
endfacet
facet normal 0.227852 0 -0.973696
outer loop
vertex 243.285 4393 1244.17
vertex 243.285 4468 1244.17
vertex 261.919 4393 1248.54
endloop
endfacet
facet normal 0.227852 0 -0.973696
outer loop
vertex 261.919 4393 1248.54
vertex 243.285 4468 1244.17
vertex 261.919 4468 1248.54
endloop
endfacet
facet normal 0.0765503 0 -0.997066
outer loop
vertex 261.919 4393 1248.54
vertex 261.919 4468 1248.54
vertex 281 4393 1250
endloop
endfacet
facet normal 0.0765503 0 -0.997066
outer loop
vertex 281 4393 1250
vertex 261.919 4468 1248.54
vertex 281 4468 1250
endloop
endfacet
facet normal -0.0765503 0 -0.997066
outer loop
vertex 281 4393 1250
vertex 281 4468 1250
vertex 300.081 4393 1248.54
endloop
endfacet
facet normal -0.0765503 0 -0.997066
outer loop
vertex 300.081 4393 1248.54
vertex 281 4468 1250
vertex 300.081 4468 1248.54
endloop
endfacet
facet normal 0 1 0
outer loop
vertex 243.285 4468 1244.17
vertex 223.521 4468 1400.06
vertex 261.919 4468 1248.54
endloop
endfacet
facet normal 0 1 0
outer loop
vertex 261.919 4468 1248.54
vertex 223.521 4468 1400.06
vertex 252.107 4468 1404.51
endloop
endfacet
facet normal 0 1 0
outer loop
vertex 261.919 4468 1248.54
vertex 252.107 4468 1404.51
vertex 281 4468 1250
endloop
endfacet
facet normal 0 1 0
outer loop
vertex 281 4468 1250
vertex 252.107 4468 1404.51
vertex 281 4468 1406
endloop
endfacet
facet normal 0 1 0
outer loop
vertex 281 4468 1250
vertex 281 4468 1406
vertex 300.081 4468 1248.54
endloop
endfacet
facet normal 0 1 0
outer loop
vertex 271.431 4468 1000.37
vertex 237.757 4468 847.347
vertex 252.518 4468 1003.29
endloop
endfacet
facet normal 0 1 0
outer loop
vertex 252.518 4468 1003.29
vertex 237.757 4468 847.347
vertex 209.437 4468 853.265
endloop
endfacet
facet normal 0 1 0
outer loop
vertex 252.518 4468 1003.29
vertex 209.437 4468 853.265
vertex 234.273 4468 1009.06
endloop
endfacet
facet normal 0 1 0
outer loop
vertex 209.085 4468 1227.24
vertex 142.594 4468 1369.55
vertex 225.535 4468 1237.02
endloop
endfacet
facet normal 0 1 0
outer loop
vertex 225.535 4468 1237.02
vertex 142.594 4468 1369.55
vertex 168.472 4468 1382.48
endloop
endfacet
facet normal 0 1 0
outer loop
vertex 225.535 4468 1237.02
vertex 168.472 4468 1382.48
vertex 243.285 4468 1244.17
endloop
endfacet
facet normal 0 1 0
outer loop
vertex 243.285 4468 1244.17
vertex 168.472 4468 1382.48
vertex 195.544 4468 1392.69
endloop
endfacet
facet normal 0 1 0
outer loop
vertex 243.285 4468 1244.17
vertex 195.544 4468 1392.69
vertex 223.521 4468 1400.06
endloop
endfacet
facet normal 0 1 0
outer loop
vertex 181.588 4468 1200.78
vertex 74.7782 4468 1315.88
vertex 194.321 4468 1215.07
endloop
endfacet
facet normal 0 1 0
outer loop
vertex 194.321 4468 1215.07
vertex 74.7782 4468 1315.88
vertex 95.4972 4468 1336.07
endloop
endfacet
facet normal 0 1 0
outer loop
vertex 194.321 4468 1215.07
vertex 95.4972 4468 1336.07
vertex 209.085 4468 1227.24
endloop
endfacet
facet normal 0 1 0
outer loop
vertex 209.085 4468 1227.24
vertex 95.4972 4468 1336.07
vertex 118.183 4468 1354.02
endloop
endfacet
facet normal 0 1 0
outer loop
vertex 209.085 4468 1227.24
vertex 118.183 4468 1354.02
vertex 142.594 4468 1369.55
endloop
endfacet
facet normal 0 1 0
outer loop
vertex 163.357 4468 1167.25
vertex 26.4977 4468 1244.12
vertex 171.186 4468 1184.72
endloop
endfacet
facet normal 0 1 0
outer loop
vertex 171.186 4468 1184.72
vertex 26.4977 4468 1244.12
vertex 40.0946 4468 1269.66
endloop
endfacet
facet normal 0 1 0
outer loop
vertex 171.186 4468 1184.72
vertex 40.0946 4468 1269.66
vertex 181.588 4468 1200.78
endloop
endfacet
facet normal 0 1 0
outer loop
vertex 181.588 4468 1200.78
vertex 40.0946 4468 1269.66
vertex 56.2452 4468 1293.66
endloop
endfacet
facet normal 0 1 0
outer loop
vertex 181.588 4468 1200.78
vertex 56.2452 4468 1293.66
vertex 74.7782 4468 1315.88
endloop
endfacet
facet normal 0 1 0
outer loop
vertex 209.437 4468 853.265
vertex 181.877 4468 862.064
vertex 234.273 4468 1009.06
endloop
endfacet
facet normal 0 1 0
outer loop
vertex 234.273 4468 1009.06
vertex 181.877 4468 862.064
vertex 155.367 4468 873.649
endloop
endfacet
facet normal 0 1 0
outer loop
vertex 234.273 4468 1009.06
vertex 155.367 4468 873.649
vertex 217.123 4468 1017.55
endloop
endfacet
facet normal 0 1 0
outer loop
vertex 217.123 4468 1017.55
vertex 155.367 4468 873.649
vertex 130.188 4468 887.899
endloop
endfacet
facet normal 0 1 0
outer loop
vertex 217.123 4468 1017.55
vertex 130.188 4468 887.899
vertex 201.47 4468 1028.56
endloop
endfacet
facet normal 0 1 0
outer loop
vertex 374.319 4468 1041.83
vertex 477.122 4468 923.761
vertex 360.53 4468 1028.56
endloop
endfacet
facet normal 0 1 0
outer loop
vertex 360.53 4468 1028.56
vertex 477.122 4468 923.761
vertex 455.391 4468 904.662
endloop
endfacet
facet normal 0 1 0
outer loop
vertex 360.53 4468 1028.56
vertex 455.391 4468 904.662
vertex 344.877 4468 1017.55
endloop
endfacet
facet normal 0 1 0
outer loop
vertex 367.679 4468 1215.07
vertex 487.222 4468 1315.88
vertex 380.412 4468 1200.78
endloop
endfacet
facet normal 0 1 0
outer loop
vertex 380.412 4468 1200.78
vertex 487.222 4468 1315.88
vertex 505.755 4468 1293.66
endloop
endfacet
facet normal 0 1 0
outer loop
vertex 380.412 4468 1200.78
vertex 505.755 4468 1293.66
vertex 390.814 4468 1184.72
endloop
endfacet
facet normal 0 1 0
outer loop
vertex 281 4468 1406
vertex 309.893 4468 1404.51
vertex 300.081 4468 1248.54
endloop
endfacet
facet normal 0 1 0
outer loop
vertex 300.081 4468 1248.54
vertex 309.893 4468 1404.51
vertex 338.479 4468 1400.06
endloop
endfacet
facet normal 0 1 0
outer loop
vertex 300.081 4468 1248.54
vertex 338.479 4468 1400.06
vertex 318.715 4468 1244.17
endloop
endfacet
facet normal 0 1 0
outer loop
vertex 318.715 4468 1244.17
vertex 338.479 4468 1400.06
vertex 366.456 4468 1392.69
endloop
endfacet
facet normal 0 1 0
outer loop
vertex 318.715 4468 1244.17
vertex 366.456 4468 1392.69
vertex 336.465 4468 1237.02
endloop
endfacet
facet normal 0 1 0
outer loop
vertex 156.092 4468 1129.79
vertex 2.32592 4468 1161.08
vertex 158.286 4468 1148.8
endloop
endfacet
facet normal 0 1 0
outer loop
vertex 158.286 4468 1148.8
vertex 2.32592 4468 1161.08
vertex 7.51269 4468 1189.54
endloop
endfacet
facet normal 0 1 0
outer loop
vertex 158.286 4468 1148.8
vertex 7.51269 4468 1189.54
vertex 163.357 4468 1167.25
endloop
endfacet
facet normal 0 1 0
outer loop
vertex 163.357 4468 1167.25
vertex 7.51269 4468 1189.54
vertex 15.5985 4468 1217.32
endloop
endfacet
facet normal 0 1 0
outer loop
vertex 163.357 4468 1167.25
vertex 15.5985 4468 1217.32
vertex 26.4977 4468 1244.12
endloop
endfacet
facet normal 0 1 0
outer loop
vertex 160.468 4468 1091.88
vertex 4.55275 4468 1074.62
vertex 156.825 4468 1110.66
endloop
endfacet
facet normal 0 1 0
outer loop
vertex 156.825 4468 1110.66
vertex 4.55275 4468 1074.62
vertex 0.838071 4468 1103.31
endloop
endfacet
facet normal 0 1 0
outer loop
vertex 156.825 4468 1110.66
vertex 0.838071 4468 1103.31
vertex 156.092 4468 1129.79
endloop
endfacet
facet normal 0 1 0
outer loop
vertex 156.092 4468 1129.79
vertex 0.838071 4468 1103.31
vertex 0.0931621 4468 1132.24
endloop
endfacet
facet normal 0 1 0
outer loop
vertex 156.092 4468 1129.79
vertex 0.0931621 4468 1132.24
vertex 2.32592 4468 1161.08
endloop
endfacet
facet normal 0 1 0
outer loop
vertex 309.482 4468 1003.29
vertex 324.243 4468 847.347
vertex 290.569 4468 1000.37
endloop
endfacet
facet normal 0 1 0
outer loop
vertex 290.569 4468 1000.37
vertex 324.243 4468 847.347
vertex 295.466 4468 844.373
endloop
endfacet
facet normal 0 1 0
outer loop
vertex 290.569 4468 1000.37
vertex 295.466 4468 844.373
vertex 271.431 4468 1000.37
endloop
endfacet
facet normal 0 1 0
outer loop
vertex 271.431 4468 1000.37
vertex 295.466 4468 844.373
vertex 266.534 4468 844.373
endloop
endfacet
facet normal 0 1 0
outer loop
vertex 271.431 4468 1000.37
vertex 266.534 4468 844.373
vertex 237.757 4468 847.347
endloop
endfacet
facet normal 0 1 0
outer loop
vertex 455.391 4468 904.662
vertex 431.812 4468 887.899
vertex 344.877 4468 1017.55
endloop
endfacet
facet normal 0 1 0
outer loop
vertex 344.877 4468 1017.55
vertex 431.812 4468 887.899
vertex 406.633 4468 873.649
endloop
endfacet
facet normal 0 1 0
outer loop
vertex 344.877 4468 1017.55
vertex 406.633 4468 873.649
vertex 327.727 4468 1009.06
endloop
endfacet
facet normal 0 1 0
outer loop
vertex 327.727 4468 1009.06
vertex 406.633 4468 873.649
vertex 380.123 4468 862.064
endloop
endfacet
facet normal 0 1 0
outer loop
vertex 327.727 4468 1009.06
vertex 380.123 4468 862.064
vertex 309.482 4468 1003.29
endloop
endfacet
facet normal 0 1 0
outer loop
vertex 309.482 4468 1003.29
vertex 380.123 4468 862.064
vertex 352.563 4468 853.265
endloop
endfacet
facet normal 0 1 0
outer loop
vertex 309.482 4468 1003.29
vertex 352.563 4468 853.265
vertex 324.243 4468 847.347
endloop
endfacet
facet normal 0 1 0
outer loop
vertex 405.175 4468 1110.66
vertex 557.447 4468 1074.62
vertex 401.532 4468 1091.88
endloop
endfacet
facet normal 0 1 0
outer loop
vertex 401.532 4468 1091.88
vertex 557.447 4468 1074.62
vertex 550.802 4468 1046.46
endloop
endfacet
facet normal 0 1 0
outer loop
vertex 401.532 4468 1091.88
vertex 550.802 4468 1046.46
vertex 395.063 4468 1073.87
endloop
endfacet
facet normal 0 1 0
outer loop
vertex 366.456 4468 1392.69
vertex 393.528 4468 1382.48
vertex 336.465 4468 1237.02
endloop
endfacet
facet normal 0 1 0
outer loop
vertex 336.465 4468 1237.02
vertex 393.528 4468 1382.48
vertex 419.406 4468 1369.55
endloop
endfacet
facet normal 0 1 0
outer loop
vertex 336.465 4468 1237.02
vertex 419.406 4468 1369.55
vertex 352.915 4468 1227.24
endloop
endfacet
facet normal 0 1 0
outer loop
vertex 352.915 4468 1227.24
vertex 419.406 4468 1369.55
vertex 443.817 4468 1354.02
endloop
endfacet
facet normal 0 1 0
outer loop
vertex 352.915 4468 1227.24
vertex 443.817 4468 1354.02
vertex 367.679 4468 1215.07
endloop
endfacet
facet normal 0 1 0
outer loop
vertex 367.679 4468 1215.07
vertex 443.817 4468 1354.02
vertex 466.503 4468 1336.07
endloop
endfacet
facet normal 0 1 0
outer loop
vertex 367.679 4468 1215.07
vertex 466.503 4468 1336.07
vertex 487.222 4468 1315.88
endloop
endfacet
facet normal 0 1 0
outer loop
vertex 550.802 4468 1046.46
vertex 541.297 4468 1019.14
vertex 395.063 4468 1073.87
endloop
endfacet
facet normal 0 1 0
outer loop
vertex 395.063 4468 1073.87
vertex 541.297 4468 1019.14
vertex 529.033 4468 992.937
endloop
endfacet
facet normal 0 1 0
outer loop
vertex 395.063 4468 1073.87
vertex 529.033 4468 992.937
vertex 385.921 4468 1057.05
endloop
endfacet
facet normal 0 1 0
outer loop
vertex 385.921 4468 1057.05
vertex 529.033 4468 992.937
vertex 514.139 4468 968.133
endloop
endfacet
facet normal 0 1 0
outer loop
vertex 385.921 4468 1057.05
vertex 514.139 4468 968.133
vertex 374.319 4468 1041.83
endloop
endfacet
facet normal 0 1 0
outer loop
vertex 374.319 4468 1041.83
vertex 514.139 4468 968.133
vertex 496.774 4468 944.993
endloop
endfacet
facet normal 0 1 0
outer loop
vertex 374.319 4468 1041.83
vertex 496.774 4468 944.993
vertex 477.122 4468 923.761
endloop
endfacet
facet normal 0 1 0
outer loop
vertex 176.079 4468 1057.05
vertex 32.9672 4468 992.937
vertex 166.937 4468 1073.87
endloop
endfacet
facet normal 0 1 0
outer loop
vertex 166.937 4468 1073.87
vertex 32.9672 4468 992.937
vertex 20.703 4468 1019.14
endloop
endfacet
facet normal 0 1 0
outer loop
vertex 166.937 4468 1073.87
vertex 20.703 4468 1019.14
vertex 160.468 4468 1091.88
endloop
endfacet
facet normal 0 1 0
outer loop
vertex 160.468 4468 1091.88
vertex 20.703 4468 1019.14
vertex 11.1979 4468 1046.46
endloop
endfacet
facet normal 0 1 0
outer loop
vertex 160.468 4468 1091.88
vertex 11.1979 4468 1046.46
vertex 4.55275 4468 1074.62
endloop
endfacet
facet normal 0 1 0
outer loop
vertex 130.188 4468 887.899
vertex 106.609 4468 904.662
vertex 201.47 4468 1028.56
endloop
endfacet
facet normal 0 1 0
outer loop
vertex 201.47 4468 1028.56
vertex 106.609 4468 904.662
vertex 84.8777 4468 923.761
endloop
endfacet
facet normal 0 1 0
outer loop
vertex 201.47 4468 1028.56
vertex 84.8777 4468 923.761
vertex 187.681 4468 1041.83
endloop
endfacet
facet normal 0 1 0
outer loop
vertex 187.681 4468 1041.83
vertex 84.8777 4468 923.761
vertex 65.2256 4468 944.993
endloop
endfacet
facet normal 0 1 0
outer loop
vertex 187.681 4468 1041.83
vertex 65.2256 4468 944.993
vertex 176.079 4468 1057.05
endloop
endfacet
facet normal 0 1 0
outer loop
vertex 176.079 4468 1057.05
vertex 65.2256 4468 944.993
vertex 47.8607 4468 968.133
endloop
endfacet
facet normal 0 1 0
outer loop
vertex 176.079 4468 1057.05
vertex 47.8607 4468 968.133
vertex 32.9672 4468 992.937
endloop
endfacet
facet normal 0 1 0
outer loop
vertex 403.714 4468 1148.8
vertex 559.674 4468 1161.08
vertex 405.908 4468 1129.79
endloop
endfacet
facet normal 0 1 0
outer loop
vertex 405.908 4468 1129.79
vertex 559.674 4468 1161.08
vertex 561.907 4468 1132.24
endloop
endfacet
facet normal 0 1 0
outer loop
vertex 405.908 4468 1129.79
vertex 561.907 4468 1132.24
vertex 405.175 4468 1110.66
endloop
endfacet
facet normal 0 1 0
outer loop
vertex 405.175 4468 1110.66
vertex 561.907 4468 1132.24
vertex 561.162 4468 1103.31
endloop
endfacet
facet normal 0 1 0
outer loop
vertex 405.175 4468 1110.66
vertex 561.162 4468 1103.31
vertex 557.447 4468 1074.62
endloop
endfacet
facet normal 0 1 0
outer loop
vertex 505.755 4468 1293.66
vertex 521.905 4468 1269.66
vertex 390.814 4468 1184.72
endloop
endfacet
facet normal 0 1 0
outer loop
vertex 390.814 4468 1184.72
vertex 521.905 4468 1269.66
vertex 535.502 4468 1244.12
endloop
endfacet
facet normal 0 1 0
outer loop
vertex 390.814 4468 1184.72
vertex 535.502 4468 1244.12
vertex 398.642 4468 1167.25
endloop
endfacet
facet normal 0 1 0
outer loop
vertex 398.642 4468 1167.25
vertex 535.502 4468 1244.12
vertex 546.401 4468 1217.32
endloop
endfacet
facet normal 0 1 0
outer loop
vertex 398.642 4468 1167.25
vertex 546.401 4468 1217.32
vertex 403.714 4468 1148.8
endloop
endfacet
facet normal 0 1 0
outer loop
vertex 403.714 4468 1148.8
vertex 546.401 4468 1217.32
vertex 554.487 4468 1189.54
endloop
endfacet
facet normal 0 1 0
outer loop
vertex 403.714 4468 1148.8
vertex 554.487 4468 1189.54
vertex 559.674 4468 1161.08
endloop
endfacet
endsolid
