solid C:\Temp\NOELParts\SPACER_87_LINK_SHORT_LINK1_43.STL created by CtrlView V2.70
facet normal 0.18738 0 0.982287
outer loop
vertex 304.5 4999 4316.22
vertex 304.5 4955 4316.22
vertex 327.629 4999 4311.81
endloop
endfacet
facet normal 0.18738 0 0.982287
outer loop
vertex 327.629 4999 4311.81
vertex 304.5 4955 4316.22
vertex 327.629 4955 4311.81
endloop
endfacet
facet normal 0.309019 0 0.951056
outer loop
vertex 327.629 4999 4311.81
vertex 327.629 4955 4311.81
vertex 350.023 4999 4304.53
endloop
endfacet
facet normal 0.309019 0 0.951056
outer loop
vertex 350.023 4999 4304.53
vertex 327.629 4955 4311.81
vertex 350.023 4955 4304.53
endloop
endfacet
facet normal 0.425792 0 0.904821
outer loop
vertex 350.023 4999 4304.53
vertex 350.023 4955 4304.53
vertex 371.329 4999 4294.51
endloop
endfacet
facet normal 0.425792 0 0.904821
outer loop
vertex 371.329 4999 4294.51
vertex 350.023 4955 4304.53
vertex 371.329 4955 4294.51
endloop
endfacet
facet normal 0.535822 0 0.844331
outer loop
vertex 371.329 4999 4294.51
vertex 371.329 4955 4294.51
vertex 391.21 4999 4281.89
endloop
endfacet
facet normal 0.535822 0 0.844331
outer loop
vertex 391.21 4999 4281.89
vertex 371.329 4955 4294.51
vertex 391.21 4955 4281.89
endloop
endfacet
facet normal 0.637432 0 0.770506
outer loop
vertex 391.21 4999 4281.89
vertex 391.21 4955 4281.89
vertex 409.353 4999 4266.88
endloop
endfacet
facet normal 0.637432 0 0.770506
outer loop
vertex 409.353 4999 4266.88
vertex 391.21 4955 4281.89
vertex 409.353 4955 4266.88
endloop
endfacet
facet normal 0.728955 0 0.684562
outer loop
vertex 409.353 4999 4266.88
vertex 409.353 4955 4266.88
vertex 425.471 4999 4249.72
endloop
endfacet
facet normal 0.728955 0 0.684562
outer loop
vertex 425.471 4999 4249.72
vertex 409.353 4955 4266.88
vertex 425.471 4955 4249.72
endloop
endfacet
facet normal 0.809023 0 0.587777
outer loop
vertex 425.471 4999 4249.72
vertex 425.471 4955 4249.72
vertex 439.311 4999 4230.67
endloop
endfacet
facet normal 0.809023 0 0.587777
outer loop
vertex 439.311 4999 4230.67
vertex 425.471 4955 4249.72
vertex 439.311 4955 4230.67
endloop
endfacet
facet normal 0.876308 0 0.481751
outer loop
vertex 439.311 4999 4230.67
vertex 439.311 4955 4230.67
vertex 450.655 4999 4210.03
endloop
endfacet
facet normal 0.876308 0 0.481751
outer loop
vertex 450.655 4999 4210.03
vertex 439.311 4955 4230.67
vertex 450.655 4955 4210.03
endloop
endfacet
facet normal 0.929775 0 0.368128
outer loop
vertex 450.655 4999 4210.03
vertex 450.655 4955 4210.03
vertex 459.323 4999 4188.14
endloop
endfacet
facet normal 0.929775 0 0.368128
outer loop
vertex 459.323 4999 4188.14
vertex 450.655 4955 4210.03
vertex 459.323 4955 4188.14
endloop
endfacet
facet normal 0.968583 0 0.248691
outer loop
vertex 459.323 4999 4188.14
vertex 459.323 4955 4188.14
vertex 465.179 4999 4165.33
endloop
endfacet
facet normal 0.968583 0 0.248691
outer loop
vertex 465.179 4999 4165.33
vertex 459.323 4955 4188.14
vertex 465.179 4955 4165.33
endloop
endfacet
facet normal 0.992115 0 0.125334
outer loop
vertex 465.179 4999 4165.33
vertex 465.179 4955 4165.33
vertex 468.13 4999 4141.97
endloop
endfacet
facet normal 0.992115 0 0.125334
outer loop
vertex 468.13 4999 4141.97
vertex 465.179 4955 4165.33
vertex 468.13 4955 4141.97
endloop
endfacet
facet normal 1 0 0
outer loop
vertex 468.13 4999 4141.97
vertex 468.13 4955 4141.97
vertex 468.13 4999 4118.43
endloop
endfacet
facet normal 1 0 0
outer loop
vertex 468.13 4999 4118.43
vertex 468.13 4955 4141.97
vertex 468.13 4955 4118.43
endloop
endfacet
facet normal 0.992114 0 -0.125335
outer loop
vertex 468.13 4999 4118.43
vertex 468.13 4955 4118.43
vertex 465.179 4999 4095.07
endloop
endfacet
facet normal 0.992114 0 -0.125335
outer loop
vertex 465.179 4999 4095.07
vertex 468.13 4955 4118.43
vertex 465.179 4955 4095.07
endloop
endfacet
facet normal 0.968583 0 -0.248691
outer loop
vertex 465.179 4999 4095.07
vertex 465.179 4955 4095.07
vertex 459.323 4999 4072.26
endloop
endfacet
facet normal 0.968583 0 -0.248691
outer loop
vertex 459.323 4999 4072.26
vertex 465.179 4955 4095.07
vertex 459.323 4955 4072.26
endloop
endfacet
facet normal 0.929778 0 -0.368121
outer loop
vertex 459.323 4999 4072.26
vertex 459.323 4955 4072.26
vertex 450.655 4999 4050.37
endloop
endfacet
facet normal 0.929778 0 -0.368121
outer loop
vertex 450.655 4999 4050.37
vertex 459.323 4955 4072.26
vertex 450.655 4955 4050.37
endloop
endfacet
facet normal 0.876303 0 -0.48176
outer loop
vertex 450.655 4999 4050.37
vertex 450.655 4955 4050.37
vertex 439.311 4999 4029.73
endloop
endfacet
facet normal 0.876303 0 -0.48176
outer loop
vertex 439.311 4999 4029.73
vertex 450.655 4955 4050.37
vertex 439.311 4955 4029.73
endloop
endfacet
facet normal 0.80902 0 -0.587781
outer loop
vertex 439.311 4999 4029.73
vertex 439.311 4955 4029.73
vertex 425.471 4999 4010.68
endloop
endfacet
facet normal 0.80902 0 -0.587781
outer loop
vertex 425.471 4999 4010.68
vertex 439.311 4955 4029.73
vertex 425.471 4955 4010.68
endloop
endfacet
facet normal 0.728969 0 -0.684546
outer loop
vertex 425.471 4999 4010.68
vertex 425.471 4955 4010.68
vertex 409.353 4999 3993.52
endloop
endfacet
facet normal 0.728969 0 -0.684546
outer loop
vertex 409.353 4999 3993.52
vertex 425.471 4955 4010.68
vertex 409.353 4955 3993.52
endloop
endfacet
facet normal 0.63742 0 -0.770517
outer loop
vertex 409.353 4999 3993.52
vertex 409.353 4955 3993.52
vertex 391.21 4999 3978.51
endloop
endfacet
facet normal 0.63742 0 -0.770517
outer loop
vertex 391.21 4999 3978.51
vertex 409.353 4955 3993.52
vertex 391.21 4955 3978.51
endloop
endfacet
facet normal 0.535829 0 -0.844327
outer loop
vertex 391.21 4999 3978.51
vertex 391.21 4955 3978.51
vertex 371.329 4999 3965.89
endloop
endfacet
facet normal 0.535829 0 -0.844327
outer loop
vertex 371.329 4999 3965.89
vertex 391.21 4955 3978.51
vertex 371.329 4955 3965.89
endloop
endfacet
facet normal 0.425792 0 -0.904821
outer loop
vertex 371.329 4999 3965.89
vertex 371.329 4955 3965.89
vertex 350.023 4999 3955.87
endloop
endfacet
facet normal 0.425792 0 -0.904821
outer loop
vertex 350.023 4999 3955.87
vertex 371.329 4955 3965.89
vertex 350.023 4955 3955.87
endloop
endfacet
facet normal 0.309001 0 -0.951062
outer loop
vertex 350.023 4999 3955.87
vertex 350.023 4955 3955.87
vertex 327.629 4999 3948.59
endloop
endfacet
facet normal 0.309001 0 -0.951062
outer loop
vertex 327.629 4999 3948.59
vertex 350.023 4955 3955.87
vertex 327.629 4955 3948.59
endloop
endfacet
facet normal 0.18739 0 -0.982286
outer loop
vertex 327.629 4999 3948.59
vertex 327.629 4955 3948.59
vertex 304.5 4999 3944.18
endloop
endfacet
facet normal 0.18739 0 -0.982286
outer loop
vertex 304.5 4999 3944.18
vertex 327.629 4955 3948.59
vertex 304.5 4955 3944.18
endloop
endfacet
facet normal 0.0627915 0 -0.998027
outer loop
vertex 304.5 4999 3944.18
vertex 304.5 4955 3944.18
vertex 281 4999 3942.7
endloop
endfacet
facet normal 0.0627915 0 -0.998027
outer loop
vertex 281 4999 3942.7
vertex 304.5 4955 3944.18
vertex 281 4955 3942.7
endloop
endfacet
facet normal -0.0627916 0 -0.998027
outer loop
vertex 281 4999 3942.7
vertex 281 4955 3942.7
vertex 257.5 4999 3944.18
endloop
endfacet
facet normal -0.0627916 0 -0.998027
outer loop
vertex 257.5 4999 3944.18
vertex 281 4955 3942.7
vertex 257.5 4955 3944.18
endloop
endfacet
facet normal -0.187388 0 -0.982286
outer loop
vertex 257.5 4999 3944.18
vertex 257.5 4955 3944.18
vertex 234.371 4999 3948.59
endloop
endfacet
facet normal -0.187388 0 -0.982286
outer loop
vertex 234.371 4999 3948.59
vertex 257.5 4955 3944.18
vertex 234.371 4955 3948.59
endloop
endfacet
facet normal -0.309003 0 -0.951061
outer loop
vertex 234.371 4999 3948.59
vertex 234.371 4955 3948.59
vertex 211.977 4999 3955.87
endloop
endfacet
facet normal -0.309003 0 -0.951061
outer loop
vertex 211.977 4999 3955.87
vertex 234.371 4955 3948.59
vertex 211.977 4955 3955.87
endloop
endfacet
facet normal -0.425788 0 -0.904823
outer loop
vertex 211.977 4999 3955.87
vertex 211.977 4955 3955.87
vertex 190.671 4999 3965.89
endloop
endfacet
facet normal -0.425788 0 -0.904823
outer loop
vertex 190.671 4999 3965.89
vertex 211.977 4955 3955.87
vertex 190.671 4955 3965.89
endloop
endfacet
facet normal -0.535829 0 -0.844327
outer loop
vertex 190.671 4999 3965.89
vertex 190.671 4955 3965.89
vertex 170.79 4999 3978.51
endloop
endfacet
facet normal -0.535829 0 -0.844327
outer loop
vertex 170.79 4999 3978.51
vertex 190.671 4955 3965.89
vertex 170.79 4955 3978.51
endloop
endfacet
facet normal -0.63742 0 -0.770517
outer loop
vertex 170.79 4999 3978.51
vertex 170.79 4955 3978.51
vertex 152.647 4999 3993.52
endloop
endfacet
facet normal -0.63742 0 -0.770517
outer loop
vertex 152.647 4999 3993.52
vertex 170.79 4955 3978.51
vertex 152.647 4955 3993.52
endloop
endfacet
facet normal -0.72897 0 -0.684546
outer loop
vertex 152.647 4999 3993.52
vertex 152.647 4955 3993.52
vertex 136.529 4999 4010.68
endloop
endfacet
facet normal -0.72897 0 -0.684546
outer loop
vertex 136.529 4999 4010.68
vertex 152.647 4955 3993.52
vertex 136.529 4955 4010.68
endloop
endfacet
facet normal -0.809019 0 -0.587782
outer loop
vertex 136.529 4999 4010.68
vertex 136.529 4955 4010.68
vertex 122.689 4999 4029.73
endloop
endfacet
facet normal -0.809019 0 -0.587782
outer loop
vertex 122.689 4999 4029.73
vertex 136.529 4955 4010.68
vertex 122.689 4955 4029.73
endloop
endfacet
facet normal -0.876308 0 -0.481752
outer loop
vertex 122.689 4999 4029.73
vertex 122.689 4955 4029.73
vertex 111.345 4999 4050.37
endloop
endfacet
facet normal -0.876308 0 -0.481752
outer loop
vertex 111.345 4999 4050.37
vertex 122.689 4955 4029.73
vertex 111.345 4955 4050.37
endloop
endfacet
facet normal -0.929775 0 -0.368129
outer loop
vertex 111.345 4999 4050.37
vertex 111.345 4955 4050.37
vertex 102.677 4999 4072.26
endloop
endfacet
facet normal -0.929775 0 -0.368129
outer loop
vertex 102.677 4999 4072.26
vertex 111.345 4955 4050.37
vertex 102.677 4955 4072.26
endloop
endfacet
facet normal -0.968583 0 -0.248692
outer loop
vertex 102.677 4999 4072.26
vertex 102.677 4955 4072.26
vertex 96.8211 4999 4095.07
endloop
endfacet
facet normal -0.968583 0 -0.248692
outer loop
vertex 96.8211 4999 4095.07
vertex 102.677 4955 4072.26
vertex 96.8211 4955 4095.07
endloop
endfacet
facet normal -0.992115 0 -0.125334
outer loop
vertex 96.8211 4999 4095.07
vertex 96.8211 4955 4095.07
vertex 93.8699 4999 4118.43
endloop
endfacet
facet normal -0.992115 0 -0.125334
outer loop
vertex 93.8699 4999 4118.43
vertex 96.8211 4955 4095.07
vertex 93.8699 4955 4118.43
endloop
endfacet
facet normal -1 0 0
outer loop
vertex 93.8699 4999 4118.43
vertex 93.8699 4955 4118.43
vertex 93.8699 4999 4141.97
endloop
endfacet
facet normal -1 0 0
outer loop
vertex 93.8699 4999 4141.97
vertex 93.8699 4955 4118.43
vertex 93.8699 4955 4141.97
endloop
endfacet
facet normal -0.992115 0 0.125332
outer loop
vertex 93.8699 4999 4141.97
vertex 93.8699 4955 4141.97
vertex 96.8211 4999 4165.33
endloop
endfacet
facet normal -0.992115 0 0.125332
outer loop
vertex 96.8211 4999 4165.33
vertex 93.8699 4955 4141.97
vertex 96.8211 4955 4165.33
endloop
endfacet
facet normal -0.968583 0 0.248692
outer loop
vertex 96.8211 4999 4165.33
vertex 96.8211 4955 4165.33
vertex 102.677 4999 4188.14
endloop
endfacet
facet normal -0.968583 0 0.248692
outer loop
vertex 102.677 4999 4188.14
vertex 96.8211 4955 4165.33
vertex 102.677 4955 4188.14
endloop
endfacet
facet normal -0.929772 0 0.368136
outer loop
vertex 102.677 4999 4188.14
vertex 102.677 4955 4188.14
vertex 111.345 4999 4210.03
endloop
endfacet
facet normal -0.929772 0 0.368136
outer loop
vertex 111.345 4999 4210.03
vertex 102.677 4955 4188.14
vertex 111.345 4955 4210.03
endloop
endfacet
facet normal -0.876312 0 0.481743
outer loop
vertex 111.345 4999 4210.03
vertex 111.345 4955 4210.03
vertex 122.689 4999 4230.67
endloop
endfacet
facet normal -0.876312 0 0.481743
outer loop
vertex 122.689 4999 4230.67
vertex 111.345 4955 4210.03
vertex 122.689 4955 4230.67
endloop
endfacet
facet normal -0.809023 0 0.587777
outer loop
vertex 122.689 4999 4230.67
vertex 122.689 4955 4230.67
vertex 136.529 4999 4249.72
endloop
endfacet
facet normal -0.809023 0 0.587777
outer loop
vertex 136.529 4999 4249.72
vertex 122.689 4955 4230.67
vertex 136.529 4955 4249.72
endloop
endfacet
facet normal -0.728955 0 0.684561
outer loop
vertex 136.529 4999 4249.72
vertex 136.529 4955 4249.72
vertex 152.647 4999 4266.88
endloop
endfacet
facet normal -0.728955 0 0.684561
outer loop
vertex 152.647 4999 4266.88
vertex 136.529 4955 4249.72
vertex 152.647 4955 4266.88
endloop
endfacet
facet normal -0.637432 0 0.770506
outer loop
vertex 152.647 4999 4266.88
vertex 152.647 4955 4266.88
vertex 170.79 4999 4281.89
endloop
endfacet
facet normal -0.637432 0 0.770506
outer loop
vertex 170.79 4999 4281.89
vertex 152.647 4955 4266.88
vertex 170.79 4955 4281.89
endloop
endfacet
facet normal -0.535822 0 0.844331
outer loop
vertex 170.79 4999 4281.89
vertex 170.79 4955 4281.89
vertex 190.671 4999 4294.51
endloop
endfacet
facet normal -0.535822 0 0.844331
outer loop
vertex 190.671 4999 4294.51
vertex 170.79 4955 4281.89
vertex 190.671 4955 4294.51
endloop
endfacet
facet normal -0.425788 0 0.904823
outer loop
vertex 190.671 4999 4294.51
vertex 190.671 4955 4294.51
vertex 211.977 4999 4304.53
endloop
endfacet
facet normal -0.425788 0 0.904823
outer loop
vertex 211.977 4999 4304.53
vertex 190.671 4955 4294.51
vertex 211.977 4955 4304.53
endloop
endfacet
facet normal -0.309022 0 0.951055
outer loop
vertex 211.977 4999 4304.53
vertex 211.977 4955 4304.53
vertex 234.371 4999 4311.81
endloop
endfacet
facet normal -0.309022 0 0.951055
outer loop
vertex 234.371 4999 4311.81
vertex 211.977 4955 4304.53
vertex 234.371 4955 4311.81
endloop
endfacet
facet normal -0.187378 0 0.982288
outer loop
vertex 234.371 4999 4311.81
vertex 234.371 4955 4311.81
vertex 257.5 4999 4316.22
endloop
endfacet
facet normal -0.187378 0 0.982288
outer loop
vertex 257.5 4999 4316.22
vertex 234.371 4955 4311.81
vertex 257.5 4955 4316.22
endloop
endfacet
facet normal -0.0627709 0 0.998028
outer loop
vertex 257.5 4999 4316.22
vertex 257.5 4955 4316.22
vertex 281 4999 4317.7
endloop
endfacet
facet normal -0.0627709 0 0.998028
outer loop
vertex 281 4999 4317.7
vertex 257.5 4955 4316.22
vertex 281 4955 4317.7
endloop
endfacet
facet normal 0.0627708 0 0.998028
outer loop
vertex 281 4999 4317.7
vertex 281 4955 4317.7
vertex 304.5 4999 4316.22
endloop
endfacet
facet normal 0.0627708 0 0.998028
outer loop
vertex 304.5 4999 4316.22
vertex 281 4955 4317.7
vertex 304.5 4955 4316.22
endloop
endfacet
facet normal 0 -1 0
outer loop
vertex 281 4999 3942.7
vertex 295.465 4999 3849.57
vertex 304.5 4999 3944.18
endloop
endfacet
facet normal 0 -1 0
outer loop
vertex 304.5 4999 3944.18
vertex 295.465 4999 3849.57
vertex 324.243 4999 3852.55
endloop
endfacet
facet normal 0 -1 0
outer loop
vertex 304.5 4999 3944.18
vertex 324.243 4999 3852.55
vertex 327.629 4999 3948.59
endloop
endfacet
facet normal 0 -1 0
outer loop
vertex 327.629 4999 3948.59
vertex 324.243 4999 3852.55
vertex 352.563 4999 3858.47
endloop
endfacet
facet normal 0 -1 0
outer loop
vertex 327.629 4999 3948.59
vertex 352.563 4999 3858.47
vertex 350.023 4999 3955.87
endloop
endfacet
facet normal 0 -1 0
outer loop
vertex 350.023 4999 3955.87
vertex 352.563 4999 3858.47
vertex 380.123 4999 3867.26
endloop
endfacet
facet normal 0 -1 0
outer loop
vertex 350.023 4999 3955.87
vertex 380.123 4999 3867.26
vertex 371.329 4999 3965.89
endloop
endfacet
facet normal 0 -1 0
outer loop
vertex 170.79 4999 3978.51
vertex 130.188 4999 3893.1
vertex 190.671 4999 3965.89
endloop
endfacet
facet normal 0 -1 0
outer loop
vertex 190.671 4999 3965.89
vertex 130.188 4999 3893.1
vertex 155.367 4999 3878.85
endloop
endfacet
facet normal 0 -1 0
outer loop
vertex 190.671 4999 3965.89
vertex 155.367 4999 3878.85
vertex 211.977 4999 3955.87
endloop
endfacet
facet normal 0 -1 0
outer loop
vertex 211.977 4999 3955.87
vertex 155.367 4999 3878.85
vertex 181.877 4999 3867.26
endloop
endfacet
facet normal 0 -1 0
outer loop
vertex 211.977 4999 3955.87
vertex 181.877 4999 3867.26
vertex 234.371 4999 3948.59
endloop
endfacet
facet normal 0 -1 0
outer loop
vertex 234.371 4999 3948.59
vertex 181.877 4999 3867.26
vertex 209.437 4999 3858.47
endloop
endfacet
facet normal 0 -1 0
outer loop
vertex 234.371 4999 3948.59
vertex 209.437 4999 3858.47
vertex 257.5 4999 3944.18
endloop
endfacet
facet normal 0 -1 0
outer loop
vertex 257.5 4999 3944.18
vertex 209.437 4999 3858.47
vertex 237.757 4999 3852.55
endloop
endfacet
facet normal 0 -1 0
outer loop
vertex 257.5 4999 3944.18
vertex 237.757 4999 3852.55
vertex 281 4999 3942.7
endloop
endfacet
facet normal 0 -1 0
outer loop
vertex 281 4999 3942.7
vertex 237.757 4999 3852.55
vertex 266.535 4999 3849.57
endloop
endfacet
facet normal 0 -1 0
outer loop
vertex 281 4999 3942.7
vertex 266.535 4999 3849.57
vertex 295.465 4999 3849.57
endloop
endfacet
facet normal 0 -1 0
outer loop
vertex 380.123 4999 3867.26
vertex 406.633 4999 3878.85
vertex 371.329 4999 3965.89
endloop
endfacet
facet normal 0 -1 0
outer loop
vertex 371.329 4999 3965.89
vertex 406.633 4999 3878.85
vertex 431.812 4999 3893.1
endloop
endfacet
facet normal 0 -1 0
outer loop
vertex 371.329 4999 3965.89
vertex 431.812 4999 3893.1
vertex 391.21 4999 3978.51
endloop
endfacet
facet normal 0 -1 0
outer loop
vertex 391.21 4999 3978.51
vertex 431.812 4999 3893.1
vertex 455.391 4999 3909.86
endloop
endfacet
facet normal 0 -1 0
outer loop
vertex 391.21 4999 3978.51
vertex 455.391 4999 3909.86
vertex 409.353 4999 3993.52
endloop
endfacet
facet normal 0 -1 0
outer loop
vertex 409.353 4999 3993.52
vertex 455.391 4999 3909.86
vertex 477.122 4999 3928.96
endloop
endfacet
facet normal 0 -1 0
outer loop
vertex 409.353 4999 3993.52
vertex 477.122 4999 3928.96
vertex 425.471 4999 4010.68
endloop
endfacet
facet normal 0 -1 0
outer loop
vertex 425.471 4999 4010.68
vertex 477.122 4999 3928.96
vertex 496.774 4999 3950.19
endloop
endfacet
facet normal 0 -1 0
outer loop
vertex 425.471 4999 4010.68
vertex 496.774 4999 3950.19
vertex 439.311 4999 4029.73
endloop
endfacet
facet normal 0 -1 0
outer loop
vertex 439.311 4999 4029.73
vertex 496.774 4999 3950.19
vertex 514.139 4999 3973.33
endloop
endfacet
facet normal 0 -1 0
outer loop
vertex 439.311 4999 4029.73
vertex 514.139 4999 3973.33
vertex 450.655 4999 4050.37
endloop
endfacet
facet normal 0 -1 0
outer loop
vertex 425.471 4999 4249.72
vertex 487.222 4999 4321.08
vertex 409.353 4999 4266.88
endloop
endfacet
facet normal 0 -1 0
outer loop
vertex 409.353 4999 4266.88
vertex 487.222 4999 4321.08
vertex 466.503 4999 4341.27
endloop
endfacet
facet normal 0 -1 0
outer loop
vertex 409.353 4999 4266.88
vertex 466.503 4999 4341.27
vertex 391.21 4999 4281.89
endloop
endfacet
facet normal 0 -1 0
outer loop
vertex 391.21 4999 4281.89
vertex 466.503 4999 4341.27
vertex 443.817 4999 4359.22
endloop
endfacet
facet normal 0 -1 0
outer loop
vertex 391.21 4999 4281.89
vertex 443.817 4999 4359.22
vertex 371.329 4999 4294.51
endloop
endfacet
facet normal 0 -1 0
outer loop
vertex 371.329 4999 4294.51
vertex 443.817 4999 4359.22
vertex 419.406 4999 4374.75
endloop
endfacet
facet normal 0 -1 0
outer loop
vertex 371.329 4999 4294.51
vertex 419.406 4999 4374.75
vertex 350.023 4999 4304.53
endloop
endfacet
facet normal 0 -1 0
outer loop
vertex 102.677 4999 4072.26
vertex 20.7031 4999 4024.34
vertex 111.345 4999 4050.37
endloop
endfacet
facet normal 0 -1 0
outer loop
vertex 111.345 4999 4050.37
vertex 20.7031 4999 4024.34
vertex 32.9673 4999 3998.14
endloop
endfacet
facet normal 0 -1 0
outer loop
vertex 111.345 4999 4050.37
vertex 32.9673 4999 3998.14
vertex 122.689 4999 4029.73
endloop
endfacet
facet normal 0 -1 0
outer loop
vertex 122.689 4999 4029.73
vertex 32.9673 4999 3998.14
vertex 47.8609 4999 3973.33
endloop
endfacet
facet normal 0 -1 0
outer loop
vertex 122.689 4999 4029.73
vertex 47.8609 4999 3973.33
vertex 136.529 4999 4010.68
endloop
endfacet
facet normal 0 -1 0
outer loop
vertex 136.529 4999 4010.68
vertex 47.8609 4999 3973.33
vertex 65.2256 4999 3950.19
endloop
endfacet
facet normal 0 -1 0
outer loop
vertex 136.529 4999 4010.68
vertex 65.2256 4999 3950.19
vertex 152.647 4999 3993.52
endloop
endfacet
facet normal 0 -1 0
outer loop
vertex 152.647 4999 3993.52
vertex 65.2256 4999 3950.19
vertex 84.8777 4999 3928.96
endloop
endfacet
facet normal 0 -1 0
outer loop
vertex 152.647 4999 3993.52
vertex 84.8777 4999 3928.96
vertex 170.79 4999 3978.51
endloop
endfacet
facet normal 0 -1 0
outer loop
vertex 170.79 4999 3978.51
vertex 84.8777 4999 3928.96
vertex 106.609 4999 3909.86
endloop
endfacet
facet normal 0 -1 0
outer loop
vertex 170.79 4999 3978.51
vertex 106.609 4999 3909.86
vertex 130.188 4999 3893.1
endloop
endfacet
facet normal 0 -1 0
outer loop
vertex 152.647 4999 4266.88
vertex 74.7783 4999 4321.08
vertex 136.529 4999 4249.72
endloop
endfacet
facet normal 0 -1 0
outer loop
vertex 136.529 4999 4249.72
vertex 74.7783 4999 4321.08
vertex 56.2453 4999 4298.86
endloop
endfacet
facet normal 0 -1 0
outer loop
vertex 136.529 4999 4249.72
vertex 56.2453 4999 4298.86
vertex 122.689 4999 4230.67
endloop
endfacet
facet normal 0 -1 0
outer loop
vertex 122.689 4999 4230.67
vertex 56.2453 4999 4298.86
vertex 40.0946 4999 4274.86
endloop
endfacet
facet normal 0 -1 0
outer loop
vertex 122.689 4999 4230.67
vertex 40.0946 4999 4274.86
vertex 111.345 4999 4210.03
endloop
endfacet
facet normal 0 -1 0
outer loop
vertex 111.345 4999 4210.03
vertex 40.0946 4999 4274.86
vertex 26.4976 4999 4249.32
endloop
endfacet
facet normal 0 -1 0
outer loop
vertex 111.345 4999 4210.03
vertex 26.4976 4999 4249.32
vertex 102.677 4999 4188.14
endloop
endfacet
facet normal 0 -1 0
outer loop
vertex 102.677 4999 4188.14
vertex 26.4976 4999 4249.32
vertex 15.5985 4999 4222.52
endloop
endfacet
facet normal 0 -1 0
outer loop
vertex 102.677 4999 4188.14
vertex 15.5985 4999 4222.52
vertex 96.8211 4999 4165.33
endloop
endfacet
facet normal 0 -1 0
outer loop
vertex 419.406 4999 4374.75
vertex 393.527 4999 4387.69
vertex 350.023 4999 4304.53
endloop
endfacet
facet normal 0 -1 0
outer loop
vertex 350.023 4999 4304.53
vertex 393.527 4999 4387.69
vertex 366.456 4999 4397.89
endloop
endfacet
facet normal 0 -1 0
outer loop
vertex 350.023 4999 4304.53
vertex 366.456 4999 4397.89
vertex 327.629 4999 4311.81
endloop
endfacet
facet normal 0 -1 0
outer loop
vertex 327.629 4999 4311.81
vertex 366.456 4999 4397.89
vertex 338.479 4999 4405.26
endloop
endfacet
facet normal 0 -1 0
outer loop
vertex 327.629 4999 4311.81
vertex 338.479 4999 4405.26
vertex 304.5 4999 4316.22
endloop
endfacet
facet normal 0 -1 0
outer loop
vertex 304.5 4999 4316.22
vertex 338.479 4999 4405.26
vertex 309.893 4999 4409.71
endloop
endfacet
facet normal 0 -1 0
outer loop
vertex 304.5 4999 4316.22
vertex 309.893 4999 4409.71
vertex 281 4999 4317.7
endloop
endfacet
facet normal 0 -1 0
outer loop
vertex 281 4999 4317.7
vertex 309.893 4999 4409.71
vertex 281 4999 4411.2
endloop
endfacet
facet normal 0 -1 0
outer loop
vertex 281 4999 4317.7
vertex 281 4999 4411.2
vertex 257.5 4999 4316.22
endloop
endfacet
facet normal 0 -1 0
outer loop
vertex 257.5 4999 4316.22
vertex 281 4999 4411.2
vertex 252.107 4999 4409.71
endloop
endfacet
facet normal 0 -1 0
outer loop
vertex 257.5 4999 4316.22
vertex 252.107 4999 4409.71
vertex 234.371 4999 4311.81
endloop
endfacet
facet normal 0 -1 0
outer loop
vertex 252.107 4999 4409.71
vertex 223.521 4999 4405.26
vertex 234.371 4999 4311.81
endloop
endfacet
facet normal 0 -1 0
outer loop
vertex 234.371 4999 4311.81
vertex 223.521 4999 4405.26
vertex 195.544 4999 4397.89
endloop
endfacet
facet normal 0 -1 0
outer loop
vertex 234.371 4999 4311.81
vertex 195.544 4999 4397.89
vertex 211.977 4999 4304.53
endloop
endfacet
facet normal 0 -1 0
outer loop
vertex 211.977 4999 4304.53
vertex 195.544 4999 4397.89
vertex 168.473 4999 4387.69
endloop
endfacet
facet normal 0 -1 0
outer loop
vertex 211.977 4999 4304.53
vertex 168.473 4999 4387.69
vertex 190.671 4999 4294.51
endloop
endfacet
facet normal 0 -1 0
outer loop
vertex 190.671 4999 4294.51
vertex 168.473 4999 4387.69
vertex 142.594 4999 4374.75
endloop
endfacet
facet normal 0 -1 0
outer loop
vertex 190.671 4999 4294.51
vertex 142.594 4999 4374.75
vertex 170.79 4999 4281.89
endloop
endfacet
facet normal 0 -1 0
outer loop
vertex 170.79 4999 4281.89
vertex 142.594 4999 4374.75
vertex 118.183 4999 4359.22
endloop
endfacet
facet normal 0 -1 0
outer loop
vertex 170.79 4999 4281.89
vertex 118.183 4999 4359.22
vertex 152.647 4999 4266.88
endloop
endfacet
facet normal 0 -1 0
outer loop
vertex 152.647 4999 4266.88
vertex 118.183 4999 4359.22
vertex 95.4974 4999 4341.27
endloop
endfacet
facet normal 0 -1 0
outer loop
vertex 152.647 4999 4266.88
vertex 95.4974 4999 4341.27
vertex 74.7783 4999 4321.08
endloop
endfacet
facet normal 0 -1 0
outer loop
vertex 468.13 4999 4141.97
vertex 559.674 4999 4166.28
vertex 465.179 4999 4165.33
endloop
endfacet
facet normal 0 -1 0
outer loop
vertex 465.179 4999 4165.33
vertex 559.674 4999 4166.28
vertex 554.487 4999 4194.74
endloop
endfacet
facet normal 0 -1 0
outer loop
vertex 465.179 4999 4165.33
vertex 554.487 4999 4194.74
vertex 459.323 4999 4188.14
endloop
endfacet
facet normal 0 -1 0
outer loop
vertex 459.323 4999 4188.14
vertex 554.487 4999 4194.74
vertex 546.401 4999 4222.52
endloop
endfacet
facet normal 0 -1 0
outer loop
vertex 459.323 4999 4188.14
vertex 546.401 4999 4222.52
vertex 450.655 4999 4210.03
endloop
endfacet
facet normal 0 -1 0
outer loop
vertex 450.655 4999 4210.03
vertex 546.401 4999 4222.52
vertex 535.502 4999 4249.32
endloop
endfacet
facet normal 0 -1 0
outer loop
vertex 450.655 4999 4210.03
vertex 535.502 4999 4249.32
vertex 439.311 4999 4230.67
endloop
endfacet
facet normal 0 -1 0
outer loop
vertex 439.311 4999 4230.67
vertex 535.502 4999 4249.32
vertex 521.905 4999 4274.86
endloop
endfacet
facet normal 0 -1 0
outer loop
vertex 439.311 4999 4230.67
vertex 521.905 4999 4274.86
vertex 425.471 4999 4249.72
endloop
endfacet
facet normal 0 -1 0
outer loop
vertex 425.471 4999 4249.72
vertex 521.905 4999 4274.86
vertex 505.755 4999 4298.86
endloop
endfacet
facet normal 0 -1 0
outer loop
vertex 425.471 4999 4249.72
vertex 505.755 4999 4298.86
vertex 487.222 4999 4321.08
endloop
endfacet
facet normal 0 -1 0
outer loop
vertex 15.5985 4999 4222.52
vertex 7.51281 4999 4194.74
vertex 96.8211 4999 4165.33
endloop
endfacet
facet normal 0 -1 0
outer loop
vertex 96.8211 4999 4165.33
vertex 7.51281 4999 4194.74
vertex 2.32601 4999 4166.28
endloop
endfacet
facet normal 0 -1 0
outer loop
vertex 96.8211 4999 4165.33
vertex 2.32601 4999 4166.28
vertex 93.8699 4999 4141.97
endloop
endfacet
facet normal 0 -1 0
outer loop
vertex 93.8699 4999 4141.97
vertex 2.32601 4999 4166.28
vertex 0.0932217 4999 4137.44
endloop
endfacet
facet normal 0 -1 0
outer loop
vertex 93.8699 4999 4141.97
vertex 0.0932217 4999 4137.44
vertex 93.8699 4999 4118.43
endloop
endfacet
facet normal 0 -1 0
outer loop
vertex 93.8699 4999 4118.43
vertex 0.0932217 4999 4137.44
vertex 0.838041 4999 4108.51
endloop
endfacet
facet normal 0 -1 0
outer loop
vertex 93.8699 4999 4118.43
vertex 0.838041 4999 4108.51
vertex 96.8211 4999 4095.07
endloop
endfacet
facet normal 0 -1 0
outer loop
vertex 96.8211 4999 4095.07
vertex 0.838041 4999 4108.51
vertex 4.55284 4999 4079.82
endloop
endfacet
facet normal 0 -1 0
outer loop
vertex 96.8211 4999 4095.07
vertex 4.55284 4999 4079.82
vertex 102.677 4999 4072.26
endloop
endfacet
facet normal 0 -1 0
outer loop
vertex 102.677 4999 4072.26
vertex 4.55284 4999 4079.82
vertex 11.198 4999 4051.66
endloop
endfacet
facet normal 0 -1 0
outer loop
vertex 102.677 4999 4072.26
vertex 11.198 4999 4051.66
vertex 20.7031 4999 4024.34
endloop
endfacet
facet normal 0 -1 0
outer loop
vertex 514.139 4999 3973.33
vertex 529.033 4999 3998.14
vertex 450.655 4999 4050.37
endloop
endfacet
facet normal 0 -1 0
outer loop
vertex 450.655 4999 4050.37
vertex 529.033 4999 3998.14
vertex 541.297 4999 4024.34
endloop
endfacet
facet normal 0 -1 0
outer loop
vertex 450.655 4999 4050.37
vertex 541.297 4999 4024.34
vertex 459.323 4999 4072.26
endloop
endfacet
facet normal 0 -1 0
outer loop
vertex 459.323 4999 4072.26
vertex 541.297 4999 4024.34
vertex 550.802 4999 4051.66
endloop
endfacet
facet normal 0 -1 0
outer loop
vertex 459.323 4999 4072.26
vertex 550.802 4999 4051.66
vertex 465.179 4999 4095.07
endloop
endfacet
facet normal 0 -1 0
outer loop
vertex 465.179 4999 4095.07
vertex 550.802 4999 4051.66
vertex 557.447 4999 4079.82
endloop
endfacet
facet normal 0 -1 0
outer loop
vertex 465.179 4999 4095.07
vertex 557.447 4999 4079.82
vertex 468.13 4999 4118.43
endloop
endfacet
facet normal 0 -1 0
outer loop
vertex 468.13 4999 4118.43
vertex 557.447 4999 4079.82
vertex 561.162 4999 4108.51
endloop
endfacet
facet normal 0 -1 0
outer loop
vertex 468.13 4999 4118.43
vertex 561.162 4999 4108.51
vertex 468.13 4999 4141.97
endloop
endfacet
facet normal 0 -1 0
outer loop
vertex 468.13 4999 4141.97
vertex 561.162 4999 4108.51
vertex 561.907 4999 4137.44
endloop
endfacet
facet normal 0 -1 0
outer loop
vertex 468.13 4999 4141.97
vertex 561.907 4999 4137.44
vertex 559.674 4999 4166.28
endloop
endfacet
facet normal 0 -1 0
outer loop
vertex 336.465 4955 4242.22
vertex 350.023 4955 4304.53
vertex 318.715 4955 4249.37
endloop
endfacet
facet normal 0 -1 0
outer loop
vertex 318.715 4955 4249.37
vertex 350.023 4955 4304.53
vertex 327.629 4955 4311.81
endloop
endfacet
facet normal 0 -1 0
outer loop
vertex 318.715 4955 4249.37
vertex 327.629 4955 4311.81
vertex 300.081 4955 4253.73
endloop
endfacet
facet normal 0 -1 0
outer loop
vertex 300.081 4955 4253.73
vertex 327.629 4955 4311.81
vertex 304.5 4955 4316.22
endloop
endfacet
facet normal 0 -1 0
outer loop
vertex 300.081 4955 4253.73
vertex 304.5 4955 4316.22
vertex 281 4955 4255.2
endloop
endfacet
facet normal 0 -1 0
outer loop
vertex 281 4955 4255.2
vertex 304.5 4955 4316.22
vertex 281 4955 4317.7
endloop
endfacet
facet normal 0 -1 0
outer loop
vertex 281 4955 4255.2
vertex 281 4955 4317.7
vertex 261.919 4955 4253.73
endloop
endfacet
facet normal 0 -1 0
outer loop
vertex 261.919 4955 4253.73
vertex 281 4955 4317.7
vertex 257.5 4955 4316.22
endloop
endfacet
facet normal 0 -1 0
outer loop
vertex 261.919 4955 4253.73
vertex 257.5 4955 4316.22
vertex 243.285 4955 4249.37
endloop
endfacet
facet normal 0 -1 0
outer loop
vertex 271.431 4955 4005.57
vertex 281 4955 3942.7
vertex 290.569 4955 4005.57
endloop
endfacet
facet normal 0 -1 0
outer loop
vertex 290.569 4955 4005.57
vertex 281 4955 3942.7
vertex 304.5 4955 3944.18
endloop
endfacet
facet normal 0 -1 0
outer loop
vertex 290.569 4955 4005.57
vertex 304.5 4955 3944.18
vertex 309.482 4955 4008.49
endloop
endfacet
facet normal 0 -1 0
outer loop
vertex 309.482 4955 4008.49
vertex 304.5 4955 3944.18
vertex 327.629 4955 3948.59
endloop
endfacet
facet normal 0 -1 0
outer loop
vertex 309.482 4955 4008.49
vertex 327.629 4955 3948.59
vertex 327.727 4955 4014.26
endloop
endfacet
facet normal 0 -1 0
outer loop
vertex 327.727 4955 4014.26
vertex 327.629 4955 3948.59
vertex 350.023 4955 3955.87
endloop
endfacet
facet normal 0 -1 0
outer loop
vertex 327.727 4955 4014.26
vertex 350.023 4955 3955.87
vertex 344.877 4955 4022.75
endloop
endfacet
facet normal 0 -1 0
outer loop
vertex 344.877 4955 4022.75
vertex 350.023 4955 3955.87
vertex 371.329 4955 3965.89
endloop
endfacet
facet normal 0 -1 0
outer loop
vertex 344.877 4955 4022.75
vertex 371.329 4955 3965.89
vertex 360.53 4955 4033.76
endloop
endfacet
facet normal 0 -1 0
outer loop
vertex 187.681 4955 4047.03
vertex 152.647 4955 3993.52
vertex 201.47 4955 4033.76
endloop
endfacet
facet normal 0 -1 0
outer loop
vertex 201.47 4955 4033.76
vertex 152.647 4955 3993.52
vertex 170.79 4955 3978.51
endloop
endfacet
facet normal 0 -1 0
outer loop
vertex 201.47 4955 4033.76
vertex 170.79 4955 3978.51
vertex 217.123 4955 4022.75
endloop
endfacet
facet normal 0 -1 0
outer loop
vertex 217.123 4955 4022.75
vertex 170.79 4955 3978.51
vertex 190.671 4955 3965.89
endloop
endfacet
facet normal 0 -1 0
outer loop
vertex 217.123 4955 4022.75
vertex 190.671 4955 3965.89
vertex 234.273 4955 4014.26
endloop
endfacet
facet normal 0 -1 0
outer loop
vertex 234.273 4955 4014.26
vertex 190.671 4955 3965.89
vertex 211.977 4955 3955.87
endloop
endfacet
facet normal 0 -1 0
outer loop
vertex 234.273 4955 4014.26
vertex 211.977 4955 3955.87
vertex 252.518 4955 4008.49
endloop
endfacet
facet normal 0 -1 0
outer loop
vertex 252.518 4955 4008.49
vertex 211.977 4955 3955.87
vertex 234.371 4955 3948.59
endloop
endfacet
facet normal 0 -1 0
outer loop
vertex 252.518 4955 4008.49
vertex 234.371 4955 3948.59
vertex 271.431 4955 4005.57
endloop
endfacet
facet normal 0 -1 0
outer loop
vertex 271.431 4955 4005.57
vertex 234.371 4955 3948.59
vertex 257.5 4955 3944.18
endloop
endfacet
facet normal 0 -1 0
outer loop
vertex 271.431 4955 4005.57
vertex 257.5 4955 3944.18
vertex 281 4955 3942.7
endloop
endfacet
facet normal 0 -1 0
outer loop
vertex 401.532 4955 4097.08
vertex 465.179 4955 4095.07
vertex 405.175 4955 4115.86
endloop
endfacet
facet normal 0 -1 0
outer loop
vertex 405.175 4955 4115.86
vertex 465.179 4955 4095.07
vertex 468.13 4955 4118.43
endloop
endfacet
facet normal 0 -1 0
outer loop
vertex 405.175 4955 4115.86
vertex 468.13 4955 4118.43
vertex 405.908 4955 4134.99
endloop
endfacet
facet normal 0 -1 0
outer loop
vertex 405.908 4955 4134.99
vertex 468.13 4955 4118.43
vertex 468.13 4955 4141.97
endloop
endfacet
facet normal 0 -1 0
outer loop
vertex 405.908 4955 4134.99
vertex 468.13 4955 4141.97
vertex 403.714 4955 4154
endloop
endfacet
facet normal 0 -1 0
outer loop
vertex 403.714 4955 4154
vertex 468.13 4955 4141.97
vertex 465.179 4955 4165.33
endloop
endfacet
facet normal 0 -1 0
outer loop
vertex 403.714 4955 4154
vertex 465.179 4955 4165.33
vertex 398.643 4955 4172.45
endloop
endfacet
facet normal 0 -1 0
outer loop
vertex 398.643 4955 4172.45
vertex 465.179 4955 4165.33
vertex 459.323 4955 4188.14
endloop
endfacet
facet normal 0 -1 0
outer loop
vertex 398.643 4955 4172.45
vertex 459.323 4955 4188.14
vertex 390.814 4955 4189.92
endloop
endfacet
facet normal 0 -1 0
outer loop
vertex 371.329 4955 3965.89
vertex 391.21 4955 3978.51
vertex 360.53 4955 4033.76
endloop
endfacet
facet normal 0 -1 0
outer loop
vertex 360.53 4955 4033.76
vertex 391.21 4955 3978.51
vertex 409.353 4955 3993.52
endloop
endfacet
facet normal 0 -1 0
outer loop
vertex 360.53 4955 4033.76
vertex 409.353 4955 3993.52
vertex 374.319 4955 4047.03
endloop
endfacet
facet normal 0 -1 0
outer loop
vertex 374.319 4955 4047.03
vertex 409.353 4955 3993.52
vertex 425.471 4955 4010.68
endloop
endfacet
facet normal 0 -1 0
outer loop
vertex 374.319 4955 4047.03
vertex 425.471 4955 4010.68
vertex 385.921 4955 4062.25
endloop
endfacet
facet normal 0 -1 0
outer loop
vertex 385.921 4955 4062.25
vertex 425.471 4955 4010.68
vertex 439.311 4955 4029.73
endloop
endfacet
facet normal 0 -1 0
outer loop
vertex 385.921 4955 4062.25
vertex 439.311 4955 4029.73
vertex 395.063 4955 4079.07
endloop
endfacet
facet normal 0 -1 0
outer loop
vertex 395.063 4955 4079.07
vertex 439.311 4955 4029.73
vertex 450.655 4955 4050.37
endloop
endfacet
facet normal 0 -1 0
outer loop
vertex 395.063 4955 4079.07
vertex 450.655 4955 4050.37
vertex 401.532 4955 4097.08
endloop
endfacet
facet normal 0 -1 0
outer loop
vertex 401.532 4955 4097.08
vertex 450.655 4955 4050.37
vertex 459.323 4955 4072.26
endloop
endfacet
facet normal 0 -1 0
outer loop
vertex 401.532 4955 4097.08
vertex 459.323 4955 4072.26
vertex 465.179 4955 4095.07
endloop
endfacet
facet normal 0 -1 0
outer loop
vertex 181.588 4955 4205.98
vertex 122.689 4955 4230.67
vertex 171.186 4955 4189.92
endloop
endfacet
facet normal 0 -1 0
outer loop
vertex 171.186 4955 4189.92
vertex 122.689 4955 4230.67
vertex 111.345 4955 4210.03
endloop
endfacet
facet normal 0 -1 0
outer loop
vertex 171.186 4955 4189.92
vertex 111.345 4955 4210.03
vertex 163.357 4955 4172.45
endloop
endfacet
facet normal 0 -1 0
outer loop
vertex 163.357 4955 4172.45
vertex 111.345 4955 4210.03
vertex 102.677 4955 4188.14
endloop
endfacet
facet normal 0 -1 0
outer loop
vertex 163.357 4955 4172.45
vertex 102.677 4955 4188.14
vertex 158.287 4955 4154
endloop
endfacet
facet normal 0 -1 0
outer loop
vertex 158.287 4955 4154
vertex 102.677 4955 4188.14
vertex 96.8211 4955 4165.33
endloop
endfacet
facet normal 0 -1 0
outer loop
vertex 158.287 4955 4154
vertex 96.8211 4955 4165.33
vertex 156.092 4955 4134.99
endloop
endfacet
facet normal 0 -1 0
outer loop
vertex 156.092 4955 4134.99
vertex 96.8211 4955 4165.33
vertex 93.8699 4955 4141.97
endloop
endfacet
facet normal 0 -1 0
outer loop
vertex 156.092 4955 4134.99
vertex 93.8699 4955 4141.97
vertex 156.825 4955 4115.86
endloop
endfacet
facet normal 0 -1 0
outer loop
vertex 257.5 4955 4316.22
vertex 234.371 4955 4311.81
vertex 243.285 4955 4249.37
endloop
endfacet
facet normal 0 -1 0
outer loop
vertex 243.285 4955 4249.37
vertex 234.371 4955 4311.81
vertex 211.977 4955 4304.53
endloop
endfacet
facet normal 0 -1 0
outer loop
vertex 243.285 4955 4249.37
vertex 211.977 4955 4304.53
vertex 225.535 4955 4242.22
endloop
endfacet
facet normal 0 -1 0
outer loop
vertex 225.535 4955 4242.22
vertex 211.977 4955 4304.53
vertex 190.671 4955 4294.51
endloop
endfacet
facet normal 0 -1 0
outer loop
vertex 225.535 4955 4242.22
vertex 190.671 4955 4294.51
vertex 209.085 4955 4232.44
endloop
endfacet
facet normal 0 -1 0
outer loop
vertex 209.085 4955 4232.44
vertex 190.671 4955 4294.51
vertex 170.79 4955 4281.89
endloop
endfacet
facet normal 0 -1 0
outer loop
vertex 209.085 4955 4232.44
vertex 170.79 4955 4281.89
vertex 194.321 4955 4220.27
endloop
endfacet
facet normal 0 -1 0
outer loop
vertex 194.321 4955 4220.27
vertex 170.79 4955 4281.89
vertex 152.647 4955 4266.88
endloop
endfacet
facet normal 0 -1 0
outer loop
vertex 194.321 4955 4220.27
vertex 152.647 4955 4266.88
vertex 181.588 4955 4205.98
endloop
endfacet
facet normal 0 -1 0
outer loop
vertex 181.588 4955 4205.98
vertex 152.647 4955 4266.88
vertex 136.529 4955 4249.72
endloop
endfacet
facet normal 0 -1 0
outer loop
vertex 181.588 4955 4205.98
vertex 136.529 4955 4249.72
vertex 122.689 4955 4230.67
endloop
endfacet
facet normal 0 -1 0
outer loop
vertex 459.323 4955 4188.14
vertex 450.655 4955 4210.03
vertex 390.814 4955 4189.92
endloop
endfacet
facet normal 0 -1 0
outer loop
vertex 390.814 4955 4189.92
vertex 450.655 4955 4210.03
vertex 439.311 4955 4230.67
endloop
endfacet
facet normal 0 -1 0
outer loop
vertex 390.814 4955 4189.92
vertex 439.311 4955 4230.67
vertex 380.412 4955 4205.98
endloop
endfacet
facet normal 0 -1 0
outer loop
vertex 380.412 4955 4205.98
vertex 439.311 4955 4230.67
vertex 425.471 4955 4249.72
endloop
endfacet
facet normal 0 -1 0
outer loop
vertex 380.412 4955 4205.98
vertex 425.471 4955 4249.72
vertex 367.679 4955 4220.27
endloop
endfacet
facet normal 0 -1 0
outer loop
vertex 367.679 4955 4220.27
vertex 425.471 4955 4249.72
vertex 409.353 4955 4266.88
endloop
endfacet
facet normal 0 -1 0
outer loop
vertex 367.679 4955 4220.27
vertex 409.353 4955 4266.88
vertex 352.915 4955 4232.44
endloop
endfacet
facet normal 0 -1 0
outer loop
vertex 352.915 4955 4232.44
vertex 409.353 4955 4266.88
vertex 391.21 4955 4281.89
endloop
endfacet
facet normal 0 -1 0
outer loop
vertex 352.915 4955 4232.44
vertex 391.21 4955 4281.89
vertex 336.465 4955 4242.22
endloop
endfacet
facet normal 0 -1 0
outer loop
vertex 336.465 4955 4242.22
vertex 391.21 4955 4281.89
vertex 371.329 4955 4294.51
endloop
endfacet
facet normal 0 -1 0
outer loop
vertex 336.465 4955 4242.22
vertex 371.329 4955 4294.51
vertex 350.023 4955 4304.53
endloop
endfacet
facet normal 0 -1 0
outer loop
vertex 93.8699 4955 4141.97
vertex 93.8699 4955 4118.43
vertex 156.825 4955 4115.86
endloop
endfacet
facet normal 0 -1 0
outer loop
vertex 156.825 4955 4115.86
vertex 93.8699 4955 4118.43
vertex 96.8211 4955 4095.07
endloop
endfacet
facet normal 0 -1 0
outer loop
vertex 156.825 4955 4115.86
vertex 96.8211 4955 4095.07
vertex 160.468 4955 4097.08
endloop
endfacet
facet normal 0 -1 0
outer loop
vertex 160.468 4955 4097.08
vertex 96.8211 4955 4095.07
vertex 102.677 4955 4072.26
endloop
endfacet
facet normal 0 -1 0
outer loop
vertex 160.468 4955 4097.08
vertex 102.677 4955 4072.26
vertex 166.937 4955 4079.07
endloop
endfacet
facet normal 0 -1 0
outer loop
vertex 166.937 4955 4079.07
vertex 102.677 4955 4072.26
vertex 111.345 4955 4050.37
endloop
endfacet
facet normal 0 -1 0
outer loop
vertex 166.937 4955 4079.07
vertex 111.345 4955 4050.37
vertex 176.079 4955 4062.25
endloop
endfacet
facet normal 0 -1 0
outer loop
vertex 176.079 4955 4062.25
vertex 111.345 4955 4050.37
vertex 122.689 4955 4029.73
endloop
endfacet
facet normal 0 -1 0
outer loop
vertex 176.079 4955 4062.25
vertex 122.689 4955 4029.73
vertex 187.681 4955 4047.03
endloop
endfacet
facet normal 0 -1 0
outer loop
vertex 187.681 4955 4047.03
vertex 122.689 4955 4029.73
vertex 136.529 4955 4010.68
endloop
endfacet
facet normal 0 -1 0
outer loop
vertex 187.681 4955 4047.03
vertex 136.529 4955 4010.68
vertex 152.647 4955 3993.52
endloop
endfacet
facet normal 0.153887 0 0.988088
outer loop
vertex 309.893 5030 4409.71
vertex 309.893 4999 4409.71
vertex 338.479 5030 4405.26
endloop
endfacet
facet normal 0.153887 0 0.988088
outer loop
vertex 338.479 5030 4405.26
vertex 309.893 4999 4409.71
vertex 338.479 4999 4405.26
endloop
endfacet
facet normal 0.254681 0 0.967025
outer loop
vertex 338.479 5030 4405.26
vertex 338.479 4999 4405.26
vertex 366.456 5030 4397.89
endloop
endfacet
facet normal 0.254681 0 0.967025
outer loop
vertex 366.456 5030 4397.89
vertex 338.479 4999 4405.26
vertex 366.456 4999 4397.89
endloop
endfacet
facet normal 0.352755 0 0.935716
outer loop
vertex 366.456 5030 4397.89
vertex 366.456 4999 4397.89
vertex 393.527 5030 4387.69
endloop
endfacet
facet normal 0.352755 0 0.935716
outer loop
vertex 393.527 5030 4387.69
vertex 366.456 4999 4397.89
vertex 393.527 4999 4387.69
endloop
endfacet
facet normal 0.447098 0 0.894485
outer loop
vertex 393.527 5030 4387.69
vertex 393.527 4999 4387.69
vertex 419.406 5030 4374.75
endloop
endfacet
facet normal 0.447098 0 0.894485
outer loop
vertex 419.406 5030 4374.75
vertex 393.527 4999 4387.69
vertex 419.406 4999 4374.75
endloop
endfacet
facet normal 0.536698 0 0.843774
outer loop
vertex 419.406 5030 4374.75
vertex 419.406 4999 4374.75
vertex 443.817 5030 4359.22
endloop
endfacet
facet normal 0.536698 0 0.843774
outer loop
vertex 443.817 5030 4359.22
vertex 419.406 4999 4374.75
vertex 443.817 4999 4359.22
endloop
endfacet
facet normal 0.620601 0 0.784126
outer loop
vertex 443.817 5030 4359.22
vertex 443.817 4999 4359.22
vertex 466.503 5030 4341.27
endloop
endfacet
facet normal 0.620601 0 0.784126
outer loop
vertex 466.503 5030 4341.27
vertex 443.817 4999 4359.22
vertex 466.503 4999 4341.27
endloop
endfacet
facet normal 0.69795 0 0.716146
outer loop
vertex 466.503 5030 4341.27
vertex 466.503 4999 4341.27
vertex 487.222 5030 4321.08
endloop
endfacet
facet normal 0.69795 0 0.716146
outer loop
vertex 487.222 5030 4321.08
vertex 466.503 4999 4341.27
vertex 487.222 4999 4321.08
endloop
endfacet
facet normal 0.76788 0 0.640593
outer loop
vertex 487.222 5030 4321.08
vertex 487.222 4999 4321.08
vertex 505.755 5030 4298.86
endloop
endfacet
facet normal 0.76788 0 0.640593
outer loop
vertex 505.755 5030 4298.86
vertex 487.222 4999 4321.08
vertex 505.755 4999 4298.86
endloop
endfacet
facet normal 0.829679 0 0.558241
outer loop
vertex 505.755 5030 4298.86
vertex 505.755 4999 4298.86
vertex 521.905 5030 4274.86
endloop
endfacet
facet normal 0.829679 0 0.558241
outer loop
vertex 521.905 5030 4274.86
vertex 505.755 4999 4298.86
vertex 521.905 4999 4274.86
endloop
endfacet
facet normal 0.882675 0 0.469983
outer loop
vertex 521.905 5030 4274.86
vertex 521.905 4999 4274.86
vertex 535.502 5030 4249.32
endloop
endfacet
facet normal 0.882675 0 0.469983
outer loop
vertex 535.502 5030 4249.32
vertex 521.905 4999 4274.86
vertex 535.502 4999 4249.32
endloop
endfacet
facet normal 0.926324 0 0.376728
outer loop
vertex 535.502 5030 4249.32
vertex 535.502 4999 4249.32
vertex 546.401 5030 4222.52
endloop
endfacet
facet normal 0.926324 0 0.376728
outer loop
vertex 546.401 5030 4222.52
vertex 535.502 4999 4249.32
vertex 546.401 4999 4222.52
endloop
endfacet
facet normal 0.960151 0 0.279482
outer loop
vertex 546.401 5030 4222.52
vertex 546.401 4999 4222.52
vertex 554.487 5030 4194.74
endloop
endfacet
facet normal 0.960151 0 0.279482
outer loop
vertex 554.487 5030 4194.74
vertex 546.401 4999 4222.52
vertex 554.487 4999 4194.74
endloop
endfacet
facet normal 0.983798 0 0.17928
outer loop
vertex 554.487 5030 4194.74
vertex 554.487 4999 4194.74
vertex 559.674 5030 4166.28
endloop
endfacet
facet normal 0.983798 0 0.17928
outer loop
vertex 559.674 5030 4166.28
vertex 554.487 4999 4194.74
vertex 559.674 4999 4166.28
endloop
endfacet
facet normal 0.997017 0 0.0771763
outer loop
vertex 559.674 5030 4166.28
vertex 559.674 4999 4166.28
vertex 561.907 5030 4137.44
endloop
endfacet
facet normal 0.997017 0 0.0771763
outer loop
vertex 561.907 5030 4137.44
vertex 559.674 4999 4166.28
vertex 561.907 4999 4137.44
endloop
endfacet
facet normal 0.999669 0 -0.0257444
outer loop
vertex 561.907 5030 4137.44
vertex 561.907 4999 4137.44
vertex 561.162 5030 4108.51
endloop
endfacet
facet normal 0.999669 0 -0.0257444
outer loop
vertex 561.162 5030 4108.51
vertex 561.907 4999 4137.44
vertex 561.162 4999 4108.51
endloop
endfacet
facet normal 0.991722 0 -0.128401
outer loop
vertex 561.162 5030 4108.51
vertex 561.162 4999 4108.51
vertex 557.447 5030 4079.82
endloop
endfacet
facet normal 0.991722 0 -0.128401
outer loop
vertex 557.447 5030 4079.82
vertex 561.162 4999 4108.51
vertex 557.447 4999 4079.82
endloop
endfacet
facet normal 0.973266 0 -0.229682
outer loop
vertex 557.447 5030 4079.82
vertex 557.447 4999 4079.82
vertex 550.802 5030 4051.66
endloop
endfacet
facet normal 0.973266 0 -0.229682
outer loop
vertex 550.802 5030 4051.66
vertex 557.447 4999 4079.82
vertex 550.802 4999 4051.66
endloop
endfacet
facet normal 0.944488 0 -0.328546
outer loop
vertex 550.802 5030 4051.66
vertex 550.802 4999 4051.66
vertex 541.297 5030 4024.34
endloop
endfacet
facet normal 0.944488 0 -0.328546
outer loop
vertex 541.297 5030 4024.34
vertex 550.802 4999 4051.66
vertex 541.297 4999 4024.34
endloop
endfacet
facet normal 0.905701 0 -0.423917
outer loop
vertex 541.297 5030 4024.34
vertex 541.297 4999 4024.34
vertex 529.033 5030 3998.14
endloop
endfacet
facet normal 0.905701 0 -0.423917
outer loop
vertex 529.033 5030 3998.14
vertex 541.297 4999 4024.34
vertex 529.033 4999 3998.14
endloop
endfacet
facet normal 0.857313 0 -0.514795
outer loop
vertex 529.033 5030 3998.14
vertex 529.033 4999 3998.14
vertex 514.139 5030 3973.33
endloop
endfacet
facet normal 0.857313 0 -0.514795
outer loop
vertex 514.139 5030 3973.33
vertex 529.033 4999 3998.14
vertex 514.139 4999 3973.33
endloop
endfacet
facet normal 0.79984 0 -0.600213
outer loop
vertex 514.139 5030 3973.33
vertex 514.139 4999 3973.33
vertex 496.774 5030 3950.19
endloop
endfacet
facet normal 0.79984 0 -0.600213
outer loop
vertex 496.774 5030 3950.19
vertex 514.139 4999 3973.33
vertex 496.774 4999 3950.19
endloop
endfacet
facet normal 0.733886 0 -0.679272
outer loop
vertex 496.774 5030 3950.19
vertex 496.774 4999 3950.19
vertex 477.122 5030 3928.96
endloop
endfacet
facet normal 0.733886 0 -0.679272
outer loop
vertex 477.122 5030 3928.96
vertex 496.774 4999 3950.19
vertex 477.122 4999 3928.96
endloop
endfacet
facet normal 0.660154 0 -0.75113
outer loop
vertex 477.122 5030 3928.96
vertex 477.122 4999 3928.96
vertex 455.391 5030 3909.86
endloop
endfacet
facet normal 0.660154 0 -0.75113
outer loop
vertex 455.391 5030 3909.86
vertex 477.122 4999 3928.96
vertex 455.391 4999 3909.86
endloop
endfacet
facet normal 0.579416 0 -0.815032
outer loop
vertex 455.391 5030 3909.86
vertex 455.391 4999 3909.86
vertex 431.812 5030 3893.1
endloop
endfacet
facet normal 0.579416 0 -0.815032
outer loop
vertex 431.812 5030 3893.1
vertex 455.391 4999 3909.86
vertex 431.812 4999 3893.1
endloop
endfacet
facet normal 0.49255 0 -0.870284
outer loop
vertex 431.812 5030 3893.1
vertex 431.812 4999 3893.1
vertex 406.633 5030 3878.85
endloop
endfacet
facet normal 0.49255 0 -0.870284
outer loop
vertex 406.633 5030 3878.85
vertex 431.812 4999 3893.1
vertex 406.633 4999 3878.85
endloop
endfacet
facet normal 0.400451 0 -0.916318
outer loop
vertex 406.633 5030 3878.85
vertex 406.633 4999 3878.85
vertex 380.123 5030 3867.26
endloop
endfacet
facet normal 0.400451 0 -0.916318
outer loop
vertex 380.123 5030 3867.26
vertex 406.633 4999 3878.85
vertex 380.123 4999 3867.26
endloop
endfacet
facet normal 0.304122 0 -0.952633
outer loop
vertex 380.123 5030 3867.26
vertex 380.123 4999 3867.26
vertex 352.563 5030 3858.47
endloop
endfacet
facet normal 0.304122 0 -0.952633
outer loop
vertex 352.563 5030 3858.47
vertex 380.123 4999 3867.26
vertex 352.563 4999 3858.47
endloop
endfacet
facet normal 0.204546 0 -0.978857
outer loop
vertex 352.563 5030 3858.47
vertex 352.563 4999 3858.47
vertex 324.243 5030 3852.55
endloop
endfacet
facet normal 0.204546 0 -0.978857
outer loop
vertex 324.243 5030 3852.55
vertex 352.563 4999 3858.47
vertex 324.243 4999 3852.55
endloop
endfacet
facet normal 0.102817 0 -0.9947
outer loop
vertex 324.243 5030 3852.55
vertex 324.243 4999 3852.55
vertex 295.465 5030 3849.57
endloop
endfacet
facet normal 0.102817 0 -0.9947
outer loop
vertex 295.465 5030 3849.57
vertex 324.243 4999 3852.55
vertex 295.465 4999 3849.57
endloop
endfacet
facet normal 0 0 -1
outer loop
vertex 295.465 5030 3849.57
vertex 295.465 4999 3849.57
vertex 266.535 5030 3849.57
endloop
endfacet
facet normal 0 0 -1
outer loop
vertex 266.535 5030 3849.57
vertex 295.465 4999 3849.57
vertex 266.535 4999 3849.57
endloop
endfacet
facet normal -0.102817 0 -0.9947
outer loop
vertex 266.535 5030 3849.57
vertex 266.535 4999 3849.57
vertex 237.757 5030 3852.55
endloop
endfacet
facet normal -0.102817 0 -0.9947
outer loop
vertex 237.757 5030 3852.55
vertex 266.535 4999 3849.57
vertex 237.757 4999 3852.55
endloop
endfacet
facet normal -0.204546 0 -0.978857
outer loop
vertex 237.757 5030 3852.55
vertex 237.757 4999 3852.55
vertex 209.437 5030 3858.47
endloop
endfacet
facet normal -0.204546 0 -0.978857
outer loop
vertex 209.437 5030 3858.47
vertex 237.757 4999 3852.55
vertex 209.437 4999 3858.47
endloop
endfacet
facet normal -0.304122 0 -0.952633
outer loop
vertex 209.437 5030 3858.47
vertex 209.437 4999 3858.47
vertex 181.877 5030 3867.26
endloop
endfacet
facet normal -0.304122 0 -0.952633
outer loop
vertex 181.877 5030 3867.26
vertex 209.437 4999 3858.47
vertex 181.877 4999 3867.26
endloop
endfacet
facet normal -0.400451 0 -0.916318
outer loop
vertex 181.877 5030 3867.26
vertex 181.877 4999 3867.26
vertex 155.367 5030 3878.85
endloop
endfacet
facet normal -0.400451 0 -0.916318
outer loop
vertex 155.367 5030 3878.85
vertex 181.877 4999 3867.26
vertex 155.367 4999 3878.85
endloop
endfacet
facet normal -0.492551 0 -0.870284
outer loop
vertex 155.367 5030 3878.85
vertex 155.367 4999 3878.85
vertex 130.188 5030 3893.1
endloop
endfacet
facet normal -0.492551 0 -0.870284
outer loop
vertex 130.188 5030 3893.1
vertex 155.367 4999 3878.85
vertex 130.188 4999 3893.1
endloop
endfacet
facet normal -0.57942 0 -0.815029
outer loop
vertex 130.188 5030 3893.1
vertex 130.188 4999 3893.1
vertex 106.609 5030 3909.86
endloop
endfacet
facet normal -0.57942 0 -0.815029
outer loop
vertex 106.609 5030 3909.86
vertex 130.188 4999 3893.1
vertex 106.609 4999 3909.86
endloop
endfacet
facet normal -0.66015 0 -0.751134
outer loop
vertex 106.609 5030 3909.86
vertex 106.609 4999 3909.86
vertex 84.8777 5030 3928.96
endloop
endfacet
facet normal -0.66015 0 -0.751134
outer loop
vertex 84.8777 5030 3928.96
vertex 106.609 4999 3909.86
vertex 84.8777 4999 3928.96
endloop
endfacet
facet normal -0.733886 0 -0.679272
outer loop
vertex 84.8777 5030 3928.96
vertex 84.8777 4999 3928.96
vertex 65.2256 5030 3950.19
endloop
endfacet
facet normal -0.733886 0 -0.679272
outer loop
vertex 65.2256 5030 3950.19
vertex 84.8777 4999 3928.96
vertex 65.2256 4999 3950.19
endloop
endfacet
facet normal -0.79984 0 -0.600213
outer loop
vertex 65.2256 5030 3950.19
vertex 65.2256 4999 3950.19
vertex 47.8609 5030 3973.33
endloop
endfacet
facet normal -0.79984 0 -0.600213
outer loop
vertex 47.8609 5030 3973.33
vertex 65.2256 4999 3950.19
vertex 47.8609 4999 3973.33
endloop
endfacet
facet normal -0.857314 0 -0.514794
outer loop
vertex 47.8609 5030 3973.33
vertex 47.8609 4999 3973.33
vertex 32.9673 5030 3998.14
endloop
endfacet
facet normal -0.857314 0 -0.514794
outer loop
vertex 32.9673 5030 3998.14
vertex 47.8609 4999 3973.33
vertex 32.9673 4999 3998.14
endloop
endfacet
facet normal -0.905704 0 -0.423911
outer loop
vertex 32.9673 5030 3998.14
vertex 32.9673 4999 3998.14
vertex 20.7031 5030 4024.34
endloop
endfacet
facet normal -0.905704 0 -0.423911
outer loop
vertex 20.7031 5030 4024.34
vertex 32.9673 4999 3998.14
vertex 20.7031 4999 4024.34
endloop
endfacet
facet normal -0.944488 0 -0.328545
outer loop
vertex 20.7031 5030 4024.34
vertex 20.7031 4999 4024.34
vertex 11.198 5030 4051.66
endloop
endfacet
facet normal -0.944488 0 -0.328545
outer loop
vertex 11.198 5030 4051.66
vertex 20.7031 4999 4024.34
vertex 11.198 4999 4051.66
endloop
endfacet
facet normal -0.973264 0 -0.22969
outer loop
vertex 11.198 5030 4051.66
vertex 11.198 4999 4051.66
vertex 4.55284 5030 4079.82
endloop
endfacet
facet normal -0.973264 0 -0.22969
outer loop
vertex 4.55284 5030 4079.82
vertex 11.198 4999 4051.66
vertex 4.55284 4999 4079.82
endloop
endfacet
facet normal -0.991722 0 -0.128401
outer loop
vertex 4.55284 5030 4079.82
vertex 4.55284 4999 4079.82
vertex 0.838041 5030 4108.51
endloop
endfacet
facet normal -0.991722 0 -0.128401
outer loop
vertex 0.838041 5030 4108.51
vertex 4.55284 4999 4079.82
vertex 0.838041 4999 4108.51
endloop
endfacet
facet normal -0.999669 0 -0.0257447
outer loop
vertex 0.838041 5030 4108.51
vertex 0.838041 4999 4108.51
vertex 0.0932217 5030 4137.44
endloop
endfacet
facet normal -0.999669 0 -0.0257447
outer loop
vertex 0.0932217 5030 4137.44
vertex 0.838041 4999 4108.51
vertex 0.0932217 4999 4137.44
endloop
endfacet
facet normal -0.997017 0 0.0771763
outer loop
vertex 0.0932217 5030 4137.44
vertex 0.0932217 4999 4137.44
vertex 2.32601 5030 4166.28
endloop
endfacet
facet normal -0.997017 0 0.0771763
outer loop
vertex 2.32601 5030 4166.28
vertex 0.0932217 4999 4137.44
vertex 2.32601 4999 4166.28
endloop
endfacet
facet normal -0.983798 0 0.179281
outer loop
vertex 2.32601 5030 4166.28
vertex 2.32601 4999 4166.28
vertex 7.51281 5030 4194.74
endloop
endfacet
facet normal -0.983798 0 0.179281
outer loop
vertex 7.51281 5030 4194.74
vertex 2.32601 4999 4166.28
vertex 7.51281 4999 4194.74
endloop
endfacet
facet normal -0.960151 0 0.279481
outer loop
vertex 7.51281 5030 4194.74
vertex 7.51281 4999 4194.74
vertex 15.5985 5030 4222.52
endloop
endfacet
facet normal -0.960151 0 0.279481
outer loop
vertex 15.5985 5030 4222.52
vertex 7.51281 4999 4194.74
vertex 15.5985 4999 4222.52
endloop
endfacet
facet normal -0.926324 0 0.376728
outer loop
vertex 15.5985 5030 4222.52
vertex 15.5985 4999 4222.52
vertex 26.4976 5030 4249.32
endloop
endfacet
facet normal -0.926324 0 0.376728
outer loop
vertex 26.4976 5030 4249.32
vertex 15.5985 4999 4222.52
vertex 26.4976 4999 4249.32
endloop
endfacet
facet normal -0.882676 0 0.469982
outer loop
vertex 26.4976 5030 4249.32
vertex 26.4976 4999 4249.32
vertex 40.0946 5030 4274.86
endloop
endfacet
facet normal -0.882676 0 0.469982
outer loop
vertex 40.0946 5030 4274.86
vertex 26.4976 4999 4249.32
vertex 40.0946 4999 4274.86
endloop
endfacet
facet normal -0.829675 0 0.558247
outer loop
vertex 40.0946 5030 4274.86
vertex 40.0946 4999 4274.86
vertex 56.2453 5030 4298.86
endloop
endfacet
facet normal -0.829675 0 0.558247
outer loop
vertex 56.2453 5030 4298.86
vertex 40.0946 4999 4274.86
vertex 56.2453 4999 4298.86
endloop
endfacet
facet normal -0.767884 0 0.640588
outer loop
vertex 56.2453 5030 4298.86
vertex 56.2453 4999 4298.86
vertex 74.7783 5030 4321.08
endloop
endfacet
facet normal -0.767884 0 0.640588
outer loop
vertex 74.7783 5030 4321.08
vertex 56.2453 4999 4298.86
vertex 74.7783 4999 4321.08
endloop
endfacet
facet normal -0.697946 0 0.71615
outer loop
vertex 74.7783 5030 4321.08
vertex 74.7783 4999 4321.08
vertex 95.4974 5030 4341.27
endloop
endfacet
facet normal -0.697946 0 0.71615
outer loop
vertex 95.4974 5030 4341.27
vertex 74.7783 4999 4321.08
vertex 95.4974 4999 4341.27
endloop
endfacet
facet normal -0.620605 0 0.784123
outer loop
vertex 95.4974 5030 4341.27
vertex 95.4974 4999 4341.27
vertex 118.183 5030 4359.22
endloop
endfacet
facet normal -0.620605 0 0.784123
outer loop
vertex 118.183 5030 4359.22
vertex 95.4974 4999 4341.27
vertex 118.183 4999 4359.22
endloop
endfacet
facet normal -0.536698 0 0.843774
outer loop
vertex 118.183 5030 4359.22
vertex 118.183 4999 4359.22
vertex 142.594 5030 4374.75
endloop
endfacet
facet normal -0.536698 0 0.843774
outer loop
vertex 142.594 5030 4374.75
vertex 118.183 4999 4359.22
vertex 142.594 4999 4374.75
endloop
endfacet
facet normal -0.447099 0 0.894485
outer loop
vertex 142.594 5030 4374.75
vertex 142.594 4999 4374.75
vertex 168.473 5030 4387.69
endloop
endfacet
facet normal -0.447099 0 0.894485
outer loop
vertex 168.473 5030 4387.69
vertex 142.594 4999 4374.75
vertex 168.473 4999 4387.69
endloop
endfacet
facet normal -0.352755 0 0.935716
outer loop
vertex 168.473 5030 4387.69
vertex 168.473 4999 4387.69
vertex 195.544 5030 4397.89
endloop
endfacet
facet normal -0.352755 0 0.935716
outer loop
vertex 195.544 5030 4397.89
vertex 168.473 4999 4387.69
vertex 195.544 4999 4397.89
endloop
endfacet
facet normal -0.254679 0 0.967026
outer loop
vertex 195.544 5030 4397.89
vertex 195.544 4999 4397.89
vertex 223.521 5030 4405.26
endloop
endfacet
facet normal -0.254679 0 0.967026
outer loop
vertex 223.521 5030 4405.26
vertex 195.544 4999 4397.89
vertex 223.521 4999 4405.26
endloop
endfacet
facet normal -0.153889 0 0.988088
outer loop
vertex 223.521 5030 4405.26
vertex 223.521 4999 4405.26
vertex 252.107 5030 4409.71
endloop
endfacet
facet normal -0.153889 0 0.988088
outer loop
vertex 252.107 5030 4409.71
vertex 223.521 4999 4405.26
vertex 252.107 4999 4409.71
endloop
endfacet
facet normal -0.051476 0 0.998674
outer loop
vertex 252.107 5030 4409.71
vertex 252.107 4999 4409.71
vertex 281 5030 4411.2
endloop
endfacet
facet normal -0.051476 0 0.998674
outer loop
vertex 281 5030 4411.2
vertex 252.107 4999 4409.71
vertex 281 4999 4411.2
endloop
endfacet
facet normal 0.0514764 0 0.998674
outer loop
vertex 281 5030 4411.2
vertex 281 4999 4411.2
vertex 309.893 5030 4409.71
endloop
endfacet
facet normal 0.0514764 0 0.998674
outer loop
vertex 309.893 5030 4409.71
vertex 281 4999 4411.2
vertex 309.893 4999 4409.71
endloop
endfacet
facet normal -0.227847 0 -0.973697
outer loop
vertex 300.081 4955 4253.73
vertex 300.081 5030 4253.73
vertex 318.715 4955 4249.37
endloop
endfacet
facet normal -0.227847 0 -0.973697
outer loop
vertex 318.715 4955 4249.37
vertex 300.081 5030 4253.73
vertex 318.715 5030 4249.37
endloop
endfacet
facet normal -0.373813 0 -0.927504
outer loop
vertex 318.715 4955 4249.37
vertex 318.715 5030 4249.37
vertex 336.465 4955 4242.22
endloop
endfacet
facet normal -0.373813 0 -0.927504
outer loop
vertex 336.465 4955 4242.22
vertex 318.715 5030 4249.37
vertex 336.465 5030 4242.22
endloop
endfacet
facet normal -0.511033 0 -0.859561
outer loop
vertex 336.465 4955 4242.22
vertex 336.465 5030 4242.22
vertex 352.915 4955 4232.44
endloop
endfacet
facet normal -0.511033 0 -0.859561
outer loop
vertex 352.915 4955 4232.44
vertex 336.465 5030 4242.22
vertex 352.915 5030 4232.44
endloop
endfacet
facet normal -0.636219 0 -0.771508
outer loop
vertex 352.915 4955 4232.44
vertex 352.915 5030 4232.44
vertex 367.679 4955 4220.27
endloop
endfacet
facet normal -0.636219 0 -0.771508
outer loop
vertex 367.679 4955 4220.27
vertex 352.915 5030 4232.44
vertex 367.679 5030 4220.27
endloop
endfacet
facet normal -0.746556 0 -0.665322
outer loop
vertex 367.679 4955 4220.27
vertex 367.679 5030 4220.27
vertex 380.412 4955 4205.98
endloop
endfacet
facet normal -0.746556 0 -0.665322
outer loop
vertex 380.412 4955 4205.98
vertex 367.679 5030 4220.27
vertex 380.412 5030 4205.98
endloop
endfacet
facet normal -0.839369 0 -0.543561
outer loop
vertex 380.412 4955 4205.98
vertex 380.412 5030 4205.98
vertex 390.814 4955 4189.92
endloop
endfacet
facet normal -0.839369 0 -0.543561
outer loop
vertex 390.814 4955 4189.92
vertex 380.412 5030 4205.98
vertex 390.814 5030 4189.92
endloop
endfacet
facet normal -0.912503 0 -0.409069
outer loop
vertex 390.814 4955 4189.92
vertex 390.814 5030 4189.92
vertex 398.643 4955 4172.45
endloop
endfacet
facet normal -0.912503 0 -0.409069
outer loop
vertex 398.643 4955 4172.45
vertex 390.814 5030 4189.92
vertex 398.643 5030 4172.45
endloop
endfacet
facet normal -0.964251 0 -0.264989
outer loop
vertex 398.643 4955 4172.45
vertex 398.643 5030 4172.45
vertex 403.714 4955 4154
endloop
endfacet
facet normal -0.964251 0 -0.264989
outer loop
vertex 403.714 4955 4154
vertex 398.643 5030 4172.45
vertex 403.714 5030 4154
endloop
endfacet
facet normal -0.993403 0 -0.114678
outer loop
vertex 403.714 4955 4154
vertex 403.714 5030 4154
vertex 405.908 4955 4134.99
endloop
endfacet
facet normal -0.993403 0 -0.114678
outer loop
vertex 405.908 4955 4134.99
vertex 403.714 5030 4154
vertex 405.908 5030 4134.99
endloop
endfacet
facet normal -0.999266 0 0.0383106
outer loop
vertex 405.908 4955 4134.99
vertex 405.908 5030 4134.99
vertex 405.175 4955 4115.86
endloop
endfacet
facet normal -0.999266 0 0.0383106
outer loop
vertex 405.175 4955 4115.86
vertex 405.908 5030 4134.99
vertex 405.175 5030 4115.86
endloop
endfacet
facet normal -0.98171 0 0.190384
outer loop
vertex 405.175 4955 4115.86
vertex 405.175 5030 4115.86
vertex 401.532 4955 4097.08
endloop
endfacet
facet normal -0.98171 0 0.190384
outer loop
vertex 401.532 4955 4097.08
vertex 405.175 5030 4115.86
vertex 401.532 5030 4097.08
endloop
endfacet
facet normal -0.94114 0 0.338017
outer loop
vertex 401.532 4955 4097.08
vertex 401.532 5030 4097.08
vertex 395.063 4955 4079.07
endloop
endfacet
facet normal -0.94114 0 0.338017
outer loop
vertex 395.063 4955 4079.07
vertex 401.532 5030 4097.08
vertex 395.063 5030 4079.07
endloop
endfacet
facet normal -0.878514 0 0.477717
outer loop
vertex 395.063 4955 4079.07
vertex 395.063 5030 4079.07
vertex 385.921 4955 4062.25
endloop
endfacet
facet normal -0.878514 0 0.477717
outer loop
vertex 385.921 4955 4062.25
vertex 395.063 5030 4079.07
vertex 385.921 5030 4062.25
endloop
endfacet
facet normal -0.795293 0 0.606225
outer loop
vertex 385.921 4955 4062.25
vertex 385.921 5030 4062.25
vertex 374.319 4955 4047.03
endloop
endfacet
facet normal -0.795293 0 0.606225
outer loop
vertex 374.319 4955 4047.03
vertex 385.921 5030 4062.25
vertex 374.319 5030 4047.03
endloop
endfacet
facet normal -0.693425 0 0.720528
outer loop
vertex 374.319 4955 4047.03
vertex 374.319 5030 4047.03
vertex 360.53 4955 4033.76
endloop
endfacet
facet normal -0.693425 0 0.720528
outer loop
vertex 360.53 4955 4033.76
vertex 374.319 5030 4047.03
vertex 360.53 5030 4033.76
endloop
endfacet
facet normal -0.575328 0 0.817923
outer loop
vertex 360.53 4955 4033.76
vertex 360.53 5030 4033.76
vertex 344.877 4955 4022.75
endloop
endfacet
facet normal -0.575328 0 0.817923
outer loop
vertex 344.877 4955 4022.75
vertex 360.53 5030 4033.76
vertex 344.877 5030 4022.75
endloop
endfacet
facet normal -0.44371 0 0.896171
outer loop
vertex 344.877 4955 4022.75
vertex 344.877 5030 4022.75
vertex 327.727 4955 4014.26
endloop
endfacet
facet normal -0.44371 0 0.896171
outer loop
vertex 327.727 4955 4014.26
vertex 344.877 5030 4022.75
vertex 327.727 5030 4014.26
endloop
endfacet
facet normal -0.301711 0 0.953399
outer loop
vertex 327.727 4955 4014.26
vertex 327.727 5030 4014.26
vertex 309.482 4955 4008.49
endloop
endfacet
facet normal -0.301711 0 0.953399
outer loop
vertex 309.482 4955 4008.49
vertex 327.727 5030 4014.26
vertex 309.482 5030 4008.49
endloop
endfacet
facet normal -0.152666 0 0.988278
outer loop
vertex 309.482 4955 4008.49
vertex 309.482 5030 4008.49
vertex 290.569 4955 4005.57
endloop
endfacet
facet normal -0.152666 0 0.988278
outer loop
vertex 290.569 4955 4005.57
vertex 309.482 5030 4008.49
vertex 290.569 5030 4005.57
endloop
endfacet
facet normal 0 0 1
outer loop
vertex 290.569 4955 4005.57
vertex 290.569 5030 4005.57
vertex 271.431 4955 4005.57
endloop
endfacet
facet normal 0 0 1
outer loop
vertex 271.431 4955 4005.57
vertex 290.569 5030 4005.57
vertex 271.431 5030 4005.57
endloop
endfacet
facet normal 0.152666 0 0.988278
outer loop
vertex 271.431 4955 4005.57
vertex 271.431 5030 4005.57
vertex 252.518 4955 4008.49
endloop
endfacet
facet normal 0.152666 0 0.988278
outer loop
vertex 252.518 4955 4008.49
vertex 271.431 5030 4005.57
vertex 252.518 5030 4008.49
endloop
endfacet
facet normal 0.301711 0 0.953399
outer loop
vertex 252.518 4955 4008.49
vertex 252.518 5030 4008.49
vertex 234.273 4955 4014.26
endloop
endfacet
facet normal 0.301711 0 0.953399
outer loop
vertex 234.273 4955 4014.26
vertex 252.518 5030 4008.49
vertex 234.273 5030 4014.26
endloop
endfacet
facet normal 0.443714 0 0.896168
outer loop
vertex 234.273 4955 4014.26
vertex 234.273 5030 4014.26
vertex 217.123 4955 4022.75
endloop
endfacet
facet normal 0.443714 0 0.896168
outer loop
vertex 217.123 4955 4022.75
vertex 234.273 5030 4014.26
vertex 217.123 5030 4022.75
endloop
endfacet
facet normal 0.575322 0 0.817927
outer loop
vertex 217.123 4955 4022.75
vertex 217.123 5030 4022.75
vertex 201.47 4955 4033.76
endloop
endfacet
facet normal 0.575322 0 0.817927
outer loop
vertex 201.47 4955 4033.76
vertex 217.123 5030 4022.75
vertex 201.47 5030 4033.76
endloop
endfacet
facet normal 0.693431 0 0.720523
outer loop
vertex 201.47 4955 4033.76
vertex 201.47 5030 4033.76
vertex 187.681 4955 4047.03
endloop
endfacet
facet normal 0.693431 0 0.720523
outer loop
vertex 187.681 4955 4047.03
vertex 201.47 5030 4033.76
vertex 187.681 5030 4047.03
endloop
endfacet
facet normal 0.795288 0 0.606232
outer loop
vertex 187.681 4955 4047.03
vertex 187.681 5030 4047.03
vertex 176.079 4955 4062.25
endloop
endfacet
facet normal 0.795288 0 0.606232
outer loop
vertex 176.079 4955 4062.25
vertex 187.681 5030 4047.03
vertex 176.079 5030 4062.25
endloop
endfacet
facet normal 0.878514 0 0.477717
outer loop
vertex 176.079 4955 4062.25
vertex 176.079 5030 4062.25
vertex 166.937 4955 4079.07
endloop
endfacet
facet normal 0.878514 0 0.477717
outer loop
vertex 166.937 4955 4079.07
vertex 176.079 5030 4062.25
vertex 166.937 5030 4079.07
endloop
endfacet
facet normal 0.94114 0 0.338017
outer loop
vertex 166.937 4955 4079.07
vertex 166.937 5030 4079.07
vertex 160.468 4955 4097.08
endloop
endfacet
facet normal 0.94114 0 0.338017
outer loop
vertex 160.468 4955 4097.08
vertex 166.937 5030 4079.07
vertex 160.468 5030 4097.08
endloop
endfacet
facet normal 0.98171 0 0.190385
outer loop
vertex 160.468 4955 4097.08
vertex 160.468 5030 4097.08
vertex 156.825 4955 4115.86
endloop
endfacet
facet normal 0.98171 0 0.190385
outer loop
vertex 156.825 4955 4115.86
vertex 160.468 5030 4097.08
vertex 156.825 5030 4115.86
endloop
endfacet
facet normal 0.999266 0 0.0383098
outer loop
vertex 156.825 4955 4115.86
vertex 156.825 5030 4115.86
vertex 156.092 4955 4134.99
endloop
endfacet
facet normal 0.999266 0 0.0383098
outer loop
vertex 156.092 4955 4134.99
vertex 156.825 5030 4115.86
vertex 156.092 5030 4134.99
endloop
endfacet
facet normal 0.993401 0 -0.11469
outer loop
vertex 156.092 4955 4134.99
vertex 156.092 5030 4134.99
vertex 158.287 4955 4154
endloop
endfacet
facet normal 0.993401 0 -0.11469
outer loop
vertex 158.287 4955 4154
vertex 156.092 5030 4134.99
vertex 158.287 5030 4154
endloop
endfacet
facet normal 0.964255 0 -0.264977
outer loop
vertex 158.287 4955 4154
vertex 158.287 5030 4154
vertex 163.357 4955 4172.45
endloop
endfacet
facet normal 0.964255 0 -0.264977
outer loop
vertex 163.357 4955 4172.45
vertex 158.287 5030 4154
vertex 163.357 5030 4172.45
endloop
endfacet
facet normal 0.912504 0 -0.409068
outer loop
vertex 163.357 4955 4172.45
vertex 163.357 5030 4172.45
vertex 171.186 4955 4189.92
endloop
endfacet
facet normal 0.912504 0 -0.409068
outer loop
vertex 171.186 4955 4189.92
vertex 163.357 5030 4172.45
vertex 171.186 5030 4189.92
endloop
endfacet
facet normal 0.839369 0 -0.543561
outer loop
vertex 171.186 4955 4189.92
vertex 171.186 5030 4189.92
vertex 181.588 4955 4205.98
endloop
endfacet
facet normal 0.839369 0 -0.543561
outer loop
vertex 181.588 4955 4205.98
vertex 171.186 5030 4189.92
vertex 181.588 5030 4205.98
endloop
endfacet
facet normal 0.746556 0 -0.665322
outer loop
vertex 181.588 4955 4205.98
vertex 181.588 5030 4205.98
vertex 194.321 4955 4220.27
endloop
endfacet
facet normal 0.746556 0 -0.665322
outer loop
vertex 194.321 4955 4220.27
vertex 181.588 5030 4205.98
vertex 194.321 5030 4220.27
endloop
endfacet
facet normal 0.63622 0 -0.771508
outer loop
vertex 194.321 4955 4220.27
vertex 194.321 5030 4220.27
vertex 209.085 4955 4232.44
endloop
endfacet
facet normal 0.63622 0 -0.771508
outer loop
vertex 209.085 4955 4232.44
vertex 194.321 5030 4220.27
vertex 209.085 5030 4232.44
endloop
endfacet
facet normal 0.511027 0 -0.859565
outer loop
vertex 209.085 4955 4232.44
vertex 209.085 5030 4232.44
vertex 225.535 4955 4242.22
endloop
endfacet
facet normal 0.511027 0 -0.859565
outer loop
vertex 225.535 4955 4242.22
vertex 209.085 5030 4232.44
vertex 225.535 5030 4242.22
endloop
endfacet
facet normal 0.373817 0 -0.927502
outer loop
vertex 225.535 4955 4242.22
vertex 225.535 5030 4242.22
vertex 243.285 4955 4249.37
endloop
endfacet
facet normal 0.373817 0 -0.927502
outer loop
vertex 243.285 4955 4249.37
vertex 225.535 5030 4242.22
vertex 243.285 5030 4249.37
endloop
endfacet
facet normal 0.227847 0 -0.973697
outer loop
vertex 243.285 4955 4249.37
vertex 243.285 5030 4249.37
vertex 261.919 4955 4253.73
endloop
endfacet
facet normal 0.227847 0 -0.973697
outer loop
vertex 261.919 4955 4253.73
vertex 243.285 5030 4249.37
vertex 261.919 5030 4253.73
endloop
endfacet
facet normal 0.0765432 0 -0.997066
outer loop
vertex 261.919 4955 4253.73
vertex 261.919 5030 4253.73
vertex 281 4955 4255.2
endloop
endfacet
facet normal 0.0765432 0 -0.997066
outer loop
vertex 281 4955 4255.2
vertex 261.919 5030 4253.73
vertex 281 5030 4255.2
endloop
endfacet
facet normal -0.0765441 0 -0.997066
outer loop
vertex 281 4955 4255.2
vertex 281 5030 4255.2
vertex 300.081 4955 4253.73
endloop
endfacet
facet normal -0.0765441 0 -0.997066
outer loop
vertex 300.081 4955 4253.73
vertex 281 5030 4255.2
vertex 300.081 5030 4253.73
endloop
endfacet
facet normal 0 1 0
outer loop
vertex 243.285 5030 4249.37
vertex 223.521 5030 4405.26
vertex 261.919 5030 4253.73
endloop
endfacet
facet normal 0 1 0
outer loop
vertex 261.919 5030 4253.73
vertex 223.521 5030 4405.26
vertex 252.107 5030 4409.71
endloop
endfacet
facet normal 0 1 0
outer loop
vertex 261.919 5030 4253.73
vertex 252.107 5030 4409.71
vertex 281 5030 4255.2
endloop
endfacet
facet normal 0 1 0
outer loop
vertex 281 5030 4255.2
vertex 252.107 5030 4409.71
vertex 281 5030 4411.2
endloop
endfacet
facet normal 0 1 0
outer loop
vertex 281 5030 4255.2
vertex 281 5030 4411.2
vertex 300.081 5030 4253.73
endloop
endfacet
facet normal 0 1 0
outer loop
vertex 281 5030 4411.2
vertex 309.893 5030 4409.71
vertex 300.081 5030 4253.73
endloop
endfacet
facet normal 0 1 0
outer loop
vertex 300.081 5030 4253.73
vertex 309.893 5030 4409.71
vertex 338.479 5030 4405.26
endloop
endfacet
facet normal 0 1 0
outer loop
vertex 300.081 5030 4253.73
vertex 338.479 5030 4405.26
vertex 318.715 5030 4249.37
endloop
endfacet
facet normal 0 1 0
outer loop
vertex 318.715 5030 4249.37
vertex 338.479 5030 4405.26
vertex 366.456 5030 4397.89
endloop
endfacet
facet normal 0 1 0
outer loop
vertex 318.715 5030 4249.37
vertex 366.456 5030 4397.89
vertex 336.465 5030 4242.22
endloop
endfacet
facet normal 0 1 0
outer loop
vertex 209.085 5030 4232.44
vertex 142.594 5030 4374.75
vertex 225.535 5030 4242.22
endloop
endfacet
facet normal 0 1 0
outer loop
vertex 225.535 5030 4242.22
vertex 142.594 5030 4374.75
vertex 168.473 5030 4387.69
endloop
endfacet
facet normal 0 1 0
outer loop
vertex 225.535 5030 4242.22
vertex 168.473 5030 4387.69
vertex 243.285 5030 4249.37
endloop
endfacet
facet normal 0 1 0
outer loop
vertex 243.285 5030 4249.37
vertex 168.473 5030 4387.69
vertex 195.544 5030 4397.89
endloop
endfacet
facet normal 0 1 0
outer loop
vertex 243.285 5030 4249.37
vertex 195.544 5030 4397.89
vertex 223.521 5030 4405.26
endloop
endfacet
facet normal 0 1 0
outer loop
vertex 181.588 5030 4205.98
vertex 74.7783 5030 4321.08
vertex 194.321 5030 4220.27
endloop
endfacet
facet normal 0 1 0
outer loop
vertex 194.321 5030 4220.27
vertex 74.7783 5030 4321.08
vertex 95.4974 5030 4341.27
endloop
endfacet
facet normal 0 1 0
outer loop
vertex 194.321 5030 4220.27
vertex 95.4974 5030 4341.27
vertex 209.085 5030 4232.44
endloop
endfacet
facet normal 0 1 0
outer loop
vertex 209.085 5030 4232.44
vertex 95.4974 5030 4341.27
vertex 118.183 5030 4359.22
endloop
endfacet
facet normal 0 1 0
outer loop
vertex 209.085 5030 4232.44
vertex 118.183 5030 4359.22
vertex 142.594 5030 4374.75
endloop
endfacet
facet normal 0 1 0
outer loop
vertex 163.357 5030 4172.45
vertex 26.4976 5030 4249.32
vertex 171.186 5030 4189.92
endloop
endfacet
facet normal 0 1 0
outer loop
vertex 171.186 5030 4189.92
vertex 26.4976 5030 4249.32
vertex 40.0946 5030 4274.86
endloop
endfacet
facet normal 0 1 0
outer loop
vertex 171.186 5030 4189.92
vertex 40.0946 5030 4274.86
vertex 181.588 5030 4205.98
endloop
endfacet
facet normal 0 1 0
outer loop
vertex 181.588 5030 4205.98
vertex 40.0946 5030 4274.86
vertex 56.2453 5030 4298.86
endloop
endfacet
facet normal 0 1 0
outer loop
vertex 181.588 5030 4205.98
vertex 56.2453 5030 4298.86
vertex 74.7783 5030 4321.08
endloop
endfacet
facet normal 0 1 0
outer loop
vertex 156.092 5030 4134.99
vertex 2.32601 5030 4166.28
vertex 158.287 5030 4154
endloop
endfacet
facet normal 0 1 0
outer loop
vertex 158.287 5030 4154
vertex 2.32601 5030 4166.28
vertex 7.51281 5030 4194.74
endloop
endfacet
facet normal 0 1 0
outer loop
vertex 158.287 5030 4154
vertex 7.51281 5030 4194.74
vertex 163.357 5030 4172.45
endloop
endfacet
facet normal 0 1 0
outer loop
vertex 163.357 5030 4172.45
vertex 7.51281 5030 4194.74
vertex 15.5985 5030 4222.52
endloop
endfacet
facet normal 0 1 0
outer loop
vertex 163.357 5030 4172.45
vertex 15.5985 5030 4222.52
vertex 26.4976 5030 4249.32
endloop
endfacet
facet normal 0 1 0
outer loop
vertex 160.468 5030 4097.08
vertex 4.55284 5030 4079.82
vertex 156.825 5030 4115.86
endloop
endfacet
facet normal 0 1 0
outer loop
vertex 156.825 5030 4115.86
vertex 4.55284 5030 4079.82
vertex 0.838041 5030 4108.51
endloop
endfacet
facet normal 0 1 0
outer loop
vertex 156.825 5030 4115.86
vertex 0.838041 5030 4108.51
vertex 156.092 5030 4134.99
endloop
endfacet
facet normal 0 1 0
outer loop
vertex 156.092 5030 4134.99
vertex 0.838041 5030 4108.51
vertex 0.0932217 5030 4137.44
endloop
endfacet
facet normal 0 1 0
outer loop
vertex 156.092 5030 4134.99
vertex 0.0932217 5030 4137.44
vertex 2.32601 5030 4166.28
endloop
endfacet
facet normal 0 1 0
outer loop
vertex 176.079 5030 4062.25
vertex 32.9673 5030 3998.14
vertex 166.937 5030 4079.07
endloop
endfacet
facet normal 0 1 0
outer loop
vertex 166.937 5030 4079.07
vertex 32.9673 5030 3998.14
vertex 20.7031 5030 4024.34
endloop
endfacet
facet normal 0 1 0
outer loop
vertex 166.937 5030 4079.07
vertex 20.7031 5030 4024.34
vertex 160.468 5030 4097.08
endloop
endfacet
facet normal 0 1 0
outer loop
vertex 160.468 5030 4097.08
vertex 20.7031 5030 4024.34
vertex 11.198 5030 4051.66
endloop
endfacet
facet normal 0 1 0
outer loop
vertex 160.468 5030 4097.08
vertex 11.198 5030 4051.66
vertex 4.55284 5030 4079.82
endloop
endfacet
facet normal 0 1 0
outer loop
vertex 374.319 5030 4047.03
vertex 477.122 5030 3928.96
vertex 360.53 5030 4033.76
endloop
endfacet
facet normal 0 1 0
outer loop
vertex 360.53 5030 4033.76
vertex 477.122 5030 3928.96
vertex 455.391 5030 3909.86
endloop
endfacet
facet normal 0 1 0
outer loop
vertex 360.53 5030 4033.76
vertex 455.391 5030 3909.86
vertex 344.877 5030 4022.75
endloop
endfacet
facet normal 0 1 0
outer loop
vertex 366.456 5030 4397.89
vertex 393.527 5030 4387.69
vertex 336.465 5030 4242.22
endloop
endfacet
facet normal 0 1 0
outer loop
vertex 336.465 5030 4242.22
vertex 393.527 5030 4387.69
vertex 419.406 5030 4374.75
endloop
endfacet
facet normal 0 1 0
outer loop
vertex 336.465 5030 4242.22
vertex 419.406 5030 4374.75
vertex 352.915 5030 4232.44
endloop
endfacet
facet normal 0 1 0
outer loop
vertex 352.915 5030 4232.44
vertex 419.406 5030 4374.75
vertex 443.817 5030 4359.22
endloop
endfacet
facet normal 0 1 0
outer loop
vertex 352.915 5030 4232.44
vertex 443.817 5030 4359.22
vertex 367.679 5030 4220.27
endloop
endfacet
facet normal 0 1 0
outer loop
vertex 201.47 5030 4033.76
vertex 84.8777 5030 3928.96
vertex 187.681 5030 4047.03
endloop
endfacet
facet normal 0 1 0
outer loop
vertex 187.681 5030 4047.03
vertex 84.8777 5030 3928.96
vertex 65.2256 5030 3950.19
endloop
endfacet
facet normal 0 1 0
outer loop
vertex 187.681 5030 4047.03
vertex 65.2256 5030 3950.19
vertex 176.079 5030 4062.25
endloop
endfacet
facet normal 0 1 0
outer loop
vertex 176.079 5030 4062.25
vertex 65.2256 5030 3950.19
vertex 47.8609 5030 3973.33
endloop
endfacet
facet normal 0 1 0
outer loop
vertex 176.079 5030 4062.25
vertex 47.8609 5030 3973.33
vertex 32.9673 5030 3998.14
endloop
endfacet
facet normal 0 1 0
outer loop
vertex 234.273 5030 4014.26
vertex 155.367 5030 3878.85
vertex 217.123 5030 4022.75
endloop
endfacet
facet normal 0 1 0
outer loop
vertex 217.123 5030 4022.75
vertex 155.367 5030 3878.85
vertex 130.188 5030 3893.1
endloop
endfacet
facet normal 0 1 0
outer loop
vertex 217.123 5030 4022.75
vertex 130.188 5030 3893.1
vertex 201.47 5030 4033.76
endloop
endfacet
facet normal 0 1 0
outer loop
vertex 201.47 5030 4033.76
vertex 130.188 5030 3893.1
vertex 106.609 5030 3909.86
endloop
endfacet
facet normal 0 1 0
outer loop
vertex 201.47 5030 4033.76
vertex 106.609 5030 3909.86
vertex 84.8777 5030 3928.96
endloop
endfacet
facet normal 0 1 0
outer loop
vertex 271.431 5030 4005.57
vertex 237.757 5030 3852.55
vertex 252.518 5030 4008.49
endloop
endfacet
facet normal 0 1 0
outer loop
vertex 252.518 5030 4008.49
vertex 237.757 5030 3852.55
vertex 209.437 5030 3858.47
endloop
endfacet
facet normal 0 1 0
outer loop
vertex 252.518 5030 4008.49
vertex 209.437 5030 3858.47
vertex 234.273 5030 4014.26
endloop
endfacet
facet normal 0 1 0
outer loop
vertex 234.273 5030 4014.26
vertex 209.437 5030 3858.47
vertex 181.877 5030 3867.26
endloop
endfacet
facet normal 0 1 0
outer loop
vertex 234.273 5030 4014.26
vertex 181.877 5030 3867.26
vertex 155.367 5030 3878.85
endloop
endfacet
facet normal 0 1 0
outer loop
vertex 455.391 5030 3909.86
vertex 431.812 5030 3893.1
vertex 344.877 5030 4022.75
endloop
endfacet
facet normal 0 1 0
outer loop
vertex 344.877 5030 4022.75
vertex 431.812 5030 3893.1
vertex 406.633 5030 3878.85
endloop
endfacet
facet normal 0 1 0
outer loop
vertex 344.877 5030 4022.75
vertex 406.633 5030 3878.85
vertex 327.727 5030 4014.26
endloop
endfacet
facet normal 0 1 0
outer loop
vertex 327.727 5030 4014.26
vertex 406.633 5030 3878.85
vertex 380.123 5030 3867.26
endloop
endfacet
facet normal 0 1 0
outer loop
vertex 327.727 5030 4014.26
vertex 380.123 5030 3867.26
vertex 309.482 5030 4008.49
endloop
endfacet
facet normal 0 1 0
outer loop
vertex 395.063 5030 4079.07
vertex 529.033 5030 3998.14
vertex 385.921 5030 4062.25
endloop
endfacet
facet normal 0 1 0
outer loop
vertex 385.921 5030 4062.25
vertex 529.033 5030 3998.14
vertex 514.139 5030 3973.33
endloop
endfacet
facet normal 0 1 0
outer loop
vertex 385.921 5030 4062.25
vertex 514.139 5030 3973.33
vertex 374.319 5030 4047.03
endloop
endfacet
facet normal 0 1 0
outer loop
vertex 374.319 5030 4047.03
vertex 514.139 5030 3973.33
vertex 496.774 5030 3950.19
endloop
endfacet
facet normal 0 1 0
outer loop
vertex 374.319 5030 4047.03
vertex 496.774 5030 3950.19
vertex 477.122 5030 3928.96
endloop
endfacet
facet normal 0 1 0
outer loop
vertex 405.175 5030 4115.86
vertex 557.447 5030 4079.82
vertex 401.532 5030 4097.08
endloop
endfacet
facet normal 0 1 0
outer loop
vertex 401.532 5030 4097.08
vertex 557.447 5030 4079.82
vertex 550.802 5030 4051.66
endloop
endfacet
facet normal 0 1 0
outer loop
vertex 401.532 5030 4097.08
vertex 550.802 5030 4051.66
vertex 395.063 5030 4079.07
endloop
endfacet
facet normal 0 1 0
outer loop
vertex 395.063 5030 4079.07
vertex 550.802 5030 4051.66
vertex 541.297 5030 4024.34
endloop
endfacet
facet normal 0 1 0
outer loop
vertex 395.063 5030 4079.07
vertex 541.297 5030 4024.34
vertex 529.033 5030 3998.14
endloop
endfacet
facet normal 0 1 0
outer loop
vertex 403.714 5030 4154
vertex 559.674 5030 4166.28
vertex 405.908 5030 4134.99
endloop
endfacet
facet normal 0 1 0
outer loop
vertex 405.908 5030 4134.99
vertex 559.674 5030 4166.28
vertex 561.907 5030 4137.44
endloop
endfacet
facet normal 0 1 0
outer loop
vertex 405.908 5030 4134.99
vertex 561.907 5030 4137.44
vertex 405.175 5030 4115.86
endloop
endfacet
facet normal 0 1 0
outer loop
vertex 405.175 5030 4115.86
vertex 561.907 5030 4137.44
vertex 561.162 5030 4108.51
endloop
endfacet
facet normal 0 1 0
outer loop
vertex 405.175 5030 4115.86
vertex 561.162 5030 4108.51
vertex 557.447 5030 4079.82
endloop
endfacet
facet normal 0 1 0
outer loop
vertex 390.814 5030 4189.92
vertex 535.502 5030 4249.32
vertex 398.643 5030 4172.45
endloop
endfacet
facet normal 0 1 0
outer loop
vertex 398.643 5030 4172.45
vertex 535.502 5030 4249.32
vertex 546.401 5030 4222.52
endloop
endfacet
facet normal 0 1 0
outer loop
vertex 398.643 5030 4172.45
vertex 546.401 5030 4222.52
vertex 403.714 5030 4154
endloop
endfacet
facet normal 0 1 0
outer loop
vertex 403.714 5030 4154
vertex 546.401 5030 4222.52
vertex 554.487 5030 4194.74
endloop
endfacet
facet normal 0 1 0
outer loop
vertex 403.714 5030 4154
vertex 554.487 5030 4194.74
vertex 559.674 5030 4166.28
endloop
endfacet
facet normal 0 1 0
outer loop
vertex 443.817 5030 4359.22
vertex 466.503 5030 4341.27
vertex 367.679 5030 4220.27
endloop
endfacet
facet normal 0 1 0
outer loop
vertex 367.679 5030 4220.27
vertex 466.503 5030 4341.27
vertex 487.222 5030 4321.08
endloop
endfacet
facet normal 0 1 0
outer loop
vertex 367.679 5030 4220.27
vertex 487.222 5030 4321.08
vertex 380.412 5030 4205.98
endloop
endfacet
facet normal 0 1 0
outer loop
vertex 380.412 5030 4205.98
vertex 487.222 5030 4321.08
vertex 505.755 5030 4298.86
endloop
endfacet
facet normal 0 1 0
outer loop
vertex 380.412 5030 4205.98
vertex 505.755 5030 4298.86
vertex 390.814 5030 4189.92
endloop
endfacet
facet normal 0 1 0
outer loop
vertex 390.814 5030 4189.92
vertex 505.755 5030 4298.86
vertex 521.905 5030 4274.86
endloop
endfacet
facet normal 0 1 0
outer loop
vertex 390.814 5030 4189.92
vertex 521.905 5030 4274.86
vertex 535.502 5030 4249.32
endloop
endfacet
facet normal 0 1 0
outer loop
vertex 380.123 5030 3867.26
vertex 352.563 5030 3858.47
vertex 309.482 5030 4008.49
endloop
endfacet
facet normal 0 1 0
outer loop
vertex 309.482 5030 4008.49
vertex 352.563 5030 3858.47
vertex 324.243 5030 3852.55
endloop
endfacet
facet normal 0 1 0
outer loop
vertex 309.482 5030 4008.49
vertex 324.243 5030 3852.55
vertex 290.569 5030 4005.57
endloop
endfacet
facet normal 0 1 0
outer loop
vertex 290.569 5030 4005.57
vertex 324.243 5030 3852.55
vertex 295.465 5030 3849.57
endloop
endfacet
facet normal 0 1 0
outer loop
vertex 290.569 5030 4005.57
vertex 295.465 5030 3849.57
vertex 271.431 5030 4005.57
endloop
endfacet
facet normal 0 1 0
outer loop
vertex 271.431 5030 4005.57
vertex 295.465 5030 3849.57
vertex 266.535 5030 3849.57
endloop
endfacet
facet normal 0 1 0
outer loop
vertex 271.431 5030 4005.57
vertex 266.535 5030 3849.57
vertex 237.757 5030 3852.55
endloop
endfacet
endsolid
