solid C:\Temp\NOELParts\WASHER.STL created by CtrlView V2.70
facet normal 0 -1 0
outer loop
vertex 17.119 0 10.424
vertex 15.909 0 0.422886
vertex 18.544 0 10.1066
endloop
endfacet
facet normal 0 -1 0
outer loop
vertex 18.544 0 10.1066
vertex 15.909 0 0.422886
vertex 17.9436 0 0.106001
endloop
endfacet
facet normal 0 -1 0
outer loop
vertex 18.544 0 10.1066
vertex 17.9436 0 0.106001
vertex 20 0 10
endloop
endfacet
facet normal 0 -1 0
outer loop
vertex 20 0 10
vertex 17.9436 0 0.106001
vertex 20 0 0
endloop
endfacet
facet normal 0 -1 0
outer loop
vertex 20 0 10
vertex 20 0 0
vertex 21.456 0 10.1066
endloop
endfacet
facet normal 0 -1 0
outer loop
vertex 29.2035 0 16.089
vertex 38.8898 0 13.4292
vertex 29.6748 0 17.4707
endloop
endfacet
facet normal 0 -1 0
outer loop
vertex 29.6748 0 17.4707
vertex 38.8898 0 13.4292
vertex 39.4653 0 15.4062
endloop
endfacet
facet normal 0 -1 0
outer loop
vertex 29.6748 0 17.4707
vertex 39.4653 0 15.4062
vertex 29.94 0 18.9063
endloop
endfacet
facet normal 0 -1 0
outer loop
vertex 12.801 0 26.9407
vertex 4.64239 0 32.8119
vertex 11.8671 0 25.8186
endloop
endfacet
facet normal 0 -1 0
outer loop
vertex 11.8671 0 25.8186
vertex 4.64239 0 32.8119
vertex 3.40646 0 31.1649
endloop
endfacet
facet normal 0 -1 0
outer loop
vertex 11.8671 0 25.8186
vertex 3.40646 0 31.1649
vertex 11.1066 0 24.5724
endloop
endfacet
facet normal 0 -1 0
outer loop
vertex 19.27 0 29.9733
vertex 16.9222 0 39.7618
vertex 17.8257 0 29.7608
endloop
endfacet
facet normal 0 -1 0
outer loop
vertex 17.8257 0 29.7608
vertex 16.9222 0 39.7618
vertex 14.9066 0 39.3406
endloop
endfacet
facet normal 0 -1 0
outer loop
vertex 17.8257 0 29.7608
vertex 14.9066 0 39.3406
vertex 16.4277 0 29.3402
endloop
endfacet
facet normal 0 -1 0
outer loop
vertex 16.4277 0 29.3402
vertex 14.9066 0 39.3406
vertex 12.945 0 38.7143
endloop
endfacet
facet normal 0 -1 0
outer loop
vertex 16.4277 0 29.3402
vertex 12.945 0 38.7143
vertex 15.1058 0 28.7205
endloop
endfacet
facet normal 0 -1 0
outer loop
vertex 26.6732 0 12.5523
vertex 34.6777 0 6.41453
vertex 27.6865 0 13.6033
endloop
endfacet
facet normal 0 -1 0
outer loop
vertex 27.6865 0 13.6033
vertex 34.6777 0 6.41453
vertex 35.9968 0 7.99571
endloop
endfacet
facet normal 0 -1 0
outer loop
vertex 27.6865 0 13.6033
vertex 35.9968 0 7.99571
vertex 28.5359 0 14.7906
endloop
endfacet
facet normal 0 -1 0
outer loop
vertex 28.5359 0 14.7906
vertex 35.9968 0 7.99571
vertex 37.1463 0 9.70414
endloop
endfacet
facet normal 0 -1 0
outer loop
vertex 28.5359 0 14.7906
vertex 37.1463 0 9.70414
vertex 29.2035 0 16.089
endloop
endfacet
facet normal 0 -1 0
outer loop
vertex 29.2035 0 16.089
vertex 37.1463 0 9.70414
vertex 38.114 0 11.5217
endloop
endfacet
facet normal 0 -1 0
outer loop
vertex 29.2035 0 16.089
vertex 38.114 0 11.5217
vertex 38.8898 0 13.4292
endloop
endfacet
facet normal 0 -1 0
outer loop
vertex 20 0 0
vertex 22.0564 0 0.106001
vertex 21.456 0 10.1066
endloop
endfacet
facet normal 0 -1 0
outer loop
vertex 21.456 0 10.1066
vertex 22.0564 0 0.106001
vertex 24.091 0 0.422886
endloop
endfacet
facet normal 0 -1 0
outer loop
vertex 21.456 0 10.1066
vertex 24.091 0 0.422886
vertex 22.881 0 10.424
endloop
endfacet
facet normal 0 -1 0
outer loop
vertex 22.881 0 10.424
vertex 24.091 0 0.422886
vertex 26.0823 0 0.947291
endloop
endfacet
facet normal 0 -1 0
outer loop
vertex 22.881 0 10.424
vertex 26.0823 0 0.947291
vertex 24.2446 0 10.9455
endloop
endfacet
facet normal 0 -1 0
outer loop
vertex 10.0067 0 20.3652
vertex 0.00663102 0 19.485
vertex 10.06 0 18.9063
endloop
endfacet
facet normal 0 -1 0
outer loop
vertex 10.06 0 18.9063
vertex 0.00663102 0 19.485
vertex 0.165546 0 17.432
endloop
endfacet
facet normal 0 -1 0
outer loop
vertex 10.06 0 18.9063
vertex 0.165546 0 17.432
vertex 10.3252 0 17.4707
endloop
endfacet
facet normal 0 -1 0
outer loop
vertex 3.40646 0 31.1649
vertex 2.34642 0 29.3995
vertex 11.1066 0 24.5724
endloop
endfacet
facet normal 0 -1 0
outer loop
vertex 11.1066 0 24.5724
vertex 2.34642 0 29.3995
vertex 1.47352 0 27.5346
endloop
endfacet
facet normal 0 -1 0
outer loop
vertex 11.1066 0 24.5724
vertex 1.47352 0 27.5346
vertex 10.5356 0 23.2288
endloop
endfacet
facet normal 0 -1 0
outer loop
vertex 10.5356 0 23.2288
vertex 1.47352 0 27.5346
vertex 0.797002 0 25.5897
endloop
endfacet
facet normal 0 -1 0
outer loop
vertex 10.5356 0 23.2288
vertex 0.797002 0 25.5897
vertex 10.1663 0 21.8164
endloop
endfacet
facet normal 0 -1 0
outer loop
vertex 10.1663 0 21.8164
vertex 0.797002 0 25.5897
vertex 0.324041 0 23.5856
endloop
endfacet
facet normal 0 -1 0
outer loop
vertex 10.1663 0 21.8164
vertex 0.324041 0 23.5856
vertex 10.0067 0 20.3652
endloop
endfacet
facet normal 0 -1 0
outer loop
vertex 10.0067 0 20.3652
vertex 0.324041 0 23.5856
vertex 0.0596493 0 21.5435
endloop
endfacet
facet normal 0 -1 0
outer loop
vertex 10.0067 0 20.3652
vertex 0.0596493 0 21.5435
vertex 0.00663102 0 19.485
endloop
endfacet
facet normal 0 -1 0
outer loop
vertex 12.945 0 38.7143
vertex 11.0581 0 37.8897
vertex 15.1058 0 28.7205
endloop
endfacet
facet normal 0 -1 0
outer loop
vertex 15.1058 0 28.7205
vertex 11.0581 0 37.8897
vertex 9.26608 0 36.8755
endloop
endfacet
facet normal 0 -1 0
outer loop
vertex 15.1058 0 28.7205
vertex 9.26608 0 36.8755
vertex 13.8883 0 27.915
endloop
endfacet
facet normal 0 -1 0
outer loop
vertex 13.8883 0 27.915
vertex 9.26608 0 36.8755
vertex 7.58781 0 35.6824
endloop
endfacet
facet normal 0 -1 0
outer loop
vertex 13.8883 0 27.915
vertex 7.58781 0 35.6824
vertex 12.801 0 26.9407
endloop
endfacet
facet normal 0 -1 0
outer loop
vertex 12.801 0 26.9407
vertex 7.58781 0 35.6824
vertex 6.04112 0 34.323
endloop
endfacet
facet normal 0 -1 0
outer loop
vertex 12.801 0 26.9407
vertex 6.04112 0 34.323
vertex 4.64239 0 32.8119
endloop
endfacet
facet normal 0 -1 0
outer loop
vertex 22.1743 0 29.7608
vertex 23.0778 0 39.7618
vertex 20.73 0 29.9733
endloop
endfacet
facet normal 0 -1 0
outer loop
vertex 20.73 0 29.9733
vertex 23.0778 0 39.7618
vertex 21.0296 0 39.9735
endloop
endfacet
facet normal 0 -1 0
outer loop
vertex 20.73 0 29.9733
vertex 21.0296 0 39.9735
vertex 19.27 0 29.9733
endloop
endfacet
facet normal 0 -1 0
outer loop
vertex 19.27 0 29.9733
vertex 21.0296 0 39.9735
vertex 18.9704 0 39.9735
endloop
endfacet
facet normal 0 -1 0
outer loop
vertex 19.27 0 29.9733
vertex 18.9704 0 39.9735
vertex 16.9222 0 39.7618
endloop
endfacet
facet normal 0 -1 0
outer loop
vertex 26.1117 0 27.915
vertex 30.7339 0 36.8755
vertex 24.8942 0 28.7205
endloop
endfacet
facet normal 0 -1 0
outer loop
vertex 24.8942 0 28.7205
vertex 30.7339 0 36.8755
vertex 28.9419 0 37.8897
endloop
endfacet
facet normal 0 -1 0
outer loop
vertex 24.8942 0 28.7205
vertex 28.9419 0 37.8897
vertex 23.5723 0 29.3402
endloop
endfacet
facet normal 0 -1 0
outer loop
vertex 23.5723 0 29.3402
vertex 28.9419 0 37.8897
vertex 27.055 0 38.7143
endloop
endfacet
facet normal 0 -1 0
outer loop
vertex 23.5723 0 29.3402
vertex 27.055 0 38.7143
vertex 22.1743 0 29.7608
endloop
endfacet
facet normal 0 -1 0
outer loop
vertex 22.1743 0 29.7608
vertex 27.055 0 38.7143
vertex 25.0934 0 39.3406
endloop
endfacet
facet normal 0 -1 0
outer loop
vertex 22.1743 0 29.7608
vertex 25.0934 0 39.3406
vertex 23.0778 0 39.7618
endloop
endfacet
facet normal 0 -1 0
outer loop
vertex 26.0823 0 0.947291
vertex 28.0091 0 1.67366
vertex 24.2446 0 10.9455
endloop
endfacet
facet normal 0 -1 0
outer loop
vertex 24.2446 0 10.9455
vertex 28.0091 0 1.67366
vertex 29.851 0 2.59429
endloop
endfacet
facet normal 0 -1 0
outer loop
vertex 24.2446 0 10.9455
vertex 29.851 0 2.59429
vertex 25.5177 0 11.66
endloop
endfacet
facet normal 0 -1 0
outer loop
vertex 25.5177 0 11.66
vertex 29.851 0 2.59429
vertex 31.5884 0 3.69943
endloop
endfacet
facet normal 0 -1 0
outer loop
vertex 25.5177 0 11.66
vertex 31.5884 0 3.69943
vertex 26.6732 0 12.5523
endloop
endfacet
facet normal 0 -1 0
outer loop
vertex 26.6732 0 12.5523
vertex 31.5884 0 3.69943
vertex 33.203 0 4.97736
endloop
endfacet
facet normal 0 -1 0
outer loop
vertex 26.6732 0 12.5523
vertex 33.203 0 4.97736
vertex 34.6777 0 6.41453
endloop
endfacet
facet normal 0 -1 0
outer loop
vertex 14.4823 0 11.66
vertex 10.149 0 2.59429
vertex 15.7554 0 10.9455
endloop
endfacet
facet normal 0 -1 0
outer loop
vertex 15.7554 0 10.9455
vertex 10.149 0 2.59429
vertex 11.9909 0 1.67366
endloop
endfacet
facet normal 0 -1 0
outer loop
vertex 15.7554 0 10.9455
vertex 11.9909 0 1.67366
vertex 17.119 0 10.424
endloop
endfacet
facet normal 0 -1 0
outer loop
vertex 17.119 0 10.424
vertex 11.9909 0 1.67366
vertex 13.9177 0 0.947291
endloop
endfacet
facet normal 0 -1 0
outer loop
vertex 17.119 0 10.424
vertex 13.9177 0 0.947291
vertex 15.909 0 0.422886
endloop
endfacet
facet normal 0 -1 0
outer loop
vertex 12.3135 0 13.6033
vertex 5.32229 0 6.41453
vertex 13.3268 0 12.5523
endloop
endfacet
facet normal 0 -1 0
outer loop
vertex 13.3268 0 12.5523
vertex 5.32229 0 6.41453
vertex 6.79696 0 4.97736
endloop
endfacet
facet normal 0 -1 0
outer loop
vertex 13.3268 0 12.5523
vertex 6.79696 0 4.97736
vertex 14.4823 0 11.66
endloop
endfacet
facet normal 0 -1 0
outer loop
vertex 14.4823 0 11.66
vertex 6.79696 0 4.97736
vertex 8.41158 0 3.69943
endloop
endfacet
facet normal 0 -1 0
outer loop
vertex 14.4823 0 11.66
vertex 8.41158 0 3.69943
vertex 10.149 0 2.59429
endloop
endfacet
facet normal 0 -1 0
outer loop
vertex 0.165546 0 17.432
vertex 0.534711 0 15.4062
vertex 10.3252 0 17.4707
endloop
endfacet
facet normal 0 -1 0
outer loop
vertex 10.3252 0 17.4707
vertex 0.534711 0 15.4062
vertex 1.11021 0 13.4292
endloop
endfacet
facet normal 0 -1 0
outer loop
vertex 10.3252 0 17.4707
vertex 1.11021 0 13.4292
vertex 10.7965 0 16.089
endloop
endfacet
facet normal 0 -1 0
outer loop
vertex 10.7965 0 16.089
vertex 1.11021 0 13.4292
vertex 1.88595 0 11.5217
endloop
endfacet
facet normal 0 -1 0
outer loop
vertex 10.7965 0 16.089
vertex 1.88595 0 11.5217
vertex 11.4641 0 14.7906
endloop
endfacet
facet normal 0 -1 0
outer loop
vertex 11.4641 0 14.7906
vertex 1.88595 0 11.5217
vertex 2.85371 0 9.70414
endloop
endfacet
facet normal 0 -1 0
outer loop
vertex 11.4641 0 14.7906
vertex 2.85371 0 9.70414
vertex 12.3135 0 13.6033
endloop
endfacet
facet normal 0 -1 0
outer loop
vertex 12.3135 0 13.6033
vertex 2.85371 0 9.70414
vertex 4.00322 0 7.99571
endloop
endfacet
facet normal 0 -1 0
outer loop
vertex 12.3135 0 13.6033
vertex 4.00322 0 7.99571
vertex 5.32229 0 6.41453
endloop
endfacet
facet normal 0 -1 0
outer loop
vertex 28.1329 0 25.8186
vertex 35.3576 0 32.8119
vertex 27.199 0 26.9407
endloop
endfacet
facet normal 0 -1 0
outer loop
vertex 27.199 0 26.9407
vertex 35.3576 0 32.8119
vertex 33.9589 0 34.323
endloop
endfacet
facet normal 0 -1 0
outer loop
vertex 27.199 0 26.9407
vertex 33.9589 0 34.323
vertex 26.1117 0 27.915
endloop
endfacet
facet normal 0 -1 0
outer loop
vertex 26.1117 0 27.915
vertex 33.9589 0 34.323
vertex 32.4122 0 35.6824
endloop
endfacet
facet normal 0 -1 0
outer loop
vertex 26.1117 0 27.915
vertex 32.4122 0 35.6824
vertex 30.7339 0 36.8755
endloop
endfacet
facet normal 0 -1 0
outer loop
vertex 29.4644 0 23.2288
vertex 38.5265 0 27.5346
vertex 28.8934 0 24.5724
endloop
endfacet
facet normal 0 -1 0
outer loop
vertex 28.8934 0 24.5724
vertex 38.5265 0 27.5346
vertex 37.6536 0 29.3995
endloop
endfacet
facet normal 0 -1 0
outer loop
vertex 28.8934 0 24.5724
vertex 37.6536 0 29.3995
vertex 28.1329 0 25.8186
endloop
endfacet
facet normal 0 -1 0
outer loop
vertex 28.1329 0 25.8186
vertex 37.6536 0 29.3995
vertex 36.5935 0 31.1649
endloop
endfacet
facet normal 0 -1 0
outer loop
vertex 28.1329 0 25.8186
vertex 36.5935 0 31.1649
vertex 35.3576 0 32.8119
endloop
endfacet
facet normal 0 -1 0
outer loop
vertex 39.4653 0 15.4062
vertex 39.8345 0 17.432
vertex 29.94 0 18.9063
endloop
endfacet
facet normal 0 -1 0
outer loop
vertex 29.94 0 18.9063
vertex 39.8345 0 17.432
vertex 39.9934 0 19.485
endloop
endfacet
facet normal 0 -1 0
outer loop
vertex 29.94 0 18.9063
vertex 39.9934 0 19.485
vertex 29.9933 0 20.3652
endloop
endfacet
facet normal 0 -1 0
outer loop
vertex 29.9933 0 20.3652
vertex 39.9934 0 19.485
vertex 39.9403 0 21.5435
endloop
endfacet
facet normal 0 -1 0
outer loop
vertex 29.9933 0 20.3652
vertex 39.9403 0 21.5435
vertex 29.8337 0 21.8164
endloop
endfacet
facet normal 0 -1 0
outer loop
vertex 29.8337 0 21.8164
vertex 39.9403 0 21.5435
vertex 39.676 0 23.5856
endloop
endfacet
facet normal 0 -1 0
outer loop
vertex 29.8337 0 21.8164
vertex 39.676 0 23.5856
vertex 29.4644 0 23.2288
endloop
endfacet
facet normal 0 -1 0
outer loop
vertex 29.4644 0 23.2288
vertex 39.676 0 23.5856
vertex 39.203 0 25.5897
endloop
endfacet
facet normal 0 -1 0
outer loop
vertex 29.4644 0 23.2288
vertex 39.203 0 25.5897
vertex 38.5265 0 27.5346
endloop
endfacet
facet normal 0.153891 0 -0.988088
outer loop
vertex 22.0564 0 0.106001
vertex 22.0564 5 0.106001
vertex 24.091 0 0.422886
endloop
endfacet
facet normal 0.153891 0 -0.988088
outer loop
vertex 24.091 0 0.422886
vertex 22.0564 5 0.106001
vertex 24.091 5 0.422886
endloop
endfacet
facet normal 0.254671 0 -0.967028
outer loop
vertex 24.091 0 0.422886
vertex 24.091 5 0.422886
vertex 26.0823 0 0.947291
endloop
endfacet
facet normal 0.254671 0 -0.967028
outer loop
vertex 26.0823 0 0.947291
vertex 24.091 5 0.422886
vertex 26.0823 5 0.947291
endloop
endfacet
facet normal 0.352753 0 -0.935717
outer loop
vertex 26.0823 0 0.947291
vertex 26.0823 5 0.947291
vertex 28.0091 0 1.67366
endloop
endfacet
facet normal 0.352753 0 -0.935717
outer loop
vertex 28.0091 0 1.67366
vertex 26.0823 5 0.947291
vertex 28.0091 5 1.67366
endloop
endfacet
facet normal 0.447094 0 -0.894487
outer loop
vertex 28.0091 0 1.67366
vertex 28.0091 5 1.67366
vertex 29.851 0 2.59429
endloop
endfacet
facet normal 0.447094 0 -0.894487
outer loop
vertex 29.851 0 2.59429
vertex 28.0091 5 1.67366
vertex 29.851 5 2.59429
endloop
endfacet
facet normal 0.536696 0 -0.843775
outer loop
vertex 29.851 0 2.59429
vertex 29.851 5 2.59429
vertex 31.5884 0 3.69943
endloop
endfacet
facet normal 0.536696 0 -0.843775
outer loop
vertex 31.5884 0 3.69943
vertex 29.851 5 2.59429
vertex 31.5884 5 3.69943
endloop
endfacet
facet normal 0.620609 0 -0.78412
outer loop
vertex 31.5884 0 3.69943
vertex 31.5884 5 3.69943
vertex 33.203 0 4.97736
endloop
endfacet
facet normal 0.620609 0 -0.78412
outer loop
vertex 33.203 0 4.97736
vertex 31.5884 5 3.69943
vertex 33.203 5 4.97736
endloop
endfacet
facet normal 0.697945 0 -0.716152
outer loop
vertex 33.203 0 4.97736
vertex 33.203 5 4.97736
vertex 34.6777 0 6.41453
endloop
endfacet
facet normal 0.697945 0 -0.716152
outer loop
vertex 34.6777 0 6.41453
vertex 33.203 5 4.97736
vertex 34.6777 5 6.41453
endloop
endfacet
facet normal 0.767881 0 -0.640593
outer loop
vertex 34.6777 0 6.41453
vertex 34.6777 5 6.41453
vertex 35.9968 0 7.99571
endloop
endfacet
facet normal 0.767881 0 -0.640593
outer loop
vertex 35.9968 0 7.99571
vertex 34.6777 5 6.41453
vertex 35.9968 5 7.99571
endloop
endfacet
facet normal 0.829677 0 -0.558244
outer loop
vertex 35.9968 0 7.99571
vertex 35.9968 5 7.99571
vertex 37.1463 0 9.70414
endloop
endfacet
facet normal 0.829677 0 -0.558244
outer loop
vertex 37.1463 0 9.70414
vertex 35.9968 5 7.99571
vertex 37.1463 5 9.70414
endloop
endfacet
facet normal 0.882679 0 -0.469976
outer loop
vertex 37.1463 0 9.70414
vertex 37.1463 5 9.70414
vertex 38.114 0 11.5217
endloop
endfacet
facet normal 0.882679 0 -0.469976
outer loop
vertex 38.114 0 11.5217
vertex 37.1463 5 9.70414
vertex 38.114 5 11.5217
endloop
endfacet
facet normal 0.926324 0 -0.376729
outer loop
vertex 38.114 0 11.5217
vertex 38.114 5 11.5217
vertex 38.8898 0 13.4292
endloop
endfacet
facet normal 0.926324 0 -0.376729
outer loop
vertex 38.8898 0 13.4292
vertex 38.114 5 11.5217
vertex 38.8898 5 13.4292
endloop
endfacet
facet normal 0.96015 0 -0.279484
outer loop
vertex 38.8898 0 13.4292
vertex 38.8898 5 13.4292
vertex 39.4653 0 15.4062
endloop
endfacet
facet normal 0.96015 0 -0.279484
outer loop
vertex 39.4653 0 15.4062
vertex 38.8898 5 13.4292
vertex 39.4653 5 15.4062
endloop
endfacet
facet normal 0.983798 0 -0.179281
outer loop
vertex 39.4653 0 15.4062
vertex 39.4653 5 15.4062
vertex 39.8345 0 17.432
endloop
endfacet
facet normal 0.983798 0 -0.179281
outer loop
vertex 39.8345 0 17.432
vertex 39.4653 5 15.4062
vertex 39.8345 5 17.432
endloop
endfacet
facet normal 0.997018 0 -0.0771739
outer loop
vertex 39.8345 0 17.432
vertex 39.8345 5 17.432
vertex 39.9934 0 19.485
endloop
endfacet
facet normal 0.997018 0 -0.0771739
outer loop
vertex 39.9934 0 19.485
vertex 39.8345 5 17.432
vertex 39.9934 5 19.485
endloop
endfacet
facet normal 0.999668 0 0.0257469
outer loop
vertex 39.9934 0 19.485
vertex 39.9934 5 19.485
vertex 39.9403 0 21.5435
endloop
endfacet
facet normal 0.999668 0 0.0257469
outer loop
vertex 39.9403 0 21.5435
vertex 39.9934 5 19.485
vertex 39.9403 5 21.5435
endloop
endfacet
facet normal 0.991723 0 0.128399
outer loop
vertex 39.9403 0 21.5435
vertex 39.9403 5 21.5435
vertex 39.676 0 23.5856
endloop
endfacet
facet normal 0.991723 0 0.128399
outer loop
vertex 39.676 0 23.5856
vertex 39.9403 5 21.5435
vertex 39.676 5 23.5856
endloop
endfacet
facet normal 0.973264 0 0.229688
outer loop
vertex 39.676 0 23.5856
vertex 39.676 5 23.5856
vertex 39.203 0 25.5897
endloop
endfacet
facet normal 0.973264 0 0.229688
outer loop
vertex 39.203 0 25.5897
vertex 39.676 5 23.5856
vertex 39.203 5 25.5897
endloop
endfacet
facet normal 0.944489 0 0.328542
outer loop
vertex 39.203 0 25.5897
vertex 39.203 5 25.5897
vertex 38.5265 0 27.5346
endloop
endfacet
facet normal 0.944489 0 0.328542
outer loop
vertex 38.5265 0 27.5346
vertex 39.203 5 25.5897
vertex 38.5265 5 27.5346
endloop
endfacet
facet normal 0.905702 0 0.423915
outer loop
vertex 38.5265 0 27.5346
vertex 38.5265 5 27.5346
vertex 37.6536 0 29.3995
endloop
endfacet
facet normal 0.905702 0 0.423915
outer loop
vertex 37.6536 0 29.3995
vertex 38.5265 5 27.5346
vertex 37.6536 5 29.3995
endloop
endfacet
facet normal 0.857315 0 0.514792
outer loop
vertex 37.6536 0 29.3995
vertex 37.6536 5 29.3995
vertex 36.5935 0 31.1649
endloop
endfacet
facet normal 0.857315 0 0.514792
outer loop
vertex 36.5935 0 31.1649
vertex 37.6536 5 29.3995
vertex 36.5935 5 31.1649
endloop
endfacet
facet normal 0.79984 0 0.600213
outer loop
vertex 36.5935 0 31.1649
vertex 36.5935 5 31.1649
vertex 35.3576 0 32.8119
endloop
endfacet
facet normal 0.79984 0 0.600213
outer loop
vertex 35.3576 0 32.8119
vertex 36.5935 5 31.1649
vertex 35.3576 5 32.8119
endloop
endfacet
facet normal 0.733884 0 0.679275
outer loop
vertex 35.3576 0 32.8119
vertex 35.3576 5 32.8119
vertex 33.9589 0 34.323
endloop
endfacet
facet normal 0.733884 0 0.679275
outer loop
vertex 33.9589 0 34.323
vertex 35.3576 5 32.8119
vertex 33.9589 5 34.323
endloop
endfacet
facet normal 0.660152 0 0.751132
outer loop
vertex 33.9589 0 34.323
vertex 33.9589 5 34.323
vertex 32.4122 0 35.6824
endloop
endfacet
facet normal 0.660152 0 0.751132
outer loop
vertex 32.4122 0 35.6824
vertex 33.9589 5 34.323
vertex 32.4122 5 35.6824
endloop
endfacet
facet normal 0.57942 0 0.815029
outer loop
vertex 32.4122 0 35.6824
vertex 32.4122 5 35.6824
vertex 30.7339 0 36.8755
endloop
endfacet
facet normal 0.57942 0 0.815029
outer loop
vertex 30.7339 0 36.8755
vertex 32.4122 5 35.6824
vertex 30.7339 5 36.8755
endloop
endfacet
facet normal 0.492549 0 0.870285
outer loop
vertex 30.7339 0 36.8755
vertex 30.7339 5 36.8755
vertex 28.9419 0 37.8897
endloop
endfacet
facet normal 0.492549 0 0.870285
outer loop
vertex 28.9419 0 37.8897
vertex 30.7339 5 36.8755
vertex 28.9419 5 37.8897
endloop
endfacet
facet normal 0.400453 0 0.916317
outer loop
vertex 28.9419 0 37.8897
vertex 28.9419 5 37.8897
vertex 27.055 0 38.7143
endloop
endfacet
facet normal 0.400453 0 0.916317
outer loop
vertex 27.055 0 38.7143
vertex 28.9419 5 37.8897
vertex 27.055 5 38.7143
endloop
endfacet
facet normal 0.304118 0 0.952635
outer loop
vertex 27.055 0 38.7143
vertex 27.055 5 38.7143
vertex 25.0934 0 39.3406
endloop
endfacet
facet normal 0.304118 0 0.952635
outer loop
vertex 25.0934 0 39.3406
vertex 27.055 5 38.7143
vertex 25.0934 5 39.3406
endloop
endfacet
facet normal 0.204552 0 0.978856
outer loop
vertex 25.0934 0 39.3406
vertex 25.0934 5 39.3406
vertex 23.0778 0 39.7618
endloop
endfacet
facet normal 0.204552 0 0.978856
outer loop
vertex 23.0778 0 39.7618
vertex 25.0934 5 39.3406
vertex 23.0778 5 39.7618
endloop
endfacet
facet normal 0.102821 0 0.9947
outer loop
vertex 23.0778 0 39.7618
vertex 23.0778 5 39.7618
vertex 21.0296 0 39.9735
endloop
endfacet
facet normal 0.102821 0 0.9947
outer loop
vertex 21.0296 0 39.9735
vertex 23.0778 5 39.7618
vertex 21.0296 5 39.9735
endloop
endfacet
facet normal 0 0 1
outer loop
vertex 21.0296 0 39.9735
vertex 21.0296 5 39.9735
vertex 18.9704 0 39.9735
endloop
endfacet
facet normal 0 0 1
outer loop
vertex 18.9704 0 39.9735
vertex 21.0296 5 39.9735
vertex 18.9704 5 39.9735
endloop
endfacet
facet normal -0.102821 0 0.9947
outer loop
vertex 18.9704 0 39.9735
vertex 18.9704 5 39.9735
vertex 16.9222 0 39.7618
endloop
endfacet
facet normal -0.102821 0 0.9947
outer loop
vertex 16.9222 0 39.7618
vertex 18.9704 5 39.9735
vertex 16.9222 5 39.7618
endloop
endfacet
facet normal -0.204552 0 0.978856
outer loop
vertex 16.9222 0 39.7618
vertex 16.9222 5 39.7618
vertex 14.9066 0 39.3406
endloop
endfacet
facet normal -0.204552 0 0.978856
outer loop
vertex 14.9066 0 39.3406
vertex 16.9222 5 39.7618
vertex 14.9066 5 39.3406
endloop
endfacet
facet normal -0.304117 0 0.952635
outer loop
vertex 14.9066 0 39.3406
vertex 14.9066 5 39.3406
vertex 12.945 0 38.7143
endloop
endfacet
facet normal -0.304117 0 0.952635
outer loop
vertex 12.945 0 38.7143
vertex 14.9066 5 39.3406
vertex 12.945 5 38.7143
endloop
endfacet
facet normal -0.400453 0 0.916317
outer loop
vertex 12.945 0 38.7143
vertex 12.945 5 38.7143
vertex 11.0581 0 37.8897
endloop
endfacet
facet normal -0.400453 0 0.916317
outer loop
vertex 11.0581 0 37.8897
vertex 12.945 5 38.7143
vertex 11.0581 5 37.8897
endloop
endfacet
facet normal -0.492549 0 0.870285
outer loop
vertex 11.0581 0 37.8897
vertex 11.0581 5 37.8897
vertex 9.26608 0 36.8755
endloop
endfacet
facet normal -0.492549 0 0.870285
outer loop
vertex 9.26608 0 36.8755
vertex 11.0581 5 37.8897
vertex 9.26608 5 36.8755
endloop
endfacet
facet normal -0.57942 0 0.815029
outer loop
vertex 9.26608 0 36.8755
vertex 9.26608 5 36.8755
vertex 7.58781 0 35.6824
endloop
endfacet
facet normal -0.57942 0 0.815029
outer loop
vertex 7.58781 0 35.6824
vertex 9.26608 5 36.8755
vertex 7.58781 5 35.6824
endloop
endfacet
facet normal -0.660152 0 0.751132
outer loop
vertex 7.58781 0 35.6824
vertex 7.58781 5 35.6824
vertex 6.04112 0 34.323
endloop
endfacet
facet normal -0.660152 0 0.751132
outer loop
vertex 6.04112 0 34.323
vertex 7.58781 5 35.6824
vertex 6.04112 5 34.323
endloop
endfacet
facet normal -0.733885 0 0.679274
outer loop
vertex 6.04112 0 34.323
vertex 6.04112 5 34.323
vertex 4.64239 0 32.8119
endloop
endfacet
facet normal -0.733885 0 0.679274
outer loop
vertex 4.64239 0 32.8119
vertex 6.04112 5 34.323
vertex 4.64239 5 32.8119
endloop
endfacet
facet normal -0.79984 0 0.600213
outer loop
vertex 4.64239 0 32.8119
vertex 4.64239 5 32.8119
vertex 3.40646 0 31.1649
endloop
endfacet
facet normal -0.79984 0 0.600213
outer loop
vertex 3.40646 0 31.1649
vertex 4.64239 5 32.8119
vertex 3.40646 5 31.1649
endloop
endfacet
facet normal -0.857315 0 0.514793
outer loop
vertex 3.40646 0 31.1649
vertex 3.40646 5 31.1649
vertex 2.34642 0 29.3995
endloop
endfacet
facet normal -0.857315 0 0.514793
outer loop
vertex 2.34642 0 29.3995
vertex 3.40646 5 31.1649
vertex 2.34642 5 29.3995
endloop
endfacet
facet normal -0.905702 0 0.423915
outer loop
vertex 2.34642 0 29.3995
vertex 2.34642 5 29.3995
vertex 1.47352 0 27.5346
endloop
endfacet
facet normal -0.905702 0 0.423915
outer loop
vertex 1.47352 0 27.5346
vertex 2.34642 5 29.3995
vertex 1.47352 5 27.5346
endloop
endfacet
facet normal -0.944489 0 0.328542
outer loop
vertex 1.47352 0 27.5346
vertex 1.47352 5 27.5346
vertex 0.797002 0 25.5897
endloop
endfacet
facet normal -0.944489 0 0.328542
outer loop
vertex 0.797002 0 25.5897
vertex 1.47352 5 27.5346
vertex 0.797002 5 25.5897
endloop
endfacet
facet normal -0.973264 0 0.229687
outer loop
vertex 0.797002 0 25.5897
vertex 0.797002 5 25.5897
vertex 0.324041 0 23.5856
endloop
endfacet
facet normal -0.973264 0 0.229687
outer loop
vertex 0.324041 0 23.5856
vertex 0.797002 5 25.5897
vertex 0.324041 5 23.5856
endloop
endfacet
facet normal -0.991723 0 0.128398
outer loop
vertex 0.324041 0 23.5856
vertex 0.324041 5 23.5856
vertex 0.0596493 0 21.5435
endloop
endfacet
facet normal -0.991723 0 0.128398
outer loop
vertex 0.0596493 0 21.5435
vertex 0.324041 5 23.5856
vertex 0.0596493 5 21.5435
endloop
endfacet
facet normal -0.999668 0 0.0257477
outer loop
vertex 0.0596493 0 21.5435
vertex 0.0596493 5 21.5435
vertex 0.00663102 0 19.485
endloop
endfacet
facet normal -0.999668 0 0.0257477
outer loop
vertex 0.00663102 0 19.485
vertex 0.0596493 5 21.5435
vertex 0.00663102 5 19.485
endloop
endfacet
facet normal -0.997018 0 -0.0771752
outer loop
vertex 0.00663102 0 19.485
vertex 0.00663102 5 19.485
vertex 0.165546 0 17.432
endloop
endfacet
facet normal -0.997018 0 -0.0771752
outer loop
vertex 0.165546 0 17.432
vertex 0.00663102 5 19.485
vertex 0.165546 5 17.432
endloop
endfacet
facet normal -0.983798 0 -0.17928
outer loop
vertex 0.165546 0 17.432
vertex 0.165546 5 17.432
vertex 0.534711 0 15.4062
endloop
endfacet
facet normal -0.983798 0 -0.17928
outer loop
vertex 0.534711 0 15.4062
vertex 0.165546 5 17.432
vertex 0.534711 5 15.4062
endloop
endfacet
facet normal -0.96015 0 -0.279486
outer loop
vertex 0.534711 0 15.4062
vertex 0.534711 5 15.4062
vertex 1.11021 0 13.4292
endloop
endfacet
facet normal -0.96015 0 -0.279486
outer loop
vertex 1.11021 0 13.4292
vertex 0.534711 5 15.4062
vertex 1.11021 5 13.4292
endloop
endfacet
facet normal -0.926324 0 -0.376728
outer loop
vertex 1.11021 0 13.4292
vertex 1.11021 5 13.4292
vertex 1.88595 0 11.5217
endloop
endfacet
facet normal -0.926324 0 -0.376728
outer loop
vertex 1.88595 0 11.5217
vertex 1.11021 5 13.4292
vertex 1.88595 5 11.5217
endloop
endfacet
facet normal -0.882679 0 -0.469976
outer loop
vertex 1.88595 0 11.5217
vertex 1.88595 5 11.5217
vertex 2.85371 0 9.70414
endloop
endfacet
facet normal -0.882679 0 -0.469976
outer loop
vertex 2.85371 0 9.70414
vertex 1.88595 5 11.5217
vertex 2.85371 5 9.70414
endloop
endfacet
facet normal -0.829677 0 -0.558244
outer loop
vertex 2.85371 0 9.70414
vertex 2.85371 5 9.70414
vertex 4.00322 0 7.99571
endloop
endfacet
facet normal -0.829677 0 -0.558244
outer loop
vertex 4.00322 0 7.99571
vertex 2.85371 5 9.70414
vertex 4.00322 5 7.99571
endloop
endfacet
facet normal -0.767881 0 -0.640593
outer loop
vertex 4.00322 0 7.99571
vertex 4.00322 5 7.99571
vertex 5.32229 0 6.41453
endloop
endfacet
facet normal -0.767881 0 -0.640593
outer loop
vertex 5.32229 0 6.41453
vertex 4.00322 5 7.99571
vertex 5.32229 5 6.41453
endloop
endfacet
facet normal -0.697944 0 -0.716152
outer loop
vertex 5.32229 0 6.41453
vertex 5.32229 5 6.41453
vertex 6.79696 0 4.97736
endloop
endfacet
facet normal -0.697944 0 -0.716152
outer loop
vertex 6.79696 0 4.97736
vertex 5.32229 5 6.41453
vertex 6.79696 5 4.97736
endloop
endfacet
facet normal -0.620609 0 -0.78412
outer loop
vertex 6.79696 0 4.97736
vertex 6.79696 5 4.97736
vertex 8.41158 0 3.69943
endloop
endfacet
facet normal -0.620609 0 -0.78412
outer loop
vertex 8.41158 0 3.69943
vertex 6.79696 5 4.97736
vertex 8.41158 5 3.69943
endloop
endfacet
facet normal -0.536697 0 -0.843775
outer loop
vertex 8.41158 0 3.69943
vertex 8.41158 5 3.69943
vertex 10.149 0 2.59429
endloop
endfacet
facet normal -0.536697 0 -0.843775
outer loop
vertex 10.149 0 2.59429
vertex 8.41158 5 3.69943
vertex 10.149 5 2.59429
endloop
endfacet
facet normal -0.447094 0 -0.894487
outer loop
vertex 10.149 0 2.59429
vertex 10.149 5 2.59429
vertex 11.9909 0 1.67366
endloop
endfacet
facet normal -0.447094 0 -0.894487
outer loop
vertex 11.9909 0 1.67366
vertex 10.149 5 2.59429
vertex 11.9909 5 1.67366
endloop
endfacet
facet normal -0.352752 0 -0.935717
outer loop
vertex 11.9909 0 1.67366
vertex 11.9909 5 1.67366
vertex 13.9177 0 0.947291
endloop
endfacet
facet normal -0.352752 0 -0.935717
outer loop
vertex 13.9177 0 0.947291
vertex 11.9909 5 1.67366
vertex 13.9177 5 0.947291
endloop
endfacet
facet normal -0.254671 0 -0.967028
outer loop
vertex 13.9177 0 0.947291
vertex 13.9177 5 0.947291
vertex 15.909 0 0.422886
endloop
endfacet
facet normal -0.254671 0 -0.967028
outer loop
vertex 15.909 0 0.422886
vertex 13.9177 5 0.947291
vertex 15.909 5 0.422886
endloop
endfacet
facet normal -0.153891 0 -0.988088
outer loop
vertex 15.909 0 0.422886
vertex 15.909 5 0.422886
vertex 17.9436 0 0.106001
endloop
endfacet
facet normal -0.153891 0 -0.988088
outer loop
vertex 17.9436 0 0.106001
vertex 15.909 5 0.422886
vertex 17.9436 5 0.106001
endloop
endfacet
facet normal -0.0514782 0 -0.998674
outer loop
vertex 17.9436 0 0.106001
vertex 17.9436 5 0.106001
vertex 20 0 0
endloop
endfacet
facet normal -0.0514782 0 -0.998674
outer loop
vertex 20 0 0
vertex 17.9436 5 0.106001
vertex 20 5 0
endloop
endfacet
facet normal 0.0514782 0 -0.998674
outer loop
vertex 20 0 0
vertex 20 5 0
vertex 22.0564 0 0.106001
endloop
endfacet
facet normal 0.0514782 0 -0.998674
outer loop
vertex 22.0564 0 0.106001
vertex 20 5 0
vertex 22.0564 5 0.106001
endloop
endfacet
facet normal -0.217431 0 0.976076
outer loop
vertex 21.456 5 10.1066
vertex 21.456 0 10.1066
vertex 22.881 5 10.424
endloop
endfacet
facet normal -0.217431 0 0.976076
outer loop
vertex 22.881 5 10.424
vertex 21.456 0 10.1066
vertex 22.881 0 10.424
endloop
endfacet
facet normal -0.357231 0 0.934016
outer loop
vertex 22.881 5 10.424
vertex 22.881 0 10.424
vertex 24.2446 5 10.9455
endloop
endfacet
facet normal -0.357231 0 0.934016
outer loop
vertex 24.2446 5 10.9455
vertex 22.881 0 10.424
vertex 24.2446 0 10.9455
endloop
endfacet
facet normal -0.489418 0 0.872049
outer loop
vertex 24.2446 5 10.9455
vertex 24.2446 0 10.9455
vertex 25.5177 5 11.66
endloop
endfacet
facet normal -0.489418 0 0.872049
outer loop
vertex 25.5177 5 11.66
vertex 24.2446 0 10.9455
vertex 25.5177 0 11.66
endloop
endfacet
facet normal -0.611173 0 0.791497
outer loop
vertex 25.5177 5 11.66
vertex 25.5177 0 11.66
vertex 26.6732 5 12.5523
endloop
endfacet
facet normal -0.611173 0 0.791497
outer loop
vertex 26.6732 5 12.5523
vertex 25.5177 0 11.66
vertex 26.6732 0 12.5523
endloop
endfacet
facet normal -0.719903 0 0.694075
outer loop
vertex 26.6732 5 12.5523
vertex 26.6732 0 12.5523
vertex 27.6865 5 13.6033
endloop
endfacet
facet normal -0.719903 0 0.694075
outer loop
vertex 27.6865 5 13.6033
vertex 26.6732 0 12.5523
vertex 27.6865 0 13.6033
endloop
endfacet
facet normal -0.81329 0 0.581859
outer loop
vertex 27.6865 5 13.6033
vertex 27.6865 0 13.6033
vertex 28.5359 5 14.7906
endloop
endfacet
facet normal -0.81329 0 0.581859
outer loop
vertex 28.5359 5 14.7906
vertex 27.6865 0 13.6033
vertex 28.5359 0 14.7906
endloop
endfacet
facet normal -0.889342 0 0.457242
outer loop
vertex 28.5359 5 14.7906
vertex 28.5359 0 14.7906
vertex 29.2035 5 16.089
endloop
endfacet
facet normal -0.889342 0 0.457242
outer loop
vertex 29.2035 5 16.089
vertex 28.5359 0 14.7906
vertex 29.2035 0 16.089
endloop
endfacet
facet normal -0.94644 0 0.32288
outer loop
vertex 29.2035 5 16.089
vertex 29.2035 0 16.089
vertex 29.6748 5 17.4707
endloop
endfacet
facet normal -0.94644 0 0.32288
outer loop
vertex 29.6748 5 17.4707
vertex 29.2035 0 16.089
vertex 29.6748 0 17.4707
endloop
endfacet
facet normal -0.983365 0 0.181638
outer loop
vertex 29.6748 5 17.4707
vertex 29.6748 0 17.4707
vertex 29.94 5 18.9063
endloop
endfacet
facet normal -0.983365 0 0.181638
outer loop
vertex 29.94 5 18.9063
vertex 29.6748 0 17.4707
vertex 29.94 0 18.9063
endloop
endfacet
facet normal -0.999333 0 0.0365229
outer loop
vertex 29.94 5 18.9063
vertex 29.94 0 18.9063
vertex 29.9933 5 20.3652
endloop
endfacet
facet normal -0.999333 0 0.0365229
outer loop
vertex 29.9933 5 20.3652
vertex 29.94 0 18.9063
vertex 29.9933 0 20.3652
endloop
endfacet
facet normal -0.994001 0 -0.109372
outer loop
vertex 29.9933 5 20.3652
vertex 29.9933 0 20.3652
vertex 29.8337 5 21.8164
endloop
endfacet
facet normal -0.994001 0 -0.109372
outer loop
vertex 29.8337 5 21.8164
vertex 29.9933 0 20.3652
vertex 29.8337 0 21.8164
endloop
endfacet
facet normal -0.967484 0 -0.252933
outer loop
vertex 29.8337 5 21.8164
vertex 29.8337 0 21.8164
vertex 29.4644 5 23.2288
endloop
endfacet
facet normal -0.967484 0 -0.252933
outer loop
vertex 29.4644 5 23.2288
vertex 29.8337 0 21.8164
vertex 29.4644 0 23.2288
endloop
endfacet
facet normal -0.920347 0 -0.391104
outer loop
vertex 29.4644 5 23.2288
vertex 29.4644 0 23.2288
vertex 28.8934 5 24.5724
endloop
endfacet
facet normal -0.920347 0 -0.391104
outer loop
vertex 28.8934 5 24.5724
vertex 29.4644 0 23.2288
vertex 28.8934 0 24.5724
endloop
endfacet
facet normal -0.853592 0 -0.520942
outer loop
vertex 28.8934 5 24.5724
vertex 28.8934 0 24.5724
vertex 28.1329 5 25.8186
endloop
endfacet
facet normal -0.853592 0 -0.520942
outer loop
vertex 28.1329 5 25.8186
vertex 28.8934 0 24.5724
vertex 28.1329 0 25.8186
endloop
endfacet
facet normal -0.768647 0 -0.639673
outer loop
vertex 28.1329 5 25.8186
vertex 28.1329 0 25.8186
vertex 27.199 5 26.9407
endloop
endfacet
facet normal -0.768647 0 -0.639673
outer loop
vertex 27.199 5 26.9407
vertex 28.1329 0 25.8186
vertex 27.199 0 26.9407
endloop
endfacet
facet normal -0.667319 0 -0.744772
outer loop
vertex 27.199 5 26.9407
vertex 27.199 0 26.9407
vertex 26.1117 5 27.915
endloop
endfacet
facet normal -0.667319 0 -0.744772
outer loop
vertex 26.1117 5 27.915
vertex 27.199 0 26.9407
vertex 26.1117 0 27.915
endloop
endfacet
facet normal -0.55177 0 -0.833997
outer loop
vertex 26.1117 5 27.915
vertex 26.1117 0 27.915
vertex 24.8942 5 28.7205
endloop
endfacet
facet normal -0.55177 0 -0.833997
outer loop
vertex 24.8942 5 28.7205
vertex 26.1117 0 27.915
vertex 24.8942 0 28.7205
endloop
endfacet
facet normal -0.424456 0 -0.905449
outer loop
vertex 24.8942 5 28.7205
vertex 24.8942 0 28.7205
vertex 23.5723 5 29.3402
endloop
endfacet
facet normal -0.424456 0 -0.905449
outer loop
vertex 23.5723 5 29.3402
vertex 24.8942 0 28.7205
vertex 23.5723 0 29.3402
endloop
endfacet
facet normal -0.2881 0 -0.9576
outer loop
vertex 23.5723 5 29.3402
vertex 23.5723 0 29.3402
vertex 22.1743 5 29.7608
endloop
endfacet
facet normal -0.2881 0 -0.9576
outer loop
vertex 22.1743 5 29.7608
vertex 23.5723 0 29.3402
vertex 22.1743 0 29.7608
endloop
endfacet
facet normal -0.1456 0 -0.989343
outer loop
vertex 22.1743 5 29.7608
vertex 22.1743 0 29.7608
vertex 20.73 5 29.9733
endloop
endfacet
facet normal -0.1456 0 -0.989343
outer loop
vertex 20.73 5 29.9733
vertex 22.1743 0 29.7608
vertex 20.73 0 29.9733
endloop
endfacet
facet normal 0 0 -1
outer loop
vertex 20.73 5 29.9733
vertex 20.73 0 29.9733
vertex 19.27 5 29.9733
endloop
endfacet
facet normal 0 0 -1
outer loop
vertex 19.27 5 29.9733
vertex 20.73 0 29.9733
vertex 19.27 0 29.9733
endloop
endfacet
facet normal 0.1456 0 -0.989343
outer loop
vertex 19.27 5 29.9733
vertex 19.27 0 29.9733
vertex 17.8257 5 29.7608
endloop
endfacet
facet normal 0.1456 0 -0.989343
outer loop
vertex 17.8257 5 29.7608
vertex 19.27 0 29.9733
vertex 17.8257 0 29.7608
endloop
endfacet
facet normal 0.2881 0 -0.9576
outer loop
vertex 17.8257 5 29.7608
vertex 17.8257 0 29.7608
vertex 16.4277 5 29.3402
endloop
endfacet
facet normal 0.2881 0 -0.9576
outer loop
vertex 16.4277 5 29.3402
vertex 17.8257 0 29.7608
vertex 16.4277 0 29.3402
endloop
endfacet
facet normal 0.424456 0 -0.905449
outer loop
vertex 16.4277 5 29.3402
vertex 16.4277 0 29.3402
vertex 15.1058 5 28.7205
endloop
endfacet
facet normal 0.424456 0 -0.905449
outer loop
vertex 15.1058 5 28.7205
vertex 16.4277 0 29.3402
vertex 15.1058 0 28.7205
endloop
endfacet
facet normal 0.551769 0 -0.833997
outer loop
vertex 15.1058 5 28.7205
vertex 15.1058 0 28.7205
vertex 13.8883 5 27.915
endloop
endfacet
facet normal 0.551769 0 -0.833997
outer loop
vertex 13.8883 5 27.915
vertex 15.1058 0 28.7205
vertex 13.8883 0 27.915
endloop
endfacet
facet normal 0.667319 0 -0.744772
outer loop
vertex 13.8883 5 27.915
vertex 13.8883 0 27.915
vertex 12.801 5 26.9407
endloop
endfacet
facet normal 0.667319 0 -0.744772
outer loop
vertex 12.801 5 26.9407
vertex 13.8883 0 27.915
vertex 12.801 0 26.9407
endloop
endfacet
facet normal 0.768647 0 -0.639673
outer loop
vertex 12.801 5 26.9407
vertex 12.801 0 26.9407
vertex 11.8671 5 25.8186
endloop
endfacet
facet normal 0.768647 0 -0.639673
outer loop
vertex 11.8671 5 25.8186
vertex 12.801 0 26.9407
vertex 11.8671 0 25.8186
endloop
endfacet
facet normal 0.853593 0 -0.520941
outer loop
vertex 11.8671 5 25.8186
vertex 11.8671 0 25.8186
vertex 11.1066 5 24.5724
endloop
endfacet
facet normal 0.853593 0 -0.520941
outer loop
vertex 11.1066 5 24.5724
vertex 11.8671 0 25.8186
vertex 11.1066 0 24.5724
endloop
endfacet
facet normal 0.920346 0 -0.391105
outer loop
vertex 11.1066 5 24.5724
vertex 11.1066 0 24.5724
vertex 10.5356 5 23.2288
endloop
endfacet
facet normal 0.920346 0 -0.391105
outer loop
vertex 10.5356 5 23.2288
vertex 11.1066 0 24.5724
vertex 10.5356 0 23.2288
endloop
endfacet
facet normal 0.967484 0 -0.252933
outer loop
vertex 10.5356 5 23.2288
vertex 10.5356 0 23.2288
vertex 10.1663 5 21.8164
endloop
endfacet
facet normal 0.967484 0 -0.252933
outer loop
vertex 10.1663 5 21.8164
vertex 10.5356 0 23.2288
vertex 10.1663 0 21.8164
endloop
endfacet
facet normal 0.994001 0 -0.109371
outer loop
vertex 10.1663 5 21.8164
vertex 10.1663 0 21.8164
vertex 10.0067 5 20.3652
endloop
endfacet
facet normal 0.994001 0 -0.109371
outer loop
vertex 10.0067 5 20.3652
vertex 10.1663 0 21.8164
vertex 10.0067 0 20.3652
endloop
endfacet
facet normal 0.999333 0 0.0365222
outer loop
vertex 10.0067 5 20.3652
vertex 10.0067 0 20.3652
vertex 10.06 5 18.9063
endloop
endfacet
facet normal 0.999333 0 0.0365222
outer loop
vertex 10.06 5 18.9063
vertex 10.0067 0 20.3652
vertex 10.06 0 18.9063
endloop
endfacet
facet normal 0.983366 0 0.181637
outer loop
vertex 10.06 5 18.9063
vertex 10.06 0 18.9063
vertex 10.3252 5 17.4707
endloop
endfacet
facet normal 0.983366 0 0.181637
outer loop
vertex 10.3252 5 17.4707
vertex 10.06 0 18.9063
vertex 10.3252 0 17.4707
endloop
endfacet
facet normal 0.94644 0 0.32288
outer loop
vertex 10.3252 5 17.4707
vertex 10.3252 0 17.4707
vertex 10.7965 5 16.089
endloop
endfacet
facet normal 0.94644 0 0.32288
outer loop
vertex 10.7965 5 16.089
vertex 10.3252 0 17.4707
vertex 10.7965 0 16.089
endloop
endfacet
facet normal 0.889342 0 0.457243
outer loop
vertex 10.7965 5 16.089
vertex 10.7965 0 16.089
vertex 11.4641 5 14.7906
endloop
endfacet
facet normal 0.889342 0 0.457243
outer loop
vertex 11.4641 5 14.7906
vertex 10.7965 0 16.089
vertex 11.4641 0 14.7906
endloop
endfacet
facet normal 0.81329 0 0.581859
outer loop
vertex 11.4641 5 14.7906
vertex 11.4641 0 14.7906
vertex 12.3135 5 13.6033
endloop
endfacet
facet normal 0.81329 0 0.581859
outer loop
vertex 12.3135 5 13.6033
vertex 11.4641 0 14.7906
vertex 12.3135 0 13.6033
endloop
endfacet
facet normal 0.719903 0 0.694075
outer loop
vertex 12.3135 5 13.6033
vertex 12.3135 0 13.6033
vertex 13.3268 5 12.5523
endloop
endfacet
facet normal 0.719903 0 0.694075
outer loop
vertex 13.3268 5 12.5523
vertex 12.3135 0 13.6033
vertex 13.3268 0 12.5523
endloop
endfacet
facet normal 0.611174 0 0.791496
outer loop
vertex 13.3268 5 12.5523
vertex 13.3268 0 12.5523
vertex 14.4823 5 11.66
endloop
endfacet
facet normal 0.611174 0 0.791496
outer loop
vertex 14.4823 5 11.66
vertex 13.3268 0 12.5523
vertex 14.4823 0 11.66
endloop
endfacet
facet normal 0.489417 0 0.87205
outer loop
vertex 14.4823 5 11.66
vertex 14.4823 0 11.66
vertex 15.7554 5 10.9455
endloop
endfacet
facet normal 0.489417 0 0.87205
outer loop
vertex 15.7554 5 10.9455
vertex 14.4823 0 11.66
vertex 15.7554 0 10.9455
endloop
endfacet
facet normal 0.357231 0 0.934016
outer loop
vertex 15.7554 5 10.9455
vertex 15.7554 0 10.9455
vertex 17.119 5 10.424
endloop
endfacet
facet normal 0.357231 0 0.934016
outer loop
vertex 17.119 5 10.424
vertex 15.7554 0 10.9455
vertex 17.119 0 10.424
endloop
endfacet
facet normal 0.217431 0 0.976076
outer loop
vertex 17.119 5 10.424
vertex 17.119 0 10.424
vertex 18.544 5 10.1066
endloop
endfacet
facet normal 0.217431 0 0.976076
outer loop
vertex 18.544 5 10.1066
vertex 17.119 0 10.424
vertex 18.544 0 10.1066
endloop
endfacet
facet normal 0.0729948 0 0.997332
outer loop
vertex 18.544 5 10.1066
vertex 18.544 0 10.1066
vertex 20 5 10
endloop
endfacet
facet normal 0.0729948 0 0.997332
outer loop
vertex 20 5 10
vertex 18.544 0 10.1066
vertex 20 0 10
endloop
endfacet
facet normal -0.0729948 0 0.997332
outer loop
vertex 20 5 10
vertex 20 0 10
vertex 21.456 5 10.1066
endloop
endfacet
facet normal -0.0729948 0 0.997332
outer loop
vertex 21.456 5 10.1066
vertex 20 0 10
vertex 21.456 0 10.1066
endloop
endfacet
facet normal 0 1 0
outer loop
vertex 17.8257 5 29.7608
vertex 16.9222 5 39.7618
vertex 19.27 5 29.9733
endloop
endfacet
facet normal 0 1 0
outer loop
vertex 19.27 5 29.9733
vertex 16.9222 5 39.7618
vertex 18.9704 5 39.9735
endloop
endfacet
facet normal 0 1 0
outer loop
vertex 19.27 5 29.9733
vertex 18.9704 5 39.9735
vertex 20.73 5 29.9733
endloop
endfacet
facet normal 0 1 0
outer loop
vertex 28.8934 5 24.5724
vertex 38.5265 5 27.5346
vertex 29.4644 5 23.2288
endloop
endfacet
facet normal 0 1 0
outer loop
vertex 29.4644 5 23.2288
vertex 38.5265 5 27.5346
vertex 39.203 5 25.5897
endloop
endfacet
facet normal 0 1 0
outer loop
vertex 29.4644 5 23.2288
vertex 39.203 5 25.5897
vertex 29.8337 5 21.8164
endloop
endfacet
facet normal 0 1 0
outer loop
vertex 29.8337 5 21.8164
vertex 39.203 5 25.5897
vertex 39.676 5 23.5856
endloop
endfacet
facet normal 0 1 0
outer loop
vertex 29.8337 5 21.8164
vertex 39.676 5 23.5856
vertex 29.9933 5 20.3652
endloop
endfacet
facet normal 0 1 0
outer loop
vertex 13.8883 5 27.915
vertex 9.26608 5 36.8755
vertex 15.1058 5 28.7205
endloop
endfacet
facet normal 0 1 0
outer loop
vertex 15.1058 5 28.7205
vertex 9.26608 5 36.8755
vertex 11.0581 5 37.8897
endloop
endfacet
facet normal 0 1 0
outer loop
vertex 15.1058 5 28.7205
vertex 11.0581 5 37.8897
vertex 16.4277 5 29.3402
endloop
endfacet
facet normal 0 1 0
outer loop
vertex 16.4277 5 29.3402
vertex 11.0581 5 37.8897
vertex 12.945 5 38.7143
endloop
endfacet
facet normal 0 1 0
outer loop
vertex 16.4277 5 29.3402
vertex 12.945 5 38.7143
vertex 17.8257 5 29.7608
endloop
endfacet
facet normal 0 1 0
outer loop
vertex 17.8257 5 29.7608
vertex 12.945 5 38.7143
vertex 14.9066 5 39.3406
endloop
endfacet
facet normal 0 1 0
outer loop
vertex 17.8257 5 29.7608
vertex 14.9066 5 39.3406
vertex 16.9222 5 39.7618
endloop
endfacet
facet normal 0 1 0
outer loop
vertex 24.8942 5 28.7205
vertex 30.7339 5 36.8755
vertex 26.1117 5 27.915
endloop
endfacet
facet normal 0 1 0
outer loop
vertex 26.1117 5 27.915
vertex 30.7339 5 36.8755
vertex 32.4122 5 35.6824
endloop
endfacet
facet normal 0 1 0
outer loop
vertex 26.1117 5 27.915
vertex 32.4122 5 35.6824
vertex 27.199 5 26.9407
endloop
endfacet
facet normal 0 1 0
outer loop
vertex 18.9704 5 39.9735
vertex 21.0296 5 39.9735
vertex 20.73 5 29.9733
endloop
endfacet
facet normal 0 1 0
outer loop
vertex 20.73 5 29.9733
vertex 21.0296 5 39.9735
vertex 23.0778 5 39.7618
endloop
endfacet
facet normal 0 1 0
outer loop
vertex 20.73 5 29.9733
vertex 23.0778 5 39.7618
vertex 22.1743 5 29.7608
endloop
endfacet
facet normal 0 1 0
outer loop
vertex 22.1743 5 29.7608
vertex 23.0778 5 39.7618
vertex 25.0934 5 39.3406
endloop
endfacet
facet normal 0 1 0
outer loop
vertex 22.1743 5 29.7608
vertex 25.0934 5 39.3406
vertex 23.5723 5 29.3402
endloop
endfacet
facet normal 0 1 0
outer loop
vertex 23.5723 5 29.3402
vertex 25.0934 5 39.3406
vertex 27.055 5 38.7143
endloop
endfacet
facet normal 0 1 0
outer loop
vertex 23.5723 5 29.3402
vertex 27.055 5 38.7143
vertex 24.8942 5 28.7205
endloop
endfacet
facet normal 0 1 0
outer loop
vertex 24.8942 5 28.7205
vertex 27.055 5 38.7143
vertex 28.9419 5 37.8897
endloop
endfacet
facet normal 0 1 0
outer loop
vertex 24.8942 5 28.7205
vertex 28.9419 5 37.8897
vertex 30.7339 5 36.8755
endloop
endfacet
facet normal 0 1 0
outer loop
vertex 11.8671 5 25.8186
vertex 4.64239 5 32.8119
vertex 12.801 5 26.9407
endloop
endfacet
facet normal 0 1 0
outer loop
vertex 12.801 5 26.9407
vertex 4.64239 5 32.8119
vertex 6.04112 5 34.323
endloop
endfacet
facet normal 0 1 0
outer loop
vertex 12.801 5 26.9407
vertex 6.04112 5 34.323
vertex 13.8883 5 27.915
endloop
endfacet
facet normal 0 1 0
outer loop
vertex 13.8883 5 27.915
vertex 6.04112 5 34.323
vertex 7.58781 5 35.6824
endloop
endfacet
facet normal 0 1 0
outer loop
vertex 13.8883 5 27.915
vertex 7.58781 5 35.6824
vertex 9.26608 5 36.8755
endloop
endfacet
facet normal 0 1 0
outer loop
vertex 39.676 5 23.5856
vertex 39.9403 5 21.5435
vertex 29.9933 5 20.3652
endloop
endfacet
facet normal 0 1 0
outer loop
vertex 29.9933 5 20.3652
vertex 39.9403 5 21.5435
vertex 39.9934 5 19.485
endloop
endfacet
facet normal 0 1 0
outer loop
vertex 29.9933 5 20.3652
vertex 39.9934 5 19.485
vertex 29.94 5 18.9063
endloop
endfacet
facet normal 0 1 0
outer loop
vertex 29.94 5 18.9063
vertex 39.9934 5 19.485
vertex 39.8345 5 17.432
endloop
endfacet
facet normal 0 1 0
outer loop
vertex 29.94 5 18.9063
vertex 39.8345 5 17.432
vertex 29.6748 5 17.4707
endloop
endfacet
facet normal 0 1 0
outer loop
vertex 32.4122 5 35.6824
vertex 33.9589 5 34.323
vertex 27.199 5 26.9407
endloop
endfacet
facet normal 0 1 0
outer loop
vertex 27.199 5 26.9407
vertex 33.9589 5 34.323
vertex 35.3576 5 32.8119
endloop
endfacet
facet normal 0 1 0
outer loop
vertex 27.199 5 26.9407
vertex 35.3576 5 32.8119
vertex 28.1329 5 25.8186
endloop
endfacet
facet normal 0 1 0
outer loop
vertex 28.1329 5 25.8186
vertex 35.3576 5 32.8119
vertex 36.5935 5 31.1649
endloop
endfacet
facet normal 0 1 0
outer loop
vertex 28.1329 5 25.8186
vertex 36.5935 5 31.1649
vertex 28.8934 5 24.5724
endloop
endfacet
facet normal 0 1 0
outer loop
vertex 28.8934 5 24.5724
vertex 36.5935 5 31.1649
vertex 37.6536 5 29.3995
endloop
endfacet
facet normal 0 1 0
outer loop
vertex 28.8934 5 24.5724
vertex 37.6536 5 29.3995
vertex 38.5265 5 27.5346
endloop
endfacet
facet normal 0 1 0
outer loop
vertex 10.5356 5 23.2288
vertex 1.47352 5 27.5346
vertex 11.1066 5 24.5724
endloop
endfacet
facet normal 0 1 0
outer loop
vertex 11.1066 5 24.5724
vertex 1.47352 5 27.5346
vertex 2.34642 5 29.3995
endloop
endfacet
facet normal 0 1 0
outer loop
vertex 11.1066 5 24.5724
vertex 2.34642 5 29.3995
vertex 11.8671 5 25.8186
endloop
endfacet
facet normal 0 1 0
outer loop
vertex 11.8671 5 25.8186
vertex 2.34642 5 29.3995
vertex 3.40646 5 31.1649
endloop
endfacet
facet normal 0 1 0
outer loop
vertex 11.8671 5 25.8186
vertex 3.40646 5 31.1649
vertex 4.64239 5 32.8119
endloop
endfacet
facet normal 0 1 0
outer loop
vertex 10.06 5 18.9063
vertex 0.00663102 5 19.485
vertex 10.0067 5 20.3652
endloop
endfacet
facet normal 0 1 0
outer loop
vertex 10.0067 5 20.3652
vertex 0.00663102 5 19.485
vertex 0.0596493 5 21.5435
endloop
endfacet
facet normal 0 1 0
outer loop
vertex 10.0067 5 20.3652
vertex 0.0596493 5 21.5435
vertex 10.1663 5 21.8164
endloop
endfacet
facet normal 0 1 0
outer loop
vertex 10.1663 5 21.8164
vertex 0.0596493 5 21.5435
vertex 0.324041 5 23.5856
endloop
endfacet
facet normal 0 1 0
outer loop
vertex 10.1663 5 21.8164
vertex 0.324041 5 23.5856
vertex 10.5356 5 23.2288
endloop
endfacet
facet normal 0 1 0
outer loop
vertex 10.5356 5 23.2288
vertex 0.324041 5 23.5856
vertex 0.797002 5 25.5897
endloop
endfacet
facet normal 0 1 0
outer loop
vertex 10.5356 5 23.2288
vertex 0.797002 5 25.5897
vertex 1.47352 5 27.5346
endloop
endfacet
facet normal 0 1 0
outer loop
vertex 10.7965 5 16.089
vertex 1.11021 5 13.4292
vertex 10.3252 5 17.4707
endloop
endfacet
facet normal 0 1 0
outer loop
vertex 10.3252 5 17.4707
vertex 1.11021 5 13.4292
vertex 0.534711 5 15.4062
endloop
endfacet
facet normal 0 1 0
outer loop
vertex 10.3252 5 17.4707
vertex 0.534711 5 15.4062
vertex 10.06 5 18.9063
endloop
endfacet
facet normal 0 1 0
outer loop
vertex 10.06 5 18.9063
vertex 0.534711 5 15.4062
vertex 0.165546 5 17.432
endloop
endfacet
facet normal 0 1 0
outer loop
vertex 10.06 5 18.9063
vertex 0.165546 5 17.432
vertex 0.00663102 5 19.485
endloop
endfacet
facet normal 0 1 0
outer loop
vertex 39.8345 5 17.432
vertex 39.4653 5 15.4062
vertex 29.6748 5 17.4707
endloop
endfacet
facet normal 0 1 0
outer loop
vertex 29.6748 5 17.4707
vertex 39.4653 5 15.4062
vertex 38.8898 5 13.4292
endloop
endfacet
facet normal 0 1 0
outer loop
vertex 29.6748 5 17.4707
vertex 38.8898 5 13.4292
vertex 29.2035 5 16.089
endloop
endfacet
facet normal 0 1 0
outer loop
vertex 29.2035 5 16.089
vertex 38.8898 5 13.4292
vertex 38.114 5 11.5217
endloop
endfacet
facet normal 0 1 0
outer loop
vertex 29.2035 5 16.089
vertex 38.114 5 11.5217
vertex 28.5359 5 14.7906
endloop
endfacet
facet normal 0 1 0
outer loop
vertex 28.5359 5 14.7906
vertex 38.114 5 11.5217
vertex 37.1463 5 9.70414
endloop
endfacet
facet normal 0 1 0
outer loop
vertex 28.5359 5 14.7906
vertex 37.1463 5 9.70414
vertex 27.6865 5 13.6033
endloop
endfacet
facet normal 0 1 0
outer loop
vertex 13.3268 5 12.5523
vertex 5.32229 5 6.41453
vertex 12.3135 5 13.6033
endloop
endfacet
facet normal 0 1 0
outer loop
vertex 12.3135 5 13.6033
vertex 5.32229 5 6.41453
vertex 4.00322 5 7.99571
endloop
endfacet
facet normal 0 1 0
outer loop
vertex 12.3135 5 13.6033
vertex 4.00322 5 7.99571
vertex 11.4641 5 14.7906
endloop
endfacet
facet normal 0 1 0
outer loop
vertex 11.4641 5 14.7906
vertex 4.00322 5 7.99571
vertex 2.85371 5 9.70414
endloop
endfacet
facet normal 0 1 0
outer loop
vertex 11.4641 5 14.7906
vertex 2.85371 5 9.70414
vertex 10.7965 5 16.089
endloop
endfacet
facet normal 0 1 0
outer loop
vertex 10.7965 5 16.089
vertex 2.85371 5 9.70414
vertex 1.88595 5 11.5217
endloop
endfacet
facet normal 0 1 0
outer loop
vertex 10.7965 5 16.089
vertex 1.88595 5 11.5217
vertex 1.11021 5 13.4292
endloop
endfacet
facet normal 0 1 0
outer loop
vertex 22.881 5 10.424
vertex 24.091 5 0.422886
vertex 21.456 5 10.1066
endloop
endfacet
facet normal 0 1 0
outer loop
vertex 21.456 5 10.1066
vertex 24.091 5 0.422886
vertex 22.0564 5 0.106001
endloop
endfacet
facet normal 0 1 0
outer loop
vertex 21.456 5 10.1066
vertex 22.0564 5 0.106001
vertex 20 5 10
endloop
endfacet
facet normal 0 1 0
outer loop
vertex 20 5 10
vertex 22.0564 5 0.106001
vertex 20 5 0
endloop
endfacet
facet normal 0 1 0
outer loop
vertex 20 5 10
vertex 20 5 0
vertex 18.544 5 10.1066
endloop
endfacet
facet normal 0 1 0
outer loop
vertex 15.7554 5 10.9455
vertex 10.149 5 2.59429
vertex 14.4823 5 11.66
endloop
endfacet
facet normal 0 1 0
outer loop
vertex 14.4823 5 11.66
vertex 10.149 5 2.59429
vertex 8.41158 5 3.69943
endloop
endfacet
facet normal 0 1 0
outer loop
vertex 14.4823 5 11.66
vertex 8.41158 5 3.69943
vertex 13.3268 5 12.5523
endloop
endfacet
facet normal 0 1 0
outer loop
vertex 13.3268 5 12.5523
vertex 8.41158 5 3.69943
vertex 6.79696 5 4.97736
endloop
endfacet
facet normal 0 1 0
outer loop
vertex 13.3268 5 12.5523
vertex 6.79696 5 4.97736
vertex 5.32229 5 6.41453
endloop
endfacet
facet normal 0 1 0
outer loop
vertex 20 5 0
vertex 17.9436 5 0.106001
vertex 18.544 5 10.1066
endloop
endfacet
facet normal 0 1 0
outer loop
vertex 18.544 5 10.1066
vertex 17.9436 5 0.106001
vertex 15.909 5 0.422886
endloop
endfacet
facet normal 0 1 0
outer loop
vertex 18.544 5 10.1066
vertex 15.909 5 0.422886
vertex 17.119 5 10.424
endloop
endfacet
facet normal 0 1 0
outer loop
vertex 17.119 5 10.424
vertex 15.909 5 0.422886
vertex 13.9177 5 0.947291
endloop
endfacet
facet normal 0 1 0
outer loop
vertex 17.119 5 10.424
vertex 13.9177 5 0.947291
vertex 15.7554 5 10.9455
endloop
endfacet
facet normal 0 1 0
outer loop
vertex 15.7554 5 10.9455
vertex 13.9177 5 0.947291
vertex 11.9909 5 1.67366
endloop
endfacet
facet normal 0 1 0
outer loop
vertex 15.7554 5 10.9455
vertex 11.9909 5 1.67366
vertex 10.149 5 2.59429
endloop
endfacet
facet normal 0 1 0
outer loop
vertex 25.5177 5 11.66
vertex 29.851 5 2.59429
vertex 24.2446 5 10.9455
endloop
endfacet
facet normal 0 1 0
outer loop
vertex 24.2446 5 10.9455
vertex 29.851 5 2.59429
vertex 28.0091 5 1.67366
endloop
endfacet
facet normal 0 1 0
outer loop
vertex 24.2446 5 10.9455
vertex 28.0091 5 1.67366
vertex 22.881 5 10.424
endloop
endfacet
facet normal 0 1 0
outer loop
vertex 22.881 5 10.424
vertex 28.0091 5 1.67366
vertex 26.0823 5 0.947291
endloop
endfacet
facet normal 0 1 0
outer loop
vertex 22.881 5 10.424
vertex 26.0823 5 0.947291
vertex 24.091 5 0.422886
endloop
endfacet
facet normal 0 1 0
outer loop
vertex 37.1463 5 9.70414
vertex 35.9968 5 7.99571
vertex 27.6865 5 13.6033
endloop
endfacet
facet normal 0 1 0
outer loop
vertex 27.6865 5 13.6033
vertex 35.9968 5 7.99571
vertex 34.6777 5 6.41453
endloop
endfacet
facet normal 0 1 0
outer loop
vertex 27.6865 5 13.6033
vertex 34.6777 5 6.41453
vertex 26.6732 5 12.5523
endloop
endfacet
facet normal 0 1 0
outer loop
vertex 26.6732 5 12.5523
vertex 34.6777 5 6.41453
vertex 33.203 5 4.97736
endloop
endfacet
facet normal 0 1 0
outer loop
vertex 26.6732 5 12.5523
vertex 33.203 5 4.97736
vertex 25.5177 5 11.66
endloop
endfacet
facet normal 0 1 0
outer loop
vertex 25.5177 5 11.66
vertex 33.203 5 4.97736
vertex 31.5884 5 3.69943
endloop
endfacet
facet normal 0 1 0
outer loop
vertex 25.5177 5 11.66
vertex 31.5884 5 3.69943
vertex 29.851 5 2.59429
endloop
endfacet
endsolid
