solid C:\Temp\NOELParts\POTENTIOMETER.STL created by CtrlView V2.70
facet normal 0 0 -1
outer loop
vertex 147.5 64.3301 130
vertex 147.5 55.6699 130
vertex 147.378 64.2576 130
endloop
endfacet
facet normal 0 0 -1
outer loop
vertex 147.378 64.2576 130
vertex 147.5 55.6699 130
vertex 147.378 55.7424 130
endloop
endfacet
facet normal 0 0 -1
outer loop
vertex 147.378 64.2576 130
vertex 147.378 55.7424 130
vertex 146.697 63.7534 130
endloop
endfacet
facet normal 0 0 -1
outer loop
vertex 146.697 63.7534 130
vertex 147.378 55.7424 130
vertex 146.697 56.2466 130
endloop
endfacet
facet normal 0 0 -1
outer loop
vertex 146.697 63.7534 130
vertex 146.697 56.2466 130
vertex 146.11 63.1411 130
endloop
endfacet
facet normal 0 0 -1
outer loop
vertex 146.11 63.1411 130
vertex 146.697 56.2466 130
vertex 146.11 56.8589 130
endloop
endfacet
facet normal 0 0 -1
outer loop
vertex 146.11 63.1411 130
vertex 146.11 56.8589 130
vertex 145.635 62.4385 130
endloop
endfacet
facet normal 0 0 -1
outer loop
vertex 145.635 62.4385 130
vertex 146.11 56.8589 130
vertex 145.635 57.5615 130
endloop
endfacet
facet normal 0 0 -1
outer loop
vertex 145.635 62.4385 130
vertex 145.635 57.5615 130
vertex 145.286 61.6657 130
endloop
endfacet
facet normal 0 0 -1
outer loop
vertex 145.286 61.6657 130
vertex 145.635 57.5615 130
vertex 145.286 58.3343 130
endloop
endfacet
facet normal 0 0 -1
outer loop
vertex 145.286 61.6657 130
vertex 145.286 58.3343 130
vertex 145.072 60.845 130
endloop
endfacet
facet normal 0 0 -1
outer loop
vertex 145.072 60.845 130
vertex 145.286 58.3343 130
vertex 145.072 59.155 130
endloop
endfacet
facet normal 0 0 -1
outer loop
vertex 145.072 60.845 130
vertex 145.072 59.155 130
vertex 145 60 130
endloop
endfacet
facet normal -1 0 0
outer loop
vertex 147.5 55.6699 130
vertex 147.5 64.3301 130
vertex 147.5 55.6699 115
endloop
endfacet
facet normal -1 0 0
outer loop
vertex 147.5 55.6699 115
vertex 147.5 64.3301 130
vertex 147.5 64.3301 115
endloop
endfacet
facet normal 0 0 -1
outer loop
vertex 148.136 55.3606 115
vertex 147.5 55.6699 115
vertex 147.5 64.3301 115
endloop
endfacet
facet normal 0 0 -1
outer loop
vertex 152.251 64.4646 115
vertex 152.5 64.3301 115
vertex 152.5 55.6699 115
endloop
endfacet
facet normal 0 0 -1
outer loop
vertex 152.5 55.6699 115
vertex 152.251 55.5354 115
vertex 152.251 64.4646 115
endloop
endfacet
facet normal 0 0 -1
outer loop
vertex 152.251 64.4646 115
vertex 152.251 55.5354 115
vertex 150.635 64.9595 115
endloop
endfacet
facet normal 0 0 -1
outer loop
vertex 152.251 64.4646 115
vertex 150.635 64.9595 115
vertex 151.464 64.7808 115
endloop
endfacet
facet normal 0 0 -1
outer loop
vertex 152.251 55.5354 115
vertex 151.464 55.2192 115
vertex 150.635 55.0405 115
endloop
endfacet
facet normal 0 0 -1
outer loop
vertex 147.5 64.3301 115
vertex 148.136 64.6394 115
vertex 148.136 55.3606 115
endloop
endfacet
facet normal 0 0 -1
outer loop
vertex 148.136 55.3606 115
vertex 148.136 64.6394 115
vertex 149.788 55.0045 115
endloop
endfacet
facet normal 0 0 -1
outer loop
vertex 148.136 55.3606 115
vertex 149.788 55.0045 115
vertex 148.947 55.1122 115
endloop
endfacet
facet normal 0 0 -1
outer loop
vertex 149.788 64.9955 115
vertex 150.635 64.9595 115
vertex 148.947 64.8878 115
endloop
endfacet
facet normal 0 0 -1
outer loop
vertex 148.947 64.8878 115
vertex 150.635 64.9595 115
vertex 152.251 55.5354 115
endloop
endfacet
facet normal 0 0 -1
outer loop
vertex 148.947 64.8878 115
vertex 152.251 55.5354 115
vertex 148.136 64.6394 115
endloop
endfacet
facet normal 0 0 -1
outer loop
vertex 148.136 64.6394 115
vertex 152.251 55.5354 115
vertex 150.635 55.0405 115
endloop
endfacet
facet normal 0 0 -1
outer loop
vertex 148.136 64.6394 115
vertex 150.635 55.0405 115
vertex 149.788 55.0045 115
endloop
endfacet
facet normal 1 0 0
outer loop
vertex 152.5 55.6699 115
vertex 152.5 64.3301 115
vertex 152.5 55.6699 130
endloop
endfacet
facet normal 1 0 0
outer loop
vertex 152.5 55.6699 130
vertex 152.5 64.3301 115
vertex 152.5 64.3301 130
endloop
endfacet
facet normal 0 0 -1
outer loop
vertex 152.5 55.6699 130
vertex 152.5 64.3301 130
vertex 152.973 55.98 130
endloop
endfacet
facet normal 0 0 -1
outer loop
vertex 152.973 55.98 130
vertex 152.5 64.3301 130
vertex 152.973 64.02 130
endloop
endfacet
facet normal 0 0 -1
outer loop
vertex 152.973 55.98 130
vertex 152.973 64.02 130
vertex 153.61 56.5403 130
endloop
endfacet
facet normal 0 0 -1
outer loop
vertex 153.61 56.5403 130
vertex 152.973 64.02 130
vertex 153.61 63.4597 130
endloop
endfacet
facet normal 0 0 -1
outer loop
vertex 153.61 56.5403 130
vertex 153.61 63.4597 130
vertex 154.143 57.2001 130
endloop
endfacet
facet normal 0 0 -1
outer loop
vertex 154.143 57.2001 130
vertex 153.61 63.4597 130
vertex 154.143 62.7999 130
endloop
endfacet
facet normal 0 0 -1
outer loop
vertex 154.143 57.2001 130
vertex 154.143 62.7999 130
vertex 154.556 57.9405 130
endloop
endfacet
facet normal 0 0 -1
outer loop
vertex 154.556 57.9405 130
vertex 154.143 62.7999 130
vertex 154.556 62.0595 130
endloop
endfacet
facet normal 0 0 -1
outer loop
vertex 154.556 57.9405 130
vertex 154.556 62.0595 130
vertex 154.839 58.7401 130
endloop
endfacet
facet normal 0 0 -1
outer loop
vertex 154.839 58.7401 130
vertex 154.556 62.0595 130
vertex 154.839 61.2599 130
endloop
endfacet
facet normal 0 0 -1
outer loop
vertex 154.839 58.7401 130
vertex 154.839 61.2599 130
vertex 154.982 59.576 130
endloop
endfacet
facet normal 0 0 -1
outer loop
vertex 154.982 59.576 130
vertex 154.839 61.2599 130
vertex 154.982 60.424 130
endloop
endfacet
facet normal -0.437514 -0.899212 0
outer loop
vertex 147.5 55.6699 130
vertex 147.5 55.6699 115
vertex 148.136 55.3606 115
endloop
endfacet
facet normal 0.475308 0.879819 0
outer loop
vertex 152.5 64.3301 130
vertex 152.5 64.3301 115
vertex 152.251 64.4646 115
endloop
endfacet
facet normal 0.52431 0.851527 0
outer loop
vertex 152.251 64.4646 150
vertex 152.973 64.02 150
vertex 152.973 64.02 130
endloop
endfacet
facet normal 0.66067 0.750677 0
outer loop
vertex 152.973 64.02 130
vertex 152.973 64.02 150
vertex 153.61 63.4597 150
endloop
endfacet
facet normal 0.66067 0.750677 0
outer loop
vertex 152.973 64.02 130
vertex 153.61 63.4597 150
vertex 153.61 63.4597 130
endloop
endfacet
facet normal 0.778042 0.628213 0
outer loop
vertex 153.61 63.4597 130
vertex 153.61 63.4597 150
vertex 154.143 62.7999 150
endloop
endfacet
facet normal 0.778042 0.628213 0
outer loop
vertex 153.61 63.4597 130
vertex 154.143 62.7999 150
vertex 154.143 62.7999 130
endloop
endfacet
facet normal 0.873015 0.487693 0
outer loop
vertex 154.143 62.7999 130
vertex 154.143 62.7999 150
vertex 154.556 62.0595 150
endloop
endfacet
facet normal 0.873015 0.487693 0
outer loop
vertex 154.143 62.7999 130
vertex 154.556 62.0595 150
vertex 154.556 62.0595 130
endloop
endfacet
facet normal 0.942874 0.33315 0
outer loop
vertex 154.556 62.0595 130
vertex 154.556 62.0595 150
vertex 154.839 61.2599 150
endloop
endfacet
facet normal 0.942874 0.33315 0
outer loop
vertex 154.556 62.0595 130
vertex 154.839 61.2599 150
vertex 154.839 61.2599 130
endloop
endfacet
facet normal 0.985618 0.168987 0
outer loop
vertex 154.839 61.2599 130
vertex 154.839 61.2599 150
vertex 154.982 60.424 150
endloop
endfacet
facet normal 0.985618 0.168987 0
outer loop
vertex 154.839 61.2599 130
vertex 154.982 60.424 150
vertex 154.982 60.424 130
endloop
endfacet
facet normal 1 0 0
outer loop
vertex 154.982 60.424 130
vertex 154.982 60.424 150
vertex 154.982 59.576 150
endloop
endfacet
facet normal 1 0 0
outer loop
vertex 154.982 60.424 130
vertex 154.982 59.576 150
vertex 154.982 59.576 130
endloop
endfacet
facet normal 0.985618 -0.168987 0
outer loop
vertex 154.982 59.576 130
vertex 154.982 59.576 150
vertex 154.839 58.7401 150
endloop
endfacet
facet normal 0.985618 -0.168987 0
outer loop
vertex 154.982 59.576 130
vertex 154.839 58.7401 150
vertex 154.839 58.7401 130
endloop
endfacet
facet normal 0.942874 -0.33315 0
outer loop
vertex 154.839 58.7401 130
vertex 154.839 58.7401 150
vertex 154.556 57.9405 150
endloop
endfacet
facet normal 0.942874 -0.33315 0
outer loop
vertex 154.839 58.7401 130
vertex 154.556 57.9405 150
vertex 154.556 57.9405 130
endloop
endfacet
facet normal 0.873017 -0.487691 0
outer loop
vertex 154.556 57.9405 130
vertex 154.556 57.9405 150
vertex 154.143 57.2001 150
endloop
endfacet
facet normal 0.873017 -0.487691 0
outer loop
vertex 154.556 57.9405 130
vertex 154.143 57.2001 150
vertex 154.143 57.2001 130
endloop
endfacet
facet normal 0.77804 -0.628215 0
outer loop
vertex 154.143 57.2001 130
vertex 154.143 57.2001 150
vertex 153.61 56.5403 150
endloop
endfacet
facet normal 0.77804 -0.628215 0
outer loop
vertex 154.143 57.2001 130
vertex 153.61 56.5403 150
vertex 153.61 56.5403 130
endloop
endfacet
facet normal 0.660667 -0.750679 0
outer loop
vertex 153.61 56.5403 130
vertex 153.61 56.5403 150
vertex 152.973 55.98 150
endloop
endfacet
facet normal 0.660667 -0.750679 0
outer loop
vertex 153.61 56.5403 130
vertex 152.973 55.98 150
vertex 152.973 55.98 130
endloop
endfacet
facet normal 0.548201 -0.836347 0
outer loop
vertex 152.973 55.98 130
vertex 152.973 55.98 150
vertex 152.5 55.6699 130
endloop
endfacet
facet normal 0.52431 -0.851527 0.000800615
outer loop
vertex 152.5 55.6699 130
vertex 152.973 55.98 150
vertex 152.251 55.5354 150
endloop
endfacet
facet normal 0.475288 -0.879831 0
outer loop
vertex 152.5 55.6699 130
vertex 152.251 55.5354 150
vertex 152.5 55.6699 115
endloop
endfacet
facet normal -0.450194 -0.892931 0
outer loop
vertex 148.136 55.3606 150
vertex 147.378 55.7424 150
vertex 147.378 55.7424 130
endloop
endfacet
facet normal -0.594635 -0.803996 0
outer loop
vertex 147.378 55.7424 130
vertex 147.378 55.7424 150
vertex 146.697 56.2466 150
endloop
endfacet
facet normal -0.594635 -0.803996 0
outer loop
vertex 147.378 55.7424 130
vertex 146.697 56.2466 150
vertex 146.697 56.2466 130
endloop
endfacet
facet normal -0.721956 -0.691939 0
outer loop
vertex 146.697 56.2466 130
vertex 146.697 56.2466 150
vertex 146.11 56.8589 150
endloop
endfacet
facet normal -0.721956 -0.691939 0
outer loop
vertex 146.697 56.2466 130
vertex 146.11 56.8589 150
vertex 146.11 56.8589 130
endloop
endfacet
facet normal -0.828512 -0.559971 0
outer loop
vertex 146.11 56.8589 130
vertex 146.11 56.8589 150
vertex 145.635 57.5615 150
endloop
endfacet
facet normal -0.828512 -0.559971 0
outer loop
vertex 146.11 56.8589 130
vertex 145.635 57.5615 150
vertex 145.635 57.5615 130
endloop
endfacet
facet normal -0.911228 -0.411903 0
outer loop
vertex 145.635 57.5615 130
vertex 145.635 57.5615 150
vertex 145.286 58.3343 150
endloop
endfacet
facet normal -0.911228 -0.411903 0
outer loop
vertex 145.635 57.5615 130
vertex 145.286 58.3343 150
vertex 145.286 58.3343 130
endloop
endfacet
facet normal -0.967735 -0.251969 0
outer loop
vertex 145.286 58.3343 130
vertex 145.286 58.3343 150
vertex 145.072 59.155 150
endloop
endfacet
facet normal -0.967735 -0.251969 0
outer loop
vertex 145.286 58.3343 130
vertex 145.072 59.155 150
vertex 145.072 59.155 130
endloop
endfacet
facet normal -0.996397 -0.0848169 0
outer loop
vertex 145.072 59.155 130
vertex 145.072 59.155 150
vertex 145 60 150
endloop
endfacet
facet normal -0.996397 -0.0848169 0
outer loop
vertex 145.072 59.155 130
vertex 145 60 150
vertex 145 60 130
endloop
endfacet
facet normal -0.996397 0.0848173 0
outer loop
vertex 145 60 130
vertex 145 60 150
vertex 145.072 60.845 150
endloop
endfacet
facet normal -0.996397 0.0848173 0
outer loop
vertex 145 60 130
vertex 145.072 60.845 150
vertex 145.072 60.845 130
endloop
endfacet
facet normal -0.967736 0.251968 0
outer loop
vertex 145.072 60.845 130
vertex 145.072 60.845 150
vertex 145.286 61.6657 150
endloop
endfacet
facet normal -0.967736 0.251968 0
outer loop
vertex 145.072 60.845 130
vertex 145.286 61.6657 150
vertex 145.286 61.6657 130
endloop
endfacet
facet normal -0.911227 0.411905 0
outer loop
vertex 145.286 61.6657 130
vertex 145.286 61.6657 150
vertex 145.635 62.4385 150
endloop
endfacet
facet normal -0.911227 0.411905 0
outer loop
vertex 145.286 61.6657 130
vertex 145.635 62.4385 150
vertex 145.635 62.4385 130
endloop
endfacet
facet normal -0.828515 0.559966 0
outer loop
vertex 145.635 62.4385 130
vertex 145.635 62.4385 150
vertex 146.11 63.1411 150
endloop
endfacet
facet normal -0.828515 0.559966 0
outer loop
vertex 145.635 62.4385 130
vertex 146.11 63.1411 150
vertex 146.11 63.1411 130
endloop
endfacet
facet normal -0.721953 0.691942 0
outer loop
vertex 146.11 63.1411 130
vertex 146.11 63.1411 150
vertex 146.697 63.7534 150
endloop
endfacet
facet normal -0.721953 0.691942 0
outer loop
vertex 146.11 63.1411 130
vertex 146.697 63.7534 150
vertex 146.697 63.7534 130
endloop
endfacet
facet normal -0.594632 0.803998 0
outer loop
vertex 146.697 63.7534 130
vertex 146.697 63.7534 150
vertex 147.378 64.2576 150
endloop
endfacet
facet normal -0.594632 0.803998 0
outer loop
vertex 146.697 63.7534 130
vertex 147.378 64.2576 150
vertex 147.378 64.2576 130
endloop
endfacet
facet normal -0.512195 0.858869 0
outer loop
vertex 147.378 64.2576 130
vertex 147.378 64.2576 150
vertex 147.5 64.3301 130
endloop
endfacet
facet normal -0.450198 0.892929 0.000500172
outer loop
vertex 147.5 64.3301 130
vertex 147.378 64.2576 150
vertex 148.136 64.6394 150
endloop
endfacet
facet normal -0.437518 0.89921 0
outer loop
vertex 147.5 64.3301 130
vertex 148.136 64.6394 150
vertex 147.5 64.3301 115
endloop
endfacet
facet normal -0.512192 -0.858866 0.00299773
outer loop
vertex 147.378 55.7424 130
vertex 147.5 55.6699 130
vertex 148.136 55.3606 150
endloop
endfacet
facet normal -0.437514 -0.899212 0
outer loop
vertex 148.136 55.3606 150
vertex 147.5 55.6699 130
vertex 148.136 55.3606 115
endloop
endfacet
facet normal -0.292831 -0.956164 0
outer loop
vertex 148.136 55.3606 150
vertex 148.136 55.3606 115
vertex 148.947 55.1122 150
endloop
endfacet
facet normal -0.292831 -0.956164 0
outer loop
vertex 148.947 55.1122 150
vertex 148.136 55.3606 115
vertex 148.947 55.1122 115
endloop
endfacet
facet normal -0.127017 -0.991901 0
outer loop
vertex 148.947 55.1122 150
vertex 148.947 55.1122 115
vertex 149.788 55.0045 150
endloop
endfacet
facet normal -0.127017 -0.991901 0
outer loop
vertex 149.788 55.0045 150
vertex 148.947 55.1122 115
vertex 149.788 55.0045 115
endloop
endfacet
facet normal 0.0424403 -0.999099 0
outer loop
vertex 149.788 55.0045 150
vertex 149.788 55.0045 115
vertex 150.635 55.0405 150
endloop
endfacet
facet normal 0.0424403 -0.999099 0
outer loop
vertex 150.635 55.0405 150
vertex 149.788 55.0045 115
vertex 150.635 55.0405 115
endloop
endfacet
facet normal 0.210676 -0.977556 0
outer loop
vertex 150.635 55.0405 150
vertex 150.635 55.0405 115
vertex 151.464 55.2192 150
endloop
endfacet
facet normal 0.210676 -0.977556 0
outer loop
vertex 151.464 55.2192 150
vertex 150.635 55.0405 115
vertex 151.464 55.2192 115
endloop
endfacet
facet normal 0.372864 -0.927886 0
outer loop
vertex 151.464 55.2192 150
vertex 151.464 55.2192 115
vertex 152.251 55.5354 150
endloop
endfacet
facet normal 0.372864 -0.927886 0
outer loop
vertex 152.251 55.5354 150
vertex 151.464 55.2192 115
vertex 152.251 55.5354 115
endloop
endfacet
facet normal 0.475288 -0.879831 0
outer loop
vertex 152.251 55.5354 150
vertex 152.251 55.5354 115
vertex 152.5 55.6699 115
endloop
endfacet
facet normal 0.548191 0.836352 0.00119964
outer loop
vertex 152.973 64.02 130
vertex 152.5 64.3301 130
vertex 152.251 64.4646 150
endloop
endfacet
facet normal 0.475308 0.879819 0
outer loop
vertex 152.251 64.4646 150
vertex 152.5 64.3301 130
vertex 152.251 64.4646 115
endloop
endfacet
facet normal 0.372856 0.927889 0
outer loop
vertex 152.251 64.4646 150
vertex 152.251 64.4646 115
vertex 151.464 64.7808 150
endloop
endfacet
facet normal 0.372856 0.927889 0
outer loop
vertex 151.464 64.7808 150
vertex 152.251 64.4646 115
vertex 151.464 64.7808 115
endloop
endfacet
facet normal 0.21068 0.977555 0
outer loop
vertex 151.464 64.7808 150
vertex 151.464 64.7808 115
vertex 150.635 64.9595 150
endloop
endfacet
facet normal 0.21068 0.977555 0
outer loop
vertex 150.635 64.9595 150
vertex 151.464 64.7808 115
vertex 150.635 64.9595 115
endloop
endfacet
facet normal 0.0424448 0.999099 0
outer loop
vertex 150.635 64.9595 150
vertex 150.635 64.9595 115
vertex 149.788 64.9955 150
endloop
endfacet
facet normal 0.0424448 0.999099 0
outer loop
vertex 149.788 64.9955 150
vertex 150.635 64.9595 115
vertex 149.788 64.9955 115
endloop
endfacet
facet normal -0.127017 0.991901 0
outer loop
vertex 149.788 64.9955 150
vertex 149.788 64.9955 115
vertex 148.947 64.8878 150
endloop
endfacet
facet normal -0.127017 0.991901 0
outer loop
vertex 148.947 64.8878 150
vertex 149.788 64.9955 115
vertex 148.947 64.8878 115
endloop
endfacet
facet normal -0.292835 0.956163 0
outer loop
vertex 148.947 64.8878 150
vertex 148.947 64.8878 115
vertex 148.136 64.6394 150
endloop
endfacet
facet normal -0.292835 0.956163 0
outer loop
vertex 148.136 64.6394 150
vertex 148.947 64.8878 115
vertex 148.136 64.6394 115
endloop
endfacet
facet normal -0.437518 0.89921 0
outer loop
vertex 148.136 64.6394 150
vertex 148.136 64.6394 115
vertex 147.5 64.3301 115
endloop
endfacet
facet normal 0 0 1
outer loop
vertex 152.928 50.4383 185
vertex 154.502 51.0707 185
vertex 155.946 51.96 185
endloop
endfacet
facet normal 0 0 1
outer loop
vertex 159.677 57.4802 185
vertex 159.964 59.1519 185
vertex 159.964 60.8481 185
endloop
endfacet
facet normal 0 0 1
outer loop
vertex 143.393 67.5067 185
vertex 142.22 66.2822 185
vertex 141.27 64.877 185
endloop
endfacet
facet normal 0 0 1
outer loop
vertex 159.677 57.4802 185
vertex 159.964 60.8481 185
vertex 159.112 55.881 185
endloop
endfacet
facet normal 0 0 1
outer loop
vertex 159.112 55.881 185
vertex 159.964 60.8481 185
vertex 159.677 62.5198 185
endloop
endfacet
facet normal 0 0 1
outer loop
vertex 159.112 55.881 185
vertex 159.677 62.5198 185
vertex 158.285 54.4002 185
endloop
endfacet
facet normal 0 0 1
outer loop
vertex 158.285 54.4002 185
vertex 159.677 62.5198 185
vertex 159.112 64.119 185
endloop
endfacet
facet normal 0 0 1
outer loop
vertex 158.285 54.4002 185
vertex 159.112 64.119 185
vertex 157.22 53.0806 185
endloop
endfacet
facet normal 0 0 1
outer loop
vertex 157.22 53.0806 185
vertex 159.112 64.119 185
vertex 158.285 65.5997 185
endloop
endfacet
facet normal 0 0 1
outer loop
vertex 157.22 53.0806 185
vertex 158.285 65.5997 185
vertex 155.946 51.96 185
endloop
endfacet
facet normal 0 0 1
outer loop
vertex 155.946 51.96 185
vertex 158.285 65.5997 185
vertex 157.22 66.9194 185
endloop
endfacet
facet normal 0 0 1
outer loop
vertex 155.946 51.96 185
vertex 157.22 66.9194 185
vertex 152.928 50.4383 185
endloop
endfacet
facet normal 0 0 1
outer loop
vertex 157.22 66.9194 185
vertex 155.946 68.04 185
vertex 154.502 68.9293 185
endloop
endfacet
facet normal 0 0 1
outer loop
vertex 154.502 68.9293 185
vertex 152.928 69.5617 185
vertex 142.22 53.7178 185
endloop
endfacet
facet normal 0 0 1
outer loop
vertex 142.22 53.7178 185
vertex 152.928 69.5617 185
vertex 151.27 69.919 185
endloop
endfacet
facet normal 0 0 1
outer loop
vertex 143.393 67.5067 185
vertex 141.27 64.877 185
vertex 142.22 53.7178 185
endloop
endfacet
facet normal 0 0 1
outer loop
vertex 142.22 53.7178 185
vertex 141.27 64.877 185
vertex 140.571 63.3314 185
endloop
endfacet
facet normal 0 0 1
outer loop
vertex 142.22 53.7178 185
vertex 140.571 63.3314 185
vertex 140.144 61.69 185
endloop
endfacet
facet normal 0 0 1
outer loop
vertex 154.502 68.9293 185
vertex 142.22 53.7178 185
vertex 157.22 66.9194 185
endloop
endfacet
facet normal 0 0 1
outer loop
vertex 157.22 66.9194 185
vertex 142.22 53.7178 185
vertex 143.393 52.4933 185
endloop
endfacet
facet normal 0 0 1
outer loop
vertex 157.22 66.9194 185
vertex 143.393 52.4933 185
vertex 144.757 51.4847 185
endloop
endfacet
facet normal 0 0 1
outer loop
vertex 144.757 68.5153 185
vertex 143.393 67.5067 185
vertex 146.271 69.2789 185
endloop
endfacet
facet normal 0 0 1
outer loop
vertex 146.271 69.2789 185
vertex 143.393 67.5067 185
vertex 142.22 53.7178 185
endloop
endfacet
facet normal 0 0 1
outer loop
vertex 146.271 69.2789 185
vertex 142.22 53.7178 185
vertex 147.893 69.7756 185
endloop
endfacet
facet normal 0 0 1
outer loop
vertex 147.893 69.7756 185
vertex 142.22 53.7178 185
vertex 151.27 69.919 185
endloop
endfacet
facet normal 0 0 1
outer loop
vertex 147.893 69.7756 185
vertex 151.27 69.919 185
vertex 149.576 69.991 185
endloop
endfacet
facet normal 0 0 1
outer loop
vertex 140.571 56.6686 185
vertex 141.27 55.1231 185
vertex 140.144 58.31 185
endloop
endfacet
facet normal 0 0 1
outer loop
vertex 140.144 58.31 185
vertex 141.27 55.1231 185
vertex 142.22 53.7178 185
endloop
endfacet
facet normal 0 0 1
outer loop
vertex 140.144 58.31 185
vertex 142.22 53.7178 185
vertex 140 60 185
endloop
endfacet
facet normal 0 0 1
outer loop
vertex 140 60 185
vertex 142.22 53.7178 185
vertex 140.144 61.69 185
endloop
endfacet
facet normal 0 0 1
outer loop
vertex 151.27 50.081 185
vertex 152.928 50.4383 185
vertex 149.576 50.009 185
endloop
endfacet
facet normal 0 0 1
outer loop
vertex 149.576 50.009 185
vertex 152.928 50.4383 185
vertex 157.22 66.9194 185
endloop
endfacet
facet normal 0 0 1
outer loop
vertex 149.576 50.009 185
vertex 157.22 66.9194 185
vertex 147.893 50.2244 185
endloop
endfacet
facet normal 0 0 1
outer loop
vertex 147.893 50.2244 185
vertex 157.22 66.9194 185
vertex 144.757 51.4847 185
endloop
endfacet
facet normal 0 0 1
outer loop
vertex 147.893 50.2244 185
vertex 144.757 51.4847 185
vertex 146.271 50.7211 185
endloop
endfacet
facet normal 0 0 -1
outer loop
vertex 154.556 62.0595 150
vertex 159.112 64.119 150
vertex 154.839 61.2599 150
endloop
endfacet
facet normal 0 0 -1
outer loop
vertex 154.839 61.2599 150
vertex 159.112 64.119 150
vertex 159.677 62.5198 150
endloop
endfacet
facet normal 0 0 -1
outer loop
vertex 154.839 61.2599 150
vertex 159.677 62.5198 150
vertex 154.982 60.424 150
endloop
endfacet
facet normal 0 0 -1
outer loop
vertex 154.982 60.424 150
vertex 159.677 62.5198 150
vertex 159.964 60.8481 150
endloop
endfacet
facet normal 0 0 -1
outer loop
vertex 154.982 60.424 150
vertex 159.964 60.8481 150
vertex 154.982 59.576 150
endloop
endfacet
facet normal 0 0 -1
outer loop
vertex 154.982 59.576 150
vertex 159.964 60.8481 150
vertex 159.964 59.1519 150
endloop
endfacet
facet normal 0 0 -1
outer loop
vertex 154.982 59.576 150
vertex 159.964 59.1519 150
vertex 154.839 58.7401 150
endloop
endfacet
facet normal 0 0 -1
outer loop
vertex 154.839 58.7401 150
vertex 159.964 59.1519 150
vertex 159.677 57.4802 150
endloop
endfacet
facet normal 0 0 -1
outer loop
vertex 154.839 58.7401 150
vertex 159.677 57.4802 150
vertex 154.556 57.9405 150
endloop
endfacet
facet normal 0 0 -1
outer loop
vertex 154.556 57.9405 150
vertex 159.677 57.4802 150
vertex 159.112 55.881 150
endloop
endfacet
facet normal 0 0 -1
outer loop
vertex 154.556 57.9405 150
vertex 159.112 55.881 150
vertex 154.143 57.2001 150
endloop
endfacet
facet normal 0 0 -1
outer loop
vertex 154.143 57.2001 150
vertex 159.112 55.881 150
vertex 158.285 54.4002 150
endloop
endfacet
facet normal 0 0 -1
outer loop
vertex 154.143 57.2001 150
vertex 158.285 54.4002 150
vertex 153.61 56.5403 150
endloop
endfacet
facet normal 0 0 -1
outer loop
vertex 153.61 56.5403 150
vertex 158.285 54.4002 150
vertex 157.22 53.0806 150
endloop
endfacet
facet normal 0 0 -1
outer loop
vertex 153.61 56.5403 150
vertex 157.22 53.0806 150
vertex 152.973 55.98 150
endloop
endfacet
facet normal 0 0 -1
outer loop
vertex 152.973 55.98 150
vertex 157.22 53.0806 150
vertex 155.946 51.96 150
endloop
endfacet
facet normal 0 0 -1
outer loop
vertex 152.973 55.98 150
vertex 155.946 51.96 150
vertex 152.251 55.5354 150
endloop
endfacet
facet normal 0 0 -1
outer loop
vertex 152.251 55.5354 150
vertex 155.946 51.96 150
vertex 154.502 51.0707 150
endloop
endfacet
facet normal 0 0 -1
outer loop
vertex 152.251 55.5354 150
vertex 154.502 51.0707 150
vertex 151.464 55.2192 150
endloop
endfacet
facet normal 0 0 -1
outer loop
vertex 151.464 55.2192 150
vertex 154.502 51.0707 150
vertex 152.928 50.4383 150
endloop
endfacet
facet normal 0 0 -1
outer loop
vertex 151.464 55.2192 150
vertex 152.928 50.4383 150
vertex 150.635 55.0405 150
endloop
endfacet
facet normal 0 0 -1
outer loop
vertex 150.635 55.0405 150
vertex 152.928 50.4383 150
vertex 151.27 50.081 150
endloop
endfacet
facet normal 0 0 -1
outer loop
vertex 150.635 55.0405 150
vertex 151.27 50.081 150
vertex 149.788 55.0045 150
endloop
endfacet
facet normal 0 0 -1
outer loop
vertex 149.788 55.0045 150
vertex 151.27 50.081 150
vertex 149.576 50.009 150
endloop
endfacet
facet normal 0 0 -1
outer loop
vertex 149.788 55.0045 150
vertex 149.576 50.009 150
vertex 148.947 55.1122 150
endloop
endfacet
facet normal 0 0 -1
outer loop
vertex 148.947 55.1122 150
vertex 149.576 50.009 150
vertex 147.893 50.2244 150
endloop
endfacet
facet normal 0 0 -1
outer loop
vertex 148.947 55.1122 150
vertex 147.893 50.2244 150
vertex 148.136 55.3606 150
endloop
endfacet
facet normal 0 0 -1
outer loop
vertex 148.136 55.3606 150
vertex 147.893 50.2244 150
vertex 146.271 50.7211 150
endloop
endfacet
facet normal 0 0 -1
outer loop
vertex 148.136 55.3606 150
vertex 146.271 50.7211 150
vertex 147.378 55.7424 150
endloop
endfacet
facet normal 0 0 -1
outer loop
vertex 147.378 55.7424 150
vertex 146.271 50.7211 150
vertex 144.757 51.4847 150
endloop
endfacet
facet normal 0 0 -1
outer loop
vertex 147.378 55.7424 150
vertex 144.757 51.4847 150
vertex 146.697 56.2466 150
endloop
endfacet
facet normal 0 0 -1
outer loop
vertex 146.697 56.2466 150
vertex 144.757 51.4847 150
vertex 143.393 52.4933 150
endloop
endfacet
facet normal 0 0 -1
outer loop
vertex 146.697 56.2466 150
vertex 143.393 52.4933 150
vertex 146.11 56.8589 150
endloop
endfacet
facet normal 0 0 -1
outer loop
vertex 146.11 56.8589 150
vertex 143.393 52.4933 150
vertex 142.22 53.7178 150
endloop
endfacet
facet normal 0 0 -1
outer loop
vertex 146.11 56.8589 150
vertex 142.22 53.7178 150
vertex 145.635 57.5615 150
endloop
endfacet
facet normal 0 0 -1
outer loop
vertex 145.635 57.5615 150
vertex 142.22 53.7178 150
vertex 141.27 55.1231 150
endloop
endfacet
facet normal 0 0 -1
outer loop
vertex 145.635 57.5615 150
vertex 141.27 55.1231 150
vertex 145.286 58.3343 150
endloop
endfacet
facet normal 0 0 -1
outer loop
vertex 145.286 58.3343 150
vertex 141.27 55.1231 150
vertex 140.571 56.6686 150
endloop
endfacet
facet normal 0 0 -1
outer loop
vertex 145.286 58.3343 150
vertex 140.571 56.6686 150
vertex 145.072 59.155 150
endloop
endfacet
facet normal 0 0 -1
outer loop
vertex 145.072 59.155 150
vertex 140.571 56.6686 150
vertex 140.144 58.31 150
endloop
endfacet
facet normal 0 0 -1
outer loop
vertex 145.072 59.155 150
vertex 140.144 58.31 150
vertex 145 60 150
endloop
endfacet
facet normal 0 0 -1
outer loop
vertex 145 60 150
vertex 140.144 58.31 150
vertex 140 60 150
endloop
endfacet
facet normal 0 0 -1
outer loop
vertex 145 60 150
vertex 140 60 150
vertex 145.072 60.845 150
endloop
endfacet
facet normal 0 0 -1
outer loop
vertex 145.072 60.845 150
vertex 140 60 150
vertex 140.144 61.69 150
endloop
endfacet
facet normal 0 0 -1
outer loop
vertex 145.072 60.845 150
vertex 140.144 61.69 150
vertex 145.286 61.6657 150
endloop
endfacet
facet normal 0 0 -1
outer loop
vertex 145.286 61.6657 150
vertex 140.144 61.69 150
vertex 140.571 63.3314 150
endloop
endfacet
facet normal 0 0 -1
outer loop
vertex 145.286 61.6657 150
vertex 140.571 63.3314 150
vertex 145.635 62.4385 150
endloop
endfacet
facet normal 0 0 -1
outer loop
vertex 145.635 62.4385 150
vertex 140.571 63.3314 150
vertex 141.27 64.877 150
endloop
endfacet
facet normal 0 0 -1
outer loop
vertex 145.635 62.4385 150
vertex 141.27 64.877 150
vertex 146.11 63.1411 150
endloop
endfacet
facet normal 0 0 -1
outer loop
vertex 146.11 63.1411 150
vertex 141.27 64.877 150
vertex 142.22 66.2822 150
endloop
endfacet
facet normal 0 0 -1
outer loop
vertex 146.11 63.1411 150
vertex 142.22 66.2822 150
vertex 146.697 63.7534 150
endloop
endfacet
facet normal 0 0 -1
outer loop
vertex 146.697 63.7534 150
vertex 142.22 66.2822 150
vertex 143.393 67.5067 150
endloop
endfacet
facet normal 0 0 -1
outer loop
vertex 146.697 63.7534 150
vertex 143.393 67.5067 150
vertex 147.378 64.2576 150
endloop
endfacet
facet normal 0 0 -1
outer loop
vertex 147.378 64.2576 150
vertex 143.393 67.5067 150
vertex 144.757 68.5153 150
endloop
endfacet
facet normal 0 0 -1
outer loop
vertex 147.378 64.2576 150
vertex 144.757 68.5153 150
vertex 148.136 64.6394 150
endloop
endfacet
facet normal 0 0 -1
outer loop
vertex 148.136 64.6394 150
vertex 144.757 68.5153 150
vertex 146.271 69.2789 150
endloop
endfacet
facet normal 0 0 -1
outer loop
vertex 148.136 64.6394 150
vertex 146.271 69.2789 150
vertex 148.947 64.8878 150
endloop
endfacet
facet normal 0 0 -1
outer loop
vertex 148.947 64.8878 150
vertex 146.271 69.2789 150
vertex 147.893 69.7756 150
endloop
endfacet
facet normal 0 0 -1
outer loop
vertex 148.947 64.8878 150
vertex 147.893 69.7756 150
vertex 149.788 64.9955 150
endloop
endfacet
facet normal 0 0 -1
outer loop
vertex 149.788 64.9955 150
vertex 147.893 69.7756 150
vertex 149.576 69.991 150
endloop
endfacet
facet normal 0 0 -1
outer loop
vertex 149.788 64.9955 150
vertex 149.576 69.991 150
vertex 150.635 64.9595 150
endloop
endfacet
facet normal 0 0 -1
outer loop
vertex 150.635 64.9595 150
vertex 149.576 69.991 150
vertex 151.27 69.919 150
endloop
endfacet
facet normal 0 0 -1
outer loop
vertex 150.635 64.9595 150
vertex 151.27 69.919 150
vertex 151.464 64.7808 150
endloop
endfacet
facet normal 0 0 -1
outer loop
vertex 151.464 64.7808 150
vertex 151.27 69.919 150
vertex 152.928 69.5617 150
endloop
endfacet
facet normal 0 0 -1
outer loop
vertex 151.464 64.7808 150
vertex 152.928 69.5617 150
vertex 152.251 64.4646 150
endloop
endfacet
facet normal 0 0 -1
outer loop
vertex 152.251 64.4646 150
vertex 152.928 69.5617 150
vertex 154.502 68.9293 150
endloop
endfacet
facet normal 0 0 -1
outer loop
vertex 152.251 64.4646 150
vertex 154.502 68.9293 150
vertex 152.973 64.02 150
endloop
endfacet
facet normal 0 0 -1
outer loop
vertex 152.973 64.02 150
vertex 154.502 68.9293 150
vertex 155.946 68.04 150
endloop
endfacet
facet normal 0 0 -1
outer loop
vertex 152.973 64.02 150
vertex 155.946 68.04 150
vertex 153.61 63.4597 150
endloop
endfacet
facet normal 0 0 -1
outer loop
vertex 153.61 63.4597 150
vertex 155.946 68.04 150
vertex 157.22 66.9194 150
endloop
endfacet
facet normal 0 0 -1
outer loop
vertex 153.61 63.4597 150
vertex 157.22 66.9194 150
vertex 154.143 62.7999 150
endloop
endfacet
facet normal 0 0 -1
outer loop
vertex 154.143 62.7999 150
vertex 157.22 66.9194 150
vertex 158.285 65.5997 150
endloop
endfacet
facet normal 0 0 -1
outer loop
vertex 154.143 62.7999 150
vertex 158.285 65.5997 150
vertex 154.556 62.0595 150
endloop
endfacet
facet normal 0 0 -1
outer loop
vertex 154.556 62.0595 150
vertex 158.285 65.5997 150
vertex 159.112 64.119 150
endloop
endfacet
facet normal -0.967733 0.251978 0
outer loop
vertex 140.144 61.69 150
vertex 140.144 61.69 185
vertex 140.571 63.3314 150
endloop
endfacet
facet normal -0.967733 0.251978 0
outer loop
vertex 140.571 63.3314 150
vertex 140.144 61.69 185
vertex 140.571 63.3314 185
endloop
endfacet
facet normal -0.911228 0.411902 0
outer loop
vertex 140.571 63.3314 150
vertex 140.571 63.3314 185
vertex 141.27 64.877 150
endloop
endfacet
facet normal -0.911228 0.411902 0
outer loop
vertex 141.27 64.877 150
vertex 140.571 63.3314 185
vertex 141.27 64.877 185
endloop
endfacet
facet normal -0.828508 0.559977 0
outer loop
vertex 141.27 64.877 150
vertex 141.27 64.877 185
vertex 142.22 66.2822 150
endloop
endfacet
facet normal -0.828508 0.559977 0
outer loop
vertex 142.22 66.2822 150
vertex 141.27 64.877 185
vertex 142.22 66.2822 185
endloop
endfacet
facet normal -0.72196 0.691935 0
outer loop
vertex 142.22 66.2822 150
vertex 142.22 66.2822 185
vertex 143.393 67.5067 150
endloop
endfacet
facet normal -0.72196 0.691935 0
outer loop
vertex 143.393 67.5067 150
vertex 142.22 66.2822 185
vertex 143.393 67.5067 185
endloop
endfacet
facet normal -0.594635 0.803996 0
outer loop
vertex 143.393 67.5067 150
vertex 143.393 67.5067 185
vertex 144.757 68.5153 150
endloop
endfacet
facet normal -0.594635 0.803996 0
outer loop
vertex 144.757 68.5153 150
vertex 143.393 67.5067 185
vertex 144.757 68.5153 185
endloop
endfacet
facet normal -0.450198 0.892929 0
outer loop
vertex 144.757 68.5153 150
vertex 144.757 68.5153 185
vertex 146.271 69.2789 150
endloop
endfacet
facet normal -0.450198 0.892929 0
outer loop
vertex 146.271 69.2789 150
vertex 144.757 68.5153 185
vertex 146.271 69.2789 185
endloop
endfacet
facet normal -0.292826 0.956166 0
outer loop
vertex 146.271 69.2789 150
vertex 146.271 69.2789 185
vertex 147.893 69.7756 150
endloop
endfacet
facet normal -0.292826 0.956166 0
outer loop
vertex 147.893 69.7756 150
vertex 146.271 69.2789 185
vertex 147.893 69.7756 185
endloop
endfacet
facet normal -0.127018 0.9919 0
outer loop
vertex 147.893 69.7756 150
vertex 147.893 69.7756 185
vertex 149.576 69.991 150
endloop
endfacet
facet normal -0.127018 0.9919 0
outer loop
vertex 149.576 69.991 150
vertex 147.893 69.7756 185
vertex 149.576 69.991 185
endloop
endfacet
facet normal 0.0424399 0.999099 0
outer loop
vertex 149.576 69.991 150
vertex 149.576 69.991 185
vertex 151.27 69.919 150
endloop
endfacet
facet normal 0.0424399 0.999099 0
outer loop
vertex 151.27 69.919 150
vertex 149.576 69.991 185
vertex 151.27 69.919 185
endloop
endfacet
facet normal 0.21068 0.977555 0
outer loop
vertex 151.27 69.919 150
vertex 151.27 69.919 185
vertex 152.928 69.5617 150
endloop
endfacet
facet normal 0.21068 0.977555 0
outer loop
vertex 152.928 69.5617 150
vertex 151.27 69.919 185
vertex 152.928 69.5617 185
endloop
endfacet
facet normal 0.372864 0.927886 0
outer loop
vertex 152.928 69.5617 150
vertex 152.928 69.5617 185
vertex 154.502 68.9293 150
endloop
endfacet
facet normal 0.372864 0.927886 0
outer loop
vertex 154.502 68.9293 150
vertex 152.928 69.5617 185
vertex 154.502 68.9293 185
endloop
endfacet
facet normal 0.524302 0.851532 0
outer loop
vertex 154.502 68.9293 150
vertex 154.502 68.9293 185
vertex 155.946 68.04 150
endloop
endfacet
facet normal 0.524302 0.851532 0
outer loop
vertex 155.946 68.04 150
vertex 154.502 68.9293 185
vertex 155.946 68.04 185
endloop
endfacet
facet normal 0.660676 0.750671 0
outer loop
vertex 155.946 68.04 150
vertex 155.946 68.04 185
vertex 157.22 66.9194 150
endloop
endfacet
facet normal 0.660676 0.750671 0
outer loop
vertex 157.22 66.9194 150
vertex 155.946 68.04 185
vertex 157.22 66.9194 185
endloop
endfacet
facet normal 0.778036 0.62822 0
outer loop
vertex 157.22 66.9194 150
vertex 157.22 66.9194 185
vertex 158.285 65.5997 150
endloop
endfacet
facet normal 0.778036 0.62822 0
outer loop
vertex 158.285 65.5997 150
vertex 157.22 66.9194 185
vertex 158.285 65.5997 185
endloop
endfacet
facet normal 0.873013 0.487697 0
outer loop
vertex 158.285 65.5997 150
vertex 158.285 65.5997 185
vertex 159.112 64.119 150
endloop
endfacet
facet normal 0.873013 0.487697 0
outer loop
vertex 159.112 64.119 150
vertex 158.285 65.5997 185
vertex 159.112 64.119 185
endloop
endfacet
facet normal 0.942879 0.333134 0
outer loop
vertex 159.112 64.119 150
vertex 159.112 64.119 185
vertex 159.677 62.5198 150
endloop
endfacet
facet normal 0.942879 0.333134 0
outer loop
vertex 159.677 62.5198 150
vertex 159.112 64.119 185
vertex 159.677 62.5198 185
endloop
endfacet
facet normal 0.985615 0.169004 0
outer loop
vertex 159.677 62.5198 150
vertex 159.677 62.5198 185
vertex 159.964 60.8481 150
endloop
endfacet
facet normal 0.985615 0.169004 0
outer loop
vertex 159.964 60.8481 150
vertex 159.677 62.5198 185
vertex 159.964 60.8481 185
endloop
endfacet
facet normal 1 0 0
outer loop
vertex 159.964 60.8481 150
vertex 159.964 60.8481 185
vertex 159.964 59.1519 150
endloop
endfacet
facet normal 1 0 0
outer loop
vertex 159.964 59.1519 150
vertex 159.964 60.8481 185
vertex 159.964 59.1519 185
endloop
endfacet
facet normal 0.985615 -0.169005 0
outer loop
vertex 159.964 59.1519 150
vertex 159.964 59.1519 185
vertex 159.677 57.4802 150
endloop
endfacet
facet normal 0.985615 -0.169005 0
outer loop
vertex 159.677 57.4802 150
vertex 159.964 59.1519 185
vertex 159.677 57.4802 185
endloop
endfacet
facet normal 0.94288 -0.333133 0
outer loop
vertex 159.677 57.4802 150
vertex 159.677 57.4802 185
vertex 159.112 55.881 150
endloop
endfacet
facet normal 0.94288 -0.333133 0
outer loop
vertex 159.112 55.881 150
vertex 159.677 57.4802 185
vertex 159.112 55.881 185
endloop
endfacet
facet normal 0.873013 -0.487697 0
outer loop
vertex 159.112 55.881 150
vertex 159.112 55.881 185
vertex 158.285 54.4002 150
endloop
endfacet
facet normal 0.873013 -0.487697 0
outer loop
vertex 158.285 54.4002 150
vertex 159.112 55.881 185
vertex 158.285 54.4002 185
endloop
endfacet
facet normal 0.778035 -0.628221 0
outer loop
vertex 158.285 54.4002 150
vertex 158.285 54.4002 185
vertex 157.22 53.0806 150
endloop
endfacet
facet normal 0.778035 -0.628221 0
outer loop
vertex 157.22 53.0806 150
vertex 158.285 54.4002 185
vertex 157.22 53.0806 185
endloop
endfacet
facet normal 0.660676 -0.750671 0
outer loop
vertex 157.22 53.0806 150
vertex 157.22 53.0806 185
vertex 155.946 51.96 150
endloop
endfacet
facet normal 0.660676 -0.750671 0
outer loop
vertex 155.946 51.96 150
vertex 157.22 53.0806 185
vertex 155.946 51.96 185
endloop
endfacet
facet normal 0.524304 -0.851531 0
outer loop
vertex 155.946 51.96 150
vertex 155.946 51.96 185
vertex 154.502 51.0707 150
endloop
endfacet
facet normal 0.524304 -0.851531 0
outer loop
vertex 154.502 51.0707 150
vertex 155.946 51.96 185
vertex 154.502 51.0707 185
endloop
endfacet
facet normal 0.372862 -0.927887 0
outer loop
vertex 154.502 51.0707 150
vertex 154.502 51.0707 185
vertex 152.928 50.4383 150
endloop
endfacet
facet normal 0.372862 -0.927887 0
outer loop
vertex 152.928 50.4383 150
vertex 154.502 51.0707 185
vertex 152.928 50.4383 185
endloop
endfacet
facet normal 0.210678 -0.977556 0
outer loop
vertex 152.928 50.4383 150
vertex 152.928 50.4383 185
vertex 151.27 50.081 150
endloop
endfacet
facet normal 0.210678 -0.977556 0
outer loop
vertex 151.27 50.081 150
vertex 152.928 50.4383 185
vertex 151.27 50.081 185
endloop
endfacet
facet normal 0.0424422 -0.999099 0
outer loop
vertex 151.27 50.081 150
vertex 151.27 50.081 185
vertex 149.576 50.009 150
endloop
endfacet
facet normal 0.0424422 -0.999099 0
outer loop
vertex 149.576 50.009 150
vertex 151.27 50.081 185
vertex 149.576 50.009 185
endloop
endfacet
facet normal -0.127016 -0.991901 0
outer loop
vertex 149.576 50.009 150
vertex 149.576 50.009 185
vertex 147.893 50.2244 150
endloop
endfacet
facet normal -0.127016 -0.991901 0
outer loop
vertex 147.893 50.2244 150
vertex 149.576 50.009 185
vertex 147.893 50.2244 185
endloop
endfacet
facet normal -0.292824 -0.956166 0
outer loop
vertex 147.893 50.2244 150
vertex 147.893 50.2244 185
vertex 146.271 50.7211 150
endloop
endfacet
facet normal -0.292824 -0.956166 0
outer loop
vertex 146.271 50.7211 150
vertex 147.893 50.2244 185
vertex 146.271 50.7211 185
endloop
endfacet
facet normal -0.450203 -0.892926 0
outer loop
vertex 146.271 50.7211 150
vertex 146.271 50.7211 185
vertex 144.757 51.4847 150
endloop
endfacet
facet normal -0.450203 -0.892926 0
outer loop
vertex 144.757 51.4847 150
vertex 146.271 50.7211 185
vertex 144.757 51.4847 185
endloop
endfacet
facet normal -0.594633 -0.803997 0
outer loop
vertex 144.757 51.4847 150
vertex 144.757 51.4847 185
vertex 143.393 52.4933 150
endloop
endfacet
facet normal -0.594633 -0.803997 0
outer loop
vertex 143.393 52.4933 150
vertex 144.757 51.4847 185
vertex 143.393 52.4933 185
endloop
endfacet
facet normal -0.721959 -0.691936 0
outer loop
vertex 143.393 52.4933 150
vertex 143.393 52.4933 185
vertex 142.22 53.7178 150
endloop
endfacet
facet normal -0.721959 -0.691936 0
outer loop
vertex 142.22 53.7178 150
vertex 143.393 52.4933 185
vertex 142.22 53.7178 185
endloop
endfacet
facet normal -0.82851 -0.559975 0
outer loop
vertex 142.22 53.7178 150
vertex 142.22 53.7178 185
vertex 141.27 55.1231 150
endloop
endfacet
facet normal -0.82851 -0.559975 0
outer loop
vertex 141.27 55.1231 150
vertex 142.22 53.7178 185
vertex 141.27 55.1231 185
endloop
endfacet
facet normal -0.911227 -0.411904 0
outer loop
vertex 141.27 55.1231 150
vertex 141.27 55.1231 185
vertex 140.571 56.6686 150
endloop
endfacet
facet normal -0.911227 -0.411904 0
outer loop
vertex 140.571 56.6686 150
vertex 141.27 55.1231 185
vertex 140.571 56.6686 185
endloop
endfacet
facet normal -0.967733 -0.251978 0
outer loop
vertex 140.571 56.6686 150
vertex 140.571 56.6686 185
vertex 140.144 58.31 150
endloop
endfacet
facet normal -0.967733 -0.251978 0
outer loop
vertex 140.144 58.31 150
vertex 140.571 56.6686 185
vertex 140.144 58.31 185
endloop
endfacet
facet normal -0.996397 -0.084808 0
outer loop
vertex 140.144 58.31 150
vertex 140.144 58.31 185
vertex 140 60 150
endloop
endfacet
facet normal -0.996397 -0.084808 0
outer loop
vertex 140 60 150
vertex 140.144 58.31 185
vertex 140 60 185
endloop
endfacet
facet normal -0.996397 0.0848082 0
outer loop
vertex 140 60 150
vertex 140 60 185
vertex 140.144 61.69 150
endloop
endfacet
facet normal -0.996397 0.0848082 0
outer loop
vertex 140.144 61.69 150
vertex 140 60 185
vertex 140.144 61.69 185
endloop
endfacet
endsolid
