solid C:\Temp\NOELParts\BOLT_HEX.STL created by CtrlView V2.70
facet normal 0 1 0
outer loop
vertex 3.69072 553.637 159.82
vertex 3.69072 553.637 172.604
vertex 4.52459 553.637 173.018
endloop
endfacet
facet normal 0 1 0
outer loop
vertex 3.69072 553.637 159.82
vertex 11.072 553.637 172.604
vertex 11.8471 553.637 172.089
endloop
endfacet
facet normal 0 1 0
outer loop
vertex 1.5325 553.637 161.709
vertex 0.98902 553.637 162.521
vertex 2.17849 553.637 160.976
endloop
endfacet
facet normal 0 1 0
outer loop
vertex 2.17849 553.637 160.976
vertex 0.98902 553.637 162.521
vertex 0.557542 553.637 163.398
endloop
endfacet
facet normal 0 1 0
outer loop
vertex 2.17849 553.637 160.976
vertex 0.557542 553.637 163.398
vertex 2.91562 553.637 160.335
endloop
endfacet
facet normal 0 1 0
outer loop
vertex 2.91562 553.637 160.335
vertex 0.557542 553.637 163.398
vertex 0.24569 553.637 164.324
endloop
endfacet
facet normal 0 1 0
outer loop
vertex 2.91562 553.637 160.335
vertex 0.24569 553.637 164.324
vertex 3.69072 553.637 159.82
endloop
endfacet
facet normal 0 1 0
outer loop
vertex 3.69072 553.637 159.82
vertex 0.24569 553.637 164.324
vertex 0.0588298 553.637 165.283
endloop
endfacet
facet normal 0 1 0
outer loop
vertex 3.69072 553.637 159.82
vertex 0.0588298 553.637 165.283
vertex 3.69072 553.637 172.604
endloop
endfacet
facet normal 0 1 0
outer loop
vertex 11.072 553.637 172.604
vertex 3.69072 553.637 159.82
vertex 10.2382 553.637 173.018
endloop
endfacet
facet normal 0 1 0
outer loop
vertex 10.2382 553.637 173.018
vertex 3.69072 553.637 159.82
vertex 4.52459 553.637 173.018
endloop
endfacet
facet normal 0 1 0
outer loop
vertex 10.2382 553.637 173.018
vertex 4.52459 553.637 173.018
vertex 9.31418 553.637 173.336
endloop
endfacet
facet normal 0 1 0
outer loop
vertex 9.31418 553.637 173.336
vertex 4.52459 553.637 173.018
vertex 5.44858 553.637 173.336
endloop
endfacet
facet normal 0 1 0
outer loop
vertex 9.31418 553.637 173.336
vertex 5.44858 553.637 173.336
vertex 8.35633 553.637 173.529
endloop
endfacet
facet normal 0 1 0
outer loop
vertex 8.35633 553.637 173.529
vertex 5.44858 553.637 173.336
vertex 6.40643 553.637 173.529
endloop
endfacet
facet normal 0 1 0
outer loop
vertex 8.35633 553.637 173.529
vertex 6.40643 553.637 173.529
vertex 7.38138 553.637 173.593
endloop
endfacet
facet normal 0 1 0
outer loop
vertex 13.2303 553.637 170.715
vertex 13.7737 553.637 169.903
vertex 14.2052 553.637 169.026
endloop
endfacet
facet normal 0 1 0
outer loop
vertex 13.2303 553.637 170.715
vertex 14.2052 553.637 169.026
vertex 12.5843 553.637 171.448
endloop
endfacet
facet normal 0 1 0
outer loop
vertex 12.5843 553.637 171.448
vertex 14.2052 553.637 169.026
vertex 14.5171 553.637 168.1
endloop
endfacet
facet normal 0 1 0
outer loop
vertex 12.5843 553.637 171.448
vertex 14.5171 553.637 168.1
vertex 11.8471 553.637 172.089
endloop
endfacet
facet normal 0 1 0
outer loop
vertex 11.8471 553.637 172.089
vertex 14.5171 553.637 168.1
vertex 14.7039 553.637 167.141
endloop
endfacet
facet normal 0 1 0
outer loop
vertex 11.8471 553.637 172.089
vertex 14.7039 553.637 167.141
vertex 3.69072 553.637 159.82
endloop
endfacet
facet normal 0 1 0
outer loop
vertex 3.69072 553.637 159.82
vertex 14.7039 553.637 167.141
vertex 14.7626 553.637 166.212
endloop
endfacet
facet normal 0 1 0
outer loop
vertex 3.69072 553.637 159.82
vertex 14.7626 553.637 166.212
vertex 14.7039 553.637 165.283
endloop
endfacet
facet normal 0 1 0
outer loop
vertex 8.35633 553.637 158.895
vertex 7.38138 553.637 158.831
vertex 6.40643 553.637 158.895
endloop
endfacet
facet normal 0 1 0
outer loop
vertex 0.0588298 553.637 165.283
vertex 0.000119209 553.637 166.212
vertex 3.69072 553.637 172.604
endloop
endfacet
facet normal 0 1 0
outer loop
vertex 3.69072 553.637 172.604
vertex 0.000119209 553.637 166.212
vertex 0.0588298 553.637 167.141
endloop
endfacet
facet normal 0 1 0
outer loop
vertex 3.69072 553.637 172.604
vertex 0.0588298 553.637 167.141
vertex 2.91562 553.637 172.089
endloop
endfacet
facet normal 0 1 0
outer loop
vertex 2.91562 553.637 172.089
vertex 0.0588298 553.637 167.141
vertex 0.24569 553.637 168.1
endloop
endfacet
facet normal 0 1 0
outer loop
vertex 2.91562 553.637 172.089
vertex 0.24569 553.637 168.1
vertex 2.17849 553.637 171.448
endloop
endfacet
facet normal 0 1 0
outer loop
vertex 2.17849 553.637 171.448
vertex 0.24569 553.637 168.1
vertex 0.557542 553.637 169.026
endloop
endfacet
facet normal 0 1 0
outer loop
vertex 2.17849 553.637 171.448
vertex 0.557542 553.637 169.026
vertex 1.5325 553.637 170.715
endloop
endfacet
facet normal 0 1 0
outer loop
vertex 1.5325 553.637 170.715
vertex 0.557542 553.637 169.026
vertex 0.98902 553.637 169.903
endloop
endfacet
facet normal 0 1 0
outer loop
vertex 8.35633 553.637 158.895
vertex 6.40643 553.637 158.895
vertex 9.31418 553.637 159.088
endloop
endfacet
facet normal 0 1 0
outer loop
vertex 9.31418 553.637 159.088
vertex 6.40643 553.637 158.895
vertex 5.44858 553.637 159.088
endloop
endfacet
facet normal 0 1 0
outer loop
vertex 9.31418 553.637 159.088
vertex 5.44858 553.637 159.088
vertex 10.2382 553.637 159.406
endloop
endfacet
facet normal 0 1 0
outer loop
vertex 10.2382 553.637 159.406
vertex 5.44858 553.637 159.088
vertex 4.52459 553.637 159.406
endloop
endfacet
facet normal 0 1 0
outer loop
vertex 10.2382 553.637 159.406
vertex 4.52459 553.637 159.406
vertex 11.072 553.637 159.82
endloop
endfacet
facet normal 0 1 0
outer loop
vertex 11.072 553.637 159.82
vertex 4.52459 553.637 159.406
vertex 3.69072 553.637 159.82
endloop
endfacet
facet normal 0 1 0
outer loop
vertex 11.072 553.637 159.82
vertex 3.69072 553.637 159.82
vertex 11.8471 553.637 160.335
endloop
endfacet
facet normal 0 1 0
outer loop
vertex 11.8471 553.637 160.335
vertex 3.69072 553.637 159.82
vertex 14.7039 553.637 165.283
endloop
endfacet
facet normal 0 1 0
outer loop
vertex 11.8471 553.637 160.335
vertex 14.7039 553.637 165.283
vertex 12.5843 553.637 160.976
endloop
endfacet
facet normal 0 1 0
outer loop
vertex 12.5843 553.637 160.976
vertex 14.7039 553.637 165.283
vertex 14.5171 553.637 164.324
endloop
endfacet
facet normal 0 1 0
outer loop
vertex 12.5843 553.637 160.976
vertex 14.5171 553.637 164.324
vertex 13.2303 553.637 161.709
endloop
endfacet
facet normal 0 1 0
outer loop
vertex 13.2303 553.637 161.709
vertex 14.5171 553.637 164.324
vertex 14.2052 553.637 163.398
endloop
endfacet
facet normal 0 1 0
outer loop
vertex 13.2303 553.637 161.709
vertex 14.2052 553.637 163.398
vertex 13.7737 553.637 162.521
endloop
endfacet
facet normal -0.236689 0.97147 0.0149589
outer loop
vertex 0.0588298 553.637 167.141
vertex 0.000119209 553.637 166.212
vertex 0.000119209 553.63 166.608
endloop
endfacet
facet normal -0.213892 0.922357 0.321727
outer loop
vertex 3.10433 553.619 172.266
vertex 3.69072 553.637 172.604
vertex 2.91562 553.637 172.089
endloop
endfacet
facet normal -0.34431 0.862591 0.370659
outer loop
vertex 1.90622 553.474 171.574
vertex 1.99842 553.487 171.627
vertex 2.17849 553.637 171.448
endloop
endfacet
facet normal -0.343989 0.862583 0.370974
outer loop
vertex 2.17849 553.637 171.448
vertex 1.99842 553.487 171.627
vertex 2.51102 553.565 171.923
endloop
endfacet
facet normal -0.299062 0.890176 0.343728
outer loop
vertex 2.17849 553.637 171.448
vertex 2.51102 553.565 171.923
vertex 2.91562 553.637 172.089
endloop
endfacet
facet normal -0.327236 0.839048 0.434643
outer loop
vertex 2.91562 553.637 172.089
vertex 2.51102 553.565 171.923
vertex 2.87896 553.598 172.136
endloop
endfacet
facet normal -0.327408 0.83905 0.434509
outer loop
vertex 2.91562 553.637 172.089
vertex 2.87896 553.598 172.136
vertex 3.10433 553.619 172.266
endloop
endfacet
facet normal -0.369114 0.870033 0.326799
outer loop
vertex 1.90622 553.474 171.574
vertex 2.17849 553.637 171.448
vertex 1.28502 553.345 171.215
endloop
endfacet
facet normal -0.368906 0.870766 0.325077
outer loop
vertex 1.28502 553.345 171.215
vertex 2.17849 553.637 171.448
vertex 1.5325 553.637 170.715
endloop
endfacet
facet normal -0.401587 0.863624 0.304765
outer loop
vertex 1.28502 553.345 171.215
vertex 1.5325 553.637 170.715
vertex 1.0516 553.284 171.081
endloop
endfacet
facet normal -0.401654 0.863624 0.304678
outer loop
vertex 1.0516 553.284 171.081
vertex 1.5325 553.637 170.715
vertex 0.642538 553.177 170.844
endloop
endfacet
facet normal -0.409499 0.870167 0.27408
outer loop
vertex 0.642538 553.177 170.844
vertex 1.5325 553.637 170.715
vertex 0.98902 553.637 169.903
endloop
endfacet
facet normal -0.423132 0.865848 0.266957
outer loop
vertex 0.642538 553.177 170.844
vertex 0.98902 553.637 169.903
vertex 0.000119209 552.977 170.474
endloop
endfacet
facet normal -0.482904 0.860438 0.162635
outer loop
vertex 0.24569 553.637 168.1
vertex 0.000119209 553.486 168.167
vertex 0.557542 553.637 169.026
endloop
endfacet
facet normal -0.444694 0.88569 0.133422
outer loop
vertex 0.557542 553.637 169.026
vertex 0.000119209 553.486 168.167
vertex 0.000119209 553.431 168.529
endloop
endfacet
facet normal -0.469021 0.866972 0.168464
outer loop
vertex 0.000119209 553.431 168.529
vertex 0.000119209 553.306 169.173
vertex 0.557542 553.637 169.026
endloop
endfacet
facet normal -0.459007 0.86512 0.202187
outer loop
vertex 0.557542 553.637 169.026
vertex 0.000119209 553.306 169.173
vertex 0.000119209 553.287 169.257
endloop
endfacet
facet normal -0.450624 0.864723 0.221793
outer loop
vertex 0.557542 553.637 169.026
vertex 0.000119209 553.287 169.257
vertex 0.98902 553.637 169.903
endloop
endfacet
facet normal -0.442527 0.873037 0.204881
outer loop
vertex 0.98902 553.637 169.903
vertex 0.000119209 553.287 169.257
vertex 0.000119209 553.154 169.821
endloop
endfacet
facet normal -0.441536 0.865888 0.235126
outer loop
vertex 0.98902 553.637 169.903
vertex 0.000119209 553.154 169.821
vertex 0.000119209 552.977 170.474
endloop
endfacet
facet normal -0.51954 0.853125 0.0474962
outer loop
vertex 0.000119209 553.63 166.608
vertex 0.000119209 553.6 167.149
vertex 0.0588298 553.637 167.141
endloop
endfacet
facet normal -0.519513 0.853129 0.0477092
outer loop
vertex 0.0588298 553.637 167.141
vertex 0.000119209 553.6 167.149
vertex 0.000119209 553.595 167.248
endloop
endfacet
facet normal -0.462568 0.881991 0.0901269
outer loop
vertex 0.0588298 553.637 167.141
vertex 0.000119209 553.595 167.248
vertex 0.24569 553.637 168.1
endloop
endfacet
facet normal -0.467426 0.879268 0.0916607
outer loop
vertex 0.24569 553.637 168.1
vertex 0.000119209 553.595 167.248
vertex 0.000119209 553.528 167.888
endloop
endfacet
facet normal -0.492101 0.860822 0.129701
outer loop
vertex 0.24569 553.637 168.1
vertex 0.000119209 553.528 167.888
vertex 0.000119209 553.486 168.167
endloop
endfacet
facet normal -0.105523 0.971398 0.212721
outer loop
vertex 4.52459 553.637 173.018
vertex 3.69072 553.637 172.604
vertex 4.03404 553.63 172.802
endloop
endfacet
facet normal 0.171662 0.922387 0.346025
outer loop
vertex 10.4856 553.619 172.943
vertex 11.072 553.637 172.604
vertex 10.2382 553.637 173.018
endloop
endfacet
facet normal 0.149067 0.862553 0.48351
outer loop
vertex 9.28748 553.474 173.635
vertex 9.37968 553.487 173.581
vertex 9.31418 553.637 173.336
endloop
endfacet
facet normal 0.149283 0.862549 0.48345
outer loop
vertex 9.31418 553.637 173.336
vertex 9.37968 553.487 173.581
vertex 9.89228 553.565 173.285
endloop
endfacet
facet normal 0.14815 0.89017 0.430871
outer loop
vertex 9.31418 553.637 173.336
vertex 9.89228 553.565 173.285
vertex 10.2382 553.637 173.018
endloop
endfacet
facet normal 0.212958 0.838899 0.500897
outer loop
vertex 10.2382 553.637 173.018
vertex 9.89228 553.565 173.285
vertex 10.2602 553.598 173.073
endloop
endfacet
facet normal 0.212657 0.838902 0.50102
outer loop
vertex 10.2382 553.637 173.018
vertex 10.2602 553.598 173.073
vertex 10.4856 553.619 172.943
endloop
endfacet
facet normal 0.0984234 0.870035 0.483065
outer loop
vertex 9.28748 553.474 173.635
vertex 9.31418 553.637 173.336
vertex 8.66628 553.345 173.993
endloop
endfacet
facet normal 0.0970641 0.870753 0.482045
outer loop
vertex 8.66628 553.345 173.993
vertex 9.31418 553.637 173.336
vertex 8.35633 553.637 173.529
endloop
endfacet
facet normal 0.0631912 0.863624 0.50016
outer loop
vertex 8.66628 553.345 173.993
vertex 8.35633 553.637 173.529
vertex 8.43281 553.284 174.128
endloop
endfacet
facet normal 0.0630305 0.863624 0.500181
outer loop
vertex 8.43281 553.284 174.128
vertex 8.35633 553.637 173.529
vertex 8.0238 553.177 174.364
endloop
endfacet
facet normal 0.0326119 0.870167 0.491676
outer loop
vertex 8.0238 553.177 174.364
vertex 8.35633 553.637 173.529
vertex 7.38138 553.637 173.593
endloop
endfacet
facet normal 0.0196259 0.865849 0.499921
outer loop
vertex 8.0238 553.177 174.364
vertex 7.38138 553.637 173.593
vertex 7.38138 552.977 174.735
endloop
endfacet
facet normal -0.10059 0.860421 0.499557
outer loop
vertex 5.44858 553.637 173.336
vertex 5.38367 553.486 173.582
vertex 6.40643 553.637 173.529
endloop
endfacet
facet normal -0.106789 0.885687 0.451834
outer loop
vertex 6.40643 553.637 173.529
vertex 5.38367 553.486 173.582
vertex 5.69773 553.431 173.763
endloop
endfacet
facet normal -0.0886105 0.866976 0.490409
outer loop
vertex 5.69773 553.431 173.763
vertex 6.25539 553.306 174.085
vertex 6.40643 553.637 173.529
endloop
endfacet
facet normal -0.0544388 0.865128 0.498588
outer loop
vertex 6.40643 553.637 173.529
vertex 6.25539 553.306 174.085
vertex 6.32793 553.287 174.127
endloop
endfacet
facet normal -0.0332394 0.86473 0.501136
outer loop
vertex 6.40643 553.637 173.529
vertex 6.32793 553.287 174.127
vertex 7.38138 553.637 173.593
endloop
endfacet
facet normal -0.0438322 0.87304 0.485674
outer loop
vertex 7.38138 553.637 173.593
vertex 6.32793 553.287 174.127
vertex 6.81627 553.154 174.409
endloop
endfacet
facet normal -0.0171352 0.865888 0.499944
outer loop
vertex 7.38138 553.637 173.593
vertex 6.81627 553.154 174.409
vertex 7.38138 552.977 174.735
endloop
endfacet
facet normal -0.218753 0.852997 0.47386
outer loop
vertex 4.03404 553.63 172.802
vertex 4.50212 553.6 173.073
vertex 4.52459 553.637 173.018
endloop
endfacet
facet normal -0.218593 0.853 0.473929
outer loop
vertex 4.52459 553.637 173.018
vertex 4.50212 553.6 173.073
vertex 4.58813 553.595 173.122
endloop
endfacet
facet normal -0.153267 0.881936 0.445755
outer loop
vertex 4.52459 553.637 173.018
vertex 4.58813 553.595 173.122
vertex 5.44858 553.637 173.336
endloop
endfacet
facet normal -0.154358 0.879238 0.450682
outer loop
vertex 5.44858 553.637 173.336
vertex 4.58813 553.595 173.122
vertex 5.14233 553.528 173.442
endloop
endfacet
facet normal -0.133768 0.860806 0.49104
outer loop
vertex 5.44858 553.637 173.336
vertex 5.14233 553.528 173.442
vertex 5.38367 553.486 173.582
endloop
endfacet
facet normal 0.131338 0.971451 0.197569
outer loop
vertex 11.8471 553.637 172.089
vertex 11.072 553.637 172.604
vertex 11.4152 553.63 172.406
endloop
endfacet
facet normal 0.385447 0.922408 0.0243603
outer loop
vertex 14.7626 553.619 166.889
vertex 14.7626 553.637 166.212
vertex 14.7039 553.637 167.141
endloop
endfacet
facet normal 0.493193 0.862586 0.112721
outer loop
vertex 14.7626 553.474 168.273
vertex 14.7626 553.487 168.166
vertex 14.5171 553.637 168.1
endloop
endfacet
facet normal 0.493267 0.862581 0.112434
outer loop
vertex 14.5171 553.637 168.1
vertex 14.7626 553.487 168.166
vertex 14.7626 553.565 167.574
endloop
endfacet
facet normal 0.44717 0.890195 0.0871269
outer loop
vertex 14.5171 553.637 168.1
vertex 14.7626 553.565 167.574
vertex 14.7039 553.637 167.141
endloop
endfacet
facet normal 0.540075 0.839021 0.0660466
outer loop
vertex 14.7039 553.637 167.141
vertex 14.7626 553.565 167.574
vertex 14.7626 553.598 167.149
endloop
endfacet
facet normal 0.540037 0.839024 0.0663268
outer loop
vertex 14.7039 553.637 167.141
vertex 14.7626 553.598 167.149
vertex 14.7626 553.619 166.889
endloop
endfacet
facet normal 0.467525 0.870054 0.15629
outer loop
vertex 14.7626 553.474 168.273
vertex 14.5171 553.637 168.1
vertex 14.7626 553.345 168.99
endloop
endfacet
facet normal 0.465959 0.870773 0.156958
outer loop
vertex 14.7626 553.345 168.99
vertex 14.5171 553.637 168.1
vertex 14.2052 553.637 169.026
endloop
endfacet
facet normal 0.464712 0.863643 0.195354
outer loop
vertex 14.7626 553.345 168.99
vertex 14.2052 553.637 169.026
vertex 14.7626 553.284 169.259
endloop
endfacet
facet normal 0.464639 0.863643 0.195529
outer loop
vertex 14.7626 553.284 169.259
vertex 14.2052 553.637 169.026
vertex 14.7626 553.177 169.732
endloop
endfacet
facet normal 0.442112 0.870171 0.217574
outer loop
vertex 14.7626 553.177 169.732
vertex 14.2052 553.637 169.026
vertex 13.7737 553.637 169.903
endloop
endfacet
facet normal 0.442761 0.865848 0.232959
outer loop
vertex 14.7626 553.177 169.732
vertex 13.7737 553.637 169.903
vertex 14.7626 552.977 170.474
endloop
endfacet
facet normal 0.382308 0.860435 0.336887
outer loop
vertex 12.5843 553.637 171.448
vertex 12.7649 553.486 171.627
vertex 13.2303 553.637 170.715
endloop
endfacet
facet normal 0.337881 0.885699 0.318393
outer loop
vertex 13.2303 553.637 170.715
vertex 12.7649 553.486 171.627
vertex 13.079 553.431 171.446
endloop
endfacet
facet normal 0.380431 0.866963 0.321943
outer loop
vertex 13.079 553.431 171.446
vertex 13.6366 553.306 171.124
vertex 13.2303 553.637 170.715
endloop
endfacet
facet normal 0.404577 0.865116 0.296466
outer loop
vertex 13.2303 553.637 170.715
vertex 13.6366 553.306 171.124
vertex 13.7092 553.287 171.082
endloop
endfacet
facet normal 0.417396 0.864717 0.279366
outer loop
vertex 13.2303 553.637 170.715
vertex 13.7092 553.287 171.082
vertex 13.7737 553.637 169.903
endloop
endfacet
facet normal 0.398686 0.873038 0.28081
outer loop
vertex 13.7737 553.637 169.903
vertex 13.7092 553.287 171.082
vertex 14.1975 553.154 170.8
endloop
endfacet
facet normal 0.424387 0.865888 0.264828
outer loop
vertex 13.7737 553.637 169.903
vertex 14.1975 553.154 170.8
vertex 14.7626 552.977 170.474
endloop
endfacet
facet normal 0.300987 0.853021 0.426336
outer loop
vertex 11.4152 553.63 172.406
vertex 11.8833 553.6 172.136
vertex 11.8471 553.637 172.089
endloop
endfacet
facet normal 0.301137 0.853024 0.426224
outer loop
vertex 11.8471 553.637 172.089
vertex 11.8833 553.6 172.136
vertex 11.9693 553.595 172.086
endloop
endfacet
facet normal 0.309408 0.88193 0.35562
outer loop
vertex 11.8471 553.637 172.089
vertex 11.9693 553.595 172.086
vertex 12.5843 553.637 171.448
endloop
endfacet
facet normal 0.313122 0.879238 0.35902
outer loop
vertex 12.5843 553.637 171.448
vertex 11.9693 553.595 172.086
vertex 12.5235 553.528 171.766
endloop
endfacet
facet normal 0.358336 0.860818 0.361369
outer loop
vertex 12.5843 553.637 171.448
vertex 12.5235 553.528 171.766
vertex 12.7649 553.486 171.627
endloop
endfacet
facet normal 0.236691 0.97147 -0.0149589
outer loop
vertex 14.7039 553.637 165.283
vertex 14.7626 553.637 166.212
vertex 14.7626 553.63 165.816
endloop
endfacet
facet normal 0.482903 0.860433 -0.162666
outer loop
vertex 14.5171 553.637 164.324
vertex 14.7626 553.486 164.257
vertex 14.2052 553.637 163.398
endloop
endfacet
facet normal 0.444652 0.885711 -0.133419
outer loop
vertex 14.2052 553.637 163.398
vertex 14.7626 553.486 164.257
vertex 14.7626 553.431 163.895
endloop
endfacet
facet normal 0.442532 0.873035 -0.204881
outer loop
vertex 14.7626 553.154 162.603
vertex 13.7737 553.637 162.521
vertex 14.7626 553.287 163.167
endloop
endfacet
facet normal 0.45061 0.864741 -0.221752
outer loop
vertex 14.7626 553.287 163.167
vertex 13.7737 553.637 162.521
vertex 14.2052 553.637 163.398
endloop
endfacet
facet normal 0.458957 0.865137 -0.202228
outer loop
vertex 14.7626 553.287 163.167
vertex 14.2052 553.637 163.398
vertex 14.7626 553.306 163.251
endloop
endfacet
facet normal 0.468982 0.866992 -0.168468
outer loop
vertex 14.7626 553.306 163.251
vertex 14.2052 553.637 163.398
vertex 14.7626 553.431 163.895
endloop
endfacet
facet normal 0.519543 0.853123 -0.0474961
outer loop
vertex 14.7626 553.63 165.816
vertex 14.7626 553.6 165.275
vertex 14.7039 553.637 165.283
endloop
endfacet
facet normal 0.519517 0.853127 -0.0477091
outer loop
vertex 14.7039 553.637 165.283
vertex 14.7626 553.6 165.275
vertex 14.7626 553.595 165.176
endloop
endfacet
facet normal 0.46257 0.88199 -0.0901275
outer loop
vertex 14.7039 553.637 165.283
vertex 14.7626 553.595 165.176
vertex 14.5171 553.637 164.324
endloop
endfacet
facet normal 0.467426 0.879268 -0.0916607
outer loop
vertex 14.5171 553.637 164.324
vertex 14.7626 553.595 165.176
vertex 14.7626 553.528 164.536
endloop
endfacet
facet normal 0.492105 0.860819 -0.129707
outer loop
vertex 14.5171 553.637 164.324
vertex 14.7626 553.528 164.536
vertex 14.7626 553.486 164.257
endloop
endfacet
facet normal 0.32741 0.839049 -0.434511
outer loop
vertex 11.8838 553.598 160.288
vertex 11.6584 553.619 160.158
vertex 11.8471 553.637 160.335
endloop
endfacet
facet normal 0.213842 0.922386 -0.321677
outer loop
vertex 11.8471 553.637 160.335
vertex 11.6584 553.619 160.158
vertex 11.072 553.637 159.82
endloop
endfacet
facet normal 0.327224 0.839047 -0.434655
outer loop
vertex 11.8838 553.598 160.288
vertex 11.8471 553.637 160.335
vertex 12.2517 553.565 160.501
endloop
endfacet
facet normal 0.299042 0.890191 -0.343706
outer loop
vertex 12.2517 553.565 160.501
vertex 11.8471 553.637 160.335
vertex 12.5843 553.637 160.976
endloop
endfacet
facet normal 0.34405 0.862548 -0.370999
outer loop
vertex 12.2517 553.565 160.501
vertex 12.5843 553.637 160.976
vertex 12.7643 553.487 160.797
endloop
endfacet
facet normal 0.36893 0.870748 -0.325098
outer loop
vertex 13.2303 553.637 161.709
vertex 13.4777 553.345 161.209
vertex 12.5843 553.637 160.976
endloop
endfacet
facet normal 0.369129 0.870047 -0.326745
outer loop
vertex 12.5843 553.637 160.976
vertex 13.4777 553.345 161.209
vertex 12.8565 553.474 160.85
endloop
endfacet
facet normal 0.344156 0.862551 -0.370895
outer loop
vertex 12.5843 553.637 160.976
vertex 12.8565 553.474 160.85
vertex 12.7643 553.487 160.797
endloop
endfacet
facet normal 0.441542 0.865886 -0.23512
outer loop
vertex 14.7626 553.154 162.603
vertex 14.7626 552.977 161.95
vertex 13.7737 553.637 162.521
endloop
endfacet
facet normal 0.423133 0.865847 -0.26696
outer loop
vertex 13.7737 553.637 162.521
vertex 14.7626 552.977 161.95
vertex 14.1202 553.177 161.579
endloop
endfacet
facet normal 0.409498 0.870166 -0.274085
outer loop
vertex 13.7737 553.637 162.521
vertex 14.1202 553.177 161.579
vertex 13.2303 553.637 161.709
endloop
endfacet
facet normal 0.40165 0.86362 -0.304692
outer loop
vertex 13.2303 553.637 161.709
vertex 14.1202 553.177 161.579
vertex 13.7112 553.284 161.343
endloop
endfacet
facet normal 0.401542 0.86362 -0.304833
outer loop
vertex 13.2303 553.637 161.709
vertex 13.7112 553.284 161.343
vertex 13.4777 553.345 161.209
endloop
endfacet
facet normal 0.105413 0.971462 -0.212485
outer loop
vertex 10.2382 553.637 159.406
vertex 11.072 553.637 159.82
vertex 10.7287 553.63 159.621
endloop
endfacet
facet normal 0.100602 0.860408 -0.499576
outer loop
vertex 9.31418 553.637 159.088
vertex 9.37909 553.486 158.842
vertex 8.35633 553.637 158.895
endloop
endfacet
facet normal 0.106804 0.885691 -0.451823
outer loop
vertex 8.35633 553.637 158.895
vertex 9.37909 553.486 158.842
vertex 9.06503 553.431 158.661
endloop
endfacet
facet normal 0.0438287 0.873035 -0.485683
outer loop
vertex 7.94649 553.154 158.015
vertex 7.38138 553.637 158.831
vertex 8.43477 553.287 158.297
endloop
endfacet
facet normal 0.0332324 0.864723 -0.501149
outer loop
vertex 8.43477 553.287 158.297
vertex 7.38138 553.637 158.831
vertex 8.35633 553.637 158.895
endloop
endfacet
facet normal 0.0544065 0.86512 -0.498606
outer loop
vertex 8.43477 553.287 158.297
vertex 8.35633 553.637 158.895
vertex 8.50737 553.306 158.339
endloop
endfacet
facet normal 0.0886167 0.86697 -0.490418
outer loop
vertex 8.50737 553.306 158.339
vertex 8.35633 553.637 158.895
vertex 9.06503 553.431 158.661
endloop
endfacet
facet normal 0.218742 0.852996 -0.473867
outer loop
vertex 10.7287 553.63 159.621
vertex 10.2606 553.6 159.351
vertex 10.2382 553.637 159.406
endloop
endfacet
facet normal 0.218594 0.852999 -0.473929
outer loop
vertex 10.2382 553.637 159.406
vertex 10.2606 553.6 159.351
vertex 10.1746 553.595 159.302
endloop
endfacet
facet normal 0.153267 0.881936 -0.445755
outer loop
vertex 10.2382 553.637 159.406
vertex 10.1746 553.595 159.302
vertex 9.31418 553.637 159.088
endloop
endfacet
facet normal 0.154358 0.879238 -0.450682
outer loop
vertex 9.31418 553.637 159.088
vertex 10.1746 553.595 159.302
vertex 9.62043 553.528 158.982
endloop
endfacet
facet normal 0.133754 0.860793 -0.491066
outer loop
vertex 9.31418 553.637 159.088
vertex 9.62043 553.528 158.982
vertex 9.37909 553.486 158.842
endloop
endfacet
facet normal -0.212658 0.838902 -0.501019
outer loop
vertex 4.50253 553.598 159.351
vertex 4.27717 553.619 159.481
vertex 4.52459 553.637 159.406
endloop
endfacet
facet normal -0.171678 0.922363 -0.346082
outer loop
vertex 4.52459 553.637 159.406
vertex 4.27717 553.619 159.481
vertex 3.69072 553.637 159.82
endloop
endfacet
facet normal -0.212941 0.838899 -0.500904
outer loop
vertex 4.50253 553.598 159.351
vertex 4.52459 553.637 159.406
vertex 4.87047 553.565 159.139
endloop
endfacet
facet normal -0.148162 0.890151 -0.430906
outer loop
vertex 4.87047 553.565 159.139
vertex 4.52459 553.637 159.406
vertex 5.44858 553.637 159.088
endloop
endfacet
facet normal -0.149296 0.862549 -0.483446
outer loop
vertex 4.87047 553.565 159.139
vertex 5.44858 553.637 159.088
vertex 5.38307 553.487 158.843
endloop
endfacet
facet normal -0.0970731 0.870749 -0.482052
outer loop
vertex 6.40643 553.637 158.895
vertex 6.09648 553.345 158.431
vertex 5.44858 553.637 159.088
endloop
endfacet
facet normal -0.0984234 0.870035 -0.483065
outer loop
vertex 5.44858 553.637 159.088
vertex 6.09648 553.345 158.431
vertex 5.47528 553.474 158.789
endloop
endfacet
facet normal -0.149066 0.862553 -0.48351
outer loop
vertex 5.44858 553.637 159.088
vertex 5.47528 553.474 158.789
vertex 5.38307 553.487 158.843
endloop
endfacet
facet normal 0.0171487 0.865888 -0.499944
outer loop
vertex 7.94649 553.154 158.015
vertex 7.38138 552.977 157.689
vertex 7.38138 553.637 158.831
endloop
endfacet
facet normal -0.0196377 0.865848 -0.499921
outer loop
vertex 7.38138 553.637 158.831
vertex 7.38138 552.977 157.689
vertex 6.73896 553.177 158.06
endloop
endfacet
facet normal -0.032605 0.870161 -0.491687
outer loop
vertex 7.38138 553.637 158.831
vertex 6.73896 553.177 158.06
vertex 6.40643 553.637 158.895
endloop
endfacet
facet normal -0.0629842 0.863627 -0.500182
outer loop
vertex 6.40643 553.637 158.895
vertex 6.73896 553.177 158.06
vertex 6.32989 553.284 158.296
endloop
endfacet
facet normal -0.0632334 0.863627 -0.50015
outer loop
vertex 6.40643 553.637 158.895
vertex 6.32989 553.284 158.296
vertex 6.09648 553.345 158.431
endloop
endfacet
facet normal -0.131339 0.971453 -0.197555
outer loop
vertex 2.91562 553.637 160.335
vertex 3.69072 553.637 159.82
vertex 3.34746 553.63 160.018
endloop
endfacet
facet normal -0.382309 0.860434 -0.336887
outer loop
vertex 2.17849 553.637 160.976
vertex 1.99783 553.486 160.797
vertex 1.5325 553.637 161.709
endloop
endfacet
facet normal -0.33788 0.885699 -0.318393
outer loop
vertex 1.5325 553.637 161.709
vertex 1.99783 553.486 160.797
vertex 1.68377 553.431 160.978
endloop
endfacet
facet normal -0.398715 0.873029 -0.280796
outer loop
vertex 0.565231 553.154 161.624
vertex 0.98902 553.637 162.521
vertex 1.05351 553.287 161.342
endloop
endfacet
facet normal -0.417372 0.864732 -0.279355
outer loop
vertex 1.05351 553.287 161.342
vertex 0.98902 553.637 162.521
vertex 1.5325 553.637 161.709
endloop
endfacet
facet normal -0.404602 0.865129 -0.296393
outer loop
vertex 1.05351 553.287 161.342
vertex 1.5325 553.637 161.709
vertex 1.12611 553.306 161.3
endloop
endfacet
facet normal -0.380393 0.866981 -0.321939
outer loop
vertex 1.12611 553.306 161.3
vertex 1.5325 553.637 161.709
vertex 1.68377 553.431 160.978
endloop
endfacet
facet normal -0.300871 0.853157 -0.426145
outer loop
vertex 3.34746 553.63 160.018
vertex 2.87938 553.6 160.288
vertex 2.91562 553.637 160.335
endloop
endfacet
facet normal -0.301085 0.853162 -0.425984
outer loop
vertex 2.91562 553.637 160.335
vertex 2.87938 553.6 160.288
vertex 2.79337 553.595 160.338
endloop
endfacet
facet normal -0.309323 0.881999 -0.355523
outer loop
vertex 2.91562 553.637 160.335
vertex 2.79337 553.595 160.338
vertex 2.17849 553.637 160.976
endloop
endfacet
facet normal -0.313085 0.879273 -0.358967
outer loop
vertex 2.17849 553.637 160.976
vertex 2.79337 553.595 160.338
vertex 2.23917 553.528 160.658
endloop
endfacet
facet normal -0.358393 0.860818 -0.361313
outer loop
vertex 2.17849 553.637 160.976
vertex 2.23917 553.528 160.658
vertex 1.99783 553.486 160.797
endloop
endfacet
facet normal -0.540034 0.839026 -0.0663269
outer loop
vertex 0.000119209 553.598 165.275
vertex 0.000119209 553.619 165.535
vertex 0.0588298 553.637 165.283
endloop
endfacet
facet normal -0.385445 0.922409 -0.0243604
outer loop
vertex 0.0588298 553.637 165.283
vertex 0.000119209 553.619 165.535
vertex 0.000119209 553.637 166.212
endloop
endfacet
facet normal -0.540072 0.839023 -0.0660492
outer loop
vertex 0.000119209 553.598 165.275
vertex 0.0588298 553.637 165.283
vertex 0.000119209 553.565 164.85
endloop
endfacet
facet normal -0.447177 0.890192 -0.087128
outer loop
vertex 0.000119209 553.565 164.85
vertex 0.0588298 553.637 165.283
vertex 0.24569 553.637 164.324
endloop
endfacet
facet normal -0.493272 0.862578 -0.112434
outer loop
vertex 0.000119209 553.565 164.85
vertex 0.24569 553.637 164.324
vertex 0.000119209 553.487 164.258
endloop
endfacet
facet normal -0.465998 0.870755 -0.156941
outer loop
vertex 0.557542 553.637 163.398
vertex 0.000119209 553.345 163.434
vertex 0.24569 553.637 164.324
endloop
endfacet
facet normal -0.467515 0.870059 -0.156294
outer loop
vertex 0.24569 553.637 164.324
vertex 0.000119209 553.345 163.434
vertex 0.000119209 553.474 164.151
endloop
endfacet
facet normal -0.493207 0.862583 -0.112688
outer loop
vertex 0.24569 553.637 164.324
vertex 0.000119209 553.474 164.151
vertex 0.000119209 553.487 164.258
endloop
endfacet
facet normal -0.424388 0.865886 -0.264831
outer loop
vertex 0.565231 553.154 161.624
vertex 0.000119209 552.977 161.95
vertex 0.98902 553.637 162.521
endloop
endfacet
facet normal -0.442764 0.865847 -0.232958
outer loop
vertex 0.98902 553.637 162.521
vertex 0.000119209 552.977 161.95
vertex 0.000119209 553.177 162.692
endloop
endfacet
facet normal -0.442117 0.870162 -0.217602
outer loop
vertex 0.98902 553.637 162.521
vertex 0.000119209 553.177 162.692
vertex 0.557542 553.637 163.398
endloop
endfacet
facet normal -0.464671 0.863625 -0.195531
outer loop
vertex 0.557542 553.637 163.398
vertex 0.000119209 553.177 162.692
vertex 0.000119209 553.284 163.165
endloop
endfacet
facet normal -0.464751 0.863625 -0.195339
outer loop
vertex 0.557542 553.637 163.398
vertex 0.000119209 553.284 163.165
vertex 0.000119209 553.345 163.434
endloop
endfacet
facet normal -1 0 0
outer loop
vertex 0.000119209 546.93 170.474
vertex 0.000119209 552.977 170.474
vertex 0.000119209 553.154 169.821
endloop
endfacet
facet normal -1 0 0
outer loop
vertex 0.000119209 546.93 170.474
vertex 0.000119209 553.486 168.167
vertex 0.000119209 553.528 167.888
endloop
endfacet
facet normal -1 0 0
outer loop
vertex 0.000119209 553.431 168.529
vertex 0.000119209 553.486 168.167
vertex 0.000119209 553.306 169.173
endloop
endfacet
facet normal -1 0 0
outer loop
vertex 0.000119209 553.306 169.173
vertex 0.000119209 553.486 168.167
vertex 0.000119209 546.93 170.474
endloop
endfacet
facet normal -1 0 0
outer loop
vertex 0.000119209 553.306 169.173
vertex 0.000119209 546.93 170.474
vertex 0.000119209 553.287 169.257
endloop
endfacet
facet normal -1 0 0
outer loop
vertex 0.000119209 553.287 169.257
vertex 0.000119209 546.93 170.474
vertex 0.000119209 553.154 169.821
endloop
endfacet
facet normal -1 0 0
outer loop
vertex 0.000119209 553.63 166.608
vertex 0.000119209 546.93 170.474
vertex 0.000119209 553.6 167.149
endloop
endfacet
facet normal -1 0 0
outer loop
vertex 0.000119209 553.6 167.149
vertex 0.000119209 546.93 170.474
vertex 0.000119209 553.528 167.888
endloop
endfacet
facet normal -1 0 0
outer loop
vertex 0.000119209 553.6 167.149
vertex 0.000119209 553.528 167.888
vertex 0.000119209 553.595 167.248
endloop
endfacet
facet normal -1 0 0
outer loop
vertex 0.000119209 553.177 162.692
vertex 0.000119209 552.977 161.95
vertex 0.000119209 553.284 163.165
endloop
endfacet
facet normal -1 0 0
outer loop
vertex 0.000119209 553.284 163.165
vertex 0.000119209 552.977 161.95
vertex 0.000119209 546.93 161.95
endloop
endfacet
facet normal -1 0 0
outer loop
vertex 0.000119209 553.284 163.165
vertex 0.000119209 546.93 161.95
vertex 0.000119209 553.345 163.434
endloop
endfacet
facet normal -1 0 0
outer loop
vertex 0.000119209 553.345 163.434
vertex 0.000119209 546.93 161.95
vertex 0.000119209 553.487 164.258
endloop
endfacet
facet normal -1 0 0
outer loop
vertex 0.000119209 553.345 163.434
vertex 0.000119209 553.487 164.258
vertex 0.000119209 553.474 164.151
endloop
endfacet
facet normal -1 0 0
outer loop
vertex 0.000119209 553.565 164.85
vertex 0.000119209 553.487 164.258
vertex 0.000119209 553.598 165.275
endloop
endfacet
facet normal -1 0 0
outer loop
vertex 0.000119209 553.598 165.275
vertex 0.000119209 553.487 164.258
vertex 0.000119209 546.93 161.95
endloop
endfacet
facet normal -1 0 0
outer loop
vertex 0.000119209 553.598 165.275
vertex 0.000119209 546.93 161.95
vertex 0.000119209 553.619 165.535
endloop
endfacet
facet normal -1 0 0
outer loop
vertex 0.000119209 553.619 165.535
vertex 0.000119209 546.93 161.95
vertex 0.000119209 546.93 170.474
endloop
endfacet
facet normal -1 0 0
outer loop
vertex 0.000119209 553.619 165.535
vertex 0.000119209 546.93 170.474
vertex 0.000119209 553.637 166.212
endloop
endfacet
facet normal -1 0 0
outer loop
vertex 0.000119209 553.637 166.212
vertex 0.000119209 546.93 170.474
vertex 0.000119209 553.63 166.608
endloop
endfacet
facet normal -0.500007 -2.68148e-006 0.866021
outer loop
vertex 7.38138 546.93 174.735
vertex 4.50212 553.6 173.073
vertex 4.03404 553.63 172.802
endloop
endfacet
facet normal -0.499978 0 0.866038
outer loop
vertex 7.38138 552.977 174.735
vertex 6.81627 553.154 174.409
vertex 7.38138 546.93 174.735
endloop
endfacet
facet normal -0.499991 -1.56854e-006 0.866031
outer loop
vertex 7.38138 546.93 174.735
vertex 6.81627 553.154 174.409
vertex 6.32793 553.287 174.127
endloop
endfacet
facet normal -0.500334 -7.74008e-005 0.865832
outer loop
vertex 7.38138 546.93 174.735
vertex 6.32793 553.287 174.127
vertex 6.25539 553.306 174.085
endloop
endfacet
facet normal -0.500169 -0.00199076 0.865926
outer loop
vertex 4.58813 553.595 173.122
vertex 4.50212 553.6 173.073
vertex 5.14233 553.528 173.442
endloop
endfacet
facet normal -0.500001 5.73935e-007 0.866025
outer loop
vertex 5.14233 553.528 173.442
vertex 4.50212 553.6 173.073
vertex 7.38138 546.93 174.735
endloop
endfacet
facet normal -0.500061 -2.6213e-005 0.86599
outer loop
vertex 5.14233 553.528 173.442
vertex 7.38138 546.93 174.735
vertex 5.38367 553.486 173.582
endloop
endfacet
facet normal -0.499983 5.17136e-006 0.866035
outer loop
vertex 5.38367 553.486 173.582
vertex 7.38138 546.93 174.735
vertex 6.25539 553.306 174.085
endloop
endfacet
facet normal -0.499875 0.000705269 0.866097
outer loop
vertex 5.38367 553.486 173.582
vertex 6.25539 553.306 174.085
vertex 5.69773 553.431 173.763
endloop
endfacet
facet normal -0.499931 4.82681e-005 0.866065
outer loop
vertex 4.03404 553.63 172.802
vertex 3.69072 553.637 172.604
vertex 7.38138 546.93 174.735
endloop
endfacet
facet normal -0.500027 -2.22309e-005 0.86601
outer loop
vertex 7.38138 546.93 174.735
vertex 3.69072 553.637 172.604
vertex 3.10433 553.619 172.266
endloop
endfacet
facet normal -0.499999 1.0192e-006 0.866026
outer loop
vertex 7.38138 546.93 174.735
vertex 3.10433 553.619 172.266
vertex 0.000119209 546.93 170.474
endloop
endfacet
facet normal -0.499945 -3.24647e-005 0.866057
outer loop
vertex 3.10433 553.619 172.266
vertex 2.87896 553.598 172.136
vertex 0.000119209 546.93 170.474
endloop
endfacet
facet normal -0.500033 1.81892e-005 0.866006
outer loop
vertex 0.000119209 546.93 170.474
vertex 2.87896 553.598 172.136
vertex 2.51102 553.565 171.923
endloop
endfacet
facet normal -0.499972 -1.26132e-005 0.866041
outer loop
vertex 0.000119209 546.93 170.474
vertex 2.51102 553.565 171.923
vertex 1.99842 553.487 171.627
endloop
endfacet
facet normal -0.499801 -0.00089426 0.86614
outer loop
vertex 0.642538 553.177 170.844
vertex 0.000119209 552.977 170.474
vertex 1.0516 553.284 171.081
endloop
endfacet
facet normal -0.499997 0 0.866027
outer loop
vertex 1.0516 553.284 171.081
vertex 0.000119209 552.977 170.474
vertex 0.000119209 546.93 170.474
endloop
endfacet
facet normal -0.50006 1.38182e-005 0.865991
outer loop
vertex 1.0516 553.284 171.081
vertex 0.000119209 546.93 170.474
vertex 1.28502 553.345 171.215
endloop
endfacet
facet normal -0.499994 -3.71906e-006 0.866029
outer loop
vertex 1.28502 553.345 171.215
vertex 0.000119209 546.93 170.474
vertex 1.99842 553.487 171.627
endloop
endfacet
facet normal -0.50092 0.00622905 0.865471
outer loop
vertex 1.28502 553.345 171.215
vertex 1.99842 553.487 171.627
vertex 1.90622 553.474 171.574
endloop
endfacet
facet normal 0.500008 7.54009e-006 0.866021
outer loop
vertex 14.7626 546.93 170.474
vertex 11.8833 553.6 172.136
vertex 11.4152 553.63 172.406
endloop
endfacet
facet normal 0.499996 0 0.866028
outer loop
vertex 14.7626 552.977 170.474
vertex 14.1975 553.154 170.8
vertex 14.7626 546.93 170.474
endloop
endfacet
facet normal 0.49999 -6.92846e-007 0.866031
outer loop
vertex 14.7626 546.93 170.474
vertex 14.1975 553.154 170.8
vertex 13.7092 553.287 171.082
endloop
endfacet
facet normal 0.499868 -2.76218e-005 0.866101
outer loop
vertex 14.7626 546.93 170.474
vertex 13.7092 553.287 171.082
vertex 13.6366 553.306 171.124
endloop
endfacet
facet normal 0.499896 -0.00123966 0.866085
outer loop
vertex 11.9693 553.595 172.086
vertex 11.8833 553.6 172.136
vertex 12.5235 553.528 171.766
endloop
endfacet
facet normal 0.500002 3.99161e-006 0.866025
outer loop
vertex 12.5235 553.528 171.766
vertex 11.8833 553.6 172.136
vertex 14.7626 546.93 170.474
endloop
endfacet
facet normal 0.499919 -3.32636e-005 0.866072
outer loop
vertex 12.5235 553.528 171.766
vertex 14.7626 546.93 170.474
vertex 12.7649 553.486 171.627
endloop
endfacet
facet normal 0.500023 8.7239e-006 0.866012
outer loop
vertex 12.7649 553.486 171.627
vertex 14.7626 546.93 170.474
vertex 13.6366 553.306 171.124
endloop
endfacet
facet normal 0.499881 -0.000906776 0.866094
outer loop
vertex 12.7649 553.486 171.627
vertex 13.6366 553.306 171.124
vertex 13.079 553.431 171.446
endloop
endfacet
facet normal 0.499996 -3.72573e-007 0.866028
outer loop
vertex 11.4152 553.63 172.406
vertex 11.072 553.637 172.604
vertex 14.7626 546.93 170.474
endloop
endfacet
facet normal 0.500027 2.2706e-005 0.86601
outer loop
vertex 14.7626 546.93 170.474
vertex 11.072 553.637 172.604
vertex 10.4856 553.619 172.943
endloop
endfacet
facet normal 0.499999 -1.05485e-006 0.866026
outer loop
vertex 14.7626 546.93 170.474
vertex 10.4856 553.619 172.943
vertex 7.38138 546.93 174.735
endloop
endfacet
facet normal 0.499944 3.29402e-005 0.866057
outer loop
vertex 10.4856 553.619 172.943
vertex 10.2602 553.598 173.073
vertex 7.38138 546.93 174.735
endloop
endfacet
facet normal 0.500033 -1.7898e-005 0.866006
outer loop
vertex 7.38138 546.93 174.735
vertex 10.2602 553.598 173.073
vertex 9.89228 553.565 173.285
endloop
endfacet
facet normal 0.499972 1.26513e-005 0.866041
outer loop
vertex 7.38138 546.93 174.735
vertex 9.89228 553.565 173.285
vertex 9.37968 553.487 173.581
endloop
endfacet
facet normal 0.500373 -0.0016276 0.865808
outer loop
vertex 8.0238 553.177 174.364
vertex 7.38138 552.977 174.735
vertex 8.43281 553.284 174.128
endloop
endfacet
facet normal 0.500018 0 0.866015
outer loop
vertex 8.43281 553.284 174.128
vertex 7.38138 552.977 174.735
vertex 7.38138 546.93 174.735
endloop
endfacet
facet normal 0.49996 1.29513e-005 0.866049
outer loop
vertex 8.43281 553.284 174.128
vertex 7.38138 546.93 174.735
vertex 8.66628 553.345 173.993
endloop
endfacet
facet normal 0.499994 3.64932e-006 0.866029
outer loop
vertex 8.66628 553.345 173.993
vertex 7.38138 546.93 174.735
vertex 9.37968 553.487 173.581
endloop
endfacet
facet normal 0.500497 -0.00336445 0.865732
outer loop
vertex 8.66628 553.345 173.993
vertex 9.37968 553.487 173.581
vertex 9.28748 553.474 173.635
endloop
endfacet
facet normal 1 0 0
outer loop
vertex 14.7626 552.977 161.95
vertex 14.7626 553.154 162.603
vertex 14.7626 546.93 161.95
endloop
endfacet
facet normal 1 0 0
outer loop
vertex 14.7626 546.93 161.95
vertex 14.7626 553.154 162.603
vertex 14.7626 553.287 163.167
endloop
endfacet
facet normal 1 0 0
outer loop
vertex 14.7626 546.93 161.95
vertex 14.7626 553.287 163.167
vertex 14.7626 553.306 163.251
endloop
endfacet
facet normal 1 0 0
outer loop
vertex 14.7626 546.93 161.95
vertex 14.7626 553.6 165.275
vertex 14.7626 553.63 165.816
endloop
endfacet
facet normal 1 0 0
outer loop
vertex 14.7626 553.595 165.176
vertex 14.7626 553.6 165.275
vertex 14.7626 553.528 164.536
endloop
endfacet
facet normal 1 0 0
outer loop
vertex 14.7626 553.528 164.536
vertex 14.7626 553.6 165.275
vertex 14.7626 546.93 161.95
endloop
endfacet
facet normal 1 0 0
outer loop
vertex 14.7626 553.528 164.536
vertex 14.7626 546.93 161.95
vertex 14.7626 553.486 164.257
endloop
endfacet
facet normal 1 0 0
outer loop
vertex 14.7626 553.486 164.257
vertex 14.7626 546.93 161.95
vertex 14.7626 553.306 163.251
endloop
endfacet
facet normal 1 0 0
outer loop
vertex 14.7626 553.486 164.257
vertex 14.7626 553.306 163.251
vertex 14.7626 553.431 163.895
endloop
endfacet
facet normal 1 0 0
outer loop
vertex 14.7626 553.565 167.574
vertex 14.7626 553.487 168.166
vertex 14.7626 546.93 170.474
endloop
endfacet
facet normal 1 0 0
outer loop
vertex 14.7626 553.177 169.732
vertex 14.7626 552.977 170.474
vertex 14.7626 553.284 169.259
endloop
endfacet
facet normal 1 0 0
outer loop
vertex 14.7626 553.284 169.259
vertex 14.7626 552.977 170.474
vertex 14.7626 546.93 170.474
endloop
endfacet
facet normal 1 0 0
outer loop
vertex 14.7626 553.284 169.259
vertex 14.7626 546.93 170.474
vertex 14.7626 553.345 168.99
endloop
endfacet
facet normal 1 0 0
outer loop
vertex 14.7626 553.345 168.99
vertex 14.7626 546.93 170.474
vertex 14.7626 553.487 168.166
endloop
endfacet
facet normal 1 0 0
outer loop
vertex 14.7626 553.345 168.99
vertex 14.7626 553.487 168.166
vertex 14.7626 553.474 168.273
endloop
endfacet
facet normal 1 0 0
outer loop
vertex 14.7626 553.63 165.816
vertex 14.7626 553.637 166.212
vertex 14.7626 546.93 161.95
endloop
endfacet
facet normal 1 0 0
outer loop
vertex 14.7626 546.93 161.95
vertex 14.7626 553.637 166.212
vertex 14.7626 553.619 166.889
endloop
endfacet
facet normal 1 0 0
outer loop
vertex 14.7626 546.93 161.95
vertex 14.7626 553.619 166.889
vertex 14.7626 546.93 170.474
endloop
endfacet
facet normal 1 0 0
outer loop
vertex 14.7626 546.93 170.474
vertex 14.7626 553.619 166.889
vertex 14.7626 553.598 167.149
endloop
endfacet
facet normal 1 0 0
outer loop
vertex 14.7626 546.93 170.474
vertex 14.7626 553.598 167.149
vertex 14.7626 553.565 167.574
endloop
endfacet
facet normal 0.499995 0 -0.866028
outer loop
vertex 7.38138 552.977 157.689
vertex 7.94649 553.154 158.015
vertex 7.38138 546.93 157.689
endloop
endfacet
facet normal 0.500017 -2.55394e-006 -0.866016
outer loop
vertex 7.38138 546.93 157.689
vertex 7.94649 553.154 158.015
vertex 8.43477 553.287 158.297
endloop
endfacet
facet normal 0.500011 -1.22748e-006 -0.866019
outer loop
vertex 7.38138 546.93 157.689
vertex 8.43477 553.287 158.297
vertex 8.50737 553.306 158.339
endloop
endfacet
facet normal 0.499985 1.01161e-005 -0.866034
outer loop
vertex 7.38138 546.93 157.689
vertex 10.2606 553.6 159.351
vertex 10.7287 553.63 159.621
endloop
endfacet
facet normal 0.499651 -0.00153835 -0.866225
outer loop
vertex 14.1202 553.177 161.579
vertex 14.7626 552.977 161.95
vertex 13.7112 553.284 161.343
endloop
endfacet
facet normal 0.499988 0 -0.866032
outer loop
vertex 13.7112 553.284 161.343
vertex 14.7626 552.977 161.95
vertex 14.7626 546.93 161.95
endloop
endfacet
facet normal 0.500004 3.48361e-006 -0.866023
outer loop
vertex 13.7112 553.284 161.343
vertex 14.7626 546.93 161.95
vertex 13.4777 553.345 161.209
endloop
endfacet
facet normal 0.499995 1.0513e-006 -0.866029
outer loop
vertex 13.4777 553.345 161.209
vertex 14.7626 546.93 161.95
vertex 12.7643 553.487 160.797
endloop
endfacet
facet normal 0.499506 -0.00323614 -0.866304
outer loop
vertex 13.4777 553.345 161.209
vertex 12.7643 553.487 160.797
vertex 12.8565 553.474 160.85
endloop
endfacet
facet normal 0.500173 -0.00204045 -0.865923
outer loop
vertex 10.1746 553.595 159.302
vertex 10.2606 553.6 159.351
vertex 9.62043 553.528 158.982
endloop
endfacet
facet normal 0.500002 4.4252e-007 -0.866024
outer loop
vertex 9.62043 553.528 158.982
vertex 10.2606 553.6 159.351
vertex 7.38138 546.93 157.689
endloop
endfacet
facet normal 0.500018 -6.82234e-006 -0.866015
outer loop
vertex 9.62043 553.528 158.982
vertex 7.38138 546.93 157.689
vertex 9.37909 553.486 158.842
endloop
endfacet
facet normal 0.499995 2.4432e-006 -0.866028
outer loop
vertex 9.37909 553.486 158.842
vertex 7.38138 546.93 157.689
vertex 8.50737 553.306 158.339
endloop
endfacet
facet normal 0.500013 -0.000114073 -0.866018
outer loop
vertex 9.37909 553.486 158.842
vertex 8.50737 553.306 158.339
vertex 9.06503 553.431 158.661
endloop
endfacet
facet normal 0.499955 -0.000723257 -0.866051
outer loop
vertex 12.2517 553.565 160.501
vertex 12.7643 553.487 160.797
vertex 11.8838 553.598 160.288
endloop
endfacet
facet normal 0.500025 1.32822e-005 -0.866011
outer loop
vertex 11.8838 553.598 160.288
vertex 12.7643 553.487 160.797
vertex 14.7626 546.93 161.95
endloop
endfacet
facet normal 0.499946 -3.1952e-005 -0.866056
outer loop
vertex 11.8838 553.598 160.288
vertex 14.7626 546.93 161.95
vertex 11.6584 553.619 160.158
endloop
endfacet
facet normal 0.499999 1.0192e-006 -0.866026
outer loop
vertex 11.6584 553.619 160.158
vertex 14.7626 546.93 161.95
vertex 7.38138 546.93 157.689
endloop
endfacet
facet normal 0.499989 9.90152e-006 -0.866032
outer loop
vertex 11.6584 553.619 160.158
vertex 7.38138 546.93 157.689
vertex 11.072 553.637 159.82
endloop
endfacet
facet normal 0.500026 -1.72345e-005 -0.86601
outer loop
vertex 11.072 553.637 159.82
vertex 7.38138 546.93 157.689
vertex 10.7287 553.63 159.621
endloop
endfacet
facet normal -0.499995 0 -0.866028
outer loop
vertex 0.000119209 552.977 161.95
vertex 0.565231 553.154 161.624
vertex 0.000119209 546.93 161.95
endloop
endfacet
facet normal -0.500017 2.55394e-006 -0.866016
outer loop
vertex 0.000119209 546.93 161.95
vertex 0.565231 553.154 161.624
vertex 1.05351 553.287 161.342
endloop
endfacet
facet normal -0.500011 1.22748e-006 -0.866019
outer loop
vertex 0.000119209 546.93 161.95
vertex 1.05351 553.287 161.342
vertex 1.12611 553.306 161.3
endloop
endfacet
facet normal -0.499648 0.00155017 -0.866227
outer loop
vertex 6.73896 553.177 158.06
vertex 7.38138 552.977 157.689
vertex 6.32989 553.284 158.296
endloop
endfacet
facet normal -0.499988 0 -0.866032
outer loop
vertex 6.32989 553.284 158.296
vertex 7.38138 552.977 157.689
vertex 7.38138 546.93 157.689
endloop
endfacet
facet normal -0.500105 -2.57838e-005 -0.865965
outer loop
vertex 6.32989 553.284 158.296
vertex 7.38138 546.93 157.689
vertex 6.09648 553.345 158.431
endloop
endfacet
facet normal -0.499994 3.71906e-006 -0.866029
outer loop
vertex 6.09648 553.345 158.431
vertex 7.38138 546.93 157.689
vertex 5.38307 553.487 158.843
endloop
endfacet
facet normal -0.50049 -0.00331865 -0.865736
outer loop
vertex 6.09648 553.345 158.431
vertex 5.38307 553.487 158.843
vertex 5.47528 553.474 158.789
endloop
endfacet
facet normal -0.499985 -9.85318e-006 -0.866034
outer loop
vertex 0.000119209 546.93 161.95
vertex 2.87938 553.6 160.288
vertex 3.34746 553.63 160.018
endloop
endfacet
facet normal -0.500169 0.00199076 -0.865926
outer loop
vertex 2.79337 553.595 160.338
vertex 2.87938 553.6 160.288
vertex 2.23917 553.528 160.658
endloop
endfacet
facet normal -0.500001 -5.73935e-007 -0.866025
outer loop
vertex 2.23917 553.528 160.658
vertex 2.87938 553.6 160.288
vertex 0.000119209 546.93 161.95
endloop
endfacet
facet normal -0.500017 6.46603e-006 -0.866016
outer loop
vertex 2.23917 553.528 160.658
vertex 0.000119209 546.93 161.95
vertex 1.99783 553.486 160.797
endloop
endfacet
facet normal -0.499995 -2.39307e-006 -0.866028
outer loop
vertex 1.99783 553.486 160.797
vertex 0.000119209 546.93 161.95
vertex 1.12611 553.306 161.3
endloop
endfacet
facet normal -0.500016 0.000129127 -0.866016
outer loop
vertex 1.99783 553.486 160.797
vertex 1.12611 553.306 161.3
vertex 1.68377 553.431 160.978
endloop
endfacet
facet normal -0.500024 -0.000270815 -0.866012
outer loop
vertex 4.87047 553.565 159.139
vertex 5.38307 553.487 158.843
vertex 4.50253 553.598 159.351
endloop
endfacet
facet normal -0.499998 2.20725e-006 -0.866027
outer loop
vertex 4.50253 553.598 159.351
vertex 5.38307 553.487 158.843
vertex 7.38138 546.93 157.689
endloop
endfacet
facet normal -0.499945 3.24647e-005 -0.866057
outer loop
vertex 4.50253 553.598 159.351
vertex 7.38138 546.93 157.689
vertex 4.27717 553.619 159.481
endloop
endfacet
facet normal -0.499999 -1.0192e-006 -0.866026
outer loop
vertex 4.27717 553.619 159.481
vertex 7.38138 546.93 157.689
vertex 0.000119209 546.93 161.95
endloop
endfacet
facet normal -0.499989 -9.64652e-006 -0.866032
outer loop
vertex 4.27717 553.619 159.481
vertex 0.000119209 546.93 161.95
vertex 3.69072 553.637 159.82
endloop
endfacet
facet normal -0.500025 1.68844e-005 -0.866011
outer loop
vertex 3.69072 553.637 159.82
vertex 0.000119209 546.93 161.95
vertex 3.34746 553.63 160.018
endloop
endfacet
facet normal 0 -1 0
outer loop
vertex 8.75038 546.93 160.954
vertex 7.84212 546.93 160.799
vertex 7.38138 546.93 157.689
endloop
endfacet
facet normal 0 -1 0
outer loop
vertex 7.38138 546.93 157.689
vertex 7.84212 546.93 160.799
vertex 6.92064 546.93 160.799
endloop
endfacet
facet normal 0 -1 0
outer loop
vertex 3.62206 546.93 162.29
vertex 3.01325 546.93 162.981
vertex 0.000119209 546.93 161.95
endloop
endfacet
facet normal 0 -1 0
outer loop
vertex 0.000119209 546.93 161.95
vertex 3.01325 546.93 162.981
vertex 2.5301 546.93 163.766
endloop
endfacet
facet normal 0 -1 0
outer loop
vertex 12.7704 546.93 165.522
vertex 12.5762 546.93 164.621
vertex 14.7626 546.93 161.95
endloop
endfacet
facet normal 0 -1 0
outer loop
vertex 14.7626 546.93 161.95
vertex 12.5762 546.93 164.621
vertex 12.2327 546.93 163.766
endloop
endfacet
facet normal 0 -1 0
outer loop
vertex 14.7626 546.93 161.95
vertex 12.2327 546.93 163.766
vertex 11.7495 546.93 162.981
endloop
endfacet
facet normal 0 -1 0
outer loop
vertex 11.7495 546.93 162.981
vertex 11.1407 546.93 162.29
vertex 14.7626 546.93 161.95
endloop
endfacet
facet normal 0 -1 0
outer loop
vertex 14.7626 546.93 161.95
vertex 11.1407 546.93 162.29
vertex 10.4237 546.93 161.711
endloop
endfacet
facet normal 0 -1 0
outer loop
vertex 14.7626 546.93 161.95
vertex 10.4237 546.93 161.711
vertex 7.38138 546.93 157.689
endloop
endfacet
facet normal 0 -1 0
outer loop
vertex 7.38138 546.93 157.689
vertex 10.4237 546.93 161.711
vertex 9.61924 546.93 161.261
endloop
endfacet
facet normal 0 -1 0
outer loop
vertex 7.38138 546.93 157.689
vertex 9.61924 546.93 161.261
vertex 8.75038 546.93 160.954
endloop
endfacet
facet normal 0 -1 0
outer loop
vertex 6.92064 546.93 160.799
vertex 6.01238 546.93 160.954
vertex 7.38138 546.93 157.689
endloop
endfacet
facet normal 0 -1 0
outer loop
vertex 7.38138 546.93 157.689
vertex 6.01238 546.93 160.954
vertex 5.14352 546.93 161.261
endloop
endfacet
facet normal 0 -1 0
outer loop
vertex 7.38138 546.93 157.689
vertex 5.14352 546.93 161.261
vertex 0.000119209 546.93 161.95
endloop
endfacet
facet normal 0 -1 0
outer loop
vertex 0.000119209 546.93 161.95
vertex 5.14352 546.93 161.261
vertex 4.33904 546.93 161.711
endloop
endfacet
facet normal 0 -1 0
outer loop
vertex 0.000119209 546.93 161.95
vertex 4.33904 546.93 161.711
vertex 3.62206 546.93 162.29
endloop
endfacet
facet normal 0 -1 0
outer loop
vertex 2.5301 546.93 163.766
vertex 2.18648 546.93 164.621
vertex 0.000119209 546.93 161.95
endloop
endfacet
facet normal 0 -1 0
outer loop
vertex 0.000119209 546.93 161.95
vertex 2.18648 546.93 164.621
vertex 1.99234 546.93 165.522
endloop
endfacet
facet normal 0 -1 0
outer loop
vertex 0.000119209 546.93 161.95
vertex 1.99234 546.93 165.522
vertex 0.000119209 546.93 170.474
endloop
endfacet
facet normal 0 -1 0
outer loop
vertex 0.000119209 546.93 170.474
vertex 1.99234 546.93 165.522
vertex 1.95324 546.93 166.443
endloop
endfacet
facet normal 0 -1 0
outer loop
vertex 1.95324 546.93 166.443
vertex 2.07031 546.93 167.357
vertex 0.000119209 546.93 170.474
endloop
endfacet
facet normal 0 -1 0
outer loop
vertex 0.000119209 546.93 170.474
vertex 2.07031 546.93 167.357
vertex 2.34014 546.93 168.238
endloop
endfacet
facet normal 0 -1 0
outer loop
vertex 0.000119209 546.93 170.474
vertex 2.34014 546.93 168.238
vertex 2.75499 546.93 169.061
endloop
endfacet
facet normal 0 -1 0
outer loop
vertex 5.57142 546.93 171.335
vertex 6.46317 546.93 171.567
vertex 7.38138 546.93 174.735
endloop
endfacet
facet normal 0 -1 0
outer loop
vertex 7.38138 546.93 174.735
vertex 6.46317 546.93 171.567
vertex 7.38138 546.93 171.645
endloop
endfacet
facet normal 0 -1 0
outer loop
vertex 7.38138 546.93 174.735
vertex 7.38138 546.93 171.645
vertex 8.29953 546.93 171.567
endloop
endfacet
facet normal 0 -1 0
outer loop
vertex 8.29953 546.93 171.567
vertex 9.19133 546.93 171.335
vertex 7.38138 546.93 174.735
endloop
endfacet
facet normal 0 -1 0
outer loop
vertex 7.38138 546.93 174.735
vertex 9.19133 546.93 171.335
vertex 10.031 546.93 170.955
endloop
endfacet
facet normal 0 -1 0
outer loop
vertex 7.38138 546.93 174.735
vertex 10.031 546.93 170.955
vertex 14.7626 546.93 170.474
endloop
endfacet
facet normal 0 -1 0
outer loop
vertex 14.7626 546.93 170.474
vertex 10.031 546.93 170.955
vertex 10.7945 546.93 170.439
endloop
endfacet
facet normal 0 -1 0
outer loop
vertex 14.7626 546.93 170.474
vertex 10.7945 546.93 170.439
vertex 11.4598 546.93 169.801
endloop
endfacet
facet normal 0 -1 0
outer loop
vertex 12.7704 546.93 165.522
vertex 14.7626 546.93 161.95
vertex 12.8095 546.93 166.443
endloop
endfacet
facet normal 0 -1 0
outer loop
vertex 12.8095 546.93 166.443
vertex 14.7626 546.93 161.95
vertex 14.7626 546.93 170.474
endloop
endfacet
facet normal 0 -1 0
outer loop
vertex 12.8095 546.93 166.443
vertex 14.7626 546.93 170.474
vertex 12.6925 546.93 167.357
endloop
endfacet
facet normal 0 -1 0
outer loop
vertex 2.75499 546.93 169.061
vertex 3.30293 546.93 169.801
vertex 0.000119209 546.93 170.474
endloop
endfacet
facet normal 0 -1 0
outer loop
vertex 0.000119209 546.93 170.474
vertex 3.30293 546.93 169.801
vertex 3.96824 546.93 170.439
endloop
endfacet
facet normal 0 -1 0
outer loop
vertex 0.000119209 546.93 170.474
vertex 3.96824 546.93 170.439
vertex 7.38138 546.93 174.735
endloop
endfacet
facet normal 0 -1 0
outer loop
vertex 7.38138 546.93 174.735
vertex 3.96824 546.93 170.439
vertex 4.73171 546.93 170.955
endloop
endfacet
facet normal 0 -1 0
outer loop
vertex 7.38138 546.93 174.735
vertex 4.73171 546.93 170.955
vertex 5.57142 546.93 171.335
endloop
endfacet
facet normal 0 -1 0
outer loop
vertex 11.4598 546.93 169.801
vertex 12.0077 546.93 169.061
vertex 14.7626 546.93 170.474
endloop
endfacet
facet normal 0 -1 0
outer loop
vertex 14.7626 546.93 170.474
vertex 12.0077 546.93 169.061
vertex 12.4226 546.93 168.238
endloop
endfacet
facet normal 0 -1 0
outer loop
vertex 14.7626 546.93 170.474
vertex 12.4226 546.93 168.238
vertex 12.6925 546.93 167.357
endloop
endfacet
facet normal 0.251979 0 0.967733
outer loop
vertex 8.29953 546.93 171.567
vertex 8.29953 543.33 171.567
vertex 9.19133 546.93 171.335
endloop
endfacet
facet normal 0.251979 0 0.967733
outer loop
vertex 9.19133 546.93 171.335
vertex 8.29953 543.33 171.567
vertex 9.19133 543.33 171.335
endloop
endfacet
facet normal 0.411892 0 0.911233
outer loop
vertex 9.19133 546.93 171.335
vertex 9.19133 543.33 171.335
vertex 10.031 546.93 170.955
endloop
endfacet
facet normal 0.411892 0 0.911233
outer loop
vertex 10.031 546.93 170.955
vertex 9.19133 543.33 171.335
vertex 10.031 543.33 170.955
endloop
endfacet
facet normal 0.559976 0 0.828509
outer loop
vertex 10.031 546.93 170.955
vertex 10.031 543.33 170.955
vertex 10.7945 546.93 170.439
endloop
endfacet
facet normal 0.559976 0 0.828509
outer loop
vertex 10.7945 546.93 170.439
vertex 10.031 543.33 170.955
vertex 10.7945 543.33 170.439
endloop
endfacet
facet normal 0.691965 0 0.721931
outer loop
vertex 10.7945 546.93 170.439
vertex 10.7945 543.33 170.439
vertex 11.4598 546.93 169.801
endloop
endfacet
facet normal 0.691965 0 0.721931
outer loop
vertex 11.4598 546.93 169.801
vertex 10.7945 543.33 170.439
vertex 11.4598 543.33 169.801
endloop
endfacet
facet normal 0.803999 0 0.594631
outer loop
vertex 11.4598 546.93 169.801
vertex 11.4598 543.33 169.801
vertex 12.0077 546.93 169.061
endloop
endfacet
facet normal 0.803999 0 0.594631
outer loop
vertex 12.0077 546.93 169.061
vertex 11.4598 543.33 169.801
vertex 12.0077 543.33 169.061
endloop
endfacet
facet normal 0.892906 0 0.450243
outer loop
vertex 12.0077 546.93 169.061
vertex 12.0077 543.33 169.061
vertex 12.4226 546.93 168.238
endloop
endfacet
facet normal 0.892906 0 0.450243
outer loop
vertex 12.4226 546.93 168.238
vertex 12.0077 543.33 169.061
vertex 12.4226 543.33 168.238
endloop
endfacet
facet normal 0.956169 0 0.292814
outer loop
vertex 12.4226 546.93 168.238
vertex 12.4226 543.33 168.238
vertex 12.6925 546.93 167.357
endloop
endfacet
facet normal 0.956169 0 0.292814
outer loop
vertex 12.6925 546.93 167.357
vertex 12.4226 543.33 168.238
vertex 12.6925 543.33 167.357
endloop
endfacet
facet normal 0.991898 0 0.127036
outer loop
vertex 12.6925 546.93 167.357
vertex 12.6925 543.33 167.357
vertex 12.8095 546.93 166.443
endloop
endfacet
facet normal 0.991898 0 0.127036
outer loop
vertex 12.8095 546.93 166.443
vertex 12.6925 543.33 167.357
vertex 12.8095 543.33 166.443
endloop
endfacet
facet normal 0.999097 0 -0.0424956
outer loop
vertex 12.8095 546.93 166.443
vertex 12.8095 543.33 166.443
vertex 12.7704 546.93 165.522
endloop
endfacet
facet normal 0.999097 0 -0.0424956
outer loop
vertex 12.7704 546.93 165.522
vertex 12.8095 543.33 166.443
vertex 12.7704 543.33 165.522
endloop
endfacet
facet normal 0.977558 0 -0.210667
outer loop
vertex 12.7704 546.93 165.522
vertex 12.7704 543.33 165.522
vertex 12.5762 546.93 164.621
endloop
endfacet
facet normal 0.977558 0 -0.210667
outer loop
vertex 12.5762 546.93 164.621
vertex 12.7704 543.33 165.522
vertex 12.5762 543.33 164.621
endloop
endfacet
facet normal 0.9279 0 -0.372829
outer loop
vertex 12.5762 546.93 164.621
vertex 12.5762 543.33 164.621
vertex 12.2327 546.93 163.766
endloop
endfacet
facet normal 0.9279 0 -0.372829
outer loop
vertex 12.2327 546.93 163.766
vertex 12.5762 543.33 164.621
vertex 12.2327 543.33 163.766
endloop
endfacet
facet normal 0.851521 0 -0.52432
outer loop
vertex 12.2327 546.93 163.766
vertex 12.2327 543.33 163.766
vertex 11.7495 546.93 162.981
endloop
endfacet
facet normal 0.851521 0 -0.52432
outer loop
vertex 11.7495 546.93 162.981
vertex 12.2327 543.33 163.766
vertex 11.7495 543.33 162.981
endloop
endfacet
facet normal 0.750684 0 -0.660662
outer loop
vertex 11.7495 546.93 162.981
vertex 11.7495 543.33 162.981
vertex 11.1407 546.93 162.29
endloop
endfacet
facet normal 0.750684 0 -0.660662
outer loop
vertex 11.1407 546.93 162.29
vertex 11.7495 543.33 162.981
vertex 11.1407 543.33 162.29
endloop
endfacet
facet normal 0.628216 0 -0.778039
outer loop
vertex 11.1407 546.93 162.29
vertex 11.1407 543.33 162.29
vertex 10.4237 546.93 161.711
endloop
endfacet
facet normal 0.628216 0 -0.778039
outer loop
vertex 10.4237 546.93 161.711
vertex 11.1407 543.33 162.29
vertex 10.4237 543.33 161.711
endloop
endfacet
facet normal 0.487687 0 -0.873019
outer loop
vertex 10.4237 546.93 161.711
vertex 10.4237 543.33 161.711
vertex 9.61924 546.93 161.261
endloop
endfacet
facet normal 0.487687 0 -0.873019
outer loop
vertex 9.61924 546.93 161.261
vertex 10.4237 543.33 161.711
vertex 9.61924 543.33 161.261
endloop
endfacet
facet normal 0.333145 0 -0.942876
outer loop
vertex 9.61924 546.93 161.261
vertex 9.61924 543.33 161.261
vertex 8.75038 546.93 160.954
endloop
endfacet
facet normal 0.333145 0 -0.942876
outer loop
vertex 8.75038 546.93 160.954
vertex 9.61924 543.33 161.261
vertex 8.75038 543.33 160.954
endloop
endfacet
facet normal 0.168996 0 -0.985617
outer loop
vertex 8.75038 546.93 160.954
vertex 8.75038 543.33 160.954
vertex 7.84212 546.93 160.799
endloop
endfacet
facet normal 0.168996 0 -0.985617
outer loop
vertex 7.84212 546.93 160.799
vertex 8.75038 543.33 160.954
vertex 7.84212 543.33 160.799
endloop
endfacet
facet normal 0 0 -1
outer loop
vertex 7.84212 546.93 160.799
vertex 7.84212 543.33 160.799
vertex 6.92064 546.93 160.799
endloop
endfacet
facet normal 0 0 -1
outer loop
vertex 6.92064 546.93 160.799
vertex 7.84212 543.33 160.799
vertex 6.92064 543.33 160.799
endloop
endfacet
facet normal -0.168996 0 -0.985617
outer loop
vertex 6.92064 546.93 160.799
vertex 6.92064 543.33 160.799
vertex 6.01238 546.93 160.954
endloop
endfacet
facet normal -0.168996 0 -0.985617
outer loop
vertex 6.01238 546.93 160.954
vertex 6.92064 543.33 160.799
vertex 6.01238 543.33 160.954
endloop
endfacet
facet normal -0.333145 0 -0.942876
outer loop
vertex 6.01238 546.93 160.954
vertex 6.01238 543.33 160.954
vertex 5.14352 546.93 161.261
endloop
endfacet
facet normal -0.333145 0 -0.942876
outer loop
vertex 5.14352 546.93 161.261
vertex 6.01238 543.33 160.954
vertex 5.14352 543.33 161.261
endloop
endfacet
facet normal -0.487687 0 -0.873019
outer loop
vertex 5.14352 546.93 161.261
vertex 5.14352 543.33 161.261
vertex 4.33904 546.93 161.711
endloop
endfacet
facet normal -0.487687 0 -0.873019
outer loop
vertex 4.33904 546.93 161.711
vertex 5.14352 543.33 161.261
vertex 4.33904 543.33 161.711
endloop
endfacet
facet normal -0.628216 0 -0.778039
outer loop
vertex 4.33904 546.93 161.711
vertex 4.33904 543.33 161.711
vertex 3.62206 546.93 162.29
endloop
endfacet
facet normal -0.628216 0 -0.778039
outer loop
vertex 3.62206 546.93 162.29
vertex 4.33904 543.33 161.711
vertex 3.62206 543.33 162.29
endloop
endfacet
facet normal -0.750684 0 -0.660662
outer loop
vertex 3.62206 546.93 162.29
vertex 3.62206 543.33 162.29
vertex 3.01325 546.93 162.981
endloop
endfacet
facet normal -0.750684 0 -0.660662
outer loop
vertex 3.01325 546.93 162.981
vertex 3.62206 543.33 162.29
vertex 3.01325 543.33 162.981
endloop
endfacet
facet normal -0.851521 0 -0.52432
outer loop
vertex 3.01325 546.93 162.981
vertex 3.01325 543.33 162.981
vertex 2.5301 546.93 163.766
endloop
endfacet
facet normal -0.851521 0 -0.52432
outer loop
vertex 2.5301 546.93 163.766
vertex 3.01325 543.33 162.981
vertex 2.5301 543.33 163.766
endloop
endfacet
facet normal -0.927877 0 -0.372885
outer loop
vertex 2.5301 546.93 163.766
vertex 2.5301 543.33 163.766
vertex 2.18648 546.93 164.621
endloop
endfacet
facet normal -0.927877 0 -0.372885
outer loop
vertex 2.18648 546.93 164.621
vertex 2.5301 543.33 163.766
vertex 2.18648 543.33 164.621
endloop
endfacet
facet normal -0.977558 0 -0.210667
outer loop
vertex 2.18648 546.93 164.621
vertex 2.18648 543.33 164.621
vertex 1.99234 546.93 165.522
endloop
endfacet
facet normal -0.977558 0 -0.210667
outer loop
vertex 1.99234 546.93 165.522
vertex 2.18648 543.33 164.621
vertex 1.99234 543.33 165.522
endloop
endfacet
facet normal -0.999099 0 -0.0424315
outer loop
vertex 1.99234 546.93 165.522
vertex 1.99234 543.33 165.522
vertex 1.95324 546.93 166.443
endloop
endfacet
facet normal -0.999099 0 -0.0424315
outer loop
vertex 1.95324 546.93 166.443
vertex 1.99234 543.33 165.522
vertex 1.95324 543.33 166.443
endloop
endfacet
facet normal -0.991898 0 0.127036
outer loop
vertex 1.95324 546.93 166.443
vertex 1.95324 543.33 166.443
vertex 2.07031 546.93 167.357
endloop
endfacet
facet normal -0.991898 0 0.127036
outer loop
vertex 2.07031 546.93 167.357
vertex 1.95324 543.33 166.443
vertex 2.07031 543.33 167.357
endloop
endfacet
facet normal -0.95617 0 0.292813
outer loop
vertex 2.07031 546.93 167.357
vertex 2.07031 543.33 167.357
vertex 2.34014 546.93 168.238
endloop
endfacet
facet normal -0.95617 0 0.292813
outer loop
vertex 2.34014 546.93 168.238
vertex 2.07031 543.33 167.357
vertex 2.34014 543.33 168.238
endloop
endfacet
facet normal -0.892932 0 0.450192
outer loop
vertex 2.34014 546.93 168.238
vertex 2.34014 543.33 168.238
vertex 2.75499 546.93 169.061
endloop
endfacet
facet normal -0.892932 0 0.450192
outer loop
vertex 2.75499 546.93 169.061
vertex 2.34014 543.33 168.238
vertex 2.75499 543.33 169.061
endloop
endfacet
facet normal -0.803999 0 0.594631
outer loop
vertex 2.75499 546.93 169.061
vertex 2.75499 543.33 169.061
vertex 3.30293 546.93 169.801
endloop
endfacet
facet normal -0.803999 0 0.594631
outer loop
vertex 3.30293 546.93 169.801
vertex 2.75499 543.33 169.061
vertex 3.30293 543.33 169.801
endloop
endfacet
facet normal -0.691933 0 0.721962
outer loop
vertex 3.30293 546.93 169.801
vertex 3.30293 543.33 169.801
vertex 3.96824 546.93 170.439
endloop
endfacet
facet normal -0.691933 0 0.721962
outer loop
vertex 3.96824 546.93 170.439
vertex 3.30293 543.33 169.801
vertex 3.96824 543.33 170.439
endloop
endfacet
facet normal -0.559976 0 0.828509
outer loop
vertex 3.96824 546.93 170.439
vertex 3.96824 543.33 170.439
vertex 4.73171 546.93 170.955
endloop
endfacet
facet normal -0.559976 0 0.828509
outer loop
vertex 4.73171 546.93 170.955
vertex 3.96824 543.33 170.439
vertex 4.73171 543.33 170.955
endloop
endfacet
facet normal -0.411892 0 0.911233
outer loop
vertex 4.73171 546.93 170.955
vertex 4.73171 543.33 170.955
vertex 5.57142 546.93 171.335
endloop
endfacet
facet normal -0.411892 0 0.911233
outer loop
vertex 5.57142 546.93 171.335
vertex 4.73171 543.33 170.955
vertex 5.57142 543.33 171.335
endloop
endfacet
facet normal -0.251994 0 0.967729
outer loop
vertex 5.57142 546.93 171.335
vertex 5.57142 543.33 171.335
vertex 6.46317 546.93 171.567
endloop
endfacet
facet normal -0.251994 0 0.967729
outer loop
vertex 6.46317 546.93 171.567
vertex 5.57142 543.33 171.335
vertex 6.46317 543.33 171.567
endloop
endfacet
facet normal -0.0847942 0 0.996398
outer loop
vertex 6.46317 546.93 171.567
vertex 6.46317 543.33 171.567
vertex 7.38138 546.93 171.645
endloop
endfacet
facet normal -0.0847942 0 0.996398
outer loop
vertex 7.38138 546.93 171.645
vertex 6.46317 543.33 171.567
vertex 7.38138 543.33 171.645
endloop
endfacet
facet normal 0.0847996 0 0.996398
outer loop
vertex 7.38138 546.93 171.645
vertex 7.38138 543.33 171.645
vertex 8.29953 546.93 171.567
endloop
endfacet
facet normal 0.0847996 0 0.996398
outer loop
vertex 8.29953 546.93 171.567
vertex 7.38138 543.33 171.645
vertex 8.29953 543.33 171.567
endloop
endfacet
facet normal 0 -1 0
outer loop
vertex 9.4409 543.33 161.656
vertex 9.61924 543.33 161.261
vertex 10.1812 543.33 162.069
endloop
endfacet
facet normal 0 -1 0
outer loop
vertex 10.1812 543.33 162.069
vertex 9.61924 543.33 161.261
vertex 10.4237 543.33 161.711
endloop
endfacet
facet normal 0 -1 0
outer loop
vertex 10.1812 543.33 162.069
vertex 10.4237 543.33 161.711
vertex 10.8411 543.33 162.602
endloop
endfacet
facet normal 0 -1 0
outer loop
vertex 10.8411 543.33 162.602
vertex 10.4237 543.33 161.711
vertex 11.1407 543.33 162.29
endloop
endfacet
facet normal 0 -1 0
outer loop
vertex 10.8411 543.33 162.602
vertex 11.1407 543.33 162.29
vertex 11.4014 543.33 163.239
endloop
endfacet
facet normal 0 -1 0
outer loop
vertex 11.4014 543.33 163.239
vertex 11.1407 543.33 162.29
vertex 11.7495 543.33 162.981
endloop
endfacet
facet normal 0 -1 0
outer loop
vertex 11.4014 543.33 163.239
vertex 11.7495 543.33 162.981
vertex 11.846 543.33 163.961
endloop
endfacet
facet normal 0 -1 0
outer loop
vertex 11.846 543.33 163.961
vertex 11.7495 543.33 162.981
vertex 12.2327 543.33 163.766
endloop
endfacet
facet normal 0 -1 0
outer loop
vertex 11.846 543.33 163.961
vertex 12.2327 543.33 163.766
vertex 12.1622 543.33 164.748
endloop
endfacet
facet normal 0 -1 0
outer loop
vertex 12.1622 543.33 164.748
vertex 12.2327 543.33 163.766
vertex 12.5762 543.33 164.621
endloop
endfacet
facet normal 0 -1 0
outer loop
vertex 12.1622 543.33 164.748
vertex 12.5762 543.33 164.621
vertex 12.3408 543.33 165.577
endloop
endfacet
facet normal 0 -1 0
outer loop
vertex 12.3408 543.33 165.577
vertex 12.5762 543.33 164.621
vertex 12.7704 543.33 165.522
endloop
endfacet
facet normal 0 -1 0
outer loop
vertex 12.3408 543.33 165.577
vertex 12.7704 543.33 165.522
vertex 12.3768 543.33 166.424
endloop
endfacet
facet normal 0 -1 0
outer loop
vertex 12.3768 543.33 166.424
vertex 12.7704 543.33 165.522
vertex 12.8095 543.33 166.443
endloop
endfacet
facet normal 0 -1 0
outer loop
vertex 12.3768 543.33 166.424
vertex 12.8095 543.33 166.443
vertex 12.2691 543.33 167.265
endloop
endfacet
facet normal 0 -1 0
outer loop
vertex 12.2691 543.33 167.265
vertex 12.8095 543.33 166.443
vertex 12.6925 543.33 167.357
endloop
endfacet
facet normal 0 -1 0
outer loop
vertex 12.2691 543.33 167.265
vertex 12.6925 543.33 167.357
vertex 12.0208 543.33 168.076
endloop
endfacet
facet normal 0 -1 0
outer loop
vertex 12.0208 543.33 168.076
vertex 12.6925 543.33 167.357
vertex 12.4226 543.33 168.238
endloop
endfacet
facet normal 0 -1 0
outer loop
vertex 12.0208 543.33 168.076
vertex 12.4226 543.33 168.238
vertex 11.639 543.33 168.833
endloop
endfacet
facet normal 0 -1 0
outer loop
vertex 11.639 543.33 168.833
vertex 12.4226 543.33 168.238
vertex 12.0077 543.33 169.061
endloop
endfacet
facet normal 0 -1 0
outer loop
vertex 11.639 543.33 168.833
vertex 12.0077 543.33 169.061
vertex 11.1347 543.33 169.515
endloop
endfacet
facet normal 0 -1 0
outer loop
vertex 11.1347 543.33 169.515
vertex 12.0077 543.33 169.061
vertex 11.4598 543.33 169.801
endloop
endfacet
facet normal 0 -1 0
outer loop
vertex 11.1347 543.33 169.515
vertex 11.4598 543.33 169.801
vertex 10.5225 543.33 170.102
endloop
endfacet
facet normal 0 -1 0
outer loop
vertex 10.5225 543.33 170.102
vertex 11.4598 543.33 169.801
vertex 10.7945 543.33 170.439
endloop
endfacet
facet normal 0 -1 0
outer loop
vertex 10.5225 543.33 170.102
vertex 10.7945 543.33 170.439
vertex 9.81987 543.33 170.577
endloop
endfacet
facet normal 0 -1 0
outer loop
vertex 9.81987 543.33 170.577
vertex 10.7945 543.33 170.439
vertex 10.031 543.33 170.955
endloop
endfacet
facet normal 0 -1 0
outer loop
vertex 9.81987 543.33 170.577
vertex 10.031 543.33 170.955
vertex 9.04709 543.33 170.926
endloop
endfacet
facet normal 0 -1 0
outer loop
vertex 9.04709 543.33 170.926
vertex 10.031 543.33 170.955
vertex 9.19133 543.33 171.335
endloop
endfacet
facet normal 0 -1 0
outer loop
vertex 9.04709 543.33 170.926
vertex 9.19133 543.33 171.335
vertex 8.22639 543.33 171.14
endloop
endfacet
facet normal 0 -1 0
outer loop
vertex 8.22639 543.33 171.14
vertex 9.19133 543.33 171.335
vertex 8.29953 543.33 171.567
endloop
endfacet
facet normal 0 -1 0
outer loop
vertex 8.22639 543.33 171.14
vertex 8.29953 543.33 171.567
vertex 7.38138 543.33 171.212
endloop
endfacet
facet normal 0 -1 0
outer loop
vertex 7.38138 543.33 171.212
vertex 8.29953 543.33 171.567
vertex 7.38138 543.33 171.645
endloop
endfacet
facet normal 0 -1 0
outer loop
vertex 7.38138 543.33 171.212
vertex 7.38138 543.33 171.645
vertex 6.53636 543.33 171.14
endloop
endfacet
facet normal 0 -1 0
outer loop
vertex 6.53636 543.33 171.14
vertex 7.38138 543.33 171.645
vertex 6.46317 543.33 171.567
endloop
endfacet
facet normal 0 -1 0
outer loop
vertex 6.53636 543.33 171.14
vertex 6.46317 543.33 171.567
vertex 5.71567 543.33 170.926
endloop
endfacet
facet normal 0 -1 0
outer loop
vertex 5.71567 543.33 170.926
vertex 6.46317 543.33 171.567
vertex 5.57142 543.33 171.335
endloop
endfacet
facet normal 0 -1 0
outer loop
vertex 5.71567 543.33 170.926
vertex 5.57142 543.33 171.335
vertex 4.94289 543.33 170.577
endloop
endfacet
facet normal 0 -1 0
outer loop
vertex 4.94289 543.33 170.577
vertex 5.57142 543.33 171.335
vertex 4.73171 543.33 170.955
endloop
endfacet
facet normal 0 -1 0
outer loop
vertex 4.94289 543.33 170.577
vertex 4.73171 543.33 170.955
vertex 4.24027 543.33 170.102
endloop
endfacet
facet normal 0 -1 0
outer loop
vertex 4.24027 543.33 170.102
vertex 4.73171 543.33 170.955
vertex 3.96824 543.33 170.439
endloop
endfacet
facet normal 0 -1 0
outer loop
vertex 4.24027 543.33 170.102
vertex 3.96824 543.33 170.439
vertex 3.62802 543.33 169.515
endloop
endfacet
facet normal 0 -1 0
outer loop
vertex 3.62802 543.33 169.515
vertex 3.96824 543.33 170.439
vertex 3.30293 543.33 169.801
endloop
endfacet
facet normal 0 -1 0
outer loop
vertex 3.62802 543.33 169.515
vertex 3.30293 543.33 169.801
vertex 3.1237 543.33 168.833
endloop
endfacet
facet normal 0 -1 0
outer loop
vertex 3.1237 543.33 168.833
vertex 3.30293 543.33 169.801
vertex 2.75499 543.33 169.061
endloop
endfacet
facet normal 0 -1 0
outer loop
vertex 3.1237 543.33 168.833
vertex 2.75499 543.33 169.061
vertex 2.74193 543.33 168.076
endloop
endfacet
facet normal 0 -1 0
outer loop
vertex 2.74193 543.33 168.076
vertex 2.75499 543.33 169.061
vertex 2.34014 543.33 168.238
endloop
endfacet
facet normal 0 -1 0
outer loop
vertex 2.74193 543.33 168.076
vertex 2.34014 543.33 168.238
vertex 2.49362 543.33 167.265
endloop
endfacet
facet normal 0 -1 0
outer loop
vertex 2.49362 543.33 167.265
vertex 2.34014 543.33 168.238
vertex 2.07031 543.33 167.357
endloop
endfacet
facet normal 0 -1 0
outer loop
vertex 2.49362 543.33 167.265
vertex 2.07031 543.33 167.357
vertex 2.38585 543.33 166.424
endloop
endfacet
facet normal 0 -1 0
outer loop
vertex 2.38585 543.33 166.424
vertex 2.07031 543.33 167.357
vertex 1.95324 543.33 166.443
endloop
endfacet
facet normal 0 -1 0
outer loop
vertex 2.38585 543.33 166.424
vertex 1.95324 543.33 166.443
vertex 2.42186 543.33 165.577
endloop
endfacet
facet normal 0 -1 0
outer loop
vertex 2.42186 543.33 165.577
vertex 1.95324 543.33 166.443
vertex 1.99234 543.33 165.522
endloop
endfacet
facet normal 0 -1 0
outer loop
vertex 2.42186 543.33 165.577
vertex 1.99234 543.33 165.522
vertex 2.60055 543.33 164.748
endloop
endfacet
facet normal 0 -1 0
outer loop
vertex 2.60055 543.33 164.748
vertex 1.99234 543.33 165.522
vertex 2.18648 543.33 164.621
endloop
endfacet
facet normal 0 -1 0
outer loop
vertex 2.60055 543.33 164.748
vertex 2.18648 543.33 164.621
vertex 2.91675 543.33 163.961
endloop
endfacet
facet normal 0 -1 0
outer loop
vertex 2.91675 543.33 163.961
vertex 2.18648 543.33 164.621
vertex 2.5301 543.33 163.766
endloop
endfacet
facet normal 0 -1 0
outer loop
vertex 2.91675 543.33 163.961
vertex 2.5301 543.33 163.766
vertex 3.3614 543.33 163.239
endloop
endfacet
facet normal 0 -1 0
outer loop
vertex 3.3614 543.33 163.239
vertex 2.5301 543.33 163.766
vertex 3.01325 543.33 162.981
endloop
endfacet
facet normal 0 -1 0
outer loop
vertex 3.3614 543.33 163.239
vertex 3.01325 543.33 162.981
vertex 3.92169 543.33 162.602
endloop
endfacet
facet normal 0 -1 0
outer loop
vertex 3.92169 543.33 162.602
vertex 3.01325 543.33 162.981
vertex 3.62206 543.33 162.29
endloop
endfacet
facet normal 0 -1 0
outer loop
vertex 3.92169 543.33 162.602
vertex 3.62206 543.33 162.29
vertex 4.58151 543.33 162.069
endloop
endfacet
facet normal 0 -1 0
outer loop
vertex 4.58151 543.33 162.069
vertex 3.62206 543.33 162.29
vertex 4.33904 543.33 161.711
endloop
endfacet
facet normal 0 -1 0
outer loop
vertex 4.58151 543.33 162.069
vertex 4.33904 543.33 161.711
vertex 5.32186 543.33 161.656
endloop
endfacet
facet normal 0 -1 0
outer loop
vertex 5.32186 543.33 161.656
vertex 4.33904 543.33 161.711
vertex 5.14352 543.33 161.261
endloop
endfacet
facet normal 0 -1 0
outer loop
vertex 5.32186 543.33 161.656
vertex 5.14352 543.33 161.261
vertex 6.12146 543.33 161.373
endloop
endfacet
facet normal 0 -1 0
outer loop
vertex 6.12146 543.33 161.373
vertex 5.14352 543.33 161.261
vertex 6.01238 543.33 160.954
endloop
endfacet
facet normal 0 -1 0
outer loop
vertex 6.12146 543.33 161.373
vertex 6.01238 543.33 160.954
vertex 6.95735 543.33 161.23
endloop
endfacet
facet normal 0 -1 0
outer loop
vertex 6.95735 543.33 161.23
vertex 6.01238 543.33 160.954
vertex 6.92064 543.33 160.799
endloop
endfacet
facet normal 0 -1 0
outer loop
vertex 6.95735 543.33 161.23
vertex 6.92064 543.33 160.799
vertex 7.80541 543.33 161.23
endloop
endfacet
facet normal 0 -1 0
outer loop
vertex 7.80541 543.33 161.23
vertex 6.92064 543.33 160.799
vertex 7.84212 543.33 160.799
endloop
endfacet
facet normal 0 -1 0
outer loop
vertex 7.80541 543.33 161.23
vertex 7.84212 543.33 160.799
vertex 8.64124 543.33 161.373
endloop
endfacet
facet normal 0 -1 0
outer loop
vertex 8.64124 543.33 161.373
vertex 7.84212 543.33 160.799
vertex 8.75038 543.33 160.954
endloop
endfacet
facet normal 0 -1 0
outer loop
vertex 8.64124 543.33 161.373
vertex 8.75038 543.33 160.954
vertex 9.4409 543.33 161.656
endloop
endfacet
facet normal 0 -1 0
outer loop
vertex 9.4409 543.33 161.656
vertex 8.75038 543.33 160.954
vertex 9.61924 543.33 161.261
endloop
endfacet
facet normal 0 -1 0
outer loop
vertex 11.4014 519.93 163.239
vertex 11.846 519.93 163.961
vertex 12.1622 519.93 164.748
endloop
endfacet
facet normal 0 -1 0
outer loop
vertex 3.62802 519.93 169.515
vertex 3.1237 519.93 168.833
vertex 2.74193 519.93 168.076
endloop
endfacet
facet normal 0 -1 0
outer loop
vertex 2.49362 519.93 167.265
vertex 2.38585 519.93 166.424
vertex 2.42186 519.93 165.577
endloop
endfacet
facet normal 0 -1 0
outer loop
vertex 2.91675 519.93 163.961
vertex 3.3614 519.93 163.239
vertex 12.1622 519.93 164.748
endloop
endfacet
facet normal 0 -1 0
outer loop
vertex 2.60055 519.93 164.748
vertex 2.91675 519.93 163.961
vertex 2.42186 519.93 165.577
endloop
endfacet
facet normal 0 -1 0
outer loop
vertex 2.42186 519.93 165.577
vertex 2.91675 519.93 163.961
vertex 12.1622 519.93 164.748
endloop
endfacet
facet normal 0 -1 0
outer loop
vertex 2.42186 519.93 165.577
vertex 12.1622 519.93 164.748
vertex 2.49362 519.93 167.265
endloop
endfacet
facet normal 0 -1 0
outer loop
vertex 2.49362 519.93 167.265
vertex 12.1622 519.93 164.748
vertex 2.74193 519.93 168.076
endloop
endfacet
facet normal 0 -1 0
outer loop
vertex 12.3768 519.93 166.424
vertex 12.2691 519.93 167.265
vertex 12.0208 519.93 168.076
endloop
endfacet
facet normal 0 -1 0
outer loop
vertex 12.1622 519.93 164.748
vertex 12.3408 519.93 165.577
vertex 2.74193 519.93 168.076
endloop
endfacet
facet normal 0 -1 0
outer loop
vertex 2.74193 519.93 168.076
vertex 12.3408 519.93 165.577
vertex 12.3768 519.93 166.424
endloop
endfacet
facet normal 0 -1 0
outer loop
vertex 2.74193 519.93 168.076
vertex 12.3768 519.93 166.424
vertex 3.62802 519.93 169.515
endloop
endfacet
facet normal 0 -1 0
outer loop
vertex 3.62802 519.93 169.515
vertex 12.3768 519.93 166.424
vertex 12.0208 519.93 168.076
endloop
endfacet
facet normal 0 -1 0
outer loop
vertex 3.62802 519.93 169.515
vertex 12.0208 519.93 168.076
vertex 11.639 519.93 168.833
endloop
endfacet
facet normal 0 -1 0
outer loop
vertex 11.639 519.93 168.833
vertex 11.1347 519.93 169.515
vertex 3.62802 519.93 169.515
endloop
endfacet
facet normal 0 -1 0
outer loop
vertex 3.62802 519.93 169.515
vertex 11.1347 519.93 169.515
vertex 10.5225 519.93 170.102
endloop
endfacet
facet normal 0 -1 0
outer loop
vertex 3.62802 519.93 169.515
vertex 10.5225 519.93 170.102
vertex 9.81987 519.93 170.577
endloop
endfacet
facet normal 0 -1 0
outer loop
vertex 6.12146 519.93 161.373
vertex 10.1812 519.93 162.069
vertex 5.32186 519.93 161.656
endloop
endfacet
facet normal 0 -1 0
outer loop
vertex 5.32186 519.93 161.656
vertex 10.1812 519.93 162.069
vertex 10.8411 519.93 162.602
endloop
endfacet
facet normal 0 -1 0
outer loop
vertex 8.64124 519.93 161.373
vertex 9.4409 519.93 161.656
vertex 7.80541 519.93 161.23
endloop
endfacet
facet normal 0 -1 0
outer loop
vertex 7.80541 519.93 161.23
vertex 9.4409 519.93 161.656
vertex 10.1812 519.93 162.069
endloop
endfacet
facet normal 0 -1 0
outer loop
vertex 7.80541 519.93 161.23
vertex 10.1812 519.93 162.069
vertex 6.95735 519.93 161.23
endloop
endfacet
facet normal 0 -1 0
outer loop
vertex 6.95735 519.93 161.23
vertex 10.1812 519.93 162.069
vertex 6.12146 519.93 161.373
endloop
endfacet
facet normal 0 -1 0
outer loop
vertex 10.8411 519.93 162.602
vertex 11.4014 519.93 163.239
vertex 5.32186 519.93 161.656
endloop
endfacet
facet normal 0 -1 0
outer loop
vertex 5.32186 519.93 161.656
vertex 11.4014 519.93 163.239
vertex 12.1622 519.93 164.748
endloop
endfacet
facet normal 0 -1 0
outer loop
vertex 5.32186 519.93 161.656
vertex 12.1622 519.93 164.748
vertex 4.58151 519.93 162.069
endloop
endfacet
facet normal 0 -1 0
outer loop
vertex 4.58151 519.93 162.069
vertex 12.1622 519.93 164.748
vertex 3.3614 519.93 163.239
endloop
endfacet
facet normal 0 -1 0
outer loop
vertex 4.58151 519.93 162.069
vertex 3.3614 519.93 163.239
vertex 3.92169 519.93 162.602
endloop
endfacet
facet normal 0 -1 0
outer loop
vertex 7.38138 519.93 171.212
vertex 6.53636 519.93 171.14
vertex 8.22639 519.93 171.14
endloop
endfacet
facet normal 0 -1 0
outer loop
vertex 8.22639 519.93 171.14
vertex 6.53636 519.93 171.14
vertex 5.71567 519.93 170.926
endloop
endfacet
facet normal 0 -1 0
outer loop
vertex 4.24027 519.93 170.102
vertex 3.62802 519.93 169.515
vertex 4.94289 519.93 170.577
endloop
endfacet
facet normal 0 -1 0
outer loop
vertex 4.94289 519.93 170.577
vertex 3.62802 519.93 169.515
vertex 9.81987 519.93 170.577
endloop
endfacet
facet normal 0 -1 0
outer loop
vertex 4.94289 519.93 170.577
vertex 9.81987 519.93 170.577
vertex 5.71567 519.93 170.926
endloop
endfacet
facet normal 0 -1 0
outer loop
vertex 5.71567 519.93 170.926
vertex 9.81987 519.93 170.577
vertex 9.04709 519.93 170.926
endloop
endfacet
facet normal 0 -1 0
outer loop
vertex 5.71567 519.93 170.926
vertex 9.04709 519.93 170.926
vertex 8.22639 519.93 171.14
endloop
endfacet
facet normal 0.251986 0 0.967731
outer loop
vertex 8.22639 543.33 171.14
vertex 8.22639 519.93 171.14
vertex 9.04709 543.33 170.926
endloop
endfacet
facet normal 0.251986 0 0.967731
outer loop
vertex 9.04709 543.33 170.926
vertex 8.22639 519.93 171.14
vertex 9.04709 519.93 170.926
endloop
endfacet
facet normal 0.41189 0 0.911234
outer loop
vertex 9.04709 543.33 170.926
vertex 9.04709 519.93 170.926
vertex 9.81987 543.33 170.577
endloop
endfacet
facet normal 0.41189 0 0.911234
outer loop
vertex 9.81987 543.33 170.577
vertex 9.04709 519.93 170.926
vertex 9.81987 519.93 170.577
endloop
endfacet
facet normal 0.559996 0 0.828495
outer loop
vertex 9.81987 543.33 170.577
vertex 9.81987 519.93 170.577
vertex 10.5225 543.33 170.102
endloop
endfacet
facet normal 0.559996 0 0.828495
outer loop
vertex 10.5225 543.33 170.102
vertex 9.81987 519.93 170.577
vertex 10.5225 519.93 170.102
endloop
endfacet
facet normal 0.691942 0 0.721953
outer loop
vertex 10.5225 543.33 170.102
vertex 10.5225 519.93 170.102
vertex 11.1347 543.33 169.515
endloop
endfacet
facet normal 0.691942 0 0.721953
outer loop
vertex 11.1347 543.33 169.515
vertex 10.5225 519.93 170.102
vertex 11.1347 519.93 169.515
endloop
endfacet
facet normal 0.804008 0 0.594619
outer loop
vertex 11.1347 543.33 169.515
vertex 11.1347 519.93 169.515
vertex 11.639 543.33 168.833
endloop
endfacet
facet normal 0.804008 0 0.594619
outer loop
vertex 11.639 543.33 168.833
vertex 11.1347 519.93 169.515
vertex 11.639 519.93 168.833
endloop
endfacet
facet normal 0.892911 0 0.450233
outer loop
vertex 11.639 543.33 168.833
vertex 11.639 519.93 168.833
vertex 12.0208 543.33 168.076
endloop
endfacet
facet normal 0.892911 0 0.450233
outer loop
vertex 12.0208 543.33 168.076
vertex 11.639 519.93 168.833
vertex 12.0208 519.93 168.076
endloop
endfacet
facet normal 0.956174 0 0.292799
outer loop
vertex 12.0208 543.33 168.076
vertex 12.0208 519.93 168.076
vertex 12.2691 543.33 167.265
endloop
endfacet
facet normal 0.956174 0 0.292799
outer loop
vertex 12.2691 543.33 167.265
vertex 12.0208 519.93 168.076
vertex 12.2691 519.93 167.265
endloop
endfacet
facet normal 0.991902 0 0.127003
outer loop
vertex 12.2691 543.33 167.265
vertex 12.2691 519.93 167.265
vertex 12.3768 543.33 166.424
endloop
endfacet
facet normal 0.991902 0 0.127003
outer loop
vertex 12.3768 543.33 166.424
vertex 12.2691 519.93 167.265
vertex 12.3768 519.93 166.424
endloop
endfacet
facet normal 0.999099 0 -0.0424515
outer loop
vertex 12.3768 543.33 166.424
vertex 12.3768 519.93 166.424
vertex 12.3408 543.33 165.577
endloop
endfacet
facet normal 0.999099 0 -0.0424515
outer loop
vertex 12.3408 543.33 165.577
vertex 12.3768 519.93 166.424
vertex 12.3408 519.93 165.577
endloop
endfacet
facet normal 0.977563 0 -0.210641
outer loop
vertex 12.3408 543.33 165.577
vertex 12.3408 519.93 165.577
vertex 12.1622 543.33 164.748
endloop
endfacet
facet normal 0.977563 0 -0.210641
outer loop
vertex 12.1622 543.33 164.748
vertex 12.3408 519.93 165.577
vertex 12.1622 519.93 164.748
endloop
endfacet
facet normal 0.927888 0 -0.372858
outer loop
vertex 12.1622 543.33 164.748
vertex 12.1622 519.93 164.748
vertex 11.846 543.33 163.961
endloop
endfacet
facet normal 0.927888 0 -0.372858
outer loop
vertex 11.846 543.33 163.961
vertex 12.1622 519.93 164.748
vertex 11.846 519.93 163.961
endloop
endfacet
facet normal 0.851527 0 -0.52431
outer loop
vertex 11.846 543.33 163.961
vertex 11.846 519.93 163.961
vertex 11.4014 543.33 163.239
endloop
endfacet
facet normal 0.851527 0 -0.52431
outer loop
vertex 11.4014 543.33 163.239
vertex 11.846 519.93 163.961
vertex 11.4014 519.93 163.239
endloop
endfacet
facet normal 0.750675 0 -0.660671
outer loop
vertex 11.4014 543.33 163.239
vertex 11.4014 519.93 163.239
vertex 10.8411 543.33 162.602
endloop
endfacet
facet normal 0.750675 0 -0.660671
outer loop
vertex 10.8411 543.33 162.602
vertex 11.4014 519.93 163.239
vertex 10.8411 519.93 162.602
endloop
endfacet
facet normal 0.628224 0 -0.778033
outer loop
vertex 10.8411 543.33 162.602
vertex 10.8411 519.93 162.602
vertex 10.1812 543.33 162.069
endloop
endfacet
facet normal 0.628224 0 -0.778033
outer loop
vertex 10.1812 543.33 162.069
vertex 10.8411 519.93 162.602
vertex 10.1812 519.93 162.069
endloop
endfacet
facet normal 0.487714 0 -0.873004
outer loop
vertex 10.1812 543.33 162.069
vertex 10.1812 519.93 162.069
vertex 9.4409 543.33 161.656
endloop
endfacet
facet normal 0.487714 0 -0.873004
outer loop
vertex 9.4409 543.33 161.656
vertex 10.1812 519.93 162.069
vertex 9.4409 519.93 161.656
endloop
endfacet
facet normal 0.333103 0 -0.94289
outer loop
vertex 9.4409 543.33 161.656
vertex 9.4409 519.93 161.656
vertex 8.64124 543.33 161.373
endloop
endfacet
facet normal 0.333103 0 -0.94289
outer loop
vertex 8.64124 543.33 161.373
vertex 9.4409 519.93 161.656
vertex 8.64124 519.93 161.373
endloop
endfacet
facet normal 0.169027 0 -0.985611
outer loop
vertex 8.64124 543.33 161.373
vertex 8.64124 519.93 161.373
vertex 7.80541 543.33 161.23
endloop
endfacet
facet normal 0.169027 0 -0.985611
outer loop
vertex 7.80541 543.33 161.23
vertex 8.64124 519.93 161.373
vertex 7.80541 519.93 161.23
endloop
endfacet
facet normal 0 0 -1
outer loop
vertex 7.80541 543.33 161.23
vertex 7.80541 519.93 161.23
vertex 6.95735 543.33 161.23
endloop
endfacet
facet normal 0 0 -1
outer loop
vertex 6.95735 543.33 161.23
vertex 7.80541 519.93 161.23
vertex 6.95735 519.93 161.23
endloop
endfacet
facet normal -0.169015 0 -0.985613
outer loop
vertex 6.95735 543.33 161.23
vertex 6.95735 519.93 161.23
vertex 6.12146 543.33 161.373
endloop
endfacet
facet normal -0.169015 0 -0.985613
outer loop
vertex 6.12146 543.33 161.373
vertex 6.95735 519.93 161.23
vertex 6.12146 519.93 161.373
endloop
endfacet
facet normal -0.333125 0 -0.942883
outer loop
vertex 6.12146 543.33 161.373
vertex 6.12146 519.93 161.373
vertex 5.32186 543.33 161.656
endloop
endfacet
facet normal -0.333125 0 -0.942883
outer loop
vertex 5.32186 543.33 161.656
vertex 6.12146 519.93 161.373
vertex 5.32186 519.93 161.656
endloop
endfacet
facet normal -0.487714 0 -0.873004
outer loop
vertex 5.32186 543.33 161.656
vertex 5.32186 519.93 161.656
vertex 4.58151 543.33 162.069
endloop
endfacet
facet normal -0.487714 0 -0.873004
outer loop
vertex 4.58151 543.33 162.069
vertex 5.32186 519.93 161.656
vertex 4.58151 519.93 162.069
endloop
endfacet
facet normal -0.628224 0 -0.778032
outer loop
vertex 4.58151 543.33 162.069
vertex 4.58151 519.93 162.069
vertex 3.92169 543.33 162.602
endloop
endfacet
facet normal -0.628224 0 -0.778032
outer loop
vertex 3.92169 543.33 162.602
vertex 4.58151 519.93 162.069
vertex 3.92169 519.93 162.602
endloop
endfacet
facet normal -0.750675 0 -0.660671
outer loop
vertex 3.92169 543.33 162.602
vertex 3.92169 519.93 162.602
vertex 3.3614 543.33 163.239
endloop
endfacet
facet normal -0.750675 0 -0.660671
outer loop
vertex 3.3614 543.33 163.239
vertex 3.92169 519.93 162.602
vertex 3.3614 519.93 163.239
endloop
endfacet
facet normal -0.851527 0 -0.52431
outer loop
vertex 3.3614 543.33 163.239
vertex 3.3614 519.93 163.239
vertex 2.91675 543.33 163.961
endloop
endfacet
facet normal -0.851527 0 -0.52431
outer loop
vertex 2.91675 543.33 163.961
vertex 3.3614 519.93 163.239
vertex 2.91675 519.93 163.961
endloop
endfacet
facet normal -0.927888 0 -0.372858
outer loop
vertex 2.91675 543.33 163.961
vertex 2.91675 519.93 163.961
vertex 2.60055 543.33 164.748
endloop
endfacet
facet normal -0.927888 0 -0.372858
outer loop
vertex 2.60055 543.33 164.748
vertex 2.91675 519.93 163.961
vertex 2.60055 519.93 164.748
endloop
endfacet
facet normal -0.977549 0 -0.210709
outer loop
vertex 2.60055 543.33 164.748
vertex 2.60055 519.93 164.748
vertex 2.42186 543.33 165.577
endloop
endfacet
facet normal -0.977549 0 -0.210709
outer loop
vertex 2.42186 543.33 165.577
vertex 2.60055 519.93 164.748
vertex 2.42186 519.93 165.577
endloop
endfacet
facet normal -0.999099 0 -0.0424515
outer loop
vertex 2.42186 543.33 165.577
vertex 2.42186 519.93 165.577
vertex 2.38585 543.33 166.424
endloop
endfacet
facet normal -0.999099 0 -0.0424515
outer loop
vertex 2.38585 543.33 166.424
vertex 2.42186 519.93 165.577
vertex 2.38585 519.93 166.424
endloop
endfacet
facet normal -0.991893 0 0.127072
outer loop
vertex 2.38585 543.33 166.424
vertex 2.38585 519.93 166.424
vertex 2.49362 543.33 167.265
endloop
endfacet
facet normal -0.991893 0 0.127072
outer loop
vertex 2.49362 543.33 167.265
vertex 2.38585 519.93 166.424
vertex 2.49362 519.93 167.265
endloop
endfacet
facet normal -0.956174 0 0.292799
outer loop
vertex 2.49362 543.33 167.265
vertex 2.49362 519.93 167.265
vertex 2.74193 543.33 168.076
endloop
endfacet
facet normal -0.956174 0 0.292799
outer loop
vertex 2.74193 543.33 168.076
vertex 2.49362 519.93 167.265
vertex 2.74193 519.93 168.076
endloop
endfacet
facet normal -0.892939 0 0.450177
outer loop
vertex 2.74193 543.33 168.076
vertex 2.74193 519.93 168.076
vertex 3.1237 543.33 168.833
endloop
endfacet
facet normal -0.892939 0 0.450177
outer loop
vertex 3.1237 543.33 168.833
vertex 2.74193 519.93 168.076
vertex 3.1237 519.93 168.833
endloop
endfacet
facet normal -0.803974 0 0.594664
outer loop
vertex 3.1237 543.33 168.833
vertex 3.1237 519.93 168.833
vertex 3.62802 543.33 169.515
endloop
endfacet
facet normal -0.803974 0 0.594664
outer loop
vertex 3.62802 543.33 169.515
vertex 3.1237 519.93 168.833
vertex 3.62802 519.93 169.515
endloop
endfacet
facet normal -0.691942 0 0.721953
outer loop
vertex 3.62802 543.33 169.515
vertex 3.62802 519.93 169.515
vertex 4.24027 543.33 170.102
endloop
endfacet
facet normal -0.691942 0 0.721953
outer loop
vertex 4.24027 543.33 170.102
vertex 3.62802 519.93 169.515
vertex 4.24027 519.93 170.102
endloop
endfacet
facet normal -0.559996 0 0.828495
outer loop
vertex 4.24027 543.33 170.102
vertex 4.24027 519.93 170.102
vertex 4.94289 543.33 170.577
endloop
endfacet
facet normal -0.559996 0 0.828495
outer loop
vertex 4.94289 543.33 170.577
vertex 4.24027 519.93 170.102
vertex 4.94289 519.93 170.577
endloop
endfacet
facet normal -0.41189 0 0.911234
outer loop
vertex 4.94289 543.33 170.577
vertex 4.94289 519.93 170.577
vertex 5.71567 543.33 170.926
endloop
endfacet
facet normal -0.41189 0 0.911234
outer loop
vertex 5.71567 543.33 170.926
vertex 4.94289 519.93 170.577
vertex 5.71567 519.93 170.926
endloop
endfacet
facet normal -0.251985 0 0.967731
outer loop
vertex 5.71567 543.33 170.926
vertex 5.71567 519.93 170.926
vertex 6.53636 543.33 171.14
endloop
endfacet
facet normal -0.251985 0 0.967731
outer loop
vertex 6.53636 543.33 171.14
vertex 5.71567 519.93 170.926
vertex 6.53636 519.93 171.14
endloop
endfacet
facet normal -0.0847981 0 0.996398
outer loop
vertex 6.53636 543.33 171.14
vertex 6.53636 519.93 171.14
vertex 7.38138 543.33 171.212
endloop
endfacet
facet normal -0.0847981 0 0.996398
outer loop
vertex 7.38138 543.33 171.212
vertex 6.53636 519.93 171.14
vertex 7.38138 519.93 171.212
endloop
endfacet
facet normal 0.0847981 0 0.996398
outer loop
vertex 7.38138 543.33 171.212
vertex 7.38138 519.93 171.212
vertex 8.22639 543.33 171.14
endloop
endfacet
facet normal 0.0847981 0 0.996398
outer loop
vertex 8.22639 543.33 171.14
vertex 7.38138 519.93 171.212
vertex 8.22639 519.93 171.14
endloop
endfacet
endsolid
