solid C:\Temp\NOELParts\SCREW2.STL created by CtrlView V2.70
facet normal -1 0 0
outer loop
vertex 2.6 1.4 2
vertex 2.6 1.4 0
vertex 2.6 0.5 2
endloop
endfacet
facet normal -1 0 0
outer loop
vertex 2.6 0.5 2
vertex 2.6 1.4 0
vertex 2.6 0.5 0
endloop
endfacet
facet normal 0 1 0
outer loop
vertex 2.6 0.5 0
vertex 1.4 0.5 0
vertex 2.6 0.5 2
endloop
endfacet
facet normal 0 1 0
outer loop
vertex 2.6 0.5 2
vertex 1.4 0.5 0
vertex 1.4 0.5 2
endloop
endfacet
facet normal 0 1 0
outer loop
vertex 3.5 1.4 0
vertex 2.6 1.4 0
vertex 3.5 1.4 2
endloop
endfacet
facet normal 0 1 0
outer loop
vertex 3.5 1.4 2
vertex 2.6 1.4 0
vertex 2.6 1.4 2
endloop
endfacet
facet normal 1 0 0
outer loop
vertex 1.4 1.4 0
vertex 1.4 1.4 2
vertex 1.4 0.5 0
endloop
endfacet
facet normal 1 0 0
outer loop
vertex 1.4 0.5 0
vertex 1.4 1.4 2
vertex 1.4 0.5 2
endloop
endfacet
facet normal -1 0 0
outer loop
vertex 3.5 2.6 0
vertex 3.5 1.4 0
vertex 3.5 2.6 2
endloop
endfacet
facet normal -1 0 0
outer loop
vertex 3.5 2.6 2
vertex 3.5 1.4 0
vertex 3.5 1.4 2
endloop
endfacet
facet normal 0 1 0
outer loop
vertex 1.4 1.4 0
vertex 0.5 1.4 0
vertex 1.4 1.4 2
endloop
endfacet
facet normal 0 1 0
outer loop
vertex 1.4 1.4 2
vertex 0.5 1.4 0
vertex 0.5 1.4 2
endloop
endfacet
facet normal 0 -1 0
outer loop
vertex 2.6 2.6 0
vertex 3.5 2.6 0
vertex 2.6 2.6 2
endloop
endfacet
facet normal 0 -1 0
outer loop
vertex 2.6 2.6 2
vertex 3.5 2.6 0
vertex 3.5 2.6 2
endloop
endfacet
facet normal 1 0 0
outer loop
vertex 0.5 1.4 0
vertex 0.5 2.6 0
vertex 0.5 1.4 2
endloop
endfacet
facet normal 1 0 0
outer loop
vertex 0.5 1.4 2
vertex 0.5 2.6 0
vertex 0.5 2.6 2
endloop
endfacet
facet normal -1 0 0
outer loop
vertex 2.6 2.6 0
vertex 2.6 2.6 2
vertex 2.6 3.5 0
endloop
endfacet
facet normal -1 0 0
outer loop
vertex 2.6 3.5 0
vertex 2.6 2.6 2
vertex 2.6 3.5 2
endloop
endfacet
facet normal 0 -1 0
outer loop
vertex 0.5 2.6 0
vertex 1.4 2.6 0
vertex 0.5 2.6 2
endloop
endfacet
facet normal 0 -1 0
outer loop
vertex 0.5 2.6 2
vertex 1.4 2.6 0
vertex 1.4 2.6 2
endloop
endfacet
facet normal 0 -1 0
outer loop
vertex 1.4 3.5 0
vertex 2.6 3.5 0
vertex 1.4 3.5 2
endloop
endfacet
facet normal 0 -1 0
outer loop
vertex 1.4 3.5 2
vertex 2.6 3.5 0
vertex 2.6 3.5 2
endloop
endfacet
facet normal 0 0 -1
outer loop
vertex 0.5 1.4 2
vertex 0.5 2.6 2
vertex 1.4 1.4 2
endloop
endfacet
facet normal 0 0 -1
outer loop
vertex 1.4 1.4 2
vertex 0.5 2.6 2
vertex 1.4 2.6 2
endloop
endfacet
facet normal 0 0 -1
outer loop
vertex 3.5 2.6 2
vertex 3.5 1.4 2
vertex 2.6 2.6 2
endloop
endfacet
facet normal 0 0 -1
outer loop
vertex 2.6 2.6 2
vertex 3.5 1.4 2
vertex 2.6 1.4 2
endloop
endfacet
facet normal 0 0 -1
outer loop
vertex 2.6 0.5 2
vertex 1.4 0.5 2
vertex 2.6 1.4 2
endloop
endfacet
facet normal 0 0 -1
outer loop
vertex 2.6 1.4 2
vertex 1.4 0.5 2
vertex 1.4 1.4 2
endloop
endfacet
facet normal 0 0 -1
outer loop
vertex 2.6 1.4 2
vertex 1.4 1.4 2
vertex 2.6 2.6 2
endloop
endfacet
facet normal 0 0 -1
outer loop
vertex 2.6 2.6 2
vertex 1.4 1.4 2
vertex 1.4 2.6 2
endloop
endfacet
facet normal 0 0 -1
outer loop
vertex 2.6 2.6 2
vertex 1.4 2.6 2
vertex 2.6 3.5 2
endloop
endfacet
facet normal 0 0 -1
outer loop
vertex 2.6 3.5 2
vertex 1.4 2.6 2
vertex 1.4 3.5 2
endloop
endfacet
facet normal 1 0 0
outer loop
vertex 1.4 2.6 2
vertex 1.4 2.6 0
vertex 1.4 3.5 2
endloop
endfacet
facet normal 1 0 0
outer loop
vertex 1.4 3.5 2
vertex 1.4 2.6 0
vertex 1.4 3.5 0
endloop
endfacet
facet normal 0 0 -1
outer loop
vertex 0.0932073 1.39656 0
vertex 0.0234393 1.6947 0
vertex 0 2 0
endloop
endfacet
facet normal 0 0 -1
outer loop
vertex 0.5 2.6 0
vertex 0.207669 2.88744 0
vertex 1.4 2.6 0
endloop
endfacet
facet normal 0 0 -1
outer loop
vertex 1.4 2.6 0
vertex 0.207669 2.88744 0
vertex 0.364141 3.15064 0
endloop
endfacet
facet normal 0 0 -1
outer loop
vertex 0.364141 3.15064 0
vertex 0.558957 3.38687 0
vertex 1.4 2.6 0
endloop
endfacet
facet normal 0 0 -1
outer loop
vertex 1.4 2.6 0
vertex 0.558957 3.38687 0
vertex 0.787549 3.59059 0
endloop
endfacet
facet normal 0 0 -1
outer loop
vertex 1.4 2.6 0
vertex 0.787549 3.59059 0
vertex 1.4 3.5 0
endloop
endfacet
facet normal 0 0 -1
outer loop
vertex 0.0932073 2.60344 0
vertex 0.207669 2.88744 0
vertex 0.0234393 2.3053 0
endloop
endfacet
facet normal 0 0 -1
outer loop
vertex 0.0234393 2.3053 0
vertex 0.207669 2.88744 0
vertex 0.5 2.6 0
endloop
endfacet
facet normal 0 0 -1
outer loop
vertex 0.0234393 2.3053 0
vertex 0.5 2.6 0
vertex 0 2 0
endloop
endfacet
facet normal 0 0 -1
outer loop
vertex 0 2 0
vertex 0.5 2.6 0
vertex 0.5 1.4 0
endloop
endfacet
facet normal 0 0 -1
outer loop
vertex 0 2 0
vertex 0.5 1.4 0
vertex 0.0932073 1.39656 0
endloop
endfacet
facet normal 0 0 -1
outer loop
vertex 1.4 1.4 0
vertex 0.364141 0.849363 0
vertex 0.5 1.4 0
endloop
endfacet
facet normal 0 0 -1
outer loop
vertex 0.5 1.4 0
vertex 0.364141 0.849363 0
vertex 0.207669 1.11256 0
endloop
endfacet
facet normal 0 0 -1
outer loop
vertex 0.5 1.4 0
vertex 0.207669 1.11256 0
vertex 0.0932073 1.39656 0
endloop
endfacet
facet normal 0 0 -1
outer loop
vertex 0.558957 0.613135 0
vertex 0.364141 0.849363 0
vertex 0.787549 0.409414 0
endloop
endfacet
facet normal 0 0 -1
outer loop
vertex 0.787549 0.409414 0
vertex 0.364141 0.849363 0
vertex 1.4 1.4 0
endloop
endfacet
facet normal 0 0 -1
outer loop
vertex 0.787549 0.409414 0
vertex 1.4 1.4 0
vertex 1.04456 0.242976 0
endloop
endfacet
facet normal 0 0 -1
outer loop
vertex 1.04456 0.242976 0
vertex 1.4 1.4 0
vertex 1.4 0.5 0
endloop
endfacet
facet normal 0 0 -1
outer loop
vertex 1.04456 0.242976 0
vertex 1.4 0.5 0
vertex 1.32397 0.11772 0
endloop
endfacet
facet normal 0 0 -1
outer loop
vertex 2.81814 0.174993 0
vertex 2.6 0.5 0
vertex 3.08714 0.321269 0
endloop
endfacet
facet normal 0 0 -1
outer loop
vertex 3.08714 0.321269 0
vertex 2.6 0.5 0
vertex 2.6 1.4 0
endloop
endfacet
facet normal 0 0 -1
outer loop
vertex 1.61922 0.0365835 0
vertex 1.32397 0.11772 0
vertex 1.92339 0.00146776 0
endloop
endfacet
facet normal 0 0 -1
outer loop
vertex 1.92339 0.00146776 0
vertex 1.32397 0.11772 0
vertex 1.4 0.5 0
endloop
endfacet
facet normal 0 0 -1
outer loop
vertex 1.92339 0.00146776 0
vertex 1.4 0.5 0
vertex 2.22937 0.0131959 0
endloop
endfacet
facet normal 0 0 -1
outer loop
vertex 2.22937 0.0131959 0
vertex 1.4 0.5 0
vertex 2.6 0.5 0
endloop
endfacet
facet normal 0 0 -1
outer loop
vertex 2.22937 0.0131959 0
vertex 2.6 0.5 0
vertex 2.52996 0.0714931 0
endloop
endfacet
facet normal 0 0 -1
outer loop
vertex 2.52996 0.0714931 0
vertex 2.6 0.5 0
vertex 2.81814 0.174993 0
endloop
endfacet
facet normal 0 0 -1
outer loop
vertex 3.33065 0.506894 0
vertex 3.08714 0.321269 0
vertex 3.54298 0.727515 0
endloop
endfacet
facet normal 0 0 -1
outer loop
vertex 3.54298 0.727515 0
vertex 3.08714 0.321269 0
vertex 2.6 1.4 0
endloop
endfacet
facet normal 0 0 -1
outer loop
vertex 3.54298 0.727515 0
vertex 2.6 1.4 0
vertex 3.71914 0.977963 0
endloop
endfacet
facet normal 0 0 -1
outer loop
vertex 3.71914 0.977963 0
vertex 2.6 1.4 0
vertex 3.5 1.4 0
endloop
endfacet
facet normal 0 0 -1
outer loop
vertex 3.71914 0.977963 0
vertex 3.5 1.4 0
vertex 3.855 1.25237 0
endloop
endfacet
facet normal 0 0 -1
outer loop
vertex 3.08714 3.67873 0
vertex 2.6 2.6 0
vertex 2.81814 3.82501 0
endloop
endfacet
facet normal 0 0 -1
outer loop
vertex 2.81814 3.82501 0
vertex 2.6 2.6 0
vertex 2.6 3.5 0
endloop
endfacet
facet normal 0 0 -1
outer loop
vertex 2.81814 3.82501 0
vertex 2.6 3.5 0
vertex 2.52996 3.92851 0
endloop
endfacet
facet normal 0 0 -1
outer loop
vertex 2.52996 3.92851 0
vertex 2.6 3.5 0
vertex 1.4 3.5 0
endloop
endfacet
facet normal 0 0 -1
outer loop
vertex 2.52996 3.92851 0
vertex 1.4 3.5 0
vertex 2.22937 3.9868 0
endloop
endfacet
facet normal 0 0 -1
outer loop
vertex 2.22937 3.9868 0
vertex 1.4 3.5 0
vertex 1.92339 3.99853 0
endloop
endfacet
facet normal 0 0 -1
outer loop
vertex 3.94739 1.54429 0
vertex 3.855 1.25237 0
vertex 3.99413 1.8469 0
endloop
endfacet
facet normal 0 0 -1
outer loop
vertex 3.99413 1.8469 0
vertex 3.855 1.25237 0
vertex 3.5 1.4 0
endloop
endfacet
facet normal 0 0 -1
outer loop
vertex 3.99413 1.8469 0
vertex 3.5 1.4 0
vertex 3.99413 2.1531 0
endloop
endfacet
facet normal 0 0 -1
outer loop
vertex 3.99413 2.1531 0
vertex 3.5 1.4 0
vertex 3.5 2.6 0
endloop
endfacet
facet normal 0 0 -1
outer loop
vertex 3.99413 2.1531 0
vertex 3.5 2.6 0
vertex 3.94739 2.45571 0
endloop
endfacet
facet normal 0 0 -1
outer loop
vertex 3.94739 2.45571 0
vertex 3.5 2.6 0
vertex 3.855 2.74763 0
endloop
endfacet
facet normal 0 0 -1
outer loop
vertex 3.08714 3.67873 0
vertex 3.33065 3.49311 0
vertex 2.6 2.6 0
endloop
endfacet
facet normal 0 0 -1
outer loop
vertex 2.6 2.6 0
vertex 3.33065 3.49311 0
vertex 3.54298 3.27249 0
endloop
endfacet
facet normal 0 0 -1
outer loop
vertex 2.6 2.6 0
vertex 3.54298 3.27249 0
vertex 3.5 2.6 0
endloop
endfacet
facet normal 0 0 -1
outer loop
vertex 3.5 2.6 0
vertex 3.54298 3.27249 0
vertex 3.71914 3.02204 0
endloop
endfacet
facet normal 0 0 -1
outer loop
vertex 3.5 2.6 0
vertex 3.71914 3.02204 0
vertex 3.855 2.74763 0
endloop
endfacet
facet normal 0 0 -1
outer loop
vertex 1.61922 3.96342 0
vertex 1.92339 3.99853 0
vertex 1.32397 3.88228 0
endloop
endfacet
facet normal 0 0 -1
outer loop
vertex 1.32397 3.88228 0
vertex 1.92339 3.99853 0
vertex 1.4 3.5 0
endloop
endfacet
facet normal 0 0 -1
outer loop
vertex 1.32397 3.88228 0
vertex 1.4 3.5 0
vertex 1.04456 3.75702 0
endloop
endfacet
facet normal 0 0 -1
outer loop
vertex 1.04456 3.75702 0
vertex 1.4 3.5 0
vertex 0.787549 3.59059 0
endloop
endfacet
facet normal -0.973695 0.227853 0
outer loop
vertex 0.0234393 2.3053 0
vertex 0.0234393 2.3053 3
vertex 0.0932073 2.60344 0
endloop
endfacet
facet normal -0.973695 0.227853 0
outer loop
vertex 0.0932073 2.60344 0
vertex 0.0234393 2.3053 3
vertex 0.0932073 2.60344 3
endloop
endfacet
facet normal -0.927503 0.373817 0
outer loop
vertex 0.0932073 2.60344 0
vertex 0.0932073 2.60344 3
vertex 0.207669 2.88744 0
endloop
endfacet
facet normal -0.927503 0.373817 0
outer loop
vertex 0.207669 2.88744 0
vertex 0.0932073 2.60344 3
vertex 0.207669 2.88744 3
endloop
endfacet
facet normal -0.859569 0.511019 0
outer loop
vertex 0.207669 2.88744 0
vertex 0.207669 2.88744 3
vertex 0.364141 3.15064 0
endloop
endfacet
facet normal -0.859569 0.511019 0
outer loop
vertex 0.364141 3.15064 0
vertex 0.207669 2.88744 3
vertex 0.364141 3.15064 3
endloop
endfacet
facet normal -0.77149 0.636242 0
outer loop
vertex 0.364141 3.15064 0
vertex 0.364141 3.15064 3
vertex 0.558957 3.38687 0
endloop
endfacet
facet normal -0.77149 0.636242 0
outer loop
vertex 0.558957 3.38687 0
vertex 0.364141 3.15064 3
vertex 0.558957 3.38687 3
endloop
endfacet
facet normal -0.665325 0.746554 0
outer loop
vertex 0.558957 3.38687 0
vertex 0.558957 3.38687 3
vertex 0.787549 3.59059 0
endloop
endfacet
facet normal -0.665325 0.746554 0
outer loop
vertex 0.787549 3.59059 0
vertex 0.558957 3.38687 3
vertex 0.787549 3.59059 3
endloop
endfacet
facet normal -0.543568 0.839365 0
outer loop
vertex 0.787549 3.59059 0
vertex 0.787549 3.59059 3
vertex 1.04456 3.75702 0
endloop
endfacet
facet normal -0.543568 0.839365 0
outer loop
vertex 1.04456 3.75702 0
vertex 0.787549 3.59059 3
vertex 1.04456 3.75702 3
endloop
endfacet
facet normal -0.409068 0.912504 0
outer loop
vertex 1.04456 3.75702 0
vertex 1.04456 3.75702 3
vertex 1.32397 3.88228 0
endloop
endfacet
facet normal -0.409068 0.912504 0
outer loop
vertex 1.32397 3.88228 0
vertex 1.04456 3.75702 3
vertex 1.32397 3.88228 3
endloop
endfacet
facet normal -0.26498 0.964254 0
outer loop
vertex 1.32397 3.88228 0
vertex 1.32397 3.88228 3
vertex 1.61922 3.96342 0
endloop
endfacet
facet normal -0.26498 0.964254 0
outer loop
vertex 1.61922 3.96342 0
vertex 1.32397 3.88228 3
vertex 1.61922 3.96342 3
endloop
endfacet
facet normal -0.114685 0.993402 0
outer loop
vertex 1.61922 3.96342 0
vertex 1.61922 3.96342 3
vertex 1.92339 3.99853 0
endloop
endfacet
facet normal -0.114685 0.993402 0
outer loop
vertex 1.92339 3.99853 0
vertex 1.61922 3.96342 3
vertex 1.92339 3.99853 3
endloop
endfacet
facet normal 0.0383031 0.999266 0
outer loop
vertex 1.92339 3.99853 0
vertex 1.92339 3.99853 3
vertex 2.22937 3.9868 0
endloop
endfacet
facet normal 0.0383031 0.999266 0
outer loop
vertex 2.22937 3.9868 0
vertex 1.92339 3.99853 3
vertex 2.22937 3.9868 3
endloop
endfacet
facet normal 0.19039 0.981708 0
outer loop
vertex 2.22937 3.9868 0
vertex 2.22937 3.9868 3
vertex 2.52996 3.92851 0
endloop
endfacet
facet normal 0.19039 0.981708 0
outer loop
vertex 2.52996 3.92851 0
vertex 2.22937 3.9868 3
vertex 2.52996 3.92851 3
endloop
endfacet
facet normal 0.338017 0.94114 0
outer loop
vertex 2.52996 3.92851 0
vertex 2.52996 3.92851 3
vertex 2.81814 3.82501 0
endloop
endfacet
facet normal 0.338017 0.94114 0
outer loop
vertex 2.81814 3.82501 0
vertex 2.52996 3.92851 3
vertex 2.81814 3.82501 3
endloop
endfacet
facet normal 0.47772 0.878512 0
outer loop
vertex 2.81814 3.82501 0
vertex 2.81814 3.82501 3
vertex 3.08714 3.67873 0
endloop
endfacet
facet normal 0.47772 0.878512 0
outer loop
vertex 3.08714 3.67873 0
vertex 2.81814 3.82501 3
vertex 3.08714 3.67873 3
endloop
endfacet
facet normal 0.606226 0.795293 0
outer loop
vertex 3.08714 3.67873 0
vertex 3.08714 3.67873 3
vertex 3.33065 3.49311 0
endloop
endfacet
facet normal 0.606226 0.795293 0
outer loop
vertex 3.33065 3.49311 0
vertex 3.08714 3.67873 3
vertex 3.33065 3.49311 3
endloop
endfacet
facet normal 0.720522 0.693433 0
outer loop
vertex 3.33065 3.49311 0
vertex 3.33065 3.49311 3
vertex 3.54298 3.27249 0
endloop
endfacet
facet normal 0.720522 0.693433 0
outer loop
vertex 3.54298 3.27249 0
vertex 3.33065 3.49311 3
vertex 3.54298 3.27249 3
endloop
endfacet
facet normal 0.817929 0.575319 0
outer loop
vertex 3.54298 3.27249 0
vertex 3.54298 3.27249 3
vertex 3.71914 3.02204 0
endloop
endfacet
facet normal 0.817929 0.575319 0
outer loop
vertex 3.71914 3.02204 0
vertex 3.54298 3.27249 3
vertex 3.71914 3.02204 3
endloop
endfacet
facet normal 0.896166 0.443719 0
outer loop
vertex 3.71914 3.02204 0
vertex 3.71914 3.02204 3
vertex 3.855 2.74763 0
endloop
endfacet
facet normal 0.896166 0.443719 0
outer loop
vertex 3.855 2.74763 0
vertex 3.71914 3.02204 3
vertex 3.855 2.74763 3
endloop
endfacet
facet normal 0.953396 0.301722 0
outer loop
vertex 3.855 2.74763 0
vertex 3.855 2.74763 3
vertex 3.94739 2.45571 0
endloop
endfacet
facet normal 0.953396 0.301722 0
outer loop
vertex 3.94739 2.45571 0
vertex 3.855 2.74763 3
vertex 3.94739 2.45571 3
endloop
endfacet
facet normal 0.988281 0.152648 0
outer loop
vertex 3.94739 2.45571 0
vertex 3.94739 2.45571 3
vertex 3.99413 2.1531 0
endloop
endfacet
facet normal 0.988281 0.152648 0
outer loop
vertex 3.99413 2.1531 0
vertex 3.94739 2.45571 3
vertex 3.99413 2.1531 3
endloop
endfacet
facet normal 1 0 0
outer loop
vertex 3.99413 2.1531 0
vertex 3.99413 2.1531 3
vertex 3.99413 1.8469 0
endloop
endfacet
facet normal 1 0 0
outer loop
vertex 3.99413 1.8469 0
vertex 3.99413 2.1531 3
vertex 3.99413 1.8469 3
endloop
endfacet
facet normal 0.988281 -0.152648 0
outer loop
vertex 3.99413 1.8469 0
vertex 3.99413 1.8469 3
vertex 3.94739 1.54429 0
endloop
endfacet
facet normal 0.988281 -0.152648 0
outer loop
vertex 3.94739 1.54429 0
vertex 3.99413 1.8469 3
vertex 3.94739 1.54429 3
endloop
endfacet
facet normal 0.953396 -0.301722 0
outer loop
vertex 3.94739 1.54429 0
vertex 3.94739 1.54429 3
vertex 3.855 1.25237 0
endloop
endfacet
facet normal 0.953396 -0.301722 0
outer loop
vertex 3.855 1.25237 0
vertex 3.94739 1.54429 3
vertex 3.855 1.25237 3
endloop
endfacet
facet normal 0.896166 -0.443719 0
outer loop
vertex 3.855 1.25237 0
vertex 3.855 1.25237 3
vertex 3.71914 0.977963 0
endloop
endfacet
facet normal 0.896166 -0.443719 0
outer loop
vertex 3.71914 0.977963 0
vertex 3.855 1.25237 3
vertex 3.71914 0.977963 3
endloop
endfacet
facet normal 0.817929 -0.575319 0
outer loop
vertex 3.71914 0.977963 0
vertex 3.71914 0.977963 3
vertex 3.54298 0.727515 0
endloop
endfacet
facet normal 0.817929 -0.575319 0
outer loop
vertex 3.54298 0.727515 0
vertex 3.71914 0.977963 3
vertex 3.54298 0.727515 3
endloop
endfacet
facet normal 0.720522 -0.693432 0
outer loop
vertex 3.54298 0.727515 0
vertex 3.54298 0.727515 3
vertex 3.33065 0.506894 0
endloop
endfacet
facet normal 0.720522 -0.693432 0
outer loop
vertex 3.33065 0.506894 0
vertex 3.54298 0.727515 3
vertex 3.33065 0.506894 3
endloop
endfacet
facet normal 0.606225 -0.795293 0
outer loop
vertex 3.33065 0.506894 0
vertex 3.33065 0.506894 3
vertex 3.08714 0.321269 0
endloop
endfacet
facet normal 0.606225 -0.795293 0
outer loop
vertex 3.08714 0.321269 0
vertex 3.33065 0.506894 3
vertex 3.08714 0.321269 3
endloop
endfacet
facet normal 0.47772 -0.878512 0
outer loop
vertex 3.08714 0.321269 0
vertex 3.08714 0.321269 3
vertex 2.81814 0.174993 0
endloop
endfacet
facet normal 0.47772 -0.878512 0
outer loop
vertex 2.81814 0.174993 0
vertex 3.08714 0.321269 3
vertex 2.81814 0.174993 3
endloop
endfacet
facet normal 0.338017 -0.94114 0
outer loop
vertex 2.81814 0.174993 0
vertex 2.81814 0.174993 3
vertex 2.52996 0.0714931 0
endloop
endfacet
facet normal 0.338017 -0.94114 0
outer loop
vertex 2.52996 0.0714931 0
vertex 2.81814 0.174993 3
vertex 2.52996 0.0714931 3
endloop
endfacet
facet normal 0.190391 -0.981708 0
outer loop
vertex 2.52996 0.0714931 0
vertex 2.52996 0.0714931 3
vertex 2.22937 0.0131959 0
endloop
endfacet
facet normal 0.190391 -0.981708 0
outer loop
vertex 2.22937 0.0131959 0
vertex 2.52996 0.0714931 3
vertex 2.22937 0.0131959 3
endloop
endfacet
facet normal 0.0383026 -0.999266 0
outer loop
vertex 2.22937 0.0131959 0
vertex 2.22937 0.0131959 3
vertex 1.92339 0.00146776 0
endloop
endfacet
facet normal 0.0383026 -0.999266 0
outer loop
vertex 1.92339 0.00146776 0
vertex 2.22937 0.0131959 3
vertex 1.92339 0.00146776 3
endloop
endfacet
facet normal -0.114683 -0.993402 0
outer loop
vertex 1.92339 0.00146776 0
vertex 1.92339 0.00146776 3
vertex 1.61922 0.0365835 0
endloop
endfacet
facet normal -0.114683 -0.993402 0
outer loop
vertex 1.61922 0.0365835 0
vertex 1.92339 0.00146776 3
vertex 1.61922 0.0365835 3
endloop
endfacet
facet normal -0.264981 -0.964254 0
outer loop
vertex 1.61922 0.0365835 0
vertex 1.61922 0.0365835 3
vertex 1.32397 0.11772 0
endloop
endfacet
facet normal -0.264981 -0.964254 0
outer loop
vertex 1.32397 0.11772 0
vertex 1.61922 0.0365835 3
vertex 1.32397 0.11772 3
endloop
endfacet
facet normal -0.409069 -0.912504 0
outer loop
vertex 1.32397 0.11772 0
vertex 1.32397 0.11772 3
vertex 1.04456 0.242976 0
endloop
endfacet
facet normal -0.409069 -0.912504 0
outer loop
vertex 1.04456 0.242976 0
vertex 1.32397 0.11772 3
vertex 1.04456 0.242976 3
endloop
endfacet
facet normal -0.543568 -0.839365 0
outer loop
vertex 1.04456 0.242976 0
vertex 1.04456 0.242976 3
vertex 0.787549 0.409414 0
endloop
endfacet
facet normal -0.543568 -0.839365 0
outer loop
vertex 0.787549 0.409414 0
vertex 1.04456 0.242976 3
vertex 0.787549 0.409414 3
endloop
endfacet
facet normal -0.665325 -0.746554 0
outer loop
vertex 0.787549 0.409414 0
vertex 0.787549 0.409414 3
vertex 0.558957 0.613135 0
endloop
endfacet
facet normal -0.665325 -0.746554 0
outer loop
vertex 0.558957 0.613135 0
vertex 0.787549 0.409414 3
vertex 0.558957 0.613135 3
endloop
endfacet
facet normal -0.771489 -0.636242 0
outer loop
vertex 0.558957 0.613135 0
vertex 0.558957 0.613135 3
vertex 0.364141 0.849363 0
endloop
endfacet
facet normal -0.771489 -0.636242 0
outer loop
vertex 0.364141 0.849363 0
vertex 0.558957 0.613135 3
vertex 0.364141 0.849363 3
endloop
endfacet
facet normal -0.859569 -0.511019 0
outer loop
vertex 0.364141 0.849363 0
vertex 0.364141 0.849363 3
vertex 0.207669 1.11256 0
endloop
endfacet
facet normal -0.859569 -0.511019 0
outer loop
vertex 0.207669 1.11256 0
vertex 0.364141 0.849363 3
vertex 0.207669 1.11256 3
endloop
endfacet
facet normal -0.927503 -0.373817 0
outer loop
vertex 0.207669 1.11256 0
vertex 0.207669 1.11256 3
vertex 0.0932073 1.39656 0
endloop
endfacet
facet normal -0.927503 -0.373817 0
outer loop
vertex 0.0932073 1.39656 0
vertex 0.207669 1.11256 3
vertex 0.0932073 1.39656 3
endloop
endfacet
facet normal -0.973695 -0.227854 0
outer loop
vertex 0.0932073 1.39656 0
vertex 0.0932073 1.39656 3
vertex 0.0234393 1.6947 0
endloop
endfacet
facet normal -0.973695 -0.227854 0
outer loop
vertex 0.0234393 1.6947 0
vertex 0.0932073 1.39656 3
vertex 0.0234393 1.6947 3
endloop
endfacet
facet normal -0.997066 -0.0765497 0
outer loop
vertex 0.0234393 1.6947 0
vertex 0.0234393 1.6947 3
vertex 0 2 0
endloop
endfacet
facet normal -0.997066 -0.0765497 0
outer loop
vertex 0 2 0
vertex 0.0234393 1.6947 3
vertex 0 2 3
endloop
endfacet
facet normal -0.997066 0.0765497 0
outer loop
vertex 0 2 0
vertex 0 2 3
vertex 0.0234393 2.3053 0
endloop
endfacet
facet normal -0.997066 0.0765497 0
outer loop
vertex 0.0234393 2.3053 0
vertex 0 2 3
vertex 0.0234393 2.3053 3
endloop
endfacet
facet normal 0 0 1
outer loop
vertex 1.87298 1.0081 3
vertex 1.92339 0.00146776 3
vertex 2.04244 1.0009 3
endloop
endfacet
facet normal 0 0 1
outer loop
vertex 2.04244 1.0009 3
vertex 1.92339 0.00146776 3
vertex 2.22937 0.0131959 3
endloop
endfacet
facet normal 0 0 1
outer loop
vertex 2.04244 1.0009 3
vertex 2.22937 0.0131959 3
vertex 2.21068 1.02244 3
endloop
endfacet
facet normal 0 0 1
outer loop
vertex 2.21068 1.02244 3
vertex 2.22937 0.0131959 3
vertex 2.52996 0.0714931 3
endloop
endfacet
facet normal 0 0 1
outer loop
vertex 2.21068 1.02244 3
vertex 2.52996 0.0714931 3
vertex 2.37286 1.07211 3
endloop
endfacet
facet normal 0 0 1
outer loop
vertex 2.37286 1.07211 3
vertex 2.52996 0.0714931 3
vertex 2.81814 0.174993 3
endloop
endfacet
facet normal 0 0 1
outer loop
vertex 2.37286 1.07211 3
vertex 2.81814 0.174993 3
vertex 2.52431 1.14847 3
endloop
endfacet
facet normal 0 0 1
outer loop
vertex 2.52431 1.14847 3
vertex 2.81814 0.174993 3
vertex 3.08714 0.321269 3
endloop
endfacet
facet normal 0 0 1
outer loop
vertex 2.52431 1.14847 3
vertex 3.08714 0.321269 3
vertex 2.66067 1.24933 3
endloop
endfacet
facet normal 0 0 1
outer loop
vertex 2.66067 1.24933 3
vertex 3.08714 0.321269 3
vertex 3.33065 0.506894 3
endloop
endfacet
facet normal 0 0 1
outer loop
vertex 2.66067 1.24933 3
vertex 3.33065 0.506894 3
vertex 2.77804 1.37178 3
endloop
endfacet
facet normal 0 0 1
outer loop
vertex 2.77804 1.37178 3
vertex 3.33065 0.506894 3
vertex 3.54298 0.727515 3
endloop
endfacet
facet normal 0 0 1
outer loop
vertex 2.77804 1.37178 3
vertex 3.54298 0.727515 3
vertex 2.87301 1.51231 3
endloop
endfacet
facet normal 0 0 1
outer loop
vertex 2.87301 1.51231 3
vertex 3.54298 0.727515 3
vertex 3.71914 0.977963 3
endloop
endfacet
facet normal 0 0 1
outer loop
vertex 2.87301 1.51231 3
vertex 3.71914 0.977963 3
vertex 2.94288 1.66686 3
endloop
endfacet
facet normal 0 0 1
outer loop
vertex 2.94288 1.66686 3
vertex 3.71914 0.977963 3
vertex 3.855 1.25237 3
endloop
endfacet
facet normal 0 0 1
outer loop
vertex 2.94288 1.66686 3
vertex 3.855 1.25237 3
vertex 2.98562 1.831 3
endloop
endfacet
facet normal 0 0 1
outer loop
vertex 2.98562 1.831 3
vertex 3.855 1.25237 3
vertex 3.94739 1.54429 3
endloop
endfacet
facet normal 0 0 1
outer loop
vertex 2.98562 1.831 3
vertex 3.94739 1.54429 3
vertex 3 2 3
endloop
endfacet
facet normal 0 0 1
outer loop
vertex 1.0036 2.08481 3
vertex 0 2 3
vertex 1.0036 1.91519 3
endloop
endfacet
facet normal 0 0 1
outer loop
vertex 1.0036 1.91519 3
vertex 0 2 3
vertex 0.0234393 1.6947 3
endloop
endfacet
facet normal 0 0 1
outer loop
vertex 1.0036 1.91519 3
vertex 0.0234393 1.6947 3
vertex 1.03227 1.74802 3
endloop
endfacet
facet normal 0 0 1
outer loop
vertex 1.03227 1.74802 3
vertex 0.0234393 1.6947 3
vertex 0.0932073 1.39656 3
endloop
endfacet
facet normal 0 0 1
outer loop
vertex 1.03227 1.74802 3
vertex 0.0932073 1.39656 3
vertex 1.08877 1.5881 3
endloop
endfacet
facet normal 0 0 1
outer loop
vertex 1.08877 1.5881 3
vertex 0.0932073 1.39656 3
vertex 0.207669 1.11256 3
endloop
endfacet
facet normal 0 0 1
outer loop
vertex 1.08877 1.5881 3
vertex 0.207669 1.11256 3
vertex 1.17149 1.44003 3
endloop
endfacet
facet normal 0 0 1
outer loop
vertex 1.17149 1.44003 3
vertex 0.207669 1.11256 3
vertex 0.364141 0.849363 3
endloop
endfacet
facet normal 0 0 1
outer loop
vertex 1.17149 1.44003 3
vertex 0.364141 0.849363 3
vertex 1.27804 1.30806 3
endloop
endfacet
facet normal 0 0 1
outer loop
vertex 1.27804 1.30806 3
vertex 0.364141 0.849363 3
vertex 0.558957 0.613135 3
endloop
endfacet
facet normal 0 0 1
outer loop
vertex 1.27804 1.30806 3
vertex 0.558957 0.613135 3
vertex 1.40537 1.196 3
endloop
endfacet
facet normal 0 0 1
outer loop
vertex 1.40537 1.196 3
vertex 0.558957 0.613135 3
vertex 0.787549 0.409414 3
endloop
endfacet
facet normal 0 0 1
outer loop
vertex 1.40537 1.196 3
vertex 0.787549 0.409414 3
vertex 1.5498 1.10707 3
endloop
endfacet
facet normal 0 0 1
outer loop
vertex 1.5498 1.10707 3
vertex 0.787549 0.409414 3
vertex 1.04456 0.242976 3
endloop
endfacet
facet normal 0 0 1
outer loop
vertex 1.5498 1.10707 3
vertex 1.04456 0.242976 3
vertex 1.70718 1.04383 3
endloop
endfacet
facet normal 0 0 1
outer loop
vertex 1.70718 1.04383 3
vertex 1.04456 0.242976 3
vertex 1.32397 0.11772 3
endloop
endfacet
facet normal 0 0 1
outer loop
vertex 1.70718 1.04383 3
vertex 1.32397 0.11772 3
vertex 1.87298 1.0081 3
endloop
endfacet
facet normal 0 0 1
outer loop
vertex 1.87298 1.0081 3
vertex 1.32397 0.11772 3
vertex 1.61922 0.0365835 3
endloop
endfacet
facet normal 0 0 1
outer loop
vertex 1.87298 1.0081 3
vertex 1.61922 0.0365835 3
vertex 1.92339 0.00146776 3
endloop
endfacet
facet normal 0 0 1
outer loop
vertex 2.04244 2.9991 3
vertex 1.92339 3.99853 3
vertex 1.87298 2.9919 3
endloop
endfacet
facet normal 0 0 1
outer loop
vertex 1.87298 2.9919 3
vertex 1.92339 3.99853 3
vertex 1.61922 3.96342 3
endloop
endfacet
facet normal 0 0 1
outer loop
vertex 1.87298 2.9919 3
vertex 1.61922 3.96342 3
vertex 1.70718 2.95617 3
endloop
endfacet
facet normal 0 0 1
outer loop
vertex 1.70718 2.95617 3
vertex 1.61922 3.96342 3
vertex 1.32397 3.88228 3
endloop
endfacet
facet normal 0 0 1
outer loop
vertex 1.70718 2.95617 3
vertex 1.32397 3.88228 3
vertex 1.5498 2.89293 3
endloop
endfacet
facet normal 0 0 1
outer loop
vertex 1.5498 2.89293 3
vertex 1.32397 3.88228 3
vertex 1.04456 3.75702 3
endloop
endfacet
facet normal 0 0 1
outer loop
vertex 1.5498 2.89293 3
vertex 1.04456 3.75702 3
vertex 1.40537 2.804 3
endloop
endfacet
facet normal 0 0 1
outer loop
vertex 1.40537 2.804 3
vertex 1.04456 3.75702 3
vertex 0.787549 3.59059 3
endloop
endfacet
facet normal 0 0 1
outer loop
vertex 1.40537 2.804 3
vertex 0.787549 3.59059 3
vertex 1.27804 2.69194 3
endloop
endfacet
facet normal 0 0 1
outer loop
vertex 1.27804 2.69194 3
vertex 0.787549 3.59059 3
vertex 0.558957 3.38687 3
endloop
endfacet
facet normal 0 0 1
outer loop
vertex 1.27804 2.69194 3
vertex 0.558957 3.38687 3
vertex 1.17149 2.55997 3
endloop
endfacet
facet normal 0 0 1
outer loop
vertex 1.17149 2.55997 3
vertex 0.558957 3.38687 3
vertex 0.364141 3.15064 3
endloop
endfacet
facet normal 0 0 1
outer loop
vertex 1.17149 2.55997 3
vertex 0.364141 3.15064 3
vertex 1.08877 2.4119 3
endloop
endfacet
facet normal 0 0 1
outer loop
vertex 1.08877 2.4119 3
vertex 0.364141 3.15064 3
vertex 0.207669 2.88744 3
endloop
endfacet
facet normal 0 0 1
outer loop
vertex 1.08877 2.4119 3
vertex 0.207669 2.88744 3
vertex 1.03227 2.25198 3
endloop
endfacet
facet normal 0 0 1
outer loop
vertex 1.03227 2.25198 3
vertex 0.207669 2.88744 3
vertex 0.0932073 2.60344 3
endloop
endfacet
facet normal 0 0 1
outer loop
vertex 1.03227 2.25198 3
vertex 0.0932073 2.60344 3
vertex 1.0036 2.08481 3
endloop
endfacet
facet normal 0 0 1
outer loop
vertex 1.0036 2.08481 3
vertex 0.0932073 2.60344 3
vertex 0.0234393 2.3053 3
endloop
endfacet
facet normal 0 0 1
outer loop
vertex 1.0036 2.08481 3
vertex 0.0234393 2.3053 3
vertex 0 2 3
endloop
endfacet
facet normal 0 0 1
outer loop
vertex 3.94739 1.54429 3
vertex 3.99413 1.8469 3
vertex 3 2 3
endloop
endfacet
facet normal 0 0 1
outer loop
vertex 3 2 3
vertex 3.99413 1.8469 3
vertex 3.99413 2.1531 3
endloop
endfacet
facet normal 0 0 1
outer loop
vertex 3 2 3
vertex 3.99413 2.1531 3
vertex 2.98562 2.169 3
endloop
endfacet
facet normal 0 0 1
outer loop
vertex 2.98562 2.169 3
vertex 3.99413 2.1531 3
vertex 3.94739 2.45571 3
endloop
endfacet
facet normal 0 0 1
outer loop
vertex 2.98562 2.169 3
vertex 3.94739 2.45571 3
vertex 2.94288 2.33314 3
endloop
endfacet
facet normal 0 0 1
outer loop
vertex 2.94288 2.33314 3
vertex 3.94739 2.45571 3
vertex 3.855 2.74763 3
endloop
endfacet
facet normal 0 0 1
outer loop
vertex 2.94288 2.33314 3
vertex 3.855 2.74763 3
vertex 2.87301 2.48769 3
endloop
endfacet
facet normal 0 0 1
outer loop
vertex 2.87301 2.48769 3
vertex 3.855 2.74763 3
vertex 3.71914 3.02204 3
endloop
endfacet
facet normal 0 0 1
outer loop
vertex 2.87301 2.48769 3
vertex 3.71914 3.02204 3
vertex 2.77804 2.62822 3
endloop
endfacet
facet normal 0 0 1
outer loop
vertex 2.77804 2.62822 3
vertex 3.71914 3.02204 3
vertex 3.54298 3.27249 3
endloop
endfacet
facet normal 0 0 1
outer loop
vertex 2.77804 2.62822 3
vertex 3.54298 3.27249 3
vertex 2.66067 2.75067 3
endloop
endfacet
facet normal 0 0 1
outer loop
vertex 2.66067 2.75067 3
vertex 3.54298 3.27249 3
vertex 3.33065 3.49311 3
endloop
endfacet
facet normal 0 0 1
outer loop
vertex 2.66067 2.75067 3
vertex 3.33065 3.49311 3
vertex 2.52431 2.85153 3
endloop
endfacet
facet normal 0 0 1
outer loop
vertex 2.52431 2.85153 3
vertex 3.33065 3.49311 3
vertex 3.08714 3.67873 3
endloop
endfacet
facet normal 0 0 1
outer loop
vertex 2.52431 2.85153 3
vertex 3.08714 3.67873 3
vertex 2.37286 2.92789 3
endloop
endfacet
facet normal 0 0 1
outer loop
vertex 2.37286 2.92789 3
vertex 3.08714 3.67873 3
vertex 2.81814 3.82501 3
endloop
endfacet
facet normal 0 0 1
outer loop
vertex 2.37286 2.92789 3
vertex 2.81814 3.82501 3
vertex 2.21068 2.97756 3
endloop
endfacet
facet normal 0 0 1
outer loop
vertex 2.21068 2.97756 3
vertex 2.81814 3.82501 3
vertex 2.52996 3.92851 3
endloop
endfacet
facet normal 0 0 1
outer loop
vertex 2.21068 2.97756 3
vertex 2.52996 3.92851 3
vertex 2.04244 2.9991 3
endloop
endfacet
facet normal 0 0 1
outer loop
vertex 2.04244 2.9991 3
vertex 2.52996 3.92851 3
vertex 2.22937 3.9868 3
endloop
endfacet
facet normal 0 0 1
outer loop
vertex 2.04244 2.9991 3
vertex 2.22937 3.9868 3
vertex 1.92339 3.99853 3
endloop
endfacet
facet normal 0 0 1
outer loop
vertex 1.17149 2.55997 11
vertex 1.08877 2.4119 11
vertex 1.03227 2.25198 11
endloop
endfacet
facet normal 0 0 1
outer loop
vertex 2.21068 2.97756 11
vertex 2.04244 2.9991 11
vertex 2.37286 2.92789 11
endloop
endfacet
facet normal 0 0 1
outer loop
vertex 2.37286 2.92789 11
vertex 2.04244 2.9991 11
vertex 1.87298 2.9919 11
endloop
endfacet
facet normal 0 0 1
outer loop
vertex 2.37286 2.92789 11
vertex 1.87298 2.9919 11
vertex 2.52431 2.85153 11
endloop
endfacet
facet normal 0 0 1
outer loop
vertex 2.52431 2.85153 11
vertex 1.87298 2.9919 11
vertex 1.70718 2.95617 11
endloop
endfacet
facet normal 0 0 1
outer loop
vertex 2.52431 2.85153 11
vertex 1.70718 2.95617 11
vertex 2.52431 1.14847 11
endloop
endfacet
facet normal 0 0 1
outer loop
vertex 1.70718 2.95617 11
vertex 1.5498 2.89293 11
vertex 2.52431 1.14847 11
endloop
endfacet
facet normal 0 0 1
outer loop
vertex 2.52431 1.14847 11
vertex 1.5498 2.89293 11
vertex 1.40537 2.804 11
endloop
endfacet
facet normal 0 0 1
outer loop
vertex 2.52431 1.14847 11
vertex 1.40537 2.804 11
vertex 1.27804 2.69194 11
endloop
endfacet
facet normal 0 0 1
outer loop
vertex 1.70718 1.04383 11
vertex 1.87298 1.0081 11
vertex 1.03227 2.25198 11
endloop
endfacet
facet normal 0 0 1
outer loop
vertex 1.03227 2.25198 11
vertex 1.87298 1.0081 11
vertex 2.04244 1.0009 11
endloop
endfacet
facet normal 0 0 1
outer loop
vertex 2.94288 1.66686 11
vertex 2.98562 1.831 11
vertex 2.52431 2.85153 11
endloop
endfacet
facet normal 0 0 1
outer loop
vertex 2.52431 2.85153 11
vertex 2.98562 1.831 11
vertex 3 2 11
endloop
endfacet
facet normal 0 0 1
outer loop
vertex 2.52431 2.85153 11
vertex 3 2 11
vertex 2.98562 2.169 11
endloop
endfacet
facet normal 0 0 1
outer loop
vertex 1.27804 2.69194 11
vertex 1.17149 2.55997 11
vertex 2.52431 1.14847 11
endloop
endfacet
facet normal 0 0 1
outer loop
vertex 2.52431 1.14847 11
vertex 1.17149 2.55997 11
vertex 1.03227 2.25198 11
endloop
endfacet
facet normal 0 0 1
outer loop
vertex 2.52431 1.14847 11
vertex 1.03227 2.25198 11
vertex 2.37286 1.07211 11
endloop
endfacet
facet normal 0 0 1
outer loop
vertex 2.37286 1.07211 11
vertex 1.03227 2.25198 11
vertex 2.04244 1.0009 11
endloop
endfacet
facet normal 0 0 1
outer loop
vertex 2.37286 1.07211 11
vertex 2.04244 1.0009 11
vertex 2.21068 1.02244 11
endloop
endfacet
facet normal 0 0 1
outer loop
vertex 1.03227 1.74802 11
vertex 1.08877 1.5881 11
vertex 1.0036 1.91519 11
endloop
endfacet
facet normal 0 0 1
outer loop
vertex 1.0036 1.91519 11
vertex 1.08877 1.5881 11
vertex 1.70718 1.04383 11
endloop
endfacet
facet normal 0 0 1
outer loop
vertex 1.0036 1.91519 11
vertex 1.70718 1.04383 11
vertex 1.0036 2.08481 11
endloop
endfacet
facet normal 0 0 1
outer loop
vertex 1.0036 2.08481 11
vertex 1.70718 1.04383 11
vertex 1.03227 2.25198 11
endloop
endfacet
facet normal 0 0 1
outer loop
vertex 1.5498 1.10707 11
vertex 1.70718 1.04383 11
vertex 1.40537 1.196 11
endloop
endfacet
facet normal 0 0 1
outer loop
vertex 1.40537 1.196 11
vertex 1.70718 1.04383 11
vertex 1.08877 1.5881 11
endloop
endfacet
facet normal 0 0 1
outer loop
vertex 1.40537 1.196 11
vertex 1.08877 1.5881 11
vertex 1.27804 1.30806 11
endloop
endfacet
facet normal 0 0 1
outer loop
vertex 1.27804 1.30806 11
vertex 1.08877 1.5881 11
vertex 1.17149 1.44003 11
endloop
endfacet
facet normal 0 0 1
outer loop
vertex 2.87301 1.51231 11
vertex 2.94288 1.66686 11
vertex 2.77804 1.37178 11
endloop
endfacet
facet normal 0 0 1
outer loop
vertex 2.77804 1.37178 11
vertex 2.94288 1.66686 11
vertex 2.52431 2.85153 11
endloop
endfacet
facet normal 0 0 1
outer loop
vertex 2.77804 1.37178 11
vertex 2.52431 2.85153 11
vertex 2.66067 1.24933 11
endloop
endfacet
facet normal 0 0 1
outer loop
vertex 2.66067 1.24933 11
vertex 2.52431 2.85153 11
vertex 2.52431 1.14847 11
endloop
endfacet
facet normal 0 0 1
outer loop
vertex 2.77804 2.62822 11
vertex 2.66067 2.75067 11
vertex 2.87301 2.48769 11
endloop
endfacet
facet normal 0 0 1
outer loop
vertex 2.87301 2.48769 11
vertex 2.66067 2.75067 11
vertex 2.52431 2.85153 11
endloop
endfacet
facet normal 0 0 1
outer loop
vertex 2.87301 2.48769 11
vertex 2.52431 2.85153 11
vertex 2.94288 2.33314 11
endloop
endfacet
facet normal 0 0 1
outer loop
vertex 2.94288 2.33314 11
vertex 2.52431 2.85153 11
vertex 2.98562 2.169 11
endloop
endfacet
facet normal 0.967733 0.251978 0
outer loop
vertex 2.98562 2.169 11
vertex 2.98562 2.169 3
vertex 2.94288 2.33314 11
endloop
endfacet
facet normal 0.967733 0.251978 0
outer loop
vertex 2.94288 2.33314 11
vertex 2.98562 2.169 3
vertex 2.94288 2.33314 3
endloop
endfacet
facet normal 0.911228 0.411901 0
outer loop
vertex 2.94288 2.33314 11
vertex 2.94288 2.33314 3
vertex 2.87301 2.48769 11
endloop
endfacet
facet normal 0.911228 0.411901 0
outer loop
vertex 2.87301 2.48769 11
vertex 2.94288 2.33314 3
vertex 2.87301 2.48769 3
endloop
endfacet
facet normal 0.82851 0.559975 0
outer loop
vertex 2.87301 2.48769 11
vertex 2.87301 2.48769 3
vertex 2.77804 2.62822 11
endloop
endfacet
facet normal 0.82851 0.559975 0
outer loop
vertex 2.77804 2.62822 11
vertex 2.87301 2.48769 3
vertex 2.77804 2.62822 3
endloop
endfacet
facet normal 0.721956 0.691939 0
outer loop
vertex 2.77804 2.62822 11
vertex 2.77804 2.62822 3
vertex 2.66067 2.75067 11
endloop
endfacet
facet normal 0.721956 0.691939 0
outer loop
vertex 2.66067 2.75067 11
vertex 2.77804 2.62822 3
vertex 2.66067 2.75067 3
endloop
endfacet
facet normal 0.594634 0.803996 0
outer loop
vertex 2.66067 2.75067 11
vertex 2.66067 2.75067 3
vertex 2.52431 2.85153 11
endloop
endfacet
facet normal 0.594634 0.803996 0
outer loop
vertex 2.52431 2.85153 11
vertex 2.66067 2.75067 3
vertex 2.52431 2.85153 3
endloop
endfacet
facet normal 0.450202 0.892927 0
outer loop
vertex 2.52431 2.85153 11
vertex 2.52431 2.85153 3
vertex 2.37286 2.92789 11
endloop
endfacet
facet normal 0.450202 0.892927 0
outer loop
vertex 2.37286 2.92789 11
vertex 2.52431 2.85153 3
vertex 2.37286 2.92789 3
endloop
endfacet
facet normal 0.292823 0.956167 0
outer loop
vertex 2.37286 2.92789 11
vertex 2.37286 2.92789 3
vertex 2.21068 2.97756 11
endloop
endfacet
facet normal 0.292823 0.956167 0
outer loop
vertex 2.21068 2.97756 11
vertex 2.37286 2.92789 3
vertex 2.21068 2.97756 3
endloop
endfacet
facet normal 0.127018 0.9919 0
outer loop
vertex 2.21068 2.97756 11
vertex 2.21068 2.97756 3
vertex 2.04244 2.9991 11
endloop
endfacet
facet normal 0.127018 0.9919 0
outer loop
vertex 2.04244 2.9991 11
vertex 2.21068 2.97756 3
vertex 2.04244 2.9991 3
endloop
endfacet
facet normal -0.0424414 0.999099 0
outer loop
vertex 2.04244 2.9991 11
vertex 2.04244 2.9991 3
vertex 1.87298 2.9919 11
endloop
endfacet
facet normal -0.0424414 0.999099 0
outer loop
vertex 1.87298 2.9919 11
vertex 2.04244 2.9991 3
vertex 1.87298 2.9919 3
endloop
endfacet
facet normal -0.210679 0.977555 0
outer loop
vertex 1.87298 2.9919 11
vertex 1.87298 2.9919 3
vertex 1.70718 2.95617 11
endloop
endfacet
facet normal -0.210679 0.977555 0
outer loop
vertex 1.70718 2.95617 11
vertex 1.87298 2.9919 3
vertex 1.70718 2.95617 3
endloop
endfacet
facet normal -0.372856 0.927889 0
outer loop
vertex 1.70718 2.95617 11
vertex 1.70718 2.95617 3
vertex 1.5498 2.89293 11
endloop
endfacet
facet normal -0.372856 0.927889 0
outer loop
vertex 1.5498 2.89293 11
vertex 1.70718 2.95617 3
vertex 1.5498 2.89293 3
endloop
endfacet
facet normal -0.524308 0.851529 0
outer loop
vertex 1.5498 2.89293 11
vertex 1.5498 2.89293 3
vertex 1.40537 2.804 11
endloop
endfacet
facet normal -0.524308 0.851529 0
outer loop
vertex 1.40537 2.804 11
vertex 1.5498 2.89293 3
vertex 1.40537 2.804 3
endloop
endfacet
facet normal -0.660674 0.750673 0
outer loop
vertex 1.40537 2.804 11
vertex 1.40537 2.804 3
vertex 1.27804 2.69194 11
endloop
endfacet
facet normal -0.660674 0.750673 0
outer loop
vertex 1.27804 2.69194 11
vertex 1.40537 2.804 3
vertex 1.27804 2.69194 3
endloop
endfacet
facet normal -0.778037 0.628219 0
outer loop
vertex 1.27804 2.69194 11
vertex 1.27804 2.69194 3
vertex 1.17149 2.55997 11
endloop
endfacet
facet normal -0.778037 0.628219 0
outer loop
vertex 1.17149 2.55997 11
vertex 1.27804 2.69194 3
vertex 1.17149 2.55997 3
endloop
endfacet
facet normal -0.873014 0.487695 0
outer loop
vertex 1.17149 2.55997 11
vertex 1.17149 2.55997 3
vertex 1.08877 2.4119 11
endloop
endfacet
facet normal -0.873014 0.487695 0
outer loop
vertex 1.08877 2.4119 11
vertex 1.17149 2.55997 3
vertex 1.08877 2.4119 3
endloop
endfacet
facet normal -0.942878 0.333139 0
outer loop
vertex 1.08877 2.4119 11
vertex 1.08877 2.4119 3
vertex 1.03227 2.25198 11
endloop
endfacet
facet normal -0.942878 0.333139 0
outer loop
vertex 1.03227 2.25198 11
vertex 1.08877 2.4119 3
vertex 1.03227 2.25198 3
endloop
endfacet
facet normal -0.985616 0.169002 0
outer loop
vertex 1.03227 2.25198 11
vertex 1.03227 2.25198 3
vertex 1.0036 2.08481 11
endloop
endfacet
facet normal -0.985616 0.169002 0
outer loop
vertex 1.0036 2.08481 11
vertex 1.03227 2.25198 3
vertex 1.0036 2.08481 3
endloop
endfacet
facet normal -1 0 0
outer loop
vertex 1.0036 2.08481 11
vertex 1.0036 2.08481 3
vertex 1.0036 1.91519 11
endloop
endfacet
facet normal -1 0 0
outer loop
vertex 1.0036 1.91519 11
vertex 1.0036 2.08481 3
vertex 1.0036 1.91519 3
endloop
endfacet
facet normal -0.985616 -0.169001 0
outer loop
vertex 1.0036 1.91519 11
vertex 1.0036 1.91519 3
vertex 1.03227 1.74802 11
endloop
endfacet
facet normal -0.985616 -0.169001 0
outer loop
vertex 1.03227 1.74802 11
vertex 1.0036 1.91519 3
vertex 1.03227 1.74802 3
endloop
endfacet
facet normal -0.942878 -0.333139 0
outer loop
vertex 1.03227 1.74802 11
vertex 1.03227 1.74802 3
vertex 1.08877 1.5881 11
endloop
endfacet
facet normal -0.942878 -0.333139 0
outer loop
vertex 1.08877 1.5881 11
vertex 1.03227 1.74802 3
vertex 1.08877 1.5881 3
endloop
endfacet
facet normal -0.873014 -0.487695 0
outer loop
vertex 1.08877 1.5881 11
vertex 1.08877 1.5881 3
vertex 1.17149 1.44003 11
endloop
endfacet
facet normal -0.873014 -0.487695 0
outer loop
vertex 1.17149 1.44003 11
vertex 1.08877 1.5881 3
vertex 1.17149 1.44003 3
endloop
endfacet
facet normal -0.778036 -0.62822 0
outer loop
vertex 1.17149 1.44003 11
vertex 1.17149 1.44003 3
vertex 1.27804 1.30806 11
endloop
endfacet
facet normal -0.778036 -0.62822 0
outer loop
vertex 1.27804 1.30806 11
vertex 1.17149 1.44003 3
vertex 1.27804 1.30806 3
endloop
endfacet
facet normal -0.660674 -0.750673 0
outer loop
vertex 1.27804 1.30806 11
vertex 1.27804 1.30806 3
vertex 1.40537 1.196 11
endloop
endfacet
facet normal -0.660674 -0.750673 0
outer loop
vertex 1.40537 1.196 11
vertex 1.27804 1.30806 3
vertex 1.40537 1.196 3
endloop
endfacet
facet normal -0.524307 -0.851529 0
outer loop
vertex 1.40537 1.196 11
vertex 1.40537 1.196 3
vertex 1.5498 1.10707 11
endloop
endfacet
facet normal -0.524307 -0.851529 0
outer loop
vertex 1.5498 1.10707 11
vertex 1.40537 1.196 3
vertex 1.5498 1.10707 3
endloop
endfacet
facet normal -0.372856 -0.927889 0
outer loop
vertex 1.5498 1.10707 11
vertex 1.5498 1.10707 3
vertex 1.70718 1.04383 11
endloop
endfacet
facet normal -0.372856 -0.927889 0
outer loop
vertex 1.70718 1.04383 11
vertex 1.5498 1.10707 3
vertex 1.70718 1.04383 3
endloop
endfacet
facet normal -0.210679 -0.977555 0
outer loop
vertex 1.70718 1.04383 11
vertex 1.70718 1.04383 3
vertex 1.87298 1.0081 11
endloop
endfacet
facet normal -0.210679 -0.977555 0
outer loop
vertex 1.87298 1.0081 11
vertex 1.70718 1.04383 3
vertex 1.87298 1.0081 3
endloop
endfacet
facet normal -0.0424414 -0.999099 0
outer loop
vertex 1.87298 1.0081 11
vertex 1.87298 1.0081 3
vertex 2.04244 1.0009 11
endloop
endfacet
facet normal -0.0424414 -0.999099 0
outer loop
vertex 2.04244 1.0009 11
vertex 1.87298 1.0081 3
vertex 2.04244 1.0009 3
endloop
endfacet
facet normal 0.127018 -0.9919 0
outer loop
vertex 2.04244 1.0009 11
vertex 2.04244 1.0009 3
vertex 2.21068 1.02244 11
endloop
endfacet
facet normal 0.127018 -0.9919 0
outer loop
vertex 2.21068 1.02244 11
vertex 2.04244 1.0009 3
vertex 2.21068 1.02244 3
endloop
endfacet
facet normal 0.292824 -0.956166 0
outer loop
vertex 2.21068 1.02244 11
vertex 2.21068 1.02244 3
vertex 2.37286 1.07211 11
endloop
endfacet
facet normal 0.292824 -0.956166 0
outer loop
vertex 2.37286 1.07211 11
vertex 2.21068 1.02244 3
vertex 2.37286 1.07211 3
endloop
endfacet
facet normal 0.450202 -0.892927 0
outer loop
vertex 2.37286 1.07211 11
vertex 2.37286 1.07211 3
vertex 2.52431 1.14847 11
endloop
endfacet
facet normal 0.450202 -0.892927 0
outer loop
vertex 2.52431 1.14847 11
vertex 2.37286 1.07211 3
vertex 2.52431 1.14847 3
endloop
endfacet
facet normal 0.594634 -0.803997 0
outer loop
vertex 2.52431 1.14847 11
vertex 2.52431 1.14847 3
vertex 2.66067 1.24933 11
endloop
endfacet
facet normal 0.594634 -0.803997 0
outer loop
vertex 2.66067 1.24933 11
vertex 2.52431 1.14847 3
vertex 2.66067 1.24933 3
endloop
endfacet
facet normal 0.721956 -0.691939 0
outer loop
vertex 2.66067 1.24933 11
vertex 2.66067 1.24933 3
vertex 2.77804 1.37178 11
endloop
endfacet
facet normal 0.721956 -0.691939 0
outer loop
vertex 2.77804 1.37178 11
vertex 2.66067 1.24933 3
vertex 2.77804 1.37178 3
endloop
endfacet
facet normal 0.82851 -0.559975 0
outer loop
vertex 2.77804 1.37178 11
vertex 2.77804 1.37178 3
vertex 2.87301 1.51231 11
endloop
endfacet
facet normal 0.82851 -0.559975 0
outer loop
vertex 2.87301 1.51231 11
vertex 2.77804 1.37178 3
vertex 2.87301 1.51231 3
endloop
endfacet
facet normal 0.911229 -0.411901 0
outer loop
vertex 2.87301 1.51231 11
vertex 2.87301 1.51231 3
vertex 2.94288 1.66686 11
endloop
endfacet
facet normal 0.911229 -0.411901 0
outer loop
vertex 2.94288 1.66686 11
vertex 2.87301 1.51231 3
vertex 2.94288 1.66686 3
endloop
endfacet
facet normal 0.967733 -0.251978 0
outer loop
vertex 2.94288 1.66686 11
vertex 2.94288 1.66686 3
vertex 2.98562 1.831 11
endloop
endfacet
facet normal 0.967733 -0.251978 0
outer loop
vertex 2.98562 1.831 11
vertex 2.94288 1.66686 3
vertex 2.98562 1.831 3
endloop
endfacet
facet normal 0.996398 -0.0848056 0
outer loop
vertex 2.98562 1.831 11
vertex 2.98562 1.831 3
vertex 3 2 11
endloop
endfacet
facet normal 0.996398 -0.0848056 0
outer loop
vertex 3 2 11
vertex 2.98562 1.831 3
vertex 3 2 3
endloop
endfacet
facet normal 0.996398 0.0848056 0
outer loop
vertex 3 2 11
vertex 3 2 3
vertex 2.98562 2.169 11
endloop
endfacet
facet normal 0.996398 0.0848056 0
outer loop
vertex 2.98562 2.169 11
vertex 3 2 3
vertex 2.98562 2.169 3
endloop
endfacet
endsolid
