solid C:\Temp\NOELParts\SCREW_SPACER66_TO_FLANGE202_BA000.STL created by CtrlView V2.70
facet normal -0.707106 0 0.707107
outer loop
vertex 263.397 1837 6275.36
vertex 263.397 1913 6275.36
vertex 201.879 1837 6213.84
endloop
endfacet
facet normal -0.707106 0 0.707107
outer loop
vertex 201.879 1837 6213.84
vertex 263.397 1913 6275.36
vertex 201.879 1913 6213.84
endloop
endfacet
facet normal -0.707109 0 0.707105
outer loop
vertex 86.6203 1913 6098.58
vertex 86.6203 1837 6098.58
vertex 148.139 1913 6160.1
endloop
endfacet
facet normal -0.707109 0 0.707105
outer loop
vertex 148.139 1913 6160.1
vertex 86.6203 1837 6098.58
vertex 148.139 1837 6160.1
endloop
endfacet
facet normal -0.707105 0 0.707109
outer loop
vertex 148.139 1750 6160.1
vertex 201.879 1750 6213.84
vertex 148.139 1837 6160.1
endloop
endfacet
facet normal -0.707105 0 0.707109
outer loop
vertex 148.139 1837 6160.1
vertex 201.879 1750 6213.84
vertex 201.879 1837 6213.84
endloop
endfacet
facet normal -0.707105 0 0.707109
outer loop
vertex 148.139 1837 6160.1
vertex 201.879 1837 6213.84
vertex 148.139 1913 6160.1
endloop
endfacet
facet normal -0.707105 0 0.707109
outer loop
vertex 148.139 1913 6160.1
vertex 201.879 1837 6213.84
vertex 201.879 1913 6213.84
endloop
endfacet
facet normal -0.707105 0 0.707109
outer loop
vertex 148.139 1913 6160.1
vertex 201.879 1913 6213.84
vertex 148.139 2000 6160.1
endloop
endfacet
facet normal -0.707105 0 0.707109
outer loop
vertex 148.139 2000 6160.1
vertex 201.879 1913 6213.84
vertex 201.879 2000 6213.84
endloop
endfacet
facet normal 0 -1 0
outer loop
vertex 201.879 2000 6213.84
vertex 159.452 2000 6256.27
vertex 148.139 2000 6160.1
endloop
endfacet
facet normal 0 -1 0
outer loop
vertex 148.139 2000 6160.1
vertex 159.452 2000 6256.27
vertex 105.712 2000 6202.53
endloop
endfacet
facet normal -0.707104 0 -0.707109
outer loop
vertex 201.879 1913 6213.84
vertex 159.452 1913 6256.27
vertex 201.879 2000 6213.84
endloop
endfacet
facet normal -0.707104 0 -0.707109
outer loop
vertex 201.879 2000 6213.84
vertex 159.452 1913 6256.27
vertex 159.452 2000 6256.27
endloop
endfacet
facet normal 0 -1 0
outer loop
vertex 263.397 1913 6275.36
vertex 220.971 1913 6317.79
vertex 201.879 1913 6213.84
endloop
endfacet
facet normal 0 -1 0
outer loop
vertex 201.879 1913 6213.84
vertex 220.971 1913 6317.79
vertex 159.452 1913 6256.27
endloop
endfacet
facet normal -0.707104 0 -0.707109
outer loop
vertex 263.397 1837 6275.36
vertex 220.971 1837 6317.79
vertex 263.397 1913 6275.36
endloop
endfacet
facet normal -0.707104 0 -0.707109
outer loop
vertex 263.397 1913 6275.36
vertex 220.971 1837 6317.79
vertex 220.971 1913 6317.79
endloop
endfacet
facet normal 0 1 0
outer loop
vertex 201.879 1837 6213.84
vertex 159.452 1837 6256.27
vertex 263.397 1837 6275.36
endloop
endfacet
facet normal 0 1 0
outer loop
vertex 263.397 1837 6275.36
vertex 159.452 1837 6256.27
vertex 220.971 1837 6317.79
endloop
endfacet
facet normal -0.707104 0 -0.707109
outer loop
vertex 201.879 1750 6213.84
vertex 159.452 1750 6256.27
vertex 201.879 1837 6213.84
endloop
endfacet
facet normal -0.707104 0 -0.707109
outer loop
vertex 201.879 1837 6213.84
vertex 159.452 1750 6256.27
vertex 159.452 1837 6256.27
endloop
endfacet
facet normal 0 1 0
outer loop
vertex 148.139 1750 6160.1
vertex 105.712 1750 6202.53
vertex 201.879 1750 6213.84
endloop
endfacet
facet normal 0 1 0
outer loop
vertex 201.879 1750 6213.84
vertex 105.712 1750 6202.53
vertex 159.452 1750 6256.27
endloop
endfacet
facet normal 0.707108 0 0.707105
outer loop
vertex 148.139 1837 6160.1
vertex 105.712 1837 6202.53
vertex 148.139 1750 6160.1
endloop
endfacet
facet normal 0.707108 0 0.707105
outer loop
vertex 148.139 1750 6160.1
vertex 105.712 1837 6202.53
vertex 105.712 1750 6202.53
endloop
endfacet
facet normal 0 1 0
outer loop
vertex 86.6203 1837 6098.58
vertex 44.1942 1837 6141.01
vertex 148.139 1837 6160.1
endloop
endfacet
facet normal 0 1 0
outer loop
vertex 148.139 1837 6160.1
vertex 44.1942 1837 6141.01
vertex 105.712 1837 6202.53
endloop
endfacet
facet normal 0.707112 0 0.707101
outer loop
vertex 86.6203 1913 6098.58
vertex 44.1942 1913 6141.01
vertex 86.6203 1837 6098.58
endloop
endfacet
facet normal 0.707112 0 0.707101
outer loop
vertex 86.6203 1837 6098.58
vertex 44.1942 1913 6141.01
vertex 44.1942 1837 6141.01
endloop
endfacet
facet normal 0 -1 0
outer loop
vertex 148.139 1913 6160.1
vertex 105.712 1913 6202.53
vertex 86.6203 1913 6098.58
endloop
endfacet
facet normal 0 -1 0
outer loop
vertex 86.6203 1913 6098.58
vertex 105.712 1913 6202.53
vertex 44.1942 1913 6141.01
endloop
endfacet
facet normal 0.707108 0 0.707105
outer loop
vertex 148.139 2000 6160.1
vertex 105.712 2000 6202.53
vertex 148.139 1913 6160.1
endloop
endfacet
facet normal 0.707108 0 0.707105
outer loop
vertex 148.139 1913 6160.1
vertex 105.712 2000 6202.53
vertex 105.712 1913 6202.53
endloop
endfacet
facet normal -0.707105 0 0.707109
outer loop
vertex 159.452 1913 6256.27
vertex 215.246 2021.59 6312.06
vertex 159.452 2000 6256.27
endloop
endfacet
facet normal -0.707102 -1.66462e-005 0.707112
outer loop
vertex 159.452 2000 6256.27
vertex 215.246 2021.59 6312.06
vertex 198.874 2037.38 6295.69
endloop
endfacet
facet normal -0.707111 2.94602e-006 0.707103
outer loop
vertex 159.452 2000 6256.27
vertex 198.874 2037.38 6295.69
vertex 181.02 2049.54 6277.84
endloop
endfacet
facet normal -0.707106 4.90655e-006 0.707107
outer loop
vertex 159.452 1837 6256.27
vertex 242.127 1769.38 6338.94
vertex 220.971 1837 6317.79
endloop
endfacet
facet normal -0.7071 8.70156e-006 0.707114
outer loop
vertex 220.971 1837 6317.79
vertex 242.127 1769.38 6338.94
vertex 252.035 1793.65 6348.85
endloop
endfacet
facet normal -0.707112 -8.32764e-006 0.707102
outer loop
vertex 220.971 1837 6317.79
vertex 252.035 1793.65 6348.85
vertex 259.274 1819.73 6356.09
endloop
endfacet
facet normal -0.707077 0.000209573 0.707137
outer loop
vertex 103.08 1692.2 6199.9
vertex 122.674 1688.02 6219.49
vertex 84.1446 1700.46 6180.96
endloop
endfacet
facet normal -0.707107 2.25562e-005 0.707107
outer loop
vertex 84.1446 1700.46 6180.96
vertex 122.674 1688.02 6219.49
vertex 142.49 1688.02 6239.31
endloop
endfacet
facet normal -0.707117 -7.03367e-005 0.707097
outer loop
vertex 84.1446 1700.46 6180.96
vertex 142.49 1688.02 6239.31
vertex 66.2909 1712.62 6163.11
endloop
endfacet
facet normal -0.70714 -3.28845e-005 0.707074
outer loop
vertex 229.772 2002.53 6326.59
vertex 215.246 2021.59 6312.06
vertex 242.127 1980.62 6338.94
endloop
endfacet
facet normal -0.70711 5.74068e-006 0.707103
outer loop
vertex 242.127 1980.62 6338.94
vertex 215.246 2021.59 6312.06
vertex 159.452 1913 6256.27
endloop
endfacet
facet normal -0.707103 -1.1464e-005 0.70711
outer loop
vertex 242.127 1980.62 6338.94
vertex 159.452 1913 6256.27
vertex 252.035 1956.35 6348.85
endloop
endfacet
facet normal -0.707106 -9.88482e-009 0.707107
outer loop
vertex 252.035 1956.35 6348.85
vertex 159.452 1913 6256.27
vertex 220.971 1913 6317.79
endloop
endfacet
facet normal -0.707112 8.32764e-006 0.707102
outer loop
vertex 252.035 1956.35 6348.85
vertex 220.971 1913 6317.79
vertex 259.274 1930.27 6356.09
endloop
endfacet
facet normal -0.70711 0 0.707104
outer loop
vertex 259.274 1930.27 6356.09
vertex 220.971 1913 6317.79
vertex 220.971 1837 6317.79
endloop
endfacet
facet normal -0.707117 5.48646e-006 0.707097
outer loop
vertex 259.274 1930.27 6356.09
vertex 220.971 1837 6317.79
vertex 263.684 1902.95 6360.5
endloop
endfacet
facet normal -0.707111 -2.45075e-006 0.707103
outer loop
vertex 263.684 1902.95 6360.5
vertex 220.971 1837 6317.79
vertex 259.274 1819.73 6356.09
endloop
endfacet
facet normal -0.707051 -8.76231e-006 0.707163
outer loop
vertex 263.684 1902.95 6360.5
vertex 259.274 1819.73 6356.09
vertex 265.165 1875 6361.98
endloop
endfacet
facet normal -0.707215 2.60894e-005 0.706999
outer loop
vertex 265.165 1875 6361.98
vertex 259.274 1819.73 6356.09
vertex 263.684 1847.05 6360.5
endloop
endfacet
facet normal -0.70714 3.28864e-005 0.707074
outer loop
vertex 229.772 1747.47 6326.59
vertex 242.127 1769.38 6338.94
vertex 215.246 1728.41 6312.06
endloop
endfacet
facet normal -0.70711 -5.74067e-006 0.707103
outer loop
vertex 215.246 1728.41 6312.06
vertex 242.127 1769.38 6338.94
vertex 159.452 1837 6256.27
endloop
endfacet
facet normal -0.707097 7.72804e-006 0.707116
outer loop
vertex 215.246 1728.41 6312.06
vertex 159.452 1837 6256.27
vertex 198.874 1712.62 6295.69
endloop
endfacet
facet normal -0.70711 0 0.707104
outer loop
vertex 198.874 1712.62 6295.69
vertex 159.452 1837 6256.27
vertex 159.452 1750 6256.27
endloop
endfacet
facet normal -0.707111 -2.94602e-006 0.707103
outer loop
vertex 198.874 1712.62 6295.69
vertex 159.452 1750 6256.27
vertex 181.02 1700.46 6277.84
endloop
endfacet
facet normal -0.707108 -5.70356e-007 0.707105
outer loop
vertex 181.02 1700.46 6277.84
vertex 159.452 1750 6256.27
vertex 105.712 1750 6202.53
endloop
endfacet
facet normal -0.707106 6.91372e-006 0.707108
outer loop
vertex 181.02 1700.46 6277.84
vertex 105.712 1750 6202.53
vertex 162.085 1692.2 6258.9
endloop
endfacet
facet normal -0.707113 9.26002e-006 0.707101
outer loop
vertex 13.1297 1793.65 6109.95
vertex 23.0374 1769.38 6119.86
vertex 44.1942 1837 6141.01
endloop
endfacet
facet normal -0.707106 5.15794e-006 0.707108
outer loop
vertex 44.1942 1837 6141.01
vertex 23.0374 1769.38 6119.86
vertex 105.712 1837 6202.53
endloop
endfacet
facet normal -0.707099 -1.0696e-005 0.707115
outer loop
vertex 13.1297 1793.65 6109.95
vertex 44.1942 1837 6141.01
vertex 5.88989 1819.73 6102.71
endloop
endfacet
facet normal -0.707101 0 0.707112
outer loop
vertex 5.88989 1819.73 6102.71
vertex 44.1942 1837 6141.01
vertex 44.1942 1913 6141.01
endloop
endfacet
facet normal -0.707111 7.91327e-006 0.707103
outer loop
vertex 5.88989 1819.73 6102.71
vertex 44.1942 1913 6141.01
vertex 1.48058 1847.05 6098.3
endloop
endfacet
facet normal -0.707105 -9.73867e-006 0.707109
outer loop
vertex 1.48058 1902.95 6098.3
vertex 0 1875 6096.82
vertex 5.88989 1930.27 6102.71
endloop
endfacet
facet normal -0.707035 -2.46906e-005 0.707179
outer loop
vertex 5.88989 1930.27 6102.71
vertex 0 1875 6096.82
vertex 13.1297 1956.35 6109.95
endloop
endfacet
facet normal -0.707107 -8.4984e-006 0.707107
outer loop
vertex 142.49 1688.02 6239.31
vertex 162.085 1692.2 6258.9
vertex 66.2909 1712.62 6163.11
endloop
endfacet
facet normal -0.707105 8.55442e-006 0.707109
outer loop
vertex 66.2909 1712.62 6163.11
vertex 162.085 1692.2 6258.9
vertex 105.712 1750 6202.53
endloop
endfacet
facet normal -0.707108 1.42375e-005 0.707106
outer loop
vertex 66.2909 1712.62 6163.11
vertex 105.712 1750 6202.53
vertex 49.9187 1728.41 6146.74
endloop
endfacet
facet normal -0.707105 0 0.707109
outer loop
vertex 49.9187 1728.41 6146.74
vertex 105.712 1750 6202.53
vertex 105.712 1837 6202.53
endloop
endfacet
facet normal -0.707099 -6.0925e-006 0.707115
outer loop
vertex 49.9187 1728.41 6146.74
vertex 105.712 1837 6202.53
vertex 35.3923 1747.47 6132.21
endloop
endfacet
facet normal -0.707106 5.06801e-006 0.707108
outer loop
vertex 35.3923 1747.47 6132.21
vertex 105.712 1837 6202.53
vertex 23.0374 1769.38 6119.86
endloop
endfacet
facet normal -0.707111 -6.60977e-006 0.707102
outer loop
vertex 49.9187 2021.59 6146.74
vertex 105.712 1913 6202.53
vertex 66.2909 2037.38 6163.11
endloop
endfacet
facet normal -0.707101 0 0.707113
outer loop
vertex 66.2909 2037.38 6163.11
vertex 105.712 1913 6202.53
vertex 105.712 2000 6202.53
endloop
endfacet
facet normal -0.707096 9.94072e-006 0.707117
outer loop
vertex 66.2909 2037.38 6163.11
vertex 105.712 2000 6202.53
vertex 84.1446 2049.54 6180.96
endloop
endfacet
facet normal -0.707108 -5.70356e-007 0.707105
outer loop
vertex 84.1446 2049.54 6180.96
vertex 105.712 2000 6202.53
vertex 159.452 2000 6256.27
endloop
endfacet
facet normal -0.707117 -2.61586e-005 0.707097
outer loop
vertex 84.1446 2049.54 6180.96
vertex 159.452 2000 6256.27
vertex 103.08 2057.8 6199.9
endloop
endfacet
facet normal -0.707105 -2.6122e-006 0.707109
outer loop
vertex 103.08 2057.8 6199.9
vertex 159.452 2000 6256.27
vertex 181.02 2049.54 6277.84
endloop
endfacet
facet normal -0.707103 3.42086e-005 0.707111
outer loop
vertex 103.08 2057.8 6199.9
vertex 181.02 2049.54 6277.84
vertex 122.674 2061.98 6219.49
endloop
endfacet
facet normal -0.707108 -1.80155e-005 0.707105
outer loop
vertex 122.674 2061.98 6219.49
vertex 181.02 2049.54 6277.84
vertex 162.085 2057.8 6258.9
endloop
endfacet
facet normal -0.707107 7.74974e-006 0.707107
outer loop
vertex 122.674 2061.98 6219.49
vertex 162.085 2057.8 6258.9
vertex 142.49 2061.98 6239.31
endloop
endfacet
facet normal -0.707133 6.82517e-006 0.707081
outer loop
vertex 0 1875 6096.82
vertex 1.48058 1847.05 6098.3
vertex 13.1297 1956.35 6109.95
endloop
endfacet
facet normal -0.707105 1.03927e-006 0.707108
outer loop
vertex 13.1297 1956.35 6109.95
vertex 1.48058 1847.05 6098.3
vertex 44.1942 1913 6141.01
endloop
endfacet
facet normal -0.707113 -9.26002e-006 0.707101
outer loop
vertex 13.1297 1956.35 6109.95
vertex 44.1942 1913 6141.01
vertex 23.0374 1980.62 6119.86
endloop
endfacet
facet normal -0.707106 -5.15794e-006 0.707108
outer loop
vertex 23.0374 1980.62 6119.86
vertex 44.1942 1913 6141.01
vertex 105.712 1913 6202.53
endloop
endfacet
facet normal -0.707106 -5.06799e-006 0.707108
outer loop
vertex 23.0374 1980.62 6119.86
vertex 105.712 1913 6202.53
vertex 35.3923 2002.53 6132.21
endloop
endfacet
facet normal -0.707099 6.09254e-006 0.707115
outer loop
vertex 35.3923 2002.53 6132.21
vertex 105.712 1913 6202.53
vertex 49.9187 2021.59 6146.74
endloop
endfacet
facet normal -0.689378 0.222524 -0.689378
outer loop
vertex 178.257 1902.95 5921.52
vertex 1.48058 1902.95 6098.3
vertex 182.667 1930.27 5925.93
endloop
endfacet
facet normal -0.689378 0.222524 -0.689378
outer loop
vertex 182.667 1930.27 5925.93
vertex 1.48058 1902.95 6098.3
vertex 5.88989 1930.27 6102.71
endloop
endfacet
facet normal -0.658227 0.365343 -0.658227
outer loop
vertex 182.667 1930.27 5925.93
vertex 5.88989 1930.27 6102.71
vertex 189.906 1956.35 5933.17
endloop
endfacet
facet normal -0.658227 0.365342 -0.658227
outer loop
vertex 189.906 1956.35 5933.17
vertex 5.88989 1930.27 6102.71
vertex 13.1297 1956.35 6109.95
endloop
endfacet
facet normal -0.612372 0.5 -0.612372
outer loop
vertex 189.906 1956.35 5933.17
vertex 13.1297 1956.35 6109.95
vertex 199.814 1980.62 5943.08
endloop
endfacet
facet normal -0.612372 0.500001 -0.612372
outer loop
vertex 199.814 1980.62 5943.08
vertex 13.1297 1956.35 6109.95
vertex 23.0374 1980.62 6119.86
endloop
endfacet
facet normal -0.552839 0.623488 -0.552839
outer loop
vertex 199.814 1980.62 5943.08
vertex 23.0374 1980.62 6119.86
vertex 212.169 2002.53 5955.43
endloop
endfacet
facet normal -0.552839 0.623488 -0.552839
outer loop
vertex 212.169 2002.53 5955.43
vertex 23.0374 1980.62 6119.86
vertex 35.3923 2002.53 6132.21
endloop
endfacet
facet normal -0.480956 0.733051 -0.480956
outer loop
vertex 212.169 2002.53 5955.43
vertex 35.3923 2002.53 6132.21
vertex 226.695 2021.59 5969.96
endloop
endfacet
facet normal -0.480952 0.733056 -0.480951
outer loop
vertex 226.695 2021.59 5969.96
vertex 35.3923 2002.53 6132.21
vertex 49.9187 2021.59 6146.74
endloop
endfacet
facet normal -0.398328 0.826239 -0.398327
outer loop
vertex 226.695 2021.59 5969.96
vertex 49.9187 2021.59 6146.74
vertex 243.068 2037.38 5986.33
endloop
endfacet
facet normal -0.398331 0.826235 -0.398331
outer loop
vertex 243.068 2037.38 5986.33
vertex 49.9187 2021.59 6146.74
vertex 66.2909 2037.38 6163.11
endloop
endfacet
facet normal -0.306803 0.900969 -0.306803
outer loop
vertex 243.068 2037.38 5986.33
vertex 66.2909 2037.38 6163.11
vertex 260.921 2049.54 6004.19
endloop
endfacet
facet normal -0.306803 0.900969 -0.306803
outer loop
vertex 260.921 2049.54 6004.19
vertex 66.2909 2037.38 6163.11
vertex 84.1446 2049.54 6180.96
endloop
endfacet
facet normal -0.208424 0.955573 -0.208424
outer loop
vertex 260.921 2049.54 6004.19
vertex 84.1446 2049.54 6180.96
vertex 279.857 2057.8 6023.12
endloop
endfacet
facet normal -0.208424 0.955573 -0.208424
outer loop
vertex 279.857 2057.8 6023.12
vertex 84.1446 2049.54 6180.96
vertex 103.08 2057.8 6199.9
endloop
endfacet
facet normal -0.10539 0.988831 -0.10539
outer loop
vertex 279.857 2057.8 6023.12
vertex 103.08 2057.8 6199.9
vertex 299.451 2061.98 6042.72
endloop
endfacet
facet normal -0.10539 0.988831 -0.10539
outer loop
vertex 299.451 2061.98 6042.72
vertex 103.08 2057.8 6199.9
vertex 122.674 2061.98 6219.49
endloop
endfacet
facet normal 0 1 0
outer loop
vertex 299.451 2061.98 6042.72
vertex 122.674 2061.98 6219.49
vertex 319.267 2061.98 6062.53
endloop
endfacet
facet normal 0 1 0
outer loop
vertex 319.267 2061.98 6062.53
vertex 122.674 2061.98 6219.49
vertex 142.49 2061.98 6239.31
endloop
endfacet
facet normal 0.105389 0.988831 0.105388
outer loop
vertex 319.267 2061.98 6062.53
vertex 142.49 2061.98 6239.31
vertex 338.861 2057.8 6082.13
endloop
endfacet
facet normal 0.105391 0.98883 0.105391
outer loop
vertex 338.861 2057.8 6082.13
vertex 142.49 2061.98 6239.31
vertex 162.085 2057.8 6258.9
endloop
endfacet
facet normal 0.208424 0.955573 0.208424
outer loop
vertex 338.861 2057.8 6082.13
vertex 162.085 2057.8 6258.9
vertex 357.797 2049.54 6101.06
endloop
endfacet
facet normal 0.208424 0.955573 0.208424
outer loop
vertex 357.797 2049.54 6101.06
vertex 162.085 2057.8 6258.9
vertex 181.02 2049.54 6277.84
endloop
endfacet
facet normal 0.306803 0.900969 0.306803
outer loop
vertex 357.797 2049.54 6101.06
vertex 181.02 2049.54 6277.84
vertex 375.65 2037.38 6118.91
endloop
endfacet
facet normal 0.306803 0.900969 0.306803
outer loop
vertex 375.65 2037.38 6118.91
vertex 181.02 2049.54 6277.84
vertex 198.874 2037.38 6295.69
endloop
endfacet
facet normal 0.398327 0.826239 0.398327
outer loop
vertex 375.65 2037.38 6118.91
vertex 198.874 2037.38 6295.69
vertex 392.023 2021.59 6135.29
endloop
endfacet
facet normal 0.398331 0.826235 0.398332
outer loop
vertex 392.023 2021.59 6135.29
vertex 198.874 2037.38 6295.69
vertex 215.246 2021.59 6312.06
endloop
endfacet
facet normal 0.480955 0.733051 0.480956
outer loop
vertex 392.023 2021.59 6135.29
vertex 215.246 2021.59 6312.06
vertex 406.549 2002.53 6149.81
endloop
endfacet
facet normal 0.480951 0.733056 0.480951
outer loop
vertex 406.549 2002.53 6149.81
vertex 215.246 2021.59 6312.06
vertex 229.772 2002.53 6326.59
endloop
endfacet
facet normal 0.552839 0.623488 0.552839
outer loop
vertex 406.549 2002.53 6149.81
vertex 229.772 2002.53 6326.59
vertex 418.904 1980.62 6162.17
endloop
endfacet
facet normal 0.552839 0.623488 0.552839
outer loop
vertex 418.904 1980.62 6162.17
vertex 229.772 2002.53 6326.59
vertex 242.127 1980.62 6338.94
endloop
endfacet
facet normal 0.612372 0.500001 0.612372
outer loop
vertex 418.904 1980.62 6162.17
vertex 242.127 1980.62 6338.94
vertex 428.812 1956.35 6172.08
endloop
endfacet
facet normal 0.612372 0.500001 0.612372
outer loop
vertex 428.812 1956.35 6172.08
vertex 242.127 1980.62 6338.94
vertex 252.035 1956.35 6348.85
endloop
endfacet
facet normal 0.658227 0.365342 0.658227
outer loop
vertex 428.812 1956.35 6172.08
vertex 252.035 1956.35 6348.85
vertex 436.051 1930.27 6179.32
endloop
endfacet
facet normal 0.658227 0.365342 0.658227
outer loop
vertex 436.051 1930.27 6179.32
vertex 252.035 1956.35 6348.85
vertex 259.274 1930.27 6356.09
endloop
endfacet
facet normal 0.689378 0.222524 0.689378
outer loop
vertex 436.051 1930.27 6179.32
vertex 259.274 1930.27 6356.09
vertex 440.461 1902.95 6183.73
endloop
endfacet
facet normal 0.689378 0.222524 0.689378
outer loop
vertex 440.461 1902.95 6183.73
vertex 259.274 1930.27 6356.09
vertex 263.684 1902.95 6360.5
endloop
endfacet
facet normal 0.705129 0.0747384 0.705129
outer loop
vertex 440.461 1902.95 6183.73
vertex 263.684 1902.95 6360.5
vertex 441.942 1875 6185.21
endloop
endfacet
facet normal 0.705129 0.0747261 0.705131
outer loop
vertex 441.942 1875 6185.21
vertex 263.684 1902.95 6360.5
vertex 265.165 1875 6361.98
endloop
endfacet
facet normal 0.705128 -0.0747384 0.70513
outer loop
vertex 441.942 1875 6185.21
vertex 265.165 1875 6361.98
vertex 440.461 1847.05 6183.73
endloop
endfacet
facet normal 0.70513 -0.0747261 0.70513
outer loop
vertex 440.461 1847.05 6183.73
vertex 265.165 1875 6361.98
vertex 263.684 1847.05 6360.5
endloop
endfacet
facet normal 0.689378 -0.222524 0.689378
outer loop
vertex 440.461 1847.05 6183.73
vertex 263.684 1847.05 6360.5
vertex 436.051 1819.73 6179.32
endloop
endfacet
facet normal 0.689378 -0.222524 0.689378
outer loop
vertex 436.051 1819.73 6179.32
vertex 263.684 1847.05 6360.5
vertex 259.274 1819.73 6356.09
endloop
endfacet
facet normal 0.658227 -0.365342 0.658227
outer loop
vertex 436.051 1819.73 6179.32
vertex 259.274 1819.73 6356.09
vertex 428.812 1793.65 6172.08
endloop
endfacet
facet normal 0.658227 -0.365342 0.658227
outer loop
vertex 428.812 1793.65 6172.08
vertex 259.274 1819.73 6356.09
vertex 252.035 1793.65 6348.85
endloop
endfacet
facet normal 0.612372 -0.500001 0.612372
outer loop
vertex 428.812 1793.65 6172.08
vertex 252.035 1793.65 6348.85
vertex 418.904 1769.38 6162.17
endloop
endfacet
facet normal 0.612372 -0.500001 0.612372
outer loop
vertex 418.904 1769.38 6162.17
vertex 252.035 1793.65 6348.85
vertex 242.127 1769.38 6338.94
endloop
endfacet
facet normal 0.552838 -0.62349 0.552838
outer loop
vertex 418.904 1769.38 6162.17
vertex 242.127 1769.38 6338.94
vertex 406.549 1747.47 6149.81
endloop
endfacet
facet normal 0.552838 -0.62349 0.552838
outer loop
vertex 406.549 1747.47 6149.81
vertex 242.127 1769.38 6338.94
vertex 229.772 1747.47 6326.59
endloop
endfacet
facet normal 0.480959 -0.733047 0.480959
outer loop
vertex 406.549 1747.47 6149.81
vertex 229.772 1747.47 6326.59
vertex 392.023 1728.41 6135.29
endloop
endfacet
facet normal 0.480954 -0.733052 0.480955
outer loop
vertex 392.023 1728.41 6135.29
vertex 229.772 1747.47 6326.59
vertex 215.246 1728.41 6312.06
endloop
endfacet
facet normal 0.398325 -0.826241 0.398326
outer loop
vertex 392.023 1728.41 6135.29
vertex 215.246 1728.41 6312.06
vertex 375.65 1712.62 6118.91
endloop
endfacet
facet normal 0.398329 -0.826237 0.398329
outer loop
vertex 375.65 1712.62 6118.91
vertex 215.246 1728.41 6312.06
vertex 198.874 1712.62 6295.69
endloop
endfacet
facet normal 0.306803 -0.900969 0.306803
outer loop
vertex 375.65 1712.62 6118.91
vertex 198.874 1712.62 6295.69
vertex 357.797 1700.46 6101.06
endloop
endfacet
facet normal 0.306803 -0.900969 0.306803
outer loop
vertex 357.797 1700.46 6101.06
vertex 198.874 1712.62 6295.69
vertex 181.02 1700.46 6277.84
endloop
endfacet
facet normal 0.208421 -0.955574 0.208421
outer loop
vertex 357.797 1700.46 6101.06
vertex 181.02 1700.46 6277.84
vertex 338.861 1692.2 6082.13
endloop
endfacet
facet normal 0.208421 -0.955574 0.208421
outer loop
vertex 338.861 1692.2 6082.13
vertex 181.02 1700.46 6277.84
vertex 162.085 1692.2 6258.9
endloop
endfacet
facet normal 0.105388 -0.988831 0.105388
outer loop
vertex 338.861 1692.2 6082.13
vertex 162.085 1692.2 6258.9
vertex 319.267 1688.02 6062.53
endloop
endfacet
facet normal 0.105391 -0.98883 0.105391
outer loop
vertex 319.267 1688.02 6062.53
vertex 162.085 1692.2 6258.9
vertex 142.49 1688.02 6239.31
endloop
endfacet
facet normal 0 -1 0
outer loop
vertex 319.267 1688.02 6062.53
vertex 142.49 1688.02 6239.31
vertex 299.451 1688.02 6042.72
endloop
endfacet
facet normal 0 -1 0
outer loop
vertex 299.451 1688.02 6042.72
vertex 142.49 1688.02 6239.31
vertex 122.674 1688.02 6219.49
endloop
endfacet
facet normal -0.10539 -0.988831 -0.10539
outer loop
vertex 299.451 1688.02 6042.72
vertex 122.674 1688.02 6219.49
vertex 279.857 1692.2 6023.12
endloop
endfacet
facet normal -0.10539 -0.988831 -0.10539
outer loop
vertex 279.857 1692.2 6023.12
vertex 122.674 1688.02 6219.49
vertex 103.08 1692.2 6199.9
endloop
endfacet
facet normal -0.208421 -0.955574 -0.208421
outer loop
vertex 279.857 1692.2 6023.12
vertex 103.08 1692.2 6199.9
vertex 260.921 1700.46 6004.19
endloop
endfacet
facet normal -0.208421 -0.955574 -0.208421
outer loop
vertex 260.921 1700.46 6004.19
vertex 103.08 1692.2 6199.9
vertex 84.1446 1700.46 6180.96
endloop
endfacet
facet normal -0.306803 -0.900969 -0.306803
outer loop
vertex 260.921 1700.46 6004.19
vertex 84.1446 1700.46 6180.96
vertex 243.068 1712.62 5986.33
endloop
endfacet
facet normal -0.306803 -0.900969 -0.306803
outer loop
vertex 243.068 1712.62 5986.33
vertex 84.1446 1700.46 6180.96
vertex 66.2909 1712.62 6163.11
endloop
endfacet
facet normal -0.398325 -0.826241 -0.398325
outer loop
vertex 243.068 1712.62 5986.33
vertex 66.2909 1712.62 6163.11
vertex 226.695 1728.41 5969.96
endloop
endfacet
facet normal -0.39833 -0.826237 -0.398329
outer loop
vertex 226.695 1728.41 5969.96
vertex 66.2909 1712.62 6163.11
vertex 49.9187 1728.41 6146.74
endloop
endfacet
facet normal -0.48096 -0.733046 -0.480958
outer loop
vertex 226.695 1728.41 5969.96
vertex 49.9187 1728.41 6146.74
vertex 212.169 1747.47 5955.43
endloop
endfacet
facet normal -0.480955 -0.733052 -0.480955
outer loop
vertex 212.169 1747.47 5955.43
vertex 49.9187 1728.41 6146.74
vertex 35.3923 1747.47 6132.21
endloop
endfacet
facet normal -0.552838 -0.62349 -0.552838
outer loop
vertex 212.169 1747.47 5955.43
vertex 35.3923 1747.47 6132.21
vertex 199.814 1769.38 5943.08
endloop
endfacet
facet normal -0.552838 -0.62349 -0.552838
outer loop
vertex 199.814 1769.38 5943.08
vertex 35.3923 1747.47 6132.21
vertex 23.0374 1769.38 6119.86
endloop
endfacet
facet normal -0.612372 -0.5 -0.612372
outer loop
vertex 199.814 1769.38 5943.08
vertex 23.0374 1769.38 6119.86
vertex 189.906 1793.65 5933.17
endloop
endfacet
facet normal -0.612372 -0.500001 -0.612372
outer loop
vertex 189.906 1793.65 5933.17
vertex 23.0374 1769.38 6119.86
vertex 13.1297 1793.65 6109.95
endloop
endfacet
facet normal -0.658227 -0.365343 -0.658227
outer loop
vertex 189.906 1793.65 5933.17
vertex 13.1297 1793.65 6109.95
vertex 182.667 1819.73 5925.93
endloop
endfacet
facet normal -0.658227 -0.365342 -0.658227
outer loop
vertex 182.667 1819.73 5925.93
vertex 13.1297 1793.65 6109.95
vertex 5.88989 1819.73 6102.71
endloop
endfacet
facet normal -0.689378 -0.222524 -0.689378
outer loop
vertex 182.667 1819.73 5925.93
vertex 5.88989 1819.73 6102.71
vertex 178.257 1847.05 5921.52
endloop
endfacet
facet normal -0.689378 -0.222524 -0.689378
outer loop
vertex 178.257 1847.05 5921.52
vertex 5.88989 1819.73 6102.71
vertex 1.48058 1847.05 6098.3
endloop
endfacet
facet normal -0.705129 -0.0747384 -0.705129
outer loop
vertex 178.257 1847.05 5921.52
vertex 1.48058 1847.05 6098.3
vertex 176.776 1875 5920.04
endloop
endfacet
facet normal -0.705131 -0.0747266 -0.705129
outer loop
vertex 176.776 1875 5920.04
vertex 1.48058 1847.05 6098.3
vertex 0 1875 6096.82
endloop
endfacet
facet normal -0.70513 0.0747384 -0.705128
outer loop
vertex 176.776 1875 5920.04
vertex 0 1875 6096.82
vertex 178.257 1902.95 5921.52
endloop
endfacet
facet normal -0.70513 0.0747266 -0.70513
outer loop
vertex 178.257 1902.95 5921.52
vertex 0 1875 6096.82
vertex 1.48058 1902.95 6098.3
endloop
endfacet
facet normal 0.70711 -8.74798e-006 -0.707103
outer loop
vertex 240.59 1796.47 5983.85
vertex 199.814 1769.38 5943.08
vertex 232.195 1814.04 5975.46
endloop
endfacet
facet normal 0.707099 7.59872e-006 -0.707114
outer loop
vertex 232.195 1814.04 5975.46
vertex 199.814 1769.38 5943.08
vertex 189.906 1793.65 5933.17
endloop
endfacet
facet normal 0.7071 4.07891e-006 -0.707114
outer loop
vertex 232.195 1814.04 5975.46
vertex 189.906 1793.65 5933.17
vertex 226.02 1833.36 5969.28
endloop
endfacet
facet normal 0.707108 -1.01453e-005 -0.707106
outer loop
vertex 226.02 1833.36 5969.28
vertex 189.906 1793.65 5933.17
vertex 182.667 1819.73 5925.93
endloop
endfacet
facet normal 0.707106 4.79783e-006 -0.707108
outer loop
vertex 226.02 1833.36 5969.28
vertex 182.667 1819.73 5925.93
vertex 222.242 1853.87 5965.51
endloop
endfacet
facet normal 0.707111 -7.74123e-006 -0.707103
outer loop
vertex 222.242 1853.87 5965.51
vertex 182.667 1819.73 5925.93
vertex 178.257 1847.05 5921.52
endloop
endfacet
facet normal 0.707111 -7.1662e-006 -0.707103
outer loop
vertex 222.242 1853.87 5965.51
vertex 178.257 1847.05 5921.52
vertex 220.971 1875 5964.23
endloop
endfacet
facet normal 0.707108 2.42008e-006 -0.707106
outer loop
vertex 220.971 1875 5964.23
vertex 178.257 1847.05 5921.52
vertex 176.776 1875 5920.04
endloop
endfacet
facet normal 0.707108 7.54366e-006 -0.707106
outer loop
vertex 220.971 1875 5964.23
vertex 176.776 1875 5920.04
vertex 222.242 1896.13 5965.51
endloop
endfacet
facet normal 0.70711 -2.67162e-006 -0.707103
outer loop
vertex 222.242 1896.13 5965.51
vertex 176.776 1875 5920.04
vertex 178.257 1902.95 5921.52
endloop
endfacet
facet normal 0.70711 -6.38631e-006 -0.707104
outer loop
vertex 222.242 1896.13 5965.51
vertex 178.257 1902.95 5921.52
vertex 226.02 1916.64 5969.28
endloop
endfacet
facet normal 0.707108 8.79755e-006 -0.707106
outer loop
vertex 226.02 1916.64 5969.28
vertex 178.257 1902.95 5921.52
vertex 182.667 1930.27 5925.93
endloop
endfacet
facet normal 0.707105 -7.3235e-006 -0.707108
outer loop
vertex 226.02 1916.64 5969.28
vertex 182.667 1930.27 5925.93
vertex 232.195 1935.96 5975.46
endloop
endfacet
facet normal 0.707104 1.22948e-005 -0.70711
outer loop
vertex 182.667 1930.27 5925.93
vertex 189.906 1956.35 5933.17
vertex 232.195 1935.96 5975.46
endloop
endfacet
facet normal 0.707099 -7.59872e-006 -0.707114
outer loop
vertex 232.195 1935.96 5975.46
vertex 189.906 1956.35 5933.17
vertex 199.814 1980.62 5943.08
endloop
endfacet
facet normal 0.70711 8.74798e-006 -0.707103
outer loop
vertex 232.195 1935.96 5975.46
vertex 199.814 1980.62 5943.08
vertex 240.59 1953.53 5983.85
endloop
endfacet
facet normal 0.707108 2.21454e-006 -0.707105
outer loop
vertex 240.59 1953.53 5983.85
vertex 199.814 1980.62 5943.08
vertex 212.169 2002.53 5955.43
endloop
endfacet
facet normal 0.707105 -1.06291e-006 -0.707108
outer loop
vertex 240.59 1953.53 5983.85
vertex 212.169 2002.53 5955.43
vertex 250.963 1968.83 5994.23
endloop
endfacet
facet normal 0.707106 4.2459e-007 -0.707107
outer loop
vertex 250.963 1968.83 5994.23
vertex 212.169 2002.53 5955.43
vertex 226.695 2021.59 5969.96
endloop
endfacet
facet normal 0.707101 -4.59178e-006 -0.707113
outer loop
vertex 250.963 1968.83 5994.23
vertex 226.695 2021.59 5969.96
vertex 263.016 1981.44 6006.28
endloop
endfacet
facet normal 0.707104 8.97472e-007 -0.70711
outer loop
vertex 263.016 1981.44 6006.28
vertex 226.695 2021.59 5969.96
vertex 243.068 2037.38 5986.33
endloop
endfacet
facet normal 0.707106 2.4605e-006 -0.707108
outer loop
vertex 263.016 1981.44 6006.28
vertex 243.068 2037.38 5986.33
vertex 276.403 1990.99 6019.67
endloop
endfacet
facet normal 0.70711 7.74654e-006 -0.707104
outer loop
vertex 276.403 1990.99 6019.67
vertex 243.068 2037.38 5986.33
vertex 260.921 2049.54 6004.19
endloop
endfacet
facet normal 0.707112 8.83568e-006 -0.707102
outer loop
vertex 276.403 1990.99 6019.67
vertex 260.921 2049.54 6004.19
vertex 290.738 1997.19 6034
endloop
endfacet
facet normal 0.707104 4.18926e-008 -0.70711
outer loop
vertex 290.738 1997.19 6034
vertex 260.921 2049.54 6004.19
vertex 279.857 2057.8 6023.12
endloop
endfacet
facet normal 0.707106 7.8222e-007 -0.707108
outer loop
vertex 290.738 1997.19 6034
vertex 279.857 2057.8 6023.12
vertex 305.608 1999.89 6048.87
endloop
endfacet
facet normal 0.7071 -4.9008e-006 -0.707114
outer loop
vertex 305.608 1999.89 6048.87
vertex 279.857 2057.8 6023.12
vertex 299.451 2061.98 6042.72
endloop
endfacet
facet normal 0.70712 -7.6582e-007 -0.707093
outer loop
vertex 305.608 1999.89 6048.87
vertex 299.451 2061.98 6042.72
vertex 320.586 1998.99 6063.85
endloop
endfacet
facet normal 0.707107 -9.93512e-006 -0.707107
outer loop
vertex 320.586 1998.99 6063.85
vertex 299.451 2061.98 6042.72
vertex 319.267 2061.98 6062.53
endloop
endfacet
facet normal 0.707085 -1.08371e-005 -0.707128
outer loop
vertex 320.586 1998.99 6063.85
vertex 319.267 2061.98 6062.53
vertex 335.241 1994.52 6078.51
endloop
endfacet
facet normal 0.707127 5.85354e-006 -0.707087
outer loop
vertex 349.152 1763.38 6092.42
vertex 357.797 1700.46 6101.06
vertex 335.241 1755.48 6078.51
endloop
endfacet
facet normal 0.707122 1.71744e-006 -0.707092
outer loop
vertex 335.241 1755.48 6078.51
vertex 357.797 1700.46 6101.06
vertex 338.861 1692.2 6082.13
endloop
endfacet
facet normal 0.707087 -2.23547e-006 -0.707126
outer loop
vertex 335.241 1755.48 6078.51
vertex 338.861 1692.2 6082.13
vertex 320.586 1751.01 6063.85
endloop
endfacet
facet normal 0.707107 9.93336e-006 -0.707107
outer loop
vertex 320.586 1751.01 6063.85
vertex 338.861 1692.2 6082.13
vertex 319.267 1688.02 6062.53
endloop
endfacet
facet normal 0.70712 9.37356e-006 -0.707093
outer loop
vertex 320.586 1751.01 6063.85
vertex 319.267 1688.02 6062.53
vertex 305.608 1750.11 6048.87
endloop
endfacet
facet normal 0.707107 3.47556e-006 -0.707107
outer loop
vertex 305.608 1750.11 6048.87
vertex 319.267 1688.02 6062.53
vertex 299.451 1688.02 6042.72
endloop
endfacet
facet normal 0.707106 3.55561e-006 -0.707107
outer loop
vertex 305.608 1750.11 6048.87
vertex 299.451 1688.02 6042.72
vertex 290.738 1752.81 6034
endloop
endfacet
facet normal 0.707099 1.6373e-006 -0.707114
outer loop
vertex 290.738 1752.81 6034
vertex 299.451 1688.02 6042.72
vertex 279.857 1692.2 6023.12
endloop
endfacet
facet normal 0.707113 -3.24809e-006 -0.707101
outer loop
vertex 290.738 1752.81 6034
vertex 279.857 1692.2 6023.12
vertex 276.403 1759.01 6019.67
endloop
endfacet
facet normal 0.707103 -4.26653e-006 -0.707111
outer loop
vertex 276.403 1759.01 6019.67
vertex 279.857 1692.2 6023.12
vertex 260.921 1700.46 6004.19
endloop
endfacet
facet normal 0.707105 -5.27143e-006 -0.707109
outer loop
vertex 276.403 1759.01 6019.67
vertex 260.921 1700.46 6004.19
vertex 263.016 1768.56 6006.28
endloop
endfacet
facet normal 0.70711 -5.6043e-006 -0.707103
outer loop
vertex 263.016 1768.56 6006.28
vertex 260.921 1700.46 6004.19
vertex 243.068 1712.62 5986.33
endloop
endfacet
facet normal 0.707099 2.16992e-006 -0.707114
outer loop
vertex 263.016 1768.56 6006.28
vertex 243.068 1712.62 5986.33
vertex 250.963 1781.17 5994.23
endloop
endfacet
facet normal 0.707105 9.71578e-007 -0.707109
outer loop
vertex 250.963 1781.17 5994.23
vertex 243.068 1712.62 5986.33
vertex 226.695 1728.41 5969.96
endloop
endfacet
facet normal 0.707105 5.30864e-007 -0.707108
outer loop
vertex 250.963 1781.17 5994.23
vertex 226.695 1728.41 5969.96
vertex 240.59 1796.47 5983.85
endloop
endfacet
facet normal 0.707106 -5.43409e-009 -0.707107
outer loop
vertex 240.59 1796.47 5983.85
vertex 226.695 1728.41 5969.96
vertex 212.169 1747.47 5955.43
endloop
endfacet
facet normal 0.707108 -2.21455e-006 -0.707105
outer loop
vertex 240.59 1796.47 5983.85
vertex 212.169 1747.47 5955.43
vertex 199.814 1769.38 5943.08
endloop
endfacet
facet normal 0.707106 0 -0.707107
outer loop
vertex 397.429 1885.6 6140.69
vertex 441.942 1875 6185.21
vertex 397.429 1864.4 6140.69
endloop
endfacet
facet normal 0.707107 -2.29414e-006 -0.707107
outer loop
vertex 397.429 1864.4 6140.69
vertex 441.942 1875 6185.21
vertex 440.461 1847.05 6183.73
endloop
endfacet
facet normal 0.707109 8.80304e-006 -0.707105
outer loop
vertex 397.429 1864.4 6140.69
vertex 440.461 1847.05 6183.73
vertex 394.896 1843.5 6138.16
endloop
endfacet
facet normal 0.707109 8.02478e-006 -0.707105
outer loop
vertex 394.896 1843.5 6138.16
vertex 440.461 1847.05 6183.73
vertex 436.051 1819.73 6179.32
endloop
endfacet
facet normal 0.707104 -8.37573e-006 -0.707109
outer loop
vertex 394.896 1843.5 6138.16
vertex 436.051 1819.73 6179.32
vertex 389.901 1823.51 6133.17
endloop
endfacet
facet normal 0.707104 -1.32902e-005 -0.70711
outer loop
vertex 389.901 1823.51 6133.17
vertex 436.051 1819.73 6179.32
vertex 428.812 1793.65 6172.08
endloop
endfacet
facet normal 0.707111 4.02291e-006 -0.707103
outer loop
vertex 389.901 1823.51 6133.17
vertex 428.812 1793.65 6172.08
vertex 382.59 1805 6125.85
endloop
endfacet
facet normal 0.707111 1.05045e-005 -0.707102
outer loop
vertex 382.59 1805 6125.85
vertex 428.812 1793.65 6172.08
vertex 418.904 1769.38 6162.17
endloop
endfacet
facet normal 0.707099 -1.38197e-005 -0.707114
outer loop
vertex 382.59 1805 6125.85
vertex 418.904 1769.38 6162.17
vertex 373.171 1788.51 6116.44
endloop
endfacet
facet normal 0.707104 7.27834e-006 -0.70711
outer loop
vertex 373.171 1788.51 6116.44
vertex 418.904 1769.38 6162.17
vertex 406.549 1747.47 6149.81
endloop
endfacet
facet normal 0.707104 7.55988e-006 -0.70711
outer loop
vertex 373.171 1788.51 6116.44
vertex 406.549 1747.47 6149.81
vertex 361.917 1774.5 6105.18
endloop
endfacet
facet normal 0.707103 4.51947e-006 -0.70711
outer loop
vertex 361.917 1774.5 6105.18
vertex 406.549 1747.47 6149.81
vertex 392.023 1728.41 6135.29
endloop
endfacet
facet normal 0.7071 3.38334e-007 -0.707114
outer loop
vertex 361.917 1774.5 6105.18
vertex 392.023 1728.41 6135.29
vertex 349.152 1763.38 6092.42
endloop
endfacet
facet normal 0.707102 4.95588e-006 -0.707112
outer loop
vertex 349.152 1763.38 6092.42
vertex 392.023 1728.41 6135.29
vertex 375.65 1712.62 6118.91
endloop
endfacet
facet normal 0.707094 -3.17903e-006 -0.70712
outer loop
vertex 349.152 1763.38 6092.42
vertex 375.65 1712.62 6118.91
vertex 357.797 1700.46 6101.06
endloop
endfacet
facet normal 0.707108 -1.24489e-007 -0.707106
outer loop
vertex 319.267 2061.98 6062.53
vertex 338.861 2057.8 6082.13
vertex 335.241 1994.52 6078.51
endloop
endfacet
facet normal 0.707122 -1.71744e-006 -0.707092
outer loop
vertex 335.241 1994.52 6078.51
vertex 338.861 2057.8 6082.13
vertex 357.797 2049.54 6101.06
endloop
endfacet
facet normal 0.707127 -5.85354e-006 -0.707087
outer loop
vertex 335.241 1994.52 6078.51
vertex 357.797 2049.54 6101.06
vertex 349.152 1986.62 6092.42
endloop
endfacet
facet normal 0.707094 3.17903e-006 -0.70712
outer loop
vertex 349.152 1986.62 6092.42
vertex 357.797 2049.54 6101.06
vertex 375.65 2037.38 6118.91
endloop
endfacet
facet normal 0.707099 -2.16091e-006 -0.707114
outer loop
vertex 349.152 1986.62 6092.42
vertex 375.65 2037.38 6118.91
vertex 361.917 1975.5 6105.18
endloop
endfacet
facet normal 0.707102 -3.63238e-006 -0.707111
outer loop
vertex 361.917 1975.5 6105.18
vertex 375.65 2037.38 6118.91
vertex 392.023 2021.59 6135.29
endloop
endfacet
facet normal 0.707105 -6.54626e-006 -0.707109
outer loop
vertex 361.917 1975.5 6105.18
vertex 392.023 2021.59 6135.29
vertex 373.171 1961.49 6116.44
endloop
endfacet
facet normal 0.707103 -5.26577e-006 -0.707111
outer loop
vertex 373.171 1961.49 6116.44
vertex 392.023 2021.59 6135.29
vertex 406.549 2002.53 6149.81
endloop
endfacet
facet normal 0.707094 8.07797e-006 -0.707119
outer loop
vertex 373.171 1961.49 6116.44
vertex 406.549 2002.53 6149.81
vertex 382.59 1945 6125.85
endloop
endfacet
facet normal 0.707108 -2.96792e-006 -0.707106
outer loop
vertex 382.59 1945 6125.85
vertex 406.549 2002.53 6149.81
vertex 418.904 1980.62 6162.17
endloop
endfacet
facet normal 0.707109 -5.37982e-006 -0.707105
outer loop
vertex 382.59 1945 6125.85
vertex 418.904 1980.62 6162.17
vertex 389.901 1926.49 6133.17
endloop
endfacet
facet normal 0.707113 -9.45306e-006 -0.707101
outer loop
vertex 389.901 1926.49 6133.17
vertex 418.904 1980.62 6162.17
vertex 428.812 1956.35 6172.08
endloop
endfacet
facet normal 0.707106 9.08212e-006 -0.707108
outer loop
vertex 389.901 1926.49 6133.17
vertex 428.812 1956.35 6172.08
vertex 394.896 1906.5 6138.16
endloop
endfacet
facet normal 0.707103 1.27076e-005 -0.707111
outer loop
vertex 394.896 1906.5 6138.16
vertex 428.812 1956.35 6172.08
vertex 436.051 1930.27 6179.32
endloop
endfacet
facet normal 0.707109 -8.74523e-006 -0.707105
outer loop
vertex 394.896 1906.5 6138.16
vertex 436.051 1930.27 6179.32
vertex 397.429 1885.6 6140.69
endloop
endfacet
facet normal 0.707109 -8.08151e-006 -0.707105
outer loop
vertex 397.429 1885.6 6140.69
vertex 436.051 1930.27 6179.32
vertex 440.461 1902.95 6183.73
endloop
endfacet
facet normal 0.707107 2.29414e-006 -0.707107
outer loop
vertex 397.429 1885.6 6140.69
vertex 440.461 1902.95 6183.73
vertex 441.942 1875 6185.21
endloop
endfacet
facet normal 0.707161 -3.55333e-005 -0.707053
outer loop
vertex 748.449 1843.5 5784.61
vertex 743.454 1823.51 5779.61
vertex 736.143 1805 5772.3
endloop
endfacet
facet normal 0.707074 -5.57291e-005 -0.70714
outer loop
vertex 715.471 1975.5 5751.63
vertex 726.725 1961.49 5762.88
vertex 736.143 1945 5772.3
endloop
endfacet
facet normal 0.707073 0 -0.707141
outer loop
vertex 750.982 1885.6 5787.14
vertex 750.982 1864.4 5787.14
vertex 748.449 1906.5 5784.61
endloop
endfacet
facet normal 0.707106 4.02701e-006 -0.707107
outer loop
vertex 748.449 1906.5 5784.61
vertex 750.982 1864.4 5787.14
vertex 574.524 1875 5610.68
endloop
endfacet
facet normal 0.707106 -8.02501e-006 -0.707108
outer loop
vertex 750.982 1864.4 5787.14
vertex 748.449 1843.5 5784.61
vertex 574.524 1875 5610.68
endloop
endfacet
facet normal 0.707106 -9.0972e-007 -0.707107
outer loop
vertex 574.524 1875 5610.68
vertex 748.449 1843.5 5784.61
vertex 736.143 1805 5772.3
endloop
endfacet
facet normal 0.707112 2.51555e-005 -0.707101
outer loop
vertex 574.524 1875 5610.68
vertex 736.143 1805 5772.3
vertex 575.796 1853.87 5611.95
endloop
endfacet
facet normal 0.707107 -1.09261e-005 -0.707107
outer loop
vertex 575.796 1853.87 5611.95
vertex 736.143 1805 5772.3
vertex 585.748 1814.04 5621.91
endloop
endfacet
facet normal 0.706981 -7.36169e-005 -0.707232
outer loop
vertex 575.796 1853.87 5611.95
vertex 585.748 1814.04 5621.91
vertex 579.573 1833.36 5615.73
endloop
endfacet
facet normal 0.707188 -8.72753e-005 -0.707026
outer loop
vertex 585.748 1935.96 5621.91
vertex 594.143 1953.53 5630.3
vertex 604.516 1968.83 5640.67
endloop
endfacet
facet normal 0.707107 1.56043e-005 -0.707107
outer loop
vertex 715.471 1774.5 5751.63
vertex 702.705 1763.38 5738.86
vertex 616.57 1768.56 5652.73
endloop
endfacet
facet normal 0.707105 -4.77815e-005 -0.707109
outer loop
vertex 616.57 1768.56 5652.73
vertex 702.705 1763.38 5738.86
vertex 688.795 1755.48 5724.95
endloop
endfacet
facet normal 0.707188 8.72753e-005 -0.707026
outer loop
vertex 594.143 1796.47 5630.3
vertex 585.748 1814.04 5621.91
vertex 604.516 1781.17 5640.67
endloop
endfacet
facet normal 0.707107 -5.26852e-006 -0.707107
outer loop
vertex 604.516 1781.17 5640.67
vertex 585.748 1814.04 5621.91
vertex 736.143 1805 5772.3
endloop
endfacet
facet normal 0.707103 3.71335e-005 -0.707111
outer loop
vertex 604.516 1781.17 5640.67
vertex 736.143 1805 5772.3
vertex 616.57 1768.56 5652.73
endloop
endfacet
facet normal 0.707106 1.96782e-005 -0.707108
outer loop
vertex 616.57 1768.56 5652.73
vertex 736.143 1805 5772.3
vertex 726.725 1788.51 5762.88
endloop
endfacet
facet normal 0.707107 2.50063e-006 -0.707106
outer loop
vertex 616.57 1768.56 5652.73
vertex 726.725 1788.51 5762.88
vertex 715.471 1774.5 5751.63
endloop
endfacet
facet normal 0.706981 7.36169e-005 -0.707232
outer loop
vertex 579.573 1916.64 5615.73
vertex 585.748 1935.96 5621.91
vertex 575.796 1896.13 5611.95
endloop
endfacet
facet normal 0.707107 1.09261e-005 -0.707107
outer loop
vertex 575.796 1896.13 5611.95
vertex 585.748 1935.96 5621.91
vertex 736.143 1945 5772.3
endloop
endfacet
facet normal 0.707112 -2.51555e-005 -0.707101
outer loop
vertex 575.796 1896.13 5611.95
vertex 736.143 1945 5772.3
vertex 574.524 1875 5610.68
endloop
endfacet
facet normal 0.707108 -6.06335e-006 -0.707106
outer loop
vertex 574.524 1875 5610.68
vertex 736.143 1945 5772.3
vertex 743.454 1926.49 5779.61
endloop
endfacet
facet normal 0.707106 8.14336e-006 -0.707108
outer loop
vertex 574.524 1875 5610.68
vertex 743.454 1926.49 5779.61
vertex 748.449 1906.5 5784.61
endloop
endfacet
facet normal 0.707107 5.26852e-006 -0.707107
outer loop
vertex 585.748 1935.96 5621.91
vertex 604.516 1968.83 5640.67
vertex 736.143 1945 5772.3
endloop
endfacet
facet normal 0.707103 -3.71335e-005 -0.707111
outer loop
vertex 736.143 1945 5772.3
vertex 604.516 1968.83 5640.67
vertex 616.57 1981.44 5652.73
endloop
endfacet
facet normal 0.707107 -1.1183e-005 -0.707107
outer loop
vertex 736.143 1945 5772.3
vertex 616.57 1981.44 5652.73
vertex 715.471 1975.5 5751.63
endloop
endfacet
facet normal 0.707108 1.6203e-005 -0.707106
outer loop
vertex 715.471 1975.5 5751.63
vertex 616.57 1981.44 5652.73
vertex 688.795 1994.52 5724.95
endloop
endfacet
facet normal 0.707049 -0.000147279 -0.707164
outer loop
vertex 715.471 1975.5 5751.63
vertex 688.795 1994.52 5724.95
vertex 702.705 1986.62 5738.86
endloop
endfacet
facet normal 0.707106 -3.83615e-005 -0.707108
outer loop
vertex 629.956 1759.01 5666.11
vertex 616.57 1768.56 5652.73
vertex 644.291 1752.81 5680.45
endloop
endfacet
facet normal 0.707106 -3.99268e-005 -0.707108
outer loop
vertex 644.291 1752.81 5680.45
vertex 616.57 1768.56 5652.73
vertex 688.795 1755.48 5724.95
endloop
endfacet
facet normal 0.707105 -8.07111e-006 -0.707109
outer loop
vertex 644.291 1752.81 5680.45
vertex 688.795 1755.48 5724.95
vertex 659.161 1750.11 5695.32
endloop
endfacet
facet normal 0.707093 0.000118521 -0.70712
outer loop
vertex 659.161 1750.11 5695.32
vertex 688.795 1755.48 5724.95
vertex 674.14 1751.01 5710.3
endloop
endfacet
facet normal 0.707099 7.16003e-005 -0.707115
outer loop
vertex 659.161 1999.89 5695.32
vertex 674.14 1998.99 5710.3
vertex 644.291 1997.19 5680.45
endloop
endfacet
facet normal 0.707103 -5.59167e-005 -0.707111
outer loop
vertex 644.291 1997.19 5680.45
vertex 674.14 1998.99 5710.3
vertex 688.795 1994.52 5724.95
endloop
endfacet
facet normal 0.707106 4.03559e-005 -0.707108
outer loop
vertex 644.291 1997.19 5680.45
vertex 688.795 1994.52 5724.95
vertex 629.956 1990.99 5666.11
endloop
endfacet
facet normal 0.707106 3.95009e-005 -0.707108
outer loop
vertex 629.956 1990.99 5666.11
vertex 688.795 1994.52 5724.95
vertex 616.57 1981.44 5652.73
endloop
endfacet
facet normal -0.684286 0.252 -0.684287
outer loop
vertex 575.796 1896.13 5611.95
vertex 222.242 1896.13 5965.51
vertex 579.573 1916.64 5615.73
endloop
endfacet
facet normal -0.684287 0.251999 -0.684287
outer loop
vertex 579.573 1916.64 5615.73
vertex 222.242 1896.13 5965.51
vertex 226.02 1916.64 5969.28
endloop
endfacet
facet normal -0.644339 0.411891 -0.644339
outer loop
vertex 579.573 1916.64 5615.73
vertex 226.02 1916.64 5969.28
vertex 585.748 1935.96 5621.91
endloop
endfacet
facet normal -0.644339 0.411892 -0.644339
outer loop
vertex 585.748 1935.96 5621.91
vertex 226.02 1916.64 5969.28
vertex 232.195 1935.96 5975.46
endloop
endfacet
facet normal -0.585852 0.559959 -0.585852
outer loop
vertex 585.748 1935.96 5621.91
vertex 232.195 1935.96 5975.46
vertex 594.143 1953.53 5630.3
endloop
endfacet
facet normal -0.585848 0.559969 -0.585847
outer loop
vertex 594.143 1953.53 5630.3
vertex 232.195 1935.96 5975.46
vertex 240.59 1953.53 5983.85
endloop
endfacet
facet normal -0.51049 0.691954 -0.510489
outer loop
vertex 594.143 1953.53 5630.3
vertex 240.59 1953.53 5983.85
vertex 604.516 1968.83 5640.67
endloop
endfacet
facet normal -0.510495 0.691947 -0.510495
outer loop
vertex 604.516 1968.83 5640.67
vertex 240.59 1953.53 5983.85
vertex 250.963 1968.83 5994.23
endloop
endfacet
facet normal -0.420474 0.803992 -0.420474
outer loop
vertex 604.516 1968.83 5640.67
vertex 250.963 1968.83 5994.23
vertex 616.57 1981.44 5652.73
endloop
endfacet
facet normal -0.42048 0.803986 -0.42048
outer loop
vertex 616.57 1981.44 5652.73
vertex 250.963 1968.83 5994.23
vertex 263.016 1981.44 6006.28
endloop
endfacet
facet normal -0.31834 0.892927 -0.318341
outer loop
vertex 616.57 1981.44 5652.73
vertex 263.016 1981.44 6006.28
vertex 629.956 1990.99 5666.11
endloop
endfacet
facet normal -0.318336 0.89293 -0.318336
outer loop
vertex 629.956 1990.99 5666.11
vertex 263.016 1981.44 6006.28
vertex 276.403 1990.99 6019.67
endloop
endfacet
facet normal -0.207057 0.956167 -0.207057
outer loop
vertex 629.956 1990.99 5666.11
vertex 276.403 1990.99 6019.67
vertex 644.291 1997.19 5680.45
endloop
endfacet
facet normal -0.207057 0.956167 -0.207057
outer loop
vertex 644.291 1997.19 5680.45
vertex 276.403 1990.99 6019.67
vertex 290.738 1997.19 6034
endloop
endfacet
facet normal -0.0898129 0.991901 -0.0898129
outer loop
vertex 644.291 1997.19 5680.45
vertex 290.738 1997.19 6034
vertex 659.161 1999.89 5695.32
endloop
endfacet
facet normal -0.0898129 0.991901 -0.089813
outer loop
vertex 659.161 1999.89 5695.32
vertex 290.738 1997.19 6034
vertex 305.608 1999.89 6048.87
endloop
endfacet
facet normal 0.0300092 0.999099 0.0300092
outer loop
vertex 659.161 1999.89 5695.32
vertex 305.608 1999.89 6048.87
vertex 674.14 1998.99 5710.3
endloop
endfacet
facet normal 0.0300092 0.999099 0.0300092
outer loop
vertex 674.14 1998.99 5710.3
vertex 305.608 1999.89 6048.87
vertex 320.586 1998.99 6063.85
endloop
endfacet
facet normal 0.148976 0.977554 0.148976
outer loop
vertex 674.14 1998.99 5710.3
vertex 320.586 1998.99 6063.85
vertex 688.795 1994.52 5724.95
endloop
endfacet
facet normal 0.148976 0.977554 0.148976
outer loop
vertex 688.795 1994.52 5724.95
vertex 320.586 1998.99 6063.85
vertex 335.241 1994.52 6078.51
endloop
endfacet
facet normal 0.26365 0.927889 0.26365
outer loop
vertex 688.795 1994.52 5724.95
vertex 335.241 1994.52 6078.51
vertex 702.705 1986.62 5738.86
endloop
endfacet
facet normal 0.263646 0.927891 0.263646
outer loop
vertex 702.705 1986.62 5738.86
vertex 335.241 1994.52 6078.51
vertex 349.152 1986.62 6092.42
endloop
endfacet
facet normal 0.370739 0.851531 0.370739
outer loop
vertex 702.705 1986.62 5738.86
vertex 349.152 1986.62 6092.42
vertex 715.471 1975.5 5751.63
endloop
endfacet
facet normal 0.370744 0.851527 0.370744
outer loop
vertex 715.471 1975.5 5751.63
vertex 349.152 1986.62 6092.42
vertex 361.917 1975.5 6105.18
endloop
endfacet
facet normal 0.467168 0.750672 0.467168
outer loop
vertex 715.471 1975.5 5751.63
vertex 361.917 1975.5 6105.18
vertex 726.725 1961.49 5762.88
endloop
endfacet
facet normal 0.467168 0.750672 0.467168
outer loop
vertex 726.725 1961.49 5762.88
vertex 361.917 1975.5 6105.18
vertex 373.171 1961.49 6116.44
endloop
endfacet
facet normal 0.55015 0.628227 0.550151
outer loop
vertex 726.725 1961.49 5762.88
vertex 373.171 1961.49 6116.44
vertex 736.143 1945 5772.3
endloop
endfacet
facet normal 0.550151 0.628226 0.550151
outer loop
vertex 736.143 1945 5772.3
vertex 373.171 1961.49 6116.44
vertex 382.59 1945 6125.85
endloop
endfacet
facet normal 0.617313 0.487698 0.617313
outer loop
vertex 736.143 1945 5772.3
vertex 382.59 1945 6125.85
vertex 743.454 1926.49 5779.61
endloop
endfacet
facet normal 0.617313 0.487698 0.617313
outer loop
vertex 743.454 1926.49 5779.61
vertex 382.59 1945 6125.85
vertex 389.901 1926.49 6133.17
endloop
endfacet
facet normal 0.666716 0.333134 0.666716
outer loop
vertex 743.454 1926.49 5779.61
vertex 389.901 1926.49 6133.17
vertex 748.449 1906.5 5784.61
endloop
endfacet
facet normal 0.666716 0.333135 0.666716
outer loop
vertex 748.449 1906.5 5784.61
vertex 389.901 1926.49 6133.17
vertex 394.896 1906.5 6138.16
endloop
endfacet
facet normal 0.696938 0.168983 0.696938
outer loop
vertex 748.449 1906.5 5784.61
vertex 394.896 1906.5 6138.16
vertex 750.982 1885.6 5787.14
endloop
endfacet
facet normal 0.696937 0.168997 0.696936
outer loop
vertex 750.982 1885.6 5787.14
vertex 394.896 1906.5 6138.16
vertex 397.429 1885.6 6140.69
endloop
endfacet
facet normal 0.707107 0 0.707106
outer loop
vertex 750.982 1885.6 5787.14
vertex 397.429 1885.6 6140.69
vertex 750.982 1864.4 5787.14
endloop
endfacet
facet normal 0.707107 0 0.707106
outer loop
vertex 750.982 1864.4 5787.14
vertex 397.429 1885.6 6140.69
vertex 397.429 1864.4 6140.69
endloop
endfacet
facet normal 0.696938 -0.168983 0.696938
outer loop
vertex 750.982 1864.4 5787.14
vertex 397.429 1864.4 6140.69
vertex 748.449 1843.5 5784.61
endloop
endfacet
facet normal 0.696936 -0.168997 0.696936
outer loop
vertex 748.449 1843.5 5784.61
vertex 397.429 1864.4 6140.69
vertex 394.896 1843.5 6138.16
endloop
endfacet
facet normal 0.666716 -0.333134 0.666716
outer loop
vertex 748.449 1843.5 5784.61
vertex 394.896 1843.5 6138.16
vertex 743.454 1823.51 5779.61
endloop
endfacet
facet normal 0.666716 -0.333135 0.666716
outer loop
vertex 743.454 1823.51 5779.61
vertex 394.896 1843.5 6138.16
vertex 389.901 1823.51 6133.17
endloop
endfacet
facet normal 0.617313 -0.487698 0.617313
outer loop
vertex 743.454 1823.51 5779.61
vertex 389.901 1823.51 6133.17
vertex 736.143 1805 5772.3
endloop
endfacet
facet normal 0.617313 -0.487698 0.617313
outer loop
vertex 736.143 1805 5772.3
vertex 389.901 1823.51 6133.17
vertex 382.59 1805 6125.85
endloop
endfacet
facet normal 0.55015 -0.628227 0.550151
outer loop
vertex 736.143 1805 5772.3
vertex 382.59 1805 6125.85
vertex 726.725 1788.51 5762.88
endloop
endfacet
facet normal 0.550151 -0.628226 0.550151
outer loop
vertex 726.725 1788.51 5762.88
vertex 382.59 1805 6125.85
vertex 373.171 1788.51 6116.44
endloop
endfacet
facet normal 0.467168 -0.750672 0.467168
outer loop
vertex 726.725 1788.51 5762.88
vertex 373.171 1788.51 6116.44
vertex 715.471 1774.5 5751.63
endloop
endfacet
facet normal 0.467168 -0.750672 0.467168
outer loop
vertex 715.471 1774.5 5751.63
vertex 373.171 1788.51 6116.44
vertex 361.917 1774.5 6105.18
endloop
endfacet
facet normal 0.370739 -0.851531 0.370739
outer loop
vertex 715.471 1774.5 5751.63
vertex 361.917 1774.5 6105.18
vertex 702.705 1763.38 5738.86
endloop
endfacet
facet normal 0.370744 -0.851527 0.370744
outer loop
vertex 702.705 1763.38 5738.86
vertex 361.917 1774.5 6105.18
vertex 349.152 1763.38 6092.42
endloop
endfacet
facet normal 0.26365 -0.927889 0.26365
outer loop
vertex 702.705 1763.38 5738.86
vertex 349.152 1763.38 6092.42
vertex 688.795 1755.48 5724.95
endloop
endfacet
facet normal 0.263646 -0.927891 0.263646
outer loop
vertex 688.795 1755.48 5724.95
vertex 349.152 1763.38 6092.42
vertex 335.241 1755.48 6078.51
endloop
endfacet
facet normal 0.148976 -0.977554 0.148976
outer loop
vertex 688.795 1755.48 5724.95
vertex 335.241 1755.48 6078.51
vertex 674.14 1751.01 5710.3
endloop
endfacet
facet normal 0.148976 -0.977554 0.148976
outer loop
vertex 674.14 1751.01 5710.3
vertex 335.241 1755.48 6078.51
vertex 320.586 1751.01 6063.85
endloop
endfacet
facet normal 0.0300092 -0.999099 0.0300092
outer loop
vertex 674.14 1751.01 5710.3
vertex 320.586 1751.01 6063.85
vertex 659.161 1750.11 5695.32
endloop
endfacet
facet normal 0.0300092 -0.999099 0.0300092
outer loop
vertex 659.161 1750.11 5695.32
vertex 320.586 1751.01 6063.85
vertex 305.608 1750.11 6048.87
endloop
endfacet
facet normal -0.0898129 -0.991901 -0.0898129
outer loop
vertex 659.161 1750.11 5695.32
vertex 305.608 1750.11 6048.87
vertex 644.291 1752.81 5680.45
endloop
endfacet
facet normal -0.089813 -0.991901 -0.089813
outer loop
vertex 644.291 1752.81 5680.45
vertex 305.608 1750.11 6048.87
vertex 290.738 1752.81 6034
endloop
endfacet
facet normal -0.207057 -0.956167 -0.207057
outer loop
vertex 644.291 1752.81 5680.45
vertex 290.738 1752.81 6034
vertex 629.956 1759.01 5666.11
endloop
endfacet
facet normal -0.207057 -0.956167 -0.207057
outer loop
vertex 629.956 1759.01 5666.11
vertex 290.738 1752.81 6034
vertex 276.403 1759.01 6019.67
endloop
endfacet
facet normal -0.318341 -0.892927 -0.318341
outer loop
vertex 629.956 1759.01 5666.11
vertex 276.403 1759.01 6019.67
vertex 616.57 1768.56 5652.73
endloop
endfacet
facet normal -0.318336 -0.89293 -0.318336
outer loop
vertex 616.57 1768.56 5652.73
vertex 276.403 1759.01 6019.67
vertex 263.016 1768.56 6006.28
endloop
endfacet
facet normal -0.420474 -0.803992 -0.420475
outer loop
vertex 616.57 1768.56 5652.73
vertex 263.016 1768.56 6006.28
vertex 604.516 1781.17 5640.67
endloop
endfacet
facet normal -0.42048 -0.803986 -0.42048
outer loop
vertex 604.516 1781.17 5640.67
vertex 263.016 1768.56 6006.28
vertex 250.963 1781.17 5994.23
endloop
endfacet
facet normal -0.51049 -0.691954 -0.51049
outer loop
vertex 604.516 1781.17 5640.67
vertex 250.963 1781.17 5994.23
vertex 594.143 1796.47 5630.3
endloop
endfacet
facet normal -0.510495 -0.691947 -0.510494
outer loop
vertex 594.143 1796.47 5630.3
vertex 250.963 1781.17 5994.23
vertex 240.59 1796.47 5983.85
endloop
endfacet
facet normal -0.585853 -0.559959 -0.585852
outer loop
vertex 594.143 1796.47 5630.3
vertex 240.59 1796.47 5983.85
vertex 585.748 1814.04 5621.91
endloop
endfacet
facet normal -0.585848 -0.559969 -0.585848
outer loop
vertex 585.748 1814.04 5621.91
vertex 240.59 1796.47 5983.85
vertex 232.195 1814.04 5975.46
endloop
endfacet
facet normal -0.644339 -0.411891 -0.644339
outer loop
vertex 585.748 1814.04 5621.91
vertex 232.195 1814.04 5975.46
vertex 579.573 1833.36 5615.73
endloop
endfacet
facet normal -0.644339 -0.411892 -0.644339
outer loop
vertex 579.573 1833.36 5615.73
vertex 232.195 1814.04 5975.46
vertex 226.02 1833.36 5969.28
endloop
endfacet
facet normal -0.684286 -0.252 -0.684287
outer loop
vertex 579.573 1833.36 5615.73
vertex 226.02 1833.36 5969.28
vertex 575.796 1853.87 5611.95
endloop
endfacet
facet normal -0.684287 -0.251999 -0.684287
outer loop
vertex 575.796 1853.87 5611.95
vertex 226.02 1833.36 5969.28
vertex 222.242 1853.87 5965.51
endloop
endfacet
facet normal -0.704559 -0.0848043 -0.70456
outer loop
vertex 575.796 1853.87 5611.95
vertex 222.242 1853.87 5965.51
vertex 574.524 1875 5610.68
endloop
endfacet
facet normal -0.704559 -0.0848048 -0.70456
outer loop
vertex 574.524 1875 5610.68
vertex 222.242 1853.87 5965.51
vertex 220.971 1875 5964.23
endloop
endfacet
facet normal -0.704559 0.0848043 -0.70456
outer loop
vertex 574.524 1875 5610.68
vertex 220.971 1875 5964.23
vertex 575.796 1896.13 5611.95
endloop
endfacet
facet normal -0.704559 0.0848048 -0.70456
outer loop
vertex 575.796 1896.13 5611.95
vertex 220.971 1875 5964.23
vertex 222.242 1896.13 5965.51
endloop
endfacet
endsolid
