solid C:\Temp\NOELParts\TISCREW12.STL created by CtrlView V2.70
facet normal 0 0 -1
outer loop
vertex 238.199 309.901 0
vertex 253.362 305.258 0
vertex 267.523 298.118 0
endloop
endfacet
facet normal 0 0 -1
outer loop
vertex 312 218.5 0
vertex 310.655 202.698 0
vertex 310.655 234.302 0
endloop
endfacet
facet normal 0 0 -1
outer loop
vertex 310.655 234.302 0
vertex 310.655 202.698 0
vertex 128.017 242.06 0
endloop
endfacet
facet normal 0 0 -1
outer loop
vertex 125.337 226.429 0
vertex 128.017 242.06 0
vertex 125.337 210.571 0
endloop
endfacet
facet normal 0 0 -1
outer loop
vertex 125.337 210.571 0
vertex 128.017 242.06 0
vertex 310.655 202.698 0
endloop
endfacet
facet normal 0 0 -1
outer loop
vertex 125.337 210.571 0
vertex 310.655 202.698 0
vertex 128.017 194.94 0
endloop
endfacet
facet normal 0 0 -1
outer loop
vertex 128.017 194.94 0
vertex 310.655 202.698 0
vertex 306.659 187.351 0
endloop
endfacet
facet normal 0 0 -1
outer loop
vertex 128.017 242.06 0
vertex 133.3 257.013 0
vertex 267.523 298.118 0
endloop
endfacet
facet normal 0 0 -1
outer loop
vertex 267.523 298.118 0
vertex 133.3 257.013 0
vertex 141.034 270.858 0
endloop
endfacet
facet normal 0 0 -1
outer loop
vertex 306.659 249.649 0
vertex 310.655 234.302 0
vertex 300.127 264.099 0
endloop
endfacet
facet normal 0 0 -1
outer loop
vertex 300.127 264.099 0
vertex 310.655 234.302 0
vertex 128.017 242.06 0
endloop
endfacet
facet normal 0 0 -1
outer loop
vertex 300.127 264.099 0
vertex 128.017 242.06 0
vertex 291.246 277.239 0
endloop
endfacet
facet normal 0 0 -1
outer loop
vertex 291.246 277.239 0
vertex 128.017 242.06 0
vertex 267.523 298.118 0
endloop
endfacet
facet normal 0 0 -1
outer loop
vertex 291.246 277.239 0
vertex 267.523 298.118 0
vertex 280.273 288.688 0
endloop
endfacet
facet normal 0 0 -1
outer loop
vertex 133.3 179.987 0
vertex 128.017 194.94 0
vertex 141.034 166.142 0
endloop
endfacet
facet normal 0 0 -1
outer loop
vertex 141.034 166.142 0
vertex 128.017 194.94 0
vertex 267.523 138.882 0
endloop
endfacet
facet normal 0 0 -1
outer loop
vertex 280.273 148.312 0
vertex 267.523 138.882 0
vertex 291.246 159.761 0
endloop
endfacet
facet normal 0 0 -1
outer loop
vertex 291.246 159.761 0
vertex 267.523 138.882 0
vertex 128.017 194.94 0
endloop
endfacet
facet normal 0 0 -1
outer loop
vertex 291.246 159.761 0
vertex 128.017 194.94 0
vertex 300.127 172.901 0
endloop
endfacet
facet normal 0 0 -1
outer loop
vertex 300.127 172.901 0
vertex 128.017 194.94 0
vertex 306.659 187.351 0
endloop
endfacet
facet normal 0 0 -1
outer loop
vertex 191.121 307.902 0
vertex 206.624 311.243 0
vertex 176.406 301.989 0
endloop
endfacet
facet normal 0 0 -1
outer loop
vertex 176.406 301.989 0
vertex 206.624 311.243 0
vertex 222.468 311.916 0
endloop
endfacet
facet normal 0 0 -1
outer loop
vertex 267.523 138.882 0
vertex 253.362 131.742 0
vertex 238.199 127.099 0
endloop
endfacet
facet normal 0 0 -1
outer loop
vertex 206.624 125.757 0
vertex 191.121 129.098 0
vertex 222.468 125.084 0
endloop
endfacet
facet normal 0 0 -1
outer loop
vertex 222.468 125.084 0
vertex 191.121 129.098 0
vertex 176.406 135.011 0
endloop
endfacet
facet normal 0 0 -1
outer loop
vertex 150.997 153.804 0
vertex 141.034 166.142 0
vertex 162.902 143.326 0
endloop
endfacet
facet normal 0 0 -1
outer loop
vertex 162.902 143.326 0
vertex 141.034 166.142 0
vertex 267.523 138.882 0
endloop
endfacet
facet normal 0 0 -1
outer loop
vertex 162.902 143.326 0
vertex 267.523 138.882 0
vertex 176.406 135.011 0
endloop
endfacet
facet normal 0 0 -1
outer loop
vertex 176.406 135.011 0
vertex 267.523 138.882 0
vertex 238.199 127.099 0
endloop
endfacet
facet normal 0 0 -1
outer loop
vertex 176.406 135.011 0
vertex 238.199 127.099 0
vertex 222.468 125.084 0
endloop
endfacet
facet normal 0 0 -1
outer loop
vertex 222.468 311.916 0
vertex 238.199 309.901 0
vertex 176.406 301.989 0
endloop
endfacet
facet normal 0 0 -1
outer loop
vertex 176.406 301.989 0
vertex 238.199 309.901 0
vertex 267.523 298.118 0
endloop
endfacet
facet normal 0 0 -1
outer loop
vertex 176.406 301.989 0
vertex 267.523 298.118 0
vertex 162.902 293.674 0
endloop
endfacet
facet normal 0 0 -1
outer loop
vertex 162.902 293.674 0
vertex 267.523 298.118 0
vertex 141.034 270.858 0
endloop
endfacet
facet normal 0 0 -1
outer loop
vertex 162.902 293.674 0
vertex 141.034 270.858 0
vertex 150.997 283.196 0
endloop
endfacet
facet normal 0 0 1
outer loop
vertex 146.169 93.5 444
vertex 290.831 93.5 444
vertex 74.0001 218.5 444
endloop
endfacet
facet normal 0 0 1
outer loop
vertex 74.0001 218.5 444
vertex 290.831 93.5 444
vertex 363 218.5 444
endloop
endfacet
facet normal 0 0 1
outer loop
vertex 74.0001 218.5 444
vertex 363 218.5 444
vertex 146.169 343.5 444
endloop
endfacet
facet normal 0 0 1
outer loop
vertex 146.169 343.5 444
vertex 363 218.5 444
vertex 290.831 343.5 444
endloop
endfacet
facet normal 0.967735 0.25197 0
outer loop
vertex 310.655 234.302 382
vertex 310.655 234.302 0
vertex 306.659 249.649 382
endloop
endfacet
facet normal 0.967735 0.25197 0
outer loop
vertex 306.659 249.649 382
vertex 310.655 234.302 0
vertex 306.659 249.649 0
endloop
endfacet
facet normal 0.911229 0.4119 0
outer loop
vertex 306.659 249.649 382
vertex 306.659 249.649 0
vertex 300.127 264.099 382
endloop
endfacet
facet normal 0.911229 0.4119 0
outer loop
vertex 300.127 264.099 382
vertex 306.659 249.649 0
vertex 300.127 264.099 0
endloop
endfacet
facet normal 0.828506 0.55998 0
outer loop
vertex 300.127 264.099 382
vertex 300.127 264.099 0
vertex 291.246 277.239 382
endloop
endfacet
facet normal 0.828506 0.55998 0
outer loop
vertex 291.246 277.239 382
vertex 300.127 264.099 0
vertex 291.246 277.239 0
endloop
endfacet
facet normal 0.721956 0.691939 0
outer loop
vertex 291.246 277.239 382
vertex 291.246 277.239 0
vertex 280.273 288.688 382
endloop
endfacet
facet normal 0.721956 0.691939 0
outer loop
vertex 280.273 288.688 382
vertex 291.246 277.239 0
vertex 280.273 288.688 0
endloop
endfacet
facet normal 0.594634 0.803996 0
outer loop
vertex 280.273 288.688 382
vertex 280.273 288.688 0
vertex 267.523 298.118 382
endloop
endfacet
facet normal 0.594634 0.803996 0
outer loop
vertex 267.523 298.118 382
vertex 280.273 288.688 0
vertex 267.523 298.118 0
endloop
endfacet
facet normal 0.450201 0.892927 0
outer loop
vertex 267.523 298.118 382
vertex 267.523 298.118 0
vertex 253.362 305.258 382
endloop
endfacet
facet normal 0.450201 0.892927 0
outer loop
vertex 253.362 305.258 382
vertex 267.523 298.118 0
vertex 253.362 305.258 0
endloop
endfacet
facet normal 0.292822 0.956167 0
outer loop
vertex 253.362 305.258 382
vertex 253.362 305.258 0
vertex 238.199 309.901 382
endloop
endfacet
facet normal 0.292822 0.956167 0
outer loop
vertex 238.199 309.901 382
vertex 253.362 305.258 0
vertex 238.199 309.901 0
endloop
endfacet
facet normal 0.127021 0.9919 0
outer loop
vertex 238.199 309.901 382
vertex 238.199 309.901 0
vertex 222.468 311.916 382
endloop
endfacet
facet normal 0.127021 0.9919 0
outer loop
vertex 222.468 311.916 382
vertex 238.199 309.901 0
vertex 222.468 311.916 0
endloop
endfacet
facet normal -0.0424396 0.999099 0
outer loop
vertex 222.468 311.916 382
vertex 222.468 311.916 0
vertex 206.624 311.243 382
endloop
endfacet
facet normal -0.0424396 0.999099 0
outer loop
vertex 206.624 311.243 382
vertex 222.468 311.916 0
vertex 206.624 311.243 0
endloop
endfacet
facet normal -0.210677 0.977556 0
outer loop
vertex 206.624 311.243 382
vertex 206.624 311.243 0
vertex 191.121 307.902 382
endloop
endfacet
facet normal -0.210677 0.977556 0
outer loop
vertex 191.121 307.902 382
vertex 206.624 311.243 0
vertex 191.121 307.902 0
endloop
endfacet
facet normal -0.37286 0.927887 0
outer loop
vertex 191.121 307.902 382
vertex 191.121 307.902 0
vertex 176.406 301.989 382
endloop
endfacet
facet normal -0.37286 0.927887 0
outer loop
vertex 176.406 301.989 382
vertex 191.121 307.902 0
vertex 176.406 301.989 0
endloop
endfacet
facet normal -0.524304 0.851531 0
outer loop
vertex 176.406 301.989 382
vertex 176.406 301.989 0
vertex 162.902 293.674 382
endloop
endfacet
facet normal -0.524304 0.851531 0
outer loop
vertex 162.902 293.674 382
vertex 176.406 301.989 0
vertex 162.902 293.674 0
endloop
endfacet
facet normal -0.660674 0.750673 0
outer loop
vertex 162.902 293.674 382
vertex 162.902 293.674 0
vertex 150.997 283.196 382
endloop
endfacet
facet normal -0.660674 0.750673 0
outer loop
vertex 150.997 283.196 382
vertex 162.902 293.674 0
vertex 150.997 283.196 0
endloop
endfacet
facet normal -0.778037 0.628218 0
outer loop
vertex 150.997 283.196 382
vertex 150.997 283.196 0
vertex 141.034 270.858 382
endloop
endfacet
facet normal -0.778037 0.628218 0
outer loop
vertex 141.034 270.858 382
vertex 150.997 283.196 0
vertex 141.034 270.858 0
endloop
endfacet
facet normal -0.873018 0.487688 0
outer loop
vertex 141.034 270.858 382
vertex 141.034 270.858 0
vertex 133.3 257.013 382
endloop
endfacet
facet normal -0.873018 0.487688 0
outer loop
vertex 133.3 257.013 382
vertex 141.034 270.858 0
vertex 133.3 257.013 0
endloop
endfacet
facet normal -0.942878 0.333138 0
outer loop
vertex 133.3 257.013 382
vertex 133.3 257.013 0
vertex 128.017 242.06 382
endloop
endfacet
facet normal -0.942878 0.333138 0
outer loop
vertex 128.017 242.06 382
vertex 133.3 257.013 0
vertex 128.017 242.06 0
endloop
endfacet
facet normal -0.985614 0.169011 0
outer loop
vertex 128.017 242.06 382
vertex 128.017 242.06 0
vertex 125.337 226.429 382
endloop
endfacet
facet normal -0.985614 0.169011 0
outer loop
vertex 125.337 226.429 382
vertex 128.017 242.06 0
vertex 125.337 226.429 0
endloop
endfacet
facet normal -1 0 0
outer loop
vertex 125.337 226.429 382
vertex 125.337 226.429 0
vertex 125.337 210.571 382
endloop
endfacet
facet normal -1 0 0
outer loop
vertex 125.337 210.571 382
vertex 125.337 226.429 0
vertex 125.337 210.571 0
endloop
endfacet
facet normal -0.985614 -0.169011 0
outer loop
vertex 125.337 210.571 382
vertex 125.337 210.571 0
vertex 128.017 194.94 382
endloop
endfacet
facet normal -0.985614 -0.169011 0
outer loop
vertex 128.017 194.94 382
vertex 125.337 210.571 0
vertex 128.017 194.94 0
endloop
endfacet
facet normal -0.942879 -0.333136 0
outer loop
vertex 128.017 194.94 382
vertex 128.017 194.94 0
vertex 133.3 179.987 382
endloop
endfacet
facet normal -0.942879 -0.333136 0
outer loop
vertex 133.3 179.987 382
vertex 128.017 194.94 0
vertex 133.3 179.987 0
endloop
endfacet
facet normal -0.873018 -0.487688 0
outer loop
vertex 133.3 179.987 382
vertex 133.3 179.987 0
vertex 141.034 166.142 382
endloop
endfacet
facet normal -0.873018 -0.487688 0
outer loop
vertex 141.034 166.142 382
vertex 133.3 179.987 0
vertex 141.034 166.142 0
endloop
endfacet
facet normal -0.778034 -0.628222 0
outer loop
vertex 141.034 166.142 382
vertex 141.034 166.142 0
vertex 150.997 153.804 382
endloop
endfacet
facet normal -0.778034 -0.628222 0
outer loop
vertex 150.997 153.804 382
vertex 141.034 166.142 0
vertex 150.997 153.804 0
endloop
endfacet
facet normal -0.660673 -0.750674 0
outer loop
vertex 150.997 153.804 382
vertex 150.997 153.804 0
vertex 162.902 143.326 382
endloop
endfacet
facet normal -0.660673 -0.750674 0
outer loop
vertex 162.902 143.326 382
vertex 150.997 153.804 0
vertex 162.902 143.326 0
endloop
endfacet
facet normal -0.524305 -0.851531 0
outer loop
vertex 162.902 143.326 382
vertex 162.902 143.326 0
vertex 176.406 135.011 382
endloop
endfacet
facet normal -0.524305 -0.851531 0
outer loop
vertex 176.406 135.011 382
vertex 162.902 143.326 0
vertex 176.406 135.011 0
endloop
endfacet
facet normal -0.37286 -0.927888 0
outer loop
vertex 176.406 135.011 382
vertex 176.406 135.011 0
vertex 191.121 129.098 382
endloop
endfacet
facet normal -0.37286 -0.927888 0
outer loop
vertex 191.121 129.098 382
vertex 176.406 135.011 0
vertex 191.121 129.098 0
endloop
endfacet
facet normal -0.210676 -0.977556 0
outer loop
vertex 191.121 129.098 382
vertex 191.121 129.098 0
vertex 206.624 125.757 382
endloop
endfacet
facet normal -0.210676 -0.977556 0
outer loop
vertex 206.624 125.757 382
vertex 191.121 129.098 0
vertex 206.624 125.757 0
endloop
endfacet
facet normal -0.042441 -0.999099 0
outer loop
vertex 206.624 125.757 382
vertex 206.624 125.757 0
vertex 222.468 125.084 382
endloop
endfacet
facet normal -0.042441 -0.999099 0
outer loop
vertex 222.468 125.084 382
vertex 206.624 125.757 0
vertex 222.468 125.084 0
endloop
endfacet
facet normal 0.127015 -0.991901 0
outer loop
vertex 222.468 125.084 382
vertex 222.468 125.084 0
vertex 238.199 127.099 382
endloop
endfacet
facet normal 0.127015 -0.991901 0
outer loop
vertex 238.199 127.099 382
vertex 222.468 125.084 0
vertex 238.199 127.099 0
endloop
endfacet
facet normal 0.292822 -0.956167 0
outer loop
vertex 238.199 127.099 382
vertex 238.199 127.099 0
vertex 253.362 131.742 382
endloop
endfacet
facet normal 0.292822 -0.956167 0
outer loop
vertex 253.362 131.742 382
vertex 238.199 127.099 0
vertex 253.362 131.742 0
endloop
endfacet
facet normal 0.450205 -0.892925 0
outer loop
vertex 253.362 131.742 382
vertex 253.362 131.742 0
vertex 267.523 138.882 382
endloop
endfacet
facet normal 0.450205 -0.892925 0
outer loop
vertex 267.523 138.882 382
vertex 253.362 131.742 0
vertex 267.523 138.882 0
endloop
endfacet
facet normal 0.59463 -0.803999 0
outer loop
vertex 267.523 138.882 382
vertex 267.523 138.882 0
vertex 280.273 148.312 382
endloop
endfacet
facet normal 0.59463 -0.803999 0
outer loop
vertex 280.273 148.312 382
vertex 267.523 138.882 0
vertex 280.273 148.312 0
endloop
endfacet
facet normal 0.721959 -0.691936 0
outer loop
vertex 280.273 148.312 382
vertex 280.273 148.312 0
vertex 291.246 159.761 382
endloop
endfacet
facet normal 0.721959 -0.691936 0
outer loop
vertex 291.246 159.761 382
vertex 280.273 148.312 0
vertex 291.246 159.761 0
endloop
endfacet
facet normal 0.828506 -0.55998 0
outer loop
vertex 291.246 159.761 382
vertex 291.246 159.761 0
vertex 300.127 172.901 382
endloop
endfacet
facet normal 0.828506 -0.55998 0
outer loop
vertex 300.127 172.901 382
vertex 291.246 159.761 0
vertex 300.127 172.901 0
endloop
endfacet
facet normal 0.911229 -0.4119 0
outer loop
vertex 300.127 172.901 382
vertex 300.127 172.901 0
vertex 306.659 187.351 382
endloop
endfacet
facet normal 0.911229 -0.4119 0
outer loop
vertex 306.659 187.351 382
vertex 300.127 172.901 0
vertex 306.659 187.351 0
endloop
endfacet
facet normal 0.967735 -0.25197 0
outer loop
vertex 306.659 187.351 382
vertex 306.659 187.351 0
vertex 310.655 202.698 382
endloop
endfacet
facet normal 0.967735 -0.25197 0
outer loop
vertex 310.655 202.698 382
vertex 306.659 187.351 0
vertex 310.655 202.698 0
endloop
endfacet
facet normal 0.996397 -0.0848059 0
outer loop
vertex 310.655 202.698 382
vertex 310.655 202.698 0
vertex 312 218.5 382
endloop
endfacet
facet normal 0.996397 -0.0848059 0
outer loop
vertex 312 218.5 382
vertex 310.655 202.698 0
vertex 312 218.5 0
endloop
endfacet
facet normal 0.996397 0.0848058 0
outer loop
vertex 312 218.5 382
vertex 312 218.5 0
vertex 310.655 234.302 382
endloop
endfacet
facet normal 0.996397 0.0848058 0
outer loop
vertex 310.655 234.302 382
vertex 312 218.5 0
vertex 310.655 234.302 0
endloop
endfacet
facet normal -0.866025 -0.5 0
outer loop
vertex 363 218.5 444
vertex 363 218.5 569
vertex 290.831 343.5 444
endloop
endfacet
facet normal -0.866025 -0.5 0
outer loop
vertex 290.831 343.5 444
vertex 363 218.5 569
vertex 290.831 343.5 569
endloop
endfacet
facet normal -0.866025 0.5 0
outer loop
vertex 290.831 93.5 444
vertex 290.831 93.5 569
vertex 363 218.5 444
endloop
endfacet
facet normal -0.866025 0.5 0
outer loop
vertex 363 218.5 444
vertex 290.831 93.5 569
vertex 363 218.5 569
endloop
endfacet
facet normal 0 1 0
outer loop
vertex 146.169 93.5 444
vertex 146.169 93.5 569
vertex 290.831 93.5 444
endloop
endfacet
facet normal 0 1 0
outer loop
vertex 290.831 93.5 444
vertex 146.169 93.5 569
vertex 290.831 93.5 569
endloop
endfacet
facet normal 0.866025 0.5 0
outer loop
vertex 74.0001 218.5 444
vertex 74.0001 218.5 569
vertex 146.169 93.5 444
endloop
endfacet
facet normal 0.866025 0.5 0
outer loop
vertex 146.169 93.5 444
vertex 74.0001 218.5 569
vertex 146.169 93.5 569
endloop
endfacet
facet normal 0.866025 -0.5 0
outer loop
vertex 146.169 343.5 444
vertex 146.169 343.5 569
vertex 74.0001 218.5 444
endloop
endfacet
facet normal 0.866025 -0.5 0
outer loop
vertex 74.0001 218.5 444
vertex 146.169 343.5 569
vertex 74.0001 218.5 569
endloop
endfacet
facet normal 0 -1 0
outer loop
vertex 290.831 343.5 444
vertex 290.831 343.5 569
vertex 146.169 343.5 444
endloop
endfacet
facet normal 0 -1 0
outer loop
vertex 146.169 343.5 444
vertex 290.831 343.5 569
vertex 146.169 343.5 569
endloop
endfacet
facet normal 0 0 -1
outer loop
vertex 125.337 210.571 382
vertex 0 218.5 382
vertex 125.337 226.429 382
endloop
endfacet
facet normal 0 0 -1
outer loop
vertex 125.337 226.429 382
vertex 0 218.5 382
vertex 1.59311 244.837 382
endloop
endfacet
facet normal 0 0 -1
outer loop
vertex 125.337 226.429 382
vertex 1.59311 244.837 382
vertex 128.017 242.06 382
endloop
endfacet
facet normal 0 0 -1
outer loop
vertex 306.659 249.649 382
vertex 430.651 270.79 382
vertex 310.655 234.302 382
endloop
endfacet
facet normal 0 0 -1
outer loop
vertex 310.655 234.302 382
vertex 430.651 270.79 382
vertex 435.407 244.837 382
endloop
endfacet
facet normal 0 0 -1
outer loop
vertex 310.655 234.302 382
vertex 435.407 244.837 382
vertex 312 218.5 382
endloop
endfacet
facet normal 0 0 -1
outer loop
vertex 312 218.5 382
vertex 435.407 244.837 382
vertex 437 218.5 382
endloop
endfacet
facet normal 0 0 -1
outer loop
vertex 312 218.5 382
vertex 437 218.5 382
vertex 310.655 202.698 382
endloop
endfacet
facet normal 0 0 -1
outer loop
vertex 1.59311 244.837 382
vertex 6.34933 270.79 382
vertex 128.017 242.06 382
endloop
endfacet
facet normal 0 0 -1
outer loop
vertex 128.017 242.06 382
vertex 6.34933 270.79 382
vertex 14.199 295.981 382
endloop
endfacet
facet normal 0 0 -1
outer loop
vertex 128.017 242.06 382
vertex 14.199 295.981 382
vertex 133.3 257.013 382
endloop
endfacet
facet normal 0 0 -1
outer loop
vertex 133.3 257.013 382
vertex 14.199 295.981 382
vertex 25.028 320.042 382
endloop
endfacet
facet normal 0 0 -1
outer loop
vertex 133.3 257.013 382
vertex 25.028 320.042 382
vertex 141.034 270.858 382
endloop
endfacet
facet normal 0 0 -1
outer loop
vertex 141.034 270.858 382
vertex 25.028 320.042 382
vertex 38.6782 342.622 382
endloop
endfacet
facet normal 0 0 -1
outer loop
vertex 141.034 270.858 382
vertex 38.6782 342.622 382
vertex 150.997 283.196 382
endloop
endfacet
facet normal 0 0 -1
outer loop
vertex 133.3 179.987 382
vertex 14.199 141.019 382
vertex 128.017 194.94 382
endloop
endfacet
facet normal 0 0 -1
outer loop
vertex 128.017 194.94 382
vertex 14.199 141.019 382
vertex 6.34933 166.209 382
endloop
endfacet
facet normal 0 0 -1
outer loop
vertex 128.017 194.94 382
vertex 6.34933 166.209 382
vertex 125.337 210.571 382
endloop
endfacet
facet normal 0 0 -1
outer loop
vertex 125.337 210.571 382
vertex 6.34933 166.209 382
vertex 1.59311 192.163 382
endloop
endfacet
facet normal 0 0 -1
outer loop
vertex 125.337 210.571 382
vertex 1.59311 192.163 382
vertex 0 218.5 382
endloop
endfacet
facet normal 0 0 -1
outer loop
vertex 300.127 172.901 382
vertex 398.322 94.3779 382
vertex 291.246 159.761 382
endloop
endfacet
facet normal 0 0 -1
outer loop
vertex 291.246 159.761 382
vertex 398.322 94.3779 382
vertex 382.05 73.6077 382
endloop
endfacet
facet normal 0 0 -1
outer loop
vertex 291.246 159.761 382
vertex 382.05 73.6077 382
vertex 280.273 148.312 382
endloop
endfacet
facet normal 0 0 -1
outer loop
vertex 280.273 148.312 382
vertex 382.05 73.6077 382
vertex 363.392 54.9504 382
endloop
endfacet
facet normal 0 0 -1
outer loop
vertex 280.273 148.312 382
vertex 363.392 54.9504 382
vertex 267.523 138.882 382
endloop
endfacet
facet normal 0 0 -1
outer loop
vertex 437 218.5 382
vertex 435.407 192.163 382
vertex 310.655 202.698 382
endloop
endfacet
facet normal 0 0 -1
outer loop
vertex 310.655 202.698 382
vertex 435.407 192.163 382
vertex 430.651 166.209 382
endloop
endfacet
facet normal 0 0 -1
outer loop
vertex 310.655 202.698 382
vertex 430.651 166.209 382
vertex 306.659 187.351 382
endloop
endfacet
facet normal 0 0 -1
outer loop
vertex 306.659 187.351 382
vertex 430.651 166.209 382
vertex 422.801 141.019 382
endloop
endfacet
facet normal 0 0 -1
outer loop
vertex 306.659 187.351 382
vertex 422.801 141.019 382
vertex 300.127 172.901 382
endloop
endfacet
facet normal 0 0 -1
outer loop
vertex 300.127 172.901 382
vertex 422.801 141.019 382
vertex 411.972 116.958 382
endloop
endfacet
facet normal 0 0 -1
outer loop
vertex 300.127 172.901 382
vertex 411.972 116.958 382
vertex 398.322 94.3779 382
endloop
endfacet
facet normal 0 0 -1
outer loop
vertex 253.362 305.258 382
vertex 320.042 411.972 382
vertex 267.523 298.118 382
endloop
endfacet
facet normal 0 0 -1
outer loop
vertex 267.523 298.118 382
vertex 320.042 411.972 382
vertex 342.622 398.322 382
endloop
endfacet
facet normal 0 0 -1
outer loop
vertex 267.523 298.118 382
vertex 342.622 398.322 382
vertex 280.273 288.688 382
endloop
endfacet
facet normal 0 0 -1
outer loop
vertex 280.273 288.688 382
vertex 342.622 398.322 382
vertex 363.392 382.05 382
endloop
endfacet
facet normal 0 0 -1
outer loop
vertex 280.273 288.688 382
vertex 363.392 382.05 382
vertex 291.246 277.239 382
endloop
endfacet
facet normal 0 0 -1
outer loop
vertex 363.392 54.9504 382
vertex 342.622 38.6781 382
vertex 267.523 138.882 382
endloop
endfacet
facet normal 0 0 -1
outer loop
vertex 267.523 138.882 382
vertex 342.622 38.6781 382
vertex 320.042 25.0279 382
endloop
endfacet
facet normal 0 0 -1
outer loop
vertex 267.523 138.882 382
vertex 320.042 25.0279 382
vertex 253.362 131.742 382
endloop
endfacet
facet normal 0 0 -1
outer loop
vertex 253.362 131.742 382
vertex 320.042 25.0279 382
vertex 295.981 14.1989 382
endloop
endfacet
facet normal 0 0 -1
outer loop
vertex 253.362 131.742 382
vertex 295.981 14.1989 382
vertex 238.199 127.099 382
endloop
endfacet
facet normal 0 0 -1
outer loop
vertex 363.392 382.05 382
vertex 382.05 363.392 382
vertex 291.246 277.239 382
endloop
endfacet
facet normal 0 0 -1
outer loop
vertex 291.246 277.239 382
vertex 382.05 363.392 382
vertex 398.322 342.622 382
endloop
endfacet
facet normal 0 0 -1
outer loop
vertex 291.246 277.239 382
vertex 398.322 342.622 382
vertex 300.127 264.099 382
endloop
endfacet
facet normal 0 0 -1
outer loop
vertex 300.127 264.099 382
vertex 398.322 342.622 382
vertex 411.972 320.042 382
endloop
endfacet
facet normal 0 0 -1
outer loop
vertex 300.127 264.099 382
vertex 411.972 320.042 382
vertex 306.659 249.649 382
endloop
endfacet
facet normal 0 0 -1
outer loop
vertex 306.659 249.649 382
vertex 411.972 320.042 382
vertex 422.801 295.981 382
endloop
endfacet
facet normal 0 0 -1
outer loop
vertex 306.659 249.649 382
vertex 422.801 295.981 382
vertex 430.651 270.79 382
endloop
endfacet
facet normal 0 0 -1
outer loop
vertex 162.902 143.326 382
vertex 73.6079 54.9504 382
vertex 150.997 153.804 382
endloop
endfacet
facet normal 0 0 -1
outer loop
vertex 150.997 153.804 382
vertex 73.6079 54.9504 382
vertex 54.9505 73.6077 382
endloop
endfacet
facet normal 0 0 -1
outer loop
vertex 150.997 153.804 382
vertex 54.9505 73.6077 382
vertex 141.034 166.142 382
endloop
endfacet
facet normal 0 0 -1
outer loop
vertex 141.034 166.142 382
vertex 54.9505 73.6077 382
vertex 38.6782 94.3779 382
endloop
endfacet
facet normal 0 0 -1
outer loop
vertex 141.034 166.142 382
vertex 38.6782 94.3779 382
vertex 133.3 179.987 382
endloop
endfacet
facet normal 0 0 -1
outer loop
vertex 133.3 179.987 382
vertex 38.6782 94.3779 382
vertex 25.028 116.958 382
endloop
endfacet
facet normal 0 0 -1
outer loop
vertex 133.3 179.987 382
vertex 25.028 116.958 382
vertex 14.199 141.019 382
endloop
endfacet
facet normal 0 0 -1
outer loop
vertex 295.981 14.1989 382
vertex 270.791 6.34921 382
vertex 238.199 127.099 382
endloop
endfacet
facet normal 0 0 -1
outer loop
vertex 238.199 127.099 382
vertex 270.791 6.34921 382
vertex 244.837 1.59311 382
endloop
endfacet
facet normal 0 0 -1
outer loop
vertex 238.199 127.099 382
vertex 244.837 1.59311 382
vertex 222.468 125.084 382
endloop
endfacet
facet normal 0 0 -1
outer loop
vertex 222.468 125.084 382
vertex 244.837 1.59311 382
vertex 218.5 0 382
endloop
endfacet
facet normal 0 0 -1
outer loop
vertex 222.468 125.084 382
vertex 218.5 0 382
vertex 206.624 125.757 382
endloop
endfacet
facet normal 0 0 -1
outer loop
vertex 206.624 125.757 382
vertex 218.5 0 382
vertex 192.163 1.59311 382
endloop
endfacet
facet normal 0 0 -1
outer loop
vertex 206.624 125.757 382
vertex 192.163 1.59311 382
vertex 191.121 129.098 382
endloop
endfacet
facet normal 0 0 -1
outer loop
vertex 222.468 311.916 382
vertex 244.837 435.407 382
vertex 238.199 309.901 382
endloop
endfacet
facet normal 0 0 -1
outer loop
vertex 238.199 309.901 382
vertex 244.837 435.407 382
vertex 270.791 430.651 382
endloop
endfacet
facet normal 0 0 -1
outer loop
vertex 238.199 309.901 382
vertex 270.791 430.651 382
vertex 253.362 305.258 382
endloop
endfacet
facet normal 0 0 -1
outer loop
vertex 253.362 305.258 382
vertex 270.791 430.651 382
vertex 295.981 422.801 382
endloop
endfacet
facet normal 0 0 -1
outer loop
vertex 253.362 305.258 382
vertex 295.981 422.801 382
vertex 320.042 411.972 382
endloop
endfacet
facet normal 0 0 -1
outer loop
vertex 176.406 301.989 382
vertex 141.019 422.801 382
vertex 191.121 307.902 382
endloop
endfacet
facet normal 0 0 -1
outer loop
vertex 191.121 307.902 382
vertex 141.019 422.801 382
vertex 166.21 430.651 382
endloop
endfacet
facet normal 0 0 -1
outer loop
vertex 191.121 307.902 382
vertex 166.21 430.651 382
vertex 206.624 311.243 382
endloop
endfacet
facet normal 0 0 -1
outer loop
vertex 206.624 311.243 382
vertex 166.21 430.651 382
vertex 192.163 435.407 382
endloop
endfacet
facet normal 0 0 -1
outer loop
vertex 206.624 311.243 382
vertex 192.163 435.407 382
vertex 222.468 311.916 382
endloop
endfacet
facet normal 0 0 -1
outer loop
vertex 222.468 311.916 382
vertex 192.163 435.407 382
vertex 218.5 437 382
endloop
endfacet
facet normal 0 0 -1
outer loop
vertex 222.468 311.916 382
vertex 218.5 437 382
vertex 244.837 435.407 382
endloop
endfacet
facet normal 0 0 -1
outer loop
vertex 38.6782 342.622 382
vertex 54.9505 363.392 382
vertex 150.997 283.196 382
endloop
endfacet
facet normal 0 0 -1
outer loop
vertex 150.997 283.196 382
vertex 54.9505 363.392 382
vertex 73.6079 382.05 382
endloop
endfacet
facet normal 0 0 -1
outer loop
vertex 150.997 283.196 382
vertex 73.6079 382.05 382
vertex 162.902 293.674 382
endloop
endfacet
facet normal 0 0 -1
outer loop
vertex 162.902 293.674 382
vertex 73.6079 382.05 382
vertex 94.378 398.322 382
endloop
endfacet
facet normal 0 0 -1
outer loop
vertex 162.902 293.674 382
vertex 94.378 398.322 382
vertex 176.406 301.989 382
endloop
endfacet
facet normal 0 0 -1
outer loop
vertex 176.406 301.989 382
vertex 94.378 398.322 382
vertex 116.958 411.972 382
endloop
endfacet
facet normal 0 0 -1
outer loop
vertex 176.406 301.989 382
vertex 116.958 411.972 382
vertex 141.019 422.801 382
endloop
endfacet
facet normal 0 0 -1
outer loop
vertex 192.163 1.59311 382
vertex 166.21 6.34921 382
vertex 191.121 129.098 382
endloop
endfacet
facet normal 0 0 -1
outer loop
vertex 191.121 129.098 382
vertex 166.21 6.34921 382
vertex 141.019 14.1989 382
endloop
endfacet
facet normal 0 0 -1
outer loop
vertex 191.121 129.098 382
vertex 141.019 14.1989 382
vertex 176.406 135.011 382
endloop
endfacet
facet normal 0 0 -1
outer loop
vertex 176.406 135.011 382
vertex 141.019 14.1989 382
vertex 116.958 25.0279 382
endloop
endfacet
facet normal 0 0 -1
outer loop
vertex 176.406 135.011 382
vertex 116.958 25.0279 382
vertex 162.902 143.326 382
endloop
endfacet
facet normal 0 0 -1
outer loop
vertex 162.902 143.326 382
vertex 116.958 25.0279 382
vertex 94.378 38.6781 382
endloop
endfacet
facet normal 0 0 -1
outer loop
vertex 162.902 143.326 382
vertex 94.378 38.6781 382
vertex 73.6079 54.9504 382
endloop
endfacet
facet normal 0 0 1
outer loop
vertex 342.622 398.322 569
vertex 320.042 411.972 569
vertex 290.831 343.5 569
endloop
endfacet
facet normal 0 0 1
outer loop
vertex 411.972 116.958 569
vertex 422.801 141.019 569
vertex 398.322 94.3779 569
endloop
endfacet
facet normal 0 0 1
outer loop
vertex 398.322 94.3779 569
vertex 422.801 141.019 569
vertex 430.651 166.209 569
endloop
endfacet
facet normal 0 0 1
outer loop
vertex 398.322 94.3779 569
vertex 430.651 166.209 569
vertex 290.831 93.5 569
endloop
endfacet
facet normal 0 0 1
outer loop
vertex 290.831 93.5 569
vertex 430.651 166.209 569
vertex 435.407 192.163 569
endloop
endfacet
facet normal 0 0 1
outer loop
vertex 290.831 93.5 569
vertex 435.407 192.163 569
vertex 363 218.5 569
endloop
endfacet
facet normal 0 0 1
outer loop
vertex 382.05 73.6077 569
vertex 398.322 94.3779 569
vertex 363.392 54.9504 569
endloop
endfacet
facet normal 0 0 1
outer loop
vertex 363.392 54.9504 569
vertex 398.322 94.3779 569
vertex 290.831 93.5 569
endloop
endfacet
facet normal 0 0 1
outer loop
vertex 363.392 54.9504 569
vertex 290.831 93.5 569
vertex 342.622 38.6781 569
endloop
endfacet
facet normal 0 0 1
outer loop
vertex 342.622 38.6781 569
vertex 290.831 93.5 569
vertex 320.042 25.0279 569
endloop
endfacet
facet normal 0 0 1
outer loop
vertex 116.958 25.0279 569
vertex 141.019 14.1989 569
vertex 146.169 93.5 569
endloop
endfacet
facet normal 0 0 1
outer loop
vertex 146.169 93.5 569
vertex 141.019 14.1989 569
vertex 166.21 6.34921 569
endloop
endfacet
facet normal 0 0 1
outer loop
vertex 146.169 93.5 569
vertex 166.21 6.34921 569
vertex 192.163 1.59311 569
endloop
endfacet
facet normal 0 0 1
outer loop
vertex 54.9505 363.392 569
vertex 38.6782 342.622 569
vertex 73.6079 382.05 569
endloop
endfacet
facet normal 0 0 1
outer loop
vertex 73.6079 382.05 569
vertex 38.6782 342.622 569
vertex 25.028 320.042 569
endloop
endfacet
facet normal 0 0 1
outer loop
vertex 73.6079 382.05 569
vertex 25.028 320.042 569
vertex 94.378 398.322 569
endloop
endfacet
facet normal 0 0 1
outer loop
vertex 94.378 398.322 569
vertex 25.028 320.042 569
vertex 14.199 295.981 569
endloop
endfacet
facet normal 0 0 1
outer loop
vertex 94.378 398.322 569
vertex 14.199 295.981 569
vertex 116.958 411.972 569
endloop
endfacet
facet normal 0 0 1
outer loop
vertex 116.958 411.972 569
vertex 14.199 295.981 569
vertex 6.34933 270.79 569
endloop
endfacet
facet normal 0 0 1
outer loop
vertex 116.958 411.972 569
vertex 6.34933 270.79 569
vertex 146.169 343.5 569
endloop
endfacet
facet normal 0 0 1
outer loop
vertex 146.169 343.5 569
vertex 6.34933 270.79 569
vertex 1.59311 244.837 569
endloop
endfacet
facet normal 0 0 1
outer loop
vertex 146.169 343.5 569
vertex 1.59311 244.837 569
vertex 74.0001 218.5 569
endloop
endfacet
facet normal 0 0 1
outer loop
vertex 320.042 411.972 569
vertex 295.981 422.801 569
vertex 290.831 343.5 569
endloop
endfacet
facet normal 0 0 1
outer loop
vertex 290.831 343.5 569
vertex 295.981 422.801 569
vertex 270.791 430.651 569
endloop
endfacet
facet normal 0 0 1
outer loop
vertex 290.831 343.5 569
vertex 270.791 430.651 569
vertex 244.837 435.407 569
endloop
endfacet
facet normal 0 0 1
outer loop
vertex 435.407 192.163 569
vertex 437 218.5 569
vertex 363 218.5 569
endloop
endfacet
facet normal 0 0 1
outer loop
vertex 363 218.5 569
vertex 437 218.5 569
vertex 435.407 244.837 569
endloop
endfacet
facet normal 0 0 1
outer loop
vertex 363 218.5 569
vertex 435.407 244.837 569
vertex 430.651 270.79 569
endloop
endfacet
facet normal 0 0 1
outer loop
vertex 141.019 422.801 569
vertex 116.958 411.972 569
vertex 166.21 430.651 569
endloop
endfacet
facet normal 0 0 1
outer loop
vertex 166.21 430.651 569
vertex 116.958 411.972 569
vertex 146.169 343.5 569
endloop
endfacet
facet normal 0 0 1
outer loop
vertex 166.21 430.651 569
vertex 146.169 343.5 569
vertex 192.163 435.407 569
endloop
endfacet
facet normal 0 0 1
outer loop
vertex 192.163 435.407 569
vertex 146.169 343.5 569
vertex 290.831 343.5 569
endloop
endfacet
facet normal 0 0 1
outer loop
vertex 192.163 435.407 569
vertex 290.831 343.5 569
vertex 218.5 437 569
endloop
endfacet
facet normal 0 0 1
outer loop
vertex 218.5 437 569
vertex 290.831 343.5 569
vertex 244.837 435.407 569
endloop
endfacet
facet normal 0 0 1
outer loop
vertex 363.392 382.05 569
vertex 342.622 398.322 569
vertex 382.05 363.392 569
endloop
endfacet
facet normal 0 0 1
outer loop
vertex 382.05 363.392 569
vertex 342.622 398.322 569
vertex 290.831 343.5 569
endloop
endfacet
facet normal 0 0 1
outer loop
vertex 382.05 363.392 569
vertex 290.831 343.5 569
vertex 398.322 342.622 569
endloop
endfacet
facet normal 0 0 1
outer loop
vertex 398.322 342.622 569
vertex 290.831 343.5 569
vertex 363 218.5 569
endloop
endfacet
facet normal 0 0 1
outer loop
vertex 398.322 342.622 569
vertex 363 218.5 569
vertex 411.972 320.042 569
endloop
endfacet
facet normal 0 0 1
outer loop
vertex 411.972 320.042 569
vertex 363 218.5 569
vertex 430.651 270.79 569
endloop
endfacet
facet normal 0 0 1
outer loop
vertex 411.972 320.042 569
vertex 430.651 270.79 569
vertex 422.801 295.981 569
endloop
endfacet
facet normal 0 0 1
outer loop
vertex 295.981 14.1989 569
vertex 320.042 25.0279 569
vertex 270.791 6.34921 569
endloop
endfacet
facet normal 0 0 1
outer loop
vertex 270.791 6.34921 569
vertex 320.042 25.0279 569
vertex 290.831 93.5 569
endloop
endfacet
facet normal 0 0 1
outer loop
vertex 270.791 6.34921 569
vertex 290.831 93.5 569
vertex 244.837 1.59311 569
endloop
endfacet
facet normal 0 0 1
outer loop
vertex 244.837 1.59311 569
vertex 290.831 93.5 569
vertex 146.169 93.5 569
endloop
endfacet
facet normal 0 0 1
outer loop
vertex 244.837 1.59311 569
vertex 146.169 93.5 569
vertex 218.5 0 569
endloop
endfacet
facet normal 0 0 1
outer loop
vertex 218.5 0 569
vertex 146.169 93.5 569
vertex 192.163 1.59311 569
endloop
endfacet
facet normal 0 0 1
outer loop
vertex 1.59311 244.837 569
vertex 0 218.5 569
vertex 74.0001 218.5 569
endloop
endfacet
facet normal 0 0 1
outer loop
vertex 74.0001 218.5 569
vertex 0 218.5 569
vertex 1.59311 192.163 569
endloop
endfacet
facet normal 0 0 1
outer loop
vertex 74.0001 218.5 569
vertex 1.59311 192.163 569
vertex 6.34933 166.209 569
endloop
endfacet
facet normal 0 0 1
outer loop
vertex 116.958 25.0279 569
vertex 146.169 93.5 569
vertex 94.378 38.6781 569
endloop
endfacet
facet normal 0 0 1
outer loop
vertex 94.378 38.6781 569
vertex 146.169 93.5 569
vertex 54.9505 73.6077 569
endloop
endfacet
facet normal 0 0 1
outer loop
vertex 94.378 38.6781 569
vertex 54.9505 73.6077 569
vertex 73.6079 54.9504 569
endloop
endfacet
facet normal 0 0 1
outer loop
vertex 6.34933 166.209 569
vertex 14.199 141.019 569
vertex 74.0001 218.5 569
endloop
endfacet
facet normal 0 0 1
outer loop
vertex 74.0001 218.5 569
vertex 14.199 141.019 569
vertex 25.028 116.958 569
endloop
endfacet
facet normal 0 0 1
outer loop
vertex 74.0001 218.5 569
vertex 25.028 116.958 569
vertex 146.169 93.5 569
endloop
endfacet
facet normal 0 0 1
outer loop
vertex 146.169 93.5 569
vertex 25.028 116.958 569
vertex 38.6782 94.3779 569
endloop
endfacet
facet normal 0 0 1
outer loop
vertex 146.169 93.5 569
vertex 38.6782 94.3779 569
vertex 54.9505 73.6077 569
endloop
endfacet
facet normal 0.983621 0.180251 0
outer loop
vertex 435.407 244.837 569
vertex 435.407 244.837 382
vertex 430.651 270.79 569
endloop
endfacet
facet normal 0.983621 0.180251 0
outer loop
vertex 430.651 270.79 569
vertex 435.407 244.837 382
vertex 430.651 270.79 382
endloop
endfacet
facet normal 0.954722 0.297501 0
outer loop
vertex 430.651 270.79 569
vertex 430.651 270.79 382
vertex 422.801 295.981 569
endloop
endfacet
facet normal 0.954722 0.297501 0
outer loop
vertex 422.801 295.981 569
vertex 430.651 270.79 382
vertex 422.801 295.981 382
endloop
endfacet
facet normal 0.911899 0.410415 0
outer loop
vertex 422.801 295.981 569
vertex 422.801 295.981 382
vertex 411.972 320.042 569
endloop
endfacet
facet normal 0.911899 0.410415 0
outer loop
vertex 411.972 320.042 569
vertex 422.801 295.981 382
vertex 411.972 320.042 382
endloop
endfacet
facet normal 0.855781 0.517338 0
outer loop
vertex 411.972 320.042 569
vertex 411.972 320.042 382
vertex 398.322 342.622 569
endloop
endfacet
facet normal 0.855781 0.517338 0
outer loop
vertex 398.322 342.622 569
vertex 411.972 320.042 382
vertex 398.322 342.622 382
endloop
endfacet
facet normal 0.787184 0.616719 0
outer loop
vertex 398.322 342.622 569
vertex 398.322 342.622 382
vertex 382.05 363.392 569
endloop
endfacet
facet normal 0.787184 0.616719 0
outer loop
vertex 382.05 363.392 569
vertex 398.322 342.622 382
vertex 382.05 363.392 382
endloop
endfacet
facet normal 0.707104 0.707109 0
outer loop
vertex 382.05 363.392 569
vertex 382.05 363.392 382
vertex 363.392 382.05 569
endloop
endfacet
facet normal 0.707104 0.707109 0
outer loop
vertex 363.392 382.05 569
vertex 382.05 363.392 382
vertex 363.392 382.05 382
endloop
endfacet
facet normal 0.616721 0.787181 0
outer loop
vertex 363.392 382.05 569
vertex 363.392 382.05 382
vertex 342.622 398.322 569
endloop
endfacet
facet normal 0.616721 0.787181 0
outer loop
vertex 342.622 398.322 569
vertex 363.392 382.05 382
vertex 342.622 398.322 382
endloop
endfacet
facet normal 0.517338 0.855781 0
outer loop
vertex 342.622 398.322 569
vertex 342.622 398.322 382
vertex 320.042 411.972 569
endloop
endfacet
facet normal 0.517338 0.855781 0
outer loop
vertex 320.042 411.972 569
vertex 342.622 398.322 382
vertex 320.042 411.972 382
endloop
endfacet
facet normal 0.410409 0.911901 0
outer loop
vertex 320.042 411.972 569
vertex 320.042 411.972 382
vertex 295.981 422.801 569
endloop
endfacet
facet normal 0.410409 0.911901 0
outer loop
vertex 295.981 422.801 569
vertex 320.042 411.972 382
vertex 295.981 422.801 382
endloop
endfacet
facet normal 0.297506 0.95472 0
outer loop
vertex 295.981 422.801 569
vertex 295.981 422.801 382
vertex 270.791 430.651 569
endloop
endfacet
facet normal 0.297506 0.95472 0
outer loop
vertex 270.791 430.651 569
vertex 295.981 422.801 382
vertex 270.791 430.651 382
endloop
endfacet
facet normal 0.180254 0.98362 0
outer loop
vertex 270.791 430.651 569
vertex 270.791 430.651 382
vertex 244.837 435.407 569
endloop
endfacet
facet normal 0.180254 0.98362 0
outer loop
vertex 244.837 435.407 569
vertex 270.791 430.651 382
vertex 244.837 435.407 382
endloop
endfacet
facet normal 0.0603787 0.998176 0
outer loop
vertex 244.837 435.407 569
vertex 244.837 435.407 382
vertex 218.5 437 569
endloop
endfacet
facet normal 0.0603787 0.998176 0
outer loop
vertex 218.5 437 569
vertex 244.837 435.407 382
vertex 218.5 437 382
endloop
endfacet
facet normal -0.0603781 0.998176 0
outer loop
vertex 218.5 437 569
vertex 218.5 437 382
vertex 192.163 435.407 569
endloop
endfacet
facet normal -0.0603781 0.998176 0
outer loop
vertex 192.163 435.407 569
vertex 218.5 437 382
vertex 192.163 435.407 382
endloop
endfacet
facet normal -0.180256 0.98362 0
outer loop
vertex 192.163 435.407 569
vertex 192.163 435.407 382
vertex 166.21 430.651 569
endloop
endfacet
facet normal -0.180256 0.98362 0
outer loop
vertex 166.21 430.651 569
vertex 192.163 435.407 382
vertex 166.21 430.651 382
endloop
endfacet
facet normal -0.297503 0.954721 0
outer loop
vertex 166.21 430.651 569
vertex 166.21 430.651 382
vertex 141.019 422.801 569
endloop
endfacet
facet normal -0.297503 0.954721 0
outer loop
vertex 141.019 422.801 569
vertex 166.21 430.651 382
vertex 141.019 422.801 382
endloop
endfacet
facet normal -0.410413 0.9119 0
outer loop
vertex 141.019 422.801 569
vertex 141.019 422.801 382
vertex 116.958 411.972 569
endloop
endfacet
facet normal -0.410413 0.9119 0
outer loop
vertex 116.958 411.972 569
vertex 141.019 422.801 382
vertex 116.958 411.972 382
endloop
endfacet
facet normal -0.517338 0.855781 0
outer loop
vertex 116.958 411.972 569
vertex 116.958 411.972 382
vertex 94.378 398.322 569
endloop
endfacet
facet normal -0.517338 0.855781 0
outer loop
vertex 94.378 398.322 569
vertex 116.958 411.972 382
vertex 94.378 398.322 382
endloop
endfacet
facet normal -0.616722 0.787181 0
outer loop
vertex 94.378 398.322 569
vertex 94.378 398.322 382
vertex 73.6079 382.05 569
endloop
endfacet
facet normal -0.616722 0.787181 0
outer loop
vertex 73.6079 382.05 569
vertex 94.378 398.322 382
vertex 73.6079 382.05 382
endloop
endfacet
facet normal -0.707104 0.707109 0
outer loop
vertex 73.6079 382.05 569
vertex 73.6079 382.05 382
vertex 54.9505 363.392 569
endloop
endfacet
facet normal -0.707104 0.707109 0
outer loop
vertex 54.9505 363.392 569
vertex 73.6079 382.05 382
vertex 54.9505 363.392 382
endloop
endfacet
facet normal -0.787184 0.616719 0
outer loop
vertex 54.9505 363.392 569
vertex 54.9505 363.392 382
vertex 38.6782 342.622 569
endloop
endfacet
facet normal -0.787184 0.616719 0
outer loop
vertex 38.6782 342.622 569
vertex 54.9505 363.392 382
vertex 38.6782 342.622 382
endloop
endfacet
facet normal -0.855781 0.517338 0
outer loop
vertex 38.6782 342.622 569
vertex 38.6782 342.622 382
vertex 25.028 320.042 569
endloop
endfacet
facet normal -0.855781 0.517338 0
outer loop
vertex 25.028 320.042 569
vertex 38.6782 342.622 382
vertex 25.028 320.042 382
endloop
endfacet
facet normal -0.911899 0.410415 0
outer loop
vertex 25.028 320.042 569
vertex 25.028 320.042 382
vertex 14.199 295.981 569
endloop
endfacet
facet normal -0.911899 0.410415 0
outer loop
vertex 14.199 295.981 569
vertex 25.028 320.042 382
vertex 14.199 295.981 382
endloop
endfacet
facet normal -0.954721 0.297501 0
outer loop
vertex 14.199 295.981 569
vertex 14.199 295.981 382
vertex 6.34933 270.79 569
endloop
endfacet
facet normal -0.954721 0.297501 0
outer loop
vertex 6.34933 270.79 569
vertex 14.199 295.981 382
vertex 6.34933 270.79 382
endloop
endfacet
facet normal -0.983619 0.180259 0
outer loop
vertex 6.34933 270.79 569
vertex 6.34933 270.79 382
vertex 1.59311 244.837 569
endloop
endfacet
facet normal -0.983619 0.180259 0
outer loop
vertex 1.59311 244.837 569
vertex 6.34933 270.79 382
vertex 1.59311 244.837 382
endloop
endfacet
facet normal -0.998176 0.0603786 0
outer loop
vertex 1.59311 244.837 569
vertex 1.59311 244.837 382
vertex 0 218.5 569
endloop
endfacet
facet normal -0.998176 0.0603786 0
outer loop
vertex 0 218.5 569
vertex 1.59311 244.837 382
vertex 0 218.5 382
endloop
endfacet
facet normal -0.998176 -0.0603786 0
outer loop
vertex 0 218.5 569
vertex 0 218.5 382
vertex 1.59311 192.163 569
endloop
endfacet
facet normal -0.998176 -0.0603786 0
outer loop
vertex 1.59311 192.163 569
vertex 0 218.5 382
vertex 1.59311 192.163 382
endloop
endfacet
facet normal -0.983619 -0.180259 0
outer loop
vertex 1.59311 192.163 569
vertex 1.59311 192.163 382
vertex 6.34933 166.209 569
endloop
endfacet
facet normal -0.983619 -0.180259 0
outer loop
vertex 6.34933 166.209 569
vertex 1.59311 192.163 382
vertex 6.34933 166.209 382
endloop
endfacet
facet normal -0.954721 -0.297503 0
outer loop
vertex 6.34933 166.209 569
vertex 6.34933 166.209 382
vertex 14.199 141.019 569
endloop
endfacet
facet normal -0.954721 -0.297503 0
outer loop
vertex 14.199 141.019 569
vertex 6.34933 166.209 382
vertex 14.199 141.019 382
endloop
endfacet
facet normal -0.911899 -0.410415 0
outer loop
vertex 14.199 141.019 569
vertex 14.199 141.019 382
vertex 25.028 116.958 569
endloop
endfacet
facet normal -0.911899 -0.410415 0
outer loop
vertex 25.028 116.958 569
vertex 14.199 141.019 382
vertex 25.028 116.958 382
endloop
endfacet
facet normal -0.855781 -0.517338 0
outer loop
vertex 25.028 116.958 569
vertex 25.028 116.958 382
vertex 38.6782 94.3779 569
endloop
endfacet
facet normal -0.855781 -0.517338 0
outer loop
vertex 38.6782 94.3779 569
vertex 25.028 116.958 382
vertex 38.6782 94.3779 382
endloop
endfacet
facet normal -0.787185 -0.616717 0
outer loop
vertex 38.6782 94.3779 569
vertex 38.6782 94.3779 382
vertex 54.9505 73.6077 569
endloop
endfacet
facet normal -0.787185 -0.616717 0
outer loop
vertex 54.9505 73.6077 569
vertex 38.6782 94.3779 382
vertex 54.9505 73.6077 382
endloop
endfacet
facet normal -0.707104 -0.707109 0
outer loop
vertex 54.9505 73.6077 569
vertex 54.9505 73.6077 382
vertex 73.6079 54.9504 569
endloop
endfacet
facet normal -0.707104 -0.707109 0
outer loop
vertex 73.6079 54.9504 569
vertex 54.9505 73.6077 382
vertex 73.6079 54.9504 382
endloop
endfacet
facet normal -0.616719 -0.787184 0
outer loop
vertex 73.6079 54.9504 569
vertex 73.6079 54.9504 382
vertex 94.378 38.6781 569
endloop
endfacet
facet normal -0.616719 -0.787184 0
outer loop
vertex 94.378 38.6781 569
vertex 73.6079 54.9504 382
vertex 94.378 38.6781 382
endloop
endfacet
facet normal -0.517338 -0.855781 0
outer loop
vertex 94.378 38.6781 569
vertex 94.378 38.6781 382
vertex 116.958 25.0279 569
endloop
endfacet
facet normal -0.517338 -0.855781 0
outer loop
vertex 116.958 25.0279 569
vertex 94.378 38.6781 382
vertex 116.958 25.0279 382
endloop
endfacet
facet normal -0.410417 -0.911898 0
outer loop
vertex 116.958 25.0279 569
vertex 116.958 25.0279 382
vertex 141.019 14.1989 569
endloop
endfacet
facet normal -0.410417 -0.911898 0
outer loop
vertex 141.019 14.1989 569
vertex 116.958 25.0279 382
vertex 141.019 14.1989 382
endloop
endfacet
facet normal -0.2975 -0.954722 0
outer loop
vertex 141.019 14.1989 569
vertex 141.019 14.1989 382
vertex 166.21 6.34921 569
endloop
endfacet
facet normal -0.2975 -0.954722 0
outer loop
vertex 166.21 6.34921 569
vertex 141.019 14.1989 382
vertex 166.21 6.34921 382
endloop
endfacet
facet normal -0.180256 -0.98362 0
outer loop
vertex 166.21 6.34921 569
vertex 166.21 6.34921 382
vertex 192.163 1.59311 569
endloop
endfacet
facet normal -0.180256 -0.98362 0
outer loop
vertex 192.163 1.59311 569
vertex 166.21 6.34921 382
vertex 192.163 1.59311 382
endloop
endfacet
facet normal -0.0603783 -0.998176 0
outer loop
vertex 192.163 1.59311 569
vertex 192.163 1.59311 382
vertex 218.5 0 569
endloop
endfacet
facet normal -0.0603783 -0.998176 0
outer loop
vertex 218.5 0 569
vertex 192.163 1.59311 382
vertex 218.5 0 382
endloop
endfacet
facet normal 0.0603788 -0.998176 0
outer loop
vertex 218.5 0 569
vertex 218.5 0 382
vertex 244.837 1.59311 569
endloop
endfacet
facet normal 0.0603788 -0.998176 0
outer loop
vertex 244.837 1.59311 569
vertex 218.5 0 382
vertex 244.837 1.59311 382
endloop
endfacet
facet normal 0.180254 -0.98362 0
outer loop
vertex 244.837 1.59311 569
vertex 244.837 1.59311 382
vertex 270.791 6.34921 569
endloop
endfacet
facet normal 0.180254 -0.98362 0
outer loop
vertex 270.791 6.34921 569
vertex 244.837 1.59311 382
vertex 270.791 6.34921 382
endloop
endfacet
facet normal 0.297503 -0.954721 0
outer loop
vertex 270.791 6.34921 569
vertex 270.791 6.34921 382
vertex 295.981 14.1989 569
endloop
endfacet
facet normal 0.297503 -0.954721 0
outer loop
vertex 295.981 14.1989 569
vertex 270.791 6.34921 382
vertex 295.981 14.1989 382
endloop
endfacet
facet normal 0.410413 -0.9119 0
outer loop
vertex 295.981 14.1989 569
vertex 295.981 14.1989 382
vertex 320.042 25.0279 569
endloop
endfacet
facet normal 0.410413 -0.9119 0
outer loop
vertex 320.042 25.0279 569
vertex 295.981 14.1989 382
vertex 320.042 25.0279 382
endloop
endfacet
facet normal 0.517338 -0.855781 0
outer loop
vertex 320.042 25.0279 569
vertex 320.042 25.0279 382
vertex 342.622 38.6781 569
endloop
endfacet
facet normal 0.517338 -0.855781 0
outer loop
vertex 342.622 38.6781 569
vertex 320.042 25.0279 382
vertex 342.622 38.6781 382
endloop
endfacet
facet normal 0.616719 -0.787184 0
outer loop
vertex 342.622 38.6781 569
vertex 342.622 38.6781 382
vertex 363.392 54.9504 569
endloop
endfacet
facet normal 0.616719 -0.787184 0
outer loop
vertex 363.392 54.9504 569
vertex 342.622 38.6781 382
vertex 363.392 54.9504 382
endloop
endfacet
facet normal 0.707105 -0.707109 0
outer loop
vertex 363.392 54.9504 569
vertex 363.392 54.9504 382
vertex 382.05 73.6077 569
endloop
endfacet
facet normal 0.707105 -0.707109 0
outer loop
vertex 382.05 73.6077 569
vertex 363.392 54.9504 382
vertex 382.05 73.6077 382
endloop
endfacet
facet normal 0.787185 -0.616717 0
outer loop
vertex 382.05 73.6077 569
vertex 382.05 73.6077 382
vertex 398.322 94.3779 569
endloop
endfacet
facet normal 0.787185 -0.616717 0
outer loop
vertex 398.322 94.3779 569
vertex 382.05 73.6077 382
vertex 398.322 94.3779 382
endloop
endfacet
facet normal 0.855781 -0.517338 0
outer loop
vertex 398.322 94.3779 569
vertex 398.322 94.3779 382
vertex 411.972 116.958 569
endloop
endfacet
facet normal 0.855781 -0.517338 0
outer loop
vertex 411.972 116.958 569
vertex 398.322 94.3779 382
vertex 411.972 116.958 382
endloop
endfacet
facet normal 0.911899 -0.410415 0
outer loop
vertex 411.972 116.958 569
vertex 411.972 116.958 382
vertex 422.801 141.019 569
endloop
endfacet
facet normal 0.911899 -0.410415 0
outer loop
vertex 422.801 141.019 569
vertex 411.972 116.958 382
vertex 422.801 141.019 382
endloop
endfacet
facet normal 0.954721 -0.297502 0
outer loop
vertex 422.801 141.019 569
vertex 422.801 141.019 382
vertex 430.651 166.209 569
endloop
endfacet
facet normal 0.954721 -0.297502 0
outer loop
vertex 430.651 166.209 569
vertex 422.801 141.019 382
vertex 430.651 166.209 382
endloop
endfacet
facet normal 0.983621 -0.18025 0
outer loop
vertex 430.651 166.209 569
vertex 430.651 166.209 382
vertex 435.407 192.163 569
endloop
endfacet
facet normal 0.983621 -0.18025 0
outer loop
vertex 435.407 192.163 569
vertex 430.651 166.209 382
vertex 435.407 192.163 382
endloop
endfacet
facet normal 0.998176 -0.0603784 0
outer loop
vertex 435.407 192.163 569
vertex 435.407 192.163 382
vertex 437 218.5 569
endloop
endfacet
facet normal 0.998176 -0.0603784 0
outer loop
vertex 437 218.5 569
vertex 435.407 192.163 382
vertex 437 218.5 382
endloop
endfacet
facet normal 0.998176 0.0603784 0
outer loop
vertex 437 218.5 569
vertex 437 218.5 382
vertex 435.407 244.837 569
endloop
endfacet
facet normal 0.998176 0.0603784 0
outer loop
vertex 435.407 244.837 569
vertex 437 218.5 382
vertex 435.407 244.837 382
endloop
endfacet
endsolid
