solid
 facet normal  1.000000e+000  0.000000e+000 -0.000000e+000
   outer loop
     vertex -2.643547e+002  3.078092e+001  5.450000e+001
     vertex -2.643547e+002  3.078092e+001  5.498000e+001
     vertex -2.643547e+002  3.065668e+001  5.496364e+001
   endloop
 endfacet
 facet normal  1.000000e+000  0.000000e+000  0.000000e+000
   outer loop
     vertex -2.643547e+002  3.078092e+001  5.450000e+001
     vertex -2.643547e+002  3.065668e+001  5.496364e+001
     vertex -2.643547e+002  3.054092e+001  5.491569e+001
   endloop
 endfacet
 facet normal  1.000000e+000  0.000000e+000  0.000000e+000
   outer loop
     vertex -2.643547e+002  3.078092e+001  5.450000e+001
     vertex -2.643547e+002  3.054092e+001  5.491569e+001
     vertex -2.643547e+002  3.044151e+001  5.483941e+001
   endloop
 endfacet
 facet normal  1.000000e+000  0.000000e+000  0.000000e+000
   outer loop
     vertex -2.643547e+002  3.078092e+001  5.450000e+001
     vertex -2.643547e+002  3.044151e+001  5.483941e+001
     vertex -2.643547e+002  3.036522e+001  5.474000e+001
   endloop
 endfacet
 facet normal  1.000000e+000  0.000000e+000  0.000000e+000
   outer loop
     vertex -2.643547e+002  3.078092e+001  5.450000e+001
     vertex -2.643547e+002  3.036522e+001  5.474000e+001
     vertex -2.643547e+002  3.031727e+001  5.462423e+001
   endloop
 endfacet
 facet normal  1.000000e+000  0.000000e+000  0.000000e+000
   outer loop
     vertex -2.643547e+002  3.078092e+001  5.450000e+001
     vertex -2.643547e+002  3.031727e+001  5.462423e+001
     vertex -2.643547e+002  3.030092e+001  5.450000e+001
   endloop
 endfacet
 facet normal  1.000000e+000  0.000000e+000  0.000000e+000
   outer loop
     vertex -2.643547e+002  3.078092e+001  5.450000e+001
     vertex -2.643547e+002  3.030092e+001  5.450000e+001
     vertex -2.643547e+002  3.031727e+001  5.437577e+001
   endloop
 endfacet
 facet normal  1.000000e+000  0.000000e+000  0.000000e+000
   outer loop
     vertex -2.643547e+002  3.078092e+001  5.450000e+001
     vertex -2.643547e+002  3.031727e+001  5.437577e+001
     vertex -2.643547e+002  3.036522e+001  5.426000e+001
   endloop
 endfacet
 facet normal  1.000000e+000  0.000000e+000  0.000000e+000
   outer loop
     vertex -2.643547e+002  3.078092e+001  5.450000e+001
     vertex -2.643547e+002  3.036522e+001  5.426000e+001
     vertex -2.643547e+002  3.044151e+001  5.416059e+001
   endloop
 endfacet
 facet normal  1.000000e+000  0.000000e+000  0.000000e+000
   outer loop
     vertex -2.643547e+002  3.078092e+001  5.450000e+001
     vertex -2.643547e+002  3.044151e+001  5.416059e+001
     vertex -2.643547e+002  3.054092e+001  5.408431e+001
   endloop
 endfacet
 facet normal  1.000000e+000  0.000000e+000  0.000000e+000
   outer loop
     vertex -2.643547e+002  3.078092e+001  5.450000e+001
     vertex -2.643547e+002  3.054092e+001  5.408431e+001
     vertex -2.643547e+002  3.065668e+001  5.403636e+001
   endloop
 endfacet
 facet normal  1.000000e+000  0.000000e+000  0.000000e+000
   outer loop
     vertex -2.643547e+002  3.078092e+001  5.450000e+001
     vertex -2.643547e+002  3.065668e+001  5.403636e+001
     vertex -2.643547e+002  3.078092e+001  5.402000e+001
   endloop
 endfacet
 facet normal  1.000000e+000 -0.000000e+000  0.000000e+000
   outer loop
     vertex -2.643547e+002  3.078092e+001  5.450000e+001
     vertex -2.643547e+002  3.078092e+001  5.402000e+001
     vertex -2.643547e+002  3.090515e+001  5.403636e+001
   endloop
 endfacet
 facet normal  1.000000e+000 -0.000000e+000  0.000000e+000
   outer loop
     vertex -2.643547e+002  3.078092e+001  5.450000e+001
     vertex -2.643547e+002  3.090515e+001  5.403636e+001
     vertex -2.643547e+002  3.102092e+001  5.408431e+001
   endloop
 endfacet
 facet normal  1.000000e+000 -0.000000e+000  0.000000e+000
   outer loop
     vertex -2.643547e+002  3.078092e+001  5.450000e+001
     vertex -2.643547e+002  3.102092e+001  5.408431e+001
     vertex -2.643547e+002  3.112033e+001  5.416059e+001
   endloop
 endfacet
 facet normal  1.000000e+000 -0.000000e+000  0.000000e+000
   outer loop
     vertex -2.643547e+002  3.078092e+001  5.450000e+001
     vertex -2.643547e+002  3.112033e+001  5.416059e+001
     vertex -2.643547e+002  3.119661e+001  5.426000e+001
   endloop
 endfacet
 facet normal  1.000000e+000 -0.000000e+000  0.000000e+000
   outer loop
     vertex -2.643547e+002  3.078092e+001  5.450000e+001
     vertex -2.643547e+002  3.119661e+001  5.426000e+001
     vertex -2.643547e+002  3.124456e+001  5.437577e+001
   endloop
 endfacet
 facet normal  1.000000e+000 -0.000000e+000  0.000000e+000
   outer loop
     vertex -2.643547e+002  3.078092e+001  5.450000e+001
     vertex -2.643547e+002  3.124456e+001  5.437577e+001
     vertex -2.643547e+002  3.126092e+001  5.450000e+001
   endloop
 endfacet
 facet normal  1.000000e+000  0.000000e+000 -0.000000e+000
   outer loop
     vertex -2.643547e+002  3.078092e+001  5.450000e+001
     vertex -2.643547e+002  3.126092e+001  5.450000e+001
     vertex -2.643547e+002  3.124456e+001  5.462423e+001
   endloop
 endfacet
 facet normal  1.000000e+000  0.000000e+000 -0.000000e+000
   outer loop
     vertex -2.643547e+002  3.078092e+001  5.450000e+001
     vertex -2.643547e+002  3.124456e+001  5.462423e+001
     vertex -2.643547e+002  3.119661e+001  5.474000e+001
   endloop
 endfacet
 facet normal  1.000000e+000  0.000000e+000 -0.000000e+000
   outer loop
     vertex -2.643547e+002  3.078092e+001  5.450000e+001
     vertex -2.643547e+002  3.119661e+001  5.474000e+001
     vertex -2.643547e+002  3.112033e+001  5.483941e+001
   endloop
 endfacet
 facet normal  1.000000e+000  0.000000e+000 -0.000000e+000
   outer loop
     vertex -2.643547e+002  3.078092e+001  5.450000e+001
     vertex -2.643547e+002  3.112033e+001  5.483941e+001
     vertex -2.643547e+002  3.102092e+001  5.491569e+001
   endloop
 endfacet
 facet normal  1.000000e+000  0.000000e+000 -0.000000e+000
   outer loop
     vertex -2.643547e+002  3.078092e+001  5.450000e+001
     vertex -2.643547e+002  3.102092e+001  5.491569e+001
     vertex -2.643547e+002  3.090515e+001  5.496364e+001
   endloop
 endfacet
 facet normal  1.000000e+000  0.000000e+000 -0.000000e+000
   outer loop
     vertex -2.643547e+002  3.078092e+001  5.450000e+001
     vertex -2.643547e+002  3.090515e+001  5.496364e+001
     vertex -2.643547e+002  3.078092e+001  5.498000e+001
   endloop
 endfacet
 facet normal  7.040626e-001 -4.323046e-001  5.633903e-001
   outer loop
     vertex -2.644747e+002  3.048092e+001  5.501962e+001
     vertex -2.644747e+002  3.035665e+001  5.492426e+001
     vertex -2.643547e+002  3.044151e+001  5.483941e+001
   endloop
 endfacet
 facet normal  7.040626e-001 -9.269160e-002 -7.040626e-001
   outer loop
     vertex -2.644747e+002  3.078092e+001  5.390000e+001
     vertex -2.643547e+002  3.078092e+001  5.402000e+001
     vertex -2.643547e+002  3.065668e+001  5.403636e+001
   endloop
 endfacet
 facet normal  7.040626e-001 -2.717580e-001  6.560819e-001
   outer loop
     vertex -2.644747e+002  3.062563e+001  5.507956e+001
     vertex -2.644747e+002  3.048092e+001  5.501962e+001
     vertex -2.643547e+002  3.065668e+001  5.496364e+001
   endloop
 endfacet
 facet normal  7.040626e-001 -9.269160e-002  7.040626e-001
   outer loop
     vertex -2.644747e+002  3.078092e+001  5.510000e+001
     vertex -2.643547e+002  3.065668e+001  5.496364e+001
     vertex -2.643547e+002  3.078092e+001  5.498000e+001
   endloop
 endfacet
 facet normal  7.040626e-001 -9.269160e-002  7.040626e-001
   outer loop
     vertex -2.644747e+002  3.078092e+001  5.510000e+001
     vertex -2.644747e+002  3.062563e+001  5.507956e+001
     vertex -2.643547e+002  3.065668e+001  5.496364e+001
   endloop
 endfacet
 facet normal  7.040626e-001 -9.269160e-002 -7.040626e-001
   outer loop
     vertex -2.644747e+002  3.062563e+001  5.392044e+001
     vertex -2.644747e+002  3.078092e+001  5.390000e+001
     vertex -2.643547e+002  3.065668e+001  5.403636e+001
   endloop
 endfacet
 facet normal  7.040626e-001 -4.323046e-001 -5.633903e-001
   outer loop
     vertex -2.644747e+002  3.048092e+001  5.398038e+001
     vertex -2.643547e+002  3.054092e+001  5.408431e+001
     vertex -2.643547e+002  3.044151e+001  5.416059e+001
   endloop
 endfacet
 facet normal  7.040626e-001 -2.717580e-001 -6.560819e-001
   outer loop
     vertex -2.644747e+002  3.048092e+001  5.398038e+001
     vertex -2.643547e+002  3.065668e+001  5.403636e+001
     vertex -2.643547e+002  3.054092e+001  5.408431e+001
   endloop
 endfacet
 facet normal  7.040626e-001 -2.717580e-001 -6.560819e-001
   outer loop
     vertex -2.644747e+002  3.048092e+001  5.398038e+001
     vertex -2.644747e+002  3.062563e+001  5.392044e+001
     vertex -2.643547e+002  3.065668e+001  5.403636e+001
   endloop
 endfacet
 facet normal  7.040626e-001 -4.323046e-001 -5.633903e-001
   outer loop
     vertex -2.644747e+002  3.035665e+001  5.407574e+001
     vertex -2.644747e+002  3.048092e+001  5.398038e+001
     vertex -2.643547e+002  3.044151e+001  5.416059e+001
   endloop
 endfacet
 facet normal  7.040626e-001 -6.560819e-001 -2.717580e-001
   outer loop
     vertex -2.644747e+002  3.026130e+001  5.420000e+001
     vertex -2.643547e+002  3.036522e+001  5.426000e+001
     vertex -2.643547e+002  3.031727e+001  5.437577e+001
   endloop
 endfacet
 facet normal  7.040626e-001 -5.633903e-001 -4.323046e-001
   outer loop
     vertex -2.644747e+002  3.026130e+001  5.420000e+001
     vertex -2.643547e+002  3.044151e+001  5.416059e+001
     vertex -2.643547e+002  3.036522e+001  5.426000e+001
   endloop
 endfacet
 facet normal  7.040626e-001 -5.633903e-001 -4.323046e-001
   outer loop
     vertex -2.644747e+002  3.026130e+001  5.420000e+001
     vertex -2.644747e+002  3.035665e+001  5.407574e+001
     vertex -2.643547e+002  3.044151e+001  5.416059e+001
   endloop
 endfacet
 facet normal  7.040626e-001 -7.040626e-001 -9.269160e-002
   outer loop
     vertex -2.644747e+002  3.020136e+001  5.434471e+001
     vertex -2.643547e+002  3.031727e+001  5.437577e+001
     vertex -2.643547e+002  3.030092e+001  5.450000e+001
   endloop
 endfacet
 facet normal  7.040626e-001 -6.560819e-001 -2.717580e-001
   outer loop
     vertex -2.644747e+002  3.020136e+001  5.434471e+001
     vertex -2.644747e+002  3.026130e+001  5.420000e+001
     vertex -2.643547e+002  3.031727e+001  5.437577e+001
   endloop
 endfacet
 facet normal  7.040626e-001 -7.040626e-001  9.269160e-002
   outer loop
     vertex -2.644747e+002  3.018092e+001  5.450000e+001
     vertex -2.643547e+002  3.030092e+001  5.450000e+001
     vertex -2.643547e+002  3.031727e+001  5.462423e+001
   endloop
 endfacet
 facet normal  7.040626e-001 -7.040626e-001 -9.269160e-002
   outer loop
     vertex -2.644747e+002  3.018092e+001  5.450000e+001
     vertex -2.644747e+002  3.020136e+001  5.434471e+001
     vertex -2.643547e+002  3.030092e+001  5.450000e+001
   endloop
 endfacet
 facet normal  7.040626e-001 -7.040626e-001  9.269160e-002
   outer loop
     vertex -2.644747e+002  3.020136e+001  5.465529e+001
     vertex -2.644747e+002  3.018092e+001  5.450000e+001
     vertex -2.643547e+002  3.031727e+001  5.462423e+001
   endloop
 endfacet
 facet normal  7.040626e-001 -5.633903e-001  4.323046e-001
   outer loop
     vertex -2.644747e+002  3.026130e+001  5.480000e+001
     vertex -2.643547e+002  3.036522e+001  5.474000e+001
     vertex -2.643547e+002  3.044151e+001  5.483941e+001
   endloop
 endfacet
 facet normal  7.040626e-001 -6.560819e-001  2.717580e-001
   outer loop
     vertex -2.644747e+002  3.026130e+001  5.480000e+001
     vertex -2.643547e+002  3.031727e+001  5.462423e+001
     vertex -2.643547e+002  3.036522e+001  5.474000e+001
   endloop
 endfacet
 facet normal  7.040626e-001 -6.560819e-001  2.717580e-001
   outer loop
     vertex -2.644747e+002  3.026130e+001  5.480000e+001
     vertex -2.644747e+002  3.020136e+001  5.465529e+001
     vertex -2.643547e+002  3.031727e+001  5.462423e+001
   endloop
 endfacet
 facet normal  7.040626e-001 -5.633903e-001  4.323046e-001
   outer loop
     vertex -2.644747e+002  3.035665e+001  5.492426e+001
     vertex -2.644747e+002  3.026130e+001  5.480000e+001
     vertex -2.643547e+002  3.044151e+001  5.483941e+001
   endloop
 endfacet
 facet normal  7.040626e-001 -2.717580e-001  6.560819e-001
   outer loop
     vertex -2.644747e+002  3.048092e+001  5.501962e+001
     vertex -2.643547e+002  3.054092e+001  5.491569e+001
     vertex -2.643547e+002  3.065668e+001  5.496364e+001
   endloop
 endfacet
 facet normal  7.040626e-001 -4.323046e-001  5.633903e-001
   outer loop
     vertex -2.644747e+002  3.048092e+001  5.501962e+001
     vertex -2.643547e+002  3.044151e+001  5.483941e+001
     vertex -2.643547e+002  3.054092e+001  5.491569e+001
   endloop
 endfacet
 facet normal  7.040626e-001  4.323046e-001 -5.633903e-001
   outer loop
     vertex -2.644747e+002  3.108092e+001  5.398038e+001
     vertex -2.644747e+002  3.120518e+001  5.407574e+001
     vertex -2.643547e+002  3.112033e+001  5.416059e+001
   endloop
 endfacet
 facet normal  7.040626e-001  9.269160e-002  7.040626e-001
   outer loop
     vertex -2.644747e+002  3.078092e+001  5.510000e+001
     vertex -2.643547e+002  3.078092e+001  5.498000e+001
     vertex -2.643547e+002  3.090515e+001  5.496364e+001
   endloop
 endfacet
 facet normal  7.040626e-001  2.717580e-001 -6.560819e-001
   outer loop
     vertex -2.644747e+002  3.093621e+001  5.392044e+001
     vertex -2.644747e+002  3.108092e+001  5.398038e+001
     vertex -2.643547e+002  3.090515e+001  5.403636e+001
   endloop
 endfacet
 facet normal  7.040626e-001  9.269160e-002 -7.040626e-001
   outer loop
     vertex -2.644747e+002  3.078092e+001  5.390000e+001
     vertex -2.643547e+002  3.090515e+001  5.403636e+001
     vertex -2.643547e+002  3.078092e+001  5.402000e+001
   endloop
 endfacet
 facet normal  7.040626e-001  9.269160e-002 -7.040626e-001
   outer loop
     vertex -2.644747e+002  3.078092e+001  5.390000e+001
     vertex -2.644747e+002  3.093621e+001  5.392044e+001
     vertex -2.643547e+002  3.090515e+001  5.403636e+001
   endloop
 endfacet
 facet normal  7.040626e-001  9.269160e-002  7.040626e-001
   outer loop
     vertex -2.644747e+002  3.093621e+001  5.507956e+001
     vertex -2.644747e+002  3.078092e+001  5.510000e+001
     vertex -2.643547e+002  3.090515e+001  5.496364e+001
   endloop
 endfacet
 facet normal  7.040626e-001  4.323046e-001  5.633903e-001
   outer loop
     vertex -2.644747e+002  3.108092e+001  5.501962e+001
     vertex -2.643547e+002  3.102092e+001  5.491569e+001
     vertex -2.643547e+002  3.112033e+001  5.483941e+001
   endloop
 endfacet
 facet normal  7.040626e-001  2.717580e-001  6.560819e-001
   outer loop
     vertex -2.644747e+002  3.108092e+001  5.501962e+001
     vertex -2.643547e+002  3.090515e+001  5.496364e+001
     vertex -2.643547e+002  3.102092e+001  5.491569e+001
   endloop
 endfacet
 facet normal  7.040626e-001  2.717580e-001  6.560819e-001
   outer loop
     vertex -2.644747e+002  3.108092e+001  5.501962e+001
     vertex -2.644747e+002  3.093621e+001  5.507956e+001
     vertex -2.643547e+002  3.090515e+001  5.496364e+001
   endloop
 endfacet
 facet normal  7.040626e-001  4.323046e-001  5.633903e-001
   outer loop
     vertex -2.644747e+002  3.120518e+001  5.492426e+001
     vertex -2.644747e+002  3.108092e+001  5.501962e+001
     vertex -2.643547e+002  3.112033e+001  5.483941e+001
   endloop
 endfacet
 facet normal  7.040626e-001  6.560819e-001  2.717580e-001
   outer loop
     vertex -2.644747e+002  3.130053e+001  5.480000e+001
     vertex -2.643547e+002  3.119661e+001  5.474000e+001
     vertex -2.643547e+002  3.124456e+001  5.462423e+001
   endloop
 endfacet
 facet normal  7.040626e-001  5.633903e-001  4.323046e-001
   outer loop
     vertex -2.644747e+002  3.130053e+001  5.480000e+001
     vertex -2.643547e+002  3.112033e+001  5.483941e+001
     vertex -2.643547e+002  3.119661e+001  5.474000e+001
   endloop
 endfacet
 facet normal  7.040626e-001  5.633903e-001  4.323046e-001
   outer loop
     vertex -2.644747e+002  3.130053e+001  5.480000e+001
     vertex -2.644747e+002  3.120518e+001  5.492426e+001
     vertex -2.643547e+002  3.112033e+001  5.483941e+001
   endloop
 endfacet
 facet normal  7.040626e-001  7.040626e-001  9.269160e-002
   outer loop
     vertex -2.644747e+002  3.136047e+001  5.465529e+001
     vertex -2.643547e+002  3.124456e+001  5.462423e+001
     vertex -2.643547e+002  3.126092e+001  5.450000e+001
   endloop
 endfacet
 facet normal  7.040626e-001  6.560819e-001  2.717580e-001
   outer loop
     vertex -2.644747e+002  3.136047e+001  5.465529e+001
     vertex -2.644747e+002  3.130053e+001  5.480000e+001
     vertex -2.643547e+002  3.124456e+001  5.462423e+001
   endloop
 endfacet
 facet normal  7.040626e-001  7.040626e-001  9.269160e-002
   outer loop
     vertex -2.644747e+002  3.138092e+001  5.450000e+001
     vertex -2.644747e+002  3.136047e+001  5.465529e+001
     vertex -2.643547e+002  3.126092e+001  5.450000e+001
   endloop
 endfacet
 facet normal  7.040626e-001  7.040626e-001 -9.269160e-002
   outer loop
     vertex -2.644747e+002  3.136047e+001  5.434471e+001
     vertex -2.643547e+002  3.126092e+001  5.450000e+001
     vertex -2.643547e+002  3.124456e+001  5.437577e+001
   endloop
 endfacet
 facet normal  7.040626e-001  7.040626e-001 -9.269160e-002
   outer loop
     vertex -2.644747e+002  3.136047e+001  5.434471e+001
     vertex -2.644747e+002  3.138092e+001  5.450000e+001
     vertex -2.643547e+002  3.126092e+001  5.450000e+001
   endloop
 endfacet
 facet normal  7.040626e-001  5.633903e-001 -4.323046e-001
   outer loop
     vertex -2.644747e+002  3.130053e+001  5.420000e+001
     vertex -2.643547e+002  3.119661e+001  5.426000e+001
     vertex -2.643547e+002  3.112033e+001  5.416059e+001
   endloop
 endfacet
 facet normal  7.040626e-001  6.560819e-001 -2.717580e-001
   outer loop
     vertex -2.644747e+002  3.130053e+001  5.420000e+001
     vertex -2.643547e+002  3.124456e+001  5.437577e+001
     vertex -2.643547e+002  3.119661e+001  5.426000e+001
   endloop
 endfacet
 facet normal  7.040626e-001  6.560819e-001 -2.717580e-001
   outer loop
     vertex -2.644747e+002  3.130053e+001  5.420000e+001
     vertex -2.644747e+002  3.136047e+001  5.434471e+001
     vertex -2.643547e+002  3.124456e+001  5.437577e+001
   endloop
 endfacet
 facet normal  7.040626e-001  5.633903e-001 -4.323046e-001
   outer loop
     vertex -2.644747e+002  3.120518e+001  5.407574e+001
     vertex -2.644747e+002  3.130053e+001  5.420000e+001
     vertex -2.643547e+002  3.112033e+001  5.416059e+001
   endloop
 endfacet
 facet normal  7.040626e-001  2.717580e-001 -6.560819e-001
   outer loop
     vertex -2.644747e+002  3.108092e+001  5.398038e+001
     vertex -2.643547e+002  3.102092e+001  5.408431e+001
     vertex -2.643547e+002  3.090515e+001  5.403636e+001
   endloop
 endfacet
 facet normal  7.040626e-001  4.323046e-001 -5.633903e-001
   outer loop
     vertex -2.644747e+002  3.108092e+001  5.398038e+001
     vertex -2.643547e+002  3.112033e+001  5.416059e+001
     vertex -2.643547e+002  3.102092e+001  5.408431e+001
   endloop
 endfacet
 facet normal  0.000000e+000 -3.826834e-001  9.238795e-001
   outer loop
     vertex -2.743547e+002  3.062563e+001  5.507956e+001
     vertex -2.743547e+002  3.048092e+001  5.501962e+001
     vertex -2.644747e+002  3.062563e+001  5.507956e+001
   endloop
 endfacet
 facet normal  0.000000e+000 -1.305262e-001  9.914449e-001
   outer loop
     vertex -2.644747e+002  3.078092e+001  5.510000e+001
     vertex -2.743547e+002  3.062563e+001  5.507956e+001
     vertex -2.644747e+002  3.062563e+001  5.507956e+001
   endloop
 endfacet
 facet normal  0.000000e+000 -1.305262e-001  9.914449e-001
   outer loop
     vertex -2.743547e+002  3.078092e+001  5.510000e+001
     vertex -2.743547e+002  3.062563e+001  5.507956e+001
     vertex -2.644747e+002  3.078092e+001  5.510000e+001
   endloop
 endfacet
 facet normal  0.000000e+000 -1.305262e-001 -9.914449e-001
   outer loop
     vertex -2.644747e+002  3.062563e+001  5.392044e+001
     vertex -2.743547e+002  3.078092e+001  5.390000e+001
     vertex -2.644747e+002  3.078092e+001  5.390000e+001
   endloop
 endfacet
 facet normal  0.000000e+000 -1.305262e-001 -9.914449e-001
   outer loop
     vertex -2.743547e+002  3.062563e+001  5.392044e+001
     vertex -2.743547e+002  3.078092e+001  5.390000e+001
     vertex -2.644747e+002  3.062563e+001  5.392044e+001
   endloop
 endfacet
 facet normal  0.000000e+000 -3.826834e-001 -9.238795e-001
   outer loop
     vertex -2.644747e+002  3.048092e+001  5.398038e+001
     vertex -2.743547e+002  3.062563e+001  5.392044e+001
     vertex -2.644747e+002  3.062563e+001  5.392044e+001
   endloop
 endfacet
 facet normal  0.000000e+000 -3.826834e-001 -9.238795e-001
   outer loop
     vertex -2.743547e+002  3.048092e+001  5.398038e+001
     vertex -2.743547e+002  3.062563e+001  5.392044e+001
     vertex -2.644747e+002  3.048092e+001  5.398038e+001
   endloop
 endfacet
 facet normal  0.000000e+000 -6.087614e-001 -7.933533e-001
   outer loop
     vertex -2.644747e+002  3.035665e+001  5.407574e+001
     vertex -2.743547e+002  3.048092e+001  5.398038e+001
     vertex -2.644747e+002  3.048092e+001  5.398038e+001
   endloop
 endfacet
 facet normal  0.000000e+000 -6.087614e-001 -7.933533e-001
   outer loop
     vertex -2.743547e+002  3.035665e+001  5.407574e+001
     vertex -2.743547e+002  3.048092e+001  5.398038e+001
     vertex -2.644747e+002  3.035665e+001  5.407574e+001
   endloop
 endfacet
 facet normal  0.000000e+000 -7.933533e-001 -6.087614e-001
   outer loop
     vertex -2.644747e+002  3.026130e+001  5.420000e+001
     vertex -2.743547e+002  3.035665e+001  5.407574e+001
     vertex -2.644747e+002  3.035665e+001  5.407574e+001
   endloop
 endfacet
 facet normal  0.000000e+000 -7.933533e-001 -6.087614e-001
   outer loop
     vertex -2.743547e+002  3.026130e+001  5.420000e+001
     vertex -2.743547e+002  3.035665e+001  5.407574e+001
     vertex -2.644747e+002  3.026130e+001  5.420000e+001
   endloop
 endfacet
 facet normal  0.000000e+000 -9.238795e-001 -3.826834e-001
   outer loop
     vertex -2.644747e+002  3.020136e+001  5.434471e+001
     vertex -2.743547e+002  3.026130e+001  5.420000e+001
     vertex -2.644747e+002  3.026130e+001  5.420000e+001
   endloop
 endfacet
 facet normal  0.000000e+000 -9.238795e-001 -3.826834e-001
   outer loop
     vertex -2.743547e+002  3.020136e+001  5.434471e+001
     vertex -2.743547e+002  3.026130e+001  5.420000e+001
     vertex -2.644747e+002  3.020136e+001  5.434471e+001
   endloop
 endfacet
 facet normal  0.000000e+000 -9.914449e-001 -1.305262e-001
   outer loop
     vertex -2.644747e+002  3.018092e+001  5.450000e+001
     vertex -2.743547e+002  3.020136e+001  5.434471e+001
     vertex -2.644747e+002  3.020136e+001  5.434471e+001
   endloop
 endfacet
 facet normal  0.000000e+000 -9.914449e-001 -1.305262e-001
   outer loop
     vertex -2.743547e+002  3.018092e+001  5.450000e+001
     vertex -2.743547e+002  3.020136e+001  5.434471e+001
     vertex -2.644747e+002  3.018092e+001  5.450000e+001
   endloop
 endfacet
 facet normal  0.000000e+000 -9.914449e-001  1.305262e-001
   outer loop
     vertex -2.644747e+002  3.020136e+001  5.465529e+001
     vertex -2.743547e+002  3.018092e+001  5.450000e+001
     vertex -2.644747e+002  3.018092e+001  5.450000e+001
   endloop
 endfacet
 facet normal  0.000000e+000 -9.914449e-001  1.305262e-001
   outer loop
     vertex -2.743547e+002  3.020136e+001  5.465529e+001
     vertex -2.743547e+002  3.018092e+001  5.450000e+001
     vertex -2.644747e+002  3.020136e+001  5.465529e+001
   endloop
 endfacet
 facet normal  0.000000e+000 -9.238795e-001  3.826834e-001
   outer loop
     vertex -2.644747e+002  3.026130e+001  5.480000e+001
     vertex -2.743547e+002  3.020136e+001  5.465529e+001
     vertex -2.644747e+002  3.020136e+001  5.465529e+001
   endloop
 endfacet
 facet normal  0.000000e+000 -9.238795e-001  3.826834e-001
   outer loop
     vertex -2.743547e+002  3.026130e+001  5.480000e+001
     vertex -2.743547e+002  3.020136e+001  5.465529e+001
     vertex -2.644747e+002  3.026130e+001  5.480000e+001
   endloop
 endfacet
 facet normal  0.000000e+000 -7.933533e-001  6.087614e-001
   outer loop
     vertex -2.644747e+002  3.035665e+001  5.492426e+001
     vertex -2.743547e+002  3.026130e+001  5.480000e+001
     vertex -2.644747e+002  3.026130e+001  5.480000e+001
   endloop
 endfacet
 facet normal  0.000000e+000 -7.933533e-001  6.087614e-001
   outer loop
     vertex -2.743547e+002  3.035665e+001  5.492426e+001
     vertex -2.743547e+002  3.026130e+001  5.480000e+001
     vertex -2.644747e+002  3.035665e+001  5.492426e+001
   endloop
 endfacet
 facet normal  0.000000e+000 -6.087614e-001  7.933533e-001
   outer loop
     vertex -2.644747e+002  3.048092e+001  5.501962e+001
     vertex -2.743547e+002  3.035665e+001  5.492426e+001
     vertex -2.644747e+002  3.035665e+001  5.492426e+001
   endloop
 endfacet
 facet normal  0.000000e+000 -6.087614e-001  7.933533e-001
   outer loop
     vertex -2.743547e+002  3.048092e+001  5.501962e+001
     vertex -2.743547e+002  3.035665e+001  5.492426e+001
     vertex -2.644747e+002  3.048092e+001  5.501962e+001
   endloop
 endfacet
 facet normal  0.000000e+000 -3.826834e-001  9.238795e-001
   outer loop
     vertex -2.644747e+002  3.062563e+001  5.507956e+001
     vertex -2.743547e+002  3.048092e+001  5.501962e+001
     vertex -2.644747e+002  3.048092e+001  5.501962e+001
   endloop
 endfacet
 facet normal  0.000000e+000  3.826834e-001 -9.238795e-001
   outer loop
     vertex -2.644747e+002  3.093621e+001  5.392044e+001
     vertex -2.743547e+002  3.108092e+001  5.398038e+001
     vertex -2.644747e+002  3.108092e+001  5.398038e+001
   endloop
 endfacet
 facet normal  0.000000e+000  3.826834e-001 -9.238795e-001
   outer loop
     vertex -2.743547e+002  3.093621e+001  5.392044e+001
     vertex -2.743547e+002  3.108092e+001  5.398038e+001
     vertex -2.644747e+002  3.093621e+001  5.392044e+001
   endloop
 endfacet
 facet normal  0.000000e+000  1.305262e-001 -9.914449e-001
   outer loop
     vertex -2.644747e+002  3.078092e+001  5.390000e+001
     vertex -2.743547e+002  3.093621e+001  5.392044e+001
     vertex -2.644747e+002  3.093621e+001  5.392044e+001
   endloop
 endfacet
 facet normal -0.000000e+000  1.305262e-001  9.914449e-001
   outer loop
     vertex -2.743547e+002  3.093621e+001  5.507956e+001
     vertex -2.743547e+002  3.078092e+001  5.510000e+001
     vertex -2.644747e+002  3.078092e+001  5.510000e+001
   endloop
 endfacet
 facet normal  0.000000e+000  1.305262e-001  9.914449e-001
   outer loop
     vertex -2.743547e+002  3.093621e+001  5.507956e+001
     vertex -2.644747e+002  3.078092e+001  5.510000e+001
     vertex -2.644747e+002  3.093621e+001  5.507956e+001
   endloop
 endfacet
 facet normal  0.000000e+000  1.305262e-001 -9.914449e-001
   outer loop
     vertex -2.743547e+002  3.078092e+001  5.390000e+001
     vertex -2.743547e+002  3.093621e+001  5.392044e+001
     vertex -2.644747e+002  3.078092e+001  5.390000e+001
   endloop
 endfacet
 facet normal  0.000000e+000  3.826834e-001  9.238795e-001
   outer loop
     vertex -2.743547e+002  3.108092e+001  5.501962e+001
     vertex -2.644747e+002  3.093621e+001  5.507956e+001
     vertex -2.644747e+002  3.108092e+001  5.501962e+001
   endloop
 endfacet
 facet normal -0.000000e+000  3.826834e-001  9.238795e-001
   outer loop
     vertex -2.743547e+002  3.108092e+001  5.501962e+001
     vertex -2.743547e+002  3.093621e+001  5.507956e+001
     vertex -2.644747e+002  3.093621e+001  5.507956e+001
   endloop
 endfacet
 facet normal  0.000000e+000  6.087614e-001  7.933533e-001
   outer loop
     vertex -2.743547e+002  3.120518e+001  5.492426e+001
     vertex -2.644747e+002  3.108092e+001  5.501962e+001
     vertex -2.644747e+002  3.120518e+001  5.492426e+001
   endloop
 endfacet
 facet normal -0.000000e+000  6.087614e-001  7.933533e-001
   outer loop
     vertex -2.743547e+002  3.120518e+001  5.492426e+001
     vertex -2.743547e+002  3.108092e+001  5.501962e+001
     vertex -2.644747e+002  3.108092e+001  5.501962e+001
   endloop
 endfacet
 facet normal  0.000000e+000  7.933533e-001  6.087614e-001
   outer loop
     vertex -2.743547e+002  3.130053e+001  5.480000e+001
     vertex -2.644747e+002  3.120518e+001  5.492426e+001
     vertex -2.644747e+002  3.130053e+001  5.480000e+001
   endloop
 endfacet
 facet normal -0.000000e+000  7.933533e-001  6.087614e-001
   outer loop
     vertex -2.743547e+002  3.130053e+001  5.480000e+001
     vertex -2.743547e+002  3.120518e+001  5.492426e+001
     vertex -2.644747e+002  3.120518e+001  5.492426e+001
   endloop
 endfacet
 facet normal  0.000000e+000  9.238795e-001  3.826834e-001
   outer loop
     vertex -2.743547e+002  3.136047e+001  5.465529e+001
     vertex -2.644747e+002  3.130053e+001  5.480000e+001
     vertex -2.644747e+002  3.136047e+001  5.465529e+001
   endloop
 endfacet
 facet normal -0.000000e+000  9.238795e-001  3.826834e-001
   outer loop
     vertex -2.743547e+002  3.136047e+001  5.465529e+001
     vertex -2.743547e+002  3.130053e+001  5.480000e+001
     vertex -2.644747e+002  3.130053e+001  5.480000e+001
   endloop
 endfacet
 facet normal  0.000000e+000  9.914449e-001  1.305262e-001
   outer loop
     vertex -2.743547e+002  3.138092e+001  5.450000e+001
     vertex -2.644747e+002  3.136047e+001  5.465529e+001
     vertex -2.644747e+002  3.138092e+001  5.450000e+001
   endloop
 endfacet
 facet normal -0.000000e+000  9.914449e-001  1.305262e-001
   outer loop
     vertex -2.743547e+002  3.138092e+001  5.450000e+001
     vertex -2.743547e+002  3.136047e+001  5.465529e+001
     vertex -2.644747e+002  3.136047e+001  5.465529e+001
   endloop
 endfacet
 facet normal  0.000000e+000  9.914449e-001 -1.305262e-001
   outer loop
     vertex -2.743547e+002  3.136047e+001  5.434471e+001
     vertex -2.644747e+002  3.138092e+001  5.450000e+001
     vertex -2.644747e+002  3.136047e+001  5.434471e+001
   endloop
 endfacet
 facet normal  0.000000e+000  9.914449e-001 -1.305262e-001
   outer loop
     vertex -2.743547e+002  3.136047e+001  5.434471e+001
     vertex -2.743547e+002  3.138092e+001  5.450000e+001
     vertex -2.644747e+002  3.138092e+001  5.450000e+001
   endloop
 endfacet
 facet normal  0.000000e+000  9.238795e-001 -3.826834e-001
   outer loop
     vertex -2.644747e+002  3.130053e+001  5.420000e+001
     vertex -2.743547e+002  3.136047e+001  5.434471e+001
     vertex -2.644747e+002  3.136047e+001  5.434471e+001
   endloop
 endfacet
 facet normal  0.000000e+000  9.238795e-001 -3.826834e-001
   outer loop
     vertex -2.743547e+002  3.130053e+001  5.420000e+001
     vertex -2.743547e+002  3.136047e+001  5.434471e+001
     vertex -2.644747e+002  3.130053e+001  5.420000e+001
   endloop
 endfacet
 facet normal  0.000000e+000  7.933533e-001 -6.087614e-001
   outer loop
     vertex -2.644747e+002  3.120518e+001  5.407574e+001
     vertex -2.743547e+002  3.130053e+001  5.420000e+001
     vertex -2.644747e+002  3.130053e+001  5.420000e+001
   endloop
 endfacet
 facet normal  0.000000e+000  7.933533e-001 -6.087614e-001
   outer loop
     vertex -2.743547e+002  3.120518e+001  5.407574e+001
     vertex -2.743547e+002  3.130053e+001  5.420000e+001
     vertex -2.644747e+002  3.120518e+001  5.407574e+001
   endloop
 endfacet
 facet normal  0.000000e+000  6.087614e-001 -7.933533e-001
   outer loop
     vertex -2.644747e+002  3.108092e+001  5.398038e+001
     vertex -2.743547e+002  3.120518e+001  5.407574e+001
     vertex -2.644747e+002  3.120518e+001  5.407574e+001
   endloop
 endfacet
 facet normal  0.000000e+000  6.087614e-001 -7.933533e-001
   outer loop
     vertex -2.743547e+002  3.108092e+001  5.398038e+001
     vertex -2.743547e+002  3.120518e+001  5.407574e+001
     vertex -2.644747e+002  3.108092e+001  5.398038e+001
   endloop
 endfacet
 facet normal -1.000000e+000  0.000000e+000  0.000000e+000
   outer loop
     vertex -2.751547e+002  3.013092e+001  5.450000e+001
     vertex -2.751547e+002  3.063092e+001  5.564018e+001
     vertex -2.751547e+002  3.063092e+001  5.335982e+001
   endloop
 endfacet
 facet normal -1.000000e+000 -0.000000e+000 -0.000000e+000
   outer loop
     vertex -2.751547e+002  3.013092e+001  5.450000e+001
     vertex -2.751547e+002  3.063092e+001  5.335982e+001
     vertex -2.751547e+002  3.040118e+001  5.341450e+001
   endloop
 endfacet
 facet normal -1.000000e+000 -0.000000e+000 -0.000000e+000
   outer loop
     vertex -2.751547e+002  3.013092e+001  5.450000e+001
     vertex -2.751547e+002  3.040118e+001  5.341450e+001
     vertex -2.751547e+002  3.018746e+001  5.351496e+001
   endloop
 endfacet
 facet normal -1.000000e+000 -0.000000e+000 -0.000000e+000
   outer loop
     vertex -2.751547e+002  3.013092e+001  5.450000e+001
     vertex -2.751547e+002  3.018746e+001  5.351496e+001
     vertex -2.751547e+002  2.999876e+001  5.365695e+001
   endloop
 endfacet
 facet normal -1.000000e+000 -0.000000e+000  0.000000e+000
   outer loop
     vertex -2.751547e+002  3.013092e+001  5.450000e+001
     vertex -2.751547e+002  2.999876e+001  5.365695e+001
     vertex -2.751547e+002  2.984305e+001  5.383449e+001
   endloop
 endfacet
 facet normal -1.000000e+000 -0.000000e+000  0.000000e+000
   outer loop
     vertex -2.751547e+002  3.013092e+001  5.450000e+001
     vertex -2.751547e+002  2.984305e+001  5.383449e+001
     vertex -2.751547e+002  2.972688e+001  5.404010e+001
   endloop
 endfacet
 facet normal -1.000000e+000 -0.000000e+000  0.000000e+000
   outer loop
     vertex -2.751547e+002  3.013092e+001  5.450000e+001
     vertex -2.751547e+002  2.972688e+001  5.404010e+001
     vertex -2.751547e+002  2.965516e+001  5.426510e+001
   endloop
 endfacet
 facet normal -1.000000e+000 -0.000000e+000  0.000000e+000
   outer loop
     vertex -2.751547e+002  3.013092e+001  5.450000e+001
     vertex -2.751547e+002  2.965516e+001  5.426510e+001
     vertex -2.751547e+002  2.963092e+001  5.450000e+001
   endloop
 endfacet
 facet normal -1.000000e+000  0.000000e+000  0.000000e+000
   outer loop
     vertex -2.751547e+002  3.013092e+001  5.450000e+001
     vertex -2.751547e+002  2.963092e+001  5.450000e+001
     vertex -2.751547e+002  2.965516e+001  5.473490e+001
   endloop
 endfacet
 facet normal -1.000000e+000  0.000000e+000  0.000000e+000
   outer loop
     vertex -2.751547e+002  3.013092e+001  5.450000e+001
     vertex -2.751547e+002  2.965516e+001  5.473490e+001
     vertex -2.751547e+002  2.972688e+001  5.495990e+001
   endloop
 endfacet
 facet normal -1.000000e+000  0.000000e+000  0.000000e+000
   outer loop
     vertex -2.751547e+002  3.013092e+001  5.450000e+001
     vertex -2.751547e+002  2.972688e+001  5.495990e+001
     vertex -2.751547e+002  2.984305e+001  5.516551e+001
   endloop
 endfacet
 facet normal -1.000000e+000  0.000000e+000  0.000000e+000
   outer loop
     vertex -2.751547e+002  3.013092e+001  5.450000e+001
     vertex -2.751547e+002  2.984305e+001  5.516551e+001
     vertex -2.751547e+002  2.999876e+001  5.534305e+001
   endloop
 endfacet
 facet normal -1.000000e+000  0.000000e+000  0.000000e+000
   outer loop
     vertex -2.751547e+002  3.013092e+001  5.450000e+001
     vertex -2.751547e+002  2.999876e+001  5.534305e+001
     vertex -2.751547e+002  3.018746e+001  5.548504e+001
   endloop
 endfacet
 facet normal -1.000000e+000  0.000000e+000  0.000000e+000
   outer loop
     vertex -2.751547e+002  3.013092e+001  5.450000e+001
     vertex -2.751547e+002  3.018746e+001  5.548504e+001
     vertex -2.751547e+002  3.040118e+001  5.558550e+001
   endloop
 endfacet
 facet normal -1.000000e+000  0.000000e+000  0.000000e+000
   outer loop
     vertex -2.751547e+002  3.013092e+001  5.450000e+001
     vertex -2.751547e+002  3.040118e+001  5.558550e+001
     vertex -2.751547e+002  3.063092e+001  5.564018e+001
   endloop
 endfacet
 facet normal  0.000000e+000  1.000000e+000 -0.000000e+000
   outer loop
     vertex -2.748547e+002  3.063092e+001  5.335982e+001
     vertex -2.751547e+002  3.063092e+001  5.564018e+001
     vertex -2.748547e+002  3.063092e+001  5.564018e+001
   endloop
 endfacet
 facet normal  0.000000e+000  1.000000e+000 -0.000000e+000
   outer loop
     vertex -2.748547e+002  3.063092e+001  5.335982e+001
     vertex -2.751547e+002  3.063092e+001  5.335982e+001
     vertex -2.751547e+002  3.063092e+001  5.564018e+001
   endloop
 endfacet
 facet normal -1.000000e+000 -0.000000e+000  0.000000e+000
   outer loop
     vertex -2.751547e+002  3.143092e+001  5.450000e+001
     vertex -2.751547e+002  3.093092e+001  5.335982e+001
     vertex -2.751547e+002  3.093092e+001  5.564018e+001
   endloop
 endfacet
 facet normal -1.000000e+000  0.000000e+000  0.000000e+000
   outer loop
     vertex -2.751547e+002  3.143092e+001  5.450000e+001
     vertex -2.751547e+002  3.093092e+001  5.564018e+001
     vertex -2.751547e+002  3.116065e+001  5.558550e+001
   endloop
 endfacet
 facet normal -1.000000e+000  0.000000e+000  0.000000e+000
   outer loop
     vertex -2.751547e+002  3.143092e+001  5.450000e+001
     vertex -2.751547e+002  3.116065e+001  5.558550e+001
     vertex -2.751547e+002  3.137437e+001  5.548504e+001
   endloop
 endfacet
 facet normal -1.000000e+000  0.000000e+000  0.000000e+000
   outer loop
     vertex -2.751547e+002  3.143092e+001  5.450000e+001
     vertex -2.751547e+002  3.137437e+001  5.548504e+001
     vertex -2.751547e+002  3.156307e+001  5.534305e+001
   endloop
 endfacet
 facet normal -1.000000e+000  0.000000e+000  0.000000e+000
   outer loop
     vertex -2.751547e+002  3.143092e+001  5.450000e+001
     vertex -2.751547e+002  3.156307e+001  5.534305e+001
     vertex -2.751547e+002  3.171879e+001  5.516551e+001
   endloop
 endfacet
 facet normal -1.000000e+000  0.000000e+000  0.000000e+000
   outer loop
     vertex -2.751547e+002  3.143092e+001  5.450000e+001
     vertex -2.751547e+002  3.171879e+001  5.516551e+001
     vertex -2.751547e+002  3.183495e+001  5.495990e+001
   endloop
 endfacet
 facet normal -1.000000e+000  0.000000e+000  0.000000e+000
   outer loop
     vertex -2.751547e+002  3.143092e+001  5.450000e+001
     vertex -2.751547e+002  3.183495e+001  5.495990e+001
     vertex -2.751547e+002  3.190667e+001  5.473490e+001
   endloop
 endfacet
 facet normal -1.000000e+000  0.000000e+000  0.000000e+000
   outer loop
     vertex -2.751547e+002  3.143092e+001  5.450000e+001
     vertex -2.751547e+002  3.190667e+001  5.473490e+001
     vertex -2.751547e+002  3.193092e+001  5.450000e+001
   endloop
 endfacet
 facet normal -1.000000e+000  0.000000e+000 -0.000000e+000
   outer loop
     vertex -2.751547e+002  3.143092e+001  5.450000e+001
     vertex -2.751547e+002  3.193092e+001  5.450000e+001
     vertex -2.751547e+002  3.190667e+001  5.426510e+001
   endloop
 endfacet
 facet normal -1.000000e+000  0.000000e+000 -0.000000e+000
   outer loop
     vertex -2.751547e+002  3.143092e+001  5.450000e+001
     vertex -2.751547e+002  3.190667e+001  5.426510e+001
     vertex -2.751547e+002  3.183495e+001  5.404010e+001
   endloop
 endfacet
 facet normal -1.000000e+000  0.000000e+000 -0.000000e+000
   outer loop
     vertex -2.751547e+002  3.143092e+001  5.450000e+001
     vertex -2.751547e+002  3.183495e+001  5.404010e+001
     vertex -2.751547e+002  3.171879e+001  5.383449e+001
   endloop
 endfacet
 facet normal -1.000000e+000  0.000000e+000 -0.000000e+000
   outer loop
     vertex -2.751547e+002  3.143092e+001  5.450000e+001
     vertex -2.751547e+002  3.171879e+001  5.383449e+001
     vertex -2.751547e+002  3.156307e+001  5.365695e+001
   endloop
 endfacet
 facet normal -1.000000e+000  0.000000e+000 -0.000000e+000
   outer loop
     vertex -2.751547e+002  3.143092e+001  5.450000e+001
     vertex -2.751547e+002  3.156307e+001  5.365695e+001
     vertex -2.751547e+002  3.137437e+001  5.351496e+001
   endloop
 endfacet
 facet normal -1.000000e+000  0.000000e+000  0.000000e+000
   outer loop
     vertex -2.751547e+002  3.143092e+001  5.450000e+001
     vertex -2.751547e+002  3.137437e+001  5.351496e+001
     vertex -2.751547e+002  3.116065e+001  5.341450e+001
   endloop
 endfacet
 facet normal -1.000000e+000  0.000000e+000  0.000000e+000
   outer loop
     vertex -2.751547e+002  3.143092e+001  5.450000e+001
     vertex -2.751547e+002  3.116065e+001  5.341450e+001
     vertex -2.751547e+002  3.093092e+001  5.335982e+001
   endloop
 endfacet
 facet normal -0.000000e+000 -1.000000e+000 -0.000000e+000
   outer loop
     vertex -2.748547e+002  3.093092e+001  5.564018e+001
     vertex -2.751547e+002  3.093092e+001  5.564018e+001
     vertex -2.751547e+002  3.093092e+001  5.335982e+001
   endloop
 endfacet
 facet normal  0.000000e+000 -1.000000e+000 -0.000000e+000
   outer loop
     vertex -2.748547e+002  3.093092e+001  5.564018e+001
     vertex -2.751547e+002  3.093092e+001  5.335982e+001
     vertex -2.748547e+002  3.093092e+001  5.335982e+001
   endloop
 endfacet
 facet normal -1.000000e+000  0.000000e+000  0.000000e+000
   outer loop
     vertex -2.748547e+002  3.078092e+001  5.450000e+001
     vertex -2.748547e+002  3.088108e+001  5.564563e+001
     vertex -2.748547e+002  3.093092e+001  5.564018e+001
   endloop
 endfacet
 facet normal -1.000000e+000  0.000000e+000  0.000000e+000
   outer loop
     vertex -2.748547e+002  3.078092e+001  5.450000e+001
     vertex -2.748547e+002  3.083104e+001  5.564891e+001
     vertex -2.748547e+002  3.088108e+001  5.564563e+001
   endloop
 endfacet
 facet normal -1.000000e+000  0.000000e+000  0.000000e+000
   outer loop
     vertex -2.748547e+002  3.078092e+001  5.450000e+001
     vertex -2.748547e+002  3.078092e+001  5.565000e+001
     vertex -2.748547e+002  3.083104e+001  5.564891e+001
   endloop
 endfacet
 facet normal -1.000000e+000  0.000000e+000  0.000000e+000
   outer loop
     vertex -2.748547e+002  3.078092e+001  5.450000e+001
     vertex -2.748547e+002  3.093092e+001  5.564018e+001
     vertex -2.748547e+002  3.093092e+001  5.335982e+001
   endloop
 endfacet
 facet normal -1.000000e+000  0.000000e+000 -0.000000e+000
   outer loop
     vertex -2.748547e+002  3.078092e+001  5.450000e+001
     vertex -2.748547e+002  3.083104e+001  5.335109e+001
     vertex -2.748547e+002  3.078092e+001  5.335000e+001
   endloop
 endfacet
 facet normal -1.000000e+000  0.000000e+000 -0.000000e+000
   outer loop
     vertex -2.748547e+002  3.078092e+001  5.450000e+001
     vertex -2.748547e+002  3.088108e+001  5.335437e+001
     vertex -2.748547e+002  3.083104e+001  5.335109e+001
   endloop
 endfacet
 facet normal -1.000000e+000  0.000000e+000 -0.000000e+000
   outer loop
     vertex -2.748547e+002  3.078092e+001  5.450000e+001
     vertex -2.748547e+002  3.093092e+001  5.335982e+001
     vertex -2.748547e+002  3.088108e+001  5.335437e+001
   endloop
 endfacet
 facet normal -1.000000e+000 -0.000000e+000  0.000000e+000
   outer loop
     vertex -2.748547e+002  3.078092e+001  5.450000e+001
     vertex -2.748547e+002  3.068076e+001  5.335437e+001
     vertex -2.748547e+002  3.063092e+001  5.335982e+001
   endloop
 endfacet
 facet normal -1.000000e+000 -0.000000e+000  0.000000e+000
   outer loop
     vertex -2.748547e+002  3.078092e+001  5.450000e+001
     vertex -2.748547e+002  3.073079e+001  5.335109e+001
     vertex -2.748547e+002  3.068076e+001  5.335437e+001
   endloop
 endfacet
 facet normal -1.000000e+000 -0.000000e+000 -0.000000e+000
   outer loop
     vertex -2.748547e+002  3.078092e+001  5.450000e+001
     vertex -2.748547e+002  3.078092e+001  5.335000e+001
     vertex -2.748547e+002  3.073079e+001  5.335109e+001
   endloop
 endfacet
 facet normal -1.000000e+000 -0.000000e+000  0.000000e+000
   outer loop
     vertex -2.748547e+002  3.078092e+001  5.450000e+001
     vertex -2.748547e+002  3.063092e+001  5.335982e+001
     vertex -2.748547e+002  3.063092e+001  5.564018e+001
   endloop
 endfacet
 facet normal -1.000000e+000  0.000000e+000  0.000000e+000
   outer loop
     vertex -2.748547e+002  3.078092e+001  5.450000e+001
     vertex -2.748547e+002  3.073079e+001  5.564891e+001
     vertex -2.748547e+002  3.078092e+001  5.565000e+001
   endloop
 endfacet
 facet normal -1.000000e+000  0.000000e+000  0.000000e+000
   outer loop
     vertex -2.748547e+002  3.078092e+001  5.450000e+001
     vertex -2.748547e+002  3.068076e+001  5.564563e+001
     vertex -2.748547e+002  3.073079e+001  5.564891e+001
   endloop
 endfacet
 facet normal -1.000000e+000  0.000000e+000  0.000000e+000
   outer loop
     vertex -2.748547e+002  3.078092e+001  5.450000e+001
     vertex -2.748547e+002  3.063092e+001  5.564018e+001
     vertex -2.748547e+002  3.068076e+001  5.564563e+001
   endloop
 endfacet
 facet normal  1.000000e+000  0.000000e+000  0.000000e+000
   outer loop
     vertex -2.743547e+002  3.035665e+001  5.407574e+001
     vertex -2.743547e+002  2.982473e+001  5.386109e+001
     vertex -2.743547e+002  2.996774e+001  5.368683e+001
   endloop
 endfacet
 facet normal  1.000000e+000  0.000000e+000  0.000000e+000
   outer loop
     vertex -2.743547e+002  3.035665e+001  5.407574e+001
     vertex -2.743547e+002  2.996774e+001  5.368683e+001
     vertex -2.743547e+002  3.014201e+001  5.354381e+001
   endloop
 endfacet
 facet normal  1.000000e+000  0.000000e+000  0.000000e+000
   outer loop
     vertex -2.743547e+002  3.048092e+001  5.398038e+001
     vertex -2.743547e+002  3.014201e+001  5.354381e+001
     vertex -2.743547e+002  3.034083e+001  5.343754e+001
   endloop
 endfacet
 facet normal  1.000000e+000  0.000000e+000  0.000000e+000
   outer loop
     vertex -2.743547e+002  3.048092e+001  5.398038e+001
     vertex -2.743547e+002  3.035665e+001  5.407574e+001
     vertex -2.743547e+002  3.014201e+001  5.354381e+001
   endloop
 endfacet
 facet normal  1.000000e+000  0.000000e+000  0.000000e+000
   outer loop
     vertex -2.743547e+002  3.026130e+001  5.420000e+001
     vertex -2.743547e+002  2.971846e+001  5.405991e+001
     vertex -2.743547e+002  2.982473e+001  5.386109e+001
   endloop
 endfacet
 facet normal  1.000000e+000 -0.000000e+000  0.000000e+000
   outer loop
     vertex -2.743547e+002  3.026130e+001  5.420000e+001
     vertex -2.743547e+002  2.982473e+001  5.386109e+001
     vertex -2.743547e+002  3.035665e+001  5.407574e+001
   endloop
 endfacet
 facet normal  1.000000e+000  0.000000e+000  0.000000e+000
   outer loop
     vertex -2.743547e+002  3.062563e+001  5.392044e+001
     vertex -2.743547e+002  3.034083e+001  5.343754e+001
     vertex -2.743547e+002  3.055656e+001  5.337210e+001
   endloop
 endfacet
 facet normal  1.000000e+000  0.000000e+000  0.000000e+000
   outer loop
     vertex -2.743547e+002  3.062563e+001  5.392044e+001
     vertex -2.743547e+002  3.048092e+001  5.398038e+001
     vertex -2.743547e+002  3.034083e+001  5.343754e+001
   endloop
 endfacet
 facet normal  1.000000e+000  0.000000e+000  0.000000e+000
   outer loop
     vertex -2.743547e+002  3.020136e+001  5.434471e+001
     vertex -2.743547e+002  2.965301e+001  5.427565e+001
     vertex -2.743547e+002  2.971846e+001  5.405991e+001
   endloop
 endfacet
 facet normal  1.000000e+000 -0.000000e+000  0.000000e+000
   outer loop
     vertex -2.743547e+002  3.020136e+001  5.434471e+001
     vertex -2.743547e+002  2.971846e+001  5.405991e+001
     vertex -2.743547e+002  3.026130e+001  5.420000e+001
   endloop
 endfacet
 facet normal  1.000000e+000  0.000000e+000  0.000000e+000
   outer loop
     vertex -2.743547e+002  3.078092e+001  5.390000e+001
     vertex -2.743547e+002  3.055656e+001  5.337210e+001
     vertex -2.743547e+002  3.078092e+001  5.335000e+001
   endloop
 endfacet
 facet normal  1.000000e+000 -0.000000e+000  0.000000e+000
   outer loop
     vertex -2.743547e+002  3.078092e+001  5.390000e+001
     vertex -2.743547e+002  3.078092e+001  5.335000e+001
     vertex -2.743547e+002  3.100527e+001  5.337210e+001
   endloop
 endfacet
 facet normal  1.000000e+000  0.000000e+000  0.000000e+000
   outer loop
     vertex -2.743547e+002  3.078092e+001  5.390000e+001
     vertex -2.743547e+002  3.062563e+001  5.392044e+001
     vertex -2.743547e+002  3.055656e+001  5.337210e+001
   endloop
 endfacet
 facet normal  1.000000e+000  0.000000e+000  0.000000e+000
   outer loop
     vertex -2.743547e+002  3.018092e+001  5.450000e+001
     vertex -2.743547e+002  2.965301e+001  5.472435e+001
     vertex -2.743547e+002  2.963092e+001  5.450000e+001
   endloop
 endfacet
 facet normal  1.000000e+000  0.000000e+000  0.000000e+000
   outer loop
     vertex -2.743547e+002  3.018092e+001  5.450000e+001
     vertex -2.743547e+002  2.963092e+001  5.450000e+001
     vertex -2.743547e+002  2.965301e+001  5.427565e+001
   endloop
 endfacet
 facet normal  1.000000e+000 -0.000000e+000  0.000000e+000
   outer loop
     vertex -2.743547e+002  3.018092e+001  5.450000e+001
     vertex -2.743547e+002  2.965301e+001  5.427565e+001
     vertex -2.743547e+002  3.020136e+001  5.434471e+001
   endloop
 endfacet
 facet normal  1.000000e+000  0.000000e+000  0.000000e+000
   outer loop
     vertex -2.743547e+002  3.020136e+001  5.465529e+001
     vertex -2.743547e+002  2.971846e+001  5.494009e+001
     vertex -2.743547e+002  2.965301e+001  5.472435e+001
   endloop
 endfacet
 facet normal  1.000000e+000  0.000000e+000  0.000000e+000
   outer loop
     vertex -2.743547e+002  3.020136e+001  5.465529e+001
     vertex -2.743547e+002  2.965301e+001  5.472435e+001
     vertex -2.743547e+002  3.018092e+001  5.450000e+001
   endloop
 endfacet
 facet normal  1.000000e+000 -0.000000e+000  0.000000e+000
   outer loop
     vertex -2.743547e+002  3.093621e+001  5.392044e+001
     vertex -2.743547e+002  3.100527e+001  5.337210e+001
     vertex -2.743547e+002  3.122100e+001  5.343754e+001
   endloop
 endfacet
 facet normal  1.000000e+000  0.000000e+000  0.000000e+000
   outer loop
     vertex -2.743547e+002  3.093621e+001  5.392044e+001
     vertex -2.743547e+002  3.078092e+001  5.390000e+001
     vertex -2.743547e+002  3.100527e+001  5.337210e+001
   endloop
 endfacet
 facet normal  1.000000e+000  0.000000e+000  0.000000e+000
   outer loop
     vertex -2.743547e+002  3.026130e+001  5.480000e+001
     vertex -2.743547e+002  2.982473e+001  5.513891e+001
     vertex -2.743547e+002  2.971846e+001  5.494009e+001
   endloop
 endfacet
 facet normal  1.000000e+000  0.000000e+000  0.000000e+000
   outer loop
     vertex -2.743547e+002  3.026130e+001  5.480000e+001
     vertex -2.743547e+002  2.971846e+001  5.494009e+001
     vertex -2.743547e+002  3.020136e+001  5.465529e+001
   endloop
 endfacet
 facet normal  1.000000e+000  0.000000e+000  0.000000e+000
   outer loop
     vertex -2.743547e+002  3.108092e+001  5.398038e+001
     vertex -2.743547e+002  3.093621e+001  5.392044e+001
     vertex -2.743547e+002  3.122100e+001  5.343754e+001
   endloop
 endfacet
 facet normal  1.000000e+000 -0.000000e+000  0.000000e+000
   outer loop
     vertex -2.743547e+002  3.108092e+001  5.398038e+001
     vertex -2.743547e+002  3.122100e+001  5.343754e+001
     vertex -2.743547e+002  3.141982e+001  5.354381e+001
   endloop
 endfacet
 facet normal  1.000000e+000  0.000000e+000  0.000000e+000
   outer loop
     vertex -2.743547e+002  3.035665e+001  5.492426e+001
     vertex -2.743547e+002  2.982473e+001  5.513891e+001
     vertex -2.743547e+002  3.026130e+001  5.480000e+001
   endloop
 endfacet
 facet normal  1.000000e+000  0.000000e+000  0.000000e+000
   outer loop
     vertex -2.743547e+002  2.996774e+001  5.531317e+001
     vertex -2.743547e+002  2.982473e+001  5.513891e+001
     vertex -2.743547e+002  3.035665e+001  5.492426e+001
   endloop
 endfacet
 facet normal  1.000000e+000  0.000000e+000  0.000000e+000
   outer loop
     vertex -2.743547e+002  3.120518e+001  5.407574e+001
     vertex -2.743547e+002  3.108092e+001  5.398038e+001
     vertex -2.743547e+002  3.141982e+001  5.354381e+001
   endloop
 endfacet
 facet normal  1.000000e+000  0.000000e+000  0.000000e+000
   outer loop
     vertex -2.743547e+002  3.159409e+001  5.368683e+001
     vertex -2.743547e+002  3.120518e+001  5.407574e+001
     vertex -2.743547e+002  3.141982e+001  5.354381e+001
   endloop
 endfacet
 facet normal  1.000000e+000  0.000000e+000  0.000000e+000
   outer loop
     vertex -2.743547e+002  3.014201e+001  5.545619e+001
     vertex -2.743547e+002  2.996774e+001  5.531317e+001
     vertex -2.743547e+002  3.035665e+001  5.492426e+001
   endloop
 endfacet
 facet normal  1.000000e+000 -0.000000e+000  0.000000e+000
   outer loop
     vertex -2.743547e+002  3.014201e+001  5.545619e+001
     vertex -2.743547e+002  3.035665e+001  5.492426e+001
     vertex -2.743547e+002  3.048092e+001  5.501962e+001
   endloop
 endfacet
 facet normal  1.000000e+000  0.000000e+000  0.000000e+000
   outer loop
     vertex -2.743547e+002  3.173711e+001  5.386109e+001
     vertex -2.743547e+002  3.130053e+001  5.420000e+001
     vertex -2.743547e+002  3.120518e+001  5.407574e+001
   endloop
 endfacet
 facet normal  1.000000e+000  0.000000e+000  0.000000e+000
   outer loop
     vertex -2.743547e+002  3.173711e+001  5.386109e+001
     vertex -2.743547e+002  3.120518e+001  5.407574e+001
     vertex -2.743547e+002  3.159409e+001  5.368683e+001
   endloop
 endfacet
 facet normal  1.000000e+000 -0.000000e+000  0.000000e+000
   outer loop
     vertex -2.743547e+002  3.034083e+001  5.556246e+001
     vertex -2.743547e+002  3.048092e+001  5.501962e+001
     vertex -2.743547e+002  3.062563e+001  5.507956e+001
   endloop
 endfacet
 facet normal  1.000000e+000  0.000000e+000  0.000000e+000
   outer loop
     vertex -2.743547e+002  3.034083e+001  5.556246e+001
     vertex -2.743547e+002  3.014201e+001  5.545619e+001
     vertex -2.743547e+002  3.048092e+001  5.501962e+001
   endloop
 endfacet
 facet normal  1.000000e+000  0.000000e+000  0.000000e+000
   outer loop
     vertex -2.743547e+002  3.184338e+001  5.405991e+001
     vertex -2.743547e+002  3.136047e+001  5.434471e+001
     vertex -2.743547e+002  3.130053e+001  5.420000e+001
   endloop
 endfacet
 facet normal  1.000000e+000  0.000000e+000  0.000000e+000
   outer loop
     vertex -2.743547e+002  3.184338e+001  5.405991e+001
     vertex -2.743547e+002  3.130053e+001  5.420000e+001
     vertex -2.743547e+002  3.173711e+001  5.386109e+001
   endloop
 endfacet
 facet normal  1.000000e+000 -0.000000e+000  0.000000e+000
   outer loop
     vertex -2.743547e+002  3.055656e+001  5.562790e+001
     vertex -2.743547e+002  3.062563e+001  5.507956e+001
     vertex -2.743547e+002  3.078092e+001  5.510000e+001
   endloop
 endfacet
 facet normal  1.000000e+000  0.000000e+000  0.000000e+000
   outer loop
     vertex -2.743547e+002  3.055656e+001  5.562790e+001
     vertex -2.743547e+002  3.034083e+001  5.556246e+001
     vertex -2.743547e+002  3.062563e+001  5.507956e+001
   endloop
 endfacet
 facet normal  1.000000e+000  0.000000e+000  0.000000e+000
   outer loop
     vertex -2.743547e+002  3.190882e+001  5.427565e+001
     vertex -2.743547e+002  3.138092e+001  5.450000e+001
     vertex -2.743547e+002  3.136047e+001  5.434471e+001
   endloop
 endfacet
 facet normal  1.000000e+000  0.000000e+000  0.000000e+000
   outer loop
     vertex -2.743547e+002  3.190882e+001  5.427565e+001
     vertex -2.743547e+002  3.136047e+001  5.434471e+001
     vertex -2.743547e+002  3.184338e+001  5.405991e+001
   endloop
 endfacet
 facet normal  1.000000e+000  0.000000e+000  0.000000e+000
   outer loop
     vertex -2.743547e+002  3.078092e+001  5.565000e+001
     vertex -2.743547e+002  3.055656e+001  5.562790e+001
     vertex -2.743547e+002  3.078092e+001  5.510000e+001
   endloop
 endfacet
 facet normal  1.000000e+000  0.000000e+000  0.000000e+000
   outer loop
     vertex -2.743547e+002  3.193092e+001  5.450000e+001
     vertex -2.743547e+002  3.138092e+001  5.450000e+001
     vertex -2.743547e+002  3.190882e+001  5.427565e+001
   endloop
 endfacet
 facet normal  1.000000e+000  0.000000e+000  0.000000e+000
   outer loop
     vertex -2.743547e+002  3.100527e+001  5.562790e+001
     vertex -2.743547e+002  3.078092e+001  5.510000e+001
     vertex -2.743547e+002  3.093621e+001  5.507956e+001
   endloop
 endfacet
 facet normal  1.000000e+000  0.000000e+000  0.000000e+000
   outer loop
     vertex -2.743547e+002  3.100527e+001  5.562790e+001
     vertex -2.743547e+002  3.078092e+001  5.565000e+001
     vertex -2.743547e+002  3.078092e+001  5.510000e+001
   endloop
 endfacet
 facet normal  1.000000e+000  0.000000e+000  0.000000e+000
   outer loop
     vertex -2.743547e+002  3.190882e+001  5.472435e+001
     vertex -2.743547e+002  3.136047e+001  5.465529e+001
     vertex -2.743547e+002  3.138092e+001  5.450000e+001
   endloop
 endfacet
 facet normal  1.000000e+000 -0.000000e+000  0.000000e+000
   outer loop
     vertex -2.743547e+002  3.190882e+001  5.472435e+001
     vertex -2.743547e+002  3.138092e+001  5.450000e+001
     vertex -2.743547e+002  3.193092e+001  5.450000e+001
   endloop
 endfacet
 facet normal  1.000000e+000  0.000000e+000  0.000000e+000
   outer loop
     vertex -2.743547e+002  3.122100e+001  5.556246e+001
     vertex -2.743547e+002  3.093621e+001  5.507956e+001
     vertex -2.743547e+002  3.108092e+001  5.501962e+001
   endloop
 endfacet
 facet normal  1.000000e+000  0.000000e+000  0.000000e+000
   outer loop
     vertex -2.743547e+002  3.122100e+001  5.556246e+001
     vertex -2.743547e+002  3.100527e+001  5.562790e+001
     vertex -2.743547e+002  3.093621e+001  5.507956e+001
   endloop
 endfacet
 facet normal  1.000000e+000  0.000000e+000  0.000000e+000
   outer loop
     vertex -2.743547e+002  3.184338e+001  5.494009e+001
     vertex -2.743547e+002  3.130053e+001  5.480000e+001
     vertex -2.743547e+002  3.136047e+001  5.465529e+001
   endloop
 endfacet
 facet normal  1.000000e+000 -0.000000e+000  0.000000e+000
   outer loop
     vertex -2.743547e+002  3.184338e+001  5.494009e+001
     vertex -2.743547e+002  3.136047e+001  5.465529e+001
     vertex -2.743547e+002  3.190882e+001  5.472435e+001
   endloop
 endfacet
 facet normal  1.000000e+000  0.000000e+000  0.000000e+000
   outer loop
     vertex -2.743547e+002  3.141982e+001  5.545619e+001
     vertex -2.743547e+002  3.108092e+001  5.501962e+001
     vertex -2.743547e+002  3.120518e+001  5.492426e+001
   endloop
 endfacet
 facet normal  1.000000e+000  0.000000e+000  0.000000e+000
   outer loop
     vertex -2.743547e+002  3.141982e+001  5.545619e+001
     vertex -2.743547e+002  3.122100e+001  5.556246e+001
     vertex -2.743547e+002  3.108092e+001  5.501962e+001
   endloop
 endfacet
 facet normal  1.000000e+000  0.000000e+000  0.000000e+000
   outer loop
     vertex -2.743547e+002  3.173711e+001  5.513891e+001
     vertex -2.743547e+002  3.120518e+001  5.492426e+001
     vertex -2.743547e+002  3.130053e+001  5.480000e+001
   endloop
 endfacet
 facet normal  1.000000e+000 -0.000000e+000  0.000000e+000
   outer loop
     vertex -2.743547e+002  3.173711e+001  5.513891e+001
     vertex -2.743547e+002  3.130053e+001  5.480000e+001
     vertex -2.743547e+002  3.184338e+001  5.494009e+001
   endloop
 endfacet
 facet normal  1.000000e+000  0.000000e+000  0.000000e+000
   outer loop
     vertex -2.743547e+002  3.159409e+001  5.531317e+001
     vertex -2.743547e+002  3.141982e+001  5.545619e+001
     vertex -2.743547e+002  3.120518e+001  5.492426e+001
   endloop
 endfacet
 facet normal  1.000000e+000 -0.000000e+000  0.000000e+000
   outer loop
     vertex -2.743547e+002  3.159409e+001  5.531317e+001
     vertex -2.743547e+002  3.120518e+001  5.492426e+001
     vertex -2.743547e+002  3.173711e+001  5.513891e+001
   endloop
 endfacet
 facet normal -1.319258e-003 -9.947141e-001  1.026750e-001
   outer loop
     vertex -2.751547e+002  2.965516e+001  5.473490e+001
     vertex -2.751547e+002  2.963092e+001  5.450000e+001
     vertex -2.743547e+002  2.965301e+001  5.472435e+001
   endloop
 endfacet
 facet normal  1.256536e-003 -9.569396e-001  2.902844e-001
   outer loop
     vertex -2.743547e+002  2.971846e+001  5.494009e+001
     vertex -2.751547e+002  2.965516e+001  5.473490e+001
     vertex -2.743547e+002  2.965301e+001  5.472435e+001
   endloop
 endfacet
 facet normal  0.000000e+000 -2.179952e-002 -9.997624e-001
   outer loop
     vertex -2.748547e+002  3.073079e+001  5.335109e+001
     vertex -2.748547e+002  3.078092e+001  5.335000e+001
     vertex -2.743547e+002  3.078092e+001  5.335000e+001
   endloop
 endfacet
 facet normal -2.513039e-003 -9.527661e-001  3.036946e-001
   outer loop
     vertex -2.751547e+002  2.972688e+001  5.495990e+001
     vertex -2.751547e+002  2.965516e+001  5.473490e+001
     vertex -2.743547e+002  2.971846e+001  5.494009e+001
   endloop
 endfacet
 facet normal  4.370936e-003 -6.535650e-002 -9.978524e-001
   outer loop
     vertex -2.748547e+002  3.068076e+001  5.335437e+001
     vertex -2.748547e+002  3.073079e+001  5.335109e+001
     vertex -2.743547e+002  3.078092e+001  5.335000e+001
   endloop
 endfacet
 facet normal  2.387542e-003 -8.819188e-001  4.713954e-001
   outer loop
     vertex -2.743547e+002  2.982473e+001  5.513891e+001
     vertex -2.751547e+002  2.972688e+001  5.495990e+001
     vertex -2.743547e+002  2.971846e+001  5.494009e+001
   endloop
 endfacet
 facet normal -3.581234e-003 -8.706407e-001  4.919065e-001
   outer loop
     vertex -2.751547e+002  2.984305e+001  5.516551e+001
     vertex -2.751547e+002  2.972688e+001  5.495990e+001
     vertex -2.743547e+002  2.982473e+001  5.513891e+001
   endloop
 endfacet
 facet normal  3.392915e-003 -7.730060e-001  6.343896e-001
   outer loop
     vertex -2.743547e+002  2.996774e+001  5.531317e+001
     vertex -2.751547e+002  2.984305e+001  5.516551e+001
     vertex -2.743547e+002  2.982473e+001  5.513891e+001
   endloop
 endfacet
 facet normal  0.000000e+000 -1.628500e-001 -9.866508e-001
   outer loop
     vertex -2.743547e+002  3.055656e+001  5.337210e+001
     vertex -2.751547e+002  3.063092e+001  5.335982e+001
     vertex -2.748547e+002  3.063092e+001  5.335982e+001
   endloop
 endfacet
 facet normal -4.523751e-003 -7.518017e-001  6.593737e-001
   outer loop
     vertex -2.751547e+002  2.999876e+001  5.534305e+001
     vertex -2.751547e+002  2.984305e+001  5.516551e+001
     vertex -2.743547e+002  2.996774e+001  5.531317e+001
   endloop
 endfacet
 facet normal  8.220758e-003 -1.087868e-001 -9.940311e-001
   outer loop
     vertex -2.743547e+002  3.055656e+001  5.337210e+001
     vertex -2.748547e+002  3.063092e+001  5.335982e+001
     vertex -2.748547e+002  3.068076e+001  5.335437e+001
   endloop
 endfacet
 facet normal  4.272568e-003 -6.343875e-001  7.730034e-001
   outer loop
     vertex -2.743547e+002  3.014201e+001  5.545619e+001
     vertex -2.751547e+002  2.999876e+001  5.534305e+001
     vertex -2.743547e+002  2.996774e+001  5.531317e+001
   endloop
 endfacet
 facet normal  1.093609e-002 -9.801128e-002 -9.951252e-001
   outer loop
     vertex -2.743547e+002  3.055656e+001  5.337210e+001
     vertex -2.748547e+002  3.068076e+001  5.335437e+001
     vertex -2.743547e+002  3.078092e+001  5.335000e+001
   endloop
 endfacet
 facet normal -5.340507e-003 -6.012612e-001  7.990347e-001
   outer loop
     vertex -2.751547e+002  3.018746e+001  5.548504e+001
     vertex -2.751547e+002  2.999876e+001  5.534305e+001
     vertex -2.743547e+002  3.014201e+001  5.545619e+001
   endloop
 endfacet
 facet normal -6.596478e-003 -2.315383e-001 -9.728034e-001
   outer loop
     vertex -2.751547e+002  3.040118e+001  5.341450e+001
     vertex -2.751547e+002  3.063092e+001  5.335982e+001
     vertex -2.743547e+002  3.055656e+001  5.337210e+001
   endloop
 endfacet
 facet normal  5.026426e-003 -4.713908e-001  8.819101e-001
   outer loop
     vertex -2.743547e+002  3.034083e+001  5.556246e+001
     vertex -2.751547e+002  3.018746e+001  5.548504e+001
     vertex -2.743547e+002  3.014201e+001  5.545619e+001
   endloop
 endfacet
 facet normal -6.031436e-003 -4.253676e-001  9.050006e-001
   outer loop
     vertex -2.751547e+002  3.040118e+001  5.558550e+001
     vertex -2.751547e+002  3.018746e+001  5.548504e+001
     vertex -2.743547e+002  3.034083e+001  5.556246e+001
   endloop
 endfacet
 facet normal  5.654425e-003 -2.902800e-001 -9.569250e-001
   outer loop
     vertex -2.743547e+002  3.034083e+001  5.343754e+001
     vertex -2.751547e+002  3.040118e+001  5.341450e+001
     vertex -2.743547e+002  3.055656e+001  5.337210e+001
   endloop
 endfacet
 facet normal  5.654425e-003 -2.902800e-001  9.569250e-001
   outer loop
     vertex -2.743547e+002  3.055656e+001  5.562790e+001
     vertex -2.751547e+002  3.040118e+001  5.558550e+001
     vertex -2.743547e+002  3.034083e+001  5.556246e+001
   endloop
 endfacet
 facet normal -6.031436e-003 -4.253676e-001 -9.050006e-001
   outer loop
     vertex -2.751547e+002  3.018746e+001  5.351496e+001
     vertex -2.751547e+002  3.040118e+001  5.341450e+001
     vertex -2.743547e+002  3.034083e+001  5.343754e+001
   endloop
 endfacet
 facet normal  5.026426e-003 -4.713908e-001 -8.819101e-001
   outer loop
     vertex -2.743547e+002  3.014201e+001  5.354381e+001
     vertex -2.751547e+002  3.018746e+001  5.351496e+001
     vertex -2.743547e+002  3.034083e+001  5.343754e+001
   endloop
 endfacet
 facet normal -6.596478e-003 -2.315383e-001  9.728034e-001
   outer loop
     vertex -2.751547e+002  3.063092e+001  5.564018e+001
     vertex -2.751547e+002  3.040118e+001  5.558550e+001
     vertex -2.743547e+002  3.055656e+001  5.562790e+001
   endloop
 endfacet
 facet normal  0.000000e+000 -1.628500e-001  9.866508e-001
   outer loop
     vertex -2.751547e+002  3.063092e+001  5.564018e+001
     vertex -2.743547e+002  3.055656e+001  5.562790e+001
     vertex -2.748547e+002  3.063092e+001  5.564018e+001
   endloop
 endfacet
 facet normal -5.340507e-003 -6.012612e-001 -7.990347e-001
   outer loop
     vertex -2.751547e+002  2.999876e+001  5.365695e+001
     vertex -2.751547e+002  3.018746e+001  5.351496e+001
     vertex -2.743547e+002  3.014201e+001  5.354381e+001
   endloop
 endfacet
 facet normal  8.220758e-003 -1.087868e-001  9.940311e-001
   outer loop
     vertex -2.748547e+002  3.068076e+001  5.564563e+001
     vertex -2.748547e+002  3.063092e+001  5.564018e+001
     vertex -2.743547e+002  3.055656e+001  5.562790e+001
   endloop
 endfacet
 facet normal  4.272568e-003 -6.343875e-001 -7.730034e-001
   outer loop
     vertex -2.743547e+002  2.996774e+001  5.368683e+001
     vertex -2.751547e+002  2.999876e+001  5.365695e+001
     vertex -2.743547e+002  3.014201e+001  5.354381e+001
   endloop
 endfacet
 facet normal -4.523751e-003 -7.518017e-001 -6.593737e-001
   outer loop
     vertex -2.751547e+002  2.984305e+001  5.383449e+001
     vertex -2.751547e+002  2.999876e+001  5.365695e+001
     vertex -2.743547e+002  2.996774e+001  5.368683e+001
   endloop
 endfacet
 facet normal  4.370936e-003 -6.535650e-002  9.978524e-001
   outer loop
     vertex -2.743547e+002  3.078092e+001  5.565000e+001
     vertex -2.748547e+002  3.073079e+001  5.564891e+001
     vertex -2.748547e+002  3.068076e+001  5.564563e+001
   endloop
 endfacet
 facet normal  3.392915e-003 -7.730060e-001 -6.343896e-001
   outer loop
     vertex -2.743547e+002  2.982473e+001  5.386109e+001
     vertex -2.751547e+002  2.984305e+001  5.383449e+001
     vertex -2.743547e+002  2.996774e+001  5.368683e+001
   endloop
 endfacet
 facet normal  1.093609e-002 -9.801128e-002  9.951252e-001
   outer loop
     vertex -2.743547e+002  3.078092e+001  5.565000e+001
     vertex -2.748547e+002  3.068076e+001  5.564563e+001
     vertex -2.743547e+002  3.055656e+001  5.562790e+001
   endloop
 endfacet
 facet normal -3.581234e-003 -8.706407e-001 -4.919065e-001
   outer loop
     vertex -2.751547e+002  2.972688e+001  5.404010e+001
     vertex -2.751547e+002  2.984305e+001  5.383449e+001
     vertex -2.743547e+002  2.982473e+001  5.386109e+001
   endloop
 endfacet
 facet normal  0.000000e+000 -2.179952e-002  9.997624e-001
   outer loop
     vertex -2.748547e+002  3.078092e+001  5.565000e+001
     vertex -2.748547e+002  3.073079e+001  5.564891e+001
     vertex -2.743547e+002  3.078092e+001  5.565000e+001
   endloop
 endfacet
 facet normal  2.387542e-003 -8.819188e-001 -4.713954e-001
   outer loop
     vertex -2.743547e+002  2.971846e+001  5.405991e+001
     vertex -2.751547e+002  2.972688e+001  5.404010e+001
     vertex -2.743547e+002  2.982473e+001  5.386109e+001
   endloop
 endfacet
 facet normal -2.513039e-003 -9.527661e-001 -3.036946e-001
   outer loop
     vertex -2.751547e+002  2.965516e+001  5.426510e+001
     vertex -2.751547e+002  2.972688e+001  5.404010e+001
     vertex -2.743547e+002  2.971846e+001  5.405991e+001
   endloop
 endfacet
 facet normal  1.256536e-003 -9.569396e-001 -2.902844e-001
   outer loop
     vertex -2.743547e+002  2.965301e+001  5.427565e+001
     vertex -2.751547e+002  2.965516e+001  5.426510e+001
     vertex -2.743547e+002  2.971846e+001  5.405991e+001
   endloop
 endfacet
 facet normal  0.000000e+000 -9.951847e-001 -9.801714e-002
   outer loop
     vertex -2.751547e+002  2.963092e+001  5.450000e+001
     vertex -2.743547e+002  2.965301e+001  5.427565e+001
     vertex -2.743547e+002  2.963092e+001  5.450000e+001
   endloop
 endfacet
 facet normal -1.319258e-003 -9.947141e-001 -1.026750e-001
   outer loop
     vertex -2.751547e+002  2.963092e+001  5.450000e+001
     vertex -2.751547e+002  2.965516e+001  5.426510e+001
     vertex -2.743547e+002  2.965301e+001  5.427565e+001
   endloop
 endfacet
 facet normal  0.000000e+000 -9.951847e-001  9.801714e-002
   outer loop
     vertex -2.743547e+002  2.965301e+001  5.472435e+001
     vertex -2.751547e+002  2.963092e+001  5.450000e+001
     vertex -2.743547e+002  2.963092e+001  5.450000e+001
   endloop
 endfacet
 facet normal -1.319258e-003  9.947141e-001 -1.026750e-001
   outer loop
     vertex -2.751547e+002  3.190667e+001  5.426510e+001
     vertex -2.751547e+002  3.193092e+001  5.450000e+001
     vertex -2.743547e+002  3.190882e+001  5.427565e+001
   endloop
 endfacet
 facet normal  1.256536e-003  9.569396e-001 -2.902844e-001
   outer loop
     vertex -2.743547e+002  3.184338e+001  5.405991e+001
     vertex -2.751547e+002  3.190667e+001  5.426510e+001
     vertex -2.743547e+002  3.190882e+001  5.427565e+001
   endloop
 endfacet
 facet normal -0.000000e+000  2.179952e-002  9.997624e-001
   outer loop
     vertex -2.748547e+002  3.083104e+001  5.564891e+001
     vertex -2.748547e+002  3.078092e+001  5.565000e+001
     vertex -2.743547e+002  3.078092e+001  5.565000e+001
   endloop
 endfacet
 facet normal -2.513039e-003  9.527661e-001 -3.036946e-001
   outer loop
     vertex -2.751547e+002  3.183495e+001  5.404010e+001
     vertex -2.751547e+002  3.190667e+001  5.426510e+001
     vertex -2.743547e+002  3.184338e+001  5.405991e+001
   endloop
 endfacet
 facet normal  4.370936e-003  6.535650e-002  9.978524e-001
   outer loop
     vertex -2.748547e+002  3.088108e+001  5.564563e+001
     vertex -2.748547e+002  3.083104e+001  5.564891e+001
     vertex -2.743547e+002  3.078092e+001  5.565000e+001
   endloop
 endfacet
 facet normal  2.387542e-003  8.819188e-001 -4.713954e-001
   outer loop
     vertex -2.743547e+002  3.173711e+001  5.386109e+001
     vertex -2.751547e+002  3.183495e+001  5.404010e+001
     vertex -2.743547e+002  3.184338e+001  5.405991e+001
   endloop
 endfacet
 facet normal -3.581234e-003  8.706407e-001 -4.919065e-001
   outer loop
     vertex -2.751547e+002  3.171879e+001  5.383449e+001
     vertex -2.751547e+002  3.183495e+001  5.404010e+001
     vertex -2.743547e+002  3.173711e+001  5.386109e+001
   endloop
 endfacet
 facet normal  3.392915e-003  7.730060e-001 -6.343896e-001
   outer loop
     vertex -2.743547e+002  3.159409e+001  5.368683e+001
     vertex -2.751547e+002  3.171879e+001  5.383449e+001
     vertex -2.743547e+002  3.173711e+001  5.386109e+001
   endloop
 endfacet
 facet normal -0.000000e+000  1.628500e-001  9.866508e-001
   outer loop
     vertex -2.743547e+002  3.100527e+001  5.562790e+001
     vertex -2.751547e+002  3.093092e+001  5.564018e+001
     vertex -2.748547e+002  3.093092e+001  5.564018e+001
   endloop
 endfacet
 facet normal -4.523751e-003  7.518017e-001 -6.593737e-001
   outer loop
     vertex -2.751547e+002  3.156307e+001  5.365695e+001
     vertex -2.751547e+002  3.171879e+001  5.383449e+001
     vertex -2.743547e+002  3.159409e+001  5.368683e+001
   endloop
 endfacet
 facet normal  8.220758e-003  1.087868e-001  9.940311e-001
   outer loop
     vertex -2.743547e+002  3.100527e+001  5.562790e+001
     vertex -2.748547e+002  3.093092e+001  5.564018e+001
     vertex -2.748547e+002  3.088108e+001  5.564563e+001
   endloop
 endfacet
 facet normal  4.272568e-003  6.343875e-001 -7.730034e-001
   outer loop
     vertex -2.743547e+002  3.141982e+001  5.354381e+001
     vertex -2.751547e+002  3.156307e+001  5.365695e+001
     vertex -2.743547e+002  3.159409e+001  5.368683e+001
   endloop
 endfacet
 facet normal  1.093609e-002  9.801128e-002  9.951252e-001
   outer loop
     vertex -2.743547e+002  3.100527e+001  5.562790e+001
     vertex -2.748547e+002  3.088108e+001  5.564563e+001
     vertex -2.743547e+002  3.078092e+001  5.565000e+001
   endloop
 endfacet
 facet normal -5.340507e-003  6.012612e-001 -7.990347e-001
   outer loop
     vertex -2.751547e+002  3.137437e+001  5.351496e+001
     vertex -2.751547e+002  3.156307e+001  5.365695e+001
     vertex -2.743547e+002  3.141982e+001  5.354381e+001
   endloop
 endfacet
 facet normal -6.596478e-003  2.315383e-001  9.728034e-001
   outer loop
     vertex -2.751547e+002  3.116065e+001  5.558550e+001
     vertex -2.751547e+002  3.093092e+001  5.564018e+001
     vertex -2.743547e+002  3.100527e+001  5.562790e+001
   endloop
 endfacet
 facet normal  5.026426e-003  4.713908e-001 -8.819101e-001
   outer loop
     vertex -2.743547e+002  3.122100e+001  5.343754e+001
     vertex -2.751547e+002  3.137437e+001  5.351496e+001
     vertex -2.743547e+002  3.141982e+001  5.354381e+001
   endloop
 endfacet
 facet normal -6.031436e-003  4.253676e-001 -9.050006e-001
   outer loop
     vertex -2.751547e+002  3.116065e+001  5.341450e+001
     vertex -2.751547e+002  3.137437e+001  5.351496e+001
     vertex -2.743547e+002  3.122100e+001  5.343754e+001
   endloop
 endfacet
 facet normal  5.654425e-003  2.902800e-001  9.569250e-001
   outer loop
     vertex -2.743547e+002  3.122100e+001  5.556246e+001
     vertex -2.751547e+002  3.116065e+001  5.558550e+001
     vertex -2.743547e+002  3.100527e+001  5.562790e+001
   endloop
 endfacet
 facet normal  5.654425e-003  2.902800e-001 -9.569250e-001
   outer loop
     vertex -2.743547e+002  3.100527e+001  5.337210e+001
     vertex -2.751547e+002  3.116065e+001  5.341450e+001
     vertex -2.743547e+002  3.122100e+001  5.343754e+001
   endloop
 endfacet
 facet normal -6.031436e-003  4.253676e-001  9.050006e-001
   outer loop
     vertex -2.751547e+002  3.137437e+001  5.548504e+001
     vertex -2.751547e+002  3.116065e+001  5.558550e+001
     vertex -2.743547e+002  3.122100e+001  5.556246e+001
   endloop
 endfacet
 facet normal  5.026426e-003  4.713908e-001  8.819101e-001
   outer loop
     vertex -2.743547e+002  3.141982e+001  5.545619e+001
     vertex -2.751547e+002  3.137437e+001  5.548504e+001
     vertex -2.743547e+002  3.122100e+001  5.556246e+001
   endloop
 endfacet
 facet normal -6.596478e-003  2.315383e-001 -9.728034e-001
   outer loop
     vertex -2.751547e+002  3.093092e+001  5.335982e+001
     vertex -2.751547e+002  3.116065e+001  5.341450e+001
     vertex -2.743547e+002  3.100527e+001  5.337210e+001
   endloop
 endfacet
 facet normal  0.000000e+000  1.628500e-001 -9.866508e-001
   outer loop
     vertex -2.751547e+002  3.093092e+001  5.335982e+001
     vertex -2.743547e+002  3.100527e+001  5.337210e+001
     vertex -2.748547e+002  3.093092e+001  5.335982e+001
   endloop
 endfacet
 facet normal -5.340507e-003  6.012612e-001  7.990347e-001
   outer loop
     vertex -2.751547e+002  3.156307e+001  5.534305e+001
     vertex -2.751547e+002  3.137437e+001  5.548504e+001
     vertex -2.743547e+002  3.141982e+001  5.545619e+001
   endloop
 endfacet
 facet normal  8.220758e-003  1.087868e-001 -9.940311e-001
   outer loop
     vertex -2.748547e+002  3.088108e+001  5.335437e+001
     vertex -2.748547e+002  3.093092e+001  5.335982e+001
     vertex -2.743547e+002  3.100527e+001  5.337210e+001
   endloop
 endfacet
 facet normal  4.272568e-003  6.343875e-001  7.730034e-001
   outer loop
     vertex -2.743547e+002  3.159409e+001  5.531317e+001
     vertex -2.751547e+002  3.156307e+001  5.534305e+001
     vertex -2.743547e+002  3.141982e+001  5.545619e+001
   endloop
 endfacet
 facet normal -4.523751e-003  7.518017e-001  6.593737e-001
   outer loop
     vertex -2.751547e+002  3.171879e+001  5.516551e+001
     vertex -2.751547e+002  3.156307e+001  5.534305e+001
     vertex -2.743547e+002  3.159409e+001  5.531317e+001
   endloop
 endfacet
 facet normal  1.093609e-002  9.801128e-002 -9.951252e-001
   outer loop
     vertex -2.743547e+002  3.078092e+001  5.335000e+001
     vertex -2.748547e+002  3.088108e+001  5.335437e+001
     vertex -2.743547e+002  3.100527e+001  5.337210e+001
   endloop
 endfacet
 facet normal  3.392915e-003  7.730060e-001  6.343896e-001
   outer loop
     vertex -2.743547e+002  3.173711e+001  5.513891e+001
     vertex -2.751547e+002  3.171879e+001  5.516551e+001
     vertex -2.743547e+002  3.159409e+001  5.531317e+001
   endloop
 endfacet
 facet normal  4.370936e-003  6.535650e-002 -9.978524e-001
   outer loop
     vertex -2.743547e+002  3.078092e+001  5.335000e+001
     vertex -2.748547e+002  3.083104e+001  5.335109e+001
     vertex -2.748547e+002  3.088108e+001  5.335437e+001
   endloop
 endfacet
 facet normal -3.581234e-003  8.706407e-001  4.919065e-001
   outer loop
     vertex -2.751547e+002  3.183495e+001  5.495990e+001
     vertex -2.751547e+002  3.171879e+001  5.516551e+001
     vertex -2.743547e+002  3.173711e+001  5.513891e+001
   endloop
 endfacet
 facet normal  0.000000e+000  2.179952e-002 -9.997624e-001
   outer loop
     vertex -2.748547e+002  3.078092e+001  5.335000e+001
     vertex -2.748547e+002  3.083104e+001  5.335109e+001
     vertex -2.743547e+002  3.078092e+001  5.335000e+001
   endloop
 endfacet
 facet normal  2.387542e-003  8.819188e-001  4.713954e-001
   outer loop
     vertex -2.743547e+002  3.184338e+001  5.494009e+001
     vertex -2.751547e+002  3.183495e+001  5.495990e+001
     vertex -2.743547e+002  3.173711e+001  5.513891e+001
   endloop
 endfacet
 facet normal -2.513039e-003  9.527661e-001  3.036946e-001
   outer loop
     vertex -2.751547e+002  3.190667e+001  5.473490e+001
     vertex -2.751547e+002  3.183495e+001  5.495990e+001
     vertex -2.743547e+002  3.184338e+001  5.494009e+001
   endloop
 endfacet
 facet normal  1.256536e-003  9.569396e-001  2.902844e-001
   outer loop
     vertex -2.743547e+002  3.190882e+001  5.472435e+001
     vertex -2.751547e+002  3.190667e+001  5.473490e+001
     vertex -2.743547e+002  3.184338e+001  5.494009e+001
   endloop
 endfacet
 facet normal  0.000000e+000  9.951847e-001  9.801714e-002
   outer loop
     vertex -2.751547e+002  3.193092e+001  5.450000e+001
     vertex -2.743547e+002  3.190882e+001  5.472435e+001
     vertex -2.743547e+002  3.193092e+001  5.450000e+001
   endloop
 endfacet
 facet normal -1.319258e-003  9.947141e-001  1.026750e-001
   outer loop
     vertex -2.751547e+002  3.193092e+001  5.450000e+001
     vertex -2.751547e+002  3.190667e+001  5.473490e+001
     vertex -2.743547e+002  3.190882e+001  5.472435e+001
   endloop
 endfacet
 facet normal  0.000000e+000  9.951847e-001 -9.801714e-002
   outer loop
     vertex -2.743547e+002  3.190882e+001  5.427565e+001
     vertex -2.751547e+002  3.193092e+001  5.450000e+001
     vertex -2.743547e+002  3.193092e+001  5.450000e+001
   endloop
 endfacet
endsolid
