solid
 facet normal  0.000000e+000 -0.000000e+000 -1.000000e+000
   outer loop
     vertex  0.000000e+000  0.000000e+000 -5.500000e+000
     vertex  1.600000e+000  0.000000e+000 -5.500000e+000
     vertex  1.545481e+000 -4.141105e-001 -5.500000e+000
   endloop
 endfacet
 facet normal  0.000000e+000 -0.000000e+000 -1.000000e+000
   outer loop
     vertex  0.000000e+000  0.000000e+000 -5.500000e+000
     vertex  1.545481e+000 -4.141105e-001 -5.500000e+000
     vertex  1.385641e+000 -8.000000e-001 -5.500000e+000
   endloop
 endfacet
 facet normal  0.000000e+000 -0.000000e+000 -1.000000e+000
   outer loop
     vertex  0.000000e+000  0.000000e+000 -5.500000e+000
     vertex  1.385641e+000 -8.000000e-001 -5.500000e+000
     vertex  1.131371e+000 -1.131371e+000 -5.500000e+000
   endloop
 endfacet
 facet normal  0.000000e+000 -0.000000e+000 -1.000000e+000
   outer loop
     vertex  0.000000e+000  0.000000e+000 -5.500000e+000
     vertex  1.131371e+000 -1.131371e+000 -5.500000e+000
     vertex  8.000000e-001 -1.385641e+000 -5.500000e+000
   endloop
 endfacet
 facet normal  0.000000e+000 -0.000000e+000 -1.000000e+000
   outer loop
     vertex  0.000000e+000  0.000000e+000 -5.500000e+000
     vertex  8.000000e-001 -1.385641e+000 -5.500000e+000
     vertex  4.141105e-001 -1.545481e+000 -5.500000e+000
   endloop
 endfacet
 facet normal  0.000000e+000 -0.000000e+000 -1.000000e+000
   outer loop
     vertex  0.000000e+000  0.000000e+000 -5.500000e+000
     vertex  4.141105e-001 -1.545481e+000 -5.500000e+000
     vertex  4.532431e-016 -1.600000e+000 -5.500000e+000
   endloop
 endfacet
 facet normal -0.000000e+000 -0.000000e+000 -1.000000e+000
   outer loop
     vertex  0.000000e+000  0.000000e+000 -5.500000e+000
     vertex  4.532431e-016 -1.600000e+000 -5.500000e+000
     vertex -4.141105e-001 -1.545481e+000 -5.500000e+000
   endloop
 endfacet
 facet normal -0.000000e+000  0.000000e+000 -1.000000e+000
   outer loop
     vertex  0.000000e+000  0.000000e+000 -5.500000e+000
     vertex -4.141105e-001 -1.545481e+000 -5.500000e+000
     vertex -8.000000e-001 -1.385641e+000 -5.500000e+000
   endloop
 endfacet
 facet normal -0.000000e+000  0.000000e+000 -1.000000e+000
   outer loop
     vertex  0.000000e+000  0.000000e+000 -5.500000e+000
     vertex -8.000000e-001 -1.385641e+000 -5.500000e+000
     vertex -1.131371e+000 -1.131371e+000 -5.500000e+000
   endloop
 endfacet
 facet normal -0.000000e+000  0.000000e+000 -1.000000e+000
   outer loop
     vertex  0.000000e+000  0.000000e+000 -5.500000e+000
     vertex -1.131371e+000 -1.131371e+000 -5.500000e+000
     vertex -1.385641e+000 -8.000000e-001 -5.500000e+000
   endloop
 endfacet
 facet normal -0.000000e+000  0.000000e+000 -1.000000e+000
   outer loop
     vertex  0.000000e+000  0.000000e+000 -5.500000e+000
     vertex -1.385641e+000 -8.000000e-001 -5.500000e+000
     vertex -1.545481e+000 -4.141105e-001 -5.500000e+000
   endloop
 endfacet
 facet normal -0.000000e+000  0.000000e+000 -1.000000e+000
   outer loop
     vertex  0.000000e+000  0.000000e+000 -5.500000e+000
     vertex -1.545481e+000 -4.141105e-001 -5.500000e+000
     vertex -1.600000e+000  1.959370e-016 -5.500000e+000
   endloop
 endfacet
 facet normal  0.000000e+000  0.000000e+000 -1.000000e+000
   outer loop
     vertex  0.000000e+000  0.000000e+000 -5.500000e+000
     vertex -1.600000e+000  1.959370e-016 -5.500000e+000
     vertex -1.545481e+000  4.141105e-001 -5.500000e+000
   endloop
 endfacet
 facet normal  0.000000e+000  0.000000e+000 -1.000000e+000
   outer loop
     vertex  0.000000e+000  0.000000e+000 -5.500000e+000
     vertex -1.545481e+000  4.141105e-001 -5.500000e+000
     vertex -1.385641e+000  8.000000e-001 -5.500000e+000
   endloop
 endfacet
 facet normal  0.000000e+000  0.000000e+000 -1.000000e+000
   outer loop
     vertex  0.000000e+000  0.000000e+000 -5.500000e+000
     vertex -1.385641e+000  8.000000e-001 -5.500000e+000
     vertex -1.131371e+000  1.131371e+000 -5.500000e+000
   endloop
 endfacet
 facet normal  0.000000e+000  0.000000e+000 -1.000000e+000
   outer loop
     vertex  0.000000e+000  0.000000e+000 -5.500000e+000
     vertex -1.131371e+000  1.131371e+000 -5.500000e+000
     vertex -8.000000e-001  1.385641e+000 -5.500000e+000
   endloop
 endfacet
 facet normal  0.000000e+000  0.000000e+000 -1.000000e+000
   outer loop
     vertex  0.000000e+000  0.000000e+000 -5.500000e+000
     vertex -8.000000e-001  1.385641e+000 -5.500000e+000
     vertex -4.141105e-001  1.545481e+000 -5.500000e+000
   endloop
 endfacet
 facet normal  0.000000e+000  0.000000e+000 -1.000000e+000
   outer loop
     vertex  0.000000e+000  0.000000e+000 -5.500000e+000
     vertex -4.141105e-001  1.545481e+000 -5.500000e+000
     vertex -2.939152e-016  1.600000e+000 -5.500000e+000
   endloop
 endfacet
 facet normal  0.000000e+000  0.000000e+000 -1.000000e+000
   outer loop
     vertex  0.000000e+000  0.000000e+000 -5.500000e+000
     vertex -2.939152e-016  1.600000e+000 -5.500000e+000
     vertex  4.141105e-001  1.545481e+000 -5.500000e+000
   endloop
 endfacet
 facet normal  0.000000e+000  0.000000e+000 -1.000000e+000
   outer loop
     vertex  0.000000e+000  0.000000e+000 -5.500000e+000
     vertex  4.141105e-001  1.545481e+000 -5.500000e+000
     vertex  8.000000e-001  1.385641e+000 -5.500000e+000
   endloop
 endfacet
 facet normal  0.000000e+000  0.000000e+000 -1.000000e+000
   outer loop
     vertex  0.000000e+000  0.000000e+000 -5.500000e+000
     vertex  8.000000e-001  1.385641e+000 -5.500000e+000
     vertex  1.131371e+000  1.131371e+000 -5.500000e+000
   endloop
 endfacet
 facet normal  0.000000e+000  0.000000e+000 -1.000000e+000
   outer loop
     vertex  0.000000e+000  0.000000e+000 -5.500000e+000
     vertex  1.131371e+000  1.131371e+000 -5.500000e+000
     vertex  1.385641e+000  8.000000e-001 -5.500000e+000
   endloop
 endfacet
 facet normal  0.000000e+000  0.000000e+000 -1.000000e+000
   outer loop
     vertex  0.000000e+000  0.000000e+000 -5.500000e+000
     vertex  1.385641e+000  8.000000e-001 -5.500000e+000
     vertex  1.545481e+000  4.141105e-001 -5.500000e+000
   endloop
 endfacet
 facet normal  0.000000e+000  0.000000e+000 -1.000000e+000
   outer loop
     vertex  0.000000e+000  0.000000e+000 -5.500000e+000
     vertex  1.545481e+000  4.141105e-001 -5.500000e+000
     vertex  1.600000e+000  0.000000e+000 -5.500000e+000
   endloop
 endfacet
 facet normal -0.000000e+000  0.000000e+000  1.000000e+000
   outer loop
     vertex -4.996004e-015  0.000000e+000  1.650000e+001
     vertex  1.500000e+000 -8.660254e-001  1.650000e+001
     vertex  1.500000e+000  8.660254e-001  1.650000e+001
   endloop
 endfacet
 facet normal  0.000000e+000 -0.000000e+000  1.000000e+000
   outer loop
     vertex -4.996004e-015  0.000000e+000  1.650000e+001
     vertex  1.500000e+000  8.660254e-001  1.650000e+001
     vertex -6.047427e-015  1.732051e+000  1.650000e+001
   endloop
 endfacet
 facet normal  0.000000e+000  0.000000e+000  1.000000e+000
   outer loop
     vertex -4.996004e-015  0.000000e+000  1.650000e+001
     vertex -6.047427e-015  1.732051e+000  1.650000e+001
     vertex -1.500000e+000  8.660254e-001  1.650000e+001
   endloop
 endfacet
 facet normal  0.000000e+000  0.000000e+000  1.000000e+000
   outer loop
     vertex -4.996004e-015  0.000000e+000  1.650000e+001
     vertex -1.500000e+000  8.660254e-001  1.650000e+001
     vertex -1.500000e+000 -8.660254e-001  1.650000e+001
   endloop
 endfacet
 facet normal  0.000000e+000  0.000000e+000  1.000000e+000
   outer loop
     vertex -4.996004e-015  0.000000e+000  1.650000e+001
     vertex -1.500000e+000 -8.660254e-001  1.650000e+001
     vertex  1.814228e-014 -1.732051e+000  1.650000e+001
   endloop
 endfacet
 facet normal -0.000000e+000  0.000000e+000  1.000000e+000
   outer loop
     vertex -4.996004e-015  0.000000e+000  1.650000e+001
     vertex  1.814228e-014 -1.732051e+000  1.650000e+001
     vertex  1.500000e+000 -8.660254e-001  1.650000e+001
   endloop
 endfacet
 facet normal  6.447304e-001 -2.670561e-001 -7.162428e-001
   outer loop
     vertex  1.801938e+000 -8.677675e-001 -5.100000e+000
     vertex  1.385641e+000 -8.000000e-001 -5.500000e+000
     vertex  1.545481e+000 -4.141105e-001 -5.500000e+000
   endloop
 endfacet
 facet normal  6.073592e-001 -3.816291e-001 -6.967597e-001
   outer loop
     vertex  1.801938e+000 -8.677675e-001 -5.100000e+000
     vertex  1.563663e+000 -1.246980e+000 -5.100000e+000
     vertex  1.385641e+000 -8.000000e-001 -5.500000e+000
   endloop
 endfacet
 facet normal  6.967310e-001 -9.172638e-002 -7.114437e-001
   outer loop
     vertex  1.949856e+000 -4.450419e-001 -5.100000e+000
     vertex  1.545481e+000 -4.141105e-001 -5.500000e+000
     vertex  1.600000e+000  0.000000e+000 -5.500000e+000
   endloop
 endfacet
 facet normal  6.742192e-001 -2.359195e-001 -6.998360e-001
   outer loop
     vertex  1.949856e+000 -4.450419e-001 -5.100000e+000
     vertex  1.801938e+000 -8.677675e-001 -5.100000e+000
     vertex  1.545481e+000 -4.141105e-001 -5.500000e+000
   endloop
 endfacet
 facet normal -7.048732e-001 -7.942014e-002 -7.048732e-001
   outer loop
     vertex -1.949856e+000 -4.450419e-001 -5.100000e+000
     vertex -2.000000e+000  2.449213e-016 -5.100000e+000
     vertex -1.600000e+000  1.959370e-016 -5.500000e+000
   endloop
 endfacet
 facet normal -6.967310e-001 -9.172638e-002 -7.114437e-001
   outer loop
     vertex -1.949856e+000 -4.450419e-001 -5.100000e+000
     vertex -1.600000e+000  1.959370e-016 -5.500000e+000
     vertex -1.545481e+000 -4.141105e-001 -5.500000e+000
   endloop
 endfacet
 facet normal  7.048732e-001 -7.942014e-002 -7.048732e-001
   outer loop
     vertex  2.000000e+000  0.000000e+000 -5.100000e+000
     vertex  1.949856e+000 -4.450419e-001 -5.100000e+000
     vertex  1.600000e+000  0.000000e+000 -5.500000e+000
   endloop
 endfacet
 facet normal -6.447304e-001 -2.670561e-001 -7.162428e-001
   outer loop
     vertex -1.801938e+000 -8.677675e-001 -5.100000e+000
     vertex -1.545481e+000 -4.141105e-001 -5.500000e+000
     vertex -1.385641e+000 -8.000000e-001 -5.500000e+000
   endloop
 endfacet
 facet normal -6.742192e-001 -2.359195e-001 -6.998360e-001
   outer loop
     vertex -1.801938e+000 -8.677675e-001 -5.100000e+000
     vertex -1.949856e+000 -4.450419e-001 -5.100000e+000
     vertex -1.545481e+000 -4.141105e-001 -5.500000e+000
   endloop
 endfacet
 facet normal -5.517113e-001 -4.233430e-001 -7.186065e-001
   outer loop
     vertex -1.563663e+000 -1.246980e+000 -5.100000e+000
     vertex -1.385641e+000 -8.000000e-001 -5.500000e+000
     vertex -1.131371e+000 -1.131371e+000 -5.500000e+000
   endloop
 endfacet
 facet normal -6.073592e-001 -3.816291e-001 -6.967597e-001
   outer loop
     vertex -1.563663e+000 -1.246980e+000 -5.100000e+000
     vertex -1.801938e+000 -8.677675e-001 -5.100000e+000
     vertex -1.385641e+000 -8.000000e-001 -5.500000e+000
   endloop
 endfacet
 facet normal -4.233430e-001 -5.517113e-001 -7.186065e-001
   outer loop
     vertex -1.246980e+000 -1.563663e+000 -5.100000e+000
     vertex -1.131371e+000 -1.131371e+000 -5.500000e+000
     vertex -8.000000e-001 -1.385641e+000 -5.500000e+000
   endloop
 endfacet
 facet normal -5.079205e-001 -5.079205e-001 -6.957252e-001
   outer loop
     vertex -1.246980e+000 -1.563663e+000 -5.100000e+000
     vertex -1.563663e+000 -1.246980e+000 -5.100000e+000
     vertex -1.131371e+000 -1.131371e+000 -5.500000e+000
   endloop
 endfacet
 facet normal -2.670561e-001 -6.447304e-001 -7.162428e-001
   outer loop
     vertex -8.677675e-001 -1.801938e+000 -5.100000e+000
     vertex -8.000000e-001 -1.385641e+000 -5.500000e+000
     vertex -4.141105e-001 -1.545481e+000 -5.500000e+000
   endloop
 endfacet
 facet normal -3.816291e-001 -6.073592e-001 -6.967597e-001
   outer loop
     vertex -8.677675e-001 -1.801938e+000 -5.100000e+000
     vertex -1.246980e+000 -1.563663e+000 -5.100000e+000
     vertex -8.000000e-001 -1.385641e+000 -5.500000e+000
   endloop
 endfacet
 facet normal -9.172638e-002 -6.967310e-001 -7.114437e-001
   outer loop
     vertex -4.450419e-001 -1.949856e+000 -5.100000e+000
     vertex -4.141105e-001 -1.545481e+000 -5.500000e+000
     vertex  4.532431e-016 -1.600000e+000 -5.500000e+000
   endloop
 endfacet
 facet normal -2.359195e-001 -6.742192e-001 -6.998360e-001
   outer loop
     vertex -4.450419e-001 -1.949856e+000 -5.100000e+000
     vertex -8.677675e-001 -1.801938e+000 -5.100000e+000
     vertex -4.141105e-001 -1.545481e+000 -5.500000e+000
   endloop
 endfacet
 facet normal -7.942014e-002 -7.048732e-001 -7.048732e-001
   outer loop
     vertex  1.224647e-016 -2.000000e+000 -5.100000e+000
     vertex -4.450419e-001 -1.949856e+000 -5.100000e+000
     vertex  4.532431e-016 -1.600000e+000 -5.500000e+000
   endloop
 endfacet
 facet normal  9.172638e-002 -6.967310e-001 -7.114437e-001
   outer loop
     vertex  4.450419e-001 -1.949856e+000 -5.100000e+000
     vertex  4.532431e-016 -1.600000e+000 -5.500000e+000
     vertex  4.141105e-001 -1.545481e+000 -5.500000e+000
   endloop
 endfacet
 facet normal  7.942014e-002 -7.048732e-001 -7.048732e-001
   outer loop
     vertex  4.450419e-001 -1.949856e+000 -5.100000e+000
     vertex  1.224647e-016 -2.000000e+000 -5.100000e+000
     vertex  4.532431e-016 -1.600000e+000 -5.500000e+000
   endloop
 endfacet
 facet normal  2.670561e-001 -6.447304e-001 -7.162428e-001
   outer loop
     vertex  8.677675e-001 -1.801938e+000 -5.100000e+000
     vertex  4.141105e-001 -1.545481e+000 -5.500000e+000
     vertex  8.000000e-001 -1.385641e+000 -5.500000e+000
   endloop
 endfacet
 facet normal  2.359195e-001 -6.742192e-001 -6.998360e-001
   outer loop
     vertex  8.677675e-001 -1.801938e+000 -5.100000e+000
     vertex  4.450419e-001 -1.949856e+000 -5.100000e+000
     vertex  4.141105e-001 -1.545481e+000 -5.500000e+000
   endloop
 endfacet
 facet normal  4.233430e-001 -5.517113e-001 -7.186065e-001
   outer loop
     vertex  1.246980e+000 -1.563663e+000 -5.100000e+000
     vertex  8.000000e-001 -1.385641e+000 -5.500000e+000
     vertex  1.131371e+000 -1.131371e+000 -5.500000e+000
   endloop
 endfacet
 facet normal  3.816291e-001 -6.073592e-001 -6.967597e-001
   outer loop
     vertex  1.246980e+000 -1.563663e+000 -5.100000e+000
     vertex  8.677675e-001 -1.801938e+000 -5.100000e+000
     vertex  8.000000e-001 -1.385641e+000 -5.500000e+000
   endloop
 endfacet
 facet normal  5.517113e-001 -4.233430e-001 -7.186065e-001
   outer loop
     vertex  1.563663e+000 -1.246980e+000 -5.100000e+000
     vertex  1.131371e+000 -1.131371e+000 -5.500000e+000
     vertex  1.385641e+000 -8.000000e-001 -5.500000e+000
   endloop
 endfacet
 facet normal  5.079205e-001 -5.079205e-001 -6.957252e-001
   outer loop
     vertex  1.563663e+000 -1.246980e+000 -5.100000e+000
     vertex  1.246980e+000 -1.563663e+000 -5.100000e+000
     vertex  1.131371e+000 -1.131371e+000 -5.500000e+000
   endloop
 endfacet
 facet normal -6.447304e-001  2.670561e-001 -7.162428e-001
   outer loop
     vertex -1.801938e+000  8.677675e-001 -5.100000e+000
     vertex -1.385641e+000  8.000000e-001 -5.500000e+000
     vertex -1.545481e+000  4.141105e-001 -5.500000e+000
   endloop
 endfacet
 facet normal -6.073592e-001  3.816291e-001 -6.967597e-001
   outer loop
     vertex -1.801938e+000  8.677675e-001 -5.100000e+000
     vertex -1.563663e+000  1.246980e+000 -5.100000e+000
     vertex -1.385641e+000  8.000000e-001 -5.500000e+000
   endloop
 endfacet
 facet normal -6.967310e-001  9.172638e-002 -7.114437e-001
   outer loop
     vertex -1.949856e+000  4.450419e-001 -5.100000e+000
     vertex -1.545481e+000  4.141105e-001 -5.500000e+000
     vertex -1.600000e+000  1.959370e-016 -5.500000e+000
   endloop
 endfacet
 facet normal -6.742192e-001  2.359195e-001 -6.998360e-001
   outer loop
     vertex -1.949856e+000  4.450419e-001 -5.100000e+000
     vertex -1.801938e+000  8.677675e-001 -5.100000e+000
     vertex -1.545481e+000  4.141105e-001 -5.500000e+000
   endloop
 endfacet
 facet normal  7.048732e-001  7.942014e-002 -7.048732e-001
   outer loop
     vertex  1.949856e+000  4.450419e-001 -5.100000e+000
     vertex  2.000000e+000  0.000000e+000 -5.100000e+000
     vertex  1.600000e+000  0.000000e+000 -5.500000e+000
   endloop
 endfacet
 facet normal  6.967310e-001  9.172638e-002 -7.114437e-001
   outer loop
     vertex  1.949856e+000  4.450419e-001 -5.100000e+000
     vertex  1.600000e+000  0.000000e+000 -5.500000e+000
     vertex  1.545481e+000  4.141105e-001 -5.500000e+000
   endloop
 endfacet
 facet normal -7.048732e-001  7.942014e-002 -7.048732e-001
   outer loop
     vertex -2.000000e+000  2.449213e-016 -5.100000e+000
     vertex -1.949856e+000  4.450419e-001 -5.100000e+000
     vertex -1.600000e+000  1.959370e-016 -5.500000e+000
   endloop
 endfacet
 facet normal  6.447304e-001  2.670561e-001 -7.162428e-001
   outer loop
     vertex  1.801938e+000  8.677675e-001 -5.100000e+000
     vertex  1.545481e+000  4.141105e-001 -5.500000e+000
     vertex  1.385641e+000  8.000000e-001 -5.500000e+000
   endloop
 endfacet
 facet normal  6.742192e-001  2.359195e-001 -6.998360e-001
   outer loop
     vertex  1.801938e+000  8.677675e-001 -5.100000e+000
     vertex  1.949856e+000  4.450419e-001 -5.100000e+000
     vertex  1.545481e+000  4.141105e-001 -5.500000e+000
   endloop
 endfacet
 facet normal  5.517113e-001  4.233430e-001 -7.186065e-001
   outer loop
     vertex  1.563663e+000  1.246980e+000 -5.100000e+000
     vertex  1.385641e+000  8.000000e-001 -5.500000e+000
     vertex  1.131371e+000  1.131371e+000 -5.500000e+000
   endloop
 endfacet
 facet normal  6.073592e-001  3.816291e-001 -6.967597e-001
   outer loop
     vertex  1.563663e+000  1.246980e+000 -5.100000e+000
     vertex  1.801938e+000  8.677675e-001 -5.100000e+000
     vertex  1.385641e+000  8.000000e-001 -5.500000e+000
   endloop
 endfacet
 facet normal  4.233430e-001  5.517113e-001 -7.186065e-001
   outer loop
     vertex  1.246980e+000  1.563663e+000 -5.100000e+000
     vertex  1.131371e+000  1.131371e+000 -5.500000e+000
     vertex  8.000000e-001  1.385641e+000 -5.500000e+000
   endloop
 endfacet
 facet normal  5.079205e-001  5.079205e-001 -6.957252e-001
   outer loop
     vertex  1.246980e+000  1.563663e+000 -5.100000e+000
     vertex  1.563663e+000  1.246980e+000 -5.100000e+000
     vertex  1.131371e+000  1.131371e+000 -5.500000e+000
   endloop
 endfacet
 facet normal  2.670561e-001  6.447304e-001 -7.162428e-001
   outer loop
     vertex  8.677675e-001  1.801938e+000 -5.100000e+000
     vertex  8.000000e-001  1.385641e+000 -5.500000e+000
     vertex  4.141105e-001  1.545481e+000 -5.500000e+000
   endloop
 endfacet
 facet normal  3.816291e-001  6.073592e-001 -6.967597e-001
   outer loop
     vertex  8.677675e-001  1.801938e+000 -5.100000e+000
     vertex  1.246980e+000  1.563663e+000 -5.100000e+000
     vertex  8.000000e-001  1.385641e+000 -5.500000e+000
   endloop
 endfacet
 facet normal  9.172638e-002  6.967310e-001 -7.114437e-001
   outer loop
     vertex  4.450419e-001  1.949856e+000 -5.100000e+000
     vertex  4.141105e-001  1.545481e+000 -5.500000e+000
     vertex -2.939152e-016  1.600000e+000 -5.500000e+000
   endloop
 endfacet
 facet normal  2.359195e-001  6.742192e-001 -6.998360e-001
   outer loop
     vertex  4.450419e-001  1.949856e+000 -5.100000e+000
     vertex  8.677675e-001  1.801938e+000 -5.100000e+000
     vertex  4.141105e-001  1.545481e+000 -5.500000e+000
   endloop
 endfacet
 facet normal  7.942014e-002  7.048732e-001 -7.048732e-001
   outer loop
     vertex -3.673940e-016  2.000000e+000 -5.100000e+000
     vertex  4.450419e-001  1.949856e+000 -5.100000e+000
     vertex -2.939152e-016  1.600000e+000 -5.500000e+000
   endloop
 endfacet
 facet normal -9.172638e-002  6.967310e-001 -7.114437e-001
   outer loop
     vertex -4.450419e-001  1.949856e+000 -5.100000e+000
     vertex -2.939152e-016  1.600000e+000 -5.500000e+000
     vertex -4.141105e-001  1.545481e+000 -5.500000e+000
   endloop
 endfacet
 facet normal -7.942014e-002  7.048732e-001 -7.048732e-001
   outer loop
     vertex -4.450419e-001  1.949856e+000 -5.100000e+000
     vertex -3.673940e-016  2.000000e+000 -5.100000e+000
     vertex -2.939152e-016  1.600000e+000 -5.500000e+000
   endloop
 endfacet
 facet normal -2.670561e-001  6.447304e-001 -7.162428e-001
   outer loop
     vertex -8.677675e-001  1.801938e+000 -5.100000e+000
     vertex -4.141105e-001  1.545481e+000 -5.500000e+000
     vertex -8.000000e-001  1.385641e+000 -5.500000e+000
   endloop
 endfacet
 facet normal -2.359195e-001  6.742192e-001 -6.998360e-001
   outer loop
     vertex -8.677675e-001  1.801938e+000 -5.100000e+000
     vertex -4.450419e-001  1.949856e+000 -5.100000e+000
     vertex -4.141105e-001  1.545481e+000 -5.500000e+000
   endloop
 endfacet
 facet normal -4.233430e-001  5.517113e-001 -7.186065e-001
   outer loop
     vertex -1.246980e+000  1.563663e+000 -5.100000e+000
     vertex -8.000000e-001  1.385641e+000 -5.500000e+000
     vertex -1.131371e+000  1.131371e+000 -5.500000e+000
   endloop
 endfacet
 facet normal -3.816291e-001  6.073592e-001 -6.967597e-001
   outer loop
     vertex -1.246980e+000  1.563663e+000 -5.100000e+000
     vertex -8.677675e-001  1.801938e+000 -5.100000e+000
     vertex -8.000000e-001  1.385641e+000 -5.500000e+000
   endloop
 endfacet
 facet normal -5.517113e-001  4.233430e-001 -7.186065e-001
   outer loop
     vertex -1.563663e+000  1.246980e+000 -5.100000e+000
     vertex -1.131371e+000  1.131371e+000 -5.500000e+000
     vertex -1.385641e+000  8.000000e-001 -5.500000e+000
   endloop
 endfacet
 facet normal -5.079205e-001  5.079205e-001 -6.957252e-001
   outer loop
     vertex -1.563663e+000  1.246980e+000 -5.100000e+000
     vertex -1.246980e+000  1.563663e+000 -5.100000e+000
     vertex -1.131371e+000  1.131371e+000 -5.500000e+000
   endloop
 endfacet
 facet normal -1.000000e+000  0.000000e+000  0.000000e+000
   outer loop
     vertex  1.500000e+000  8.660254e-001  1.650000e+001
     vertex  1.500000e+000 -8.660254e-001  1.650000e+001
     vertex  1.500000e+000 -8.660254e-001  1.850000e+001
   endloop
 endfacet
 facet normal -1.000000e+000  0.000000e+000  0.000000e+000
   outer loop
     vertex  1.500000e+000  8.660254e-001  1.650000e+001
     vertex  1.500000e+000 -8.660254e-001  1.850000e+001
     vertex  1.500000e+000  8.660254e-001  1.850000e+001
   endloop
 endfacet
 facet normal -5.000000e-001 -8.660254e-001 -0.000000e+000
   outer loop
     vertex  1.500000e+000  8.660254e-001  1.850000e+001
     vertex -6.047427e-015  1.732051e+000  1.850000e+001
     vertex -6.047427e-015  1.732051e+000  1.650000e+001
   endloop
 endfacet
 facet normal -5.000000e-001 -8.660254e-001  0.000000e+000
   outer loop
     vertex  1.500000e+000  8.660254e-001  1.850000e+001
     vertex -6.047427e-015  1.732051e+000  1.650000e+001
     vertex  1.500000e+000  8.660254e-001  1.650000e+001
   endloop
 endfacet
 facet normal  5.000000e-001 -8.660254e-001  0.000000e+000
   outer loop
     vertex -6.047427e-015  1.732051e+000  1.850000e+001
     vertex -1.500000e+000  8.660254e-001  1.850000e+001
     vertex -1.500000e+000  8.660254e-001  1.650000e+001
   endloop
 endfacet
 facet normal  5.000000e-001 -8.660254e-001  0.000000e+000
   outer loop
     vertex -6.047427e-015  1.732051e+000  1.850000e+001
     vertex -1.500000e+000  8.660254e-001  1.650000e+001
     vertex -6.047427e-015  1.732051e+000  1.650000e+001
   endloop
 endfacet
 facet normal  1.000000e+000  1.153778e-014  0.000000e+000
   outer loop
     vertex -1.500000e+000 -8.660254e-001  1.850000e+001
     vertex -1.500000e+000 -8.660254e-001  1.650000e+001
     vertex -1.500000e+000  8.660254e-001  1.650000e+001
   endloop
 endfacet
 facet normal  1.000000e+000  1.153778e-014  0.000000e+000
   outer loop
     vertex -1.500000e+000  8.660254e-001  1.850000e+001
     vertex -1.500000e+000 -8.660254e-001  1.850000e+001
     vertex -1.500000e+000  8.660254e-001  1.650000e+001
   endloop
 endfacet
 facet normal  5.000000e-001  8.660254e-001 -0.000000e+000
   outer loop
     vertex  1.814228e-014 -1.732051e+000  1.650000e+001
     vertex -1.500000e+000 -8.660254e-001  1.650000e+001
     vertex -1.500000e+000 -8.660254e-001  1.850000e+001
   endloop
 endfacet
 facet normal  5.000000e-001  8.660254e-001  0.000000e+000
   outer loop
     vertex  1.814228e-014 -1.732051e+000  1.650000e+001
     vertex -1.500000e+000 -8.660254e-001  1.850000e+001
     vertex  1.814228e-014 -1.732051e+000  1.850000e+001
   endloop
 endfacet
 facet normal -5.000000e-001  8.660254e-001  0.000000e+000
   outer loop
     vertex  1.500000e+000 -8.660254e-001  1.650000e+001
     vertex  1.814228e-014 -1.732051e+000  1.650000e+001
     vertex  1.814228e-014 -1.732051e+000  1.850000e+001
   endloop
 endfacet
 facet normal -5.000000e-001  8.660254e-001  0.000000e+000
   outer loop
     vertex  1.500000e+000 -8.660254e-001  1.650000e+001
     vertex  1.814228e-014 -1.732051e+000  1.850000e+001
     vertex  1.500000e+000 -8.660254e-001  1.850000e+001
   endloop
 endfacet
 facet normal  5.320321e-001 -8.467242e-001  2.462202e-018
   outer loop
     vertex  1.246980e+000 -1.563663e+000  1.450000e+001
     vertex  8.677675e-001 -1.801938e+000  1.450000e+001
     vertex  8.677675e-001 -1.801938e+000 -5.100000e+000
   endloop
 endfacet
 facet normal  7.071068e-001 -7.071068e-001 -7.904855e-018
   outer loop
     vertex  1.563663e+000 -1.246980e+000  1.450000e+001
     vertex  1.246980e+000 -1.563663e+000 -5.100000e+000
     vertex  1.563663e+000 -1.246980e+000 -5.100000e+000
   endloop
 endfacet
 facet normal  7.071068e-001 -7.071068e-001  8.010676e-018
   outer loop
     vertex  1.563663e+000 -1.246980e+000  1.450000e+001
     vertex  1.246980e+000 -1.563663e+000  1.450000e+001
     vertex  1.246980e+000 -1.563663e+000 -5.100000e+000
   endloop
 endfacet
 facet normal -9.937122e-001 -1.119645e-001 -0.000000e+000
   outer loop
     vertex -1.949856e+000 -4.450419e-001  1.450000e+001
     vertex -2.000000e+000  2.449213e-016  1.450000e+001
     vertex -2.000000e+000  2.449213e-016 -5.100000e+000
   endloop
 endfacet
 facet normal -9.937122e-001 -1.119645e-001  2.371457e-018
   outer loop
     vertex -1.949856e+000 -4.450419e-001  1.450000e+001
     vertex -2.000000e+000  2.449213e-016 -5.100000e+000
     vertex -1.949856e+000 -4.450419e-001 -5.100000e+000
   endloop
 endfacet
 facet normal  8.467242e-001 -5.320321e-001 -2.462202e-018
   outer loop
     vertex  1.801938e+000 -8.677675e-001 -5.100000e+000
     vertex  1.563663e+000 -1.246980e+000  1.450000e+001
     vertex  1.563663e+000 -1.246980e+000 -5.100000e+000
   endloop
 endfacet
 facet normal  8.467242e-001 -5.320321e-001 -3.161942e-018
   outer loop
     vertex  1.801938e+000 -8.677675e-001  1.450000e+001
     vertex  1.563663e+000 -1.246980e+000  1.450000e+001
     vertex  1.801938e+000 -8.677675e-001 -5.100000e+000
   endloop
 endfacet
 facet normal -9.438833e-001 -3.302791e-001 -3.161942e-018
   outer loop
     vertex -1.801938e+000 -8.677675e-001  1.450000e+001
     vertex -1.949856e+000 -4.450419e-001 -5.100000e+000
     vertex -1.801938e+000 -8.677675e-001 -5.100000e+000
   endloop
 endfacet
 facet normal  9.438833e-001 -3.302791e-001  1.580971e-018
   outer loop
     vertex  1.949856e+000 -4.450419e-001  1.450000e+001
     vertex  1.801938e+000 -8.677675e-001 -5.100000e+000
     vertex  1.949856e+000 -4.450419e-001 -5.100000e+000
   endloop
 endfacet
 facet normal -9.438833e-001 -3.302791e-001  7.483335e-018
   outer loop
     vertex -1.801938e+000 -8.677675e-001  1.450000e+001
     vertex -1.949856e+000 -4.450419e-001  1.450000e+001
     vertex -1.949856e+000 -4.450419e-001 -5.100000e+000
   endloop
 endfacet
 facet normal  9.438833e-001 -3.302791e-001  3.209736e-018
   outer loop
     vertex  1.949856e+000 -4.450419e-001  1.450000e+001
     vertex  1.801938e+000 -8.677675e-001  1.450000e+001
     vertex  1.801938e+000 -8.677675e-001 -5.100000e+000
   endloop
 endfacet
 facet normal  9.937122e-001 -1.119645e-001  0.000000e+000
   outer loop
     vertex  2.000000e+000  0.000000e+000  1.450000e+001
     vertex  1.949856e+000 -4.450419e-001 -5.100000e+000
     vertex  2.000000e+000  0.000000e+000 -5.100000e+000
   endloop
 endfacet
 facet normal -8.467242e-001 -5.320321e-001 -6.323884e-018
   outer loop
     vertex -1.563663e+000 -1.246980e+000  1.450000e+001
     vertex -1.801938e+000 -8.677675e-001 -5.100000e+000
     vertex -1.563663e+000 -1.246980e+000 -5.100000e+000
   endloop
 endfacet
 facet normal  9.937122e-001 -1.119645e-001  8.403620e-018
   outer loop
     vertex  2.000000e+000  0.000000e+000  1.450000e+001
     vertex  1.949856e+000 -4.450419e-001  1.450000e+001
     vertex  1.949856e+000 -4.450419e-001 -5.100000e+000
   endloop
 endfacet
 facet normal -8.467242e-001 -5.320321e-001  2.462202e-018
   outer loop
     vertex -1.563663e+000 -1.246980e+000  1.450000e+001
     vertex -1.801938e+000 -8.677675e-001  1.450000e+001
     vertex -1.801938e+000 -8.677675e-001 -5.100000e+000
   endloop
 endfacet
 facet normal -7.071068e-001 -7.071068e-001  0.000000e+000
   outer loop
     vertex -1.246980e+000 -1.563663e+000  1.450000e+001
     vertex -1.563663e+000 -1.246980e+000 -5.100000e+000
     vertex -1.246980e+000 -1.563663e+000 -5.100000e+000
   endloop
 endfacet
 facet normal -7.071068e-001 -7.071068e-001 -1.123348e-032
   outer loop
     vertex -1.246980e+000 -1.563663e+000  1.450000e+001
     vertex -1.563663e+000 -1.246980e+000  1.450000e+001
     vertex -1.563663e+000 -1.246980e+000 -5.100000e+000
   endloop
 endfacet
 facet normal -5.320321e-001 -8.467242e-001 -3.161942e-018
   outer loop
     vertex -8.677675e-001 -1.801938e+000  1.450000e+001
     vertex -1.246980e+000 -1.563663e+000 -5.100000e+000
     vertex -8.677675e-001 -1.801938e+000 -5.100000e+000
   endloop
 endfacet
 facet normal -5.320321e-001 -8.467242e-001  7.130172e-018
   outer loop
     vertex -8.677675e-001 -1.801938e+000  1.450000e+001
     vertex -1.246980e+000 -1.563663e+000  1.450000e+001
     vertex -1.246980e+000 -1.563663e+000 -5.100000e+000
   endloop
 endfacet
 facet normal -3.302791e-001 -9.438833e-001 -9.485827e-018
   outer loop
     vertex -4.450419e-001 -1.949856e+000  1.450000e+001
     vertex -8.677675e-001 -1.801938e+000 -5.100000e+000
     vertex -4.450419e-001 -1.949856e+000 -5.100000e+000
   endloop
 endfacet
 facet normal -3.302791e-001 -9.438833e-001  3.209736e-018
   outer loop
     vertex -4.450419e-001 -1.949856e+000  1.450000e+001
     vertex -8.677675e-001 -1.801938e+000  1.450000e+001
     vertex -8.677675e-001 -1.801938e+000 -5.100000e+000
   endloop
 endfacet
 facet normal -1.119645e-001 -9.937122e-001 -3.161942e-018
   outer loop
     vertex -3.673940e-016 -2.000000e+000  1.450000e+001
     vertex -4.450419e-001 -1.949856e+000 -5.100000e+000
     vertex  1.224647e-016 -2.000000e+000 -5.100000e+000
   endloop
 endfacet
 facet normal -1.119645e-001 -9.937122e-001 -2.853954e-018
   outer loop
     vertex -3.673940e-016 -2.000000e+000  1.450000e+001
     vertex -4.450419e-001 -1.949856e+000  1.450000e+001
     vertex -4.450419e-001 -1.949856e+000 -5.100000e+000
   endloop
 endfacet
 facet normal  1.119645e-001 -9.937122e-001  2.766699e-018
   outer loop
     vertex  4.450419e-001 -1.949856e+000  1.450000e+001
     vertex  1.224647e-016 -2.000000e+000 -5.100000e+000
     vertex  4.450419e-001 -1.949856e+000 -5.100000e+000
   endloop
 endfacet
 facet normal  1.119645e-001 -9.937122e-001  2.798305e-018
   outer loop
     vertex  4.450419e-001 -1.949856e+000  1.450000e+001
     vertex -3.673940e-016 -2.000000e+000  1.450000e+001
     vertex  1.224647e-016 -2.000000e+000 -5.100000e+000
   endloop
 endfacet
 facet normal  3.302791e-001 -9.438833e-001 -3.161942e-018
   outer loop
     vertex  8.677675e-001 -1.801938e+000  1.450000e+001
     vertex  4.450419e-001 -1.949856e+000 -5.100000e+000
     vertex  8.677675e-001 -1.801938e+000 -5.100000e+000
   endloop
 endfacet
 facet normal  3.302791e-001 -9.438833e-001  7.483335e-018
   outer loop
     vertex  8.677675e-001 -1.801938e+000  1.450000e+001
     vertex  4.450419e-001 -1.949856e+000  1.450000e+001
     vertex  4.450419e-001 -1.949856e+000 -5.100000e+000
   endloop
 endfacet
 facet normal  5.320321e-001 -8.467242e-001  3.161942e-018
   outer loop
     vertex  1.246980e+000 -1.563663e+000  1.450000e+001
     vertex  8.677675e-001 -1.801938e+000 -5.100000e+000
     vertex  1.246980e+000 -1.563663e+000 -5.100000e+000
   endloop
 endfacet
 facet normal -5.320321e-001  8.467242e-001  2.462202e-018
   outer loop
     vertex -1.246980e+000  1.563663e+000  1.450000e+001
     vertex -8.677675e-001  1.801938e+000  1.450000e+001
     vertex -8.677675e-001  1.801938e+000 -5.100000e+000
   endloop
 endfacet
 facet normal -7.071068e-001  7.071068e-001  0.000000e+000
   outer loop
     vertex -1.563663e+000  1.246980e+000  1.450000e+001
     vertex -1.246980e+000  1.563663e+000 -5.100000e+000
     vertex -1.563663e+000  1.246980e+000 -5.100000e+000
   endloop
 endfacet
 facet normal -7.071068e-001  7.071068e-001  1.123348e-032
   outer loop
     vertex -1.563663e+000  1.246980e+000  1.450000e+001
     vertex -1.246980e+000  1.563663e+000  1.450000e+001
     vertex -1.246980e+000  1.563663e+000 -5.100000e+000
   endloop
 endfacet
 facet normal  9.937122e-001  1.119645e-001  0.000000e+000
   outer loop
     vertex  1.949856e+000  4.450419e-001  1.450000e+001
     vertex  2.000000e+000  0.000000e+000  1.450000e+001
     vertex  2.000000e+000  0.000000e+000 -5.100000e+000
   endloop
 endfacet
 facet normal  9.937122e-001  1.119645e-001 -8.300098e-018
   outer loop
     vertex  1.949856e+000  4.450419e-001  1.450000e+001
     vertex  2.000000e+000  0.000000e+000 -5.100000e+000
     vertex  1.949856e+000  4.450419e-001 -5.100000e+000
   endloop
 endfacet
 facet normal -8.467242e-001  5.320321e-001  7.130172e-018
   outer loop
     vertex -1.801938e+000  8.677675e-001 -5.100000e+000
     vertex -1.563663e+000  1.246980e+000  1.450000e+001
     vertex -1.563663e+000  1.246980e+000 -5.100000e+000
   endloop
 endfacet
 facet normal -8.467242e-001  5.320321e-001 -3.161942e-018
   outer loop
     vertex -1.801938e+000  8.677675e-001  1.450000e+001
     vertex -1.563663e+000  1.246980e+000  1.450000e+001
     vertex -1.801938e+000  8.677675e-001 -5.100000e+000
   endloop
 endfacet
 facet normal  9.438833e-001  3.302791e-001 -3.161942e-018
   outer loop
     vertex  1.801938e+000  8.677675e-001  1.450000e+001
     vertex  1.949856e+000  4.450419e-001 -5.100000e+000
     vertex  1.801938e+000  8.677675e-001 -5.100000e+000
   endloop
 endfacet
 facet normal -9.438833e-001  3.302791e-001 -7.904855e-018
   outer loop
     vertex -1.949856e+000  4.450419e-001  1.450000e+001
     vertex -1.801938e+000  8.677675e-001 -5.100000e+000
     vertex -1.949856e+000  4.450419e-001 -5.100000e+000
   endloop
 endfacet
 facet normal  9.438833e-001  3.302791e-001 -2.274320e-018
   outer loop
     vertex  1.801938e+000  8.677675e-001  1.450000e+001
     vertex  1.949856e+000  4.450419e-001  1.450000e+001
     vertex  1.949856e+000  4.450419e-001 -5.100000e+000
   endloop
 endfacet
 facet normal -9.438833e-001  3.302791e-001  3.209736e-018
   outer loop
     vertex -1.949856e+000  4.450419e-001  1.450000e+001
     vertex -1.801938e+000  8.677675e-001  1.450000e+001
     vertex -1.801938e+000  8.677675e-001 -5.100000e+000
   endloop
 endfacet
 facet normal -9.937122e-001  1.119645e-001  0.000000e+000
   outer loop
     vertex -2.000000e+000  2.449213e-016  1.450000e+001
     vertex -1.949856e+000  4.450419e-001 -5.100000e+000
     vertex -2.000000e+000  2.449213e-016 -5.100000e+000
   endloop
 endfacet
 facet normal  8.467242e-001  5.320321e-001  3.161942e-018
   outer loop
     vertex  1.563663e+000  1.246980e+000  1.450000e+001
     vertex  1.801938e+000  8.677675e-001 -5.100000e+000
     vertex  1.563663e+000  1.246980e+000 -5.100000e+000
   endloop
 endfacet
 facet normal -9.937122e-001  1.119645e-001 -2.536848e-018
   outer loop
     vertex -2.000000e+000  2.449213e-016  1.450000e+001
     vertex -1.949856e+000  4.450419e-001  1.450000e+001
     vertex -1.949856e+000  4.450419e-001 -5.100000e+000
   endloop
 endfacet
 facet normal  8.467242e-001  5.320321e-001  2.462202e-018
   outer loop
     vertex  1.563663e+000  1.246980e+000  1.450000e+001
     vertex  1.801938e+000  8.677675e-001  1.450000e+001
     vertex  1.801938e+000  8.677675e-001 -5.100000e+000
   endloop
 endfacet
 facet normal  7.071068e-001  7.071068e-001 -7.904855e-018
   outer loop
     vertex  1.246980e+000  1.563663e+000  1.450000e+001
     vertex  1.563663e+000  1.246980e+000 -5.100000e+000
     vertex  1.246980e+000  1.563663e+000 -5.100000e+000
   endloop
 endfacet
 facet normal  7.071068e-001  7.071068e-001  8.010676e-018
   outer loop
     vertex  1.246980e+000  1.563663e+000  1.450000e+001
     vertex  1.563663e+000  1.246980e+000  1.450000e+001
     vertex  1.563663e+000  1.246980e+000 -5.100000e+000
   endloop
 endfacet
 facet normal  5.320321e-001  8.467242e-001 -3.161942e-018
   outer loop
     vertex  8.677675e-001  1.801938e+000  1.450000e+001
     vertex  1.246980e+000  1.563663e+000 -5.100000e+000
     vertex  8.677675e-001  1.801938e+000 -5.100000e+000
   endloop
 endfacet
 facet normal  5.320321e-001  8.467242e-001 -2.462202e-018
   outer loop
     vertex  8.677675e-001  1.801938e+000  1.450000e+001
     vertex  1.246980e+000  1.563663e+000  1.450000e+001
     vertex  1.246980e+000  1.563663e+000 -5.100000e+000
   endloop
 endfacet
 facet normal  3.302791e-001  9.438833e-001 -7.904855e-018
   outer loop
     vertex  4.450419e-001  1.949856e+000  1.450000e+001
     vertex  8.677675e-001  1.801938e+000 -5.100000e+000
     vertex  4.450419e-001  1.949856e+000 -5.100000e+000
   endloop
 endfacet
 facet normal  3.302791e-001  9.438833e-001  3.209736e-018
   outer loop
     vertex  4.450419e-001  1.949856e+000  1.450000e+001
     vertex  8.677675e-001  1.801938e+000  1.450000e+001
     vertex  8.677675e-001  1.801938e+000 -5.100000e+000
   endloop
 endfacet
 facet normal  1.119645e-001  9.937122e-001 -2.766699e-018
   outer loop
     vertex  1.224647e-016  2.000000e+000  1.450000e+001
     vertex  4.450419e-001  1.949856e+000 -5.100000e+000
     vertex -3.673940e-016  2.000000e+000 -5.100000e+000
   endloop
 endfacet
 facet normal  1.119645e-001  9.937122e-001 -2.536848e-018
   outer loop
     vertex  1.224647e-016  2.000000e+000  1.450000e+001
     vertex  4.450419e-001  1.949856e+000  1.450000e+001
     vertex  4.450419e-001  1.949856e+000 -5.100000e+000
   endloop
 endfacet
 facet normal -1.119645e-001  9.937122e-001  3.161942e-018
   outer loop
     vertex -4.450419e-001  1.949856e+000  1.450000e+001
     vertex -3.673940e-016  2.000000e+000 -5.100000e+000
     vertex -4.450419e-001  1.949856e+000 -5.100000e+000
   endloop
 endfacet
 facet normal -1.119645e-001  9.937122e-001  2.798305e-018
   outer loop
     vertex -4.450419e-001  1.949856e+000  1.450000e+001
     vertex  1.224647e-016  2.000000e+000  1.450000e+001
     vertex -3.673940e-016  2.000000e+000 -5.100000e+000
   endloop
 endfacet
 facet normal -3.302791e-001  9.438833e-001 -3.161942e-018
   outer loop
     vertex -8.677675e-001  1.801938e+000  1.450000e+001
     vertex -4.450419e-001  1.949856e+000 -5.100000e+000
     vertex -8.677675e-001  1.801938e+000 -5.100000e+000
   endloop
 endfacet
 facet normal -3.302791e-001  9.438833e-001  8.418752e-018
   outer loop
     vertex -8.677675e-001  1.801938e+000  1.450000e+001
     vertex -4.450419e-001  1.949856e+000  1.450000e+001
     vertex -4.450419e-001  1.949856e+000 -5.100000e+000
   endloop
 endfacet
 facet normal -5.320321e-001  8.467242e-001 -6.323884e-018
   outer loop
     vertex -1.246980e+000  1.563663e+000  1.450000e+001
     vertex -8.677675e-001  1.801938e+000 -5.100000e+000
     vertex -1.246980e+000  1.563663e+000 -5.100000e+000
   endloop
 endfacet
 facet normal  0.000000e+000  0.000000e+000  1.000000e+000
   outer loop
     vertex  3.288924e+000  1.197071e+000  1.850000e+001
     vertex  1.500000e+000  8.660254e-001  1.850000e+001
     vertex  3.446827e+000  6.077686e-001  1.850000e+001
   endloop
 endfacet
 facet normal  0.000000e+000  0.000000e+000  1.000000e+000
   outer loop
     vertex  1.750000e+000  3.031089e+000  1.850000e+001
     vertex -6.047427e-015  1.732051e+000  1.850000e+001
     vertex  1.500000e+000  8.660254e-001  1.850000e+001
   endloop
 endfacet
 facet normal  0.000000e+000  0.000000e+000  1.000000e+000
   outer loop
     vertex  1.750000e+000  3.031089e+000  1.850000e+001
     vertex  1.197071e+000  3.288924e+000  1.850000e+001
     vertex -6.047427e-015  1.732051e+000  1.850000e+001
   endloop
 endfacet
 facet normal  0.000000e+000  0.000000e+000  1.000000e+000
   outer loop
     vertex -1.500000e+000  8.660254e-001  1.850000e+001
     vertex -3.031089e+000  1.750000e+000  1.850000e+001
     vertex -3.288924e+000  1.197071e+000  1.850000e+001
   endloop
 endfacet
 facet normal  0.000000e+000  0.000000e+000  1.000000e+000
   outer loop
     vertex -1.500000e+000  8.660254e-001  1.850000e+001
     vertex -3.288924e+000  1.197071e+000  1.850000e+001
     vertex -3.446827e+000  6.077686e-001  1.850000e+001
   endloop
 endfacet
 facet normal  0.000000e+000  0.000000e+000  1.000000e+000
   outer loop
     vertex -1.500000e+000  8.660254e-001  1.850000e+001
     vertex -3.446827e+000  6.077686e-001  1.850000e+001
     vertex -3.500000e+000  4.286122e-016  1.850000e+001
   endloop
 endfacet
 facet normal  0.000000e+000  0.000000e+000  1.000000e+000
   outer loop
     vertex -1.500000e+000  8.660254e-001  1.850000e+001
     vertex -3.500000e+000  4.286122e-016  1.850000e+001
     vertex -1.500000e+000 -8.660254e-001  1.850000e+001
   endloop
 endfacet
 facet normal -0.000000e+000  0.000000e+000  1.000000e+000
   outer loop
     vertex  3.031089e+000  1.750000e+000  1.850000e+001
     vertex  1.500000e+000  8.660254e-001  1.850000e+001
     vertex  3.288924e+000  1.197071e+000  1.850000e+001
   endloop
 endfacet
 facet normal  0.000000e+000  0.000000e+000  1.000000e+000
   outer loop
     vertex  2.249757e+000  2.681156e+000  1.850000e+001
     vertex  1.750000e+000  3.031089e+000  1.850000e+001
     vertex  1.500000e+000  8.660254e-001  1.850000e+001
   endloop
 endfacet
 facet normal  0.000000e+000  0.000000e+000  1.000000e+000
   outer loop
     vertex -2.681156e+000  2.249757e+000  1.850000e+001
     vertex -3.031089e+000  1.750000e+000  1.850000e+001
     vertex -1.500000e+000  8.660254e-001  1.850000e+001
   endloop
 endfacet
 facet normal -0.000000e+000  0.000000e+000  1.000000e+000
   outer loop
     vertex  2.681156e+000  2.249757e+000  1.850000e+001
     vertex  1.500000e+000  8.660254e-001  1.850000e+001
     vertex  3.031089e+000  1.750000e+000  1.850000e+001
   endloop
 endfacet
 facet normal  0.000000e+000  0.000000e+000  1.000000e+000
   outer loop
     vertex  2.681156e+000  2.249757e+000  1.850000e+001
     vertex  2.249757e+000  2.681156e+000  1.850000e+001
     vertex  1.500000e+000  8.660254e-001  1.850000e+001
   endloop
 endfacet
 facet normal  0.000000e+000  0.000000e+000  1.000000e+000
   outer loop
     vertex -2.249757e+000  2.681156e+000  1.850000e+001
     vertex -2.681156e+000  2.249757e+000  1.850000e+001
     vertex -1.500000e+000  8.660254e-001  1.850000e+001
   endloop
 endfacet
 facet normal -0.000000e+000  0.000000e+000  1.000000e+000
   outer loop
     vertex  1.500000e+000 -8.660254e-001  1.850000e+001
     vertex  1.750000e+000 -3.031089e+000  1.850000e+001
     vertex  2.249757e+000 -2.681156e+000  1.850000e+001
   endloop
 endfacet
 facet normal -0.000000e+000  0.000000e+000  1.000000e+000
   outer loop
     vertex  1.500000e+000 -8.660254e-001  1.850000e+001
     vertex  2.249757e+000 -2.681156e+000  1.850000e+001
     vertex  2.681156e+000 -2.249757e+000  1.850000e+001
   endloop
 endfacet
 facet normal  0.000000e+000  0.000000e+000  1.000000e+000
   outer loop
     vertex  1.500000e+000 -8.660254e-001  1.850000e+001
     vertex  1.814228e-014 -1.732051e+000  1.850000e+001
     vertex  1.750000e+000 -3.031089e+000  1.850000e+001
   endloop
 endfacet
 facet normal  0.000000e+000  0.000000e+000  1.000000e+000
   outer loop
     vertex  3.031089e+000 -1.750000e+000  1.850000e+001
     vertex  1.500000e+000 -8.660254e-001  1.850000e+001
     vertex  2.681156e+000 -2.249757e+000  1.850000e+001
   endloop
 endfacet
 facet normal  0.000000e+000  0.000000e+000  1.000000e+000
   outer loop
     vertex -1.750000e+000  3.031089e+000  1.850000e+001
     vertex -2.249757e+000  2.681156e+000  1.850000e+001
     vertex -1.500000e+000  8.660254e-001  1.850000e+001
   endloop
 endfacet
 facet normal  0.000000e+000  0.000000e+000  1.000000e+000
   outer loop
     vertex -6.047427e-015  1.732051e+000  1.850000e+001
     vertex -1.750000e+000  3.031089e+000  1.850000e+001
     vertex -1.500000e+000  8.660254e-001  1.850000e+001
   endloop
 endfacet
 facet normal  0.000000e+000  0.000000e+000  1.000000e+000
   outer loop
     vertex  3.288924e+000 -1.197071e+000  1.850000e+001
     vertex  1.500000e+000 -8.660254e-001  1.850000e+001
     vertex  3.031089e+000 -1.750000e+000  1.850000e+001
   endloop
 endfacet
 facet normal  0.000000e+000  0.000000e+000  1.000000e+000
   outer loop
     vertex -1.197071e+000  3.288924e+000  1.850000e+001
     vertex -1.750000e+000  3.031089e+000  1.850000e+001
     vertex -6.047427e-015  1.732051e+000  1.850000e+001
   endloop
 endfacet
 facet normal  0.000000e+000  0.000000e+000  1.000000e+000
   outer loop
     vertex  3.446827e+000 -6.077686e-001  1.850000e+001
     vertex  1.500000e+000 -8.660254e-001  1.850000e+001
     vertex  3.288924e+000 -1.197071e+000  1.850000e+001
   endloop
 endfacet
 facet normal  0.000000e+000  0.000000e+000  1.000000e+000
   outer loop
     vertex -1.500000e+000 -8.660254e-001  1.850000e+001
     vertex -3.500000e+000  4.286122e-016  1.850000e+001
     vertex -3.446827e+000 -6.077686e-001  1.850000e+001
   endloop
 endfacet
 facet normal  0.000000e+000  0.000000e+000  1.000000e+000
   outer loop
     vertex -1.500000e+000 -8.660254e-001  1.850000e+001
     vertex -3.446827e+000 -6.077686e-001  1.850000e+001
     vertex -3.288924e+000 -1.197071e+000  1.850000e+001
   endloop
 endfacet
 facet normal  0.000000e+000  0.000000e+000  1.000000e+000
   outer loop
     vertex -6.077686e-001  3.446827e+000  1.850000e+001
     vertex -1.197071e+000  3.288924e+000  1.850000e+001
     vertex -6.047427e-015  1.732051e+000  1.850000e+001
   endloop
 endfacet
 facet normal  0.000000e+000  0.000000e+000  1.000000e+000
   outer loop
     vertex -1.500000e+000 -8.660254e-001  1.850000e+001
     vertex -3.288924e+000 -1.197071e+000  1.850000e+001
     vertex -3.031089e+000 -1.750000e+000  1.850000e+001
   endloop
 endfacet
 facet normal  0.000000e+000  0.000000e+000  1.000000e+000
   outer loop
     vertex -1.500000e+000 -8.660254e-001  1.850000e+001
     vertex -3.031089e+000 -1.750000e+000  1.850000e+001
     vertex -2.681156e+000 -2.249757e+000  1.850000e+001
   endloop
 endfacet
 facet normal  0.000000e+000  0.000000e+000  1.000000e+000
   outer loop
     vertex -1.500000e+000 -8.660254e-001  1.850000e+001
     vertex -2.681156e+000 -2.249757e+000  1.850000e+001
     vertex -2.249757e+000 -2.681156e+000  1.850000e+001
   endloop
 endfacet
 facet normal  0.000000e+000  0.000000e+000  1.000000e+000
   outer loop
     vertex -1.500000e+000 -8.660254e-001  1.850000e+001
     vertex -2.249757e+000 -2.681156e+000  1.850000e+001
     vertex -1.750000e+000 -3.031089e+000  1.850000e+001
   endloop
 endfacet
 facet normal -0.000000e+000  0.000000e+000  1.000000e+000
   outer loop
     vertex  3.500000e+000  0.000000e+000  1.850000e+001
     vertex  1.500000e+000 -8.660254e-001  1.850000e+001
     vertex  3.446827e+000 -6.077686e-001  1.850000e+001
   endloop
 endfacet
 facet normal  0.000000e+000  0.000000e+000  1.000000e+000
   outer loop
     vertex  3.500000e+000  0.000000e+000  1.850000e+001
     vertex  1.500000e+000  8.660254e-001  1.850000e+001
     vertex  1.500000e+000 -8.660254e-001  1.850000e+001
   endloop
 endfacet
 facet normal  0.000000e+000  0.000000e+000  1.000000e+000
   outer loop
     vertex  2.143132e-016  3.500000e+000  1.850000e+001
     vertex -6.077686e-001  3.446827e+000  1.850000e+001
     vertex -6.047427e-015  1.732051e+000  1.850000e+001
   endloop
 endfacet
 facet normal  0.000000e+000  0.000000e+000  1.000000e+000
   outer loop
     vertex  1.814228e-014 -1.732051e+000  1.850000e+001
     vertex -1.750000e+000 -3.031089e+000  1.850000e+001
     vertex -1.197071e+000 -3.288924e+000  1.850000e+001
   endloop
 endfacet
 facet normal  0.000000e+000  0.000000e+000  1.000000e+000
   outer loop
     vertex  3.446827e+000  6.077686e-001  1.850000e+001
     vertex  1.500000e+000  8.660254e-001  1.850000e+001
     vertex  3.500000e+000  0.000000e+000  1.850000e+001
   endloop
 endfacet
 facet normal  0.000000e+000  0.000000e+000  1.000000e+000
   outer loop
     vertex  1.814228e-014 -1.732051e+000  1.850000e+001
     vertex -1.197071e+000 -3.288924e+000  1.850000e+001
     vertex -6.077686e-001 -3.446827e+000  1.850000e+001
   endloop
 endfacet
 facet normal  0.000000e+000  0.000000e+000  1.000000e+000
   outer loop
     vertex  1.814228e-014 -1.732051e+000  1.850000e+001
     vertex -6.077686e-001 -3.446827e+000  1.850000e+001
     vertex -6.860189e-015 -3.500000e+000  1.850000e+001
   endloop
 endfacet
 facet normal  0.000000e+000  0.000000e+000  1.000000e+000
   outer loop
     vertex  6.077686e-001  3.446827e+000  1.850000e+001
     vertex  2.143132e-016  3.500000e+000  1.850000e+001
     vertex -6.047427e-015  1.732051e+000  1.850000e+001
   endloop
 endfacet
 facet normal -0.000000e+000  0.000000e+000  1.000000e+000
   outer loop
     vertex  1.814228e-014 -1.732051e+000  1.850000e+001
     vertex -6.860189e-015 -3.500000e+000  1.850000e+001
     vertex  6.077686e-001 -3.446827e+000  1.850000e+001
   endloop
 endfacet
 facet normal -0.000000e+000  0.000000e+000  1.000000e+000
   outer loop
     vertex  1.814228e-014 -1.732051e+000  1.850000e+001
     vertex  6.077686e-001 -3.446827e+000  1.850000e+001
     vertex  1.197071e+000 -3.288924e+000  1.850000e+001
   endloop
 endfacet
 facet normal  0.000000e+000  0.000000e+000  1.000000e+000
   outer loop
     vertex  1.814228e-014 -1.732051e+000  1.850000e+001
     vertex -1.500000e+000 -8.660254e-001  1.850000e+001
     vertex -1.750000e+000 -3.031089e+000  1.850000e+001
   endloop
 endfacet
 facet normal  0.000000e+000  0.000000e+000  1.000000e+000
   outer loop
     vertex  1.197071e+000  3.288924e+000  1.850000e+001
     vertex  6.077686e-001  3.446827e+000  1.850000e+001
     vertex -6.047427e-015  1.732051e+000  1.850000e+001
   endloop
 endfacet
 facet normal  0.000000e+000  0.000000e+000  1.000000e+000
   outer loop
     vertex  1.750000e+000 -3.031089e+000  1.850000e+001
     vertex  1.814228e-014 -1.732051e+000  1.850000e+001
     vertex  1.197071e+000 -3.288924e+000  1.850000e+001
   endloop
 endfacet
 facet normal  0.000000e+000  0.000000e+000 -1.000000e+000
   outer loop
     vertex -1.563663e+000  1.246980e+000  1.450000e+001
     vertex -3.031089e+000  1.750000e+000  1.450000e+001
     vertex -2.681156e+000  2.249757e+000  1.450000e+001
   endloop
 endfacet
 facet normal  0.000000e+000  0.000000e+000 -1.000000e+000
   outer loop
     vertex -1.563663e+000  1.246980e+000  1.450000e+001
     vertex -2.681156e+000  2.249757e+000  1.450000e+001
     vertex -2.249757e+000  2.681156e+000  1.450000e+001
   endloop
 endfacet
 facet normal  0.000000e+000  0.000000e+000 -1.000000e+000
   outer loop
     vertex -1.246980e+000  1.563663e+000  1.450000e+001
     vertex -2.249757e+000  2.681156e+000  1.450000e+001
     vertex -1.750000e+000  3.031089e+000  1.450000e+001
   endloop
 endfacet
 facet normal -0.000000e+000  0.000000e+000 -1.000000e+000
   outer loop
     vertex -1.246980e+000  1.563663e+000  1.450000e+001
     vertex -1.563663e+000  1.246980e+000  1.450000e+001
     vertex -2.249757e+000  2.681156e+000  1.450000e+001
   endloop
 endfacet
 facet normal  0.000000e+000  0.000000e+000 -1.000000e+000
   outer loop
     vertex -8.677675e-001  1.801938e+000  1.450000e+001
     vertex -1.750000e+000  3.031089e+000  1.450000e+001
     vertex -1.197071e+000  3.288924e+000  1.450000e+001
   endloop
 endfacet
 facet normal -0.000000e+000  0.000000e+000 -1.000000e+000
   outer loop
     vertex -8.677675e-001  1.801938e+000  1.450000e+001
     vertex -1.246980e+000  1.563663e+000  1.450000e+001
     vertex -1.750000e+000  3.031089e+000  1.450000e+001
   endloop
 endfacet
 facet normal  0.000000e+000  0.000000e+000 -1.000000e+000
   outer loop
     vertex -1.801938e+000  8.677675e-001  1.450000e+001
     vertex -3.288924e+000  1.197071e+000  1.450000e+001
     vertex -3.031089e+000  1.750000e+000  1.450000e+001
   endloop
 endfacet
 facet normal  0.000000e+000  0.000000e+000 -1.000000e+000
   outer loop
     vertex -1.801938e+000  8.677675e-001  1.450000e+001
     vertex -3.031089e+000  1.750000e+000  1.450000e+001
     vertex -1.563663e+000  1.246980e+000  1.450000e+001
   endloop
 endfacet
 facet normal  0.000000e+000  0.000000e+000 -1.000000e+000
   outer loop
     vertex -1.949856e+000  4.450419e-001  1.450000e+001
     vertex -3.446827e+000  6.077686e-001  1.450000e+001
     vertex -3.288924e+000  1.197071e+000  1.450000e+001
   endloop
 endfacet
 facet normal  0.000000e+000  0.000000e+000 -1.000000e+000
   outer loop
     vertex -1.949856e+000  4.450419e-001  1.450000e+001
     vertex -3.288924e+000  1.197071e+000  1.450000e+001
     vertex -1.801938e+000  8.677675e-001  1.450000e+001
   endloop
 endfacet
 facet normal  0.000000e+000  0.000000e+000 -1.000000e+000
   outer loop
     vertex -4.450419e-001  1.949856e+000  1.450000e+001
     vertex -1.197071e+000  3.288924e+000  1.450000e+001
     vertex -6.077686e-001  3.446827e+000  1.450000e+001
   endloop
 endfacet
 facet normal -0.000000e+000  0.000000e+000 -1.000000e+000
   outer loop
     vertex -4.450419e-001  1.949856e+000  1.450000e+001
     vertex -8.677675e-001  1.801938e+000  1.450000e+001
     vertex -1.197071e+000  3.288924e+000  1.450000e+001
   endloop
 endfacet
 facet normal  0.000000e+000  0.000000e+000 -1.000000e+000
   outer loop
     vertex  1.224647e-016  2.000000e+000  1.450000e+001
     vertex -6.077686e-001  3.446827e+000  1.450000e+001
     vertex -6.860189e-015  3.500000e+000  1.450000e+001
   endloop
 endfacet
 facet normal  0.000000e+000  0.000000e+000 -1.000000e+000
   outer loop
     vertex  1.224647e-016  2.000000e+000  1.450000e+001
     vertex -6.860189e-015  3.500000e+000  1.450000e+001
     vertex  6.077686e-001  3.446827e+000  1.450000e+001
   endloop
 endfacet
 facet normal -0.000000e+000  0.000000e+000 -1.000000e+000
   outer loop
     vertex  1.224647e-016  2.000000e+000  1.450000e+001
     vertex -4.450419e-001  1.949856e+000  1.450000e+001
     vertex -6.077686e-001  3.446827e+000  1.450000e+001
   endloop
 endfacet
 facet normal -0.000000e+000  0.000000e+000 -1.000000e+000
   outer loop
     vertex -2.000000e+000  2.449213e-016  1.450000e+001
     vertex -3.446827e+000 -6.077686e-001  1.450000e+001
     vertex -3.500000e+000  4.286122e-016  1.450000e+001
   endloop
 endfacet
 facet normal  0.000000e+000  0.000000e+000 -1.000000e+000
   outer loop
     vertex -2.000000e+000  2.449213e-016  1.450000e+001
     vertex -3.500000e+000  4.286122e-016  1.450000e+001
     vertex -3.446827e+000  6.077686e-001  1.450000e+001
   endloop
 endfacet
 facet normal  0.000000e+000  0.000000e+000 -1.000000e+000
   outer loop
     vertex -2.000000e+000  2.449213e-016  1.450000e+001
     vertex -3.446827e+000  6.077686e-001  1.450000e+001
     vertex -1.949856e+000  4.450419e-001  1.450000e+001
   endloop
 endfacet
 facet normal  0.000000e+000  0.000000e+000 -1.000000e+000
   outer loop
     vertex  4.450419e-001  1.949856e+000  1.450000e+001
     vertex  1.224647e-016  2.000000e+000  1.450000e+001
     vertex  6.077686e-001  3.446827e+000  1.450000e+001
   endloop
 endfacet
 facet normal  0.000000e+000  0.000000e+000 -1.000000e+000
   outer loop
     vertex  4.450419e-001  1.949856e+000  1.450000e+001
     vertex  6.077686e-001  3.446827e+000  1.450000e+001
     vertex  1.197071e+000  3.288924e+000  1.450000e+001
   endloop
 endfacet
 facet normal -0.000000e+000  0.000000e+000 -1.000000e+000
   outer loop
     vertex -1.949856e+000 -4.450419e-001  1.450000e+001
     vertex -3.288924e+000 -1.197071e+000  1.450000e+001
     vertex -3.446827e+000 -6.077686e-001  1.450000e+001
   endloop
 endfacet
 facet normal -0.000000e+000  0.000000e+000 -1.000000e+000
   outer loop
     vertex -1.949856e+000 -4.450419e-001  1.450000e+001
     vertex -3.446827e+000 -6.077686e-001  1.450000e+001
     vertex -2.000000e+000  2.449213e-016  1.450000e+001
   endloop
 endfacet
 facet normal  0.000000e+000  0.000000e+000 -1.000000e+000
   outer loop
     vertex  8.677675e-001  1.801938e+000  1.450000e+001
     vertex  4.450419e-001  1.949856e+000  1.450000e+001
     vertex  1.197071e+000  3.288924e+000  1.450000e+001
   endloop
 endfacet
 facet normal  0.000000e+000  0.000000e+000 -1.000000e+000
   outer loop
     vertex  8.677675e-001  1.801938e+000  1.450000e+001
     vertex  1.197071e+000  3.288924e+000  1.450000e+001
     vertex  1.750000e+000  3.031089e+000  1.450000e+001
   endloop
 endfacet
 facet normal -0.000000e+000  0.000000e+000 -1.000000e+000
   outer loop
     vertex -1.801938e+000 -8.677675e-001  1.450000e+001
     vertex -3.288924e+000 -1.197071e+000  1.450000e+001
     vertex -1.949856e+000 -4.450419e-001  1.450000e+001
   endloop
 endfacet
 facet normal -0.000000e+000  0.000000e+000 -1.000000e+000
   outer loop
     vertex -1.801938e+000 -8.677675e-001  1.450000e+001
     vertex -3.031089e+000 -1.750000e+000  1.450000e+001
     vertex -3.288924e+000 -1.197071e+000  1.450000e+001
   endloop
 endfacet
 facet normal  0.000000e+000  0.000000e+000 -1.000000e+000
   outer loop
     vertex  1.246980e+000  1.563663e+000  1.450000e+001
     vertex  8.677675e-001  1.801938e+000  1.450000e+001
     vertex  1.750000e+000  3.031089e+000  1.450000e+001
   endloop
 endfacet
 facet normal  0.000000e+000  0.000000e+000 -1.000000e+000
   outer loop
     vertex  1.246980e+000  1.563663e+000  1.450000e+001
     vertex  1.750000e+000  3.031089e+000  1.450000e+001
     vertex  2.249757e+000  2.681156e+000  1.450000e+001
   endloop
 endfacet
 facet normal -0.000000e+000  0.000000e+000 -1.000000e+000
   outer loop
     vertex -1.563663e+000 -1.246980e+000  1.450000e+001
     vertex -3.031089e+000 -1.750000e+000  1.450000e+001
     vertex -1.801938e+000 -8.677675e-001  1.450000e+001
   endloop
 endfacet
 facet normal -0.000000e+000  0.000000e+000 -1.000000e+000
   outer loop
     vertex -1.563663e+000 -1.246980e+000  1.450000e+001
     vertex -2.681156e+000 -2.249757e+000  1.450000e+001
     vertex -3.031089e+000 -1.750000e+000  1.450000e+001
   endloop
 endfacet
 facet normal -0.000000e+000  0.000000e+000 -1.000000e+000
   outer loop
     vertex -1.246980e+000 -1.563663e+000  1.450000e+001
     vertex -2.681156e+000 -2.249757e+000  1.450000e+001
     vertex -1.563663e+000 -1.246980e+000  1.450000e+001
   endloop
 endfacet
 facet normal -0.000000e+000  0.000000e+000 -1.000000e+000
   outer loop
     vertex  2.681156e+000  2.249757e+000  1.450000e+001
     vertex  1.563663e+000  1.246980e+000  1.450000e+001
     vertex  1.246980e+000  1.563663e+000  1.450000e+001
   endloop
 endfacet
 facet normal -0.000000e+000  0.000000e+000 -1.000000e+000
   outer loop
     vertex  2.681156e+000  2.249757e+000  1.450000e+001
     vertex  1.246980e+000  1.563663e+000  1.450000e+001
     vertex  2.249757e+000  2.681156e+000  1.450000e+001
   endloop
 endfacet
 facet normal  0.000000e+000  0.000000e+000 -1.000000e+000
   outer loop
     vertex -2.249757e+000 -2.681156e+000  1.450000e+001
     vertex -2.681156e+000 -2.249757e+000  1.450000e+001
     vertex -1.246980e+000 -1.563663e+000  1.450000e+001
   endloop
 endfacet
 facet normal -0.000000e+000  0.000000e+000 -1.000000e+000
   outer loop
     vertex  3.031089e+000  1.750000e+000  1.450000e+001
     vertex  1.801938e+000  8.677675e-001  1.450000e+001
     vertex  1.563663e+000  1.246980e+000  1.450000e+001
   endloop
 endfacet
 facet normal -0.000000e+000  0.000000e+000 -1.000000e+000
   outer loop
     vertex  3.031089e+000  1.750000e+000  1.450000e+001
     vertex  1.563663e+000  1.246980e+000  1.450000e+001
     vertex  2.681156e+000  2.249757e+000  1.450000e+001
   endloop
 endfacet
 facet normal  0.000000e+000  0.000000e+000 -1.000000e+000
   outer loop
     vertex -1.750000e+000 -3.031089e+000  1.450000e+001
     vertex -1.246980e+000 -1.563663e+000  1.450000e+001
     vertex -8.677675e-001 -1.801938e+000  1.450000e+001
   endloop
 endfacet
 facet normal  0.000000e+000  0.000000e+000 -1.000000e+000
   outer loop
     vertex -1.750000e+000 -3.031089e+000  1.450000e+001
     vertex -2.249757e+000 -2.681156e+000  1.450000e+001
     vertex -1.246980e+000 -1.563663e+000  1.450000e+001
   endloop
 endfacet
 facet normal -0.000000e+000  0.000000e+000 -1.000000e+000
   outer loop
     vertex  3.288924e+000  1.197071e+000  1.450000e+001
     vertex  1.949856e+000  4.450419e-001  1.450000e+001
     vertex  1.801938e+000  8.677675e-001  1.450000e+001
   endloop
 endfacet
 facet normal -0.000000e+000  0.000000e+000 -1.000000e+000
   outer loop
     vertex  3.288924e+000  1.197071e+000  1.450000e+001
     vertex  1.801938e+000  8.677675e-001  1.450000e+001
     vertex  3.031089e+000  1.750000e+000  1.450000e+001
   endloop
 endfacet
 facet normal  0.000000e+000  0.000000e+000 -1.000000e+000
   outer loop
     vertex -1.197071e+000 -3.288924e+000  1.450000e+001
     vertex -8.677675e-001 -1.801938e+000  1.450000e+001
     vertex -4.450419e-001 -1.949856e+000  1.450000e+001
   endloop
 endfacet
 facet normal  0.000000e+000  0.000000e+000 -1.000000e+000
   outer loop
     vertex -1.197071e+000 -3.288924e+000  1.450000e+001
     vertex -1.750000e+000 -3.031089e+000  1.450000e+001
     vertex -8.677675e-001 -1.801938e+000  1.450000e+001
   endloop
 endfacet
 facet normal -0.000000e+000  0.000000e+000 -1.000000e+000
   outer loop
     vertex  3.446827e+000  6.077686e-001  1.450000e+001
     vertex  2.000000e+000  0.000000e+000  1.450000e+001
     vertex  1.949856e+000  4.450419e-001  1.450000e+001
   endloop
 endfacet
 facet normal -0.000000e+000  0.000000e+000 -1.000000e+000
   outer loop
     vertex  3.446827e+000  6.077686e-001  1.450000e+001
     vertex  1.949856e+000  4.450419e-001  1.450000e+001
     vertex  3.288924e+000  1.197071e+000  1.450000e+001
   endloop
 endfacet
 facet normal  0.000000e+000  0.000000e+000 -1.000000e+000
   outer loop
     vertex -6.077686e-001 -3.446827e+000  1.450000e+001
     vertex -4.450419e-001 -1.949856e+000  1.450000e+001
     vertex -3.673940e-016 -2.000000e+000  1.450000e+001
   endloop
 endfacet
 facet normal  0.000000e+000  0.000000e+000 -1.000000e+000
   outer loop
     vertex -6.077686e-001 -3.446827e+000  1.450000e+001
     vertex -1.197071e+000 -3.288924e+000  1.450000e+001
     vertex -4.450419e-001 -1.949856e+000  1.450000e+001
   endloop
 endfacet
 facet normal  0.000000e+000  0.000000e+000 -1.000000e+000
   outer loop
     vertex  3.500000e+000  0.000000e+000  1.450000e+001
     vertex  2.000000e+000  0.000000e+000  1.450000e+001
     vertex  3.446827e+000  6.077686e-001  1.450000e+001
   endloop
 endfacet
 facet normal  0.000000e+000  0.000000e+000 -1.000000e+000
   outer loop
     vertex  2.143132e-016 -3.500000e+000  1.450000e+001
     vertex -6.077686e-001 -3.446827e+000  1.450000e+001
     vertex -3.673940e-016 -2.000000e+000  1.450000e+001
   endloop
 endfacet
 facet normal  0.000000e+000  0.000000e+000 -1.000000e+000
   outer loop
     vertex  3.446827e+000 -6.077686e-001  1.450000e+001
     vertex  1.949856e+000 -4.450419e-001  1.450000e+001
     vertex  2.000000e+000  0.000000e+000  1.450000e+001
   endloop
 endfacet
 facet normal  0.000000e+000  0.000000e+000 -1.000000e+000
   outer loop
     vertex  3.446827e+000 -6.077686e-001  1.450000e+001
     vertex  2.000000e+000  0.000000e+000  1.450000e+001
     vertex  3.500000e+000  0.000000e+000  1.450000e+001
   endloop
 endfacet
 facet normal  0.000000e+000  0.000000e+000 -1.000000e+000
   outer loop
     vertex  6.077686e-001 -3.446827e+000  1.450000e+001
     vertex -3.673940e-016 -2.000000e+000  1.450000e+001
     vertex  4.450419e-001 -1.949856e+000  1.450000e+001
   endloop
 endfacet
 facet normal -0.000000e+000  0.000000e+000 -1.000000e+000
   outer loop
     vertex  6.077686e-001 -3.446827e+000  1.450000e+001
     vertex  2.143132e-016 -3.500000e+000  1.450000e+001
     vertex -3.673940e-016 -2.000000e+000  1.450000e+001
   endloop
 endfacet
 facet normal  0.000000e+000  0.000000e+000 -1.000000e+000
   outer loop
     vertex  1.197071e+000 -3.288924e+000  1.450000e+001
     vertex  4.450419e-001 -1.949856e+000  1.450000e+001
     vertex  8.677675e-001 -1.801938e+000  1.450000e+001
   endloop
 endfacet
 facet normal -0.000000e+000  0.000000e+000 -1.000000e+000
   outer loop
     vertex  1.197071e+000 -3.288924e+000  1.450000e+001
     vertex  6.077686e-001 -3.446827e+000  1.450000e+001
     vertex  4.450419e-001 -1.949856e+000  1.450000e+001
   endloop
 endfacet
 facet normal  0.000000e+000  0.000000e+000 -1.000000e+000
   outer loop
     vertex  3.288924e+000 -1.197071e+000  1.450000e+001
     vertex  1.801938e+000 -8.677675e-001  1.450000e+001
     vertex  1.949856e+000 -4.450419e-001  1.450000e+001
   endloop
 endfacet
 facet normal  0.000000e+000  0.000000e+000 -1.000000e+000
   outer loop
     vertex  3.288924e+000 -1.197071e+000  1.450000e+001
     vertex  1.949856e+000 -4.450419e-001  1.450000e+001
     vertex  3.446827e+000 -6.077686e-001  1.450000e+001
   endloop
 endfacet
 facet normal  0.000000e+000  0.000000e+000 -1.000000e+000
   outer loop
     vertex  1.750000e+000 -3.031089e+000  1.450000e+001
     vertex  8.677675e-001 -1.801938e+000  1.450000e+001
     vertex  1.246980e+000 -1.563663e+000  1.450000e+001
   endloop
 endfacet
 facet normal -0.000000e+000  0.000000e+000 -1.000000e+000
   outer loop
     vertex  1.750000e+000 -3.031089e+000  1.450000e+001
     vertex  1.197071e+000 -3.288924e+000  1.450000e+001
     vertex  8.677675e-001 -1.801938e+000  1.450000e+001
   endloop
 endfacet
 facet normal  0.000000e+000  0.000000e+000 -1.000000e+000
   outer loop
     vertex  3.031089e+000 -1.750000e+000  1.450000e+001
     vertex  1.563663e+000 -1.246980e+000  1.450000e+001
     vertex  1.801938e+000 -8.677675e-001  1.450000e+001
   endloop
 endfacet
 facet normal  0.000000e+000  0.000000e+000 -1.000000e+000
   outer loop
     vertex  3.031089e+000 -1.750000e+000  1.450000e+001
     vertex  1.801938e+000 -8.677675e-001  1.450000e+001
     vertex  3.288924e+000 -1.197071e+000  1.450000e+001
   endloop
 endfacet
 facet normal  0.000000e+000  0.000000e+000 -1.000000e+000
   outer loop
     vertex  2.249757e+000 -2.681156e+000  1.450000e+001
     vertex  1.246980e+000 -1.563663e+000  1.450000e+001
     vertex  1.563663e+000 -1.246980e+000  1.450000e+001
   endloop
 endfacet
 facet normal -0.000000e+000  0.000000e+000 -1.000000e+000
   outer loop
     vertex  2.249757e+000 -2.681156e+000  1.450000e+001
     vertex  1.750000e+000 -3.031089e+000  1.450000e+001
     vertex  1.246980e+000 -1.563663e+000  1.450000e+001
   endloop
 endfacet
 facet normal -0.000000e+000  0.000000e+000 -1.000000e+000
   outer loop
     vertex  2.681156e+000 -2.249757e+000  1.450000e+001
     vertex  2.249757e+000 -2.681156e+000  1.450000e+001
     vertex  1.563663e+000 -1.246980e+000  1.450000e+001
   endloop
 endfacet
 facet normal  0.000000e+000  0.000000e+000 -1.000000e+000
   outer loop
     vertex  2.681156e+000 -2.249757e+000  1.450000e+001
     vertex  1.563663e+000 -1.246980e+000  1.450000e+001
     vertex  3.031089e+000 -1.750000e+000  1.450000e+001
   endloop
 endfacet
 facet normal  8.715574e-002 -9.961947e-001 -2.758087e-016
   outer loop
     vertex  6.077686e-001 -3.446827e+000  1.850000e+001
     vertex  2.143132e-016 -3.500000e+000  1.450000e+001
     vertex  6.077686e-001 -3.446827e+000  1.450000e+001
   endloop
 endfacet
 facet normal  8.715574e-002 -9.961947e-001  1.541459e-016
   outer loop
     vertex  6.077686e-001 -3.446827e+000  1.850000e+001
     vertex -6.860189e-015 -3.500000e+000  1.850000e+001
     vertex  2.143132e-016 -3.500000e+000  1.450000e+001
   endloop
 endfacet
 facet normal  2.588190e-001 -9.659258e-001 -2.160975e-016
   outer loop
     vertex  1.197071e+000 -3.288924e+000  1.850000e+001
     vertex  6.077686e-001 -3.446827e+000  1.450000e+001
     vertex  1.197071e+000 -3.288924e+000  1.450000e+001
   endloop
 endfacet
 facet normal  2.588190e-001 -9.659258e-001  6.671610e-017
   outer loop
     vertex  1.197071e+000 -3.288924e+000  1.850000e+001
     vertex  6.077686e-001 -3.446827e+000  1.850000e+001
     vertex  6.077686e-001 -3.446827e+000  1.450000e+001
   endloop
 endfacet
 facet normal -9.961947e-001 -8.715574e-002 -0.000000e+000
   outer loop
     vertex -3.446827e+000 -6.077686e-001  1.850000e+001
     vertex -3.500000e+000  4.286122e-016  1.850000e+001
     vertex -3.500000e+000  4.286122e-016  1.450000e+001
   endloop
 endfacet
 facet normal -9.961947e-001 -8.715574e-002 -2.132541e-016
   outer loop
     vertex -3.446827e+000 -6.077686e-001  1.850000e+001
     vertex -3.500000e+000  4.286122e-016  1.450000e+001
     vertex -3.446827e+000 -6.077686e-001  1.450000e+001
   endloop
 endfacet
 facet normal  4.226183e-001 -9.063078e-001 -1.364826e-016
   outer loop
     vertex  1.750000e+000 -3.031089e+000  1.850000e+001
     vertex  1.197071e+000 -3.288924e+000  1.450000e+001
     vertex  1.750000e+000 -3.031089e+000  1.450000e+001
   endloop
 endfacet
 facet normal  4.226183e-001 -9.063078e-001  1.636783e-016
   outer loop
     vertex  1.750000e+000 -3.031089e+000  1.850000e+001
     vertex  1.197071e+000 -3.288924e+000  1.850000e+001
     vertex  1.197071e+000 -3.288924e+000  1.450000e+001
   endloop
 endfacet
 facet normal -9.659258e-001 -2.588190e-001 -8.530166e-017
   outer loop
     vertex -3.288924e+000 -1.197071e+000  1.850000e+001
     vertex -3.446827e+000 -6.077686e-001  1.450000e+001
     vertex -3.288924e+000 -1.197071e+000  1.450000e+001
   endloop
 endfacet
 facet normal -9.659258e-001 -2.588190e-001  3.028198e-017
   outer loop
     vertex -3.288924e+000 -1.197071e+000  1.850000e+001
     vertex -3.446827e+000 -6.077686e-001  1.850000e+001
     vertex -3.446827e+000 -6.077686e-001  1.450000e+001
   endloop
 endfacet
 facet normal  5.735764e-001 -8.191520e-001 -2.502182e-016
   outer loop
     vertex  2.249757e+000 -2.681156e+000  1.850000e+001
     vertex  1.750000e+000 -3.031089e+000  1.450000e+001
     vertex  2.249757e+000 -2.681156e+000  1.450000e+001
   endloop
 endfacet
 facet normal  5.735764e-001 -8.191520e-001  2.686344e-016
   outer loop
     vertex  2.249757e+000 -2.681156e+000  1.850000e+001
     vertex  1.750000e+000 -3.031089e+000  1.850000e+001
     vertex  1.750000e+000 -3.031089e+000  1.450000e+001
   endloop
 endfacet
 facet normal -9.063078e-001 -4.226183e-001 -9.098843e-017
   outer loop
     vertex -3.031089e+000 -1.750000e+000  1.850000e+001
     vertex -3.288924e+000 -1.197071e+000  1.450000e+001
     vertex -3.031089e+000 -1.750000e+000  1.450000e+001
   endloop
 endfacet
 facet normal -9.063078e-001 -4.226183e-001  1.605591e-016
   outer loop
     vertex -3.031089e+000 -1.750000e+000  1.850000e+001
     vertex -3.288924e+000 -1.197071e+000  1.850000e+001
     vertex -3.288924e+000 -1.197071e+000  1.450000e+001
   endloop
 endfacet
 facet normal  7.071068e-001 -7.071068e-001 -3.184595e-016
   outer loop
     vertex  2.681156e+000 -2.249757e+000  1.850000e+001
     vertex  2.249757e+000 -2.681156e+000  1.450000e+001
     vertex  2.681156e+000 -2.249757e+000  1.450000e+001
   endloop
 endfacet
 facet normal  7.071068e-001 -7.071068e-001  1.570092e-016
   outer loop
     vertex  2.681156e+000 -2.249757e+000  1.850000e+001
     vertex  2.249757e+000 -2.681156e+000  1.850000e+001
     vertex  2.249757e+000 -2.681156e+000  1.450000e+001
   endloop
 endfacet
 facet normal -8.191520e-001 -5.735764e-001 -1.819769e-016
   outer loop
     vertex -2.681156e+000 -2.249757e+000  1.850000e+001
     vertex -3.031089e+000 -1.750000e+000  1.450000e+001
     vertex -2.681156e+000 -2.249757e+000  1.450000e+001
   endloop
 endfacet
 facet normal -8.191520e-001 -5.735764e-001  1.548127e-016
   outer loop
     vertex -2.681156e+000 -2.249757e+000  1.850000e+001
     vertex -3.031089e+000 -1.750000e+000  1.850000e+001
     vertex -3.031089e+000 -1.750000e+000  1.450000e+001
   endloop
 endfacet
 facet normal  8.191520e-001 -5.735764e-001 -1.592298e-016
   outer loop
     vertex  3.031089e+000 -1.750000e+000  1.850000e+001
     vertex  2.681156e+000 -2.249757e+000  1.450000e+001
     vertex  3.031089e+000 -1.750000e+000  1.450000e+001
   endloop
 endfacet
 facet normal  8.191520e-001 -5.735764e-001  1.542464e-016
   outer loop
     vertex  3.031089e+000 -1.750000e+000  1.850000e+001
     vertex  2.681156e+000 -2.249757e+000  1.850000e+001
     vertex  2.681156e+000 -2.249757e+000  1.450000e+001
   endloop
 endfacet
 facet normal -7.071068e-001 -7.071068e-001 -6.824132e-017
   outer loop
     vertex -2.249757e+000 -2.681156e+000  1.850000e+001
     vertex -2.681156e+000 -2.249757e+000  1.450000e+001
     vertex -2.249757e+000 -2.681156e+000  1.450000e+001
   endloop
 endfacet
 facet normal  9.063078e-001 -4.226183e-001  3.529841e-016
   outer loop
     vertex  3.288924e+000 -1.197071e+000  1.850000e+001
     vertex  3.031089e+000 -1.750000e+000  1.850000e+001
     vertex  3.031089e+000 -1.750000e+000  1.450000e+001
   endloop
 endfacet
 facet normal -7.071068e-001 -7.071068e-001  7.850462e-017
   outer loop
     vertex -2.249757e+000 -2.681156e+000  1.850000e+001
     vertex -2.681156e+000 -2.249757e+000  1.850000e+001
     vertex -2.681156e+000 -2.249757e+000  1.450000e+001
   endloop
 endfacet
 facet normal  9.063078e-001 -4.226183e-001 -2.957124e-016
   outer loop
     vertex  3.288924e+000 -1.197071e+000  1.850000e+001
     vertex  3.031089e+000 -1.750000e+000  1.450000e+001
     vertex  3.288924e+000 -1.197071e+000  1.450000e+001
   endloop
 endfacet
 facet normal -5.735764e-001 -8.191520e-001 -1.478562e-016
   outer loop
     vertex -1.750000e+000 -3.031089e+000  1.850000e+001
     vertex -2.249757e+000 -2.681156e+000  1.450000e+001
     vertex -1.750000e+000 -3.031089e+000  1.450000e+001
   endloop
 endfacet
 facet normal  9.659258e-001 -2.588190e-001  2.324193e-016
   outer loop
     vertex  3.446827e+000 -6.077686e-001  1.850000e+001
     vertex  3.288924e+000 -1.197071e+000  1.850000e+001
     vertex  3.288924e+000 -1.197071e+000  1.450000e+001
   endloop
 endfacet
 facet normal -5.735764e-001 -8.191520e-001  1.544352e-016
   outer loop
     vertex -1.750000e+000 -3.031089e+000  1.850000e+001
     vertex -2.249757e+000 -2.681156e+000  1.850000e+001
     vertex -2.249757e+000 -2.681156e+000  1.450000e+001
   endloop
 endfacet
 facet normal  9.659258e-001 -2.588190e-001 -3.753273e-016
   outer loop
     vertex  3.446827e+000 -6.077686e-001  1.850000e+001
     vertex  3.288924e+000 -1.197071e+000  1.450000e+001
     vertex  3.446827e+000 -6.077686e-001  1.450000e+001
   endloop
 endfacet
 facet normal -4.226183e-001 -9.063078e-001 -1.592298e-016
   outer loop
     vertex -1.197071e+000 -3.288924e+000  1.850000e+001
     vertex -1.750000e+000 -3.031089e+000  1.450000e+001
     vertex -1.197071e+000 -3.288924e+000  1.450000e+001
   endloop
 endfacet
 facet normal  9.961947e-001 -8.715574e-002  1.714648e-016
   outer loop
     vertex  3.500000e+000  0.000000e+000  1.850000e+001
     vertex  3.446827e+000 -6.077686e-001  1.850000e+001
     vertex  3.446827e+000 -6.077686e-001  1.450000e+001
   endloop
 endfacet
 facet normal  9.961947e-001 -8.715574e-002  0.000000e+000
   outer loop
     vertex  3.500000e+000  0.000000e+000  1.850000e+001
     vertex  3.446827e+000 -6.077686e-001  1.450000e+001
     vertex  3.500000e+000  0.000000e+000  1.450000e+001
   endloop
 endfacet
 facet normal -4.226183e-001 -9.063078e-001  8.760169e-017
   outer loop
     vertex -1.197071e+000 -3.288924e+000  1.850000e+001
     vertex -1.750000e+000 -3.031089e+000  1.850000e+001
     vertex -1.750000e+000 -3.031089e+000  1.450000e+001
   endloop
 endfacet
 facet normal -2.588190e-001 -9.659258e-001 -1.876636e-016
   outer loop
     vertex -6.077686e-001 -3.446827e+000  1.850000e+001
     vertex -1.197071e+000 -3.288924e+000  1.450000e+001
     vertex -6.077686e-001 -3.446827e+000  1.450000e+001
   endloop
 endfacet
 facet normal -2.588190e-001 -9.659258e-001  8.414100e-017
   outer loop
     vertex -6.077686e-001 -3.446827e+000  1.850000e+001
     vertex -1.197071e+000 -3.288924e+000  1.850000e+001
     vertex -1.197071e+000 -3.288924e+000  1.450000e+001
   endloop
 endfacet
 facet normal -8.715574e-002 -9.961947e-001 -1.563864e-016
   outer loop
     vertex -6.860189e-015 -3.500000e+000  1.850000e+001
     vertex -6.077686e-001 -3.446827e+000  1.450000e+001
     vertex  2.143132e-016 -3.500000e+000  1.450000e+001
   endloop
 endfacet
 facet normal -8.715574e-002 -9.961947e-001  8.573242e-017
   outer loop
     vertex -6.860189e-015 -3.500000e+000  1.850000e+001
     vertex -6.077686e-001 -3.446827e+000  1.850000e+001
     vertex -6.077686e-001 -3.446827e+000  1.450000e+001
   endloop
 endfacet
 facet normal -8.715574e-002  9.961947e-001 -8.530166e-017
   outer loop
     vertex -6.077686e-001  3.446827e+000  1.850000e+001
     vertex -6.860189e-015  3.500000e+000  1.450000e+001
     vertex -6.077686e-001  3.446827e+000  1.450000e+001
   endloop
 endfacet
 facet normal -8.715574e-002  9.961947e-001  1.541459e-016
   outer loop
     vertex -6.077686e-001  3.446827e+000  1.850000e+001
     vertex  2.143132e-016  3.500000e+000  1.850000e+001
     vertex -6.860189e-015  3.500000e+000  1.450000e+001
   endloop
 endfacet
 facet normal -2.588190e-001  9.659258e-001 -8.530166e-017
   outer loop
     vertex -1.197071e+000  3.288924e+000  1.850000e+001
     vertex -6.077686e-001  3.446827e+000  1.450000e+001
     vertex -1.197071e+000  3.288924e+000  1.450000e+001
   endloop
 endfacet
 facet normal -2.588190e-001  9.659258e-001  1.878070e-016
   outer loop
     vertex -1.197071e+000  3.288924e+000  1.850000e+001
     vertex -6.077686e-001  3.446827e+000  1.850000e+001
     vertex -6.077686e-001  3.446827e+000  1.450000e+001
   endloop
 endfacet
 facet normal  9.961947e-001  8.715574e-002  0.000000e+000
   outer loop
     vertex  3.446827e+000  6.077686e-001  1.850000e+001
     vertex  3.500000e+000  0.000000e+000  1.850000e+001
     vertex  3.500000e+000  0.000000e+000  1.450000e+001
   endloop
 endfacet
 facet normal  9.961947e-001  8.715574e-002 -1.706033e-016
   outer loop
     vertex  3.446827e+000  6.077686e-001  1.850000e+001
     vertex  3.500000e+000  0.000000e+000  1.450000e+001
     vertex  3.446827e+000  6.077686e-001  1.450000e+001
   endloop
 endfacet
 facet normal -4.226183e-001  9.063078e-001 -9.098843e-017
   outer loop
     vertex -1.750000e+000  3.031089e+000  1.850000e+001
     vertex -1.197071e+000  3.288924e+000  1.450000e+001
     vertex -1.750000e+000  3.031089e+000  1.450000e+001
   endloop
 endfacet
 facet normal -4.226183e-001  9.063078e-001  1.605591e-016
   outer loop
     vertex -1.750000e+000  3.031089e+000  1.850000e+001
     vertex -1.197071e+000  3.288924e+000  1.850000e+001
     vertex -1.197071e+000  3.288924e+000  1.450000e+001
   endloop
 endfacet
 facet normal  9.659258e-001  2.588190e-001 -2.331579e-016
   outer loop
     vertex  3.288924e+000  1.197071e+000  1.850000e+001
     vertex  3.446827e+000  6.077686e-001  1.450000e+001
     vertex  3.288924e+000  1.197071e+000  1.450000e+001
   endloop
 endfacet
 facet normal  9.659258e-001  2.588190e-001  3.756140e-016
   outer loop
     vertex  3.288924e+000  1.197071e+000  1.850000e+001
     vertex  3.446827e+000  6.077686e-001  1.850000e+001
     vertex  3.446827e+000  6.077686e-001  1.450000e+001
   endloop
 endfacet
 facet normal -5.735764e-001  8.191520e-001 -1.592298e-016
   outer loop
     vertex -2.249757e+000  2.681156e+000  1.850000e+001
     vertex -1.750000e+000  3.031089e+000  1.450000e+001
     vertex -2.249757e+000  2.681156e+000  1.450000e+001
   endloop
 endfacet
 facet normal -5.735764e-001  8.191520e-001  1.548127e-016
   outer loop
     vertex -2.249757e+000  2.681156e+000  1.850000e+001
     vertex -1.750000e+000  3.031089e+000  1.850000e+001
     vertex -1.750000e+000  3.031089e+000  1.450000e+001
   endloop
 endfacet
 facet normal  9.063078e-001  4.226183e-001 -3.525802e-016
   outer loop
     vertex  3.031089e+000  1.750000e+000  1.850000e+001
     vertex  3.288924e+000  1.197071e+000  1.450000e+001
     vertex  3.031089e+000  1.750000e+000  1.450000e+001
   endloop
 endfacet
 facet normal  9.063078e-001  4.226183e-001  2.908779e-016
   outer loop
     vertex  3.031089e+000  1.750000e+000  1.850000e+001
     vertex  3.288924e+000  1.197071e+000  1.850000e+001
     vertex  3.288924e+000  1.197071e+000  1.450000e+001
   endloop
 endfacet
 facet normal -7.071068e-001  7.071068e-001 -7.961488e-017
   outer loop
     vertex -2.681156e+000  2.249757e+000  1.850000e+001
     vertex -2.249757e+000  2.681156e+000  1.450000e+001
     vertex -2.681156e+000  2.249757e+000  1.450000e+001
   endloop
 endfacet
 facet normal -7.071068e-001  7.071068e-001  7.850462e-017
   outer loop
     vertex -2.681156e+000  2.249757e+000  1.850000e+001
     vertex -2.249757e+000  2.681156e+000  1.850000e+001
     vertex -2.249757e+000  2.681156e+000  1.450000e+001
   endloop
 endfacet
 facet normal  8.191520e-001  5.735764e-001 -1.478562e-016
   outer loop
     vertex  2.681156e+000  2.249757e+000  1.850000e+001
     vertex  3.031089e+000  1.750000e+000  1.450000e+001
     vertex  2.681156e+000  2.249757e+000  1.450000e+001
   endloop
 endfacet
 facet normal  8.191520e-001  5.735764e-001  1.595769e-016
   outer loop
     vertex  2.681156e+000  2.249757e+000  1.850000e+001
     vertex  3.031089e+000  1.750000e+000  1.850000e+001
     vertex  3.031089e+000  1.750000e+000  1.450000e+001
   endloop
 endfacet
 facet normal -8.191520e-001  5.735764e-001 -1.592298e-016
   outer loop
     vertex -3.031089e+000  1.750000e+000  1.850000e+001
     vertex -2.681156e+000  2.249757e+000  1.450000e+001
     vertex -3.031089e+000  1.750000e+000  1.450000e+001
   endloop
 endfacet
 facet normal -8.191520e-001  5.735764e-001  1.816995e-016
   outer loop
     vertex -3.031089e+000  1.750000e+000  1.850000e+001
     vertex -2.681156e+000  2.249757e+000  1.850000e+001
     vertex -2.681156e+000  2.249757e+000  1.450000e+001
   endloop
 endfacet
 facet normal  7.071068e-001  7.071068e-001 -1.592298e-016
   outer loop
     vertex  2.249757e+000  2.681156e+000  1.850000e+001
     vertex  2.681156e+000  2.249757e+000  1.450000e+001
     vertex  2.249757e+000  2.681156e+000  1.450000e+001
   endloop
 endfacet
 facet normal -9.063078e-001  4.226183e-001  8.760169e-017
   outer loop
     vertex -3.288924e+000  1.197071e+000  1.850000e+001
     vertex -3.031089e+000  1.750000e+000  1.850000e+001
     vertex -3.031089e+000  1.750000e+000  1.450000e+001
   endloop
 endfacet
 facet normal  7.071068e-001  7.071068e-001  3.140185e-016
   outer loop
     vertex  2.249757e+000  2.681156e+000  1.850000e+001
     vertex  2.681156e+000  2.249757e+000  1.850000e+001
     vertex  2.681156e+000  2.249757e+000  1.450000e+001
   endloop
 endfacet
 facet normal -9.063078e-001  4.226183e-001 -1.592298e-016
   outer loop
     vertex -3.288924e+000  1.197071e+000  1.850000e+001
     vertex -3.031089e+000  1.750000e+000  1.450000e+001
     vertex -3.288924e+000  1.197071e+000  1.450000e+001
   endloop
 endfacet
 facet normal  5.735764e-001  8.191520e-001 -2.729653e-016
   outer loop
     vertex  1.750000e+000  3.031089e+000  1.850000e+001
     vertex  2.249757e+000  2.681156e+000  1.450000e+001
     vertex  1.750000e+000  3.031089e+000  1.450000e+001
   endloop
 endfacet
 facet normal -9.659258e-001  2.588190e-001 -2.843389e-017
   outer loop
     vertex -3.446827e+000  6.077686e-001  1.850000e+001
     vertex -3.288924e+000  1.197071e+000  1.450000e+001
     vertex -3.446827e+000  6.077686e-001  1.450000e+001
   endloop
 endfacet
 facet normal -9.659258e-001  2.588190e-001  8.414100e-017
   outer loop
     vertex -3.446827e+000  6.077686e-001  1.850000e+001
     vertex -3.288924e+000  1.197071e+000  1.850000e+001
     vertex -3.288924e+000  1.197071e+000  1.450000e+001
   endloop
 endfacet
 facet normal  5.735764e-001  8.191520e-001  2.543416e-016
   outer loop
     vertex  1.750000e+000  3.031089e+000  1.850000e+001
     vertex  2.249757e+000  2.681156e+000  1.850000e+001
     vertex  2.249757e+000  2.681156e+000  1.450000e+001
   endloop
 endfacet
 facet normal -9.961947e-001  8.715574e-002  0.000000e+000
   outer loop
     vertex -3.500000e+000  4.286122e-016  1.850000e+001
     vertex -3.446827e+000  6.077686e-001  1.450000e+001
     vertex -3.500000e+000  4.286122e-016  1.450000e+001
   endloop
 endfacet
 facet normal  4.226183e-001  9.063078e-001 -1.592298e-016
   outer loop
     vertex  1.197071e+000  3.288924e+000  1.850000e+001
     vertex  1.750000e+000  3.031089e+000  1.450000e+001
     vertex  1.197071e+000  3.288924e+000  1.450000e+001
   endloop
 endfacet
 facet normal -9.961947e-001  8.715574e-002  2.132657e-016
   outer loop
     vertex -3.500000e+000  4.286122e-016  1.850000e+001
     vertex -3.446827e+000  6.077686e-001  1.850000e+001
     vertex -3.446827e+000  6.077686e-001  1.450000e+001
   endloop
 endfacet
 facet normal  4.226183e-001  9.063078e-001  1.381828e-016
   outer loop
     vertex  1.197071e+000  3.288924e+000  1.850000e+001
     vertex  1.750000e+000  3.031089e+000  1.850000e+001
     vertex  1.750000e+000  3.031089e+000  1.450000e+001
   endloop
 endfacet
 facet normal  2.588190e-001  9.659258e-001 -6.824132e-017
   outer loop
     vertex  6.077686e-001  3.446827e+000  1.850000e+001
     vertex  1.197071e+000  3.288924e+000  1.450000e+001
     vertex  6.077686e-001  3.446827e+000  1.450000e+001
   endloop
 endfacet
 facet normal  2.588190e-001  9.659258e-001  2.190835e-016
   outer loop
     vertex  6.077686e-001  3.446827e+000  1.850000e+001
     vertex  1.197071e+000  3.288924e+000  1.850000e+001
     vertex  1.197071e+000  3.288924e+000  1.450000e+001
   endloop
 endfacet
 facet normal  8.715574e-002  9.961947e-001 -1.535430e-016
   outer loop
     vertex  2.143132e-016  3.500000e+000  1.850000e+001
     vertex  6.077686e-001  3.446827e+000  1.450000e+001
     vertex -6.860189e-015  3.500000e+000  1.450000e+001
   endloop
 endfacet
 facet normal  8.715574e-002  9.961947e-001  2.754843e-016
   outer loop
     vertex  2.143132e-016  3.500000e+000  1.850000e+001
     vertex  6.077686e-001  3.446827e+000  1.850000e+001
     vertex  6.077686e-001  3.446827e+000  1.450000e+001
   endloop
 endfacet
endsolid
