solid C:\Temp\NOELParts\BEARING_208_BACK_SHORTS_OUTER_000.STL created by CtrlView V2.70
facet normal 0.164591 0 -0.986362
outer loop
vertex 532.629 4718 6700.56
vertex 532.629 4937 6700.56
vertex 580.173 4718 6708.49
endloop
endfacet
facet normal 0.164591 0 -0.986362
outer loop
vertex 580.173 4718 6708.49
vertex 532.629 4937 6700.56
vertex 580.173 4937 6708.49
endloop
endfacet
facet normal 0.27211 0 -0.962266
outer loop
vertex 580.173 4718 6708.49
vertex 580.173 4937 6708.49
vertex 626.556 4718 6721.6
endloop
endfacet
facet normal 0.27211 0 -0.962266
outer loop
vertex 626.556 4718 6721.6
vertex 580.173 4937 6708.49
vertex 626.556 4937 6721.6
endloop
endfacet
facet normal 0.376307 0 -0.926495
outer loop
vertex 626.556 4718 6721.6
vertex 626.556 4937 6721.6
vertex 671.215 4718 6739.74
endloop
endfacet
facet normal 0.376307 0 -0.926495
outer loop
vertex 671.215 4718 6739.74
vertex 626.556 4937 6721.6
vertex 671.215 4937 6739.74
endloop
endfacet
facet normal 0.475946 0 -0.879474
outer loop
vertex 671.215 4718 6739.74
vertex 671.215 4937 6739.74
vertex 713.607 4718 6762.69
endloop
endfacet
facet normal 0.475946 0 -0.879474
outer loop
vertex 713.607 4718 6762.69
vertex 671.215 4937 6739.74
vertex 713.607 4937 6762.69
endloop
endfacet
facet normal 0.569808 0 -0.821778
outer loop
vertex 713.607 4718 6762.69
vertex 713.607 4937 6762.69
vertex 753.218 4718 6790.15
endloop
endfacet
facet normal 0.569808 0 -0.821778
outer loop
vertex 753.218 4718 6790.15
vertex 713.607 4937 6762.69
vertex 753.218 4937 6790.15
endloop
endfacet
facet normal 0.656754 0 -0.754105
outer loop
vertex 753.218 4718 6790.15
vertex 753.218 4937 6790.15
vertex 789.567 4718 6821.81
endloop
endfacet
facet normal 0.656754 0 -0.754105
outer loop
vertex 789.567 4718 6821.81
vertex 753.218 4937 6790.15
vertex 789.567 4937 6821.81
endloop
endfacet
facet normal 0.735721 0 -0.677285
outer loop
vertex 789.567 4718 6821.81
vertex 789.567 4937 6821.81
vertex 822.214 4718 6857.27
endloop
endfacet
facet normal 0.735721 0 -0.677285
outer loop
vertex 822.214 4718 6857.27
vertex 789.567 4937 6821.81
vertex 822.214 4937 6857.27
endloop
endfacet
facet normal 0.805765 0 -0.592235
outer loop
vertex 822.214 4718 6857.27
vertex 822.214 4937 6857.27
vertex 850.76 4718 6896.11
endloop
endfacet
facet normal 0.805765 0 -0.592235
outer loop
vertex 850.76 4718 6896.11
vertex 822.214 4937 6857.27
vertex 850.76 4937 6896.11
endloop
endfacet
facet normal 0.866028 0 -0.499995
outer loop
vertex 850.76 4718 6896.11
vertex 850.76 4937 6896.11
vertex 874.861 4718 6937.85
endloop
endfacet
facet normal 0.866028 0 -0.499995
outer loop
vertex 874.861 4718 6937.85
vertex 850.76 4937 6896.11
vertex 874.861 4937 6937.85
endloop
endfacet
facet normal 0.915772 0 -0.401698
outer loop
vertex 874.861 4718 6937.85
vertex 874.861 4937 6937.85
vertex 894.224 4718 6982
endloop
endfacet
facet normal 0.915772 0 -0.401698
outer loop
vertex 894.224 4718 6982
vertex 874.861 4937 6937.85
vertex 894.224 4937 6982
endloop
endfacet
facet normal 0.954405 0 -0.298515
outer loop
vertex 894.224 4718 6982
vertex 894.224 4937 6982
vertex 908.613 4718 7028
endloop
endfacet
facet normal 0.954405 0 -0.298515
outer loop
vertex 908.613 4718 7028
vertex 894.224 4937 6982
vertex 908.613 4937 7028
endloop
endfacet
facet normal 0.981451 0 -0.191711
outer loop
vertex 908.613 4718 7028
vertex 908.613 4937 7028
vertex 917.853 4718 7075.31
endloop
endfacet
facet normal 0.981451 0 -0.191711
outer loop
vertex 917.853 4718 7075.31
vertex 908.613 4937 7028
vertex 917.853 4937 7075.31
endloop
endfacet
facet normal 0.996584 0 -0.0825794
outer loop
vertex 917.853 4718 7075.31
vertex 917.853 4937 7075.31
vertex 921.834 4718 7123.34
endloop
endfacet
facet normal 0.996584 0 -0.0825794
outer loop
vertex 921.834 4718 7123.34
vertex 917.853 4937 7075.31
vertex 921.834 4937 7123.34
endloop
endfacet
facet normal 0.99962 0 0.0275546
outer loop
vertex 921.834 4718 7123.34
vertex 921.834 4937 7123.34
vertex 920.506 4718 7171.53
endloop
endfacet
facet normal 0.99962 0 0.0275546
outer loop
vertex 920.506 4718 7171.53
vertex 921.834 4937 7123.34
vertex 920.506 4937 7171.53
endloop
endfacet
facet normal 0.990522 0 0.137353
outer loop
vertex 920.506 4718 7171.53
vertex 920.506 4937 7171.53
vertex 913.885 4718 7219.27
endloop
endfacet
facet normal 0.990522 0 0.137353
outer loop
vertex 913.885 4718 7219.27
vertex 920.506 4937 7171.53
vertex 913.885 4937 7219.27
endloop
endfacet
facet normal 0.969401 0 0.245484
outer loop
vertex 913.885 4718 7219.27
vertex 913.885 4937 7219.27
vertex 902.052 4718 7266
endloop
endfacet
facet normal 0.969401 0 0.245484
outer loop
vertex 902.052 4718 7266
vertex 913.885 4937 7219.27
vertex 902.052 4937 7266
endloop
endfacet
facet normal 0.936511 0 0.350637
outer loop
vertex 902.052 4718 7266
vertex 902.052 4937 7266
vertex 885.151 4718 7311.14
endloop
endfacet
facet normal 0.936511 0 0.350637
outer loop
vertex 885.151 4718 7311.14
vertex 902.052 4937 7266
vertex 885.151 4937 7311.14
endloop
endfacet
facet normal 0.892252 0 0.451537
outer loop
vertex 885.151 4718 7311.14
vertex 885.151 4937 7311.14
vertex 863.386 4718 7354.15
endloop
endfacet
facet normal 0.892252 0 0.451537
outer loop
vertex 863.386 4718 7354.15
vertex 885.151 4937 7311.14
vertex 863.386 4937 7354.15
endloop
endfacet
facet normal 0.837166 0 0.546948
outer loop
vertex 863.386 4718 7354.15
vertex 863.386 4937 7354.15
vertex 837.022 4718 7394.5
endloop
endfacet
facet normal 0.837166 0 0.546948
outer loop
vertex 837.022 4718 7394.5
vertex 863.386 4937 7354.15
vertex 837.022 4937 7394.5
endloop
endfacet
facet normal 0.771919 0 0.63572
outer loop
vertex 837.022 4718 7394.5
vertex 837.022 4937 7394.5
vertex 806.379 4718 7431.71
endloop
endfacet
facet normal 0.771919 0 0.63572
outer loop
vertex 806.379 4718 7431.71
vertex 837.022 4937 7394.5
vertex 806.379 4937 7431.71
endloop
endfacet
facet normal 0.697295 0 0.716784
outer loop
vertex 806.379 4718 7431.71
vertex 806.379 4937 7431.71
vertex 771.829 4718 7465.32
endloop
endfacet
facet normal 0.697295 0 0.716784
outer loop
vertex 771.829 4718 7465.32
vertex 806.379 4937 7431.71
vertex 771.829 4937 7465.32
endloop
endfacet
facet normal 0.61421 0 0.789142
outer loop
vertex 771.829 4718 7465.32
vertex 771.829 4937 7465.32
vertex 733.791 4718 7494.93
endloop
endfacet
facet normal 0.61421 0 0.789142
outer loop
vertex 733.791 4718 7494.93
vertex 771.829 4937 7465.32
vertex 733.791 4937 7494.93
endloop
endfacet
facet normal 0.523676 0 0.851917
outer loop
vertex 733.791 4718 7494.93
vertex 733.791 4937 7494.93
vertex 692.727 4718 7520.17
endloop
endfacet
facet normal 0.523676 0 0.851917
outer loop
vertex 692.727 4718 7520.17
vertex 733.791 4937 7494.93
vertex 692.727 4937 7520.17
endloop
endfacet
facet normal 0.426775 0 0.904358
outer loop
vertex 692.727 4718 7520.17
vertex 692.727 4937 7520.17
vertex 649.135 4718 7540.74
endloop
endfacet
facet normal 0.426775 0 0.904358
outer loop
vertex 649.135 4718 7540.74
vertex 692.727 4937 7520.17
vertex 649.135 4937 7540.74
endloop
endfacet
facet normal 0.324695 0 0.945819
outer loop
vertex 649.135 4718 7540.74
vertex 649.135 4937 7540.74
vertex 603.545 4718 7556.39
endloop
endfacet
facet normal 0.324695 0 0.945819
outer loop
vertex 603.545 4718 7556.39
vertex 649.135 4937 7540.74
vertex 603.545 4937 7556.39
endloop
endfacet
facet normal 0.218685 0 0.975796
outer loop
vertex 603.545 4718 7556.39
vertex 603.545 4937 7556.39
vertex 556.51 4718 7566.93
endloop
endfacet
facet normal 0.218685 0 0.975796
outer loop
vertex 556.51 4718 7566.93
vertex 603.545 4937 7556.39
vertex 556.51 4937 7566.93
endloop
endfacet
facet normal 0.110001 0 0.993931
outer loop
vertex 556.51 4718 7566.93
vertex 556.51 4937 7566.93
vertex 508.601 4718 7572.24
endloop
endfacet
facet normal 0.110001 0 0.993931
outer loop
vertex 508.601 4718 7572.24
vertex 556.51 4937 7566.93
vertex 508.601 4937 7572.24
endloop
endfacet
facet normal 0 0 1
outer loop
vertex 508.601 4718 7572.24
vertex 508.601 4937 7572.24
vertex 460.399 4718 7572.24
endloop
endfacet
facet normal 0 0 1
outer loop
vertex 460.399 4718 7572.24
vertex 508.601 4937 7572.24
vertex 460.399 4937 7572.24
endloop
endfacet
facet normal -0.110001 0 0.993931
outer loop
vertex 460.399 4718 7572.24
vertex 460.399 4937 7572.24
vertex 412.49 4718 7566.93
endloop
endfacet
facet normal -0.110001 0 0.993931
outer loop
vertex 412.49 4718 7566.93
vertex 460.399 4937 7572.24
vertex 412.49 4937 7566.93
endloop
endfacet
facet normal -0.218685 0 0.975796
outer loop
vertex 412.49 4718 7566.93
vertex 412.49 4937 7566.93
vertex 365.455 4718 7556.39
endloop
endfacet
facet normal -0.218685 0 0.975796
outer loop
vertex 365.455 4718 7556.39
vertex 412.49 4937 7566.93
vertex 365.455 4937 7556.39
endloop
endfacet
facet normal -0.324695 0 0.945819
outer loop
vertex 365.455 4718 7556.39
vertex 365.455 4937 7556.39
vertex 319.865 4718 7540.74
endloop
endfacet
facet normal -0.324695 0 0.945819
outer loop
vertex 319.865 4718 7540.74
vertex 365.455 4937 7556.39
vertex 319.865 4937 7540.74
endloop
endfacet
facet normal -0.426775 0 0.904358
outer loop
vertex 319.865 4718 7540.74
vertex 319.865 4937 7540.74
vertex 276.273 4718 7520.17
endloop
endfacet
facet normal -0.426775 0 0.904358
outer loop
vertex 276.273 4718 7520.17
vertex 319.865 4937 7540.74
vertex 276.273 4937 7520.17
endloop
endfacet
facet normal -0.523676 0 0.851918
outer loop
vertex 276.273 4718 7520.17
vertex 276.273 4937 7520.17
vertex 235.209 4718 7494.93
endloop
endfacet
facet normal -0.523676 0 0.851918
outer loop
vertex 235.209 4718 7494.93
vertex 276.273 4937 7520.17
vertex 235.209 4937 7494.93
endloop
endfacet
facet normal -0.61421 0 0.789142
outer loop
vertex 235.209 4718 7494.93
vertex 235.209 4937 7494.93
vertex 197.171 4718 7465.32
endloop
endfacet
facet normal -0.61421 0 0.789142
outer loop
vertex 197.171 4718 7465.32
vertex 235.209 4937 7494.93
vertex 197.171 4937 7465.32
endloop
endfacet
facet normal -0.697296 0 0.716784
outer loop
vertex 197.171 4718 7465.32
vertex 197.171 4937 7465.32
vertex 162.621 4718 7431.71
endloop
endfacet
facet normal -0.697296 0 0.716784
outer loop
vertex 162.621 4718 7431.71
vertex 197.171 4937 7465.32
vertex 162.621 4937 7431.71
endloop
endfacet
facet normal -0.771919 0 0.635721
outer loop
vertex 162.621 4718 7431.71
vertex 162.621 4937 7431.71
vertex 131.978 4718 7394.5
endloop
endfacet
facet normal -0.771919 0 0.635721
outer loop
vertex 131.978 4718 7394.5
vertex 162.621 4937 7431.71
vertex 131.978 4937 7394.5
endloop
endfacet
facet normal -0.837167 0 0.546947
outer loop
vertex 131.978 4718 7394.5
vertex 131.978 4937 7394.5
vertex 105.614 4718 7354.15
endloop
endfacet
facet normal -0.837167 0 0.546947
outer loop
vertex 105.614 4718 7354.15
vertex 131.978 4937 7394.5
vertex 105.614 4937 7354.15
endloop
endfacet
facet normal -0.892252 0 0.451537
outer loop
vertex 105.614 4718 7354.15
vertex 105.614 4937 7354.15
vertex 83.8492 4718 7311.14
endloop
endfacet
facet normal -0.892252 0 0.451537
outer loop
vertex 83.8492 4718 7311.14
vertex 105.614 4937 7354.15
vertex 83.8492 4937 7311.14
endloop
endfacet
facet normal -0.936511 0 0.350637
outer loop
vertex 83.8492 4718 7311.14
vertex 83.8492 4937 7311.14
vertex 66.9478 4718 7266
endloop
endfacet
facet normal -0.936511 0 0.350637
outer loop
vertex 66.9478 4718 7266
vertex 83.8492 4937 7311.14
vertex 66.9478 4937 7266
endloop
endfacet
facet normal -0.969401 0 0.245484
outer loop
vertex 66.9478 4718 7266
vertex 66.9478 4937 7266
vertex 55.115 4718 7219.27
endloop
endfacet
facet normal -0.969401 0 0.245484
outer loop
vertex 55.115 4718 7219.27
vertex 66.9478 4937 7266
vertex 55.115 4937 7219.27
endloop
endfacet
facet normal -0.990522 0 0.137353
outer loop
vertex 55.115 4718 7219.27
vertex 55.115 4937 7219.27
vertex 48.4943 4718 7171.53
endloop
endfacet
facet normal -0.990522 0 0.137353
outer loop
vertex 48.4943 4718 7171.53
vertex 55.115 4937 7219.27
vertex 48.4943 4937 7171.53
endloop
endfacet
facet normal -0.99962 0 0.0275543
outer loop
vertex 48.4943 4718 7171.53
vertex 48.4943 4937 7171.53
vertex 47.1661 4718 7123.34
endloop
endfacet
facet normal -0.99962 0 0.0275543
outer loop
vertex 47.1661 4718 7123.34
vertex 48.4943 4937 7171.53
vertex 47.1661 4937 7123.34
endloop
endfacet
facet normal -0.996585 0 -0.0825792
outer loop
vertex 47.1661 4718 7123.34
vertex 47.1661 4937 7123.34
vertex 51.1466 4718 7075.31
endloop
endfacet
facet normal -0.996585 0 -0.0825792
outer loop
vertex 51.1466 4718 7075.31
vertex 47.1661 4937 7123.34
vertex 51.1466 4937 7075.31
endloop
endfacet
facet normal -0.981451 0 -0.191711
outer loop
vertex 51.1466 4718 7075.31
vertex 51.1466 4937 7075.31
vertex 60.3874 4718 7028
endloop
endfacet
facet normal -0.981451 0 -0.191711
outer loop
vertex 60.3874 4718 7028
vertex 51.1466 4937 7075.31
vertex 60.3874 4937 7028
endloop
endfacet
facet normal -0.954405 0 -0.298516
outer loop
vertex 60.3874 4718 7028
vertex 60.3874 4937 7028
vertex 74.7763 4718 6982
endloop
endfacet
facet normal -0.954405 0 -0.298516
outer loop
vertex 74.7763 4718 6982
vertex 60.3874 4937 7028
vertex 74.7763 4937 6982
endloop
endfacet
facet normal -0.915772 0 -0.401698
outer loop
vertex 74.7763 4718 6982
vertex 74.7763 4937 6982
vertex 94.1388 4718 6937.85
endloop
endfacet
facet normal -0.915772 0 -0.401698
outer loop
vertex 94.1388 4718 6937.85
vertex 74.7763 4937 6982
vertex 94.1388 4937 6937.85
endloop
endfacet
facet normal -0.866029 0 -0.499994
outer loop
vertex 94.1388 4718 6937.85
vertex 94.1388 4937 6937.85
vertex 118.24 4718 6896.11
endloop
endfacet
facet normal -0.866029 0 -0.499994
outer loop
vertex 118.24 4718 6896.11
vertex 94.1388 4937 6937.85
vertex 118.24 4937 6896.11
endloop
endfacet
facet normal -0.805766 0 -0.592235
outer loop
vertex 118.24 4718 6896.11
vertex 118.24 4937 6896.11
vertex 146.786 4718 6857.27
endloop
endfacet
facet normal -0.805766 0 -0.592235
outer loop
vertex 146.786 4718 6857.27
vertex 118.24 4937 6896.11
vertex 146.786 4937 6857.27
endloop
endfacet
facet normal -0.735721 0 -0.677285
outer loop
vertex 146.786 4718 6857.27
vertex 146.786 4937 6857.27
vertex 179.433 4718 6821.81
endloop
endfacet
facet normal -0.735721 0 -0.677285
outer loop
vertex 179.433 4718 6821.81
vertex 146.786 4937 6857.27
vertex 179.433 4937 6821.81
endloop
endfacet
facet normal -0.656753 0 -0.754105
outer loop
vertex 179.433 4718 6821.81
vertex 179.433 4937 6821.81
vertex 215.782 4718 6790.15
endloop
endfacet
facet normal -0.656753 0 -0.754105
outer loop
vertex 215.782 4718 6790.15
vertex 179.433 4937 6821.81
vertex 215.782 4937 6790.15
endloop
endfacet
facet normal -0.569809 0 -0.821777
outer loop
vertex 215.782 4718 6790.15
vertex 215.782 4937 6790.15
vertex 255.393 4718 6762.69
endloop
endfacet
facet normal -0.569809 0 -0.821777
outer loop
vertex 255.393 4718 6762.69
vertex 215.782 4937 6790.15
vertex 255.393 4937 6762.69
endloop
endfacet
facet normal -0.475946 0 -0.879475
outer loop
vertex 255.393 4718 6762.69
vertex 255.393 4937 6762.69
vertex 297.785 4718 6739.74
endloop
endfacet
facet normal -0.475946 0 -0.879475
outer loop
vertex 297.785 4718 6739.74
vertex 255.393 4937 6762.69
vertex 297.785 4937 6739.74
endloop
endfacet
facet normal -0.376307 0 -0.926495
outer loop
vertex 297.785 4718 6739.74
vertex 297.785 4937 6739.74
vertex 342.444 4718 6721.6
endloop
endfacet
facet normal -0.376307 0 -0.926495
outer loop
vertex 342.444 4718 6721.6
vertex 297.785 4937 6739.74
vertex 342.444 4937 6721.6
endloop
endfacet
facet normal -0.27211 0 -0.962266
outer loop
vertex 342.444 4718 6721.6
vertex 342.444 4937 6721.6
vertex 388.827 4718 6708.49
endloop
endfacet
facet normal -0.27211 0 -0.962266
outer loop
vertex 388.827 4718 6708.49
vertex 342.444 4937 6721.6
vertex 388.827 4937 6708.49
endloop
endfacet
facet normal -0.164591 0 -0.986362
outer loop
vertex 388.827 4718 6708.49
vertex 388.827 4937 6708.49
vertex 436.371 4718 6700.56
endloop
endfacet
facet normal -0.164591 0 -0.986362
outer loop
vertex 436.371 4718 6700.56
vertex 388.827 4937 6708.49
vertex 436.371 4937 6700.56
endloop
endfacet
facet normal -0.0550866 0 -0.998482
outer loop
vertex 436.371 4718 6700.56
vertex 436.371 4937 6700.56
vertex 484.5 4718 6697.9
endloop
endfacet
facet normal -0.0550866 0 -0.998482
outer loop
vertex 484.5 4718 6697.9
vertex 436.371 4937 6700.56
vertex 484.5 4937 6697.9
endloop
endfacet
facet normal 0.0550866 0 -0.998482
outer loop
vertex 484.5 4718 6697.9
vertex 484.5 4937 6697.9
vertex 532.629 4718 6700.56
endloop
endfacet
facet normal 0.0550866 0 -0.998482
outer loop
vertex 532.629 4718 6700.56
vertex 484.5 4937 6697.9
vertex 532.629 4937 6700.56
endloop
endfacet
facet normal 0 -1 0
outer loop
vertex 94.1388 4937 6937.85
vertex 64.9107 4937 6893.15
vertex 118.24 4937 6896.11
endloop
endfacet
facet normal 0 -1 0
outer loop
vertex 118.24 4937 6896.11
vertex 64.9107 4937 6893.15
vertex 92.5313 4937 6850.62
endloop
endfacet
facet normal 0 -1 0
outer loop
vertex 118.24 4937 6896.11
vertex 92.5313 4937 6850.62
vertex 146.786 4937 6857.27
endloop
endfacet
facet normal 0 -1 0
outer loop
vertex 146.786 4937 6857.27
vertex 92.5313 4937 6850.62
vertex 124.446 4937 6811.21
endloop
endfacet
facet normal 0 -1 0
outer loop
vertex 146.786 4937 6857.27
vertex 124.446 4937 6811.21
vertex 179.433 4937 6821.81
endloop
endfacet
facet normal 0 -1 0
outer loop
vertex 179.433 4937 6821.81
vertex 124.446 4937 6811.21
vertex 160.306 4937 6775.35
endloop
endfacet
facet normal 0 -1 0
outer loop
vertex 179.433 4937 6821.81
vertex 160.306 4937 6775.35
vertex 215.782 4937 6790.15
endloop
endfacet
facet normal 0 -1 0
outer loop
vertex 215.782 4937 6790.15
vertex 160.306 4937 6775.35
vertex 199.718 4937 6743.43
endloop
endfacet
facet normal 0 -1 0
outer loop
vertex 215.782 4937 6790.15
vertex 199.718 4937 6743.43
vertex 255.393 4937 6762.69
endloop
endfacet
facet normal 0 -1 0
outer loop
vertex 255.393 4937 6762.69
vertex 199.718 4937 6743.43
vertex 242.25 4937 6715.81
endloop
endfacet
facet normal 0 -1 0
outer loop
vertex 255.393 4937 6762.69
vertex 242.25 4937 6715.81
vertex 297.785 4937 6739.74
endloop
endfacet
facet normal 0 -1 0
outer loop
vertex 297.785 4937 6739.74
vertex 242.25 4937 6715.81
vertex 287.436 4937 6692.79
endloop
endfacet
facet normal 0 -1 0
outer loop
vertex 297.785 4937 6739.74
vertex 287.436 4937 6692.79
vertex 342.444 4937 6721.6
endloop
endfacet
facet normal 0 -1 0
outer loop
vertex 342.444 4937 6721.6
vertex 287.436 4937 6692.79
vertex 334.781 4937 6674.61
endloop
endfacet
facet normal 0 -1 0
outer loop
vertex 342.444 4937 6721.6
vertex 334.781 4937 6674.61
vertex 388.827 4937 6708.49
endloop
endfacet
facet normal 0 -1 0
outer loop
vertex 388.827 4937 6708.49
vertex 334.781 4937 6674.61
vertex 383.767 4937 6661.49
endloop
endfacet
facet normal 0 -1 0
outer loop
vertex 388.827 4937 6708.49
vertex 383.767 4937 6661.49
vertex 436.371 4937 6700.56
endloop
endfacet
facet normal 0 -1 0
outer loop
vertex 436.371 4937 6700.56
vertex 383.767 4937 6661.49
vertex 433.856 4937 6653.55
endloop
endfacet
facet normal 0 -1 0
outer loop
vertex 436.371 4937 6700.56
vertex 433.856 4937 6653.55
vertex 484.5 4937 6697.9
endloop
endfacet
facet normal 0 -1 0
outer loop
vertex 484.5 4937 6697.9
vertex 433.856 4937 6653.55
vertex 484.5 4937 6650.9
endloop
endfacet
facet normal 0 -1 0
outer loop
vertex 484.5 4937 6697.9
vertex 484.5 4937 6650.9
vertex 532.629 4937 6700.56
endloop
endfacet
facet normal 0 -1 0
outer loop
vertex 532.629 4937 6700.56
vertex 484.5 4937 6650.9
vertex 535.144 4937 6653.55
endloop
endfacet
facet normal 0 -1 0
outer loop
vertex 532.629 4937 6700.56
vertex 535.144 4937 6653.55
vertex 580.173 4937 6708.49
endloop
endfacet
facet normal 0 -1 0
outer loop
vertex 580.173 4937 6708.49
vertex 535.144 4937 6653.55
vertex 585.233 4937 6661.49
endloop
endfacet
facet normal 0 -1 0
outer loop
vertex 580.173 4937 6708.49
vertex 585.233 4937 6661.49
vertex 626.556 4937 6721.6
endloop
endfacet
facet normal 0 -1 0
outer loop
vertex 626.556 4937 6721.6
vertex 585.233 4937 6661.49
vertex 634.219 4937 6674.61
endloop
endfacet
facet normal 0 -1 0
outer loop
vertex 626.556 4937 6721.6
vertex 634.219 4937 6674.61
vertex 671.215 4937 6739.74
endloop
endfacet
facet normal 0 -1 0
outer loop
vertex 671.215 4937 6739.74
vertex 634.219 4937 6674.61
vertex 681.564 4937 6692.79
endloop
endfacet
facet normal 0 -1 0
outer loop
vertex 671.215 4937 6739.74
vertex 681.564 4937 6692.79
vertex 713.607 4937 6762.69
endloop
endfacet
facet normal 0 -1 0
outer loop
vertex 713.607 4937 6762.69
vertex 681.564 4937 6692.79
vertex 726.75 4937 6715.81
endloop
endfacet
facet normal 0 -1 0
outer loop
vertex 713.607 4937 6762.69
vertex 726.75 4937 6715.81
vertex 753.218 4937 6790.15
endloop
endfacet
facet normal 0 -1 0
outer loop
vertex 753.218 4937 6790.15
vertex 726.75 4937 6715.81
vertex 769.282 4937 6743.43
endloop
endfacet
facet normal 0 -1 0
outer loop
vertex 753.218 4937 6790.15
vertex 769.282 4937 6743.43
vertex 789.567 4937 6821.81
endloop
endfacet
facet normal 0 -1 0
outer loop
vertex 789.567 4937 6821.81
vertex 769.282 4937 6743.43
vertex 808.694 4937 6775.35
endloop
endfacet
facet normal 0 -1 0
outer loop
vertex 789.567 4937 6821.81
vertex 808.694 4937 6775.35
vertex 822.214 4937 6857.27
endloop
endfacet
facet normal 0 -1 0
outer loop
vertex 822.214 4937 6857.27
vertex 808.694 4937 6775.35
vertex 844.554 4937 6811.21
endloop
endfacet
facet normal 0 -1 0
outer loop
vertex 822.214 4937 6857.27
vertex 844.554 4937 6811.21
vertex 850.76 4937 6896.11
endloop
endfacet
facet normal 0 -1 0
outer loop
vertex 508.601 4937 7572.24
vertex 484.5 4937 7619.9
vertex 460.399 4937 7572.24
endloop
endfacet
facet normal 0 -1 0
outer loop
vertex 460.399 4937 7572.24
vertex 484.5 4937 7619.9
vertex 433.856 4937 7617.25
endloop
endfacet
facet normal 0 -1 0
outer loop
vertex 460.399 4937 7572.24
vertex 433.856 4937 7617.25
vertex 412.49 4937 7566.93
endloop
endfacet
facet normal 0 -1 0
outer loop
vertex 412.49 4937 7566.93
vertex 433.856 4937 7617.25
vertex 383.767 4937 7609.31
endloop
endfacet
facet normal 0 -1 0
outer loop
vertex 412.49 4937 7566.93
vertex 383.767 4937 7609.31
vertex 365.455 4937 7556.39
endloop
endfacet
facet normal 0 -1 0
outer loop
vertex 365.455 4937 7556.39
vertex 383.767 4937 7609.31
vertex 334.781 4937 7596.19
endloop
endfacet
facet normal 0 -1 0
outer loop
vertex 365.455 4937 7556.39
vertex 334.781 4937 7596.19
vertex 319.865 4937 7540.74
endloop
endfacet
facet normal 0 -1 0
outer loop
vertex 319.865 4937 7540.74
vertex 334.781 4937 7596.19
vertex 287.436 4937 7578.01
endloop
endfacet
facet normal 0 -1 0
outer loop
vertex 319.865 4937 7540.74
vertex 287.436 4937 7578.01
vertex 276.273 4937 7520.17
endloop
endfacet
facet normal 0 -1 0
outer loop
vertex 276.273 4937 7520.17
vertex 287.436 4937 7578.01
vertex 242.25 4937 7554.99
endloop
endfacet
facet normal 0 -1 0
outer loop
vertex 276.273 4937 7520.17
vertex 242.25 4937 7554.99
vertex 235.209 4937 7494.93
endloop
endfacet
facet normal 0 -1 0
outer loop
vertex 235.209 4937 7494.93
vertex 242.25 4937 7554.99
vertex 199.718 4937 7527.37
endloop
endfacet
facet normal 0 -1 0
outer loop
vertex 235.209 4937 7494.93
vertex 199.718 4937 7527.37
vertex 197.171 4937 7465.32
endloop
endfacet
facet normal 0 -1 0
outer loop
vertex 197.171 4937 7465.32
vertex 199.718 4937 7527.37
vertex 160.306 4937 7495.45
endloop
endfacet
facet normal 0 -1 0
outer loop
vertex 197.171 4937 7465.32
vertex 160.306 4937 7495.45
vertex 162.621 4937 7431.71
endloop
endfacet
facet normal 0 -1 0
outer loop
vertex 162.621 4937 7431.71
vertex 160.306 4937 7495.45
vertex 124.446 4937 7459.59
endloop
endfacet
facet normal 0 -1 0
outer loop
vertex 162.621 4937 7431.71
vertex 124.446 4937 7459.59
vertex 131.978 4937 7394.5
endloop
endfacet
facet normal 0 -1 0
outer loop
vertex 131.978 4937 7394.5
vertex 124.446 4937 7459.59
vertex 92.5313 4937 7420.18
endloop
endfacet
facet normal 0 -1 0
outer loop
vertex 131.978 4937 7394.5
vertex 92.5313 4937 7420.18
vertex 105.614 4937 7354.15
endloop
endfacet
facet normal 0 -1 0
outer loop
vertex 105.614 4937 7354.15
vertex 92.5313 4937 7420.18
vertex 64.9107 4937 7377.65
endloop
endfacet
facet normal 0 -1 0
outer loop
vertex 105.614 4937 7354.15
vertex 64.9107 4937 7377.65
vertex 83.8492 4937 7311.14
endloop
endfacet
facet normal 0 -1 0
outer loop
vertex 83.8492 4937 7311.14
vertex 64.9107 4937 7377.65
vertex 41.8872 4937 7332.46
endloop
endfacet
facet normal 0 -1 0
outer loop
vertex 83.8492 4937 7311.14
vertex 41.8872 4937 7332.46
vertex 66.9478 4937 7266
endloop
endfacet
facet normal 0 -1 0
outer loop
vertex 66.9478 4937 7266
vertex 41.8872 4937 7332.46
vertex 23.7131 4937 7285.12
endloop
endfacet
facet normal 0 -1 0
outer loop
vertex 66.9478 4937 7266
vertex 23.7131 4937 7285.12
vertex 55.115 4937 7219.27
endloop
endfacet
facet normal 0 -1 0
outer loop
vertex 55.115 4937 7219.27
vertex 23.7131 4937 7285.12
vertex 10.5875 4937 7236.13
endloop
endfacet
facet normal 0 -1 0
outer loop
vertex 55.115 4937 7219.27
vertex 10.5875 4937 7236.13
vertex 48.4943 4937 7171.53
endloop
endfacet
facet normal 0 -1 0
outer loop
vertex 48.4943 4937 7171.53
vertex 10.5875 4937 7236.13
vertex 2.65414 4937 7186.04
endloop
endfacet
facet normal 0 -1 0
outer loop
vertex 48.4943 4937 7171.53
vertex 2.65414 4937 7186.04
vertex 47.1661 4937 7123.34
endloop
endfacet
facet normal 0 -1 0
outer loop
vertex 47.1661 4937 7123.34
vertex 2.65414 4937 7186.04
vertex 0 4937 7135.4
endloop
endfacet
facet normal 0 -1 0
outer loop
vertex 47.1661 4937 7123.34
vertex 0 4937 7135.4
vertex 51.1466 4937 7075.31
endloop
endfacet
facet normal 0 -1 0
outer loop
vertex 51.1466 4937 7075.31
vertex 0 4937 7135.4
vertex 2.65414 4937 7084.76
endloop
endfacet
facet normal 0 -1 0
outer loop
vertex 51.1466 4937 7075.31
vertex 2.65414 4937 7084.76
vertex 60.3874 4937 7028
endloop
endfacet
facet normal 0 -1 0
outer loop
vertex 60.3874 4937 7028
vertex 2.65414 4937 7084.76
vertex 10.5875 4937 7034.67
endloop
endfacet
facet normal 0 -1 0
outer loop
vertex 60.3874 4937 7028
vertex 10.5875 4937 7034.67
vertex 74.7763 4937 6982
endloop
endfacet
facet normal 0 -1 0
outer loop
vertex 74.7763 4937 6982
vertex 10.5875 4937 7034.67
vertex 23.7131 4937 6985.68
endloop
endfacet
facet normal 0 -1 0
outer loop
vertex 74.7763 4937 6982
vertex 23.7131 4937 6985.68
vertex 94.1388 4937 6937.85
endloop
endfacet
facet normal 0 -1 0
outer loop
vertex 94.1388 4937 6937.85
vertex 23.7131 4937 6985.68
vertex 41.8872 4937 6938.34
endloop
endfacet
facet normal 0 -1 0
outer loop
vertex 94.1388 4937 6937.85
vertex 41.8872 4937 6938.34
vertex 64.9107 4937 6893.15
endloop
endfacet
facet normal 0 -1 0
outer loop
vertex 844.554 4937 6811.21
vertex 876.469 4937 6850.62
vertex 850.76 4937 6896.11
endloop
endfacet
facet normal 0 -1 0
outer loop
vertex 850.76 4937 6896.11
vertex 876.469 4937 6850.62
vertex 904.089 4937 6893.15
endloop
endfacet
facet normal 0 -1 0
outer loop
vertex 850.76 4937 6896.11
vertex 904.089 4937 6893.15
vertex 874.861 4937 6937.85
endloop
endfacet
facet normal 0 -1 0
outer loop
vertex 874.861 4937 6937.85
vertex 904.089 4937 6893.15
vertex 927.113 4937 6938.34
endloop
endfacet
facet normal 0 -1 0
outer loop
vertex 874.861 4937 6937.85
vertex 927.113 4937 6938.34
vertex 894.224 4937 6982
endloop
endfacet
facet normal 0 -1 0
outer loop
vertex 894.224 4937 6982
vertex 927.113 4937 6938.34
vertex 945.287 4937 6985.68
endloop
endfacet
facet normal 0 -1 0
outer loop
vertex 894.224 4937 6982
vertex 945.287 4937 6985.68
vertex 908.613 4937 7028
endloop
endfacet
facet normal 0 -1 0
outer loop
vertex 908.613 4937 7028
vertex 945.287 4937 6985.68
vertex 958.413 4937 7034.67
endloop
endfacet
facet normal 0 -1 0
outer loop
vertex 908.613 4937 7028
vertex 958.413 4937 7034.67
vertex 917.853 4937 7075.31
endloop
endfacet
facet normal 0 -1 0
outer loop
vertex 917.853 4937 7075.31
vertex 958.413 4937 7034.67
vertex 966.346 4937 7084.76
endloop
endfacet
facet normal 0 -1 0
outer loop
vertex 917.853 4937 7075.31
vertex 966.346 4937 7084.76
vertex 921.834 4937 7123.34
endloop
endfacet
facet normal 0 -1 0
outer loop
vertex 921.834 4937 7123.34
vertex 966.346 4937 7084.76
vertex 969 4937 7135.4
endloop
endfacet
facet normal 0 -1 0
outer loop
vertex 921.834 4937 7123.34
vertex 969 4937 7135.4
vertex 920.506 4937 7171.53
endloop
endfacet
facet normal 0 -1 0
outer loop
vertex 920.506 4937 7171.53
vertex 969 4937 7135.4
vertex 966.346 4937 7186.04
endloop
endfacet
facet normal 0 -1 0
outer loop
vertex 920.506 4937 7171.53
vertex 966.346 4937 7186.04
vertex 913.885 4937 7219.27
endloop
endfacet
facet normal 0 -1 0
outer loop
vertex 913.885 4937 7219.27
vertex 966.346 4937 7186.04
vertex 958.413 4937 7236.13
endloop
endfacet
facet normal 0 -1 0
outer loop
vertex 913.885 4937 7219.27
vertex 958.413 4937 7236.13
vertex 902.052 4937 7266
endloop
endfacet
facet normal 0 -1 0
outer loop
vertex 902.052 4937 7266
vertex 958.413 4937 7236.13
vertex 945.287 4937 7285.12
endloop
endfacet
facet normal 0 -1 0
outer loop
vertex 902.052 4937 7266
vertex 945.287 4937 7285.12
vertex 885.151 4937 7311.14
endloop
endfacet
facet normal 0 -1 0
outer loop
vertex 885.151 4937 7311.14
vertex 945.287 4937 7285.12
vertex 927.113 4937 7332.46
endloop
endfacet
facet normal 0 -1 0
outer loop
vertex 885.151 4937 7311.14
vertex 927.113 4937 7332.46
vertex 863.386 4937 7354.15
endloop
endfacet
facet normal 0 -1 0
outer loop
vertex 863.386 4937 7354.15
vertex 927.113 4937 7332.46
vertex 904.089 4937 7377.65
endloop
endfacet
facet normal 0 -1 0
outer loop
vertex 863.386 4937 7354.15
vertex 904.089 4937 7377.65
vertex 837.022 4937 7394.5
endloop
endfacet
facet normal 0 -1 0
outer loop
vertex 837.022 4937 7394.5
vertex 904.089 4937 7377.65
vertex 876.469 4937 7420.18
endloop
endfacet
facet normal 0 -1 0
outer loop
vertex 837.022 4937 7394.5
vertex 876.469 4937 7420.18
vertex 806.379 4937 7431.71
endloop
endfacet
facet normal 0 -1 0
outer loop
vertex 806.379 4937 7431.71
vertex 876.469 4937 7420.18
vertex 844.554 4937 7459.59
endloop
endfacet
facet normal 0 -1 0
outer loop
vertex 806.379 4937 7431.71
vertex 844.554 4937 7459.59
vertex 771.829 4937 7465.32
endloop
endfacet
facet normal 0 -1 0
outer loop
vertex 771.829 4937 7465.32
vertex 844.554 4937 7459.59
vertex 808.694 4937 7495.45
endloop
endfacet
facet normal 0 -1 0
outer loop
vertex 771.829 4937 7465.32
vertex 808.694 4937 7495.45
vertex 733.791 4937 7494.93
endloop
endfacet
facet normal 0 -1 0
outer loop
vertex 733.791 4937 7494.93
vertex 808.694 4937 7495.45
vertex 769.282 4937 7527.37
endloop
endfacet
facet normal 0 -1 0
outer loop
vertex 733.791 4937 7494.93
vertex 769.282 4937 7527.37
vertex 692.727 4937 7520.17
endloop
endfacet
facet normal 0 -1 0
outer loop
vertex 692.727 4937 7520.17
vertex 769.282 4937 7527.37
vertex 726.75 4937 7554.99
endloop
endfacet
facet normal 0 -1 0
outer loop
vertex 692.727 4937 7520.17
vertex 726.75 4937 7554.99
vertex 649.135 4937 7540.74
endloop
endfacet
facet normal 0 -1 0
outer loop
vertex 649.135 4937 7540.74
vertex 726.75 4937 7554.99
vertex 681.564 4937 7578.01
endloop
endfacet
facet normal 0 -1 0
outer loop
vertex 649.135 4937 7540.74
vertex 681.564 4937 7578.01
vertex 603.545 4937 7556.39
endloop
endfacet
facet normal 0 -1 0
outer loop
vertex 603.545 4937 7556.39
vertex 681.564 4937 7578.01
vertex 634.219 4937 7596.19
endloop
endfacet
facet normal 0 -1 0
outer loop
vertex 603.545 4937 7556.39
vertex 634.219 4937 7596.19
vertex 556.51 4937 7566.93
endloop
endfacet
facet normal 0 -1 0
outer loop
vertex 556.51 4937 7566.93
vertex 634.219 4937 7596.19
vertex 585.233 4937 7609.31
endloop
endfacet
facet normal 0 -1 0
outer loop
vertex 556.51 4937 7566.93
vertex 585.233 4937 7609.31
vertex 508.601 4937 7572.24
endloop
endfacet
facet normal 0 -1 0
outer loop
vertex 508.601 4937 7572.24
vertex 585.233 4937 7609.31
vertex 535.144 4937 7617.25
endloop
endfacet
facet normal 0 -1 0
outer loop
vertex 508.601 4937 7572.24
vertex 535.144 4937 7617.25
vertex 484.5 4937 7619.9
endloop
endfacet
facet normal 0 -1 0
outer loop
vertex 515.362 4718 7320.34
vertex 508.601 4718 7572.24
vertex 484.5 4718 7322.9
endloop
endfacet
facet normal 0 -1 0
outer loop
vertex 484.5 4718 7322.9
vertex 508.601 4718 7572.24
vertex 460.399 4718 7572.24
endloop
endfacet
facet normal 0 -1 0
outer loop
vertex 484.5 4718 7322.9
vertex 460.399 4718 7572.24
vertex 453.638 4718 7320.34
endloop
endfacet
facet normal 0 -1 0
outer loop
vertex 453.638 4718 7320.34
vertex 460.399 4718 7572.24
vertex 412.49 4718 7566.93
endloop
endfacet
facet normal 0 -1 0
outer loop
vertex 453.638 4718 7320.34
vertex 412.49 4718 7566.93
vertex 423.619 4718 7312.74
endloop
endfacet
facet normal 0 -1 0
outer loop
vertex 484.5 4718 6947.9
vertex 532.629 4718 6700.56
vertex 515.362 4718 6950.46
endloop
endfacet
facet normal 0 -1 0
outer loop
vertex 515.362 4718 6950.46
vertex 532.629 4718 6700.56
vertex 580.173 4718 6708.49
endloop
endfacet
facet normal 0 -1 0
outer loop
vertex 515.362 4718 6950.46
vertex 580.173 4718 6708.49
vertex 545.381 4718 6958.06
endloop
endfacet
facet normal 0 -1 0
outer loop
vertex 545.381 4718 6958.06
vertex 580.173 4718 6708.49
vertex 626.556 4718 6721.6
endloop
endfacet
facet normal 0 -1 0
outer loop
vertex 545.381 4718 6958.06
vertex 626.556 4718 6721.6
vertex 573.74 4718 6970.5
endloop
endfacet
facet normal 0 -1 0
outer loop
vertex 453.638 4718 6950.46
vertex 436.371 4718 6700.56
vertex 484.5 4718 6947.9
endloop
endfacet
facet normal 0 -1 0
outer loop
vertex 484.5 4718 6947.9
vertex 436.371 4718 6700.56
vertex 484.5 4718 6697.9
endloop
endfacet
facet normal 0 -1 0
outer loop
vertex 484.5 4718 6947.9
vertex 484.5 4718 6697.9
vertex 532.629 4718 6700.56
endloop
endfacet
facet normal 0 -1 0
outer loop
vertex 573.74 4718 7300.3
vertex 649.135 4718 7540.74
vertex 545.381 4718 7312.74
endloop
endfacet
facet normal 0 -1 0
outer loop
vertex 545.381 4718 7312.74
vertex 649.135 4718 7540.74
vertex 603.545 4718 7556.39
endloop
endfacet
facet normal 0 -1 0
outer loop
vertex 545.381 4718 7312.74
vertex 603.545 4718 7556.39
vertex 515.362 4718 7320.34
endloop
endfacet
facet normal 0 -1 0
outer loop
vertex 515.362 4718 7320.34
vertex 603.545 4718 7556.39
vertex 556.51 4718 7566.93
endloop
endfacet
facet normal 0 -1 0
outer loop
vertex 515.362 4718 7320.34
vertex 556.51 4718 7566.93
vertex 508.601 4718 7572.24
endloop
endfacet
facet normal 0 -1 0
outer loop
vertex 641.469 4718 7032.85
vertex 874.861 4718 6937.85
vertex 656.208 4718 7060.08
endloop
endfacet
facet normal 0 -1 0
outer loop
vertex 656.208 4718 7060.08
vertex 874.861 4718 6937.85
vertex 894.224 4718 6982
endloop
endfacet
facet normal 0 -1 0
outer loop
vertex 656.208 4718 7060.08
vertex 894.224 4718 6982
vertex 666.263 4718 7089.37
endloop
endfacet
facet normal 0 -1 0
outer loop
vertex 369.335 4718 6987.44
vertex 255.393 4718 6762.69
vertex 395.26 4718 6970.5
endloop
endfacet
facet normal 0 -1 0
outer loop
vertex 395.26 4718 6970.5
vertex 255.393 4718 6762.69
vertex 297.785 4718 6739.74
endloop
endfacet
facet normal 0 -1 0
outer loop
vertex 395.26 4718 6970.5
vertex 297.785 4718 6739.74
vertex 423.619 4718 6958.06
endloop
endfacet
facet normal 0 -1 0
outer loop
vertex 423.619 4718 6958.06
vertex 297.785 4718 6739.74
vertex 342.444 4718 6721.6
endloop
endfacet
facet normal 0 -1 0
outer loop
vertex 423.619 4718 6958.06
vertex 342.444 4718 6721.6
vertex 453.638 4718 6950.46
endloop
endfacet
facet normal 0 -1 0
outer loop
vertex 453.638 4718 6950.46
vertex 342.444 4718 6721.6
vertex 388.827 4718 6708.49
endloop
endfacet
facet normal 0 -1 0
outer loop
vertex 453.638 4718 6950.46
vertex 388.827 4718 6708.49
vertex 436.371 4718 6700.56
endloop
endfacet
facet normal 0 -1 0
outer loop
vertex 312.792 4718 7210.72
vertex 327.531 4718 7237.95
vertex 105.614 4718 7354.15
endloop
endfacet
facet normal 0 -1 0
outer loop
vertex 412.49 4718 7566.93
vertex 365.455 4718 7556.39
vertex 423.619 4718 7312.74
endloop
endfacet
facet normal 0 -1 0
outer loop
vertex 423.619 4718 7312.74
vertex 365.455 4718 7556.39
vertex 319.865 4718 7540.74
endloop
endfacet
facet normal 0 -1 0
outer loop
vertex 423.619 4718 7312.74
vertex 319.865 4718 7540.74
vertex 395.26 4718 7300.3
endloop
endfacet
facet normal 0 -1 0
outer loop
vertex 599.665 4718 7283.36
vertex 733.791 4718 7494.93
vertex 573.74 4718 7300.3
endloop
endfacet
facet normal 0 -1 0
outer loop
vertex 573.74 4718 7300.3
vertex 733.791 4718 7494.93
vertex 692.727 4718 7520.17
endloop
endfacet
facet normal 0 -1 0
outer loop
vertex 573.74 4718 7300.3
vertex 692.727 4718 7520.17
vertex 649.135 4718 7540.74
endloop
endfacet
facet normal 0 -1 0
outer loop
vertex 656.208 4718 7210.72
vertex 863.386 4718 7354.15
vertex 641.469 4718 7237.95
endloop
endfacet
facet normal 0 -1 0
outer loop
vertex 641.469 4718 7237.95
vertex 863.386 4718 7354.15
vertex 837.022 4718 7394.5
endloop
endfacet
facet normal 0 -1 0
outer loop
vertex 641.469 4718 7237.95
vertex 837.022 4718 7394.5
vertex 622.448 4718 7262.39
endloop
endfacet
facet normal 0 -1 0
outer loop
vertex 622.448 4718 7262.39
vertex 837.022 4718 7394.5
vertex 806.379 4718 7431.71
endloop
endfacet
facet normal 0 -1 0
outer loop
vertex 622.448 4718 7262.39
vertex 806.379 4718 7431.71
vertex 599.665 4718 7283.36
endloop
endfacet
facet normal 0 -1 0
outer loop
vertex 599.665 4718 7283.36
vertex 806.379 4718 7431.71
vertex 771.829 4718 7465.32
endloop
endfacet
facet normal 0 -1 0
outer loop
vertex 599.665 4718 7283.36
vertex 771.829 4718 7465.32
vertex 733.791 4718 7494.93
endloop
endfacet
facet normal 0 -1 0
outer loop
vertex 626.556 4718 6721.6
vertex 671.215 4718 6739.74
vertex 573.74 4718 6970.5
endloop
endfacet
facet normal 0 -1 0
outer loop
vertex 573.74 4718 6970.5
vertex 671.215 4718 6739.74
vertex 713.607 4718 6762.69
endloop
endfacet
facet normal 0 -1 0
outer loop
vertex 573.74 4718 6970.5
vertex 713.607 4718 6762.69
vertex 599.665 4718 6987.44
endloop
endfacet
facet normal 0 -1 0
outer loop
vertex 599.665 4718 6987.44
vertex 713.607 4718 6762.69
vertex 753.218 4718 6790.15
endloop
endfacet
facet normal 0 -1 0
outer loop
vertex 599.665 4718 6987.44
vertex 753.218 4718 6790.15
vertex 622.448 4718 7008.41
endloop
endfacet
facet normal 0 -1 0
outer loop
vertex 327.531 4718 7032.85
vertex 146.786 4718 6857.27
vertex 346.552 4718 7008.41
endloop
endfacet
facet normal 0 -1 0
outer loop
vertex 346.552 4718 7008.41
vertex 146.786 4718 6857.27
vertex 179.433 4718 6821.81
endloop
endfacet
facet normal 0 -1 0
outer loop
vertex 346.552 4718 7008.41
vertex 179.433 4718 6821.81
vertex 369.335 4718 6987.44
endloop
endfacet
facet normal 0 -1 0
outer loop
vertex 369.335 4718 6987.44
vertex 179.433 4718 6821.81
vertex 215.782 4718 6790.15
endloop
endfacet
facet normal 0 -1 0
outer loop
vertex 369.335 4718 6987.44
vertex 215.782 4718 6790.15
vertex 255.393 4718 6762.69
endloop
endfacet
facet normal 0 -1 0
outer loop
vertex 319.865 4718 7540.74
vertex 276.273 4718 7520.17
vertex 395.26 4718 7300.3
endloop
endfacet
facet normal 0 -1 0
outer loop
vertex 395.26 4718 7300.3
vertex 276.273 4718 7520.17
vertex 235.209 4718 7494.93
endloop
endfacet
facet normal 0 -1 0
outer loop
vertex 395.26 4718 7300.3
vertex 235.209 4718 7494.93
vertex 369.335 4718 7283.36
endloop
endfacet
facet normal 0 -1 0
outer loop
vertex 369.335 4718 7283.36
vertex 235.209 4718 7494.93
vertex 197.171 4718 7465.32
endloop
endfacet
facet normal 0 -1 0
outer loop
vertex 369.335 4718 7283.36
vertex 197.171 4718 7465.32
vertex 346.552 4718 7262.39
endloop
endfacet
facet normal 0 -1 0
outer loop
vertex 346.552 4718 7262.39
vertex 197.171 4718 7465.32
vertex 162.621 4718 7431.71
endloop
endfacet
facet normal 0 -1 0
outer loop
vertex 346.552 4718 7262.39
vertex 162.621 4718 7431.71
vertex 327.531 4718 7237.95
endloop
endfacet
facet normal 0 -1 0
outer loop
vertex 327.531 4718 7237.95
vertex 162.621 4718 7431.71
vertex 131.978 4718 7394.5
endloop
endfacet
facet normal 0 -1 0
outer loop
vertex 327.531 4718 7237.95
vertex 131.978 4718 7394.5
vertex 105.614 4718 7354.15
endloop
endfacet
facet normal 0 -1 0
outer loop
vertex 753.218 4718 6790.15
vertex 789.567 4718 6821.81
vertex 622.448 4718 7008.41
endloop
endfacet
facet normal 0 -1 0
outer loop
vertex 622.448 4718 7008.41
vertex 789.567 4718 6821.81
vertex 822.214 4718 6857.27
endloop
endfacet
facet normal 0 -1 0
outer loop
vertex 622.448 4718 7008.41
vertex 822.214 4718 6857.27
vertex 641.469 4718 7032.85
endloop
endfacet
facet normal 0 -1 0
outer loop
vertex 641.469 4718 7032.85
vertex 822.214 4718 6857.27
vertex 850.76 4718 6896.11
endloop
endfacet
facet normal 0 -1 0
outer loop
vertex 641.469 4718 7032.85
vertex 850.76 4718 6896.11
vertex 874.861 4718 6937.85
endloop
endfacet
facet normal 0 -1 0
outer loop
vertex 312.792 4718 7060.08
vertex 94.1388 4718 6937.85
vertex 327.531 4718 7032.85
endloop
endfacet
facet normal 0 -1 0
outer loop
vertex 327.531 4718 7032.85
vertex 94.1388 4718 6937.85
vertex 118.24 4718 6896.11
endloop
endfacet
facet normal 0 -1 0
outer loop
vertex 327.531 4718 7032.85
vertex 118.24 4718 6896.11
vertex 146.786 4718 6857.27
endloop
endfacet
facet normal 0 -1 0
outer loop
vertex 297.64 4718 7150.88
vertex 47.1661 4718 7123.34
vertex 297.64 4718 7119.92
endloop
endfacet
facet normal 0 -1 0
outer loop
vertex 297.64 4718 7119.92
vertex 47.1661 4718 7123.34
vertex 51.1466 4718 7075.31
endloop
endfacet
facet normal 0 -1 0
outer loop
vertex 297.64 4718 7119.92
vertex 51.1466 4718 7075.31
vertex 302.737 4718 7089.37
endloop
endfacet
facet normal 0 -1 0
outer loop
vertex 302.737 4718 7089.37
vertex 51.1466 4718 7075.31
vertex 60.3874 4718 7028
endloop
endfacet
facet normal 0 -1 0
outer loop
vertex 302.737 4718 7089.37
vertex 60.3874 4718 7028
vertex 312.792 4718 7060.08
endloop
endfacet
facet normal 0 -1 0
outer loop
vertex 312.792 4718 7060.08
vertex 60.3874 4718 7028
vertex 74.7763 4718 6982
endloop
endfacet
facet normal 0 -1 0
outer loop
vertex 312.792 4718 7060.08
vertex 74.7763 4718 6982
vertex 94.1388 4718 6937.85
endloop
endfacet
facet normal 0 -1 0
outer loop
vertex 105.614 4718 7354.15
vertex 83.8492 4718 7311.14
vertex 312.792 4718 7210.72
endloop
endfacet
facet normal 0 -1 0
outer loop
vertex 312.792 4718 7210.72
vertex 83.8492 4718 7311.14
vertex 66.9478 4718 7266
endloop
endfacet
facet normal 0 -1 0
outer loop
vertex 312.792 4718 7210.72
vertex 66.9478 4718 7266
vertex 302.737 4718 7181.43
endloop
endfacet
facet normal 0 -1 0
outer loop
vertex 302.737 4718 7181.43
vertex 66.9478 4718 7266
vertex 55.115 4718 7219.27
endloop
endfacet
facet normal 0 -1 0
outer loop
vertex 302.737 4718 7181.43
vertex 55.115 4718 7219.27
vertex 297.64 4718 7150.88
endloop
endfacet
facet normal 0 -1 0
outer loop
vertex 297.64 4718 7150.88
vertex 55.115 4718 7219.27
vertex 48.4943 4718 7171.53
endloop
endfacet
facet normal 0 -1 0
outer loop
vertex 297.64 4718 7150.88
vertex 48.4943 4718 7171.53
vertex 47.1661 4718 7123.34
endloop
endfacet
facet normal 0 -1 0
outer loop
vertex 666.263 4718 7181.43
vertex 902.052 4718 7266
vertex 656.208 4718 7210.72
endloop
endfacet
facet normal 0 -1 0
outer loop
vertex 656.208 4718 7210.72
vertex 902.052 4718 7266
vertex 885.151 4718 7311.14
endloop
endfacet
facet normal 0 -1 0
outer loop
vertex 656.208 4718 7210.72
vertex 885.151 4718 7311.14
vertex 863.386 4718 7354.15
endloop
endfacet
facet normal 0 -1 0
outer loop
vertex 894.224 4718 6982
vertex 908.613 4718 7028
vertex 666.263 4718 7089.37
endloop
endfacet
facet normal 0 -1 0
outer loop
vertex 666.263 4718 7089.37
vertex 908.613 4718 7028
vertex 917.853 4718 7075.31
endloop
endfacet
facet normal 0 -1 0
outer loop
vertex 666.263 4718 7089.37
vertex 917.853 4718 7075.31
vertex 671.36 4718 7119.92
endloop
endfacet
facet normal 0 -1 0
outer loop
vertex 671.36 4718 7119.92
vertex 917.853 4718 7075.31
vertex 921.834 4718 7123.34
endloop
endfacet
facet normal 0 -1 0
outer loop
vertex 671.36 4718 7119.92
vertex 921.834 4718 7123.34
vertex 671.36 4718 7150.88
endloop
endfacet
facet normal 0 -1 0
outer loop
vertex 671.36 4718 7150.88
vertex 921.834 4718 7123.34
vertex 920.506 4718 7171.53
endloop
endfacet
facet normal 0 -1 0
outer loop
vertex 671.36 4718 7150.88
vertex 920.506 4718 7171.53
vertex 666.263 4718 7181.43
endloop
endfacet
facet normal 0 -1 0
outer loop
vertex 666.263 4718 7181.43
vertex 920.506 4718 7171.53
vertex 913.885 4718 7219.27
endloop
endfacet
facet normal 0 -1 0
outer loop
vertex 666.263 4718 7181.43
vertex 913.885 4718 7219.27
vertex 902.052 4718 7266
endloop
endfacet
facet normal 0.156439 0 -0.987688
outer loop
vertex 535.144 4937 6653.55
vertex 535.144 4999 6653.55
vertex 585.233 4937 6661.49
endloop
endfacet
facet normal 0.156439 0 -0.987688
outer loop
vertex 585.233 4937 6661.49
vertex 535.144 4999 6653.55
vertex 585.233 4999 6661.49
endloop
endfacet
facet normal 0.258808 0 -0.965929
outer loop
vertex 585.233 4937 6661.49
vertex 585.233 4999 6661.49
vertex 634.219 4937 6674.61
endloop
endfacet
facet normal 0.258808 0 -0.965929
outer loop
vertex 634.219 4937 6674.61
vertex 585.233 4999 6661.49
vertex 634.219 4999 6674.61
endloop
endfacet
facet normal 0.358371 0 -0.933579
outer loop
vertex 634.219 4937 6674.61
vertex 634.219 4999 6674.61
vertex 681.564 4937 6692.79
endloop
endfacet
facet normal 0.358371 0 -0.933579
outer loop
vertex 681.564 4937 6692.79
vertex 634.219 4999 6674.61
vertex 681.564 4999 6692.79
endloop
endfacet
facet normal 0.45399 0 -0.891007
outer loop
vertex 681.564 4937 6692.79
vertex 681.564 4999 6692.79
vertex 726.75 4937 6715.81
endloop
endfacet
facet normal 0.45399 0 -0.891007
outer loop
vertex 726.75 4937 6715.81
vertex 681.564 4999 6692.79
vertex 726.75 4999 6715.81
endloop
endfacet
facet normal 0.544639 0 -0.83867
outer loop
vertex 726.75 4937 6715.81
vertex 726.75 4999 6715.81
vertex 769.282 4937 6743.43
endloop
endfacet
facet normal 0.544639 0 -0.83867
outer loop
vertex 769.282 4937 6743.43
vertex 726.75 4999 6715.81
vertex 769.282 4999 6743.43
endloop
endfacet
facet normal 0.62932 0 -0.777146
outer loop
vertex 769.282 4937 6743.43
vertex 769.282 4999 6743.43
vertex 808.694 4937 6775.35
endloop
endfacet
facet normal 0.62932 0 -0.777146
outer loop
vertex 808.694 4937 6775.35
vertex 769.282 4999 6743.43
vertex 808.694 4999 6775.35
endloop
endfacet
facet normal 0.707112 0 -0.707102
outer loop
vertex 808.694 4937 6775.35
vertex 808.694 4999 6775.35
vertex 844.554 4937 6811.21
endloop
endfacet
facet normal 0.707112 0 -0.707102
outer loop
vertex 844.554 4937 6811.21
vertex 808.694 4999 6775.35
vertex 844.554 4999 6811.21
endloop
endfacet
facet normal 0.777141 0 -0.629327
outer loop
vertex 844.554 4937 6811.21
vertex 844.554 4999 6811.21
vertex 876.469 4937 6850.62
endloop
endfacet
facet normal 0.777141 0 -0.629327
outer loop
vertex 876.469 4937 6850.62
vertex 844.554 4999 6811.21
vertex 876.469 4999 6850.62
endloop
endfacet
facet normal 0.838671 0 -0.544638
outer loop
vertex 876.469 4937 6850.62
vertex 876.469 4999 6850.62
vertex 904.089 4937 6893.15
endloop
endfacet
facet normal 0.838671 0 -0.544638
outer loop
vertex 904.089 4937 6893.15
vertex 876.469 4999 6850.62
vertex 904.089 4999 6893.15
endloop
endfacet
facet normal 0.891007 0 -0.45399
outer loop
vertex 904.089 4937 6893.15
vertex 904.089 4999 6893.15
vertex 927.113 4937 6938.34
endloop
endfacet
facet normal 0.891007 0 -0.45399
outer loop
vertex 927.113 4937 6938.34
vertex 904.089 4999 6893.15
vertex 927.113 4999 6938.34
endloop
endfacet
facet normal 0.93358 0 -0.358368
outer loop
vertex 927.113 4937 6938.34
vertex 927.113 4999 6938.34
vertex 945.287 4937 6985.68
endloop
endfacet
facet normal 0.93358 0 -0.358368
outer loop
vertex 945.287 4937 6985.68
vertex 927.113 4999 6938.34
vertex 945.287 4999 6985.68
endloop
endfacet
facet normal 0.965926 0 -0.258818
outer loop
vertex 945.287 4937 6985.68
vertex 945.287 4999 6985.68
vertex 958.413 4937 7034.67
endloop
endfacet
facet normal 0.965926 0 -0.258818
outer loop
vertex 958.413 4937 7034.67
vertex 945.287 4999 6985.68
vertex 958.413 4999 7034.67
endloop
endfacet
facet normal 0.987688 0 -0.156434
outer loop
vertex 958.413 4937 7034.67
vertex 958.413 4999 7034.67
vertex 966.346 4937 7084.76
endloop
endfacet
facet normal 0.987688 0 -0.156434
outer loop
vertex 966.346 4937 7084.76
vertex 958.413 4999 7034.67
vertex 966.346 4999 7084.76
endloop
endfacet
facet normal 0.99863 0 -0.0523366
outer loop
vertex 966.346 4937 7084.76
vertex 966.346 4999 7084.76
vertex 969 4937 7135.4
endloop
endfacet
facet normal 0.99863 0 -0.0523366
outer loop
vertex 969 4937 7135.4
vertex 966.346 4999 7084.76
vertex 969 4999 7135.4
endloop
endfacet
facet normal 0.99863 0 0.0523361
outer loop
vertex 969 4937 7135.4
vertex 969 4999 7135.4
vertex 966.346 4937 7186.04
endloop
endfacet
facet normal 0.99863 0 0.0523361
outer loop
vertex 966.346 4937 7186.04
vertex 969 4999 7135.4
vertex 966.346 4999 7186.04
endloop
endfacet
facet normal 0.987688 0 0.156434
outer loop
vertex 966.346 4937 7186.04
vertex 966.346 4999 7186.04
vertex 958.413 4937 7236.13
endloop
endfacet
facet normal 0.987688 0 0.156434
outer loop
vertex 958.413 4937 7236.13
vertex 966.346 4999 7186.04
vertex 958.413 4999 7236.13
endloop
endfacet
facet normal 0.965925 0 0.258821
outer loop
vertex 958.413 4937 7236.13
vertex 958.413 4999 7236.13
vertex 945.287 4937 7285.12
endloop
endfacet
facet normal 0.965925 0 0.258821
outer loop
vertex 945.287 4937 7285.12
vertex 958.413 4999 7236.13
vertex 945.287 4999 7285.12
endloop
endfacet
facet normal 0.93358 0 0.358368
outer loop
vertex 945.287 4937 7285.12
vertex 945.287 4999 7285.12
vertex 927.113 4937 7332.46
endloop
endfacet
facet normal 0.93358 0 0.358368
outer loop
vertex 927.113 4937 7332.46
vertex 945.287 4999 7285.12
vertex 927.113 4999 7332.46
endloop
endfacet
facet normal 0.891007 0 0.45399
outer loop
vertex 927.113 4937 7332.46
vertex 927.113 4999 7332.46
vertex 904.089 4937 7377.65
endloop
endfacet
facet normal 0.891007 0 0.45399
outer loop
vertex 904.089 4937 7377.65
vertex 927.113 4999 7332.46
vertex 904.089 4999 7377.65
endloop
endfacet
facet normal 0.838668 0 0.544642
outer loop
vertex 904.089 4937 7377.65
vertex 904.089 4999 7377.65
vertex 876.469 4937 7420.18
endloop
endfacet
facet normal 0.838668 0 0.544642
outer loop
vertex 876.469 4937 7420.18
vertex 904.089 4999 7377.65
vertex 876.469 4999 7420.18
endloop
endfacet
facet normal 0.777148 0 0.629317
outer loop
vertex 876.469 4937 7420.18
vertex 876.469 4999 7420.18
vertex 844.554 4937 7459.59
endloop
endfacet
facet normal 0.777148 0 0.629317
outer loop
vertex 844.554 4937 7459.59
vertex 876.469 4999 7420.18
vertex 844.554 4999 7459.59
endloop
endfacet
facet normal 0.707107 0 0.707107
outer loop
vertex 844.554 4937 7459.59
vertex 844.554 4999 7459.59
vertex 808.694 4937 7495.45
endloop
endfacet
facet normal 0.707107 0 0.707107
outer loop
vertex 808.694 4937 7495.45
vertex 844.554 4999 7459.59
vertex 808.694 4999 7495.45
endloop
endfacet
facet normal 0.62932 0 0.777146
outer loop
vertex 808.694 4937 7495.45
vertex 808.694 4999 7495.45
vertex 769.282 4937 7527.37
endloop
endfacet
facet normal 0.62932 0 0.777146
outer loop
vertex 769.282 4937 7527.37
vertex 808.694 4999 7495.45
vertex 769.282 4999 7527.37
endloop
endfacet
facet normal 0.544639 0 0.83867
outer loop
vertex 769.282 4937 7527.37
vertex 769.282 4999 7527.37
vertex 726.75 4937 7554.99
endloop
endfacet
facet normal 0.544639 0 0.83867
outer loop
vertex 726.75 4937 7554.99
vertex 769.282 4999 7527.37
vertex 726.75 4999 7554.99
endloop
endfacet
facet normal 0.453998 0 0.891003
outer loop
vertex 726.75 4937 7554.99
vertex 726.75 4999 7554.99
vertex 681.564 4937 7578.01
endloop
endfacet
facet normal 0.453998 0 0.891003
outer loop
vertex 681.564 4937 7578.01
vertex 726.75 4999 7554.99
vertex 681.564 4999 7578.01
endloop
endfacet
facet normal 0.358363 0 0.933582
outer loop
vertex 681.564 4937 7578.01
vertex 681.564 4999 7578.01
vertex 634.219 4937 7596.19
endloop
endfacet
facet normal 0.358363 0 0.933582
outer loop
vertex 634.219 4937 7596.19
vertex 681.564 4999 7578.01
vertex 634.219 4999 7596.19
endloop
endfacet
facet normal 0.258817 0 0.965926
outer loop
vertex 634.219 4937 7596.19
vertex 634.219 4999 7596.19
vertex 585.233 4937 7609.31
endloop
endfacet
facet normal 0.258817 0 0.965926
outer loop
vertex 585.233 4937 7609.31
vertex 634.219 4999 7596.19
vertex 585.233 4999 7609.31
endloop
endfacet
facet normal 0.15643 0 0.987689
outer loop
vertex 585.233 4937 7609.31
vertex 585.233 4999 7609.31
vertex 535.144 4937 7617.25
endloop
endfacet
facet normal 0.15643 0 0.987689
outer loop
vertex 535.144 4937 7617.25
vertex 585.233 4999 7609.31
vertex 535.144 4999 7617.25
endloop
endfacet
facet normal 0.0523486 0 0.998629
outer loop
vertex 535.144 4937 7617.25
vertex 535.144 4999 7617.25
vertex 484.5 4937 7619.9
endloop
endfacet
facet normal 0.0523486 0 0.998629
outer loop
vertex 484.5 4937 7619.9
vertex 535.144 4999 7617.25
vertex 484.5 4999 7619.9
endloop
endfacet
facet normal -0.0523486 0 0.998629
outer loop
vertex 484.5 4937 7619.9
vertex 484.5 4999 7619.9
vertex 433.856 4937 7617.25
endloop
endfacet
facet normal -0.0523486 0 0.998629
outer loop
vertex 433.856 4937 7617.25
vertex 484.5 4999 7619.9
vertex 433.856 4999 7617.25
endloop
endfacet
facet normal -0.15643 0 0.987689
outer loop
vertex 433.856 4937 7617.25
vertex 433.856 4999 7617.25
vertex 383.767 4937 7609.31
endloop
endfacet
facet normal -0.15643 0 0.987689
outer loop
vertex 383.767 4937 7609.31
vertex 433.856 4999 7617.25
vertex 383.767 4999 7609.31
endloop
endfacet
facet normal -0.258816 0 0.965927
outer loop
vertex 383.767 4937 7609.31
vertex 383.767 4999 7609.31
vertex 334.781 4937 7596.19
endloop
endfacet
facet normal -0.258816 0 0.965927
outer loop
vertex 334.781 4937 7596.19
vertex 383.767 4999 7609.31
vertex 334.781 4999 7596.19
endloop
endfacet
facet normal -0.358363 0 0.933582
outer loop
vertex 334.781 4937 7596.19
vertex 334.781 4999 7596.19
vertex 287.436 4937 7578.01
endloop
endfacet
facet normal -0.358363 0 0.933582
outer loop
vertex 287.436 4937 7578.01
vertex 334.781 4999 7596.19
vertex 287.436 4999 7578.01
endloop
endfacet
facet normal -0.453998 0 0.891003
outer loop
vertex 287.436 4937 7578.01
vertex 287.436 4999 7578.01
vertex 242.25 4937 7554.99
endloop
endfacet
facet normal -0.453998 0 0.891003
outer loop
vertex 242.25 4937 7554.99
vertex 287.436 4999 7578.01
vertex 242.25 4999 7554.99
endloop
endfacet
facet normal -0.544639 0 0.83867
outer loop
vertex 242.25 4937 7554.99
vertex 242.25 4999 7554.99
vertex 199.718 4937 7527.37
endloop
endfacet
facet normal -0.544639 0 0.83867
outer loop
vertex 199.718 4937 7527.37
vertex 242.25 4999 7554.99
vertex 199.718 4999 7527.37
endloop
endfacet
facet normal -0.62932 0 0.777146
outer loop
vertex 199.718 4937 7527.37
vertex 199.718 4999 7527.37
vertex 160.306 4937 7495.45
endloop
endfacet
facet normal -0.62932 0 0.777146
outer loop
vertex 160.306 4937 7495.45
vertex 199.718 4999 7527.37
vertex 160.306 4999 7495.45
endloop
endfacet
facet normal -0.707107 0 0.707107
outer loop
vertex 160.306 4937 7495.45
vertex 160.306 4999 7495.45
vertex 124.446 4937 7459.59
endloop
endfacet
facet normal -0.707107 0 0.707107
outer loop
vertex 124.446 4937 7459.59
vertex 160.306 4999 7495.45
vertex 124.446 4999 7459.59
endloop
endfacet
facet normal -0.777148 0 0.629318
outer loop
vertex 124.446 4937 7459.59
vertex 124.446 4999 7459.59
vertex 92.5313 4937 7420.18
endloop
endfacet
facet normal -0.777148 0 0.629318
outer loop
vertex 92.5313 4937 7420.18
vertex 124.446 4999 7459.59
vertex 92.5313 4999 7420.18
endloop
endfacet
facet normal -0.838669 0 0.544641
outer loop
vertex 92.5313 4937 7420.18
vertex 92.5313 4999 7420.18
vertex 64.9107 4937 7377.65
endloop
endfacet
facet normal -0.838669 0 0.544641
outer loop
vertex 64.9107 4937 7377.65
vertex 92.5313 4999 7420.18
vertex 64.9107 4999 7377.65
endloop
endfacet
facet normal -0.891006 0 0.453991
outer loop
vertex 64.9107 4937 7377.65
vertex 64.9107 4999 7377.65
vertex 41.8872 4937 7332.46
endloop
endfacet
facet normal -0.891006 0 0.453991
outer loop
vertex 41.8872 4937 7332.46
vertex 64.9107 4999 7377.65
vertex 41.8872 4999 7332.46
endloop
endfacet
facet normal -0.933581 0 0.358368
outer loop
vertex 41.8872 4937 7332.46
vertex 41.8872 4999 7332.46
vertex 23.7131 4937 7285.12
endloop
endfacet
facet normal -0.933581 0 0.358368
outer loop
vertex 23.7131 4937 7285.12
vertex 41.8872 4999 7332.46
vertex 23.7131 4999 7285.12
endloop
endfacet
facet normal -0.965926 0 0.25882
outer loop
vertex 23.7131 4937 7285.12
vertex 23.7131 4999 7285.12
vertex 10.5875 4937 7236.13
endloop
endfacet
facet normal -0.965926 0 0.25882
outer loop
vertex 10.5875 4937 7236.13
vertex 23.7131 4999 7285.12
vertex 10.5875 4999 7236.13
endloop
endfacet
facet normal -0.987688 0 0.156435
outer loop
vertex 10.5875 4937 7236.13
vertex 10.5875 4999 7236.13
vertex 2.65414 4937 7186.04
endloop
endfacet
facet normal -0.987688 0 0.156435
outer loop
vertex 2.65414 4937 7186.04
vertex 10.5875 4999 7236.13
vertex 2.65414 4999 7186.04
endloop
endfacet
facet normal -0.99863 0 0.0523353
outer loop
vertex 2.65414 4937 7186.04
vertex 2.65414 4999 7186.04
vertex 0 4937 7135.4
endloop
endfacet
facet normal -0.99863 0 0.0523353
outer loop
vertex 0 4937 7135.4
vertex 2.65414 4999 7186.04
vertex 0 4999 7135.4
endloop
endfacet
facet normal -0.99863 0 -0.0523358
outer loop
vertex 0 4937 7135.4
vertex 0 4999 7135.4
vertex 2.65414 4937 7084.76
endloop
endfacet
facet normal -0.99863 0 -0.0523358
outer loop
vertex 2.65414 4937 7084.76
vertex 0 4999 7135.4
vertex 2.65414 4999 7084.76
endloop
endfacet
facet normal -0.987688 0 -0.156435
outer loop
vertex 2.65414 4937 7084.76
vertex 2.65414 4999 7084.76
vertex 10.5875 4937 7034.67
endloop
endfacet
facet normal -0.987688 0 -0.156435
outer loop
vertex 10.5875 4937 7034.67
vertex 2.65414 4999 7084.76
vertex 10.5875 4999 7034.67
endloop
endfacet
facet normal -0.965926 0 -0.258817
outer loop
vertex 10.5875 4937 7034.67
vertex 10.5875 4999 7034.67
vertex 23.7131 4937 6985.68
endloop
endfacet
facet normal -0.965926 0 -0.258817
outer loop
vertex 23.7131 4937 6985.68
vertex 10.5875 4999 7034.67
vertex 23.7131 4999 6985.68
endloop
endfacet
facet normal -0.933581 0 -0.358368
outer loop
vertex 23.7131 4937 6985.68
vertex 23.7131 4999 6985.68
vertex 41.8872 4937 6938.34
endloop
endfacet
facet normal -0.933581 0 -0.358368
outer loop
vertex 41.8872 4937 6938.34
vertex 23.7131 4999 6985.68
vertex 41.8872 4999 6938.34
endloop
endfacet
facet normal -0.891006 0 -0.453991
outer loop
vertex 41.8872 4937 6938.34
vertex 41.8872 4999 6938.34
vertex 64.9107 4937 6893.15
endloop
endfacet
facet normal -0.891006 0 -0.453991
outer loop
vertex 64.9107 4937 6893.15
vertex 41.8872 4999 6938.34
vertex 64.9107 4999 6893.15
endloop
endfacet
facet normal -0.838672 0 -0.544637
outer loop
vertex 64.9107 4937 6893.15
vertex 64.9107 4999 6893.15
vertex 92.5313 4937 6850.62
endloop
endfacet
facet normal -0.838672 0 -0.544637
outer loop
vertex 92.5313 4937 6850.62
vertex 64.9107 4999 6893.15
vertex 92.5313 4999 6850.62
endloop
endfacet
facet normal -0.777141 0 -0.629327
outer loop
vertex 92.5313 4937 6850.62
vertex 92.5313 4999 6850.62
vertex 124.446 4937 6811.21
endloop
endfacet
facet normal -0.777141 0 -0.629327
outer loop
vertex 124.446 4937 6811.21
vertex 92.5313 4999 6850.62
vertex 124.446 4999 6811.21
endloop
endfacet
facet normal -0.707111 0 -0.707102
outer loop
vertex 124.446 4937 6811.21
vertex 124.446 4999 6811.21
vertex 160.306 4937 6775.35
endloop
endfacet
facet normal -0.707111 0 -0.707102
outer loop
vertex 160.306 4937 6775.35
vertex 124.446 4999 6811.21
vertex 160.306 4999 6775.35
endloop
endfacet
facet normal -0.62932 0 -0.777146
outer loop
vertex 160.306 4937 6775.35
vertex 160.306 4999 6775.35
vertex 199.718 4937 6743.43
endloop
endfacet
facet normal -0.62932 0 -0.777146
outer loop
vertex 199.718 4937 6743.43
vertex 160.306 4999 6775.35
vertex 199.718 4999 6743.43
endloop
endfacet
facet normal -0.544639 0 -0.83867
outer loop
vertex 199.718 4937 6743.43
vertex 199.718 4999 6743.43
vertex 242.25 4937 6715.81
endloop
endfacet
facet normal -0.544639 0 -0.83867
outer loop
vertex 242.25 4937 6715.81
vertex 199.718 4999 6743.43
vertex 242.25 4999 6715.81
endloop
endfacet
facet normal -0.45399 0 -0.891007
outer loop
vertex 242.25 4937 6715.81
vertex 242.25 4999 6715.81
vertex 287.436 4937 6692.79
endloop
endfacet
facet normal -0.45399 0 -0.891007
outer loop
vertex 287.436 4937 6692.79
vertex 242.25 4999 6715.81
vertex 287.436 4999 6692.79
endloop
endfacet
facet normal -0.358371 0 -0.933579
outer loop
vertex 287.436 4937 6692.79
vertex 287.436 4999 6692.79
vertex 334.781 4937 6674.61
endloop
endfacet
facet normal -0.358371 0 -0.933579
outer loop
vertex 334.781 4937 6674.61
vertex 287.436 4999 6692.79
vertex 334.781 4999 6674.61
endloop
endfacet
facet normal -0.258807 0 -0.965929
outer loop
vertex 334.781 4937 6674.61
vertex 334.781 4999 6674.61
vertex 383.767 4937 6661.49
endloop
endfacet
facet normal -0.258807 0 -0.965929
outer loop
vertex 383.767 4937 6661.49
vertex 334.781 4999 6674.61
vertex 383.767 4999 6661.49
endloop
endfacet
facet normal -0.156439 0 -0.987688
outer loop
vertex 383.767 4937 6661.49
vertex 383.767 4999 6661.49
vertex 433.856 4937 6653.55
endloop
endfacet
facet normal -0.156439 0 -0.987688
outer loop
vertex 433.856 4937 6653.55
vertex 383.767 4999 6661.49
vertex 433.856 4999 6653.55
endloop
endfacet
facet normal -0.052339 0 -0.998629
outer loop
vertex 433.856 4937 6653.55
vertex 433.856 4999 6653.55
vertex 484.5 4937 6650.9
endloop
endfacet
facet normal -0.052339 0 -0.998629
outer loop
vertex 484.5 4937 6650.9
vertex 433.856 4999 6653.55
vertex 484.5 4999 6650.9
endloop
endfacet
facet normal 0.052339 0 -0.998629
outer loop
vertex 484.5 4937 6650.9
vertex 484.5 4999 6650.9
vertex 535.144 4937 6653.55
endloop
endfacet
facet normal 0.052339 0 -0.998629
outer loop
vertex 535.144 4937 6653.55
vertex 484.5 4999 6650.9
vertex 535.144 4999 6653.55
endloop
endfacet
facet normal -0.245487 0 -0.9694
outer loop
vertex 515.362 4718 7320.34
vertex 515.362 4999 7320.34
vertex 545.381 4718 7312.74
endloop
endfacet
facet normal -0.245487 0 -0.9694
outer loop
vertex 545.381 4718 7312.74
vertex 515.362 4999 7320.34
vertex 545.381 4999 7312.74
endloop
endfacet
facet normal -0.401683 0 -0.915779
outer loop
vertex 545.381 4718 7312.74
vertex 545.381 4999 7312.74
vertex 573.74 4718 7300.3
endloop
endfacet
facet normal -0.401683 0 -0.915779
outer loop
vertex 573.74 4718 7300.3
vertex 545.381 4999 7312.74
vertex 573.74 4999 7300.3
endloop
endfacet
facet normal -0.54696 0 -0.837159
outer loop
vertex 573.74 4718 7300.3
vertex 573.74 4999 7300.3
vertex 599.665 4718 7283.36
endloop
endfacet
facet normal -0.54696 0 -0.837159
outer loop
vertex 599.665 4718 7283.36
vertex 573.74 4999 7300.3
vertex 599.665 4999 7283.36
endloop
endfacet
facet normal -0.677283 0 -0.735722
outer loop
vertex 599.665 4718 7283.36
vertex 599.665 4999 7283.36
vertex 622.448 4718 7262.39
endloop
endfacet
facet normal -0.677283 0 -0.735722
outer loop
vertex 622.448 4718 7262.39
vertex 599.665 4999 7283.36
vertex 622.448 4999 7262.39
endloop
endfacet
facet normal -0.78914 0 -0.614213
outer loop
vertex 622.448 4718 7262.39
vertex 622.448 4999 7262.39
vertex 641.469 4718 7237.95
endloop
endfacet
facet normal -0.78914 0 -0.614213
outer loop
vertex 641.469 4718 7237.95
vertex 622.448 4999 7262.39
vertex 641.469 4999 7237.95
endloop
endfacet
facet normal -0.879473 0 -0.475949
outer loop
vertex 641.469 4718 7237.95
vertex 641.469 4999 7237.95
vertex 656.208 4718 7210.72
endloop
endfacet
facet normal -0.879473 0 -0.475949
outer loop
vertex 656.208 4718 7210.72
vertex 641.469 4999 7237.95
vertex 656.208 4999 7210.72
endloop
endfacet
facet normal -0.945818 0 -0.324696
outer loop
vertex 656.208 4718 7210.72
vertex 656.208 4999 7210.72
vertex 666.263 4718 7181.43
endloop
endfacet
facet normal -0.945818 0 -0.324696
outer loop
vertex 666.263 4718 7181.43
vertex 656.208 4999 7210.72
vertex 666.263 4999 7181.43
endloop
endfacet
facet normal -0.986361 0 -0.164599
outer loop
vertex 666.263 4718 7181.43
vertex 666.263 4999 7181.43
vertex 671.36 4718 7150.88
endloop
endfacet
facet normal -0.986361 0 -0.164599
outer loop
vertex 671.36 4718 7150.88
vertex 666.263 4999 7181.43
vertex 671.36 4999 7150.88
endloop
endfacet
facet normal -1 0 0
outer loop
vertex 671.36 4718 7150.88
vertex 671.36 4999 7150.88
vertex 671.36 4718 7119.92
endloop
endfacet
facet normal -1 0 0
outer loop
vertex 671.36 4718 7119.92
vertex 671.36 4999 7150.88
vertex 671.36 4999 7119.92
endloop
endfacet
facet normal -0.986361 0 0.164597
outer loop
vertex 671.36 4718 7119.92
vertex 671.36 4999 7119.92
vertex 666.263 4718 7089.37
endloop
endfacet
facet normal -0.986361 0 0.164597
outer loop
vertex 666.263 4718 7089.37
vertex 671.36 4999 7119.92
vertex 666.263 4999 7089.37
endloop
endfacet
facet normal -0.945818 0 0.324696
outer loop
vertex 666.263 4718 7089.37
vertex 666.263 4999 7089.37
vertex 656.208 4718 7060.08
endloop
endfacet
facet normal -0.945818 0 0.324696
outer loop
vertex 656.208 4718 7060.08
vertex 666.263 4999 7089.37
vertex 656.208 4999 7060.08
endloop
endfacet
facet normal -0.879473 0 0.475949
outer loop
vertex 656.208 4718 7060.08
vertex 656.208 4999 7060.08
vertex 641.469 4718 7032.85
endloop
endfacet
facet normal -0.879473 0 0.475949
outer loop
vertex 641.469 4718 7032.85
vertex 656.208 4999 7060.08
vertex 641.469 4999 7032.85
endloop
endfacet
facet normal -0.78914 0 0.614213
outer loop
vertex 641.469 4718 7032.85
vertex 641.469 4999 7032.85
vertex 622.448 4718 7008.41
endloop
endfacet
facet normal -0.78914 0 0.614213
outer loop
vertex 622.448 4718 7008.41
vertex 641.469 4999 7032.85
vertex 622.448 4999 7008.41
endloop
endfacet
facet normal -0.677275 0 0.73573
outer loop
vertex 622.448 4718 7008.41
vertex 622.448 4999 7008.41
vertex 599.665 4718 6987.44
endloop
endfacet
facet normal -0.677275 0 0.73573
outer loop
vertex 599.665 4718 6987.44
vertex 622.448 4999 7008.41
vertex 599.665 4999 6987.44
endloop
endfacet
facet normal -0.54696 0 0.837159
outer loop
vertex 599.665 4718 6987.44
vertex 599.665 4999 6987.44
vertex 573.74 4718 6970.5
endloop
endfacet
facet normal -0.54696 0 0.837159
outer loop
vertex 573.74 4718 6970.5
vertex 599.665 4999 6987.44
vertex 573.74 4999 6970.5
endloop
endfacet
facet normal -0.401696 0 0.915773
outer loop
vertex 573.74 4718 6970.5
vertex 573.74 4999 6970.5
vertex 545.381 4718 6958.06
endloop
endfacet
facet normal -0.401696 0 0.915773
outer loop
vertex 545.381 4718 6958.06
vertex 573.74 4999 6970.5
vertex 545.381 4999 6958.06
endloop
endfacet
facet normal -0.245487 0 0.9694
outer loop
vertex 545.381 4718 6958.06
vertex 545.381 4999 6958.06
vertex 515.362 4718 6950.46
endloop
endfacet
facet normal -0.245487 0 0.9694
outer loop
vertex 515.362 4718 6950.46
vertex 545.381 4999 6958.06
vertex 515.362 4999 6950.46
endloop
endfacet
facet normal -0.0825752 0 0.996585
outer loop
vertex 515.362 4718 6950.46
vertex 515.362 4999 6950.46
vertex 484.5 4718 6947.9
endloop
endfacet
facet normal -0.0825752 0 0.996585
outer loop
vertex 484.5 4718 6947.9
vertex 515.362 4999 6950.46
vertex 484.5 4999 6947.9
endloop
endfacet
facet normal 0.0825752 0 0.996585
outer loop
vertex 484.5 4718 6947.9
vertex 484.5 4999 6947.9
vertex 453.638 4718 6950.46
endloop
endfacet
facet normal 0.0825752 0 0.996585
outer loop
vertex 453.638 4718 6950.46
vertex 484.5 4999 6947.9
vertex 453.638 4999 6950.46
endloop
endfacet
facet normal 0.245487 0 0.9694
outer loop
vertex 453.638 4718 6950.46
vertex 453.638 4999 6950.46
vertex 423.619 4718 6958.06
endloop
endfacet
facet normal 0.245487 0 0.9694
outer loop
vertex 423.619 4718 6958.06
vertex 453.638 4999 6950.46
vertex 423.619 4999 6958.06
endloop
endfacet
facet normal 0.401696 0 0.915773
outer loop
vertex 423.619 4718 6958.06
vertex 423.619 4999 6958.06
vertex 395.26 4718 6970.5
endloop
endfacet
facet normal 0.401696 0 0.915773
outer loop
vertex 395.26 4718 6970.5
vertex 423.619 4999 6958.06
vertex 395.26 4999 6970.5
endloop
endfacet
facet normal 0.54696 0 0.837159
outer loop
vertex 395.26 4718 6970.5
vertex 395.26 4999 6970.5
vertex 369.335 4718 6987.44
endloop
endfacet
facet normal 0.54696 0 0.837159
outer loop
vertex 369.335 4718 6987.44
vertex 395.26 4999 6970.5
vertex 369.335 4999 6987.44
endloop
endfacet
facet normal 0.677275 0 0.73573
outer loop
vertex 369.335 4718 6987.44
vertex 369.335 4999 6987.44
vertex 346.552 4718 7008.41
endloop
endfacet
facet normal 0.677275 0 0.73573
outer loop
vertex 346.552 4718 7008.41
vertex 369.335 4999 6987.44
vertex 346.552 4999 7008.41
endloop
endfacet
facet normal 0.78914 0 0.614213
outer loop
vertex 346.552 4718 7008.41
vertex 346.552 4999 7008.41
vertex 327.531 4718 7032.85
endloop
endfacet
facet normal 0.78914 0 0.614213
outer loop
vertex 327.531 4718 7032.85
vertex 346.552 4999 7008.41
vertex 327.531 4999 7032.85
endloop
endfacet
facet normal 0.879473 0 0.475948
outer loop
vertex 327.531 4718 7032.85
vertex 327.531 4999 7032.85
vertex 312.792 4718 7060.08
endloop
endfacet
facet normal 0.879473 0 0.475948
outer loop
vertex 312.792 4718 7060.08
vertex 327.531 4999 7032.85
vertex 312.792 4999 7060.08
endloop
endfacet
facet normal 0.945818 0 0.324697
outer loop
vertex 312.792 4718 7060.08
vertex 312.792 4999 7060.08
vertex 302.737 4718 7089.37
endloop
endfacet
facet normal 0.945818 0 0.324697
outer loop
vertex 302.737 4718 7089.37
vertex 312.792 4999 7060.08
vertex 302.737 4999 7089.37
endloop
endfacet
facet normal 0.986361 0 0.164596
outer loop
vertex 302.737 4718 7089.37
vertex 302.737 4999 7089.37
vertex 297.64 4718 7119.92
endloop
endfacet
facet normal 0.986361 0 0.164596
outer loop
vertex 297.64 4718 7119.92
vertex 302.737 4999 7089.37
vertex 297.64 4999 7119.92
endloop
endfacet
facet normal 1 0 0
outer loop
vertex 297.64 4718 7119.92
vertex 297.64 4999 7119.92
vertex 297.64 4718 7150.88
endloop
endfacet
facet normal 1 0 0
outer loop
vertex 297.64 4718 7150.88
vertex 297.64 4999 7119.92
vertex 297.64 4999 7150.88
endloop
endfacet
facet normal 0.986361 0 -0.164598
outer loop
vertex 297.64 4718 7150.88
vertex 297.64 4999 7150.88
vertex 302.737 4718 7181.43
endloop
endfacet
facet normal 0.986361 0 -0.164598
outer loop
vertex 302.737 4718 7181.43
vertex 297.64 4999 7150.88
vertex 302.737 4999 7181.43
endloop
endfacet
facet normal 0.945818 0 -0.324697
outer loop
vertex 302.737 4718 7181.43
vertex 302.737 4999 7181.43
vertex 312.792 4718 7210.72
endloop
endfacet
facet normal 0.945818 0 -0.324697
outer loop
vertex 312.792 4718 7210.72
vertex 302.737 4999 7181.43
vertex 312.792 4999 7210.72
endloop
endfacet
facet normal 0.879473 0 -0.475948
outer loop
vertex 312.792 4718 7210.72
vertex 312.792 4999 7210.72
vertex 327.531 4718 7237.95
endloop
endfacet
facet normal 0.879473 0 -0.475948
outer loop
vertex 327.531 4718 7237.95
vertex 312.792 4999 7210.72
vertex 327.531 4999 7237.95
endloop
endfacet
facet normal 0.78914 0 -0.614213
outer loop
vertex 327.531 4718 7237.95
vertex 327.531 4999 7237.95
vertex 346.552 4718 7262.39
endloop
endfacet
facet normal 0.78914 0 -0.614213
outer loop
vertex 346.552 4718 7262.39
vertex 327.531 4999 7237.95
vertex 346.552 4999 7262.39
endloop
endfacet
facet normal 0.677283 0 -0.735722
outer loop
vertex 346.552 4718 7262.39
vertex 346.552 4999 7262.39
vertex 369.335 4718 7283.36
endloop
endfacet
facet normal 0.677283 0 -0.735722
outer loop
vertex 369.335 4718 7283.36
vertex 346.552 4999 7262.39
vertex 369.335 4999 7283.36
endloop
endfacet
facet normal 0.54696 0 -0.837159
outer loop
vertex 369.335 4718 7283.36
vertex 369.335 4999 7283.36
vertex 395.26 4718 7300.3
endloop
endfacet
facet normal 0.54696 0 -0.837159
outer loop
vertex 395.26 4718 7300.3
vertex 369.335 4999 7283.36
vertex 395.26 4999 7300.3
endloop
endfacet
facet normal 0.401683 0 -0.915779
outer loop
vertex 395.26 4718 7300.3
vertex 395.26 4999 7300.3
vertex 423.619 4718 7312.74
endloop
endfacet
facet normal 0.401683 0 -0.915779
outer loop
vertex 423.619 4718 7312.74
vertex 395.26 4999 7300.3
vertex 423.619 4999 7312.74
endloop
endfacet
facet normal 0.245487 0 -0.9694
outer loop
vertex 423.619 4718 7312.74
vertex 423.619 4999 7312.74
vertex 453.638 4718 7320.34
endloop
endfacet
facet normal 0.245487 0 -0.9694
outer loop
vertex 453.638 4718 7320.34
vertex 423.619 4999 7312.74
vertex 453.638 4999 7320.34
endloop
endfacet
facet normal 0.0825752 0 -0.996585
outer loop
vertex 453.638 4718 7320.34
vertex 453.638 4999 7320.34
vertex 484.5 4718 7322.9
endloop
endfacet
facet normal 0.0825752 0 -0.996585
outer loop
vertex 484.5 4718 7322.9
vertex 453.638 4999 7320.34
vertex 484.5 4999 7322.9
endloop
endfacet
facet normal -0.0825752 0 -0.996585
outer loop
vertex 484.5 4718 7322.9
vertex 484.5 4999 7322.9
vertex 515.362 4718 7320.34
endloop
endfacet
facet normal -0.0825752 0 -0.996585
outer loop
vertex 515.362 4718 7320.34
vertex 484.5 4999 7322.9
vertex 515.362 4999 7320.34
endloop
endfacet
facet normal 0 1 0
outer loop
vertex 484.5 4999 7322.9
vertex 453.638 4999 7320.34
vertex 433.856 4999 7617.25
endloop
endfacet
facet normal 0 1 0
outer loop
vertex 395.26 4999 7300.3
vertex 287.436 4999 7578.01
vertex 423.619 4999 7312.74
endloop
endfacet
facet normal 0 1 0
outer loop
vertex 423.619 4999 7312.74
vertex 287.436 4999 7578.01
vertex 334.781 4999 7596.19
endloop
endfacet
facet normal 0 1 0
outer loop
vertex 423.619 4999 7312.74
vertex 334.781 4999 7596.19
vertex 453.638 4999 7320.34
endloop
endfacet
facet normal 0 1 0
outer loop
vertex 453.638 4999 7320.34
vertex 334.781 4999 7596.19
vertex 383.767 4999 7609.31
endloop
endfacet
facet normal 0 1 0
outer loop
vertex 453.638 4999 7320.34
vertex 383.767 4999 7609.31
vertex 433.856 4999 7617.25
endloop
endfacet
facet normal 0 1 0
outer loop
vertex 545.381 4999 7312.74
vertex 681.564 4999 7578.01
vertex 573.74 4999 7300.3
endloop
endfacet
facet normal 0 1 0
outer loop
vertex 573.74 4999 7300.3
vertex 681.564 4999 7578.01
vertex 726.75 4999 7554.99
endloop
endfacet
facet normal 0 1 0
outer loop
vertex 573.74 4999 7300.3
vertex 726.75 4999 7554.99
vertex 599.665 4999 7283.36
endloop
endfacet
facet normal 0 1 0
outer loop
vertex 433.856 4999 7617.25
vertex 484.5 4999 7619.9
vertex 484.5 4999 7322.9
endloop
endfacet
facet normal 0 1 0
outer loop
vertex 484.5 4999 7322.9
vertex 484.5 4999 7619.9
vertex 535.144 4999 7617.25
endloop
endfacet
facet normal 0 1 0
outer loop
vertex 484.5 4999 7322.9
vertex 535.144 4999 7617.25
vertex 515.362 4999 7320.34
endloop
endfacet
facet normal 0 1 0
outer loop
vertex 515.362 4999 7320.34
vertex 535.144 4999 7617.25
vertex 585.233 4999 7609.31
endloop
endfacet
facet normal 0 1 0
outer loop
vertex 515.362 4999 7320.34
vertex 585.233 4999 7609.31
vertex 545.381 4999 7312.74
endloop
endfacet
facet normal 0 1 0
outer loop
vertex 545.381 4999 7312.74
vertex 585.233 4999 7609.31
vertex 634.219 4999 7596.19
endloop
endfacet
facet normal 0 1 0
outer loop
vertex 545.381 4999 7312.74
vertex 634.219 4999 7596.19
vertex 681.564 4999 7578.01
endloop
endfacet
facet normal 0 1 0
outer loop
vertex 312.792 4999 7210.72
vertex 64.9107 4999 7377.65
vertex 327.531 4999 7237.95
endloop
endfacet
facet normal 0 1 0
outer loop
vertex 327.531 4999 7237.95
vertex 64.9107 4999 7377.65
vertex 92.5313 4999 7420.18
endloop
endfacet
facet normal 0 1 0
outer loop
vertex 327.531 4999 7237.95
vertex 92.5313 4999 7420.18
vertex 346.552 4999 7262.39
endloop
endfacet
facet normal 0 1 0
outer loop
vertex 297.64 4999 7119.92
vertex 0 4999 7135.4
vertex 297.64 4999 7150.88
endloop
endfacet
facet normal 0 1 0
outer loop
vertex 297.64 4999 7150.88
vertex 0 4999 7135.4
vertex 2.65414 4999 7186.04
endloop
endfacet
facet normal 0 1 0
outer loop
vertex 297.64 4999 7150.88
vertex 2.65414 4999 7186.04
vertex 302.737 4999 7181.43
endloop
endfacet
facet normal 0 1 0
outer loop
vertex 92.5313 4999 7420.18
vertex 124.446 4999 7459.59
vertex 346.552 4999 7262.39
endloop
endfacet
facet normal 0 1 0
outer loop
vertex 346.552 4999 7262.39
vertex 124.446 4999 7459.59
vertex 160.306 4999 7495.45
endloop
endfacet
facet normal 0 1 0
outer loop
vertex 346.552 4999 7262.39
vertex 160.306 4999 7495.45
vertex 369.335 4999 7283.36
endloop
endfacet
facet normal 0 1 0
outer loop
vertex 369.335 4999 7283.36
vertex 160.306 4999 7495.45
vertex 199.718 4999 7527.37
endloop
endfacet
facet normal 0 1 0
outer loop
vertex 369.335 4999 7283.36
vertex 199.718 4999 7527.37
vertex 395.26 4999 7300.3
endloop
endfacet
facet normal 0 1 0
outer loop
vertex 395.26 4999 7300.3
vertex 199.718 4999 7527.37
vertex 242.25 4999 7554.99
endloop
endfacet
facet normal 0 1 0
outer loop
vertex 395.26 4999 7300.3
vertex 242.25 4999 7554.99
vertex 287.436 4999 7578.01
endloop
endfacet
facet normal 0 1 0
outer loop
vertex 423.619 4999 6958.06
vertex 287.436 4999 6692.79
vertex 395.26 4999 6970.5
endloop
endfacet
facet normal 0 1 0
outer loop
vertex 395.26 4999 6970.5
vertex 287.436 4999 6692.79
vertex 242.25 4999 6715.81
endloop
endfacet
facet normal 0 1 0
outer loop
vertex 395.26 4999 6970.5
vertex 242.25 4999 6715.81
vertex 369.335 4999 6987.44
endloop
endfacet
facet normal 0 1 0
outer loop
vertex 484.5 4999 6947.9
vertex 433.856 4999 6653.55
vertex 453.638 4999 6950.46
endloop
endfacet
facet normal 0 1 0
outer loop
vertex 453.638 4999 6950.46
vertex 433.856 4999 6653.55
vertex 383.767 4999 6661.49
endloop
endfacet
facet normal 0 1 0
outer loop
vertex 453.638 4999 6950.46
vertex 383.767 4999 6661.49
vertex 423.619 4999 6958.06
endloop
endfacet
facet normal 0 1 0
outer loop
vertex 423.619 4999 6958.06
vertex 383.767 4999 6661.49
vertex 334.781 4999 6674.61
endloop
endfacet
facet normal 0 1 0
outer loop
vertex 423.619 4999 6958.06
vertex 334.781 4999 6674.61
vertex 287.436 4999 6692.79
endloop
endfacet
facet normal 0 1 0
outer loop
vertex 515.362 4999 6950.46
vertex 535.144 4999 6653.55
vertex 484.5 4999 6947.9
endloop
endfacet
facet normal 0 1 0
outer loop
vertex 484.5 4999 6947.9
vertex 535.144 4999 6653.55
vertex 484.5 4999 6650.9
endloop
endfacet
facet normal 0 1 0
outer loop
vertex 484.5 4999 6947.9
vertex 484.5 4999 6650.9
vertex 433.856 4999 6653.55
endloop
endfacet
facet normal 0 1 0
outer loop
vertex 656.208 4999 7060.08
vertex 904.089 4999 6893.15
vertex 641.469 4999 7032.85
endloop
endfacet
facet normal 0 1 0
outer loop
vertex 641.469 4999 7032.85
vertex 904.089 4999 6893.15
vertex 876.469 4999 6850.62
endloop
endfacet
facet normal 0 1 0
outer loop
vertex 641.469 4999 7032.85
vertex 876.469 4999 6850.62
vertex 622.448 4999 7008.41
endloop
endfacet
facet normal 0 1 0
outer loop
vertex 656.208 4999 7210.72
vertex 641.469 4999 7237.95
vertex 904.089 4999 7377.65
endloop
endfacet
facet normal 0 1 0
outer loop
vertex 2.65414 4999 7186.04
vertex 10.5875 4999 7236.13
vertex 302.737 4999 7181.43
endloop
endfacet
facet normal 0 1 0
outer loop
vertex 302.737 4999 7181.43
vertex 10.5875 4999 7236.13
vertex 23.7131 4999 7285.12
endloop
endfacet
facet normal 0 1 0
outer loop
vertex 302.737 4999 7181.43
vertex 23.7131 4999 7285.12
vertex 312.792 4999 7210.72
endloop
endfacet
facet normal 0 1 0
outer loop
vertex 312.792 4999 7210.72
vertex 23.7131 4999 7285.12
vertex 41.8872 4999 7332.46
endloop
endfacet
facet normal 0 1 0
outer loop
vertex 312.792 4999 7210.72
vertex 41.8872 4999 7332.46
vertex 64.9107 4999 7377.65
endloop
endfacet
facet normal 0 1 0
outer loop
vertex 312.792 4999 7060.08
vertex 23.7131 4999 6985.68
vertex 302.737 4999 7089.37
endloop
endfacet
facet normal 0 1 0
outer loop
vertex 302.737 4999 7089.37
vertex 23.7131 4999 6985.68
vertex 10.5875 4999 7034.67
endloop
endfacet
facet normal 0 1 0
outer loop
vertex 302.737 4999 7089.37
vertex 10.5875 4999 7034.67
vertex 297.64 4999 7119.92
endloop
endfacet
facet normal 0 1 0
outer loop
vertex 297.64 4999 7119.92
vertex 10.5875 4999 7034.67
vertex 2.65414 4999 7084.76
endloop
endfacet
facet normal 0 1 0
outer loop
vertex 297.64 4999 7119.92
vertex 2.65414 4999 7084.76
vertex 0 4999 7135.4
endloop
endfacet
facet normal 0 1 0
outer loop
vertex 327.531 4999 7032.85
vertex 64.9107 4999 6893.15
vertex 312.792 4999 7060.08
endloop
endfacet
facet normal 0 1 0
outer loop
vertex 312.792 4999 7060.08
vertex 64.9107 4999 6893.15
vertex 41.8872 4999 6938.34
endloop
endfacet
facet normal 0 1 0
outer loop
vertex 312.792 4999 7060.08
vertex 41.8872 4999 6938.34
vertex 23.7131 4999 6985.68
endloop
endfacet
facet normal 0 1 0
outer loop
vertex 573.74 4999 6970.5
vertex 681.564 4999 6692.79
vertex 545.381 4999 6958.06
endloop
endfacet
facet normal 0 1 0
outer loop
vertex 545.381 4999 6958.06
vertex 681.564 4999 6692.79
vertex 634.219 4999 6674.61
endloop
endfacet
facet normal 0 1 0
outer loop
vertex 545.381 4999 6958.06
vertex 634.219 4999 6674.61
vertex 515.362 4999 6950.46
endloop
endfacet
facet normal 0 1 0
outer loop
vertex 515.362 4999 6950.46
vertex 634.219 4999 6674.61
vertex 585.233 4999 6661.49
endloop
endfacet
facet normal 0 1 0
outer loop
vertex 515.362 4999 6950.46
vertex 585.233 4999 6661.49
vertex 535.144 4999 6653.55
endloop
endfacet
facet normal 0 1 0
outer loop
vertex 876.469 4999 6850.62
vertex 844.554 4999 6811.21
vertex 622.448 4999 7008.41
endloop
endfacet
facet normal 0 1 0
outer loop
vertex 622.448 4999 7008.41
vertex 844.554 4999 6811.21
vertex 808.694 4999 6775.35
endloop
endfacet
facet normal 0 1 0
outer loop
vertex 622.448 4999 7008.41
vertex 808.694 4999 6775.35
vertex 599.665 4999 6987.44
endloop
endfacet
facet normal 0 1 0
outer loop
vertex 599.665 4999 6987.44
vertex 808.694 4999 6775.35
vertex 769.282 4999 6743.43
endloop
endfacet
facet normal 0 1 0
outer loop
vertex 599.665 4999 6987.44
vertex 769.282 4999 6743.43
vertex 573.74 4999 6970.5
endloop
endfacet
facet normal 0 1 0
outer loop
vertex 573.74 4999 6970.5
vertex 769.282 4999 6743.43
vertex 726.75 4999 6715.81
endloop
endfacet
facet normal 0 1 0
outer loop
vertex 573.74 4999 6970.5
vertex 726.75 4999 6715.81
vertex 681.564 4999 6692.79
endloop
endfacet
facet normal 0 1 0
outer loop
vertex 242.25 4999 6715.81
vertex 199.718 4999 6743.43
vertex 369.335 4999 6987.44
endloop
endfacet
facet normal 0 1 0
outer loop
vertex 369.335 4999 6987.44
vertex 199.718 4999 6743.43
vertex 160.306 4999 6775.35
endloop
endfacet
facet normal 0 1 0
outer loop
vertex 369.335 4999 6987.44
vertex 160.306 4999 6775.35
vertex 346.552 4999 7008.41
endloop
endfacet
facet normal 0 1 0
outer loop
vertex 346.552 4999 7008.41
vertex 160.306 4999 6775.35
vertex 124.446 4999 6811.21
endloop
endfacet
facet normal 0 1 0
outer loop
vertex 346.552 4999 7008.41
vertex 124.446 4999 6811.21
vertex 327.531 4999 7032.85
endloop
endfacet
facet normal 0 1 0
outer loop
vertex 327.531 4999 7032.85
vertex 124.446 4999 6811.21
vertex 92.5313 4999 6850.62
endloop
endfacet
facet normal 0 1 0
outer loop
vertex 327.531 4999 7032.85
vertex 92.5313 4999 6850.62
vertex 64.9107 4999 6893.15
endloop
endfacet
facet normal 0 1 0
outer loop
vertex 726.75 4999 7554.99
vertex 769.282 4999 7527.37
vertex 599.665 4999 7283.36
endloop
endfacet
facet normal 0 1 0
outer loop
vertex 599.665 4999 7283.36
vertex 769.282 4999 7527.37
vertex 808.694 4999 7495.45
endloop
endfacet
facet normal 0 1 0
outer loop
vertex 599.665 4999 7283.36
vertex 808.694 4999 7495.45
vertex 622.448 4999 7262.39
endloop
endfacet
facet normal 0 1 0
outer loop
vertex 622.448 4999 7262.39
vertex 808.694 4999 7495.45
vertex 844.554 4999 7459.59
endloop
endfacet
facet normal 0 1 0
outer loop
vertex 622.448 4999 7262.39
vertex 844.554 4999 7459.59
vertex 641.469 4999 7237.95
endloop
endfacet
facet normal 0 1 0
outer loop
vertex 641.469 4999 7237.95
vertex 844.554 4999 7459.59
vertex 876.469 4999 7420.18
endloop
endfacet
facet normal 0 1 0
outer loop
vertex 641.469 4999 7237.95
vertex 876.469 4999 7420.18
vertex 904.089 4999 7377.65
endloop
endfacet
facet normal 0 1 0
outer loop
vertex 666.263 4999 7089.37
vertex 945.287 4999 6985.68
vertex 656.208 4999 7060.08
endloop
endfacet
facet normal 0 1 0
outer loop
vertex 656.208 4999 7060.08
vertex 945.287 4999 6985.68
vertex 927.113 4999 6938.34
endloop
endfacet
facet normal 0 1 0
outer loop
vertex 656.208 4999 7060.08
vertex 927.113 4999 6938.34
vertex 904.089 4999 6893.15
endloop
endfacet
facet normal 0 1 0
outer loop
vertex 671.36 4999 7150.88
vertex 969 4999 7135.4
vertex 671.36 4999 7119.92
endloop
endfacet
facet normal 0 1 0
outer loop
vertex 671.36 4999 7119.92
vertex 969 4999 7135.4
vertex 966.346 4999 7084.76
endloop
endfacet
facet normal 0 1 0
outer loop
vertex 671.36 4999 7119.92
vertex 966.346 4999 7084.76
vertex 666.263 4999 7089.37
endloop
endfacet
facet normal 0 1 0
outer loop
vertex 666.263 4999 7089.37
vertex 966.346 4999 7084.76
vertex 958.413 4999 7034.67
endloop
endfacet
facet normal 0 1 0
outer loop
vertex 666.263 4999 7089.37
vertex 958.413 4999 7034.67
vertex 945.287 4999 6985.68
endloop
endfacet
facet normal 0 1 0
outer loop
vertex 904.089 4999 7377.65
vertex 927.113 4999 7332.46
vertex 656.208 4999 7210.72
endloop
endfacet
facet normal 0 1 0
outer loop
vertex 656.208 4999 7210.72
vertex 927.113 4999 7332.46
vertex 945.287 4999 7285.12
endloop
endfacet
facet normal 0 1 0
outer loop
vertex 656.208 4999 7210.72
vertex 945.287 4999 7285.12
vertex 666.263 4999 7181.43
endloop
endfacet
facet normal 0 1 0
outer loop
vertex 666.263 4999 7181.43
vertex 945.287 4999 7285.12
vertex 958.413 4999 7236.13
endloop
endfacet
facet normal 0 1 0
outer loop
vertex 666.263 4999 7181.43
vertex 958.413 4999 7236.13
vertex 671.36 4999 7150.88
endloop
endfacet
facet normal 0 1 0
outer loop
vertex 671.36 4999 7150.88
vertex 958.413 4999 7236.13
vertex 966.346 4999 7186.04
endloop
endfacet
facet normal 0 1 0
outer loop
vertex 671.36 4999 7150.88
vertex 966.346 4999 7186.04
vertex 969 4999 7135.4
endloop
endfacet
endsolid
