solid C:\Temp\NOELParts\s418fr7p28ld.STL created by CtrlView V2.70
facet normal 0.170523 0 -0.985354
outer loop
vertex 162.249 23 23.8148
vertex 162.249 93.7 23.8148
vertex 176.312 23 26.2485
endloop
endfacet
facet normal 0.170523 0 -0.985354
outer loop
vertex 176.312 23 26.2485
vertex 162.249 93.7 23.8148
vertex 176.312 93.7 26.2485
endloop
endfacet
facet normal 0.281733 0 -0.959493
outer loop
vertex 176.312 23 26.2485
vertex 176.312 93.7 26.2485
vertex 190.006 23 30.2695
endloop
endfacet
facet normal 0.281733 0 -0.959493
outer loop
vertex 190.006 23 30.2695
vertex 176.312 93.7 26.2485
vertex 190.006 93.7 30.2695
endloop
endfacet
facet normal 0.389269 0 -0.921124
outer loop
vertex 190.006 23 30.2695
vertex 190.006 93.7 30.2695
vertex 203.153 23 35.8252
endloop
endfacet
facet normal 0.389269 0 -0.921124
outer loop
vertex 203.153 23 35.8252
vertex 190.006 93.7 30.2695
vertex 203.153 93.7 35.8252
endloop
endfacet
facet normal 0.491733 0 -0.870746
outer loop
vertex 203.153 23 35.8252
vertex 203.153 93.7 35.8252
vertex 215.58 23 42.8433
endloop
endfacet
facet normal 0.491733 0 -0.870746
outer loop
vertex 215.58 23 42.8433
vertex 203.153 93.7 35.8252
vertex 215.58 93.7 42.8433
endloop
endfacet
facet normal 0.587785 0 -0.809017
outer loop
vertex 215.58 23 42.8433
vertex 215.58 93.7 42.8433
vertex 227.127 23 51.2323
endloop
endfacet
facet normal 0.587785 0 -0.809017
outer loop
vertex 227.127 23 51.2323
vertex 215.58 93.7 42.8433
vertex 227.127 93.7 51.2323
endloop
endfacet
facet normal 0.676175 0 -0.736741
outer loop
vertex 227.127 23 51.2323
vertex 227.127 93.7 51.2323
vertex 237.641 23 60.8828
endloop
endfacet
facet normal 0.676175 0 -0.736741
outer loop
vertex 237.641 23 60.8828
vertex 227.127 93.7 51.2323
vertex 237.641 93.7 60.8828
endloop
endfacet
facet normal 0.755749 0 -0.654861
outer loop
vertex 237.641 23 60.8828
vertex 237.641 93.7 60.8828
vertex 246.988 23 71.669
endloop
endfacet
facet normal 0.755749 0 -0.654861
outer loop
vertex 246.988 23 71.669
vertex 237.641 93.7 60.8828
vertex 246.988 93.7 71.669
endloop
endfacet
facet normal 0.825472 0 -0.564443
outer loop
vertex 246.988 23 71.669
vertex 246.988 93.7 71.669
vertex 255.044 23 83.4503
endloop
endfacet
facet normal 0.825472 0 -0.564443
outer loop
vertex 255.044 23 83.4503
vertex 246.988 93.7 71.669
vertex 255.044 93.7 83.4503
endloop
endfacet
facet normal 0.884432 0 -0.466668
outer loop
vertex 255.044 23 83.4503
vertex 255.044 93.7 83.4503
vertex 261.704 23 96.0731
endloop
endfacet
facet normal 0.884432 0 -0.466668
outer loop
vertex 261.704 23 96.0731
vertex 255.044 93.7 83.4503
vertex 261.704 93.7 96.0731
endloop
endfacet
facet normal 0.931865 0 -0.362806
outer loop
vertex 261.704 23 96.0731
vertex 261.704 93.7 96.0731
vertex 266.882 23 109.373
endloop
endfacet
facet normal 0.931865 0 -0.362806
outer loop
vertex 266.882 23 109.373
vertex 261.704 93.7 96.0731
vertex 266.882 93.7 109.373
endloop
endfacet
facet normal 0.967147 0 -0.254219
outer loop
vertex 266.882 23 109.373
vertex 266.882 93.7 109.373
vertex 270.51 23 123.176
endloop
endfacet
facet normal 0.967147 0 -0.254219
outer loop
vertex 270.51 23 123.176
vertex 266.882 93.7 109.373
vertex 270.51 93.7 123.176
endloop
endfacet
facet normal 0.989821 0 -0.142316
outer loop
vertex 270.51 23 123.176
vertex 270.51 93.7 123.176
vertex 272.541 23 137.303
endloop
endfacet
facet normal 0.989821 0 -0.142316
outer loop
vertex 272.541 23 137.303
vertex 270.51 93.7 123.176
vertex 272.541 93.7 137.303
endloop
endfacet
facet normal 0.999592 0 -0.0285564
outer loop
vertex 272.541 23 137.303
vertex 272.541 93.7 137.303
vertex 272.949 23 151.57
endloop
endfacet
facet normal 0.999592 0 -0.0285564
outer loop
vertex 272.949 23 151.57
vertex 272.541 93.7 137.303
vertex 272.949 93.7 151.57
endloop
endfacet
facet normal 0.996332 0 0.0855751
outer loop
vertex 272.949 23 151.57
vertex 272.949 93.7 151.57
vertex 271.728 23 165.789
endloop
endfacet
facet normal 0.996332 0 0.0855751
outer loop
vertex 271.728 23 165.789
vertex 272.949 93.7 151.57
vertex 271.728 93.7 165.789
endloop
endfacet
facet normal 0.980083 0 0.19859
outer loop
vertex 271.728 23 165.789
vertex 271.728 93.7 165.789
vertex 268.893 23 179.777
endloop
endfacet
facet normal 0.980083 0 0.19859
outer loop
vertex 268.893 23 179.777
vertex 271.728 93.7 165.789
vertex 268.893 93.7 179.777
endloop
endfacet
facet normal 0.951056 0 0.309018
outer loop
vertex 268.893 23 179.777
vertex 268.893 93.7 179.777
vertex 264.483 23 193.351
endloop
endfacet
facet normal 0.951056 0 0.309018
outer loop
vertex 264.483 23 193.351
vertex 268.893 93.7 179.777
vertex 264.483 93.7 193.351
endloop
endfacet
facet normal 0.909632 0 0.415415
outer loop
vertex 264.483 23 193.351
vertex 264.483 93.7 193.351
vertex 258.554 23 206.333
endloop
endfacet
facet normal 0.909632 0 0.415415
outer loop
vertex 258.554 23 206.333
vertex 264.483 93.7 193.351
vertex 258.554 93.7 206.333
endloop
endfacet
facet normal 0.856349 0 0.516397
outer loop
vertex 258.554 23 206.333
vertex 258.554 93.7 206.333
vertex 251.184 23 218.555
endloop
endfacet
facet normal 0.856349 0 0.516397
outer loop
vertex 251.184 23 218.555
vertex 258.554 93.7 206.333
vertex 251.184 93.7 218.555
endloop
endfacet
facet normal 0.791902 0 0.610648
outer loop
vertex 251.184 23 218.555
vertex 251.184 93.7 218.555
vertex 242.469 23 229.858
endloop
endfacet
facet normal 0.791902 0 0.610648
outer loop
vertex 242.469 23 229.858
vertex 251.184 93.7 218.555
vertex 242.469 93.7 229.858
endloop
endfacet
facet normal 0.717132 0 0.696938
outer loop
vertex 242.469 23 229.858
vertex 242.469 93.7 229.858
vertex 232.522 23 240.093
endloop
endfacet
facet normal 0.717132 0 0.696938
outer loop
vertex 232.522 23 240.093
vertex 242.469 93.7 229.858
vertex 232.522 93.7 240.093
endloop
endfacet
facet normal 0.633013 0 0.774142
outer loop
vertex 232.522 23 240.093
vertex 232.522 93.7 240.093
vertex 221.473 23 249.127
endloop
endfacet
facet normal 0.633013 0 0.774142
outer loop
vertex 221.473 23 249.127
vertex 232.522 93.7 240.093
vertex 221.473 93.7 249.127
endloop
endfacet
facet normal 0.540641 0 0.841253
outer loop
vertex 221.473 23 249.127
vertex 221.473 93.7 249.127
vertex 209.467 23 256.843
endloop
endfacet
facet normal 0.540641 0 0.841253
outer loop
vertex 209.467 23 256.843
vertex 221.473 93.7 249.127
vertex 209.467 93.7 256.843
endloop
endfacet
facet normal 0.44122 0 0.897399
outer loop
vertex 209.467 23 256.843
vertex 209.467 93.7 256.843
vertex 196.659 23 263.14
endloop
endfacet
facet normal 0.44122 0 0.897399
outer loop
vertex 196.659 23 263.14
vertex 209.467 93.7 256.843
vertex 196.659 93.7 263.14
endloop
endfacet
facet normal 0.33605 0 0.941844
outer loop
vertex 196.659 23 263.14
vertex 196.659 93.7 263.14
vertex 183.217 23 267.937
endloop
endfacet
facet normal 0.33605 0 0.941844
outer loop
vertex 183.217 23 267.937
vertex 196.659 93.7 263.14
vertex 183.217 93.7 267.937
endloop
endfacet
facet normal 0.226499 0 0.974011
outer loop
vertex 183.217 23 267.937
vertex 183.217 93.7 267.937
vertex 169.315 23 271.169
endloop
endfacet
facet normal 0.226499 0 0.974011
outer loop
vertex 169.315 23 271.169
vertex 183.217 93.7 267.937
vertex 169.315 93.7 271.169
endloop
endfacet
facet normal 0.11399 0 0.993482
outer loop
vertex 169.315 23 271.169
vertex 169.315 93.7 271.169
vertex 155.136 23 272.796
endloop
endfacet
facet normal 0.11399 0 0.993482
outer loop
vertex 155.136 23 272.796
vertex 169.315 93.7 271.169
vertex 155.136 93.7 272.796
endloop
endfacet
facet normal 0 0 1
outer loop
vertex 155.136 23 272.796
vertex 155.136 93.7 272.796
vertex 140.864 23 272.796
endloop
endfacet
facet normal 0 0 1
outer loop
vertex 140.864 23 272.796
vertex 155.136 93.7 272.796
vertex 140.864 93.7 272.796
endloop
endfacet
facet normal -0.11399 0 0.993482
outer loop
vertex 140.864 23 272.796
vertex 140.864 93.7 272.796
vertex 126.685 23 271.169
endloop
endfacet
facet normal -0.11399 0 0.993482
outer loop
vertex 126.685 23 271.169
vertex 140.864 93.7 272.796
vertex 126.685 93.7 271.169
endloop
endfacet
facet normal -0.226499 0 0.974011
outer loop
vertex 126.685 23 271.169
vertex 126.685 93.7 271.169
vertex 112.783 23 267.937
endloop
endfacet
facet normal -0.226499 0 0.974011
outer loop
vertex 112.783 23 267.937
vertex 126.685 93.7 271.169
vertex 112.783 93.7 267.937
endloop
endfacet
facet normal -0.33605 0 0.941844
outer loop
vertex 112.783 23 267.937
vertex 112.783 93.7 267.937
vertex 99.3412 23 263.14
endloop
endfacet
facet normal -0.33605 0 0.941844
outer loop
vertex 99.3412 23 263.14
vertex 112.783 93.7 267.937
vertex 99.3412 93.7 263.14
endloop
endfacet
facet normal -0.44122 0 0.897399
outer loop
vertex 99.3412 23 263.14
vertex 99.3412 93.7 263.14
vertex 86.5334 23 256.843
endloop
endfacet
facet normal -0.44122 0 0.897399
outer loop
vertex 86.5334 23 256.843
vertex 99.3412 93.7 263.14
vertex 86.5334 93.7 256.843
endloop
endfacet
facet normal -0.540641 0 0.841253
outer loop
vertex 86.5334 23 256.843
vertex 86.5334 93.7 256.843
vertex 74.5268 23 249.127
endloop
endfacet
facet normal -0.540641 0 0.841253
outer loop
vertex 74.5268 23 249.127
vertex 86.5334 93.7 256.843
vertex 74.5268 93.7 249.127
endloop
endfacet
facet normal -0.633013 0 0.774142
outer loop
vertex 74.5268 23 249.127
vertex 74.5268 93.7 249.127
vertex 63.4781 23 240.093
endloop
endfacet
facet normal -0.633013 0 0.774142
outer loop
vertex 63.4781 23 240.093
vertex 74.5268 93.7 249.127
vertex 63.4781 93.7 240.093
endloop
endfacet
facet normal -0.717132 0 0.696938
outer loop
vertex 63.4781 23 240.093
vertex 63.4781 93.7 240.093
vertex 53.5313 23 229.858
endloop
endfacet
facet normal -0.717132 0 0.696938
outer loop
vertex 53.5313 23 229.858
vertex 63.4781 93.7 240.093
vertex 53.5313 93.7 229.858
endloop
endfacet
facet normal -0.791902 0 0.610648
outer loop
vertex 53.5313 23 229.858
vertex 53.5313 93.7 229.858
vertex 44.816 23 218.555
endloop
endfacet
facet normal -0.791902 0 0.610648
outer loop
vertex 44.816 23 218.555
vertex 53.5313 93.7 229.858
vertex 44.816 93.7 218.555
endloop
endfacet
facet normal -0.856349 0 0.516397
outer loop
vertex 44.816 23 218.555
vertex 44.816 93.7 218.555
vertex 37.4459 23 206.333
endloop
endfacet
facet normal -0.856349 0 0.516397
outer loop
vertex 37.4459 23 206.333
vertex 44.816 93.7 218.555
vertex 37.4459 93.7 206.333
endloop
endfacet
facet normal -0.909632 0 0.415415
outer loop
vertex 37.4459 23 206.333
vertex 37.4459 93.7 206.333
vertex 31.517 23 193.351
endloop
endfacet
facet normal -0.909632 0 0.415415
outer loop
vertex 31.517 23 193.351
vertex 37.4459 93.7 206.333
vertex 31.517 93.7 193.351
endloop
endfacet
facet normal -0.951057 0 0.309017
outer loop
vertex 31.517 23 193.351
vertex 31.517 93.7 193.351
vertex 27.1066 23 179.777
endloop
endfacet
facet normal -0.951057 0 0.309017
outer loop
vertex 27.1066 23 179.777
vertex 31.517 93.7 193.351
vertex 27.1066 93.7 179.777
endloop
endfacet
facet normal -0.980083 0 0.19859
outer loop
vertex 27.1066 23 179.777
vertex 27.1066 93.7 179.777
vertex 24.2723 23 165.789
endloop
endfacet
facet normal -0.980083 0 0.19859
outer loop
vertex 24.2723 23 165.789
vertex 27.1066 93.7 179.777
vertex 24.2723 93.7 165.789
endloop
endfacet
facet normal -0.996332 0 0.0855751
outer loop
vertex 24.2723 23 165.789
vertex 24.2723 93.7 165.789
vertex 23.051 23 151.57
endloop
endfacet
facet normal -0.996332 0 0.0855751
outer loop
vertex 23.051 23 151.57
vertex 24.2723 93.7 165.789
vertex 23.051 93.7 151.57
endloop
endfacet
facet normal -0.999592 0 -0.028556
outer loop
vertex 23.051 23 151.57
vertex 23.051 93.7 151.57
vertex 23.4585 23 137.303
endloop
endfacet
facet normal -0.999592 0 -0.028556
outer loop
vertex 23.4585 23 137.303
vertex 23.051 93.7 151.57
vertex 23.4585 93.7 137.303
endloop
endfacet
facet normal -0.989821 0 -0.142315
outer loop
vertex 23.4585 23 137.303
vertex 23.4585 93.7 137.303
vertex 25.4897 23 123.176
endloop
endfacet
facet normal -0.989821 0 -0.142315
outer loop
vertex 25.4897 23 123.176
vertex 23.4585 93.7 137.303
vertex 25.4897 93.7 123.176
endloop
endfacet
facet normal -0.967147 0 -0.254219
outer loop
vertex 25.4897 23 123.176
vertex 25.4897 93.7 123.176
vertex 29.1179 23 109.373
endloop
endfacet
facet normal -0.967147 0 -0.254219
outer loop
vertex 29.1179 23 109.373
vertex 25.4897 93.7 123.176
vertex 29.1179 93.7 109.373
endloop
endfacet
facet normal -0.931864 0 -0.362807
outer loop
vertex 29.1179 23 109.373
vertex 29.1179 93.7 109.373
vertex 34.296 23 96.0731
endloop
endfacet
facet normal -0.931864 0 -0.362807
outer loop
vertex 34.296 23 96.0731
vertex 29.1179 93.7 109.373
vertex 34.296 93.7 96.0731
endloop
endfacet
facet normal -0.884433 0 -0.466668
outer loop
vertex 34.296 23 96.0731
vertex 34.296 93.7 96.0731
vertex 40.9564 23 83.4503
endloop
endfacet
facet normal -0.884433 0 -0.466668
outer loop
vertex 40.9564 23 83.4503
vertex 34.296 93.7 96.0731
vertex 40.9564 93.7 83.4503
endloop
endfacet
facet normal -0.825472 0 -0.564443
outer loop
vertex 40.9564 23 83.4503
vertex 40.9564 93.7 83.4503
vertex 49.0122 23 71.669
endloop
endfacet
facet normal -0.825472 0 -0.564443
outer loop
vertex 49.0122 23 71.669
vertex 40.9564 93.7 83.4503
vertex 49.0122 93.7 71.669
endloop
endfacet
facet normal -0.75575 0 -0.654861
outer loop
vertex 49.0122 23 71.669
vertex 49.0122 93.7 71.669
vertex 58.3585 23 60.8828
endloop
endfacet
facet normal -0.75575 0 -0.654861
outer loop
vertex 58.3585 23 60.8828
vertex 49.0122 93.7 71.669
vertex 58.3585 93.7 60.8828
endloop
endfacet
facet normal -0.676175 0 -0.736741
outer loop
vertex 58.3585 23 60.8828
vertex 58.3585 93.7 60.8828
vertex 68.8734 23 51.2323
endloop
endfacet
facet normal -0.676175 0 -0.736741
outer loop
vertex 68.8734 23 51.2323
vertex 58.3585 93.7 60.8828
vertex 68.8734 93.7 51.2323
endloop
endfacet
facet normal -0.587785 0 -0.809017
outer loop
vertex 68.8734 23 51.2323
vertex 68.8734 93.7 51.2323
vertex 80.4199 23 42.8433
endloop
endfacet
facet normal -0.587785 0 -0.809017
outer loop
vertex 80.4199 23 42.8433
vertex 68.8734 93.7 51.2323
vertex 80.4199 93.7 42.8433
endloop
endfacet
facet normal -0.491733 0 -0.870746
outer loop
vertex 80.4199 23 42.8433
vertex 80.4199 93.7 42.8433
vertex 92.8474 23 35.8252
endloop
endfacet
facet normal -0.491733 0 -0.870746
outer loop
vertex 92.8474 23 35.8252
vertex 80.4199 93.7 42.8433
vertex 92.8474 93.7 35.8252
endloop
endfacet
facet normal -0.38927 0 -0.921124
outer loop
vertex 92.8474 23 35.8252
vertex 92.8474 93.7 35.8252
vertex 105.994 23 30.2695
endloop
endfacet
facet normal -0.38927 0 -0.921124
outer loop
vertex 105.994 23 30.2695
vertex 92.8474 93.7 35.8252
vertex 105.994 93.7 30.2695
endloop
endfacet
facet normal -0.281733 0 -0.959493
outer loop
vertex 105.994 23 30.2695
vertex 105.994 93.7 30.2695
vertex 119.688 23 26.2485
endloop
endfacet
facet normal -0.281733 0 -0.959493
outer loop
vertex 119.688 23 26.2485
vertex 105.994 93.7 30.2695
vertex 119.688 93.7 26.2485
endloop
endfacet
facet normal -0.170522 0 -0.985354
outer loop
vertex 119.688 23 26.2485
vertex 119.688 93.7 26.2485
vertex 133.751 23 23.8148
endloop
endfacet
facet normal -0.170522 0 -0.985354
outer loop
vertex 133.751 23 23.8148
vertex 119.688 93.7 26.2485
vertex 133.751 93.7 23.8148
endloop
endfacet
facet normal -0.0570887 0 -0.998369
outer loop
vertex 133.751 23 23.8148
vertex 133.751 93.7 23.8148
vertex 148 23 23
endloop
endfacet
facet normal -0.0570887 0 -0.998369
outer loop
vertex 148 23 23
vertex 133.751 93.7 23.8148
vertex 148 93.7 23
endloop
endfacet
facet normal 0.0570887 0 -0.998369
outer loop
vertex 148 23 23
vertex 148 93.7 23
vertex 162.249 23 23.8148
endloop
endfacet
facet normal 0.0570887 0 -0.998369
outer loop
vertex 162.249 23 23.8148
vertex 148 93.7 23
vertex 162.249 93.7 23.8148
endloop
endfacet
facet normal 0 1 0
outer loop
vertex 153.029 93.7 210.297
vertex 169.315 93.7 271.169
vertex 162.957 93.7 208.684
endloop
endfacet
facet normal 0 1 0
outer loop
vertex 162.957 93.7 208.684
vertex 169.315 93.7 271.169
vertex 183.217 93.7 267.937
endloop
endfacet
facet normal 0 1 0
outer loop
vertex 162.957 93.7 208.684
vertex 183.217 93.7 267.937
vertex 172.498 93.7 205.499
endloop
endfacet
facet normal 0 1 0
outer loop
vertex 172.498 93.7 205.499
vertex 183.217 93.7 267.937
vertex 196.659 93.7 263.14
endloop
endfacet
facet normal 0 1 0
outer loop
vertex 172.498 93.7 205.499
vertex 196.659 93.7 263.14
vertex 181.404 93.7 200.824
endloop
endfacet
facet normal 0 1 0
outer loop
vertex 196.413 93.7 187.528
vertex 251.184 93.7 218.555
vertex 202.127 93.7 179.25
endloop
endfacet
facet normal 0 1 0
outer loop
vertex 202.127 93.7 179.25
vertex 251.184 93.7 218.555
vertex 258.554 93.7 206.333
endloop
endfacet
facet normal 0 1 0
outer loop
vertex 202.127 93.7 179.25
vertex 258.554 93.7 206.333
vertex 206.439 93.7 170.163
endloop
endfacet
facet normal 0 1 0
outer loop
vertex 206.439 93.7 170.163
vertex 258.554 93.7 206.333
vertex 264.483 93.7 193.351
endloop
endfacet
facet normal 0 1 0
outer loop
vertex 206.439 93.7 170.163
vertex 264.483 93.7 193.351
vertex 209.237 93.7 160.502
endloop
endfacet
facet normal 0 1 0
outer loop
vertex 196.659 93.7 263.14
vertex 209.467 93.7 256.843
vertex 181.404 93.7 200.824
endloop
endfacet
facet normal 0 1 0
outer loop
vertex 181.404 93.7 200.824
vertex 209.467 93.7 256.843
vertex 221.473 93.7 249.127
endloop
endfacet
facet normal 0 1 0
outer loop
vertex 181.404 93.7 200.824
vertex 221.473 93.7 249.127
vertex 189.445 93.7 194.782
endloop
endfacet
facet normal 0 1 0
outer loop
vertex 189.445 93.7 194.782
vertex 221.473 93.7 249.127
vertex 232.522 93.7 240.093
endloop
endfacet
facet normal 0 1 0
outer loop
vertex 189.445 93.7 194.782
vertex 232.522 93.7 240.093
vertex 196.413 93.7 187.528
endloop
endfacet
facet normal 0 1 0
outer loop
vertex 196.413 93.7 187.528
vertex 232.522 93.7 240.093
vertex 242.469 93.7 229.858
endloop
endfacet
facet normal 0 1 0
outer loop
vertex 196.413 93.7 187.528
vertex 242.469 93.7 229.858
vertex 251.184 93.7 218.555
endloop
endfacet
facet normal 0 1 0
outer loop
vertex 133.043 93.7 208.684
vertex 126.685 93.7 271.169
vertex 142.971 93.7 210.297
endloop
endfacet
facet normal 0 1 0
outer loop
vertex 142.971 93.7 210.297
vertex 126.685 93.7 271.169
vertex 140.864 93.7 272.796
endloop
endfacet
facet normal 0 1 0
outer loop
vertex 142.971 93.7 210.297
vertex 140.864 93.7 272.796
vertex 153.029 93.7 210.297
endloop
endfacet
facet normal 0 1 0
outer loop
vertex 153.029 93.7 210.297
vertex 140.864 93.7 272.796
vertex 155.136 93.7 272.796
endloop
endfacet
facet normal 0 1 0
outer loop
vertex 153.029 93.7 210.297
vertex 155.136 93.7 272.796
vertex 169.315 93.7 271.169
endloop
endfacet
facet normal 0 1 0
outer loop
vertex 106.555 93.7 194.782
vertex 74.5268 93.7 249.127
vertex 114.596 93.7 200.824
endloop
endfacet
facet normal 0 1 0
outer loop
vertex 114.596 93.7 200.824
vertex 74.5268 93.7 249.127
vertex 86.5334 93.7 256.843
endloop
endfacet
facet normal 0 1 0
outer loop
vertex 114.596 93.7 200.824
vertex 86.5334 93.7 256.843
vertex 123.502 93.7 205.499
endloop
endfacet
facet normal 0 1 0
outer loop
vertex 123.502 93.7 205.499
vertex 86.5334 93.7 256.843
vertex 99.3412 93.7 263.14
endloop
endfacet
facet normal 0 1 0
outer loop
vertex 123.502 93.7 205.499
vertex 99.3412 93.7 263.14
vertex 133.043 93.7 208.684
endloop
endfacet
facet normal 0 1 0
outer loop
vertex 133.043 93.7 208.684
vertex 99.3412 93.7 263.14
vertex 112.783 93.7 267.937
endloop
endfacet
facet normal 0 1 0
outer loop
vertex 133.043 93.7 208.684
vertex 112.783 93.7 267.937
vertex 126.685 93.7 271.169
endloop
endfacet
facet normal 0 1 0
outer loop
vertex 264.483 93.7 193.351
vertex 268.893 93.7 179.777
vertex 209.237 93.7 160.502
endloop
endfacet
facet normal 0 1 0
outer loop
vertex 209.237 93.7 160.502
vertex 268.893 93.7 179.777
vertex 271.728 93.7 165.789
endloop
endfacet
facet normal 0 1 0
outer loop
vertex 209.237 93.7 160.502
vertex 271.728 93.7 165.789
vertex 210.449 93.7 150.517
endloop
endfacet
facet normal 0 1 0
outer loop
vertex 210.449 93.7 150.517
vertex 271.728 93.7 165.789
vertex 272.949 93.7 151.57
endloop
endfacet
facet normal 0 1 0
outer loop
vertex 210.449 93.7 150.517
vertex 272.949 93.7 151.57
vertex 210.044 93.7 140.466
endloop
endfacet
facet normal 0 1 0
outer loop
vertex 93.8734 93.7 179.25
vertex 44.816 93.7 218.555
vertex 99.5872 93.7 187.528
endloop
endfacet
facet normal 0 1 0
outer loop
vertex 99.5872 93.7 187.528
vertex 44.816 93.7 218.555
vertex 53.5313 93.7 229.858
endloop
endfacet
facet normal 0 1 0
outer loop
vertex 99.5872 93.7 187.528
vertex 53.5313 93.7 229.858
vertex 106.555 93.7 194.782
endloop
endfacet
facet normal 0 1 0
outer loop
vertex 106.555 93.7 194.782
vertex 53.5313 93.7 229.858
vertex 63.4781 93.7 240.093
endloop
endfacet
facet normal 0 1 0
outer loop
vertex 106.555 93.7 194.782
vertex 63.4781 93.7 240.093
vertex 74.5268 93.7 249.127
endloop
endfacet
facet normal 0 1 0
outer loop
vertex 87.9676 93.7 130.611
vertex 25.4897 93.7 123.176
vertex 85.9557 93.7 140.466
endloop
endfacet
facet normal 0 1 0
outer loop
vertex 85.9557 93.7 140.466
vertex 25.4897 93.7 123.176
vertex 23.4585 93.7 137.303
endloop
endfacet
facet normal 0 1 0
outer loop
vertex 85.9557 93.7 140.466
vertex 23.4585 93.7 137.303
vertex 85.5507 93.7 150.517
endloop
endfacet
facet normal 0 1 0
outer loop
vertex 23.4585 93.7 137.303
vertex 23.051 93.7 151.57
vertex 85.5507 93.7 150.517
endloop
endfacet
facet normal 0 1 0
outer loop
vertex 85.5507 93.7 150.517
vertex 23.051 93.7 151.57
vertex 24.2723 93.7 165.789
endloop
endfacet
facet normal 0 1 0
outer loop
vertex 85.5507 93.7 150.517
vertex 24.2723 93.7 165.789
vertex 86.7631 93.7 160.502
endloop
endfacet
facet normal 0 1 0
outer loop
vertex 86.7631 93.7 160.502
vertex 24.2723 93.7 165.789
vertex 27.1066 93.7 179.777
endloop
endfacet
facet normal 0 1 0
outer loop
vertex 86.7631 93.7 160.502
vertex 27.1066 93.7 179.777
vertex 89.5615 93.7 170.163
endloop
endfacet
facet normal 0 1 0
outer loop
vertex 89.5615 93.7 170.163
vertex 27.1066 93.7 179.777
vertex 31.517 93.7 193.351
endloop
endfacet
facet normal 0 1 0
outer loop
vertex 89.5615 93.7 170.163
vertex 31.517 93.7 193.351
vertex 93.8734 93.7 179.25
endloop
endfacet
facet normal 0 1 0
outer loop
vertex 93.8734 93.7 179.25
vertex 31.517 93.7 193.351
vertex 37.4459 93.7 206.333
endloop
endfacet
facet normal 0 1 0
outer loop
vertex 93.8734 93.7 179.25
vertex 37.4459 93.7 206.333
vertex 44.816 93.7 218.555
endloop
endfacet
facet normal 0 1 0
outer loop
vertex 272.949 93.7 151.57
vertex 272.541 93.7 137.303
vertex 210.044 93.7 140.466
endloop
endfacet
facet normal 0 1 0
outer loop
vertex 210.044 93.7 140.466
vertex 272.541 93.7 137.303
vertex 270.51 93.7 123.176
endloop
endfacet
facet normal 0 1 0
outer loop
vertex 210.044 93.7 140.466
vertex 270.51 93.7 123.176
vertex 208.032 93.7 130.611
endloop
endfacet
facet normal 0 1 0
outer loop
vertex 208.032 93.7 130.611
vertex 270.51 93.7 123.176
vertex 266.882 93.7 109.373
endloop
endfacet
facet normal 0 1 0
outer loop
vertex 208.032 93.7 130.611
vertex 266.882 93.7 109.373
vertex 204.466 93.7 121.207
endloop
endfacet
facet normal 0 1 0
outer loop
vertex 96.5635 93.7 112.496
vertex 40.9564 93.7 83.4503
vertex 91.5343 93.7 121.207
endloop
endfacet
facet normal 0 1 0
outer loop
vertex 91.5343 93.7 121.207
vertex 40.9564 93.7 83.4503
vertex 34.296 93.7 96.0731
endloop
endfacet
facet normal 0 1 0
outer loop
vertex 91.5343 93.7 121.207
vertex 34.296 93.7 96.0731
vertex 87.9676 93.7 130.611
endloop
endfacet
facet normal 0 1 0
outer loop
vertex 87.9676 93.7 130.611
vertex 34.296 93.7 96.0731
vertex 29.1179 93.7 109.373
endloop
endfacet
facet normal 0 1 0
outer loop
vertex 87.9676 93.7 130.611
vertex 29.1179 93.7 109.373
vertex 25.4897 93.7 123.176
endloop
endfacet
facet normal 0 1 0
outer loop
vertex 118.955 93.7 92.659
vertex 80.4199 93.7 42.8433
vertex 110.454 93.7 98.0348
endloop
endfacet
facet normal 0 1 0
outer loop
vertex 110.454 93.7 98.0348
vertex 80.4199 93.7 42.8433
vertex 68.8734 93.7 51.2323
endloop
endfacet
facet normal 0 1 0
outer loop
vertex 110.454 93.7 98.0348
vertex 68.8734 93.7 51.2323
vertex 102.925 93.7 104.705
endloop
endfacet
facet normal 0 1 0
outer loop
vertex 102.925 93.7 104.705
vertex 68.8734 93.7 51.2323
vertex 58.3585 93.7 60.8828
endloop
endfacet
facet normal 0 1 0
outer loop
vertex 102.925 93.7 104.705
vertex 58.3585 93.7 60.8828
vertex 96.5635 93.7 112.496
endloop
endfacet
facet normal 0 1 0
outer loop
vertex 96.5635 93.7 112.496
vertex 58.3585 93.7 60.8828
vertex 49.0122 93.7 71.669
endloop
endfacet
facet normal 0 1 0
outer loop
vertex 96.5635 93.7 112.496
vertex 49.0122 93.7 71.669
vertex 40.9564 93.7 83.4503
endloop
endfacet
facet normal 0 1 0
outer loop
vertex 137.974 93.7 86.3094
vertex 119.688 93.7 26.2485
vertex 128.208 93.7 88.7165
endloop
endfacet
facet normal 0 1 0
outer loop
vertex 128.208 93.7 88.7165
vertex 119.688 93.7 26.2485
vertex 105.994 93.7 30.2695
endloop
endfacet
facet normal 0 1 0
outer loop
vertex 128.208 93.7 88.7165
vertex 105.994 93.7 30.2695
vertex 118.955 93.7 92.659
endloop
endfacet
facet normal 0 1 0
outer loop
vertex 118.955 93.7 92.659
vertex 105.994 93.7 30.2695
vertex 92.8474 93.7 35.8252
endloop
endfacet
facet normal 0 1 0
outer loop
vertex 118.955 93.7 92.659
vertex 92.8474 93.7 35.8252
vertex 80.4199 93.7 42.8433
endloop
endfacet
facet normal 0 1 0
outer loop
vertex 167.792 93.7 88.7165
vertex 176.312 93.7 26.2485
vertex 158.026 93.7 86.3094
endloop
endfacet
facet normal 0 1 0
outer loop
vertex 158.026 93.7 86.3094
vertex 176.312 93.7 26.2485
vertex 162.249 93.7 23.8148
endloop
endfacet
facet normal 0 1 0
outer loop
vertex 158.026 93.7 86.3094
vertex 162.249 93.7 23.8148
vertex 148 93.7 85.5
endloop
endfacet
facet normal 0 1 0
outer loop
vertex 148 93.7 85.5
vertex 162.249 93.7 23.8148
vertex 148 93.7 23
endloop
endfacet
facet normal 0 1 0
outer loop
vertex 148 93.7 85.5
vertex 148 93.7 23
vertex 137.974 93.7 86.3094
endloop
endfacet
facet normal 0 1 0
outer loop
vertex 137.974 93.7 86.3094
vertex 148 93.7 23
vertex 133.751 93.7 23.8148
endloop
endfacet
facet normal 0 1 0
outer loop
vertex 137.974 93.7 86.3094
vertex 133.751 93.7 23.8148
vertex 119.688 93.7 26.2485
endloop
endfacet
facet normal 0 1 0
outer loop
vertex 185.546 93.7 98.0348
vertex 215.58 93.7 42.8433
vertex 177.045 93.7 92.659
endloop
endfacet
facet normal 0 1 0
outer loop
vertex 177.045 93.7 92.659
vertex 215.58 93.7 42.8433
vertex 203.153 93.7 35.8252
endloop
endfacet
facet normal 0 1 0
outer loop
vertex 177.045 93.7 92.659
vertex 203.153 93.7 35.8252
vertex 167.792 93.7 88.7165
endloop
endfacet
facet normal 0 1 0
outer loop
vertex 167.792 93.7 88.7165
vertex 203.153 93.7 35.8252
vertex 190.006 93.7 30.2695
endloop
endfacet
facet normal 0 1 0
outer loop
vertex 167.792 93.7 88.7165
vertex 190.006 93.7 30.2695
vertex 176.312 93.7 26.2485
endloop
endfacet
facet normal 0 1 0
outer loop
vertex 266.882 93.7 109.373
vertex 261.704 93.7 96.0731
vertex 204.466 93.7 121.207
endloop
endfacet
facet normal 0 1 0
outer loop
vertex 204.466 93.7 121.207
vertex 261.704 93.7 96.0731
vertex 255.044 93.7 83.4503
endloop
endfacet
facet normal 0 1 0
outer loop
vertex 204.466 93.7 121.207
vertex 255.044 93.7 83.4503
vertex 199.436 93.7 112.496
endloop
endfacet
facet normal 0 1 0
outer loop
vertex 199.436 93.7 112.496
vertex 255.044 93.7 83.4503
vertex 246.988 93.7 71.669
endloop
endfacet
facet normal 0 1 0
outer loop
vertex 199.436 93.7 112.496
vertex 246.988 93.7 71.669
vertex 193.075 93.7 104.705
endloop
endfacet
facet normal 0 1 0
outer loop
vertex 193.075 93.7 104.705
vertex 246.988 93.7 71.669
vertex 237.641 93.7 60.8828
endloop
endfacet
facet normal 0 1 0
outer loop
vertex 193.075 93.7 104.705
vertex 237.641 93.7 60.8828
vertex 185.546 93.7 98.0348
endloop
endfacet
facet normal 0 1 0
outer loop
vertex 185.546 93.7 98.0348
vertex 237.641 93.7 60.8828
vertex 227.127 93.7 51.2323
endloop
endfacet
facet normal 0 1 0
outer loop
vertex 185.546 93.7 98.0348
vertex 227.127 93.7 51.2323
vertex 215.58 93.7 42.8433
endloop
endfacet
facet normal 0 1 0
outer loop
vertex 27.1066 23 179.777
vertex 7.24364 23 193.735
vertex 31.517 23 193.351
endloop
endfacet
facet normal 0 1 0
outer loop
vertex 31.517 23 193.351
vertex 7.24364 23 193.735
vertex 12.7953 23 208.197
endloop
endfacet
facet normal 0 1 0
outer loop
vertex 31.517 23 193.351
vertex 12.7953 23 208.197
vertex 37.4459 23 206.333
endloop
endfacet
facet normal 0 1 0
outer loop
vertex 37.4459 23 206.333
vertex 12.7953 23 208.197
vertex 19.8282 23 222
endloop
endfacet
facet normal 0 1 0
outer loop
vertex 37.4459 23 206.333
vertex 19.8282 23 222
vertex 44.816 23 218.555
endloop
endfacet
facet normal 0 1 0
outer loop
vertex 44.816 23 218.555
vertex 19.8282 23 222
vertex 28.2655 23 234.992
endloop
endfacet
facet normal 0 1 0
outer loop
vertex 44.816 23 218.555
vertex 28.2655 23 234.992
vertex 53.5313 23 229.858
endloop
endfacet
facet normal 0 1 0
outer loop
vertex 53.5313 23 229.858
vertex 28.2655 23 234.992
vertex 38.0146 23 247.031
endloop
endfacet
facet normal 0 1 0
outer loop
vertex 53.5313 23 229.858
vertex 38.0146 23 247.031
vertex 63.4781 23 240.093
endloop
endfacet
facet normal 0 1 0
outer loop
vertex 63.4781 23 240.093
vertex 38.0146 23 247.031
vertex 48.9687 23 257.985
endloop
endfacet
facet normal 0 1 0
outer loop
vertex 63.4781 23 240.093
vertex 48.9687 23 257.985
vertex 74.5268 23 249.127
endloop
endfacet
facet normal 0 1 0
outer loop
vertex 74.5268 23 249.127
vertex 48.9687 23 257.985
vertex 61.0078 23 267.735
endloop
endfacet
facet normal 0 1 0
outer loop
vertex 74.5268 23 249.127
vertex 61.0078 23 267.735
vertex 86.5334 23 256.843
endloop
endfacet
facet normal 0 1 0
outer loop
vertex 86.5334 23 256.843
vertex 61.0078 23 267.735
vertex 74 23 276.172
endloop
endfacet
facet normal 0 1 0
outer loop
vertex 86.5334 23 256.843
vertex 74 23 276.172
vertex 99.3412 23 263.14
endloop
endfacet
facet normal 0 1 0
outer loop
vertex 99.3412 23 263.14
vertex 74 23 276.172
vertex 87.803 23 283.205
endloop
endfacet
facet normal 0 1 0
outer loop
vertex 99.3412 23 263.14
vertex 87.803 23 283.205
vertex 112.783 23 267.937
endloop
endfacet
facet normal 0 1 0
outer loop
vertex 112.783 23 267.937
vertex 87.803 23 283.205
vertex 102.265 23 288.756
endloop
endfacet
facet normal 0 1 0
outer loop
vertex 112.783 23 267.937
vertex 102.265 23 288.756
vertex 126.685 23 271.169
endloop
endfacet
facet normal 0 1 0
outer loop
vertex 126.685 23 271.169
vertex 102.265 23 288.756
vertex 117.229 23 292.766
endloop
endfacet
facet normal 0 1 0
outer loop
vertex 126.685 23 271.169
vertex 117.229 23 292.766
vertex 140.864 23 272.796
endloop
endfacet
facet normal 0 1 0
outer loop
vertex 117.229 23 292.766
vertex 132.53 23 295.189
vertex 140.864 23 272.796
endloop
endfacet
facet normal 0 1 0
outer loop
vertex 140.864 23 272.796
vertex 132.53 23 295.189
vertex 148 23 296
endloop
endfacet
facet normal 0 1 0
outer loop
vertex 140.864 23 272.796
vertex 148 23 296
vertex 155.136 23 272.796
endloop
endfacet
facet normal 0 1 0
outer loop
vertex 155.136 23 272.796
vertex 148 23 296
vertex 163.47 23 295.189
endloop
endfacet
facet normal 0 1 0
outer loop
vertex 155.136 23 272.796
vertex 163.47 23 295.189
vertex 169.315 23 271.169
endloop
endfacet
facet normal 0 1 0
outer loop
vertex 169.315 23 271.169
vertex 163.47 23 295.189
vertex 178.771 23 292.766
endloop
endfacet
facet normal 0 1 0
outer loop
vertex 169.315 23 271.169
vertex 178.771 23 292.766
vertex 183.217 23 267.937
endloop
endfacet
facet normal 0 1 0
outer loop
vertex 183.217 23 267.937
vertex 178.771 23 292.766
vertex 193.735 23 288.756
endloop
endfacet
facet normal 0 1 0
outer loop
vertex 183.217 23 267.937
vertex 193.735 23 288.756
vertex 196.659 23 263.14
endloop
endfacet
facet normal 0 1 0
outer loop
vertex 196.659 23 263.14
vertex 193.735 23 288.756
vertex 208.197 23 283.205
endloop
endfacet
facet normal 0 1 0
outer loop
vertex 196.659 23 263.14
vertex 208.197 23 283.205
vertex 209.467 23 256.843
endloop
endfacet
facet normal 0 1 0
outer loop
vertex 209.467 23 256.843
vertex 208.197 23 283.205
vertex 222 23 276.172
endloop
endfacet
facet normal 0 1 0
outer loop
vertex 209.467 23 256.843
vertex 222 23 276.172
vertex 221.473 23 249.127
endloop
endfacet
facet normal 0 1 0
outer loop
vertex 221.473 23 249.127
vertex 222 23 276.172
vertex 234.992 23 267.735
endloop
endfacet
facet normal 0 1 0
outer loop
vertex 221.473 23 249.127
vertex 234.992 23 267.735
vertex 232.522 23 240.093
endloop
endfacet
facet normal 0 1 0
outer loop
vertex 232.522 23 240.093
vertex 234.992 23 267.735
vertex 247.031 23 257.985
endloop
endfacet
facet normal 0 1 0
outer loop
vertex 232.522 23 240.093
vertex 247.031 23 257.985
vertex 242.469 23 229.858
endloop
endfacet
facet normal 0 1 0
outer loop
vertex 242.469 23 229.858
vertex 247.031 23 257.985
vertex 257.985 23 247.031
endloop
endfacet
facet normal 0 1 0
outer loop
vertex 242.469 23 229.858
vertex 257.985 23 247.031
vertex 251.184 23 218.555
endloop
endfacet
facet normal 0 1 0
outer loop
vertex 251.184 23 218.555
vertex 257.985 23 247.031
vertex 267.735 23 234.992
endloop
endfacet
facet normal 0 1 0
outer loop
vertex 251.184 23 218.555
vertex 267.735 23 234.992
vertex 258.554 23 206.333
endloop
endfacet
facet normal 0 1 0
outer loop
vertex 258.554 23 206.333
vertex 267.735 23 234.992
vertex 276.172 23 222
endloop
endfacet
facet normal 0 1 0
outer loop
vertex 258.554 23 206.333
vertex 276.172 23 222
vertex 264.483 23 193.351
endloop
endfacet
facet normal 0 1 0
outer loop
vertex 80.4199 23 42.8433
vertex 61.0078 23 28.2655
vertex 68.8734 23 51.2323
endloop
endfacet
facet normal 0 1 0
outer loop
vertex 68.8734 23 51.2323
vertex 61.0078 23 28.2655
vertex 48.9687 23 38.0146
endloop
endfacet
facet normal 0 1 0
outer loop
vertex 68.8734 23 51.2323
vertex 48.9687 23 38.0146
vertex 58.3585 23 60.8828
endloop
endfacet
facet normal 0 1 0
outer loop
vertex 58.3585 23 60.8828
vertex 48.9687 23 38.0146
vertex 38.0146 23 48.9687
endloop
endfacet
facet normal 0 1 0
outer loop
vertex 58.3585 23 60.8828
vertex 38.0146 23 48.9687
vertex 49.0122 23 71.669
endloop
endfacet
facet normal 0 1 0
outer loop
vertex 49.0122 23 71.669
vertex 38.0146 23 48.9687
vertex 28.2655 23 61.0078
endloop
endfacet
facet normal 0 1 0
outer loop
vertex 49.0122 23 71.669
vertex 28.2655 23 61.0078
vertex 40.9564 23 83.4503
endloop
endfacet
facet normal 0 1 0
outer loop
vertex 40.9564 23 83.4503
vertex 28.2655 23 61.0078
vertex 19.8282 23 74
endloop
endfacet
facet normal 0 1 0
outer loop
vertex 40.9564 23 83.4503
vertex 19.8282 23 74
vertex 34.296 23 96.0731
endloop
endfacet
facet normal 0 1 0
outer loop
vertex 34.296 23 96.0731
vertex 19.8282 23 74
vertex 12.7953 23 87.803
endloop
endfacet
facet normal 0 1 0
outer loop
vertex 34.296 23 96.0731
vertex 12.7953 23 87.803
vertex 29.1179 23 109.373
endloop
endfacet
facet normal 0 1 0
outer loop
vertex 29.1179 23 109.373
vertex 12.7953 23 87.803
vertex 7.24364 23 102.265
endloop
endfacet
facet normal 0 1 0
outer loop
vertex 29.1179 23 109.373
vertex 7.24364 23 102.265
vertex 25.4897 23 123.176
endloop
endfacet
facet normal 0 1 0
outer loop
vertex 25.4897 23 123.176
vertex 7.24364 23 102.265
vertex 3.23416 23 117.229
endloop
endfacet
facet normal 0 1 0
outer loop
vertex 25.4897 23 123.176
vertex 3.23416 23 117.229
vertex 23.4585 23 137.303
endloop
endfacet
facet normal 0 1 0
outer loop
vertex 23.4585 23 137.303
vertex 3.23416 23 117.229
vertex 0.810765 23 132.53
endloop
endfacet
facet normal 0 1 0
outer loop
vertex 23.4585 23 137.303
vertex 0.810765 23 132.53
vertex 23.051 23 151.57
endloop
endfacet
facet normal 0 1 0
outer loop
vertex 23.051 23 151.57
vertex 0.810765 23 132.53
vertex 0 23 148
endloop
endfacet
facet normal 0 1 0
outer loop
vertex 23.051 23 151.57
vertex 0 23 148
vertex 24.2723 23 165.789
endloop
endfacet
facet normal 0 1 0
outer loop
vertex 24.2723 23 165.789
vertex 0 23 148
vertex 0.810765 23 163.47
endloop
endfacet
facet normal 0 1 0
outer loop
vertex 24.2723 23 165.789
vertex 0.810765 23 163.47
vertex 27.1066 23 179.777
endloop
endfacet
facet normal 0 1 0
outer loop
vertex 27.1066 23 179.777
vertex 0.810765 23 163.47
vertex 3.23416 23 178.771
endloop
endfacet
facet normal 0 1 0
outer loop
vertex 27.1066 23 179.777
vertex 3.23416 23 178.771
vertex 7.24364 23 193.735
endloop
endfacet
facet normal 0 1 0
outer loop
vertex 227.127 23 51.2323
vertex 234.992 23 28.2655
vertex 215.58 23 42.8433
endloop
endfacet
facet normal 0 1 0
outer loop
vertex 215.58 23 42.8433
vertex 234.992 23 28.2655
vertex 222 23 19.8282
endloop
endfacet
facet normal 0 1 0
outer loop
vertex 215.58 23 42.8433
vertex 222 23 19.8282
vertex 203.153 23 35.8252
endloop
endfacet
facet normal 0 1 0
outer loop
vertex 203.153 23 35.8252
vertex 222 23 19.8282
vertex 208.197 23 12.7953
endloop
endfacet
facet normal 0 1 0
outer loop
vertex 203.153 23 35.8252
vertex 208.197 23 12.7953
vertex 190.006 23 30.2695
endloop
endfacet
facet normal 0 1 0
outer loop
vertex 190.006 23 30.2695
vertex 208.197 23 12.7953
vertex 193.735 23 7.24363
endloop
endfacet
facet normal 0 1 0
outer loop
vertex 190.006 23 30.2695
vertex 193.735 23 7.24363
vertex 176.312 23 26.2485
endloop
endfacet
facet normal 0 1 0
outer loop
vertex 176.312 23 26.2485
vertex 193.735 23 7.24363
vertex 178.771 23 3.23416
endloop
endfacet
facet normal 0 1 0
outer loop
vertex 176.312 23 26.2485
vertex 178.771 23 3.23416
vertex 162.249 23 23.8148
endloop
endfacet
facet normal 0 1 0
outer loop
vertex 162.249 23 23.8148
vertex 178.771 23 3.23416
vertex 163.47 23 0.810757
endloop
endfacet
facet normal 0 1 0
outer loop
vertex 162.249 23 23.8148
vertex 163.47 23 0.810757
vertex 148 23 23
endloop
endfacet
facet normal 0 1 0
outer loop
vertex 148 23 23
vertex 163.47 23 0.810757
vertex 148 23 0
endloop
endfacet
facet normal 0 1 0
outer loop
vertex 148 23 23
vertex 148 23 0
vertex 133.751 23 23.8148
endloop
endfacet
facet normal 0 1 0
outer loop
vertex 133.751 23 23.8148
vertex 148 23 0
vertex 132.53 23 0.810757
endloop
endfacet
facet normal 0 1 0
outer loop
vertex 133.751 23 23.8148
vertex 132.53 23 0.810757
vertex 119.688 23 26.2485
endloop
endfacet
facet normal 0 1 0
outer loop
vertex 119.688 23 26.2485
vertex 132.53 23 0.810757
vertex 117.229 23 3.23416
endloop
endfacet
facet normal 0 1 0
outer loop
vertex 119.688 23 26.2485
vertex 117.229 23 3.23416
vertex 105.994 23 30.2695
endloop
endfacet
facet normal 0 1 0
outer loop
vertex 105.994 23 30.2695
vertex 117.229 23 3.23416
vertex 102.265 23 7.24363
endloop
endfacet
facet normal 0 1 0
outer loop
vertex 105.994 23 30.2695
vertex 102.265 23 7.24363
vertex 92.8474 23 35.8252
endloop
endfacet
facet normal 0 1 0
outer loop
vertex 92.8474 23 35.8252
vertex 102.265 23 7.24363
vertex 87.803 23 12.7953
endloop
endfacet
facet normal 0 1 0
outer loop
vertex 92.8474 23 35.8252
vertex 87.803 23 12.7953
vertex 80.4199 23 42.8433
endloop
endfacet
facet normal 0 1 0
outer loop
vertex 80.4199 23 42.8433
vertex 87.803 23 12.7953
vertex 74 23 19.8282
endloop
endfacet
facet normal 0 1 0
outer loop
vertex 80.4199 23 42.8433
vertex 74 23 19.8282
vertex 61.0078 23 28.2655
endloop
endfacet
facet normal 0 1 0
outer loop
vertex 276.172 23 222
vertex 283.205 23 208.197
vertex 264.483 23 193.351
endloop
endfacet
facet normal 0 1 0
outer loop
vertex 264.483 23 193.351
vertex 283.205 23 208.197
vertex 288.756 23 193.735
endloop
endfacet
facet normal 0 1 0
outer loop
vertex 264.483 23 193.351
vertex 288.756 23 193.735
vertex 268.893 23 179.777
endloop
endfacet
facet normal 0 1 0
outer loop
vertex 268.893 23 179.777
vertex 288.756 23 193.735
vertex 292.766 23 178.771
endloop
endfacet
facet normal 0 1 0
outer loop
vertex 268.893 23 179.777
vertex 292.766 23 178.771
vertex 271.728 23 165.789
endloop
endfacet
facet normal 0 1 0
outer loop
vertex 271.728 23 165.789
vertex 292.766 23 178.771
vertex 295.189 23 163.47
endloop
endfacet
facet normal 0 1 0
outer loop
vertex 271.728 23 165.789
vertex 295.189 23 163.47
vertex 272.949 23 151.57
endloop
endfacet
facet normal 0 1 0
outer loop
vertex 272.949 23 151.57
vertex 295.189 23 163.47
vertex 296 23 148
endloop
endfacet
facet normal 0 1 0
outer loop
vertex 272.949 23 151.57
vertex 296 23 148
vertex 272.541 23 137.303
endloop
endfacet
facet normal 0 1 0
outer loop
vertex 272.541 23 137.303
vertex 296 23 148
vertex 295.189 23 132.53
endloop
endfacet
facet normal 0 1 0
outer loop
vertex 272.541 23 137.303
vertex 295.189 23 132.53
vertex 270.51 23 123.176
endloop
endfacet
facet normal 0 1 0
outer loop
vertex 270.51 23 123.176
vertex 295.189 23 132.53
vertex 292.766 23 117.229
endloop
endfacet
facet normal 0 1 0
outer loop
vertex 270.51 23 123.176
vertex 292.766 23 117.229
vertex 266.882 23 109.373
endloop
endfacet
facet normal 0 1 0
outer loop
vertex 266.882 23 109.373
vertex 292.766 23 117.229
vertex 288.756 23 102.265
endloop
endfacet
facet normal 0 1 0
outer loop
vertex 266.882 23 109.373
vertex 288.756 23 102.265
vertex 261.704 23 96.0731
endloop
endfacet
facet normal 0 1 0
outer loop
vertex 261.704 23 96.0731
vertex 288.756 23 102.265
vertex 283.205 23 87.803
endloop
endfacet
facet normal 0 1 0
outer loop
vertex 261.704 23 96.0731
vertex 283.205 23 87.803
vertex 255.044 23 83.4503
endloop
endfacet
facet normal 0 1 0
outer loop
vertex 255.044 23 83.4503
vertex 283.205 23 87.803
vertex 276.172 23 74
endloop
endfacet
facet normal 0 1 0
outer loop
vertex 255.044 23 83.4503
vertex 276.172 23 74
vertex 246.988 23 71.669
endloop
endfacet
facet normal 0 1 0
outer loop
vertex 246.988 23 71.669
vertex 276.172 23 74
vertex 267.735 23 61.0078
endloop
endfacet
facet normal 0 1 0
outer loop
vertex 246.988 23 71.669
vertex 267.735 23 61.0078
vertex 237.641 23 60.8828
endloop
endfacet
facet normal 0 1 0
outer loop
vertex 237.641 23 60.8828
vertex 267.735 23 61.0078
vertex 257.985 23 48.9687
endloop
endfacet
facet normal 0 1 0
outer loop
vertex 237.641 23 60.8828
vertex 257.985 23 48.9687
vertex 227.127 23 51.2323
endloop
endfacet
facet normal 0 1 0
outer loop
vertex 227.127 23 51.2323
vertex 257.985 23 48.9687
vertex 247.031 23 38.0146
endloop
endfacet
facet normal 0 1 0
outer loop
vertex 227.127 23 51.2323
vertex 247.031 23 38.0146
vertex 234.992 23 28.2655
endloop
endfacet
facet normal -0.239316 0 0.970942
outer loop
vertex 158.026 93.7 86.3094
vertex 158.026 0 86.3094
vertex 167.792 93.7 88.7165
endloop
endfacet
facet normal -0.239316 0 0.970942
outer loop
vertex 167.792 93.7 88.7165
vertex 158.026 0 86.3094
vertex 167.792 0 88.7165
endloop
endfacet
facet normal -0.391966 0 0.91998
outer loop
vertex 167.792 93.7 88.7165
vertex 167.792 0 88.7165
vertex 177.045 93.7 92.659
endloop
endfacet
facet normal -0.391966 0 0.91998
outer loop
vertex 177.045 93.7 92.659
vertex 167.792 0 88.7165
vertex 177.045 0 92.659
endloop
endfacet
facet normal -0.534465 0 0.84519
outer loop
vertex 177.045 93.7 92.659
vertex 177.045 0 92.659
vertex 185.546 93.7 98.0348
endloop
endfacet
facet normal -0.534465 0 0.84519
outer loop
vertex 185.546 93.7 98.0348
vertex 177.045 0 92.659
vertex 185.546 0 98.0348
endloop
endfacet
facet normal -0.663123 0 0.74851
outer loop
vertex 185.546 93.7 98.0348
vertex 185.546 0 98.0348
vertex 193.075 93.7 104.705
endloop
endfacet
facet normal -0.663123 0 0.74851
outer loop
vertex 193.075 93.7 104.705
vertex 185.546 0 98.0348
vertex 193.075 0 104.705
endloop
endfacet
facet normal -0.774605 0 0.632445
outer loop
vertex 193.075 93.7 104.705
vertex 193.075 0 104.705
vertex 199.436 93.7 112.496
endloop
endfacet
facet normal -0.774605 0 0.632445
outer loop
vertex 199.436 93.7 112.496
vertex 193.075 0 104.705
vertex 199.436 0 112.496
endloop
endfacet
facet normal -0.866025 0 0.5
outer loop
vertex 199.436 93.7 112.496
vertex 199.436 0 112.496
vertex 204.466 93.7 121.207
endloop
endfacet
facet normal -0.866025 0 0.5
outer loop
vertex 204.466 93.7 121.207
vertex 199.436 0 112.496
vertex 204.466 0 121.207
endloop
endfacet
facet normal -0.935016 0 0.354605
outer loop
vertex 204.466 93.7 121.207
vertex 204.466 0 121.207
vertex 208.032 93.7 130.611
endloop
endfacet
facet normal -0.935016 0 0.354605
outer loop
vertex 208.032 93.7 130.611
vertex 204.466 0 121.207
vertex 208.032 0 130.611
endloop
endfacet
facet normal -0.97979 0 0.200026
outer loop
vertex 208.032 93.7 130.611
vertex 208.032 0 130.611
vertex 210.044 93.7 140.466
endloop
endfacet
facet normal -0.97979 0 0.200026
outer loop
vertex 210.044 93.7 140.466
vertex 208.032 0 130.611
vertex 210.044 0 140.466
endloop
endfacet
facet normal -0.999189 0 0.040265
outer loop
vertex 210.044 93.7 140.466
vertex 210.044 0 140.466
vertex 210.449 93.7 150.517
endloop
endfacet
facet normal -0.999189 0 0.040265
outer loop
vertex 210.449 93.7 150.517
vertex 210.044 0 140.466
vertex 210.449 0 150.517
endloop
endfacet
facet normal -0.992709 0 -0.120536
outer loop
vertex 210.449 93.7 150.517
vertex 210.449 0 150.517
vertex 209.237 93.7 160.502
endloop
endfacet
facet normal -0.992709 0 -0.120536
outer loop
vertex 209.237 93.7 160.502
vertex 210.449 0 150.517
vertex 209.237 0 160.502
endloop
endfacet
facet normal -0.960518 0 -0.278219
outer loop
vertex 209.237 93.7 160.502
vertex 209.237 0 160.502
vertex 206.439 93.7 170.163
endloop
endfacet
facet normal -0.960518 0 -0.278219
outer loop
vertex 206.439 93.7 170.163
vertex 209.237 0 160.502
vertex 206.439 0 170.163
endloop
endfacet
facet normal -0.903451 0 -0.428692
outer loop
vertex 206.439 93.7 170.163
vertex 206.439 0 170.163
vertex 202.127 93.7 179.25
endloop
endfacet
facet normal -0.903451 0 -0.428692
outer loop
vertex 202.127 93.7 179.25
vertex 206.439 0 170.163
vertex 202.127 0 179.25
endloop
endfacet
facet normal -0.822983 0 -0.568066
outer loop
vertex 202.127 93.7 179.25
vertex 202.127 0 179.25
vertex 196.413 93.7 187.528
endloop
endfacet
facet normal -0.822983 0 -0.568066
outer loop
vertex 196.413 93.7 187.528
vertex 202.127 0 179.25
vertex 196.413 0 187.528
endloop
endfacet
facet normal -0.721204 0 -0.692722
outer loop
vertex 196.413 93.7 187.528
vertex 196.413 0 187.528
vertex 189.445 93.7 194.782
endloop
endfacet
facet normal -0.721204 0 -0.692722
outer loop
vertex 189.445 93.7 194.782
vertex 196.413 0 187.528
vertex 189.445 0 194.782
endloop
endfacet
facet normal -0.600741 0 -0.799444
outer loop
vertex 189.445 93.7 194.782
vertex 189.445 0 194.782
vertex 181.404 93.7 200.824
endloop
endfacet
facet normal -0.600741 0 -0.799444
outer loop
vertex 181.404 93.7 200.824
vertex 189.445 0 194.782
vertex 181.404 0 200.824
endloop
endfacet
facet normal -0.464723 0 -0.885456
outer loop
vertex 181.404 93.7 200.824
vertex 181.404 0 200.824
vertex 172.498 93.7 205.499
endloop
endfacet
facet normal -0.464723 0 -0.885456
outer loop
vertex 172.498 93.7 205.499
vertex 181.404 0 200.824
vertex 172.498 0 205.499
endloop
endfacet
facet normal -0.316668 0 -0.948536
outer loop
vertex 172.498 93.7 205.499
vertex 172.498 0 205.499
vertex 162.957 93.7 208.684
endloop
endfacet
facet normal -0.316668 0 -0.948536
outer loop
vertex 162.957 93.7 208.684
vertex 172.498 0 205.499
vertex 162.957 0 208.684
endloop
endfacet
facet normal -0.160411 0 -0.98705
outer loop
vertex 162.957 93.7 208.684
vertex 162.957 0 208.684
vertex 153.029 93.7 210.297
endloop
endfacet
facet normal -0.160411 0 -0.98705
outer loop
vertex 153.029 93.7 210.297
vertex 162.957 0 208.684
vertex 153.029 0 210.297
endloop
endfacet
facet normal 0 0 -1
outer loop
vertex 153.029 93.7 210.297
vertex 153.029 0 210.297
vertex 142.971 93.7 210.297
endloop
endfacet
facet normal 0 0 -1
outer loop
vertex 142.971 93.7 210.297
vertex 153.029 0 210.297
vertex 142.971 0 210.297
endloop
endfacet
facet normal 0.160411 0 -0.98705
outer loop
vertex 142.971 93.7 210.297
vertex 142.971 0 210.297
vertex 133.043 93.7 208.684
endloop
endfacet
facet normal 0.160411 0 -0.98705
outer loop
vertex 133.043 93.7 208.684
vertex 142.971 0 210.297
vertex 133.043 0 208.684
endloop
endfacet
facet normal 0.316668 0 -0.948536
outer loop
vertex 133.043 93.7 208.684
vertex 133.043 0 208.684
vertex 123.502 93.7 205.499
endloop
endfacet
facet normal 0.316668 0 -0.948536
outer loop
vertex 123.502 93.7 205.499
vertex 133.043 0 208.684
vertex 123.502 0 205.499
endloop
endfacet
facet normal 0.464723 0 -0.885456
outer loop
vertex 123.502 93.7 205.499
vertex 123.502 0 205.499
vertex 114.596 93.7 200.824
endloop
endfacet
facet normal 0.464723 0 -0.885456
outer loop
vertex 114.596 93.7 200.824
vertex 123.502 0 205.499
vertex 114.596 0 200.824
endloop
endfacet
facet normal 0.600742 0 -0.799443
outer loop
vertex 114.596 93.7 200.824
vertex 114.596 0 200.824
vertex 106.555 93.7 194.782
endloop
endfacet
facet normal 0.600742 0 -0.799443
outer loop
vertex 106.555 93.7 194.782
vertex 114.596 0 200.824
vertex 106.555 0 194.782
endloop
endfacet
facet normal 0.721204 0 -0.692723
outer loop
vertex 106.555 93.7 194.782
vertex 106.555 0 194.782
vertex 99.5872 93.7 187.528
endloop
endfacet
facet normal 0.721204 0 -0.692723
outer loop
vertex 99.5872 93.7 187.528
vertex 106.555 0 194.782
vertex 99.5872 0 187.528
endloop
endfacet
facet normal 0.822983 0 -0.568065
outer loop
vertex 99.5872 93.7 187.528
vertex 99.5872 0 187.528
vertex 93.8734 93.7 179.25
endloop
endfacet
facet normal 0.822983 0 -0.568065
outer loop
vertex 93.8734 93.7 179.25
vertex 99.5872 0 187.528
vertex 93.8734 0 179.25
endloop
endfacet
facet normal 0.90345 0 -0.428693
outer loop
vertex 93.8734 93.7 179.25
vertex 93.8734 0 179.25
vertex 89.5615 93.7 170.163
endloop
endfacet
facet normal 0.90345 0 -0.428693
outer loop
vertex 89.5615 93.7 170.163
vertex 93.8734 0 179.25
vertex 89.5615 0 170.163
endloop
endfacet
facet normal 0.960518 0 -0.278218
outer loop
vertex 89.5615 93.7 170.163
vertex 89.5615 0 170.163
vertex 86.7631 93.7 160.502
endloop
endfacet
facet normal 0.960518 0 -0.278218
outer loop
vertex 86.7631 93.7 160.502
vertex 89.5615 0 170.163
vertex 86.7631 0 160.502
endloop
endfacet
facet normal 0.992709 0 -0.120536
outer loop
vertex 86.7631 93.7 160.502
vertex 86.7631 0 160.502
vertex 85.5507 93.7 150.517
endloop
endfacet
facet normal 0.992709 0 -0.120536
outer loop
vertex 85.5507 93.7 150.517
vertex 86.7631 0 160.502
vertex 85.5507 0 150.517
endloop
endfacet
facet normal 0.999189 0 0.0402658
outer loop
vertex 85.5507 93.7 150.517
vertex 85.5507 0 150.517
vertex 85.9557 93.7 140.466
endloop
endfacet
facet normal 0.999189 0 0.0402658
outer loop
vertex 85.9557 93.7 140.466
vertex 85.5507 0 150.517
vertex 85.9557 0 140.466
endloop
endfacet
facet normal 0.979791 0 0.200026
outer loop
vertex 85.9557 93.7 140.466
vertex 85.9557 0 140.466
vertex 87.9676 93.7 130.611
endloop
endfacet
facet normal 0.979791 0 0.200026
outer loop
vertex 87.9676 93.7 130.611
vertex 85.9557 0 140.466
vertex 87.9676 0 130.611
endloop
endfacet
facet normal 0.935016 0 0.354605
outer loop
vertex 87.9676 93.7 130.611
vertex 87.9676 0 130.611
vertex 91.5343 93.7 121.207
endloop
endfacet
facet normal 0.935016 0 0.354605
outer loop
vertex 91.5343 93.7 121.207
vertex 87.9676 0 130.611
vertex 91.5343 0 121.207
endloop
endfacet
facet normal 0.866025 0 0.5
outer loop
vertex 91.5343 93.7 121.207
vertex 91.5343 0 121.207
vertex 96.5635 93.7 112.496
endloop
endfacet
facet normal 0.866025 0 0.5
outer loop
vertex 96.5635 93.7 112.496
vertex 91.5343 0 121.207
vertex 96.5635 0 112.496
endloop
endfacet
facet normal 0.774605 0 0.632445
outer loop
vertex 96.5635 93.7 112.496
vertex 96.5635 0 112.496
vertex 102.925 93.7 104.705
endloop
endfacet
facet normal 0.774605 0 0.632445
outer loop
vertex 102.925 93.7 104.705
vertex 96.5635 0 112.496
vertex 102.925 0 104.705
endloop
endfacet
facet normal 0.663122 0 0.748511
outer loop
vertex 102.925 93.7 104.705
vertex 102.925 0 104.705
vertex 110.454 93.7 98.0348
endloop
endfacet
facet normal 0.663122 0 0.748511
outer loop
vertex 110.454 93.7 98.0348
vertex 102.925 0 104.705
vertex 110.454 0 98.0348
endloop
endfacet
facet normal 0.534466 0 0.84519
outer loop
vertex 110.454 93.7 98.0348
vertex 110.454 0 98.0348
vertex 118.955 93.7 92.659
endloop
endfacet
facet normal 0.534466 0 0.84519
outer loop
vertex 118.955 93.7 92.659
vertex 110.454 0 98.0348
vertex 118.955 0 92.659
endloop
endfacet
facet normal 0.391966 0 0.91998
outer loop
vertex 118.955 93.7 92.659
vertex 118.955 0 92.659
vertex 128.208 93.7 88.7165
endloop
endfacet
facet normal 0.391966 0 0.91998
outer loop
vertex 128.208 93.7 88.7165
vertex 118.955 0 92.659
vertex 128.208 0 88.7165
endloop
endfacet
facet normal 0.239316 0 0.970942
outer loop
vertex 128.208 93.7 88.7165
vertex 128.208 0 88.7165
vertex 137.974 93.7 86.3094
endloop
endfacet
facet normal 0.239316 0 0.970942
outer loop
vertex 137.974 93.7 86.3094
vertex 128.208 0 88.7165
vertex 137.974 0 86.3094
endloop
endfacet
facet normal 0.0804663 0 0.996757
outer loop
vertex 137.974 93.7 86.3094
vertex 137.974 0 86.3094
vertex 148 93.7 85.5
endloop
endfacet
facet normal 0.0804663 0 0.996757
outer loop
vertex 148 93.7 85.5
vertex 137.974 0 86.3094
vertex 148 0 85.5
endloop
endfacet
facet normal -0.0804663 0 0.996757
outer loop
vertex 148 93.7 85.5
vertex 148 0 85.5
vertex 158.026 93.7 86.3094
endloop
endfacet
facet normal -0.0804663 0 0.996757
outer loop
vertex 158.026 93.7 86.3094
vertex 148 0 85.5
vertex 158.026 0 86.3094
endloop
endfacet
facet normal 0.156435 0 -0.987688
outer loop
vertex 163.47 0 0.810757
vertex 163.47 23 0.810757
vertex 178.771 0 3.23416
endloop
endfacet
facet normal 0.156435 0 -0.987688
outer loop
vertex 178.771 0 3.23416
vertex 163.47 23 0.810757
vertex 178.771 23 3.23416
endloop
endfacet
facet normal 0.258818 0 -0.965926
outer loop
vertex 178.771 0 3.23416
vertex 178.771 23 3.23416
vertex 193.735 0 7.24363
endloop
endfacet
facet normal 0.258818 0 -0.965926
outer loop
vertex 193.735 0 7.24363
vertex 178.771 23 3.23416
vertex 193.735 23 7.24363
endloop
endfacet
facet normal 0.358368 0 -0.93358
outer loop
vertex 193.735 0 7.24363
vertex 193.735 23 7.24363
vertex 208.197 0 12.7953
endloop
endfacet
facet normal 0.358368 0 -0.93358
outer loop
vertex 208.197 0 12.7953
vertex 193.735 23 7.24363
vertex 208.197 23 12.7953
endloop
endfacet
facet normal 0.453991 0 -0.891006
outer loop
vertex 208.197 0 12.7953
vertex 208.197 23 12.7953
vertex 222 0 19.8282
endloop
endfacet
facet normal 0.453991 0 -0.891006
outer loop
vertex 222 0 19.8282
vertex 208.197 23 12.7953
vertex 222 23 19.8282
endloop
endfacet
facet normal 0.544639 0 -0.838671
outer loop
vertex 222 0 19.8282
vertex 222 23 19.8282
vertex 234.992 0 28.2655
endloop
endfacet
facet normal 0.544639 0 -0.838671
outer loop
vertex 234.992 0 28.2655
vertex 222 23 19.8282
vertex 234.992 23 28.2655
endloop
endfacet
facet normal 0.629321 0 -0.777146
outer loop
vertex 234.992 0 28.2655
vertex 234.992 23 28.2655
vertex 247.031 0 38.0146
endloop
endfacet
facet normal 0.629321 0 -0.777146
outer loop
vertex 247.031 0 38.0146
vertex 234.992 23 28.2655
vertex 247.031 23 38.0146
endloop
endfacet
facet normal 0.707106 0 -0.707107
outer loop
vertex 247.031 0 38.0146
vertex 247.031 23 38.0146
vertex 257.985 0 48.9687
endloop
endfacet
facet normal 0.707106 0 -0.707107
outer loop
vertex 257.985 0 48.9687
vertex 247.031 23 38.0146
vertex 257.985 23 48.9687
endloop
endfacet
facet normal 0.777146 0 -0.629321
outer loop
vertex 257.985 0 48.9687
vertex 257.985 23 48.9687
vertex 267.735 0 61.0078
endloop
endfacet
facet normal 0.777146 0 -0.629321
outer loop
vertex 267.735 0 61.0078
vertex 257.985 23 48.9687
vertex 267.735 23 61.0078
endloop
endfacet
facet normal 0.838671 0 -0.544638
outer loop
vertex 267.735 0 61.0078
vertex 267.735 23 61.0078
vertex 276.172 0 74
endloop
endfacet
facet normal 0.838671 0 -0.544638
outer loop
vertex 276.172 0 74
vertex 267.735 23 61.0078
vertex 276.172 23 74
endloop
endfacet
facet normal 0.891006 0 -0.453992
outer loop
vertex 276.172 0 74
vertex 276.172 23 74
vertex 283.205 0 87.803
endloop
endfacet
facet normal 0.891006 0 -0.453992
outer loop
vertex 283.205 0 87.803
vertex 276.172 23 74
vertex 283.205 23 87.803
endloop
endfacet
facet normal 0.933581 0 -0.358368
outer loop
vertex 283.205 0 87.803
vertex 283.205 23 87.803
vertex 288.756 0 102.265
endloop
endfacet
facet normal 0.933581 0 -0.358368
outer loop
vertex 288.756 0 102.265
vertex 283.205 23 87.803
vertex 288.756 23 102.265
endloop
endfacet
facet normal 0.965926 0 -0.25882
outer loop
vertex 288.756 0 102.265
vertex 288.756 23 102.265
vertex 292.766 0 117.229
endloop
endfacet
facet normal 0.965926 0 -0.25882
outer loop
vertex 292.766 0 117.229
vertex 288.756 23 102.265
vertex 292.766 23 117.229
endloop
endfacet
facet normal 0.987688 0 -0.156435
outer loop
vertex 292.766 0 117.229
vertex 292.766 23 117.229
vertex 295.189 0 132.53
endloop
endfacet
facet normal 0.987688 0 -0.156435
outer loop
vertex 295.189 0 132.53
vertex 292.766 23 117.229
vertex 295.189 23 132.53
endloop
endfacet
facet normal 0.99863 0 -0.0523341
outer loop
vertex 295.189 0 132.53
vertex 295.189 23 132.53
vertex 296 0 148
endloop
endfacet
facet normal 0.99863 0 -0.0523341
outer loop
vertex 296 0 148
vertex 295.189 23 132.53
vertex 296 23 148
endloop
endfacet
facet normal 0.99863 0 0.052334
outer loop
vertex 296 0 148
vertex 296 23 148
vertex 295.189 0 163.47
endloop
endfacet
facet normal 0.99863 0 0.052334
outer loop
vertex 295.189 0 163.47
vertex 296 23 148
vertex 295.189 23 163.47
endloop
endfacet
facet normal 0.987688 0 0.156435
outer loop
vertex 295.189 0 163.47
vertex 295.189 23 163.47
vertex 292.766 0 178.771
endloop
endfacet
facet normal 0.987688 0 0.156435
outer loop
vertex 292.766 0 178.771
vertex 295.189 23 163.47
vertex 292.766 23 178.771
endloop
endfacet
facet normal 0.965926 0 0.25882
outer loop
vertex 292.766 0 178.771
vertex 292.766 23 178.771
vertex 288.756 0 193.735
endloop
endfacet
facet normal 0.965926 0 0.25882
outer loop
vertex 288.756 0 193.735
vertex 292.766 23 178.771
vertex 288.756 23 193.735
endloop
endfacet
facet normal 0.93358 0 0.358368
outer loop
vertex 288.756 0 193.735
vertex 288.756 23 193.735
vertex 283.205 0 208.197
endloop
endfacet
facet normal 0.93358 0 0.358368
outer loop
vertex 283.205 0 208.197
vertex 288.756 23 193.735
vertex 283.205 23 208.197
endloop
endfacet
facet normal 0.891006 0 0.453992
outer loop
vertex 283.205 0 208.197
vertex 283.205 23 208.197
vertex 276.172 0 222
endloop
endfacet
facet normal 0.891006 0 0.453992
outer loop
vertex 276.172 0 222
vertex 283.205 23 208.197
vertex 276.172 23 222
endloop
endfacet
facet normal 0.838671 0 0.544638
outer loop
vertex 276.172 0 222
vertex 276.172 23 222
vertex 267.735 0 234.992
endloop
endfacet
facet normal 0.838671 0 0.544638
outer loop
vertex 267.735 0 234.992
vertex 276.172 23 222
vertex 267.735 23 234.992
endloop
endfacet
facet normal 0.777146 0 0.629321
outer loop
vertex 267.735 0 234.992
vertex 267.735 23 234.992
vertex 257.985 0 247.031
endloop
endfacet
facet normal 0.777146 0 0.629321
outer loop
vertex 257.985 0 247.031
vertex 267.735 23 234.992
vertex 257.985 23 247.031
endloop
endfacet
facet normal 0.707107 0 0.707107
outer loop
vertex 257.985 0 247.031
vertex 257.985 23 247.031
vertex 247.031 0 257.985
endloop
endfacet
facet normal 0.707107 0 0.707107
outer loop
vertex 247.031 0 257.985
vertex 257.985 23 247.031
vertex 247.031 23 257.985
endloop
endfacet
facet normal 0.629321 0 0.777146
outer loop
vertex 247.031 0 257.985
vertex 247.031 23 257.985
vertex 234.992 0 267.735
endloop
endfacet
facet normal 0.629321 0 0.777146
outer loop
vertex 234.992 0 267.735
vertex 247.031 23 257.985
vertex 234.992 23 267.735
endloop
endfacet
facet normal 0.544638 0 0.838671
outer loop
vertex 234.992 0 267.735
vertex 234.992 23 267.735
vertex 222 0 276.172
endloop
endfacet
facet normal 0.544638 0 0.838671
outer loop
vertex 222 0 276.172
vertex 234.992 23 267.735
vertex 222 23 276.172
endloop
endfacet
facet normal 0.453992 0 0.891006
outer loop
vertex 222 0 276.172
vertex 222 23 276.172
vertex 208.197 0 283.205
endloop
endfacet
facet normal 0.453992 0 0.891006
outer loop
vertex 208.197 0 283.205
vertex 222 23 276.172
vertex 208.197 23 283.205
endloop
endfacet
facet normal 0.358368 0 0.93358
outer loop
vertex 208.197 0 283.205
vertex 208.197 23 283.205
vertex 193.735 0 288.756
endloop
endfacet
facet normal 0.358368 0 0.93358
outer loop
vertex 193.735 0 288.756
vertex 208.197 23 283.205
vertex 193.735 23 288.756
endloop
endfacet
facet normal 0.25882 0 0.965926
outer loop
vertex 193.735 0 288.756
vertex 193.735 23 288.756
vertex 178.771 0 292.766
endloop
endfacet
facet normal 0.25882 0 0.965926
outer loop
vertex 178.771 0 292.766
vertex 193.735 23 288.756
vertex 178.771 23 292.766
endloop
endfacet
facet normal 0.156435 0 0.987688
outer loop
vertex 178.771 0 292.766
vertex 178.771 23 292.766
vertex 163.47 0 295.189
endloop
endfacet
facet normal 0.156435 0 0.987688
outer loop
vertex 163.47 0 295.189
vertex 178.771 23 292.766
vertex 163.47 23 295.189
endloop
endfacet
facet normal 0.052334 0 0.99863
outer loop
vertex 163.47 0 295.189
vertex 163.47 23 295.189
vertex 148 0 296
endloop
endfacet
facet normal 0.052334 0 0.99863
outer loop
vertex 148 0 296
vertex 163.47 23 295.189
vertex 148 23 296
endloop
endfacet
facet normal -0.0523341 0 0.99863
outer loop
vertex 148 0 296
vertex 148 23 296
vertex 132.53 0 295.189
endloop
endfacet
facet normal -0.0523341 0 0.99863
outer loop
vertex 132.53 0 295.189
vertex 148 23 296
vertex 132.53 23 295.189
endloop
endfacet
facet normal -0.156435 0 0.987688
outer loop
vertex 132.53 0 295.189
vertex 132.53 23 295.189
vertex 117.229 0 292.766
endloop
endfacet
facet normal -0.156435 0 0.987688
outer loop
vertex 117.229 0 292.766
vertex 132.53 23 295.189
vertex 117.229 23 292.766
endloop
endfacet
facet normal -0.25882 0 0.965926
outer loop
vertex 117.229 0 292.766
vertex 117.229 23 292.766
vertex 102.265 0 288.756
endloop
endfacet
facet normal -0.25882 0 0.965926
outer loop
vertex 102.265 0 288.756
vertex 117.229 23 292.766
vertex 102.265 23 288.756
endloop
endfacet
facet normal -0.358368 0 0.93358
outer loop
vertex 102.265 0 288.756
vertex 102.265 23 288.756
vertex 87.803 0 283.205
endloop
endfacet
facet normal -0.358368 0 0.93358
outer loop
vertex 87.803 0 283.205
vertex 102.265 23 288.756
vertex 87.803 23 283.205
endloop
endfacet
facet normal -0.453992 0 0.891006
outer loop
vertex 87.803 0 283.205
vertex 87.803 23 283.205
vertex 74 0 276.172
endloop
endfacet
facet normal -0.453992 0 0.891006
outer loop
vertex 74 0 276.172
vertex 87.803 23 283.205
vertex 74 23 276.172
endloop
endfacet
facet normal -0.544638 0 0.838671
outer loop
vertex 74 0 276.172
vertex 74 23 276.172
vertex 61.0078 0 267.735
endloop
endfacet
facet normal -0.544638 0 0.838671
outer loop
vertex 61.0078 0 267.735
vertex 74 23 276.172
vertex 61.0078 23 267.735
endloop
endfacet
facet normal -0.629321 0 0.777146
outer loop
vertex 61.0078 0 267.735
vertex 61.0078 23 267.735
vertex 48.9687 0 257.985
endloop
endfacet
facet normal -0.629321 0 0.777146
outer loop
vertex 48.9687 0 257.985
vertex 61.0078 23 267.735
vertex 48.9687 23 257.985
endloop
endfacet
facet normal -0.707107 0 0.707106
outer loop
vertex 48.9687 0 257.985
vertex 48.9687 23 257.985
vertex 38.0146 0 247.031
endloop
endfacet
facet normal -0.707107 0 0.707106
outer loop
vertex 38.0146 0 247.031
vertex 48.9687 23 257.985
vertex 38.0146 23 247.031
endloop
endfacet
facet normal -0.777146 0 0.629321
outer loop
vertex 38.0146 0 247.031
vertex 38.0146 23 247.031
vertex 28.2655 0 234.992
endloop
endfacet
facet normal -0.777146 0 0.629321
outer loop
vertex 28.2655 0 234.992
vertex 38.0146 23 247.031
vertex 28.2655 23 234.992
endloop
endfacet
facet normal -0.838671 0 0.544639
outer loop
vertex 28.2655 0 234.992
vertex 28.2655 23 234.992
vertex 19.8282 0 222
endloop
endfacet
facet normal -0.838671 0 0.544639
outer loop
vertex 19.8282 0 222
vertex 28.2655 23 234.992
vertex 19.8282 23 222
endloop
endfacet
facet normal -0.891007 0 0.45399
outer loop
vertex 19.8282 0 222
vertex 19.8282 23 222
vertex 12.7953 0 208.197
endloop
endfacet
facet normal -0.891007 0 0.45399
outer loop
vertex 12.7953 0 208.197
vertex 19.8282 23 222
vertex 12.7953 23 208.197
endloop
endfacet
facet normal -0.93358 0 0.358368
outer loop
vertex 12.7953 0 208.197
vertex 12.7953 23 208.197
vertex 7.24364 0 193.735
endloop
endfacet
facet normal -0.93358 0 0.358368
outer loop
vertex 7.24364 0 193.735
vertex 12.7953 23 208.197
vertex 7.24364 23 193.735
endloop
endfacet
facet normal -0.965926 0 0.258819
outer loop
vertex 7.24364 0 193.735
vertex 7.24364 23 193.735
vertex 3.23416 0 178.771
endloop
endfacet
facet normal -0.965926 0 0.258819
outer loop
vertex 3.23416 0 178.771
vertex 7.24364 23 193.735
vertex 3.23416 23 178.771
endloop
endfacet
facet normal -0.987688 0 0.156434
outer loop
vertex 3.23416 0 178.771
vertex 3.23416 23 178.771
vertex 0.810765 0 163.47
endloop
endfacet
facet normal -0.987688 0 0.156434
outer loop
vertex 0.810765 0 163.47
vertex 3.23416 23 178.771
vertex 0.810765 23 163.47
endloop
endfacet
facet normal -0.99863 0 0.0523363
outer loop
vertex 0.810765 0 163.47
vertex 0.810765 23 163.47
vertex 0 0 148
endloop
endfacet
facet normal -0.99863 0 0.0523363
outer loop
vertex 0 0 148
vertex 0.810765 23 163.47
vertex 0 23 148
endloop
endfacet
facet normal -0.99863 0 -0.0523363
outer loop
vertex 0 0 148
vertex 0 23 148
vertex 0.810765 0 132.53
endloop
endfacet
facet normal -0.99863 0 -0.0523363
outer loop
vertex 0.810765 0 132.53
vertex 0 23 148
vertex 0.810765 23 132.53
endloop
endfacet
facet normal -0.987688 0 -0.156434
outer loop
vertex 0.810765 0 132.53
vertex 0.810765 23 132.53
vertex 3.23416 0 117.229
endloop
endfacet
facet normal -0.987688 0 -0.156434
outer loop
vertex 3.23416 0 117.229
vertex 0.810765 23 132.53
vertex 3.23416 23 117.229
endloop
endfacet
facet normal -0.965926 0 -0.258819
outer loop
vertex 3.23416 0 117.229
vertex 3.23416 23 117.229
vertex 7.24364 0 102.265
endloop
endfacet
facet normal -0.965926 0 -0.258819
outer loop
vertex 7.24364 0 102.265
vertex 3.23416 23 117.229
vertex 7.24364 23 102.265
endloop
endfacet
facet normal -0.933581 0 -0.358368
outer loop
vertex 7.24364 0 102.265
vertex 7.24364 23 102.265
vertex 12.7953 0 87.803
endloop
endfacet
facet normal -0.933581 0 -0.358368
outer loop
vertex 12.7953 0 87.803
vertex 7.24364 23 102.265
vertex 12.7953 23 87.803
endloop
endfacet
facet normal -0.891007 0 -0.45399
outer loop
vertex 12.7953 0 87.803
vertex 12.7953 23 87.803
vertex 19.8282 0 74
endloop
endfacet
facet normal -0.891007 0 -0.45399
outer loop
vertex 19.8282 0 74
vertex 12.7953 23 87.803
vertex 19.8282 23 74
endloop
endfacet
facet normal -0.838671 0 -0.544639
outer loop
vertex 19.8282 0 74
vertex 19.8282 23 74
vertex 28.2655 0 61.0078
endloop
endfacet
facet normal -0.838671 0 -0.544639
outer loop
vertex 28.2655 0 61.0078
vertex 19.8282 23 74
vertex 28.2655 23 61.0078
endloop
endfacet
facet normal -0.777146 0 -0.629321
outer loop
vertex 28.2655 0 61.0078
vertex 28.2655 23 61.0078
vertex 38.0146 0 48.9687
endloop
endfacet
facet normal -0.777146 0 -0.629321
outer loop
vertex 38.0146 0 48.9687
vertex 28.2655 23 61.0078
vertex 38.0146 23 48.9687
endloop
endfacet
facet normal -0.707107 0 -0.707107
outer loop
vertex 38.0146 0 48.9687
vertex 38.0146 23 48.9687
vertex 48.9687 0 38.0146
endloop
endfacet
facet normal -0.707107 0 -0.707107
outer loop
vertex 48.9687 0 38.0146
vertex 38.0146 23 48.9687
vertex 48.9687 23 38.0146
endloop
endfacet
facet normal -0.629321 0 -0.777146
outer loop
vertex 48.9687 0 38.0146
vertex 48.9687 23 38.0146
vertex 61.0078 0 28.2655
endloop
endfacet
facet normal -0.629321 0 -0.777146
outer loop
vertex 61.0078 0 28.2655
vertex 48.9687 23 38.0146
vertex 61.0078 23 28.2655
endloop
endfacet
facet normal -0.544639 0 -0.838671
outer loop
vertex 61.0078 0 28.2655
vertex 61.0078 23 28.2655
vertex 74 0 19.8282
endloop
endfacet
facet normal -0.544639 0 -0.838671
outer loop
vertex 74 0 19.8282
vertex 61.0078 23 28.2655
vertex 74 23 19.8282
endloop
endfacet
facet normal -0.453991 0 -0.891006
outer loop
vertex 74 0 19.8282
vertex 74 23 19.8282
vertex 87.803 0 12.7953
endloop
endfacet
facet normal -0.453991 0 -0.891006
outer loop
vertex 87.803 0 12.7953
vertex 74 23 19.8282
vertex 87.803 23 12.7953
endloop
endfacet
facet normal -0.358368 0 -0.93358
outer loop
vertex 87.803 0 12.7953
vertex 87.803 23 12.7953
vertex 102.265 0 7.24363
endloop
endfacet
facet normal -0.358368 0 -0.93358
outer loop
vertex 102.265 0 7.24363
vertex 87.803 23 12.7953
vertex 102.265 23 7.24363
endloop
endfacet
facet normal -0.258818 0 -0.965926
outer loop
vertex 102.265 0 7.24363
vertex 102.265 23 7.24363
vertex 117.229 0 3.23416
endloop
endfacet
facet normal -0.258818 0 -0.965926
outer loop
vertex 117.229 0 3.23416
vertex 102.265 23 7.24363
vertex 117.229 23 3.23416
endloop
endfacet
facet normal -0.156435 0 -0.987688
outer loop
vertex 117.229 0 3.23416
vertex 117.229 23 3.23416
vertex 132.53 0 0.810757
endloop
endfacet
facet normal -0.156435 0 -0.987688
outer loop
vertex 132.53 0 0.810757
vertex 117.229 23 3.23416
vertex 132.53 23 0.810757
endloop
endfacet
facet normal -0.0523359 0 -0.99863
outer loop
vertex 132.53 0 0.810757
vertex 132.53 23 0.810757
vertex 148 0 0
endloop
endfacet
facet normal -0.0523359 0 -0.99863
outer loop
vertex 148 0 0
vertex 132.53 23 0.810757
vertex 148 23 0
endloop
endfacet
facet normal 0.0523358 0 -0.99863
outer loop
vertex 148 0 0
vertex 148 23 0
vertex 163.47 0 0.810757
endloop
endfacet
facet normal 0.0523358 0 -0.99863
outer loop
vertex 163.47 0 0.810757
vertex 148 23 0
vertex 163.47 23 0.810757
endloop
endfacet
facet normal 0 -1 0
outer loop
vertex 189.445 0 194.782
vertex 234.992 0 267.735
vertex 181.404 0 200.824
endloop
endfacet
facet normal 0 -1 0
outer loop
vertex 181.404 0 200.824
vertex 234.992 0 267.735
vertex 222 0 276.172
endloop
endfacet
facet normal 0 -1 0
outer loop
vertex 181.404 0 200.824
vertex 222 0 276.172
vertex 172.498 0 205.499
endloop
endfacet
facet normal 0 -1 0
outer loop
vertex 185.546 0 98.0348
vertex 247.031 0 38.0146
vertex 193.075 0 104.705
endloop
endfacet
facet normal 0 -1 0
outer loop
vertex 193.075 0 104.705
vertex 247.031 0 38.0146
vertex 257.985 0 48.9687
endloop
endfacet
facet normal 0 -1 0
outer loop
vertex 193.075 0 104.705
vertex 257.985 0 48.9687
vertex 199.436 0 112.496
endloop
endfacet
facet normal 0 -1 0
outer loop
vertex 148 0 85.5
vertex 137.974 0 86.3094
vertex 132.53 0 0.810757
endloop
endfacet
facet normal 0 -1 0
outer loop
vertex 202.127 0 179.25
vertex 267.735 0 234.992
vertex 196.413 0 187.528
endloop
endfacet
facet normal 0 -1 0
outer loop
vertex 196.413 0 187.528
vertex 267.735 0 234.992
vertex 257.985 0 247.031
endloop
endfacet
facet normal 0 -1 0
outer loop
vertex 196.413 0 187.528
vertex 257.985 0 247.031
vertex 189.445 0 194.782
endloop
endfacet
facet normal 0 -1 0
outer loop
vertex 189.445 0 194.782
vertex 257.985 0 247.031
vertex 247.031 0 257.985
endloop
endfacet
facet normal 0 -1 0
outer loop
vertex 189.445 0 194.782
vertex 247.031 0 257.985
vertex 234.992 0 267.735
endloop
endfacet
facet normal 0 -1 0
outer loop
vertex 206.439 0 170.163
vertex 283.205 0 208.197
vertex 202.127 0 179.25
endloop
endfacet
facet normal 0 -1 0
outer loop
vertex 202.127 0 179.25
vertex 283.205 0 208.197
vertex 276.172 0 222
endloop
endfacet
facet normal 0 -1 0
outer loop
vertex 202.127 0 179.25
vertex 276.172 0 222
vertex 267.735 0 234.992
endloop
endfacet
facet normal 0 -1 0
outer loop
vertex 133.043 0 208.684
vertex 102.265 0 288.756
vertex 123.502 0 205.499
endloop
endfacet
facet normal 0 -1 0
outer loop
vertex 123.502 0 205.499
vertex 102.265 0 288.756
vertex 87.803 0 283.205
endloop
endfacet
facet normal 0 -1 0
outer loop
vertex 123.502 0 205.499
vertex 87.803 0 283.205
vertex 114.596 0 200.824
endloop
endfacet
facet normal 0 -1 0
outer loop
vertex 153.029 0 210.297
vertex 148 0 296
vertex 142.971 0 210.297
endloop
endfacet
facet normal 0 -1 0
outer loop
vertex 142.971 0 210.297
vertex 148 0 296
vertex 132.53 0 295.189
endloop
endfacet
facet normal 0 -1 0
outer loop
vertex 142.971 0 210.297
vertex 132.53 0 295.189
vertex 133.043 0 208.684
endloop
endfacet
facet normal 0 -1 0
outer loop
vertex 133.043 0 208.684
vertex 132.53 0 295.189
vertex 117.229 0 292.766
endloop
endfacet
facet normal 0 -1 0
outer loop
vertex 133.043 0 208.684
vertex 117.229 0 292.766
vertex 102.265 0 288.756
endloop
endfacet
facet normal 0 -1 0
outer loop
vertex 210.449 0 150.517
vertex 295.189 0 163.47
vertex 209.237 0 160.502
endloop
endfacet
facet normal 0 -1 0
outer loop
vertex 209.237 0 160.502
vertex 295.189 0 163.47
vertex 292.766 0 178.771
endloop
endfacet
facet normal 0 -1 0
outer loop
vertex 209.237 0 160.502
vertex 292.766 0 178.771
vertex 206.439 0 170.163
endloop
endfacet
facet normal 0 -1 0
outer loop
vertex 206.439 0 170.163
vertex 292.766 0 178.771
vertex 288.756 0 193.735
endloop
endfacet
facet normal 0 -1 0
outer loop
vertex 206.439 0 170.163
vertex 288.756 0 193.735
vertex 283.205 0 208.197
endloop
endfacet
facet normal 0 -1 0
outer loop
vertex 167.792 0 88.7165
vertex 208.197 0 12.7953
vertex 177.045 0 92.659
endloop
endfacet
facet normal 0 -1 0
outer loop
vertex 177.045 0 92.659
vertex 208.197 0 12.7953
vertex 222 0 19.8282
endloop
endfacet
facet normal 0 -1 0
outer loop
vertex 177.045 0 92.659
vertex 222 0 19.8282
vertex 185.546 0 98.0348
endloop
endfacet
facet normal 0 -1 0
outer loop
vertex 185.546 0 98.0348
vertex 222 0 19.8282
vertex 234.992 0 28.2655
endloop
endfacet
facet normal 0 -1 0
outer loop
vertex 185.546 0 98.0348
vertex 234.992 0 28.2655
vertex 247.031 0 38.0146
endloop
endfacet
facet normal 0 -1 0
outer loop
vertex 132.53 0 0.810757
vertex 148 0 0
vertex 148 0 85.5
endloop
endfacet
facet normal 0 -1 0
outer loop
vertex 148 0 85.5
vertex 148 0 0
vertex 163.47 0 0.810757
endloop
endfacet
facet normal 0 -1 0
outer loop
vertex 148 0 85.5
vertex 163.47 0 0.810757
vertex 158.026 0 86.3094
endloop
endfacet
facet normal 0 -1 0
outer loop
vertex 158.026 0 86.3094
vertex 163.47 0 0.810757
vertex 178.771 0 3.23416
endloop
endfacet
facet normal 0 -1 0
outer loop
vertex 158.026 0 86.3094
vertex 178.771 0 3.23416
vertex 167.792 0 88.7165
endloop
endfacet
facet normal 0 -1 0
outer loop
vertex 167.792 0 88.7165
vertex 178.771 0 3.23416
vertex 193.735 0 7.24363
endloop
endfacet
facet normal 0 -1 0
outer loop
vertex 167.792 0 88.7165
vertex 193.735 0 7.24363
vertex 208.197 0 12.7953
endloop
endfacet
facet normal 0 -1 0
outer loop
vertex 118.955 0 92.659
vertex 87.803 0 12.7953
vertex 128.208 0 88.7165
endloop
endfacet
facet normal 0 -1 0
outer loop
vertex 128.208 0 88.7165
vertex 87.803 0 12.7953
vertex 102.265 0 7.24363
endloop
endfacet
facet normal 0 -1 0
outer loop
vertex 128.208 0 88.7165
vertex 102.265 0 7.24363
vertex 137.974 0 86.3094
endloop
endfacet
facet normal 0 -1 0
outer loop
vertex 137.974 0 86.3094
vertex 102.265 0 7.24363
vertex 117.229 0 3.23416
endloop
endfacet
facet normal 0 -1 0
outer loop
vertex 137.974 0 86.3094
vertex 117.229 0 3.23416
vertex 132.53 0 0.810757
endloop
endfacet
facet normal 0 -1 0
outer loop
vertex 222 0 276.172
vertex 208.197 0 283.205
vertex 172.498 0 205.499
endloop
endfacet
facet normal 0 -1 0
outer loop
vertex 172.498 0 205.499
vertex 208.197 0 283.205
vertex 193.735 0 288.756
endloop
endfacet
facet normal 0 -1 0
outer loop
vertex 172.498 0 205.499
vertex 193.735 0 288.756
vertex 162.957 0 208.684
endloop
endfacet
facet normal 0 -1 0
outer loop
vertex 162.957 0 208.684
vertex 193.735 0 288.756
vertex 178.771 0 292.766
endloop
endfacet
facet normal 0 -1 0
outer loop
vertex 162.957 0 208.684
vertex 178.771 0 292.766
vertex 153.029 0 210.297
endloop
endfacet
facet normal 0 -1 0
outer loop
vertex 153.029 0 210.297
vertex 178.771 0 292.766
vertex 163.47 0 295.189
endloop
endfacet
facet normal 0 -1 0
outer loop
vertex 153.029 0 210.297
vertex 163.47 0 295.189
vertex 148 0 296
endloop
endfacet
facet normal 0 -1 0
outer loop
vertex 208.032 0 130.611
vertex 292.766 0 117.229
vertex 210.044 0 140.466
endloop
endfacet
facet normal 0 -1 0
outer loop
vertex 210.044 0 140.466
vertex 292.766 0 117.229
vertex 295.189 0 132.53
endloop
endfacet
facet normal 0 -1 0
outer loop
vertex 210.044 0 140.466
vertex 295.189 0 132.53
vertex 210.449 0 150.517
endloop
endfacet
facet normal 0 -1 0
outer loop
vertex 210.449 0 150.517
vertex 295.189 0 132.53
vertex 296 0 148
endloop
endfacet
facet normal 0 -1 0
outer loop
vertex 210.449 0 150.517
vertex 296 0 148
vertex 295.189 0 163.47
endloop
endfacet
facet normal 0 -1 0
outer loop
vertex 85.9557 0 140.466
vertex 3.23416 0 117.229
vertex 87.9676 0 130.611
endloop
endfacet
facet normal 0 -1 0
outer loop
vertex 87.9676 0 130.611
vertex 3.23416 0 117.229
vertex 7.24364 0 102.265
endloop
endfacet
facet normal 0 -1 0
outer loop
vertex 87.9676 0 130.611
vertex 7.24364 0 102.265
vertex 91.5343 0 121.207
endloop
endfacet
facet normal 0 -1 0
outer loop
vertex 257.985 0 48.9687
vertex 267.735 0 61.0078
vertex 199.436 0 112.496
endloop
endfacet
facet normal 0 -1 0
outer loop
vertex 199.436 0 112.496
vertex 267.735 0 61.0078
vertex 276.172 0 74
endloop
endfacet
facet normal 0 -1 0
outer loop
vertex 199.436 0 112.496
vertex 276.172 0 74
vertex 204.466 0 121.207
endloop
endfacet
facet normal 0 -1 0
outer loop
vertex 204.466 0 121.207
vertex 276.172 0 74
vertex 283.205 0 87.803
endloop
endfacet
facet normal 0 -1 0
outer loop
vertex 204.466 0 121.207
vertex 283.205 0 87.803
vertex 208.032 0 130.611
endloop
endfacet
facet normal 0 -1 0
outer loop
vertex 208.032 0 130.611
vertex 283.205 0 87.803
vertex 288.756 0 102.265
endloop
endfacet
facet normal 0 -1 0
outer loop
vertex 208.032 0 130.611
vertex 288.756 0 102.265
vertex 292.766 0 117.229
endloop
endfacet
facet normal 0 -1 0
outer loop
vertex 102.925 0 104.705
vertex 48.9687 0 38.0146
vertex 110.454 0 98.0348
endloop
endfacet
facet normal 0 -1 0
outer loop
vertex 110.454 0 98.0348
vertex 48.9687 0 38.0146
vertex 61.0078 0 28.2655
endloop
endfacet
facet normal 0 -1 0
outer loop
vertex 110.454 0 98.0348
vertex 61.0078 0 28.2655
vertex 118.955 0 92.659
endloop
endfacet
facet normal 0 -1 0
outer loop
vertex 118.955 0 92.659
vertex 61.0078 0 28.2655
vertex 74 0 19.8282
endloop
endfacet
facet normal 0 -1 0
outer loop
vertex 118.955 0 92.659
vertex 74 0 19.8282
vertex 87.803 0 12.7953
endloop
endfacet
facet normal 0 -1 0
outer loop
vertex 7.24364 0 102.265
vertex 12.7953 0 87.803
vertex 91.5343 0 121.207
endloop
endfacet
facet normal 0 -1 0
outer loop
vertex 91.5343 0 121.207
vertex 12.7953 0 87.803
vertex 19.8282 0 74
endloop
endfacet
facet normal 0 -1 0
outer loop
vertex 91.5343 0 121.207
vertex 19.8282 0 74
vertex 96.5635 0 112.496
endloop
endfacet
facet normal 0 -1 0
outer loop
vertex 96.5635 0 112.496
vertex 19.8282 0 74
vertex 28.2655 0 61.0078
endloop
endfacet
facet normal 0 -1 0
outer loop
vertex 96.5635 0 112.496
vertex 28.2655 0 61.0078
vertex 102.925 0 104.705
endloop
endfacet
facet normal 0 -1 0
outer loop
vertex 102.925 0 104.705
vertex 28.2655 0 61.0078
vertex 38.0146 0 48.9687
endloop
endfacet
facet normal 0 -1 0
outer loop
vertex 102.925 0 104.705
vertex 38.0146 0 48.9687
vertex 48.9687 0 38.0146
endloop
endfacet
facet normal 0 -1 0
outer loop
vertex 86.7631 0 160.502
vertex 0.810765 0 163.47
vertex 85.5507 0 150.517
endloop
endfacet
facet normal 0 -1 0
outer loop
vertex 85.5507 0 150.517
vertex 0.810765 0 163.47
vertex 0 0 148
endloop
endfacet
facet normal 0 -1 0
outer loop
vertex 85.5507 0 150.517
vertex 0 0 148
vertex 85.9557 0 140.466
endloop
endfacet
facet normal 0 -1 0
outer loop
vertex 85.9557 0 140.466
vertex 0 0 148
vertex 0.810765 0 132.53
endloop
endfacet
facet normal 0 -1 0
outer loop
vertex 85.9557 0 140.466
vertex 0.810765 0 132.53
vertex 3.23416 0 117.229
endloop
endfacet
facet normal 0 -1 0
outer loop
vertex 93.8734 0 179.25
vertex 12.7953 0 208.197
vertex 89.5615 0 170.163
endloop
endfacet
facet normal 0 -1 0
outer loop
vertex 89.5615 0 170.163
vertex 12.7953 0 208.197
vertex 7.24364 0 193.735
endloop
endfacet
facet normal 0 -1 0
outer loop
vertex 89.5615 0 170.163
vertex 7.24364 0 193.735
vertex 86.7631 0 160.502
endloop
endfacet
facet normal 0 -1 0
outer loop
vertex 86.7631 0 160.502
vertex 7.24364 0 193.735
vertex 3.23416 0 178.771
endloop
endfacet
facet normal 0 -1 0
outer loop
vertex 86.7631 0 160.502
vertex 3.23416 0 178.771
vertex 0.810765 0 163.47
endloop
endfacet
facet normal 0 -1 0
outer loop
vertex 99.5872 0 187.528
vertex 28.2655 0 234.992
vertex 93.8734 0 179.25
endloop
endfacet
facet normal 0 -1 0
outer loop
vertex 93.8734 0 179.25
vertex 28.2655 0 234.992
vertex 19.8282 0 222
endloop
endfacet
facet normal 0 -1 0
outer loop
vertex 93.8734 0 179.25
vertex 19.8282 0 222
vertex 12.7953 0 208.197
endloop
endfacet
facet normal 0 -1 0
outer loop
vertex 87.803 0 283.205
vertex 74 0 276.172
vertex 114.596 0 200.824
endloop
endfacet
facet normal 0 -1 0
outer loop
vertex 114.596 0 200.824
vertex 74 0 276.172
vertex 61.0078 0 267.735
endloop
endfacet
facet normal 0 -1 0
outer loop
vertex 114.596 0 200.824
vertex 61.0078 0 267.735
vertex 106.555 0 194.782
endloop
endfacet
facet normal 0 -1 0
outer loop
vertex 106.555 0 194.782
vertex 61.0078 0 267.735
vertex 48.9687 0 257.985
endloop
endfacet
facet normal 0 -1 0
outer loop
vertex 106.555 0 194.782
vertex 48.9687 0 257.985
vertex 99.5872 0 187.528
endloop
endfacet
facet normal 0 -1 0
outer loop
vertex 99.5872 0 187.528
vertex 48.9687 0 257.985
vertex 38.0146 0 247.031
endloop
endfacet
facet normal 0 -1 0
outer loop
vertex 99.5872 0 187.528
vertex 38.0146 0 247.031
vertex 28.2655 0 234.992
endloop
endfacet
endsolid
