solid C:\Temp\NOELParts\SPRING_SEAT_2_PRT.STL created by CtrlView V2.70
facet normal 0 1 0
outer loop
vertex 71.3606 20 138.646
vertex 75 20 150
vertex 78.6394 20 138.646
endloop
endfacet
facet normal 0 1 0
outer loop
vertex 78.6394 20 138.646
vertex 75 20 150
vertex 82.8396 20 149.589
endloop
endfacet
facet normal 0 1 0
outer loop
vertex 78.6394 20 138.646
vertex 82.8396 20 149.589
vertex 85.8708 20 137.816
endloop
endfacet
facet normal 0 1 0
outer loop
vertex 85.8708 20 137.816
vertex 82.8396 20 149.589
vertex 90.5934 20 148.361
endloop
endfacet
facet normal 0 1 0
outer loop
vertex 85.8708 20 137.816
vertex 90.5934 20 148.361
vertex 92.9605 20 136.168
endloop
endfacet
facet normal 0 1 0
outer loop
vertex 92.9605 20 136.168
vertex 90.5934 20 148.361
vertex 98.1763 20 146.329
endloop
endfacet
facet normal 0 1 0
outer loop
vertex 92.9605 20 136.168
vertex 98.1763 20 146.329
vertex 99.816 20 133.722
endloop
endfacet
facet normal 0 1 0
outer loop
vertex 99.816 20 133.722
vertex 98.1763 20 146.329
vertex 105.505 20 143.516
endloop
endfacet
facet normal 0 1 0
outer loop
vertex 99.816 20 133.722
vertex 105.505 20 143.516
vertex 106.348 20 130.51
endloop
endfacet
facet normal 0 1 0
outer loop
vertex 106.348 20 130.51
vertex 105.505 20 143.516
vertex 112.5 20 139.952
endloop
endfacet
facet normal 0 1 0
outer loop
vertex 106.348 20 130.51
vertex 112.5 20 139.952
vertex 112.471 20 126.575
endloop
endfacet
facet normal 0 1 0
outer loop
vertex 112.471 20 126.575
vertex 112.5 20 139.952
vertex 119.084 20 135.676
endloop
endfacet
facet normal 0 1 0
outer loop
vertex 112.471 20 126.575
vertex 119.084 20 135.676
vertex 118.106 20 121.967
endloop
endfacet
facet normal 0 1 0
outer loop
vertex 118.106 20 121.967
vertex 119.084 20 135.676
vertex 125.185 20 130.736
endloop
endfacet
facet normal 0 1 0
outer loop
vertex 118.106 20 121.967
vertex 125.185 20 130.736
vertex 123.179 20 116.747
endloop
endfacet
facet normal 0 1 0
outer loop
vertex 123.179 20 116.747
vertex 125.185 20 130.736
vertex 130.736 20 125.185
endloop
endfacet
facet normal 0 1 0
outer loop
vertex 123.179 20 116.747
vertex 130.736 20 125.185
vertex 127.624 20 110.983
endloop
endfacet
facet normal 0 1 0
outer loop
vertex 127.624 20 110.983
vertex 130.736 20 125.185
vertex 135.676 20 119.084
endloop
endfacet
facet normal 0 1 0
outer loop
vertex 127.624 20 110.983
vertex 135.676 20 119.084
vertex 131.383 20 104.75
endloop
endfacet
facet normal 0 1 0
outer loop
vertex 131.383 20 104.75
vertex 135.676 20 119.084
vertex 139.952 20 112.5
endloop
endfacet
facet normal 0 1 0
outer loop
vertex 131.383 20 104.75
vertex 139.952 20 112.5
vertex 134.406 20 98.129
endloop
endfacet
facet normal 0 1 0
outer loop
vertex 13.3444 20 91.2064
vertex 3.67077 20 98.1763
vertex 15.5937 20 98.129
endloop
endfacet
facet normal 0 1 0
outer loop
vertex 15.5937 20 98.129
vertex 3.67077 20 98.1763
vertex 6.48409 20 105.505
endloop
endfacet
facet normal 0 1 0
outer loop
vertex 15.5937 20 98.129
vertex 6.48409 20 105.505
vertex 18.6174 20 104.75
endloop
endfacet
facet normal 0 1 0
outer loop
vertex 18.6174 20 104.75
vertex 6.48409 20 105.505
vertex 10.0481 20 112.5
endloop
endfacet
facet normal 0 1 0
outer loop
vertex 18.6174 20 104.75
vertex 10.0481 20 112.5
vertex 22.3762 20 110.983
endloop
endfacet
facet normal 0 1 0
outer loop
vertex 22.3762 20 110.983
vertex 10.0481 20 112.5
vertex 14.3237 20 119.084
endloop
endfacet
facet normal 0 1 0
outer loop
vertex 22.3762 20 110.983
vertex 14.3237 20 119.084
vertex 26.821 20 116.747
endloop
endfacet
facet normal 0 1 0
outer loop
vertex 26.821 20 116.747
vertex 14.3237 20 119.084
vertex 19.2641 20 125.185
endloop
endfacet
facet normal 0 1 0
outer loop
vertex 26.821 20 116.747
vertex 19.2641 20 125.185
vertex 31.8939 20 121.967
endloop
endfacet
facet normal 0 1 0
outer loop
vertex 31.8939 20 121.967
vertex 19.2641 20 125.185
vertex 24.8152 20 130.736
endloop
endfacet
facet normal 0 1 0
outer loop
vertex 31.8939 20 121.967
vertex 24.8152 20 130.736
vertex 37.5287 20 126.575
endloop
endfacet
facet normal 0 1 0
outer loop
vertex 37.5287 20 126.575
vertex 24.8152 20 130.736
vertex 30.9161 20 135.676
endloop
endfacet
facet normal 0 1 0
outer loop
vertex 37.5287 20 126.575
vertex 30.9161 20 135.676
vertex 43.652 20 130.51
endloop
endfacet
facet normal 0 1 0
outer loop
vertex 43.652 20 130.51
vertex 30.9161 20 135.676
vertex 37.5 20 139.952
endloop
endfacet
facet normal 0 1 0
outer loop
vertex 43.652 20 130.51
vertex 37.5 20 139.952
vertex 50.184 20 133.722
endloop
endfacet
facet normal 0 1 0
outer loop
vertex 50.184 20 133.722
vertex 37.5 20 139.952
vertex 44.4948 20 143.516
endloop
endfacet
facet normal 0 1 0
outer loop
vertex 50.184 20 133.722
vertex 44.4948 20 143.516
vertex 57.0396 20 136.168
endloop
endfacet
facet normal 0 1 0
outer loop
vertex 57.0396 20 136.168
vertex 44.4948 20 143.516
vertex 51.8237 20 146.329
endloop
endfacet
facet normal 0 1 0
outer loop
vertex 57.0396 20 136.168
vertex 51.8237 20 146.329
vertex 64.1292 20 137.816
endloop
endfacet
facet normal 0 1 0
outer loop
vertex 64.1292 20 137.816
vertex 51.8237 20 146.329
vertex 59.4066 20 148.361
endloop
endfacet
facet normal 0 1 0
outer loop
vertex 64.1292 20 137.816
vertex 59.4066 20 148.361
vertex 71.3606 20 138.646
endloop
endfacet
facet normal 0 1 0
outer loop
vertex 71.3606 20 138.646
vertex 59.4066 20 148.361
vertex 67.1604 20 149.589
endloop
endfacet
facet normal 0 1 0
outer loop
vertex 71.3606 20 138.646
vertex 67.1604 20 149.589
vertex 75 20 150
endloop
endfacet
facet normal 0 1 0
outer loop
vertex 115.355 20 25.6485
vertex 119.084 20 14.3237
vertex 109.466 20 21.3701
endloop
endfacet
facet normal 0 1 0
outer loop
vertex 109.466 20 21.3701
vertex 119.084 20 14.3237
vertex 112.5 20 10.0481
endloop
endfacet
facet normal 0 1 0
outer loop
vertex 109.466 20 21.3701
vertex 112.5 20 10.0481
vertex 103.128 20 17.7909
endloop
endfacet
facet normal 0 1 0
outer loop
vertex 103.128 20 17.7909
vertex 112.5 20 10.0481
vertex 105.505 20 6.48409
endloop
endfacet
facet normal 0 1 0
outer loop
vertex 103.128 20 17.7909
vertex 105.505 20 6.48409
vertex 96.4231 20 14.9574
endloop
endfacet
facet normal 0 1 0
outer loop
vertex 96.4231 20 14.9574
vertex 105.505 20 6.48409
vertex 98.1763 20 3.67077
endloop
endfacet
facet normal 0 1 0
outer loop
vertex 96.4231 20 14.9574
vertex 98.1763 20 3.67077
vertex 89.4392 20 12.9067
endloop
endfacet
facet normal 0 1 0
outer loop
vertex 89.4392 20 12.9067
vertex 98.1763 20 3.67077
vertex 90.5934 20 1.63893
endloop
endfacet
facet normal 0 1 0
outer loop
vertex 89.4392 20 12.9067
vertex 90.5934 20 1.63893
vertex 82.267 20 11.6655
endloop
endfacet
facet normal 0 1 0
outer loop
vertex 82.267 20 11.6655
vertex 90.5934 20 1.63893
vertex 82.8396 20 0.410862
endloop
endfacet
facet normal 0 1 0
outer loop
vertex 82.267 20 11.6655
vertex 82.8396 20 0.410862
vertex 75 20 11.25
endloop
endfacet
facet normal 0 1 0
outer loop
vertex 75 20 11.25
vertex 82.8396 20 0.410862
vertex 75 20 0
endloop
endfacet
facet normal 0 1 0
outer loop
vertex 75 20 11.25
vertex 75 20 0
vertex 67.733 20 11.6655
endloop
endfacet
facet normal 0 1 0
outer loop
vertex 67.733 20 11.6655
vertex 75 20 0
vertex 67.1604 20 0.410862
endloop
endfacet
facet normal 0 1 0
outer loop
vertex 67.733 20 11.6655
vertex 67.1604 20 0.410862
vertex 60.5608 20 12.9067
endloop
endfacet
facet normal 0 1 0
outer loop
vertex 60.5608 20 12.9067
vertex 67.1604 20 0.410862
vertex 59.4066 20 1.63893
endloop
endfacet
facet normal 0 1 0
outer loop
vertex 60.5608 20 12.9067
vertex 59.4066 20 1.63893
vertex 53.5769 20 14.9574
endloop
endfacet
facet normal 0 1 0
outer loop
vertex 53.5769 20 14.9574
vertex 59.4066 20 1.63893
vertex 51.8237 20 3.67077
endloop
endfacet
facet normal 0 1 0
outer loop
vertex 53.5769 20 14.9574
vertex 51.8237 20 3.67077
vertex 46.8722 20 17.7909
endloop
endfacet
facet normal 0 1 0
outer loop
vertex 46.8722 20 17.7909
vertex 51.8237 20 3.67077
vertex 44.4948 20 6.48409
endloop
endfacet
facet normal 0 1 0
outer loop
vertex 46.8722 20 17.7909
vertex 44.4948 20 6.48409
vertex 40.5341 20 21.3701
endloop
endfacet
facet normal 0 1 0
outer loop
vertex 44.4948 20 6.48409
vertex 37.5 20 10.0481
vertex 40.5341 20 21.3701
endloop
endfacet
facet normal 0 1 0
outer loop
vertex 40.5341 20 21.3701
vertex 37.5 20 10.0481
vertex 30.9161 20 14.3237
endloop
endfacet
facet normal 0 1 0
outer loop
vertex 40.5341 20 21.3701
vertex 30.9161 20 14.3237
vertex 34.6455 20 25.6485
endloop
endfacet
facet normal 0 1 0
outer loop
vertex 34.6455 20 25.6485
vertex 30.9161 20 14.3237
vertex 24.8152 20 19.2641
endloop
endfacet
facet normal 0 1 0
outer loop
vertex 34.6455 20 25.6485
vertex 24.8152 20 19.2641
vertex 29.2828 20 30.5702
endloop
endfacet
facet normal 0 1 0
outer loop
vertex 29.2828 20 30.5702
vertex 24.8152 20 19.2641
vertex 19.2641 20 24.8152
endloop
endfacet
facet normal 0 1 0
outer loop
vertex 29.2828 20 30.5702
vertex 19.2641 20 24.8152
vertex 24.5162 20 36.0712
endloop
endfacet
facet normal 0 1 0
outer loop
vertex 24.5162 20 36.0712
vertex 19.2641 20 24.8152
vertex 14.3237 20 30.9161
endloop
endfacet
facet normal 0 1 0
outer loop
vertex 24.5162 20 36.0712
vertex 14.3237 20 30.9161
vertex 20.4078 20 42.0797
endloop
endfacet
facet normal 0 1 0
outer loop
vertex 20.4078 20 42.0797
vertex 14.3237 20 30.9161
vertex 10.0481 20 37.5
endloop
endfacet
facet normal 0 1 0
outer loop
vertex 20.4078 20 42.0797
vertex 10.0481 20 37.5
vertex 17.011 20 48.5173
endloop
endfacet
facet normal 0 1 0
outer loop
vertex 17.011 20 48.5173
vertex 10.0481 20 37.5
vertex 6.48409 20 44.4948
endloop
endfacet
facet normal 0 1 0
outer loop
vertex 17.011 20 48.5173
vertex 6.48409 20 44.4948
vertex 14.3702 20 55.3002
endloop
endfacet
facet normal 0 1 0
outer loop
vertex 14.3702 20 55.3002
vertex 6.48409 20 44.4948
vertex 3.67077 20 51.8237
endloop
endfacet
facet normal 0 1 0
outer loop
vertex 14.3702 20 55.3002
vertex 3.67077 20 51.8237
vertex 12.5197 20 62.3399
endloop
endfacet
facet normal 0 1 0
outer loop
vertex 12.5197 20 62.3399
vertex 3.67077 20 51.8237
vertex 1.63893 20 59.4066
endloop
endfacet
facet normal 0 1 0
outer loop
vertex 12.5197 20 62.3399
vertex 1.63893 20 59.4066
vertex 11.4839 20 69.5446
endloop
endfacet
facet normal 0 1 0
outer loop
vertex 11.4839 20 69.5446
vertex 1.63893 20 59.4066
vertex 0.410862 20 67.1604
endloop
endfacet
facet normal 0 1 0
outer loop
vertex 11.4839 20 69.5446
vertex 0.410862 20 67.1604
vertex 11.276 20 76.8204
endloop
endfacet
facet normal 0 1 0
outer loop
vertex 11.276 20 76.8204
vertex 0.410862 20 67.1604
vertex 0 20 75
endloop
endfacet
facet normal 0 1 0
outer loop
vertex 11.276 20 76.8204
vertex 0 20 75
vertex 11.8989 20 84.0726
endloop
endfacet
facet normal 0 1 0
outer loop
vertex 11.8989 20 84.0726
vertex 0 20 75
vertex 0.410862 20 82.8396
endloop
endfacet
facet normal 0 1 0
outer loop
vertex 11.8989 20 84.0726
vertex 0.410862 20 82.8396
vertex 13.3444 20 91.2064
endloop
endfacet
facet normal 0 1 0
outer loop
vertex 13.3444 20 91.2064
vertex 0.410862 20 82.8396
vertex 1.63893 20 90.5934
endloop
endfacet
facet normal 0 1 0
outer loop
vertex 13.3444 20 91.2064
vertex 1.63893 20 90.5934
vertex 3.67077 20 98.1763
endloop
endfacet
facet normal 0 1 0
outer loop
vertex 139.952 20 112.5
vertex 143.516 20 105.505
vertex 134.406 20 98.129
endloop
endfacet
facet normal 0 1 0
outer loop
vertex 134.406 20 98.129
vertex 143.516 20 105.505
vertex 146.329 20 98.1763
endloop
endfacet
facet normal 0 1 0
outer loop
vertex 134.406 20 98.129
vertex 146.329 20 98.1763
vertex 136.656 20 91.2064
endloop
endfacet
facet normal 0 1 0
outer loop
vertex 136.656 20 91.2064
vertex 146.329 20 98.1763
vertex 148.361 20 90.5934
endloop
endfacet
facet normal 0 1 0
outer loop
vertex 136.656 20 91.2064
vertex 148.361 20 90.5934
vertex 138.101 20 84.0726
endloop
endfacet
facet normal 0 1 0
outer loop
vertex 138.101 20 84.0726
vertex 148.361 20 90.5934
vertex 149.589 20 82.8396
endloop
endfacet
facet normal 0 1 0
outer loop
vertex 138.101 20 84.0726
vertex 149.589 20 82.8396
vertex 138.724 20 76.8204
endloop
endfacet
facet normal 0 1 0
outer loop
vertex 138.724 20 76.8204
vertex 149.589 20 82.8396
vertex 150 20 75
endloop
endfacet
facet normal 0 1 0
outer loop
vertex 138.724 20 76.8204
vertex 150 20 75
vertex 138.516 20 69.5446
endloop
endfacet
facet normal 0 1 0
outer loop
vertex 138.516 20 69.5446
vertex 150 20 75
vertex 149.589 20 67.1604
endloop
endfacet
facet normal 0 1 0
outer loop
vertex 138.516 20 69.5446
vertex 149.589 20 67.1604
vertex 137.48 20 62.3399
endloop
endfacet
facet normal 0 1 0
outer loop
vertex 137.48 20 62.3399
vertex 149.589 20 67.1604
vertex 148.361 20 59.4066
endloop
endfacet
facet normal 0 1 0
outer loop
vertex 137.48 20 62.3399
vertex 148.361 20 59.4066
vertex 135.63 20 55.3002
endloop
endfacet
facet normal 0 1 0
outer loop
vertex 135.63 20 55.3002
vertex 148.361 20 59.4066
vertex 146.329 20 51.8237
endloop
endfacet
facet normal 0 1 0
outer loop
vertex 135.63 20 55.3002
vertex 146.329 20 51.8237
vertex 132.989 20 48.5173
endloop
endfacet
facet normal 0 1 0
outer loop
vertex 132.989 20 48.5173
vertex 146.329 20 51.8237
vertex 143.516 20 44.4948
endloop
endfacet
facet normal 0 1 0
outer loop
vertex 132.989 20 48.5173
vertex 143.516 20 44.4948
vertex 129.592 20 42.0797
endloop
endfacet
facet normal 0 1 0
outer loop
vertex 129.592 20 42.0797
vertex 143.516 20 44.4948
vertex 139.952 20 37.5
endloop
endfacet
facet normal 0 1 0
outer loop
vertex 129.592 20 42.0797
vertex 139.952 20 37.5
vertex 125.484 20 36.0712
endloop
endfacet
facet normal 0 1 0
outer loop
vertex 125.484 20 36.0712
vertex 139.952 20 37.5
vertex 135.676 20 30.9161
endloop
endfacet
facet normal 0 1 0
outer loop
vertex 125.484 20 36.0712
vertex 135.676 20 30.9161
vertex 120.717 20 30.5702
endloop
endfacet
facet normal 0 1 0
outer loop
vertex 120.717 20 30.5702
vertex 135.676 20 30.9161
vertex 130.736 20 24.8152
endloop
endfacet
facet normal 0 1 0
outer loop
vertex 120.717 20 30.5702
vertex 130.736 20 24.8152
vertex 115.355 20 25.6485
endloop
endfacet
facet normal 0 1 0
outer loop
vertex 115.355 20 25.6485
vertex 130.736 20 24.8152
vertex 125.185 20 19.2641
endloop
endfacet
facet normal 0 1 0
outer loop
vertex 115.355 20 25.6485
vertex 125.185 20 19.2641
vertex 119.084 20 14.3237
endloop
endfacet
facet normal 0.156434 0 -0.987688
outer loop
vertex 82.8396 5.68573e-011 0.410862
vertex 82.8396 20 0.410862
vertex 90.5934 5.68573e-011 1.63893
endloop
endfacet
facet normal 0.156434 0 -0.987688
outer loop
vertex 90.5934 5.68573e-011 1.63893
vertex 82.8396 20 0.410862
vertex 90.5934 20 1.63893
endloop
endfacet
facet normal 0.258819 0 -0.965926
outer loop
vertex 90.5934 5.68573e-011 1.63893
vertex 90.5934 20 1.63893
vertex 98.1763 5.68573e-011 3.67077
endloop
endfacet
facet normal 0.258819 0 -0.965926
outer loop
vertex 98.1763 5.68573e-011 3.67077
vertex 90.5934 20 1.63893
vertex 98.1763 20 3.67077
endloop
endfacet
facet normal 0.358367 0 -0.933581
outer loop
vertex 98.1763 5.68573e-011 3.67077
vertex 98.1763 20 3.67077
vertex 105.505 5.68573e-011 6.48409
endloop
endfacet
facet normal 0.358367 0 -0.933581
outer loop
vertex 105.505 5.68573e-011 6.48409
vertex 98.1763 20 3.67077
vertex 105.505 20 6.48409
endloop
endfacet
facet normal 0.45399 0 -0.891007
outer loop
vertex 105.505 5.68573e-011 6.48409
vertex 105.505 20 6.48409
vertex 112.5 5.68573e-011 10.0481
endloop
endfacet
facet normal 0.45399 0 -0.891007
outer loop
vertex 112.5 5.68573e-011 10.0481
vertex 105.505 20 6.48409
vertex 112.5 20 10.0481
endloop
endfacet
facet normal 0.54464 0 -0.83867
outer loop
vertex 112.5 5.68573e-011 10.0481
vertex 112.5 20 10.0481
vertex 119.084 5.68573e-011 14.3237
endloop
endfacet
facet normal 0.54464 0 -0.83867
outer loop
vertex 119.084 5.68573e-011 14.3237
vertex 112.5 20 10.0481
vertex 119.084 20 14.3237
endloop
endfacet
facet normal 0.629319 0 -0.777147
outer loop
vertex 119.084 5.68573e-011 14.3237
vertex 119.084 20 14.3237
vertex 125.185 5.68573e-011 19.2641
endloop
endfacet
facet normal 0.629319 0 -0.777147
outer loop
vertex 125.185 5.68573e-011 19.2641
vertex 119.084 20 14.3237
vertex 125.185 20 19.2641
endloop
endfacet
facet normal 0.707107 0 -0.707106
outer loop
vertex 125.185 5.68573e-011 19.2641
vertex 125.185 20 19.2641
vertex 130.736 5.68573e-011 24.8152
endloop
endfacet
facet normal 0.707107 0 -0.707106
outer loop
vertex 130.736 5.68573e-011 24.8152
vertex 125.185 20 19.2641
vertex 130.736 20 24.8152
endloop
endfacet
facet normal 0.777146 0 -0.629321
outer loop
vertex 130.736 5.68573e-011 24.8152
vertex 130.736 20 24.8152
vertex 135.676 5.68573e-011 30.9161
endloop
endfacet
facet normal 0.777146 0 -0.629321
outer loop
vertex 135.676 5.68573e-011 30.9161
vertex 130.736 20 24.8152
vertex 135.676 20 30.9161
endloop
endfacet
facet normal 0.83867 0 -0.54464
outer loop
vertex 135.676 5.68573e-011 30.9161
vertex 135.676 20 30.9161
vertex 139.952 5.68573e-011 37.5
endloop
endfacet
facet normal 0.83867 0 -0.54464
outer loop
vertex 139.952 5.68573e-011 37.5
vertex 135.676 20 30.9161
vertex 139.952 20 37.5
endloop
endfacet
facet normal 0.891007 0 -0.453989
outer loop
vertex 139.952 5.68573e-011 37.5
vertex 139.952 20 37.5
vertex 143.516 5.68573e-011 44.4948
endloop
endfacet
facet normal 0.891007 0 -0.453989
outer loop
vertex 143.516 5.68573e-011 44.4948
vertex 139.952 20 37.5
vertex 143.516 20 44.4948
endloop
endfacet
facet normal 0.933581 0 -0.358367
outer loop
vertex 143.516 5.68573e-011 44.4948
vertex 143.516 20 44.4948
vertex 146.329 5.68573e-011 51.8237
endloop
endfacet
facet normal 0.933581 0 -0.358367
outer loop
vertex 146.329 5.68573e-011 51.8237
vertex 143.516 20 44.4948
vertex 146.329 20 51.8237
endloop
endfacet
facet normal 0.965926 0 -0.258819
outer loop
vertex 146.329 5.68573e-011 51.8237
vertex 146.329 20 51.8237
vertex 148.361 5.68573e-011 59.4066
endloop
endfacet
facet normal 0.965926 0 -0.258819
outer loop
vertex 148.361 5.68573e-011 59.4066
vertex 146.329 20 51.8237
vertex 148.361 20 59.4066
endloop
endfacet
facet normal 0.987688 0 -0.156436
outer loop
vertex 148.361 5.68573e-011 59.4066
vertex 148.361 20 59.4066
vertex 149.589 5.68573e-011 67.1604
endloop
endfacet
facet normal 0.987688 0 -0.156436
outer loop
vertex 149.589 5.68573e-011 67.1604
vertex 148.361 20 59.4066
vertex 149.589 20 67.1604
endloop
endfacet
facet normal 0.99863 0 -0.0523341
outer loop
vertex 149.589 5.68573e-011 67.1604
vertex 149.589 20 67.1604
vertex 150 5.68573e-011 75
endloop
endfacet
facet normal 0.99863 0 -0.0523341
outer loop
vertex 150 5.68573e-011 75
vertex 149.589 20 67.1604
vertex 150 20 75
endloop
endfacet
facet normal 0.99863 0 0.052334
outer loop
vertex 150 5.68573e-011 75
vertex 150 20 75
vertex 149.589 5.68573e-011 82.8396
endloop
endfacet
facet normal 0.99863 0 0.052334
outer loop
vertex 149.589 5.68573e-011 82.8396
vertex 150 20 75
vertex 149.589 20 82.8396
endloop
endfacet
facet normal 0.987688 0 0.156436
outer loop
vertex 149.589 5.68573e-011 82.8396
vertex 149.589 20 82.8396
vertex 148.361 5.68573e-011 90.5934
endloop
endfacet
facet normal 0.987688 0 0.156436
outer loop
vertex 148.361 5.68573e-011 90.5934
vertex 149.589 20 82.8396
vertex 148.361 20 90.5934
endloop
endfacet
facet normal 0.965926 0 0.258819
outer loop
vertex 148.361 5.68573e-011 90.5934
vertex 148.361 20 90.5934
vertex 146.329 5.68573e-011 98.1763
endloop
endfacet
facet normal 0.965926 0 0.258819
outer loop
vertex 146.329 5.68573e-011 98.1763
vertex 148.361 20 90.5934
vertex 146.329 20 98.1763
endloop
endfacet
facet normal 0.933581 0 0.358367
outer loop
vertex 146.329 5.68573e-011 98.1763
vertex 146.329 20 98.1763
vertex 143.516 5.68573e-011 105.505
endloop
endfacet
facet normal 0.933581 0 0.358367
outer loop
vertex 143.516 5.68573e-011 105.505
vertex 146.329 20 98.1763
vertex 143.516 20 105.505
endloop
endfacet
facet normal 0.891007 0 0.453989
outer loop
vertex 143.516 5.68573e-011 105.505
vertex 143.516 20 105.505
vertex 139.952 5.68573e-011 112.5
endloop
endfacet
facet normal 0.891007 0 0.453989
outer loop
vertex 139.952 5.68573e-011 112.5
vertex 143.516 20 105.505
vertex 139.952 20 112.5
endloop
endfacet
facet normal 0.83867 0 0.54464
outer loop
vertex 139.952 5.68573e-011 112.5
vertex 139.952 20 112.5
vertex 135.676 5.68573e-011 119.084
endloop
endfacet
facet normal 0.83867 0 0.54464
outer loop
vertex 135.676 5.68573e-011 119.084
vertex 139.952 20 112.5
vertex 135.676 20 119.084
endloop
endfacet
facet normal 0.777146 0 0.62932
outer loop
vertex 135.676 5.68573e-011 119.084
vertex 135.676 20 119.084
vertex 130.736 5.68573e-011 125.185
endloop
endfacet
facet normal 0.777146 0 0.62932
outer loop
vertex 130.736 5.68573e-011 125.185
vertex 135.676 20 119.084
vertex 130.736 20 125.185
endloop
endfacet
facet normal 0.707107 0 0.707107
outer loop
vertex 130.736 5.68573e-011 125.185
vertex 130.736 20 125.185
vertex 125.185 5.68573e-011 130.736
endloop
endfacet
facet normal 0.707107 0 0.707107
outer loop
vertex 125.185 5.68573e-011 130.736
vertex 130.736 20 125.185
vertex 125.185 20 130.736
endloop
endfacet
facet normal 0.62932 0 0.777146
outer loop
vertex 125.185 5.68573e-011 130.736
vertex 125.185 20 130.736
vertex 119.084 5.68573e-011 135.676
endloop
endfacet
facet normal 0.62932 0 0.777146
outer loop
vertex 119.084 5.68573e-011 135.676
vertex 125.185 20 130.736
vertex 119.084 20 135.676
endloop
endfacet
facet normal 0.54464 0 0.83867
outer loop
vertex 119.084 5.68573e-011 135.676
vertex 119.084 20 135.676
vertex 112.5 5.68573e-011 139.952
endloop
endfacet
facet normal 0.54464 0 0.83867
outer loop
vertex 112.5 5.68573e-011 139.952
vertex 119.084 20 135.676
vertex 112.5 20 139.952
endloop
endfacet
facet normal 0.453989 0 0.891007
outer loop
vertex 112.5 5.68573e-011 139.952
vertex 112.5 20 139.952
vertex 105.505 5.68573e-011 143.516
endloop
endfacet
facet normal 0.453989 0 0.891007
outer loop
vertex 105.505 5.68573e-011 143.516
vertex 112.5 20 139.952
vertex 105.505 20 143.516
endloop
endfacet
facet normal 0.358367 0 0.933581
outer loop
vertex 105.505 5.68573e-011 143.516
vertex 105.505 20 143.516
vertex 98.1763 5.68573e-011 146.329
endloop
endfacet
facet normal 0.358367 0 0.933581
outer loop
vertex 98.1763 5.68573e-011 146.329
vertex 105.505 20 143.516
vertex 98.1763 20 146.329
endloop
endfacet
facet normal 0.258819 0 0.965926
outer loop
vertex 98.1763 5.68573e-011 146.329
vertex 98.1763 20 146.329
vertex 90.5934 5.68573e-011 148.361
endloop
endfacet
facet normal 0.258819 0 0.965926
outer loop
vertex 90.5934 5.68573e-011 148.361
vertex 98.1763 20 146.329
vertex 90.5934 20 148.361
endloop
endfacet
facet normal 0.156436 0 0.987688
outer loop
vertex 90.5934 5.68573e-011 148.361
vertex 90.5934 20 148.361
vertex 82.8396 5.68573e-011 149.589
endloop
endfacet
facet normal 0.156436 0 0.987688
outer loop
vertex 82.8396 5.68573e-011 149.589
vertex 90.5934 20 148.361
vertex 82.8396 20 149.589
endloop
endfacet
facet normal 0.052334 0 0.99863
outer loop
vertex 82.8396 5.68573e-011 149.589
vertex 82.8396 20 149.589
vertex 75 5.68573e-011 150
endloop
endfacet
facet normal 0.052334 0 0.99863
outer loop
vertex 75 5.68573e-011 150
vertex 82.8396 20 149.589
vertex 75 20 150
endloop
endfacet
facet normal -0.0523341 0 0.99863
outer loop
vertex 75 5.68573e-011 150
vertex 75 20 150
vertex 67.1604 5.68573e-011 149.589
endloop
endfacet
facet normal -0.0523341 0 0.99863
outer loop
vertex 67.1604 5.68573e-011 149.589
vertex 75 20 150
vertex 67.1604 20 149.589
endloop
endfacet
facet normal -0.156436 0 0.987688
outer loop
vertex 67.1604 5.68573e-011 149.589
vertex 67.1604 20 149.589
vertex 59.4066 5.68573e-011 148.361
endloop
endfacet
facet normal -0.156436 0 0.987688
outer loop
vertex 59.4066 5.68573e-011 148.361
vertex 67.1604 20 149.589
vertex 59.4066 20 148.361
endloop
endfacet
facet normal -0.258819 0 0.965926
outer loop
vertex 59.4066 5.68573e-011 148.361
vertex 59.4066 20 148.361
vertex 51.8237 5.68573e-011 146.329
endloop
endfacet
facet normal -0.258819 0 0.965926
outer loop
vertex 51.8237 5.68573e-011 146.329
vertex 59.4066 20 148.361
vertex 51.8237 20 146.329
endloop
endfacet
facet normal -0.358367 0 0.933581
outer loop
vertex 51.8237 5.68573e-011 146.329
vertex 51.8237 20 146.329
vertex 44.4948 5.68573e-011 143.516
endloop
endfacet
facet normal -0.358367 0 0.933581
outer loop
vertex 44.4948 5.68573e-011 143.516
vertex 51.8237 20 146.329
vertex 44.4948 20 143.516
endloop
endfacet
facet normal -0.453989 0 0.891007
outer loop
vertex 44.4948 5.68573e-011 143.516
vertex 44.4948 20 143.516
vertex 37.5 5.68573e-011 139.952
endloop
endfacet
facet normal -0.453989 0 0.891007
outer loop
vertex 37.5 5.68573e-011 139.952
vertex 44.4948 20 143.516
vertex 37.5 20 139.952
endloop
endfacet
facet normal -0.54464 0 0.83867
outer loop
vertex 37.5 5.68573e-011 139.952
vertex 37.5 20 139.952
vertex 30.9161 5.68573e-011 135.676
endloop
endfacet
facet normal -0.54464 0 0.83867
outer loop
vertex 30.9161 5.68573e-011 135.676
vertex 37.5 20 139.952
vertex 30.9161 20 135.676
endloop
endfacet
facet normal -0.629321 0 0.777146
outer loop
vertex 30.9161 5.68573e-011 135.676
vertex 30.9161 20 135.676
vertex 24.8152 5.68573e-011 130.736
endloop
endfacet
facet normal -0.629321 0 0.777146
outer loop
vertex 24.8152 5.68573e-011 130.736
vertex 30.9161 20 135.676
vertex 24.8152 20 130.736
endloop
endfacet
facet normal -0.707106 0 0.707107
outer loop
vertex 24.8152 5.68573e-011 130.736
vertex 24.8152 20 130.736
vertex 19.2641 5.68573e-011 125.185
endloop
endfacet
facet normal -0.707106 0 0.707107
outer loop
vertex 19.2641 5.68573e-011 125.185
vertex 24.8152 20 130.736
vertex 19.2641 20 125.185
endloop
endfacet
facet normal -0.777147 0 0.629319
outer loop
vertex 19.2641 5.68573e-011 125.185
vertex 19.2641 20 125.185
vertex 14.3237 5.68573e-011 119.084
endloop
endfacet
facet normal -0.777147 0 0.629319
outer loop
vertex 14.3237 5.68573e-011 119.084
vertex 19.2641 20 125.185
vertex 14.3237 20 119.084
endloop
endfacet
facet normal -0.83867 0 0.54464
outer loop
vertex 14.3237 5.68573e-011 119.084
vertex 14.3237 20 119.084
vertex 10.0481 5.68573e-011 112.5
endloop
endfacet
facet normal -0.83867 0 0.54464
outer loop
vertex 10.0481 5.68573e-011 112.5
vertex 14.3237 20 119.084
vertex 10.0481 20 112.5
endloop
endfacet
facet normal -0.891007 0 0.45399
outer loop
vertex 10.0481 5.68573e-011 112.5
vertex 10.0481 20 112.5
vertex 6.48409 5.68573e-011 105.505
endloop
endfacet
facet normal -0.891007 0 0.45399
outer loop
vertex 6.48409 5.68573e-011 105.505
vertex 10.0481 20 112.5
vertex 6.48409 20 105.505
endloop
endfacet
facet normal -0.933581 0 0.358367
outer loop
vertex 6.48409 5.68573e-011 105.505
vertex 6.48409 20 105.505
vertex 3.67077 5.68573e-011 98.1763
endloop
endfacet
facet normal -0.933581 0 0.358367
outer loop
vertex 3.67077 5.68573e-011 98.1763
vertex 6.48409 20 105.505
vertex 3.67077 20 98.1763
endloop
endfacet
facet normal -0.965926 0 0.258819
outer loop
vertex 3.67077 5.68573e-011 98.1763
vertex 3.67077 20 98.1763
vertex 1.63893 5.68573e-011 90.5934
endloop
endfacet
facet normal -0.965926 0 0.258819
outer loop
vertex 1.63893 5.68573e-011 90.5934
vertex 3.67077 20 98.1763
vertex 1.63893 20 90.5934
endloop
endfacet
facet normal -0.987688 0 0.156434
outer loop
vertex 1.63893 5.68573e-011 90.5934
vertex 1.63893 20 90.5934
vertex 0.410862 5.68573e-011 82.8396
endloop
endfacet
facet normal -0.987688 0 0.156434
outer loop
vertex 0.410862 5.68573e-011 82.8396
vertex 1.63893 20 90.5934
vertex 0.410862 20 82.8396
endloop
endfacet
facet normal -0.99863 0 0.0523365
outer loop
vertex 0.410862 5.68573e-011 82.8396
vertex 0.410862 20 82.8396
vertex 0 5.68573e-011 75
endloop
endfacet
facet normal -0.99863 0 0.0523365
outer loop
vertex 0 5.68573e-011 75
vertex 0.410862 20 82.8396
vertex 0 20 75
endloop
endfacet
facet normal -0.99863 0 -0.0523365
outer loop
vertex 0 5.68573e-011 75
vertex 0 20 75
vertex 0.410862 5.68573e-011 67.1604
endloop
endfacet
facet normal -0.99863 0 -0.0523365
outer loop
vertex 0.410862 5.68573e-011 67.1604
vertex 0 20 75
vertex 0.410862 20 67.1604
endloop
endfacet
facet normal -0.987688 0 -0.156434
outer loop
vertex 0.410862 5.68573e-011 67.1604
vertex 0.410862 20 67.1604
vertex 1.63893 5.68573e-011 59.4066
endloop
endfacet
facet normal -0.987688 0 -0.156434
outer loop
vertex 1.63893 5.68573e-011 59.4066
vertex 0.410862 20 67.1604
vertex 1.63893 20 59.4066
endloop
endfacet
facet normal -0.965926 0 -0.258819
outer loop
vertex 1.63893 5.68573e-011 59.4066
vertex 1.63893 20 59.4066
vertex 3.67077 5.68573e-011 51.8237
endloop
endfacet
facet normal -0.965926 0 -0.258819
outer loop
vertex 3.67077 5.68573e-011 51.8237
vertex 1.63893 20 59.4066
vertex 3.67077 20 51.8237
endloop
endfacet
facet normal -0.933581 0 -0.358367
outer loop
vertex 3.67077 5.68573e-011 51.8237
vertex 3.67077 20 51.8237
vertex 6.48409 5.68573e-011 44.4948
endloop
endfacet
facet normal -0.933581 0 -0.358367
outer loop
vertex 6.48409 5.68573e-011 44.4948
vertex 3.67077 20 51.8237
vertex 6.48409 20 44.4948
endloop
endfacet
facet normal -0.891006 0 -0.453991
outer loop
vertex 6.48409 5.68573e-011 44.4948
vertex 6.48409 20 44.4948
vertex 10.0481 5.68573e-011 37.5
endloop
endfacet
facet normal -0.891006 0 -0.453991
outer loop
vertex 10.0481 5.68573e-011 37.5
vertex 6.48409 20 44.4948
vertex 10.0481 20 37.5
endloop
endfacet
facet normal -0.83867 0 -0.544639
outer loop
vertex 10.0481 5.68573e-011 37.5
vertex 10.0481 20 37.5
vertex 14.3237 5.68573e-011 30.9161
endloop
endfacet
facet normal -0.83867 0 -0.544639
outer loop
vertex 14.3237 5.68573e-011 30.9161
vertex 10.0481 20 37.5
vertex 14.3237 20 30.9161
endloop
endfacet
facet normal -0.777146 0 -0.62932
outer loop
vertex 14.3237 5.68573e-011 30.9161
vertex 14.3237 20 30.9161
vertex 19.2641 5.68573e-011 24.8152
endloop
endfacet
facet normal -0.777146 0 -0.62932
outer loop
vertex 19.2641 5.68573e-011 24.8152
vertex 14.3237 20 30.9161
vertex 19.2641 20 24.8152
endloop
endfacet
facet normal -0.707107 0 -0.707107
outer loop
vertex 19.2641 5.68573e-011 24.8152
vertex 19.2641 20 24.8152
vertex 24.8152 5.68573e-011 19.2641
endloop
endfacet
facet normal -0.707107 0 -0.707107
outer loop
vertex 24.8152 5.68573e-011 19.2641
vertex 19.2641 20 24.8152
vertex 24.8152 20 19.2641
endloop
endfacet
facet normal -0.62932 0 -0.777146
outer loop
vertex 24.8152 5.68573e-011 19.2641
vertex 24.8152 20 19.2641
vertex 30.9161 5.68573e-011 14.3237
endloop
endfacet
facet normal -0.62932 0 -0.777146
outer loop
vertex 30.9161 5.68573e-011 14.3237
vertex 24.8152 20 19.2641
vertex 30.9161 20 14.3237
endloop
endfacet
facet normal -0.544639 0 -0.83867
outer loop
vertex 30.9161 5.68573e-011 14.3237
vertex 30.9161 20 14.3237
vertex 37.5 5.68573e-011 10.0481
endloop
endfacet
facet normal -0.544639 0 -0.83867
outer loop
vertex 37.5 5.68573e-011 10.0481
vertex 30.9161 20 14.3237
vertex 37.5 20 10.0481
endloop
endfacet
facet normal -0.453991 0 -0.891006
outer loop
vertex 37.5 5.68573e-011 10.0481
vertex 37.5 20 10.0481
vertex 44.4948 5.68573e-011 6.48409
endloop
endfacet
facet normal -0.453991 0 -0.891006
outer loop
vertex 44.4948 5.68573e-011 6.48409
vertex 37.5 20 10.0481
vertex 44.4948 20 6.48409
endloop
endfacet
facet normal -0.358367 0 -0.933581
outer loop
vertex 44.4948 5.68573e-011 6.48409
vertex 44.4948 20 6.48409
vertex 51.8237 5.68573e-011 3.67077
endloop
endfacet
facet normal -0.358367 0 -0.933581
outer loop
vertex 51.8237 5.68573e-011 3.67077
vertex 44.4948 20 6.48409
vertex 51.8237 20 3.67077
endloop
endfacet
facet normal -0.258819 0 -0.965926
outer loop
vertex 51.8237 5.68573e-011 3.67077
vertex 51.8237 20 3.67077
vertex 59.4066 5.68573e-011 1.63893
endloop
endfacet
facet normal -0.258819 0 -0.965926
outer loop
vertex 59.4066 5.68573e-011 1.63893
vertex 51.8237 20 3.67077
vertex 59.4066 20 1.63893
endloop
endfacet
facet normal -0.156434 0 -0.987688
outer loop
vertex 59.4066 5.68573e-011 1.63893
vertex 59.4066 20 1.63893
vertex 67.1604 5.68573e-011 0.410862
endloop
endfacet
facet normal -0.156434 0 -0.987688
outer loop
vertex 67.1604 5.68573e-011 0.410862
vertex 59.4066 20 1.63893
vertex 67.1604 20 0.410862
endloop
endfacet
facet normal -0.0523365 0 -0.99863
outer loop
vertex 67.1604 5.68573e-011 0.410862
vertex 67.1604 20 0.410862
vertex 75 5.68573e-011 0
endloop
endfacet
facet normal -0.0523365 0 -0.99863
outer loop
vertex 75 5.68573e-011 0
vertex 67.1604 20 0.410862
vertex 75 20 0
endloop
endfacet
facet normal 0.0523365 0 -0.99863
outer loop
vertex 75 5.68573e-011 0
vertex 75 20 0
vertex 82.8396 5.68573e-011 0.410862
endloop
endfacet
facet normal 0.0523365 0 -0.99863
outer loop
vertex 82.8396 5.68573e-011 0.410862
vertex 75 20 0
vertex 82.8396 20 0.410862
endloop
endfacet
facet normal 0.147737 0.499388 -0.853689
outer loop
vertex 82.267 20 11.6655
vertex 80.6216 45 26.0052
vertex 89.4392 20 12.9067
endloop
endfacet
facet normal 0.147737 0.499388 -0.853689
outer loop
vertex 89.4392 20 12.9067
vertex 80.6216 45 26.0052
vertex 86.17 45 26.9654
endloop
endfacet
facet normal 0.244087 0.499388 -0.831284
outer loop
vertex 89.4392 20 12.9067
vertex 86.17 45 26.9654
vertex 96.4231 20 14.9574
endloop
endfacet
facet normal 0.244087 0.499388 -0.831284
outer loop
vertex 96.4231 20 14.9574
vertex 86.17 45 26.9654
vertex 91.5727 45 28.5518
endloop
endfacet
facet normal 0.337255 0.499388 -0.798042
outer loop
vertex 96.4231 20 14.9574
vertex 91.5727 45 28.5518
vertex 103.128 20 17.7909
endloop
endfacet
facet normal 0.337255 0.499388 -0.798042
outer loop
vertex 103.128 20 17.7909
vertex 91.5727 45 28.5518
vertex 96.7594 45 30.7437
endloop
endfacet
facet normal 0.426027 0.499388 -0.754395
outer loop
vertex 103.128 20 17.7909
vertex 96.7594 45 30.7437
vertex 109.466 20 21.3701
endloop
endfacet
facet normal 0.426027 0.499388 -0.754396
outer loop
vertex 109.466 20 21.3701
vertex 96.7594 45 30.7437
vertex 101.662 45 33.5125
endloop
endfacet
facet normal 0.509244 0.499388 -0.700915
outer loop
vertex 109.466 20 21.3701
vertex 101.662 45 33.5125
vertex 115.355 20 25.6485
endloop
endfacet
facet normal 0.509244 0.499388 -0.700915
outer loop
vertex 115.355 20 25.6485
vertex 101.662 45 33.5125
vertex 106.218 45 36.8222
endloop
endfacet
facet normal 0.585823 0.499388 -0.638297
outer loop
vertex 115.355 20 25.6485
vertex 106.218 45 36.8222
vertex 120.717 20 30.5702
endloop
endfacet
facet normal 0.585823 0.499388 -0.638297
outer loop
vertex 120.717 20 30.5702
vertex 106.218 45 36.8222
vertex 110.366 45 40.6297
endloop
endfacet
facet normal 0.654766 0.499388 -0.567357
outer loop
vertex 120.717 20 30.5702
vertex 110.366 45 40.6297
vertex 125.484 20 36.0712
endloop
endfacet
facet normal 0.654766 0.499388 -0.567357
outer loop
vertex 125.484 20 36.0712
vertex 110.366 45 40.6297
vertex 114.054 45 44.8851
endloop
endfacet
facet normal 0.715171 0.499388 -0.489022
outer loop
vertex 125.484 20 36.0712
vertex 114.054 45 44.8851
vertex 129.592 20 42.0797
endloop
endfacet
facet normal 0.715171 0.499388 -0.489021
outer loop
vertex 129.592 20 42.0797
vertex 114.054 45 44.8851
vertex 117.232 45 49.5332
endloop
endfacet
facet normal 0.766254 0.499388 -0.404311
outer loop
vertex 129.592 20 42.0797
vertex 117.232 45 49.5332
vertex 132.989 20 48.5173
endloop
endfacet
facet normal 0.766254 0.499388 -0.40431
outer loop
vertex 132.989 20 48.5173
vertex 117.232 45 49.5332
vertex 119.86 45 54.5133
endloop
endfacet
facet normal 0.807346 0.499388 -0.31433
outer loop
vertex 132.989 20 48.5173
vertex 119.86 45 54.5133
vertex 135.63 20 55.3002
endloop
endfacet
facet normal 0.807346 0.499388 -0.31433
outer loop
vertex 135.63 20 55.3002
vertex 119.86 45 54.5133
vertex 121.903 45 59.7604
endloop
endfacet
facet normal 0.837916 0.499388 -0.220247
outer loop
vertex 135.63 20 55.3002
vertex 121.903 45 59.7604
vertex 137.48 20 62.3399
endloop
endfacet
facet normal 0.837916 0.499388 -0.220248
outer loop
vertex 137.48 20 62.3399
vertex 121.903 45 59.7604
vertex 123.334 45 65.2063
endloop
endfacet
facet normal 0.85756 0.499388 -0.123301
outer loop
vertex 137.48 20 62.3399
vertex 123.334 45 65.2063
vertex 138.516 20 69.5446
endloop
endfacet
facet normal 0.85756 0.499388 -0.123299
outer loop
vertex 138.516 20 69.5446
vertex 123.334 45 65.2063
vertex 124.135 45 70.7798
endloop
endfacet
facet normal 0.866025 0.499388 -0.0247386
outer loop
vertex 138.516 20 69.5446
vertex 124.135 45 70.7798
vertex 138.724 20 76.8204
endloop
endfacet
facet normal 0.866025 0.499388 -0.0247397
outer loop
vertex 138.724 20 76.8204
vertex 124.135 45 70.7798
vertex 124.296 45 76.4083
endloop
endfacet
facet normal 0.863201 0.499388 0.0741377
outer loop
vertex 138.724 20 76.8204
vertex 124.296 45 76.4083
vertex 138.101 20 84.0726
endloop
endfacet
facet normal 0.8632 0.499388 0.0741404
outer loop
vertex 138.101 20 84.0726
vertex 124.296 45 76.4083
vertex 123.814 45 82.0184
endloop
endfacet
facet normal 0.849122 0.499388 0.172057
outer loop
vertex 138.101 20 84.0726
vertex 123.814 45 82.0184
vertex 136.656 20 91.2064
endloop
endfacet
facet normal 0.849123 0.499388 0.172053
outer loop
vertex 136.656 20 91.2064
vertex 123.814 45 82.0184
vertex 122.696 45 87.5371
endloop
endfacet
facet normal 0.823975 0.499388 0.267726
outer loop
vertex 136.656 20 91.2064
vertex 122.696 45 87.5371
vertex 134.406 20 98.129
endloop
endfacet
facet normal 0.823974 0.499388 0.267727
outer loop
vertex 134.406 20 98.129
vertex 122.696 45 87.5371
vertex 120.956 45 92.8923
endloop
endfacet
facet normal 0.788086 0.499388 0.359906
outer loop
vertex 134.406 20 98.129
vertex 120.956 45 92.8923
vertex 131.383 20 104.75
endloop
endfacet
facet normal 0.788085 0.499388 0.359907
outer loop
vertex 131.383 20 104.75
vertex 120.956 45 92.8923
vertex 118.617 45 98.0143
endloop
endfacet
facet normal 0.741923 0.499388 0.447395
outer loop
vertex 131.383 20 104.75
vertex 118.617 45 98.0143
vertex 127.624 20 110.983
endloop
endfacet
facet normal 0.741922 0.499388 0.447396
outer loop
vertex 127.624 20 110.983
vertex 118.617 45 98.0143
vertex 115.709 45 102.836
endloop
endfacet
facet normal 0.686086 0.499388 0.529053
outer loop
vertex 127.624 20 110.983
vertex 115.709 45 102.836
vertex 123.179 20 116.747
endloop
endfacet
facet normal 0.686087 0.499388 0.529052
outer loop
vertex 123.179 20 116.747
vertex 115.709 45 102.836
vertex 112.271 45 107.295
endloop
endfacet
facet normal 0.621308 0.499388 0.603811
outer loop
vertex 123.179 20 116.747
vertex 112.271 45 107.295
vertex 118.106 20 121.967
endloop
endfacet
facet normal 0.621309 0.499388 0.603811
outer loop
vertex 118.106 20 121.967
vertex 112.271 45 107.295
vertex 108.346 45 111.333
endloop
endfacet
facet normal 0.548429 0.499388 0.670699
outer loop
vertex 118.106 20 121.967
vertex 108.346 45 111.333
vertex 112.471 20 126.575
endloop
endfacet
facet normal 0.548428 0.499388 0.6707
outer loop
vertex 112.471 20 126.575
vertex 108.346 45 111.333
vertex 103.987 45 114.898
endloop
endfacet
facet normal 0.468398 0.499388 0.728845
outer loop
vertex 112.471 20 126.575
vertex 103.987 45 114.898
vertex 106.348 20 130.51
endloop
endfacet
facet normal 0.4684 0.499388 0.728844
outer loop
vertex 106.348 20 130.51
vertex 103.987 45 114.898
vertex 99.2504 45 117.942
endloop
endfacet
facet normal 0.382265 0.499388 0.777486
outer loop
vertex 106.348 20 130.51
vertex 99.2504 45 117.942
vertex 99.816 20 133.722
endloop
endfacet
facet normal 0.382263 0.499388 0.777487
outer loop
vertex 99.816 20 133.722
vertex 99.2504 45 117.942
vertex 94.1973 45 120.426
endloop
endfacet
facet normal 0.291146 0.499388 0.815993
outer loop
vertex 99.816 20 133.722
vertex 94.1973 45 120.426
vertex 92.9605 20 136.168
endloop
endfacet
facet normal 0.291148 0.499388 0.815993
outer loop
vertex 92.9605 20 136.168
vertex 94.1973 45 120.426
vertex 88.894 45 122.319
endloop
endfacet
facet normal 0.196233 0.499388 0.843863
outer loop
vertex 92.9605 20 136.168
vertex 88.894 45 122.319
vertex 85.8708 20 137.816
endloop
endfacet
facet normal 0.196232 0.499388 0.843863
outer loop
vertex 85.8708 20 137.816
vertex 88.894 45 122.319
vertex 83.4095 45 123.594
endloop
endfacet
facet normal 0.0987602 0.499388 0.860731
outer loop
vertex 85.8708 20 137.816
vertex 83.4095 45 123.594
vertex 78.6394 20 138.646
endloop
endfacet
facet normal 0.0987592 0.499388 0.860731
outer loop
vertex 78.6394 20 138.646
vertex 83.4095 45 123.594
vertex 77.8154 45 124.236
endloop
endfacet
facet normal 0 0.499388 0.866378
outer loop
vertex 78.6394 20 138.646
vertex 77.8154 45 124.236
vertex 71.3606 20 138.646
endloop
endfacet
facet normal 0 0.499388 0.866378
outer loop
vertex 71.3606 20 138.646
vertex 77.8154 45 124.236
vertex 72.1846 45 124.236
endloop
endfacet
facet normal -0.0987602 0.499388 0.860731
outer loop
vertex 71.3606 20 138.646
vertex 72.1846 45 124.236
vertex 64.1292 20 137.816
endloop
endfacet
facet normal -0.0987591 0.499388 0.860731
outer loop
vertex 64.1292 20 137.816
vertex 72.1846 45 124.236
vertex 66.5905 45 123.594
endloop
endfacet
facet normal -0.196233 0.499388 0.843863
outer loop
vertex 64.1292 20 137.816
vertex 66.5905 45 123.594
vertex 57.0396 20 136.168
endloop
endfacet
facet normal -0.196232 0.499388 0.843863
outer loop
vertex 57.0396 20 136.168
vertex 66.5905 45 123.594
vertex 61.106 45 122.319
endloop
endfacet
facet normal -0.291146 0.499388 0.815994
outer loop
vertex 57.0396 20 136.168
vertex 61.106 45 122.319
vertex 50.184 20 133.722
endloop
endfacet
facet normal -0.291148 0.499388 0.815993
outer loop
vertex 50.184 20 133.722
vertex 61.106 45 122.319
vertex 55.8027 45 120.426
endloop
endfacet
facet normal -0.382265 0.499388 0.777486
outer loop
vertex 50.184 20 133.722
vertex 55.8027 45 120.426
vertex 43.652 20 130.51
endloop
endfacet
facet normal -0.382263 0.499388 0.777488
outer loop
vertex 43.652 20 130.51
vertex 55.8027 45 120.426
vertex 50.7496 45 117.942
endloop
endfacet
facet normal -0.468398 0.499388 0.728845
outer loop
vertex 43.652 20 130.51
vertex 50.7496 45 117.942
vertex 37.5287 20 126.575
endloop
endfacet
facet normal -0.4684 0.499388 0.728844
outer loop
vertex 37.5287 20 126.575
vertex 50.7496 45 117.942
vertex 46.0126 45 114.898
endloop
endfacet
facet normal -0.548428 0.499388 0.670699
outer loop
vertex 37.5287 20 126.575
vertex 46.0126 45 114.898
vertex 31.8939 20 121.967
endloop
endfacet
facet normal -0.548428 0.499388 0.6707
outer loop
vertex 31.8939 20 121.967
vertex 46.0126 45 114.898
vertex 41.6536 45 111.333
endloop
endfacet
facet normal -0.621308 0.499388 0.603811
outer loop
vertex 31.8939 20 121.967
vertex 41.6536 45 111.333
vertex 26.821 20 116.747
endloop
endfacet
facet normal -0.621308 0.499388 0.603811
outer loop
vertex 26.821 20 116.747
vertex 41.6536 45 111.333
vertex 37.7293 45 107.295
endloop
endfacet
facet normal -0.686087 0.499388 0.529052
outer loop
vertex 26.821 20 116.747
vertex 37.7293 45 107.295
vertex 22.3762 20 110.983
endloop
endfacet
facet normal -0.686087 0.499388 0.529052
outer loop
vertex 22.3762 20 110.983
vertex 37.7293 45 107.295
vertex 34.2908 45 102.836
endloop
endfacet
facet normal -0.741922 0.499388 0.447396
outer loop
vertex 22.3762 20 110.983
vertex 34.2908 45 102.836
vertex 18.6174 20 104.75
endloop
endfacet
facet normal -0.741922 0.499388 0.447396
outer loop
vertex 18.6174 20 104.75
vertex 34.2908 45 102.836
vertex 31.3831 45 98.0143
endloop
endfacet
facet normal -0.788085 0.499388 0.359907
outer loop
vertex 18.6174 20 104.75
vertex 31.3831 45 98.0143
vertex 15.5937 20 98.129
endloop
endfacet
facet normal -0.788085 0.499388 0.359907
outer loop
vertex 15.5937 20 98.129
vertex 31.3831 45 98.0143
vertex 29.044 45 92.8923
endloop
endfacet
facet normal -0.823975 0.499388 0.267725
outer loop
vertex 15.5937 20 98.129
vertex 29.044 45 92.8923
vertex 13.3444 20 91.2064
endloop
endfacet
facet normal -0.823975 0.499388 0.267725
outer loop
vertex 13.3444 20 91.2064
vertex 29.044 45 92.8923
vertex 27.304 45 87.5371
endloop
endfacet
facet normal -0.849122 0.499388 0.172055
outer loop
vertex 13.3444 20 91.2064
vertex 27.304 45 87.5371
vertex 11.8989 20 84.0726
endloop
endfacet
facet normal -0.849122 0.499388 0.172054
outer loop
vertex 11.8989 20 84.0726
vertex 27.304 45 87.5371
vertex 26.1857 45 82.0184
endloop
endfacet
facet normal -0.8632 0.499388 0.0741401
outer loop
vertex 11.8989 20 84.0726
vertex 26.1857 45 82.0184
vertex 11.276 20 76.8204
endloop
endfacet
facet normal -0.8632 0.499388 0.0741408
outer loop
vertex 11.276 20 76.8204
vertex 26.1857 45 82.0184
vertex 25.7039 45 76.4083
endloop
endfacet
facet normal -0.866025 0.499388 -0.0247406
outer loop
vertex 11.276 20 76.8204
vertex 25.7039 45 76.4083
vertex 11.4839 20 69.5446
endloop
endfacet
facet normal -0.866025 0.499388 -0.0247406
outer loop
vertex 11.4839 20 69.5446
vertex 25.7039 45 76.4083
vertex 25.8647 45 70.7798
endloop
endfacet
facet normal -0.85756 0.499388 -0.123298
outer loop
vertex 11.4839 20 69.5446
vertex 25.8647 45 70.7798
vertex 12.5197 20 62.3399
endloop
endfacet
facet normal -0.85756 0.499388 -0.123299
outer loop
vertex 12.5197 20 62.3399
vertex 25.8647 45 70.7798
vertex 26.666 45 65.2063
endloop
endfacet
facet normal -0.837915 0.499388 -0.220249
outer loop
vertex 12.5197 20 62.3399
vertex 26.666 45 65.2063
vertex 14.3702 20 55.3002
endloop
endfacet
facet normal -0.837915 0.499388 -0.220249
outer loop
vertex 14.3702 20 55.3002
vertex 26.666 45 65.2063
vertex 28.0975 45 59.7604
endloop
endfacet
facet normal -0.807347 0.499388 -0.314329
outer loop
vertex 14.3702 20 55.3002
vertex 28.0975 45 59.7604
vertex 17.011 20 48.5173
endloop
endfacet
facet normal -0.807347 0.499388 -0.314329
outer loop
vertex 17.011 20 48.5173
vertex 28.0975 45 59.7604
vertex 30.1404 45 54.5133
endloop
endfacet
facet normal -0.766254 0.499388 -0.40431
outer loop
vertex 17.011 20 48.5173
vertex 30.1404 45 54.5133
vertex 20.4078 20 42.0797
endloop
endfacet
facet normal -0.766254 0.499388 -0.404311
outer loop
vertex 20.4078 20 42.0797
vertex 30.1404 45 54.5133
vertex 32.7681 45 49.5332
endloop
endfacet
facet normal -0.715171 0.499388 -0.489022
outer loop
vertex 20.4078 20 42.0797
vertex 32.7681 45 49.5332
vertex 24.5162 20 36.0712
endloop
endfacet
facet normal -0.715171 0.499388 -0.489021
outer loop
vertex 24.5162 20 36.0712
vertex 32.7681 45 49.5332
vertex 35.9464 45 44.8851
endloop
endfacet
facet normal -0.654765 0.499388 -0.567357
outer loop
vertex 24.5162 20 36.0712
vertex 35.9464 45 44.8851
vertex 29.2828 20 30.5702
endloop
endfacet
facet normal -0.654765 0.499388 -0.567357
outer loop
vertex 29.2828 20 30.5702
vertex 35.9464 45 44.8851
vertex 39.6338 45 40.6297
endloop
endfacet
facet normal -0.585823 0.499388 -0.638297
outer loop
vertex 29.2828 20 30.5702
vertex 39.6338 45 40.6297
vertex 34.6455 20 25.6485
endloop
endfacet
facet normal -0.585823 0.499388 -0.638297
outer loop
vertex 34.6455 20 25.6485
vertex 39.6338 45 40.6297
vertex 43.7822 45 36.8222
endloop
endfacet
facet normal -0.509245 0.499388 -0.700915
outer loop
vertex 34.6455 20 25.6485
vertex 43.7822 45 36.8222
vertex 40.5341 20 21.3701
endloop
endfacet
facet normal -0.509244 0.499388 -0.700915
outer loop
vertex 40.5341 20 21.3701
vertex 43.7822 45 36.8222
vertex 48.3376 45 33.5125
endloop
endfacet
facet normal -0.426027 0.499388 -0.754396
outer loop
vertex 40.5341 20 21.3701
vertex 48.3376 45 33.5125
vertex 46.8722 20 17.7909
endloop
endfacet
facet normal -0.426027 0.499388 -0.754396
outer loop
vertex 46.8722 20 17.7909
vertex 48.3376 45 33.5125
vertex 53.2406 45 30.7437
endloop
endfacet
facet normal -0.337255 0.499388 -0.798042
outer loop
vertex 46.8722 20 17.7909
vertex 53.2406 45 30.7437
vertex 53.5769 20 14.9574
endloop
endfacet
facet normal -0.337255 0.499388 -0.798042
outer loop
vertex 53.5769 20 14.9574
vertex 53.2406 45 30.7437
vertex 58.4273 45 28.5518
endloop
endfacet
facet normal -0.244087 0.499388 -0.831284
outer loop
vertex 53.5769 20 14.9574
vertex 58.4273 45 28.5518
vertex 60.5608 20 12.9067
endloop
endfacet
facet normal -0.244087 0.499388 -0.831284
outer loop
vertex 60.5608 20 12.9067
vertex 58.4273 45 28.5518
vertex 63.83 45 26.9654
endloop
endfacet
facet normal -0.147737 0.499388 -0.853689
outer loop
vertex 60.5608 20 12.9067
vertex 63.83 45 26.9654
vertex 67.733 20 11.6655
endloop
endfacet
facet normal -0.147737 0.499388 -0.853689
outer loop
vertex 67.733 20 11.6655
vertex 63.83 45 26.9654
vertex 69.3784 45 26.0052
endloop
endfacet
facet normal -0.0494608 0.499388 -0.864965
outer loop
vertex 67.733 20 11.6655
vertex 69.3784 45 26.0052
vertex 75 20 11.25
endloop
endfacet
facet normal -0.0494603 0.499388 -0.864965
outer loop
vertex 75 20 11.25
vertex 69.3784 45 26.0052
vertex 75 45 25.6838
endloop
endfacet
facet normal 0.0494607 0.499388 -0.864965
outer loop
vertex 75 20 11.25
vertex 75 45 25.6838
vertex 82.267 20 11.6655
endloop
endfacet
facet normal 0.0494603 0.499388 -0.864966
outer loop
vertex 82.267 20 11.6655
vertex 75 45 25.6838
vertex 80.6216 45 26.0052
endloop
endfacet
facet normal 0 -1 0
outer loop
vertex 5.57847 5.68573e-011 78.7639
vertex 0 5.68573e-011 75
vertex 5.57847 5.68573e-011 71.2361
endloop
endfacet
facet normal 0 -1 0
outer loop
vertex 5.57847 5.68573e-011 71.2361
vertex 0 5.68573e-011 75
vertex 0.410862 5.68573e-011 67.1604
endloop
endfacet
facet normal 0 -1 0
outer loop
vertex 5.57847 5.68573e-011 71.2361
vertex 0.410862 5.68573e-011 67.1604
vertex 6.39237 5.68573e-011 63.7524
endloop
endfacet
facet normal 0 -1 0
outer loop
vertex 6.39237 5.68573e-011 63.7524
vertex 0.410862 5.68573e-011 67.1604
vertex 1.63893 5.68573e-011 59.4066
endloop
endfacet
facet normal 0 -1 0
outer loop
vertex 6.39237 5.68573e-011 63.7524
vertex 1.63893 5.68573e-011 59.4066
vertex 8.01063 5.68573e-011 56.4005
endloop
endfacet
facet normal 0 -1 0
outer loop
vertex 8.01063 5.68573e-011 56.4005
vertex 1.63893 5.68573e-011 59.4066
vertex 3.67077 5.68573e-011 51.8237
endloop
endfacet
facet normal 0 -1 0
outer loop
vertex 8.01063 5.68573e-011 56.4005
vertex 3.67077 5.68573e-011 51.8237
vertex 10.4143 5.68573e-011 49.2667
endloop
endfacet
facet normal 0 -1 0
outer loop
vertex 10.4143 5.68573e-011 49.2667
vertex 3.67077 5.68573e-011 51.8237
vertex 6.48409 5.68573e-011 44.4948
endloop
endfacet
facet normal 0 -1 0
outer loop
vertex 10.4143 5.68573e-011 49.2667
vertex 6.48409 5.68573e-011 44.4948
vertex 13.5752 5.68573e-011 42.4346
endloop
endfacet
facet normal 0 -1 0
outer loop
vertex 13.5752 5.68573e-011 42.4346
vertex 6.48409 5.68573e-011 44.4948
vertex 10.0481 5.68573e-011 37.5
endloop
endfacet
facet normal 0 -1 0
outer loop
vertex 13.5752 5.68573e-011 42.4346
vertex 10.0481 5.68573e-011 37.5
vertex 17.4562 5.68573e-011 35.9843
endloop
endfacet
facet normal 0 -1 0
outer loop
vertex 17.4562 5.68573e-011 35.9843
vertex 10.0481 5.68573e-011 37.5
vertex 14.3237 5.68573e-011 30.9161
endloop
endfacet
facet normal 0 -1 0
outer loop
vertex 17.4562 5.68573e-011 35.9843
vertex 14.3237 5.68573e-011 30.9161
vertex 22.0118 5.68573e-011 29.9914
endloop
endfacet
facet normal 0 -1 0
outer loop
vertex 22.0118 5.68573e-011 29.9914
vertex 14.3237 5.68573e-011 30.9161
vertex 19.2641 5.68573e-011 24.8152
endloop
endfacet
facet normal 0 -1 0
outer loop
vertex 22.0118 5.68573e-011 29.9914
vertex 19.2641 5.68573e-011 24.8152
vertex 27.1887 5.68573e-011 24.5263
endloop
endfacet
facet normal 0 -1 0
outer loop
vertex 27.1887 5.68573e-011 24.5263
vertex 19.2641 5.68573e-011 24.8152
vertex 24.8152 5.68573e-011 19.2641
endloop
endfacet
facet normal 0 -1 0
outer loop
vertex 27.1887 5.68573e-011 24.5263
vertex 24.8152 5.68573e-011 19.2641
vertex 32.9262 5.68573e-011 19.6528
endloop
endfacet
facet normal 0 -1 0
outer loop
vertex 32.9262 5.68573e-011 19.6528
vertex 24.8152 5.68573e-011 19.2641
vertex 30.9161 5.68573e-011 14.3237
endloop
endfacet
facet normal 0 -1 0
outer loop
vertex 32.9262 5.68573e-011 19.6528
vertex 30.9161 5.68573e-011 14.3237
vertex 39.1569 5.68573e-011 15.4283
endloop
endfacet
facet normal 0 -1 0
outer loop
vertex 39.1569 5.68573e-011 15.4283
vertex 30.9161 5.68573e-011 14.3237
vertex 37.5 5.68573e-011 10.0481
endloop
endfacet
facet normal 0 -1 0
outer loop
vertex 39.1569 5.68573e-011 15.4283
vertex 37.5 5.68573e-011 10.0481
vertex 45.8078 5.68573e-011 11.9022
endloop
endfacet
facet normal 0 -1 0
outer loop
vertex 45.8078 5.68573e-011 11.9022
vertex 37.5 5.68573e-011 10.0481
vertex 44.4948 5.68573e-011 6.48409
endloop
endfacet
facet normal 0 -1 0
outer loop
vertex 45.8078 5.68573e-011 11.9022
vertex 44.4948 5.68573e-011 6.48409
vertex 52.801 5.68573e-011 9.11584
endloop
endfacet
facet normal 0 -1 0
outer loop
vertex 52.801 5.68573e-011 9.11584
vertex 44.4948 5.68573e-011 6.48409
vertex 51.8237 5.68573e-011 3.67077
endloop
endfacet
facet normal 0 -1 0
outer loop
vertex 52.801 5.68573e-011 9.11584
vertex 51.8237 5.68573e-011 3.67077
vertex 60.0545 5.68573e-011 7.10192
endloop
endfacet
facet normal 0 -1 0
outer loop
vertex 60.0545 5.68573e-011 7.10192
vertex 51.8237 5.68573e-011 3.67077
vertex 59.4066 5.68573e-011 1.63893
endloop
endfacet
facet normal 0 -1 0
outer loop
vertex 60.0545 5.68573e-011 7.10192
vertex 59.4066 5.68573e-011 1.63893
vertex 67.4832 5.68573e-011 5.88405
endloop
endfacet
facet normal 0 -1 0
outer loop
vertex 67.4832 5.68573e-011 5.88405
vertex 59.4066 5.68573e-011 1.63893
vertex 67.1604 5.68573e-011 0.410862
endloop
endfacet
facet normal 0 -1 0
outer loop
vertex 67.4832 5.68573e-011 5.88405
vertex 67.1604 5.68573e-011 0.410862
vertex 75 5.68573e-011 5.4765
endloop
endfacet
facet normal 0 -1 0
outer loop
vertex 75 5.68573e-011 5.4765
vertex 67.1604 5.68573e-011 0.410862
vertex 75 5.68573e-011 0
endloop
endfacet
facet normal 0 -1 0
outer loop
vertex 75 5.68573e-011 5.4765
vertex 75 5.68573e-011 0
vertex 82.5168 5.68573e-011 5.88405
endloop
endfacet
facet normal 0 -1 0
outer loop
vertex 82.5168 5.68573e-011 5.88405
vertex 75 5.68573e-011 0
vertex 82.8396 5.68573e-011 0.410862
endloop
endfacet
facet normal 0 -1 0
outer loop
vertex 82.5168 5.68573e-011 5.88405
vertex 82.8396 5.68573e-011 0.410862
vertex 89.9455 5.68573e-011 7.10192
endloop
endfacet
facet normal 0 -1 0
outer loop
vertex 89.9455 5.68573e-011 7.10192
vertex 82.8396 5.68573e-011 0.410862
vertex 90.5934 5.68573e-011 1.63893
endloop
endfacet
facet normal 0 -1 0
outer loop
vertex 89.9455 5.68573e-011 7.10192
vertex 90.5934 5.68573e-011 1.63893
vertex 97.199 5.68573e-011 9.11584
endloop
endfacet
facet normal 0 -1 0
outer loop
vertex 97.199 5.68573e-011 9.11584
vertex 90.5934 5.68573e-011 1.63893
vertex 98.1763 5.68573e-011 3.67077
endloop
endfacet
facet normal 0 -1 0
outer loop
vertex 97.199 5.68573e-011 9.11584
vertex 98.1763 5.68573e-011 3.67077
vertex 104.192 5.68573e-011 11.9022
endloop
endfacet
facet normal 0 -1 0
outer loop
vertex 104.192 5.68573e-011 11.9022
vertex 98.1763 5.68573e-011 3.67077
vertex 105.505 5.68573e-011 6.48409
endloop
endfacet
facet normal 0 -1 0
outer loop
vertex 104.192 5.68573e-011 11.9022
vertex 105.505 5.68573e-011 6.48409
vertex 110.843 5.68573e-011 15.4283
endloop
endfacet
facet normal 0 -1 0
outer loop
vertex 110.843 5.68573e-011 15.4283
vertex 105.505 5.68573e-011 6.48409
vertex 112.5 5.68573e-011 10.0481
endloop
endfacet
facet normal 0 -1 0
outer loop
vertex 110.843 5.68573e-011 15.4283
vertex 112.5 5.68573e-011 10.0481
vertex 117.074 5.68573e-011 19.6528
endloop
endfacet
facet normal 0 -1 0
outer loop
vertex 117.074 5.68573e-011 19.6528
vertex 112.5 5.68573e-011 10.0481
vertex 119.084 5.68573e-011 14.3237
endloop
endfacet
facet normal 0 -1 0
outer loop
vertex 117.074 5.68573e-011 19.6528
vertex 119.084 5.68573e-011 14.3237
vertex 122.811 5.68573e-011 24.5263
endloop
endfacet
facet normal 0 -1 0
outer loop
vertex 122.811 5.68573e-011 24.5263
vertex 119.084 5.68573e-011 14.3237
vertex 125.185 5.68573e-011 19.2641
endloop
endfacet
facet normal 0 -1 0
outer loop
vertex 122.811 5.68573e-011 24.5263
vertex 125.185 5.68573e-011 19.2641
vertex 127.988 5.68573e-011 29.9914
endloop
endfacet
facet normal 0 -1 0
outer loop
vertex 127.988 5.68573e-011 29.9914
vertex 125.185 5.68573e-011 19.2641
vertex 130.736 5.68573e-011 24.8152
endloop
endfacet
facet normal 0 -1 0
outer loop
vertex 127.988 5.68573e-011 29.9914
vertex 130.736 5.68573e-011 24.8152
vertex 132.544 5.68573e-011 35.9843
endloop
endfacet
facet normal 0 -1 0
outer loop
vertex 132.544 5.68573e-011 35.9843
vertex 130.736 5.68573e-011 24.8152
vertex 135.676 5.68573e-011 30.9161
endloop
endfacet
facet normal 0 -1 0
outer loop
vertex 132.544 5.68573e-011 35.9843
vertex 135.676 5.68573e-011 30.9161
vertex 136.425 5.68573e-011 42.4346
endloop
endfacet
facet normal 0 -1 0
outer loop
vertex 136.425 5.68573e-011 42.4346
vertex 135.676 5.68573e-011 30.9161
vertex 139.952 5.68573e-011 37.5
endloop
endfacet
facet normal 0 -1 0
outer loop
vertex 136.425 5.68573e-011 42.4346
vertex 139.952 5.68573e-011 37.5
vertex 139.586 5.68573e-011 49.2667
endloop
endfacet
facet normal 0 -1 0
outer loop
vertex 139.586 5.68573e-011 49.2667
vertex 139.952 5.68573e-011 37.5
vertex 143.516 5.68573e-011 44.4948
endloop
endfacet
facet normal 0 -1 0
outer loop
vertex 139.586 5.68573e-011 49.2667
vertex 143.516 5.68573e-011 44.4948
vertex 141.989 5.68573e-011 56.4005
endloop
endfacet
facet normal 0 -1 0
outer loop
vertex 141.989 5.68573e-011 56.4005
vertex 143.516 5.68573e-011 44.4948
vertex 146.329 5.68573e-011 51.8237
endloop
endfacet
facet normal 0 -1 0
outer loop
vertex 141.989 5.68573e-011 56.4005
vertex 146.329 5.68573e-011 51.8237
vertex 143.608 5.68573e-011 63.7524
endloop
endfacet
facet normal 0 -1 0
outer loop
vertex 143.608 5.68573e-011 63.7524
vertex 146.329 5.68573e-011 51.8237
vertex 148.361 5.68573e-011 59.4066
endloop
endfacet
facet normal 0 -1 0
outer loop
vertex 143.608 5.68573e-011 63.7524
vertex 148.361 5.68573e-011 59.4066
vertex 144.422 5.68573e-011 71.2361
endloop
endfacet
facet normal 0 -1 0
outer loop
vertex 148.361 5.68573e-011 59.4066
vertex 149.589 5.68573e-011 67.1604
vertex 144.422 5.68573e-011 71.2361
endloop
endfacet
facet normal 0 -1 0
outer loop
vertex 144.422 5.68573e-011 71.2361
vertex 149.589 5.68573e-011 67.1604
vertex 150 5.68573e-011 75
endloop
endfacet
facet normal 0 -1 0
outer loop
vertex 144.422 5.68573e-011 71.2361
vertex 150 5.68573e-011 75
vertex 144.422 5.68573e-011 78.7639
endloop
endfacet
facet normal 0 -1 0
outer loop
vertex 144.422 5.68573e-011 78.7639
vertex 150 5.68573e-011 75
vertex 149.589 5.68573e-011 82.8396
endloop
endfacet
facet normal 0 -1 0
outer loop
vertex 144.422 5.68573e-011 78.7639
vertex 149.589 5.68573e-011 82.8396
vertex 143.608 5.68573e-011 86.2477
endloop
endfacet
facet normal 0 -1 0
outer loop
vertex 143.608 5.68573e-011 86.2477
vertex 149.589 5.68573e-011 82.8396
vertex 148.361 5.68573e-011 90.5934
endloop
endfacet
facet normal 0 -1 0
outer loop
vertex 143.608 5.68573e-011 86.2477
vertex 148.361 5.68573e-011 90.5934
vertex 141.989 5.68573e-011 93.5995
endloop
endfacet
facet normal 0 -1 0
outer loop
vertex 141.989 5.68573e-011 93.5995
vertex 148.361 5.68573e-011 90.5934
vertex 146.329 5.68573e-011 98.1763
endloop
endfacet
facet normal 0 -1 0
outer loop
vertex 141.989 5.68573e-011 93.5995
vertex 146.329 5.68573e-011 98.1763
vertex 139.586 5.68573e-011 100.733
endloop
endfacet
facet normal 0 -1 0
outer loop
vertex 139.586 5.68573e-011 100.733
vertex 146.329 5.68573e-011 98.1763
vertex 143.516 5.68573e-011 105.505
endloop
endfacet
facet normal 0 -1 0
outer loop
vertex 139.586 5.68573e-011 100.733
vertex 143.516 5.68573e-011 105.505
vertex 136.425 5.68573e-011 107.565
endloop
endfacet
facet normal 0 -1 0
outer loop
vertex 136.425 5.68573e-011 107.565
vertex 143.516 5.68573e-011 105.505
vertex 139.952 5.68573e-011 112.5
endloop
endfacet
facet normal 0 -1 0
outer loop
vertex 136.425 5.68573e-011 107.565
vertex 139.952 5.68573e-011 112.5
vertex 132.544 5.68573e-011 114.016
endloop
endfacet
facet normal 0 -1 0
outer loop
vertex 132.544 5.68573e-011 114.016
vertex 139.952 5.68573e-011 112.5
vertex 135.676 5.68573e-011 119.084
endloop
endfacet
facet normal 0 -1 0
outer loop
vertex 132.544 5.68573e-011 114.016
vertex 135.676 5.68573e-011 119.084
vertex 127.988 5.68573e-011 120.009
endloop
endfacet
facet normal 0 -1 0
outer loop
vertex 127.988 5.68573e-011 120.009
vertex 135.676 5.68573e-011 119.084
vertex 130.736 5.68573e-011 125.185
endloop
endfacet
facet normal 0 -1 0
outer loop
vertex 127.988 5.68573e-011 120.009
vertex 130.736 5.68573e-011 125.185
vertex 122.811 5.68573e-011 125.474
endloop
endfacet
facet normal 0 -1 0
outer loop
vertex 122.811 5.68573e-011 125.474
vertex 130.736 5.68573e-011 125.185
vertex 125.185 5.68573e-011 130.736
endloop
endfacet
facet normal 0 -1 0
outer loop
vertex 122.811 5.68573e-011 125.474
vertex 125.185 5.68573e-011 130.736
vertex 117.074 5.68573e-011 130.347
endloop
endfacet
facet normal 0 -1 0
outer loop
vertex 117.074 5.68573e-011 130.347
vertex 125.185 5.68573e-011 130.736
vertex 119.084 5.68573e-011 135.676
endloop
endfacet
facet normal 0 -1 0
outer loop
vertex 117.074 5.68573e-011 130.347
vertex 119.084 5.68573e-011 135.676
vertex 110.843 5.68573e-011 134.572
endloop
endfacet
facet normal 0 -1 0
outer loop
vertex 110.843 5.68573e-011 134.572
vertex 119.084 5.68573e-011 135.676
vertex 112.5 5.68573e-011 139.952
endloop
endfacet
facet normal 0 -1 0
outer loop
vertex 110.843 5.68573e-011 134.572
vertex 112.5 5.68573e-011 139.952
vertex 104.192 5.68573e-011 138.098
endloop
endfacet
facet normal 0 -1 0
outer loop
vertex 104.192 5.68573e-011 138.098
vertex 112.5 5.68573e-011 139.952
vertex 105.505 5.68573e-011 143.516
endloop
endfacet
facet normal 0 -1 0
outer loop
vertex 104.192 5.68573e-011 138.098
vertex 105.505 5.68573e-011 143.516
vertex 97.199 5.68573e-011 140.884
endloop
endfacet
facet normal 0 -1 0
outer loop
vertex 97.199 5.68573e-011 140.884
vertex 105.505 5.68573e-011 143.516
vertex 98.1763 5.68573e-011 146.329
endloop
endfacet
facet normal 0 -1 0
outer loop
vertex 97.199 5.68573e-011 140.884
vertex 98.1763 5.68573e-011 146.329
vertex 89.9455 5.68573e-011 142.898
endloop
endfacet
facet normal 0 -1 0
outer loop
vertex 89.9455 5.68573e-011 142.898
vertex 98.1763 5.68573e-011 146.329
vertex 90.5934 5.68573e-011 148.361
endloop
endfacet
facet normal 0 -1 0
outer loop
vertex 89.9455 5.68573e-011 142.898
vertex 90.5934 5.68573e-011 148.361
vertex 82.5168 5.68573e-011 144.116
endloop
endfacet
facet normal 0 -1 0
outer loop
vertex 82.5168 5.68573e-011 144.116
vertex 90.5934 5.68573e-011 148.361
vertex 82.8396 5.68573e-011 149.589
endloop
endfacet
facet normal 0 -1 0
outer loop
vertex 82.5168 5.68573e-011 144.116
vertex 82.8396 5.68573e-011 149.589
vertex 75 5.68573e-011 144.523
endloop
endfacet
facet normal 0 -1 0
outer loop
vertex 75 5.68573e-011 144.523
vertex 82.8396 5.68573e-011 149.589
vertex 75 5.68573e-011 150
endloop
endfacet
facet normal 0 -1 0
outer loop
vertex 75 5.68573e-011 144.523
vertex 75 5.68573e-011 150
vertex 67.4832 5.68573e-011 144.116
endloop
endfacet
facet normal 0 -1 0
outer loop
vertex 67.4832 5.68573e-011 144.116
vertex 75 5.68573e-011 150
vertex 67.1604 5.68573e-011 149.589
endloop
endfacet
facet normal 0 -1 0
outer loop
vertex 67.4832 5.68573e-011 144.116
vertex 67.1604 5.68573e-011 149.589
vertex 60.0545 5.68573e-011 142.898
endloop
endfacet
facet normal 0 -1 0
outer loop
vertex 60.0545 5.68573e-011 142.898
vertex 67.1604 5.68573e-011 149.589
vertex 59.4066 5.68573e-011 148.361
endloop
endfacet
facet normal 0 -1 0
outer loop
vertex 60.0545 5.68573e-011 142.898
vertex 59.4066 5.68573e-011 148.361
vertex 52.801 5.68573e-011 140.884
endloop
endfacet
facet normal 0 -1 0
outer loop
vertex 52.801 5.68573e-011 140.884
vertex 59.4066 5.68573e-011 148.361
vertex 51.8237 5.68573e-011 146.329
endloop
endfacet
facet normal 0 -1 0
outer loop
vertex 52.801 5.68573e-011 140.884
vertex 51.8237 5.68573e-011 146.329
vertex 45.8078 5.68573e-011 138.098
endloop
endfacet
facet normal 0 -1 0
outer loop
vertex 45.8078 5.68573e-011 138.098
vertex 51.8237 5.68573e-011 146.329
vertex 44.4948 5.68573e-011 143.516
endloop
endfacet
facet normal 0 -1 0
outer loop
vertex 45.8078 5.68573e-011 138.098
vertex 44.4948 5.68573e-011 143.516
vertex 39.1569 5.68573e-011 134.572
endloop
endfacet
facet normal 0 -1 0
outer loop
vertex 39.1569 5.68573e-011 134.572
vertex 44.4948 5.68573e-011 143.516
vertex 37.5 5.68573e-011 139.952
endloop
endfacet
facet normal 0 -1 0
outer loop
vertex 39.1569 5.68573e-011 134.572
vertex 37.5 5.68573e-011 139.952
vertex 32.9262 5.68573e-011 130.347
endloop
endfacet
facet normal 0 -1 0
outer loop
vertex 32.9262 5.68573e-011 130.347
vertex 37.5 5.68573e-011 139.952
vertex 30.9161 5.68573e-011 135.676
endloop
endfacet
facet normal 0 -1 0
outer loop
vertex 32.9262 5.68573e-011 130.347
vertex 30.9161 5.68573e-011 135.676
vertex 27.1887 5.68573e-011 125.474
endloop
endfacet
facet normal 0 -1 0
outer loop
vertex 27.1887 5.68573e-011 125.474
vertex 30.9161 5.68573e-011 135.676
vertex 24.8152 5.68573e-011 130.736
endloop
endfacet
facet normal 0 -1 0
outer loop
vertex 27.1887 5.68573e-011 125.474
vertex 24.8152 5.68573e-011 130.736
vertex 22.0118 5.68573e-011 120.009
endloop
endfacet
facet normal 0 -1 0
outer loop
vertex 22.0118 5.68573e-011 120.009
vertex 24.8152 5.68573e-011 130.736
vertex 19.2641 5.68573e-011 125.185
endloop
endfacet
facet normal 0 -1 0
outer loop
vertex 22.0118 5.68573e-011 120.009
vertex 19.2641 5.68573e-011 125.185
vertex 17.4562 5.68573e-011 114.016
endloop
endfacet
facet normal 0 -1 0
outer loop
vertex 17.4562 5.68573e-011 114.016
vertex 19.2641 5.68573e-011 125.185
vertex 14.3237 5.68573e-011 119.084
endloop
endfacet
facet normal 0 -1 0
outer loop
vertex 17.4562 5.68573e-011 114.016
vertex 14.3237 5.68573e-011 119.084
vertex 13.5752 5.68573e-011 107.565
endloop
endfacet
facet normal 0 -1 0
outer loop
vertex 13.5752 5.68573e-011 107.565
vertex 14.3237 5.68573e-011 119.084
vertex 10.0481 5.68573e-011 112.5
endloop
endfacet
facet normal 0 -1 0
outer loop
vertex 13.5752 5.68573e-011 107.565
vertex 10.0481 5.68573e-011 112.5
vertex 10.4143 5.68573e-011 100.733
endloop
endfacet
facet normal 0 -1 0
outer loop
vertex 10.4143 5.68573e-011 100.733
vertex 10.0481 5.68573e-011 112.5
vertex 6.48409 5.68573e-011 105.505
endloop
endfacet
facet normal 0 -1 0
outer loop
vertex 10.4143 5.68573e-011 100.733
vertex 6.48409 5.68573e-011 105.505
vertex 8.01063 5.68573e-011 93.5995
endloop
endfacet
facet normal 0 -1 0
outer loop
vertex 8.01063 5.68573e-011 93.5995
vertex 6.48409 5.68573e-011 105.505
vertex 3.67077 5.68573e-011 98.1763
endloop
endfacet
facet normal 0 -1 0
outer loop
vertex 8.01063 5.68573e-011 93.5995
vertex 3.67077 5.68573e-011 98.1763
vertex 6.39237 5.68573e-011 86.2477
endloop
endfacet
facet normal 0 -1 0
outer loop
vertex 6.39237 5.68573e-011 86.2477
vertex 3.67077 5.68573e-011 98.1763
vertex 1.63893 5.68573e-011 90.5934
endloop
endfacet
facet normal 0 -1 0
outer loop
vertex 6.39237 5.68573e-011 86.2477
vertex 1.63893 5.68573e-011 90.5934
vertex 5.57847 5.68573e-011 78.7639
endloop
endfacet
facet normal 0 -1 0
outer loop
vertex 5.57847 5.68573e-011 78.7639
vertex 1.63893 5.68573e-011 90.5934
vertex 0.410862 5.68573e-011 82.8396
endloop
endfacet
facet normal 0 -1 0
outer loop
vertex 5.57847 5.68573e-011 78.7639
vertex 0.410862 5.68573e-011 82.8396
vertex 0 5.68573e-011 75
endloop
endfacet
facet normal 0 1 0
outer loop
vertex 77.8154 45 124.236
vertex 75 45 118.543
vertex 72.1846 45 124.236
endloop
endfacet
facet normal 0 1 0
outer loop
vertex 72.1846 45 124.236
vertex 75 45 118.543
vertex 70.2922 45 118.287
endloop
endfacet
facet normal 0 1 0
outer loop
vertex 72.1846 45 124.236
vertex 70.2922 45 118.287
vertex 66.5905 45 123.594
endloop
endfacet
facet normal 0 1 0
outer loop
vertex 66.5905 45 123.594
vertex 70.2922 45 118.287
vertex 65.6396 45 117.525
endloop
endfacet
facet normal 0 1 0
outer loop
vertex 66.5905 45 123.594
vertex 65.6396 45 117.525
vertex 61.106 45 122.319
endloop
endfacet
facet normal 0 1 0
outer loop
vertex 61.106 45 122.319
vertex 65.6396 45 117.525
vertex 61.0967 45 116.263
endloop
endfacet
facet normal 0 1 0
outer loop
vertex 61.106 45 122.319
vertex 61.0967 45 116.263
vertex 55.8027 45 120.426
endloop
endfacet
facet normal 0 1 0
outer loop
vertex 55.8027 45 120.426
vertex 61.0967 45 116.263
vertex 56.7169 45 114.518
endloop
endfacet
facet normal 0 1 0
outer loop
vertex 55.8027 45 120.426
vertex 56.7169 45 114.518
vertex 50.7496 45 117.942
endloop
endfacet
facet normal 0 1 0
outer loop
vertex 50.7496 45 117.942
vertex 56.7169 45 114.518
vertex 52.5514 45 112.31
endloop
endfacet
facet normal 0 1 0
outer loop
vertex 50.7496 45 117.942
vertex 52.5514 45 112.31
vertex 46.0126 45 114.898
endloop
endfacet
facet normal 0 1 0
outer loop
vertex 46.0126 45 114.898
vertex 52.5514 45 112.31
vertex 48.6491 45 109.664
endloop
endfacet
facet normal 0 1 0
outer loop
vertex 46.0126 45 114.898
vertex 48.6491 45 109.664
vertex 41.6536 45 111.333
endloop
endfacet
facet normal 0 1 0
outer loop
vertex 41.6536 45 111.333
vertex 48.6491 45 109.664
vertex 45.0557 45 106.612
endloop
endfacet
facet normal 0 1 0
outer loop
vertex 41.6536 45 111.333
vertex 45.0557 45 106.612
vertex 37.7293 45 107.295
endloop
endfacet
facet normal 0 1 0
outer loop
vertex 37.7293 45 107.295
vertex 45.0557 45 106.612
vertex 41.8134 45 103.189
endloop
endfacet
facet normal 0 1 0
outer loop
vertex 37.7293 45 107.295
vertex 41.8134 45 103.189
vertex 34.2908 45 102.836
endloop
endfacet
facet normal 0 1 0
outer loop
vertex 34.2908 45 102.836
vertex 41.8134 45 103.189
vertex 38.9602 45 99.4356
endloop
endfacet
facet normal 0 1 0
outer loop
vertex 34.2908 45 102.836
vertex 38.9602 45 99.4356
vertex 31.3831 45 98.0143
endloop
endfacet
facet normal 0 1 0
outer loop
vertex 31.3831 45 98.0143
vertex 38.9602 45 99.4356
vertex 36.5295 45 95.3958
endloop
endfacet
facet normal 0 1 0
outer loop
vertex 31.3831 45 98.0143
vertex 36.5295 45 95.3958
vertex 29.044 45 92.8923
endloop
endfacet
facet normal 0 1 0
outer loop
vertex 29.044 45 92.8923
vertex 36.5295 45 95.3958
vertex 34.5498 45 91.1168
endloop
endfacet
facet normal 0 1 0
outer loop
vertex 29.044 45 92.8923
vertex 34.5498 45 91.1168
vertex 27.304 45 87.5371
endloop
endfacet
facet normal 0 1 0
outer loop
vertex 27.304 45 87.5371
vertex 34.5498 45 91.1168
vertex 33.0444 45 86.6489
endloop
endfacet
facet normal 0 1 0
outer loop
vertex 27.304 45 87.5371
vertex 33.0444 45 86.6489
vertex 26.1857 45 82.0184
endloop
endfacet
facet normal 0 1 0
outer loop
vertex 26.1857 45 82.0184
vertex 33.0444 45 86.6489
vertex 32.0309 45 82.0444
endloop
endfacet
facet normal 0 1 0
outer loop
vertex 26.1857 45 82.0184
vertex 32.0309 45 82.0444
vertex 25.7039 45 76.4083
endloop
endfacet
facet normal 0 1 0
outer loop
vertex 25.7039 45 76.4083
vertex 32.0309 45 82.0444
vertex 31.5211 45 77.3574
endloop
endfacet
facet normal 0 1 0
outer loop
vertex 25.7039 45 76.4083
vertex 31.5211 45 77.3574
vertex 25.8647 45 70.7798
endloop
endfacet
facet normal 0 1 0
outer loop
vertex 25.8647 45 70.7798
vertex 31.5211 45 77.3574
vertex 31.5211 45 72.6426
endloop
endfacet
facet normal 0 1 0
outer loop
vertex 25.8647 45 70.7798
vertex 31.5211 45 72.6426
vertex 26.666 45 65.2063
endloop
endfacet
facet normal 0 1 0
outer loop
vertex 26.666 45 65.2063
vertex 31.5211 45 72.6426
vertex 32.0309 45 67.9556
endloop
endfacet
facet normal 0 1 0
outer loop
vertex 26.666 45 65.2063
vertex 32.0309 45 67.9556
vertex 28.0975 45 59.7604
endloop
endfacet
facet normal 0 1 0
outer loop
vertex 28.0975 45 59.7604
vertex 32.0309 45 67.9556
vertex 33.0444 45 63.3511
endloop
endfacet
facet normal 0 1 0
outer loop
vertex 28.0975 45 59.7604
vertex 33.0444 45 63.3511
vertex 30.1404 45 54.5133
endloop
endfacet
facet normal 0 1 0
outer loop
vertex 30.1404 45 54.5133
vertex 33.0444 45 63.3511
vertex 34.5498 45 58.8832
endloop
endfacet
facet normal 0 1 0
outer loop
vertex 30.1404 45 54.5133
vertex 34.5498 45 58.8832
vertex 32.7681 45 49.5332
endloop
endfacet
facet normal 0 1 0
outer loop
vertex 34.5498 45 58.8832
vertex 36.5295 45 54.6042
vertex 32.7681 45 49.5332
endloop
endfacet
facet normal 0 1 0
outer loop
vertex 32.7681 45 49.5332
vertex 36.5295 45 54.6042
vertex 38.9602 45 50.5644
endloop
endfacet
facet normal 0 1 0
outer loop
vertex 32.7681 45 49.5332
vertex 38.9602 45 50.5644
vertex 35.9464 45 44.8851
endloop
endfacet
facet normal 0 1 0
outer loop
vertex 35.9464 45 44.8851
vertex 38.9602 45 50.5644
vertex 41.8134 45 46.811
endloop
endfacet
facet normal 0 1 0
outer loop
vertex 35.9464 45 44.8851
vertex 41.8134 45 46.811
vertex 39.6338 45 40.6297
endloop
endfacet
facet normal 0 1 0
outer loop
vertex 39.6338 45 40.6297
vertex 41.8134 45 46.811
vertex 45.0557 45 43.3882
endloop
endfacet
facet normal 0 1 0
outer loop
vertex 39.6338 45 40.6297
vertex 45.0557 45 43.3882
vertex 43.7822 45 36.8222
endloop
endfacet
facet normal 0 1 0
outer loop
vertex 43.7822 45 36.8222
vertex 45.0557 45 43.3882
vertex 48.6491 45 40.3359
endloop
endfacet
facet normal 0 1 0
outer loop
vertex 43.7822 45 36.8222
vertex 48.6491 45 40.3359
vertex 48.3376 45 33.5125
endloop
endfacet
facet normal 0 1 0
outer loop
vertex 48.3376 45 33.5125
vertex 48.6491 45 40.3359
vertex 52.5514 45 37.6901
endloop
endfacet
facet normal 0 1 0
outer loop
vertex 48.3376 45 33.5125
vertex 52.5514 45 37.6901
vertex 53.2406 45 30.7437
endloop
endfacet
facet normal 0 1 0
outer loop
vertex 53.2406 45 30.7437
vertex 52.5514 45 37.6901
vertex 56.7169 45 35.4817
endloop
endfacet
facet normal 0 1 0
outer loop
vertex 53.2406 45 30.7437
vertex 56.7169 45 35.4817
vertex 58.4273 45 28.5518
endloop
endfacet
facet normal 0 1 0
outer loop
vertex 58.4273 45 28.5518
vertex 56.7169 45 35.4817
vertex 61.0967 45 33.7366
endloop
endfacet
facet normal 0 1 0
outer loop
vertex 58.4273 45 28.5518
vertex 61.0967 45 33.7366
vertex 63.83 45 26.9654
endloop
endfacet
facet normal 0 1 0
outer loop
vertex 63.83 45 26.9654
vertex 61.0967 45 33.7366
vertex 65.6396 45 32.4753
endloop
endfacet
facet normal 0 1 0
outer loop
vertex 63.83 45 26.9654
vertex 65.6396 45 32.4753
vertex 69.3784 45 26.0052
endloop
endfacet
facet normal 0 1 0
outer loop
vertex 69.3784 45 26.0052
vertex 65.6396 45 32.4753
vertex 70.2922 45 31.7125
endloop
endfacet
facet normal 0 1 0
outer loop
vertex 69.3784 45 26.0052
vertex 70.2922 45 31.7125
vertex 75 45 25.6838
endloop
endfacet
facet normal 0 1 0
outer loop
vertex 75 45 25.6838
vertex 70.2922 45 31.7125
vertex 75 45 31.4573
endloop
endfacet
facet normal 0 1 0
outer loop
vertex 75 45 25.6838
vertex 75 45 31.4573
vertex 80.6216 45 26.0052
endloop
endfacet
facet normal 0 1 0
outer loop
vertex 80.6216 45 26.0052
vertex 75 45 31.4573
vertex 79.7078 45 31.7125
endloop
endfacet
facet normal 0 1 0
outer loop
vertex 80.6216 45 26.0052
vertex 79.7078 45 31.7125
vertex 86.17 45 26.9654
endloop
endfacet
facet normal 0 1 0
outer loop
vertex 86.17 45 26.9654
vertex 79.7078 45 31.7125
vertex 84.3604 45 32.4753
endloop
endfacet
facet normal 0 1 0
outer loop
vertex 86.17 45 26.9654
vertex 84.3604 45 32.4753
vertex 91.5727 45 28.5518
endloop
endfacet
facet normal 0 1 0
outer loop
vertex 91.5727 45 28.5518
vertex 84.3604 45 32.4753
vertex 88.9033 45 33.7366
endloop
endfacet
facet normal 0 1 0
outer loop
vertex 91.5727 45 28.5518
vertex 88.9033 45 33.7366
vertex 96.7594 45 30.7437
endloop
endfacet
facet normal 0 1 0
outer loop
vertex 96.7594 45 30.7437
vertex 88.9033 45 33.7366
vertex 93.2831 45 35.4817
endloop
endfacet
facet normal 0 1 0
outer loop
vertex 96.7594 45 30.7437
vertex 93.2831 45 35.4817
vertex 101.662 45 33.5125
endloop
endfacet
facet normal 0 1 0
outer loop
vertex 101.662 45 33.5125
vertex 93.2831 45 35.4817
vertex 97.4486 45 37.6901
endloop
endfacet
facet normal 0 1 0
outer loop
vertex 101.662 45 33.5125
vertex 97.4486 45 37.6901
vertex 106.218 45 36.8222
endloop
endfacet
facet normal 0 1 0
outer loop
vertex 106.218 45 36.8222
vertex 97.4486 45 37.6901
vertex 101.351 45 40.3359
endloop
endfacet
facet normal 0 1 0
outer loop
vertex 106.218 45 36.8222
vertex 101.351 45 40.3359
vertex 110.366 45 40.6297
endloop
endfacet
facet normal 0 1 0
outer loop
vertex 110.366 45 40.6297
vertex 101.351 45 40.3359
vertex 104.944 45 43.3882
endloop
endfacet
facet normal 0 1 0
outer loop
vertex 110.366 45 40.6297
vertex 104.944 45 43.3882
vertex 114.054 45 44.8851
endloop
endfacet
facet normal 0 1 0
outer loop
vertex 114.054 45 44.8851
vertex 104.944 45 43.3882
vertex 108.187 45 46.811
endloop
endfacet
facet normal 0 1 0
outer loop
vertex 114.054 45 44.8851
vertex 108.187 45 46.811
vertex 117.232 45 49.5332
endloop
endfacet
facet normal 0 1 0
outer loop
vertex 108.187 45 46.811
vertex 111.04 45 50.5644
vertex 117.232 45 49.5332
endloop
endfacet
facet normal 0 1 0
outer loop
vertex 117.232 45 49.5332
vertex 111.04 45 50.5644
vertex 113.471 45 54.6042
endloop
endfacet
facet normal 0 1 0
outer loop
vertex 117.232 45 49.5332
vertex 113.471 45 54.6042
vertex 119.86 45 54.5133
endloop
endfacet
facet normal 0 1 0
outer loop
vertex 119.86 45 54.5133
vertex 113.471 45 54.6042
vertex 115.45 45 58.8832
endloop
endfacet
facet normal 0 1 0
outer loop
vertex 119.86 45 54.5133
vertex 115.45 45 58.8832
vertex 121.903 45 59.7604
endloop
endfacet
facet normal 0 1 0
outer loop
vertex 121.903 45 59.7604
vertex 115.45 45 58.8832
vertex 116.956 45 63.3511
endloop
endfacet
facet normal 0 1 0
outer loop
vertex 121.903 45 59.7604
vertex 116.956 45 63.3511
vertex 123.334 45 65.2063
endloop
endfacet
facet normal 0 1 0
outer loop
vertex 123.334 45 65.2063
vertex 116.956 45 63.3511
vertex 117.969 45 67.9556
endloop
endfacet
facet normal 0 1 0
outer loop
vertex 123.334 45 65.2063
vertex 117.969 45 67.9556
vertex 124.135 45 70.7798
endloop
endfacet
facet normal 0 1 0
outer loop
vertex 124.135 45 70.7798
vertex 117.969 45 67.9556
vertex 118.479 45 72.6426
endloop
endfacet
facet normal 0 1 0
outer loop
vertex 124.135 45 70.7798
vertex 118.479 45 72.6426
vertex 124.296 45 76.4083
endloop
endfacet
facet normal 0 1 0
outer loop
vertex 124.296 45 76.4083
vertex 118.479 45 72.6426
vertex 118.479 45 77.3574
endloop
endfacet
facet normal 0 1 0
outer loop
vertex 124.296 45 76.4083
vertex 118.479 45 77.3574
vertex 123.814 45 82.0184
endloop
endfacet
facet normal 0 1 0
outer loop
vertex 123.814 45 82.0184
vertex 118.479 45 77.3574
vertex 117.969 45 82.0444
endloop
endfacet
facet normal 0 1 0
outer loop
vertex 123.814 45 82.0184
vertex 117.969 45 82.0444
vertex 122.696 45 87.5371
endloop
endfacet
facet normal 0 1 0
outer loop
vertex 122.696 45 87.5371
vertex 117.969 45 82.0444
vertex 116.956 45 86.6489
endloop
endfacet
facet normal 0 1 0
outer loop
vertex 122.696 45 87.5371
vertex 116.956 45 86.6489
vertex 120.956 45 92.8923
endloop
endfacet
facet normal 0 1 0
outer loop
vertex 120.956 45 92.8923
vertex 116.956 45 86.6489
vertex 115.45 45 91.1168
endloop
endfacet
facet normal 0 1 0
outer loop
vertex 120.956 45 92.8923
vertex 115.45 45 91.1168
vertex 118.617 45 98.0143
endloop
endfacet
facet normal 0 1 0
outer loop
vertex 118.617 45 98.0143
vertex 115.45 45 91.1168
vertex 113.471 45 95.3958
endloop
endfacet
facet normal 0 1 0
outer loop
vertex 118.617 45 98.0143
vertex 113.471 45 95.3958
vertex 115.709 45 102.836
endloop
endfacet
facet normal 0 1 0
outer loop
vertex 115.709 45 102.836
vertex 113.471 45 95.3958
vertex 111.04 45 99.4356
endloop
endfacet
facet normal 0 1 0
outer loop
vertex 115.709 45 102.836
vertex 111.04 45 99.4356
vertex 112.271 45 107.295
endloop
endfacet
facet normal 0 1 0
outer loop
vertex 112.271 45 107.295
vertex 111.04 45 99.4356
vertex 108.187 45 103.189
endloop
endfacet
facet normal 0 1 0
outer loop
vertex 112.271 45 107.295
vertex 108.187 45 103.189
vertex 108.346 45 111.333
endloop
endfacet
facet normal 0 1 0
outer loop
vertex 108.346 45 111.333
vertex 108.187 45 103.189
vertex 104.944 45 106.612
endloop
endfacet
facet normal 0 1 0
outer loop
vertex 108.346 45 111.333
vertex 104.944 45 106.612
vertex 103.987 45 114.898
endloop
endfacet
facet normal 0 1 0
outer loop
vertex 103.987 45 114.898
vertex 104.944 45 106.612
vertex 101.351 45 109.664
endloop
endfacet
facet normal 0 1 0
outer loop
vertex 103.987 45 114.898
vertex 101.351 45 109.664
vertex 99.2504 45 117.942
endloop
endfacet
facet normal 0 1 0
outer loop
vertex 99.2504 45 117.942
vertex 101.351 45 109.664
vertex 97.4486 45 112.31
endloop
endfacet
facet normal 0 1 0
outer loop
vertex 99.2504 45 117.942
vertex 97.4486 45 112.31
vertex 94.1973 45 120.426
endloop
endfacet
facet normal 0 1 0
outer loop
vertex 94.1973 45 120.426
vertex 97.4486 45 112.31
vertex 93.2831 45 114.518
endloop
endfacet
facet normal 0 1 0
outer loop
vertex 94.1973 45 120.426
vertex 93.2831 45 114.518
vertex 88.894 45 122.319
endloop
endfacet
facet normal 0 1 0
outer loop
vertex 88.894 45 122.319
vertex 93.2831 45 114.518
vertex 88.9033 45 116.263
endloop
endfacet
facet normal 0 1 0
outer loop
vertex 88.894 45 122.319
vertex 88.9033 45 116.263
vertex 83.4095 45 123.594
endloop
endfacet
facet normal 0 1 0
outer loop
vertex 83.4095 45 123.594
vertex 88.9033 45 116.263
vertex 84.3604 45 117.525
endloop
endfacet
facet normal 0 1 0
outer loop
vertex 83.4095 45 123.594
vertex 84.3604 45 117.525
vertex 77.8154 45 124.236
endloop
endfacet
facet normal 0 1 0
outer loop
vertex 77.8154 45 124.236
vertex 84.3604 45 117.525
vertex 79.7078 45 118.287
endloop
endfacet
facet normal 0 1 0
outer loop
vertex 77.8154 45 124.236
vertex 79.7078 45 118.287
vertex 75 45 118.543
endloop
endfacet
facet normal -0.140158 -0.49945 0.85493
outer loop
vertex 79.7078 45 31.7125
vertex 82.5168 5.68573e-011 5.88405
vertex 84.3604 45 32.4753
endloop
endfacet
facet normal -0.140159 -0.49945 0.85493
outer loop
vertex 84.3604 45 32.4753
vertex 82.5168 5.68573e-011 5.88405
vertex 89.9455 5.68573e-011 7.10192
endloop
endfacet
facet normal -0.231772 -0.49945 0.834765
outer loop
vertex 84.3604 45 32.4753
vertex 89.9455 5.68573e-011 7.10192
vertex 88.9033 45 33.7366
endloop
endfacet
facet normal -0.231771 -0.49945 0.834765
outer loop
vertex 88.9033 45 33.7366
vertex 89.9455 5.68573e-011 7.10192
vertex 97.199 5.68573e-011 9.11584
endloop
endfacet
facet normal -0.320666 -0.49945 0.804812
outer loop
vertex 88.9033 45 33.7366
vertex 97.199 5.68573e-011 9.11584
vertex 93.2831 45 35.4817
endloop
endfacet
facet normal -0.320666 -0.49945 0.804812
outer loop
vertex 93.2831 45 35.4817
vertex 97.199 5.68573e-011 9.11584
vertex 104.192 5.68573e-011 11.9022
endloop
endfacet
facet normal -0.405802 -0.49945 0.765425
outer loop
vertex 93.2831 45 35.4817
vertex 104.192 5.68573e-011 11.9022
vertex 97.4486 45 37.6901
endloop
endfacet
facet normal -0.405802 -0.49945 0.765425
outer loop
vertex 97.4486 45 37.6901
vertex 104.192 5.68573e-011 11.9022
vertex 110.843 5.68573e-011 15.4283
endloop
endfacet
facet normal -0.486181 -0.49945 0.717062
outer loop
vertex 97.4486 45 37.6901
vertex 110.843 5.68573e-011 15.4283
vertex 101.351 45 40.3359
endloop
endfacet
facet normal -0.486181 -0.49945 0.717062
outer loop
vertex 101.351 45 40.3359
vertex 110.843 5.68573e-011 15.4283
vertex 117.074 5.68573e-011 19.6528
endloop
endfacet
facet normal -0.560858 -0.49945 0.660294
outer loop
vertex 101.351 45 40.3359
vertex 117.074 5.68573e-011 19.6528
vertex 104.944 45 43.3882
endloop
endfacet
facet normal -0.560859 -0.49945 0.660293
outer loop
vertex 104.944 45 43.3882
vertex 117.074 5.68573e-011 19.6528
vertex 122.811 5.68573e-011 24.5263
endloop
endfacet
facet normal -0.628961 -0.49945 0.595784
outer loop
vertex 104.944 45 43.3882
vertex 122.811 5.68573e-011 24.5263
vertex 108.187 45 46.811
endloop
endfacet
facet normal -0.628961 -0.49945 0.595784
outer loop
vertex 108.187 45 46.811
vertex 122.811 5.68573e-011 24.5263
vertex 127.988 5.68573e-011 29.9914
endloop
endfacet
facet normal -0.68969 -0.49945 0.524288
outer loop
vertex 108.187 45 46.811
vertex 127.988 5.68573e-011 29.9914
vertex 111.04 45 50.5644
endloop
endfacet
facet normal -0.689689 -0.49945 0.524289
outer loop
vertex 111.04 45 50.5644
vertex 127.988 5.68573e-011 29.9914
vertex 132.544 5.68573e-011 35.9843
endloop
endfacet
facet normal -0.742332 -0.49945 0.446647
outer loop
vertex 111.04 45 50.5644
vertex 132.544 5.68573e-011 35.9843
vertex 113.471 45 54.6042
endloop
endfacet
facet normal -0.742332 -0.49945 0.446646
outer loop
vertex 113.471 45 54.6042
vertex 132.544 5.68573e-011 35.9843
vertex 136.425 5.68573e-011 42.4346
endloop
endfacet
facet normal -0.786272 -0.49945 0.363767
outer loop
vertex 113.471 45 54.6042
vertex 136.425 5.68573e-011 42.4346
vertex 115.45 45 58.8832
endloop
endfacet
facet normal -0.786271 -0.49945 0.363769
outer loop
vertex 115.45 45 58.8832
vertex 136.425 5.68573e-011 42.4346
vertex 139.586 5.68573e-011 49.2667
endloop
endfacet
facet normal -0.820993 -0.49945 0.276624
outer loop
vertex 115.45 45 58.8832
vertex 139.586 5.68573e-011 49.2667
vertex 116.956 45 63.3511
endloop
endfacet
facet normal -0.820992 -0.49945 0.276625
outer loop
vertex 116.956 45 63.3511
vertex 139.586 5.68573e-011 49.2667
vertex 141.989 5.68573e-011 56.4005
endloop
endfacet
facet normal -0.846088 -0.49945 0.186239
outer loop
vertex 116.956 45 63.3511
vertex 141.989 5.68573e-011 56.4005
vertex 117.969 45 67.9556
endloop
endfacet
facet normal -0.846088 -0.49945 0.186239
outer loop
vertex 117.969 45 67.9556
vertex 141.989 5.68573e-011 56.4005
vertex 143.608 5.68573e-011 63.7524
endloop
endfacet
facet normal -0.861264 -0.49945 0.0936681
outer loop
vertex 117.969 45 67.9556
vertex 143.608 5.68573e-011 63.7524
vertex 118.479 45 72.6426
endloop
endfacet
facet normal -0.861264 -0.49945 0.0936681
outer loop
vertex 118.479 45 72.6426
vertex 143.608 5.68573e-011 63.7524
vertex 144.422 5.68573e-011 71.2361
endloop
endfacet
facet normal -0.866343 -0.49945 0
outer loop
vertex 118.479 45 72.6426
vertex 144.422 5.68573e-011 71.2361
vertex 118.479 45 77.3574
endloop
endfacet
facet normal -0.866343 -0.49945 0
outer loop
vertex 118.479 45 77.3574
vertex 144.422 5.68573e-011 71.2361
vertex 144.422 5.68573e-011 78.7639
endloop
endfacet
facet normal -0.861264 -0.49945 -0.0936681
outer loop
vertex 118.479 45 77.3574
vertex 144.422 5.68573e-011 78.7639
vertex 117.969 45 82.0444
endloop
endfacet
facet normal -0.861264 -0.49945 -0.0936682
outer loop
vertex 117.969 45 82.0444
vertex 144.422 5.68573e-011 78.7639
vertex 143.608 5.68573e-011 86.2477
endloop
endfacet
facet normal -0.846088 -0.49945 -0.186239
outer loop
vertex 117.969 45 82.0444
vertex 143.608 5.68573e-011 86.2477
vertex 116.956 45 86.6489
endloop
endfacet
facet normal -0.846088 -0.49945 -0.186239
outer loop
vertex 116.956 45 86.6489
vertex 143.608 5.68573e-011 86.2477
vertex 141.989 5.68573e-011 93.5995
endloop
endfacet
facet normal -0.820993 -0.49945 -0.276624
outer loop
vertex 116.956 45 86.6489
vertex 141.989 5.68573e-011 93.5995
vertex 115.45 45 91.1168
endloop
endfacet
facet normal -0.820992 -0.49945 -0.276625
outer loop
vertex 115.45 45 91.1168
vertex 141.989 5.68573e-011 93.5995
vertex 139.586 5.68573e-011 100.733
endloop
endfacet
facet normal -0.786272 -0.49945 -0.363767
outer loop
vertex 115.45 45 91.1168
vertex 139.586 5.68573e-011 100.733
vertex 113.471 45 95.3958
endloop
endfacet
facet normal -0.786271 -0.49945 -0.363769
outer loop
vertex 113.471 45 95.3958
vertex 139.586 5.68573e-011 100.733
vertex 136.425 5.68573e-011 107.565
endloop
endfacet
facet normal -0.742332 -0.49945 -0.446647
outer loop
vertex 113.471 45 95.3958
vertex 136.425 5.68573e-011 107.565
vertex 111.04 45 99.4356
endloop
endfacet
facet normal -0.742332 -0.49945 -0.446646
outer loop
vertex 111.04 45 99.4356
vertex 136.425 5.68573e-011 107.565
vertex 132.544 5.68573e-011 114.016
endloop
endfacet
facet normal -0.68969 -0.49945 -0.524288
outer loop
vertex 111.04 45 99.4356
vertex 132.544 5.68573e-011 114.016
vertex 108.187 45 103.189
endloop
endfacet
facet normal -0.689689 -0.49945 -0.524289
outer loop
vertex 108.187 45 103.189
vertex 132.544 5.68573e-011 114.016
vertex 127.988 5.68573e-011 120.009
endloop
endfacet
facet normal -0.62896 -0.49945 -0.595785
outer loop
vertex 108.187 45 103.189
vertex 127.988 5.68573e-011 120.009
vertex 104.944 45 106.612
endloop
endfacet
facet normal -0.628961 -0.49945 -0.595784
outer loop
vertex 104.944 45 106.612
vertex 127.988 5.68573e-011 120.009
vertex 122.811 5.68573e-011 125.474
endloop
endfacet
facet normal -0.560859 -0.49945 -0.660293
outer loop
vertex 104.944 45 106.612
vertex 122.811 5.68573e-011 125.474
vertex 101.351 45 109.664
endloop
endfacet
facet normal -0.560859 -0.49945 -0.660293
outer loop
vertex 101.351 45 109.664
vertex 122.811 5.68573e-011 125.474
vertex 117.074 5.68573e-011 130.347
endloop
endfacet
facet normal -0.486182 -0.49945 -0.717062
outer loop
vertex 101.351 45 109.664
vertex 117.074 5.68573e-011 130.347
vertex 97.4486 45 112.31
endloop
endfacet
facet normal -0.48618 -0.49945 -0.717063
outer loop
vertex 97.4486 45 112.31
vertex 117.074 5.68573e-011 130.347
vertex 110.843 5.68573e-011 134.572
endloop
endfacet
facet normal -0.405801 -0.49945 -0.765425
outer loop
vertex 97.4486 45 112.31
vertex 110.843 5.68573e-011 134.572
vertex 93.2831 45 114.518
endloop
endfacet
facet normal -0.405802 -0.49945 -0.765424
outer loop
vertex 93.2831 45 114.518
vertex 110.843 5.68573e-011 134.572
vertex 104.192 5.68573e-011 138.098
endloop
endfacet
facet normal -0.320666 -0.49945 -0.804812
outer loop
vertex 93.2831 45 114.518
vertex 104.192 5.68573e-011 138.098
vertex 88.9033 45 116.263
endloop
endfacet
facet normal -0.320665 -0.49945 -0.804813
outer loop
vertex 88.9033 45 116.263
vertex 104.192 5.68573e-011 138.098
vertex 97.199 5.68573e-011 140.884
endloop
endfacet
facet normal -0.231772 -0.499449 -0.834765
outer loop
vertex 88.9033 45 116.263
vertex 97.199 5.68573e-011 140.884
vertex 84.3604 45 117.525
endloop
endfacet
facet normal -0.231773 -0.49945 -0.834764
outer loop
vertex 84.3604 45 117.525
vertex 97.199 5.68573e-011 140.884
vertex 89.9455 5.68573e-011 142.898
endloop
endfacet
facet normal -0.140157 -0.49945 -0.85493
outer loop
vertex 84.3604 45 117.525
vertex 89.9455 5.68573e-011 142.898
vertex 79.7078 45 118.287
endloop
endfacet
facet normal -0.140158 -0.49945 -0.85493
outer loop
vertex 79.7078 45 118.287
vertex 89.9455 5.68573e-011 142.898
vertex 82.5168 5.68573e-011 144.116
endloop
endfacet
facet normal -0.0469041 -0.49945 -0.865072
outer loop
vertex 79.7078 45 118.287
vertex 82.5168 5.68573e-011 144.116
vertex 75 45 118.543
endloop
endfacet
facet normal -0.0469025 -0.49945 -0.865072
outer loop
vertex 75 45 118.543
vertex 82.5168 5.68573e-011 144.116
vertex 75 5.68573e-011 144.523
endloop
endfacet
facet normal 0.0469042 -0.49945 -0.865072
outer loop
vertex 75 45 118.543
vertex 75 5.68573e-011 144.523
vertex 70.2922 45 118.287
endloop
endfacet
facet normal 0.0469025 -0.49945 -0.865072
outer loop
vertex 70.2922 45 118.287
vertex 75 5.68573e-011 144.523
vertex 67.4832 5.68573e-011 144.116
endloop
endfacet
facet normal 0.140157 -0.49945 -0.85493
outer loop
vertex 70.2922 45 118.287
vertex 67.4832 5.68573e-011 144.116
vertex 65.6396 45 117.525
endloop
endfacet
facet normal 0.140158 -0.49945 -0.85493
outer loop
vertex 65.6396 45 117.525
vertex 67.4832 5.68573e-011 144.116
vertex 60.0545 5.68573e-011 142.898
endloop
endfacet
facet normal 0.231772 -0.49945 -0.834765
outer loop
vertex 65.6396 45 117.525
vertex 60.0545 5.68573e-011 142.898
vertex 61.0967 45 116.263
endloop
endfacet
facet normal 0.231773 -0.49945 -0.834764
outer loop
vertex 61.0967 45 116.263
vertex 60.0545 5.68573e-011 142.898
vertex 52.801 5.68573e-011 140.884
endloop
endfacet
facet normal 0.320666 -0.49945 -0.804813
outer loop
vertex 61.0967 45 116.263
vertex 52.801 5.68573e-011 140.884
vertex 56.7169 45 114.518
endloop
endfacet
facet normal 0.320665 -0.49945 -0.804813
outer loop
vertex 56.7169 45 114.518
vertex 52.801 5.68573e-011 140.884
vertex 45.8078 5.68573e-011 138.098
endloop
endfacet
facet normal 0.405801 -0.49945 -0.765425
outer loop
vertex 56.7169 45 114.518
vertex 45.8078 5.68573e-011 138.098
vertex 52.5514 45 112.31
endloop
endfacet
facet normal 0.405802 -0.49945 -0.765425
outer loop
vertex 52.5514 45 112.31
vertex 45.8078 5.68573e-011 138.098
vertex 39.1569 5.68573e-011 134.572
endloop
endfacet
facet normal 0.486182 -0.49945 -0.717062
outer loop
vertex 52.5514 45 112.31
vertex 39.1569 5.68573e-011 134.572
vertex 48.6491 45 109.664
endloop
endfacet
facet normal 0.48618 -0.49945 -0.717062
outer loop
vertex 48.6491 45 109.664
vertex 39.1569 5.68573e-011 134.572
vertex 32.9262 5.68573e-011 130.347
endloop
endfacet
facet normal 0.560859 -0.49945 -0.660293
outer loop
vertex 48.6491 45 109.664
vertex 32.9262 5.68573e-011 130.347
vertex 45.0557 45 106.612
endloop
endfacet
facet normal 0.560859 -0.49945 -0.660293
outer loop
vertex 45.0557 45 106.612
vertex 32.9262 5.68573e-011 130.347
vertex 27.1887 5.68573e-011 125.474
endloop
endfacet
facet normal 0.62896 -0.49945 -0.595784
outer loop
vertex 45.0557 45 106.612
vertex 27.1887 5.68573e-011 125.474
vertex 41.8134 45 103.189
endloop
endfacet
facet normal 0.628961 -0.49945 -0.595784
outer loop
vertex 41.8134 45 103.189
vertex 27.1887 5.68573e-011 125.474
vertex 22.0118 5.68573e-011 120.009
endloop
endfacet
facet normal 0.68969 -0.49945 -0.524288
outer loop
vertex 41.8134 45 103.189
vertex 22.0118 5.68573e-011 120.009
vertex 38.9602 45 99.4356
endloop
endfacet
facet normal 0.689689 -0.49945 -0.524288
outer loop
vertex 38.9602 45 99.4356
vertex 22.0118 5.68573e-011 120.009
vertex 17.4562 5.68573e-011 114.016
endloop
endfacet
facet normal 0.742332 -0.49945 -0.446646
outer loop
vertex 38.9602 45 99.4356
vertex 17.4562 5.68573e-011 114.016
vertex 36.5295 45 95.3958
endloop
endfacet
facet normal 0.742332 -0.49945 -0.446646
outer loop
vertex 36.5295 45 95.3958
vertex 17.4562 5.68573e-011 114.016
vertex 13.5752 5.68573e-011 107.565
endloop
endfacet
facet normal 0.786272 -0.49945 -0.363768
outer loop
vertex 36.5295 45 95.3958
vertex 13.5752 5.68573e-011 107.565
vertex 34.5498 45 91.1168
endloop
endfacet
facet normal 0.786272 -0.49945 -0.363768
outer loop
vertex 34.5498 45 91.1168
vertex 13.5752 5.68573e-011 107.565
vertex 10.4143 5.68573e-011 100.733
endloop
endfacet
facet normal 0.820993 -0.49945 -0.276624
outer loop
vertex 34.5498 45 91.1168
vertex 10.4143 5.68573e-011 100.733
vertex 33.0444 45 86.6489
endloop
endfacet
facet normal 0.820993 -0.49945 -0.276625
outer loop
vertex 33.0444 45 86.6489
vertex 10.4143 5.68573e-011 100.733
vertex 8.01063 5.68573e-011 93.5995
endloop
endfacet
facet normal 0.846088 -0.49945 -0.186238
outer loop
vertex 33.0444 45 86.6489
vertex 8.01063 5.68573e-011 93.5995
vertex 32.0309 45 82.0444
endloop
endfacet
facet normal 0.846088 -0.49945 -0.186238
outer loop
vertex 32.0309 45 82.0444
vertex 8.01063 5.68573e-011 93.5995
vertex 6.39237 5.68573e-011 86.2477
endloop
endfacet
facet normal 0.861264 -0.49945 -0.0936681
outer loop
vertex 32.0309 45 82.0444
vertex 6.39237 5.68573e-011 86.2477
vertex 31.5211 45 77.3574
endloop
endfacet
facet normal 0.861264 -0.49945 -0.0936679
outer loop
vertex 31.5211 45 77.3574
vertex 6.39237 5.68573e-011 86.2477
vertex 5.57847 5.68573e-011 78.7639
endloop
endfacet
facet normal 0.866343 -0.49945 0
outer loop
vertex 31.5211 45 77.3574
vertex 5.57847 5.68573e-011 78.7639
vertex 31.5211 45 72.6426
endloop
endfacet
facet normal 0.866343 -0.49945 0
outer loop
vertex 31.5211 45 72.6426
vertex 5.57847 5.68573e-011 78.7639
vertex 5.57847 5.68573e-011 71.2361
endloop
endfacet
facet normal 0.861264 -0.49945 0.0936681
outer loop
vertex 31.5211 45 72.6426
vertex 5.57847 5.68573e-011 71.2361
vertex 32.0309 45 67.9556
endloop
endfacet
facet normal 0.861264 -0.49945 0.0936679
outer loop
vertex 32.0309 45 67.9556
vertex 5.57847 5.68573e-011 71.2361
vertex 6.39237 5.68573e-011 63.7524
endloop
endfacet
facet normal 0.846088 -0.49945 0.186238
outer loop
vertex 32.0309 45 67.9556
vertex 6.39237 5.68573e-011 63.7524
vertex 33.0444 45 63.3511
endloop
endfacet
facet normal 0.846088 -0.49945 0.186238
outer loop
vertex 33.0444 45 63.3511
vertex 6.39237 5.68573e-011 63.7524
vertex 8.01063 5.68573e-011 56.4005
endloop
endfacet
facet normal 0.820993 -0.49945 0.276624
outer loop
vertex 33.0444 45 63.3511
vertex 8.01063 5.68573e-011 56.4005
vertex 34.5498 45 58.8832
endloop
endfacet
facet normal 0.820993 -0.49945 0.276625
outer loop
vertex 34.5498 45 58.8832
vertex 8.01063 5.68573e-011 56.4005
vertex 10.4143 5.68573e-011 49.2667
endloop
endfacet
facet normal 0.786272 -0.49945 0.363768
outer loop
vertex 34.5498 45 58.8832
vertex 10.4143 5.68573e-011 49.2667
vertex 36.5295 45 54.6042
endloop
endfacet
facet normal 0.786272 -0.49945 0.363768
outer loop
vertex 36.5295 45 54.6042
vertex 10.4143 5.68573e-011 49.2667
vertex 13.5752 5.68573e-011 42.4346
endloop
endfacet
facet normal 0.742332 -0.49945 0.446646
outer loop
vertex 36.5295 45 54.6042
vertex 13.5752 5.68573e-011 42.4346
vertex 38.9602 45 50.5644
endloop
endfacet
facet normal 0.742332 -0.49945 0.446646
outer loop
vertex 38.9602 45 50.5644
vertex 13.5752 5.68573e-011 42.4346
vertex 17.4562 5.68573e-011 35.9843
endloop
endfacet
facet normal 0.68969 -0.49945 0.524288
outer loop
vertex 38.9602 45 50.5644
vertex 17.4562 5.68573e-011 35.9843
vertex 41.8134 45 46.811
endloop
endfacet
facet normal 0.68969 -0.49945 0.524288
outer loop
vertex 41.8134 45 46.811
vertex 17.4562 5.68573e-011 35.9843
vertex 22.0118 5.68573e-011 29.9914
endloop
endfacet
facet normal 0.628961 -0.49945 0.595784
outer loop
vertex 41.8134 45 46.811
vertex 22.0118 5.68573e-011 29.9914
vertex 45.0557 45 43.3882
endloop
endfacet
facet normal 0.628961 -0.49945 0.595784
outer loop
vertex 45.0557 45 43.3882
vertex 22.0118 5.68573e-011 29.9914
vertex 27.1887 5.68573e-011 24.5263
endloop
endfacet
facet normal 0.560858 -0.49945 0.660294
outer loop
vertex 45.0557 45 43.3882
vertex 27.1887 5.68573e-011 24.5263
vertex 48.6491 45 40.3359
endloop
endfacet
facet normal 0.560859 -0.49945 0.660293
outer loop
vertex 48.6491 45 40.3359
vertex 27.1887 5.68573e-011 24.5263
vertex 32.9262 5.68573e-011 19.6528
endloop
endfacet
facet normal 0.486181 -0.49945 0.717062
outer loop
vertex 48.6491 45 40.3359
vertex 32.9262 5.68573e-011 19.6528
vertex 52.5514 45 37.6901
endloop
endfacet
facet normal 0.486181 -0.49945 0.717062
outer loop
vertex 52.5514 45 37.6901
vertex 32.9262 5.68573e-011 19.6528
vertex 39.1569 5.68573e-011 15.4283
endloop
endfacet
facet normal 0.405802 -0.49945 0.765425
outer loop
vertex 52.5514 45 37.6901
vertex 39.1569 5.68573e-011 15.4283
vertex 56.7169 45 35.4817
endloop
endfacet
facet normal 0.405802 -0.49945 0.765425
outer loop
vertex 56.7169 45 35.4817
vertex 39.1569 5.68573e-011 15.4283
vertex 45.8078 5.68573e-011 11.9022
endloop
endfacet
facet normal 0.320666 -0.49945 0.804812
outer loop
vertex 56.7169 45 35.4817
vertex 45.8078 5.68573e-011 11.9022
vertex 61.0967 45 33.7366
endloop
endfacet
facet normal 0.320667 -0.49945 0.804812
outer loop
vertex 61.0967 45 33.7366
vertex 45.8078 5.68573e-011 11.9022
vertex 52.801 5.68573e-011 9.11584
endloop
endfacet
facet normal 0.231772 -0.49945 0.834765
outer loop
vertex 61.0967 45 33.7366
vertex 52.801 5.68573e-011 9.11584
vertex 65.6396 45 32.4753
endloop
endfacet
facet normal 0.231771 -0.49945 0.834765
outer loop
vertex 65.6396 45 32.4753
vertex 52.801 5.68573e-011 9.11584
vertex 60.0545 5.68573e-011 7.10192
endloop
endfacet
facet normal 0.140158 -0.49945 0.85493
outer loop
vertex 65.6396 45 32.4753
vertex 60.0545 5.68573e-011 7.10192
vertex 70.2922 45 31.7125
endloop
endfacet
facet normal 0.140159 -0.49945 0.85493
outer loop
vertex 70.2922 45 31.7125
vertex 60.0545 5.68573e-011 7.10192
vertex 67.4832 5.68573e-011 5.88405
endloop
endfacet
facet normal 0.0469028 -0.49945 0.865072
outer loop
vertex 70.2922 45 31.7125
vertex 67.4832 5.68573e-011 5.88405
vertex 75 45 31.4573
endloop
endfacet
facet normal 0.0469033 -0.49945 0.865072
outer loop
vertex 75 45 31.4573
vertex 67.4832 5.68573e-011 5.88405
vertex 75 5.68573e-011 5.4765
endloop
endfacet
facet normal -0.0469028 -0.49945 0.865072
outer loop
vertex 75 45 31.4573
vertex 75 5.68573e-011 5.4765
vertex 79.7078 45 31.7125
endloop
endfacet
facet normal -0.0469033 -0.49945 0.865072
outer loop
vertex 79.7078 45 31.7125
vertex 75 5.68573e-011 5.4765
vertex 82.5168 5.68573e-011 5.88405
endloop
endfacet
endsolid
