solid C:\Temp\NOELParts\PART_9_PRT.STL created by CtrlView V2.70
facet normal 0 1 0
outer loop
vertex 7.3005 0.762 6.44433
vertex 7.25262 0.762 6.81823
vertex 6.1639 0.762 17.1097
endloop
endfacet
facet normal 0 1 0
outer loop
vertex 6.1639 0.762 17.1097
vertex 7.25262 0.762 6.81823
vertex 7.14223 0.762 7.17867
endloop
endfacet
facet normal 0 1 0
outer loop
vertex 6.1639 0.762 17.1097
vertex 7.14223 0.762 7.17867
vertex 5.8204 0.762 16.9545
endloop
endfacet
facet normal 0 1 0
outer loop
vertex 57.9754 0.762 3.175
vertex 55.0859 0.762 12.3244
vertex 57.9754 0.762 22.225
endloop
endfacet
facet normal 0 1 0
outer loop
vertex 57.9754 0.762 22.225
vertex 55.0859 0.762 12.3244
vertex 55.1179 0.762 12.7
endloop
endfacet
facet normal 0 1 0
outer loop
vertex 57.9754 0.762 22.225
vertex 55.1179 0.762 12.7
vertex 55.0859 0.762 13.0756
endloop
endfacet
facet normal 0 1 0
outer loop
vertex 5.26848 0.762 21.2645
vertex 3.175 0.762 25.4
vertex 5.64002 0.762 21.2008
endloop
endfacet
facet normal 0 1 0
outer loop
vertex 5.64002 0.762 21.2008
vertex 3.175 0.762 25.4
vertex 5.99545 0.762 21.0752
endloop
endfacet
facet normal 0 1 0
outer loop
vertex 50.7446 0.762 13.26
vertex 50.6809 0.762 12.8885
vertex 5.64002 0.762 4.19921
endloop
endfacet
facet normal 0 1 0
outer loop
vertex 55.0859 0.762 13.0756
vertex 54.9909 0.762 13.4404
vertex 57.9754 0.762 22.225
endloop
endfacet
facet normal 0 1 0
outer loop
vertex 57.9754 0.762 22.225
vertex 54.9909 0.762 13.4404
vertex 54.8357 0.762 13.7839
endloop
endfacet
facet normal 0 1 0
outer loop
vertex 57.9754 0.762 22.225
vertex 54.8357 0.762 13.7839
vertex 54.6246 0.762 14.0962
endloop
endfacet
facet normal 0 1 0
outer loop
vertex 52.6131 0.762 14.9045
vertex 54.8004 0.762 25.4
vertex 52.9897 0.762 14.9205
endloop
endfacet
facet normal 0 1 0
outer loop
vertex 52.9897 0.762 14.9205
vertex 54.8004 0.762 25.4
vertex 55.2971 0.762 25.3609
endloop
endfacet
facet normal 0 1 0
outer loop
vertex 52.9897 0.762 14.9205
vertex 55.2971 0.762 25.3609
vertex 53.3636 0.762 14.8726
endloop
endfacet
facet normal 0 1 0
outer loop
vertex 53.3636 0.762 14.8726
vertex 55.2971 0.762 25.3609
vertex 55.7815 0.762 25.2446
endloop
endfacet
facet normal 0 1 0
outer loop
vertex 53.3636 0.762 14.8726
vertex 55.7815 0.762 25.2446
vertex 56.2418 0.762 25.0539
endloop
endfacet
facet normal 0 1 0
outer loop
vertex 6.74837 0.762 7.81835
vertex 6.47622 0.762 8.07918
vertex 5.4556 0.762 16.8595
endloop
endfacet
facet normal 0 1 0
outer loop
vertex 5.4556 0.762 16.8595
vertex 6.47622 0.762 8.07918
vertex 6.1639 0.762 8.29027
endloop
endfacet
facet normal 0 1 0
outer loop
vertex 54.0607 0.762 10.8075
vertex 54.3637 0.762 11.0316
vertex 57.9754 0.762 3.175
endloop
endfacet
facet normal 0 1 0
outer loop
vertex 57.9754 0.762 3.175
vertex 54.3637 0.762 11.0316
vertex 54.6246 0.762 11.3038
endloop
endfacet
facet normal 0 1 0
outer loop
vertex 5.8204 0.762 16.9545
vertex 7.14223 0.762 7.17867
vertex 5.4556 0.762 16.8595
endloop
endfacet
facet normal 0 1 0
outer loop
vertex 5.4556 0.762 16.8595
vertex 7.14223 0.762 7.17867
vertex 6.97252 0.762 7.51527
endloop
endfacet
facet normal 0 1 0
outer loop
vertex 5.4556 0.762 16.8595
vertex 6.97252 0.762 7.51527
vertex 6.74837 0.762 7.81835
endloop
endfacet
facet normal 0 1 0
outer loop
vertex 52.6131 0.762 14.9045
vertex 52.2446 0.762 14.8251
vertex 54.8004 0.762 25.4
endloop
endfacet
facet normal 0 1 0
outer loop
vertex 54.8004 0.762 25.4
vertex 52.2446 0.762 14.8251
vertex 51.8948 0.762 14.6845
endloop
endfacet
facet normal 0 1 0
outer loop
vertex 54.8004 0.762 25.4
vertex 51.8948 0.762 14.6845
vertex 3.175 0.762 25.4
endloop
endfacet
facet normal 0 1 0
outer loop
vertex 3.175 0.762 25.4
vertex 51.8948 0.762 14.6845
vertex 51.5738 0.762 14.4869
endloop
endfacet
facet normal 0 1 0
outer loop
vertex 3.175 0.762 25.4
vertex 51.5738 0.762 14.4869
vertex 51.2908 0.762 14.2378
endloop
endfacet
facet normal 0 1 0
outer loop
vertex 3.29312 0.762 20.3716
vertex 3.09547 0.762 20.0506
vertex 0 0.762 22.225
endloop
endfacet
facet normal 0 1 0
outer loop
vertex 0 0.762 22.225
vertex 3.09547 0.762 20.0506
vertex 2.95492 0.762 19.7008
endloop
endfacet
facet normal 0 1 0
outer loop
vertex 0 0.762 22.225
vertex 2.95492 0.762 19.7008
vertex 2.8755 0.762 19.3323
endloop
endfacet
facet normal 0 1 0
outer loop
vertex 0 0.762 3.175
vertex 2.8595 0.762 6.44433
vertex 2.8755 0.762 6.0677
endloop
endfacet
facet normal 0 1 0
outer loop
vertex 57.9754 0.762 3.175
vertex 57.9363 0.762 2.67832
vertex 57.82 0.762 2.19387
endloop
endfacet
facet normal 0 1 0
outer loop
vertex 54.6246 0.762 11.3038
vertex 54.8357 0.762 11.6161
vertex 57.9754 0.762 3.175
endloop
endfacet
facet normal 0 1 0
outer loop
vertex 57.9754 0.762 3.175
vertex 54.8357 0.762 11.6161
vertex 54.9909 0.762 11.9596
endloop
endfacet
facet normal 0 1 0
outer loop
vertex 57.9754 0.762 3.175
vertex 54.9909 0.762 11.9596
vertex 55.0859 0.762 12.3244
endloop
endfacet
facet normal 0 1 0
outer loop
vertex 54.6246 0.762 14.0962
vertex 54.3637 0.762 14.3684
vertex 57.9754 0.762 22.225
endloop
endfacet
facet normal 0 1 0
outer loop
vertex 57.9754 0.762 22.225
vertex 54.3637 0.762 14.3684
vertex 54.0607 0.762 14.5925
endloop
endfacet
facet normal 0 1 0
outer loop
vertex 57.9754 0.762 22.225
vertex 54.0607 0.762 14.5925
vertex 57.9363 0.762 22.7217
endloop
endfacet
facet normal 0 1 0
outer loop
vertex 57.9363 0.762 22.7217
vertex 54.0607 0.762 14.5925
vertex 53.7241 0.762 14.7622
endloop
endfacet
facet normal 0 1 0
outer loop
vertex 57.9363 0.762 22.7217
vertex 53.7241 0.762 14.7622
vertex 57.82 0.762 23.2061
endloop
endfacet
facet normal 0 1 0
outer loop
vertex 57.82 0.762 23.2061
vertex 53.7241 0.762 14.7622
vertex 57.6293 0.762 23.6664
endloop
endfacet
facet normal 0 1 0
outer loop
vertex 56.2418 0.762 25.0539
vertex 56.6666 0.762 24.7936
vertex 53.3636 0.762 14.8726
endloop
endfacet
facet normal 0 1 0
outer loop
vertex 53.3636 0.762 14.8726
vertex 56.6666 0.762 24.7936
vertex 57.0455 0.762 24.4701
endloop
endfacet
facet normal 0 1 0
outer loop
vertex 53.3636 0.762 14.8726
vertex 57.0455 0.762 24.4701
vertex 53.7241 0.762 14.7622
endloop
endfacet
facet normal 0 1 0
outer loop
vertex 53.7241 0.762 14.7622
vertex 57.0455 0.762 24.4701
vertex 57.369 0.762 24.0912
endloop
endfacet
facet normal 0 1 0
outer loop
vertex 53.7241 0.762 14.7622
vertex 57.369 0.762 24.0912
vertex 57.6293 0.762 23.6664
endloop
endfacet
facet normal 0 1 0
outer loop
vertex 6.32454 0.762 4.50864
vertex 51.2908 0.762 14.2378
vertex 5.99545 0.762 4.32479
endloop
endfacet
facet normal 0 1 0
outer loop
vertex 5.99545 0.762 4.32479
vertex 51.2908 0.762 14.2378
vertex 51.054 0.762 13.9445
endloop
endfacet
facet normal 0 1 0
outer loop
vertex 5.99545 0.762 4.32479
vertex 51.054 0.762 13.9445
vertex 5.64002 0.762 4.19921
endloop
endfacet
facet normal 0 1 0
outer loop
vertex 5.64002 0.762 4.19921
vertex 51.054 0.762 13.9445
vertex 50.8702 0.762 13.6155
endloop
endfacet
facet normal 0 1 0
outer loop
vertex 5.64002 0.762 4.19921
vertex 50.8702 0.762 13.6155
vertex 50.7446 0.762 13.26
endloop
endfacet
facet normal 0 1 0
outer loop
vertex 6.32454 0.762 4.50864
vertex 6.61783 0.762 4.74545
vertex 51.2908 0.762 14.2378
endloop
endfacet
facet normal 0 1 0
outer loop
vertex 51.2908 0.762 14.2378
vertex 6.61783 0.762 4.74545
vertex 6.86688 0.762 5.02843
endloop
endfacet
facet normal 0 1 0
outer loop
vertex 51.2908 0.762 14.2378
vertex 6.86688 0.762 5.02843
vertex 7.06453 0.762 5.34942
endloop
endfacet
facet normal 0 1 0
outer loop
vertex 5.26848 0.762 21.2645
vertex 4.89152 0.762 21.2645
vertex 3.175 0.762 25.4
endloop
endfacet
facet normal 0 1 0
outer loop
vertex 3.175 0.762 25.4
vertex 4.89152 0.762 21.2645
vertex 4.51998 0.762 21.2008
endloop
endfacet
facet normal 0 1 0
outer loop
vertex 3.175 0.762 25.4
vertex 4.51998 0.762 21.2008
vertex 2.67832 0.762 25.3609
endloop
endfacet
facet normal 0 1 0
outer loop
vertex 2.67832 0.762 25.3609
vertex 4.51998 0.762 21.2008
vertex 4.16455 0.762 21.0752
endloop
endfacet
facet normal 0 1 0
outer loop
vertex 0.606371 0.762 24.0912
vertex 0.929936 0.762 24.4701
vertex 3.54217 0.762 20.6545
endloop
endfacet
facet normal 0 1 0
outer loop
vertex 3.54217 0.762 20.6545
vertex 0.929936 0.762 24.4701
vertex 3.83546 0.762 20.8914
endloop
endfacet
facet normal 0 1 0
outer loop
vertex 0 0.762 22.225
vertex 0.0390895 0.762 22.7217
vertex 3.29312 0.762 20.3716
endloop
endfacet
facet normal 0 1 0
outer loop
vertex 3.29312 0.762 20.3716
vertex 0.0390895 0.762 22.7217
vertex 0.155396 0.762 23.2061
endloop
endfacet
facet normal 0 1 0
outer loop
vertex 3.29312 0.762 20.3716
vertex 0.155396 0.762 23.2061
vertex 3.54217 0.762 20.6545
endloop
endfacet
facet normal 0 1 0
outer loop
vertex 3.54217 0.762 20.6545
vertex 0.155396 0.762 23.2061
vertex 0.346054 0.762 23.6664
endloop
endfacet
facet normal 0 1 0
outer loop
vertex 3.54217 0.762 20.6545
vertex 0.346054 0.762 23.6664
vertex 0.606371 0.762 24.0912
endloop
endfacet
facet normal 0 1 0
outer loop
vertex 4.3396 0.762 8.44555
vertex 3.9961 0.762 8.29027
vertex 4.7044 0.762 16.8595
endloop
endfacet
facet normal 0 1 0
outer loop
vertex 4.7044 0.762 16.8595
vertex 3.9961 0.762 8.29027
vertex 4.3396 0.762 16.9545
endloop
endfacet
facet normal 0 1 0
outer loop
vertex 3.9961 0.762 8.29027
vertex 3.68378 0.762 8.07918
vertex 0 0.762 22.225
endloop
endfacet
facet normal 0 1 0
outer loop
vertex 0 0.762 22.225
vertex 3.68378 0.762 8.07918
vertex 3.41163 0.762 7.81835
endloop
endfacet
facet normal 0 1 0
outer loop
vertex 57.9754 0.762 3.175
vertex 57.82 0.762 2.19387
vertex 54.0607 0.762 10.8075
endloop
endfacet
facet normal 0 1 0
outer loop
vertex 54.0607 0.762 10.8075
vertex 57.82 0.762 2.19387
vertex 57.6293 0.762 1.73358
endloop
endfacet
facet normal 0 1 0
outer loop
vertex 54.0607 0.762 10.8075
vertex 57.6293 0.762 1.73358
vertex 53.7241 0.762 10.6378
endloop
endfacet
facet normal 0 1 0
outer loop
vertex 53.7241 0.762 10.6378
vertex 57.6293 0.762 1.73358
vertex 57.369 0.762 1.30878
endloop
endfacet
facet normal 0 1 0
outer loop
vertex 53.7241 0.762 10.6378
vertex 57.369 0.762 1.30878
vertex 53.3636 0.762 10.5274
endloop
endfacet
facet normal 0 1 0
outer loop
vertex 53.3636 0.762 10.5274
vertex 57.369 0.762 1.30878
vertex 57.0455 0.762 0.929936
endloop
endfacet
facet normal 0 1 0
outer loop
vertex 53.3636 0.762 10.5274
vertex 57.0455 0.762 0.929936
vertex 56.6666 0.762 0.606371
endloop
endfacet
facet normal 0 1 0
outer loop
vertex 7.14223 0.762 18.2213
vertex 7.25262 0.762 18.5818
vertex 51.2908 0.762 14.2378
endloop
endfacet
facet normal 0 1 0
outer loop
vertex 51.2908 0.762 14.2378
vertex 7.25262 0.762 18.5818
vertex 7.3005 0.762 18.9557
endloop
endfacet
facet normal 0 1 0
outer loop
vertex 0.929936 0.762 24.4701
vertex 1.30878 0.762 24.7936
vertex 3.83546 0.762 20.8914
endloop
endfacet
facet normal 0 1 0
outer loop
vertex 3.83546 0.762 20.8914
vertex 1.30878 0.762 24.7936
vertex 1.73358 0.762 25.0539
endloop
endfacet
facet normal 0 1 0
outer loop
vertex 3.83546 0.762 20.8914
vertex 1.73358 0.762 25.0539
vertex 4.16455 0.762 21.0752
endloop
endfacet
facet normal 0 1 0
outer loop
vertex 4.16455 0.762 21.0752
vertex 1.73358 0.762 25.0539
vertex 2.19387 0.762 25.2446
endloop
endfacet
facet normal 0 1 0
outer loop
vertex 4.16455 0.762 21.0752
vertex 2.19387 0.762 25.2446
vertex 2.67832 0.762 25.3609
endloop
endfacet
facet normal 0 1 0
outer loop
vertex 3.41163 0.762 7.81835
vertex 3.18748 0.762 7.51527
vertex 0 0.762 22.225
endloop
endfacet
facet normal 0 1 0
outer loop
vertex 0 0.762 22.225
vertex 3.18748 0.762 7.51527
vertex 3.01777 0.762 7.17867
endloop
endfacet
facet normal 0 1 0
outer loop
vertex 0 0.762 22.225
vertex 3.01777 0.762 7.17867
vertex 0 0.762 3.175
endloop
endfacet
facet normal 0 1 0
outer loop
vertex 0 0.762 3.175
vertex 3.01777 0.762 7.17867
vertex 2.90738 0.762 6.81823
endloop
endfacet
facet normal 0 1 0
outer loop
vertex 0 0.762 3.175
vertex 2.90738 0.762 6.81823
vertex 2.8595 0.762 6.44433
endloop
endfacet
facet normal 0 1 0
outer loop
vertex 51.054 0.762 11.4555
vertex 51.2908 0.762 11.1622
vertex 3.175 0.762 0
endloop
endfacet
facet normal 0 1 0
outer loop
vertex 3.175 0.762 0
vertex 51.2908 0.762 11.1622
vertex 51.5738 0.762 10.9131
endloop
endfacet
facet normal 0 1 0
outer loop
vertex 3.175 0.762 0
vertex 51.5738 0.762 10.9131
vertex 54.8004 0.762 0
endloop
endfacet
facet normal 0 1 0
outer loop
vertex 54.8004 0.762 0
vertex 51.5738 0.762 10.9131
vertex 51.8948 0.762 10.7155
endloop
endfacet
facet normal 0 1 0
outer loop
vertex 54.8004 0.762 0
vertex 51.8948 0.762 10.7155
vertex 52.2446 0.762 10.5749
endloop
endfacet
facet normal 0 1 0
outer loop
vertex 52.2446 0.762 10.5749
vertex 52.6131 0.762 10.4955
vertex 54.8004 0.762 0
endloop
endfacet
facet normal 0 1 0
outer loop
vertex 54.8004 0.762 0
vertex 52.6131 0.762 10.4955
vertex 52.9897 0.762 10.4795
endloop
endfacet
facet normal 0 1 0
outer loop
vertex 54.8004 0.762 0
vertex 52.9897 0.762 10.4795
vertex 55.2971 0.762 0.0390895
endloop
endfacet
facet normal 0 1 0
outer loop
vertex 55.2971 0.762 0.0390895
vertex 52.9897 0.762 10.4795
vertex 53.3636 0.762 10.5274
endloop
endfacet
facet normal 0 1 0
outer loop
vertex 55.2971 0.762 0.0390895
vertex 53.3636 0.762 10.5274
vertex 55.7815 0.762 0.155396
endloop
endfacet
facet normal 0 1 0
outer loop
vertex 55.7815 0.762 0.155396
vertex 53.3636 0.762 10.5274
vertex 56.6666 0.762 0.606371
endloop
endfacet
facet normal 0 1 0
outer loop
vertex 55.7815 0.762 0.155396
vertex 56.6666 0.762 0.606371
vertex 56.2418 0.762 0.346054
endloop
endfacet
facet normal 0 1 0
outer loop
vertex 7.3005 0.762 18.9557
vertex 7.2845 0.762 19.3323
vertex 51.2908 0.762 14.2378
endloop
endfacet
facet normal 0 1 0
outer loop
vertex 51.2908 0.762 14.2378
vertex 7.2845 0.762 19.3323
vertex 7.20508 0.762 19.7008
endloop
endfacet
facet normal 0 1 0
outer loop
vertex 51.2908 0.762 14.2378
vertex 7.20508 0.762 19.7008
vertex 7.06453 0.762 20.0506
endloop
endfacet
facet normal 0 1 0
outer loop
vertex 2.8755 0.762 19.3323
vertex 2.8595 0.762 18.9557
vertex 0 0.762 22.225
endloop
endfacet
facet normal 0 1 0
outer loop
vertex 0 0.762 22.225
vertex 2.8595 0.762 18.9557
vertex 2.90738 0.762 18.5818
endloop
endfacet
facet normal 0 1 0
outer loop
vertex 0 0.762 22.225
vertex 2.90738 0.762 18.5818
vertex 3.9961 0.762 8.29027
endloop
endfacet
facet normal 0 1 0
outer loop
vertex 6.1639 0.762 8.29027
vertex 5.8204 0.762 8.44555
vertex 5.4556 0.762 16.8595
endloop
endfacet
facet normal 0 1 0
outer loop
vertex 5.4556 0.762 16.8595
vertex 5.8204 0.762 8.44555
vertex 5.4556 0.762 8.54053
endloop
endfacet
facet normal 0 1 0
outer loop
vertex 5.4556 0.762 16.8595
vertex 5.4556 0.762 8.54053
vertex 5.08 0.762 16.8275
endloop
endfacet
facet normal 0 1 0
outer loop
vertex 5.08 0.762 16.8275
vertex 5.4556 0.762 8.54053
vertex 5.08 0.762 8.5725
endloop
endfacet
facet normal 0 1 0
outer loop
vertex 5.08 0.762 16.8275
vertex 5.08 0.762 8.5725
vertex 4.7044 0.762 16.8595
endloop
endfacet
facet normal 0 1 0
outer loop
vertex 4.7044 0.762 16.8595
vertex 5.08 0.762 8.5725
vertex 4.7044 0.762 8.54053
endloop
endfacet
facet normal 0 1 0
outer loop
vertex 4.7044 0.762 16.8595
vertex 4.7044 0.762 8.54053
vertex 4.3396 0.762 8.44555
endloop
endfacet
facet normal 0 1 0
outer loop
vertex 3.175 0.762 0
vertex 5.26848 0.762 4.13551
vertex 5.64002 0.762 4.19921
endloop
endfacet
facet normal 0 1 0
outer loop
vertex 7.06453 0.762 5.34942
vertex 7.20508 0.762 5.6992
vertex 51.2908 0.762 14.2378
endloop
endfacet
facet normal 0 1 0
outer loop
vertex 51.2908 0.762 14.2378
vertex 7.20508 0.762 5.6992
vertex 7.2845 0.762 6.0677
endloop
endfacet
facet normal 0 1 0
outer loop
vertex 51.2908 0.762 14.2378
vertex 7.2845 0.762 6.0677
vertex 7.3005 0.762 6.44433
endloop
endfacet
facet normal 0 1 0
outer loop
vertex 7.06453 0.762 20.0506
vertex 6.86688 0.762 20.3716
vertex 51.2908 0.762 14.2378
endloop
endfacet
facet normal 0 1 0
outer loop
vertex 51.2908 0.762 14.2378
vertex 6.86688 0.762 20.3716
vertex 6.61783 0.762 20.6545
endloop
endfacet
facet normal 0 1 0
outer loop
vertex 51.2908 0.762 14.2378
vertex 6.61783 0.762 20.6545
vertex 3.175 0.762 25.4
endloop
endfacet
facet normal 0 1 0
outer loop
vertex 3.175 0.762 25.4
vertex 6.61783 0.762 20.6545
vertex 6.32454 0.762 20.8914
endloop
endfacet
facet normal 0 1 0
outer loop
vertex 3.175 0.762 25.4
vertex 6.32454 0.762 20.8914
vertex 5.99545 0.762 21.0752
endloop
endfacet
facet normal 0 1 0
outer loop
vertex 2.90738 0.762 18.5818
vertex 3.01777 0.762 18.2213
vertex 3.9961 0.762 8.29027
endloop
endfacet
facet normal 0 1 0
outer loop
vertex 3.9961 0.762 8.29027
vertex 3.01777 0.762 18.2213
vertex 3.18748 0.762 17.8847
endloop
endfacet
facet normal 0 1 0
outer loop
vertex 3.9961 0.762 8.29027
vertex 3.18748 0.762 17.8847
vertex 3.41163 0.762 17.5817
endloop
endfacet
facet normal 0 1 0
outer loop
vertex 1.30878 0.762 0.606371
vertex 3.83546 0.762 4.50864
vertex 1.73358 0.762 0.346054
endloop
endfacet
facet normal 0 1 0
outer loop
vertex 1.73358 0.762 0.346054
vertex 3.83546 0.762 4.50864
vertex 4.16455 0.762 4.32479
endloop
endfacet
facet normal 0 1 0
outer loop
vertex 1.73358 0.762 0.346054
vertex 4.16455 0.762 4.32479
vertex 2.19387 0.762 0.155396
endloop
endfacet
facet normal 0 1 0
outer loop
vertex 2.19387 0.762 0.155396
vertex 4.16455 0.762 4.32479
vertex 2.67832 0.762 0.0390895
endloop
endfacet
facet normal 0 1 0
outer loop
vertex 2.67832 0.762 0.0390895
vertex 4.16455 0.762 4.32479
vertex 4.51998 0.762 4.19921
endloop
endfacet
facet normal 0 1 0
outer loop
vertex 2.67832 0.762 0.0390895
vertex 4.51998 0.762 4.19921
vertex 3.175 0.762 0
endloop
endfacet
facet normal 0 1 0
outer loop
vertex 3.175 0.762 0
vertex 4.51998 0.762 4.19921
vertex 4.89152 0.762 4.13551
endloop
endfacet
facet normal 0 1 0
outer loop
vertex 3.175 0.762 0
vertex 4.89152 0.762 4.13551
vertex 5.26848 0.762 4.13551
endloop
endfacet
facet normal 0 1 0
outer loop
vertex 50.6809 0.762 12.8885
vertex 50.6809 0.762 12.5115
vertex 5.64002 0.762 4.19921
endloop
endfacet
facet normal 0 1 0
outer loop
vertex 5.64002 0.762 4.19921
vertex 50.6809 0.762 12.5115
vertex 50.7446 0.762 12.14
endloop
endfacet
facet normal 0 1 0
outer loop
vertex 5.64002 0.762 4.19921
vertex 50.7446 0.762 12.14
vertex 3.175 0.762 0
endloop
endfacet
facet normal 0 1 0
outer loop
vertex 3.175 0.762 0
vertex 50.7446 0.762 12.14
vertex 50.8702 0.762 11.7845
endloop
endfacet
facet normal 0 1 0
outer loop
vertex 3.175 0.762 0
vertex 50.8702 0.762 11.7845
vertex 51.054 0.762 11.4555
endloop
endfacet
facet normal 0 1 0
outer loop
vertex 6.1639 0.762 17.1097
vertex 6.47622 0.762 17.3208
vertex 7.3005 0.762 6.44433
endloop
endfacet
facet normal 0 1 0
outer loop
vertex 7.3005 0.762 6.44433
vertex 6.47622 0.762 17.3208
vertex 6.74837 0.762 17.5817
endloop
endfacet
facet normal 0 1 0
outer loop
vertex 7.3005 0.762 6.44433
vertex 6.74837 0.762 17.5817
vertex 51.2908 0.762 14.2378
endloop
endfacet
facet normal 0 1 0
outer loop
vertex 51.2908 0.762 14.2378
vertex 6.74837 0.762 17.5817
vertex 6.97252 0.762 17.8847
endloop
endfacet
facet normal 0 1 0
outer loop
vertex 51.2908 0.762 14.2378
vertex 6.97252 0.762 17.8847
vertex 7.14223 0.762 18.2213
endloop
endfacet
facet normal 0 1 0
outer loop
vertex 3.41163 0.762 17.5817
vertex 3.68378 0.762 17.3208
vertex 3.9961 0.762 8.29027
endloop
endfacet
facet normal 0 1 0
outer loop
vertex 3.9961 0.762 8.29027
vertex 3.68378 0.762 17.3208
vertex 3.9961 0.762 17.1097
endloop
endfacet
facet normal 0 1 0
outer loop
vertex 3.9961 0.762 8.29027
vertex 3.9961 0.762 17.1097
vertex 4.3396 0.762 16.9545
endloop
endfacet
facet normal 0 1 0
outer loop
vertex 2.8755 0.762 6.0677
vertex 2.95492 0.762 5.6992
vertex 0 0.762 3.175
endloop
endfacet
facet normal 0 1 0
outer loop
vertex 0 0.762 3.175
vertex 2.95492 0.762 5.6992
vertex 3.09547 0.762 5.34942
endloop
endfacet
facet normal 0 1 0
outer loop
vertex 0 0.762 3.175
vertex 3.09547 0.762 5.34942
vertex 0.0390895 0.762 2.67832
endloop
endfacet
facet normal 0 1 0
outer loop
vertex 0.0390895 0.762 2.67832
vertex 3.09547 0.762 5.34942
vertex 3.29312 0.762 5.02843
endloop
endfacet
facet normal 0 1 0
outer loop
vertex 0.0390895 0.762 2.67832
vertex 3.29312 0.762 5.02843
vertex 0.155396 0.762 2.19387
endloop
endfacet
facet normal 0 1 0
outer loop
vertex 0.155396 0.762 2.19387
vertex 3.29312 0.762 5.02843
vertex 3.54217 0.762 4.74545
endloop
endfacet
facet normal 0 1 0
outer loop
vertex 1.30878 0.762 0.606371
vertex 0.929936 0.762 0.929936
vertex 3.83546 0.762 4.50864
endloop
endfacet
facet normal 0 1 0
outer loop
vertex 3.83546 0.762 4.50864
vertex 0.929936 0.762 0.929936
vertex 0.606371 0.762 1.30878
endloop
endfacet
facet normal 0 1 0
outer loop
vertex 3.83546 0.762 4.50864
vertex 0.606371 0.762 1.30878
vertex 3.54217 0.762 4.74545
endloop
endfacet
facet normal 0 1 0
outer loop
vertex 3.54217 0.762 4.74545
vertex 0.606371 0.762 1.30878
vertex 0.346054 0.762 1.73358
endloop
endfacet
facet normal 0 1 0
outer loop
vertex 3.54217 0.762 4.74545
vertex 0.346054 0.762 1.73358
vertex 0.155396 0.762 2.19387
endloop
endfacet
facet normal -0.967733 0 -0.251978
outer loop
vertex 55.0859 0.762 13.0756
vertex 55.0859 0 13.0756
vertex 54.9909 0.762 13.4404
endloop
endfacet
facet normal -0.967733 0 -0.251978
outer loop
vertex 54.9909 0.762 13.4404
vertex 55.0859 0 13.0756
vertex 54.9909 0 13.4404
endloop
endfacet
facet normal -0.91123 0 -0.411897
outer loop
vertex 54.9909 0.762 13.4404
vertex 54.9909 0 13.4404
vertex 54.8357 0.762 13.7839
endloop
endfacet
facet normal -0.91123 0 -0.411897
outer loop
vertex 54.8357 0.762 13.7839
vertex 54.9909 0 13.4404
vertex 54.8357 0 13.7839
endloop
endfacet
facet normal -0.828509 0 -0.559976
outer loop
vertex 54.8357 0.762 13.7839
vertex 54.8357 0 13.7839
vertex 54.6246 0.762 14.0962
endloop
endfacet
facet normal -0.828509 0 -0.559976
outer loop
vertex 54.6246 0.762 14.0962
vertex 54.8357 0 13.7839
vertex 54.6246 0 14.0962
endloop
endfacet
facet normal -0.721952 0 -0.691943
outer loop
vertex 54.6246 0.762 14.0962
vertex 54.6246 0 14.0962
vertex 54.3637 0.762 14.3684
endloop
endfacet
facet normal -0.721952 0 -0.691943
outer loop
vertex 54.3637 0.762 14.3684
vertex 54.6246 0 14.0962
vertex 54.3637 0 14.3684
endloop
endfacet
facet normal -0.594637 0 -0.803994
outer loop
vertex 54.3637 0.762 14.3684
vertex 54.3637 0 14.3684
vertex 54.0607 0.762 14.5925
endloop
endfacet
facet normal -0.594637 0 -0.803994
outer loop
vertex 54.0607 0.762 14.5925
vertex 54.3637 0 14.3684
vertex 54.0607 0 14.5925
endloop
endfacet
facet normal -0.450196 0 -0.89293
outer loop
vertex 54.0607 0.762 14.5925
vertex 54.0607 0 14.5925
vertex 53.7241 0.762 14.7622
endloop
endfacet
facet normal -0.450196 0 -0.89293
outer loop
vertex 53.7241 0.762 14.7622
vertex 54.0607 0 14.5925
vertex 53.7241 0 14.7622
endloop
endfacet
facet normal -0.292825 0 -0.956166
outer loop
vertex 53.7241 0.762 14.7622
vertex 53.7241 0 14.7622
vertex 53.3636 0.762 14.8726
endloop
endfacet
facet normal -0.292825 0 -0.956166
outer loop
vertex 53.3636 0.762 14.8726
vertex 53.7241 0 14.7622
vertex 53.3636 0 14.8726
endloop
endfacet
facet normal -0.12702 0 -0.9919
outer loop
vertex 53.3636 0.762 14.8726
vertex 53.3636 0 14.8726
vertex 52.9897 0.762 14.9205
endloop
endfacet
facet normal -0.12702 0 -0.9919
outer loop
vertex 52.9897 0.762 14.9205
vertex 53.3636 0 14.8726
vertex 52.9897 0 14.9205
endloop
endfacet
facet normal 0.0424383 0 -0.999099
outer loop
vertex 52.9897 0.762 14.9205
vertex 52.9897 0 14.9205
vertex 52.6131 0.762 14.9045
endloop
endfacet
facet normal 0.0424383 0 -0.999099
outer loop
vertex 52.6131 0.762 14.9045
vertex 52.9897 0 14.9205
vertex 52.6131 0 14.9045
endloop
endfacet
facet normal 0.21068 0 -0.977555
outer loop
vertex 52.6131 0.762 14.9045
vertex 52.6131 0 14.9045
vertex 52.2446 0.762 14.8251
endloop
endfacet
facet normal 0.21068 0 -0.977555
outer loop
vertex 52.2446 0.762 14.8251
vertex 52.6131 0 14.9045
vertex 52.2446 0 14.8251
endloop
endfacet
facet normal 0.372854 0 -0.92789
outer loop
vertex 52.2446 0.762 14.8251
vertex 52.2446 0 14.8251
vertex 51.8948 0.762 14.6845
endloop
endfacet
facet normal 0.372854 0 -0.92789
outer loop
vertex 51.8948 0.762 14.6845
vertex 52.2446 0 14.8251
vertex 51.8948 0 14.6845
endloop
endfacet
facet normal 0.524311 0 -0.851527
outer loop
vertex 51.8948 0.762 14.6845
vertex 51.8948 0 14.6845
vertex 51.5738 0.762 14.4869
endloop
endfacet
facet normal 0.524311 0 -0.851527
outer loop
vertex 51.5738 0.762 14.4869
vertex 51.8948 0 14.6845
vertex 51.5738 0 14.4869
endloop
endfacet
facet normal 0.660677 0 -0.75067
outer loop
vertex 51.5738 0.762 14.4869
vertex 51.5738 0 14.4869
vertex 51.2908 0.762 14.2378
endloop
endfacet
facet normal 0.660677 0 -0.75067
outer loop
vertex 51.2908 0.762 14.2378
vertex 51.5738 0 14.4869
vertex 51.2908 0 14.2378
endloop
endfacet
facet normal 0.778034 0 -0.628222
outer loop
vertex 51.2908 0.762 14.2378
vertex 51.2908 0 14.2378
vertex 51.054 0.762 13.9445
endloop
endfacet
facet normal 0.778034 0 -0.628222
outer loop
vertex 51.054 0.762 13.9445
vertex 51.2908 0 14.2378
vertex 51.054 0 13.9445
endloop
endfacet
facet normal 0.873011 0 -0.487701
outer loop
vertex 51.054 0.762 13.9445
vertex 51.054 0 13.9445
vertex 50.8702 0.762 13.6155
endloop
endfacet
facet normal 0.873011 0 -0.487701
outer loop
vertex 50.8702 0.762 13.6155
vertex 51.054 0 13.9445
vertex 50.8702 0 13.6155
endloop
endfacet
facet normal 0.942882 0 -0.333127
outer loop
vertex 50.8702 0.762 13.6155
vertex 50.8702 0 13.6155
vertex 50.7446 0.762 13.26
endloop
endfacet
facet normal 0.942882 0 -0.333127
outer loop
vertex 50.7446 0.762 13.26
vertex 50.8702 0 13.6155
vertex 50.7446 0 13.26
endloop
endfacet
facet normal 0.985613 0 -0.169017
outer loop
vertex 50.7446 0.762 13.26
vertex 50.7446 0 13.26
vertex 50.6809 0.762 12.8885
endloop
endfacet
facet normal 0.985613 0 -0.169017
outer loop
vertex 50.6809 0.762 12.8885
vertex 50.7446 0 13.26
vertex 50.6809 0 12.8885
endloop
endfacet
facet normal 1 0 0
outer loop
vertex 50.6809 0.762 12.8885
vertex 50.6809 0 12.8885
vertex 50.6809 0.762 12.5115
endloop
endfacet
facet normal 1 0 0
outer loop
vertex 50.6809 0.762 12.5115
vertex 50.6809 0 12.8885
vertex 50.6809 0 12.5115
endloop
endfacet
facet normal 0.985613 0 0.169017
outer loop
vertex 50.6809 0.762 12.5115
vertex 50.6809 0 12.5115
vertex 50.7446 0.762 12.14
endloop
endfacet
facet normal 0.985613 0 0.169017
outer loop
vertex 50.7446 0.762 12.14
vertex 50.6809 0 12.5115
vertex 50.7446 0 12.14
endloop
endfacet
facet normal 0.942882 0 0.333128
outer loop
vertex 50.7446 0.762 12.14
vertex 50.7446 0 12.14
vertex 50.8702 0.762 11.7845
endloop
endfacet
facet normal 0.942882 0 0.333128
outer loop
vertex 50.8702 0.762 11.7845
vertex 50.7446 0 12.14
vertex 50.8702 0 11.7845
endloop
endfacet
facet normal 0.873011 0 0.4877
outer loop
vertex 50.8702 0.762 11.7845
vertex 50.8702 0 11.7845
vertex 51.054 0.762 11.4555
endloop
endfacet
facet normal 0.873011 0 0.4877
outer loop
vertex 51.054 0.762 11.4555
vertex 50.8702 0 11.7845
vertex 51.054 0 11.4555
endloop
endfacet
facet normal 0.778034 0 0.628222
outer loop
vertex 51.054 0.762 11.4555
vertex 51.054 0 11.4555
vertex 51.2908 0.762 11.1622
endloop
endfacet
facet normal 0.778034 0 0.628222
outer loop
vertex 51.2908 0.762 11.1622
vertex 51.054 0 11.4555
vertex 51.2908 0 11.1622
endloop
endfacet
facet normal 0.660677 0 0.75067
outer loop
vertex 51.2908 0.762 11.1622
vertex 51.2908 0 11.1622
vertex 51.5738 0.762 10.9131
endloop
endfacet
facet normal 0.660677 0 0.75067
outer loop
vertex 51.5738 0.762 10.9131
vertex 51.2908 0 11.1622
vertex 51.5738 0 10.9131
endloop
endfacet
facet normal 0.524309 0 0.851528
outer loop
vertex 51.5738 0.762 10.9131
vertex 51.5738 0 10.9131
vertex 51.8948 0.762 10.7155
endloop
endfacet
facet normal 0.524309 0 0.851528
outer loop
vertex 51.8948 0.762 10.7155
vertex 51.5738 0 10.9131
vertex 51.8948 0 10.7155
endloop
endfacet
facet normal 0.372856 0 0.927889
outer loop
vertex 51.8948 0.762 10.7155
vertex 51.8948 0 10.7155
vertex 52.2446 0.762 10.5749
endloop
endfacet
facet normal 0.372856 0 0.927889
outer loop
vertex 52.2446 0.762 10.5749
vertex 51.8948 0 10.7155
vertex 52.2446 0 10.5749
endloop
endfacet
facet normal 0.210678 0 0.977556
outer loop
vertex 52.2446 0.762 10.5749
vertex 52.2446 0 10.5749
vertex 52.6131 0.762 10.4955
endloop
endfacet
facet normal 0.210678 0 0.977556
outer loop
vertex 52.6131 0.762 10.4955
vertex 52.2446 0 10.5749
vertex 52.6131 0 10.4955
endloop
endfacet
facet normal 0.0424408 0 0.999099
outer loop
vertex 52.6131 0.762 10.4955
vertex 52.6131 0 10.4955
vertex 52.9897 0.762 10.4795
endloop
endfacet
facet normal 0.0424408 0 0.999099
outer loop
vertex 52.9897 0.762 10.4795
vertex 52.6131 0 10.4955
vertex 52.9897 0 10.4795
endloop
endfacet
facet normal -0.12702 0 0.9919
outer loop
vertex 52.9897 0.762 10.4795
vertex 52.9897 0 10.4795
vertex 53.3636 0.762 10.5274
endloop
endfacet
facet normal -0.12702 0 0.9919
outer loop
vertex 53.3636 0.762 10.5274
vertex 52.9897 0 10.4795
vertex 53.3636 0 10.5274
endloop
endfacet
facet normal -0.292825 0 0.956166
outer loop
vertex 53.3636 0.762 10.5274
vertex 53.3636 0 10.5274
vertex 53.7241 0.762 10.6378
endloop
endfacet
facet normal -0.292825 0 0.956166
outer loop
vertex 53.7241 0.762 10.6378
vertex 53.3636 0 10.5274
vertex 53.7241 0 10.6378
endloop
endfacet
facet normal -0.450198 0 0.892929
outer loop
vertex 53.7241 0.762 10.6378
vertex 53.7241 0 10.6378
vertex 54.0607 0.762 10.8075
endloop
endfacet
facet normal -0.450198 0 0.892929
outer loop
vertex 54.0607 0.762 10.8075
vertex 53.7241 0 10.6378
vertex 54.0607 0 10.8075
endloop
endfacet
facet normal -0.594635 0 0.803996
outer loop
vertex 54.0607 0.762 10.8075
vertex 54.0607 0 10.8075
vertex 54.3637 0.762 11.0316
endloop
endfacet
facet normal -0.594635 0 0.803996
outer loop
vertex 54.3637 0.762 11.0316
vertex 54.0607 0 10.8075
vertex 54.3637 0 11.0316
endloop
endfacet
facet normal -0.721952 0 0.691943
outer loop
vertex 54.3637 0.762 11.0316
vertex 54.3637 0 11.0316
vertex 54.6246 0.762 11.3038
endloop
endfacet
facet normal -0.721952 0 0.691943
outer loop
vertex 54.6246 0.762 11.3038
vertex 54.3637 0 11.0316
vertex 54.6246 0 11.3038
endloop
endfacet
facet normal -0.828509 0 0.559976
outer loop
vertex 54.6246 0.762 11.3038
vertex 54.6246 0 11.3038
vertex 54.8357 0.762 11.6161
endloop
endfacet
facet normal -0.828509 0 0.559976
outer loop
vertex 54.8357 0.762 11.6161
vertex 54.6246 0 11.3038
vertex 54.8357 0 11.6161
endloop
endfacet
facet normal -0.91123 0 0.411897
outer loop
vertex 54.8357 0.762 11.6161
vertex 54.8357 0 11.6161
vertex 54.9909 0.762 11.9596
endloop
endfacet
facet normal -0.91123 0 0.411897
outer loop
vertex 54.9909 0.762 11.9596
vertex 54.8357 0 11.6161
vertex 54.9909 0 11.9596
endloop
endfacet
facet normal -0.967733 0 0.251978
outer loop
vertex 54.9909 0.762 11.9596
vertex 54.9909 0 11.9596
vertex 55.0859 0.762 12.3244
endloop
endfacet
facet normal -0.967733 0 0.251978
outer loop
vertex 55.0859 0.762 12.3244
vertex 54.9909 0 11.9596
vertex 55.0859 0 12.3244
endloop
endfacet
facet normal -0.996397 0 0.084812
outer loop
vertex 55.0859 0.762 12.3244
vertex 55.0859 0 12.3244
vertex 55.1179 0.762 12.7
endloop
endfacet
facet normal -0.996397 0 0.084812
outer loop
vertex 55.1179 0.762 12.7
vertex 55.0859 0 12.3244
vertex 55.1179 0 12.7
endloop
endfacet
facet normal -0.996397 0 -0.084812
outer loop
vertex 55.1179 0.762 12.7
vertex 55.1179 0 12.7
vertex 55.0859 0.762 13.0756
endloop
endfacet
facet normal -0.996397 0 -0.084812
outer loop
vertex 55.0859 0.762 13.0756
vertex 55.1179 0 12.7
vertex 55.0859 0 13.0756
endloop
endfacet
facet normal -0.0784592 0 -0.996917
outer loop
vertex 3.175 0.762 0
vertex 3.175 0 0
vertex 2.67832 0.762 0.0390895
endloop
endfacet
facet normal -0.0784592 0 -0.996917
outer loop
vertex 2.67832 0.762 0.0390895
vertex 3.175 0 0
vertex 2.67832 0 0.0390895
endloop
endfacet
facet normal -0.233445 0 -0.97237
outer loop
vertex 2.67832 0.762 0.0390895
vertex 2.67832 0 0.0390895
vertex 2.19387 0.762 0.155396
endloop
endfacet
facet normal -0.233445 0 -0.97237
outer loop
vertex 2.19387 0.762 0.155396
vertex 2.67832 0 0.0390895
vertex 2.19387 0 0.155396
endloop
endfacet
facet normal -0.382684 0 -0.923879
outer loop
vertex 2.19387 0.762 0.155396
vertex 2.19387 0 0.155396
vertex 1.73358 0.762 0.346054
endloop
endfacet
facet normal -0.382684 0 -0.923879
outer loop
vertex 1.73358 0.762 0.346054
vertex 2.19387 0 0.155396
vertex 1.73358 0 0.346054
endloop
endfacet
facet normal -0.522498 0 -0.85264
outer loop
vertex 1.73358 0.762 0.346054
vertex 1.73358 0 0.346054
vertex 1.30878 0.762 0.606371
endloop
endfacet
facet normal -0.522498 0 -0.85264
outer loop
vertex 1.30878 0.762 0.606371
vertex 1.73358 0 0.346054
vertex 1.30878 0 0.606371
endloop
endfacet
facet normal -0.649448 0 -0.760406
outer loop
vertex 1.30878 0.762 0.606371
vertex 1.30878 0 0.606371
vertex 0.929936 0.762 0.929936
endloop
endfacet
facet normal -0.649448 0 -0.760406
outer loop
vertex 0.929936 0.762 0.929936
vertex 1.30878 0 0.606371
vertex 0.929936 0 0.929936
endloop
endfacet
facet normal -0.760406 0 -0.649448
outer loop
vertex 0.929936 0.762 0.929936
vertex 0.929936 0 0.929936
vertex 0.606371 0.762 1.30878
endloop
endfacet
facet normal -0.760406 0 -0.649448
outer loop
vertex 0.606371 0.762 1.30878
vertex 0.929936 0 0.929936
vertex 0.606371 0 1.30878
endloop
endfacet
facet normal -0.85264 0 -0.522499
outer loop
vertex 0.606371 0.762 1.30878
vertex 0.606371 0 1.30878
vertex 0.346054 0.762 1.73358
endloop
endfacet
facet normal -0.85264 0 -0.522499
outer loop
vertex 0.346054 0.762 1.73358
vertex 0.606371 0 1.30878
vertex 0.346054 0 1.73358
endloop
endfacet
facet normal -0.92388 0 -0.382683
outer loop
vertex 0.346054 0.762 1.73358
vertex 0.346054 0 1.73358
vertex 0.155396 0.762 2.19387
endloop
endfacet
facet normal -0.92388 0 -0.382683
outer loop
vertex 0.155396 0.762 2.19387
vertex 0.346054 0 1.73358
vertex 0.155396 0 2.19387
endloop
endfacet
facet normal -0.97237 0 -0.233446
outer loop
vertex 0.155396 0.762 2.19387
vertex 0.155396 0 2.19387
vertex 0.0390895 0.762 2.67832
endloop
endfacet
facet normal -0.97237 0 -0.233446
outer loop
vertex 0.0390895 0.762 2.67832
vertex 0.155396 0 2.19387
vertex 0.0390895 0 2.67832
endloop
endfacet
facet normal -0.996917 0 -0.078459
outer loop
vertex 0.0390895 0.762 2.67832
vertex 0.0390895 0 2.67832
vertex 0 0.762 3.175
endloop
endfacet
facet normal -0.996917 0 -0.078459
outer loop
vertex 0 0.762 3.175
vertex 0.0390895 0 2.67832
vertex 0 0 3.175
endloop
endfacet
facet normal -1 0 0
outer loop
vertex 0 0 3.175
vertex 0 0 22.225
vertex 0 0.762 3.175
endloop
endfacet
facet normal -1 0 0
outer loop
vertex 0 0.762 3.175
vertex 0 0 22.225
vertex 0 0.762 22.225
endloop
endfacet
facet normal -0.996917 0 0.078459
outer loop
vertex 0 0.762 22.225
vertex 0 0 22.225
vertex 0.0390895 0.762 22.7217
endloop
endfacet
facet normal -0.996917 0 0.078459
outer loop
vertex 0.0390895 0.762 22.7217
vertex 0 0 22.225
vertex 0.0390895 0 22.7217
endloop
endfacet
facet normal -0.97237 0 0.233446
outer loop
vertex 0.0390895 0.762 22.7217
vertex 0.0390895 0 22.7217
vertex 0.155396 0.762 23.2061
endloop
endfacet
facet normal -0.97237 0 0.233446
outer loop
vertex 0.155396 0.762 23.2061
vertex 0.0390895 0 22.7217
vertex 0.155396 0 23.2061
endloop
endfacet
facet normal -0.92388 0 0.382683
outer loop
vertex 0.155396 0.762 23.2061
vertex 0.155396 0 23.2061
vertex 0.346054 0.762 23.6664
endloop
endfacet
facet normal -0.92388 0 0.382683
outer loop
vertex 0.346054 0.762 23.6664
vertex 0.155396 0 23.2061
vertex 0.346054 0 23.6664
endloop
endfacet
facet normal -0.852639 0 0.5225
outer loop
vertex 0.346054 0.762 23.6664
vertex 0.346054 0 23.6664
vertex 0.606371 0.762 24.0912
endloop
endfacet
facet normal -0.852639 0 0.5225
outer loop
vertex 0.606371 0.762 24.0912
vertex 0.346054 0 23.6664
vertex 0.606371 0 24.0912
endloop
endfacet
facet normal -0.760407 0 0.649447
outer loop
vertex 0.606371 0.762 24.0912
vertex 0.606371 0 24.0912
vertex 0.929936 0.762 24.4701
endloop
endfacet
facet normal -0.760407 0 0.649447
outer loop
vertex 0.929936 0.762 24.4701
vertex 0.606371 0 24.0912
vertex 0.929936 0 24.4701
endloop
endfacet
facet normal -0.649447 0 0.760407
outer loop
vertex 0.929936 0.762 24.4701
vertex 0.929936 0 24.4701
vertex 1.30878 0.762 24.7936
endloop
endfacet
facet normal -0.649447 0 0.760407
outer loop
vertex 1.30878 0.762 24.7936
vertex 0.929936 0 24.4701
vertex 1.30878 0 24.7936
endloop
endfacet
facet normal -0.522498 0 0.85264
outer loop
vertex 1.30878 0.762 24.7936
vertex 1.30878 0 24.7936
vertex 1.73358 0.762 25.0539
endloop
endfacet
facet normal -0.522498 0 0.85264
outer loop
vertex 1.73358 0.762 25.0539
vertex 1.30878 0 24.7936
vertex 1.73358 0 25.0539
endloop
endfacet
facet normal -0.382683 0 0.92388
outer loop
vertex 1.73358 0.762 25.0539
vertex 1.73358 0 25.0539
vertex 2.19387 0.762 25.2446
endloop
endfacet
facet normal -0.382683 0 0.92388
outer loop
vertex 2.19387 0.762 25.2446
vertex 1.73358 0 25.0539
vertex 2.19387 0 25.2446
endloop
endfacet
facet normal -0.233446 0 0.97237
outer loop
vertex 2.19387 0.762 25.2446
vertex 2.19387 0 25.2446
vertex 2.67832 0.762 25.3609
endloop
endfacet
facet normal -0.233446 0 0.97237
outer loop
vertex 2.67832 0.762 25.3609
vertex 2.19387 0 25.2446
vertex 2.67832 0 25.3609
endloop
endfacet
facet normal -0.0784585 0 0.996917
outer loop
vertex 2.67832 0.762 25.3609
vertex 2.67832 0 25.3609
vertex 3.175 0.762 25.4
endloop
endfacet
facet normal -0.0784585 0 0.996917
outer loop
vertex 3.175 0.762 25.4
vertex 2.67832 0 25.3609
vertex 3.175 0 25.4
endloop
endfacet
facet normal 0 0 1
outer loop
vertex 3.175 0.762 25.4
vertex 3.175 0 25.4
vertex 54.8004 0.762 25.4
endloop
endfacet
facet normal 0 0 1
outer loop
vertex 54.8004 0.762 25.4
vertex 3.175 0 25.4
vertex 54.8004 0 25.4
endloop
endfacet
facet normal 0.0784576 0 0.996917
outer loop
vertex 54.8004 0.762 25.4
vertex 54.8004 0 25.4
vertex 55.2971 0.762 25.3609
endloop
endfacet
facet normal 0.0784576 0 0.996917
outer loop
vertex 55.2971 0.762 25.3609
vertex 54.8004 0 25.4
vertex 55.2971 0 25.3609
endloop
endfacet
facet normal 0.233449 0 0.972369
outer loop
vertex 55.2971 0.762 25.3609
vertex 55.2971 0 25.3609
vertex 55.7815 0.762 25.2446
endloop
endfacet
facet normal 0.233449 0 0.972369
outer loop
vertex 55.7815 0.762 25.2446
vertex 55.2971 0 25.3609
vertex 55.7815 0 25.2446
endloop
endfacet
facet normal 0.382679 0 0.923881
outer loop
vertex 55.7815 0.762 25.2446
vertex 55.7815 0 25.2446
vertex 56.2418 0.762 25.0539
endloop
endfacet
facet normal 0.382679 0 0.923881
outer loop
vertex 56.2418 0.762 25.0539
vertex 55.7815 0 25.2446
vertex 56.2418 0 25.0539
endloop
endfacet
facet normal 0.5225 0 0.852639
outer loop
vertex 56.2418 0.762 25.0539
vertex 56.2418 0 25.0539
vertex 56.6666 0.762 24.7936
endloop
endfacet
facet normal 0.5225 0 0.852639
outer loop
vertex 56.6666 0.762 24.7936
vertex 56.2418 0 25.0539
vertex 56.6666 0 24.7936
endloop
endfacet
facet normal 0.649448 0 0.760406
outer loop
vertex 56.6666 0.762 24.7936
vertex 56.6666 0 24.7936
vertex 57.0455 0.762 24.4701
endloop
endfacet
facet normal 0.649448 0 0.760406
outer loop
vertex 57.0455 0.762 24.4701
vertex 56.6666 0 24.7936
vertex 57.0455 0 24.4701
endloop
endfacet
facet normal 0.760409 0 0.649444
outer loop
vertex 57.0455 0.762 24.4701
vertex 57.0455 0 24.4701
vertex 57.369 0.762 24.0912
endloop
endfacet
facet normal 0.760409 0 0.649444
outer loop
vertex 57.369 0.762 24.0912
vertex 57.0455 0 24.4701
vertex 57.369 0 24.0912
endloop
endfacet
facet normal 0.852638 0 0.522503
outer loop
vertex 57.369 0.762 24.0912
vertex 57.369 0 24.0912
vertex 57.6293 0.762 23.6664
endloop
endfacet
facet normal 0.852638 0 0.522503
outer loop
vertex 57.6293 0.762 23.6664
vertex 57.369 0 24.0912
vertex 57.6293 0 23.6664
endloop
endfacet
facet normal 0.92388 0 0.382683
outer loop
vertex 57.6293 0.762 23.6664
vertex 57.6293 0 23.6664
vertex 57.82 0.762 23.2061
endloop
endfacet
facet normal 0.92388 0 0.382683
outer loop
vertex 57.82 0.762 23.2061
vertex 57.6293 0 23.6664
vertex 57.82 0 23.2061
endloop
endfacet
facet normal 0.972372 0 0.233439
outer loop
vertex 57.82 0.762 23.2061
vertex 57.82 0 23.2061
vertex 57.9363 0.762 22.7217
endloop
endfacet
facet normal 0.972372 0 0.233439
outer loop
vertex 57.9363 0.762 22.7217
vertex 57.82 0 23.2061
vertex 57.9363 0 22.7217
endloop
endfacet
facet normal 0.996917 0 0.0784661
outer loop
vertex 57.9363 0.762 22.7217
vertex 57.9363 0 22.7217
vertex 57.9754 0.762 22.225
endloop
endfacet
facet normal 0.996917 0 0.0784661
outer loop
vertex 57.9754 0.762 22.225
vertex 57.9363 0 22.7217
vertex 57.9754 0 22.225
endloop
endfacet
facet normal 1 0 0
outer loop
vertex 57.9754 0.762 22.225
vertex 57.9754 0 22.225
vertex 57.9754 0.762 3.175
endloop
endfacet
facet normal 1 0 0
outer loop
vertex 57.9754 0.762 3.175
vertex 57.9754 0 22.225
vertex 57.9754 0 3.175
endloop
endfacet
facet normal 0.996917 0 -0.0784661
outer loop
vertex 57.9754 0.762 3.175
vertex 57.9754 0 3.175
vertex 57.9363 0.762 2.67832
endloop
endfacet
facet normal 0.996917 0 -0.0784661
outer loop
vertex 57.9363 0.762 2.67832
vertex 57.9754 0 3.175
vertex 57.9363 0 2.67832
endloop
endfacet
facet normal 0.972372 0 -0.233439
outer loop
vertex 57.9363 0.762 2.67832
vertex 57.9363 0 2.67832
vertex 57.82 0.762 2.19387
endloop
endfacet
facet normal 0.972372 0 -0.233439
outer loop
vertex 57.82 0.762 2.19387
vertex 57.9363 0 2.67832
vertex 57.82 0 2.19387
endloop
endfacet
facet normal 0.92388 0 -0.382683
outer loop
vertex 57.82 0.762 2.19387
vertex 57.82 0 2.19387
vertex 57.6293 0.762 1.73358
endloop
endfacet
facet normal 0.92388 0 -0.382683
outer loop
vertex 57.6293 0.762 1.73358
vertex 57.82 0 2.19387
vertex 57.6293 0 1.73358
endloop
endfacet
facet normal 0.852638 0 -0.522501
outer loop
vertex 57.6293 0.762 1.73358
vertex 57.6293 0 1.73358
vertex 57.369 0.762 1.30878
endloop
endfacet
facet normal 0.852638 0 -0.522501
outer loop
vertex 57.369 0.762 1.30878
vertex 57.6293 0 1.73358
vertex 57.369 0 1.30878
endloop
endfacet
facet normal 0.760408 0 -0.649445
outer loop
vertex 57.369 0.762 1.30878
vertex 57.369 0 1.30878
vertex 57.0455 0.762 0.929936
endloop
endfacet
facet normal 0.760408 0 -0.649445
outer loop
vertex 57.0455 0.762 0.929936
vertex 57.369 0 1.30878
vertex 57.0455 0 0.929936
endloop
endfacet
facet normal 0.649449 0 -0.760405
outer loop
vertex 57.0455 0.762 0.929936
vertex 57.0455 0 0.929936
vertex 56.6666 0.762 0.606371
endloop
endfacet
facet normal 0.649449 0 -0.760405
outer loop
vertex 56.6666 0.762 0.606371
vertex 57.0455 0 0.929936
vertex 56.6666 0 0.606371
endloop
endfacet
facet normal 0.5225 0 -0.852639
outer loop
vertex 56.6666 0.762 0.606371
vertex 56.6666 0 0.606371
vertex 56.2418 0.762 0.346054
endloop
endfacet
facet normal 0.5225 0 -0.852639
outer loop
vertex 56.2418 0.762 0.346054
vertex 56.6666 0 0.606371
vertex 56.2418 0 0.346054
endloop
endfacet
facet normal 0.382679 0 -0.923881
outer loop
vertex 56.2418 0.762 0.346054
vertex 56.2418 0 0.346054
vertex 55.7815 0.762 0.155396
endloop
endfacet
facet normal 0.382679 0 -0.923881
outer loop
vertex 55.7815 0.762 0.155396
vertex 56.2418 0 0.346054
vertex 55.7815 0 0.155396
endloop
endfacet
facet normal 0.233448 0 -0.972369
outer loop
vertex 55.7815 0.762 0.155396
vertex 55.7815 0 0.155396
vertex 55.2971 0.762 0.0390895
endloop
endfacet
facet normal 0.233448 0 -0.972369
outer loop
vertex 55.2971 0.762 0.0390895
vertex 55.7815 0 0.155396
vertex 55.2971 0 0.0390895
endloop
endfacet
facet normal 0.0784582 0 -0.996917
outer loop
vertex 55.2971 0.762 0.0390895
vertex 55.2971 0 0.0390895
vertex 54.8004 0.762 0
endloop
endfacet
facet normal 0.0784582 -5.40508e-015 -0.996917
outer loop
vertex 54.8004 0.762 0
vertex 55.2971 0 0.0390895
vertex 54.8004 0 4.1314e-015
endloop
endfacet
facet normal 0 0 -1
outer loop
vertex 3.175 0.762 0
vertex 54.8004 0.762 0
vertex 3.175 0 0
endloop
endfacet
facet normal 8.00266e-017 -5.42179e-015 -1
outer loop
vertex 3.175 0 0
vertex 54.8004 0.762 0
vertex 54.8004 0 4.1314e-015
endloop
endfacet
facet normal -0.251982 0 0.967732
outer loop
vertex 5.4556 0.762 16.8595
vertex 5.4556 0 16.8595
vertex 5.8204 0.762 16.9545
endloop
endfacet
facet normal -0.251982 0 0.967732
outer loop
vertex 5.8204 0.762 16.9545
vertex 5.4556 0 16.8595
vertex 5.8204 0 16.9545
endloop
endfacet
facet normal -0.411898 0 0.91123
outer loop
vertex 5.8204 0.762 16.9545
vertex 5.8204 0 16.9545
vertex 6.1639 0.762 17.1097
endloop
endfacet
facet normal -0.411898 0 0.91123
outer loop
vertex 6.1639 0.762 17.1097
vertex 5.8204 0 16.9545
vertex 6.1639 0 17.1097
endloop
endfacet
facet normal -0.559977 0 0.828508
outer loop
vertex 6.1639 0.762 17.1097
vertex 6.1639 0 17.1097
vertex 6.47622 0.762 17.3208
endloop
endfacet
facet normal -0.559977 0 0.828508
outer loop
vertex 6.47622 0.762 17.3208
vertex 6.1639 0 17.1097
vertex 6.47622 0 17.3208
endloop
endfacet
facet normal -0.69194 0 0.721955
outer loop
vertex 6.47622 0.762 17.3208
vertex 6.47622 0 17.3208
vertex 6.74837 0.762 17.5817
endloop
endfacet
facet normal -0.69194 0 0.721955
outer loop
vertex 6.74837 0.762 17.5817
vertex 6.47622 0 17.3208
vertex 6.74837 0 17.5817
endloop
endfacet
facet normal -0.803997 0 0.594634
outer loop
vertex 6.74837 0.762 17.5817
vertex 6.74837 0 17.5817
vertex 6.97252 0.762 17.8847
endloop
endfacet
facet normal -0.803997 0 0.594634
outer loop
vertex 6.97252 0.762 17.8847
vertex 6.74837 0 17.5817
vertex 6.97252 0 17.8847
endloop
endfacet
facet normal -0.892925 0 0.450205
outer loop
vertex 6.97252 0.762 17.8847
vertex 6.97252 0 17.8847
vertex 7.14223 0.762 18.2213
endloop
endfacet
facet normal -0.892925 0 0.450205
outer loop
vertex 7.14223 0.762 18.2213
vertex 6.97252 0 17.8847
vertex 7.14223 0 18.2213
endloop
endfacet
facet normal -0.956166 0 0.292824
outer loop
vertex 7.14223 0.762 18.2213
vertex 7.14223 0 18.2213
vertex 7.25262 0.762 18.5818
endloop
endfacet
facet normal -0.956166 0 0.292824
outer loop
vertex 7.25262 0.762 18.5818
vertex 7.14223 0 18.2213
vertex 7.25262 0 18.5818
endloop
endfacet
facet normal -0.991901 0 0.127017
outer loop
vertex 7.25262 0.762 18.5818
vertex 7.25262 0 18.5818
vertex 7.3005 0.762 18.9557
endloop
endfacet
facet normal -0.991901 0 0.127017
outer loop
vertex 7.3005 0.762 18.9557
vertex 7.25262 0 18.5818
vertex 7.3005 0 18.9557
endloop
endfacet
facet normal -0.999099 0 -0.0424414
outer loop
vertex 7.3005 0.762 18.9557
vertex 7.3005 0 18.9557
vertex 7.2845 0.762 19.3323
endloop
endfacet
facet normal -0.999099 0 -0.0424414
outer loop
vertex 7.2845 0.762 19.3323
vertex 7.3005 0 18.9557
vertex 7.2845 0 19.3323
endloop
endfacet
facet normal -0.977555 0 -0.210678
outer loop
vertex 7.2845 0.762 19.3323
vertex 7.2845 0 19.3323
vertex 7.20508 0.762 19.7008
endloop
endfacet
facet normal -0.977555 0 -0.210678
outer loop
vertex 7.20508 0.762 19.7008
vertex 7.2845 0 19.3323
vertex 7.20508 0 19.7008
endloop
endfacet
facet normal -0.927889 0 -0.372858
outer loop
vertex 7.20508 0.762 19.7008
vertex 7.20508 0 19.7008
vertex 7.06453 0.762 20.0506
endloop
endfacet
facet normal -0.927889 0 -0.372858
outer loop
vertex 7.06453 0.762 20.0506
vertex 7.20508 0 19.7008
vertex 7.06453 0 20.0506
endloop
endfacet
facet normal -0.85153 0 -0.524306
outer loop
vertex 7.06453 0.762 20.0506
vertex 7.06453 0 20.0506
vertex 6.86688 0.762 20.3716
endloop
endfacet
facet normal -0.85153 0 -0.524306
outer loop
vertex 6.86688 0.762 20.3716
vertex 7.06453 0 20.0506
vertex 6.86688 0 20.3716
endloop
endfacet
facet normal -0.750673 0 -0.660674
outer loop
vertex 6.86688 0.762 20.3716
vertex 6.86688 0 20.3716
vertex 6.61783 0.762 20.6545
endloop
endfacet
facet normal -0.750673 0 -0.660674
outer loop
vertex 6.61783 0.762 20.6545
vertex 6.86688 0 20.3716
vertex 6.61783 0 20.6545
endloop
endfacet
facet normal -0.628219 0 -0.778037
outer loop
vertex 6.61783 0.762 20.6545
vertex 6.61783 0 20.6545
vertex 6.32454 0.762 20.8914
endloop
endfacet
facet normal -0.628219 0 -0.778037
outer loop
vertex 6.32454 0.762 20.8914
vertex 6.61783 0 20.6545
vertex 6.32454 0 20.8914
endloop
endfacet
facet normal -0.487697 0 -0.873013
outer loop
vertex 6.32454 0.762 20.8914
vertex 6.32454 0 20.8914
vertex 5.99545 0.762 21.0752
endloop
endfacet
facet normal -0.487697 0 -0.873013
outer loop
vertex 5.99545 0.762 21.0752
vertex 6.32454 0 20.8914
vertex 5.99545 0 21.0752
endloop
endfacet
facet normal -0.333137 0 -0.942879
outer loop
vertex 5.99545 0.762 21.0752
vertex 5.99545 0 21.0752
vertex 5.64002 0.762 21.2008
endloop
endfacet
facet normal -0.333137 0 -0.942879
outer loop
vertex 5.64002 0.762 21.2008
vertex 5.99545 0 21.0752
vertex 5.64002 0 21.2008
endloop
endfacet
facet normal -0.169002 0 -0.985616
outer loop
vertex 5.64002 0.762 21.2008
vertex 5.64002 0 21.2008
vertex 5.26848 0.762 21.2645
endloop
endfacet
facet normal -0.169002 0 -0.985616
outer loop
vertex 5.26848 0.762 21.2645
vertex 5.64002 0 21.2008
vertex 5.26848 0 21.2645
endloop
endfacet
facet normal 0 0 -1
outer loop
vertex 5.26848 0.762 21.2645
vertex 5.26848 0 21.2645
vertex 4.89152 0.762 21.2645
endloop
endfacet
facet normal 0 0 -1
outer loop
vertex 4.89152 0.762 21.2645
vertex 5.26848 0 21.2645
vertex 4.89152 0 21.2645
endloop
endfacet
facet normal 0.169002 0 -0.985616
outer loop
vertex 4.89152 0.762 21.2645
vertex 4.89152 0 21.2645
vertex 4.51998 0.762 21.2008
endloop
endfacet
facet normal 0.169002 0 -0.985616
outer loop
vertex 4.51998 0.762 21.2008
vertex 4.89152 0 21.2645
vertex 4.51998 0 21.2008
endloop
endfacet
facet normal 0.333136 0 -0.942879
outer loop
vertex 4.51998 0.762 21.2008
vertex 4.51998 0 21.2008
vertex 4.16455 0.762 21.0752
endloop
endfacet
facet normal 0.333136 0 -0.942879
outer loop
vertex 4.16455 0.762 21.0752
vertex 4.51998 0 21.2008
vertex 4.16455 0 21.0752
endloop
endfacet
facet normal 0.487697 0 -0.873013
outer loop
vertex 4.16455 0.762 21.0752
vertex 4.16455 0 21.0752
vertex 3.83546 0.762 20.8914
endloop
endfacet
facet normal 0.487697 0 -0.873013
outer loop
vertex 3.83546 0.762 20.8914
vertex 4.16455 0 21.0752
vertex 3.83546 0 20.8914
endloop
endfacet
facet normal 0.628219 0 -0.778037
outer loop
vertex 3.83546 0.762 20.8914
vertex 3.83546 0 20.8914
vertex 3.54217 0.762 20.6545
endloop
endfacet
facet normal 0.628219 0 -0.778037
outer loop
vertex 3.54217 0.762 20.6545
vertex 3.83546 0 20.8914
vertex 3.54217 0 20.6545
endloop
endfacet
facet normal 0.750673 0 -0.660674
outer loop
vertex 3.54217 0.762 20.6545
vertex 3.54217 0 20.6545
vertex 3.29312 0.762 20.3716
endloop
endfacet
facet normal 0.750673 0 -0.660674
outer loop
vertex 3.29312 0.762 20.3716
vertex 3.54217 0 20.6545
vertex 3.29312 0 20.3716
endloop
endfacet
facet normal 0.85153 0 -0.524306
outer loop
vertex 3.29312 0.762 20.3716
vertex 3.29312 0 20.3716
vertex 3.09547 0.762 20.0506
endloop
endfacet
facet normal 0.85153 0 -0.524306
outer loop
vertex 3.09547 0.762 20.0506
vertex 3.29312 0 20.3716
vertex 3.09547 0 20.0506
endloop
endfacet
facet normal 0.927889 0 -0.372858
outer loop
vertex 3.09547 0.762 20.0506
vertex 3.09547 0 20.0506
vertex 2.95492 0.762 19.7008
endloop
endfacet
facet normal 0.927889 0 -0.372858
outer loop
vertex 2.95492 0.762 19.7008
vertex 3.09547 0 20.0506
vertex 2.95492 0 19.7008
endloop
endfacet
facet normal 0.977555 0 -0.210679
outer loop
vertex 2.95492 0.762 19.7008
vertex 2.95492 0 19.7008
vertex 2.8755 0.762 19.3323
endloop
endfacet
facet normal 0.977555 0 -0.210679
outer loop
vertex 2.8755 0.762 19.3323
vertex 2.95492 0 19.7008
vertex 2.8755 0 19.3323
endloop
endfacet
facet normal 0.999099 0 -0.0424402
outer loop
vertex 2.8755 0.762 19.3323
vertex 2.8755 0 19.3323
vertex 2.8595 0.762 18.9557
endloop
endfacet
facet normal 0.999099 0 -0.0424402
outer loop
vertex 2.8595 0.762 18.9557
vertex 2.8755 0 19.3323
vertex 2.8595 0 18.9557
endloop
endfacet
facet normal 0.991901 0 0.127016
outer loop
vertex 2.8595 0.762 18.9557
vertex 2.8595 0 18.9557
vertex 2.90738 0.762 18.5818
endloop
endfacet
facet normal 0.991901 0 0.127016
outer loop
vertex 2.90738 0.762 18.5818
vertex 2.8595 0 18.9557
vertex 2.90738 0 18.5818
endloop
endfacet
facet normal 0.956166 0 0.292824
outer loop
vertex 2.90738 0.762 18.5818
vertex 2.90738 0 18.5818
vertex 3.01777 0.762 18.2213
endloop
endfacet
facet normal 0.956166 0 0.292824
outer loop
vertex 3.01777 0.762 18.2213
vertex 2.90738 0 18.5818
vertex 3.01777 0 18.2213
endloop
endfacet
facet normal 0.892925 0 0.450204
outer loop
vertex 3.01777 0.762 18.2213
vertex 3.01777 0 18.2213
vertex 3.18748 0.762 17.8847
endloop
endfacet
facet normal 0.892925 0 0.450204
outer loop
vertex 3.18748 0.762 17.8847
vertex 3.01777 0 18.2213
vertex 3.18748 0 17.8847
endloop
endfacet
facet normal 0.803996 0 0.594635
outer loop
vertex 3.18748 0.762 17.8847
vertex 3.18748 0 17.8847
vertex 3.41163 0.762 17.5817
endloop
endfacet
facet normal 0.803996 0 0.594635
outer loop
vertex 3.41163 0.762 17.5817
vertex 3.18748 0 17.8847
vertex 3.41163 0 17.5817
endloop
endfacet
facet normal 0.69194 0 0.721955
outer loop
vertex 3.41163 0.762 17.5817
vertex 3.41163 0 17.5817
vertex 3.68378 0.762 17.3208
endloop
endfacet
facet normal 0.69194 0 0.721955
outer loop
vertex 3.68378 0.762 17.3208
vertex 3.41163 0 17.5817
vertex 3.68378 0 17.3208
endloop
endfacet
facet normal 0.559975 0 0.828509
outer loop
vertex 3.68378 0.762 17.3208
vertex 3.68378 0 17.3208
vertex 3.9961 0.762 17.1097
endloop
endfacet
facet normal 0.559975 0 0.828509
outer loop
vertex 3.9961 0.762 17.1097
vertex 3.68378 0 17.3208
vertex 3.9961 0 17.1097
endloop
endfacet
facet normal 0.411898 0 0.91123
outer loop
vertex 3.9961 0.762 17.1097
vertex 3.9961 0 17.1097
vertex 4.3396 0.762 16.9545
endloop
endfacet
facet normal 0.411898 0 0.91123
outer loop
vertex 4.3396 0.762 16.9545
vertex 3.9961 0 17.1097
vertex 4.3396 0 16.9545
endloop
endfacet
facet normal 0.251982 0 0.967732
outer loop
vertex 4.3396 0.762 16.9545
vertex 4.3396 0 16.9545
vertex 4.7044 0.762 16.8595
endloop
endfacet
facet normal 0.251982 0 0.967732
outer loop
vertex 4.7044 0.762 16.8595
vertex 4.3396 0 16.9545
vertex 4.7044 0 16.8595
endloop
endfacet
facet normal 0.0848071 0 0.996397
outer loop
vertex 4.7044 0.762 16.8595
vertex 4.7044 0 16.8595
vertex 5.08 0.762 16.8275
endloop
endfacet
facet normal 0.0848071 0 0.996397
outer loop
vertex 5.08 0.762 16.8275
vertex 4.7044 0 16.8595
vertex 5.08 0 16.8275
endloop
endfacet
facet normal -0.0848071 0 0.996397
outer loop
vertex 5.08 0.762 16.8275
vertex 5.08 0 16.8275
vertex 5.4556 0.762 16.8595
endloop
endfacet
facet normal -0.0848071 0 0.996397
outer loop
vertex 5.4556 0.762 16.8595
vertex 5.08 0 16.8275
vertex 5.4556 0 16.8595
endloop
endfacet
facet normal -0.251977 0 -0.967733
outer loop
vertex 5.4556 0 8.54053
vertex 5.4556 0.762 8.54053
vertex 5.8204 0 8.44555
endloop
endfacet
facet normal -0.251977 0 -0.967733
outer loop
vertex 5.8204 0 8.44555
vertex 5.4556 0.762 8.54053
vertex 5.8204 0.762 8.44555
endloop
endfacet
facet normal -0.411902 0 -0.911228
outer loop
vertex 5.8204 0 8.44555
vertex 5.8204 0.762 8.44555
vertex 6.1639 0 8.29027
endloop
endfacet
facet normal -0.411902 0 -0.911228
outer loop
vertex 6.1639 0 8.29027
vertex 5.8204 0.762 8.44555
vertex 6.1639 0.762 8.29027
endloop
endfacet
facet normal -0.559975 0 -0.82851
outer loop
vertex 6.1639 0 8.29027
vertex 6.1639 0.762 8.29027
vertex 6.47622 0 8.07918
endloop
endfacet
facet normal -0.559975 0 -0.82851
outer loop
vertex 6.47622 0 8.07918
vertex 6.1639 0.762 8.29027
vertex 6.47622 0.762 8.07918
endloop
endfacet
facet normal -0.691938 0 -0.721957
outer loop
vertex 6.47622 0 8.07918
vertex 6.47622 0.762 8.07918
vertex 6.74837 0 7.81835
endloop
endfacet
facet normal -0.691938 0 -0.721957
outer loop
vertex 6.74837 0 7.81835
vertex 6.47622 0.762 8.07918
vertex 6.74837 0.762 7.81835
endloop
endfacet
facet normal -0.803998 0 -0.594632
outer loop
vertex 6.74837 0 7.81835
vertex 6.74837 0.762 7.81835
vertex 6.97252 0 7.51527
endloop
endfacet
facet normal -0.803998 0 -0.594632
outer loop
vertex 6.97252 0 7.51527
vertex 6.74837 0.762 7.81835
vertex 6.97252 0.762 7.51527
endloop
endfacet
facet normal -0.892925 0 -0.450205
outer loop
vertex 6.97252 0 7.51527
vertex 6.97252 0.762 7.51527
vertex 7.14223 0 7.17867
endloop
endfacet
facet normal -0.892925 0 -0.450205
outer loop
vertex 7.14223 0 7.17867
vertex 6.97252 0.762 7.51527
vertex 7.14223 0.762 7.17867
endloop
endfacet
facet normal -0.956167 0 -0.292822
outer loop
vertex 7.14223 0 7.17867
vertex 7.14223 0.762 7.17867
vertex 7.25262 0 6.81823
endloop
endfacet
facet normal -0.956167 0 -0.292822
outer loop
vertex 7.25262 0 6.81823
vertex 7.14223 0.762 7.17867
vertex 7.25262 0.762 6.81823
endloop
endfacet
facet normal -0.991901 0 -0.127017
outer loop
vertex 7.25262 0 6.81823
vertex 7.25262 0.762 6.81823
vertex 7.3005 0 6.44433
endloop
endfacet
facet normal -0.991901 0 -0.127017
outer loop
vertex 7.3005 0 6.44433
vertex 7.25262 0.762 6.81823
vertex 7.3005 0.762 6.44433
endloop
endfacet
facet normal -0.999099 0 0.0424415
outer loop
vertex 7.3005 0 6.44433
vertex 7.3005 0.762 6.44433
vertex 7.2845 0 6.0677
endloop
endfacet
facet normal -0.999099 0 0.0424415
outer loop
vertex 7.2845 0 6.0677
vertex 7.3005 0.762 6.44433
vertex 7.2845 0.762 6.0677
endloop
endfacet
facet normal -0.977555 0 0.210679
outer loop
vertex 7.2845 0 6.0677
vertex 7.2845 0.762 6.0677
vertex 7.20508 0 5.6992
endloop
endfacet
facet normal -0.977555 0 0.210679
outer loop
vertex 7.20508 0 5.6992
vertex 7.2845 0.762 6.0677
vertex 7.20508 0.762 5.6992
endloop
endfacet
facet normal -0.927889 0 0.372856
outer loop
vertex 7.20508 0 5.6992
vertex 7.20508 0.762 5.6992
vertex 7.06453 0 5.34942
endloop
endfacet
facet normal -0.927889 0 0.372856
outer loop
vertex 7.06453 0 5.34942
vertex 7.20508 0.762 5.6992
vertex 7.06453 0.762 5.34942
endloop
endfacet
facet normal -0.851529 0 0.524307
outer loop
vertex 7.06453 0 5.34942
vertex 7.06453 0.762 5.34942
vertex 6.86688 0 5.02843
endloop
endfacet
facet normal -0.851529 0 0.524307
outer loop
vertex 6.86688 0 5.02843
vertex 7.06453 0.762 5.34942
vertex 6.86688 0.762 5.02843
endloop
endfacet
facet normal -0.750672 0 0.660676
outer loop
vertex 6.86688 0 5.02843
vertex 6.86688 0.762 5.02843
vertex 6.61783 0 4.74545
endloop
endfacet
facet normal -0.750672 0 0.660676
outer loop
vertex 6.61783 0 4.74545
vertex 6.86688 0.762 5.02843
vertex 6.61783 0.762 4.74545
endloop
endfacet
facet normal -0.62822 0 0.778035
outer loop
vertex 6.61783 0 4.74545
vertex 6.61783 0.762 4.74545
vertex 6.32454 0 4.50864
endloop
endfacet
facet normal -0.62822 0 0.778035
outer loop
vertex 6.32454 0 4.50864
vertex 6.61783 0.762 4.74545
vertex 6.32454 0.762 4.50864
endloop
endfacet
facet normal -0.487695 0 0.873014
outer loop
vertex 6.32454 0 4.50864
vertex 6.32454 0.762 4.50864
vertex 5.99545 0 4.32479
endloop
endfacet
facet normal -0.487695 0 0.873014
outer loop
vertex 5.99545 0 4.32479
vertex 6.32454 0.762 4.50864
vertex 5.99545 0.762 4.32479
endloop
endfacet
facet normal -0.33314 0 0.942877
outer loop
vertex 5.99545 0 4.32479
vertex 5.99545 0.762 4.32479
vertex 5.64002 0 4.19921
endloop
endfacet
facet normal -0.33314 0 0.942877
outer loop
vertex 5.64002 0 4.19921
vertex 5.99545 0.762 4.32479
vertex 5.64002 0.762 4.19921
endloop
endfacet
facet normal -0.169001 0 0.985616
outer loop
vertex 5.64002 0 4.19921
vertex 5.64002 0.762 4.19921
vertex 5.26848 0 4.13551
endloop
endfacet
facet normal -0.169001 0 0.985616
outer loop
vertex 5.26848 0 4.13551
vertex 5.64002 0.762 4.19921
vertex 5.26848 0.762 4.13551
endloop
endfacet
facet normal 0 0 1
outer loop
vertex 5.26848 0 4.13551
vertex 5.26848 0.762 4.13551
vertex 4.89152 0 4.13551
endloop
endfacet
facet normal 0 0 1
outer loop
vertex 4.89152 0 4.13551
vertex 5.26848 0.762 4.13551
vertex 4.89152 0.762 4.13551
endloop
endfacet
facet normal 0.169001 0 0.985616
outer loop
vertex 4.89152 0 4.13551
vertex 4.89152 0.762 4.13551
vertex 4.51998 0 4.19921
endloop
endfacet
facet normal 0.169001 0 0.985616
outer loop
vertex 4.51998 0 4.19921
vertex 4.89152 0.762 4.13551
vertex 4.51998 0.762 4.19921
endloop
endfacet
facet normal 0.33314 0 0.942877
outer loop
vertex 4.51998 0 4.19921
vertex 4.51998 0.762 4.19921
vertex 4.16455 0 4.32479
endloop
endfacet
facet normal 0.33314 0 0.942877
outer loop
vertex 4.16455 0 4.32479
vertex 4.51998 0.762 4.19921
vertex 4.16455 0.762 4.32479
endloop
endfacet
facet normal 0.487696 0 0.873014
outer loop
vertex 4.16455 0 4.32479
vertex 4.16455 0.762 4.32479
vertex 3.83546 0 4.50864
endloop
endfacet
facet normal 0.487696 0 0.873014
outer loop
vertex 3.83546 0 4.50864
vertex 4.16455 0.762 4.32479
vertex 3.83546 0.762 4.50864
endloop
endfacet
facet normal 0.62822 0 0.778035
outer loop
vertex 3.83546 0 4.50864
vertex 3.83546 0.762 4.50864
vertex 3.54217 0 4.74545
endloop
endfacet
facet normal 0.62822 0 0.778035
outer loop
vertex 3.54217 0 4.74545
vertex 3.83546 0.762 4.50864
vertex 3.54217 0.762 4.74545
endloop
endfacet
facet normal 0.750672 0 0.660676
outer loop
vertex 3.54217 0 4.74545
vertex 3.54217 0.762 4.74545
vertex 3.29312 0 5.02843
endloop
endfacet
facet normal 0.750672 0 0.660676
outer loop
vertex 3.29312 0 5.02843
vertex 3.54217 0.762 4.74545
vertex 3.29312 0.762 5.02843
endloop
endfacet
facet normal 0.851529 0 0.524307
outer loop
vertex 3.29312 0 5.02843
vertex 3.29312 0.762 5.02843
vertex 3.09547 0 5.34942
endloop
endfacet
facet normal 0.851529 0 0.524307
outer loop
vertex 3.09547 0 5.34942
vertex 3.29312 0.762 5.02843
vertex 3.09547 0.762 5.34942
endloop
endfacet
facet normal 0.927889 0 0.372856
outer loop
vertex 3.09547 0 5.34942
vertex 3.09547 0.762 5.34942
vertex 2.95492 0 5.6992
endloop
endfacet
facet normal 0.927889 0 0.372856
outer loop
vertex 2.95492 0 5.6992
vertex 3.09547 0.762 5.34942
vertex 2.95492 0.762 5.6992
endloop
endfacet
facet normal 0.977555 0 0.21068
outer loop
vertex 2.95492 0 5.6992
vertex 2.95492 0.762 5.6992
vertex 2.8755 0 6.0677
endloop
endfacet
facet normal 0.977555 0 0.21068
outer loop
vertex 2.8755 0 6.0677
vertex 2.95492 0.762 5.6992
vertex 2.8755 0.762 6.0677
endloop
endfacet
facet normal 0.999099 0 0.0424403
outer loop
vertex 2.8755 0 6.0677
vertex 2.8755 0.762 6.0677
vertex 2.8595 0 6.44433
endloop
endfacet
facet normal 0.999099 0 0.0424403
outer loop
vertex 2.8595 0 6.44433
vertex 2.8755 0.762 6.0677
vertex 2.8595 0.762 6.44433
endloop
endfacet
facet normal 0.991901 0 -0.127016
outer loop
vertex 2.8595 0 6.44433
vertex 2.8595 0.762 6.44433
vertex 2.90738 0 6.81823
endloop
endfacet
facet normal 0.991901 0 -0.127016
outer loop
vertex 2.90738 0 6.81823
vertex 2.8595 0.762 6.44433
vertex 2.90738 0.762 6.81823
endloop
endfacet
facet normal 0.956167 0 -0.292823
outer loop
vertex 2.90738 0 6.81823
vertex 2.90738 0.762 6.81823
vertex 3.01777 0 7.17867
endloop
endfacet
facet normal 0.956167 0 -0.292823
outer loop
vertex 3.01777 0 7.17867
vertex 2.90738 0.762 6.81823
vertex 3.01777 0.762 7.17867
endloop
endfacet
facet normal 0.892925 0 -0.450204
outer loop
vertex 3.01777 0 7.17867
vertex 3.01777 0.762 7.17867
vertex 3.18748 0 7.51527
endloop
endfacet
facet normal 0.892925 0 -0.450204
outer loop
vertex 3.18748 0 7.51527
vertex 3.01777 0.762 7.17867
vertex 3.18748 0.762 7.51527
endloop
endfacet
facet normal 0.803997 0 -0.594633
outer loop
vertex 3.18748 0 7.51527
vertex 3.18748 0.762 7.51527
vertex 3.41163 0 7.81835
endloop
endfacet
facet normal 0.803997 0 -0.594633
outer loop
vertex 3.41163 0 7.81835
vertex 3.18748 0.762 7.51527
vertex 3.41163 0.762 7.81835
endloop
endfacet
facet normal 0.691939 0 -0.721956
outer loop
vertex 3.41163 0 7.81835
vertex 3.41163 0.762 7.81835
vertex 3.68378 0 8.07918
endloop
endfacet
facet normal 0.691939 0 -0.721956
outer loop
vertex 3.68378 0 8.07918
vertex 3.41163 0.762 7.81835
vertex 3.68378 0.762 8.07918
endloop
endfacet
facet normal 0.559974 0 -0.82851
outer loop
vertex 3.68378 0 8.07918
vertex 3.68378 0.762 8.07918
vertex 3.9961 0 8.29027
endloop
endfacet
facet normal 0.559974 0 -0.82851
outer loop
vertex 3.9961 0 8.29027
vertex 3.68378 0.762 8.07918
vertex 3.9961 0.762 8.29027
endloop
endfacet
facet normal 0.411902 0 -0.911228
outer loop
vertex 3.9961 0 8.29027
vertex 3.9961 0.762 8.29027
vertex 4.3396 0 8.44555
endloop
endfacet
facet normal 0.411902 0 -0.911228
outer loop
vertex 4.3396 0 8.44555
vertex 3.9961 0.762 8.29027
vertex 4.3396 0.762 8.44555
endloop
endfacet
facet normal 0.251977 0 -0.967733
outer loop
vertex 4.3396 0 8.44555
vertex 4.3396 0.762 8.44555
vertex 4.7044 0 8.54053
endloop
endfacet
facet normal 0.251977 0 -0.967733
outer loop
vertex 4.7044 0 8.54053
vertex 4.3396 0.762 8.44555
vertex 4.7044 0.762 8.54053
endloop
endfacet
facet normal 0.0848071 0 -0.996397
outer loop
vertex 4.7044 0 8.54053
vertex 4.7044 0.762 8.54053
vertex 5.08 0 8.5725
endloop
endfacet
facet normal 0.0848071 0 -0.996397
outer loop
vertex 5.08 0 8.5725
vertex 4.7044 0.762 8.54053
vertex 5.08 0.762 8.5725
endloop
endfacet
facet normal -0.0848071 0 -0.996397
outer loop
vertex 5.08 0 8.5725
vertex 5.08 0.762 8.5725
vertex 5.4556 0 8.54053
endloop
endfacet
facet normal -0.0848071 0 -0.996397
outer loop
vertex 5.4556 0 8.54053
vertex 5.08 0.762 8.5725
vertex 5.4556 0.762 8.54053
endloop
endfacet
facet normal 0 -1 0
outer loop
vertex 3.175 0 25.4
vertex 50.8702 0 13.6155
vertex 51.054 0 13.9445
endloop
endfacet
facet normal 0 -1 0
outer loop
vertex 5.64002 0 21.2008
vertex 50.8702 0 11.7845
vertex 50.7446 0 12.14
endloop
endfacet
facet normal 0 -1 0
outer loop
vertex 57.82 0 23.2061
vertex 57.6293 0 23.6664
vertex 57.369 0 24.0912
endloop
endfacet
facet normal 0 -1 0
outer loop
vertex 55.0859 0 12.3244
vertex 54.9909 0 11.9596
vertex 57.9754 0 3.175
endloop
endfacet
facet normal 0 -1 0
outer loop
vertex 57.9754 0 3.175
vertex 54.9909 0 11.9596
vertex 54.8357 0 11.6161
endloop
endfacet
facet normal 0 -1 0
outer loop
vertex 57.9754 0 3.175
vertex 54.8357 0 11.6161
vertex 54.6246 0 11.3038
endloop
endfacet
facet normal 0 -1 0
outer loop
vertex 57.6293 0 1.73358
vertex 57.82 0 2.19387
vertex 57.9363 0 2.67832
endloop
endfacet
facet normal 0 -1 0
outer loop
vertex 52.6131 0 10.4955
vertex 54.8004 0 4.1314e-015
vertex 52.9897 0 10.4795
endloop
endfacet
facet normal 0 -1 0
outer loop
vertex 52.9897 0 10.4795
vertex 54.8004 0 4.1314e-015
vertex 55.2971 0 0.0390895
endloop
endfacet
facet normal 0 -1 0
outer loop
vertex 52.9897 0 10.4795
vertex 55.2971 0 0.0390895
vertex 53.3636 0 10.5274
endloop
endfacet
facet normal 0 -1 0
outer loop
vertex 53.3636 0 10.5274
vertex 55.2971 0 0.0390895
vertex 55.7815 0 0.155396
endloop
endfacet
facet normal 0 -1 0
outer loop
vertex 53.3636 0 10.5274
vertex 55.7815 0 0.155396
vertex 56.2418 0 0.346054
endloop
endfacet
facet normal 0 -1 0
outer loop
vertex 5.64002 0 4.19921
vertex 5.26848 0 4.13551
vertex 3.175 0 0
endloop
endfacet
facet normal 0 -1 0
outer loop
vertex 5.8204 0 8.44555
vertex 6.1639 0 8.29027
vertex 5.4556 0 16.8595
endloop
endfacet
facet normal 0 -1 0
outer loop
vertex 5.4556 0 16.8595
vertex 6.1639 0 8.29027
vertex 6.47622 0 8.07918
endloop
endfacet
facet normal 0 -1 0
outer loop
vertex 5.4556 0 16.8595
vertex 6.47622 0 8.07918
vertex 6.74837 0 7.81835
endloop
endfacet
facet normal 0 -1 0
outer loop
vertex 54.6246 0 11.3038
vertex 54.3637 0 11.0316
vertex 57.9754 0 3.175
endloop
endfacet
facet normal 0 -1 0
outer loop
vertex 57.9754 0 3.175
vertex 54.3637 0 11.0316
vertex 54.0607 0 10.8075
endloop
endfacet
facet normal 0 -1 0
outer loop
vertex 57.9754 0 3.175
vertex 54.0607 0 10.8075
vertex 57.9363 0 2.67832
endloop
endfacet
facet normal 0 -1 0
outer loop
vertex 57.9363 0 2.67832
vertex 54.0607 0 10.8075
vertex 53.7241 0 10.6378
endloop
endfacet
facet normal 0 -1 0
outer loop
vertex 57.9363 0 2.67832
vertex 53.7241 0 10.6378
vertex 57.6293 0 1.73358
endloop
endfacet
facet normal 0 -1 0
outer loop
vertex 56.2418 0 0.346054
vertex 56.6666 0 0.606371
vertex 53.3636 0 10.5274
endloop
endfacet
facet normal 0 -1 0
outer loop
vertex 53.3636 0 10.5274
vertex 56.6666 0 0.606371
vertex 57.0455 0 0.929936
endloop
endfacet
facet normal 0 -1 0
outer loop
vertex 53.3636 0 10.5274
vertex 57.0455 0 0.929936
vertex 53.7241 0 10.6378
endloop
endfacet
facet normal 0 -1 0
outer loop
vertex 53.7241 0 10.6378
vertex 57.0455 0 0.929936
vertex 57.369 0 1.30878
endloop
endfacet
facet normal 0 -1 0
outer loop
vertex 53.7241 0 10.6378
vertex 57.369 0 1.30878
vertex 57.6293 0 1.73358
endloop
endfacet
facet normal 0 -1 0
outer loop
vertex 52.6131 0 10.4955
vertex 52.2446 0 10.5749
vertex 54.8004 0 4.1314e-015
endloop
endfacet
facet normal 0 -1 0
outer loop
vertex 54.8004 0 4.1314e-015
vertex 52.2446 0 10.5749
vertex 51.8948 0 10.7155
endloop
endfacet
facet normal 0 -1 0
outer loop
vertex 54.8004 0 4.1314e-015
vertex 51.8948 0 10.7155
vertex 3.175 0 0
endloop
endfacet
facet normal 0 -1 0
outer loop
vertex 3.175 0 0
vertex 51.8948 0 10.7155
vertex 51.5738 0 10.9131
endloop
endfacet
facet normal 0 -1 0
outer loop
vertex 3.175 0 0
vertex 51.5738 0 10.9131
vertex 51.2908 0 11.1622
endloop
endfacet
facet normal 0 -1 0
outer loop
vertex 6.1639 0 17.1097
vertex 5.8204 0 16.9545
vertex 7.14223 0 7.17867
endloop
endfacet
facet normal 0 -1 0
outer loop
vertex 7.14223 0 7.17867
vertex 5.8204 0 16.9545
vertex 5.4556 0 16.8595
endloop
endfacet
facet normal 0 -1 0
outer loop
vertex 7.14223 0 7.17867
vertex 5.4556 0 16.8595
vertex 6.97252 0 7.51527
endloop
endfacet
facet normal 0 -1 0
outer loop
vertex 6.97252 0 7.51527
vertex 5.4556 0 16.8595
vertex 6.74837 0 7.81835
endloop
endfacet
facet normal 0 -1 0
outer loop
vertex 54.8357 0 13.7839
vertex 57.9754 0 22.225
vertex 54.6246 0 14.0962
endloop
endfacet
facet normal 0 -1 0
outer loop
vertex 54.6246 0 14.0962
vertex 57.9754 0 22.225
vertex 54.3637 0 14.3684
endloop
endfacet
facet normal 0 -1 0
outer loop
vertex 54.8357 0 13.7839
vertex 54.9909 0 13.4404
vertex 57.9754 0 22.225
endloop
endfacet
facet normal 0 -1 0
outer loop
vertex 57.9754 0 22.225
vertex 54.9909 0 13.4404
vertex 55.0859 0 13.0756
endloop
endfacet
facet normal 0 -1 0
outer loop
vertex 57.9754 0 22.225
vertex 55.0859 0 13.0756
vertex 57.9754 0 3.175
endloop
endfacet
facet normal 0 -1 0
outer loop
vertex 57.9754 0 3.175
vertex 55.0859 0 13.0756
vertex 55.1179 0 12.7
endloop
endfacet
facet normal 0 -1 0
outer loop
vertex 57.9754 0 3.175
vertex 55.1179 0 12.7
vertex 55.0859 0 12.3244
endloop
endfacet
facet normal 0 -1 0
outer loop
vertex 3.29312 0 5.02843
vertex 3.09547 0 5.34942
vertex 0 0 3.175
endloop
endfacet
facet normal 0 -1 0
outer loop
vertex 0 0 3.175
vertex 3.09547 0 5.34942
vertex 2.95492 0 5.6992
endloop
endfacet
facet normal 0 -1 0
outer loop
vertex 0 0 3.175
vertex 2.95492 0 5.6992
vertex 2.8755 0 6.0677
endloop
endfacet
facet normal 0 -1 0
outer loop
vertex 2.8755 0 6.0677
vertex 2.8595 0 6.44433
vertex 0 0 3.175
endloop
endfacet
facet normal 0 -1 0
outer loop
vertex 0 0 3.175
vertex 2.8595 0 6.44433
vertex 2.90738 0 6.81823
endloop
endfacet
facet normal 0 -1 0
outer loop
vertex 0 0 3.175
vertex 2.90738 0 6.81823
vertex 0 0 22.225
endloop
endfacet
facet normal 0 -1 0
outer loop
vertex 0 0 22.225
vertex 2.90738 0 6.81823
vertex 3.01777 0 7.17867
endloop
endfacet
facet normal 0 -1 0
outer loop
vertex 0 0 22.225
vertex 3.01777 0 7.17867
vertex 3.18748 0 7.51527
endloop
endfacet
facet normal 0 -1 0
outer loop
vertex 2.8595 0 18.9557
vertex 2.8755 0 19.3323
vertex 0 0 22.225
endloop
endfacet
facet normal 0 -1 0
outer loop
vertex 6.61783 0 20.6545
vertex 6.86688 0 20.3716
vertex 51.2908 0 11.1622
endloop
endfacet
facet normal 0 -1 0
outer loop
vertex 51.2908 0 11.1622
vertex 6.86688 0 20.3716
vertex 7.06453 0 20.0506
endloop
endfacet
facet normal 0 -1 0
outer loop
vertex 3.18748 0 7.51527
vertex 3.41163 0 7.81835
vertex 0 0 22.225
endloop
endfacet
facet normal 0 -1 0
outer loop
vertex 0 0 22.225
vertex 3.41163 0 7.81835
vertex 3.68378 0 8.07918
endloop
endfacet
facet normal 0 -1 0
outer loop
vertex 0 0 22.225
vertex 3.68378 0 8.07918
vertex 3.9961 0 8.29027
endloop
endfacet
facet normal 0 -1 0
outer loop
vertex 4.7044 0 16.8595
vertex 4.3396 0 16.9545
vertex 3.9961 0 8.29027
endloop
endfacet
facet normal 0 -1 0
outer loop
vertex 3.175 0 25.4
vertex 2.67832 0 25.3609
vertex 4.51998 0 21.2008
endloop
endfacet
facet normal 0 -1 0
outer loop
vertex 4.51998 0 21.2008
vertex 2.67832 0 25.3609
vertex 4.16455 0 21.0752
endloop
endfacet
facet normal 0 -1 0
outer loop
vertex 51.054 0 13.9445
vertex 51.2908 0 14.2378
vertex 3.175 0 25.4
endloop
endfacet
facet normal 0 -1 0
outer loop
vertex 3.175 0 25.4
vertex 51.2908 0 14.2378
vertex 51.5738 0 14.4869
endloop
endfacet
facet normal 0 -1 0
outer loop
vertex 3.175 0 25.4
vertex 51.5738 0 14.4869
vertex 54.8004 0 25.4
endloop
endfacet
facet normal 0 -1 0
outer loop
vertex 54.8004 0 25.4
vertex 51.5738 0 14.4869
vertex 51.8948 0 14.6845
endloop
endfacet
facet normal 0 -1 0
outer loop
vertex 54.8004 0 25.4
vertex 51.8948 0 14.6845
vertex 52.2446 0 14.8251
endloop
endfacet
facet normal 0 -1 0
outer loop
vertex 57.9363 0 22.7217
vertex 53.7241 0 14.7622
vertex 57.9754 0 22.225
endloop
endfacet
facet normal 0 -1 0
outer loop
vertex 57.9754 0 22.225
vertex 53.7241 0 14.7622
vertex 54.0607 0 14.5925
endloop
endfacet
facet normal 0 -1 0
outer loop
vertex 57.9754 0 22.225
vertex 54.0607 0 14.5925
vertex 54.3637 0 14.3684
endloop
endfacet
facet normal 0 -1 0
outer loop
vertex 50.8702 0 11.7845
vertex 5.64002 0 21.2008
vertex 51.054 0 11.4555
endloop
endfacet
facet normal 0 -1 0
outer loop
vertex 51.054 0 11.4555
vertex 5.64002 0 21.2008
vertex 5.99545 0 21.0752
endloop
endfacet
facet normal 0 -1 0
outer loop
vertex 51.054 0 11.4555
vertex 5.99545 0 21.0752
vertex 51.2908 0 11.1622
endloop
endfacet
facet normal 0 -1 0
outer loop
vertex 51.2908 0 11.1622
vertex 5.99545 0 21.0752
vertex 6.32454 0 20.8914
endloop
endfacet
facet normal 0 -1 0
outer loop
vertex 51.2908 0 11.1622
vertex 6.32454 0 20.8914
vertex 6.61783 0 20.6545
endloop
endfacet
facet normal 0 -1 0
outer loop
vertex 7.06453 0 20.0506
vertex 7.20508 0 19.7008
vertex 51.2908 0 11.1622
endloop
endfacet
facet normal 0 -1 0
outer loop
vertex 51.2908 0 11.1622
vertex 7.20508 0 19.7008
vertex 7.2845 0 19.3323
endloop
endfacet
facet normal 0 -1 0
outer loop
vertex 51.2908 0 11.1622
vertex 7.2845 0 19.3323
vertex 7.3005 0 18.9557
endloop
endfacet
facet normal 0 -1 0
outer loop
vertex 7.3005 0 18.9557
vertex 7.25262 0 18.5818
vertex 51.2908 0 11.1622
endloop
endfacet
facet normal 0 -1 0
outer loop
vertex 51.2908 0 11.1622
vertex 7.25262 0 18.5818
vertex 7.14223 0 18.2213
endloop
endfacet
facet normal 0 -1 0
outer loop
vertex 51.2908 0 11.1622
vertex 7.14223 0 18.2213
vertex 6.97252 0 17.8847
endloop
endfacet
facet normal 0 -1 0
outer loop
vertex 5.26848 0 4.13551
vertex 4.89152 0 4.13551
vertex 3.175 0 0
endloop
endfacet
facet normal 0 -1 0
outer loop
vertex 3.175 0 0
vertex 4.89152 0 4.13551
vertex 4.51998 0 4.19921
endloop
endfacet
facet normal 0 -1 0
outer loop
vertex 3.175 0 0
vertex 4.51998 0 4.19921
vertex 2.67832 0 0.0390895
endloop
endfacet
facet normal 0 -1 0
outer loop
vertex 2.67832 0 0.0390895
vertex 4.51998 0 4.19921
vertex 4.16455 0 4.32479
endloop
endfacet
facet normal 0 -1 0
outer loop
vertex 2.67832 0 0.0390895
vertex 4.16455 0 4.32479
vertex 2.19387 0 0.155396
endloop
endfacet
facet normal 0 -1 0
outer loop
vertex 2.19387 0 0.155396
vertex 4.16455 0 4.32479
vertex 1.73358 0 0.346054
endloop
endfacet
facet normal 0 -1 0
outer loop
vertex 1.73358 0 0.346054
vertex 4.16455 0 4.32479
vertex 3.83546 0 4.50864
endloop
endfacet
facet normal 0 -1 0
outer loop
vertex 1.73358 0 0.346054
vertex 3.83546 0 4.50864
vertex 1.30878 0 0.606371
endloop
endfacet
facet normal 0 -1 0
outer loop
vertex 0.929936 0 0.929936
vertex 1.30878 0 0.606371
vertex 0.606371 0 1.30878
endloop
endfacet
facet normal 0 -1 0
outer loop
vertex 0.606371 0 1.30878
vertex 1.30878 0 0.606371
vertex 3.83546 0 4.50864
endloop
endfacet
facet normal 0 -1 0
outer loop
vertex 0.606371 0 1.30878
vertex 3.83546 0 4.50864
vertex 0.346054 0 1.73358
endloop
endfacet
facet normal 0 -1 0
outer loop
vertex 0.346054 0 1.73358
vertex 3.83546 0 4.50864
vertex 3.54217 0 4.74545
endloop
endfacet
facet normal 0 -1 0
outer loop
vertex 0.346054 0 1.73358
vertex 3.54217 0 4.74545
vertex 0.155396 0 2.19387
endloop
endfacet
facet normal 0 -1 0
outer loop
vertex 0.155396 0 2.19387
vertex 3.54217 0 4.74545
vertex 3.29312 0 5.02843
endloop
endfacet
facet normal 0 -1 0
outer loop
vertex 0.155396 0 2.19387
vertex 3.29312 0 5.02843
vertex 0.0390895 0 2.67832
endloop
endfacet
facet normal 0 -1 0
outer loop
vertex 0.0390895 0 2.67832
vertex 3.29312 0 5.02843
vertex 0 0 3.175
endloop
endfacet
facet normal 0 -1 0
outer loop
vertex 2.8755 0 19.3323
vertex 2.95492 0 19.7008
vertex 0 0 22.225
endloop
endfacet
facet normal 0 -1 0
outer loop
vertex 0 0 22.225
vertex 2.95492 0 19.7008
vertex 3.09547 0 20.0506
endloop
endfacet
facet normal 0 -1 0
outer loop
vertex 0 0 22.225
vertex 3.09547 0 20.0506
vertex 0.0390895 0 22.7217
endloop
endfacet
facet normal 0 -1 0
outer loop
vertex 0.0390895 0 22.7217
vertex 3.09547 0 20.0506
vertex 3.29312 0 20.3716
endloop
endfacet
facet normal 0 -1 0
outer loop
vertex 0.0390895 0 22.7217
vertex 3.29312 0 20.3716
vertex 0.155396 0 23.2061
endloop
endfacet
facet normal 0 -1 0
outer loop
vertex 0.155396 0 23.2061
vertex 3.29312 0 20.3716
vertex 3.54217 0 20.6545
endloop
endfacet
facet normal 0 -1 0
outer loop
vertex 1.30878 0 24.7936
vertex 3.83546 0 20.8914
vertex 1.73358 0 25.0539
endloop
endfacet
facet normal 0 -1 0
outer loop
vertex 1.73358 0 25.0539
vertex 3.83546 0 20.8914
vertex 4.16455 0 21.0752
endloop
endfacet
facet normal 0 -1 0
outer loop
vertex 1.73358 0 25.0539
vertex 4.16455 0 21.0752
vertex 2.19387 0 25.2446
endloop
endfacet
facet normal 0 -1 0
outer loop
vertex 2.19387 0 25.2446
vertex 4.16455 0 21.0752
vertex 2.67832 0 25.3609
endloop
endfacet
facet normal 0 -1 0
outer loop
vertex 52.2446 0 14.8251
vertex 52.6131 0 14.9045
vertex 54.8004 0 25.4
endloop
endfacet
facet normal 0 -1 0
outer loop
vertex 54.8004 0 25.4
vertex 52.6131 0 14.9045
vertex 52.9897 0 14.9205
endloop
endfacet
facet normal 0 -1 0
outer loop
vertex 54.8004 0 25.4
vertex 52.9897 0 14.9205
vertex 55.2971 0 25.3609
endloop
endfacet
facet normal 0 -1 0
outer loop
vertex 55.2971 0 25.3609
vertex 52.9897 0 14.9205
vertex 53.3636 0 14.8726
endloop
endfacet
facet normal 0 -1 0
outer loop
vertex 55.2971 0 25.3609
vertex 53.3636 0 14.8726
vertex 55.7815 0 25.2446
endloop
endfacet
facet normal 0 -1 0
outer loop
vertex 55.7815 0 25.2446
vertex 53.3636 0 14.8726
vertex 56.6666 0 24.7936
endloop
endfacet
facet normal 0 -1 0
outer loop
vertex 55.7815 0 25.2446
vertex 56.6666 0 24.7936
vertex 56.2418 0 25.0539
endloop
endfacet
facet normal 0 -1 0
outer loop
vertex 57.9363 0 22.7217
vertex 57.82 0 23.2061
vertex 53.7241 0 14.7622
endloop
endfacet
facet normal 0 -1 0
outer loop
vertex 53.7241 0 14.7622
vertex 57.82 0 23.2061
vertex 57.369 0 24.0912
endloop
endfacet
facet normal 0 -1 0
outer loop
vertex 53.7241 0 14.7622
vertex 57.369 0 24.0912
vertex 53.3636 0 14.8726
endloop
endfacet
facet normal 0 -1 0
outer loop
vertex 53.3636 0 14.8726
vertex 57.369 0 24.0912
vertex 57.0455 0 24.4701
endloop
endfacet
facet normal 0 -1 0
outer loop
vertex 53.3636 0 14.8726
vertex 57.0455 0 24.4701
vertex 56.6666 0 24.7936
endloop
endfacet
facet normal 0 -1 0
outer loop
vertex 7.06453 0 5.34942
vertex 6.86688 0 5.02843
vertex 51.2908 0 11.1622
endloop
endfacet
facet normal 0 -1 0
outer loop
vertex 6.86688 0 5.02843
vertex 6.61783 0 4.74545
vertex 51.2908 0 11.1622
endloop
endfacet
facet normal 0 -1 0
outer loop
vertex 51.2908 0 11.1622
vertex 6.61783 0 4.74545
vertex 6.32454 0 4.50864
endloop
endfacet
facet normal 0 -1 0
outer loop
vertex 51.2908 0 11.1622
vertex 6.32454 0 4.50864
vertex 3.175 0 0
endloop
endfacet
facet normal 0 -1 0
outer loop
vertex 3.175 0 0
vertex 6.32454 0 4.50864
vertex 5.99545 0 4.32479
endloop
endfacet
facet normal 0 -1 0
outer loop
vertex 3.175 0 0
vertex 5.99545 0 4.32479
vertex 5.64002 0 4.19921
endloop
endfacet
facet normal 0 -1 0
outer loop
vertex 4.51998 0 21.2008
vertex 4.89152 0 21.2645
vertex 3.175 0 25.4
endloop
endfacet
facet normal 0 -1 0
outer loop
vertex 3.175 0 25.4
vertex 4.89152 0 21.2645
vertex 5.26848 0 21.2645
endloop
endfacet
facet normal 0 -1 0
outer loop
vertex 3.175 0 25.4
vertex 5.26848 0 21.2645
vertex 5.64002 0 21.2008
endloop
endfacet
facet normal 0 -1 0
outer loop
vertex 1.30878 0 24.7936
vertex 0.929936 0 24.4701
vertex 3.83546 0 20.8914
endloop
endfacet
facet normal 0 -1 0
outer loop
vertex 3.83546 0 20.8914
vertex 0.929936 0 24.4701
vertex 0.606371 0 24.0912
endloop
endfacet
facet normal 0 -1 0
outer loop
vertex 3.83546 0 20.8914
vertex 0.606371 0 24.0912
vertex 3.54217 0 20.6545
endloop
endfacet
facet normal 0 -1 0
outer loop
vertex 3.54217 0 20.6545
vertex 0.606371 0 24.0912
vertex 0.346054 0 23.6664
endloop
endfacet
facet normal 0 -1 0
outer loop
vertex 3.54217 0 20.6545
vertex 0.346054 0 23.6664
vertex 0.155396 0 23.2061
endloop
endfacet
facet normal 0 -1 0
outer loop
vertex 50.7446 0 12.14
vertex 50.6809 0 12.5115
vertex 5.64002 0 21.2008
endloop
endfacet
facet normal 0 -1 0
outer loop
vertex 5.64002 0 21.2008
vertex 50.6809 0 12.5115
vertex 50.6809 0 12.8885
endloop
endfacet
facet normal 0 -1 0
outer loop
vertex 5.64002 0 21.2008
vertex 50.6809 0 12.8885
vertex 3.175 0 25.4
endloop
endfacet
facet normal 0 -1 0
outer loop
vertex 3.175 0 25.4
vertex 50.6809 0 12.8885
vertex 50.7446 0 13.26
endloop
endfacet
facet normal 0 -1 0
outer loop
vertex 3.175 0 25.4
vertex 50.7446 0 13.26
vertex 50.8702 0 13.6155
endloop
endfacet
facet normal 0 -1 0
outer loop
vertex 7.3005 0 6.44433
vertex 7.2845 0 6.0677
vertex 51.2908 0 11.1622
endloop
endfacet
facet normal 0 -1 0
outer loop
vertex 51.2908 0 11.1622
vertex 7.2845 0 6.0677
vertex 7.20508 0 5.6992
endloop
endfacet
facet normal 0 -1 0
outer loop
vertex 51.2908 0 11.1622
vertex 7.20508 0 5.6992
vertex 7.06453 0 5.34942
endloop
endfacet
facet normal 0 -1 0
outer loop
vertex 3.9961 0 8.29027
vertex 4.3396 0 8.44555
vertex 4.7044 0 16.8595
endloop
endfacet
facet normal 0 -1 0
outer loop
vertex 4.7044 0 16.8595
vertex 4.3396 0 8.44555
vertex 4.7044 0 8.54053
endloop
endfacet
facet normal 0 -1 0
outer loop
vertex 4.7044 0 16.8595
vertex 4.7044 0 8.54053
vertex 5.08 0 16.8275
endloop
endfacet
facet normal 0 -1 0
outer loop
vertex 5.08 0 16.8275
vertex 4.7044 0 8.54053
vertex 5.08 0 8.5725
endloop
endfacet
facet normal 0 -1 0
outer loop
vertex 5.08 0 16.8275
vertex 5.08 0 8.5725
vertex 5.4556 0 16.8595
endloop
endfacet
facet normal 0 -1 0
outer loop
vertex 5.4556 0 16.8595
vertex 5.08 0 8.5725
vertex 5.4556 0 8.54053
endloop
endfacet
facet normal 0 -1 0
outer loop
vertex 5.4556 0 16.8595
vertex 5.4556 0 8.54053
vertex 5.8204 0 8.44555
endloop
endfacet
facet normal 0 -1 0
outer loop
vertex 4.3396 0 16.9545
vertex 3.9961 0 17.1097
vertex 3.9961 0 8.29027
endloop
endfacet
facet normal 0 -1 0
outer loop
vertex 3.9961 0 8.29027
vertex 3.9961 0 17.1097
vertex 3.68378 0 17.3208
endloop
endfacet
facet normal 0 -1 0
outer loop
vertex 3.9961 0 8.29027
vertex 3.68378 0 17.3208
vertex 3.41163 0 17.5817
endloop
endfacet
facet normal 0 -1 0
outer loop
vertex 3.41163 0 17.5817
vertex 3.18748 0 17.8847
vertex 3.9961 0 8.29027
endloop
endfacet
facet normal 0 -1 0
outer loop
vertex 3.9961 0 8.29027
vertex 3.18748 0 17.8847
vertex 3.01777 0 18.2213
endloop
endfacet
facet normal 0 -1 0
outer loop
vertex 3.9961 0 8.29027
vertex 3.01777 0 18.2213
vertex 0 0 22.225
endloop
endfacet
facet normal 0 -1 0
outer loop
vertex 0 0 22.225
vertex 3.01777 0 18.2213
vertex 2.90738 0 18.5818
endloop
endfacet
facet normal 0 -1 0
outer loop
vertex 0 0 22.225
vertex 2.90738 0 18.5818
vertex 2.8595 0 18.9557
endloop
endfacet
facet normal 0 -1 0
outer loop
vertex 7.14223 0 7.17867
vertex 7.25262 0 6.81823
vertex 6.1639 0 17.1097
endloop
endfacet
facet normal 0 -1 0
outer loop
vertex 6.1639 0 17.1097
vertex 7.25262 0 6.81823
vertex 7.3005 0 6.44433
endloop
endfacet
facet normal 0 -1 0
outer loop
vertex 6.1639 0 17.1097
vertex 7.3005 0 6.44433
vertex 6.47622 0 17.3208
endloop
endfacet
facet normal 0 -1 0
outer loop
vertex 6.47622 0 17.3208
vertex 7.3005 0 6.44433
vertex 51.2908 0 11.1622
endloop
endfacet
facet normal 0 -1 0
outer loop
vertex 6.47622 0 17.3208
vertex 51.2908 0 11.1622
vertex 6.74837 0 17.5817
endloop
endfacet
facet normal 0 -1 0
outer loop
vertex 6.74837 0 17.5817
vertex 51.2908 0 11.1622
vertex 6.97252 0 17.8847
endloop
endfacet
endsolid
