solid C:\Temp\NOELParts\GEAR32.STL created by CtrlView V2.70
facet normal 0 0 1
outer loop
vertex 112.732 34.0943 10.0001
vertex 116.152 43.4913 10.0001
vertex 104.039 37.2583 10.0001
endloop
endfacet
facet normal 0 0 1
outer loop
vertex 104.039 37.2583 10.0001
vertex 116.152 43.4913 10.0001
vertex 107.459 46.6552 10.0001
endloop
endfacet
facet normal 0 0 1
outer loop
vertex 72.5001 57.472 10.0001
vertex 100.324 30.8239 10.0001
vertex 107.459 46.6552 10.0001
endloop
endfacet
facet normal 0 0 1
outer loop
vertex 107.459 46.6552 10.0001
vertex 100.324 30.8239 10.0001
vertex 102.301 33.972 10.0001
endloop
endfacet
facet normal 0 0 1
outer loop
vertex 107.459 46.6552 10.0001
vertex 102.301 33.972 10.0001
vertex 104.039 37.2583 10.0001
endloop
endfacet
facet normal 0 0 1
outer loop
vertex 108.749 53.972 10.0001
vertex 118 53.972 10.0001
vertex 118 63.972 10.0001
endloop
endfacet
facet normal 0 0 1
outer loop
vertex 102.301 83.972 10.0001
vertex 100.324 87.1201 10.0001
vertex 104.039 80.6858 10.0001
endloop
endfacet
facet normal 0 0 1
outer loop
vertex 104.039 80.6858 10.0001
vertex 100.324 87.1201 10.0001
vertex 108.749 53.972 10.0001
endloop
endfacet
facet normal 0 0 1
outer loop
vertex 68.887 60.472 10.0001
vertex 72.5001 60.472 10.0001
vertex 68.4878 62.1317 10.0001
endloop
endfacet
facet normal 0 0 1
outer loop
vertex 68.4878 62.1317 10.0001
vertex 72.5001 60.472 10.0001
vertex 100.983 100.727 10.0001
endloop
endfacet
facet normal 0 0 1
outer loop
vertex 68.4878 62.1317 10.0001
vertex 100.983 100.727 10.0001
vertex 67.8121 63.6994 10.0001
endloop
endfacet
facet normal 0 0 1
outer loop
vertex 29.7953 99.5562 10.0001
vertex 26.8607 97.2742 10.0001
vertex 24.1038 23.1635 10.0001
endloop
endfacet
facet normal 0 0 1
outer loop
vertex 24.1038 23.1635 10.0001
vertex 26.8607 97.2742 10.0001
vertex 24.1038 94.7805 10.0001
endloop
endfacet
facet normal 0 0 1
outer loop
vertex 24.1038 94.7805 10.0001
vertex 17.0174 100.727 10.0001
vertex 10.5895 93.0662 10.0001
endloop
endfacet
facet normal 0 0 1
outer loop
vertex 107.411 93.0662 10.0001
vertex 100.983 100.727 10.0001
vertex 100.324 87.1201 10.0001
endloop
endfacet
facet normal 0 0 1
outer loop
vertex 100.324 87.1201 10.0001
vertex 100.983 100.727 10.0001
vertex 72.5001 60.472 10.0001
endloop
endfacet
facet normal 0 0 1
outer loop
vertex 100.324 87.1201 10.0001
vertex 72.5001 60.472 10.0001
vertex 108.749 53.972 10.0001
endloop
endfacet
facet normal 0 0 1
outer loop
vertex 108.749 53.972 10.0001
vertex 72.5001 60.472 10.0001
vertex 72.5001 57.472 10.0001
endloop
endfacet
facet normal 0 0 1
outer loop
vertex 108.749 53.972 10.0001
vertex 72.5001 57.472 10.0001
vertex 108.24 50.2896 10.0001
endloop
endfacet
facet normal 0 0 1
outer loop
vertex 108.24 50.2896 10.0001
vertex 72.5001 57.472 10.0001
vertex 107.459 46.6552 10.0001
endloop
endfacet
facet normal 0 0 1
outer loop
vertex 93.8964 94.7805 10.0001
vertex 56.1508 68.5575 10.0001
vertex 57.8227 68.9025 10.0001
endloop
endfacet
facet normal 0 0 1
outer loop
vertex 9.75972 67.6544 10.0001
vertex 9.25073 63.972 10.0001
vertex 24.1038 23.1635 10.0001
endloop
endfacet
facet normal 0 0 1
outer loop
vertex 116.152 74.4527 10.0001
vertex 112.732 83.8497 10.0001
vertex 107.459 71.2888 10.0001
endloop
endfacet
facet normal 0 0 1
outer loop
vertex 107.459 71.2888 10.0001
vertex 112.732 83.8497 10.0001
vertex 104.039 80.6858 10.0001
endloop
endfacet
facet normal 0 0 1
outer loop
vertex 107.459 71.2888 10.0001
vertex 104.039 80.6858 10.0001
vertex 108.24 67.6544 10.0001
endloop
endfacet
facet normal 0 0 1
outer loop
vertex 108.24 67.6544 10.0001
vertex 104.039 80.6858 10.0001
vertex 108.749 53.972 10.0001
endloop
endfacet
facet normal 0 0 1
outer loop
vertex 108.24 67.6544 10.0001
vertex 108.749 53.972 10.0001
vertex 108.749 63.972 10.0001
endloop
endfacet
facet normal 0 0 1
outer loop
vertex 108.749 63.972 10.0001
vertex 108.749 53.972 10.0001
vertex 118 63.972 10.0001
endloop
endfacet
facet normal 0 0 1
outer loop
vertex 26.8607 20.6698 10.0001
vertex 29.7953 18.3878 10.0001
vertex 72.563 10.8467 10.0001
endloop
endfacet
facet normal 0 0 1
outer loop
vertex 76.1011 105.957 10.0001
vertex 72.563 107.097 10.0001
vertex 55.2853 108.834 10.0001
endloop
endfacet
facet normal 0 0 1
outer loop
vertex 55.2853 108.834 10.0001
vertex 53.6789 117.944 10.0001
vertex 43.8308 116.207 10.0001
endloop
endfacet
facet normal 0 0 1
outer loop
vertex 38.4555 104.556 10.0001
vertex 33.8302 112.567 10.0001
vertex 25.17 107.568 10.0001
endloop
endfacet
facet normal 0 0 1
outer loop
vertex 57.8227 68.9025 10.0001
vertex 59.5289 68.958 10.0001
vertex 93.8964 94.7805 10.0001
endloop
endfacet
facet normal 0 0 1
outer loop
vertex 93.8964 94.7805 10.0001
vertex 59.5289 68.958 10.0001
vertex 61.2196 68.7226 10.0001
endloop
endfacet
facet normal 0 0 1
outer loop
vertex 93.8964 94.7805 10.0001
vertex 61.2196 68.7226 10.0001
vertex 62.8457 68.203 10.0001
endloop
endfacet
facet normal 0 0 1
outer loop
vertex 62.8457 68.203 10.0001
vertex 64.3597 67.4144 10.0001
vertex 93.8964 94.7805 10.0001
endloop
endfacet
facet normal 0 0 1
outer loop
vertex 93.8964 94.7805 10.0001
vertex 64.3597 67.4144 10.0001
vertex 65.7176 66.3798 10.0001
endloop
endfacet
facet normal 0 0 1
outer loop
vertex 93.8964 94.7805 10.0001
vertex 65.7176 66.3798 10.0001
vertex 100.983 100.727 10.0001
endloop
endfacet
facet normal 0 0 1
outer loop
vertex 100.983 100.727 10.0001
vertex 65.7176 66.3798 10.0001
vertex 66.8797 65.1293 10.0001
endloop
endfacet
facet normal 0 0 1
outer loop
vertex 100.983 100.727 10.0001
vertex 66.8797 65.1293 10.0001
vertex 67.8121 63.6994 10.0001
endloop
endfacet
facet normal 0 0 1
outer loop
vertex 72.5001 57.472 10.0001
vertex 68.887 57.472 10.0001
vertex 68.4878 55.8123 10.0001
endloop
endfacet
facet normal 0 0 1
outer loop
vertex 43.8308 116.207 10.0001
vertex 45.4372 107.097 10.0001
vertex 55.2853 108.834 10.0001
endloop
endfacet
facet normal 0 0 1
outer loop
vertex 55.2853 108.834 10.0001
vertex 45.4372 107.097 10.0001
vertex 41.8991 105.957 10.0001
endloop
endfacet
facet normal 0 0 1
outer loop
vertex 55.2853 108.834 10.0001
vertex 41.8991 105.957 10.0001
vertex 24.1038 23.1635 10.0001
endloop
endfacet
facet normal 0 0 1
outer loop
vertex 24.1038 23.1635 10.0001
vertex 41.8991 105.957 10.0001
vertex 38.4555 104.556 10.0001
endloop
endfacet
facet normal 0 0 1
outer loop
vertex 24.1038 23.1635 10.0001
vertex 38.4555 104.556 10.0001
vertex 29.7953 99.5562 10.0001
endloop
endfacet
facet normal 0 0 1
outer loop
vertex 29.7953 99.5562 10.0001
vertex 38.4555 104.556 10.0001
vertex 25.17 107.568 10.0001
endloop
endfacet
facet normal 0 0 1
outer loop
vertex 5.26834 83.8497 10.0001
vertex 1.84814 74.4527 10.0001
vertex 13.9611 80.6858 10.0001
endloop
endfacet
facet normal 0 0 1
outer loop
vertex 13.9611 80.6858 10.0001
vertex 1.84814 74.4527 10.0001
vertex 10.5409 71.2888 10.0001
endloop
endfacet
facet normal 0 0 1
outer loop
vertex 10.5409 71.2888 10.0001
vertex 9.75972 67.6544 10.0001
vertex 13.9611 80.6858 10.0001
endloop
endfacet
facet normal 0 0 1
outer loop
vertex 13.9611 80.6858 10.0001
vertex 9.75972 67.6544 10.0001
vertex 24.1038 23.1635 10.0001
endloop
endfacet
facet normal 0 0 1
outer loop
vertex 13.9611 80.6858 10.0001
vertex 24.1038 23.1635 10.0001
vertex 15.6988 83.972 10.0001
endloop
endfacet
facet normal 0 0 1
outer loop
vertex 15.6988 83.972 10.0001
vertex 24.1038 23.1635 10.0001
vertex 24.1038 94.7805 10.0001
endloop
endfacet
facet normal 0 0 1
outer loop
vertex 15.6988 83.972 10.0001
vertex 24.1038 94.7805 10.0001
vertex 17.6759 87.1201 10.0001
endloop
endfacet
facet normal 0 0 1
outer loop
vertex 17.6759 87.1201 10.0001
vertex 24.1038 94.7805 10.0001
vertex 10.5895 93.0662 10.0001
endloop
endfacet
facet normal 0 0 1
outer loop
vertex 1.84814 43.4913 10.0001
vertex 5.26834 34.0943 10.0001
vertex 10.5409 46.6552 10.0001
endloop
endfacet
facet normal 0 0 1
outer loop
vertex 10.5409 46.6552 10.0001
vertex 5.26834 34.0943 10.0001
vertex 13.9611 37.2583 10.0001
endloop
endfacet
facet normal 0 0 1
outer loop
vertex 79.5447 13.3878 10.0001
vertex 84.17 5.3765 10.0001
vertex 92.8302 10.3765 10.0001
endloop
endfacet
facet normal 0 0 1
outer loop
vertex 93.8964 23.1635 10.0001
vertex 100.983 17.2173 10.0001
vertex 107.411 24.8778 10.0001
endloop
endfacet
facet normal 0 0 1
outer loop
vertex 92.8302 107.568 10.0001
vertex 84.17 112.567 10.0001
vertex 88.2049 99.5562 10.0001
endloop
endfacet
facet normal 0 0 1
outer loop
vertex 88.2049 99.5562 10.0001
vertex 84.17 112.567 10.0001
vertex 79.5447 104.556 10.0001
endloop
endfacet
facet normal 0 0 1
outer loop
vertex 59.0001 108.972 10.0001
vertex 55.2853 108.834 10.0001
vertex 62.715 108.834 10.0001
endloop
endfacet
facet normal 0 0 1
outer loop
vertex 62.715 108.834 10.0001
vertex 55.2853 108.834 10.0001
vertex 72.563 107.097 10.0001
endloop
endfacet
facet normal 0 0 1
outer loop
vertex 62.715 108.834 10.0001
vertex 72.563 107.097 10.0001
vertex 64.3213 117.944 10.0001
endloop
endfacet
facet normal 0 0 1
outer loop
vertex 64.3213 117.944 10.0001
vertex 72.563 107.097 10.0001
vertex 74.1694 116.207 10.0001
endloop
endfacet
facet normal 0 0 1
outer loop
vertex 0.000104308 63.972 10.0001
vertex 0.000104308 53.972 10.0001
vertex 9.25073 63.972 10.0001
endloop
endfacet
facet normal 0 0 1
outer loop
vertex 9.25073 63.972 10.0001
vertex 0.000104308 53.972 10.0001
vertex 9.25073 53.972 10.0001
endloop
endfacet
facet normal 0 0 1
outer loop
vertex 9.25073 63.972 10.0001
vertex 9.25073 53.972 10.0001
vertex 9.75972 50.2896 10.0001
endloop
endfacet
facet normal 0 0 1
outer loop
vertex 25.17 10.3765 10.0001
vertex 33.8302 5.3765 10.0001
vertex 29.7953 18.3878 10.0001
endloop
endfacet
facet normal 0 0 1
outer loop
vertex 29.7953 18.3878 10.0001
vertex 33.8302 5.3765 10.0001
vertex 38.4555 13.3878 10.0001
endloop
endfacet
facet normal 0 0 1
outer loop
vertex 29.7953 18.3878 10.0001
vertex 38.4555 13.3878 10.0001
vertex 41.8991 11.9874 10.0001
endloop
endfacet
facet normal 0 0 1
outer loop
vertex 43.8308 1.73659 10.0001
vertex 53.6789 0.000104308 10.0001
vertex 45.4372 10.8467 10.0001
endloop
endfacet
facet normal 0 0 1
outer loop
vertex 45.4372 10.8467 10.0001
vertex 53.6789 0.000104308 10.0001
vertex 55.2853 9.11019 10.0001
endloop
endfacet
facet normal 0 0 1
outer loop
vertex 72.5001 57.472 10.0001
vertex 68.4878 55.8123 10.0001
vertex 79.5447 13.3878 10.0001
endloop
endfacet
facet normal 0 0 1
outer loop
vertex 92.8302 10.3765 10.0001
vertex 88.2049 18.3878 10.0001
vertex 79.5447 13.3878 10.0001
endloop
endfacet
facet normal 0 0 1
outer loop
vertex 79.5447 13.3878 10.0001
vertex 88.2049 18.3878 10.0001
vertex 91.1395 20.6698 10.0001
endloop
endfacet
facet normal 0 0 1
outer loop
vertex 79.5447 13.3878 10.0001
vertex 91.1395 20.6698 10.0001
vertex 72.5001 57.472 10.0001
endloop
endfacet
facet normal 0 0 1
outer loop
vertex 72.5001 57.472 10.0001
vertex 91.1395 20.6698 10.0001
vertex 93.8964 23.1635 10.0001
endloop
endfacet
facet normal 0 0 1
outer loop
vertex 72.5001 57.472 10.0001
vertex 93.8964 23.1635 10.0001
vertex 100.324 30.8239 10.0001
endloop
endfacet
facet normal 0 0 1
outer loop
vertex 100.324 30.8239 10.0001
vertex 93.8964 23.1635 10.0001
vertex 107.411 24.8778 10.0001
endloop
endfacet
facet normal 0 0 1
outer loop
vertex 10.5895 24.8778 10.0001
vertex 17.0174 17.2173 10.0001
vertex 17.6759 30.8239 10.0001
endloop
endfacet
facet normal 0 0 1
outer loop
vertex 17.6759 30.8239 10.0001
vertex 17.0174 17.2173 10.0001
vertex 24.1038 23.1635 10.0001
endloop
endfacet
facet normal 0 0 1
outer loop
vertex 17.6759 30.8239 10.0001
vertex 24.1038 23.1635 10.0001
vertex 15.6988 33.972 10.0001
endloop
endfacet
facet normal 0 0 1
outer loop
vertex 15.6988 33.972 10.0001
vertex 24.1038 23.1635 10.0001
vertex 9.25073 63.972 10.0001
endloop
endfacet
facet normal 0 0 1
outer loop
vertex 15.6988 33.972 10.0001
vertex 9.25073 63.972 10.0001
vertex 13.9611 37.2583 10.0001
endloop
endfacet
facet normal 0 0 1
outer loop
vertex 13.9611 37.2583 10.0001
vertex 9.25073 63.972 10.0001
vertex 9.75972 50.2896 10.0001
endloop
endfacet
facet normal 0 0 1
outer loop
vertex 13.9611 37.2583 10.0001
vertex 9.75972 50.2896 10.0001
vertex 10.5409 46.6552 10.0001
endloop
endfacet
facet normal 0 0 1
outer loop
vertex 64.3213 0.000104308 10.0001
vertex 74.1694 1.73659 10.0001
vertex 62.715 9.11019 10.0001
endloop
endfacet
facet normal 0 0 1
outer loop
vertex 62.715 9.11019 10.0001
vertex 74.1694 1.73659 10.0001
vertex 72.563 10.8467 10.0001
endloop
endfacet
facet normal 0 0 1
outer loop
vertex 62.715 9.11019 10.0001
vertex 72.563 10.8467 10.0001
vertex 59.0001 8.972 10.0001
endloop
endfacet
facet normal 0 0 1
outer loop
vertex 59.0001 8.972 10.0001
vertex 72.563 10.8467 10.0001
vertex 29.7953 18.3878 10.0001
endloop
endfacet
facet normal 0 0 1
outer loop
vertex 59.0001 8.972 10.0001
vertex 29.7953 18.3878 10.0001
vertex 55.2853 9.11019 10.0001
endloop
endfacet
facet normal 0 0 1
outer loop
vertex 55.2853 9.11019 10.0001
vertex 29.7953 18.3878 10.0001
vertex 41.8991 11.9874 10.0001
endloop
endfacet
facet normal 0 0 1
outer loop
vertex 55.2853 9.11019 10.0001
vertex 41.8991 11.9874 10.0001
vertex 45.4372 10.8467 10.0001
endloop
endfacet
facet normal 0 0 1
outer loop
vertex 68.4878 55.8123 10.0001
vertex 67.8121 54.2446 10.0001
vertex 79.5447 13.3878 10.0001
endloop
endfacet
facet normal 0 0 1
outer loop
vertex 79.5447 13.3878 10.0001
vertex 67.8121 54.2446 10.0001
vertex 66.8797 52.8147 10.0001
endloop
endfacet
facet normal 0 0 1
outer loop
vertex 79.5447 13.3878 10.0001
vertex 66.8797 52.8147 10.0001
vertex 65.7176 51.5642 10.0001
endloop
endfacet
facet normal 0 0 1
outer loop
vertex 26.8607 20.6698 10.0001
vertex 72.563 10.8467 10.0001
vertex 24.1038 23.1635 10.0001
endloop
endfacet
facet normal 0 0 1
outer loop
vertex 24.1038 23.1635 10.0001
vertex 72.563 10.8467 10.0001
vertex 57.8227 49.0416 10.0001
endloop
endfacet
facet normal 0 0 1
outer loop
vertex 24.1038 23.1635 10.0001
vertex 57.8227 49.0416 10.0001
vertex 56.1508 49.3865 10.0001
endloop
endfacet
facet normal 0 0 1
outer loop
vertex 65.7176 51.5642 10.0001
vertex 64.3597 50.5296 10.0001
vertex 79.5447 13.3878 10.0001
endloop
endfacet
facet normal 0 0 1
outer loop
vertex 79.5447 13.3878 10.0001
vertex 64.3597 50.5296 10.0001
vertex 62.8457 49.741 10.0001
endloop
endfacet
facet normal 0 0 1
outer loop
vertex 79.5447 13.3878 10.0001
vertex 62.8457 49.741 10.0001
vertex 76.1011 11.9874 10.0001
endloop
endfacet
facet normal 0 0 1
outer loop
vertex 76.1011 11.9874 10.0001
vertex 62.8457 49.741 10.0001
vertex 61.2196 49.2214 10.0001
endloop
endfacet
facet normal 0 0 1
outer loop
vertex 76.1011 11.9874 10.0001
vertex 61.2196 49.2214 10.0001
vertex 72.563 10.8467 10.0001
endloop
endfacet
facet normal 0 0 1
outer loop
vertex 72.563 10.8467 10.0001
vertex 61.2196 49.2214 10.0001
vertex 59.5289 48.986 10.0001
endloop
endfacet
facet normal 0 0 1
outer loop
vertex 72.563 10.8467 10.0001
vertex 59.5289 48.986 10.0001
vertex 57.8227 49.0416 10.0001
endloop
endfacet
facet normal 0 0 1
outer loop
vertex 56.1508 49.3865 10.0001
vertex 54.562 50.0108 10.0001
vertex 24.1038 23.1635 10.0001
endloop
endfacet
facet normal 0 0 1
outer loop
vertex 24.1038 23.1635 10.0001
vertex 54.562 50.0108 10.0001
vertex 53.1025 50.8962 10.0001
endloop
endfacet
facet normal 0 0 1
outer loop
vertex 24.1038 23.1635 10.0001
vertex 53.1025 50.8962 10.0001
vertex 51.8149 52.017 10.0001
endloop
endfacet
facet normal 0 0 1
outer loop
vertex 24.1038 23.1635 10.0001
vertex 49.3269 56.4363 10.0001
vertex 49.0366 58.1185 10.0001
endloop
endfacet
facet normal 0 0 1
outer loop
vertex 50.7366 64.6036 10.0001
vertex 51.8149 65.927 10.0001
vertex 55.2853 108.834 10.0001
endloop
endfacet
facet normal 0 0 1
outer loop
vertex 55.2853 108.834 10.0001
vertex 51.8149 65.927 10.0001
vertex 53.1025 67.0478 10.0001
endloop
endfacet
facet normal 0 0 1
outer loop
vertex 51.8149 52.017 10.0001
vertex 50.7366 53.3404 10.0001
vertex 24.1038 23.1635 10.0001
endloop
endfacet
facet normal 0 0 1
outer loop
vertex 24.1038 23.1635 10.0001
vertex 50.7366 53.3404 10.0001
vertex 49.8992 54.8279 10.0001
endloop
endfacet
facet normal 0 0 1
outer loop
vertex 24.1038 23.1635 10.0001
vertex 49.8992 54.8279 10.0001
vertex 49.3269 56.4363 10.0001
endloop
endfacet
facet normal 0 0 1
outer loop
vertex 79.5447 104.556 10.0001
vertex 76.1011 105.957 10.0001
vertex 88.2049 99.5562 10.0001
endloop
endfacet
facet normal 0 0 1
outer loop
vertex 88.2049 99.5562 10.0001
vertex 76.1011 105.957 10.0001
vertex 55.2853 108.834 10.0001
endloop
endfacet
facet normal 0 0 1
outer loop
vertex 88.2049 99.5562 10.0001
vertex 55.2853 108.834 10.0001
vertex 91.1395 97.2742 10.0001
endloop
endfacet
facet normal 0 0 1
outer loop
vertex 91.1395 97.2742 10.0001
vertex 55.2853 108.834 10.0001
vertex 53.1025 67.0478 10.0001
endloop
endfacet
facet normal 0 0 1
outer loop
vertex 91.1395 97.2742 10.0001
vertex 53.1025 67.0478 10.0001
vertex 93.8964 94.7805 10.0001
endloop
endfacet
facet normal 0 0 1
outer loop
vertex 93.8964 94.7805 10.0001
vertex 53.1025 67.0478 10.0001
vertex 54.562 67.9332 10.0001
endloop
endfacet
facet normal 0 0 1
outer loop
vertex 93.8964 94.7805 10.0001
vertex 54.562 67.9332 10.0001
vertex 56.1508 68.5575 10.0001
endloop
endfacet
facet normal 0 0 1
outer loop
vertex 49.0366 58.1185 10.0001
vertex 49.0366 59.8255 10.0001
vertex 24.1038 23.1635 10.0001
endloop
endfacet
facet normal 0 0 1
outer loop
vertex 24.1038 23.1635 10.0001
vertex 49.0366 59.8255 10.0001
vertex 49.3269 61.5077 10.0001
endloop
endfacet
facet normal 0 0 1
outer loop
vertex 24.1038 23.1635 10.0001
vertex 49.3269 61.5077 10.0001
vertex 55.2853 108.834 10.0001
endloop
endfacet
facet normal 0 0 1
outer loop
vertex 55.2853 108.834 10.0001
vertex 49.3269 61.5077 10.0001
vertex 49.8992 63.1161 10.0001
endloop
endfacet
facet normal 0 0 1
outer loop
vertex 55.2853 108.834 10.0001
vertex 49.8992 63.1161 10.0001
vertex 50.7366 64.6036 10.0001
endloop
endfacet
facet normal 0 -1 0
outer loop
vertex 68.887 60.472 10.0001
vertex 68.887 60.472 0.000103377
vertex 72.5001 60.472 10.0001
endloop
endfacet
facet normal 0 -1 0
outer loop
vertex 72.5001 60.472 10.0001
vertex 68.887 60.472 0.000103377
vertex 72.5001 60.472 0.000103377
endloop
endfacet
facet normal -0.972275 -0.233841 0
outer loop
vertex 68.887 60.472 0.000103377
vertex 68.887 60.472 10.0001
vertex 68.4878 62.1317 0.000103377
endloop
endfacet
facet normal -0.972275 -0.233841 0
outer loop
vertex 68.4878 62.1317 0.000103377
vertex 68.887 60.472 10.0001
vertex 68.4878 62.1317 10.0001
endloop
endfacet
facet normal -0.918337 -0.3958 0
outer loop
vertex 68.4878 62.1317 0.000103377
vertex 68.4878 62.1317 10.0001
vertex 67.8121 63.6994 0.000103377
endloop
endfacet
facet normal -0.918337 -0.3958 0
outer loop
vertex 67.8121 63.6994 0.000103377
vertex 68.4878 62.1317 10.0001
vertex 67.8121 63.6994 10.0001
endloop
endfacet
facet normal -0.837635 -0.54623 0
outer loop
vertex 67.8121 63.6994 0.000103377
vertex 67.8121 63.6994 10.0001
vertex 66.8797 65.1293 0.000103377
endloop
endfacet
facet normal -0.837635 -0.54623 0
outer loop
vertex 66.8797 65.1293 0.000103377
vertex 67.8121 63.6994 10.0001
vertex 66.8797 65.1293 10.0001
endloop
endfacet
facet normal -0.732521 -0.680745 0
outer loop
vertex 66.8797 65.1293 0.000103377
vertex 66.8797 65.1293 10.0001
vertex 65.7176 66.3798 0.000103377
endloop
endfacet
facet normal -0.732521 -0.680745 0
outer loop
vertex 65.7176 66.3798 0.000103377
vertex 66.8797 65.1293 10.0001
vertex 65.7176 66.3798 10.0001
endloop
endfacet
facet normal -0.60607 -0.795411 0
outer loop
vertex 65.7176 66.3798 0.000103377
vertex 65.7176 66.3798 10.0001
vertex 64.3597 67.4144 0.000103377
endloop
endfacet
facet normal -0.60607 -0.795411 0
outer loop
vertex 64.3597 67.4144 0.000103377
vertex 65.7176 66.3798 10.0001
vertex 64.3597 67.4144 10.0001
endloop
endfacet
facet normal -0.461948 -0.886907 0
outer loop
vertex 64.3597 67.4144 0.000103377
vertex 64.3597 67.4144 10.0001
vertex 62.8457 68.203 0.000103377
endloop
endfacet
facet normal -0.461948 -0.886907 0
outer loop
vertex 62.8457 68.203 0.000103377
vertex 64.3597 67.4144 10.0001
vertex 62.8457 68.203 10.0001
endloop
endfacet
facet normal -0.304371 -0.952554 0
outer loop
vertex 62.8457 68.203 0.000103377
vertex 62.8457 68.203 10.0001
vertex 61.2196 68.7226 0.000103377
endloop
endfacet
facet normal -0.304371 -0.952554 0
outer loop
vertex 61.2196 68.7226 0.000103377
vertex 62.8457 68.203 10.0001
vertex 61.2196 68.7226 10.0001
endloop
endfacet
facet normal -0.137922 -0.990443 0
outer loop
vertex 61.2196 68.7226 0.000103377
vertex 61.2196 68.7226 10.0001
vertex 59.5289 68.958 0.000103377
endloop
endfacet
facet normal -0.137922 -0.990443 0
outer loop
vertex 59.5289 68.958 0.000103377
vertex 61.2196 68.7226 10.0001
vertex 59.5289 68.958 10.0001
endloop
endfacet
facet normal 0.0325497 -0.99947 0
outer loop
vertex 59.5289 68.958 0.000103377
vertex 59.5289 68.958 10.0001
vertex 57.8227 68.9025 0.000103377
endloop
endfacet
facet normal 0.0325497 -0.99947 0
outer loop
vertex 57.8227 68.9025 0.000103377
vertex 59.5289 68.958 10.0001
vertex 57.8227 68.9025 10.0001
endloop
endfacet
facet normal 0.202069 -0.979371 0
outer loop
vertex 57.8227 68.9025 0.000103377
vertex 57.8227 68.9025 10.0001
vertex 56.1508 68.5575 0.000103377
endloop
endfacet
facet normal 0.202069 -0.979371 0
outer loop
vertex 56.1508 68.5575 0.000103377
vertex 57.8227 68.9025 10.0001
vertex 56.1508 68.5575 10.0001
endloop
endfacet
facet normal 0.365702 -0.930732 0
outer loop
vertex 56.1508 68.5575 0.000103377
vertex 56.1508 68.5575 10.0001
vertex 54.562 67.9332 0.000103377
endloop
endfacet
facet normal 0.365702 -0.930732 0
outer loop
vertex 54.562 67.9332 0.000103377
vertex 56.1508 68.5575 10.0001
vertex 54.562 67.9332 10.0001
endloop
endfacet
facet normal 0.518677 -0.85497 0
outer loop
vertex 54.562 67.9332 0.000103377
vertex 54.562 67.9332 10.0001
vertex 53.1025 67.0478 0.000103377
endloop
endfacet
facet normal 0.518677 -0.85497 0
outer loop
vertex 53.1025 67.0478 0.000103377
vertex 54.562 67.9332 10.0001
vertex 53.1025 67.0478 10.0001
endloop
endfacet
facet normal 0.65654 -0.754291 0
outer loop
vertex 53.1025 67.0478 0.000103377
vertex 53.1025 67.0478 10.0001
vertex 51.8149 65.927 0.000103377
endloop
endfacet
facet normal 0.65654 -0.754291 0
outer loop
vertex 51.8149 65.927 0.000103377
vertex 53.1025 67.0478 10.0001
vertex 51.8149 65.927 10.0001
endloop
endfacet
facet normal 0.775261 -0.631641 0
outer loop
vertex 51.8149 65.927 0.000103377
vertex 51.8149 65.927 10.0001
vertex 50.7366 64.6036 0.000103377
endloop
endfacet
facet normal 0.775261 -0.631641 0
outer loop
vertex 50.7366 64.6036 0.000103377
vertex 51.8149 65.927 10.0001
vertex 50.7366 64.6036 10.0001
endloop
endfacet
facet normal 0.871402 -0.49057 0
outer loop
vertex 50.7366 64.6036 0.000103377
vertex 50.7366 64.6036 10.0001
vertex 49.8992 63.1161 0.000103377
endloop
endfacet
facet normal 0.871402 -0.49057 0
outer loop
vertex 49.8992 63.1161 0.000103377
vertex 50.7366 64.6036 10.0001
vertex 49.8992 63.1161 10.0001
endloop
endfacet
facet normal 0.942142 -0.335214 0
outer loop
vertex 49.8992 63.1161 0.000103377
vertex 49.8992 63.1161 10.0001
vertex 49.3269 61.5077 0.000103377
endloop
endfacet
facet normal 0.942142 -0.335214 0
outer loop
vertex 49.3269 61.5077 0.000103377
vertex 49.8992 63.1161 10.0001
vertex 49.3269 61.5077 10.0001
endloop
endfacet
facet normal 0.985429 -0.170085 0
outer loop
vertex 49.3269 61.5077 0.000103377
vertex 49.3269 61.5077 10.0001
vertex 49.0366 59.8255 0.000103377
endloop
endfacet
facet normal 0.985429 -0.170085 0
outer loop
vertex 49.0366 59.8255 0.000103377
vertex 49.3269 61.5077 10.0001
vertex 49.0366 59.8255 10.0001
endloop
endfacet
facet normal 1 0 0
outer loop
vertex 49.0366 59.8255 0.000103377
vertex 49.0366 59.8255 10.0001
vertex 49.0366 58.1185 0.000103377
endloop
endfacet
facet normal 1 0 0
outer loop
vertex 49.0366 58.1185 0.000103377
vertex 49.0366 59.8255 10.0001
vertex 49.0366 58.1185 10.0001
endloop
endfacet
facet normal 0.985429 0.170085 0
outer loop
vertex 49.0366 58.1185 0.000103377
vertex 49.0366 58.1185 10.0001
vertex 49.3269 56.4363 0.000103377
endloop
endfacet
facet normal 0.985429 0.170085 0
outer loop
vertex 49.3269 56.4363 0.000103377
vertex 49.0366 58.1185 10.0001
vertex 49.3269 56.4363 10.0001
endloop
endfacet
facet normal 0.942143 0.335212 0
outer loop
vertex 49.3269 56.4363 0.000103377
vertex 49.3269 56.4363 10.0001
vertex 49.8992 54.8279 0.000103377
endloop
endfacet
facet normal 0.942143 0.335212 0
outer loop
vertex 49.8992 54.8279 0.000103377
vertex 49.3269 56.4363 10.0001
vertex 49.8992 54.8279 10.0001
endloop
endfacet
facet normal 0.8714 0.490573 0
outer loop
vertex 49.8992 54.8279 0.000103377
vertex 49.8992 54.8279 10.0001
vertex 50.7366 53.3404 0.000103377
endloop
endfacet
facet normal 0.8714 0.490573 0
outer loop
vertex 50.7366 53.3404 0.000103377
vertex 49.8992 54.8279 10.0001
vertex 50.7366 53.3404 10.0001
endloop
endfacet
facet normal 0.775263 0.631638 0
outer loop
vertex 50.7366 53.3404 0.000103377
vertex 50.7366 53.3404 10.0001
vertex 51.8149 52.017 0.000103377
endloop
endfacet
facet normal 0.775263 0.631638 0
outer loop
vertex 51.8149 52.017 0.000103377
vertex 50.7366 53.3404 10.0001
vertex 51.8149 52.017 10.0001
endloop
endfacet
facet normal 0.656538 0.754293 0
outer loop
vertex 51.8149 52.017 0.000103377
vertex 51.8149 52.017 10.0001
vertex 53.1025 50.8962 0.000103377
endloop
endfacet
facet normal 0.656538 0.754293 0
outer loop
vertex 53.1025 50.8962 0.000103377
vertex 51.8149 52.017 10.0001
vertex 53.1025 50.8962 10.0001
endloop
endfacet
facet normal 0.518677 0.85497 0
outer loop
vertex 53.1025 50.8962 0.000103377
vertex 53.1025 50.8962 10.0001
vertex 54.562 50.0108 0.000103377
endloop
endfacet
facet normal 0.518677 0.85497 0
outer loop
vertex 54.562 50.0108 0.000103377
vertex 53.1025 50.8962 10.0001
vertex 54.562 50.0108 10.0001
endloop
endfacet
facet normal 0.3657 0.930733 0
outer loop
vertex 54.562 50.0108 0.000103377
vertex 54.562 50.0108 10.0001
vertex 56.1508 49.3865 0.000103377
endloop
endfacet
facet normal 0.3657 0.930733 0
outer loop
vertex 56.1508 49.3865 0.000103377
vertex 54.562 50.0108 10.0001
vertex 56.1508 49.3865 10.0001
endloop
endfacet
facet normal 0.202071 0.979371 0
outer loop
vertex 56.1508 49.3865 0.000103377
vertex 56.1508 49.3865 10.0001
vertex 57.8227 49.0416 0.000103377
endloop
endfacet
facet normal 0.202071 0.979371 0
outer loop
vertex 57.8227 49.0416 0.000103377
vertex 56.1508 49.3865 10.0001
vertex 57.8227 49.0416 10.0001
endloop
endfacet
facet normal 0.0325475 0.99947 0
outer loop
vertex 57.8227 49.0416 0.000103377
vertex 57.8227 49.0416 10.0001
vertex 59.5289 48.986 0.000103377
endloop
endfacet
facet normal 0.0325475 0.99947 0
outer loop
vertex 59.5289 48.986 0.000103377
vertex 57.8227 49.0416 10.0001
vertex 59.5289 48.986 10.0001
endloop
endfacet
facet normal -0.13792 0.990443 0
outer loop
vertex 59.5289 48.986 0.000103377
vertex 59.5289 48.986 10.0001
vertex 61.2196 49.2214 0.000103377
endloop
endfacet
facet normal -0.13792 0.990443 0
outer loop
vertex 61.2196 49.2214 0.000103377
vertex 59.5289 48.986 10.0001
vertex 61.2196 49.2214 10.0001
endloop
endfacet
facet normal -0.304369 0.952554 0
outer loop
vertex 61.2196 49.2214 0.000103377
vertex 61.2196 49.2214 10.0001
vertex 62.8457 49.741 0.000103377
endloop
endfacet
facet normal -0.304369 0.952554 0
outer loop
vertex 62.8457 49.741 0.000103377
vertex 61.2196 49.2214 10.0001
vertex 62.8457 49.741 10.0001
endloop
endfacet
facet normal -0.461948 0.886907 0
outer loop
vertex 62.8457 49.741 0.000103377
vertex 62.8457 49.741 10.0001
vertex 64.3597 50.5296 0.000103377
endloop
endfacet
facet normal -0.461948 0.886907 0
outer loop
vertex 64.3597 50.5296 0.000103377
vertex 62.8457 49.741 10.0001
vertex 64.3597 50.5296 10.0001
endloop
endfacet
facet normal -0.606069 0.795412 0
outer loop
vertex 64.3597 50.5296 0.000103377
vertex 64.3597 50.5296 10.0001
vertex 65.7176 51.5642 0.000103377
endloop
endfacet
facet normal -0.606069 0.795412 0
outer loop
vertex 65.7176 51.5642 0.000103377
vertex 64.3597 50.5296 10.0001
vertex 65.7176 51.5642 10.0001
endloop
endfacet
facet normal -0.732523 0.680742 0
outer loop
vertex 65.7176 51.5642 0.000103377
vertex 65.7176 51.5642 10.0001
vertex 66.8797 52.8147 0.000103377
endloop
endfacet
facet normal -0.732523 0.680742 0
outer loop
vertex 66.8797 52.8147 0.000103377
vertex 65.7176 51.5642 10.0001
vertex 66.8797 52.8147 10.0001
endloop
endfacet
facet normal -0.837635 0.546231 0
outer loop
vertex 66.8797 52.8147 0.000103377
vertex 66.8797 52.8147 10.0001
vertex 67.8121 54.2446 0.000103377
endloop
endfacet
facet normal -0.837635 0.546231 0
outer loop
vertex 67.8121 54.2446 0.000103377
vertex 66.8797 52.8147 10.0001
vertex 67.8121 54.2446 10.0001
endloop
endfacet
facet normal -0.918337 0.395799 0
outer loop
vertex 67.8121 54.2446 0.000103377
vertex 67.8121 54.2446 10.0001
vertex 68.4878 55.8123 0.000103377
endloop
endfacet
facet normal -0.918337 0.395799 0
outer loop
vertex 68.4878 55.8123 0.000103377
vertex 67.8121 54.2446 10.0001
vertex 68.4878 55.8123 10.0001
endloop
endfacet
facet normal -0.972275 0.233842 0
outer loop
vertex 68.4878 55.8123 0.000103377
vertex 68.4878 55.8123 10.0001
vertex 68.887 57.472 0.000103377
endloop
endfacet
facet normal -0.972275 0.233842 0
outer loop
vertex 68.887 57.472 0.000103377
vertex 68.4878 55.8123 10.0001
vertex 68.887 57.472 10.0001
endloop
endfacet
facet normal 0 1 0
outer loop
vertex 68.887 57.472 0.000103377
vertex 68.887 57.472 10.0001
vertex 72.5001 57.472 0.000103377
endloop
endfacet
facet normal 0 1 0
outer loop
vertex 72.5001 57.472 0.000103377
vertex 68.887 57.472 10.0001
vertex 72.5001 57.472 10.0001
endloop
endfacet
facet normal -1 0 0
outer loop
vertex 72.5001 57.472 0.000103377
vertex 72.5001 57.472 10.0001
vertex 72.5001 60.472 0.000103377
endloop
endfacet
facet normal -1 0 0
outer loop
vertex 72.5001 60.472 0.000103377
vertex 72.5001 57.472 10.0001
vertex 72.5001 60.472 10.0001
endloop
endfacet
facet normal 0.84684 -0.531848 0
outer loop
vertex 100.324 30.8239 10.0001
vertex 100.324 30.8239 0.000103377
vertex 102.301 33.972 10.0001
endloop
endfacet
facet normal 0.84684 -0.531848 0
outer loop
vertex 102.301 33.972 10.0001
vertex 100.324 30.8239 0.000103377
vertex 102.301 33.972 0.000103377
endloop
endfacet
facet normal 0.884015 -0.467459 0
outer loop
vertex 102.301 33.972 10.0001
vertex 102.301 33.972 0.000103377
vertex 104.039 37.2583 10.0001
endloop
endfacet
facet normal 0.884015 -0.467459 0
outer loop
vertex 104.039 37.2583 10.0001
vertex 102.301 33.972 0.000103377
vertex 104.039 37.2583 0.000103377
endloop
endfacet
facet normal 0.642788 0.766044 0
outer loop
vertex 107.411 24.8778 0.000103377
vertex 100.324 30.8239 0.000103377
vertex 107.411 24.8778 10.0001
endloop
endfacet
facet normal 0.642788 0.766044 0
outer loop
vertex 107.411 24.8778 10.0001
vertex 100.324 30.8239 0.000103377
vertex 100.324 30.8239 10.0001
endloop
endfacet
facet normal 0.766044 -0.642788 0
outer loop
vertex 107.411 24.8778 10.0001
vertex 100.983 17.2173 10.0001
vertex 107.411 24.8778 0.000103377
endloop
endfacet
facet normal 0.766044 -0.642788 0
outer loop
vertex 107.411 24.8778 0.000103377
vertex 100.983 17.2173 10.0001
vertex 100.983 17.2173 0.000103377
endloop
endfacet
facet normal -0.642787 -0.766045 0
outer loop
vertex 100.983 17.2173 10.0001
vertex 93.8964 23.1635 10.0001
vertex 100.983 17.2173 0.000103377
endloop
endfacet
facet normal -0.642787 -0.766045 0
outer loop
vertex 100.983 17.2173 0.000103377
vertex 93.8964 23.1635 10.0001
vertex 93.8964 23.1635 0.000103377
endloop
endfacet
facet normal 0.613868 -0.789409 0
outer loop
vertex 88.2049 18.3878 10.0001
vertex 88.2049 18.3878 0.000103377
vertex 91.1395 20.6698 10.0001
endloop
endfacet
facet normal 0.613868 -0.789409 0
outer loop
vertex 91.1395 20.6698 10.0001
vertex 88.2049 18.3878 0.000103377
vertex 91.1395 20.6698 0.000103377
endloop
endfacet
facet normal 0.67082 -0.74162 0
outer loop
vertex 91.1395 20.6698 10.0001
vertex 91.1395 20.6698 0.000103377
vertex 93.8964 23.1635 10.0001
endloop
endfacet
facet normal 0.67082 -0.74162 0
outer loop
vertex 93.8964 23.1635 10.0001
vertex 91.1395 20.6698 0.000103377
vertex 93.8964 23.1635 0.000103377
endloop
endfacet
facet normal 0.866025 0.5 0
outer loop
vertex 92.8302 10.3765 0.000103377
vertex 88.2049 18.3878 0.000103377
vertex 92.8302 10.3765 10.0001
endloop
endfacet
facet normal 0.866025 0.5 0
outer loop
vertex 92.8302 10.3765 10.0001
vertex 88.2049 18.3878 0.000103377
vertex 88.2049 18.3878 10.0001
endloop
endfacet
facet normal 0.5 -0.866025 0
outer loop
vertex 92.8302 10.3765 10.0001
vertex 84.17 5.3765 10.0001
vertex 92.8302 10.3765 0.000103377
endloop
endfacet
facet normal 0.5 -0.866025 0
outer loop
vertex 92.8302 10.3765 0.000103377
vertex 84.17 5.3765 10.0001
vertex 84.17 5.3765 0.000103377
endloop
endfacet
facet normal -0.866025 -0.5 0
outer loop
vertex 84.17 5.3765 10.0001
vertex 79.5447 13.3878 10.0001
vertex 84.17 5.3765 0.000103377
endloop
endfacet
facet normal -0.866025 -0.5 0
outer loop
vertex 84.17 5.3765 0.000103377
vertex 79.5447 13.3878 10.0001
vertex 79.5447 13.3878 0.000103377
endloop
endfacet
facet normal 0.306851 -0.951758 0
outer loop
vertex 72.563 10.8467 10.0001
vertex 72.563 10.8467 0.000103377
vertex 76.1011 11.9874 10.0001
endloop
endfacet
facet normal 0.306851 -0.951758 0
outer loop
vertex 76.1011 11.9874 10.0001
vertex 72.563 10.8467 0.000103377
vertex 76.1011 11.9874 0.000103377
endloop
endfacet
facet normal 0.376716 -0.926329 0
outer loop
vertex 76.1011 11.9874 10.0001
vertex 76.1011 11.9874 0.000103377
vertex 79.5447 13.3878 10.0001
endloop
endfacet
facet normal 0.376716 -0.926329 0
outer loop
vertex 79.5447 13.3878 10.0001
vertex 76.1011 11.9874 0.000103377
vertex 79.5447 13.3878 0.000103377
endloop
endfacet
facet normal 0.984808 0.173648 0
outer loop
vertex 74.1694 1.73659 0.000103377
vertex 72.563 10.8467 0.000103377
vertex 74.1694 1.73659 10.0001
endloop
endfacet
facet normal 0.984808 0.173648 0
outer loop
vertex 74.1694 1.73659 10.0001
vertex 72.563 10.8467 0.000103377
vertex 72.563 10.8467 10.0001
endloop
endfacet
facet normal 0.173648 -0.984808 0
outer loop
vertex 74.1694 1.73659 10.0001
vertex 64.3213 0.000104308 10.0001
vertex 74.1694 1.73659 0.000103377
endloop
endfacet
facet normal 0.173648 -0.984808 0
outer loop
vertex 74.1694 1.73659 0.000103377
vertex 64.3213 0.000104308 10.0001
vertex 64.3213 0.000104308 0.000103377
endloop
endfacet
facet normal -0.984808 -0.173648 0
outer loop
vertex 64.3213 0.000104308 10.0001
vertex 62.715 9.11019 10.0001
vertex 64.3213 0.000104308 0.000103377
endloop
endfacet
facet normal -0.984808 -0.173648 0
outer loop
vertex 64.3213 0.000104308 0.000103377
vertex 62.715 9.11019 10.0001
vertex 62.715 9.11019 0.000103377
endloop
endfacet
facet normal -0.0371745 -0.999309 0
outer loop
vertex 55.2853 9.11019 10.0001
vertex 55.2853 9.11019 0.000103377
vertex 59.0001 8.972 10.0001
endloop
endfacet
facet normal -0.0371745 -0.999309 0
outer loop
vertex 59.0001 8.972 10.0001
vertex 55.2853 9.11019 0.000103377
vertex 59.0001 8.972 0.000103377
endloop
endfacet
facet normal 0.0371744 -0.999309 0
outer loop
vertex 59.0001 8.972 10.0001
vertex 59.0001 8.972 0.000103377
vertex 62.715 9.11019 10.0001
endloop
endfacet
facet normal 0.0371744 -0.999309 0
outer loop
vertex 62.715 9.11019 10.0001
vertex 59.0001 8.972 0.000103377
vertex 62.715 9.11019 0.000103377
endloop
endfacet
facet normal 0.984808 -0.173648 0
outer loop
vertex 53.6789 0.000104308 0.000103377
vertex 55.2853 9.11019 0.000103377
vertex 53.6789 0.000104308 10.0001
endloop
endfacet
facet normal 0.984808 -0.173648 0
outer loop
vertex 53.6789 0.000104308 10.0001
vertex 55.2853 9.11019 0.000103377
vertex 55.2853 9.11019 10.0001
endloop
endfacet
facet normal -0.173648 -0.984808 0
outer loop
vertex 53.6789 0.000104308 10.0001
vertex 43.8308 1.73659 10.0001
vertex 53.6789 0.000104308 0.000103377
endloop
endfacet
facet normal -0.173648 -0.984808 0
outer loop
vertex 53.6789 0.000104308 0.000103377
vertex 43.8308 1.73659 10.0001
vertex 43.8308 1.73659 0.000103377
endloop
endfacet
facet normal -0.984808 0.173649 0
outer loop
vertex 43.8308 1.73659 10.0001
vertex 45.4372 10.8467 10.0001
vertex 43.8308 1.73659 0.000103377
endloop
endfacet
facet normal -0.984808 0.173649 0
outer loop
vertex 43.8308 1.73659 0.000103377
vertex 45.4372 10.8467 10.0001
vertex 45.4372 10.8467 0.000103377
endloop
endfacet
facet normal -0.376716 -0.926329 0
outer loop
vertex 38.4555 13.3878 10.0001
vertex 38.4555 13.3878 0.000103377
vertex 41.8991 11.9874 10.0001
endloop
endfacet
facet normal -0.376716 -0.926329 0
outer loop
vertex 41.8991 11.9874 10.0001
vertex 38.4555 13.3878 0.000103377
vertex 41.8991 11.9874 0.000103377
endloop
endfacet
facet normal -0.306852 -0.951757 0
outer loop
vertex 41.8991 11.9874 10.0001
vertex 41.8991 11.9874 0.000103377
vertex 45.4372 10.8467 10.0001
endloop
endfacet
facet normal -0.306852 -0.951757 0
outer loop
vertex 45.4372 10.8467 10.0001
vertex 41.8991 11.9874 0.000103377
vertex 45.4372 10.8467 0.000103377
endloop
endfacet
facet normal 0.866025 -0.5 0
outer loop
vertex 33.8302 5.3765 0.000103377
vertex 38.4555 13.3878 0.000103377
vertex 33.8302 5.3765 10.0001
endloop
endfacet
facet normal 0.866025 -0.5 0
outer loop
vertex 33.8302 5.3765 10.0001
vertex 38.4555 13.3878 0.000103377
vertex 38.4555 13.3878 10.0001
endloop
endfacet
facet normal -0.5 -0.866026 0
outer loop
vertex 33.8302 5.3765 10.0001
vertex 25.17 10.3765 10.0001
vertex 33.8302 5.3765 0.000103377
endloop
endfacet
facet normal -0.5 -0.866026 0
outer loop
vertex 33.8302 5.3765 0.000103377
vertex 25.17 10.3765 10.0001
vertex 25.17 10.3765 0.000103377
endloop
endfacet
facet normal -0.866025 0.5 0
outer loop
vertex 25.17 10.3765 10.0001
vertex 29.7953 18.3878 10.0001
vertex 25.17 10.3765 0.000103377
endloop
endfacet
facet normal -0.866025 0.5 0
outer loop
vertex 25.17 10.3765 0.000103377
vertex 29.7953 18.3878 10.0001
vertex 29.7953 18.3878 0.000103377
endloop
endfacet
facet normal -0.67082 -0.74162 0
outer loop
vertex 24.1038 23.1635 10.0001
vertex 24.1038 23.1635 0.000103377
vertex 26.8607 20.6698 10.0001
endloop
endfacet
facet normal -0.67082 -0.74162 0
outer loop
vertex 26.8607 20.6698 10.0001
vertex 24.1038 23.1635 0.000103377
vertex 26.8607 20.6698 0.000103377
endloop
endfacet
facet normal -0.613867 -0.789409 0
outer loop
vertex 26.8607 20.6698 10.0001
vertex 26.8607 20.6698 0.000103377
vertex 29.7953 18.3878 10.0001
endloop
endfacet
facet normal -0.613867 -0.789409 0
outer loop
vertex 29.7953 18.3878 10.0001
vertex 26.8607 20.6698 0.000103377
vertex 29.7953 18.3878 0.000103377
endloop
endfacet
facet normal 0.642788 -0.766044 0
outer loop
vertex 17.0174 17.2173 0.000103377
vertex 24.1038 23.1635 0.000103377
vertex 17.0174 17.2173 10.0001
endloop
endfacet
facet normal 0.642788 -0.766044 0
outer loop
vertex 17.0174 17.2173 10.0001
vertex 24.1038 23.1635 0.000103377
vertex 24.1038 23.1635 10.0001
endloop
endfacet
facet normal -0.766044 -0.642788 0
outer loop
vertex 17.0174 17.2173 10.0001
vertex 10.5895 24.8778 10.0001
vertex 17.0174 17.2173 0.000103377
endloop
endfacet
facet normal -0.766044 -0.642788 0
outer loop
vertex 17.0174 17.2173 0.000103377
vertex 10.5895 24.8778 10.0001
vertex 10.5895 24.8778 0.000103377
endloop
endfacet
facet normal -0.642788 0.766044 0
outer loop
vertex 10.5895 24.8778 10.0001
vertex 17.6759 30.8239 10.0001
vertex 10.5895 24.8778 0.000103377
endloop
endfacet
facet normal -0.642788 0.766044 0
outer loop
vertex 10.5895 24.8778 0.000103377
vertex 17.6759 30.8239 10.0001
vertex 17.6759 30.8239 0.000103377
endloop
endfacet
facet normal -0.884014 -0.467461 0
outer loop
vertex 13.9611 37.2583 10.0001
vertex 13.9611 37.2583 0.000103377
vertex 15.6988 33.972 10.0001
endloop
endfacet
facet normal -0.884014 -0.467461 0
outer loop
vertex 15.6988 33.972 10.0001
vertex 13.9611 37.2583 0.000103377
vertex 15.6988 33.972 0.000103377
endloop
endfacet
facet normal -0.84684 -0.531848 0
outer loop
vertex 15.6988 33.972 10.0001
vertex 15.6988 33.972 0.000103377
vertex 17.6759 30.8239 10.0001
endloop
endfacet
facet normal -0.84684 -0.531848 0
outer loop
vertex 17.6759 30.8239 10.0001
vertex 15.6988 33.972 0.000103377
vertex 17.6759 30.8239 0.000103377
endloop
endfacet
facet normal 0.34202 -0.939693 0
outer loop
vertex 5.26834 34.0943 0.000103377
vertex 13.9611 37.2583 0.000103377
vertex 5.26834 34.0943 10.0001
endloop
endfacet
facet normal 0.34202 -0.939693 0
outer loop
vertex 5.26834 34.0943 10.0001
vertex 13.9611 37.2583 0.000103377
vertex 13.9611 37.2583 10.0001
endloop
endfacet
facet normal -0.939693 -0.34202 0
outer loop
vertex 5.26834 34.0943 10.0001
vertex 1.84814 43.4913 10.0001
vertex 5.26834 34.0943 0.000103377
endloop
endfacet
facet normal -0.939693 -0.34202 0
outer loop
vertex 5.26834 34.0943 0.000103377
vertex 1.84814 43.4913 10.0001
vertex 1.84814 43.4913 0.000103377
endloop
endfacet
facet normal -0.34202 0.939693 0
outer loop
vertex 1.84814 43.4913 10.0001
vertex 10.5409 46.6552 10.0001
vertex 1.84814 43.4913 0.000103377
endloop
endfacet
facet normal -0.34202 0.939693 0
outer loop
vertex 1.84814 43.4913 0.000103377
vertex 10.5409 46.6552 10.0001
vertex 10.5409 46.6552 0.000103377
endloop
endfacet
facet normal -0.990582 -0.136918 0
outer loop
vertex 9.25073 53.972 10.0001
vertex 9.25073 53.972 0.000103377
vertex 9.75972 50.2896 10.0001
endloop
endfacet
facet normal -0.990582 -0.136918 0
outer loop
vertex 9.75972 50.2896 10.0001
vertex 9.25073 53.972 0.000103377
vertex 9.75972 50.2896 0.000103377
endloop
endfacet
facet normal -0.977672 -0.210138 0
outer loop
vertex 9.75972 50.2896 10.0001
vertex 9.75972 50.2896 0.000103377
vertex 10.5409 46.6552 10.0001
endloop
endfacet
facet normal -0.977672 -0.210138 0
outer loop
vertex 10.5409 46.6552 10.0001
vertex 9.75972 50.2896 0.000103377
vertex 10.5409 46.6552 0.000103377
endloop
endfacet
facet normal 0 -1 0
outer loop
vertex 0.000104308 53.972 0.000103377
vertex 9.25073 53.972 0.000103377
vertex 0.000104308 53.972 10.0001
endloop
endfacet
facet normal 0 -1 0
outer loop
vertex 0.000104308 53.972 10.0001
vertex 9.25073 53.972 0.000103377
vertex 9.25073 53.972 10.0001
endloop
endfacet
facet normal -1 0 0
outer loop
vertex 0.000104308 53.972 10.0001
vertex 0.000104308 63.972 10.0001
vertex 0.000104308 53.972 0.000103377
endloop
endfacet
facet normal -1 0 0
outer loop
vertex 0.000104308 53.972 0.000103377
vertex 0.000104308 63.972 10.0001
vertex 0.000104308 63.972 0.000103377
endloop
endfacet
facet normal 0 1 0
outer loop
vertex 0.000104308 63.972 10.0001
vertex 9.25073 63.972 10.0001
vertex 0.000104308 63.972 0.000103377
endloop
endfacet
facet normal 0 1 0
outer loop
vertex 0.000104308 63.972 0.000103377
vertex 9.25073 63.972 10.0001
vertex 9.25073 63.972 0.000103377
endloop
endfacet
facet normal -0.977672 0.210138 0
outer loop
vertex 10.5409 71.2888 10.0001
vertex 10.5409 71.2888 0.000103377
vertex 9.75972 67.6544 10.0001
endloop
endfacet
facet normal -0.977672 0.210138 0
outer loop
vertex 9.75972 67.6544 10.0001
vertex 10.5409 71.2888 0.000103377
vertex 9.75972 67.6544 0.000103377
endloop
endfacet
facet normal -0.990582 0.136918 0
outer loop
vertex 9.75972 67.6544 10.0001
vertex 9.75972 67.6544 0.000103377
vertex 9.25073 63.972 10.0001
endloop
endfacet
facet normal -0.990582 0.136918 0
outer loop
vertex 9.25073 63.972 10.0001
vertex 9.75972 67.6544 0.000103377
vertex 9.25073 63.972 0.000103377
endloop
endfacet
facet normal -0.34202 -0.939693 0
outer loop
vertex 1.84814 74.4527 0.000103377
vertex 10.5409 71.2888 0.000103377
vertex 1.84814 74.4527 10.0001
endloop
endfacet
facet normal -0.34202 -0.939693 0
outer loop
vertex 1.84814 74.4527 10.0001
vertex 10.5409 71.2888 0.000103377
vertex 10.5409 71.2888 10.0001
endloop
endfacet
facet normal -0.939693 0.34202 0
outer loop
vertex 1.84814 74.4527 10.0001
vertex 5.26834 83.8497 10.0001
vertex 1.84814 74.4527 0.000103377
endloop
endfacet
facet normal -0.939693 0.34202 0
outer loop
vertex 1.84814 74.4527 0.000103377
vertex 5.26834 83.8497 10.0001
vertex 5.26834 83.8497 0.000103377
endloop
endfacet
facet normal 0.34202 0.939693 0
outer loop
vertex 5.26834 83.8497 10.0001
vertex 13.9611 80.6858 10.0001
vertex 5.26834 83.8497 0.000103377
endloop
endfacet
facet normal 0.34202 0.939693 0
outer loop
vertex 5.26834 83.8497 0.000103377
vertex 13.9611 80.6858 10.0001
vertex 13.9611 80.6858 0.000103377
endloop
endfacet
facet normal -0.84684 0.531848 0
outer loop
vertex 17.6759 87.1201 10.0001
vertex 17.6759 87.1201 0.000103377
vertex 15.6988 83.972 10.0001
endloop
endfacet
facet normal -0.84684 0.531848 0
outer loop
vertex 15.6988 83.972 10.0001
vertex 17.6759 87.1201 0.000103377
vertex 15.6988 83.972 0.000103377
endloop
endfacet
facet normal -0.884014 0.467461 0
outer loop
vertex 15.6988 83.972 10.0001
vertex 15.6988 83.972 0.000103377
vertex 13.9611 80.6858 10.0001
endloop
endfacet
facet normal -0.884014 0.467461 0
outer loop
vertex 13.9611 80.6858 10.0001
vertex 15.6988 83.972 0.000103377
vertex 13.9611 80.6858 0.000103377
endloop
endfacet
facet normal -0.642788 -0.766044 0
outer loop
vertex 10.5895 93.0662 0.000103377
vertex 17.6759 87.1201 0.000103377
vertex 10.5895 93.0662 10.0001
endloop
endfacet
facet normal -0.642788 -0.766044 0
outer loop
vertex 10.5895 93.0662 10.0001
vertex 17.6759 87.1201 0.000103377
vertex 17.6759 87.1201 10.0001
endloop
endfacet
facet normal -0.766044 0.642788 0
outer loop
vertex 10.5895 93.0662 10.0001
vertex 17.0174 100.727 10.0001
vertex 10.5895 93.0662 0.000103377
endloop
endfacet
facet normal -0.766044 0.642788 0
outer loop
vertex 10.5895 93.0662 0.000103377
vertex 17.0174 100.727 10.0001
vertex 17.0174 100.727 0.000103377
endloop
endfacet
facet normal 0.642788 0.766044 0
outer loop
vertex 17.0174 100.727 10.0001
vertex 24.1038 94.7805 10.0001
vertex 17.0174 100.727 0.000103377
endloop
endfacet
facet normal 0.642788 0.766044 0
outer loop
vertex 17.0174 100.727 0.000103377
vertex 24.1038 94.7805 10.0001
vertex 24.1038 94.7805 0.000103377
endloop
endfacet
facet normal -0.613867 0.78941 0
outer loop
vertex 29.7953 99.5562 10.0001
vertex 29.7953 99.5562 0.000103377
vertex 26.8607 97.2742 10.0001
endloop
endfacet
facet normal -0.613867 0.78941 0
outer loop
vertex 26.8607 97.2742 10.0001
vertex 29.7953 99.5562 0.000103377
vertex 26.8607 97.2742 0.000103377
endloop
endfacet
facet normal -0.67082 0.74162 0
outer loop
vertex 26.8607 97.2742 10.0001
vertex 26.8607 97.2742 0.000103377
vertex 24.1038 94.7805 10.0001
endloop
endfacet
facet normal -0.67082 0.74162 0
outer loop
vertex 24.1038 94.7805 10.0001
vertex 26.8607 97.2742 0.000103377
vertex 24.1038 94.7805 0.000103377
endloop
endfacet
facet normal -0.866026 -0.5 0
outer loop
vertex 25.17 107.568 0.000103377
vertex 29.7953 99.5562 0.000103377
vertex 25.17 107.568 10.0001
endloop
endfacet
facet normal -0.866026 -0.5 0
outer loop
vertex 25.17 107.568 10.0001
vertex 29.7953 99.5562 0.000103377
vertex 29.7953 99.5562 10.0001
endloop
endfacet
facet normal -0.499999 0.866026 0
outer loop
vertex 25.17 107.568 10.0001
vertex 33.8302 112.567 10.0001
vertex 25.17 107.568 0.000103377
endloop
endfacet
facet normal -0.499999 0.866026 0
outer loop
vertex 25.17 107.568 0.000103377
vertex 33.8302 112.567 10.0001
vertex 33.8302 112.567 0.000103377
endloop
endfacet
facet normal 0.866025 0.5 0
outer loop
vertex 33.8302 112.567 10.0001
vertex 38.4555 104.556 10.0001
vertex 33.8302 112.567 0.000103377
endloop
endfacet
facet normal 0.866025 0.5 0
outer loop
vertex 33.8302 112.567 0.000103377
vertex 38.4555 104.556 10.0001
vertex 38.4555 104.556 0.000103377
endloop
endfacet
facet normal -0.306853 0.951757 0
outer loop
vertex 45.4372 107.097 10.0001
vertex 45.4372 107.097 0.000103377
vertex 41.8991 105.957 10.0001
endloop
endfacet
facet normal -0.306853 0.951757 0
outer loop
vertex 41.8991 105.957 10.0001
vertex 45.4372 107.097 0.000103377
vertex 41.8991 105.957 0.000103377
endloop
endfacet
facet normal -0.376715 0.926329 0
outer loop
vertex 41.8991 105.957 10.0001
vertex 41.8991 105.957 0.000103377
vertex 38.4555 104.556 10.0001
endloop
endfacet
facet normal -0.376715 0.926329 0
outer loop
vertex 38.4555 104.556 10.0001
vertex 41.8991 105.957 0.000103377
vertex 38.4555 104.556 0.000103377
endloop
endfacet
facet normal -0.984808 -0.173648 0
outer loop
vertex 43.8308 116.207 0.000103377
vertex 45.4372 107.097 0.000103377
vertex 43.8308 116.207 10.0001
endloop
endfacet
facet normal -0.984808 -0.173648 0
outer loop
vertex 43.8308 116.207 10.0001
vertex 45.4372 107.097 0.000103377
vertex 45.4372 107.097 10.0001
endloop
endfacet
facet normal -0.173648 0.984808 0
outer loop
vertex 43.8308 116.207 10.0001
vertex 53.6789 117.944 10.0001
vertex 43.8308 116.207 0.000103377
endloop
endfacet
facet normal -0.173648 0.984808 0
outer loop
vertex 43.8308 116.207 0.000103377
vertex 53.6789 117.944 10.0001
vertex 53.6789 117.944 0.000103377
endloop
endfacet
facet normal 0.984808 0.173648 0
outer loop
vertex 53.6789 117.944 10.0001
vertex 55.2853 108.834 10.0001
vertex 53.6789 117.944 0.000103377
endloop
endfacet
facet normal 0.984808 0.173648 0
outer loop
vertex 53.6789 117.944 0.000103377
vertex 55.2853 108.834 10.0001
vertex 55.2853 108.834 0.000103377
endloop
endfacet
facet normal 0.037176 0.999309 0
outer loop
vertex 62.715 108.834 10.0001
vertex 62.715 108.834 0.000103377
vertex 59.0001 108.972 10.0001
endloop
endfacet
facet normal 0.037176 0.999309 0
outer loop
vertex 59.0001 108.972 10.0001
vertex 62.715 108.834 0.000103377
vertex 59.0001 108.972 0.000103377
endloop
endfacet
facet normal -0.037176 0.999309 0
outer loop
vertex 59.0001 108.972 10.0001
vertex 59.0001 108.972 0.000103377
vertex 55.2853 108.834 10.0001
endloop
endfacet
facet normal -0.037176 0.999309 0
outer loop
vertex 55.2853 108.834 10.0001
vertex 59.0001 108.972 0.000103377
vertex 55.2853 108.834 0.000103377
endloop
endfacet
facet normal -0.984808 0.173648 0
outer loop
vertex 64.3213 117.944 0.000103377
vertex 62.715 108.834 0.000103377
vertex 64.3213 117.944 10.0001
endloop
endfacet
facet normal -0.984808 0.173648 0
outer loop
vertex 64.3213 117.944 10.0001
vertex 62.715 108.834 0.000103377
vertex 62.715 108.834 10.0001
endloop
endfacet
facet normal 0.173648 0.984808 0
outer loop
vertex 64.3213 117.944 10.0001
vertex 74.1694 116.207 10.0001
vertex 64.3213 117.944 0.000103377
endloop
endfacet
facet normal 0.173648 0.984808 0
outer loop
vertex 64.3213 117.944 0.000103377
vertex 74.1694 116.207 10.0001
vertex 74.1694 116.207 0.000103377
endloop
endfacet
facet normal 0.984808 -0.173648 0
outer loop
vertex 74.1694 116.207 10.0001
vertex 72.563 107.097 10.0001
vertex 74.1694 116.207 0.000103377
endloop
endfacet
facet normal 0.984808 -0.173648 0
outer loop
vertex 74.1694 116.207 0.000103377
vertex 72.563 107.097 10.0001
vertex 72.563 107.097 0.000103377
endloop
endfacet
facet normal 0.376715 0.926329 0
outer loop
vertex 79.5447 104.556 10.0001
vertex 79.5447 104.556 0.000103377
vertex 76.1011 105.957 10.0001
endloop
endfacet
facet normal 0.376715 0.926329 0
outer loop
vertex 76.1011 105.957 10.0001
vertex 79.5447 104.556 0.000103377
vertex 76.1011 105.957 0.000103377
endloop
endfacet
facet normal 0.306853 0.951757 0
outer loop
vertex 76.1011 105.957 10.0001
vertex 76.1011 105.957 0.000103377
vertex 72.563 107.097 10.0001
endloop
endfacet
facet normal 0.306853 0.951757 0
outer loop
vertex 72.563 107.097 10.0001
vertex 76.1011 105.957 0.000103377
vertex 72.563 107.097 0.000103377
endloop
endfacet
facet normal -0.866025 0.5 0
outer loop
vertex 84.17 112.567 0.000103377
vertex 79.5447 104.556 0.000103377
vertex 84.17 112.567 10.0001
endloop
endfacet
facet normal -0.866025 0.5 0
outer loop
vertex 84.17 112.567 10.0001
vertex 79.5447 104.556 0.000103377
vertex 79.5447 104.556 10.0001
endloop
endfacet
facet normal 0.499999 0.866026 0
outer loop
vertex 84.17 112.567 10.0001
vertex 92.8302 107.568 10.0001
vertex 84.17 112.567 0.000103377
endloop
endfacet
facet normal 0.499999 0.866026 0
outer loop
vertex 84.17 112.567 0.000103377
vertex 92.8302 107.568 10.0001
vertex 92.8302 107.568 0.000103377
endloop
endfacet
facet normal 0.866026 -0.5 0
outer loop
vertex 92.8302 107.568 10.0001
vertex 88.2049 99.5562 10.0001
vertex 92.8302 107.568 0.000103377
endloop
endfacet
facet normal 0.866026 -0.5 0
outer loop
vertex 92.8302 107.568 0.000103377
vertex 88.2049 99.5562 10.0001
vertex 88.2049 99.5562 0.000103377
endloop
endfacet
facet normal 0.67082 0.74162 0
outer loop
vertex 93.8964 94.7805 10.0001
vertex 93.8964 94.7805 0.000103377
vertex 91.1395 97.2742 10.0001
endloop
endfacet
facet normal 0.67082 0.74162 0
outer loop
vertex 91.1395 97.2742 10.0001
vertex 93.8964 94.7805 0.000103377
vertex 91.1395 97.2742 0.000103377
endloop
endfacet
facet normal 0.613867 0.78941 0
outer loop
vertex 91.1395 97.2742 10.0001
vertex 91.1395 97.2742 0.000103377
vertex 88.2049 99.5562 10.0001
endloop
endfacet
facet normal 0.613867 0.78941 0
outer loop
vertex 88.2049 99.5562 10.0001
vertex 91.1395 97.2742 0.000103377
vertex 88.2049 99.5562 0.000103377
endloop
endfacet
facet normal -0.642787 0.766045 0
outer loop
vertex 100.983 100.727 0.000103377
vertex 93.8964 94.7805 0.000103377
vertex 100.983 100.727 10.0001
endloop
endfacet
facet normal -0.642787 0.766045 0
outer loop
vertex 100.983 100.727 10.0001
vertex 93.8964 94.7805 0.000103377
vertex 93.8964 94.7805 10.0001
endloop
endfacet
facet normal 0.766044 0.642788 0
outer loop
vertex 100.983 100.727 10.0001
vertex 107.411 93.0662 10.0001
vertex 100.983 100.727 0.000103377
endloop
endfacet
facet normal 0.766044 0.642788 0
outer loop
vertex 100.983 100.727 0.000103377
vertex 107.411 93.0662 10.0001
vertex 107.411 93.0662 0.000103377
endloop
endfacet
facet normal 0.642787 -0.766045 0
outer loop
vertex 107.411 93.0662 10.0001
vertex 100.324 87.1201 10.0001
vertex 107.411 93.0662 0.000103377
endloop
endfacet
facet normal 0.642787 -0.766045 0
outer loop
vertex 107.411 93.0662 0.000103377
vertex 100.324 87.1201 10.0001
vertex 100.324 87.1201 0.000103377
endloop
endfacet
facet normal 0.884015 0.467459 0
outer loop
vertex 104.039 80.6858 10.0001
vertex 104.039 80.6858 0.000103377
vertex 102.301 83.972 10.0001
endloop
endfacet
facet normal 0.884015 0.467459 0
outer loop
vertex 102.301 83.972 10.0001
vertex 104.039 80.6858 0.000103377
vertex 102.301 83.972 0.000103377
endloop
endfacet
facet normal 0.846839 0.531849 0
outer loop
vertex 102.301 83.972 10.0001
vertex 102.301 83.972 0.000103377
vertex 100.324 87.1201 10.0001
endloop
endfacet
facet normal 0.846839 0.531849 0
outer loop
vertex 100.324 87.1201 10.0001
vertex 102.301 83.972 0.000103377
vertex 100.324 87.1201 0.000103377
endloop
endfacet
facet normal -0.34202 0.939693 0
outer loop
vertex 112.732 83.8497 0.000103377
vertex 104.039 80.6858 0.000103377
vertex 112.732 83.8497 10.0001
endloop
endfacet
facet normal -0.34202 0.939693 0
outer loop
vertex 112.732 83.8497 10.0001
vertex 104.039 80.6858 0.000103377
vertex 104.039 80.6858 10.0001
endloop
endfacet
facet normal 0.939693 0.34202 0
outer loop
vertex 112.732 83.8497 10.0001
vertex 116.152 74.4527 10.0001
vertex 112.732 83.8497 0.000103377
endloop
endfacet
facet normal 0.939693 0.34202 0
outer loop
vertex 112.732 83.8497 0.000103377
vertex 116.152 74.4527 10.0001
vertex 116.152 74.4527 0.000103377
endloop
endfacet
facet normal 0.34202 -0.939693 0
outer loop
vertex 116.152 74.4527 10.0001
vertex 107.459 71.2888 10.0001
vertex 116.152 74.4527 0.000103377
endloop
endfacet
facet normal 0.34202 -0.939693 0
outer loop
vertex 116.152 74.4527 0.000103377
vertex 107.459 71.2888 10.0001
vertex 107.459 71.2888 0.000103377
endloop
endfacet
facet normal 0.990582 0.13692 0
outer loop
vertex 108.749 63.972 10.0001
vertex 108.749 63.972 0.000103377
vertex 108.24 67.6544 10.0001
endloop
endfacet
facet normal 0.990582 0.13692 0
outer loop
vertex 108.24 67.6544 10.0001
vertex 108.749 63.972 0.000103377
vertex 108.24 67.6544 0.000103377
endloop
endfacet
facet normal 0.977672 0.210139 0
outer loop
vertex 108.24 67.6544 10.0001
vertex 108.24 67.6544 0.000103377
vertex 107.459 71.2888 10.0001
endloop
endfacet
facet normal 0.977672 0.210139 0
outer loop
vertex 107.459 71.2888 10.0001
vertex 108.24 67.6544 0.000103377
vertex 107.459 71.2888 0.000103377
endloop
endfacet
facet normal 0 1 0
outer loop
vertex 118 63.972 0.000103377
vertex 108.749 63.972 0.000103377
vertex 118 63.972 10.0001
endloop
endfacet
facet normal 0 1 0
outer loop
vertex 118 63.972 10.0001
vertex 108.749 63.972 0.000103377
vertex 108.749 63.972 10.0001
endloop
endfacet
facet normal 1 0 0
outer loop
vertex 118 63.972 10.0001
vertex 118 53.972 10.0001
vertex 118 63.972 0.000103377
endloop
endfacet
facet normal 1 0 0
outer loop
vertex 118 63.972 0.000103377
vertex 118 53.972 10.0001
vertex 118 53.972 0.000103377
endloop
endfacet
facet normal 0 -1 0
outer loop
vertex 118 53.972 10.0001
vertex 108.749 53.972 10.0001
vertex 118 53.972 0.000103377
endloop
endfacet
facet normal 0 -1 0
outer loop
vertex 118 53.972 0.000103377
vertex 108.749 53.972 10.0001
vertex 108.749 53.972 0.000103377
endloop
endfacet
facet normal 0.977672 -0.210139 0
outer loop
vertex 107.459 46.6552 10.0001
vertex 107.459 46.6552 0.000103377
vertex 108.24 50.2896 10.0001
endloop
endfacet
facet normal 0.977672 -0.210139 0
outer loop
vertex 108.24 50.2896 10.0001
vertex 107.459 46.6552 0.000103377
vertex 108.24 50.2896 0.000103377
endloop
endfacet
facet normal 0.990582 -0.136919 0
outer loop
vertex 108.24 50.2896 10.0001
vertex 108.24 50.2896 0.000103377
vertex 108.749 53.972 10.0001
endloop
endfacet
facet normal 0.990582 -0.136919 0
outer loop
vertex 108.749 53.972 10.0001
vertex 108.24 50.2896 0.000103377
vertex 108.749 53.972 0.000103377
endloop
endfacet
facet normal 0.34202 0.939693 0
outer loop
vertex 116.152 43.4913 0.000103377
vertex 107.459 46.6552 0.000103377
vertex 116.152 43.4913 10.0001
endloop
endfacet
facet normal 0.34202 0.939693 0
outer loop
vertex 116.152 43.4913 10.0001
vertex 107.459 46.6552 0.000103377
vertex 107.459 46.6552 10.0001
endloop
endfacet
facet normal 0.939693 -0.34202 0
outer loop
vertex 116.152 43.4913 10.0001
vertex 112.732 34.0943 10.0001
vertex 116.152 43.4913 0.000103377
endloop
endfacet
facet normal 0.939693 -0.34202 0
outer loop
vertex 116.152 43.4913 0.000103377
vertex 112.732 34.0943 10.0001
vertex 112.732 34.0943 0.000103377
endloop
endfacet
facet normal -0.34202 -0.939693 0
outer loop
vertex 112.732 34.0943 10.0001
vertex 104.039 37.2583 10.0001
vertex 112.732 34.0943 0.000103377
endloop
endfacet
facet normal -0.34202 -0.939693 0
outer loop
vertex 112.732 34.0943 0.000103377
vertex 104.039 37.2583 10.0001
vertex 104.039 37.2583 0.000103377
endloop
endfacet
facet normal 0 0 -1
outer loop
vertex 10.5409 46.6552 0.000103377
vertex 9.75972 50.2896 0.000103377
vertex 9.25073 53.972 0.000103377
endloop
endfacet
facet normal 0 0 -1
outer loop
vertex 26.8607 20.6698 0.000103377
vertex 24.1038 23.1635 0.000103377
vertex 9.25073 53.972 0.000103377
endloop
endfacet
facet normal 0 0 -1
outer loop
vertex 24.1038 23.1635 0.000103377
vertex 17.0174 17.2173 0.000103377
vertex 10.5895 24.8778 0.000103377
endloop
endfacet
facet normal 0 0 -1
outer loop
vertex 13.9611 37.2583 0.000103377
vertex 5.26834 34.0943 0.000103377
vertex 1.84814 43.4913 0.000103377
endloop
endfacet
facet normal 0 0 -1
outer loop
vertex 1.84814 43.4913 0.000103377
vertex 10.5409 46.6552 0.000103377
vertex 13.9611 37.2583 0.000103377
endloop
endfacet
facet normal 0 0 -1
outer loop
vertex 13.9611 37.2583 0.000103377
vertex 10.5409 46.6552 0.000103377
vertex 9.25073 53.972 0.000103377
endloop
endfacet
facet normal 0 0 -1
outer loop
vertex 13.9611 37.2583 0.000103377
vertex 9.25073 53.972 0.000103377
vertex 15.6988 33.972 0.000103377
endloop
endfacet
facet normal 0 0 -1
outer loop
vertex 15.6988 33.972 0.000103377
vertex 9.25073 53.972 0.000103377
vertex 24.1038 23.1635 0.000103377
endloop
endfacet
facet normal 0 0 -1
outer loop
vertex 15.6988 33.972 0.000103377
vertex 24.1038 23.1635 0.000103377
vertex 17.6759 30.8239 0.000103377
endloop
endfacet
facet normal 0 0 -1
outer loop
vertex 17.6759 30.8239 0.000103377
vertex 24.1038 23.1635 0.000103377
vertex 10.5895 24.8778 0.000103377
endloop
endfacet
facet normal 0 0 -1
outer loop
vertex 116.152 43.4913 0.000103377
vertex 112.732 34.0943 0.000103377
vertex 107.459 46.6552 0.000103377
endloop
endfacet
facet normal 0 0 -1
outer loop
vertex 107.459 46.6552 0.000103377
vertex 112.732 34.0943 0.000103377
vertex 104.039 37.2583 0.000103377
endloop
endfacet
facet normal 0 0 -1
outer loop
vertex 107.459 46.6552 0.000103377
vertex 104.039 37.2583 0.000103377
vertex 108.24 50.2896 0.000103377
endloop
endfacet
facet normal 0 0 -1
outer loop
vertex 100.983 100.727 0.000103377
vertex 107.411 93.0662 0.000103377
vertex 93.8964 94.7805 0.000103377
endloop
endfacet
facet normal 0 0 -1
outer loop
vertex 93.8964 94.7805 0.000103377
vertex 107.411 93.0662 0.000103377
vertex 100.324 87.1201 0.000103377
endloop
endfacet
facet normal 0 0 -1
outer loop
vertex 93.8964 94.7805 0.000103377
vertex 100.324 87.1201 0.000103377
vertex 72.5001 60.472 0.000103377
endloop
endfacet
facet normal 0 0 -1
outer loop
vertex 100.324 30.8239 0.000103377
vertex 107.411 24.8778 0.000103377
vertex 100.983 17.2173 0.000103377
endloop
endfacet
facet normal 0 0 -1
outer loop
vertex 55.2853 9.11019 0.000103377
vertex 53.6789 0.000104308 0.000103377
vertex 43.8308 1.73659 0.000103377
endloop
endfacet
facet normal 0 0 -1
outer loop
vertex 74.1694 1.73659 0.000103377
vertex 64.3213 0.000104308 0.000103377
vertex 72.563 10.8467 0.000103377
endloop
endfacet
facet normal 0 0 -1
outer loop
vertex 72.563 10.8467 0.000103377
vertex 64.3213 0.000104308 0.000103377
vertex 62.715 9.11019 0.000103377
endloop
endfacet
facet normal 0 0 -1
outer loop
vertex 72.563 10.8467 0.000103377
vertex 62.715 9.11019 0.000103377
vertex 76.1011 11.9874 0.000103377
endloop
endfacet
facet normal 0 0 -1
outer loop
vertex 76.1011 11.9874 0.000103377
vertex 62.715 9.11019 0.000103377
vertex 100.324 30.8239 0.000103377
endloop
endfacet
facet normal 0 0 -1
outer loop
vertex 76.1011 11.9874 0.000103377
vertex 100.324 30.8239 0.000103377
vertex 79.5447 13.3878 0.000103377
endloop
endfacet
facet normal 0 0 -1
outer loop
vertex 0.000104308 53.972 0.000103377
vertex 0.000104308 63.972 0.000103377
vertex 9.25073 53.972 0.000103377
endloop
endfacet
facet normal 0 0 -1
outer loop
vertex 9.25073 53.972 0.000103377
vertex 0.000104308 63.972 0.000103377
vertex 55.2853 9.11019 0.000103377
endloop
endfacet
facet normal 0 0 -1
outer loop
vertex 33.8302 5.3765 0.000103377
vertex 25.17 10.3765 0.000103377
vertex 38.4555 13.3878 0.000103377
endloop
endfacet
facet normal 0 0 -1
outer loop
vertex 38.4555 13.3878 0.000103377
vertex 25.17 10.3765 0.000103377
vertex 29.7953 18.3878 0.000103377
endloop
endfacet
facet normal 0 0 -1
outer loop
vertex 108.749 53.972 0.000103377
vertex 108.24 50.2896 0.000103377
vertex 100.324 87.1201 0.000103377
endloop
endfacet
facet normal 0 0 -1
outer loop
vertex 100.324 87.1201 0.000103377
vertex 108.24 50.2896 0.000103377
vertex 104.039 37.2583 0.000103377
endloop
endfacet
facet normal 0 0 -1
outer loop
vertex 100.324 87.1201 0.000103377
vertex 104.039 37.2583 0.000103377
vertex 72.5001 60.472 0.000103377
endloop
endfacet
facet normal 0 0 -1
outer loop
vertex 72.5001 60.472 0.000103377
vertex 104.039 37.2583 0.000103377
vertex 102.301 33.972 0.000103377
endloop
endfacet
facet normal 0 0 -1
outer loop
vertex 72.5001 60.472 0.000103377
vertex 102.301 33.972 0.000103377
vertex 72.5001 57.472 0.000103377
endloop
endfacet
facet normal 0 0 -1
outer loop
vertex 72.5001 57.472 0.000103377
vertex 102.301 33.972 0.000103377
vertex 100.324 30.8239 0.000103377
endloop
endfacet
facet normal 0 0 -1
outer loop
vertex 92.8302 10.3765 0.000103377
vertex 84.17 5.3765 0.000103377
vertex 88.2049 18.3878 0.000103377
endloop
endfacet
facet normal 0 0 -1
outer loop
vertex 88.2049 18.3878 0.000103377
vertex 84.17 5.3765 0.000103377
vertex 79.5447 13.3878 0.000103377
endloop
endfacet
facet normal 0 0 -1
outer loop
vertex 88.2049 18.3878 0.000103377
vertex 79.5447 13.3878 0.000103377
vertex 91.1395 20.6698 0.000103377
endloop
endfacet
facet normal 0 0 -1
outer loop
vertex 91.1395 20.6698 0.000103377
vertex 79.5447 13.3878 0.000103377
vertex 100.324 30.8239 0.000103377
endloop
endfacet
facet normal 0 0 -1
outer loop
vertex 91.1395 20.6698 0.000103377
vertex 100.324 30.8239 0.000103377
vertex 93.8964 23.1635 0.000103377
endloop
endfacet
facet normal 0 0 -1
outer loop
vertex 93.8964 23.1635 0.000103377
vertex 100.324 30.8239 0.000103377
vertex 100.983 17.2173 0.000103377
endloop
endfacet
facet normal 0 0 -1
outer loop
vertex 55.2853 9.11019 0.000103377
vertex 53.1025 50.8962 0.000103377
vertex 54.562 50.0108 0.000103377
endloop
endfacet
facet normal 0 0 -1
outer loop
vertex 1.84814 74.4527 0.000103377
vertex 5.26834 83.8497 0.000103377
vertex 10.5409 71.2888 0.000103377
endloop
endfacet
facet normal 0 0 -1
outer loop
vertex 10.5409 71.2888 0.000103377
vertex 5.26834 83.8497 0.000103377
vertex 13.9611 80.6858 0.000103377
endloop
endfacet
facet normal 0 0 -1
outer loop
vertex 10.5409 71.2888 0.000103377
vertex 13.9611 80.6858 0.000103377
vertex 9.75972 67.6544 0.000103377
endloop
endfacet
facet normal 0 0 -1
outer loop
vertex 17.6759 87.1201 0.000103377
vertex 54.562 67.9332 0.000103377
vertex 53.1025 67.0478 0.000103377
endloop
endfacet
facet normal 0 0 -1
outer loop
vertex 100.324 30.8239 0.000103377
vertex 65.7176 51.5642 0.000103377
vertex 66.8797 52.8147 0.000103377
endloop
endfacet
facet normal 0 0 -1
outer loop
vertex 29.7953 18.3878 0.000103377
vertex 26.8607 20.6698 0.000103377
vertex 38.4555 13.3878 0.000103377
endloop
endfacet
facet normal 0 0 -1
outer loop
vertex 38.4555 13.3878 0.000103377
vertex 26.8607 20.6698 0.000103377
vertex 9.25073 53.972 0.000103377
endloop
endfacet
facet normal 0 0 -1
outer loop
vertex 38.4555 13.3878 0.000103377
vertex 9.25073 53.972 0.000103377
vertex 41.8991 11.9874 0.000103377
endloop
endfacet
facet normal 0 0 -1
outer loop
vertex 41.8991 11.9874 0.000103377
vertex 9.25073 53.972 0.000103377
vertex 55.2853 9.11019 0.000103377
endloop
endfacet
facet normal 0 0 -1
outer loop
vertex 41.8991 11.9874 0.000103377
vertex 55.2853 9.11019 0.000103377
vertex 45.4372 10.8467 0.000103377
endloop
endfacet
facet normal 0 0 -1
outer loop
vertex 45.4372 10.8467 0.000103377
vertex 55.2853 9.11019 0.000103377
vertex 43.8308 1.73659 0.000103377
endloop
endfacet
facet normal 0 0 -1
outer loop
vertex 112.732 83.8497 0.000103377
vertex 116.152 74.4527 0.000103377
vertex 104.039 80.6858 0.000103377
endloop
endfacet
facet normal 0 0 -1
outer loop
vertex 104.039 80.6858 0.000103377
vertex 116.152 74.4527 0.000103377
vertex 107.459 71.2888 0.000103377
endloop
endfacet
facet normal 0 0 -1
outer loop
vertex 118 63.972 0.000103377
vertex 118 53.972 0.000103377
vertex 108.749 63.972 0.000103377
endloop
endfacet
facet normal 0 0 -1
outer loop
vertex 108.749 63.972 0.000103377
vertex 118 53.972 0.000103377
vertex 108.749 53.972 0.000103377
endloop
endfacet
facet normal 0 0 -1
outer loop
vertex 108.749 63.972 0.000103377
vertex 108.749 53.972 0.000103377
vertex 108.24 67.6544 0.000103377
endloop
endfacet
facet normal 0 0 -1
outer loop
vertex 108.24 67.6544 0.000103377
vertex 108.749 53.972 0.000103377
vertex 100.324 87.1201 0.000103377
endloop
endfacet
facet normal 0 0 -1
outer loop
vertex 108.24 67.6544 0.000103377
vertex 100.324 87.1201 0.000103377
vertex 107.459 71.2888 0.000103377
endloop
endfacet
facet normal 0 0 -1
outer loop
vertex 107.459 71.2888 0.000103377
vertex 100.324 87.1201 0.000103377
vertex 102.301 83.972 0.000103377
endloop
endfacet
facet normal 0 0 -1
outer loop
vertex 107.459 71.2888 0.000103377
vertex 102.301 83.972 0.000103377
vertex 104.039 80.6858 0.000103377
endloop
endfacet
facet normal 0 0 -1
outer loop
vertex 10.5895 93.0662 0.000103377
vertex 17.0174 100.727 0.000103377
vertex 17.6759 87.1201 0.000103377
endloop
endfacet
facet normal 0 0 -1
outer loop
vertex 17.6759 87.1201 0.000103377
vertex 17.0174 100.727 0.000103377
vertex 24.1038 94.7805 0.000103377
endloop
endfacet
facet normal 0 0 -1
outer loop
vertex 17.6759 87.1201 0.000103377
vertex 24.1038 94.7805 0.000103377
vertex 26.8607 97.2742 0.000103377
endloop
endfacet
facet normal 0 0 -1
outer loop
vertex 25.17 107.568 0.000103377
vertex 33.8302 112.567 0.000103377
vertex 29.7953 99.5562 0.000103377
endloop
endfacet
facet normal 0 0 -1
outer loop
vertex 29.7953 99.5562 0.000103377
vertex 33.8302 112.567 0.000103377
vertex 38.4555 104.556 0.000103377
endloop
endfacet
facet normal 0 0 -1
outer loop
vertex 29.7953 99.5562 0.000103377
vertex 38.4555 104.556 0.000103377
vertex 26.8607 97.2742 0.000103377
endloop
endfacet
facet normal 0 0 -1
outer loop
vertex 54.562 50.0108 0.000103377
vertex 56.1508 49.3865 0.000103377
vertex 55.2853 9.11019 0.000103377
endloop
endfacet
facet normal 0 0 -1
outer loop
vertex 55.2853 9.11019 0.000103377
vertex 56.1508 49.3865 0.000103377
vertex 57.8227 49.0416 0.000103377
endloop
endfacet
facet normal 0 0 -1
outer loop
vertex 55.2853 9.11019 0.000103377
vertex 57.8227 49.0416 0.000103377
vertex 59.0001 8.972 0.000103377
endloop
endfacet
facet normal 0 0 -1
outer loop
vertex 59.0001 8.972 0.000103377
vertex 57.8227 49.0416 0.000103377
vertex 59.5289 48.986 0.000103377
endloop
endfacet
facet normal 0 0 -1
outer loop
vertex 59.0001 8.972 0.000103377
vertex 59.5289 48.986 0.000103377
vertex 62.715 9.11019 0.000103377
endloop
endfacet
facet normal 0 0 -1
outer loop
vertex 68.887 57.472 0.000103377
vertex 72.5001 57.472 0.000103377
vertex 68.4878 55.8123 0.000103377
endloop
endfacet
facet normal 0 0 -1
outer loop
vertex 68.4878 55.8123 0.000103377
vertex 72.5001 57.472 0.000103377
vertex 100.324 30.8239 0.000103377
endloop
endfacet
facet normal 0 0 -1
outer loop
vertex 68.4878 55.8123 0.000103377
vertex 100.324 30.8239 0.000103377
vertex 67.8121 54.2446 0.000103377
endloop
endfacet
facet normal 0 0 -1
outer loop
vertex 67.8121 54.2446 0.000103377
vertex 100.324 30.8239 0.000103377
vertex 66.8797 52.8147 0.000103377
endloop
endfacet
facet normal 0 0 -1
outer loop
vertex 72.5001 60.472 0.000103377
vertex 68.887 60.472 0.000103377
vertex 93.8964 94.7805 0.000103377
endloop
endfacet
facet normal 0 0 -1
outer loop
vertex 93.8964 94.7805 0.000103377
vertex 68.887 60.472 0.000103377
vertex 68.4878 62.1317 0.000103377
endloop
endfacet
facet normal 0 0 -1
outer loop
vertex 93.8964 94.7805 0.000103377
vertex 68.4878 62.1317 0.000103377
vertex 67.8121 63.6994 0.000103377
endloop
endfacet
facet normal 0 0 -1
outer loop
vertex 49.3269 56.4363 0.000103377
vertex 49.8992 54.8279 0.000103377
vertex 0.000104308 63.972 0.000103377
endloop
endfacet
facet normal 0 0 -1
outer loop
vertex 0.000104308 63.972 0.000103377
vertex 49.8992 54.8279 0.000103377
vertex 50.7366 53.3404 0.000103377
endloop
endfacet
facet normal 0 0 -1
outer loop
vertex 0.000104308 63.972 0.000103377
vertex 50.7366 53.3404 0.000103377
vertex 55.2853 9.11019 0.000103377
endloop
endfacet
facet normal 0 0 -1
outer loop
vertex 55.2853 9.11019 0.000103377
vertex 50.7366 53.3404 0.000103377
vertex 51.8149 52.017 0.000103377
endloop
endfacet
facet normal 0 0 -1
outer loop
vertex 55.2853 9.11019 0.000103377
vertex 51.8149 52.017 0.000103377
vertex 53.1025 50.8962 0.000103377
endloop
endfacet
facet normal 0 0 -1
outer loop
vertex 59.5289 48.986 0.000103377
vertex 61.2196 49.2214 0.000103377
vertex 62.715 9.11019 0.000103377
endloop
endfacet
facet normal 0 0 -1
outer loop
vertex 62.715 9.11019 0.000103377
vertex 61.2196 49.2214 0.000103377
vertex 62.8457 49.741 0.000103377
endloop
endfacet
facet normal 0 0 -1
outer loop
vertex 62.715 9.11019 0.000103377
vertex 62.8457 49.741 0.000103377
vertex 100.324 30.8239 0.000103377
endloop
endfacet
facet normal 0 0 -1
outer loop
vertex 100.324 30.8239 0.000103377
vertex 62.8457 49.741 0.000103377
vertex 64.3597 50.5296 0.000103377
endloop
endfacet
facet normal 0 0 -1
outer loop
vertex 100.324 30.8239 0.000103377
vertex 64.3597 50.5296 0.000103377
vertex 65.7176 51.5642 0.000103377
endloop
endfacet
facet normal 0 0 -1
outer loop
vertex 91.1395 97.2742 0.000103377
vertex 62.8457 68.203 0.000103377
vertex 61.2196 68.7226 0.000103377
endloop
endfacet
facet normal 0 0 -1
outer loop
vertex 53.1025 67.0478 0.000103377
vertex 51.8149 65.927 0.000103377
vertex 17.6759 87.1201 0.000103377
endloop
endfacet
facet normal 0 0 -1
outer loop
vertex 17.6759 87.1201 0.000103377
vertex 51.8149 65.927 0.000103377
vertex 50.7366 64.6036 0.000103377
endloop
endfacet
facet normal 0 0 -1
outer loop
vertex 17.6759 87.1201 0.000103377
vertex 50.7366 64.6036 0.000103377
vertex 15.6988 83.972 0.000103377
endloop
endfacet
facet normal 0 0 -1
outer loop
vertex 15.6988 83.972 0.000103377
vertex 50.7366 64.6036 0.000103377
vertex 49.8992 63.1161 0.000103377
endloop
endfacet
facet normal 0 0 -1
outer loop
vertex 15.6988 83.972 0.000103377
vertex 49.8992 63.1161 0.000103377
vertex 13.9611 80.6858 0.000103377
endloop
endfacet
facet normal 0 0 -1
outer loop
vertex 13.9611 80.6858 0.000103377
vertex 49.8992 63.1161 0.000103377
vertex 9.25073 63.972 0.000103377
endloop
endfacet
facet normal 0 0 -1
outer loop
vertex 13.9611 80.6858 0.000103377
vertex 9.25073 63.972 0.000103377
vertex 9.75972 67.6544 0.000103377
endloop
endfacet
facet normal 0 0 -1
outer loop
vertex 43.8308 116.207 0.000103377
vertex 53.6789 117.944 0.000103377
vertex 45.4372 107.097 0.000103377
endloop
endfacet
facet normal 0 0 -1
outer loop
vertex 45.4372 107.097 0.000103377
vertex 53.6789 117.944 0.000103377
vertex 55.2853 108.834 0.000103377
endloop
endfacet
facet normal 0 0 -1
outer loop
vertex 45.4372 107.097 0.000103377
vertex 55.2853 108.834 0.000103377
vertex 59.0001 108.972 0.000103377
endloop
endfacet
facet normal 0 0 -1
outer loop
vertex 64.3213 117.944 0.000103377
vertex 74.1694 116.207 0.000103377
vertex 62.715 108.834 0.000103377
endloop
endfacet
facet normal 0 0 -1
outer loop
vertex 62.715 108.834 0.000103377
vertex 74.1694 116.207 0.000103377
vertex 72.563 107.097 0.000103377
endloop
endfacet
facet normal 0 0 -1
outer loop
vertex 76.1011 105.957 0.000103377
vertex 45.4372 107.097 0.000103377
vertex 72.563 107.097 0.000103377
endloop
endfacet
facet normal 0 0 -1
outer loop
vertex 72.563 107.097 0.000103377
vertex 45.4372 107.097 0.000103377
vertex 59.0001 108.972 0.000103377
endloop
endfacet
facet normal 0 0 -1
outer loop
vertex 72.563 107.097 0.000103377
vertex 59.0001 108.972 0.000103377
vertex 62.715 108.834 0.000103377
endloop
endfacet
facet normal 0 0 -1
outer loop
vertex 84.17 112.567 0.000103377
vertex 92.8302 107.568 0.000103377
vertex 79.5447 104.556 0.000103377
endloop
endfacet
facet normal 0 0 -1
outer loop
vertex 79.5447 104.556 0.000103377
vertex 92.8302 107.568 0.000103377
vertex 88.2049 99.5562 0.000103377
endloop
endfacet
facet normal 0 0 -1
outer loop
vertex 67.8121 63.6994 0.000103377
vertex 66.8797 65.1293 0.000103377
vertex 93.8964 94.7805 0.000103377
endloop
endfacet
facet normal 0 0 -1
outer loop
vertex 93.8964 94.7805 0.000103377
vertex 66.8797 65.1293 0.000103377
vertex 65.7176 66.3798 0.000103377
endloop
endfacet
facet normal 0 0 -1
outer loop
vertex 93.8964 94.7805 0.000103377
vertex 65.7176 66.3798 0.000103377
vertex 91.1395 97.2742 0.000103377
endloop
endfacet
facet normal 0 0 -1
outer loop
vertex 91.1395 97.2742 0.000103377
vertex 65.7176 66.3798 0.000103377
vertex 64.3597 67.4144 0.000103377
endloop
endfacet
facet normal 0 0 -1
outer loop
vertex 91.1395 97.2742 0.000103377
vertex 64.3597 67.4144 0.000103377
vertex 62.8457 68.203 0.000103377
endloop
endfacet
facet normal 0 0 -1
outer loop
vertex 49.8992 63.1161 0.000103377
vertex 49.3269 61.5077 0.000103377
vertex 9.25073 63.972 0.000103377
endloop
endfacet
facet normal 0 0 -1
outer loop
vertex 9.25073 63.972 0.000103377
vertex 49.3269 61.5077 0.000103377
vertex 49.0366 59.8255 0.000103377
endloop
endfacet
facet normal 0 0 -1
outer loop
vertex 9.25073 63.972 0.000103377
vertex 49.0366 59.8255 0.000103377
vertex 0.000104308 63.972 0.000103377
endloop
endfacet
facet normal 0 0 -1
outer loop
vertex 0.000104308 63.972 0.000103377
vertex 49.0366 59.8255 0.000103377
vertex 49.0366 58.1185 0.000103377
endloop
endfacet
facet normal 0 0 -1
outer loop
vertex 0.000104308 63.972 0.000103377
vertex 49.0366 58.1185 0.000103377
vertex 49.3269 56.4363 0.000103377
endloop
endfacet
facet normal 0 0 -1
outer loop
vertex 26.8607 97.2742 0.000103377
vertex 38.4555 104.556 0.000103377
vertex 17.6759 87.1201 0.000103377
endloop
endfacet
facet normal 0 0 -1
outer loop
vertex 17.6759 87.1201 0.000103377
vertex 38.4555 104.556 0.000103377
vertex 41.8991 105.957 0.000103377
endloop
endfacet
facet normal 0 0 -1
outer loop
vertex 17.6759 87.1201 0.000103377
vertex 41.8991 105.957 0.000103377
vertex 91.1395 97.2742 0.000103377
endloop
endfacet
facet normal 0 0 -1
outer loop
vertex 91.1395 97.2742 0.000103377
vertex 41.8991 105.957 0.000103377
vertex 45.4372 107.097 0.000103377
endloop
endfacet
facet normal 0 0 -1
outer loop
vertex 91.1395 97.2742 0.000103377
vertex 45.4372 107.097 0.000103377
vertex 88.2049 99.5562 0.000103377
endloop
endfacet
facet normal 0 0 -1
outer loop
vertex 88.2049 99.5562 0.000103377
vertex 45.4372 107.097 0.000103377
vertex 76.1011 105.957 0.000103377
endloop
endfacet
facet normal 0 0 -1
outer loop
vertex 88.2049 99.5562 0.000103377
vertex 76.1011 105.957 0.000103377
vertex 79.5447 104.556 0.000103377
endloop
endfacet
facet normal 0 0 -1
outer loop
vertex 61.2196 68.7226 0.000103377
vertex 59.5289 68.958 0.000103377
vertex 91.1395 97.2742 0.000103377
endloop
endfacet
facet normal 0 0 -1
outer loop
vertex 91.1395 97.2742 0.000103377
vertex 59.5289 68.958 0.000103377
vertex 57.8227 68.9025 0.000103377
endloop
endfacet
facet normal 0 0 -1
outer loop
vertex 91.1395 97.2742 0.000103377
vertex 57.8227 68.9025 0.000103377
vertex 17.6759 87.1201 0.000103377
endloop
endfacet
facet normal 0 0 -1
outer loop
vertex 17.6759 87.1201 0.000103377
vertex 57.8227 68.9025 0.000103377
vertex 56.1508 68.5575 0.000103377
endloop
endfacet
facet normal 0 0 -1
outer loop
vertex 17.6759 87.1201 0.000103377
vertex 56.1508 68.5575 0.000103377
vertex 54.562 67.9332 0.000103377
endloop
endfacet
endsolid
