solid C:\Temp\NOELParts\STEPCLAMP1.STL created by CtrlView V2.70
facet normal 0 0 1
outer loop
vertex 2187.5 1000 375
vertex 2187.5 0 375
vertex 2265.63 1000 375
endloop
endfacet
facet normal 0 0 1
outer loop
vertex 2265.63 1000 375
vertex 2187.5 0 375
vertex 2265.63 0 375
endloop
endfacet
facet normal 1 0 0
outer loop
vertex 2265.63 1000 250
vertex 2265.63 1000 375
vertex 2265.63 0 250
endloop
endfacet
facet normal 1 0 0
outer loop
vertex 2265.63 0 250
vertex 2265.63 1000 375
vertex 2265.63 0 375
endloop
endfacet
facet normal 0 0 1
outer loop
vertex 2265.63 1000 250
vertex 2265.63 0 250
vertex 2343.75 1000 250
endloop
endfacet
facet normal 0 0 1
outer loop
vertex 2343.75 1000 250
vertex 2265.63 0 250
vertex 2343.75 0 250
endloop
endfacet
facet normal 1 0 0
outer loop
vertex 2343.75 1000 125
vertex 2343.75 1000 250
vertex 2343.75 0 125
endloop
endfacet
facet normal 1 0 0
outer loop
vertex 2343.75 0 125
vertex 2343.75 1000 250
vertex 2343.75 0 250
endloop
endfacet
facet normal 0 0 1
outer loop
vertex 2343.75 1000 125
vertex 2343.75 0 125
vertex 2421.88 1000 125
endloop
endfacet
facet normal 0 0 1
outer loop
vertex 2421.88 1000 125
vertex 2343.75 0 125
vertex 2421.88 0 125
endloop
endfacet
facet normal 0.847998 9.50857e-018 0.529999
outer loop
vertex 2500 1000 1.94289e-013
vertex 2421.88 1000 125
vertex 2500 0 2.1223e-013
endloop
endfacet
facet normal 0.847998 0 0.529999
outer loop
vertex 2500 0 2.1223e-013
vertex 2421.88 1000 125
vertex 2421.88 0 125
endloop
endfacet
facet normal 0 0 -1
outer loop
vertex 662.944 446.3 1.94289e-013
vertex 674.675 412.129 1.94289e-013
vertex 437.5 0 1.94289e-013
endloop
endfacet
facet normal 0 0 -1
outer loop
vertex 437.5 0 1.94289e-013
vertex 674.675 412.129 1.94289e-013
vertex 691.87 380.355 1.94289e-013
endloop
endfacet
facet normal 0 0 -1
outer loop
vertex 437.5 0 1.94289e-013
vertex 691.87 380.355 1.94289e-013
vertex 714.06 351.845 1.94289e-013
endloop
endfacet
facet normal 1.73547e-017 -1.88523e-017 -1
outer loop
vertex 1821.86 327.376 1.94289e-013
vertex 1848.44 351.845 1.94289e-013
vertex 2500 0 2.1223e-013
endloop
endfacet
facet normal 1.93868e-017 -1.50893e-017 -1
outer loop
vertex 2500 0 2.1223e-013
vertex 1848.44 351.845 1.94289e-013
vertex 1870.63 380.355 1.94289e-013
endloop
endfacet
facet normal 2.14806e-017 -1.16247e-017 -1
outer loop
vertex 2500 0 2.1223e-013
vertex 1870.63 380.355 1.94289e-013
vertex 1887.83 412.129 1.94289e-013
endloop
endfacet
facet normal 2.38048e-017 -8.17225e-018 -1
outer loop
vertex 1887.83 412.129 1.94289e-013
vertex 1899.56 446.3 1.94289e-013
vertex 2500 0 2.1223e-013
endloop
endfacet
facet normal 2.65821e-017 -4.43584e-018 -1
outer loop
vertex 2500 0 2.1223e-013
vertex 1899.56 446.3 1.94289e-013
vertex 1905.5 481.936 1.94289e-013
endloop
endfacet
facet normal 1.56342e-017 -1.79407e-017 -1
outer loop
vertex 2500 0 2.1223e-013
vertex 1905.5 481.936 1.94289e-013
vertex 2500 1000 1.94289e-013
endloop
endfacet
facet normal 0 0 -1
outer loop
vertex 2500 1000 1.94289e-013
vertex 1905.5 481.936 1.94289e-013
vertex 1905.5 518.064 1.94289e-013
endloop
endfacet
facet normal 0 0 -1
outer loop
vertex 2500 1000 1.94289e-013
vertex 1905.5 518.064 1.94289e-013
vertex 1899.56 553.7 1.94289e-013
endloop
endfacet
facet normal 0 0 -1
outer loop
vertex 714.06 351.845 1.94289e-013
vertex 740.641 327.376 1.94289e-013
vertex 437.5 0 1.94289e-013
endloop
endfacet
facet normal 0 0 -1
outer loop
vertex 437.5 0 1.94289e-013
vertex 740.641 327.376 1.94289e-013
vertex 770.886 307.615 1.94289e-013
endloop
endfacet
facet normal 0 0 -1
outer loop
vertex 437.5 0 1.94289e-013
vertex 770.886 307.615 1.94289e-013
vertex 803.972 293.103 1.94289e-013
endloop
endfacet
facet normal 9.44795e-018 -3.7309e-017 -1
outer loop
vertex 1723.51 284.233 1.94289e-013
vertex 1758.53 293.103 1.94289e-013
vertex 2500 0 2.1223e-013
endloop
endfacet
facet normal 1.27268e-017 -2.90143e-017 -1
outer loop
vertex 2500 0 2.1223e-013
vertex 1758.53 293.103 1.94289e-013
vertex 1791.61 307.615 1.94289e-013
endloop
endfacet
facet normal 1.5214e-017 -2.32868e-017 -1
outer loop
vertex 2500 0 2.1223e-013
vertex 1791.61 307.615 1.94289e-013
vertex 1821.86 327.376 1.94289e-013
endloop
endfacet
facet normal 0 0 -1
outer loop
vertex 1899.56 553.7 1.94289e-013
vertex 1887.83 587.871 1.94289e-013
vertex 2500 1000 1.94289e-013
endloop
endfacet
facet normal 0 0 -1
outer loop
vertex 2500 1000 1.94289e-013
vertex 1887.83 587.871 1.94289e-013
vertex 1870.63 619.645 1.94289e-013
endloop
endfacet
facet normal 0 0 -1
outer loop
vertex 2500 1000 1.94289e-013
vertex 1870.63 619.645 1.94289e-013
vertex 1848.44 648.155 1.94289e-013
endloop
endfacet
facet normal 0 0 -1
outer loop
vertex 1848.44 648.155 1.94289e-013
vertex 1821.86 672.624 1.94289e-013
vertex 2500 1000 1.94289e-013
endloop
endfacet
facet normal 0 0 -1
outer loop
vertex 2500 1000 1.94289e-013
vertex 1821.86 672.624 1.94289e-013
vertex 1791.61 692.385 1.94289e-013
endloop
endfacet
facet normal 0 0 -1
outer loop
vertex 2500 1000 1.94289e-013
vertex 1791.61 692.385 1.94289e-013
vertex 1758.53 706.898 1.94289e-013
endloop
endfacet
facet normal 0 0 -1
outer loop
vertex 838.995 715.767 1.94289e-013
vertex 803.972 706.898 1.94289e-013
vertex 437.5 1000 1.94289e-013
endloop
endfacet
facet normal 0 0 -1
outer loop
vertex 437.5 1000 1.94289e-013
vertex 803.972 706.898 1.94289e-013
vertex 770.886 692.385 1.94289e-013
endloop
endfacet
facet normal 0 0 -1
outer loop
vertex 437.5 1000 1.94289e-013
vertex 770.886 692.385 1.94289e-013
vertex 740.641 672.624 1.94289e-013
endloop
endfacet
facet normal 0 0 -1
outer loop
vertex 674.675 587.871 1.94289e-013
vertex 662.944 553.7 1.94289e-013
vertex 437.5 1000 1.94289e-013
endloop
endfacet
facet normal 0 0 -1
outer loop
vertex 437.5 1000 1.94289e-013
vertex 662.944 553.7 1.94289e-013
vertex 656.997 518.064 1.94289e-013
endloop
endfacet
facet normal 0 0 -1
outer loop
vertex 437.5 1000 1.94289e-013
vertex 656.997 518.064 1.94289e-013
vertex 437.5 0 1.94289e-013
endloop
endfacet
facet normal 0 0 -1
outer loop
vertex 437.5 0 1.94289e-013
vertex 656.997 518.064 1.94289e-013
vertex 656.997 481.936 1.94289e-013
endloop
endfacet
facet normal 0 0 -1
outer loop
vertex 437.5 0 1.94289e-013
vertex 656.997 481.936 1.94289e-013
vertex 662.944 446.3 1.94289e-013
endloop
endfacet
facet normal 0 0 -1
outer loop
vertex 803.972 293.103 1.94289e-013
vertex 838.995 284.233 1.94289e-013
vertex 437.5 0 1.94289e-013
endloop
endfacet
facet normal 0 0 -1
outer loop
vertex 437.5 0 1.94289e-013
vertex 838.995 284.233 1.94289e-013
vertex 875 281.25 1.94289e-013
endloop
endfacet
facet normal 8.69854e-018 -1.35311e-017 -1
outer loop
vertex 437.5 0 1.94289e-013
vertex 875 281.25 1.94289e-013
vertex 2500 0 2.1223e-013
endloop
endfacet
facet normal 0 -6.37893e-017 -1
outer loop
vertex 2500 0 2.1223e-013
vertex 875 281.25 1.94289e-013
vertex 1687.5 281.25 1.94289e-013
endloop
endfacet
facet normal 4.26482e-018 -5.14687e-017 -1
outer loop
vertex 2500 0 2.1223e-013
vertex 1687.5 281.25 1.94289e-013
vertex 1723.51 284.233 1.94289e-013
endloop
endfacet
facet normal 0 0 -1
outer loop
vertex 1758.53 706.898 1.94289e-013
vertex 1723.51 715.767 1.94289e-013
vertex 2500 1000 1.94289e-013
endloop
endfacet
facet normal 0 0 -1
outer loop
vertex 2500 1000 1.94289e-013
vertex 1723.51 715.767 1.94289e-013
vertex 1687.5 718.75 1.94289e-013
endloop
endfacet
facet normal 0 0 -1
outer loop
vertex 2500 1000 1.94289e-013
vertex 1687.5 718.75 1.94289e-013
vertex 437.5 1000 1.94289e-013
endloop
endfacet
facet normal 0 0 -1
outer loop
vertex 437.5 1000 1.94289e-013
vertex 1687.5 718.75 1.94289e-013
vertex 875 718.75 1.94289e-013
endloop
endfacet
facet normal 0 0 -1
outer loop
vertex 437.5 1000 1.94289e-013
vertex 875 718.75 1.94289e-013
vertex 838.995 715.767 1.94289e-013
endloop
endfacet
facet normal 0 0 -1
outer loop
vertex 740.641 672.624 1.94289e-013
vertex 714.06 648.155 1.94289e-013
vertex 437.5 1000 1.94289e-013
endloop
endfacet
facet normal 0 0 -1
outer loop
vertex 437.5 1000 1.94289e-013
vertex 714.06 648.155 1.94289e-013
vertex 691.87 619.645 1.94289e-013
endloop
endfacet
facet normal 0 0 -1
outer loop
vertex 437.5 1000 1.94289e-013
vertex 691.87 619.645 1.94289e-013
vertex 674.675 587.871 1.94289e-013
endloop
endfacet
facet normal -0.496139 0 -0.868243
outer loop
vertex 2.73926e-013 281.25 250
vertex 2.9485e-013 718.75 250
vertex 437.5 0 1.94289e-013
endloop
endfacet
facet normal -0.496139 0 -0.868243
outer loop
vertex 437.5 0 1.94289e-013
vertex 2.9485e-013 718.75 250
vertex 437.5 1000 1.94289e-013
endloop
endfacet
facet normal 0 -1 0
outer loop
vertex 875 718.75 1.94289e-013
vertex 1687.5 718.75 1.94289e-013
vertex 875 718.75 500
endloop
endfacet
facet normal 0 -1 0
outer loop
vertex 875 718.75 500
vertex 1687.5 718.75 1.94289e-013
vertex 1687.5 718.75 500
endloop
endfacet
facet normal -0.0825793 0.996584 0
outer loop
vertex 1687.5 281.25 1.94289e-013
vertex 1687.5 281.25 500
vertex 1723.51 284.233 1.94289e-013
endloop
endfacet
facet normal -0.0825793 0.996584 0
outer loop
vertex 1723.51 284.233 1.94289e-013
vertex 1687.5 281.25 500
vertex 1723.51 284.233 500
endloop
endfacet
facet normal -0.245486 0.9694 0
outer loop
vertex 1723.51 284.233 1.94289e-013
vertex 1723.51 284.233 500
vertex 1758.53 293.103 1.94289e-013
endloop
endfacet
facet normal -0.245486 0.9694 0
outer loop
vertex 1758.53 293.103 1.94289e-013
vertex 1723.51 284.233 500
vertex 1758.53 293.103 500
endloop
endfacet
facet normal -0.401695 0.915774 0
outer loop
vertex 1758.53 293.103 1.94289e-013
vertex 1758.53 293.103 500
vertex 1791.61 307.615 1.94289e-013
endloop
endfacet
facet normal -0.401695 0.915774 0
outer loop
vertex 1791.61 307.615 1.94289e-013
vertex 1758.53 293.103 500
vertex 1791.61 307.615 500
endloop
endfacet
facet normal -0.546948 0.837167 0
outer loop
vertex 1791.61 307.615 1.94289e-013
vertex 1791.61 307.615 500
vertex 1821.86 327.376 1.94289e-013
endloop
endfacet
facet normal -0.546948 0.837167 0
outer loop
vertex 1821.86 327.376 1.94289e-013
vertex 1791.61 307.615 500
vertex 1821.86 327.376 500
endloop
endfacet
facet normal -0.677282 0.735724 0
outer loop
vertex 1821.86 327.376 1.94289e-013
vertex 1821.86 327.376 500
vertex 1848.44 351.845 1.94289e-013
endloop
endfacet
facet normal -0.677282 0.735724 0
outer loop
vertex 1848.44 351.845 1.94289e-013
vertex 1821.86 327.376 500
vertex 1848.44 351.845 500
endloop
endfacet
facet normal -0.789141 0.614212 0
outer loop
vertex 1848.44 351.845 1.94289e-013
vertex 1848.44 351.845 500
vertex 1870.63 380.355 1.94289e-013
endloop
endfacet
facet normal -0.789141 0.614212 0
outer loop
vertex 1870.63 380.355 1.94289e-013
vertex 1848.44 351.845 500
vertex 1870.63 380.355 500
endloop
endfacet
facet normal -0.879474 0.475947 0
outer loop
vertex 1870.63 380.355 1.94289e-013
vertex 1870.63 380.355 500
vertex 1887.83 412.129 1.94289e-013
endloop
endfacet
facet normal -0.879474 0.475947 0
outer loop
vertex 1887.83 412.129 1.94289e-013
vertex 1870.63 380.355 500
vertex 1887.83 412.129 500
endloop
endfacet
facet normal -0.945817 0.324701 0
outer loop
vertex 1887.83 412.129 1.94289e-013
vertex 1887.83 412.129 500
vertex 1899.56 446.3 1.94289e-013
endloop
endfacet
facet normal -0.945817 0.324701 0
outer loop
vertex 1899.56 446.3 1.94289e-013
vertex 1887.83 412.129 500
vertex 1899.56 446.3 500
endloop
endfacet
facet normal -0.986361 0.164597 0
outer loop
vertex 1899.56 446.3 1.94289e-013
vertex 1899.56 446.3 500
vertex 1905.5 481.936 1.94289e-013
endloop
endfacet
facet normal -0.986361 0.164597 0
outer loop
vertex 1905.5 481.936 1.94289e-013
vertex 1899.56 446.3 500
vertex 1905.5 481.936 500
endloop
endfacet
facet normal -1 0 0
outer loop
vertex 1905.5 481.936 1.94289e-013
vertex 1905.5 481.936 500
vertex 1905.5 518.064 1.94289e-013
endloop
endfacet
facet normal -1 0 0
outer loop
vertex 1905.5 518.064 1.94289e-013
vertex 1905.5 481.936 500
vertex 1905.5 518.064 500
endloop
endfacet
facet normal -0.986361 -0.164598 0
outer loop
vertex 1905.5 518.064 1.94289e-013
vertex 1905.5 518.064 500
vertex 1899.56 553.7 1.94289e-013
endloop
endfacet
facet normal -0.986361 -0.164598 0
outer loop
vertex 1899.56 553.7 1.94289e-013
vertex 1905.5 518.064 500
vertex 1899.56 553.7 500
endloop
endfacet
facet normal -0.945817 -0.324701 0
outer loop
vertex 1899.56 553.7 1.94289e-013
vertex 1899.56 553.7 500
vertex 1887.83 587.871 1.94289e-013
endloop
endfacet
facet normal -0.945817 -0.324701 0
outer loop
vertex 1887.83 587.871 1.94289e-013
vertex 1899.56 553.7 500
vertex 1887.83 587.871 500
endloop
endfacet
facet normal -0.879474 -0.475946 0
outer loop
vertex 1887.83 587.871 1.94289e-013
vertex 1887.83 587.871 500
vertex 1870.63 619.645 1.94289e-013
endloop
endfacet
facet normal -0.879474 -0.475946 0
outer loop
vertex 1870.63 619.645 1.94289e-013
vertex 1887.83 587.871 500
vertex 1870.63 619.645 500
endloop
endfacet
facet normal -0.789141 -0.614213 0
outer loop
vertex 1870.63 619.645 1.94289e-013
vertex 1870.63 619.645 500
vertex 1848.44 648.155 1.94289e-013
endloop
endfacet
facet normal -0.789141 -0.614213 0
outer loop
vertex 1848.44 648.155 1.94289e-013
vertex 1870.63 619.645 500
vertex 1848.44 648.155 500
endloop
endfacet
facet normal -0.677281 -0.735724 0
outer loop
vertex 1848.44 648.155 1.94289e-013
vertex 1848.44 648.155 500
vertex 1821.86 672.624 1.94289e-013
endloop
endfacet
facet normal -0.677281 -0.735724 0
outer loop
vertex 1821.86 672.624 1.94289e-013
vertex 1848.44 648.155 500
vertex 1821.86 672.624 500
endloop
endfacet
facet normal -0.546947 -0.837167 0
outer loop
vertex 1821.86 672.624 1.94289e-013
vertex 1821.86 672.624 500
vertex 1791.61 692.385 1.94289e-013
endloop
endfacet
facet normal -0.546947 -0.837167 0
outer loop
vertex 1791.61 692.385 1.94289e-013
vertex 1821.86 672.624 500
vertex 1791.61 692.385 500
endloop
endfacet
facet normal -0.401697 -0.915773 0
outer loop
vertex 1791.61 692.385 1.94289e-013
vertex 1791.61 692.385 500
vertex 1758.53 706.898 1.94289e-013
endloop
endfacet
facet normal -0.401697 -0.915773 0
outer loop
vertex 1758.53 706.898 1.94289e-013
vertex 1791.61 692.385 500
vertex 1758.53 706.898 500
endloop
endfacet
facet normal -0.245486 -0.9694 0
outer loop
vertex 1758.53 706.898 1.94289e-013
vertex 1758.53 706.898 500
vertex 1723.51 715.767 1.94289e-013
endloop
endfacet
facet normal -0.245486 -0.9694 0
outer loop
vertex 1723.51 715.767 1.94289e-013
vertex 1758.53 706.898 500
vertex 1723.51 715.767 500
endloop
endfacet
facet normal -0.0825793 -0.996584 0
outer loop
vertex 1723.51 715.767 1.94289e-013
vertex 1723.51 715.767 500
vertex 1687.5 718.75 1.94289e-013
endloop
endfacet
facet normal -0.0825793 -0.996584 0
outer loop
vertex 1687.5 718.75 1.94289e-013
vertex 1723.51 715.767 500
vertex 1687.5 718.75 500
endloop
endfacet
facet normal 0 1 0
outer loop
vertex 1687.5 281.25 1.94289e-013
vertex 875 281.25 1.94289e-013
vertex 1687.5 281.25 500
endloop
endfacet
facet normal 0 1 0
outer loop
vertex 1687.5 281.25 500
vertex 875 281.25 1.94289e-013
vertex 875 281.25 500
endloop
endfacet
facet normal 0.0825792 -0.996585 0
outer loop
vertex 875 718.75 1.94289e-013
vertex 875 718.75 500
vertex 838.995 715.767 1.94289e-013
endloop
endfacet
facet normal 0.0825792 -0.996585 0
outer loop
vertex 838.995 715.767 1.94289e-013
vertex 875 718.75 500
vertex 838.995 715.767 500
endloop
endfacet
facet normal 0.245486 -0.9694 0
outer loop
vertex 838.995 715.767 1.94289e-013
vertex 838.995 715.767 500
vertex 803.972 706.898 1.94289e-013
endloop
endfacet
facet normal 0.245486 -0.9694 0
outer loop
vertex 803.972 706.898 1.94289e-013
vertex 838.995 715.767 500
vertex 803.972 706.898 500
endloop
endfacet
facet normal 0.401696 -0.915773 0
outer loop
vertex 803.972 706.898 1.94289e-013
vertex 803.972 706.898 500
vertex 770.886 692.385 1.94289e-013
endloop
endfacet
facet normal 0.401696 -0.915773 0
outer loop
vertex 770.886 692.385 1.94289e-013
vertex 803.972 706.898 500
vertex 770.886 692.385 500
endloop
endfacet
facet normal 0.546948 -0.837166 0
outer loop
vertex 770.886 692.385 1.94289e-013
vertex 770.886 692.385 500
vertex 740.641 672.624 1.94289e-013
endloop
endfacet
facet normal 0.546948 -0.837166 0
outer loop
vertex 740.641 672.624 1.94289e-013
vertex 770.886 692.385 500
vertex 740.641 672.624 500
endloop
endfacet
facet normal 0.67728 -0.735725 0
outer loop
vertex 740.641 672.624 1.94289e-013
vertex 740.641 672.624 500
vertex 714.06 648.155 1.94289e-013
endloop
endfacet
facet normal 0.67728 -0.735725 0
outer loop
vertex 714.06 648.155 1.94289e-013
vertex 740.641 672.624 500
vertex 714.06 648.155 500
endloop
endfacet
facet normal 0.789141 -0.614211 0
outer loop
vertex 714.06 648.155 1.94289e-013
vertex 714.06 648.155 500
vertex 691.87 619.645 1.94289e-013
endloop
endfacet
facet normal 0.789141 -0.614211 0
outer loop
vertex 691.87 619.645 1.94289e-013
vertex 714.06 648.155 500
vertex 691.87 619.645 500
endloop
endfacet
facet normal 0.879473 -0.475949 0
outer loop
vertex 691.87 619.645 1.94289e-013
vertex 691.87 619.645 500
vertex 674.675 587.871 1.94289e-013
endloop
endfacet
facet normal 0.879473 -0.475949 0
outer loop
vertex 674.675 587.871 1.94289e-013
vertex 691.87 619.645 500
vertex 674.675 587.871 500
endloop
endfacet
facet normal 0.945818 -0.324698 0
outer loop
vertex 674.675 587.871 1.94289e-013
vertex 674.675 587.871 500
vertex 662.944 553.7 1.94289e-013
endloop
endfacet
facet normal 0.945818 -0.324698 0
outer loop
vertex 662.944 553.7 1.94289e-013
vertex 674.675 587.871 500
vertex 662.944 553.7 500
endloop
endfacet
facet normal 0.986361 -0.164596 0
outer loop
vertex 662.944 553.7 1.94289e-013
vertex 662.944 553.7 500
vertex 656.997 518.064 1.94289e-013
endloop
endfacet
facet normal 0.986361 -0.164596 0
outer loop
vertex 656.997 518.064 1.94289e-013
vertex 662.944 553.7 500
vertex 656.997 518.064 500
endloop
endfacet
facet normal 1 0 0
outer loop
vertex 656.997 518.064 1.94289e-013
vertex 656.997 518.064 500
vertex 656.997 481.936 1.94289e-013
endloop
endfacet
facet normal 1 0 0
outer loop
vertex 656.997 481.936 1.94289e-013
vertex 656.997 518.064 500
vertex 656.997 481.936 500
endloop
endfacet
facet normal 0.986361 0.164596 0
outer loop
vertex 656.997 481.936 1.94289e-013
vertex 656.997 481.936 500
vertex 662.944 446.3 1.94289e-013
endloop
endfacet
facet normal 0.986361 0.164596 0
outer loop
vertex 662.944 446.3 1.94289e-013
vertex 656.997 481.936 500
vertex 662.944 446.3 500
endloop
endfacet
facet normal 0.945818 0.324698 0
outer loop
vertex 662.944 446.3 1.94289e-013
vertex 662.944 446.3 500
vertex 674.675 412.129 1.94289e-013
endloop
endfacet
facet normal 0.945818 0.324698 0
outer loop
vertex 674.675 412.129 1.94289e-013
vertex 662.944 446.3 500
vertex 674.675 412.129 500
endloop
endfacet
facet normal 0.879473 0.47595 0
outer loop
vertex 674.675 412.129 1.94289e-013
vertex 674.675 412.129 500
vertex 691.87 380.355 1.94289e-013
endloop
endfacet
facet normal 0.879473 0.47595 0
outer loop
vertex 691.87 380.355 1.94289e-013
vertex 674.675 412.129 500
vertex 691.87 380.355 500
endloop
endfacet
facet normal 0.789142 0.614211 0
outer loop
vertex 691.87 380.355 1.94289e-013
vertex 691.87 380.355 500
vertex 714.06 351.845 1.94289e-013
endloop
endfacet
facet normal 0.789142 0.614211 0
outer loop
vertex 714.06 351.845 1.94289e-013
vertex 691.87 380.355 500
vertex 714.06 351.845 500
endloop
endfacet
facet normal 0.677281 0.735725 0
outer loop
vertex 714.06 351.845 1.94289e-013
vertex 714.06 351.845 500
vertex 740.641 327.376 1.94289e-013
endloop
endfacet
facet normal 0.677281 0.735725 0
outer loop
vertex 740.641 327.376 1.94289e-013
vertex 714.06 351.845 500
vertex 740.641 327.376 500
endloop
endfacet
facet normal 0.546949 0.837166 0
outer loop
vertex 740.641 327.376 1.94289e-013
vertex 740.641 327.376 500
vertex 770.886 307.615 1.94289e-013
endloop
endfacet
facet normal 0.546949 0.837166 0
outer loop
vertex 770.886 307.615 1.94289e-013
vertex 740.641 327.376 500
vertex 770.886 307.615 500
endloop
endfacet
facet normal 0.401694 0.915774 0
outer loop
vertex 770.886 307.615 1.94289e-013
vertex 770.886 307.615 500
vertex 803.972 293.103 1.94289e-013
endloop
endfacet
facet normal 0.401694 0.915774 0
outer loop
vertex 803.972 293.103 1.94289e-013
vertex 770.886 307.615 500
vertex 803.972 293.103 500
endloop
endfacet
facet normal 0.245486 0.9694 0
outer loop
vertex 803.972 293.103 1.94289e-013
vertex 803.972 293.103 500
vertex 838.995 284.233 1.94289e-013
endloop
endfacet
facet normal 0.245486 0.9694 0
outer loop
vertex 838.995 284.233 1.94289e-013
vertex 803.972 293.103 500
vertex 838.995 284.233 500
endloop
endfacet
facet normal 0.0825792 0.996585 0
outer loop
vertex 838.995 284.233 1.94289e-013
vertex 838.995 284.233 500
vertex 875 281.25 1.94289e-013
endloop
endfacet
facet normal 0.0825792 0.996585 0
outer loop
vertex 875 281.25 1.94289e-013
vertex 838.995 284.233 500
vertex 875 281.25 500
endloop
endfacet
facet normal 0 -1 0
outer loop
vertex 2343.75 0 250
vertex 2265.63 0 250
vertex 2343.75 0 125
endloop
endfacet
facet normal 0 -1 0
outer loop
vertex 2343.75 0 125
vertex 2265.63 0 250
vertex 437.5 0 1.94289e-013
endloop
endfacet
facet normal 0 -1 0
outer loop
vertex 2343.75 0 125
vertex 437.5 0 1.94289e-013
vertex 2421.88 0 125
endloop
endfacet
facet normal 0 -1 0
outer loop
vertex 2421.88 0 125
vertex 437.5 0 1.94289e-013
vertex 2500 0 2.1223e-013
endloop
endfacet
facet normal 0 -1 0
outer loop
vertex 2187.5 0 500
vertex 437.5 0 500
vertex 2187.5 0 375
endloop
endfacet
facet normal 0 -1 0
outer loop
vertex 2187.5 0 375
vertex 437.5 0 500
vertex 437.5 0 1.94289e-013
endloop
endfacet
facet normal 0 -1 0
outer loop
vertex 2187.5 0 375
vertex 437.5 0 1.94289e-013
vertex 2265.63 0 375
endloop
endfacet
facet normal 0 -1 0
outer loop
vertex 2265.63 0 375
vertex 437.5 0 1.94289e-013
vertex 2265.63 0 250
endloop
endfacet
facet normal 1 0 0
outer loop
vertex 2187.5 1000 500
vertex 2187.5 0 500
vertex 2187.5 1000 375
endloop
endfacet
facet normal 1 0 0
outer loop
vertex 2187.5 1000 375
vertex 2187.5 0 500
vertex 2187.5 0 375
endloop
endfacet
facet normal 0 1 0
outer loop
vertex 437.5 1000 1.94289e-013
vertex 437.5 1000 500
vertex 2187.5 1000 500
endloop
endfacet
facet normal 0 1 0
outer loop
vertex 2187.5 1000 500
vertex 2187.5 1000 375
vertex 437.5 1000 1.94289e-013
endloop
endfacet
facet normal 0 1 0
outer loop
vertex 437.5 1000 1.94289e-013
vertex 2187.5 1000 375
vertex 2265.63 1000 375
endloop
endfacet
facet normal 0 1 0
outer loop
vertex 437.5 1000 1.94289e-013
vertex 2265.63 1000 375
vertex 2265.63 1000 250
endloop
endfacet
facet normal 0 1 0
outer loop
vertex 2421.88 1000 125
vertex 2500 1000 1.94289e-013
vertex 2343.75 1000 125
endloop
endfacet
facet normal 0 1 0
outer loop
vertex 2343.75 1000 125
vertex 2500 1000 1.94289e-013
vertex 437.5 1000 1.94289e-013
endloop
endfacet
facet normal 0 1 0
outer loop
vertex 2343.75 1000 125
vertex 437.5 1000 1.94289e-013
vertex 2343.75 1000 250
endloop
endfacet
facet normal 0 1 0
outer loop
vertex 2343.75 1000 250
vertex 437.5 1000 1.94289e-013
vertex 2265.63 1000 250
endloop
endfacet
facet normal -0.540758 0.841178 0
outer loop
vertex 437.5 1000 500
vertex 437.5 1000 1.94289e-013
vertex 3.05311e-013 718.75 500
endloop
endfacet
facet normal -0.540758 0.841178 2.2629e-017
outer loop
vertex 3.05311e-013 718.75 500
vertex 437.5 1000 1.94289e-013
vertex 2.9485e-013 718.75 250
endloop
endfacet
facet normal -1 4.7825e-017 4.18468e-017
outer loop
vertex 2.9485e-013 718.75 250
vertex 2.73926e-013 281.25 250
vertex 3.05311e-013 718.75 500
endloop
endfacet
facet normal -1 0 1.25541e-016
outer loop
vertex 3.05311e-013 718.75 500
vertex 2.73926e-013 281.25 250
vertex 3.05311e-013 281.25 500
endloop
endfacet
facet normal -0.540758 -0.841178 0
outer loop
vertex 3.05311e-013 281.25 500
vertex 2.73926e-013 281.25 250
vertex 437.5 0 500
endloop
endfacet
facet normal -0.540758 -0.841178 0
outer loop
vertex 437.5 0 500
vertex 2.73926e-013 281.25 250
vertex 437.5 0 1.94289e-013
endloop
endfacet
facet normal 0 0 1
outer loop
vertex 1848.44 648.155 500
vertex 1870.63 619.645 500
vertex 2187.5 1000 500
endloop
endfacet
facet normal 0 0 1
outer loop
vertex 2187.5 1000 500
vertex 1870.63 619.645 500
vertex 1887.83 587.871 500
endloop
endfacet
facet normal 0 0 1
outer loop
vertex 1887.83 587.871 500
vertex 1899.56 553.7 500
vertex 2187.5 1000 500
endloop
endfacet
facet normal 0 0 1
outer loop
vertex 2187.5 1000 500
vertex 1899.56 553.7 500
vertex 1905.5 518.064 500
endloop
endfacet
facet normal 0 0 1
outer loop
vertex 2187.5 1000 500
vertex 1905.5 518.064 500
vertex 2187.5 0 500
endloop
endfacet
facet normal 0 0 1
outer loop
vertex 2187.5 0 500
vertex 1905.5 518.064 500
vertex 1905.5 481.936 500
endloop
endfacet
facet normal 0 0 1
outer loop
vertex 2187.5 0 500
vertex 1905.5 481.936 500
vertex 1899.56 446.3 500
endloop
endfacet
facet normal 0 0 1
outer loop
vertex 1899.56 446.3 500
vertex 1887.83 412.129 500
vertex 2187.5 0 500
endloop
endfacet
facet normal 0 0 1
outer loop
vertex 2187.5 0 500
vertex 1887.83 412.129 500
vertex 1870.63 380.355 500
endloop
endfacet
facet normal 0 0 1
outer loop
vertex 2187.5 0 500
vertex 1870.63 380.355 500
vertex 1848.44 351.845 500
endloop
endfacet
facet normal 0 0 1
outer loop
vertex 1848.44 351.845 500
vertex 1821.86 327.376 500
vertex 2187.5 0 500
endloop
endfacet
facet normal 0 0 1
outer loop
vertex 2187.5 0 500
vertex 1821.86 327.376 500
vertex 1791.61 307.615 500
endloop
endfacet
facet normal 0 0 1
outer loop
vertex 2187.5 0 500
vertex 1791.61 307.615 500
vertex 1758.53 293.103 500
endloop
endfacet
facet normal 0 0 1
outer loop
vertex 2187.5 1000 500
vertex 1723.51 715.767 500
vertex 1758.53 706.898 500
endloop
endfacet
facet normal 0 0 1
outer loop
vertex 1758.53 706.898 500
vertex 1791.61 692.385 500
vertex 2187.5 1000 500
endloop
endfacet
facet normal 0 0 1
outer loop
vertex 2187.5 1000 500
vertex 1791.61 692.385 500
vertex 1821.86 672.624 500
endloop
endfacet
facet normal 0 0 1
outer loop
vertex 2187.5 1000 500
vertex 1821.86 672.624 500
vertex 1848.44 648.155 500
endloop
endfacet
facet normal 0 0 1
outer loop
vertex 838.995 284.233 500
vertex 803.972 293.103 500
vertex 437.5 0 500
endloop
endfacet
facet normal 0 0 1
outer loop
vertex 437.5 0 500
vertex 803.972 293.103 500
vertex 770.886 307.615 500
endloop
endfacet
facet normal 0 0 1
outer loop
vertex 437.5 0 500
vertex 770.886 307.615 500
vertex 740.641 327.376 500
endloop
endfacet
facet normal 0 0 1
outer loop
vertex 674.675 412.129 500
vertex 3.05311e-013 281.25 500
vertex 691.87 380.355 500
endloop
endfacet
facet normal 0 0 1
outer loop
vertex 691.87 380.355 500
vertex 3.05311e-013 281.25 500
vertex 437.5 0 500
endloop
endfacet
facet normal 0 0 1
outer loop
vertex 691.87 380.355 500
vertex 437.5 0 500
vertex 714.06 351.845 500
endloop
endfacet
facet normal 0 0 1
outer loop
vertex 714.06 351.845 500
vertex 437.5 0 500
vertex 740.641 327.376 500
endloop
endfacet
facet normal 0 0 1
outer loop
vertex 437.5 1000 500
vertex 770.886 692.385 500
vertex 803.972 706.898 500
endloop
endfacet
facet normal 0 0 1
outer loop
vertex 1758.53 293.103 500
vertex 1723.51 284.233 500
vertex 2187.5 0 500
endloop
endfacet
facet normal 0 0 1
outer loop
vertex 2187.5 0 500
vertex 1723.51 284.233 500
vertex 1687.5 281.25 500
endloop
endfacet
facet normal 0 0 1
outer loop
vertex 2187.5 0 500
vertex 1687.5 281.25 500
vertex 437.5 0 500
endloop
endfacet
facet normal 0 0 1
outer loop
vertex 437.5 0 500
vertex 1687.5 281.25 500
vertex 875 281.25 500
endloop
endfacet
facet normal 0 0 1
outer loop
vertex 437.5 0 500
vertex 875 281.25 500
vertex 838.995 284.233 500
endloop
endfacet
facet normal 0 0 1
outer loop
vertex 656.997 518.064 500
vertex 3.05311e-013 718.75 500
vertex 656.997 481.936 500
endloop
endfacet
facet normal 0 0 1
outer loop
vertex 656.997 481.936 500
vertex 3.05311e-013 718.75 500
vertex 3.05311e-013 281.25 500
endloop
endfacet
facet normal 0 0 1
outer loop
vertex 656.997 481.936 500
vertex 3.05311e-013 281.25 500
vertex 662.944 446.3 500
endloop
endfacet
facet normal 0 0 1
outer loop
vertex 662.944 446.3 500
vertex 3.05311e-013 281.25 500
vertex 674.675 412.129 500
endloop
endfacet
facet normal 0 0 1
outer loop
vertex 656.997 518.064 500
vertex 662.944 553.7 500
vertex 3.05311e-013 718.75 500
endloop
endfacet
facet normal 0 0 1
outer loop
vertex 3.05311e-013 718.75 500
vertex 662.944 553.7 500
vertex 674.675 587.871 500
endloop
endfacet
facet normal 0 0 1
outer loop
vertex 3.05311e-013 718.75 500
vertex 674.675 587.871 500
vertex 437.5 1000 500
endloop
endfacet
facet normal 0 0 1
outer loop
vertex 437.5 1000 500
vertex 674.675 587.871 500
vertex 691.87 619.645 500
endloop
endfacet
facet normal 0 0 1
outer loop
vertex 691.87 619.645 500
vertex 714.06 648.155 500
vertex 437.5 1000 500
endloop
endfacet
facet normal 0 0 1
outer loop
vertex 437.5 1000 500
vertex 714.06 648.155 500
vertex 740.641 672.624 500
endloop
endfacet
facet normal 0 0 1
outer loop
vertex 437.5 1000 500
vertex 740.641 672.624 500
vertex 770.886 692.385 500
endloop
endfacet
facet normal 0 0 1
outer loop
vertex 803.972 706.898 500
vertex 838.995 715.767 500
vertex 437.5 1000 500
endloop
endfacet
facet normal 0 0 1
outer loop
vertex 437.5 1000 500
vertex 838.995 715.767 500
vertex 875 718.75 500
endloop
endfacet
facet normal 0 0 1
outer loop
vertex 437.5 1000 500
vertex 875 718.75 500
vertex 2187.5 1000 500
endloop
endfacet
facet normal 0 0 1
outer loop
vertex 2187.5 1000 500
vertex 875 718.75 500
vertex 1687.5 718.75 500
endloop
endfacet
facet normal 0 0 1
outer loop
vertex 2187.5 1000 500
vertex 1687.5 718.75 500
vertex 1723.51 715.767 500
endloop
endfacet
endsolid
